<?xml version="1.0" encoding="UTF-8" standalone="no"?>
<svg
   xmlns:dc="http://purl.org/dc/elements/1.1/"
   xmlns:cc="http://creativecommons.org/ns#"
   xmlns:rdf="http://www.w3.org/1999/02/22-rdf-syntax-ns#"
   xmlns:svg="http://www.w3.org/2000/svg"
   xmlns="http://www.w3.org/2000/svg"
   xmlns:sodipodi="http://sodipodi.sourceforge.net/DTD/sodipodi-0.dtd"
   xmlns:inkscape="http://www.inkscape.org/namespaces/inkscape"
   version="1.1"
   id="svg2"
   xml:space="preserve"
   width="58.998734"
   height="38.266479"
   viewBox="0 0 58.998733 38.266479"
   sodipodi:docname="vectorian161.pdf"><metadata
     id="metadata8"><rdf:RDF><cc:Work
         rdf:about=""><dc:format>image/svg+xml</dc:format><dc:type
           rdf:resource="http://purl.org/dc/dcmitype/StillImage" /></cc:Work></rdf:RDF></metadata><defs
     id="defs6"><clipPath
       clipPathUnits="userSpaceOnUse"
       id="clipPath28"><path
         d="M 0,0 H 44.24905 V 28.69986 H 0 Z"
         id="path26" /></clipPath></defs><sodipodi:namedview
     pagecolor="#ffffff"
     bordercolor="#666666"
     borderopacity="1"
     objecttolerance="10"
     gridtolerance="10"
     guidetolerance="10"
     inkscape:pageopacity="0"
     inkscape:pageshadow="2"
     inkscape:window-width="640"
     inkscape:window-height="480"
     id="namedview4" /><g
     id="g10"
     inkscape:groupmode="layer"
     inkscape:label="vectorian161"
     transform="matrix(1.3333333,0,0,-1.3333333,0,38.266479)"><g
       id="g12"
       transform="translate(72,-43.301)"><g
         id="g14"
         transform="translate(-72,43.301)"><g
           id="g16"><g
             id="g18"><path
               d="m 7.08508,14.40448 c 0,0 -0.75882,-0.11961 -0.86201,-0.39621 -0.10381,-0.27661 0.5171,-0.24181 0.8961,-0.0703 0.37911,0.17409 0.46593,0.48419 -0.03409,0.46651 m 0.138,0.41458 c 0.9309,0 0.8619,-0.41458 0.08669,-1.0526 -0.77661,-0.6379 -1.56961,-0.3278 -1.0177,0.62091 0.55121,0.94802 1.86191,1.12081 1.86191,1.12081 -0.56888,-0.3627 -0.9309,-0.68912 -0.9309,-0.68912"
               style="fill:#000000;fill-opacity:1;fill-rule:nonzero;stroke:#000000;stroke-width:0.3985;stroke-linecap:butt;stroke-linejoin:miter;stroke-miterlimit:10;stroke-dasharray:none;stroke-opacity:1"
               id="path20" /><path
               d="m 15.7922,7.52568 c 0,0 0.25889,-2.51823 1.74172,-4.15546 1.4828,-1.63862 3.51753,-1.1045 4.93146,-0.27659 1.41312,0.8285 2.05113,1.96641 1.70682,2.06952 -0.34491,0.10382 -1.69042,0.03412 -1.69042,0.03412 0,0 -0.24112,-0.43093 0.17279,-0.74102 0.41393,-0.31012 0.0177,-0.94871 -0.77591,-0.94871 -0.79301,0 -0.5341,0.069 -1.13791,-0.32791 C 20.13695,2.78352 19.49904,2.50752 18.24081,3.66254 16.9821,4.81894 16.8099,8.09328 16.8099,8.09328 l 0.4133,0.46582 0.27662,-2.24164 c 0,0 1.7929,1.13861 3.10293,3.39735 l 0.58602,-0.1031 c 0,0 -1.12012,-1.87901 -3.55106,-3.74165 0,0 0.37911,-1.87963 1.32712,-2.43084 0.9487,-0.55191 1.39683,-0.3805 1.77592,0.06832 0.3797,0.44801 0.13791,0.5341 0.77591,0.50061 0.63791,-0.03551 0.89681,-0.12091 0.70761,0.224 -0.19061,0.345 -0.62159,1.448 0.25751,1.56891 0.8804,0.1202 2.46575,0 2.15631,-0.79361 C 24.32799,4.21443 23.1552,2.45561 20.27554,2.00691 17.39601,1.55882 15.58528,4.78334 15.15428,7.16307 Z"
               style="fill:#000000;fill-opacity:1;fill-rule:nonzero;stroke:#000000;stroke-width:0.3985;stroke-linecap:butt;stroke-linejoin:miter;stroke-miterlimit:10;stroke-dasharray:none;stroke-opacity:1"
               id="path22" /><g
               id="g24"
               clip-path="url(#clipPath28)"><path
                 d="m 18.06801,12.88335 c 0,0 0.278,1.03952 0.38252,1.97662 0.10318,0.93713 -0.41591,1.14482 -0.69461,0.3129 -0.27732,-0.83329 0.31209,-2.28952 0.31209,-2.28952 M 3.25533,18.78053 c -1.04021,-0.90222 -0.1728,-1.80381 1.70071,-1.45681 1.87294,0.34689 2.11534,1.42199 2.11534,1.42199 -0.3121,0.86743 -2.77515,0.93714 -3.81605,0.03482 m 39.0532,-1.13792 c -0.93161,-0.54981 -0.2958,-1.60713 -0.2958,-1.60713 2.32573,0.67624 1.22612,2.15765 0.2958,1.60713 m -8.7577,-1.05801 c 0,0 -0.46451,-2.66445 -3.59616,-3.89115 0,0 -0.33811,-0.50751 1.05871,-0.04301 1.39612,0.46582 3.13034,0.88862 4.35697,0.38041 1.2267,-0.50682 2.03131,-0.4644 3.21502,-2.36802 1.18502,-1.90353 1.98894,-3.13023 3.25806,-4.10356 1.26833,-0.97332 2.02992,-1.18512 1.94522,-0.5082 -0.084,0.67691 0.2117,1.26972 -0.80322,1.26972 -1.01502,0 -0.6769,0.25338 -0.8039,0.67691 -0.1271,0.42208 -2.19944,1.4384 -2.19944,2.87692 0,1.43843 0.21182,1.86053 -0.42411,2.57973 -0.63319,0.71922 -1.01429,0.50822 -1.8195,0.38111 -0.80263,-0.12629 -2.11404,0.6339 -3.08736,1.65093 -0.97331,1.01421 -1.10029,1.09821 -1.10029,1.09821 m -5.83168,4.51007 c -1.32914,0 -2.43703,-1.25542 -1.91993,-4.21018 0.517,-2.95274 1.91993,-3.17473 1.91993,-3.17473 2.73282,3.76755 1.84622,7.38491 0,7.38491 M 18.1186,11.19833 C 17.82281,10.60753 17.60152,9.27971 17.60152,9.27971 l 1.18171,1.25401 z m -0.22129,0.44461 c -0.66531,0.8115 -1.03479,4.50455 0.36882,4.43016 1.40359,-0.0731 0.07381,-3.32225 0.07381,-3.91516 0,-0.5894 0.59079,-1.03341 0.59079,-1.03341 1.25611,2.51153 1.84693,6.20457 1.25611,7.46 -0.59152,1.25472 -2.21643,0.4433 -3.61934,-3.32425 C 15.16458,11.49472 15.68088,7.8761 15.68088,7.8761 16.6412,8.2443 17.232,8.98329 17.232,8.98329 c 0,0.59154 0.66531,2.65965 0.66531,2.65965 M 6.89317,0.34308 c 0,0 -1.32921,-0.59076 -2.21573,-0.222 0,0 0.0737,0.96101 0.66451,1.47732 0.5908,0.5171 4.57907,2.80594 5.46487,4.87336 0.88662,2.06894 0.73842,6.13089 -0.96031,6.79539 L 9.5514,12.82326 9.4039,13.26715 c 0,0 -0.9603,-1.40352 -1.0341,-1.69861 -0.0737,-0.2958 0.0738,-1.77243 -2.14124,-2.43704 0,0 -1.92062,-0.73901 -2.43703,0.66461 l -0.36952,1.84683 c 0,0 -1.2554,1.18032 -0.44328,2.06682 l -0.36882,1.03412 c 0,0 -1.25611,-0.44261 -2.43703,0.59081 L 1.2063,16.7383 c 0,0 -0.96031,0.51641 -1.18161,1.40223 -0.22127,0.8873 1.03341,0.5185 1.03341,0.5185 0,0 -1.47598,-0.6653 0.88721,-1.77454 L 0.76369,15.40848 c 0,0 2.36325,-0.07379 3.17535,-0.07379 0,0 0,-0.2206 0.07381,-0.81342 0.07379,-0.58952 -0.07381,-1.03282 -0.07381,-1.03282 0,0 0.7384,-0.295 0.29579,-1.47661 -0.4433,-1.18231 -0.29579,-1.77252 0.29502,-1.77252 0.59021,0 2.21571,-0.37012 1.3292,0.6646 l 0.14821,0.36882 c 0,0 0.59012,-0.36882 0.59012,-0.73902 0,-0.3681 -0.36882,-0.95889 -1.77173,-0.81142 0,0 0,-0.37019 0.59081,-0.37019 0.5908,0 2.21501,0.6653 2.21501,1.25542 0,0.5908 -0.22128,1.03541 0.51703,1.84691 0.7391,0.81271 1.2554,1.18162 1.1079,1.99443 L 9.62521,14.37506 9.6997,13.78427 c 0,0 0.44262,-0.37022 0.81213,-0.44472 0.3695,-0.0724 1.25531,-0.95892 1.32911,-3.17393 0.07379,-2.21643 0.29509,-5.09535 -5.68619,-8.49412 0,0 -0.8128,-0.44259 -0.96031,-0.95962 0,0 0.81282,-0.14819 1.62493,0.29572 0,0 0.3688,0.88591 1.47673,1.1079 1.1078,0.22132 4.20945,1.99304 5.02156,5.7606 0,0 -1.32923,1.40361 -1.18163,4.35635 0.14821,2.95473 0.96033,6.72087 6.20391,11.29995 0,0 -4.13578,0.8127 -9.60065,-4.13578 L 10.65932,19.32224 9.4777,17.9199 c 0,0 1.69862,-0.22189 1.91994,-0.5908 0,0 -0.95962,-1.55182 -1.62424,-1.6262 L 9.1089,15.03969 c 0,0 -0.2213,1.03341 0.3688,1.18161 0.59151,0.1475 1.10783,0.66319 1.18162,1.03341 L 8.1485,17.3291 c 0,0 0.07379,0.5908 0.7391,0.95972 0.6638,0.37021 0.95891,0.6645 0.95891,0.6645 0,0 -0.8121,0.59082 -2.51013,-0.5908 0,0 -1.18163,-1.55042 -2.14194,-1.69792 C 4.23483,16.51628 3.56953,16.29568 2.53543,17.3291 L 1.8715,17.55042 c 0,0 -0.1482,0.36948 0.44262,0.44331 0,0 0.36949,0.7383 1.10789,1.18089 0.73833,0.44333 2.95406,1.03482 3.98818,-0.295 0,0 0.44259,0 0.8121,0.517 0.36951,0.51642 3.91374,5.75998 10.63535,4.50456 0,0 5.68616,5.09668 11.37234,1.77243 0,0 0.517,2.14193 3.39735,2.87964 2.88033,0.739 5.46487,-1.47601 5.83507,-2.95273 0.3681,-1.47734 0.1468,-2.80725 -0.2965,-4.50585 -0.44392,-1.69805 -0.22192,-5.02157 2.43772,-4.94718 0,0 -0.5177,0.737 0.29581,1.62422 0.8114,0.88732 2.06752,0.07449 1.84552,-0.517 C 43.52295,16.6646 43.07965,16 42.19374,15.7029 c 0,0 1.1823,-1.10723 0.9604,-2.28885 -0.22059,-1.1816 -0.8128,-1.40221 -0.8128,-1.40221 0,0 0.14748,0.59081 0.2957,1.18161 0.14819,0.59082 -0.222,2.43703 -1.18163,2.43703 -0.95959,0 -2.58521,0.295 -3.61863,2.73204 -1.03412,2.43703 1.1072,6.86848 -1.40363,8.12391 -2.51074,1.25541 -4.20875,-0.51712 -3.76615,-2.14133 0.4433,-1.62553 0.739,-2.14263 1.10783,-3.39735 0.3695,-1.25531 0.29509,-3.10155 -0.1475,-3.98885 0,0 0.29508,-0.1468 0.81209,-0.5901 0.517,-0.44332 1.77243,-2.29014 3.54485,-2.29014 0,0 0.81212,0.51701 1.40363,0.07371 0.59019,-0.44261 0.8859,-1.03271 0.8859,-1.54972 0,-0.51709 -0.51641,-2.65975 1.55182,-3.61936 0,0 0.98351,-0.22199 0.78751,-1.10719 0,0 1.42752,0.29437 1.42752,-0.51703 0,-0.81281 0.2206,-2.06891 0.2206,-2.06891 0,0 -0.07241,-0.36882 -0.5163,-0.07371 0,0 0.14821,-0.14618 -1.77242,0.73901 0,0 -0.96041,0.2964 -1.69873,1.47801 -0.7377,1.18103 -2.43702,3.69106 -3.39665,4.06125 -0.96031,0.36891 -2.73282,1.25613 -3.91445,0.88591 0,0 0.0738,-0.6653 -0.36948,-0.95961 C 32.1506,11.12453 30.89458,10.60753 30.30368,10.16562 29.71286,9.7223 29.78667,9.1315 28.82637,8.83511 c 0,0 -0.07312,-0.14761 -0.07312,-0.73701 0,-0.59223 -0.14819,-0.73903 -0.73831,-0.81352 l -0.22199,-0.4426 c 0,0 0.4433,-1.32982 0.4433,-1.55182 0,0 -2.06824,-0.44261 -3.32365,-0.29431 0,0 0.29582,3.98744 5.31738,6.49887 0,0 -3.02785,-1.2554 -4.87405,-5.90877 0,0 0,-0.1476 0.81208,-0.07379 0.81282,0.07379 1.47672,0.2964 1.47672,0.2964 0,0 -0.5901,1.18032 -0.29509,1.62491 0.29509,0.44263 0.6653,0.36823 0.88661,0.95902 0.2213,0.5908 0.81282,1.77313 2.14124,2.36393 1.32921,0.59012 2.65901,1.62421 2.43773,1.91993 0,0 -1.84624,-0.29572 -2.80655,-0.51841 0,0 -0.51711,-0.21991 -0.51711,0.22269 0,0 -1.1078,-0.36879 -0.8865,0.37022 0,0 0.73901,-0.0745 1.69862,0.36881 0.96042,0.44261 2.73282,2.36324 3.02853,5.46487 0.29512,3.10093 -0.81281,4.20874 -1.03471,4.43076 -0.2213,0.22198 -1.40292,2.14131 0.5908,3.69313 1.99442,1.55043 4.06255,0.59012 4.87407,-0.81281 0.81272,-1.40291 0.51841,-2.43774 0.29641,-3.10234 -0.222,-0.66389 -0.88593,-4.28254 1.25542,-6.05497 0,0 -0.88663,1.25543 -0.51781,3.83996 0.36951,2.58454 1.03411,4.50455 -0.29502,6.13016 -1.32852,1.62422 -4.28325,2.21504 -6.27697,0.59012 -1.99442,-1.62493 -2.43773,-4.43146 -0.66532,-6.57269 0,0 -2.14122,1.03401 -1.55041,4.43075 0,0 -0.73841,1.03342 -3.02784,1.18163 -2.28953,0.1482 -4.72656,-0.29511 -7.68058,-2.73213 0,0 3.10092,-1.25542 3.69243,-4.13567 0.59082,-2.88033 0.22201,-7.0898 -1.47742,-9.37932 h -0.6646 c 0,0 5.02226,9.30551 -1.84613,13.29297 0,0 -3.24914,-2.21503 -5.31738,-7.0884 0,0 -1.55112,-3.98953 0.07381,-8.19758 0,0 0.29571,-0.59223 1.40362,-0.73903 0,0 -0.81221,1.92064 -0.1476,5.61238 0.6639,3.69315 2.95343,7.0898 4.57834,6.72099 1.62424,-0.3702 2.21506,-4.28396 -0.22128,-9.01052 0,0 0.22128,-0.73902 2.43634,-0.88581 2.21642,-0.1476 4.87535,2.06752 5.61305,3.32355 0,0 -1.40291,0.36879 -2.14131,3.39662 -0.82442,3.37756 0.95972,5.0954 2.21571,5.0954 1.25542,0 2.95414,-0.81213 2.36333,-5.16908 -0.5909,-4.35704 -6.42528,-9.45372 -10.70914,-6.12947 0,0 -3.17532,-4.50457 -5.53796,-3.02855 0,0 0,-3.24974 -3.54485,-5.11988 0,0 -0.98491,-0.5915 -1.28071,-0.9849 0,0 -1.18163,0.1967 -1.37831,-0.1968 C 7.21347,0.58888 6.89317,0.34308 6.89317,0.34308"
                 style="fill:#000000;fill-opacity:1;fill-rule:nonzero;stroke:#000000;stroke-width:0.3985;stroke-linecap:butt;stroke-linejoin:miter;stroke-miterlimit:10;stroke-dasharray:none;stroke-opacity:1"
                 id="path30" /></g></g></g></g></g></g></svg>
