<?xml version="1.0" encoding="UTF-8" standalone="no"?>
<svg
   xmlns:dc="http://purl.org/dc/elements/1.1/"
   xmlns:cc="http://creativecommons.org/ns#"
   xmlns:rdf="http://www.w3.org/1999/02/22-rdf-syntax-ns#"
   xmlns:svg="http://www.w3.org/2000/svg"
   xmlns="http://www.w3.org/2000/svg"
   xmlns:sodipodi="http://sodipodi.sourceforge.net/DTD/sodipodi-0.dtd"
   xmlns:inkscape="http://www.inkscape.org/namespaces/inkscape"
   version="1.1"
   id="svg2"
   xml:space="preserve"
   width="62.959999"
   height="40.066666"
   viewBox="0 0 62.959999 40.066666"
   sodipodi:docname="vectorian092.pdf"><metadata
     id="metadata8"><rdf:RDF><cc:Work
         rdf:about=""><dc:format>image/svg+xml</dc:format><dc:type
           rdf:resource="http://purl.org/dc/dcmitype/StillImage" /></cc:Work></rdf:RDF></metadata><defs
     id="defs6" /><sodipodi:namedview
     pagecolor="#ffffff"
     bordercolor="#666666"
     borderopacity="1"
     objecttolerance="10"
     gridtolerance="10"
     guidetolerance="10"
     inkscape:pageopacity="0"
     inkscape:pageshadow="2"
     inkscape:window-width="640"
     inkscape:window-height="480"
     id="namedview4" /><g
     id="g10"
     inkscape:groupmode="layer"
     inkscape:label="vectorian092"
     transform="matrix(1.3333333,0,0,-1.3333333,0,40.066667)"><g
       id="g12"
       transform="translate(72,-41.953)"><g
         id="g14"
         transform="translate(-71.388,42.648)"><g
           id="g16"><g
             id="g18"><path
               d="m 10.91702,27.47855 c 0,0 2.55655,-0.19262 3.71425,-1.06211 1.15842,-0.86813 0.72402,-1.97734 -3.42535,-2.07434 -4.14794,-0.09631 -9.26182,1.30252 -9.1655,2.75054 0.09568,1.44731 6.27217,1.73561 10.22833,0.96441 3.95465,-0.77112 3.81053,-2.12353 3.95465,-3.66644 0.1441,-1.54434 0.6277,-4.14937 1.54361,-6.27008 0,0 0.33672,-0.77391 1.78472,-3.81267 1.44732,-3.04013 3.90826,-5.78996 11.24125,-8.49071 0,0 4.38976,-1.64061 7.47701,-1.54492 3.08662,0.0969 3.61795,0.24242 4.19655,-0.4823 C 43.04573,3.06732 42.32233,1.6678 36.72636,1.04149 31.12968,0.41379 25.82332,2.77771 20.95125,4.61165 16.07928,6.44417 7.73279,5.67107 4.21103,4.17654 c 0,0 2.07574,0.53011 4.43837,0.722 0,0 -1.44672,-1.34971 -0.62702,-3.66514 0,0 -1.73561,-0.7233 -4.24505,0.2896 0,0 0.28902,0.62771 -0.57982,2.36534 -0.86749,1.73552 -3.03813,4.38905 -1.88111,8.3452 1.15774,3.95674 1.93021,8.77952 0.2411,13.79638 0,0 1.25543,-4.29284 -0.1441,-8.63552 -1.39951,-4.34055 -2.0251,-5.64307 -0.627,-9.11701 1.39881,-3.47385 2.79763,-5.21007 2.36393,-7.2359 0,0 2.45962,-1.73688 5.01746,-0.7247 0,0 0.4331,0.14549 0.28831,1.01431 -0.14351,0.86812 -0.72331,2.36253 0.724,3.47244 0,0 3.85905,1.39952 10.27534,-0.81959 6.41568,-2.21915 11.38533,-4.53594 17.12682,-3.52167 5.74007,1.01362 6.70519,2.46025 6.41559,3.23135 -0.2889,0.77251 -1.44733,0.91802 -3.37816,0.86821 0,0 -3.67815,-0.55191 -10.07532,2.09893 -6.39789,2.65144 -8.25702,4.70256 -9.87105,7.8199 -1.61261,3.11725 -2.73341,6.56109 -3.00732,9.40524 -0.2712,2.84203 -0.24521,3.99083 -6.94427,4.72925 -6.6977,0.73691 -8.74813,-0.98433 -7.89983,-2.32433 0.84691,-1.34082 6.3425,-3.41784 9.97824,-2.98005 3.63644,0.43712 6.32617,3.76756 -0.88312,4.16777"
               style="fill:#000000;fill-opacity:1;fill-rule:nonzero;stroke:#000000;stroke-width:0.3985;stroke-linecap:butt;stroke-linejoin:miter;stroke-miterlimit:10;stroke-dasharray:none;stroke-opacity:1"
               id="path20" /><path
               d="m 20.23825,11.90013 c 0,0 -3.13924,-3.82144 -7.2018,-4.34465 -4.06404,-0.52321 -9.57531,2.05113 -9.17231,5.67177 0.40091,3.62145 5.63216,5.39047 10.37852,4.74775 4.74768,-0.64408 7.9251,-2.97733 13.879,-8.24679 0,0 5.51194,-4.86797 10.82252,-4.74705 0,0 -5.35158,0.6038 -10.09782,5.02845 -4.74766,4.42595 -7.8042,8.44832 -14.04019,9.17162 C 8.57149,19.90654 4.94945,16.92929 3.94473,14.55647 2.93863,12.18295 3.86414,9.0445 9.05371,7.59508 c 5.18895,-1.4466 9.45372,1.36672 11.18454,4.30505"
               style="fill:#000000;fill-opacity:1;fill-rule:nonzero;stroke:#000000;stroke-width:0.3985;stroke-linecap:butt;stroke-linejoin:miter;stroke-miterlimit:10;stroke-dasharray:none;stroke-opacity:1"
               id="path22" /><path
               d="m 17.44601,15.833 c 0,-0.42141 -0.34491,-0.76153 -0.77181,-0.76153 -0.4283,0 -0.77321,0.34012 -0.77321,0.76153 0,0.4215 0.34491,0.76229 0.77321,0.76229 0.4269,0 0.77181,-0.34079 0.77181,-0.76229"
               style="fill:#000000;fill-opacity:1;fill-rule:nonzero;stroke:#000000;stroke-width:0.3985;stroke-linecap:butt;stroke-linejoin:miter;stroke-miterlimit:10;stroke-dasharray:none;stroke-opacity:1"
               id="path24" /><path
               d="m 22.10286,13.86116 c 0,-0.34431 -0.24519,-0.62161 -0.54919,-0.62161 -0.30181,0 -0.5477,0.2773 -0.5477,0.62161 0,0.34151 0.24589,0.61951 0.5477,0.61951 0.304,0 0.54919,-0.278 0.54919,-0.61951"
               style="fill:#000000;fill-opacity:1;fill-rule:nonzero;stroke:#000000;stroke-width:0.3985;stroke-linecap:butt;stroke-linejoin:miter;stroke-miterlimit:10;stroke-dasharray:none;stroke-opacity:1"
               id="path26" /><path
               d="m 25.0733,11.10513 c 0,-0.40501 -0.3237,-0.73221 -0.7233,-0.73221 -0.39752,0 -0.7206,0.3272 -0.7206,0.73221 0,0.4037 0.32308,0.73151 0.7206,0.73151 0.3996,0 0.7233,-0.32781 0.7233,-0.73151"
               style="fill:#000000;fill-opacity:1;fill-rule:nonzero;stroke:#000000;stroke-width:0.3985;stroke-linecap:butt;stroke-linejoin:miter;stroke-miterlimit:10;stroke-dasharray:none;stroke-opacity:1"
               id="path28" /><path
               d="m 27.69684,8.9687 c 0,-0.3361 -0.2773,-0.60931 -0.62021,-0.60931 -0.3429,0 -0.62021,0.27321 -0.62021,0.60931 0,0.3374 0.27731,0.6113 0.62021,0.6113 0.34291,0 0.62021,-0.2739 0.62021,-0.6113"
               style="fill:#000000;fill-opacity:1;fill-rule:nonzero;stroke:#000000;stroke-width:0.3985;stroke-linecap:butt;stroke-linejoin:miter;stroke-miterlimit:10;stroke-dasharray:none;stroke-opacity:1"
               id="path30" /><path
               d="m 30.86739,7.22968 c 0,-0.252 -0.2083,-0.4563 -0.46721,-0.4563 -0.25812,0 -0.46779,0.2043 -0.46779,0.4563 0,0.25412 0.20967,0.45831 0.46779,0.45831 0.25891,0 0.46721,-0.20419 0.46721,-0.45831"
               style="fill:#000000;fill-opacity:1;fill-rule:nonzero;stroke:#000000;stroke-width:0.3985;stroke-linecap:butt;stroke-linejoin:miter;stroke-miterlimit:10;stroke-dasharray:none;stroke-opacity:1"
               id="path32" /></g></g></g></g></g></svg>
