<?xml version="1.0" encoding="UTF-8" standalone="no"?>
<svg
   xmlns:dc="http://purl.org/dc/elements/1.1/"
   xmlns:cc="http://creativecommons.org/ns#"
   xmlns:rdf="http://www.w3.org/1999/02/22-rdf-syntax-ns#"
   xmlns:svg="http://www.w3.org/2000/svg"
   xmlns="http://www.w3.org/2000/svg"
   xmlns:sodipodi="http://sodipodi.sourceforge.net/DTD/sodipodi-0.dtd"
   xmlns:inkscape="http://www.inkscape.org/namespaces/inkscape"
   version="1.1"
   id="svg2"
   xml:space="preserve"
   width="45.466667"
   height="62.173332"
   viewBox="0 0 45.466667 62.173332"
   sodipodi:docname="vectorian179.pdf"><metadata
     id="metadata8"><rdf:RDF><cc:Work
         rdf:about=""><dc:format>image/svg+xml</dc:format><dc:type
           rdf:resource="http://purl.org/dc/dcmitype/StillImage" /></cc:Work></rdf:RDF></metadata><defs
     id="defs6" /><sodipodi:namedview
     pagecolor="#ffffff"
     bordercolor="#666666"
     borderopacity="1"
     objecttolerance="10"
     gridtolerance="10"
     guidetolerance="10"
     inkscape:pageopacity="0"
     inkscape:pageshadow="2"
     inkscape:window-width="640"
     inkscape:window-height="480"
     id="namedview4" /><g
     id="g10"
     inkscape:groupmode="layer"
     inkscape:label="vectorian179"
     transform="matrix(1.3333333,0,0,-1.3333333,0,62.173333)"><g
       id="g12"
       transform="translate(72,-25.369)"><g
         id="g14"
         transform="translate(-71.107,26.559)"><g
           id="g16"><g
             id="g18"><path
               d="m 25.60402,35.74234 c 0,0 -1.33532,-0.0177 -2.24445,-0.89 -0.9111,-0.87152 -0.3305,-1.43291 0.52262,-1.16243 0.85171,0.27112 1.72183,2.05243 1.72183,2.05243 m -3.77435,3.87274 c 0,0 -1.68503,-0.98761 -1.97533,-2.11122 -0.29031,-1.12292 0.67831,-1.0641 1.27731,-0.63789 0.60102,0.42619 1.00812,1.82022 0.69802,2.74911 m -6.7954,1.89743 c 0,0 -0.8333,-1.47121 -0.23221,-2.78744 0.59972,-1.31749 1.76214,-0.795 1.70344,0.36752 -0.05872,1.16041 -1.47123,2.41992 -1.47123,2.41992 M 7.87079,38.99489 c 0,0 0.446,-2.32224 1.78192,-2.84545 1.33531,-0.5232 3.09685,2.09073 -1.78192,2.84545 m 1.68222,-8.39162 c 0,0 3.93494,1.84282 8.3076,0.65573 4.37477,-1.18771 6.53039,-2.21774 8.71741,-0.99922 2.18573,1.2178 2.49924,4.46697 -0.1557,5.15476 0,0 -0.9077,-1.99993 -2.68773,-2.15633 -1.77991,-0.15642 -1.81203,2.28133 1.96854,2.87343 0,0 0.81278,4.31266 -3.15625,3.59277 0,0 0.34419,-2.68635 -1.46712,-3.40427 -1.81212,-0.7178 -2.87494,1.53074 0.65629,3.62276 0,0 -1.28131,5.49907 -6.06047,2.28063 0,0 1.49932,-1.96773 1.31212,-3.59266 -0.1885,-1.6229 -2.34343,-1.24931 -2.71843,0.43783 -0.37561,1.68772 0.5,2.78051 0.5,2.78051 0,0 -1.84411,1.62363 -4.02984,0.96863 C 8.5524,42.16212 8.0217,39.975 8.0217,39.975 c 0,0 3.21774,-0.49922 3.49844,-2.65553 0.2814,-2.15564 -3.40414,-2.56204 -4.06054,1.68701 0,0 -2.09356,0.03082 -3.09345,-1.71772 -0.99922,-1.74922 -0.43642,-4.12415 1.7178,-5.24906 0,0 1.71854,-0.12431 3.46906,-1.43643 M 9.72922,18.10532 c 1.2137,1.3435 0.65028,3.68495 -1.69184,2.29774 C 5.69664,19.01512 4.95964,16.63069 4.95964,16.63069 5.73965,16.2844 8.51479,16.7612 9.72922,18.10532 m 0.51979,5.98268 c 1.17003,2.64462 -0.8237,5.93889 -0.8237,5.93889 -4.46567,-5.28869 -0.347,-8.58432 0.8237,-5.93889 M 5.13255,17.93051 c 2.90483,4.98607 7.8909,3.59815 5.89647,0.0867 C 9.0346,14.50648 4.70015,15.59048 4.70015,15.59048 2.66203,11.68764 3.74663,3.36372 11.63623,1.2832 c 7.89099,-2.0818 14.13307,3.12145 15.00191,7.587 0.86542,4.46565 -2.12554,8.1935 -3.46907,12.52937 -1.34549,4.33516 2.64395,8.06379 2.64395,8.06379 -2.86253,-0.73771 -4.24767,0.21653 -8.49741,1.42952 C 13.06786,32.1073 9.6855,30.32867 9.6855,30.32867 10.85622,29.24547 12.11365,26.03802 10.94292,23.827 9.77231,21.61537 6.65088,22.18025 6.86667,25.60492 7.08528,29.02896 9.1213,30.28708 9.1213,30.28708 8.55849,30.84988 7.64807,31.19748 7.64807,31.19748 -0.8931,26.29681 5.13255,17.93051 5.13255,17.93051 m -2.64404,8.02071 c 1.17142,3.77165 4.81187,5.50516 4.81187,5.50516 C 4.00552,32.41061 0.755,29.33287 0.66689,24.0436 0.58078,18.75421 4.56964,16.67369 4.56964,16.67369 l 0.304,0.78071 C 3.83345,18.45232 1.3178,22.18025 2.48851,25.95122 m 8.62791,17.55783 c 2.55793,0.47812 4.33587,-1.08402 4.33587,-1.08402 0,0 2.25462,1.77863 4.33444,0.9549 2.08114,-0.8237 2.68774,-3.33863 2.68774,-3.33863 0,0 1.90903,0.91051 3.25255,-0.65022 1.34352,-1.56001 0.77931,-3.55443 0.77931,-3.55443 0,0 2.21163,-0.34841 2.29973,-2.60234 0.08609,-2.25463 -2.16792,-3.42535 -2.16792,-3.42535 0,0 -2.47184,-2.42682 -3.12274,-5.07076 -0.65091,-2.64532 0.6509,-4.81257 3.51204,-9.75561 C 29.88799,10.04022 28.37096,2.19232 20.65414,0.5018 12.93605,-1.1893 6.56548,1.54341 4.35245,6.44208 c -2.21094,4.89795 -0.086,9.36352 -0.086,9.36352 -1.95143,1.3449 -5.15955,5.07286 -4.03256,10.49121 1.12761,5.41909 5.41906,5.63628 5.41906,5.63628 -1.21231,0.82382 -2.86113,2.38443 -2.12352,5.20326 0.73702,2.81825 4.11795,2.86055 4.11795,2.86055 0.04239,0.60721 0.91111,3.03603 3.46904,3.51215"
               style="fill:#000000;fill-opacity:1;fill-rule:nonzero;stroke:#000000;stroke-width:0.3985;stroke-linecap:butt;stroke-linejoin:miter;stroke-miterlimit:10;stroke-dasharray:none;stroke-opacity:1"
               id="path20" /></g></g></g></g></g></svg>
