<?xml version="1.0" encoding="UTF-8" standalone="no"?>
<svg
   xmlns:dc="http://purl.org/dc/elements/1.1/"
   xmlns:cc="http://creativecommons.org/ns#"
   xmlns:rdf="http://www.w3.org/1999/02/22-rdf-syntax-ns#"
   xmlns:svg="http://www.w3.org/2000/svg"
   xmlns="http://www.w3.org/2000/svg"
   xmlns:sodipodi="http://sodipodi.sourceforge.net/DTD/sodipodi-0.dtd"
   xmlns:inkscape="http://www.inkscape.org/namespaces/inkscape"
   version="1.1"
   id="svg2"
   xml:space="preserve"
   width="65.09333"
   height="59.373333"
   viewBox="0 0 65.09333 59.373333"
   sodipodi:docname="vectorian132.pdf"><metadata
     id="metadata8"><rdf:RDF><cc:Work
         rdf:about=""><dc:format>image/svg+xml</dc:format><dc:type
           rdf:resource="http://purl.org/dc/dcmitype/StillImage" /></cc:Work></rdf:RDF></metadata><defs
     id="defs6" /><sodipodi:namedview
     pagecolor="#ffffff"
     bordercolor="#666666"
     borderopacity="1"
     objecttolerance="10"
     gridtolerance="10"
     guidetolerance="10"
     inkscape:pageopacity="0"
     inkscape:pageshadow="2"
     inkscape:window-width="640"
     inkscape:window-height="480"
     id="namedview4" /><g
     id="g10"
     inkscape:groupmode="layer"
     inkscape:label="vectorian132"
     transform="matrix(1.3333333,0,0,-1.3333333,0,59.373333)"><g
       id="g12"
       transform="translate(72,-27.467)"><g
         id="g14"
         transform="translate(-72,27.468)"><g
           id="g16"><g
             id="g18"><path
               d="m 40.77232,0 c 0,0 -1.10783,2.36322 -0.07382,6.27696 1.03282,3.91376 3.20004,8.83832 3.76344,13.07306 0.70362,5.24559 -2.06541,8.19621 -4.20804,9.15253 -2.14193,0.96301 -3.82765,-0.2254 -4.43006,-1.55051 -0.73839,-1.61874 -0.1482,-3.10095 1.10782,-3.54484 1.25541,-0.43721 2.36334,0.30049 2.51153,1.3319 0.13661,0.95621 -0.36951,1.59823 -0.8627,1.59823 0,0 1.30591,0.61471 2.70821,-1.00403 1.40364,-1.62561 0.51773,-6.20865 -0.29508,-7.684 C 40.1815,16.17398 35.60184,8.7154 38.9999,1.1065 c 0,0 -0.73902,2.21293 -0.73902,5.02016 0,2.80724 1.84622,7.0898 2.80722,9.15932 0.95963,2.06962 1.79634,4.15965 1.59894,6.9191 -0.1967,2.75932 -2.01973,5.41636 -4.82356,4.08444 0,0 1.05742,0.0751 1.32782,-0.7377 0.27189,-0.81272 -0.1967,-2.02173 -1.52582,-1.91924 -1.32852,0.09562 -1.72464,1.10652 -1.77182,2.21294 -0.04982,1.10652 1.2295,2.75943 2.80453,2.71164 1.57571,-0.05461 3.39873,-0.88792 4.58035,-3.84546 1.183,-2.95064 0.3449,-5.95587 -0.248,-8.0186 C 42.42183,14.62347 40.2068,9.05688 39.8134,5.66226 39.23138,0.6557 40.77232,0 40.77232,0"
               style="fill:#000000;fill-opacity:1;fill-rule:nonzero;stroke:#000000;stroke-width:0.3985;stroke-linecap:butt;stroke-linejoin:miter;stroke-miterlimit:10;stroke-dasharray:none;stroke-opacity:1"
               id="path20" /><path
               d="m 39.76138,24.17209 c 0,0 0.59222,-1.62552 -0.24518,-3.88634 -0.83871,-2.26762 -2.51142,-3.20334 -3.49496,-6.30429 -0.9863,-3.10094 0.49112,-6.00377 0.49112,-6.00377 0,0 -0.5417,2.06271 0.1973,5.02016 0.73841,2.95075 2.65773,4.91777 3.39744,7.13759 0.4931,1.47532 0.24582,2.95755 -0.34572,4.03665"
               style="fill:#000000;fill-opacity:1;fill-rule:nonzero;stroke:#000000;stroke-width:0.3985;stroke-linecap:butt;stroke-linejoin:miter;stroke-miterlimit:10;stroke-dasharray:none;stroke-opacity:1"
               id="path22" /><path
               d="m 32.6717,19.05634 c 0,0 -0.6393,-0.68993 -0.2951,-1.53004 0.34491,-0.8332 1.92133,-1.47532 3.64464,-0.15019 1.72253,1.33182 2.31273,4.09125 1.91924,5.41637 0,0 0.0977,-2.36334 -1.67334,-4.42607 -1.77381,-2.06951 -4.33315,-1.67331 -3.59544,0.68993"
               style="fill:#000000;fill-opacity:1;fill-rule:nonzero;stroke:#000000;stroke-width:0.3985;stroke-linecap:butt;stroke-linejoin:miter;stroke-miterlimit:10;stroke-dasharray:none;stroke-opacity:1"
               id="path24" /><path
               d="m 31.8357,22.79248 c 0,0 -1.37903,-0.04781 -1.62423,-0.83333 -0.3894,-1.24989 0.68913,-2.90281 2.95334,-2.51352 2.26494,0.39612 3.15215,3.10094 2.75804,4.43287 0,0 0.14621,-1.82372 -1.42891,-2.95754 -1.57503,-1.12701 -3.15146,-1.07921 -3.74156,-0.2459 -0.59149,0.84009 -0.34419,1.62561 1.08332,2.11742"
               style="fill:#000000;fill-opacity:1;fill-rule:nonzero;stroke:#000000;stroke-width:0.3985;stroke-linecap:butt;stroke-linejoin:miter;stroke-miterlimit:10;stroke-dasharray:none;stroke-opacity:1"
               id="path26" /><path
               d="m 35.62714,25.40161 c 0,0 -0.6899,-1.27733 -2.90563,-1.37291 -2.21432,-0.1024 -2.85574,1.87152 -2.01832,3.29213 0.83741,1.43442 3.29834,1.48222 3.84063,0.34841 0.54163,-1.13381 -1.08319,-2.36322 -2.85572,-2.11742 0,0 1.03341,-0.64202 2.51013,0.2937 1.47671,0.93581 0.78891,2.36333 -0.14681,2.75943 -0.9351,0.39621 -3.65083,0.5737 -4.18565,-2.41103 -0.4931,-2.75942 3.93904,-4.72656 5.76137,-0.79231"
               style="fill:#000000;fill-opacity:1;fill-rule:nonzero;stroke:#000000;stroke-width:0.3985;stroke-linecap:butt;stroke-linejoin:miter;stroke-miterlimit:10;stroke-dasharray:none;stroke-opacity:1"
               id="path28" /><path
               d="m 0,40.5305 c 0,0 2.46642,-1.14741 6.59727,-0.17758 4.13025,0.9767 9.34031,3.05992 13.79978,3.55853 5.52837,0.62162 8.5856,-2.19932 9.56033,-4.35084 0.97602,-2.15836 -0.2978,-3.82486 -1.69943,-4.40547 -1.72054,-0.71721 -3.26345,-0.10239 -3.71016,1.1611 -0.44599,1.26364 0.34901,2.35644 1.43773,2.49306 1.00482,0.11608 1.67752,-0.3961 1.66803,-0.88793 0,0 0.66859,1.29093 -1.01843,2.71843 -1.68502,1.43433 -6.51328,0.62152 -8.07741,-0.1707 -1.56479,-0.78549 -9.4776,-5.24565 -17.42051,-1.72813 0,0 2.31683,-0.7786 5.26676,-0.8196 2.95004,-0.0478 7.4812,1.73493 9.67094,2.65694 2.1891,0.92891 4.40146,1.73491 7.29609,1.48903 2.89464,-0.23912 5.66156,-2.10373 4.22035,-4.88356 0,0 0.09289,1.0518 -0.75612,1.33871 -0.8497,0.28681 -2.12482,-0.16402 -2.04291,-1.49583 0.08269,-1.33191 1.13861,-1.74172 2.30252,-1.80321 1.16312,-0.06831 2.91643,1.18159 2.88913,2.75943 -0.02658,1.57773 -0.87831,3.40823 -3.96493,4.63765 -3.08524,1.22952 -6.25508,0.43721 -8.43873,-0.11609 C 15.39809,41.94443 9.5131,39.8202 5.93616,39.4787 0.668,38.98009 0,40.5305 0,40.5305"
               style="fill:#000000;fill-opacity:1;fill-rule:nonzero;stroke:#000000;stroke-width:0.3985;stroke-linecap:butt;stroke-linejoin:miter;stroke-miterlimit:10;stroke-dasharray:none;stroke-opacity:1"
               id="path30" /><path
               d="m 25.39542,39.13719 c 0,0 -1.69733,0.61471 -4.09056,-0.1844 -2.39473,-0.79921 -3.40493,-2.45894 -6.68139,-3.39465 -3.27575,-0.93572 -6.30567,0.58741 -6.30567,0.58741 0,0 2.16522,-0.57379 5.28257,0.11611 3.11663,0.68982 5.21205,2.57494 7.55619,3.28532 1.56071,0.46442 3.10983,0.19811 4.23886,-0.40979"
               style="fill:#000000;fill-opacity:1;fill-rule:nonzero;stroke:#000000;stroke-width:0.3985;stroke-linecap:butt;stroke-linejoin:miter;stroke-miterlimit:10;stroke-dasharray:none;stroke-opacity:1"
               id="path32" /><path
               d="m 19.90254,32.12941 c 0,0 -0.73561,-0.62842 -1.61052,-0.27321 -0.87361,0.35512 -1.52112,1.94653 -0.0977,3.64725 1.42551,1.70073 4.33316,2.24722 5.72307,1.83052 0,0 -2.48213,0.1366 -4.68285,-1.59822 -2.20274,-1.74172 -1.82843,-4.30985 0.668,-3.60634"
               style="fill:#000000;fill-opacity:1;fill-rule:nonzero;stroke:#000000;stroke-width:0.3985;stroke-linecap:butt;stroke-linejoin:miter;stroke-miterlimit:10;stroke-dasharray:none;stroke-opacity:1"
               id="path34" /><path
               d="m 23.82109,31.2346 c 0,0 -0.0724,-1.37971 -0.90431,-1.61193 -1.31893,-0.37571 -3.04224,0.73082 -2.59343,2.99165 0.44942,2.2608 3.31055,3.10092 4.70187,2.6842 0,0 -1.91314,0.17762 -3.12755,-1.37961 -1.21643,-1.55729 -1.18911,-3.13513 -0.31761,-3.73614 0.87091,-0.6011 1.70144,-0.3689 2.24103,1.05183"
               style="fill:#000000;fill-opacity:1;fill-rule:nonzero;stroke:#000000;stroke-width:0.3985;stroke-linecap:butt;stroke-linejoin:miter;stroke-miterlimit:10;stroke-dasharray:none;stroke-opacity:1"
               id="path36" /><path
               d="m 26.62494,34.97752 c 0,0 -1.35654,-0.66249 -1.49524,-2.88232 -0.1386,-2.21303 1.92204,-2.88234 3.43636,-2.06952 1.5149,0.81281 1.60302,3.27843 0.4228,3.83172 -1.18233,0.56695 -2.50123,-1.045 -2.27043,-2.82092 0,0 -0.65701,1.04502 0.3504,2.50673 1.00542,1.46161 2.49643,0.75132 2.89534,-0.19121 0.39961,-0.9426 0.54572,-3.66104 -2.60164,-4.14593 -2.90692,-0.44402 -4.90686,4.01614 -0.73759,5.77145"
               style="fill:#000000;fill-opacity:1;fill-rule:nonzero;stroke:#000000;stroke-width:0.3985;stroke-linecap:butt;stroke-linejoin:miter;stroke-miterlimit:10;stroke-dasharray:none;stroke-opacity:1"
               id="path38" /><path
               d="m 33.83073,40.2505 c 0,0 -1.84683,0.29372 -3.32354,-4.13916 0,0 -1.10723,-3.68823 0.07379,-5.68266 1.18231,-1.99443 4.43077,-1.55051 6.49888,-1.18172 0,0 0.44332,0.3689 -0.1482,0.5123 0,0 -1.62493,-0.444 -3.47103,-0.07509 0,0 -2.36336,0.51909 -2.95344,2.43833 0,0 -0.37021,1.91932 0.51571,4.65136 0.8872,2.73212 2.43773,3.10784 3.47104,3.40154 1.03411,0.2937 1.47742,0 1.5519,0.66252 0,0 0.73692,0.2937 0.81141,-0.66252 0.07441,-0.9631 0.81212,-2.28813 2.36324,-2.88243 0,0 0.14749,-0.14342 0.5177,0.15028 0,0 -0.0737,-0.7377 0.51571,-1.70071 0.59222,-0.95621 0.96172,-1.55043 0.96172,-2.21301 0,-0.66932 0.4426,-2.14463 -3.91444,-3.61997 0,0 -0.14823,-0.3689 0.36819,-0.2937 0.5177,0.06831 0.961,0.44392 1.33053,0.06831 0.36808,-0.36891 2.87963,-0.36891 4.35764,1.40702 1.47333,1.76902 2.14263,4.87677 0.58951,8.12111 -1.55052,3.25123 -4.20886,3.54484 -4.20886,3.54484 0,0 -0.295,-0.3688 0.51571,-0.6625 0.8142,-0.29372 3.02994,-1.33193 3.76755,-4.28257 0.74111,-2.95744 -0.66391,-7.45858 -4.28326,-7.30829 0,0 1.99313,0.8059 1.92003,3.16925 -0.07381,2.36322 -1.40432,2.80723 -1.47672,4.13904 0,0 0.14751,0.81283 0.4426,0.5123 0.29642,-0.2937 -0.07379,-0.66249 -0.07379,-0.66249 0,0 0.8128,0.66249 0.14819,1.10642 -0.66519,0.444 -1.10782,-0.51223 -1.10782,-1.03133 0,0 -0.96031,0.0751 -1.77241,1.18163 -0.81349,1.1065 -0.4433,3.32632 0.2944,4.13224 0,0 -1.10789,-2.06273 -3.10092,-1.98752 -1.99375,0.0683 -3.17605,-0.07521 -3.84067,-1.33192 0,0 0.14819,1.18161 0.88591,1.84412 0,0 -1.69803,-0.7376 -1.3285,-3.54485 0,0 0.44259,0.5191 0.96031,1.10652 0.5164,0.59421 0.5901,1.11331 2.14193,1.11331"
               style="fill:#000000;fill-opacity:1;fill-rule:nonzero;stroke:#000000;stroke-width:0.3985;stroke-linecap:butt;stroke-linejoin:miter;stroke-miterlimit:10;stroke-dasharray:none;stroke-opacity:1"
               id="path40" /><path
               d="m 37.07925,43.20114 1.47735,-0.2937 c 0,0 0.66319,0.2186 0.14747,0.36881 -0.5177,0.15029 -1.55182,0.66259 -1.62482,-0.07511"
               style="fill:#000000;fill-opacity:1;fill-rule:nonzero;stroke:#000000;stroke-width:0.3985;stroke-linecap:butt;stroke-linejoin:miter;stroke-miterlimit:10;stroke-dasharray:none;stroke-opacity:1"
               id="path42" /><path
               d="m 33.97763,42.61374 c 0,0 1.99303,0 2.21571,0.8811 0,0 -2.21571,-0.444 -2.21571,-0.8811"
               style="fill:#000000;fill-opacity:1;fill-rule:nonzero;stroke:#000000;stroke-width:0.3985;stroke-linecap:butt;stroke-linejoin:miter;stroke-miterlimit:10;stroke-dasharray:none;stroke-opacity:1"
               id="path44" /><path
               d="m 32.27829,41.94443 c 0,0 0.5914,-0.14351 1.25534,0.37561 0,0 -0.0737,0.2937 -0.51631,0.0683 -0.44262,-0.21851 -0.73903,-0.44391 -0.73903,-0.44391"
               style="fill:#000000;fill-opacity:1;fill-rule:nonzero;stroke:#000000;stroke-width:0.3985;stroke-linecap:butt;stroke-linejoin:miter;stroke-miterlimit:10;stroke-dasharray:none;stroke-opacity:1"
               id="path46" /><path
               d="m 37.30118,34.90924 c 0,0 1.27931,-0.1024 1.91931,-1.18162 0.64,-1.08602 0.05051,-1.82363 0.05051,-1.82363 0,0 0.49108,-0.1981 0.6885,0.4917 0.1974,0.68993 -0.2459,2.60913 -2.65832,2.51355"
               style="fill:#000000;fill-opacity:1;fill-rule:nonzero;stroke:#000000;stroke-width:0.3985;stroke-linecap:butt;stroke-linejoin:miter;stroke-miterlimit:10;stroke-dasharray:none;stroke-opacity:1"
               id="path48" /><path
               d="m 37.98898,32.88751 c -0.3442,0.2937 -0.09831,0.78552 -0.09831,0.78552 l 0.14751,-0.24592 c -0.0977,-0.49179 0.3934,-0.5396 0.3934,-0.5396 l 0.24591,-0.24591 c 0,0 -0.34352,-0.04779 -0.68851,0.24591 m 0.09969,1.22942 c -1.03401,0.34842 -1.52721,0.1981 -1.52721,0.1981 0,0 0.34502,-0.24591 0.59079,-0.3415 0.24591,-0.1025 0.44402,-0.3005 0.44402,-0.3005 0,0 -0.1482,-0.88113 0.44191,-1.12703 0.5915,-0.2459 0.8381,-0.1981 0.8381,-0.1981 0,0 0.14821,-0.73761 -0.09768,-0.88791 0,0 0.5403,-0.24589 0.49179,0.444 -0.0506,0.68982 -0.1483,1.87141 -1.18172,2.21294"
               style="fill:#000000;fill-opacity:1;fill-rule:nonzero;stroke:#000000;stroke-width:0.3985;stroke-linecap:butt;stroke-linejoin:miter;stroke-miterlimit:10;stroke-dasharray:none;stroke-opacity:1"
               id="path50" /><path
               d="m 35.92285,35.94064 c 0,0 0.58951,1.27722 -0.44261,2.36324 -1.03412,1.07921 -2.21643,0.68979 -2.21643,0.68979 0,0 -0.19871,-0.15018 0.24659,-0.24577 0.44263,-0.10251 2.21505,-0.44402 2.41245,-2.80726"
               style="fill:#000000;fill-opacity:1;fill-rule:nonzero;stroke:#000000;stroke-width:0.3985;stroke-linecap:butt;stroke-linejoin:miter;stroke-miterlimit:10;stroke-dasharray:none;stroke-opacity:1"
               id="path52" /><path
               d="m 33.16481,34.31503 c 0,0 0.29582,0.0956 0.29582,-0.1503 0,-0.24582 -0.24663,-1.03133 0.19799,-1.32503 0.44061,-0.2937 1.08261,-0.39619 1.42683,-0.4918 0.3436,-0.1024 0.4426,-0.3005 0.4426,-0.3005 0,0 0.24659,0.1503 0.34561,0.444 0.10858,0.33462 -0.19802,0.54641 -0.54161,0.4986 -0.34562,-0.05468 -0.83872,0.1434 -1.13312,0.63521 -0.2493,0.41661 0.14749,0.98352 -0.34491,1.08591 -0.49181,0.09572 -0.68921,-0.39609 -0.68921,-0.39609"
               style="fill:#000000;fill-opacity:1;fill-rule:nonzero;stroke:#000000;stroke-width:0.3985;stroke-linecap:butt;stroke-linejoin:miter;stroke-miterlimit:10;stroke-dasharray:none;stroke-opacity:1"
               id="path54" /><path
               d="m 32.2291,32.2455 c 0,0 -0.0485,-0.93582 1.1816,-1.22952 0,0 -1.4268,-0.1502 -1.1816,1.22952"
               style="fill:#000000;fill-opacity:1;fill-rule:nonzero;stroke:#000000;stroke-width:0.3985;stroke-linecap:butt;stroke-linejoin:miter;stroke-miterlimit:10;stroke-dasharray:none;stroke-opacity:1"
               id="path56" /><path
               d="m 34.78973,30.42868 c 0,0 -0.0485,0.78542 0.24521,0.98351 0,0 0,0.14341 -0.39341,0.14341 -0.39341,0 -0.98291,0.2459 -1.13113,0.6899 0,0 -0.04977,0.34831 -0.59149,0.5464 -0.54161,0.19121 -0.59081,0.73763 -0.59081,0.73763 0,0 -0.4433,0 -0.7875,0.09568 0,0 -0.24592,-0.24588 -0.04991,-0.39619 0.19811,-0.1434 0.7876,-0.24591 0.7876,-0.24591 0,0 0.49311,-1.32501 1.72394,-1.61871 0,0 0.1967,-0.24592 0.3941,-0.54642 0.196,-0.2937 0.3934,-0.3893 0.3934,-0.3893"
               style="fill:#000000;fill-opacity:1;fill-rule:nonzero;stroke:#000000;stroke-width:0.3985;stroke-linecap:butt;stroke-linejoin:miter;stroke-miterlimit:10;stroke-dasharray:none;stroke-opacity:1"
               id="path58" /><path
               d="m 34.00153,36.87636 c 0.3948,0.19812 0.49241,-0.19811 0.49241,-0.19811 -0.39471,-0.15019 -0.49241,0.19811 -0.49241,0.19811 m -0.49113,1.03142 c 0,0 -0.54229,-1.03142 0.44332,-1.32512 0,0 0.78751,-0.1024 0.88593,-0.49182 0.09829,-0.39609 0,-0.642 0.2458,-0.84009 0,0 0.5403,0.7377 0.04849,1.87152 -0.49171,1.1338 -1.47532,1.22941 -2.06813,1.03131 0,0 0.0983,-0.2458 0.44459,-0.2458"
               style="fill:#000000;fill-opacity:1;fill-rule:nonzero;stroke:#000000;stroke-width:0.3985;stroke-linecap:butt;stroke-linejoin:miter;stroke-miterlimit:10;stroke-dasharray:none;stroke-opacity:1"
               id="path60" /></g></g></g></g></g></svg>
