<?xml version="1.0" encoding="UTF-8" standalone="no"?>
<svg
   xmlns:dc="http://purl.org/dc/elements/1.1/"
   xmlns:cc="http://creativecommons.org/ns#"
   xmlns:rdf="http://www.w3.org/1999/02/22-rdf-syntax-ns#"
   xmlns:svg="http://www.w3.org/2000/svg"
   xmlns="http://www.w3.org/2000/svg"
   xmlns:sodipodi="http://sodipodi.sourceforge.net/DTD/sodipodi-0.dtd"
   xmlns:inkscape="http://www.inkscape.org/namespaces/inkscape"
   version="1.1"
   id="svg2"
   xml:space="preserve"
   width="46.866669"
   height="60.053333"
   viewBox="0 0 46.866669 60.053333"
   sodipodi:docname="vectorian148.pdf"><metadata
     id="metadata8"><rdf:RDF><cc:Work
         rdf:about=""><dc:format>image/svg+xml</dc:format><dc:type
           rdf:resource="http://purl.org/dc/dcmitype/StillImage" /></cc:Work></rdf:RDF></metadata><defs
     id="defs6" /><sodipodi:namedview
     pagecolor="#ffffff"
     bordercolor="#666666"
     borderopacity="1"
     objecttolerance="10"
     gridtolerance="10"
     guidetolerance="10"
     inkscape:pageopacity="0"
     inkscape:pageshadow="2"
     inkscape:window-width="640"
     inkscape:window-height="480"
     id="namedview4" /><g
     id="g10"
     inkscape:groupmode="layer"
     inkscape:label="vectorian148"
     transform="matrix(1.3333333,0,0,-1.3333333,0,60.053333)"><g
       id="g12"
       transform="translate(72,-26.962)"><g
         id="g14"
         transform="translate(-70.951,26.962)"><g
           id="g16"><g
             id="g18"><path
               d="m 27.75226,9.9721 c -1.92005,-2.36323 -4.94719,-3.46972 -6.8678,-3.10093 0,0 2.95473,0.88112 5.17116,3.68835 2.21434,2.80722 1.84482,7.31519 -1.84761,6.5024 0,0 1.92131,-0.22542 1.18099,-1.77594 -0.7377,-1.55043 -3.81135,-0.2937 -2.95272,2.06962 0.88591,2.43835 4.50455,2.06953 5.75987,0.2185 1.2554,-1.84412 1.47672,-5.23876 -0.44389,-7.602 M 15.56778,1.6256 c 0,0 -0.88649,3.17607 -4.21085,5.02018 0,0 2.65973,1.25681 3.54555,3.25124 0,0 1.62492,-2.43843 4.21085,-3.39464 0,0 -2.43763,-2.36324 -3.54555,-4.87678 m -3.32353,21.26928 c 0.51629,6.9395 3.02844,10.85323 3.02844,10.85323 0,0 2.28881,-2.95062 2.73211,-9.74672 0.44263,-6.79609 -3.24912,-12.92276 -3.24912,-12.92276 0,0 -3.02854,4.87677 -2.51143,11.81625 m 1.3291,13.96097 1.25473,0.80603 1.84762,-1.40022 c 0,0 -1.40301,-1.25684 -1.47741,-1.47533 0,0 -0.73902,1.47533 -1.62494,2.06952 m 0.2206,4.57626 c 0,1.55043 2.43844,1.84414 2.65975,0.1503 0.222,-1.70071 -1.47741,-3.03264 -1.47741,-3.03264 0,0 -1.18234,1.33193 -1.18234,2.88234 M 4.48915,7.82738 C 1.6833,9.453 0.87048,12.41054 1.018,14.10437 1.1663,15.8051 1.5358,17.6493 3.67773,18.38692 5.81906,19.13142 7.66518,17.6493 7.44458,16.17398 7.2226,14.69868 5.89276,14.10437 4.78494,14.84207 c -1.10721,0.74451 -0.5178,1.77583 -0.5178,1.77583 0,0 -1.77172,-0.2185 -1.54903,-2.58863 C 2.93874,11.66603 4.41545,10.4161 6.33607,9.08421 8.256,7.75229 9.88033,6.93948 9.88033,6.93948 c 0,0 -2.58326,-0.73761 -5.39118,0.8879 m 2.36333,27.54637 c -3.69315,-0.2937 -6.35078,0.22539 -5.61178,2.36322 0.73771,2.14473 9.15662,2.21983 11.74255,-0.88112 0,0 -2.43703,-1.18161 -6.13077,-1.4821 m 15.87819,3.10094 c 2.88025,0.51898 5.83439,0 5.90809,-1.76914 0.07379,-1.7758 -2.95334,-1.84412 -4.57826,-1.84412 -1.62422,0 -3.91376,0 -6.57269,1.55053 0,0 2.36323,1.55041 5.24286,2.06273 m 6.79539,-22.30071 c -1.2561,3.91367 -5.46556,3.91367 -7.01597,2.73206 -1.76433,-1.34552 -1.77314,-4.65137 1.03338,-5.09537 2.80585,-0.44393 2.80585,2.14473 2.80585,2.14473 1.55112,-2.51355 -0.847,-5.67587 -2.95343,-7.24 -1.99373,-1.47543 -3.39734,-1.77592 -3.39734,-1.77592 -2.88095,0.66939 -4.72586,3.62004 -4.72586,3.62004 0.9597,1.47532 3.76624,6.3521 3.39603,13.51697 -0.3695,7.16489 -3.17473,10.04734 -3.17473,10.04734 0.29511,0.7376 1.84552,1.84413 1.84552,1.84413 0,0 2.73353,-2.28814 6.12949,-2.28814 3.39733,0 5.53926,1.24993 5.61234,3.02573 0.07453,1.76914 -2.43631,2.58185 -6.20246,2.06964 -3.76555,-0.51912 -5.68758,-2.14473 -5.68758,-2.14473 -0.5894,0.44402 -1.84482,1.47531 -1.84482,1.47531 0.88591,0.73772 2.51084,2.88234 1.69802,4.80167 -0.9009,2.13103 -4.13366,1.33871 -4.06125,-1.10652 0.0731,-2.51352 1.40362,-3.54485 1.40362,-3.54485 L 13.13075,37.36818 C 8.55249,41.35703 -0.0898,39.588 0.5755,36.70555 1.2407,33.82323 6.48358,33.8984 9.0681,34.48584 c 2.58533,0.59421 4.21085,1.92612 4.21085,1.92612 0.73771,-0.51912 1.69734,-2.28813 1.69734,-2.28813 0,0 -3.54555,-4.43287 -3.54555,-11.01033 0,-8.71543 2.88162,-12.55398 2.88162,-12.55398 -1.40291,-2.87553 -3.76614,-3.39465 -3.76614,-3.39465 0,0 -1.18232,0.58742 -4.72716,3.17606 -3.54564,2.58183 -2.28953,4.94505 -2.28953,4.94505 0,-1.99443 4.28326,-3.10085 5.02296,0.444 C 9.2724,19.19293 2.79051,20.75026 0.87048,17.06192 -1.0487,13.36674 0.28038,8.86559 4.12033,6.87117 7.9596,4.87674 10.69302,6.35208 10.69302,6.35208 14.75568,4.28255 15.41959,0 15.41959,0 c 1.62491,3.91373 4.43145,6.27696 4.43145,6.27696 3.61796,-0.5191 5.53796,0.73761 6.8671,1.70073 1.33051,0.95621 4.06393,4.28256 2.80792,8.19629"
               style="fill:#000000;fill-opacity:1;fill-rule:nonzero;stroke:#000000;stroke-width:0.3985;stroke-linecap:butt;stroke-linejoin:miter;stroke-miterlimit:10;stroke-dasharray:none;stroke-opacity:1"
               id="path20" /></g></g></g></g></g></svg>
