<?xml version="1.0" encoding="UTF-8" standalone="no"?>
<svg
   xmlns:dc="http://purl.org/dc/elements/1.1/"
   xmlns:cc="http://creativecommons.org/ns#"
   xmlns:rdf="http://www.w3.org/1999/02/22-rdf-syntax-ns#"
   xmlns:svg="http://www.w3.org/2000/svg"
   xmlns="http://www.w3.org/2000/svg"
   xmlns:sodipodi="http://sodipodi.sourceforge.net/DTD/sodipodi-0.dtd"
   xmlns:inkscape="http://www.inkscape.org/namespaces/inkscape"
   version="1.1"
   id="svg2"
   xml:space="preserve"
   width="331.28964"
   height="263.75031"
   viewBox="0 0 331.28964 263.7503"
   sodipodi:docname="vectorian052.pdf"><metadata
     id="metadata8"><rdf:RDF><cc:Work
         rdf:about=""><dc:format>image/svg+xml</dc:format><dc:type
           rdf:resource="http://purl.org/dc/dcmitype/StillImage" /></cc:Work></rdf:RDF></metadata><defs
     id="defs6" /><sodipodi:namedview
     pagecolor="#ffffff"
     bordercolor="#666666"
     borderopacity="1"
     objecttolerance="10"
     gridtolerance="10"
     guidetolerance="10"
     inkscape:pageopacity="0"
     inkscape:pageshadow="2"
     inkscape:window-width="640"
     inkscape:window-height="480"
     id="namedview4" /><g
     id="g10"
     inkscape:groupmode="layer"
     inkscape:label="vectorian052"
     transform="matrix(1.3333333,0,0,-1.3333333,-1.5712472,262.11637)"><g
       id="g12"
       transform="translate(72,124.574)"><g
         id="g14"
         transform="translate(-70.622,-124.574)"><g
           id="g16"><g
             id="g18"><path
               d="m 247.74828,156.69319 c -2.04644,9.97133 -11.36335,14.79701 -15.2594,15.32343 -0.08,0.0112 -0.16159,0.0144 -0.24161,0.0224 l 0.0192,0.0624 c -0.18722,0.0576 -18.68505,5.26085 -29.68358,-8.04171 -0.72644,-0.87843 -1.37604,-1.76481 -1.96485,-2.66084 -4.94247,3.06404 -11.27374,5.62568 -19.22744,6.5169 -0.45281,0.0512 -0.89921,0.08 -1.35203,0.1232 -0.3536,1.85443 -0.95681,3.70244 -1.89602,5.49285 -2.67684,5.10407 -7.0641,8.41131 -12.04334,9.08332 -4.12007,0.55682 -8.12652,-0.76799 -10.71536,-3.53923 -3.77443,-4.04805 -4.08964,-9.67853 -2.73123,-13.46578 0.19362,-0.5392 0.4272,-1.02242 0.67842,-1.48001 -3.75046,-1.62243 -7.2305,-3.70245 -10.36653,-6.2225 -0.84001,-0.6736 -1.64324,-1.38721 -2.43205,-2.11841 1.47363,2.91364 2.38882,6.18567 2.15524,10.28812 -0.5184,9.04492 -8.39693,13.30898 -13.69458,16.92663 -3.65924,2.49922 -4.58246,8.02089 -4.80646,11.19533 0.0944,-5.66725 0.0448,-10.08653 4.93446,-14.29618 5.55527,-4.78086 9.17292,-7.87849 9.43212,-16.1474 0.144,-4.63366 -1.94083,-8.98411 -3.80324,-11.91216 l -8.51532,14.67219 -11.08664,-17.25302 c -1.87044,2.37283 -5.83049,8.1617 -5.63368,14.49299 0.25921,8.26891 3.87526,11.36654 9.43222,16.1474 5.09128,4.38247 4.98727,8.99213 5.13448,15.00019 -0.18721,-2.99204 -1.05922,-9.20171 -5.00646,-11.89934 -5.29777,-3.61765 -13.17468,-7.88171 -13.69469,-16.92663 -0.23359,-4.10245 0.68161,-7.37448 2.15523,-10.28974 -0.7872,0.73282 -1.59201,1.44643 -2.43043,2.12003 -3.13445,2.52005 -6.61769,4.60007 -10.36814,6.2225 0.25281,0.45759 0.48482,0.94081 0.67841,1.48001 1.35843,3.78725 1.04323,9.41773 -2.73123,13.46578 -2.58884,2.77124 -6.59368,4.09605 -10.71534,3.53923 -4.97926,-0.67201 -9.36811,-3.97925 -12.04176,-9.08332 -0.93919,-1.79041 -1.54242,-3.63842 -1.89601,-5.49285 -0.45282,-0.0384 -0.90082,-0.0704 -1.35522,-0.1232 -7.95371,-0.89122 -14.28339,-3.45286 -19.22425,-6.51209 -0.5904,0.89122 -1.23842,1.7776 -1.96484,2.65603 -11.00014,13.30256 -29.49796,8.09931 -29.68516,8.04171 l 0.01919,-0.0624 c -0.0784,-0.008 -0.16,-0.0112 -0.24161,-0.0224 -3.89604,-0.52642 -13.20976,-5.3521 -15.2594,-15.32343 -1.69758,-8.28488 3.76647,-12.61934 6.60649,-13.34256 0,0 -4.82247,6.73929 -3.43364,12.28496 1.38721,5.54889 6.67049,7.00009 9.70893,5.87529 3.03842,-1.12003 8.7185,-0.59042 9.24652,4.62724 0.2352,2.30883 -0.40161,3.81606 -1.48484,4.73928 5.84009,0.5936 16.01462,0.1712 22.9043,-8.15693 0.67363,-0.81439 1.27524,-1.64001 1.82244,-2.47042 -2.53765,-1.74881 -4.66086,-3.60166 -6.40009,-5.37447 -9.00652,-7.63051 -17.71703,-24.63712 -14.8434,-39.46931 1.58083,-8.1473 4.91687,-14.66739 8.1873,-19.43544 3.09925,-5.74569 6.92331,-9.90893 10.99054,-12.89458 -3.32323,-6.3953 -3.00961,-15.4626 2.93605,-20.83865 3.93605,-3.55527 8.11371,-3.38405 11.00176,-2.56486 5.28966,1.06882 7.13449,4.94408 5.61446,7.37131 -1.53283,2.45284 -4.44486,1.73763 -5.31527,-0.1024 -0.86722,-1.83682 1.0752,-3.01285 1.0752,-3.01285 -0.17438,-0.9344 -0.7488,-1.61603 -1.39202,-2.09921 -2.36003,-0.80322 -6.05926,-1.20963 -9.57609,1.96801 -5.13928,4.64327 -5.44008,12.47216 -2.61286,18.08663 10.77455,-6.96649 22.6787,-6.38728 26.84516,-5.90407 0.1024,-0.63041 0.1824,-1.27841 0.22239,-1.95361 0.78562,-13.21619 0.78562,-12.42895 3.37925,-12.42895 2.59684,0 4.95687,-0.70563 5.74408,-4.00966 0.78401,-3.30245 -0.94402,-5.58408 -0.94402,-5.58408 0,0 2.75365,-5.50728 13.60658,-5.42886 10.85453,0.0816 16.517,6.13446 16.5954,12.03534 0.08,5.89927 -4.20004,8.51852 -7.80168,7.36488 0,0 4.38086,-0.384 5.34087,-5.25604 -0.67522,-0.84003 -2.39045,-2.43045 -5.6321,-2.34085 -0.0736,0 -2.76482,-0.01119 -4.62724,1.78563 -1.24001,1.19682 -1.86882,2.95523 -1.86882,5.23048 0,3.32162 1.25921,6.07527 3.64163,7.96329 2.68965,2.12643 6.5441,2.87204 10.57776,2.04323 3.76643,-0.77121 7.51219,-4.04646 9.5458,-8.34733 1.49764,-3.16803 3.20005,-9.35531 -0.0976,-17.76501 -0.68961,-0.79682 -1.47362,-1.41282 -2.37443,-1.66882 -4.26256,-1.21923 -6.33459,-2.07204 -5.84658,-8.6481 0.48801,-6.5745 -5.96487,-10.96175 -11.20334,-4.74888 0,0 0.36479,-5.11686 5.23847,-6.21287 4.86726,-1.09441 8.52331,4.62724 8.52331,4.62724 0,0 -0.60801,-7.79369 4.01775,-10.83693 4.63046,-3.04323 4.75206,-16.56341 4.75206,-16.56341 L 123.71947,0 124.7163,5.23685 c 0,0 0.12159,13.52018 4.75205,16.56341 4.62726,3.04324 4.01926,10.83693 4.01926,10.83693 0,0 3.65285,-5.72165 8.5233,-4.62724 4.87367,1.09601 5.23846,6.21287 5.23846,6.21287 -5.23846,-6.21287 -11.69294,-1.82562 -11.20652,4.74888 0.48799,6.57606 -1.58085,7.42887 -5.84488,8.6481 -0.83843,0.23681 -1.57762,0.78401 -2.23361,1.49601 -3.36327,8.5009 -1.65604,14.74739 -0.15683,17.93782 2.01922,4.30087 5.74089,7.57612 9.48332,8.34733 4.00487,0.82881 7.83371,0.0832 10.50574,-2.04323 2.36802,-1.88802 3.61924,-4.64167 3.61924,-7.96329 0,-2.27525 -0.62561,-4.03366 -1.85762,-5.23048 -1.84962,-1.79682 -4.52005,-1.78563 -4.59526,-1.78563 -2.83523,-0.07997 -4.49127,1.14084 -5.30726,2.00964 0.81921,5.19366 5.40966,5.58725 5.40966,5.58725 -3.21923,1.03203 -6.96808,-0.95839 -7.67529,-5.60326 l -0.2624,-0.1344 c 0.0128,-0.02401 0.0848,-0.1488 0.20159,-0.328 -0.0416,-0.41441 -0.072,-0.84323 -0.0656,-1.29922 0.08,-5.90088 5.74247,-11.95374 16.59541,-12.03534 10.85295,-0.07842 13.60657,5.42886 13.60657,5.42886 0,0 -1.72962,2.28163 -0.94402,5.58408 0.78723,3.30403 3.14726,4.00966 5.74249,4.00966 2.59522,0 2.59522,-0.78724 3.38083,12.42895 0.04,0.6752 0.12001,1.3232 0.22081,1.95361 4.16965,-0.48321 16.07222,-1.06242 26.84835,5.90407 2.82724,-5.61447 2.52482,-13.44336 -2.61284,-18.08663 -3.51685,-3.17764 -7.21608,-2.77123 -9.57611,-1.96801 -0.64322,0.48318 -1.21923,1.16481 -1.39362,2.09921 0,0 1.94403,1.17603 1.07521,3.01285 -0.86882,1.84003 -3.78085,2.55524 -5.31528,0.1024 -1.51841,-2.42723 0.32482,-6.30249 5.61448,-7.37449 2.88803,-0.81601 7.06727,-0.98723 11.00174,2.56804 5.94569,5.37605 6.25767,14.44335 2.93605,20.83865 4.06884,2.98724 7.89448,7.1505 10.99533,12.90098 3.26565,4.76645 6.6017,11.28334 8.1809,19.42904 2.87524,14.82739 -5.83367,31.83241 -14.83859,39.46931 -1.74081,1.77124 -3.86244,3.62405 -6.40167,5.37447 0.54561,0.83041 1.14722,1.65603 1.82242,2.47042 6.88969,8.32813 17.06102,8.75053 22.90269,8.15693 -1.08161,-0.92322 -1.72003,-2.43045 -1.48483,-4.73928 0.52802,-5.21766 6.2097,-5.74727 9.24654,-4.62724 3.03843,1.1248 8.32171,-0.3264 9.70892,-5.87529 1.38882,-5.54567 -3.43364,-12.28496 -3.43364,-12.28496 2.84003,0.72322 8.30571,5.05768 6.60648,13.34256 z m -69.91289,-24.98431 c 0,0 -4.91048,4.81126 0.10238,12.73137 0,0 1.40323,2.20643 5.10886,4.70886 3.51686,2.37602 6.8353,8.26091 2.22725,16.037 5.71687,-1.14721 10.42572,-3.20964 14.25616,-5.57767 -4.70564,-8.42732 -3.89762,-17.26902 -1.88961,-25.09152 -1.86563,1.73921 -5.48008,4.44327 -10.48333,5.11046 -7.51692,1.00002 -10.02253,-5.11206 -9.32171,-7.9185 z m 3.32323,34.12044 c 1.27362,-0.144 2.49763,-0.336 3.68484,-0.5664 0.84322,-3.00964 2.14404,-10.68493 -5.70407,-12.60817 0,0 1.61601,4.37127 1.28003,10.02415 0.04,1.06399 0.0192,2.13922 -0.0816,3.22402 0.27519,-0.0272 0.54561,-0.0448 0.82081,-0.0736 z m -26.52675,0.49281 c -1.11042,3.08323 -0.86721,7.9393 2.28803,11.31695 2.12484,2.27683 5.45287,3.36164 8.90092,2.89444 4.29286,-0.5792 8.10411,-3.48645 10.46093,-7.97452 0.74402,-1.4208 1.25603,-2.88484 1.58564,-4.35685 -4.37928,0.2464 -8.64492,0.0288 -12.72657,-0.64322 -0.85922,2.16963 -3.20645,2.27524 -3.99365,0.70402 -0.3072,-0.61442 -0.32802,-1.13922 -0.21121,-1.57281 -1.93282,-0.48642 -3.81444,-1.07362 -5.63847,-1.76804 -0.25281,0.41121 -0.47843,0.87842 -0.66562,1.40003 z m 7.63052,-1.48322 c 0,-0.0112 -0.003,-0.0272 -0.003,-0.0384 -0.74721,-0.88479 -2.20161,-2.04643 -4.59366,-1.7392 -0.24001,0.0352 -0.47839,0.11997 -0.7088,0.23199 1.71842,0.60962 3.48964,1.12642 5.30568,1.54562 z m -17.98105,-8.56811 c 3.10886,2.50404 6.5873,4.54567 10.34094,6.11688 0.8064,-0.78561 1.74721,-1.27362 2.77123,-1.40802 3.63205,-0.4752 5.97129,1.58884 7.00489,3.17125 0.32162,0.3584 0.60801,0.79039 0.78242,1.28162 4.10725,0.6992 8.40811,0.928 12.83535,0.66079 -0.003,-3.49124 -0.57119,-7.8609 -2.68483,-12.13455 -4.60964,-9.32013 -5.21125,-13.53139 -3.60964,-18.84344 1.60482,-5.30889 8.8209,-9.11853 14.6338,-8.72011 0,0 -7.7169,0.80481 -6.91531,6.11688 0.80003,5.31207 7.31689,6.91367 13.02899,3.30563 2.88002,-1.81921 5.22246,-4.62886 6.84007,-6.97288 0.34082,-1.05762 0.68802,-2.08643 1.02081,-3.08645 l 0.3264,-0.9712 c 1.98724,-5.96008 5.9681,-22.16829 -3.75042,-34.81645 -3.46245,1.45441 -7.73291,2.00642 -11.75856,0.90401 -6.32169,-1.18561 -11.10735,-6.70729 -13.08657,-11.93296 -1.96322,0.62882 -3.90406,1.55042 -5.73449,2.69124 1.98404,4.76166 7.43211,7.17609 7.43211,7.17609 -4.96806,-0.4688 -8.0321,-2.66083 -9.90093,-5.44167 -2.32164,1.83042 -4.36328,4.02565 -5.88488,6.44489 -0.66561,1.05601 -1.32642,2.31042 -1.86082,3.73285 h 12.46896 l -10.01773,17.2674 c 2.25763,3.09444 5.41926,5.29449 9.26573,6.3617 5.93767,1.6448 11.72172,0.17279 14.36497,-2.13124 3.35684,-2.92003 3.90886,-6.99206 3.30886,-9.82411 -0.50242,-2.37123 -1.81444,-4.09445 -3.50885,-4.61447 -1.26882,-0.3904 -2.33604,-0.35521 -3.16805,0.1056 -0.2944,0.168 -0.53759,0.37922 -0.74721,0.59842 -0.20001,0.3872 -0.35841,0.832 -0.40321,1.34079 0,0 1.72482,0.24802 1.76482,2.00963 0.0416,1.76483 -2.41762,3.15845 -4.42885,1.76483 -1.99842,-1.38881 -0.58881,-6.61928 3.16964,-7.73129 1.27201,-0.5744 2.76004,-0.61121 4.43206,-0.09761 2.43203,0.75041 4.28166,3.06085 4.94407,6.18729 0.7264,3.41763 0.0592,8.32331 -3.98407,11.84494 -3.63524,3.16485 -10.34092,4.22406 -16.30421,2.57284 -4.01764,-1.11041 -7.36809,-3.31844 -9.85292,-6.41128 l -4.80646,8.2801 13.00977,23.39871 h -26.58754 l -2.30403,3.96805 c 2.22242,2.94884 4.73446,5.57127 7.55369,7.8353 z M 92.21178,105.46054 c 1.19362,-3.68164 1.08801,-6.99849 0.39201,-9.81451 -5.18887,0 -8.70093,0 -9.41454,0 0.51362,0.8 3.63205,5.65127 7.97291,12.40497 0.40002,-0.82082 0.75521,-1.68325 1.04962,-2.59046 z m 1.99841,0.648 c -0.4608,1.42083 -1.048,2.74725 -1.74081,3.98086 1.76161,2.73766 3.68003,5.72649 5.68647,8.84331 l 12.12816,-23.28668 c -5.76486,0 -11.11215,0 -15.5202,0 0.75362,3.43522 0.57921,6.96807 -0.55362,10.46251 z m 5.25288,14.86261 c 4.54886,7.07368 9.42252,14.66258 13.74898,21.39389 0.66881,0 1.34241,0 2.02242,0 4.00494,-7.37131 6.57779,-16.32344 7.67221,-26.79715 l 0.0864,0.008 v -9.31051 c -0.99681,-0.73282 -2.55043,-1.55523 -4.43365,-1.45604 -3.33454,0.17442 -4.31377,4.19845 -1.95365,6.49769 2.35685,2.30243 3.21926,6.50088 1.55043,9.72173 -1.6656,3.22084 -7.07219,4.02246 -10.23542,-0.34561 0,0 4.88806,2.87524 6.84329,0.28801 1.95532,-2.58724 0.4048,-4.94407 -0.80481,-7.8225 -1.20802,-2.87364 -1.84163,-9.02733 3.91055,-10.00495 0,0 2.65923,-0.45919 5.12326,0.63682 v -8.13449 c -3.49444,0 -6.97139,0 -10.34102,0 -4.21766,8.1009 -8.98893,17.25943 -13.18898,25.32512 z m -1.11682,2.14402 c -5.33127,10.24013 -9.50892,18.26105 -10.02572,19.24987 1.16641,0 10.61772,0 22.39387,0 z m 25.68843,-0.45761 c -1.32321,7.42571 -3.47685,13.99539 -6.42889,19.70748 4.22566,0 8.58731,0 12.85617,0 -2.95363,-5.71209 -5.10565,-12.28177 -6.42728,-19.70748 z M 122.99307,93.5452 V 75.78816 c -1.65922,3.18723 -5.12167,9.83854 -9.24663,17.75704 z m 2.10083,0 h 9.81293 c -4.35687,-7.84012 -8.0209,-14.4306 -9.81293,-17.65143 z m 0,2.10083 v 8.12647 c 2.45603,-1.08799 5.10407,-0.6288 5.10407,-0.6288 5.75047,0.97762 5.11845,7.13131 3.91046,10.00495 -1.20803,2.87843 -2.75845,5.23526 -0.80644,7.8225 1.95683,2.58723 6.84649,-0.28801 6.84649,-0.28801 -3.16482,4.36807 -8.5713,3.56645 -10.23852,0.34561 -1.66722,-3.22085 -0.80481,-7.4193 1.55364,-9.72173 2.3584,-2.29924 1.3792,-6.32327 -1.95525,-6.49769 -1.87361,-0.0944 -3.41765,0.71202 -4.41445,1.44003 v 9.32492 l 0.0688,-0.006 c 1.09282,10.47371 3.66724,19.42584 7.67211,26.79715 1.68962,0 3.35684,0 4.98724,0 3.89287,-6.7105 8.27852,-14.26421 12.37137,-21.3187 -4.48965,-8.0833 -9.60333,-17.27384 -14.11858,-25.40031 -3.56965,0 -7.2689,0 -10.98094,0 z m 10.28972,50.92225 c 0.39681,-0.688 0.80483,-1.39203 1.21924,-2.10083 h -2.57123 c 0.4352,0.71682 0.8864,1.41283 1.35199,2.10083 z m 4.86568,-4.20324 c 11.47534,0 20.61946,0 21.79707,0 -0.5552,-1.00002 -4.99687,-8.98893 -10.66414,-19.18106 z m 11.17294,-23.43392 c 1.63042,-2.81125 3.20004,-5.51527 4.65926,-8.02892 -0.90882,-1.45281 -1.65763,-3.05282 -2.22243,-4.79366 -1.13441,-3.49444 -1.30882,-7.02729 -0.55521,-10.46251 -4.23205,0 -9.32811,0 -14.82579,0 z m 4.43366,-13.47058 c 0.3872,1.19042 0.872,2.30724 1.43841,3.35045 4.15526,-7.1617 7.16969,-12.35695 7.64009,-13.16496 -0.6848,0 -4.22244,0 -9.47212,0 -0.69279,2.81602 -0.8,6.13287 0.39362,9.81451 z m -22.42429,44.47096 c -0.85121,-1.1424 -1.46721,-1.80961 -1.46721,-1.80961 l 1.10721,-1.26721 c -0.50722,-0.77762 -0.99202,-1.57282 -1.46083,-2.38723 H 116.457 c -0.29762,0.5168 -0.59532,1.03362 -0.90732,1.53603 5.71216,8.88971 10.04182,15.62738 10.59383,16.48662 0.43361,-0.74564 3.29603,-5.68009 7.2881,-12.5586 z m -20.38278,-3.93283 -0.98401,-1.53122 H 84.85808 l 12.17935,-23.38749 -5.81285,-9.04813 c -2.53285,3.48804 -6.08969,5.96646 -10.42575,7.16809 -5.96489,1.65122 -12.66896,0.59201 -16.3026,-2.57284 -4.04486,-3.52163 -4.71048,-8.42731 -3.98567,-11.84494 0.66241,-3.12644 2.51044,-5.43688 4.94406,-6.18729 1.67201,-0.5136 3.16005,-0.47679 4.43528,0.09761 3.75523,1.11681 5.16164,6.34248 3.16644,7.73129 -2.00964,1.39362 -4.47046,0 -4.42887,-1.76483 0.04,-1.76161 1.76322,-2.00963 1.76322,-2.00963 -0.0448,-0.50879 -0.2016,-0.95359 -0.4016,-1.34079 -0.20961,-0.2192 -0.4528,-0.43042 -0.74722,-0.59842 -0.83361,-0.46081 -1.89923,-0.496 -3.16963,-0.1056 -1.69283,0.52002 -3.00483,2.24324 -3.50884,4.61447 -0.60002,2.83205 -0.04642,6.90408 3.31043,9.82411 2.64483,2.30403 8.43051,3.77604 14.36499,2.13124 4.12966,-1.14403 7.4705,-3.59366 9.75053,-7.0593 L 79.34282,93.5452 h 12.61294 c -0.5344,-1.42243 -1.1936,-2.67684 -1.85922,-3.73285 -1.52321,-2.41924 -3.56484,-4.61447 -5.88647,-6.44489 -1.87042,2.78084 -4.93287,4.97287 -9.90094,5.44167 0,0 5.44807,-2.41443 7.43371,-7.17609 -1.83203,-1.14082 -3.77125,-2.06242 -5.73768,-2.69124 -1.97763,5.22567 -6.76329,10.74254 -13.08176,11.93296 -4.02725,1.10241 -8.29932,0.5504 -11.76176,-0.90401 -9.71852,12.64816 -5.73607,28.85637 -3.74883,34.81645 l 0.32319,0.9712 c 0.33439,1.00002 0.67841,2.02883 1.0224,3.08645 1.61602,2.34242 3.95847,5.15367 6.8401,6.97288 5.71208,3.60804 12.22897,2.00644 13.02897,-3.30563 0.80161,-5.31207 -6.9153,-6.11688 -6.9153,-6.11688 5.81449,-0.39842 13.029,3.41122 14.63379,8.72011 1.60323,5.31205 1.00004,9.52331 -3.60963,18.84344 -2.11523,4.27365 -2.68323,8.64331 -2.68645,12.13455 4.42726,0.26721 8.72971,0.0384 12.83699,-0.66079 0.17438,-0.49123 0.45918,-0.92322 0.7824,-1.28643 1.03199,-1.5776 3.37284,-3.64164 7.00488,-3.16644 1.02243,0.1344 1.96483,0.62241 2.77124,1.40802 3.75365,-1.57121 7.2305,-3.61284 10.34094,-6.11688 3.57123,-2.87204 6.65289,-6.30728 9.2625,-10.27213 z M 85.8101,164.8005 c -0.0016,0.0112 -0.0048,0.0272 -0.0048,0.0384 1.816,-0.4192 3.58885,-0.936 5.30726,-1.54562 -0.23201,-0.11202 -0.46881,-0.19679 -0.71041,-0.23199 -2.39364,-0.30723 -3.84645,0.8496 -4.59205,1.7392 z m -3.56164,15.73302 c 3.44803,0.4672 6.77447,-0.61761 8.8977,-2.89444 3.15524,-3.37765 3.39843,-8.23372 2.29124,-11.31695 -0.1888,-0.52161 -0.4144,-0.98882 -0.66561,-1.40003 -1.82562,0.69442 -3.70725,1.28162 -5.64169,1.76804 0.1184,0.43359 0.09759,0.95839 -0.20958,1.57281 -0.78723,1.57122 -3.13445,1.46561 -3.99207,-0.70402 -4.08327,0.67203 -8.34891,0.88802 -12.72815,0.64322 0.3312,1.47201 0.8416,2.93605 1.5856,4.35685 2.35523,4.48807 6.1697,7.39532 10.46256,7.97452 z m -15.34102,-14.7042 c 0.27521,0.0288 0.54721,0.0464 0.82243,0.0736 -0.09921,-1.07841 -0.12161,-2.16003 -0.0816,-3.21763 -0.33762,-5.65607 1.27841,-10.03054 1.27841,-10.03054 -7.84651,1.92324 -6.5441,9.59853 -5.70248,12.60817 1.1872,0.2304 2.40962,0.4224 3.68324,0.5664 z m -4.11363,-0.64321 c -4.60808,-7.77609 -1.28963,-13.66098 2.22722,-16.037 3.70565,-2.50243 5.10885,-4.70886 5.10885,-4.70886 5.01287,-7.92011 0.1008,-12.73137 0.1008,-12.73137 0.70242,2.80644 -1.80321,8.91852 -9.3201,7.9185 -5.00328,-0.66719 -8.61772,-3.37125 -10.48335,-5.11046 2.00963,7.8225 2.81764,16.6642 -1.88801,25.09152 3.82884,2.36803 8.53771,4.43046 14.25459,5.57767 z M 35.30385,95.51802 c -5.78728,12.63216 -4.76969,26.40994 -4.76969,26.40994 -0.30398,16.59221 7.44011,27.94754 12.14577,33.29962 1.20963,1.08002 2.56644,2.16964 4.08804,3.22245 6.0049,-11.00495 2.00324,-22.98751 -1.0224,-32.02281 l -0.3264,-0.97442 c -2.08322,-6.24649 -6.24328,-23.14749 3.75205,-36.46768 -1.31362,-0.75519 -2.44162,-1.64001 -3.30086,-2.59842 -0.41119,-0.456 -0.7856,-0.95521 -1.14401,-1.46563 -3.43364,2.55365 -6.68488,5.9841 -9.4225,10.59695 z M 47.4336,84.98349 c 0.776,0.86561 1.83683,1.66081 3.07684,2.33763 3.01603,-3.48965 7.11689,-6.67209 12.59056,-9.28172 -4.91686,0.49441 -10.95055,1.96483 -16.6562,5.68007 0.31039,0.4432 0.6352,0.86882 0.9888,1.26402 z m 21.43386,-7.14252 0.01921,0.05922 c -7.41609,2.65444 -12.64816,6.27689 -16.30421,10.36173 3.07524,1.14721 6.7937,1.53123 10.20973,0.4752 0.53281,-0.16641 1.08482,-0.37919 1.64482,-0.64158 2.84165,-2.00325 5.94887,-5.20328 7.31209,-10.05455 -0.7472,-0.0784 -1.72162,-0.16159 -2.88164,-0.20002 z M 79.4996,66.47285 c 0,0 -2.04481,1.25921 -2.51681,8.2577 -0.04642,0.70401 -0.16802,1.44642 -0.35361,2.20962 1.95683,0.62721 3.89444,1.51523 5.73447,2.61763 1.12642,-5.29285 -0.21442,-11.90735 -2.86405,-13.08495 z m 49.11434,-35.90287 c -0.36479,-5.60328 -3.77605,-6.33448 -3.77605,-6.33448 h -1.96962 c 0,0 -3.41124,0.7312 -3.77444,6.33448 -0.3664,5.60008 0.4864,8.2801 2.92163,14.49298 1.54081,3.92805 1.76481,7.99692 1.72163,10.46254 0.0912,0.70561 0.14078,1.38402 0.168,2.04641 0.0192,-0.39999 0.0512,-0.80479 0.0912,-1.21759 -0.10561,-2.29443 -0.0368,-6.87849 1.69442,-11.29136 2.43685,-6.21288 3.28804,-8.8929 2.92324,-14.49298 z m 22.4115,19.84346 c -5.79367,-0.49759 -10.76175,2.17761 -11.40656,7.27209 1.24002,-0.80641 2.98724,-1.47522 5.35368,-1.40961 0.144,0 3.56485,-0.03842 6.06728,2.37121 1.66881,1.60963 2.51361,3.87846 2.51361,6.74731 0,3.91844 -1.5664,7.32809 -4.40964,9.5921 -3.17445,2.52803 -7.65451,3.43045 -12.29457,2.47203 -4.44804,-0.91839 -8.65611,-4.56645 -10.98413,-9.52331 -0.86561,-1.84001 -1.79042,-4.61287 -1.96002,-8.1505 -0.168,3.53763 -1.09921,6.31049 -1.97124,8.1505 -2.34401,4.95686 -6.57937,8.60492 -11.05624,9.52331 -4.67046,0.95842 -9.18091,0.056 -12.37936,-2.47203 -2.86083,-2.26401 -4.43685,-5.67366 -4.43685,-9.5921 0,-2.86885 0.8528,-5.13768 2.53124,-6.74731 2.51843,-2.40963 5.96326,-2.37121 6.10566,-2.37121 2.64804,-0.07202 4.52327,0.7584 5.78409,1.68161 -0.49922,-5.27207 -5.54248,-8.05131 -11.44176,-7.54409 -6.40167,0.5536 -11.25775,6.62088 -10.37454,17.99063 0,0 1.31682,7.24328 -1.42401,13.11857 2.62564,2.01921 4.92966,4.46245 6.63208,7.17128 0.99044,1.57763 1.75684,3.20006 2.30884,4.85128 h 17.19382 l 12.54426,-24.08512 13.38898,24.08512 h 16.57301 c 0.55202,-1.65122 1.32001,-3.27365 2.31043,-4.85128 1.70402,-2.70883 4.00647,-5.15207 6.63209,-7.17128 -2.74244,-5.87529 -1.42561,-13.11857 -1.42561,-13.11857 0.88319,-11.36975 -3.97127,-17.43703 -10.37454,-17.99063 z m 17.53941,16.05941 c -2.64642,1.1776 -3.98725,7.7921 -2.86243,13.08495 1.84163,-1.1024 3.77925,-1.99042 5.73607,-2.61763 -0.18559,-0.7632 -0.3072,-1.50561 -0.35359,-2.20962 -0.47202,-6.99849 -2.52005,-8.2577 -2.52005,-8.2577 z m 15.0658,21.62748 c 0.56001,0.2576 1.11201,0.47038 1.64482,0.63679 3.41606,1.05603 7.13611,0.67201 10.20813,-0.4752 -3.65444,-4.08484 -8.88651,-7.70729 -16.30422,-10.36173 l 0.0208,-0.05922 c -1.16002,0.03843 -2.13442,0.12162 -2.88164,0.20002 1.36322,4.85127 4.47206,8.0513 7.31209,10.05934 z m 1.33442,-10.06093 c 5.47367,2.60963 9.57773,5.79207 12.59217,9.28172 1.24,-0.67682 2.30082,-1.47202 3.07843,-2.33763 0.35202,-0.3952 0.67681,-0.82082 0.98881,-1.26402 -5.70728,-3.71524 -11.74255,-5.18566 -16.65941,-5.68007 z m 20.42267,77.18818 c 4.70564,-5.35208 12.45136,-16.70741 12.14736,-33.29962 0,0 1.016,-13.77778 -4.77128,-26.40994 -2.73762,-4.60966 -5.98887,-8.0433 -9.42251,-10.59695 -0.35681,0.51042 -0.73122,1.00963 -1.14401,1.46563 -0.85923,0.95841 -1.98883,1.84323 -3.29926,2.59842 9.99533,13.32019 5.83368,30.22119 3.75046,36.46768 l -0.3264,0.97442 c -3.02405,9.0353 -7.0289,21.01786 -1.02082,32.02281 1.51842,-1.05281 2.87685,-2.14243 4.08646,-3.22245 z"
               style="fill:#000000;fill-opacity:1;fill-rule:nonzero;stroke:#000000;stroke-width:0.3985;stroke-linecap:butt;stroke-linejoin:miter;stroke-miterlimit:10;stroke-dasharray:none;stroke-opacity:1"
               id="path20" /><path
               d="m 124.18669,194.19928 c -0.0128,0.76961 -0.0272,1.56322 -0.0576,2.37764 0,0 -0.002,-0.0384 -0.005,-0.1136 -0.0192,-0.53122 -0.0304,-1.04802 -0.0432,-1.56003 0.0224,0.39201 0.0336,0.71042 0.0416,0.97601 0.002,-0.416 0.0176,-0.9808 0.064,-1.68002 z"
               style="fill:#000000;fill-opacity:1;fill-rule:nonzero;stroke:#000000;stroke-width:0.3985;stroke-linecap:butt;stroke-linejoin:miter;stroke-miterlimit:10;stroke-dasharray:none;stroke-opacity:1"
               id="path22" /></g></g></g></g></g></svg>
