<?xml version="1.0" encoding="UTF-8" standalone="no"?>
<svg
   xmlns:dc="http://purl.org/dc/elements/1.1/"
   xmlns:cc="http://creativecommons.org/ns#"
   xmlns:rdf="http://www.w3.org/1999/02/22-rdf-syntax-ns#"
   xmlns:svg="http://www.w3.org/2000/svg"
   xmlns="http://www.w3.org/2000/svg"
   xmlns:sodipodi="http://sodipodi.sourceforge.net/DTD/sodipodi-0.dtd"
   xmlns:inkscape="http://www.inkscape.org/namespaces/inkscape"
   version="1.1"
   id="svg2"
   xml:space="preserve"
   width="98.439079"
   height="78.476624"
   viewBox="0 0 98.439076 78.476623"
   sodipodi:docname="vectorian191.pdf"><metadata
     id="metadata8"><rdf:RDF><cc:Work
         rdf:about=""><dc:format>image/svg+xml</dc:format><dc:type
           rdf:resource="http://purl.org/dc/dcmitype/StillImage" /></cc:Work></rdf:RDF></metadata><defs
     id="defs6" /><sodipodi:namedview
     pagecolor="#ffffff"
     bordercolor="#666666"
     borderopacity="1"
     objecttolerance="10"
     gridtolerance="10"
     guidetolerance="10"
     inkscape:pageopacity="0"
     inkscape:pageshadow="2"
     inkscape:window-width="640"
     inkscape:window-height="480"
     id="namedview4" /><g
     id="g10"
     inkscape:groupmode="layer"
     inkscape:label="vectorian191"
     transform="matrix(1.3333333,0,0,-1.3333333,-0.58388844,78.366631)"><g
       id="g12"
       transform="translate(72,-12.372)"><g
         id="g14"
         transform="translate(-71.364,12.489)"><g
           id="g16"><g
             id="g18"><path
               d="M 69.78319,3.02843 C 70.4942,2.31801 71.7332,1.99222 72.46472,2.31801 73.19623,2.64252 73.20642,3.44504 71.9572,3.58713 70.70729,3.72983 69.78319,2.99762 69.78319,2.99762 m 2.44792,7.7715 c 0.67001,0.2738 0.60992,1.15701 -0.46719,1.37082 -1.07644,0.2131 -2.25462,-0.55811 -2.25462,-0.55811 0.8626,-0.82441 2.05111,-1.08803 2.72181,-0.81271 m -0.3456,6.8152 c 0.6604,0.28479 0.823,1.28951 -0.26371,1.4118 -1.0873,0.12221 -2.27582,-0.70079 -2.27582,-0.70079 0.81282,-0.66052 1.87904,-0.99523 2.53953,-0.71101 m 0.36541,8.2365 c 0.44801,0.38729 0.4781,1.10722 -0.6093,1.09762 -1.08662,-0.01022 -2.13232,-0.86333 -2.13232,-0.86333 0.76148,-0.53821 2.29562,-0.6195 2.74162,-0.23429 m -0.3449,7.13079 c 0.57919,0.46782 0.50809,1.10782 -0.498,1.17821 -1.00543,0.071 -2.57014,-0.63931 -2.57014,-0.63931 0.81341,-0.6707 2.48893,-1.00541 3.06814,-0.5389 M 71.7536,40.2545 c 0.75202,0.47742 0.25412,1.04701 -0.6905,1.13852 -0.94532,0.0916 -2.36663,-0.65092 -2.36663,-0.65092 0.99512,-0.853 2.30583,-0.96509 3.05713,-0.4876 m 0.29442,6.39919 c 0.50821,0.4071 0.041,1.29021 -0.90362,1.21992 -0.9446,-0.07171 -2.20482,-0.79231 -2.20482,-0.79231 1.2902,-0.97601 2.60092,-0.83331 3.10844,-0.42761 m -3.90077,5.72917 -0.64949,-0.4371 0.711,-0.92341 0.55873,0.64949 z m 3.22255,-1.06001 c 1.09694,0.16871 1.68773,1.26561 0.42141,1.60372 -1.26561,0.33741 -2.58793,-0.73292 -2.58793,-0.73292 0.3094,-0.3927 1.06891,-1.04089 2.16652,-0.8708 m -4.22034,0.7308 c 0,0 -0.78822,0.67482 -1.71654,0.67482 -0.92819,0 -1.68771,-0.33742 -1.35031,-0.98421 0.33811,-0.64682 1.85713,-0.5915 3.06685,0.30939 m 2.10982,4.72656 c -0.056,1.04091 -1.32233,1.91313 -1.74442,0.42211 -0.42151,-1.49172 0.8449,-3.54425 0.8449,-3.54425 0,0 0.9562,2.08123 0.89952,3.12214 m -3.02854,-5.67727 c -0.81762,-0.5396 -2.20824,-0.3436 -2.48694,0.31012 -0.27789,0.65499 -0.09759,1.2601 0.933,1.52171 1.03073,0.26091 1.83333,-0.26161 2.34005,-0.53961 0.50621,-0.27858 1.03001,0.13119 1.03001,0.13119 -2.15971,1.99515 -1.39061,4.56397 -1.39061,4.56397 0.8183,2.42123 3.10913,1.27653 2.83041,-0.68711 -0.278,-1.96302 -0.99719,-3.20753 -0.99719,-3.20753 0.24521,-0.49042 0.50681,-0.68642 0.50681,-0.68642 3.58384,1.7348 4.45056,-0.44121 3.01074,-1.39132 -1.44042,-0.94802 -3.02713,0.45971 -3.02713,0.45971 -1.86536,-2.22673 -0.22881,-4.20545 -0.22881,-4.20545 3.22324,1.68502 4.69576,-0.0662 3.28873,-1.27653 -1.40701,-1.21031 -3.45264,0.24521 -3.45264,0.24521 -1.93092,-2.89464 -0.0813,-5.36445 -0.0813,-5.36445 0,0 1.03072,0.75129 2.66654,0.62161 1.63582,-0.13123 1.81612,-1.68573 0.13109,-2.35584 -1.68502,-0.67202 -3.15753,0.7841 -3.15753,0.7841 -2.12763,-2.97653 0.47399,-6.28108 0.47399,-6.28108 3.63225,1.66863 4.82688,0.0813 3.35436,-1.30931 -1.47262,-1.39062 -3.68155,0.18029 -3.68155,0.18029 0,0 -1.04701,-1.93023 -0.60582,-3.71425 0.44261,-1.78342 1.60371,-2.63373 1.60371,-2.63373 2.48754,1.93094 4.38497,0.59012 3.15836,-0.67002 -1.22742,-1.26019 -3.43636,-0.2623 -3.43636,-0.2623 -0.68708,-0.72059 -1.14541,-1.96372 -1.06341,-3.92674 0.08263,-1.96292 1.21092,-2.92805 1.21092,-2.92805 2.04503,1.63583 4.43427,0.42552 3.20685,-0.88319 -1.2274,-1.30932 -3.61594,0.1141 -3.61594,0.1141 0,0 -0.93232,-1.43912 -0.81822,-3.30446 0.114,-1.86601 1.40772,-2.61802 1.40772,-2.61802 2.56814,1.62011 4.51545,-0.29441 3.20604,-1.21032 -1.30862,-0.91661 -3.42533,0.37152 -3.42533,0.37152 0,0 -1.25813,-2.58724 -1.14883,-4.52836 0.10721,-1.93984 1.54432,-3.19866 1.54432,-3.19866 2.83994,1.65363 4.13367,-0.1441 3.88225,-0.7902 -0.252,-0.64621 -2.01353,-1.54572 -4.13296,0 -2.12142,1.5449 -2.05384,4.01275 -2.05384,4.01275 -0.03138,2.77504 1.52655,4.67186 1.52655,4.67186 0,0 -1.34143,0.69391 -1.51153,3.20884 -0.1694,2.51353 1.23421,3.60905 1.23421,3.60905 0,0 -1.18772,1.24921 -1.1563,3.83865 0.03,2.59203 1.40291,3.76345 1.40291,3.76345 0,0 -1.77382,1.77372 -1.95822,3.76274 -0.18511,1.99034 1.23352,3.50046 1.23352,3.50046 0,0 -1.57373,1.41929 -1.51154,3.85633 0.06153,2.43635 1.32642,3.63915 1.32642,3.63915 -2.12761,3.65555 0.47742,6.24559 0.47742,6.24559 -1.92743,2.14404 -0.2773,4.33446 -0.2773,4.33446 -0.29232,0.52391 -0.58602,0.7704 -0.58602,0.7704 0,0 -0.36342,-0.0047 -1.18161,-0.54431"
               style="fill:#000000;fill-opacity:1;fill-rule:nonzero;stroke:#000000;stroke-width:0.3985;stroke-linecap:butt;stroke-linejoin:miter;stroke-miterlimit:10;stroke-dasharray:none;stroke-opacity:1"
               id="path20" /><path
               d="m 50.81905,43.61694 c 0,0 0.76561,-0.2288 1.18641,-0.07649 0.4214,0.15299 0.80321,0.99591 0.80321,0.99591 0,0 0.03889,-1.22331 0.34421,-1.30182 0.306,-0.07521 1.72191,-0.15301 1.72191,-0.15301 0,0 -2.75463,-0.38249 -1.52993,-2.10303 0,0 -1.0334,1.03203 -1.4542,0.95552 -0.4207,-0.0758 -1.03342,-0.3067 -1.03342,-0.3067 0,0 1.30122,1.34012 -0.03819,1.98962"
               style="fill:#000000;fill-opacity:1;fill-rule:nonzero;stroke:#000000;stroke-width:0.3985;stroke-linecap:butt;stroke-linejoin:miter;stroke-miterlimit:10;stroke-dasharray:none;stroke-opacity:1"
               id="path22" /><path
               d="m 56.25252,43.38885 c 0,0 1.64461,-1.03413 1.83592,0.19059 0,0 0.11539,-0.65029 0.53551,-0.68851 0.4214,-0.0376 1.34001,-0.07719 1.34001,-0.07719 0,0 -1.45412,-0.57302 -1.37763,-1.07032 0.0765,-0.49791 0.22951,-1.33942 0.22951,-1.33942 0,0 -0.57371,0.95632 -1.22461,0.84151 -0.65031,-0.11399 -1.49173,-0.42071 -1.49173,-0.42071 0,0 1.56824,1.14813 0.15302,2.56405"
               style="fill:#000000;fill-opacity:1;fill-rule:nonzero;stroke:#000000;stroke-width:0.3985;stroke-linecap:butt;stroke-linejoin:miter;stroke-miterlimit:10;stroke-dasharray:none;stroke-opacity:1"
               id="path24" /><path
               d="m 63.10039,44.19145 c 0,0 0.72681,-1.45422 -0.8797,-1.45422 0,0 1.07101,-0.30531 0.76501,-0.84079 -0.30601,-0.53682 -0.3442,-0.76492 -0.3442,-0.76492 0,0 1.4152,1.03199 1.95132,0.07578 0,0 -0.2677,0.91862 -0.19191,1.26223 0.07719,0.3435 0.38321,0.84282 0.38321,0.84282 0,0 -1.07103,-0.38382 -1.68373,0.8791"
               style="fill:#000000;fill-opacity:1;fill-rule:nonzero;stroke:#000000;stroke-width:0.3985;stroke-linecap:butt;stroke-linejoin:miter;stroke-miterlimit:10;stroke-dasharray:none;stroke-opacity:1"
               id="path26" /><path
               d="m 55.2197,39.17938 c 0,0 0.0765,-1.1085 -1.72184,-0.87901 0,0 0.72674,-0.65089 0.72674,-1.1857 0,-0.53691 -1.22404,-1.18713 -1.22404,-1.18713 0,0 0.95623,0.68911 1.79775,0.42002 0.84219,-0.26701 1.2247,-0.60992 1.2247,-0.60992 0,0 -0.84151,0.99312 -0.07649,1.45282 l 0.76559,0.45902 c 0,0 -1.49241,-0.153 -1.49241,1.5299"
               style="fill:#000000;fill-opacity:1;fill-rule:nonzero;stroke:#000000;stroke-width:0.3985;stroke-linecap:butt;stroke-linejoin:miter;stroke-miterlimit:10;stroke-dasharray:none;stroke-opacity:1"
               id="path28" /><path
               d="m 58.77765,38.26137 c 0,0 1.52989,-0.38249 1.98961,0.49793 0,0 0,-0.76563 0.42001,-0.80323 0.4214,-0.03889 1.30121,-0.07719 1.30121,-0.07719 0,0 -0.87981,-0.267 -1.224,-0.68782 -0.34491,-0.42211 -0.03891,-1.49231 -0.03891,-1.49231 0,0 -0.49731,0.7267 -0.99451,0.6119 -0.4972,-0.11399 -1.33941,-0.34419 -1.33941,-0.34419 0,0 0.7274,0.34558 0.80459,1.10919 0.07582,0.76572 -0.91859,1.18572 -0.91859,1.18572"
               style="fill:#000000;fill-opacity:1;fill-rule:nonzero;stroke:#000000;stroke-width:0.3985;stroke-linecap:butt;stroke-linejoin:miter;stroke-miterlimit:10;stroke-dasharray:none;stroke-opacity:1"
               id="path30" /><path
               d="m 63.46721,34.97064 c 0,0 -0.0772,-0.90913 -0.46312,-1.06422 -0.38589,-0.15432 -1.06479,-0.1393 -1.06479,-0.1393 0,0 0.60178,-0.37021 0.6946,-0.84903 0.0923,-0.47807 -0.64812,-1.28131 -0.64812,-1.28131 0,0 1.06483,0.58673 1.48143,0.40161 0.4167,-0.18439 1.00342,-0.61679 1.00342,-0.61679 0,0 -0.55532,1.09491 -0.5089,1.60442 0.04577,0.50959 1.3729,1.20491 1.3729,1.20491 0,0 -1.28072,-0.2165 -1.41932,0.0307 -0.1387,0.24659 -0.4481,0.70901 -0.4481,0.70901"
               style="fill:#000000;fill-opacity:1;fill-rule:nonzero;stroke:#000000;stroke-width:0.3985;stroke-linecap:butt;stroke-linejoin:miter;stroke-miterlimit:10;stroke-dasharray:none;stroke-opacity:1"
               id="path32" /><path
               d="m 60.85876,30.29468 c 0,0 -0.40159,-0.75612 -0.6325,-0.70972 -0.23221,0.04511 -1.40493,0.46311 -1.40493,0.46311 0,0 1.11193,-0.83262 1.21914,-1.38991 0.10859,-0.55532 -0.41663,-1.23423 -0.41663,-1.23423 0,0 0.77182,0.64882 1.29712,0.49453 0.52452,-0.15441 1.41992,-0.72612 1.41992,-0.72612 0,0 -0.9883,1.12561 -0.741,1.57501 0.2472,0.4481 1.35851,0.83261 1.35851,0.83261 0,0 -1.40431,-0.20009 -1.66731,-0.03 -0.2622,0.1694 -0.43232,0.72472 -0.43232,0.72472"
               style="fill:#000000;fill-opacity:1;fill-rule:nonzero;stroke:#000000;stroke-width:0.3985;stroke-linecap:butt;stroke-linejoin:miter;stroke-miterlimit:10;stroke-dasharray:none;stroke-opacity:1"
               id="path34" /><path
               d="m 61.52267,26.06602 c 0,0 0.8797,-0.3394 1.26563,0.0301 0.3859,0.37022 0.6168,1.24992 0.6168,1.24992 0,0 -0.16941,-1.04982 0.0929,-1.32712 0.26221,-0.278 1.69792,-0.3087 1.69792,-0.3087 0,0 -1.38923,-0.43172 -1.49712,-0.91052 -0.1079,-0.47951 0.63312,-1.06551 0.63312,-1.06551 0,0 -1.03413,0.66391 -1.40432,0.41672 -0.3708,-0.24593 -0.74172,-0.49393 -0.74172,-0.49393 0,0 0.3552,0.83333 0.30872,1.29712 -0.0464,0.46312 -0.97193,1.11192 -0.97193,1.11192"
               style="fill:#000000;fill-opacity:1;fill-rule:nonzero;stroke:#000000;stroke-width:0.3985;stroke-linecap:butt;stroke-linejoin:miter;stroke-miterlimit:10;stroke-dasharray:none;stroke-opacity:1"
               id="path36" /><path
               d="m 57.52493,26.11182 c 0,0 0.15441,-1.17342 0.46311,-1.24991 0.308,-0.07721 1.32713,0.24649 1.32713,0.24649 0,0 -0.98773,-0.586 -1.04982,-0.9412 -0.06152,-0.35511 0.3866,-0.86462 0.41728,-0.91041 0.03083,-0.04649 -0.69459,0.3244 -1.29701,-0.01501 -0.60181,-0.33951 -0.987,-0.6953 -0.987,-0.6953 0,0 0.16939,0.84961 0.2001,1.24991 0.0308,0.40159 -1.15771,1.08051 -1.15771,1.08051 0,0 0.91049,-0.0464 1.42001,0.26232 0.50891,0.3087 0.66391,0.9726 0.66391,0.9726"
               style="fill:#000000;fill-opacity:1;fill-rule:nonzero;stroke:#000000;stroke-width:0.3985;stroke-linecap:butt;stroke-linejoin:miter;stroke-miterlimit:10;stroke-dasharray:none;stroke-opacity:1"
               id="path38" /><path
               d="m 51.93713,26.29622 c 0,0 0.01503,-1.17272 0.35514,-1.32712 0.33949,-0.1537 1.38861,0 1.38861,0 0,0 -0.77112,-0.55531 -1.11132,-0.9098 -0.3394,-0.35581 0.15441,-1.18912 0.15441,-1.18912 0,0 -0.86403,0.69531 -1.35784,0.43172 -0.49449,-0.2623 -1.09629,-0.35383 -1.09629,-0.35383 0,0 0.556,0.43102 0.54028,0.97191 -0.01569,0.54033 -1.52789,0.97263 -1.52789,0.97263 0,0 1.3121,-0.07721 1.77452,0.21579 0.4631,0.2937 0.88038,1.18782 0.88038,1.18782"
               style="fill:#000000;fill-opacity:1;fill-rule:nonzero;stroke:#000000;stroke-width:0.3985;stroke-linecap:butt;stroke-linejoin:miter;stroke-miterlimit:10;stroke-dasharray:none;stroke-opacity:1"
               id="path40" /><path
               d="m 53.09418,30.24817 c 0,0 0.83331,-0.24658 1.3428,-0.18509 0.50951,0.06218 0.7097,0.89551 0.7097,0.89551 0,0 0,-0.84972 0.43302,-1.07993 0.43162,-0.23219 1.01841,-0.23219 1.01841,-0.23219 0,0 -0.84831,-0.4624 -0.83331,-0.86401 0.015,-0.40101 0.3087,-0.84972 0.3087,-0.84972 0,0 -0.63312,0.61812 -1.11189,0.33951 -0.47823,-0.27732 -0.77182,-0.58472 -0.77182,-0.58472 0,0 0.24719,0.87901 -0.03082,1.41792 -0.278,0.54102 -1.06479,1.14272 -1.06479,1.14272"
               style="fill:#000000;fill-opacity:1;fill-rule:nonzero;stroke:#000000;stroke-width:0.3985;stroke-linecap:butt;stroke-linejoin:miter;stroke-miterlimit:10;stroke-dasharray:none;stroke-opacity:1"
               id="path42" /><path
               d="m 51.98285,35.57375 c 0,0 0.06221,-1.29572 0.57101,-1.43572 0.50962,-0.1394 1.32781,-0.23093 1.32781,-0.23093 0,0 -0.9262,-0.278 -1.0184,-0.741 -0.09281,-0.4624 0.04649,-0.77189 0.04649,-0.77189 0,0 -0.6796,0.63319 -1.04982,0.4324 -0.3709,-0.2001 -0.67888,-0.60171 -0.67888,-0.60171 0,0 0.10788,0.75612 -0.07793,1.15773 -0.18508,0.40158 -0.94191,0.8954 -0.94191,0.8954 0,0 0.94191,-0.3401 1.29714,0 0.3551,0.33949 0.52449,1.29572 0.52449,1.29572"
               style="fill:#000000;fill-opacity:1;fill-rule:nonzero;stroke:#000000;stroke-width:0.3985;stroke-linecap:butt;stroke-linejoin:miter;stroke-miterlimit:10;stroke-dasharray:none;stroke-opacity:1"
               id="path44" /><path
               d="m 56.24362,33.96933 c 0,0 0.8954,-0.41672 1.35851,-0.35591 0.4631,0.06149 0.72531,1.31142 0.72531,1.31142 0,0 -0.0771,-1.03272 0.20019,-1.21782 0.278,-0.18509 1.06552,0 1.06552,0 0,0 -1.09631,-0.46381 -1.09631,-1.04982 0,-0.5867 0.61751,-1.51291 0.61751,-1.51291 0,0 -1.12701,0.95692 -1.49724,0.8654 -0.37019,-0.09419 -1.01839,-0.26359 -1.01839,-0.26359 0,0 0.58609,0.4637 0.43169,1.0498 -0.15439,0.58732 -0.78679,1.17343 -0.78679,1.17343"
               style="fill:#000000;fill-opacity:1;fill-rule:nonzero;stroke:#000000;stroke-width:0.3985;stroke-linecap:butt;stroke-linejoin:miter;stroke-miterlimit:10;stroke-dasharray:none;stroke-opacity:1"
               id="path46" /><path
               d="m 68.16435,50.65004 c 0,0 0.55052,-0.33051 0.40372,-1.21231 -0.14691,-0.87972 -1.06482,-2.10924 -3.83525,-3.04634 -2.77164,-0.93572 -8.9742,-0.80802 -11.92896,-0.34831 -2.95404,0.45901 -8.47761,2.55042 -15.08448,3.22863 C 31.11179,49.95132 25.07451,49.49232 19.16502,47.67549 13.25555,45.85867 11.43933,45.16267 7.08987,46.28148 2.74042,47.4009 1.0151,47.5293 0.18929,46.06018 -0.6364,44.59235 1.2541,43.23386 5.38304,42.59174 c 4.12886,-0.642 9.08412,-0.9733 15.87482,0.95561 6.78918,1.92543 12.73556,1.77992 18.13075,1.08121 5.39523,-0.69671 8.9005,-1.98142 8.9005,-3.08254 0,-1.10102 -1.19252,-1.65222 -6.03728,-0.80802 -4.84537,0.84423 -9.52473,2.18433 -15.0674,1.32174 C 21.64307,41.19632 17.51352,39.5817 14.92618,39.19719 12.33896,38.81058 8.31929,39.03119 4.85095,39.93001 1.3825,40.83022 0.77669,40.8111 0.18929,39.32489 c -0.58667,-1.48631 0.80729,-2.86324 4.80787,-3.46844 4.00044,-0.60653 10.09363,-0.8073 16.29689,0.58741 6.20249,1.39472 13.26837,1.98152 18.88345,0.9173 5.61588,-1.0634 8.0385,-1.85301 7.9094,-3.26624 -0.12839,-1.41382 -2.31133,-1.12011 -5.43207,-0.05599 -3.11933,1.0642 -8.22081,1.94592 -13.45138,1.15571 C 23.9735,34.40573 16.28409,32.75421 14.06357,32.38809 11.84303,32.02 6.85088,32.57109 4.50195,33.04791 2.15302,33.52603 0.3177,33.26921 0.33618,31.6901 0.3546,30.11159 2.17142,29.02835 7.54889,28.21965 c 5.37677,-0.80672 11.43314,0.73489 16.11321,1.89194 4.67864,1.15571 10.73503,1.24789 14.80927,0.752 4.07486,-0.49521 8.27681,-1.50534 9.28632,-2.73485 1.00952,-1.2294 0.45831,-3.32154 -3.30302,-2.49571 -3.76285,0.82579 -7.87322,2.44181 -12.53417,2.67952 C 27.25813,28.55086 23.18457,27.35834 18.61522,26.44032 14.04576,25.52303 11.54933,25.00801 6.92526,25.77982 2.30052,26.55104 1.4386,26.62273 0.888,25.37622 0.33688,24.1276 0.9789,22.53067 5.76826,21.72266 c 4.79065,-0.8066 12.77315,0.03759 17.54543,0.97331 4.77095,0.93582 10.18452,1.28343 15.89259,0.3661 5.70668,-0.91659 9.34034,-2.47732 14.27649,-2.78943 4.93698,-0.3121 9.28643,0.75342 12.13056,1.77994 2.84544,1.0287 3.37684,1.23009 4.01956,0.64339 0.642,-0.58739 0.66051,-2.27641 -1.43092,-3.06462 -2.09282,-0.79032 -6.36847,-1.83603 -10.00223,-2.27654 -3.63436,-0.43991 -9.80004,0 -13.8189,1.13789 -4.01953,1.13865 -12.13044,3.19376 -16.1132,2.73545 C 24.2857,20.76926 18.32152,18.74953 15.05457,18.40112 11.78844,18.0514 8.06248,18.14433 4.86934,19.13403 1.6762,20.12645 1.3279,19.64903 0.8505,18.65804 0.37299,17.66692 0.9789,15.9232 5.07086,15.07967 c 4.09264,-0.8443 8.46129,-1.6147 14.48007,-0.27529 6.01877,1.33872 10.97416,1.99922 17.17662,1.211 6.20328,-0.78819 9.32332,-1.54231 13.70899,-2.18361 4.38636,-0.64271 10.16672,-0.64271 14.02107,0.67891 3.85364,1.3203 4.99216,2.25672 5.67117,1.41252 0.67892,-0.84353 0.75262,-2.07304 -2.40432,-3.52374 -3.15755,-1.44872 -8.4421,-1.96306 -13.10308,-2.03674 -4.66165,-0.0745 -7.57949,1.17471 -12.33267,2.05581 -4.75314,0.88042 -11.43303,2.05454 -16.36999,0.93582 -4.93686,-1.12022 -13.13927,-2.62493 -17.39724,-2.09283 -4.25724,0.53282 -5.45047,1.65154 -6.84528,1.01093 0,0 -0.8073,-0.49732 -0.6242,-1.67142 C 1.2357,9.42691 2.86954,8.3075 6.50247,7.66408 10.13612,7.02197 14.22816,6.65457 21.71616,8.0138 29.20345,9.3709 32.48871,10.03142 37.79237,9.39 43.09605,8.74728 47.3172,7.7925 51.90506,6.96667 56.49292,6.14098 59.70445,6.39778 63.5765,7.49878 67.44925,8.6005 69.30296,9.77531 70.1472,8.71109 70.9907,7.64699 69.98189,6.39906 66.84346,5.27896 63.70561,4.16014 55.814,3.27834 51.02394,3.88284 46.23457,4.48935 39.16939,6.32468 36.32466,6.78226 33.47981,7.24197 29.13107,7.31639 25.2951,6.45306 21.45996,5.58975 16.1748,4.74554 12.76033,4.43405 9.3473,4.12193 5.53056,4.87395 3.75063,5.22226 1.97061,5.57196 1.4748,4.96614 1.4563,4.02974 1.4379,3.09393 2.72191,1.5155 7.07208,0.8366 c 4.34954,-0.67892 8.18471,-0.62362 13.63516,0.4958 5.45058,1.12022 11.35935,1.68783 16.80993,0.6612 5.45047,-1.0273 13.74578,-2.11118 18.81115,-1.98351 5.06456,0.1291 8.4599,0.77181 12.66185,2.99304 l -0.293,0.2384 c 0,0 -2.64264,-1.63382 -6.6985,-2.38653 C 57.94293,0.10298 50.96925,0.7819 46.32538,1.57152 41.68292,2.36041 37.20508,3.38834 32.1035,3.40683 27.00134,3.42453 23.01929,2.47032 18.96423,1.60771 14.90709,0.7464 11.05412,0.26689 6.92458,1.0948 2.79573,1.9205 1.3825,3.44302 1.71312,4.28725 c 0.32989,0.8442 0.95349,0.9364 2.88103,0.5867 1.92682,-0.3477 3.85356,-1.17353 10.90105,-0.60451 7.04667,0.56831 11.85514,2.23894 17.2319,1.88992 5.37747,-0.3477 8.84582,-1.101 13.58058,-1.98143 4.73468,-0.8804 8.79111,-1.1933 14.31479,-0.6421 5.52357,0.54991 8.4046,2.21983 9.65242,3.23002 C 71.52281,7.7761 70.6239,9.77531 68.77087,9.3347 66.91716,8.8935 65.85233,8.45428 63.15509,7.81227 60.45717,7.16957 55.3372,6.69276 50.19812,7.6108 45.05977,8.52809 38.23299,9.94061 34.72772,10.34422 31.2231,10.74863 26.61613,10.01501 21.49615,8.83951 16.3763,7.66478 10.30142,6.96808 5.91576,8.06837 1.5294,9.17079 1.1264,10.32582 1.401,11.29912 c 0.2752,0.97333 1.26561,1.02792 2.62485,0.66041 1.35782,-0.36741 4.49563,-1.65081 11.02872,-0.9719 6.53379,0.6789 12.36956,1.68772 16.71833,1.85372 4.34955,0.1653 8.0932,-0.25611 14.33329,-1.67062 6.23936,-1.41323 9.13879,-1.63243 14.66307,-1.0088 5.52368,0.62289 8.88203,2.62342 9.72693,3.81804 0.84292,1.19252 0.12771,3.10093 -1.92742,2.42132 C 66.51355,15.72238 63.65031,14.43687 58.03444,13.96085 52.41867,13.48405 46.8035,14.67667 43.16985,15.37468 39.53621,16.0707 33.66353,17.24551 29.88297,17.1546 26.10252,17.06311 23.73509,16.5857 18.33994,15.41089 12.94405,14.23607 8.2824,14.76819 5.10776,15.39178 1.93312,16.0161 0.81358,17.50302 1.1073,18.2734 c 0.29301,0.77113 0.642,1.43095 2.49573,0.95563 1.85301,-0.4781 4.45945,-1.45141 9.13882,-1.37771 4.68016,0.0731 9.43323,1.61673 15.1406,2.20273 5.70736,0.5874 8.93731,-0.32921 13.59896,-1.26422 4.66097,-0.93851 9.46943,-2.26013 15.5067,-1.81963 6.03859,0.4406 11.19477,1.92754 12.79157,3.21295 1.59694,1.2841 0.51372,3.92746 -2.05522,3.00943 -2.56943,-0.91731 -6.31308,-2.20273 -10.68105,-2.44043 0,0 -5.44986,-0.31151 -11.10322,1.11881 C 40.28821,23.30318 35.20512,24.2567 30.81949,24.5511 26.43242,24.8462 20.81654,23.15637 17.49501,22.55118 14.17346,21.94537 7.78728,21.24736 4.35574,22.27527 0.92358,23.30318 0.8689,24.3674 1.0704,25.0101 c 0.2015,0.64201 0.55051,1.24722 2.67952,1.04572 2.12894,-0.20151 5.15678,-1.24792 10.24054,-0.99111 5.08307,0.25821 11.68996,2.22122 16.07633,2.23894 4.38563,0.01918 7.22976,-0.29301 11.35933,-1.22803 4.12954,-0.93712 5.78038,-1.35922 6.71679,-0.22131 0.93641,1.13792 0.34909,2.69723 -1.68843,3.39595 -2.03672,0.69601 -6.8999,2.21982 -12.47877,2.62354 C 28.39674,32.2775 24.5063,31.2509 20.00995,30.09387 15.51358,28.93816 8.79741,28.03865 5.58516,28.84596 c -3.21155,0.8087 -5.32207,1.77993 -4.91847,3.08384 0.40371,1.30181 2.27585,1.19192 4.09276,0.7882 1.81683,-0.403 5.98187,-1.21031 11.94674,-0.38449 5.96478,0.8257 13.63577,2.60701 17.54404,2.66103 3.90965,0.05528 7.67169,-1.08261 10.01993,-1.76152 2.34964,-0.67891 3.63444,-0.569 4.12954,0.32921 0.49591,0.90159 -0.073,2.23962 -2.91784,2.95542 -2.84473,0.71582 -8.8089,2.11124 -13.52516,2.14814 C 27.23973,38.70268 21.07407,37.30727 17.0736,36.37086 13.07245,35.43575 8.53989,35.50954 4.68564,36.24304 0.832,36.97665 0.3177,38.04077 0.4653,39.01407 c 0.1468,0.97264 0.9534,1.45013 2.75252,0.99113 1.79843,-0.45901 5.24837,-1.35792 9.59784,-1.30252 4.34946,0.0546 10.99255,1.96434 14.92,2.45883 3.92734,0.49721 9.26719,0.12841 12.86534,-0.40301 3.59614,-0.5327 6.0188,-1.06479 7.13762,-0.5512 1.11941,0.515 1.7075,2.16663 -1.24724,3.13993 -2.95473,0.97053 -7.67099,1.92544 -12.18645,2.58725 -4.51416,0.6598 -10.86413,-0.4781 -14.68091,-1.63382 -3.81744,-1.15631 -9.0473,-2.05522 -13.08535,-1.50462 -4.03736,0.55119 -6.09258,1.54153 -6.00037,2.53334 0.09158,0.9896 0.86201,1.74301 3.28473,1.3018 2.42264,-0.4399 5.13838,-1.46712 8.4237,-1.19189 3.28466,0.27459 8.95504,2.89942 15.81882,3.43221 6.86369,0.53133 16.11312,-1.61671 20.04056,-2.55252 3.92665,-0.93569 9.39563,-1.70613 13.89197,-0.87969 4.49626,0.82508 5.98257,2.2745 6.5515,3.21091 0.56901,0.93572 0.31219,1.74235 -0.20151,2.14744 z"
               style="fill:#000000;fill-opacity:1;fill-rule:nonzero;stroke:#000000;stroke-width:0.3985;stroke-linecap:butt;stroke-linejoin:miter;stroke-miterlimit:10;stroke-dasharray:none;stroke-opacity:1"
               id="path48" /></g></g></g></g></g></svg>
