<?xml version="1.0" encoding="UTF-8" standalone="no"?>
<svg
   xmlns:dc="http://purl.org/dc/elements/1.1/"
   xmlns:cc="http://creativecommons.org/ns#"
   xmlns:rdf="http://www.w3.org/1999/02/22-rdf-syntax-ns#"
   xmlns:svg="http://www.w3.org/2000/svg"
   xmlns="http://www.w3.org/2000/svg"
   xmlns:sodipodi="http://sodipodi.sourceforge.net/DTD/sodipodi-0.dtd"
   xmlns:inkscape="http://www.inkscape.org/namespaces/inkscape"
   version="1.1"
   id="svg2"
   xml:space="preserve"
   width="58.397976"
   height="38.700279"
   viewBox="0 0 58.397976 38.700279"
   sodipodi:docname="vectorian095.pdf"><metadata
     id="metadata8"><rdf:RDF><cc:Work
         rdf:about=""><dc:format>image/svg+xml</dc:format><dc:type
           rdf:resource="http://purl.org/dc/dcmitype/StillImage" /></cc:Work></rdf:RDF></metadata><defs
     id="defs6" /><sodipodi:namedview
     pagecolor="#ffffff"
     bordercolor="#666666"
     borderopacity="1"
     objecttolerance="10"
     gridtolerance="10"
     guidetolerance="10"
     inkscape:pageopacity="0"
     inkscape:pageshadow="2"
     inkscape:window-width="640"
     inkscape:window-height="480"
     id="namedview4" /><g
     id="g10"
     inkscape:groupmode="layer"
     inkscape:label="vectorian095"
     transform="matrix(1.3333333,0,0,-1.3333333,0.05982808,40.8687)"><g
       id="g12"
       transform="translate(72,-41.124)"><g
         id="g14"
         transform="translate(-72,42.948)"><g
           id="g16"><g
             id="g18"><path
               d="m 2.04561,23.1995 c 0,0 8.78091,4.79745 19.76805,4.50994 10.98644,-0.28691 20.29468,-4.89384 20.29468,-4.89384 0,0 -7.09999,5.56595 -20.34247,5.80494 0,0 -11.65917,0.43171 -19.72026,-5.42104"
               style="fill:#000000;fill-opacity:1;fill-rule:nonzero;stroke:#000000;stroke-width:0.3985;stroke-linecap:butt;stroke-linejoin:miter;stroke-miterlimit:10;stroke-dasharray:none;stroke-opacity:1"
               id="path20" /><path
               d="m 0.17488,11.20552 c 0,0 2.83043,1.29503 8.05962,5.03737 5.23057,3.74225 10.50963,5.42178 16.50519,4.89447 5.99769,-0.52861 11.74325,-3.97314 13.13188,-8.63681 0,0 -0.6762,6.22787 -8.43602,8.7195 C 21.67638,23.71169 15.01968,21.29247 10.92763,18.55153 6.83498,15.80978 3.80234,13.43355 0.17488,11.20552"
               style="fill:#000000;fill-opacity:1;fill-rule:nonzero;stroke:#000000;stroke-width:0.3985;stroke-linecap:butt;stroke-linejoin:miter;stroke-miterlimit:10;stroke-dasharray:none;stroke-opacity:1"
               id="path22" /><path
               d="m 42.24974,11.53893 c -1.52933,0.71302 -4.19997,-0.9249 -4.19997,-0.9249 3.80855,-1.88645 5.72988,0.21381 4.19997,0.9249 M 22.99458,11.25471 c 2.99033,1.20965 1.60103,4.52027 1.60103,4.52027 -2.91923,0.64002 -5.94429,-0.1059 -5.94429,-0.1059 -1.38792,-3.20472 1.35303,-5.62466 4.34326,-4.41437 m 3.98546,-3.09613 c 3.91574,3.30996 2.35033,6.12128 2.35033,6.12128 -1.85172,1.06693 -4.52097,1.45892 -4.52097,1.45892 1.53003,-3.73684 -1.31682,-5.01745 -1.31682,-5.01745 -2.77581,-1.38793 -4.69856,0.53338 -4.69856,0.53338 -1.77862,1.95694 -0.3914,4.37818 -0.3914,4.37818 -2.66924,-0.6768 -4.55637,-1.49512 -4.55637,-1.49512 0.24932,-8.2577 9.21874,-9.28912 13.13379,-5.97919 M 0,8.692 c 0,0 4.76955,1.10242 9.6811,4.37755 4.91238,3.27445 10.71397,5.62398 17.01414,3.52305 6.29946,-2.09963 7.75848,-4.44856 10.96183,-5.87127 0,0 2.63513,1.67271 4.44915,1.20961 1.81483,-0.4624 1.28141,-3.66514 -4.19985,-1.67201 0,0 -0.3921,-4.80507 -10.28633,-7.333 C 17.72511,0.39738 9.11151,5.06175 5.44637,9.22551 c 0,0 5.55236,-5.76479 14.77038,-6.15678 9.2188,-0.39211 16.6582,3.02374 17.47582,7.29599 l -0.31961,0.10661 c 0,0 -5.37546,-5.30226 -12.84906,-6.22919 -7.47359,-0.92412 -14.20208,0.85451 -18.43754,5.80228 0,0 5.41028,-5.62398 13.73908,-5.72988 8.32941,-0.1065 12.77726,2.84754 17.33443,6.29949 0,0 -3.63166,1.92201 -7.50991,3.63034 0,0 1.45833,-4.44995 -3.20334,-7.51061 -4.66296,-3.06053 -12.84967,-0.4268 -12.88526,7.2968 0,0 -2.13512,-0.9972 -5.80086,-2.91855 C 4.09474,9.19 1.3517,8.79791 0,8.692"
               style="fill:#000000;fill-opacity:1;fill-rule:nonzero;stroke:#000000;stroke-width:0.3985;stroke-linecap:butt;stroke-linejoin:miter;stroke-miterlimit:10;stroke-dasharray:none;stroke-opacity:1"
               id="path24" /><path
               d="m 4.20395,8.80879 c 0,0 6.35217,-8.71391 18.85625,-8.0733 0,0 11.86544,-0.24649 17.72583,8.31991 0,0 -3.20206,-7.8281 -16.10023,-8.91201 0,0 -12.75207,-1.96711 -20.48185,8.6654"
               style="fill:#000000;fill-opacity:1;fill-rule:nonzero;stroke:#000000;stroke-width:0.3985;stroke-linecap:butt;stroke-linejoin:miter;stroke-miterlimit:10;stroke-dasharray:none;stroke-opacity:1"
               id="path26" /></g></g></g></g></g></svg>
