<?xml version="1.0" encoding="UTF-8" standalone="no"?>
<svg
   xmlns:dc="http://purl.org/dc/elements/1.1/"
   xmlns:cc="http://creativecommons.org/ns#"
   xmlns:rdf="http://www.w3.org/1999/02/22-rdf-syntax-ns#"
   xmlns:svg="http://www.w3.org/2000/svg"
   xmlns="http://www.w3.org/2000/svg"
   xmlns:sodipodi="http://sodipodi.sourceforge.net/DTD/sodipodi-0.dtd"
   xmlns:inkscape="http://www.inkscape.org/namespaces/inkscape"
   version="1.1"
   id="svg2"
   xml:space="preserve"
   width="272.98041"
   height="136.3324"
   viewBox="0 0 272.98041 136.33239"
   sodipodi:docname="vectorian059.pdf"><metadata
     id="metadata8"><rdf:RDF><cc:Work
         rdf:about=""><dc:format>image/svg+xml</dc:format><dc:type
           rdf:resource="http://purl.org/dc/dcmitype/StillImage" /></cc:Work></rdf:RDF></metadata><defs
     id="defs6" /><sodipodi:namedview
     pagecolor="#ffffff"
     bordercolor="#666666"
     borderopacity="1"
     objecttolerance="10"
     gridtolerance="10"
     guidetolerance="10"
     inkscape:pageopacity="0"
     inkscape:pageshadow="2"
     inkscape:window-width="640"
     inkscape:window-height="480"
     id="namedview4" /><g
     id="g10"
     inkscape:groupmode="layer"
     inkscape:label="vectorian059"
     transform="matrix(1.3333333,0,0,-1.3333333,-2.7495641,135.97052)"><g
       id="g12"
       transform="translate(72,29.72)"><g
         id="g14"
         transform="translate(-69.736,-29.693)"><g
           id="g16"><g
             id="g18"><path
               d="m 197.07942,59.25815 c -4.36964,1.67521 -9.65291,0.74081 -13.79857,-2.44003 -6.7937,-5.21927 -9.33452,-12.96016 -9.92013,-15.1442 -0.56481,0.19362 -1.16161,0.32159 -1.79362,0.32159 -3.07204,0 -5.57287,-2.49922 -5.57287,-5.57286 0,-1.08322 0.3232,-2.08642 0.86241,-2.94244 l -0.4192,-0.76 c -0.89122,0.344 -1.85764,0.54081 -2.87206,0.54081 -4.41764,0 -8.01449,-3.59685 -8.01449,-8.0161 0,-1.38722 0.35519,-2.68965 0.97601,-3.83046 l -0.5456,-0.61279 c -0.73922,0.36158 -1.55521,0.58079 -2.43043,0.58079 -3.07365,0 -5.57287,-2.49924 -5.57287,-5.57127 0,-0.78882 0.168,-1.53443 0.46399,-2.21602 -5.36325,-2.57445 -15.94739,-2.61925 -23.08829,-0.02242 -0.59842,0.23201 -1.17922,0.46881 -1.74404,0.71361 3.73768,0.81122 7.87851,2.90566 7.04171,7.34572 -0.78401,4.16003 -6.35847,4.12804 -6.35847,4.12804 0,0 1.42081,-2.68645 -0.98083,-4.47046 -3.32005,-2.22884 -11.11694,0.54242 -11.17933,0.5488 0,0 0.16479,-0.19039 0.41279,-0.472 -7.71689,7.32649 -8.9169,16.16021 -8.9169,21.73147 -0.08,5.76968 2.56961,12.09456 6.85929,16.32501 3.98565,3.93286 8.64489,6.0577 14.38737,5.89768 0.24641,-0.0064 0.48001,-0.02397 0.72001,-0.04 0.65601,-0.14079 1.33604,-0.22239 2.03841,-0.22239 0.056,0 0.1104,0.0064 0.16483,0.0064 5.98246,-0.8784 9.77293,-3.81924 11.98094,-6.31528 2.19043,-2.47523 3.73605,-5.56646 4.46246,-8.73132 0.002,-0.02559 -0.005,-0.05119 0,-0.07838 0.78882,-3.85286 -0.13919,-7.9697 -2.48483,-11.01296 -2.09923,-2.72163 -5.12807,-4.32805 -8.52971,-4.51526 -2.79524,-0.1568 -4.72966,0.2688 -6.06886,0.8752 2.01601,-0.20958 4.04002,0.51523 5.57926,1.99045 1.6048,1.5376 2.44163,3.67204 2.30244,5.85928 -0.27841,4.29925 -3.93607,9.0065 -9.36014,9.1089 -9.43211,0.45601 -15.15057,-8.34408 -11.61934,-16.4786 2.64803,-6.10889 8.20009,-9.75853 14.92339,-9.44013 9.11692,0.76001 16.03061,8.3777 16.98582,18.41945 0.4912,5.15045 -1.28162,11.22415 -4.93927,15.36177 -1.82721,2.06885 -4.87205,4.51528 -9.17293,5.94089 1.04802,0.52162 1.97605,1.22243 2.71845,2.06564 0.6528,-0.93762 1.93922,-2.27203 4.34247,-3.16165 1.38881,-0.51682 2.50881,-0.64479 3.49603,-0.76001 1.67363,-0.1936 2.78404,-0.32161 4.28645,-2.30243 l 0.99683,-1.31042 c 0.21599,1.51362 0.4832,3.03845 0.47679,4.57286 -0.002,0.3616 -0.336,4.03366 -0.92639,3.91846 2.77443,0.5504 4.22564,1.83682 6.64326,3.50566 1.46242,1.0128 3.12004,2.16002 5.34888,3.39042 l 0.92,0.51039 -0.83681,0.63683 c -6.04327,4.61287 -11.44014,4.86568 -15.00658,4.20964 2.11202,2.23683 2.44002,5.00968 2.72803,7.49771 0.24159,2.07202 0.44479,3.85924 1.62723,4.93607 l 1.41121,1.28802 -1.90883,-0.09602 c -5.14887,-0.26239 -9.0529,-1.95682 -11.60655,-5.03845 -3.04484,-3.67206 -3.32004,-8.27211 -3.25444,-10.43055 -1.54242,1.17122 -3.52164,1.87684 -5.68009,1.87684 -3.24803,0 -6.08485,-1.60163 -7.64169,-3.98725 -0.48639,2.48482 -1.6192,4.76325 -3.24002,6.70407 1.58081,-0.09759 6.43367,-0.1568 9.4609,2.50564 3.18564,2.80323 5.11208,2.88163 5.13128,2.88163 l 1.28001,0.03041 -0.89921,0.90721 c -0.16159,0.16159 -4.48327,3.90245 -11.17614,1.62403 -0.16162,-0.03041 1.73601,7.13289 -4.21927,9.46731 l -0.46879,0.20319 -0.23522,-0.45758 c -0.46719,-0.89922 -1.0336,-1.68004 -1.6336,-2.50244 -1.06722,-1.47202 -2.15524,-2.97763 -2.68645,-5.19687 -1.03681,3.12805 -3.56644,7.49609 -9.61451,7.31209 l -1.16161,-0.0368 0.76959,-0.87841 c 0.0112,-0.0128 1.12162,-1.30243 1.37122,-4.07206 0.20642,-2.26242 0.94243,-4.10566 2.21124,-5.57767 -0.72641,0.08319 -1.46244,0.13921 -2.21283,0.13921 -6.80649,0 -12.71057,-3.48644 -15.64021,-8.56812 -0.9408,1.26561 -2.17122,2.30083 -3.61122,2.97122 0.46879,1.13123 1.13441,3.18245 1.00801,5.4913 -0.1216,2.16002 -0.88323,3.77605 -1.49924,5.07526 -0.3616,0.76321 -0.6736,1.42241 -0.79681,2.04321 l -0.1056,0.52481 -0.528,-0.0928 c -0.92161,-0.16321 -3.46565,-1.4256 -5.02087,-4.12164 -0.41119,-0.71361 -0.8,-1.61603 -1.0368,-2.71524 -1.32962,2.16803 -4.68969,6.20167 -11.54417,6.75207 l -0.8928,0.07202 0.3424,-0.82722 c 0.4464,-1.08481 0.6384,-2.28162 0.8416,-3.54404 0.3584,-2.23202 0.76642,-4.76326 2.70084,-7.3665 1.57762,-2.12482 3.65924,-3.48964 4.98247,-4.21605 -0.44001,-0.5872 -0.81921,-1.21762 -1.11361,-1.89921 -2.15844,1.18719 -7.08169,3.51524 -12.57616,3.51524 -7.2833,0 -14.49619,-4.95367 -15.1778,-8.18413 3.97766,0 7.3521,-2.16641 10.97933,-3.40002 4.54568,-1.54084 7.24649,-0.07201 10.10415,1.488 l 1.56642,0.82723 c 1.93601,0.96962 3.42725,1.43841 4.34244,1.66241 0.15042,-4.28006 3.16004,-7.8401 7.1713,-8.8401 C 70.3162,66.27744 65.73532,62.86139 63.29851,60.10774 59.64087,55.97012 57.87283,49.89642 58.36084,44.74597 c 0.95842,-10.04175 7.8705,-17.65944 16.98743,-18.41945 6.72488,-0.3184 12.27534,3.33124 14.92337,9.44013 3.52964,8.13452 -2.18721,16.93461 -11.61776,16.4786 -5.42727,-0.1024 -9.0849,-4.80965 -9.36331,-9.1089 -0.13919,-2.18724 0.70081,-4.32168 2.30403,-5.85928 1.54084,-1.47522 3.56167,-2.20003 5.58088,-1.99045 -1.34241,-0.6064 -3.27845,-1.032 -6.07208,-0.8752 -3.40005,0.18721 -6.43049,1.79363 -8.52811,4.51526 -2.34563,3.04326 -3.27524,7.1601 -2.48804,11.01296 0.0064,0.02719 0,0.05279 0,0.07838 0.73122,3.16486 2.27524,6.25609 4.46407,8.73132 2.54722,2.88164 7.20168,6.35848 14.90418,6.57128 5.74248,0.16002 10.40174,-1.96482 14.389,-5.89768 4.28966,-4.23045 6.94089,-10.55533 6.85768,-16.32501 0,-5.57126 -1.20001,-14.40498 -8.9153,-21.73147 0.24638,0.28161 0.41119,0.472 0.41119,0.472 -0.0608,-0.0064 -7.85929,-2.77764 -11.17935,-0.5488 -2.40001,1.78401 -0.98082,4.47046 -0.98082,4.47046 0,0 -5.57446,0.03199 -6.35846,-4.12804 -0.83682,-4.44006 3.30726,-6.5345 7.04329,-7.34572 -0.56642,-0.2448 -1.14721,-0.4816 -1.74402,-0.71361 -7.1425,-2.59683 -17.72345,-2.55203 -23.08831,0.02242 0.2944,0.68159 0.46402,1.4272 0.46402,2.21602 0,3.07203 -2.50084,5.57127 -5.5729,5.57127 -0.87359,0 -1.69281,-0.21921 -2.42882,-0.58079 l -0.54879,0.61279 c 0.62241,1.14081 0.97601,2.44324 0.97601,3.83046 0,4.41925 -3.59526,8.0161 -8.01611,8.0161 -1.0112,0 -1.97763,-0.19681 -2.87044,-0.54081 l -0.39999,0.76959 c 0.52,0.84643 0.8432,1.84963 0.8432,2.93285 0,3.07364 -2.49922,5.57286 -5.57288,5.57286 -0.6288,0 -1.2272,-0.12797 -1.7936,-0.32159 -0.58562,2.18404 -3.12485,9.92493 -9.91695,15.1442 -4.14563,3.18084 -9.43213,4.11524 -13.79857,2.44003 C 0.01929,56.0869 -2.26392,46.8964 2.50412,41.57312 5.05615,38.72668 9.181,37.67067 12.14104,37.88988 c 2.98085,0.2176 5.33767,1.4432 6.63369,3.45283 1.14402,1.77123 1.33762,3.94086 0.544,6.10889 -1.15841,3.15364 -4.21764,4.21605 -6.74088,3.86565 -2.39203,-0.33121 -4.91208,-2.04964 -5.15047,-5.14727 -0.00801,-0.1152 -0.0112,-0.23042 -0.0112,-0.3392 0,-0.27362 0.0768,-0.50722 0.12801,-0.75682 -1.21762,1.23363 -1.92003,2.97764 -1.92003,4.97127 0,0.18559 0.00481,0.3696 0.01759,0.55679 0.37441,6.09608 7.54731,7.49612 7.85291,7.55371 2.41604,-0.2784 4.84486,-1.22241 6.95529,-2.84483 7.21768,-5.53768 8.71852,-14.18418 8.78731,-14.60979 -1.2368,-1.02083 -2.04642,-2.54883 -2.04642,-4.27846 0,-3.07043 2.50243,-5.57127 5.57286,-5.57127 0.78243,0 1.52323,0.1664 2.19844,0.45602 l 0.18558,-0.35202 c -1.47681,-1.45761 -2.39682,-3.47525 -2.39682,-5.71046 0,-4.41766 3.59526,-8.01451 8.01291,-8.01451 1.85123,0 3.55044,0.6336 4.90726,1.68962 l 0.30401,-0.34082 c -0.4736,-0.8176 -0.76481,-1.75681 -0.76481,-2.76802 0,-3.07204 2.49922,-5.57286 5.57125,-5.57286 1.72803,0 3.25606,0.80641 4.28168,2.048 5.63208,-2.80963 16.53302,-2.89763 24.1203,-0.14079 13.40337,5.17767 19.24025,13.68016 21.63548,21.16188 0.0704,-3.23366 0.0608,-7.5905 -0.33761,-10.79054 -0.67839,-5.41928 -3.07044,-6.0129 -6.91368,-6.53768 -3.21762,-0.44002 -4.46245,-2.40323 -5.89928,-4.67846 L 85.80759,8.59189 C 84.76758,7.27667 83.90356,6.59828 83.16595,6.52626 82.29395,6.43828 81.35153,7.17268 80.20432,8.14229 L 78.5547,9.5359 79.0971,7.44467 C 80.74193,1.1006 85.62839,0.62218 87.654,0.7134 c 4.30566,0.1904 7.91372,2.53443 11.04336,6.88809 0.3952,-4.92168 3.33445,-7.50571 3.46724,-7.62888 0.1344,0.12317 3.07524,2.7072 3.47044,7.62888 3.12805,-4.35366 6.73608,-6.69769 11.04175,-6.88809 2.02562,-0.09122 6.91528,0.3872 8.55851,6.73127 l 0.5392,2.09123 -1.64804,-1.39361 c -1.14399,-0.96961 -2.08961,-1.70401 -2.96002,-1.61603 -0.73921,0.07202 -1.60321,0.75041 -2.64163,2.06563 l -1.86082,2.70885 c -1.43683,2.27523 -2.68164,4.23844 -5.90089,4.67846 -3.84164,0.52478 -6.23367,1.1184 -6.91207,6.53768 -0.40001,3.20004 -0.40963,7.55688 -0.3376,10.79054 2.39363,-7.48172 8.2321,-15.98421 21.63707,-21.16188 7.5873,-2.75684 18.48663,-2.66884 24.12031,0.14079 1.02082,-1.24159 2.55045,-2.048 4.28006,-2.048 3.07204,0 5.57286,2.50082 5.57286,5.57286 0,1.01121 -0.2944,1.95042 -0.768,2.76802 l 0.304,0.34082 c 1.36001,-1.05602 3.05925,-1.68962 4.90565,-1.68962 4.42087,0 8.01612,3.59685 8.01612,8.01451 0,2.23521 -0.91841,4.25285 -2.39844,5.71046 l 0.18721,0.35202 c 0.6752,-0.28962 1.41602,-0.45602 2.19683,-0.45602 3.07365,0 5.57287,2.50084 5.57287,5.57127 0,1.72963 -0.80641,3.25763 -2.04483,4.27846 0.0672,0.42561 1.57121,9.07211 8.7857,14.60979 2.11205,1.62242 4.53926,2.56643 6.9553,2.84483 0.30561,-0.05759 7.4817,-1.45763 7.8529,-7.55371 0.0112,-0.18719 0.0176,-0.3712 0.0176,-0.55679 0,-1.99363 -0.69922,-3.73764 -1.91684,-4.97127 0.0512,0.2496 0.1264,0.4832 0.1264,0.75682 0,0.10878 -0.005,0.224 -0.0144,0.3392 -0.2368,3.09763 -2.75683,4.81606 -5.14886,5.14727 -2.52164,0.3504 -5.58406,-0.71201 -6.7377,-3.86565 -0.7952,-2.16803 -0.6032,-4.33766 0.54242,-6.10889 1.29442,-2.00963 3.65285,-3.23523 6.6337,-3.45283 2.95842,-0.21921 7.08487,0.8368 9.63531,3.68324 4.76967,5.32328 2.48482,14.51378 -4.74727,17.68503 z M 129.09775,27.73294 c -3.97605,-0.18721 -7.6817,1.08801 -10.41452,3.59364 -4.68807,4.29605 -5.66408,13.74738 0.26399,17.54422 5.65767,3.62246 14.2226,1.55524 14.72178,-6.18086 0.22881,-3.54084 -2.74882,-6.7041 -6.38569,-6.31689 -1.79041,0.1936 -2.93123,1.25923 -3.52162,2.64964 -0.28322,0.92961 -0.50882,2.24161 0.0784,3.25442 1.00482,1.73765 0,2.83365 -1.00803,2.74405 -1.18721,-0.18559 -1.56802,-1.16961 -1.64641,-2.92962 -0.088,-1.98404 1.02562,-4.74887 3.93445,-7.22092 -0.006,0.01923 -0.0176,0.04001 -0.0256,0.05922 0.96643,-0.90883 2.12004,-1.58724 3.40966,-1.89124 5.63047,-1.3184 10.63693,0.69123 14.12338,5.21929 0.39201,0.50881 0.73282,1.05279 1.05281,1.61281 -1.87522,-5.8657 -6.38568,-11.45294 -14.58258,-12.13776 z M 65.15932,75.23114 63.5577,74.38315 c -2.75362,-1.49924 -5.13285,-2.80004 -9.22251,-1.40964 -1.01762,0.34403 -1.89601,0.80002 -2.91045,1.32483 -1.57281,0.81282 -3.38083,1.72003 -6.16168,2.49124 1.47844,1.72803 6.64009,5.63205 12.91538,5.63205 3.25924,0 6.36326,-0.89439 8.7361,-1.84161 C 62.52888,81.20244 58.47285,79.65521 55.62,77.668 c 3.56645,1.18721 10.15054,2.56003 12.43698,0.82239 -3.65768,-0.09119 -7.40651,-1.46242 -8.87053,-3.01923 4.07685,1.61922 8.5569,1.67844 10.83374,1.57442 -0.95682,-0.2128 -2.62883,-0.69922 -4.86087,-1.81444 z M 61.70488,38.25789 c 3.48485,-4.52806 8.49132,-6.53769 14.12338,-5.21929 1.28801,0.304 2.44483,0.98241 3.40645,1.89124 -0.0064,-0.01921 -0.01441,-0.03999 -0.0208,-0.05922 2.90885,2.47205 4.01764,5.23688 3.93125,7.22092 -0.0784,1.76001 -0.45601,2.74403 -1.64803,2.92962 -1.0032,0.0896 -2.00963,-1.0064 -1.0032,-2.74405 0.5856,-1.01281 0.3616,-2.32481 0.07361,-3.25121 -0.58724,-1.39362 -1.72803,-2.45925 -3.51687,-2.65285 -3.63684,-0.38721 -6.61608,2.77605 -6.38887,6.31689 0.4976,7.7361 9.06412,9.80332 14.72338,6.18086 5.92808,-3.79684 4.95047,-13.24817 0.2624,-17.54422 -2.73283,-2.50563 -6.43848,-3.78085 -10.41292,-3.59364 -8.2001,0.68482 -12.70578,6.27206 -14.58259,12.13776 0.3168,-0.56002 0.66081,-1.104 1.05281,-1.61281 z M 4.27374,50.68684 c -0.01442,-0.216 -0.0208,-0.43202 -0.0208,-0.64161 0,-2.62244 1.00162,-4.94406 2.80164,-6.43688 0.6208,-0.51841 1.29761,-0.8912 1.99522,-1.13122 0.3152,-0.16321 0.75521,-0.28479 1.37763,-0.36321 1.1248,-0.1376 2.36482,-0.03039 2.96484,0.232 0.84639,0.37123 1.2352,0.88963 0.63358,1.37443 -0.51998,0.4224 -1.17601,0.01599 -2.07201,-0.072 -1.25761,0 -2.19043,0.28801 -2.69124,0.83201 -0.3168,0.34081 -0.47522,0.79041 -0.47522,1.34722 0,0.0736 0.00161,0.15519 0.00802,0.2368 0.192,2.49603 2.25923,3.65925 3.97125,3.89285 1.97761,0.27519 4.37125,-0.53922 5.26408,-2.98085 0.6432,-1.75041 0.49761,-3.48645 -0.40962,-4.88965 C 16.5651,40.4483 14.58267,39.44191 12.04024,39.25789 9.4994,39.0707 5.75536,40.0051 3.52814,42.48993 2.23212,43.93315 1.5825,45.71718 1.5825,47.818 c 0,0.6832 0.0688,1.40322 0.20801,2.15203 0.65923,3.56644 2.91524,6.33129 6.19048,7.59049 0.34241,0.13121 0.70559,0.19682 1.06082,0.29441 C 6.81618,56.56052 4.49774,54.35568 4.27374,50.68684 Z M 32.7637,32.2226 c -2.31523,0 -4.20164,1.88482 -4.20164,4.20005 0,2.31684 1.88641,4.20006 4.20164,4.20006 2.31842,0 4.20008,-1.88322 4.20008,-4.20006 0,-2.31523 -1.88166,-4.20005 -4.20008,-4.20005 z m 8.00011,-13.62098 c -3.66245,0 -6.64168,2.98085 -6.64168,6.6433 0,3.66244 2.97923,6.64488 6.64168,6.64488 3.66563,0 6.64649,-2.98244 6.64649,-6.64488 0,-3.66245 -2.98086,-6.6433 -6.64649,-6.6433 z m 10.01771,-6.99049 c -2.31521,0 -4.20004,1.88483 -4.20004,4.20006 0,2.31523 1.88483,4.20006 4.20004,4.20006 2.31524,0 4.20166,-1.88483 4.20166,-4.20006 0,-2.31523 -1.88642,-4.20006 -4.20166,-4.20006 z m 32.29644,3.77446 c -3.55366,-0.04321 -9.40493,1.62881 -8.2193,6.43207 0.3296,1.33922 1.84001,2.95845 4.00964,2.92805 -0.0016,-0.0352 -0.78241,-2.18403 1.22241,-4.27206 1.86084,-1.93762 5.36487,-2.13125 8.32332,-1.89124 C 86.8396,17.4512 85.06839,16.3792 83.07796,15.38559 Z m 19.72825,47.4662 c 0,0 3.10723,-0.91521 6.76488,0.36643 -1.46081,0.36478 -1.64482,0.91518 -1.64482,0.91518 0,0 2.80644,-0.2496 5.85928,1.36802 -2.73443,-2.83362 -6.69928,-4.63365 -11.11694,-4.63365 -0.25279,0 -0.49761,0.02559 -0.74881,0.0336 -0.88322,0.39522 -1.67842,0.85602 -2.22403,1.40001 3.47683,-1.096 4.39046,-0.7312 4.39046,-0.7312 z m 14.38898,2.90404 c 0.97761,1.27681 1.75363,2.68645 2.28163,4.19685 0.53601,-1.12161 1.34242,-2.11363 2.34244,-2.90403 -1.60162,-0.2336 -3.14565,-0.68162 -4.62407,-1.29282 z m 29.48839,-1.84161 c 0,0 -1.26242,2.50402 -6.3841,4.24163 1.34884,-1.432 2.07044,-1.48161 2.46405,-2.62242 -0.0656,0.0064 -0.1296,0.01601 -0.19361,0.02239 -0.952,0.11203 -1.94082,0.22401 -3.17603,0.68322 -2.54883,0.94402 -3.58566,2.40003 -3.94565,3.06244 0.5712,0.95681 0.93601,2.02564 1.04961,3.16324 1.40961,0.0032 5.84326,-0.216 8.36651,-2.94403 1.22402,-1.32803 1.84482,-3.08964 1.84482,-5.25928 0,-0.10881 -0.0224,-0.23361 -0.0256,-0.34719 z m 10.93616,12.67855 c -1.77764,-1.03682 -3.25608,-2.01922 -4.50887,-2.88804 -2.54405,-1.75522 -4.29286,-2.94405 -7.14889,-3.36484 -0.032,0.03679 -0.0608,0.08159 -0.0944,0.11839 -0.84001,0.90564 -1.84323,1.56802 -2.87843,2.05603 1.6,0.4032 3.61283,1.32163 4.53443,2.77605 -1.72161,-1.17921 -5.41445,-2.17284 -7.79528,-1.74722 -0.0176,0.0032 -0.0352,0.0064 -0.0528,0.0096 3.83363,0.55199 7.48488,2.56161 8.03211,4.29602 -3.89286,-2.06239 -9.55854,-2.90881 -11.32814,-3.13443 -0.14083,0.68802 -0.37761,1.34084 -0.69283,1.95364 1.08322,0.2752 2.86884,0.84639 4.91207,1.97442 0.3392,0.15681 7.56489,4.56005 17.02104,-2.04963 z m -19.98748,12.45296 c 2.03682,2.45125 5.12645,3.86887 9.09131,4.34087 -0.65761,-1.26883 -0.85441,-2.80004 -1.04001,-4.40647 -0.3184,-2.74723 -0.64642,-5.58726 -3.36802,-7.60969 -2.20165,-1.63044 -4.31687,-2.53124 -5.8129,-3.02404 2.02403,1.44321 5.25926,4.74726 5.90088,8.19051 -1.82882,-2.56004 -5.30567,-5.21289 -5.30567,-5.21289 0.27521,1.64644 2.28803,5.30408 4.93767,8.04652 -3.95207,-1.77122 -6.33128,-5.98089 -7.28329,-8.0081 0.17439,2.18402 0.8192,5.20166 2.88003,7.68329 z m -9.99855,-9.03693 c 4.16646,0 7.55532,-3.05122 7.55532,-6.80008 0,-3.12484 -2.35683,-5.75686 -5.55207,-6.55049 -0.63841,-0.15998 -1.30882,-0.24958 -2.00325,-0.24958 -1.30719,0 -2.53923,0.29919 -3.61284,0.83041 -2.16801,1.06561 -3.68963,3.06244 -3.91044,5.38725 -0.016,0.192 -0.0304,0.38562 -0.0304,0.58241 0,0.51523 0.0704,1.01441 0.19042,1.49602 0.75839,3.03205 3.76803,5.30406 7.36326,5.30406 z m -6.34086,10.97455 c 4.45767,1.51363 7.4017,0.17761 8.76332,-0.7088 -1.01122,-0.34401 -2.56485,-1.10722 -4.56807,-2.86883 -0.9472,-0.832 -2.13123,-1.36002 -3.33124,-1.70084 -1.36002,-0.1584 -3.47043,-0.3056 -4.81126,0.10082 2.92804,1.55201 4.75528,2.46884 6.7681,2.74403 -1.37124,0.64 -3.56486,0.91521 -6.5841,-1.46242 -0.1504,0.55841 -0.0608,1.11842 0.1904,1.65282 0.93921,1.04641 2.13283,1.96164 3.57285,2.24322 z m -6.41289,7.1041 c 0.48321,0.66882 0.95521,1.39361 1.39682,2.14882 2.75365,-1.4048 3.44644,-3.88324 3.44644,-5.87847 0,-1.56802 -0.38719,-2.81443 -0.4288,-2.93924 0,0 -1.94562,-0.03518 -4.50725,-3.60003 -0.0928,3.74563 0.54559,5.11845 2.10243,7.31527 -2.28644,-1.09759 -3.01765,-2.56323 -3.47365,-5.67207 -0.81282,0.54401 -1.17442,1.68804 -1.15841,3.24645 0.4256,2.32803 1.49762,3.83206 2.62242,5.37927 z m -11.11693,-2.12963 c -0.15842,1.74721 -0.61443,2.93285 -1.00961,3.69767 4.46725,-0.33443 6.50569,-3.61927 7.42248,-6.19049 0.0912,-0.86562 0.24321,-2.70404 0.0384,-3.72806 -1.55682,-0.328 -3.69605,0.16479 -5.17767,2.17442 -0.70401,1.12802 -1.12801,2.46245 -1.27361,4.04646 z m -2.82563,-7.4801 c 3.32163,-0.84161 7.8849,-3.26884 8.31529,-10.26252 1.84643,2.95524 0.92001,7.4561 -2.96485,9.93453 1.37923,-0.32162 2.67685,-0.81282 3.87366,-1.46241 2.14084,-1.79045 3.01765,-4.90088 1.42242,-10.94095 2.09282,1.5408 2.68004,5.28647 2.54883,7.84328 0.30242,-0.33759 0.58722,-0.68799 0.85602,-1.04961 0.6416,-4.00004 -1.69922,-9.57291 -6.83207,-11.31853 3.66882,-0.24801 7.33447,2.68003 8.66889,7.88649 0.2464,-0.68641 0.43201,-1.3968 0.56,-2.12802 -0.62559,-4.57126 -4.10564,-8.50252 -10.46413,-8.50252 2.74085,-1.31363 7.44971,-0.7568 9.89612,1.84004 -0.17758,-0.48481 -0.3824,-0.95362 -0.6112,-1.41284 -2.51523,-2.93123 -7.23049,-4.41446 -12.71537,-3.44644 1.51042,-1.78401 3.97927,-1.78401 3.97927,-1.78401 0,0 -3.56806,-0.6848 -6.99689,0.824 0.41279,-1.92161 1.50881,-2.05923 1.50881,-2.05923 0,0 -3.56484,0.55043 -5.35049,2.46884 0.21762,-1.7344 1.73764,-3.03683 3.64487,-3.84645 -6.21128,0.9344 -11.15375,5.42247 -12.29455,11.13774 -0.16161,0.8192 -0.24802,1.66242 -0.24802,2.52484 0,1.50243 0.27521,2.94405 0.75362,4.29926 1.78401,5.04486 6.60007,8.82251 12.44977,9.45451 z m -23.5107,4.72167 c 1.18239,2.04963 2.90562,3.07843 3.81122,3.42402 0.18241,-0.55519 0.41922,-1.1152 0.69602,-1.70241 0.60482,-1.27519 1.28641,-2.71842 1.39521,-4.66566 0.0096,-0.168 0.01442,-0.34079 0.01442,-0.5056 0,-0.10081 -0.01122,-0.1936 -0.01442,-0.2944 -0.2352,-1.64643 -1.00319,-3.44324 -2.56324,-3.74086 -1.36961,2.19365 -0.36318,7.0417 -0.36318,7.0417 0,0 -1.92003,-1.73763 -2.01283,-6.8593 -1.07522,0.14882 -1.68005,0.93122 -2.02563,1.80484 -0.04161,0.392 -0.07042,0.77281 -0.07042,1.1472 0,1.59044 0.37763,3.04326 1.13285,4.35047 z m -6.1329,-9.14092 c -1.51841,0.7152 -2.54082,1.38403 -3.52805,2.71203 -1.77443,2.39205 -2.14403,4.67526 -2.49602,6.8849 -0.16321,1.0064 -0.3584,1.9632 -0.64,2.89442 7.9633,-1.04161 10.40172,-7.01608 10.50253,-7.28168 0,0 0.1008,-0.56321 0.11199,-0.87521 l -0.6944,-2.13123 c 0,0 -3.01765,1.28162 -6.12648,6.76969 0.0896,-4.30086 5.66728,-9.23532 5.67047,-9.23853 -0.16159,-0.1344 -1.46562,-0.36641 -2.80004,0.26561 z m 0.51041,-7.80971 c 0,4.21285 3.42724,7.63851 7.63689,7.63851 2.86723,0 5.36649,-1.59041 6.67209,-3.93126 0.61122,-1.1008 0.96643,-2.36324 0.96643,-3.70725 0,-1.79042 -0.62562,-3.43365 -1.66243,-4.74086 -1.39842,-1.75842 -3.55365,-2.89604 -5.97609,-2.89604 -4.20965,0 -7.63689,3.42725 -7.63689,7.6369 z m 10.12012,-9.12172 c 1.57764,0.42881 2.99204,1.24962 4.12967,2.36324 0.6368,-1.64162 1.56322,-3.16003 2.72963,-4.50406 -2.13923,1.10562 -4.44005,1.86241 -6.8593,2.14082 z m 28.65318,-52.50625 c 2.58884,-0.35362 3.51844,-1.82564 4.92646,-4.05448 L 117.448,7.74228 c 1.31521,-1.66882 2.42082,-2.46564 3.58084,-2.58083 0.72162,-0.072 1.38402,0.13599 2.04643,0.50881 -1.68323,-3.20325 -4.57446,-3.66245 -6.33767,-3.58405 -7.3473,0.0432 -12.10257,8.73451 -12.10257,8.73451 0.40002,-4.32806 -1.40641,-7.48809 -2.47043,-8.93772 -1.064,1.44963 -2.86724,4.60966 -2.46883,8.93772 0,0 -4.75366,-8.69131 -12.10095,-8.73451 -1.76482,-0.0784 -4.65607,0.3808 -6.33928,3.58405 0.6624,-0.37282 1.32481,-0.58081 2.04643,-0.50881 1.16159,0.11519 2.26401,0.91201 3.58243,2.58083 l 1.94243,2.82403 c 1.40802,2.22884 2.33763,3.70086 4.92647,4.05448 4.24325,0.57759 7.30568,1.472 8.0881,7.72809 0.168,1.34721 0.2672,2.88162 0.3232,4.44006 0.0576,-1.55844 0.1584,-3.09285 0.32481,-4.44006 0.78401,-6.25609 3.84645,-7.1505 8.0881,-7.72809 z m -8.66571,23.20506 c 0.1088,0.64162 0.1904,1.26404 0.2528,1.86565 0.064,-0.60161 0.14882,-1.22403 0.256,-1.86565 l -0.1168,0.0096 c -0.01,-0.14241 -0.0816,-1.47202 -0.1392,-3.37766 -0.056,1.90564 -0.1296,3.23525 -0.1376,3.37766 z m 0.2528,8.24494 c -0.6736,5.22566 -3.24004,10.48973 -7.0689,14.26577 -0.06079,0.05921 -0.1216,0.112 -0.1824,0.17121 2.34566,-1.03682 4.97128,-1.63362 7.75531,-1.63362 2.16641,0 4.23206,0.36799 6.15209,1.0128 -3.59366,-3.74083 -6.00329,-8.78891 -6.6561,-13.81616 z m 13.75378,-27.48838 c 2.95844,-0.24001 6.4641,-0.04638 8.3201,1.89124 2.00644,2.08803 1.22562,4.23686 1.22562,4.27206 2.16644,0.0304 3.67845,-1.58883 4.01124,-2.92805 1.18244,-4.80326 -4.66884,-6.47528 -8.2225,-6.43207 -1.98884,0.99361 -3.76324,2.06561 -5.33446,3.19682 z m 37.63249,-6.97128 c -2.31843,0 -4.20006,1.88483 -4.20006,4.20006 0,2.31523 1.88163,4.20006 4.20006,4.20006 2.31362,0 4.20165,-1.88483 4.20165,-4.20006 0,-2.31523 -1.88803,-4.20006 -4.20165,-4.20006 z m 16.65941,13.63379 c 0,-3.66245 -2.98245,-6.6433 -6.6449,-6.6433 -3.66244,0 -6.64328,2.98085 -6.64328,6.6433 0,3.66244 2.98084,6.64488 6.64328,6.64488 3.66245,0 6.6449,-2.98244 6.6449,-6.64488 z m 5.55686,11.17773 c 0,-2.31523 -1.88321,-4.20005 -4.20004,-4.20005 -2.31684,0 -4.20165,1.88482 -4.20165,4.20005 0,2.31684 1.88481,4.20006 4.20165,4.20006 2.31683,0 4.20004,-1.88322 4.20004,-4.20006 z M 202.74829,47.818 c 0,-2.10082 -0.6512,-3.88485 -1.94401,-5.32807 -2.22724,-2.48483 -5.97449,-3.41923 -8.5121,-3.23204 -2.54244,0.18402 -4.52648,1.19041 -5.58248,2.82884 -0.90402,1.4032 -1.05122,3.13924 -0.40802,4.88965 0.89441,2.44163 3.28804,3.25604 5.26407,2.98085 1.71202,-0.2336 3.77925,-1.39682 3.96967,-3.89285 0.006,-0.08161 0.0112,-0.1632 0.0112,-0.2368 0,-0.55681 -0.16159,-1.00641 -0.4752,-1.34722 -0.50562,-0.544 -1.43522,-0.83201 -2.69283,-0.83201 -0.89761,0.08799 -1.55363,0.4944 -2.07523,0.072 -0.60002,-0.4848 -0.21279,-1.0032 0.6352,-1.37443 0.6,-0.26239 1.83844,-0.3696 2.96484,-0.232 0.62401,0.07842 1.06081,0.2 1.37762,0.36321 0.69762,0.24002 1.37601,0.61281 1.99683,1.13122 1.79842,1.49282 2.80164,3.81444 2.80164,6.43688 0,0.20959 -0.006,0.42561 -0.0192,0.64161 -0.22559,3.66884 -2.54404,5.87368 -4.76806,7.16809 0.352,-0.09759 0.71682,-0.1632 1.06081,-0.29441 3.27526,-1.2592 5.52968,-4.02405 6.18891,-7.59049 0.13757,-0.74881 0.20637,-1.46883 0.20637,-2.15203 z"
               style="fill:#000000;fill-opacity:1;fill-rule:nonzero;stroke:#000000;stroke-width:0.3985;stroke-linecap:butt;stroke-linejoin:miter;stroke-miterlimit:10;stroke-dasharray:none;stroke-opacity:1"
               id="path20" /></g></g></g></g></g></svg>
