<?xml version="1.0" encoding="UTF-8" standalone="no"?>
<svg
   xmlns:dc="http://purl.org/dc/elements/1.1/"
   xmlns:cc="http://creativecommons.org/ns#"
   xmlns:rdf="http://www.w3.org/1999/02/22-rdf-syntax-ns#"
   xmlns:svg="http://www.w3.org/2000/svg"
   xmlns="http://www.w3.org/2000/svg"
   xmlns:sodipodi="http://sodipodi.sourceforge.net/DTD/sodipodi-0.dtd"
   xmlns:inkscape="http://www.inkscape.org/namespaces/inkscape"
   version="1.1"
   id="svg2"
   xml:space="preserve"
   width="20.489344"
   height="20.612366"
   viewBox="0 0 20.489344 20.612365"
   sodipodi:docname="vectorian145.pdf"><metadata
     id="metadata8"><rdf:RDF><cc:Work
         rdf:about=""><dc:format>image/svg+xml</dc:format><dc:type
           rdf:resource="http://purl.org/dc/dcmitype/StillImage" /></cc:Work></rdf:RDF></metadata><defs
     id="defs6" /><sodipodi:namedview
     pagecolor="#ffffff"
     bordercolor="#666666"
     borderopacity="1"
     objecttolerance="10"
     gridtolerance="10"
     guidetolerance="10"
     inkscape:pageopacity="0"
     inkscape:pageshadow="2"
     inkscape:window-width="640"
     inkscape:window-height="480"
     id="namedview4" /><g
     id="g10"
     inkscape:groupmode="layer"
     inkscape:label="vectorian145"
     transform="matrix(1.3333333,0,0,-1.3333333,-1.2422584,21.822995)"><g
       id="g12"
       transform="translate(72,-55.58)"><g
         id="g14"
         transform="translate(-70.869,56.69)"><g
           id="g16"><g
             id="g18"><path
               d="m 7.38159,0.19478 c 0,0 -0.39752,0.69672 -0.84491,0.59421 C 6.08865,0.6934 6.03946,0.54309 5.69116,0.34508 5.34416,0.14699 4.54845,-0.15349 3.85173,0.64558 3.15573,1.4379 3.35722,2.21652 3.90234,2.83122 4.31213,3.28893 5.38446,3.07713 4.99515,2.23021 4.69734,1.58821 4.05122,1.192 4.05122,1.192 c 0,0 0.96923,0.94261 0.82033,1.42752 -0.14891,0.4849 -1.00682,0 -1.11882,-1.01091 -0.112,-1.00403 0.67072,-1.11332 1.26772,-0.96303 0.7902,0.19122 2.07562,0.81963 2.36114,-0.4508"
               style="fill:#000000;fill-opacity:1;fill-rule:nonzero;stroke:#000000;stroke-width:0.3985;stroke-linecap:butt;stroke-linejoin:miter;stroke-miterlimit:10;stroke-dasharray:none;stroke-opacity:1"
               id="path20" /><path
               d="m 1.36761,3.21371 c 0,0 -1.34283,0.30062 -1.04432,1.56414 C 0.6634,6.22588 1.7398,6.83377 2.29921,7.01817 2.85861,7.20259 3.38043,6.90886 2.70972,6.30788 2.0376,5.71365 0.9571,5.89806 0.9571,5.89806 1.96391,5.33795 3.23093,6.23267 3.23093,6.68347 c 0,0.444 -0.62911,0.75142 -1.49113,0.36891 C 1.0684,6.75867 0.8082,6.38297 0.8082,6.38297 c 0,0 -0.63451,0.25961 -0.41051,1.34552 0.22339,1.07921 1.11881,1.1134 1.11881,1.1134 1.71443,0.56001 2.57153,1.16113 3.05725,1.60502 0.48422,0.45083 1.08122,0.78553 1.86393,2.42475 0.7827,1.63933 1.04369,1.93982 1.56549,2.01492 0.52253,0.07518 0.85783,-0.2595 0.85783,-0.2595 l 0.11211,0.14338 c -0.14892,0.26642 -1.00613,0.48502 -1.78953,0 C 6.40077,14.28557 6.28876,13.65717 5.84135,12.57115 5.39404,11.49203 5.09557,11.04803 4.34962,10.48792 3.60454,9.9279 2.74663,9.7776 1.7398,9.4429 0.7331,9.1082 0.9571,8.84189 0.65858,8.6233 0.36018,8.39789 0.2488,8.17249 0.2488,8.17249 L 0.06238,8.54819 C -0.08649,8.06319 0.21129,7.68759 0.21129,7.68759 -0.12479,6.75867 0.65858,6.27367 0.65858,6.27367 -1.1309,3.54843 1.2925,3.06352 1.2925,3.06352 0.9571,0.3792 3.38043,0.93929 3.38043,0.93929 c 0,0 -0.96982,-0.03419 -1.41652,0.37571 -0.44741,0.4098 -0.70901,1.63922 0.37221,2.79354 1.08121,1.15432 1.71571,0.78541 1.45412,0 C 3.52933,3.32983 2.29921,2.92001 1.8512,2.92001 c 0,0 0.41052,-0.19119 1.19394,0.18441 0.7834,0.36891 1.4165,1.41392 0.7451,1.97404 -0.6714,0.56 -2.08792,-0.63522 -2.42263,-1.86475"
               style="fill:#000000;fill-opacity:1;fill-rule:nonzero;stroke:#000000;stroke-width:0.3985;stroke-linecap:butt;stroke-linejoin:miter;stroke-miterlimit:10;stroke-dasharray:none;stroke-opacity:1"
               id="path22" /><path
               d="m 3.82784,9.32681 c 0,0 -0.07511,-0.18441 -0.29911,-0.77862 C 3.30533,7.9471 1.92632,6.68347 1.106,7.9881 c 0,0 0.82032,-0.37572 1.34212,-0.0751 0.59489,0.34149 0.85721,0.55999 1.04372,0.96981 0.1864,0.40979 0.336,0.444 0.336,0.444"
               style="fill:#000000;fill-opacity:1;fill-rule:nonzero;stroke:#000000;stroke-width:0.3985;stroke-linecap:butt;stroke-linejoin:miter;stroke-miterlimit:10;stroke-dasharray:none;stroke-opacity:1"
               id="path24" /><path
               d="m 1.5534,10.11232 c 0,0 1.26763,0.74442 1.75263,1.56412 0.48421,0.81959 1.60301,2.95064 3.16925,2.68423 0,0 -1.19331,-0.0751 -1.64064,-1.07921 C 4.38725,12.27745 3.79024,10.29672 1.5534,10.11232"
               style="fill:#000000;fill-opacity:1;fill-rule:nonzero;stroke:#000000;stroke-width:0.3985;stroke-linecap:butt;stroke-linejoin:miter;stroke-miterlimit:10;stroke-dasharray:none;stroke-opacity:1"
               id="path26" /><path
               d="m 5.50534,11.11632 c 0,0 1.30524,0.19121 1.97603,1.16113 0.67142,0.96989 -0.2616,1.86462 -0.2616,1.86462 0,0 1.00742,-0.40982 0.67201,-1.75532 -0.3251,-1.29771 -2.38644,-1.27043 -2.38644,-1.27043"
               style="fill:#000000;fill-opacity:1;fill-rule:nonzero;stroke:#000000;stroke-width:0.3985;stroke-linecap:butt;stroke-linejoin:miter;stroke-miterlimit:10;stroke-dasharray:none;stroke-opacity:1"
               id="path28" /><path
               d="m 11.95584,13.99187 c 0,0 -0.78282,1.04501 -2.08801,0.51912 -1.30464,-0.51912 -1.45413,-2.30866 -0.89472,-2.42475 0.5593,-0.1093 1.0443,1.12012 0.448,1.98073 L 9.57,14.21727 c 0,0 0.59632,-0.67622 0.1489,-1.75543 -0.44809,-1.0791 -1.6399,-0.56 -1.52861,0.48501 0.0909,0.85372 0.67071,1.71433 1.75192,1.97391 1.08193,0.26642 1.90163,-0.485 2.01363,-0.92889"
               style="fill:#000000;fill-opacity:1;fill-rule:nonzero;stroke:#000000;stroke-width:0.3985;stroke-linecap:butt;stroke-linejoin:miter;stroke-miterlimit:10;stroke-dasharray:none;stroke-opacity:1"
               id="path30" /><path
               d="m 14.64006,7.57828 c -1.37901,1.30453 0,2.23342 -0.14889,2.86863 -0.2629,1.12023 -1.37972,0.86062 -1.86461,0.63521 -0.52523,-0.24579 -0.85723,-1.0791 -0.18581,-1.1201 0.6707,-0.03412 1.34212,1.04501 1.34212,1.04501 -0.2609,-0.66931 -0.67142,-1.04501 -1.08121,-1.15433 -0.40982,-0.1161 -1.19322,0.15032 -0.70833,1.04504 0.48432,0.8948 1.78954,0.6694 1.78954,0.6694 0.2978,0.7854 0.11198,1.63922 -1.15631,1.78952 -1.26772,0.15021 -2.12494,-0.92891 -2.31134,-1.48903 -0.1865,-0.5601 0.2985,-1.08601 1.04362,-0.48489 0.7459,0.5942 0.7459,1.78952 0.7459,1.78952 h 0.14889 c 0,0 -0.03689,-0.89481 -0.40979,-1.49582 -0.373,-0.59432 -1.11882,-1.03821 -1.64062,-0.51912 -0.52249,0.51912 0.03748,1.75534 1.04432,2.27443 1.00609,0.51912 2.1248,0.22542 2.53533,-0.40979 0.4105,-0.63521 0.14888,-1.52993 0.14888,-1.52993 0,0 1.04373,-0.444 0.74594,-1.63933 -0.20632,-0.8264 -0.37363,-1.045 -0.29782,-1.52992 0.0744,-0.48498 0.26019,-0.7445 0.26019,-0.7445"
               style="fill:#000000;fill-opacity:1;fill-rule:nonzero;stroke:#000000;stroke-width:0.3985;stroke-linecap:butt;stroke-linejoin:miter;stroke-miterlimit:10;stroke-dasharray:none;stroke-opacity:1"
               id="path32" /><path
               d="m 0.07469,8.74619 c 0,0 -0.19948,2.58183 1.64061,4.57627 1.83933,1.98763 4.47377,1.78951 5.11986,1.58463 0,0 -5.61716,0.30049 -6.76047,-6.1609"
               style="fill:#000000;fill-opacity:1;fill-rule:nonzero;stroke:#000000;stroke-width:0.3985;stroke-linecap:butt;stroke-linejoin:miter;stroke-miterlimit:10;stroke-dasharray:none;stroke-opacity:1"
               id="path34" /><path
               d="m 7.96628,6.49907 c 0,0 -2.76013,-0.2254 -2.72183,-2.87553 L 5.05797,3.81483 c 0,0 -0.48493,2.04903 1.82638,2.75254 0,0 0.74584,0.04101 1.08193,-0.0683"
               style="fill:#000000;fill-opacity:1;fill-rule:nonzero;stroke:#000000;stroke-width:0.3985;stroke-linecap:butt;stroke-linejoin:miter;stroke-miterlimit:10;stroke-dasharray:none;stroke-opacity:1"
               id="path36" /><path
               d="m 9.0851,6.71767 c 0,0 -0.709,1.37971 -0.485,2.05593 0.22409,0.6693 1.37971,1.56412 2.49782,1.22942 0,0 -0.7827,-0.19132 -1.41719,-0.67621 C 9.0475,8.84189 8.89859,8.17249 8.9362,7.65338 8.97241,7.12747 9.0851,6.71767 9.0851,6.71767"
               style="fill:#000000;fill-opacity:1;fill-rule:nonzero;stroke:#000000;stroke-width:0.3985;stroke-linecap:butt;stroke-linejoin:miter;stroke-miterlimit:10;stroke-dasharray:none;stroke-opacity:1"
               id="path38" /><path
               d="m 7.68008,5.39256 c 0,0 -1.2424,-0.49861 -1.46641,-1.78953 0,0 -0.22411,0.34842 0.14889,1.01771 0.37291,0.66942 1.16791,1.01772 1.34214,0.91532 z M 7.40688,4.22464 C 7.08377,3.89673 6.83447,4.24515 6.83447,4.24515 l 0.125,0.07509 c 0,0 0.1243,-0.1503 0.32311,0.02731 0.1981,0.17079 0.04919,0.3484 0.04919,0.3484 l 0.07511,0.0956 c 0,0 0.3231,-0.24591 0,-0.56691 M 7.85359,5.56335 C 7.7047,6.04826 6.62416,5.48825 6.21367,4.59344 5.80316,3.69873 6.10165,3.21371 6.10165,3.21371 c 0.26091,0.22542 0.74581,0.40983 0.74581,0.40983 0,0 -0.06618,0.23909 -0.2233,0.1161 -0.237,-0.19121 -0.2616,-0.0751 -0.2616,-0.0751 0.07512,0.3347 0.29851,0.444 0.29851,0.444 0,0 0.4787,-0.3006 0.81961,0 0.3237,0.2868 0.14951,0.4508 0.14951,0.71031 0,0.25961 0.33609,0.3688 0.33609,0.3688 0.14891,0 0.03689,-0.2185 0.03689,-0.2185 C 7.89178,4.77785 8.0783,4.74374 8.0783,4.74374 8.18959,4.81885 8.22719,5.11935 8.22719,5.11935 8.33849,5.41306 8.413,5.45406 8.413,5.45406 8.30159,5.71365 7.85359,5.56335 7.85359,5.56335"
               style="fill:#000000;fill-opacity:1;fill-rule:nonzero;stroke:#000000;stroke-width:0.3985;stroke-linecap:butt;stroke-linejoin:miter;stroke-miterlimit:10;stroke-dasharray:none;stroke-opacity:1"
               id="path40" /><path
               d="m 9.6936,7.57828 c 0,0 -0.1236,0.34831 0.32381,0.79231 0.44742,0.45081 1.21783,0.45081 1.21783,0.45081 0,0 -0.82032,-0.123 -1.54164,-1.24312 m 1.16872,0.02731 c -0.17349,-0.27321 -0.52249,-0.403 -0.67081,-0.1503 l 0.12441,0.12299 c 0,0 0.1987,-0.07511 0.34761,0.0751 0.14889,0.1503 0,0.30049 0,0.30049 l 0.17349,0.14351 c 0,0 0.19882,-0.2186 0.0253,-0.49179 M 10.2906,7.05238 9.84392,6.98407 c 0,0 -0.02532,0.1434 0.12359,0.27321 0,0 0.224,-0.05469 0.34841,-0.05469 z M 11.55833,8.917 c 0,0.10241 -0.07449,0.19811 -0.07449,0.19811 C 10.06721,8.794 9.6936,8.3501 9.52011,7.70117 9.34671,7.05238 9.7189,6.56058 9.7189,6.56058 l 0.12502,0.09558 c 0.2725,0.19812 0.59561,0.27321 0.59561,0.27321 v 0.27322 c 0.82031,0.07518 0.59631,1.0177 0.59631,1.0177 0.1502,0.2527 0.37358,0.28012 0.37358,0.28012 -0.07518,-0.25282 -0.07518,-0.62163 -0.07518,-0.62163 0.1742,0.04781 0.22409,0.2186 0.22409,0.2186 0,0.32781 0.14891,0.96992 0.14891,0.96992 C 11.63274,8.917 11.55833,8.917 11.55833,8.917"
               style="fill:#000000;fill-opacity:1;fill-rule:nonzero;stroke:#000000;stroke-width:0.3985;stroke-linecap:butt;stroke-linejoin:miter;stroke-miterlimit:10;stroke-dasharray:none;stroke-opacity:1"
               id="path42" /><path
               d="m 8.9362,6.04826 c 0,0 0.33461,-0.5942 0.7083,-0.92891 0,0 -0.1496,-0.0751 -0.41049,0.18441 -0.2609,0.25959 -0.55942,0.7445 -0.29781,0.7445"
               style="fill:#000000;fill-opacity:1;fill-rule:nonzero;stroke:#000000;stroke-width:0.3985;stroke-linecap:butt;stroke-linejoin:miter;stroke-miterlimit:10;stroke-dasharray:none;stroke-opacity:1"
               id="path44" /><path
               d="m 10.41422,5.51556 c 0,0 -0.2855,0.4576 -0.4726,0.5327 -0.18581,0.0752 -0.29779,0.30062 -0.29779,0.30062 0,0 0.15637,0.11609 0.26089,-0.041 0.18639,-0.2732 0.65839,-0.42353 0.5095,-0.79232"
               style="fill:#000000;fill-opacity:1;fill-rule:nonzero;stroke:#000000;stroke-width:0.3985;stroke-linecap:butt;stroke-linejoin:miter;stroke-miterlimit:10;stroke-dasharray:none;stroke-opacity:1"
               id="path46" /><path
               d="m 10.76253,5.71365 c 0,0 -0.02521,0.1707 0.14889,0.1707 0.1742,0 0.2739,-0.12291 0.39821,-0.1434 0.1243,-0.0273 0.22341,-0.07519 0.14891,-0.34839 -0.07442,-0.27321 -0.1741,-0.52591 -0.1741,-0.72401 0,-0.198 -0.07452,-0.39612 -0.42212,-0.51901 C 10.51392,4.01973 10.58842,3.87633 10.36443,3.77383 10.14102,3.67133 9.5939,3.80115 9.4949,4.14954 c -0.09909,0.34831 0.1243,0.3961 0.1243,0.3961 0,0 0.14891,-0.321 0.32242,-0.321 0.1748,0 0.10038,0.19809 0,0.2186 -0.0984,0.02731 -0.34772,0.25271 -0.34772,0.40291 0,0 0.0751,0.14349 0.17421,0.14349 0,0 0.29849,-0.29369 0.59632,-0.34839 0.2984,-0.04781 0.4234,0.1503 0.52249,0.3279 0.099,0.17071 0.14892,0.3961 0.2738,0.54641 0.12372,0.1502 -0.2984,0.22539 -0.39819,0.19809"
               style="fill:#000000;fill-opacity:1;fill-rule:nonzero;stroke:#000000;stroke-width:0.3985;stroke-linecap:butt;stroke-linejoin:miter;stroke-miterlimit:10;stroke-dasharray:none;stroke-opacity:1"
               id="path48" /><path
               d="m 11.63274,3.99924 c -0.125,0 -0.0997,0.24591 0.02458,0.24591 0.12431,0 0.14892,-0.09561 0.14892,-0.09561 0,0 -0.04921,-0.1503 -0.1735,-0.1503 m 1.44123,0.7445 c -0.42282,0 -0.74523,0.27321 -0.74523,0.27321 -0.1243,-0.09561 -0.0745,-0.3005 -0.0745,-0.3005 0.14832,0.02729 0.29849,0 0.29849,0 -0.15017,0 -0.5471,-0.2186 -0.5471,-0.2186 -0.04979,-0.17761 -0.17409,-0.12981 -0.29839,-0.12981 -0.1244,0 -0.3737,-0.2664 -0.3737,-0.2664 0.1496,0 0.1496,-0.15019 0.1496,-0.15019 0,0 -0.198,-0.17762 -0.27391,-0.25272 -0.0744,-0.07519 -0.1489,0.0273 -0.1489,0.0273 0,0 -0.12431,0.02051 -0.17411,-0.123 -0.04989,-0.15019 -0.12299,-0.30049 -0.12299,-0.30049 -0.0997,-0.24591 0.0246,-0.37561 0.0246,-0.37561 0,0 -0.0997,0.07508 -0.24861,0.07508 -0.1496,0 -0.224,0.07512 -0.224,0.07512 -0.0997,-0.21852 0.0498,-0.47131 0.1741,-0.51912 0.1244,-0.0478 0.19881,-0.47121 0.19881,-0.47121 0.0751,0.34832 0.3968,0.84013 0.4467,0.96983 0.04979,0.123 0.37291,0.3211 0.6222,0.444 0.2486,0.12291 0.17421,0.4235 0.17421,0.4235 0.2985,0 0.3476,0.17751 0.44741,0.24581 0.09831,0.07521 0.2725,0.32791 0.2725,0.32791 0.448,-0.05461 0.42282,0.24589 0.42282,0.24589"
               style="fill:#000000;fill-opacity:1;fill-rule:nonzero;stroke:#000000;stroke-width:0.3985;stroke-linecap:butt;stroke-linejoin:miter;stroke-miterlimit:10;stroke-dasharray:none;stroke-opacity:1"
               id="path50" /><path
               d="m 12.42845,3.97194 0.14888,0.07509 c 0,0 0.37232,-0.39611 -0.24859,-0.94261 -0.6215,-0.54641 -0.71991,-0.77181 -1.24312,-0.64881 0,0 -0.02458,0.19812 0.0751,0.17761 0.09982,-0.0274 0.27321,0.0478 0.42212,0.1707 0.1496,0.12301 0.59702,0.45079 0.7459,0.66941 0.14891,0.2254 0.09971,0.49861 0.09971,0.49861"
               style="fill:#000000;fill-opacity:1;fill-rule:nonzero;stroke:#000000;stroke-width:0.3985;stroke-linecap:butt;stroke-linejoin:miter;stroke-miterlimit:10;stroke-dasharray:none;stroke-opacity:1"
               id="path52" /><path
               d="M 12.62656,3.10442 12.21674,2.69463 c 0,0 -0.01299,0.28689 0.40982,0.40979"
               style="fill:#000000;fill-opacity:1;fill-rule:nonzero;stroke:#000000;stroke-width:0.3985;stroke-linecap:butt;stroke-linejoin:miter;stroke-miterlimit:10;stroke-dasharray:none;stroke-opacity:1"
               id="path54" /><path
               d="m 12.70166,2.57852 c 0,0 -0.44803,-0.44391 -0.47263,-0.56691 -0.02528,-0.12289 -0.09907,-0.30051 0.34761,-0.62151 0,0 -0.12359,-0.0273 -0.2978,0.09562 -0.1741,0.12289 -0.2984,0.47128 -0.12428,0.67619 0.17347,0.19811 0.42208,0.51911 0.42208,0.51911 z"
               style="fill:#000000;fill-opacity:1;fill-rule:nonzero;stroke:#000000;stroke-width:0.3985;stroke-linecap:butt;stroke-linejoin:miter;stroke-miterlimit:10;stroke-dasharray:none;stroke-opacity:1"
               id="path56" /><path
               d="m 12.70166,9.8527 0.33539,-0.041 c 0,0 0.96922,-1.0381 1.64064,-3.35363 C 15.34837,4.14954 14.76506,2.33951 13.89485,1.315 12.85056,0.0855 9.6062,-1.1097 5.69116,1.834 c 0,0 1.56682,-0.89471 3.46834,-1.18842 1.90154,-0.3005 4.30716,0.06832 5.10767,2.34275 0.74582,2.13102 -0.52181,5.92867 -1.56551,6.86437"
               style="fill:#000000;fill-opacity:1;fill-rule:nonzero;stroke:#000000;stroke-width:0.3985;stroke-linecap:butt;stroke-linejoin:miter;stroke-miterlimit:10;stroke-dasharray:none;stroke-opacity:1"
               id="path58" /></g></g></g></g></g></svg>
