<?xml version="1.0" encoding="UTF-8" standalone="no"?>
<svg
   xmlns:dc="http://purl.org/dc/elements/1.1/"
   xmlns:cc="http://creativecommons.org/ns#"
   xmlns:rdf="http://www.w3.org/1999/02/22-rdf-syntax-ns#"
   xmlns:svg="http://www.w3.org/2000/svg"
   xmlns="http://www.w3.org/2000/svg"
   xmlns:sodipodi="http://sodipodi.sourceforge.net/DTD/sodipodi-0.dtd"
   xmlns:inkscape="http://www.inkscape.org/namespaces/inkscape"
   version="1.1"
   id="svg2"
   xml:space="preserve"
   width="308.13333"
   height="154.46667"
   viewBox="0 0 308.13333 154.46667"
   sodipodi:docname="vectorian058.pdf"><metadata
     id="metadata8"><rdf:RDF><cc:Work
         rdf:about=""><dc:format>image/svg+xml</dc:format><dc:type
           rdf:resource="http://purl.org/dc/dcmitype/StillImage" /></cc:Work></rdf:RDF></metadata><defs
     id="defs6"><clipPath
       clipPathUnits="userSpaceOnUse"
       id="clipPath24"><path
         d="m -0.00108,0 h 227.7814 V 115.85007 H -0.00108 Z"
         id="path22" /></clipPath></defs><sodipodi:namedview
     pagecolor="#ffffff"
     bordercolor="#666666"
     borderopacity="1"
     objecttolerance="10"
     gridtolerance="10"
     guidetolerance="10"
     inkscape:pageopacity="0"
     inkscape:pageshadow="2"
     inkscape:window-width="640"
     inkscape:window-height="480"
     id="namedview4" /><g
     id="g10"
     inkscape:groupmode="layer"
     inkscape:label="vectorian058"
     transform="matrix(1.3333333,0,0,-1.3333333,0,154.46667)"><g
       id="g12"
       transform="translate(72,43.849)"><g
         id="g14"
         transform="translate(-71.999,-43.849)"><g
           id="g16"><g
             id="g18"><g
               id="g20"
               clip-path="url(#clipPath24)"><path
                 d="m 223.43677,61.80667 c -1.00641,1.16002 -2.04643,2.35684 -3.25604,3.36325 -0.99363,0.83042 -2.15523,0.99042 -3.34404,0.90882 1.87521,0.8688 2.85443,3.01925 2.75361,3.04003 -2.84321,0.60961 -5.24646,2.11683 -7.86249,3.28804 -4.79046,2.15044 -9.13131,0.99363 -13.49777,-1.70561 -0.1104,-0.0688 2.39362,1.73761 3.11363,2.78083 2.30886,3.35365 3.65445,6.66567 2.57924,10.79374 0.0352,-0.1024 -0.4144,-0.85602 -2.28644,-1.19041 -1.22239,-0.21921 -2.91362,-0.088 -4.13763,0.05279 -4.06726,0.4688 -6.84489,-0.67199 -9.29292,-3.82245 -0.25442,-0.3264 -0.49921,-0.5712 -0.752,-0.86561 0.7648,0.88801 1.03678,2.92964 0.91839,4.00966 -0.0144,0.12001 -0.63522,2.24162 -0.81761,1.97282 -0.5296,-0.7632 -2.19363,-1.48161 -3.73443,-1.71841 -2.71685,-0.42243 -6.67209,-0.61922 -7.98093,-1.72322 -1.70882,-1.44002 -2.33441,-2.59685 -3.72804,-4.28006 l -3.12483,-3.77605 c -2.67524,-2.96164 -5.77448,-4.39366 -9.19692,-5.16487 0.6992,0.47841 3.84325,2.11203 4.62726,7.8241 0.16319,1.19522 -0.44001,3.92007 -0.44001,3.92007 0,0 -1.22561,-2.36646 -7.26888,-1.22882 -6.0401,1.1376 -8.93132,0.17439 -12.25777,-2.62885 -3.32805,-2.80005 -6.39209,-7.2657 -10.33135,-5.95207 -3.94084,1.31521 -4.02723,5.68967 0,6.30567 4.02727,0.61282 5.16648,0.1744 7.96811,3.50407 2.80166,3.32483 4.81766,3.49924 4.81766,3.49924 0,0 -0.1776,1.5776 -2.88962,3.41603 1.66242,2.97764 3.59045,4.28964 7.26569,3.85284 -1.22562,3.94084 -5.93127,7.53131 -14.87221,6.35687 -10.32651,-1.29119 -14.54738,-9.3345 -14.54738,-9.3345 0,0 -0.088,1.57442 2.01604,4.99046 2.09921,3.41605 5.15045,5.86248 4.82724,9.27211 -0.2336,2.46564 -1.87842,4.34407 -1.23999,8.50252 -3.85127,-0.78721 -6.82892,-4.11525 -6.82892,-4.11525 0,0 0.35044,2.27843 -0.52478,3.94086 -0.87681,1.66243 -4.64007,4.55365 -6.21539,5.95528 -1.58591,-1.40163 -5.35176,-4.29285 -6.22667,-5.95528 -0.87743,-1.66243 -0.52672,-3.94086 -0.52672,-3.94086 0,0 -2.97333,3.32804 -6.82809,4.11525 0.64062,-4.15845 -1.00161,-6.03688 -1.2376,-8.50252 -0.32503,-3.40963 2.72513,-5.85606 4.82826,-9.27211 2.10161,-3.41604 2.01261,-4.99046 2.01261,-4.99046 0,0 -4.22054,8.04331 -14.54718,9.3345 -8.93761,1.17444 -13.64388,-2.41603 -14.8721,-6.35687 3.67814,0.4368 5.60328,-0.8752 7.2689,-3.85284 -2.71574,-1.83843 -2.89074,-3.41603 -2.89074,-3.41603 0,0 2.01573,-0.17441 4.81736,-3.49924 2.80146,-3.32967 3.94066,-2.89125 7.9673,-3.50407 4.02816,-0.616 3.94068,-4.99046 0,-6.30567 -3.94154,-1.31363 -7.00557,3.15202 -10.33152,5.95207 -3.32663,2.80324 -6.21398,3.76645 -12.25936,2.62885 -6.04088,-1.13764 -7.26748,1.22882 -7.26748,1.22882 0,0 -0.60303,-2.72485 -0.44043,-3.92007 0.78273,-5.71207 3.92805,-7.34569 4.62889,-7.8241 -3.42266,0.77121 -6.52111,2.20323 -9.20014,5.16487 l -3.12244,3.77605 c -1.39251,1.68321 -2.02052,2.84004 -3.72695,4.28006 -1.30931,1.104 -5.26717,1.30079 -7.9796,1.72322 -1.54392,0.2368 -3.20954,0.95521 -3.73604,1.71841 -0.1828,0.2688 -0.80632,-1.85281 -0.81881,-1.97282 -0.1187,-1.08002 0.1532,-3.12165 0.9188,-4.00966 -0.2532,0.29441 -0.49539,0.53921 -0.75162,0.86561 -2.44832,3.15046 -5.22805,4.29125 -9.29222,3.82245 -1.22511,-0.14079 -2.91412,-0.272 -4.13762,-0.05279 -1.87494,0.33439 -2.32353,1.08801 -2.28755,1.19041 -1.0733,-4.12807 0.27341,-7.44009 2.58115,-10.79374 0.7189,-1.04322 3.22212,-2.84963 3.11102,-2.78083 -4.36406,2.69924 -8.70781,3.85605 -13.49698,1.70561 C 13.44077,71.2356 11.03134,69.72838 8.1883,69.11877 8.08759,69.09799 9.0687,66.94754 10.94234,66.07874 9.7532,66.16034 8.5939,66.00034 7.59688,65.16992 6.38676,64.16351 5.34995,62.96669 4.34224,61.80667 3.03441,60.29787 1.2373,58.33464 0,57.84183 1.2373,57.34741 3.08273,55.3858 4.38983,53.87538 5.39845,52.71855 6.44066,51.51855 7.65,50.51375 8.64381,49.68173 9.80312,49.52333 10.99393,49.60333 9.118,48.73132 8.1391,46.58568 8.23749,46.5633 c 2.84695,-0.60963 5.25168,-2.11365 7.8627,-3.28805 4.79227,-2.15043 9.13452,-0.99362 13.50018,1.70401 0.1109,0.06881 -2.39383,-1.73443 -3.11235,-2.77925 -2.30951,-3.35202 -3.65654,-6.66566 -2.58151,-10.79692 -0.03761,0.10719 0.4149,0.85921 2.28601,1.19361 1.22331,0.2192 2.91585,0.08801 4.13907,-0.0528 4.06564,-0.472 6.84378,0.67203 9.29391,3.81926 0.2531,0.328 0.4961,0.5744 0.7484,0.86882 -0.7609,-0.89124 -1.03291,-2.92806 -0.91641,-4.00968 0.01321,-0.11839 0.63362,-2.24 0.81791,-1.9744 0.5281,0.7648 2.19373,1.48 3.73444,1.72161 2.71586,0.42079 6.67211,0.6192 7.97902,1.72162 1.7086,1.44003 2.33443,2.59363 3.72734,4.28167 l 3.12665,3.77444 c 2.67503,2.96322 5.77345,4.39366 9.19702,5.16647 -0.70161,-0.47842 -3.84386,-2.11363 -4.62656,-7.82573 -0.16261,-1.19358 0.4397,-3.91524 0.4397,-3.91524 0,0 1.22591,2.36166 7.26899,1.22403 6.04157,-1.14082 8.93122,-0.17442 12.25717,2.62883 3.32823,2.80004 6.39225,7.26569 10.33154,5.95368 3.94203,-1.31682 4.02803,-5.69448 0,-6.3073 -4.02826,-0.61279 -5.16588,-0.17439 -7.96892,-3.49924 -2.80014,-3.32804 -4.81566,-3.50724 -4.81566,-3.50724 0,0 0.17491,-1.57442 2.89044,-3.41283 -1.66243,-2.97765 -3.59054,-4.28966 -7.2673,-3.85284 1.22513,-3.94088 5.93149,-7.53452 14.87219,-6.3553 10.32674,1.28961 14.54859,9.33451 14.54859,9.33451 0,0 0.0867,-1.5792 -2.01563,-4.99046 -2.10161,-3.41603 -5.15166,-5.86406 -4.82817,-9.27371 0.23442,-2.46565 1.87813,-4.34247 1.24062,-8.5025 3.84997,0.7872 6.82829,4.11523 6.82829,4.11523 0,0 -0.3517,-2.27843 0.52332,-3.93924 0.84231,-1.60002 4.50164,-4.33446 6.17047,-5.78885 1.66963,1.45439 5.32887,4.18883 6.17207,5.78885 0.87682,1.66081 0.52483,3.93924 0.52483,3.93924 0,0 2.97442,-3.32803 6.82888,-4.11523 -0.64161,4.16003 1.00321,6.03685 1.23682,8.5025 0.3248,3.40965 -2.72484,5.85768 -4.82885,9.27371 -2.10085,3.41126 -2.01124,4.99046 -2.01124,4.99046 0,0 4.22086,-8.0449 14.5474,-9.33451 8.9393,-1.17922 13.64654,2.41442 14.87057,6.3553 -3.67683,-0.43682 -5.60327,0.87519 -7.2673,3.85284 2.71684,1.83841 2.88965,3.41283 2.88965,3.41283 0,0 -2.01603,0.1792 -4.81606,3.50724 -2.80324,3.32485 -3.94087,2.88645 -7.96809,3.49924 -4.02727,0.61282 -3.93767,4.99048 0,6.3073 3.94404,1.31201 7.00647,-3.15364 10.33131,-5.95368 3.32803,-2.80325 6.21608,-3.76965 12.25936,-2.62883 6.04168,1.13763 7.2689,-1.22403 7.2689,-1.22403 0,0 0.60321,2.72166 0.44,3.91524 -0.78401,5.7121 -3.92804,7.34731 -4.62726,7.82573 3.42084,-0.77281 6.52169,-2.20325 9.19851,-5.16647 l 3.12325,-3.77444 c 1.3936,-1.68804 2.01923,-2.84164 3.72484,-4.28167 1.30883,-1.10242 5.26728,-1.30083 7.98093,-1.72162 1.54401,-0.24161 3.20963,-0.95681 3.73604,-1.72161 0.18401,-0.2656 0.80639,1.85601 0.8192,1.9744 0.1168,1.08162 -0.1552,3.11844 -0.91841,4.00968 0.2528,-0.29442 0.49441,-0.54082 0.75201,-0.86882 2.44643,-3.14723 5.22728,-4.29126 9.29132,-3.81926 1.22722,0.14081 2.91365,0.272 4.13765,0.0528 1.87363,-0.3344 2.32323,-1.08642 2.28963,-1.19361 1.07204,4.13126 -0.27518,7.4449 -2.58563,10.79692 -0.7152,1.04482 -3.21764,2.84806 -3.10883,2.77925 4.36325,-2.69763 8.70731,-3.85444 13.49777,-1.70401 2.61283,1.1744 5.01926,2.67842 7.86249,3.28805 0.0992,0.02238 -0.88162,2.16802 -2.75363,3.04003 1.18882,-0.08 2.34885,0.0784 3.34404,0.91042 1.20964,1.0048 2.24803,2.2048 3.25603,3.36163 1.30723,1.51042 3.15365,3.47203 4.39209,3.96645 -1.23844,0.49281 -3.03206,2.45604 -4.34247,3.96484 z M 219.3791,51.41295 c -1.3984,-1.16483 -3.34564,-0.64641 -5.40165,-0.07842 -3.53285,0.97922 -6.76007,0.09761 -6.76007,0.09761 0,0 1.05757,-0.5872 2.93442,-0.70401 5.09446,-0.31839 7.03529,-2.62403 7.85769,-3.64323 -2.98884,-0.64 -4.48166,-1.98404 -6.81927,-2.78725 -2.30884,-0.7968 -4.63369,-0.95359 -7.03852,-0.48159 -1.89601,0.3744 -3.71844,1.2064 -5.38086,2.17762 -3.56804,2.08803 -7.30569,3.34404 -10.44172,4.10405 -4.17925,1.00962 -8.09612,0.90882 -8.11692,0.59362 -0.003,-0.01601 3.46567,-0.83202 3.73127,-0.90882 4.54884,-1.32323 9.40811,-2.57283 13.20337,-5.55368 2.93922,-2.31044 5.91525,-6.71368 5.67207,-10.57612 -1.11684,0.47038 -3.06886,0.58239 -5.04808,0.3536 -3.65285,-0.42242 -6.07848,0.40639 -8.2737,3.22882 -1.74081,2.23683 -3.81285,4.80967 -7.3553,4.47847 2.92325,-1.71362 5.28167,-4.89766 5.03206,-8.38892 -1.68321,1.36643 -9.1313,1.49125 -10.28973,2.44164 -2.27202,1.86243 -5.22727,6.6753 -8.6849,9.56493 -3.22244,2.80323 -6.5569,3.70083 -10.26734,4.34085 -5.09287,0.87523 -7.7425,0.35362 -7.7425,0.35362 3.59204,-0.82562 7.15529,-1.81604 9.88332,-4.38086 1.03042,-0.96962 1.88801,-2.29445 2.36644,-3.63525 0.71842,-2.01603 0.57919,-3.20004 0.48801,-3.60963 -0.71361,0.52319 -2.23684,1.36959 -4.51526,1.184 -3.24164,-0.26082 -5.34085,-1.22401 -8.3201,-0.6112 -2.97444,0.6112 -4.81449,3.15203 -7.70572,5.77766 -2.88801,2.62883 -5.60326,4.11526 -9.89291,2.01604 -4.29127,-3.06565 -3.41445,-6.3905 -1.48803,-7.70731 1.92483,-1.31201 6.48009,-0.52479 8.58092,-2.62723 2.09923,-2.10083 2.80002,-3.58726 5.07846,-4.11686 -1.83842,-1.31202 -1.3152,-1.57442 -7.96971,-1.13602 1.05122,-2.19042 4.99048,-0.8752 6.21609,-3.50403 1.22881,-2.62563 4.01604,-3.47845 5.80968,-3.62564 -2.34884,-3.28325 -10.01134,-5.65608 -18.68025,-1.01442 -7.96651,4.20645 -8.93132,12.87215 -8.93132,12.87215 0,0 -2.80164,-6.82888 1.31363,-13.13457 4.11683,-6.30407 5.50406,-6.57927 4.23524,-10.06574 -0.93921,-2.58241 -0.992,-5.34405 -0.992,-5.34405 0,0 -2.89284,0.87521 -6.04328,5.95688 -1.22403,-2.97924 0.96322,-4.99207 -1.92643,-7.8817 -2.08802,-2.09123 -3.21924,-3.03205 -3.80725,-3.72484 -0.5844,0.69279 -1.71552,1.63361 -3.80625,3.72484 -2.89174,2.88963 -0.70001,4.90246 -1.92512,7.8817 -3.15314,-5.08167 -6.04218,-5.95688 -6.04218,-5.95688 0,0 -0.0547,2.76164 -0.9938,5.34405 -1.26813,3.48647 0.1172,3.76167 4.23434,10.06574 4.11577,6.30569 1.31412,13.13457 1.31412,13.13457 0,0 -0.96242,-8.6657 -8.93132,-12.87215 -8.66881,-4.64166 -16.33312,-2.26883 -18.67833,1.01442 1.79292,0.14719 4.58125,1.00001 5.80627,3.62564 1.22661,2.62883 5.16568,1.31361 6.21718,3.50403 -6.65478,-0.4384 -6.12968,-0.176 -7.9671,1.13602 2.27412,0.5296 2.97653,2.01603 5.07657,4.11686 2.10301,2.10244 6.65477,1.31522 8.58281,2.62723 1.92511,1.31681 2.80163,4.64166 -1.48902,7.70731 -4.29216,2.09922 -7.0047,0.61279 -9.89384,-2.01604 -2.89082,-2.62563 -4.72986,-5.16646 -7.70801,-5.77766 -2.97502,-0.61281 -5.07815,0.35038 -8.31878,0.6112 -2.27814,0.18559 -3.80005,-0.66081 -4.51577,-1.184 -0.0888,0.40959 -0.23122,1.5936 0.49073,3.60963 0.47648,1.3408 1.3343,2.66563 2.36561,3.63525 2.72984,2.56482 6.29068,3.55524 9.88373,4.38086 0,0 -2.65245,0.52161 -7.74301,-0.35362 -3.71114,-0.64002 -7.04399,-1.53762 -10.26732,-4.34085 -3.46186,-2.88963 -6.4142,-7.7025 -8.68602,-9.56493 -1.15642,-0.95039 -8.6033,-1.07521 -10.29094,-2.44164 -0.2468,3.49126 2.10954,6.6753 5.03436,8.38892 -3.54355,0.3312 -5.61555,-2.24164 -7.35769,-4.47847 -2.19202,-2.82243 -4.61877,-3.65124 -8.27359,-3.22882 -1.97823,0.22879 -3.93135,0.11678 -5.04368,-0.3536 -0.2447,3.86244 2.72964,8.26568 5.67188,10.57612 3.79685,2.98085 8.65001,4.23045 13.20017,5.55368 0.26562,0.0768 3.73744,0.89281 3.73744,0.8672 -0.02487,0.35682 -3.94084,0.45762 -8.12198,-0.552 -3.13585,-0.76001 -6.87349,-2.01602 -10.44226,-4.10405 -1.66092,-0.97122 -3.48673,-1.80322 -5.38275,-2.17762 -2.40354,-0.472 -4.72518,-0.31521 -7.0385,0.48159 -2.33443,0.80321 -3.82895,2.14725 -6.81499,2.78725 0.81781,1.0192 2.76264,3.32484 7.85631,3.64323 1.87682,0.11681 2.93304,0.70401 2.93304,0.70401 0,0 -3.22826,0.88161 -6.76109,-0.09761 -2.05633,-0.56799 -4.00006,-1.08641 -5.40008,0.07842 -1.13741,0.9472 -5.17206,5.25287 -6.63899,6.42888 1.46693,1.17122 5.45307,5.48167 6.58889,6.42727 1.39702,1.16643 3.34535,0.64643 5.40007,0.0784 3.53444,-0.97761 6.75958,-0.09759 6.75958,-0.09759 0,0 -1.0532,0.58882 -2.93123,0.70401 -5.09396,0.31842 -7.03779,2.62243 -7.85881,3.64325 2.98676,0.6416 4.48197,1.98563 6.81789,2.78724 2.31104,0.79841 4.63457,0.9536 7.03931,0.4816 1.8955,-0.3744 3.71873,-1.20641 5.37977,-2.17762 3.56883,-2.08803 7.30628,-3.34404 10.44391,-4.10245 4.17816,-1.01282 8.09691,-0.91042 8.11802,-0.59522 0,0.01601 -3.46805,0.83202 -3.73365,0.91042 -4.54837,1.32161 -9.40622,2.57123 -13.20317,5.55208 -2.94084,2.31041 -5.91417,6.71368 -5.66887,10.57614 1.11411,-0.46883 3.06563,-0.58083 5.04378,-0.35362 3.65312,0.42242 6.07825,-0.40641 8.27489,-3.22724 1.74082,-2.23842 3.81274,-4.80968 7.3558,-4.47847 -2.92274,1.70883 -5.28058,4.89606 -5.03368,8.3873 1.68433,-1.36639 9.13453,-1.49121 10.29244,-2.44162 2.27034,-1.86241 5.22346,-6.67368 8.68271,-9.56491 3.22514,-2.80324 6.5598,-3.70087 10.26893,-4.34087 5.09237,-0.8784 7.7407,-0.3536 7.7455,-0.3536 -3.59533,0.8256 -7.158,1.81283 -9.88693,4.38246 -1.03041,0.96801 -1.88982,2.29283 -2.36633,3.63363 -0.72049,2.01603 -0.57981,3.20006 -0.48769,3.60965 0.71411,-0.52159 2.23763,-1.36801 4.51436,-1.184 3.24052,0.2624 5.34135,1.2256 8.32039,0.61281 2.97655,-0.61281 4.81558,-3.15364 7.70471,-5.77928 2.88904,-2.62723 5.60316,-4.11525 9.89412,-2.01603 4.29205,3.06725 3.41536,6.39209 1.48802,7.70731 -1.92423,1.31201 -6.47899,0.52479 -8.58061,2.62722 -2.10142,2.10084 -2.80153,3.59205 -5.07977,4.11367 1.84062,1.31522 1.31572,1.57761 7.96911,1.14079 -1.05012,2.18726 -4.99076,0.87522 -6.21597,3.49925 -1.22734,2.62883 -4.01416,3.47844 -5.80619,3.62887 2.34684,3.28323 10.00944,5.65286 18.67834,1.01282 7.96492,-4.20007 8.93132,-12.8722 8.93132,-12.8722 0,0 2.80003,6.8305 -1.31392,13.13457 -4.11664,6.30569 -5.50177,6.58091 -4.23285,10.06893 0.9373,2.58085 0.99061,5.34408 0.99061,5.34408 0,0 2.89054,-0.87841 6.04218,-5.95688 1.22642,2.97764 -0.96422,4.99048 1.92653,7.8817 2.34372,2.34404 3.29684,3.24325 3.85634,3.96805 0.5608,-0.7248 1.51602,-1.62401 3.86005,-3.96805 2.88964,-2.89122 0.69762,-4.90406 1.92483,-7.8817 3.15204,5.07847 6.04008,5.95688 6.04008,5.95688 0,0 0.056,-2.76323 0.99521,-5.34408 1.26723,-3.48802 -0.12001,-3.76324 -4.23526,-10.06893 -4.11685,-6.30407 -1.31361,-13.13457 -1.31361,-13.13457 0,0 0.96161,8.67213 8.93132,12.8722 8.66569,4.64004 16.3314,2.27041 18.67863,-1.01282 -1.79521,-0.15043 -4.58085,-1.00004 -5.80647,-3.62887 -1.22562,-2.62403 -5.16647,-1.31199 -6.21768,-3.49925 6.6561,0.43682 6.12968,0.17443 7.96809,-1.14079 -2.27521,-0.52162 -2.97603,-2.01283 -5.08006,-4.11367 -2.09921,-2.10243 -6.65286,-1.31521 -8.5809,-2.62722 -1.92324,-1.31522 -2.80004,-4.64006 1.48962,-7.70731 4.29285,-2.09922 7.00649,-0.6112 9.89291,2.01603 2.89126,2.62564 4.72966,5.16647 7.70891,5.77928 2.97444,0.61279 5.07848,-0.35041 8.31851,-0.61281 2.27681,-0.18401 3.80004,0.66241 4.51687,1.184 0.088,-0.40959 0.23039,-1.59362 -0.48961,-3.60965 -0.47841,-1.3408 -1.33443,-2.66562 -2.36803,-3.63363 -2.73125,-2.56963 -6.28969,-3.55686 -9.88493,-4.38246 0,0 2.65283,-0.5248 7.74411,0.3536 3.71042,0.64 7.04489,1.53763 10.26892,4.34087 3.45924,2.89123 6.41449,7.7025 8.6833,9.56491 1.15844,0.95041 8.60651,1.07523 10.29294,2.44162 0.24802,-3.49124 -2.11201,-6.67847 -5.03847,-8.3873 3.54885,-0.33121 5.62088,2.24005 7.3617,4.47847 2.19363,2.82083 4.61767,3.64966 8.27212,3.22724 1.98079,-0.22721 3.93283,-0.11521 5.04647,0.35362 0.24319,-3.86246 -2.72965,-8.26573 -5.67209,-10.57614 -3.79685,-2.98085 -8.64973,-4.23047 -13.20179,-5.55208 -0.26397,-0.0784 -3.73604,-0.89441 -3.73604,-0.86882 0.0256,-0.3568 3.94086,-0.4592 8.12171,0.55362 3.13445,0.75841 6.87369,2.01442 10.44014,4.10245 1.66402,0.97121 3.48804,1.80322 5.38248,2.17762 2.40641,0.472 4.72805,0.31681 7.04008,-0.4816 2.33283,-0.80161 3.83043,-2.14564 6.8145,-2.78724 -0.81923,-1.02082 -2.76164,-3.32483 -7.85452,-3.64325 -1.87842,-0.11519 -2.93444,-0.70401 -2.93444,-0.70401 0,0 3.22725,-0.88002 6.76009,0.09759 2.05762,0.56803 4.00165,1.08803 5.40167,-0.0784 1.13443,-0.9456 5.12168,-5.25605 6.58889,-6.42727 -1.46721,-1.17601 -5.50406,-5.48168 -6.6401,-6.42888 z"
                 style="fill:#000000;fill-opacity:1;fill-rule:nonzero;stroke:#000000;stroke-width:0.3985;stroke-linecap:butt;stroke-linejoin:miter;stroke-miterlimit:10;stroke-dasharray:none;stroke-opacity:1"
                 id="path26" /><path
                 d="m 202.72931,63.73471 c 0,0 -8.17932,-3.12485 -16.13301,-3.24005 h -0.13921 -0.20482 c -4.93126,-0.0656 -15.40658,-0.056 -23.42909,-0.0352 7.3169,1.92484 13.03217,5.41928 12.89456,5.66408 -0.1952,0.33599 -11.02574,-5.37926 -21.50908,-5.51046 -7.57289,-0.09761 -10.87854,-0.0368 -11.84495,-0.01281 -0.368,0.16639 -1.00481,0.45919 -1.85602,0.872 1.03841,0.10082 2.06242,0.33121 3.02885,0.54722 2.47844,0.56001 4.97445,2.23042 4.97445,2.23042 0,0 -2.79844,-0.93602 -5.56006,-1.40802 -1.49761,-0.25601 -3.63046,-0.2128 -5.08487,0.20641 -0.14398,0.03999 -0.28,0.024 -0.41121,-0.0192 -0.49921,0.26561 -1.0224,0.55041 -1.57121,0.856 1.81282,-0.17119 3.52005,-0.0032 5.04646,0.34722 4.24007,0.97442 7.25609,4.33766 7.25609,4.33766 0,0 -3.88645,-2.24485 -7.83049,-3.06885 -2.71044,-0.56641 -6.00647,-0.47521 -9.47054,1.34723 -4.47044,2.83043 -9.46092,6.51848 -13.56657,10.89293 -0.71519,3.72165 -0.42079,7.4097 -0.0512,10.29132 0.5056,3.98407 2.62243,8.66572 2.62243,8.66572 0,0 -2.81764,-3.47843 -3.75365,-8.04811 -0.57279,-2.80002 -1.128,-5.40167 -0.6416,-8.84012 -0.35362,0.42562 -0.69922,0.85602 -1.03361,1.29763 -0.0256,0.0272 -0.13921,16.0274 -0.71582,20.69307 -0.60932,-4.71526 -0.6984,-21.06908 -0.6984,-21.06908 -0.3578,-0.4592 -0.73121,-0.912 -1.11412,-1.35842 0.6032,3.66245 0.0171,6.3585 -0.57811,9.27692 -0.93442,4.56968 -3.75314,8.04811 -3.75314,8.04811 0,0 2.11552,-4.68165 2.62343,-8.66572 0.37969,-2.98723 0.68591,-6.84168 -0.1375,-10.70412 -1.53901,-1.60322 -3.19536,-3.11204 -4.89616,-4.51848 0.22889,2.64644 -0.36641,5.01927 -1.27433,6.99372 -1.73122,3.76962 -5.73747,6.16967 -5.73747,6.16967 0,0 3.13983,-3.00325 4.77027,-6.4689 1.0048,-2.14082 1.48292,-5.73767 0.67188,-7.95688 -0.6671,-0.52162 -1.3421,-1.02723 -2.01711,-1.51842 0.77661,1.93122 0.68443,3.93125 0.25631,5.68166 -0.72192,2.94565 -3.40405,5.37448 -3.40405,5.37448 0,0 1.95714,-3.00645 2.26253,-5.45288 0.35411,-2.81602 0.38522,-5.17606 -2.16483,-7.58409 -0.0766,-0.07202 -0.1281,-0.15681 -0.1664,-0.24802 -0.52412,-0.34559 -1.04441,-0.6848 -1.55551,-1.00639 -3.42175,-1.76804 -6.67817,-1.85283 -9.35944,-1.29283 -3.94395,0.824 -7.8314,3.06885 -7.8314,3.06885 0,0 3.01645,-3.36324 7.2563,-4.33766 1.51871,-0.35041 3.21576,-0.51841 5.01735,-0.35041 -0.54219,-0.29922 -1.06419,-0.58401 -1.5579,-0.84642 -0.12821,0.03681 -0.2594,0.0528 -0.39681,0.01281 -1.45311,-0.41921 -3.58594,-0.46242 -5.08296,-0.20641 -2.76105,0.472 -5.55948,1.40802 -5.55948,1.40802 0,0 2.49544,-1.67041 4.97357,-2.23042 0.96172,-0.21601 1.97503,-0.44321 3.00624,-0.54401 -0.85471,-0.41602 -1.49201,-0.70882 -1.85942,-0.87521 -1.00461,-0.02399 -4.32336,-0.08161 -11.81737,0.01281 -10.48573,0.1312 -21.31747,5.84645 -21.50976,5.51046 -0.1389,-0.2448 5.57707,-3.73924 12.89406,-5.66408 -8.02341,-0.0208 -18.49865,-0.0304 -23.4081,0.03201 l -0.228,0.0032 h -0.136 c -7.9548,0.1152 -16.1346,3.24005 -16.1346,3.24005 0,0 2.74532,-2.29924 9.04541,-3.60324 C 21.74395,59.63546 17.1688,58.44506 17.1688,58.44506 c 0,0 16.77691,0.624 24.10641,0.64 8.1942,-0.112 33.95693,0 34.21634,0.0032 0.1219,0 0.2289,0.03681 0.3281,0.0912 5.17118,-0.05119 7.9188,-0.0224 9.16113,0.0032 l 0.0889,-0.0416 c 0.1143,-0.0464 7.03459,-3.03685 14.58868,-8.21611 0.03349,-0.1216 0.08661,-0.23681 0.1866,-0.33122 2.55014,-2.40802 2.51733,-4.76805 2.16562,-7.58409 -0.3062,-2.44643 -2.26242,-5.45287 -2.26242,-5.45287 0,0 2.68112,2.42885 3.40306,5.37447 0.42819,1.74083 0.522,3.72806 -0.24063,5.64809 0.68452,-0.52002 1.36563,-1.05442 2.04065,-1.60643 0.75009,-2.22564 0.27809,-5.73127 -0.71242,-7.8353 -1.62822,-3.46245 -4.76886,-6.46887 -4.76886,-6.46887 0,0 4.00786,2.40002 5.73767,6.16968 0.89052,1.93441 1.47801,4.24645 1.28732,6.82406 1.52822,-1.33121 3.00005,-2.74722 4.36745,-4.24004 0.88733,-3.93765 0.57012,-7.88171 0.18271,-10.92814 -0.50621,-3.98404 -2.62195,-8.66573 -2.62195,-8.66573 0,0 2.81735,3.47525 3.75316,8.04653 0.60001,2.94082 1.0078,5.60646 0.56261,9.3601 0.1062,-0.13119 0.20939,-0.26238 0.31399,-0.39678 0,0 0.17961,-14.40021 0.69222,-20.86588 0.82461,11.07213 0.68541,20.46265 0.68541,20.46265 0.1024,0.13441 0.17761,0.22081 0.24641,0.31521 -0.056,-3.51524 0.0656,-6.06567 0.6384,-8.8753 0.936,-4.57128 3.75366,-8.04653 3.75366,-8.04653 0,0 -2.12004,4.68169 -2.62566,8.66573 -0.37278,2.93122 -0.67359,6.69928 0.096,10.49135 9.95212,11.14573 26.01951,18.08342 26.19392,18.15542 l 0.0896,0.0416 c 1.23203,-0.02561 3.98087,-0.0544 9.18573,-0.0032 0.0992,-0.05439 0.20801,-0.0912 0.32799,-0.0912 0.25922,-0.0032 30.5508,-0.46561 38.74292,-0.35359 7.32968,-0.01601 17.48662,-0.52162 19.57944,-0.2896 -3.55524,0.60959 -9.20812,1.096 -16.97623,1.68642 6.02089,1.304 9.04654,3.60324 9.04654,3.60324 z M 113.90146,40.0096 c -2.26724,2.84964 -4.95317,5.44966 -7.75641,7.77609 -0.0914,0.17442 -0.24219,0.29923 -0.42659,0.35202 -7.4109,6.05287 -15.511,10.15692 -18.67984,11.65294 1.98761,0.93761 5.92195,2.90724 10.40631,5.73769 0.14851,0.07519 0.29701,0.13439 0.44533,0.216 0.09608,0.05279 0.17039,0.128 0.2289,0.2128 5.34455,3.43684 11.36354,8.0625 15.7823,13.61297 4.42994,-5.56327 10.46362,-10.19694 15.81889,-13.63858 0.0576,-0.07519 0.12801,-0.13758 0.21601,-0.18719 0.1136,-0.05922 0.22401,-0.10242 0.33601,-0.16161 4.51686,-2.85923 8.49132,-4.84807 10.49133,-5.79208 -4.43365,-2.08962 -18.50584,-9.28331 -26.86224,-19.78105 z"
                 style="fill:#000000;fill-opacity:1;fill-rule:nonzero;stroke:#000000;stroke-width:0.3985;stroke-linecap:butt;stroke-linejoin:miter;stroke-miterlimit:10;stroke-dasharray:none;stroke-opacity:1"
                 id="path28" /><path
                 d="m 114.46097,72.18921 -0.55951,0.73442 -0.56091,-0.73442 C 107.89517,65.02913 97.36684,60.48186 97.26064,60.43866 l -1.51732,-0.64801 1.51732,-0.6496 c 0.1062,-0.0432 10.63453,-4.58726 16.07991,-11.74736 l 0.56091,-0.73759 0.55951,0.73759 c 5.44647,7.1601 15.97301,11.70416 16.0786,11.74736 l 1.51843,0.6496 -1.51843,0.64801 c -0.10559,0.0432 -10.63213,4.59047 -16.0786,11.75055 z m -1.41884,-22.26106 c -3.97835,4.39204 -9.3893,7.58726 -12.57845,9.23849 h 12.57845 z m 0,10.64491 h -12.27974 c 3.21864,1.68964 8.42031,4.82088 12.27974,9.08012 z m 1.40762,0 v 9.44334 c 3.88646,-4.44008 9.28173,-7.7057 12.58896,-9.44334 z"
                 style="fill:#000000;fill-opacity:1;fill-rule:nonzero;stroke:#000000;stroke-width:0.3985;stroke-linecap:butt;stroke-linejoin:miter;stroke-miterlimit:10;stroke-dasharray:none;stroke-opacity:1"
                 id="path30" /></g></g></g></g></g></g></svg>
