<?xml version="1.0" encoding="UTF-8" standalone="no"?>
<svg
   xmlns:dc="http://purl.org/dc/elements/1.1/"
   xmlns:cc="http://creativecommons.org/ns#"
   xmlns:rdf="http://www.w3.org/1999/02/22-rdf-syntax-ns#"
   xmlns:svg="http://www.w3.org/2000/svg"
   xmlns="http://www.w3.org/2000/svg"
   xmlns:sodipodi="http://sodipodi.sourceforge.net/DTD/sodipodi-0.dtd"
   xmlns:inkscape="http://www.inkscape.org/namespaces/inkscape"
   version="1.1"
   id="svg2"
   xml:space="preserve"
   width="66.120003"
   height="37.52"
   viewBox="0 0 66.120003 37.52"
   sodipodi:docname="vectorian165.pdf"><metadata
     id="metadata8"><rdf:RDF><cc:Work
         rdf:about=""><dc:format>image/svg+xml</dc:format><dc:type
           rdf:resource="http://purl.org/dc/dcmitype/StillImage" /></cc:Work></rdf:RDF></metadata><defs
     id="defs6" /><sodipodi:namedview
     pagecolor="#ffffff"
     bordercolor="#666666"
     borderopacity="1"
     objecttolerance="10"
     gridtolerance="10"
     guidetolerance="10"
     inkscape:pageopacity="0"
     inkscape:pageshadow="2"
     inkscape:window-width="640"
     inkscape:window-height="480"
     id="namedview4" /><g
     id="g10"
     inkscape:groupmode="layer"
     inkscape:label="vectorian165"
     transform="matrix(1.3333333,0,0,-1.3333333,0,37.52)"><g
       id="g12"
       transform="translate(72,-43.861)"><g
         id="g14"
         transform="translate(-70.801,46.489)"><g
           id="g16"><g
             id="g18"><path
               d="m 43.54166,22.45578 c 0,0 -31.72373,1.35791 -32.98523,-4.02635 0,0 -1.11542,2.71632 7.22839,4.22035 8.34309,1.50331 22.65248,0.68032 25.75684,-0.194"
               style="fill:#000000;fill-opacity:1;fill-rule:nonzero;stroke:#000000;stroke-width:0.3985;stroke-linecap:butt;stroke-linejoin:miter;stroke-miterlimit:10;stroke-dasharray:none;stroke-opacity:1"
               id="path20" /><path
               d="m 42.18312,19.93413 c 0,0 -7.37259,-2.42472 -17.17122,-3.05653 -9.79861,-0.63042 -13.53407,0.922 -13.53407,0.922 0,0 2.23144,-1.98892 12.56416,-1.4555 10.33214,0.5335 16.39531,2.81473 18.14113,3.59003"
               style="fill:#000000;fill-opacity:1;fill-rule:nonzero;stroke:#000000;stroke-width:0.3985;stroke-linecap:butt;stroke-linejoin:miter;stroke-miterlimit:10;stroke-dasharray:none;stroke-opacity:1"
               id="path22" /><path
               d="m 44.56067,19.88493 c 0,0 -9.16824,-4.65614 -21.14978,-5.72377 -11.98085,-1.0675 -22.41059,0.58202 -22.26519,4.26755 0.1455,3.68837 9.70173,6.4518 18.91775,6.7442 9.2173,0.2903 20.22836,-0.7274 24.2548,-1.98904 0,0 -6.54817,2.32774 -19.83976,2.32774 -13.29165,0 -22.45987,-2.61934 -23.62441,-6.54878 0,0 -1.21238,-3.34685 5.5304,-4.94716 6.74287,-1.60164 23.57589,-3.78455 38.17619,5.86926"
               style="fill:#000000;fill-opacity:1;fill-rule:nonzero;stroke:#000000;stroke-width:0.3985;stroke-linecap:butt;stroke-linejoin:miter;stroke-miterlimit:10;stroke-dasharray:none;stroke-opacity:1"
               id="path24" /><path
               d="m 40.7187,6.17056 c 0,0 0.47942,1.85233 0.0649,3.72514 -0.4133,1.87354 -1.54712,2.59345 -2.13512,1.50403 -0.5888,-1.08943 0.4794,-3.66096 2.07022,-5.22917 M 35.46695,4.86325 c 0,0 0.37089,2.52715 -0.3484,4.20534 -0.71923,1.67753 -1.72184,1.19731 -1.72184,-0.1093 0,-1.308 1.17682,-3.37685 2.07024,-4.09604 m -6.0359,0.2827 c 0,0 0.43582,1.83052 0.08741,3.26834 -0.349,1.43841 -1.15501,1.67813 -1.1112,0.21781 0.04371,-1.45963 1.02379,-3.48615 1.02379,-3.48615 M 23.9833,3.46783 c 0,0 0.5238,1.65702 0.32711,3.39934 C 24.11371,8.60959 23.22098,9.046 22.93759,7.60757 22.65477,6.16986 23.9833,3.46783 23.9833,3.46783 M 17.79512,2.92412 c 0,0 0.89338,2.37414 0.71921,4.02984 -0.1749,1.65563 -1.26361,1.91863 -1.80863,0.74042 -0.5451,-1.1748 0.4357,-3.44183 1.08942,-4.77026 m -7.01598,0.67412 c 0,0 1.11049,2.0491 0.98009,4.09614 -0.13051,2.04903 -1.56961,2.41924 -1.9398,0.48151 C 9.4492,6.23605 10.77914,3.59824 10.77914,3.59824 M 5.41806,4.10023 c 0,0 0.6973,2.72323 0.5443,4.27096 C 5.81076,9.91762 4.87294,10.41823 4.56764,8.54541 4.26303,6.67117 5.41806,4.10023 5.41806,4.10023 m -4.46628,14.668 c 0,0 -1.79498,-3.53944 1.45554,-6.3542 0,0 -2.18302,-2.18291 -1.74584,-5.82135 C 1.0972,2.95483 2.79593,1.5485 4.73575,3.34354 c 0,0 -1.21242,2.42601 -0.63053,5.09326 0.58202,2.66784 1.98903,1.89192 2.08535,-0.48491 C 6.28816,5.57497 5.56006,3.68362 5.56006,3.68362 c 0,0 1.84352,-4.51271 4.60774,-0.9712 0,0 -1.3579,3.68625 -0.5813,6.11227 0.77593,2.42543 4.41367,0.82512 1.40633,-5.67587 0,0 3.54153,-5.09322 6.21007,-0.96921 0,0 -1.74651,3.05513 -0.9706,5.43137 0.7759,2.37762 4.22044,1.11682 1.79433,-5.09256 0,0 3.54083,-4.02642 5.48196,0.09759 0,0 -1.62292,2.28755 -1.10791,4.89327 0.5157,2.60434 2.0901,1.37423 2.23352,-0.62981 0.1441,-2.00461 -0.37231,-3.72316 -0.37231,-3.72316 0,0 3.03544,-3.4635 4.66786,1.00343 0,0 -1.31761,1.45891 -0.9173,4.55166 0.4016,3.09263 2.77783,0.4589 1.60442,-3.83654 0,0 2.43353,-4.12476 5.38217,-0.97332 0,0 -2.09003,1.4029 -2.00392,4.35156 0.08529,2.94853 1.40291,2.74843 2.26213,1.23141 0.85919,-1.51692 0.65771,-3.83717 0.37161,-5.03926 0,0 2.46224,-2.32023 4.61034,0.77242 0,0 -2.09003,1.28891 -2.29082,4.35295 -0.20021,3.06332 1.60373,3.63574 2.86322,1.43091 0,0 1.08803,-2.11802 0.1434,-5.26816 0,0 2.03264,-1.11603 2.86325,1.86063 0.82982,2.97791 0.34351,6.18467 -3.00665,9.1347 0,0 1.91853,-1.00272 3.09265,-3.86595 1.17351,-2.86324 0.77251,-8.70301 -3.37885,-7.8732 0,0 -2.14672,-3.20673 -5.29756,-1.28882 0,0 -2.60502,-4.06531 -6.09799,0.1434 0,0 -1.77522,-4.78113 -5.35425,-1.57501 0,0 -1.86125,-4.23683 -6.27009,-0.3723 0,0 -3.20754,-4.52423 -7.1588,0.4003 0,0 -2.29081,-3.69242 -5.44026,0.7438 0,0 -2.09001,-2.40422 -3.97995,0.43032 -1.8899,2.83452 -0.5437,7.01457 0.9733,8.84721 0,0 -3.0989,2.45062 -0.94802,6.44978"
               style="fill:#000000;fill-opacity:1;fill-rule:nonzero;stroke:#000000;stroke-width:0.3985;stroke-linecap:butt;stroke-linejoin:miter;stroke-miterlimit:10;stroke-dasharray:none;stroke-opacity:1"
               id="path26" /></g></g></g></g></g></svg>
