<?xml version="1.0" encoding="UTF-8" standalone="no"?>
<svg
   xmlns:dc="http://purl.org/dc/elements/1.1/"
   xmlns:cc="http://creativecommons.org/ns#"
   xmlns:rdf="http://www.w3.org/1999/02/22-rdf-syntax-ns#"
   xmlns:svg="http://www.w3.org/2000/svg"
   xmlns="http://www.w3.org/2000/svg"
   xmlns:sodipodi="http://sodipodi.sourceforge.net/DTD/sodipodi-0.dtd"
   xmlns:inkscape="http://www.inkscape.org/namespaces/inkscape"
   version="1.1"
   id="svg2"
   xml:space="preserve"
   width="292.42667"
   height="77.333336"
   viewBox="0 0 292.42667 77.333336"
   sodipodi:docname="vectorian073.pdf"><metadata
     id="metadata8"><rdf:RDF><cc:Work
         rdf:about=""><dc:format>image/svg+xml</dc:format><dc:type
           rdf:resource="http://purl.org/dc/dcmitype/StillImage" /></cc:Work></rdf:RDF></metadata><defs
     id="defs6"><clipPath
       clipPathUnits="userSpaceOnUse"
       id="clipPath24"><path
         d="M 0,0 H 216.00278 V 58.00073 H 0 Z"
         id="path22" /></clipPath></defs><sodipodi:namedview
     pagecolor="#ffffff"
     bordercolor="#666666"
     borderopacity="1"
     objecttolerance="10"
     gridtolerance="10"
     guidetolerance="10"
     inkscape:pageopacity="0"
     inkscape:pageshadow="2"
     inkscape:window-width="640"
     inkscape:window-height="480"
     id="namedview4" /><g
     id="g10"
     inkscape:groupmode="layer"
     inkscape:label="vectorian073"
     transform="matrix(1.3333333,0,0,-1.3333333,0,77.333333)"><g
       id="g12"
       transform="translate(72,-14)"><g
         id="g14"
         transform="translate(-72,14)"><g
           id="g16"><g
             id="g18"><g
               id="g20"
               clip-path="url(#clipPath24)"><path
                 d="m 207.19055,47.5846 c -10.01294,7.5361 -31.03239,13.13616 -57.33833,4.14405 -0.38082,-0.12799 -0.58402,-0.544 -0.45281,-0.92801 0.13121,-0.384 0.55201,-0.608 0.92481,-0.44799 25.69314,10.51211 46.263,3.37603 55.99112,-3.93605 5.67848,-4.27207 9.27852,-9.88814 9.00012,-15.5362 -0.84642,-17.26423 -24.1571,-24.99234 -44.86618,-24.99234 -17.83702,0 -35.49806,5.84007 -47.24381,15.6322 -3.57604,2.97604 -6.18887,5.79207 -7.24809,7.95211 1.39043,1.13601 2.30724,2.40002 2.53763,3.68003 0.0656,0.36802 0.0976,0.70403 0.0976,1.04003 0,1.29602 -0.5008,2.32002 -1.36961,2.64003 -0.97441,0.36801 -2.00003,-0.08 -2.60322,-1.10402 -0.32482,-0.57602 -0.5584,-1.39201 -0.5584,-2.46402 0,-1.02402 0.3248,-2.27203 1.18401,-3.69606 -2.84005,-2.96002 -7.8945,-5.96806 -17.62262,-5.96806 -14.16179,0 -25.27715,5.18405 -35.96529,10.12811 -4.38403,2.03203 -8.92012,4.12807 -13.72497,5.84009 -22.37308,8.03212 -40.93493,4.01605 -41.12052,3.98405 -0.3936,-0.09602 -0.64001,-0.47999 -0.55202,-0.88002 0.0864,-0.384 0.47841,-0.64001 0.87201,-0.54399 0.18082,0.032 15.8658,5.13606 37.82129,-2.73605 4.74407,-1.69602 12.86257,-5.88808 17.21622,-7.90409 10.36655,-4.78408 19.96025,-8.46411 34.43886,-8.83212 11.34573,-0.28801 15.68019,3.07202 18.91542,6.12807 1.21443,-2.28803 4.58407,-5.96807 8.02731,-8.83211 11.99695,-10.00014 28.22276,-16.20819 46.39101,-16.20819 21.38267,0 45.30778,8.99208 46.20538,27.20033 0.29921,6.16008 -2.87843,12.06415 -8.95691,16.64022 z M 115.19896,32.62439 c 0,0.75203 0.23363,1.31204 0.51523,1.64804 0.1568,0.192 0.58401,0.60802 1.14401,0.46399 0.2464,-0.064 0.5872,-0.48 0.5872,-1.216 0,-0.224 -0.032,-0.46401 -0.1024,-0.73602 -0.20961,-0.80001 -0.776,-1.61602 -1.55041,-2.43201 -0.40961,0.87999 -0.59363,1.64801 -0.59363,2.272 z"
                 style="fill:#000000;fill-opacity:1;fill-rule:nonzero;stroke:#000000;stroke-width:0.3985;stroke-linecap:butt;stroke-linejoin:miter;stroke-miterlimit:10;stroke-dasharray:none;stroke-opacity:1"
                 id="path26" /><path
                 d="m 58.14705,44.97656 c 0.15358,0.112 13.43855,11.84015 41.09492,11.84015 30.738,0 53.43589,-13.95218 54.2919,-26.19234 0.73761,-10.59213 -7.7409,-15.21618 -8.0689,-15.42419 -0.34722,-0.192 -0.46241,-0.64 -0.25921,-0.99202 0.20321,-0.35199 0.64641,-0.464 0.99682,-0.25601 0.0864,0.04802 8.75851,5.24808 7.95529,16.78422 -0.8992,12.89618 -21.41626,26.80036 -52.99107,26.80036 -28.17158,0 -43.73177,-11.26415 -43.88859,-11.37615 -0.32159,-0.24 -0.39039,-0.70401 -0.1488,-1.02401 0.24001,-0.32003 0.69603,-0.38401 1.01764,-0.16001 z"
                 style="fill:#000000;fill-opacity:1;fill-rule:nonzero;stroke:#000000;stroke-width:0.3985;stroke-linecap:butt;stroke-linejoin:miter;stroke-miterlimit:10;stroke-dasharray:none;stroke-opacity:1"
                 id="path28" /><path
                 d="m 47.99171,17.31221 c -30.38439,12.75215 -48.01019,9.4241 -48.01019,9.4241 0,0 14.88974,0.60804 30.38756,-4.86404 C 45.86688,16.40019 75.33926,0 99.64836,0 123.95428,0 137.62965,9.10411 137.62965,9.10411 102.68521,-5.16806 77.12648,5.07205 47.99171,17.31221 Z"
                 style="fill:#000000;fill-opacity:1;fill-rule:nonzero;stroke:#000000;stroke-width:0.3985;stroke-linecap:butt;stroke-linejoin:miter;stroke-miterlimit:10;stroke-dasharray:none;stroke-opacity:1"
                 id="path30" /></g></g></g></g></g></g></svg>
