<?xml version="1.0" encoding="UTF-8" standalone="no"?>
<svg
   xmlns:dc="http://purl.org/dc/elements/1.1/"
   xmlns:cc="http://creativecommons.org/ns#"
   xmlns:rdf="http://www.w3.org/1999/02/22-rdf-syntax-ns#"
   xmlns:svg="http://www.w3.org/2000/svg"
   xmlns="http://www.w3.org/2000/svg"
   xmlns:sodipodi="http://sodipodi.sourceforge.net/DTD/sodipodi-0.dtd"
   xmlns:inkscape="http://www.inkscape.org/namespaces/inkscape"
   version="1.1"
   id="svg2"
   xml:space="preserve"
   width="163.35031"
   height="89.609253"
   viewBox="0 0 163.35031 89.609253"
   sodipodi:docname="vectorian011.pdf"><metadata
     id="metadata8"><rdf:RDF><cc:Work
         rdf:about=""><dc:format>image/svg+xml</dc:format><dc:type
           rdf:resource="http://purl.org/dc/dcmitype/StillImage" /></cc:Work></rdf:RDF></metadata><defs
     id="defs6"><clipPath
       clipPathUnits="userSpaceOnUse"
       id="clipPath24"><path
         d="M -0.00209,-0.02438 H 122.51065 V 67.18256 H -0.00209 Z"
         id="path22" /></clipPath></defs><sodipodi:namedview
     pagecolor="#ffffff"
     bordercolor="#666666"
     borderopacity="1"
     objecttolerance="10"
     gridtolerance="10"
     guidetolerance="10"
     inkscape:pageopacity="0"
     inkscape:pageshadow="2"
     inkscape:window-width="640"
     inkscape:window-height="480"
     id="namedview4" /><g
     id="g10"
     inkscape:groupmode="layer"
     inkscape:label="vectorian011"
     transform="matrix(1.3333333,0,0,-1.3333333,1.2e-4,89.608744)"><g
       id="g12"
       transform="translate(72,-4.794)"><g
         id="g14"
         transform="translate(-71.998,4.818)"><g
           id="g16"><g
             id="g18"><g
               id="g20"
               clip-path="url(#clipPath24)"><path
                 d="m 49.34941,29.69907 c 0,0 2.61725,-6.58889 8.58302,-6.58889 5.96408,0 12.13926,3.97446 19.25574,7.2177 3.73047,1.69922 7.0493,2.75363 10.03523,3.24963 -2.98593,0.49601 -6.30476,1.55042 -10.03523,3.24965 -7.11648,3.24324 -13.29166,7.22249 -19.25574,7.22249 -5.96577,0 -8.58302,-6.59367 -8.58302,-6.59367 -2.30162,2.19681 -4.71084,1.46561 -4.71084,1.46561 1.46562,4.29124 5.12965,6.17127 5.12965,6.17127 8.47673,4.49927 15.90802,-1.46241 26.37395,-6.69607 5.30447,-2.65285 9.95933,-3.84966 13.26417,-4.38727 h 6.00148 v 4.22406 C 70.2045,39.39839 61.48558,60.37787 61.48558,60.37787 c 3.97817,1.7792 4.29065,6.80488 4.29065,6.80488 0.2086,-5.65287 4.71095,-5.44487 4.71095,-5.44487 0.83522,-10.04173 9.83934,-18.52505 19.04877,-21.03866 9.21091,-2.50885 16.95491,-0.10402 19.88454,3.45602 2.93155,3.55846 2.19854,9.20655 -1.67351,9.31374 -3.87325,0.10239 -3.55846,-5.75528 -3.55846,-5.75528 -2.82752,4.91687 -4.81485,-1.36162 -4.81485,-1.36162 1.04669,8.0609 -3.34845,5.75368 -3.34845,5.75368 5.02328,5.12965 11.82576,6.49127 15.0703,1.88803 3.24535,-4.60646 0.4187,-9.31532 0.4187,-9.31532 -4.31715,-6.42888 -13.54057,-6.5217 -15.04698,-6.49449 v -4.17446 h 8.4673 c 5.15636,1.18242 6.87669,4.00808 6.87669,4.00808 1.85782,-2.39365 4.27346,-3.49767 6.11878,-4.00808 h 4.05015 c 0.29221,0 0.52959,-0.23839 0.52959,-0.5312 0,-0.2912 -0.23738,-0.5296 -0.52959,-0.5296 h -4.57346 c -1.76263,-0.57122 -3.90955,-1.68482 -5.59547,-3.85607 0,0 -1.58913,2.59683 -6.26269,3.85607 h -9.0813 v -3.97286 c 1.50641,0.02719 10.72983,-0.0704 15.04698,-6.49928 0,0 2.82665,-4.70886 -0.4187,-9.31212 -3.24454,-4.60645 -10.04702,-3.24646 -15.0703,1.88322 0,0 4.39514,-2.30082 3.34845,5.75528 0,0 1.98733,-6.27848 4.81485,-1.35843 0,0 -0.31479,-5.86087 3.55846,-5.75846 3.87205,0.104 4.60506,5.75846 1.67351,9.3153 -2.92963,3.55686 -10.67363,5.96649 -19.88454,3.45446 C 80.32652,23.94218 71.3224,15.46048 70.48718,5.41554 c 0,0 -4.50235,0.2112 -4.71095,-5.44003 0,0 -0.31248,5.02084 -4.29065,6.80167 0,0 8.71892,20.97786 33.92224,22.14427 v 4.02727 h -6.29068 c -0.09682,0 -0.17181,0.05599 -0.25001,0.10398 C 85.6015,32.4735 81.16704,31.27028 76.14217,28.75826 65.67624,23.5246 58.24495,17.55812 49.76822,22.05898 c 0,0 -3.66403,1.8832 -5.12965,6.17446 0,0 2.40922,-0.7312 4.71084,1.46563 z"
                 style="fill:#000000;fill-opacity:1;fill-rule:nonzero;stroke:#000000;stroke-width:0.3985;stroke-linecap:butt;stroke-linejoin:miter;stroke-miterlimit:10;stroke-dasharray:none;stroke-opacity:1"
                 id="path26" /><path
                 d="m 0.52849,34.67674 h 19.45735 c 3.30236,0.5824 7.543,1.75841 10.65874,4.15685 0,0 2.34992,-2.93445 8.35161,-4.15685 h 22.59019 c 0.29302,0 0.5304,-0.23681 0.5304,-0.52641 0,-0.29602 -0.23738,-0.5312 -0.5304,-0.5312 h -22.4388 c -2.45923,-0.65921 -5.90288,-1.98883 -8.4781,-4.58248 0,0 -3.84686,3.07364 -12.30637,4.58248 H 0.52849 c -0.29209,0 -0.52968,0.23518 -0.52968,0.5312 0,0.2896 0.23759,0.52641 0.52968,0.52641 z"
                 style="fill:#000000;fill-opacity:1;fill-rule:nonzero;stroke:#000000;stroke-width:0.3985;stroke-linecap:butt;stroke-linejoin:miter;stroke-miterlimit:10;stroke-dasharray:none;stroke-opacity:1"
                 id="path28" /><path
                 d="m 69.26059,34.13432 c 0,-1.35043 -1.09683,-2.44642 -2.44695,-2.44642 -1.34989,0 -2.44684,1.09599 -2.44684,2.44642 0,1.34882 1.09695,2.44803 2.44684,2.44803 1.35012,0 2.44695,-1.09921 2.44695,-2.44803 z"
                 style="fill:#000000;fill-opacity:1;fill-rule:nonzero;stroke:#000000;stroke-width:0.3985;stroke-linecap:butt;stroke-linejoin:miter;stroke-miterlimit:10;stroke-dasharray:none;stroke-opacity:1"
                 id="path30" /></g></g></g></g></g></g></svg>
