<?xml version="1.0" encoding="UTF-8" standalone="no"?>
<svg
   xmlns:dc="http://purl.org/dc/elements/1.1/"
   xmlns:cc="http://creativecommons.org/ns#"
   xmlns:rdf="http://www.w3.org/1999/02/22-rdf-syntax-ns#"
   xmlns:svg="http://www.w3.org/2000/svg"
   xmlns="http://www.w3.org/2000/svg"
   xmlns:sodipodi="http://sodipodi.sourceforge.net/DTD/sodipodi-0.dtd"
   xmlns:inkscape="http://www.inkscape.org/namespaces/inkscape"
   version="1.1"
   id="svg2"
   xml:space="preserve"
   width="110.77333"
   height="206.39999"
   viewBox="0 0 110.77333 206.39999"
   sodipodi:docname="vectorian067.pdf"><metadata
     id="metadata8"><rdf:RDF><cc:Work
         rdf:about=""><dc:format>image/svg+xml</dc:format><dc:type
           rdf:resource="http://purl.org/dc/dcmitype/StillImage" /></cc:Work></rdf:RDF></metadata><defs
     id="defs6"><clipPath
       clipPathUnits="userSpaceOnUse"
       id="clipPath30"><path
         d="m -6.9e-4,0 h 79.7656 V 154.80089 H -6.9e-4 Z"
         id="path28" /></clipPath><clipPath
       clipPathUnits="userSpaceOnUse"
       id="clipPath38"><path
         d="m -6.9e-4,0 h 79.7656 V 154.80089 H -6.9e-4 Z"
         id="path36" /></clipPath></defs><sodipodi:namedview
     pagecolor="#ffffff"
     bordercolor="#666666"
     borderopacity="1"
     objecttolerance="10"
     gridtolerance="10"
     guidetolerance="10"
     inkscape:pageopacity="0"
     inkscape:pageshadow="2"
     inkscape:window-width="640"
     inkscape:window-height="480"
     id="namedview4" /><g
     id="g10"
     inkscape:groupmode="layer"
     inkscape:label="vectorian067"
     transform="matrix(1.3333333,0,0,-1.3333333,0,206.4)"><g
       id="g12"
       transform="translate(72,82.799)"><g
         id="g14"
         transform="translate(-71.999,-82.799)"><g
           id="g16"><g
             id="g18"><path
               d="m 61.76718,122.76897 c 3.11525,0 5.65448,2.62403 5.65448,5.85608 0,3.23202 -2.53923,5.85606 -5.65448,5.85606 -3.12163,0 -5.65767,-2.62404 -5.65767,-5.85606 0,-3.23205 2.53604,-5.85608 5.65767,-5.85608 z m 0,10.49612 c 2.44324,0 4.43045,-2.00001 4.43045,-4.43204 0,-2.44804 -1.98721,-4.43206 -4.43045,-4.43206 -2.44801,0 -4.43526,1.98402 -4.43526,4.43206 0,2.43203 1.98725,4.43204 4.43526,4.43204 z"
               style="fill:#000000;fill-opacity:1;fill-rule:nonzero;stroke:#000000;stroke-width:0.3985;stroke-linecap:butt;stroke-linejoin:miter;stroke-miterlimit:10;stroke-dasharray:none;stroke-opacity:1"
               id="path20" /><path
               d="m 68.03445,78.83241 c 0,1.61602 -1.30241,2.91202 -2.90562,2.91202 -1.60641,0 -2.90565,-1.296 -2.90565,-2.91202 0,-1.60003 1.29924,-2.89605 2.90565,-2.89605 1.60321,0 2.90562,1.29602 2.90562,2.89605 z"
               style="fill:#000000;fill-opacity:1;fill-rule:nonzero;stroke:#000000;stroke-width:0.3985;stroke-linecap:butt;stroke-linejoin:miter;stroke-miterlimit:10;stroke-dasharray:none;stroke-opacity:1"
               id="path22" /><path
               d="m 64.66962,73.79233 c 0,0 0.2736,-16.51221 0.6128,-16.51221 0.3344,0 0.61121,16.51221 0.61121,16.51221 0,0.33601 -0.27681,0.60801 -0.61121,0.60801 -0.3392,0 -0.6128,-0.272 -0.6128,-0.60801 z"
               style="fill:#000000;fill-opacity:1;fill-rule:nonzero;stroke:#000000;stroke-width:0.3985;stroke-linecap:butt;stroke-linejoin:miter;stroke-miterlimit:10;stroke-dasharray:none;stroke-opacity:1"
               id="path24" /><g
               id="g26"
               clip-path="url(#clipPath30)"><path
                 d="m 71.1017,6.36746 c -4.00485,3.36005 -6.2737,8.7361 -8.48811,13.98418 -0.97119,2.30403 -1.88483,4.46406 -2.92484,6.41609 -1.54881,2.88004 -3.55365,4.96007 -5.80006,6.11207 4.82565,2.78405 9.71531,11.60017 13.07535,15.53622 3.51524,4.12805 8.10252,2.96003 8.2561,-0.56003 0.09923,-3.05605 -2.90723,-3.72805 -2.90723,-3.72805 -1.05119,-0.192 -1.40321,0.60802 -1.95841,1.05602 -0.93763,0.73602 -2.16964,-0.12799 -1.68163,-1.24802 0.3056,-0.70401 1.09763,-1.056 1.80641,-1.16801 5.04329,-0.81601 6.93132,3.31206 6.95531,5.95209 0.01919,2.08001 -0.99363,7.26408 -7.18569,7.3441 -7.4145,0.09598 -8.57452,-7.66411 -10.92973,-12.99217 -2.27844,-5.16808 -5.08809,-8.17612 -6.72812,-9.63212 -0.55359,0.19199 -1.11841,0.35198 -1.69441,0.432 l -0.30561,0.016 c 5.71048,5.77607 6.74089,10.89612 6.74089,18.19223 0,7.50411 0,21.10427 0,29.50438 0,8.41611 1.37442,16.67221 5.65607,24.3203 4.28165,7.63211 14.98261,12.68819 14.98261,12.68819 C 70.57368,117.48889 63.57039,113.60085 58.75435,107.95279 54.9703,104.09673 50.63103,98.36865 47.73819,90.46455 44.80856,83.77647 44.03094,74.62434 44.03094,70.73628 l 0.21282,-10.73611 0.4736,-0.09603 c 0.0208,-0.01599 1.35202,-0.31997 3.19365,-1.27999 4.04645,-2.59203 6.74569,-7.1041 6.74569,-12.27218 0,-5.77607 -3.37446,-10.75213 -8.24972,-13.12016 -0.15359,-0.06399 -0.3024,-0.144 -0.4528,-0.22401 l -0.1872,-0.06398 C 40.91411,31.29579 35.80365,32.3678 33.67563,32.95981 l -0.13121,0.04799 c -0.1472,0.08001 -0.29761,0.16002 -0.4496,0.22401 -4.87528,2.36803 -8.24811,7.34409 -8.24811,13.12016 0,4.57607 2.11203,8.64011 5.40488,11.31217 2.65283,1.72803 4.81443,2.22401 4.84005,2.24 l 0.4704,0.09603 0.2128,10.73611 c 0,3.88806 -0.77762,13.04019 -3.71843,19.76029 -3.85927,10.56013 -10.30253,17.2162 -14.5522,20.70425 -4.48166,3.87204 -10.10094,6.51207 -15.9698,7.39211 0,0 10.69932,-5.05608 14.98099,-12.68819 4.27845,-7.64809 5.65606,-15.90419 5.65606,-24.3203 0,-8.40011 0,-22.00027 0,-29.50438 0,-7.29611 1.02881,-12.41616 6.73769,-18.19223 l -0.3056,-0.016 c -0.57441,-0.08002 -1.13761,-0.24001 -1.69123,-0.432 -1.64162,1.456 -4.45125,4.46404 -6.72966,9.63212 C 17.82901,48.40001 16.6658,56.1601 9.2529,56.06412 3.06241,55.9841 2.04962,50.80003 2.06721,48.72002 2.0912,46.07999 3.97763,41.95192 9.0225,42.76793 c 0.70881,0.11201 1.50082,0.464 1.80642,1.16801 0.48961,1.12003 -0.744,1.98404 -1.68161,1.24802 -0.55681,-0.448 -0.90721,-1.24802 -1.96004,-1.05602 0,0 -3.00642,0.672 -2.90242,3.72805 0.15199,3.52006 4.73765,4.68808 8.2561,0.56003 3.35523,-3.93605 8.2465,-12.75217 13.07216,-15.53622 -2.24643,-1.152 -4.24965,-3.23203 -5.79689,-6.11207 -1.0448,-1.95203 -1.96,-4.11206 -2.92802,-6.41609 C 13.70415,12.79955 8.41609,3.67943 0,1.98341 l 2.08801,-0.192 C 6.15688,1.5034 19.51544,1.4714 30.93958,11.66354 31.72519,10.94353 36.87886,6.09547 39.05809,1.4714 L 39.7509,-5.8e-4 40.4405,1.4714 c 2.17924,4.62407 7.3249,9.45612 8.1185,10.19214 C 54.6727,6.20746 61.34798,3.67943 66.85364,2.54343 71.6265,1.56741 79.7642,2.38342 79.7642,2.38342 77.19618,2.89542 72.85693,4.89546 71.1017,6.36746 Z M 47.7014,71.3443 c 0,-5.60007 0,-9.31212 0,-11.23215 -1.0048,0.46402 -1.79681,0.72002 -2.25444,0.84802 -0.01599,0.83201 -0.19359,9.77611 -0.19359,9.77611 0,3.80806 0.75681,12.73618 3.61765,19.26427 1.34721,3.69605 3.01124,6.88008 4.78245,9.61612 C 50.14462,92.06458 47.95421,82.64046 47.7014,71.3443 Z M 30.91878,90.04855 c 2.87684,-6.57609 3.63525,-15.50421 3.63525,-19.31227 0,0 -0.1792,-8.9441 -0.1936,-9.77611 -0.5008,-0.14401 -1.41281,-0.44801 -2.55843,-1.00801 0,1.88802 0,5.63207 0,11.39214 -0.2704,12.04817 -2.72804,21.98428 -6.65448,29.7764 2.13442,-3.04006 4.17763,-6.7201 5.77126,-11.07215 z M 6.40646,3.31142 c 6.2369,3.21606 9.23372,10.16014 11.88977,16.44822 0.9536,2.27204 1.85601,4.40006 2.86722,6.28807 1.97124,3.66405 4.68646,5.90409 7.64652,6.30408 2.13441,0.28803 4.24484,-0.416 5.64805,-1.88801 1.20482,-1.26401 1.98244,-3.44004 1.98244,-5.90407 0,-2.92804 -1.08162,-6.28809 -3.81126,-9.08812 C 23.66269,5.74345 12.78255,3.63142 6.40646,3.31142 Z M 39.7509,3.39143 c -2.45924,4.33607 -6.70409,8.41611 -7.68811,9.32811 0.56641,0.52802 1.12321,1.10402 1.67523,1.69603 0.1248,0.12801 0.23039,0.256 0.3472,0.38401 L 40.2101,8.9755 c 0,0 3.59366,3.23205 5.71847,5.26406 0.49921,-0.52801 1.00321,-1.04001 1.50884,-1.52002 C 46.4534,11.80754 42.21172,7.7275 39.7509,3.39143 Z m 7.13608,12.06415 c -2.73923,2.81604 -3.82404,6.17609 -3.82404,9.10413 0,2.46403 0.77442,4.64006 1.97922,5.90407 1.40163,1.47201 3.51524,2.17604 5.64966,1.88801 2.96165,-0.39999 5.6785,-2.64003 7.64972,-6.30408 1.00641,-1.88801 1.90881,-4.01603 2.86244,-6.28807 2.65283,-6.28808 5.65286,-13.23216 11.89294,-16.44822 -6.37768,0.32 -17.25622,2.41604 -26.20994,12.14416 z"
                 style="fill:#000000;fill-opacity:1;fill-rule:nonzero;stroke:#000000;stroke-width:0.3985;stroke-linecap:butt;stroke-linejoin:miter;stroke-miterlimit:10;stroke-dasharray:none;stroke-opacity:1"
                 id="path32" /><g
                 id="g34"
                 clip-path="url(#clipPath38)"><path
                   d="m 38.68529,72.96033 c -0.0032,0.048 0.35519,-12.01615 0.4384,-14.8002 -6.09767,-0.49599 -10.91374,-5.58408 -10.91374,-11.80816 0,-6.52809 5.31365,-11.84014 11.84655,-11.84014 6.53289,0 11.84815,5.31205 11.84815,11.84014 0,6.4161 -5.14087,11.66416 -11.52495,11.84018 l 0.44162,14.81618 c 1.71202,16.1442 4.44804,25.07231 6.64488,32.25641 1.92801,6.30408 3.45444,11.28014 3.59685,18.65625 0.3504,18.08023 -10.75055,30.27249 -10.86255,30.40048 l -0.4496,0.48001 -0.44801,-0.48001 c -0.11359,-0.12799 -11.21456,-12.32025 -10.86412,-30.40048 0.14239,-7.37611 1.6672,-12.35217 3.59843,-18.65625 2.19843,-7.1841 4.93286,-16.11221 6.64809,-32.30441 z M 49.45982,46.35197 c 0,-5.18405 -4.21923,-9.40809 -9.40332,-9.40809 -5.18406,0 -9.40171,4.22404 -9.40171,9.40809 0,5.18409 4.21765,9.40813 9.40171,9.40813 5.18409,0 9.40332,-4.22404 9.40332,-9.40813 z M 29.65317,125.121 c 0,14.8962 8.1009,25.45642 10.09773,27.84046 1.99681,-2.38404 10.09613,-12.94426 10.09613,-27.84046 0,-0.272 -0.0016,-0.54402 -0.0064,-0.80002 -0.14079,-7.13609 -1.64323,-11.96815 -3.54242,-18.11222 -2.15684,-6.94411 -4.81288,-15.60021 -6.5505,-30.88041 -1.73441,15.29619 -4.39046,23.9363 -6.54088,30.88041 -1.90242,6.14407 -3.40645,10.97613 -3.54724,18.11222 -0.0064,0.256 -0.0064,0.52802 -0.0064,0.80002 z"
                   style="fill:#000000;fill-opacity:1;fill-rule:nonzero;stroke:#000000;stroke-width:0.3985;stroke-linecap:butt;stroke-linejoin:miter;stroke-miterlimit:10;stroke-dasharray:none;stroke-opacity:1"
                   id="path40" /><path
                   d="m 17.73781,122.76897 c 3.11685,0 5.65608,2.62403 5.65608,5.85608 0,3.23202 -2.53923,5.85606 -5.65608,5.85606 -3.11844,0 -5.65605,-2.62404 -5.65605,-5.85606 0,-3.23205 2.53761,-5.85608 5.65605,-5.85608 z m 0,10.49612 c 2.44324,0 4.43365,-2.00001 4.43365,-4.43204 0,-2.44804 -1.99041,-4.43206 -4.43365,-4.43206 -2.44644,0 -4.43366,1.98402 -4.43366,4.43206 0,2.43203 1.98722,4.43204 4.43366,4.43204 z"
                   style="fill:#000000;fill-opacity:1;fill-rule:nonzero;stroke:#000000;stroke-width:0.3985;stroke-linecap:butt;stroke-linejoin:miter;stroke-miterlimit:10;stroke-dasharray:none;stroke-opacity:1"
                   id="path42" /><path
                   d="m 17.27861,78.83241 c 0,1.61602 -1.30241,2.91202 -2.90564,2.91202 -1.60321,0 -2.90404,-1.296 -2.90404,-2.91202 0,-1.60003 1.30083,-2.89605 2.90404,-2.89605 1.60323,0 2.90564,1.29602 2.90564,2.89605 z"
                   style="fill:#000000;fill-opacity:1;fill-rule:nonzero;stroke:#000000;stroke-width:0.3985;stroke-linecap:butt;stroke-linejoin:miter;stroke-miterlimit:10;stroke-dasharray:none;stroke-opacity:1"
                   id="path44" /><path
                   d="m 13.60976,73.79233 c 0,0 0.27201,-16.51221 0.6128,-16.51221 0.336,0 0.61123,16.51221 0.61123,16.51221 0,0.33601 -0.27523,0.60801 -0.61123,0.60801 -0.34079,0 -0.6128,-0.272 -0.6128,-0.60801 z"
                   style="fill:#000000;fill-opacity:1;fill-rule:nonzero;stroke:#000000;stroke-width:0.3985;stroke-linecap:butt;stroke-linejoin:miter;stroke-miterlimit:10;stroke-dasharray:none;stroke-opacity:1"
                   id="path46" /><path
                   d="m 48.1606,28.84775 c -4.28165,-2.44803 -0.7664,-8.86411 -0.7664,-8.86411 0,0 -0.3056,5.34406 2.60003,6.11208 2.90564,0.768 5.65607,-3.21605 5.65607,-3.21605 0,2.14404 -3.21123,8.41612 -7.4897,5.96808 z"
                   style="fill:#000000;fill-opacity:1;fill-rule:nonzero;stroke:#000000;stroke-width:0.3985;stroke-linecap:butt;stroke-linejoin:miter;stroke-miterlimit:10;stroke-dasharray:none;stroke-opacity:1"
                   id="path48" /><path
                   d="m 32.7188,19.98364 c 0,0 3.51686,6.41608 -0.7632,8.86411 -4.28006,2.44804 -7.49129,-3.82404 -7.49129,-5.96808 0,0 2.75203,3.98405 5.65445,3.21605 2.90726,-0.76802 2.60004,-6.11208 2.60004,-6.11208 z"
                   style="fill:#000000;fill-opacity:1;fill-rule:nonzero;stroke:#000000;stroke-width:0.3985;stroke-linecap:butt;stroke-linejoin:miter;stroke-miterlimit:10;stroke-dasharray:none;stroke-opacity:1"
                   id="path50" /><path
                   d="m 44.03094,121.18495 c -0.60958,2.59205 -4.28004,15.60019 -4.28004,15.60019 0,0 -3.66884,-13.00814 -4.28006,-15.60019 0.76482,-5.80809 4.12805,-21.85629 4.28006,-34.70445 0.1536,12.84816 3.51523,28.89636 4.28004,34.70445 z"
                   style="fill:#000000;fill-opacity:1;fill-rule:nonzero;stroke:#000000;stroke-width:0.3985;stroke-linecap:butt;stroke-linejoin:miter;stroke-miterlimit:10;stroke-dasharray:none;stroke-opacity:1"
                   id="path52" /></g></g></g></g></g></g></g></svg>
