<?xml version="1.0" encoding="UTF-8" standalone="no"?>
<svg
   xmlns:dc="http://purl.org/dc/elements/1.1/"
   xmlns:cc="http://creativecommons.org/ns#"
   xmlns:rdf="http://www.w3.org/1999/02/22-rdf-syntax-ns#"
   xmlns:svg="http://www.w3.org/2000/svg"
   xmlns="http://www.w3.org/2000/svg"
   xmlns:sodipodi="http://sodipodi.sourceforge.net/DTD/sodipodi-0.dtd"
   xmlns:inkscape="http://www.inkscape.org/namespaces/inkscape"
   version="1.1"
   id="svg2"
   xml:space="preserve"
   width="415.09332"
   height="124"
   viewBox="0 0 415.09332 124"
   sodipodi:docname="vectorian074.pdf"><metadata
     id="metadata8"><rdf:RDF><cc:Work
         rdf:about=""><dc:format>image/svg+xml</dc:format><dc:type
           rdf:resource="http://purl.org/dc/dcmitype/StillImage" /></cc:Work></rdf:RDF></metadata><defs
     id="defs6"><clipPath
       clipPathUnits="userSpaceOnUse"
       id="clipPath24"><path
         d="M 0,0 H 308.00397 V 93.00117 H 0 Z"
         id="path22" /></clipPath></defs><sodipodi:namedview
     pagecolor="#ffffff"
     bordercolor="#666666"
     borderopacity="1"
     objecttolerance="10"
     gridtolerance="10"
     guidetolerance="10"
     inkscape:pageopacity="0"
     inkscape:pageshadow="2"
     inkscape:window-width="640"
     inkscape:window-height="480"
     id="namedview4" /><g
     id="g10"
     inkscape:groupmode="layer"
     inkscape:label="vectorian074"
     transform="matrix(1.3333333,0,0,-1.3333333,0,124)"><g
       id="g12"
       transform="translate(72,21)"><g
         id="g14"
         transform="translate(-72,-21)"><g
           id="g16"><g
             id="g18"><g
               id="g20"
               clip-path="url(#clipPath24)"><path
                 d="M 146.66368,56.70471 C 63.9445,51.21664 0,1.216 0,1.216 c 0,0 73.77113,49.87264 152.33575,52.65667 79.81223,2.83204 115.06069,-8.5121 148.68673,-23.08829 0,0 -50.64228,32.81643 -154.3588,25.92033 z"
                 style="fill:#000000;fill-opacity:1;fill-rule:nonzero;stroke:#000000;stroke-width:0.3985;stroke-linecap:butt;stroke-linejoin:miter;stroke-miterlimit:10;stroke-dasharray:none;stroke-opacity:1"
                 id="path26" /><path
                 d="m 216.34776,81.82506 c 53.88391,-0.40003 91.96921,-24.30432 91.96921,-24.30432 -48.61824,32.41641 -91.96921,24.30432 -91.96921,24.30432 z"
                 style="fill:#000000;fill-opacity:1;fill-rule:nonzero;stroke:#000000;stroke-width:0.3985;stroke-linecap:butt;stroke-linejoin:miter;stroke-miterlimit:10;stroke-dasharray:none;stroke-opacity:1"
                 id="path28" /><path
                 d="m 36.25034,29.29636 1.23994,1.34402 c -0.10852,0.09599 -10.93376,10.36813 -7.83052,25.88834 4.23607,21.16827 38.44112,33.39242 70.0417,34.51242 33.40363,1.23204 56.45993,-9.92011 56.69194,-10.03212 l -2.43843,2.03203 c -0.23201,0.112 -20.44986,11.04015 -54.31911,9.82414 C 67.31955,91.71318 32.29399,78.99301 27.87213,56.88072 24.5691,40.3685 35.77065,29.74437 36.25034,29.29636 Z"
                 style="fill:#000000;fill-opacity:1;fill-rule:nonzero;stroke:#000000;stroke-width:0.3985;stroke-linecap:butt;stroke-linejoin:miter;stroke-miterlimit:10;stroke-dasharray:none;stroke-opacity:1"
                 id="path30" /><path
                 d="M 261.31955,23.88829 C 197.30753,49.00862 146.25888,10.92812 109.3896,10.11212 76.89478,9.40811 51.45685,21.05626 51.45685,21.05626 c 65.22565,-34.0324 109.38782,7.69611 156.38362,8.91211 31.75561,0.83201 53.47908,-6.08008 53.47908,-6.08008 z"
                 style="fill:#000000;fill-opacity:1;fill-rule:nonzero;stroke:#000000;stroke-width:0.3985;stroke-linecap:butt;stroke-linejoin:miter;stroke-miterlimit:10;stroke-dasharray:none;stroke-opacity:1"
                 id="path32" /><path
                 d="m 84.75969,27.63234 c -1.95863,0.20799 -4.00876,0.448 -6.16008,0.72002 0,0 2.23581,-0.44802 6.16008,-0.72002 z"
                 style="fill:#000000;fill-opacity:1;fill-rule:nonzero;stroke:#000000;stroke-width:0.3985;stroke-linecap:butt;stroke-linejoin:miter;stroke-miterlimit:10;stroke-dasharray:none;stroke-opacity:1"
                 id="path34" /><path
                 d="m 140.5868,35.23244 c 17.01461,5.68008 34.43725,4.04805 34.43725,4.04805 -24.30753,3.66404 -36.46448,-2.83203 -58.34155,-8.49611 -13.757,-3.56804 -25.26914,-3.61605 -31.92281,-3.15204 29.77078,-3.10404 38.33568,1.77603 55.82711,7.6001 z"
                 style="fill:#000000;fill-opacity:1;fill-rule:nonzero;stroke:#000000;stroke-width:0.3985;stroke-linecap:butt;stroke-linejoin:miter;stroke-miterlimit:10;stroke-dasharray:none;stroke-opacity:1"
                 id="path36" /><path
                 d="M 184.74736,1.216 C 239.44408,15.39218 285.62868,0 285.62868,0 239.84727,19.84023 184.74736,1.216 184.74736,1.216 Z"
                 style="fill:#000000;fill-opacity:1;fill-rule:nonzero;stroke:#000000;stroke-width:0.3985;stroke-linecap:butt;stroke-linejoin:miter;stroke-miterlimit:10;stroke-dasharray:none;stroke-opacity:1"
                 id="path38" /><path
                 d="m 96.42464,70.4809 7.69929,0.416 c 8.10251,2.41603 26.33313,3.64805 26.33313,3.64805 -20.25626,0.40001 -27.14273,-1.23202 -27.14273,-1.23202 z"
                 style="fill:#000000;fill-opacity:1;fill-rule:nonzero;stroke:#000000;stroke-width:0.3985;stroke-linecap:butt;stroke-linejoin:miter;stroke-miterlimit:10;stroke-dasharray:none;stroke-opacity:1"
                 id="path40" /><path
                 d="m 78.52759,65.21683 7.12661,2.92804 -7.43751,-0.38402 c 0,0 -6.91579,-1.48801 -25.04422,-10.54413 0,0 16.99422,6.72009 25.35512,8.00011 z"
                 style="fill:#000000;fill-opacity:1;fill-rule:nonzero;stroke:#000000;stroke-width:0.3985;stroke-linecap:butt;stroke-linejoin:miter;stroke-miterlimit:10;stroke-dasharray:none;stroke-opacity:1"
                 id="path42" /><path
                 d="m 89.48264,71.0569 c -0.61271,-0.27202 -0.92531,-0.91202 -0.70022,-1.40802 l 1.22452,-2.68802 c 0.22721,-0.49602 0.90563,-0.67203 1.51842,-0.40002 0.60962,0.28801 0.92322,0.91201 0.69762,1.40802 l -1.22882,2.68804 c -0.224,0.496 -0.90081,0.688 -1.51152,0.4 z"
                 style="fill:#000000;fill-opacity:1;fill-rule:nonzero;stroke:#000000;stroke-width:0.3985;stroke-linecap:butt;stroke-linejoin:miter;stroke-miterlimit:10;stroke-dasharray:none;stroke-opacity:1"
                 id="path44" /></g></g></g></g></g></g></svg>
