<?xml version="1.0" encoding="UTF-8" standalone="no"?>
<svg
   xmlns:dc="http://purl.org/dc/elements/1.1/"
   xmlns:cc="http://creativecommons.org/ns#"
   xmlns:rdf="http://www.w3.org/1999/02/22-rdf-syntax-ns#"
   xmlns:svg="http://www.w3.org/2000/svg"
   xmlns="http://www.w3.org/2000/svg"
   xmlns:sodipodi="http://sodipodi.sourceforge.net/DTD/sodipodi-0.dtd"
   xmlns:inkscape="http://www.inkscape.org/namespaces/inkscape"
   version="1.1"
   id="svg2"
   xml:space="preserve"
   width="47.946667"
   height="43.360001"
   viewBox="0 0 47.946667 43.360001"
   sodipodi:docname="vectorian143.pdf"><metadata
     id="metadata8"><rdf:RDF><cc:Work
         rdf:about=""><dc:format>image/svg+xml</dc:format><dc:type
           rdf:resource="http://purl.org/dc/dcmitype/StillImage" /></cc:Work></rdf:RDF></metadata><defs
     id="defs6" /><sodipodi:namedview
     pagecolor="#ffffff"
     bordercolor="#666666"
     borderopacity="1"
     objecttolerance="10"
     gridtolerance="10"
     guidetolerance="10"
     inkscape:pageopacity="0"
     inkscape:pageshadow="2"
     inkscape:window-width="640"
     inkscape:window-height="480"
     id="namedview4" /><g
     id="g10"
     inkscape:groupmode="layer"
     inkscape:label="vectorian143"
     transform="matrix(1.3333333,0,0,-1.3333333,0,43.36)"><g
       id="g12"
       transform="translate(72,-39.482)"><g
         id="g14"
         transform="translate(-69.76,41.679)"><g
           id="g16"><g
             id="g18"><path
               d="m 14.62227,0.38498 c 0,0 -0.78752,1.37972 -1.67401,1.18164 C 12.06233,1.37541 11.96326,1.0748 11.27412,0.6855 10.58492,0.2894 9.0099,-0.298 7.63158,1.2729 6.25256,2.85071 6.65146,4.40114 7.72919,5.61006 8.54199,6.51846 10.66692,6.09506 9.89581,4.42845 9.30501,3.14441 8.025,2.35892 8.025,2.35892 c 0,0 1.91992,1.8715 1.6249,2.82773 -0.29579,0.96301 -1.99441,0 -2.21571,-1.99442 C 7.21217,1.1978 8.76329,0.9792 9.94492,1.2729 c 1.56482,0.3893 4.11114,1.62563 4.67735,-0.88792"
               style="fill:#000000;fill-opacity:1;fill-rule:nonzero;stroke:#000000;stroke-width:0.3985;stroke-linecap:butt;stroke-linejoin:miter;stroke-miterlimit:10;stroke-dasharray:none;stroke-opacity:1"
               id="path20" /><path
               d="m 2.70831,6.36827 c 0,0 -2.65962,0.59421 -2.06821,3.10094 0.67422,2.86865 2.80663,4.06395 3.91445,4.43275 1.10721,0.36891 2.14122,-0.2185 0.81209,-1.40021 C 4.03755,11.32014 1.8955,11.68904 1.8955,11.68904 c 1.99374,-1.10652 4.50527,0.66249 4.50527,1.55042 0,0.88791 -1.24722,1.49583 -2.95404,0.7377 -1.32922,-0.5943 -1.84692,-1.33191 -1.84692,-1.33191 0,0 -1.25473,0.5191 -0.81211,2.66374 0.4426,2.13792 2.21573,2.21303 2.21573,2.21303 3.39734,1.1065 5.09597,2.28813 6.05568,3.17602 0.95961,0.88791 2.14191,1.55043 3.69234,4.80167 1.55193,3.24435 2.06752,3.83856 3.10165,3.98886 1.0348,0.1434 1.69872,-0.5191 1.69872,-0.5191 l 0.22191,0.2937 c -0.29502,0.5191 -1.99445,0.96301 -3.54486,0 C 12.67775,28.30695 12.45575,27.05014 11.56984,24.9055 10.68402,22.76758 10.09322,21.87967 8.6158,20.77316 7.13908,19.65985 5.44046,19.36615 3.44673,18.70363 1.45291,18.0411 1.8955,17.52202 1.3047,17.07802 0.7139,16.6341 0.4926,16.19008 0.4926,16.19008 L 0.12308,16.92781 C -0.17259,15.9716 0.41818,15.23389 0.41818,15.23389 -0.24568,13.38286 1.3047,12.42664 1.3047,12.42664 -2.24011,7.03758 2.56012,6.07455 2.56012,6.07455 1.8955,0.76059 6.69577,1.8671 6.69577,1.8671 c 0,0 -1.91992,-0.07508 -2.80653,0.73773 -0.88581,0.81279 -1.40291,3.25113 0.7391,5.53926 2.14124,2.28813 3.39666,1.55052 2.87966,0 C 6.99158,6.59367 4.55455,5.78087 3.66792,5.78087 c 0,0 0.81223,-0.36881 2.36335,0.36879 C 7.58238,6.88737 8.8371,8.95691 7.508,10.06342 6.17946,11.16994 3.37291,8.80661 2.70831,6.36827"
               style="fill:#000000;fill-opacity:1;fill-rule:nonzero;stroke:#000000;stroke-width:0.3985;stroke-linecap:butt;stroke-linejoin:miter;stroke-miterlimit:10;stroke-dasharray:none;stroke-opacity:1"
               id="path22" /><path
               d="m 7.5817,18.48502 c 0,0 -0.14751,-0.36879 -0.59082,-1.55721 -0.4426,-1.17482 -3.17466,-3.68835 -4.79957,-1.10651 0,0 1.62491,-0.73773 2.65833,-0.14341 1.17952,0.66931 1.69864,1.10641 2.06743,1.91921 0.36891,0.81283 0.66463,0.88792 0.66463,0.88792"
               style="fill:#000000;fill-opacity:1;fill-rule:nonzero;stroke:#000000;stroke-width:0.3985;stroke-linecap:butt;stroke-linejoin:miter;stroke-miterlimit:10;stroke-dasharray:none;stroke-opacity:1"
               id="path24" /><path
               d="m 3.07713,20.03554 c 0,0 2.51084,1.47532 3.47115,3.10093 0.95972,1.62554 3.17532,5.833 6.27768,5.31388 0,0 -2.36324,-0.1434 -3.24985,-2.13783 C 8.68959,24.3181 7.508,20.40434 3.07713,20.03554"
               style="fill:#000000;fill-opacity:1;fill-rule:nonzero;stroke:#000000;stroke-width:0.3985;stroke-linecap:butt;stroke-linejoin:miter;stroke-miterlimit:10;stroke-dasharray:none;stroke-opacity:1"
               id="path26" /><path
               d="m 10.90533,22.02997 c 0,0 2.58454,0.3688 3.91364,2.28813 1.32991,1.91924 -0.51559,3.68834 -0.51559,3.68834 0,0 1.99372,-0.81281 1.32841,-3.46984 -0.64272,-2.56814 -4.72646,-2.50663 -4.72646,-2.50663"
               style="fill:#000000;fill-opacity:1;fill-rule:nonzero;stroke:#000000;stroke-width:0.3985;stroke-linecap:butt;stroke-linejoin:miter;stroke-miterlimit:10;stroke-dasharray:none;stroke-opacity:1"
               id="path28" /><path
               d="m 23.68188,27.71274 c 0,0 -1.55113,2.06953 -4.13565,1.03811 -2.58522,-1.03811 -2.87963,-4.58305 -1.7725,-4.80155 1.10789,-0.22541 2.06752,2.21292 0.88589,3.91365 l 0.29581,0.2937 c 0,0 1.18161,-1.33191 0.29571,-3.46976 -0.88652,-2.14471 -3.25054,-1.10651 -3.02856,0.95622 0.18102,1.69393 1.32924,3.40145 3.47115,3.91376 2.14195,0.51912 3.76615,-0.95622 3.98815,-1.84413"
               style="fill:#000000;fill-opacity:1;fill-rule:nonzero;stroke:#000000;stroke-width:0.3985;stroke-linecap:butt;stroke-linejoin:miter;stroke-miterlimit:10;stroke-dasharray:none;stroke-opacity:1"
               id="path30" /><path
               d="m 28.99855,15.00848 c -2.73212,2.58862 0,4.43285 -0.29581,5.68956 -0.5211,2.21303 -2.73202,1.70073 -3.69234,1.25682 -1.0403,-0.485 -1.698,-2.14471 -0.36889,-2.21981 1.32921,-0.0683 2.65833,2.06952 2.65833,2.06952 -0.517,-1.33191 -1.32912,-2.06952 -2.14194,-2.28812 -0.81209,-0.22542 -2.36322,0.2937 -1.40291,2.0695 0.9603,1.76905 3.54485,1.32512 3.54485,1.32512 0.59082,1.55043 0.22129,3.25115 -2.28944,3.54485 -2.51083,0.2937 -4.20884,-1.84412 -4.57836,-2.95062 -0.36949,-1.10653 0.59082,-2.14473 2.06753,-0.96312 1.47672,1.18171 1.47672,3.54495 1.47672,3.54495 h 0.29641 c 0,0 -0.07441,-1.76903 -0.81282,-2.95066 -0.73831,-1.18161 -2.21572,-2.06961 -3.24914,-1.0382 -1.03401,1.0382 0.0731,3.46975 2.06753,4.50795 1.99443,1.03134 4.20945,0.44392 5.02157,-0.81281 0.81211,-1.25681 0.2958,-3.02583 0.2958,-3.02583 0,0 2.06752,-0.88791 1.47672,-3.25113 -0.40851,-1.63243 -0.73841,-2.06954 -0.59091,-3.02585 0.14759,-0.963 0.5171,-1.48212 0.5171,-1.48212"
               style="fill:#000000;fill-opacity:1;fill-rule:nonzero;stroke:#000000;stroke-width:0.3985;stroke-linecap:butt;stroke-linejoin:miter;stroke-miterlimit:10;stroke-dasharray:none;stroke-opacity:1"
               id="path32" /><path
               d="m 0.14769,17.32391 c 0,0 -0.39407,5.12267 3.24844,9.06371 3.64394,3.93425 8.8629,3.54497 10.14293,3.14874 0,0 -11.12645,0.58742 -13.39137,-12.21245"
               style="fill:#000000;fill-opacity:1;fill-rule:nonzero;stroke:#000000;stroke-width:0.3985;stroke-linecap:butt;stroke-linejoin:miter;stroke-miterlimit:10;stroke-dasharray:none;stroke-opacity:1"
               id="path34" /><path
               d="m 15.77928,12.87065 c 0,0 -5.46477,-0.44401 -5.39177,-5.68957 l -0.36879,0.3688 c 0,0 -0.95892,4.06395 3.61933,5.46417 0,0 1.47673,0.07511 2.14123,-0.1434"
               style="fill:#000000;fill-opacity:1;fill-rule:nonzero;stroke:#000000;stroke-width:0.3985;stroke-linecap:butt;stroke-linejoin:miter;stroke-miterlimit:10;stroke-dasharray:none;stroke-opacity:1"
               id="path36" /><path
               d="m 17.99501,13.31458 c 0,0 -1.40291,2.7321 -0.96031,4.05714 0.44331,1.33191 2.73285,3.10094 4.94787,2.43843 0,0 -1.55053,-0.36882 -2.80584,-1.33192 -1.25542,-0.95621 -1.55191,-2.28815 -1.47742,-3.31945 0.07442,-1.03141 0.2957,-1.8442 0.2957,-1.8442"
               style="fill:#000000;fill-opacity:1;fill-rule:nonzero;stroke:#000000;stroke-width:0.3985;stroke-linecap:butt;stroke-linejoin:miter;stroke-miterlimit:10;stroke-dasharray:none;stroke-opacity:1"
               id="path38" /><path
               d="m 15.21309,10.67812 c 0,0 -2.46164,-0.98351 -2.90485,-3.54485 0,0 -0.4433,0.68982 0.29572,2.02173 0.73839,1.32503 2.31343,2.01494 2.65762,1.81682 z M 14.67146,8.36269 c -0.64,-0.642 -1.1324,0.0478 -1.1324,0.0478 l 0.24649,0.1503 c 0,0 0.24591,-0.2937 0.64003,0.04781 0.39339,0.34831 0.09839,0.6898 0.09839,0.6898 l 0.14749,0.1981 c 0,0 0.64002,-0.49182 0,-1.13381 m 0.88593,2.65695 c -0.29581,0.9631 -2.43634,-0.14342 -3.24915,-1.91933 -0.8128,-1.76903 -0.222,-2.73204 -0.222,-2.73204 0.51772,0.44391 1.47733,0.81281 1.47733,0.81281 0,0 -0.1304,0.4712 -0.44252,0.22542 -0.4679,-0.36892 -0.51709,-0.15032 -0.51709,-0.15032 0.14749,0.66251 0.59009,0.88791 0.59009,0.88791 0,0 0.95012,-0.60101 1.62492,0 0.64001,0.56691 0.29581,0.88111 0.29581,1.40022 0,0.51911 0.66391,0.7377 0.66391,0.7377 0.29641,0 0.07441,-0.444 0.07441,-0.444 -0.22131,-0.3688 0.1475,-0.4371 0.1475,-0.4371 0.2213,0.1434 0.29579,0.73759 0.29579,0.73759 0.22131,0.58742 0.36951,0.66253 0.36951,0.66253 -0.22271,0.51911 -1.10851,0.21861 -1.10851,0.21861"
               style="fill:#000000;fill-opacity:1;fill-rule:nonzero;stroke:#000000;stroke-width:0.3985;stroke-linecap:butt;stroke-linejoin:miter;stroke-miterlimit:10;stroke-dasharray:none;stroke-opacity:1"
               id="path40" /><path
               d="m 19.20123,15.00848 c 0,0 -0.2458,0.68981 0.64072,1.57782 0.88591,0.88791 2.41171,0.88791 2.41171,0.88791 0,0 -1.62492,-0.24591 -3.05243,-2.46573 m 2.31414,0.05458 c -0.34423,-0.5464 -1.03412,-0.79219 -1.32923,-0.30047 l 0.2466,0.24589 c 0,0 0.39271,-0.1434 0.68921,0.1503 0.29442,0.2937 0,0.58741 0,0.58741 l 0.34421,0.30049 c 0,0 0.39412,-0.444 0.04921,-0.98362 m -1.13242,-1.0859 -0.88593,-0.15029 c 0,0 -0.04988,0.3005 0.24592,0.54639 0,0 0.4432,-0.10239 0.6898,-0.10239 z m 2.51143,3.69516 c 0,0.19121 -0.14819,0.38929 -0.14819,0.38929 -2.80585,-0.64211 -3.54496,-1.52311 -3.88916,-2.80723 -0.3449,-1.27722 0.39411,-2.26083 0.39411,-2.26083 l 0.24588,0.1981 c 0.54163,0.3893 1.18163,0.53961 1.18163,0.53961 v 0.53961 c 1.62492,0.15021 1.18163,2.02173 1.18163,2.02173 0.29508,0.4917 0.73899,0.5396 0.73899,0.5396 -0.14889,-0.4918 -0.14889,-1.22952 -0.14889,-1.22952 0.34559,0.09561 0.444,0.444 0.444,0.444 0,0.63522 0.29509,1.91934 0.29509,1.91934 -0.1476,-0.2937 -0.29509,-0.2937 -0.29509,-0.2937"
               style="fill:#000000;fill-opacity:1;fill-rule:nonzero;stroke:#000000;stroke-width:0.3985;stroke-linecap:butt;stroke-linejoin:miter;stroke-miterlimit:10;stroke-dasharray:none;stroke-opacity:1"
               id="path42" /><path
               d="m 17.70001,11.98274 c 0,0 0.66461,-1.18171 1.40222,-1.84424 0,0 -0.2944,-0.15019 -0.8114,0.36882 -0.51771,0.51232 -1.10794,1.47542 -0.59082,1.47542"
               style="fill:#000000;fill-opacity:1;fill-rule:nonzero;stroke:#000000;stroke-width:0.3985;stroke-linecap:butt;stroke-linejoin:miter;stroke-miterlimit:10;stroke-dasharray:none;stroke-opacity:1"
               id="path44" /><path
               d="m 20.62874,10.92403 c 0,0 -0.56549,0.90841 -0.93572,1.05871 -0.36877,0.15019 -0.59079,0.59419 -0.59079,0.59419 0,0 0.30872,0.22542 0.5177,-0.07518 0.36892,-0.53952 1.30463,-0.84013 1.00881,-1.57772"
               style="fill:#000000;fill-opacity:1;fill-rule:nonzero;stroke:#000000;stroke-width:0.3985;stroke-linecap:butt;stroke-linejoin:miter;stroke-miterlimit:10;stroke-dasharray:none;stroke-opacity:1"
               id="path46" /><path
               d="m 21.31866,11.32014 c 0,0 -0.04991,0.34148 0.295,0.34148 0.34502,0 0.5417,-0.24579 0.78821,-0.2937 0.24591,-0.04778 0.44261,-0.15019 0.29511,-0.6898 -0.14751,-0.53962 -0.34421,-1.03141 -0.34421,-1.42751 0,-0.39611 -0.14821,-0.78552 -0.8374,-1.03133 -0.68921,-0.24589 -0.54162,-0.5465 -0.98493,-0.7445 -0.4433,-0.1913 -1.52591,0.05459 -1.72261,0.7445 -0.1974,0.68302 0.2466,0.7854 0.2466,0.7854 0,0 0.29442,-0.64199 0.6393,-0.64199 0.34492,0 0.19671,0.3961 0,0.44392 -0.19671,0.04789 -0.6892,0.49179 -0.6892,0.78549 0,0 0.1476,0.30052 0.34432,0.30052 0,0 0.59149,-0.59422 1.18159,-0.68982 0.59151,-0.10249 0.83742,0.2937 1.03412,0.63521 0.1967,0.34832 0.29572,0.79232 0.5416,1.08602 0.24661,0.2937 -0.59079,0.44389 -0.7875,0.39611"
               style="fill:#000000;fill-opacity:1;fill-rule:nonzero;stroke:#000000;stroke-width:0.3985;stroke-linecap:butt;stroke-linejoin:miter;stroke-miterlimit:10;stroke-dasharray:none;stroke-opacity:1"
               id="path48" /><path
               d="m 23.04187,7.91869 c -0.24647,0 -0.19739,0.4918 0.04921,0.4918 0.24591,0 0.2951,-0.19121 0.2951,-0.19121 0,0 -0.09838,-0.30059 -0.34431,-0.30059 m 2.85574,1.48222 c -0.8374,0 -1.4774,0.5395 -1.4774,0.5395 C 24.17369,9.7424 24.2727,9.3462 24.2727,9.3462 c 0.29511,0.05471 0.59081,0 0.59081,0 -0.2957,0 -1.08391,-0.4439 -1.08391,-0.4439 -0.09772,-0.34151 -0.34431,-0.24591 -0.59013,-0.24591 -0.24658,0 -0.73909,-0.5396 -0.73909,-0.5396 0.29581,0 0.29581,-0.2937 0.29581,-0.2937 0,0 -0.39342,-0.34831 -0.54163,-0.49181 -0.1476,-0.1502 -0.29509,0.04779 -0.29509,0.04779 0,0 -0.24661,0.04792 -0.34491,-0.2458 -0.0984,-0.29372 -0.2459,-0.59431 -0.2459,-0.59431 -0.19671,-0.4917 0.0492,-0.7376 0.0492,-0.7376 0,0 -0.19672,0.15021 -0.49249,0.15021 -0.29512,0 -0.44263,0.1503 -0.44263,0.1503 -0.1967,-0.444 0.0977,-0.93572 0.34431,-1.03823 0.24581,-0.09559 0.39409,-0.9357 0.39409,-0.9357 0.14752,0.68981 0.78754,1.67342 0.88582,1.91932 0.0984,0.24591 0.73844,0.64199 1.23084,0.88792 0.4918,0.2459 0.3443,0.8401 0.3443,0.8401 0.59141,0 0.6898,0.34151 0.88719,0.49181 0.19671,0.1434 0.54092,0.63521 0.54092,0.63521 0.88591,-0.09569 0.8374,0.49861 0.8374,0.49861"
               style="fill:#000000;fill-opacity:1;fill-rule:nonzero;stroke:#000000;stroke-width:0.3985;stroke-linecap:butt;stroke-linejoin:miter;stroke-miterlimit:10;stroke-dasharray:none;stroke-opacity:1"
               id="path50" /><path
               d="m 24.617,7.8709 0.2957,0.1503 c 0,0 0.7383,-0.79232 -0.49249,-1.87154 -1.23074,-1.08602 -1.42813,-1.52991 -2.46223,-1.28401 0,0 -0.04851,0.39611 0.14818,0.34831 0.19741,-0.04781 0.54162,0.09558 0.83673,0.34151 0.2957,0.24589 1.18161,0.88789 1.47732,1.3319 C 24.716,7.33128 24.617,7.8709 24.617,7.8709"
               style="fill:#000000;fill-opacity:1;fill-rule:nonzero;stroke:#000000;stroke-width:0.3985;stroke-linecap:butt;stroke-linejoin:miter;stroke-miterlimit:10;stroke-dasharray:none;stroke-opacity:1"
               id="path52" /><path
               d="M 25.01111,6.14966 24.199,5.33685 c 0,0 -0.02531,0.56691 0.81211,0.81281"
               style="fill:#000000;fill-opacity:1;fill-rule:nonzero;stroke:#000000;stroke-width:0.3985;stroke-linecap:butt;stroke-linejoin:miter;stroke-miterlimit:10;stroke-dasharray:none;stroke-opacity:1"
               id="path54" /><path
               d="m 25.1586,5.11147 c 0,0 -0.8859,-0.88105 -0.93509,-1.12693 -0.04982,-0.24591 -0.19741,-0.59431 0.68919,-1.23633 0,0 -0.24661,-0.0478 -0.59149,0.19812 -0.34422,0.2459 -0.59011,0.93572 -0.24522,1.33191 0.34422,0.39611 0.83671,1.0313 0.83671,1.0313 z"
               style="fill:#000000;fill-opacity:1;fill-rule:nonzero;stroke:#000000;stroke-width:0.3985;stroke-linecap:butt;stroke-linejoin:miter;stroke-miterlimit:10;stroke-dasharray:none;stroke-opacity:1"
               id="path56" /><path
               d="m 25.1586,19.51645 0.66463,-0.07512 c 0,0 1.92062,-2.06961 3.24913,-6.64587 C 30.40218,8.21928 29.24516,4.63335 27.52184,2.60483 25.4543,0.16638 19.02913,-2.1968 11.27412,3.63612 c 0,0 3.10227,-1.76902 6.86849,-2.36322 3.76686,-0.5874 8.533,0.1366 10.11824,4.65136 1.47671,4.21424 -1.03401,11.74806 -3.10225,13.59219"
               style="fill:#000000;fill-opacity:1;fill-rule:nonzero;stroke:#000000;stroke-width:0.3985;stroke-linecap:butt;stroke-linejoin:miter;stroke-miterlimit:10;stroke-dasharray:none;stroke-opacity:1"
               id="path58" /></g></g></g></g></g></svg>
