<?xml version="1.0" encoding="UTF-8" standalone="no"?>
<svg
   xmlns:dc="http://purl.org/dc/elements/1.1/"
   xmlns:cc="http://creativecommons.org/ns#"
   xmlns:rdf="http://www.w3.org/1999/02/22-rdf-syntax-ns#"
   xmlns:svg="http://www.w3.org/2000/svg"
   xmlns="http://www.w3.org/2000/svg"
   xmlns:sodipodi="http://sodipodi.sourceforge.net/DTD/sodipodi-0.dtd"
   xmlns:inkscape="http://www.inkscape.org/namespaces/inkscape"
   version="1.1"
   id="svg2"
   xml:space="preserve"
   width="43.826668"
   height="58.040001"
   viewBox="0 0 43.826668 58.040001"
   sodipodi:docname="vectorian162.pdf"><metadata
     id="metadata8"><rdf:RDF><cc:Work
         rdf:about=""><dc:format>image/svg+xml</dc:format><dc:type
           rdf:resource="http://purl.org/dc/dcmitype/StillImage" /></cc:Work></rdf:RDF></metadata><defs
     id="defs6"><clipPath
       clipPathUnits="userSpaceOnUse"
       id="clipPath24"><path
         d="M 0,0 H 29.55276 V 43.53094 H 0 Z"
         id="path22" /></clipPath></defs><sodipodi:namedview
     pagecolor="#ffffff"
     bordercolor="#666666"
     borderopacity="1"
     objecttolerance="10"
     gridtolerance="10"
     guidetolerance="10"
     inkscape:pageopacity="0"
     inkscape:pageshadow="2"
     inkscape:window-width="640"
     inkscape:window-height="480"
     id="namedview4" /><g
     id="g10"
     inkscape:groupmode="layer"
     inkscape:label="vectorian162"
     transform="matrix(1.3333333,0,0,-1.3333333,0,58.04)"><g
       id="g12"
       transform="translate(72,-28.47)"><g
         id="g14"
         transform="translate(-72,28.47)"><g
           id="g16"><g
             id="g18"><g
               id="g20"
               clip-path="url(#clipPath24)"><path
                 d="m 14.80379,5.24005 c 0,0 -0.93433,-1.5778 -0.93433,-3.09404 0,-1.52321 1.04361,-1.89203 1.53882,-1.27041 0.49452,0.6283 0.67752,2.34953 -0.60449,4.36445 m 1.2267,1.86463 c -0.8421,0.69671 -1.28202,1.57782 -1.28202,1.57782 0,0 -0.51231,-1.02451 -1.19052,-1.57782 0,0 0.62291,-0.4917 1.20893,-1.05861 0,0 0.3484,0.32779 0.7507,0.64201 0.403,0.3074 0.51291,0.4166 0.51291,0.4166 m -1.28063,15.11529 c 0,0 -1.40289,-2.71844 -1.54979,-5.83977 -0.14682,-3.12144 1.59212,-6.01068 1.59212,-6.01068 0,0 1.54981,2.73894 1.57091,5.56668 0.0205,2.82773 -1.00531,5.43006 -1.61324,6.28377 m 0.85924,19.81447 c -0.20901,1.11339 -1.50813,1.23631 -1.80113,-0.16393 -0.2937,-1.40699 0.94261,-3.12133 0.94261,-3.12133 0.73351,0.9835 1.06891,2.17884 0.85852,3.28526 M 19.83765,6.25777 c 1.2445,0.2117 1.13861,1.01091 -0.02521,1.27043 -1.16531,0.26639 -2.83254,-0.47133 -2.83254,-0.47133 0.63451,-0.5327 1.61472,-1.0108 2.85775,-0.7991 M 24.4167,24.5491 c 0,0 -0.79371,-1.56413 -0.18449,-2.69792 0.60859,-1.14064 1.48221,-0.50542 1.5614,0.25948 0.07921,0.77182 -0.42351,1.83054 -1.37691,2.43844 m 1.74712,2.88234 c 0,0 1.03201,-1.45482 2.25053,-1.21573 1.21721,0.23902 0.58202,2.90964 -2.25053,1.21573 m -1.24312,2.09693 c 0,0 1.11131,1.05859 0.97952,2.03543 -0.1325,0.97671 -1.90632,0.9015 -0.97952,-2.03543 m -5.53317,8.5719 c -0.8196,0.34833 -2.24913,-1.00402 -2.24913,-1.00402 2.30313,-0.8197 3.07084,0.66252 2.24913,1.00402 M 12.57375,7.05687 c 0,0 -1.66791,0.73772 -2.83254,0.47133 C 8.57669,7.26868 8.4708,6.46947 9.7146,6.25777 c 1.24384,-0.2117 2.22324,0.2664 2.85915,0.7991 M 3.75932,22.11066 C 3.83853,21.34576 4.71214,20.71054 5.32074,21.85118 5.92926,22.98497 5.13567,24.5491 5.13567,24.5491 4.18283,23.9412 3.68013,22.88248 3.75932,22.11066 M 1.1386,26.21571 C 2.35641,25.97662 3.38911,27.43144 3.38911,27.43144 0.55658,29.12535 -0.07858,26.45473 1.1386,26.21571 M 3.65343,31.5638 C 3.52094,30.58696 4.63225,29.52837 4.63225,29.52837 5.55907,32.4653 3.78593,32.54051 3.65343,31.5638 m 8.76051,5.53245 c 0,0 -1.42892,1.35235 -2.24922,1.00402 -0.82102,-0.3415 -0.05332,-1.82372 2.24922,-1.00402 M 14.95677,23.2309 c 3.66786,4.72644 8.91213,2.24713 8.91213,2.24713 0.59419,0.70349 1.55041,1.6802 1.55041,1.6802 -0.4917,0.51911 -1.0081,1.27042 -1.0081,1.27042 -2.53134,-1.63242 -5.8125,-0.31419 -5.8125,-0.31419 -3.15222,1.50271 -3.38303,4.69924 -3.38303,4.69924 -0.25891,2.32905 0.95482,4.28937 0.95482,4.28937 -0.38722,0.25951 -1.05864,0.88111 -1.05864,0.88111 l -0.34428,0.29372 -0.32651,-0.29372 c 0,0 -0.67201,-0.6216 -1.05931,-0.88111 0,0 1.21442,-1.96032 0.95551,-4.28937 0,0 -0.2315,-3.19653 -3.38294,-4.69924 0,0 -3.28125,-1.31823 -5.81259,0.31419 0,0 -0.5163,-0.75131 -1.0074,-1.27042 0,0 0.9555,-0.97671 1.54971,-1.6802 0,0 5.24428,2.47931 8.91213,-2.24713 l 0.18579,-0.2527 z M 14.83318,0.00128 c -0.07921,-0.00676 -0.1803,0.0137 -0.1803,0.0137 -0.72672,0.15021 -1.39612,1.07232 -1.37973,2.37684 0.0178,1.42752 1.18301,3.14874 1.18301,3.14874 C 13.93437,6.36028 13.29095,6.68808 13.29095,6.68808 12.75204,6.32607 11.48222,5.34935 9.86491,5.54056 8.2475,5.73186 7.69008,7.12518 9.20369,7.7331 c 1.51294,0.60789 3.84337,-0.39611 3.84337,-0.39611 1.09689,0.8674 1.63522,2.08322 1.63522,2.08322 -0.59151,0.7103 -2.17415,3.31943 -2.22673,6.87119 -0.05189,3.54483 1.94872,6.39987 1.94872,6.39987 -3.65285,4.97237 -8.4019,2.41793 -8.4019,2.41793 0.33129,-0.9221 0.62701,-2.81402 -0.31281,-3.80444 -0.93912,-0.99722 -2.31343,-0.47131 -2.34824,1.07232 -0.03479,1.55052 1.58323,2.62962 1.58323,2.62962 -0.31281,0.83333 -1.11332,1.59834 -1.11332,1.59834 0,0 -1.02659,-0.93582 -2.41793,-0.81964 -1.39132,0.12293 -1.9479,1.57095 -0.696,2.28125 1.25271,0.71042 2.87083,-0.20489 2.87083,-0.20489 0.45212,0.3757 0.90431,1.2499 0.90431,1.2499 -1.13112,0.8196 -1.23561,2.08323 -1.23561,2.08323 -0.26022,1.87831 1.58322,1.72802 2.08801,0.53959 0.50402,-1.18159 -0.03488,-2.91652 -0.03488,-2.91652 3.44384,-2.05584 7.236,-0.05461 8.0529,3.00534 0.81751,3.05992 -0.74731,4.89046 -0.74731,4.89046 -1.25262,-0.2664 -2.55785,-0.28012 -3.14865,0.45079 -0.5909,0.73082 -0.0349,1.59824 1.21712,1.51635 1.25262,-0.08881 2.38304,-1.27055 2.38304,-1.27055 0.59149,0.29372 1.0785,1.03825 1.0785,1.03825 0,0 -1.0259,1.30459 -1.0259,3.02583 0,1.72802 1.46101,2.02172 1.46101,2.02172 0,0 0.16319,0.0478 0.2288,0.04101 0.0662,-0.0069 0.20281,-0.04101 0.20281,-0.04101 0,0 1.46172,-0.2937 1.46172,-2.02172 0,-1.72124 -1.02732,-3.02583 -1.02732,-3.02583 0,0 0.487,-0.74453 1.07922,-1.03825 0,0 1.1304,1.18174 2.38233,1.27055 1.25272,0.08189 1.80942,-0.78553 1.21791,-1.51635 -0.59151,-0.73091 -1.89612,-0.71719 -3.14804,-0.45079 0,0 -1.56552,-1.83054 -0.74791,-4.89046 0.81751,-3.05995 4.60896,-5.06118 8.0528,-3.00534 0,0 -0.5389,1.73493 -0.03489,2.91652 0.50481,1.18843 2.34824,1.33872 2.08733,-0.53959 0,0 -0.10381,-1.26363 -1.23493,-2.08323 0,0 0.4522,-0.8742 0.90441,-1.2499 0,0 1.61732,0.91531 2.87006,0.20489 1.2526,-0.7103 0.69599,-2.15832 -0.69602,-2.28125 -1.39061,-0.11618 -2.41724,0.81964 -2.41724,0.81964 0,0 -0.7998,-0.76501 -1.11331,-1.59834 0,0 1.61743,-1.0791 1.58322,-2.62962 -0.0355,-1.54363 -1.40901,-2.06954 -2.34823,-1.07232 -0.93982,0.99042 -0.6434,2.88234 -0.31349,3.80444 0,0 -4.74837,2.55444 -8.40113,-2.41793 0,0 2.00052,-2.85504 1.94793,-6.39987 -0.0519,-3.55176 -1.63442,-6.16089 -2.22593,-6.87119 0,0 0.53891,-1.21582 1.63513,-2.08322 0,0 2.33043,1.004 3.84334,0.39611 1.51291,-0.60792 0.95691,-2.00124 -0.6611,-2.19254 -1.61742,-0.19121 -2.88714,0.78551 -3.42604,1.14752 0,0 -0.64412,-0.3278 -1.16531,-1.14752 0,0 1.16531,-1.72122 1.18231,-3.14874 0.0157,-1.25672 -0.60652,-2.16514 -1.30322,-2.35643 0,0 -0.06281,-0.02041 -0.1427,-0.03411"
                 style="fill:#000000;fill-opacity:1;fill-rule:nonzero;stroke:#000000;stroke-width:0.3985;stroke-linecap:butt;stroke-linejoin:miter;stroke-miterlimit:10;stroke-dasharray:none;stroke-opacity:1"
                 id="path26" /><path
                 d="m 10.87842,31.1744 c 0,0 -1.91443,1.76221 -2.65762,3.01902 -0.7417,1.25673 -1.06272,1.35233 -2.00535,1.55042 0,0 -0.12979,-1.21581 1.46854,-1.95342 0,0 1.30592,-0.7104 3.19443,-2.61602"
                 style="fill:#000000;fill-opacity:1;fill-rule:nonzero;stroke:#000000;stroke-width:0.3985;stroke-linecap:butt;stroke-linejoin:miter;stroke-miterlimit:10;stroke-dasharray:none;stroke-opacity:1"
                 id="path28" /><path
                 d="m 12.03754,32.1921 c 0,0 -0.82512,0.99722 -1.38852,1.46171 -0.56281,0.46442 -0.4379,1.15433 -0.4379,1.15433 0,0 0.78822,0.12289 1.0013,-0.86751 0,0 0.21251,-0.62153 0.82512,-1.74853"
                 style="fill:#000000;fill-opacity:1;fill-rule:nonzero;stroke:#000000;stroke-width:0.3985;stroke-linecap:butt;stroke-linejoin:miter;stroke-miterlimit:10;stroke-dasharray:none;stroke-opacity:1"
                 id="path30" /><path
                 d="m 9.58,29.86987 c 0,0 -1.2198,0.4439 -1.93973,0.55321 -0.72059,0.1161 -0.9617,0.77181 -0.9617,0.77181 0,0 0.61611,0.51231 1.30051,-0.23221 0,0 0.50061,-0.43711 1.60092,-1.09281"
                 style="fill:#000000;fill-opacity:1;fill-rule:nonzero;stroke:#000000;stroke-width:0.3985;stroke-linecap:butt;stroke-linejoin:miter;stroke-miterlimit:10;stroke-dasharray:none;stroke-opacity:1"
                 id="path32" /><path
                 d="m 18.59734,31.1744 c 0,0 1.9145,1.76221 2.65622,3.01902 0.74382,1.25673 1.06422,1.35233 2.00672,1.55042 0,0 0.13052,-1.21581 -1.46781,-1.95342 0,0 -1.30733,-0.7104 -3.19513,-2.61602"
                 style="fill:#000000;fill-opacity:1;fill-rule:nonzero;stroke:#000000;stroke-width:0.3985;stroke-linecap:butt;stroke-linejoin:miter;stroke-miterlimit:10;stroke-dasharray:none;stroke-opacity:1"
                 id="path34" /><path
                 d="m 17.43822,32.1921 c 0,0 0.82578,0.99722 1.38861,1.46171 0.56282,0.46442 0.4378,1.15433 0.4378,1.15433 0,0 -0.78822,0.12289 -1.00063,-0.86751 0,0 -0.21307,-0.62153 -0.82578,-1.74853"
                 style="fill:#000000;fill-opacity:1;fill-rule:nonzero;stroke:#000000;stroke-width:0.3985;stroke-linecap:butt;stroke-linejoin:miter;stroke-miterlimit:10;stroke-dasharray:none;stroke-opacity:1"
                 id="path36" /><path
                 d="m 19.89644,29.86987 c 0,0 1.21982,0.4439 1.93913,0.55321 0.72051,0.1161 0.96161,0.77181 0.96161,0.77181 0,0 -0.6154,0.51231 -1.30041,-0.23221 0,0 -0.50072,-0.43711 -1.60033,-1.09281"
                 style="fill:#000000;fill-opacity:1;fill-rule:nonzero;stroke:#000000;stroke-width:0.3985;stroke-linecap:butt;stroke-linejoin:miter;stroke-miterlimit:10;stroke-dasharray:none;stroke-opacity:1"
                 id="path38" /><path
                 d="m 11.83264,23.20358 c 0,0 -1.45212,-2.15152 -1.88103,-3.55174 C 9.5227,18.25842 9.2317,18.09451 8.36089,17.67792 c 0,0 -0.40779,1.14741 0.97331,2.24032 0,0 1.10582,0.99723 2.49844,3.28534"
                 style="fill:#000000;fill-opacity:1;fill-rule:nonzero;stroke:#000000;stroke-width:0.3985;stroke-linecap:butt;stroke-linejoin:miter;stroke-miterlimit:10;stroke-dasharray:none;stroke-opacity:1"
                 id="path40" /><path
                 d="m 12.72536,22.74588 c 0,0 -0.40842,-1.23621 -0.76631,-1.87141 -0.35791,-0.62842 0.0075,-1.22944 0.0075,-1.22944 0,0 0.78001,0.1707 0.62152,1.16791 0,0 -0.02733,0.66252 0.1373,1.93294"
                 style="fill:#000000;fill-opacity:1;fill-rule:nonzero;stroke:#000000;stroke-width:0.3985;stroke-linecap:butt;stroke-linejoin:miter;stroke-miterlimit:10;stroke-dasharray:none;stroke-opacity:1"
                 id="path42" /><path
                 d="m 10.49252,23.7431 c 0,0 -1.05112,-0.75813 -1.71302,-1.06552 -0.66182,-0.3005 -0.7144,-1.00403 -0.7144,-1.00403 0,0 0.73149,-0.31419 1.18641,0.58742 0,0 0.3634,0.55321 1.24101,1.48213"
                 style="fill:#000000;fill-opacity:1;fill-rule:nonzero;stroke:#000000;stroke-width:0.3985;stroke-linecap:butt;stroke-linejoin:miter;stroke-miterlimit:10;stroke-dasharray:none;stroke-opacity:1"
                 id="path44" /><path
                 d="m 18.15471,23.20358 c 0,0 1.45143,-2.15152 1.88104,-3.55174 0.4289,-1.39342 0.71919,-1.55733 1.59081,-1.97392 0,0 0.40699,1.14741 -0.97402,2.24032 0,0 -1.10512,0.99723 -2.49783,3.28534"
                 style="fill:#000000;fill-opacity:1;fill-rule:nonzero;stroke:#000000;stroke-width:0.3985;stroke-linecap:butt;stroke-linejoin:miter;stroke-miterlimit:10;stroke-dasharray:none;stroke-opacity:1"
                 id="path46" /><path
                 d="m 17.2613,22.74588 c 0,0 0.40781,-1.23621 0.76641,-1.87141 0.35722,-0.62842 -0.0082,-1.22944 -0.0082,-1.22944 0,0 -0.78002,0.1707 -0.62092,1.16791 0,0 0.02802,0.66252 -0.1373,1.93294"
                 style="fill:#000000;fill-opacity:1;fill-rule:nonzero;stroke:#000000;stroke-width:0.3985;stroke-linecap:butt;stroke-linejoin:miter;stroke-miterlimit:10;stroke-dasharray:none;stroke-opacity:1"
                 id="path48" /><path
                 d="m 19.49413,23.7431 c 0,0 1.05113,-0.75813 1.71302,-1.06552 0.66251,-0.3005 0.71372,-1.00403 0.71372,-1.00403 0,0 -0.7301,-0.31419 -1.18642,0.58742 0,0 -0.36331,0.55321 -1.24032,1.48213"
                 style="fill:#000000;fill-opacity:1;fill-rule:nonzero;stroke:#000000;stroke-width:0.3985;stroke-linecap:butt;stroke-linejoin:miter;stroke-miterlimit:10;stroke-dasharray:none;stroke-opacity:1"
                 id="path50" /></g></g></g></g></g></g></svg>
