<?xml version="1.0" encoding="UTF-8" standalone="no"?>
<svg
   xmlns:dc="http://purl.org/dc/elements/1.1/"
   xmlns:cc="http://creativecommons.org/ns#"
   xmlns:rdf="http://www.w3.org/1999/02/22-rdf-syntax-ns#"
   xmlns:svg="http://www.w3.org/2000/svg"
   xmlns="http://www.w3.org/2000/svg"
   xmlns:sodipodi="http://sodipodi.sourceforge.net/DTD/sodipodi-0.dtd"
   xmlns:inkscape="http://www.inkscape.org/namespaces/inkscape"
   version="1.1"
   id="svg2"
   xml:space="preserve"
   width="238.57333"
   height="60.466667"
   viewBox="0 0 238.57333 60.466667"
   sodipodi:docname="vectorian081.pdf"><metadata
     id="metadata8"><rdf:RDF><cc:Work
         rdf:about=""><dc:format>image/svg+xml</dc:format><dc:type
           rdf:resource="http://purl.org/dc/dcmitype/StillImage" /></cc:Work></rdf:RDF></metadata><defs
     id="defs6"><clipPath
       clipPathUnits="userSpaceOnUse"
       id="clipPath26"><path
         d="M 0,-0.61708 H 175.60976 V 44.73787 H 0 Z"
         id="path24" /></clipPath></defs><sodipodi:namedview
     pagecolor="#ffffff"
     bordercolor="#666666"
     borderopacity="1"
     objecttolerance="10"
     gridtolerance="10"
     guidetolerance="10"
     inkscape:pageopacity="0"
     inkscape:pageshadow="2"
     inkscape:window-width="640"
     inkscape:window-height="480"
     id="namedview4" /><g
     id="g10"
     inkscape:groupmode="layer"
     inkscape:label="vectorian081"
     transform="matrix(1.3333333,0,0,-1.3333333,0,60.466667)"><g
       id="g12"
       transform="translate(72,-26.646)"><g
         id="g14"
         transform="translate(-72,27.263)"><g
           id="g16"><g
             id="g18"><path
               d="m 53.35707,27.90675 c 0,0 5.11327,-0.93632 5.11327,-5.59518 0,-4.63596 -5.57466,-4.63596 -5.57466,-4.63596 0,0 8.36758,-1.87263 8.36758,4.63596 0,6.50868 -7.90619,5.59518 -7.90619,5.59518 z"
               style="fill:#000000;fill-opacity:1;fill-rule:nonzero;stroke:#000000;stroke-width:0.3985;stroke-linecap:butt;stroke-linejoin:miter;stroke-miterlimit:10;stroke-dasharray:none;stroke-opacity:1"
               id="path20" /><g
               id="g22"
               clip-path="url(#clipPath26)"><path
                 d="m 175.47964,24.367 c -18.77684,0 -41.97503,6.34877 -46.43289,7.6276 -5.78927,1.66711 -15.63211,1.66711 -19.32946,-4.61316 -0.756,2.21522 -1.99602,3.56264 -3.10134,4.36196 -2.27463,1.64431 -6.05186,2.35223 -8.39039,2.00973 0.29461,0.98199 2.55093,3.90515 0.44299,7.14807 -1.64652,2.51205 -4.83696,3.83667 -9.63053,3.83667 -6.66157,0 -10.95964,-1.57582 -12.78886,-4.68167 -0.69881,-1.2104 -0.94549,-2.46645 -0.94549,-3.65395 0,-1.1876 0.25119,-2.23813 0.52761,-3.10594 -2.32486,0.31982 -5.14758,0.06849 -7.41073,-1.55291 -1.02089,-0.73081 -2.14441,-1.96403 -2.90721,-3.85946 -2.42764,3.12865 -7.00191,5.00136 -12.38697,5.00136 -4.62227,0 -11.48484,-1.98692 -18.74714,-4.08794 C 28.21996,26.99324 21.85066,25.1663 16.73509,24.52681 L -9e-5,22.42578 0.12779,20.34755 c 18.77913,0 41.97275,-6.37158 46.43289,-7.62759 5.70017,-1.64434 15.32612,-1.66712 19.14904,4.33906 0.59152,-1.37024 1.41824,-2.53496 2.50294,-3.51695 2.40714,-2.14673 5.41937,-2.76335 7.5455,-2.94605 C 75.50006,9.70543 75.26944,8.58641 75.09355,6.85077 75.07304,6.62238 75.06384,6.39398 75.06384,6.18846 c 0,-1.43872 0.49793,-2.67193 1.49364,-3.65394 3.20174,-3.1516 10.54852,-2.51214 11.38214,-2.42084 0.84721,-0.15976 5.48317,-0.36536 8.65302,1.75853 4.18385,2.78613 1.08931,8.31282 0.9295,9.29483 2.05533,0.02278 6.48579,-0.13712 9.30852,2.37503 1.21721,1.09621 2.12613,2.46643 2.72442,4.06505 0.0891,-0.15992 0.16221,-0.29691 0.25812,-0.4339 2.34992,-3.35706 7.0887,-5.34398 12.67235,-5.34398 4.61546,0 11.48267,1.98692 18.74725,4.08795 6.16149,1.78122 12.53077,3.63106 17.64183,4.27055 l 16.73513,2.10103 z M 64.69801,19.63965 C 62.2179,12.83415 51.79726,13.38216 47.1361,14.72957 c -3.62197,1.02771 -19.49166,5.36677 -35.47317,7.03389 2.31574,0.29692 5.33028,0.68512 5.33028,0.68512 5.27766,0.63951 11.72696,2.53503 17.96603,4.33915 7.11838,2.05532 13.84179,4.01935 18.16713,4.01935 4.82556,0 9.02761,-1.71281 10.95503,-4.47615 0.2946,-0.41101 0.52532,-0.86783 0.71032,-1.32452 -0.09371,-0.68511 -0.1622,-1.41593 -0.1622,-2.21523 0,-0.95921 0.07539,-1.84982 0.2055,-2.67193 -0.0433,-0.1599 -0.08452,-0.31972 -0.13701,-0.4796 z m 40.74413,-4.52176 C 102.7427,12.69705 95.65172,13.90746 94.2655,13.95317 94.1102,14.04446 96.12453,11.62373 96.25014,6.87358 96.28203,5.61755 96.09023,4.70404 95.38452,4.06453 93.55069,2.42032 89.70265,1.895 88.19531,2.19191 l -0.1575,0.02281 -0.1599,-0.02281 c -2.00282,-0.20549 -7.68019,-0.3197 -9.85201,1.82703 -0.58002,0.5937 -0.87012,1.30171 -0.87012,2.16952 0,0.15982 0.0092,0.29691 0.0206,0.45671 0.24202,2.37513 2.68102,5.91487 2.68102,5.91487 -0.3242,0.47962 -2.80662,0.18271 -2.97563,0.06852 -1.72421,0.04568 -4.94425,0.38829 -7.28738,2.48933 -1.33832,1.21031 -2.20384,2.85463 -2.60344,4.88716 0.48871,1.84981 0.459,3.63113 -0.06401,5.22975 0.37451,2.16954 1.28572,3.76814 2.72225,4.81867 2.32713,1.66713 5.52665,1.48442 7.55,0.79931 L 79.74553,30.00777 78.44841,32.36 c -0.02281,0.02292 -2.06905,3.79106 -0.39282,6.64569 1.40901,2.37503 5.20917,3.65395 10.98243,3.65395 4.02168,0 6.6617,-0.95911 7.84922,-2.85463 1.85211,-2.96886 -1.22632,-6.05188 -1.24922,-6.0976 l -1.08701,-2.23803 2.35902,0.77642 c 2.02802,0.6851 6.15018,-0.5252 8.48412,-2.19233 1.91603,-1.39312 2.89572,-3.79103 2.91634,-7.14807 -0.0297,-0.36542 -0.0388,-0.73082 -0.0297,-1.09624 -0.17131,-2.90033 -1.1167,-5.13837 -2.83864,-6.69127 z m 53.17439,7.14809 c -5.27766,-0.66231 -11.72694,-2.53504 -17.96843,-4.33916 -7.1184,-2.07823 -13.83937,-4.01936 -18.16255,-4.01936 -4.83005,0 -9.0275,1.71283 -10.95963,4.47616 -0.71701,1.0276 -1.09611,2.14662 -1.15782,3.37984 0.0206,0.31981 0.0388,0.66232 0.0388,1.02772 0,0.0228 -0.004,0.04569 -0.004,0.0913 0.0776,0.68519 0.23518,1.41592 0.51379,2.16963 2.47554,6.80548 12.89858,6.25737 17.55503,4.93288 3.62654,-1.02773 19.49165,-5.38969 35.47557,-7.05681 -2.31575,-0.27401 -5.33028,-0.6622 -5.33028,-0.6622 z"
                 style="fill:#000000;fill-opacity:1;fill-rule:nonzero;stroke:#000000;stroke-width:0.3985;stroke-linecap:butt;stroke-linejoin:miter;stroke-miterlimit:10;stroke-dasharray:none;stroke-opacity:1"
                 id="path28" /><path
                 d="m 114.34636,22.40297 c 0,-6.50867 7.9017,-5.59517 7.9017,-5.59517 0,0 -5.10867,0.93631 -5.10867,5.59517 0,4.63597 5.57457,4.63597 5.57457,4.63597 0,0 -8.3676,1.87262 -8.3676,-4.63597 z"
                 style="fill:#000000;fill-opacity:1;fill-rule:nonzero;stroke:#000000;stroke-width:0.3985;stroke-linecap:butt;stroke-linejoin:miter;stroke-miterlimit:10;stroke-dasharray:none;stroke-opacity:1"
                 id="path30" /><path
                 d="m 93.35197,24.3213 c -0.55947,2.19233 -2.26771,3.90516 -4.44404,4.49895 -1.22182,2.53493 -2.32263,9.50032 -2.32263,9.50032 0,-3.26575 -1.85663,-9.77441 -1.85663,-9.77441 h 0.13022 c -1.75853,-0.7536 -3.11055,-2.28372 -3.60837,-4.17916 -3.15843,-1.0734 -8.6005,-2.99174 -8.6005,-2.99174 l 5.53118,-0.34251 c 1.81782,0 2.85464,-0.434 3.44383,-0.89071 0.7034,-1.50721 1.99144,-2.69484 3.56265,-3.26574 1.13272,-2.83184 2.10562,-8.97502 2.10562,-8.97502 0,2.51203 1.0939,6.89679 1.60093,8.81521 1.74012,0.47952 3.17665,1.66713 3.98045,3.24286 v -0.43391 c 3.71796,2.78613 9.76302,2.78613 9.76302,2.78613 l -5.92858,1.16472 c -1.91832,0 -2.87753,0.43391 -3.35715,0.84501 z m -6.05415,-6.41728 c -2.69475,0 -4.88487,2.19232 -4.88487,4.88716 0,2.67192 2.19012,4.86435 4.88487,4.86435 2.69022,0 4.87805,-2.19243 4.87805,-4.86435 0,-2.69484 -2.18783,-4.88716 -4.87805,-4.88716 z"
                 style="fill:#000000;fill-opacity:1;fill-rule:nonzero;stroke:#000000;stroke-width:0.3985;stroke-linecap:butt;stroke-linejoin:miter;stroke-miterlimit:10;stroke-dasharray:none;stroke-opacity:1"
                 id="path32" /></g></g></g></g></g></g></svg>
