<?xml version="1.0" encoding="UTF-8" standalone="no"?>
<svg
   xmlns:dc="http://purl.org/dc/elements/1.1/"
   xmlns:cc="http://creativecommons.org/ns#"
   xmlns:rdf="http://www.w3.org/1999/02/22-rdf-syntax-ns#"
   xmlns:svg="http://www.w3.org/2000/svg"
   xmlns="http://www.w3.org/2000/svg"
   xmlns:sodipodi="http://sodipodi.sourceforge.net/DTD/sodipodi-0.dtd"
   xmlns:inkscape="http://www.inkscape.org/namespaces/inkscape"
   version="1.1"
   id="svg2"
   xml:space="preserve"
   width="61.821426"
   height="40.288296"
   viewBox="0 0 61.821426 40.288296"
   sodipodi:docname="vectorian105.pdf"><metadata
     id="metadata8"><rdf:RDF><cc:Work
         rdf:about=""><dc:format>image/svg+xml</dc:format><dc:type
           rdf:resource="http://purl.org/dc/dcmitype/StillImage" /></cc:Work></rdf:RDF></metadata><defs
     id="defs6" /><sodipodi:namedview
     pagecolor="#ffffff"
     bordercolor="#666666"
     borderopacity="1"
     objecttolerance="10"
     gridtolerance="10"
     guidetolerance="10"
     inkscape:pageopacity="0"
     inkscape:pageshadow="2"
     inkscape:window-width="640"
     inkscape:window-height="480"
     id="namedview4" /><g
     id="g10"
     inkscape:groupmode="layer"
     inkscape:label="vectorian105"
     transform="matrix(1.3333333,0,0,-1.3333333,1.9435899,40.262204)"><g
       id="g12"
       transform="translate(72,-41.673)"><g
         id="g14"
         transform="translate(-72,41.852)"><g
           id="g16"><g
             id="g18"><path
               d="m 37.02386,8.4353 c 0,0 -1.87011,0.19669 -4.28316,-2.51144 C 30.32758,3.21703 28.11253,0.754 25.30663,0.90288 c 0,0 2.31271,0.19672 4.28254,2.60914 1.96921,2.41184 4.48064,5.56328 7.43469,4.92328"
               style="fill:#000000;fill-opacity:1;fill-rule:nonzero;stroke:#000000;stroke-width:0.3985;stroke-linecap:butt;stroke-linejoin:miter;stroke-miterlimit:10;stroke-dasharray:none;stroke-opacity:1"
               id="path20" /><path
               d="m 38.20618,8.3376 c 0,0 -1.98622,-1.18092 -2.90413,-2.65964 C 34.16823,3.85632 32.69151,0.6564 29.39386,0.8039 c 0,0 2.90483,0.2971 4.28256,3.24984 1.03342,2.21503 3.39664,4.43146 4.52976,4.28386"
               style="fill:#000000;fill-opacity:1;fill-rule:nonzero;stroke:#000000;stroke-width:0.3985;stroke-linecap:butt;stroke-linejoin:miter;stroke-miterlimit:10;stroke-dasharray:none;stroke-opacity:1"
               id="path22" /><path
               d="m 37.71237,6.31796 c 0,0 -1.37761,-1.52522 -2.16513,-2.90353 C 34.76033,2.03542 33.18391,0.754 31.7564,0.754 c 0,0 1.5956,0.53622 2.41183,1.52731 1.37901,1.67333 2.46153,4.13637 3.54414,4.03665"
               style="fill:#000000;fill-opacity:1;fill-rule:nonzero;stroke:#000000;stroke-width:0.3985;stroke-linecap:butt;stroke-linejoin:miter;stroke-miterlimit:10;stroke-dasharray:none;stroke-opacity:1"
               id="path24" /><path
               d="m 33.28232,9.22351 c 0,0 0.54161,2.26492 2.26492,2.70822 1.72392,0.44252 3.59337,-0.88661 3.93967,-3.15083 0.34349,-2.26492 -1.18164,-4.62817 -3.05385,-5.31796 0,0 2.01831,1.4275 2.31484,3.88974 0.295,2.46093 -0.68923,3.69244 -2.21644,3.69244 -2.51085,0 -3.24914,-1.82161 -3.24914,-1.82161"
               style="fill:#000000;fill-opacity:1;fill-rule:nonzero;stroke:#000000;stroke-width:0.3985;stroke-linecap:butt;stroke-linejoin:miter;stroke-miterlimit:10;stroke-dasharray:none;stroke-opacity:1"
               id="path26" /><path
               d="m 38.69798,12.22604 c 0,0 2.26422,-1.03402 2.75734,-3.44584 0.49179,-2.41243 -2.01964,-6.7954 -6.40059,-6.25307 0,0 1.42821,0.04988 2.51145,0.5417 1.08331,0.49111 2.65772,1.3783 3.10162,3.98815 0.44121,2.60983 -0.1482,3.54484 -1.96982,5.16906"
               style="fill:#000000;fill-opacity:1;fill-rule:nonzero;stroke:#000000;stroke-width:0.3985;stroke-linecap:butt;stroke-linejoin:miter;stroke-miterlimit:10;stroke-dasharray:none;stroke-opacity:1"
               id="path28" /><path
               d="m 27.55853,13.95007 c 0,0 -0.92271,-0.11142 -1.3291,-1.10792 0,0 -0.11072,-0.18509 -0.44331,-0.03691 -0.33132,0.14821 -2.88033,2.21504 -4.06125,2.62214 0,0 2.14133,-0.5915 4.28255,0.11 2.14263,0.70211 3.39805,1.92063 3.39805,1.92063 l 0.11,-0.81211 c 0,0 -0.73771,-0.6652 -1.25613,-1.40364 -0.51569,-0.73829 -0.44119,-1.07029 -0.2582,-1.29219 z m -2.54762,-3.05385 c 0,0 -1.52592,0.64142 -5.21896,0.29641 l -2.06684,1.42752 c 0,0 0.39411,0.3941 0.98352,0.3941 0,0 -1.57573,0.0499 -2.26423,0.34502 -0.6884,0.29429 -1.13312,0.0983 -1.13312,0.0983 0,0 1.33052,-1.52584 0,-3.10164 C 13.98146,8.7809 12.21034,8.0918 9.99463,6.17107 c 0,0 -0.14823,0.34491 0.44188,1.72261 0.59221,1.37832 2.26564,6.05639 3.39876,7.238 0,0 0.2452,-0.88661 0.9344,-0.54171 0.68982,0.34431 0.68982,1.67413 1.52652,1.96923 0.83671,0.29572 3.83995,0.099 9.60123,-4.18495 z m -9.00971,0.0014 c 0,0 0.58939,0.34418 0.4432,1.37902 0,0 0.2944,0.14679 0.88661,-0.14823 0.5901,-0.29579 1.32841,-0.88661 1.32841,-0.88661 0,0 -1.77241,0.04991 -2.65822,-0.34418 M 8.61491,4.97784 c 0,0 -1.99304,2.54635 -2.76895,6.16628 -0.77589,3.61867 -0.22059,8.71402 3.21364,12.14757 l 0.51502,-0.70142 c 0,0 -2.10445,-2.21503 -2.50945,-6.01817 C 6.65878,12.76834 7.65529,7.85678 9.50221,6.30637 Z M 7.69287,4.27573 c 0,0 -1.77312,1.03341 -3.13852,4.24568 C 3.18764,11.73364 1.4514,19.74683 7.7291,25.0273 l 0.6284,-0.73839 c 0,0 -2.40024,-1.73553 -3.36125,-6.2032 C 4.03665,13.61736 5.66226,8.22699 8.2092,4.57074 Z m -5.28046,8.78842 c -0.8128,3.98814 -0.14819,9.96872 4.35697,12.92418 0,0 0.3696,0.22061 0.66389,-0.37023 0,0 -4.35624,-3.61862 -4.65205,-9.37861 -0.29498,-5.76056 1.92003,-8.56641 1.92003,-8.56641 0,0 -1.47672,1.40222 -2.28884,5.39107 m -0.2957,15.2874 c 0,0 6.05569,0.7377 8.41892,-4.65276 L 9.94482,23.18037 c 0,0 -1.69872,4.50527 -7.82811,5.17118 m 8.93523,-0.444 -2.21504,-1.32984 -0.5908,0.44471 c 0,0 1.6249,0.88513 2.80584,0.88513 M 9.50221,19.26663 9.871,17.2729 c 0,0 -1.18161,-1.4767 -1.8455,-3.47114 0,0 0.36879,3.32294 1.47671,5.46487 m 1.6611,2.21573 c 0,0 0.92273,-4.35766 -1.07029,-8.86221 0,0 0.73761,4.43214 -0.22202,7.75509 0,0 0.66463,0.88652 1.29231,1.10712 M 8.39429,10.47893 8.09789,12.54645 c 0,0 1.40432,3.10223 1.69871,3.84065 0,0 0.22192,-4.50456 -1.40231,-5.90817 m 11.00425,10.63463 c 0,0 -3.61935,1.25611 -7.6813,-1.18161 l -0.07381,0.66459 c 0,0 3.17604,2.73204 7.75511,0.51702 M 44.70517,9.41951 c -0.0984,2.75743 -2.41383,4.18555 -2.41383,4.18555 1.18159,3.24986 -0.44123,5.80989 -0.44123,5.80989 0,1.18159 -0.14819,1.87071 -0.64129,2.51072 -0.4925,0.64071 -1.52662,0.83742 -2.01833,1.28072 -0.49181,0.4426 -1.03342,0.6884 -2.01842,1.23071 -0.98491,0.5417 -1.03471,1.13251 -1.03471,1.13251 -1.18163,-0.78751 -2.01764,0.19672 -2.01764,0.19672 -0.04991,0.54159 -0.29579,1.0334 -0.73972,1.08191 -0.44198,0.0498 -0.68849,-0.1462 -0.68849,-0.1462 0.98491,-0.14752 1.52652,-1.38034 1.42821,-2.16724 -0.09911,-0.7882 -0.68921,-1.52513 -1.32921,-1.62423 -0.63931,-0.09899 -0.78752,0.0991 -0.78752,0.0991 0,0 0.39341,0.29572 0.49181,0.54161 0.09759,0.24592 0.3442,0.44262 0.3442,0.44262 -0.29438,0 -0.3934,0.1974 -0.3934,0.1974 l -0.3941,-0.29651 c -0.4426,-0.196 -0.59082,0.19741 -0.59082,0.19741 0,0 0.44261,0.2958 0.0977,0.2958 -0.34358,0 -0.88519,-0.34561 -0.88519,-0.34561 l -0.19741,0.78822 c 0,0 0.14679,0.739 -0.44261,1.27861 -0.5915,0.543 -0.4931,1.23282 -0.4931,1.23282 0.34489,-0.05051 0.44319,0.2459 0.44319,0.2459 -0.73759,0 -1.0825,0.64001 -1.0825,0.64001 -0.29509,-0.5908 0.3934,-0.93642 0.3934,-0.93642 -0.34432,-0.39349 0,-1.57513 0,-1.57513 -0.54169,-0.34349 -1.08261,0.44403 -1.08261,0.44403 0.58941,-1.13313 1.57641,-0.68993 1.57641,-0.68993 0.6393,-0.4917 0.54023,-1.6733 0.54023,-1.6733 0,0 0.44259,-0.14821 0.6407,-0.14821 h 0.24591 c 0.29509,-0.19679 0.8367,0 0.8367,0 0,-0.2459 -0.4426,-0.68921 -0.4426,-0.68921 1.2301,-1.1331 1.91931,-0.19669 1.91931,-0.19669 0.59151,0 0.29572,-0.59154 0.24591,-0.93641 -0.04789,-0.34432 0.19798,-0.39283 0.19798,-0.39283 0.59023,0 0.34432,0.68993 0.49113,1.52593 0.14819,0.83742 0,2.01902 0,2.01902 0.64071,-0.2958 1.37971,0 1.37971,0 0.68852,-1.2322 1.62422,-1.28001 1.92003,-1.28001 0.2957,0 0.4917,-0.24659 0.4917,-0.24659 0.64001,-1.13242 1.67343,-1.23072 1.67343,-1.23072 0,0 0.7397,-0.09912 1.0348,-1.23024 0.29502,-1.1331 0.09972,-2.70953 0.09972,-2.70953 0.3934,-0.14749 1.13112,-2.46021 0.7376,-3.69174 -0.3947,-1.2307 -0.98552,-1.1816 -2.01891,-1.2307 -1.03341,-0.0492 -3.64395,0 -5.07147,0 -1.42752,0 -1.82163,-1.28003 -1.82163,-1.28003 -0.1967,-0.88661 -1.13181,-1.32982 -1.13181,-1.32982 0.78822,0.78822 0.7384,1.32982 0.7384,1.32982 -0.1482,-0.4426 -0.59151,-0.6407 -0.59151,-0.6407 l 0.29501,0.6407 c -0.68841,0 -1.08252,-0.93512 -1.08252,-0.93512 -0.2951,0.53961 -0.14689,0.98431 0.49312,1.67273 0.63931,0.6906 1.32912,1.13322 1.32912,1.13322 0.98361,0.04779 2.36403,0.78749 2.90492,0.98421 0.5416,0.1974 1.72324,0.5901 2.55994,0.64 0.83672,0.0491 1.52522,0.44322 1.52522,0.44322 -1.08261,0.19739 -0.93443,1.28072 -0.88591,1.82231 0.0506,0.54102 0.78821,0.59082 0.78821,0.59082 -1.52583,0 -1.32982,1.86942 -1.32982,2.60913 0,0.73841 -1.13173,0.88591 -1.13173,0.88591 l 0.19733,-0.04919 c 0.19679,-0.0498 0.14619,-0.39412 0.14619,-0.39412 -0.44121,-2.16652 0.88723,-3.05173 0.88723,-3.05173 -0.54162,-1.77243 0.39407,-2.26484 0.39407,-2.26484 0,0 -1.2307,-0.14829 -1.96981,-0.39409 -0.73901,-0.24732 -1.62422,-0.64002 -1.62422,-0.64002 0,0 -1.37903,-0.69061 -2.11732,-0.739 -0.7377,-0.04919 -0.93572,-0.54101 -0.93572,-0.54101 -1.08261,0.4433 -3.59413,0 -3.74093,0.04919 -0.14821,0.04921 -0.59221,0.24591 -0.24732,0.64 0.34561,0.39342 1.52661,2.16584 1.52661,2.16584 2.16654,0.78822 5.02297,0.0984 5.02297,0.0984 -1.87082,1.03471 -4.77645,0.3449 -4.77645,0.3449 0,0 -0.24652,0.64062 -0.24652,1.47802 0,0.83603 0.14821,1.0334 0.59082,1.67203 0.4433,0.6421 0.6885,1.57643 0.6885,1.57643 l -0.3436,-0.0498 c -0.14749,-0.88453 -0.59149,-1.52663 -1.08389,-2.26426 -0.49112,-0.7377 -0.19672,-1.13179 -0.19672,-1.13179 -2.41254,-2.06883 -3.64265,-2.36325 -5.16916,-2.31405 -1.52524,0.04921 -4.97237,0.24522 -4.97237,0.24522 -0.88591,0.3934 -1.77254,0.6406 -2.60984,0.6406 -0.8374,0 -1.0327,-0.3934 -1.52662,-0.9849 -0.49241,-0.59012 -0.73831,-1.03401 -0.73831,-1.03401 0.09839,0.54089 -0.196,1.13309 -0.196,1.13309 -0.78822,-0.34488 -1.82302,-1.7239 -1.82302,-1.7239 1.18231,5.11986 9.99462,3.69303 10.73445,3.44713 0.7383,-0.24719 1.0825,-0.04919 1.96981,0.68921 0.88511,0.73761 2.95263,1.67404 3.54346,1.87082 0.59079,0.1967 1.62491,1.96983 1.62491,1.96983 -0.34421,0.0976 -0.58942,0 -0.88582,-0.49319 -0.29651,-0.49312 -0.88589,-1.03342 -0.88589,-1.03342 -1.82233,-0.64 -3.29904,-1.82164 -3.74227,-2.16655 -0.4426,-0.34488 -1.18231,-0.44329 -1.18231,-0.44329 -5.21837,1.23083 -9.94554,-0.49241 -11.02814,-2.01833 -1.08261,-1.52582 -0.54161,-3.29894 -0.54161,-3.29894 -0.5908,-0.5901 -1.13311,-2.11743 -1.47671,-3.49644 C 10.2897,8.04189 9.50221,7.00778 9.50221,7.00778 9.009,7.79597 8.3691,9.4694 8.3691,9.4694 c 3.64326,4.48067 3.29963,9.55202 3.29963,9.55202 4.52847,3.00324 8.76322,1.52593 8.76322,1.52593 -3.93836,3.74156 -8.91141,0.44389 -8.91141,0.44389 l -0.14823,1.03342 c 0,0 2.41314,2.70825 6.99282,2.46232 3.89044,-0.21037 7.08967,-2.70881 7.08967,-2.70881 -4.87466,4.38226 -10.24122,4.03735 -13.54086,1.3291 C 8.8089,20.55826 7.87799,16.609 7.87799,16.609 c 0.73692,3.24914 2.16441,5.07006 2.16441,5.07006 -1.62281,-1.62422 -2.51,-4.47986 -2.51,-4.47986 1.5272,5.6616 4.97235,8.4189 8.81298,8.61632 3.84067,0.1967 6.84389,-1.87083 6.84389,-1.87083 -3.34813,2.65764 -5.81047,2.31404 -8.4196,1.91993 -2.60913,-0.39412 -3.93904,-1.91993 -3.93904,-1.91993 -0.09831,0.29511 -0.836,1.28003 -0.836,1.28003 l 0.34428,0.39338 1.0334,0.04921 c 0.83803,0.44191 2.60915,1.42882 2.60915,1.42882 -0.39409,0 -1.27931,-0.24789 -1.27931,-0.24789 3.54483,1.7239 6.99208,1.28131 6.99208,1.28131 C 14.32707,29.40956 9.7966,25.56961 9.7966,25.56961 l -0.737,0.68912 3.88846,2.60783 C 10.53563,28.81876 7.97559,27.19383 7.97559,27.19383 4.57825,29.95117 0,27.88306 0,27.88306 4.82414,28.67055 6.74487,26.25873 6.74487,26.25873 1.62422,23.69879 0.5505,14.67607 3.15073,9.7146 5.80907,4.64384 7.48318,4.15273 7.48318,4.15273 c 0,0 -0.6892,-0.7383 -2.16653,-0.49241 -1.47742,0.24521 -2.70753,1.72324 -2.70753,1.72324 0,0 -0.19671,0.54102 -0.68912,0.34489 C 1.4275,5.53046 1.4275,4.59535 1.67342,4.49704 1.92,4.39865 2.06752,4.05374 2.06752,4.05374 1.72261,3.16713 1.8701,3.06953 3.29903,2.23212 4.72655,1.3954 4.82414,0.31139 5.26814,0.11469 5.71007,-0.08199 6.54747,-0.1796 7.63138,1.1488 c 1.08261,1.32921 2.55934,1.62421 4.62745,2.06823 2.06894,0.44329 3.20066,1.62492 3.20066,1.62492 0.8367,0.49312 1.57571,1.18161 1.77241,1.18161 0.19681,0 1.52663,1.03342 4.33316,-1.0341 C 24.37091,2.92122 26.68564,2.67542 26.68564,2.67542 25.40433,1.7396 23.3375,1.099 23.3375,1.099 c 2.1173,-0.14691 5.16975,2.36394 5.56326,2.70883 0.3934,0.3449 0.3934,0.54089 0.5908,0.83601 0.1967,0.29711 1.72324,2.16723 4.18486,3.39805 2.46094,1.23151 4.97237,1.18162 4.97237,1.18162 C 34.61142,9.86353 30.72227,7.10547 29.98326,6.46617 29.24567,5.82616 29.63908,5.53046 29.29416,5.08716 28.94984,4.64384 27.62004,3.31534 27.62004,3.31534 c -2.95273,-0.34421 -8.1239,3.64393 -8.1239,3.64393 -1.52513,-0.24719 -4.82417,0.196 -4.82417,0.196 0.63931,-0.6891 1.57501,-0.59079 1.57501,-0.59079 C 14.91788,4.74284 10.73232,3.66032 9.50221,3.36523 8.2714,3.06953 7.33568,1.9363 6.99068,1.49371 6.64578,1.0505 5.75996,0.21379 5.21825,1.0505 4.67665,1.8878 3.49503,2.77301 2.95341,2.92122 2.41241,3.06953 2.46092,3.56053 2.41241,4.05374 2.36322,4.54684 1.92,4.64384 1.96982,5.03865 2.01831,5.43275 2.41241,5.33507 2.41241,5.33507 4.92184,2.42952 6.69637,3.31534 7.82738,4.10295 c 1.13322,0.78749 8.46881,6.54807 9.25702,6.74548 0.78682,0.19669 6.10487,0.19669 6.10487,0.19669 3.20136,-0.4433 6.40059,-2.61053 6.40059,-2.61053 l -0.2466,0.59222 c -0.4425,0.04849 -0.93571,0.54159 -0.93571,0.54159 1.32924,0.88451 1.92064,0.59022 1.92064,0.59022 l 0.04919,0.19731 c 0,0 -0.44261,0.09698 -0.93571,0.09698 -0.49183,0 -1.28003,-0.73831 -1.28003,-0.73831 -0.59081,0.34563 -2.51144,1.08392 -2.51144,1.08392 0,0 0.93642,1.67343 1.23214,2.36333 0.2944,0.68982 1.7718,0.5416 2.21512,0.5416 0.44261,0 2.85564,0.04991 2.85564,0.04991 0,0 -0.88581,-0.19741 -1.27991,-1.77381 -0.39411,-1.57443 0.14749,-3.05115 0.5908,-2.95274 0.44261,0.09899 0.19669,0.64 0.19669,0.64 1.13171,0.93501 2.01902,2.55992 2.01902,2.55992 l 0.98353,0.39342 c 1.23083,0.64 3.89055,-0.2459 5.51537,-0.2459 1.62432,0 1.87151,0.93582 1.87151,0.93582 3.59276,-2.41385 2.06684,-7.0413 0.49181,-8.81303 C 40.7662,2.72382 39.9281,3.16713 39.9281,3.16713 41.80022,4.34872 42.83304,6.66357 42.53864,8.9776 42.24353,11.29033 40.6678,12.02934 40.6678,12.02934 43.47293,9.02681 41.75041,4.64384 39.48691,3.16713 37.22057,1.6904 34.46323,2.08452 34.46323,2.08452 L 34.21803,1.9363 c 1.87152,-0.6399 4.77564,0.54171 4.77564,0.54171 4.08658,0.39411 5.8092,4.18556 5.7115,6.9415"
               style="fill:#000000;fill-opacity:1;fill-rule:nonzero;stroke:#000000;stroke-width:0.3985;stroke-linecap:butt;stroke-linejoin:miter;stroke-miterlimit:10;stroke-dasharray:none;stroke-opacity:1"
               id="path30" /><path
               d="m 36.62976,27.68564 c 0,0 0.8374,-1.28002 -0.4426,-1.37772 l -0.14752,0.44261 c 0,0 1.08402,-0.29571 0.59012,0.93511"
               style="fill:#000000;fill-opacity:1;fill-rule:nonzero;stroke:#000000;stroke-width:0.3985;stroke-linecap:butt;stroke-linejoin:miter;stroke-miterlimit:10;stroke-dasharray:none;stroke-opacity:1"
               id="path32" /><path
               d="m 36.13664,28.03053 c 0,0 -0.9344,0.14751 -1.03341,-0.44259 l -0.44259,0.39341 c 0,0 0.6885,0.78751 1.476,0.04918"
               style="fill:#000000;fill-opacity:1;fill-rule:nonzero;stroke:#000000;stroke-width:0.3985;stroke-linecap:butt;stroke-linejoin:miter;stroke-miterlimit:10;stroke-dasharray:none;stroke-opacity:1"
               id="path34" /><path
               d="m 34.66064,29.16296 c 0,0 -0.73901,0.39411 -1.03413,-0.44259 0,0 -0.34489,0.49109 -0.4426,-0.09902 0,0 0.0492,1.23151 1.47673,0.54161"
               style="fill:#000000;fill-opacity:1;fill-rule:nonzero;stroke:#000000;stroke-width:0.3985;stroke-linecap:butt;stroke-linejoin:miter;stroke-miterlimit:10;stroke-dasharray:none;stroke-opacity:1"
               id="path36" /><path
               d="m 31.11578,28.37546 c 0,0 -0.2951,0.4918 -0.54101,0.4918 0,0 0.44191,0.49311 0.93512,0.34491 0,0 -0.04921,-0.34491 0.19671,-0.64003 0,0 -0.3934,0 -0.59082,-0.19668 m 1.67473,1.2308 c -0.63931,0.54163 -1.18161,-0.0977 -1.18161,-0.0977 -1.08392,0.1967 -1.52723,-0.4931 -1.52723,-0.4931 -0.68781,0.09901 -0.98421,-0.44332 -0.98421,-0.44332 1.18162,0.44332 2.06682,-0.63931 2.06682,-0.63931 0.05052,0.59082 1.18232,0.44263 1.18232,0.44263 0,0 -0.64,0.34491 -0.34361,0.83671 0.29441,0.49309 0.78752,0.39409 0.78752,0.39409"
               style="fill:#000000;fill-opacity:1;fill-rule:nonzero;stroke:#000000;stroke-width:0.3985;stroke-linecap:butt;stroke-linejoin:miter;stroke-miterlimit:10;stroke-dasharray:none;stroke-opacity:1"
               id="path38" /><path
               d="m 32.00299,26.45482 c 0,0 -0.04989,-0.1469 -0.04989,-0.49179 0,-0.34493 -0.1482,-0.39412 -0.3442,-0.54163 0,0 -0.73833,0.83673 0.39409,1.03342"
               style="fill:#000000;fill-opacity:1;fill-rule:nonzero;stroke:#000000;stroke-width:0.3985;stroke-linecap:butt;stroke-linejoin:miter;stroke-miterlimit:10;stroke-dasharray:none;stroke-opacity:1"
               id="path40" /></g></g></g></g></g></svg>
