<?xml version="1.0" encoding="UTF-8" standalone="no"?>
<svg
   xmlns:dc="http://purl.org/dc/elements/1.1/"
   xmlns:cc="http://creativecommons.org/ns#"
   xmlns:rdf="http://www.w3.org/1999/02/22-rdf-syntax-ns#"
   xmlns:svg="http://www.w3.org/2000/svg"
   xmlns="http://www.w3.org/2000/svg"
   xmlns:sodipodi="http://sodipodi.sourceforge.net/DTD/sodipodi-0.dtd"
   xmlns:inkscape="http://www.inkscape.org/namespaces/inkscape"
   version="1.1"
   id="svg2"
   xml:space="preserve"
   width="45.546665"
   height="59.866669"
   viewBox="0 0 45.546665 59.866669"
   sodipodi:docname="vectorian120.pdf"><metadata
     id="metadata8"><rdf:RDF><cc:Work
         rdf:about=""><dc:format>image/svg+xml</dc:format><dc:type
           rdf:resource="http://purl.org/dc/dcmitype/StillImage" /></cc:Work></rdf:RDF></metadata><defs
     id="defs6" /><sodipodi:namedview
     pagecolor="#ffffff"
     bordercolor="#666666"
     borderopacity="1"
     objecttolerance="10"
     gridtolerance="10"
     guidetolerance="10"
     inkscape:pageopacity="0"
     inkscape:pageshadow="2"
     inkscape:window-width="640"
     inkscape:window-height="480"
     id="namedview4" /><g
     id="g10"
     inkscape:groupmode="layer"
     inkscape:label="vectorian120"
     transform="matrix(1.3333333,0,0,-1.3333333,0,59.866667)"><g
       id="g12"
       transform="translate(72,-27.099)"><g
         id="g14"
         transform="translate(-71.461,27.534)"><g
           id="g16"><g
             id="g18"><path
               d="m 6.69838,15.12318 c -1.77254,0.19669 -1.87083,1.034 -1.82103,1.52652 0.04849,0.4918 0.78761,0.88591 1.23082,0.78681 0,0 0.89891,-0.74381 2.73823,-1.56133 l -0.76841,-0.55531 0.3443,-0.04849 0.68092,0.4917 c 0.8764,-0.3736 1.94191,-0.75539 3.20883,-1.08391 0,0 -3.83994,0.24721 -5.61366,0.44401 m 8.6156,6.00647 c 0,0 -0.7377,-1.47673 -1.77042,-1.6249 -1.03471,-0.1469 -0.14819,1.69801 1.77042,1.6249 M 4.87735,20.29225 c -0.2458,1.82163 1.13251,3.10234 1.13251,3.10234 0,0 5.26748,-1.08403 9.64972,-0.93582 l -0.24588,-0.6898 c 0,0 -1.67543,-0.39409 -2.46294,-1.37772 -0.78761,-0.98491 -0.0977,-1.96912 1.1338,-1.13171 1.22942,0.83601 1.62352,2.26352 1.62352,2.26352 0,0 1.47733,0.54229 4.33237,0.29641 2.85713,-0.24652 3.93975,-1.42822 3.79083,-2.21574 -0.14619,-0.78751 -1.47671,-1.72322 -1.47671,-1.72322 0,0 -3.39604,0.49182 -5.85757,-0.14819 0,0 -5.81048,1.37831 -9.64973,0.1967 0,0 -1.72401,0.54161 -1.96992,2.36323 m -4.52977,7.23659 c 0.24591,1.38042 3.69244,2.80723 8.76382,3.44723 5.07146,0.63933 9.20652,0.04921 9.20652,0.04921 L 17.432,27.52884 c -3.85905,-0.09291 -7.07468,-1.30522 -8.90319,-2.17401 -0.90433,0.15777 -1.74443,0.35519 -2.42064,0.60039 -2.85564,1.03341 -0.34561,2.31333 3.54425,2.85505 3.89114,0.5416 7.9278,0.4426 7.9278,0.4426 l 0.0977,0.44389 C 8.07799,30.18929 3.11932,27.68393 4.97644,26.24954 5.63554,25.7407 6.77548,25.3855 8.08078,25.1369 7.32059,24.75311 6.89568,24.47711 6.89568,24.47711 l 0.5417,0.04919 c 0.3907,0.1872 0.77112,0.36 1.14401,0.51981 2.90285,-0.48221 6.39179,-0.49521 7.27419,-0.51981 l 0.14962,0.39411 C 15.09058,24.7804 11.89204,24.8412 9.0971,25.2633 c 4.93827,2.02373 8.1874,1.82363 8.1874,1.82363 L 16.2012,23.54279 C 1.3339,23.83778 0.10028,26.15193 0.34758,27.52884 m 22.00699,6.99208 c 0,0 0.14891,2.60985 1.82362,4.67668 1.67273,2.06822 2.51013,1.3804 1.52452,-0.44261 -0.98351,-1.82094 -3.34814,-4.23407 -3.34814,-4.23407 m -2.21433,-0.5416 c 1.57572,3.74225 4.52976,9.30483 6.05498,9.74942 1.52582,0.44262 2.16724,0.04921 1.91994,-2.85634 -0.24591,-2.90423 -3.54346,-7.72979 -5.76059,-6.64718 0,0 3.00395,2.26562 3.98956,5.21967 0,0 0.44261,1.67472 -0.68923,1.67472 -1.1331,0 -2.06821,-1.37971 -2.70953,-2.51143 -0.63789,-1.13243 -1.57431,-3.69245 -0.7868,-4.43145 l -2.90564,-3.29834 0.19882,-0.14751 0.39409,0.34421 c 0,0 7.08839,-0.73902 8.46671,-2.16583 1.37901,-1.42752 -1.08262,-3.00324 -2.11733,-3.15143 0,0 -1.27931,1.72391 -8.0733,1.57571 l -0.19811,-0.34491 c 0,0 7.58429,0.3176 8.02552,-1.82163 0.29509,-1.42892 -9.40253,-1.5266 -9.40253,-1.5266 0,0 2.01832,6.59738 3.59344,10.33892 M 23.4379,16.10739 c -0.58882,-0.9351 -4.82497,-0.88591 -4.82497,-0.88591 l 4.43146,2.26494 c 0,0 0.98559,-0.44333 0.39351,-1.37903 M 10.63802,16.5998 c 0,0 -2.26563,0.5417 -3.39734,1.23011 0,0 3.83996,0.78959 7.18809,-0.14679 z m 6.64648,-1.32842 c 0,0 -2.95343,0.09761 -6.25307,1.18162 l 3.88913,1.13172 c 0,0 1.62624,-0.14821 4.13777,-0.88582 l 0.39342,0.0976 -2.21713,0.73911 c 0,0 1.5751,0.59011 4.62814,0.099 z m 2.06815,-6.05637 c -1.67473,0.04989 -2.21505,1.32912 0.19609,1.47731 2.41244,0.1483 3.05304,-0.64059 3.05304,-0.64059 0,0 -1.57431,-0.88593 -3.24913,-0.83672 m 3.64264,1.1324 c 2.21632,2.80585 -0.81211,4.35776 -0.81211,4.35776 0,0 2.24092,-1.79712 0.61602,-4.30855 0,0 -1.23084,0.64 -3.64457,0.4433 -2.41173,-0.1974 -2.41313,-2.16653 0,-2.21642 2.41373,-0.0485 3.88976,1.42823 3.88976,1.42823 0,0 3.79144,-0.54102 5.26816,-2.70885 C 29.79066,5.17764 28.16505,3.65112 25.4582,2.66751 22.74937,1.68192 17.13562,0.6485 7.38887,1.58362 c 0,0 -6.15477,0.4433 -7.04129,2.51073 -0.88657,2.06752 2.75735,3.74232 4.08586,4.03665 0,0 0.2964,-2.80515 5.17117,-4.23407 4.87406,-1.42681 11.37165,-1.03272 14.76969,0.49321 3.39664,1.52581 -1.47672,3.39734 -3.44654,3.64325 -1.96923,0.24591 -6.20329,1.62422 -15.50871,0.2957 0,0 5.71009,0.4918 10.58615,0.19601 C 20.87926,8.23009 25.11331,6.94937 25.01361,5.71857 24.91591,4.48845 20.68114,3.79863 12.50885,4.58615 4.33574,5.37505 3.87474,8.8182 4.92584,11.33234 c 0.88661,2.11741 2.26564,3.00325 2.26564,3.00325 0,0 3.83995,-0.49172 6.40128,-0.04911 l -0.0492,0.39409 c 0,0 3.00324,-0.68991 8.63962,0.0246 0,0 1.99501,0.66382 2.06812,1.62422 0.07309,0.96033 -0.8134,1.47733 -0.8134,1.47733 0,0 2.29011,1.40291 -0.07383,3.24914 -2.36322,1.84622 -7.53169,0.81212 -7.53169,0.81212 l 0.29572,0.59079 c 0,0 6.49827,0.2213 8.8609,1.10723 2.36394,0.8872 1.33053,1.9213 1.33053,1.9213 3.32224,1.18163 3.61934,3.10236 1.25541,4.20946 -2.36333,1.10793 -7.6075,1.55054 -7.6075,1.55054 l 2.28874,2.73202 c 1.62491,-0.95961 3.47183,1.25542 3.47183,1.25542 4.57825,5.02296 3.24916,8.19759 2.21504,8.71471 -1.03411,0.517 -2.73144,0.2964 -5.24287,-3.24913 C 20.18935,37.15538 18.41621,31.46988 18.41621,31.46988 4.60625,32.3551 -0.4153,29.10596 0.02658,26.81644 0.47049,24.5263 5.86096,23.566 5.86096,23.566 c -3.32295,-3.76485 0.0744,-5.75928 0.0744,-5.75928 0,0 -1.62283,-0.4433 -1.40222,-1.69933 C 4.75305,14.85268 6.82268,14.40936 6.82268,14.40936 3.35083,11.75034 4.45874,8.2793 4.45874,8.2793 c 0,0 -4.65272,-1.10863 -4.43216,-3.91378 0.22261,-2.8065 9.23242,-4.80092 15.2874,-4.28392 6.05708,0.5178 13.81207,1.92 13.88448,5.61306 0.07441,3.69242 -6.20317,4.65275 -6.20317,4.65275 m 3.10153,17.77362 h 0.3948 c -2.80653,1.57573 -7.63209,1.37903 -7.63209,1.37903 l 0.04989,-0.24719 c 4.28257,0.099 7.1874,-1.13184 7.1874,-1.13184 m -0.88521,-2.75731 v 0.29569 c -3.29823,-1.08322 -7.43531,-0.935 -7.43531,-0.935 l -0.14828,-0.2473 c 4.87546,-0.14681 7.58359,0.88661 7.58359,0.88661"
               style="fill:#000000;fill-opacity:1;fill-rule:nonzero;stroke:#000000;stroke-width:0.3985;stroke-linecap:butt;stroke-linejoin:miter;stroke-miterlimit:10;stroke-dasharray:none;stroke-opacity:1"
               id="path20" /></g></g></g></g></g></svg>
