<?xml version="1.0" encoding="UTF-8" standalone="no"?>
<svg
   xmlns:dc="http://purl.org/dc/elements/1.1/"
   xmlns:cc="http://creativecommons.org/ns#"
   xmlns:rdf="http://www.w3.org/1999/02/22-rdf-syntax-ns#"
   xmlns:svg="http://www.w3.org/2000/svg"
   xmlns="http://www.w3.org/2000/svg"
   xmlns:sodipodi="http://sodipodi.sourceforge.net/DTD/sodipodi-0.dtd"
   xmlns:inkscape="http://www.inkscape.org/namespaces/inkscape"
   version="1.1"
   id="svg2"
   xml:space="preserve"
   width="149.33524"
   height="149.33524"
   viewBox="0 0 149.33523 149.33524"
   sodipodi:docname="vectorian039.pdf"><metadata
     id="metadata8"><rdf:RDF><cc:Work
         rdf:about=""><dc:format>image/svg+xml</dc:format><dc:type
           rdf:resource="http://purl.org/dc/dcmitype/StillImage" /></cc:Work></rdf:RDF></metadata><defs
     id="defs6"><clipPath
       clipPathUnits="userSpaceOnUse"
       id="clipPath24"><path
         d="M 0,0 H 112.00143 V 112.00143 H 0 Z"
         id="path22" /></clipPath></defs><sodipodi:namedview
     pagecolor="#ffffff"
     bordercolor="#666666"
     borderopacity="1"
     objecttolerance="10"
     gridtolerance="10"
     guidetolerance="10"
     inkscape:pageopacity="0"
     inkscape:pageshadow="2"
     inkscape:window-width="640"
     inkscape:window-height="480"
     id="namedview4" /><g
     id="g10"
     inkscape:groupmode="layer"
     inkscape:label="vectorian039"
     transform="matrix(1.3333333,0,0,-1.3333333,0,149.33524)"><g
       id="g12"
       transform="translate(72,40)"><g
         id="g14"
         transform="translate(-72,-40)"><g
           id="g16"><g
             id="g18"><g
               id="g20"
               clip-path="url(#clipPath24)"><path
                 d="m 85.75488,112.35753 c -13.09457,0.0304 -23.51708,-8.51532 -35.54286,-15.34099 -1.12801,9.87053 -3.72804,14.77138 -3.72804,14.77138 -5.36806,-2.85443 -15.75861,-8.22089 -15.75861,-8.22089 2.60004,-3.91687 4.05925,-8.21292 4.69127,-12.61616 -3.61125,-0.73763 -7.24809,-0.93763 -10.74893,-0.64482 -0.79363,7.0465 -3.73287,12.98896 -7.30091,16.80183 -5.15844,5.52006 -11.81614,6.73128 -15.89298,3.90564 -2.82894,-4.07686 -1.61611,-10.73454 3.90403,-15.8978 3.81285,-3.56326 9.75533,-6.50569 16.80022,-7.30089 0.2928,-3.49925 0.0928,-7.1361 -0.64481,-10.74575 -4.40484,0.62721 -8.69931,2.08642 -12.61775,4.68966 0,0 -5.36488,-10.39053 -8.21781,-15.75551 0,0 4.89936,-2.60162 14.76989,-3.72645 C 8.64351,50.24625 0.0977,39.8253 0.12968,26.73073 0.1713,9.2649 9.94913,-0.4408 23.41809,0.01518 36.08546,0.444 42.59914,8.46329 42.59914,17.71301 c 0,9.24811 -6.8465,14.92818 -14.61301,13.92978 -6.58408,-0.84801 -9.6001,-5.64647 -10.26572,-10.56975 -1.86241,4.21927 -1.62081,8.90732 0.10401,13.99379 1.66881,4.91526 4.92168,10.34253 8.3377,15.64179 2.63683,4.09607 4.70566,7.83691 6.33128,11.34897 4.80807,0.32321 9.57131,0.8432 14.03538,1.56961 -0.7536,-4.07524 -1.59361,-7.40328 -2.32962,-9.49451 -0.03679,-0.10402 -0.07521,-0.19521 -0.1104,-0.2944 -4.38886,-1.14241 -7.93132,-2.82566 -10.20493,-4.57607 -5.55368,-4.27525 -2.07043,-11.24655 4.26406,-8.1441 3.08963,1.51201 5.58246,5.65925 7.51208,11.33453 1.95843,0.40482 4.19686,0.69922 6.79689,0.84003 1.73441,0.09439 3.35684,0.10879 4.88967,0.03839 0.05281,-0.71841 0.12161,-1.44002 0.208,-2.16963 1.71042,-14.38577 12.33295,-20.08826 18.72663,-14.95699 5.48007,6.36168 -0.5728,17.01462 -14.957,18.72664 -0.7376,0.0864 -1.4672,0.15681 -2.18881,0.20961 -0.06081,1.53761 -0.04,3.15843 0.056,4.88486 0.1408,2.60324 0.4384,4.84007 0.84161,6.79689 5.67686,1.93292 9.82092,4.42575 11.33614,7.51539 3.10244,6.33608 -3.86884,9.81772 -8.14411,4.26246 -1.74881,-2.27202 -3.43524,-5.81449 -4.57765,-10.20333 -0.0976,-0.0384 -0.1936,-0.07519 -0.2944,-0.11041 -2.09444,-0.7361 -5.42087,-1.57771 -9.49453,-2.32814 0.72162,4.46098 1.24321,9.22423 1.57123,14.03068 3.51363,1.62884 7.2513,3.69445 11.34574,6.3361 5.30087,3.41604 10.72814,6.6673 15.64342,8.3345 5.08805,1.72322 9.7761,1.96802 13.99377,0.1056 -4.92167,-0.6672 -9.72173,-3.68164 -10.56813,-10.26571 -0.99843,-7.76811 4.67845,-14.61301 13.92817,-14.61301 9.24811,0 17.26583,6.51369 17.69623,19.17786 0.45601,13.47377 -9.24811,23.25149 -26.71396,23.29309 z M 34.87422,42.94534 c -2.1728,0.62722 -2.28163,3.72806 1.14403,5.78087 1.91363,1.15201 4.20805,2.29923 7.3233,3.16643 -2.69124,-6.55846 -5.85608,-9.70572 -8.46733,-8.9473 z M 71.63791,48.195 c 6.00969,-5.09766 2.36482,-9.7137 2.36482,-9.7137 0,0 -4.64966,-3.14886 -9.71213,2.3664 -3.09604,3.37126 -4.58084,7.36011 -5.03206,12.34577 4.94567,-0.49602 8.88813,-2.04003 12.37937,-4.99847 z m -7.8817,28.27406 c 2.05602,3.42245 5.15686,3.31205 5.78568,1.14244 0.75681,-2.61126 -2.39045,-5.77929 -8.95212,-8.46572 0.8704,3.11043 2.01762,5.40807 3.16644,7.32328 z m -29.79398,25.99394 11.48975,6.08969 c 1.43041,-3.73285 2.31041,-8.05933 2.78563,-12.62416 C 46.9128,95.21332 45.57196,94.51091 44.19437,93.8597 42.02153,92.83249 39.77829,92.02768 37.50948,91.43248 36.48386,98.13333 33.96223,102.463 33.96223,102.463 Z M 48.56561,81.44992 c -3.41125,-1.4416 -7.23529,-2.72002 -11.24975,-3.58884 0.33601,2.29604 0.52641,4.56647 0.60162,6.8673 0.0544,1.60162 -0.0128,3.12004 -0.1488,4.56006 3.81283,1.1136 7.29289,2.68164 10.64652,4.49444 0.30881,-4.05284 0.34083,-8.2353 0.15041,-12.33296 z M 9.48671,95.5733 c -8.90582,6.39371 -5.46248,12.88657 -5.46248,12.88657 0,0 6.49289,3.44006 12.88817,-5.46405 2.49924,-3.48166 4.15205,-7.74092 4.91847,-12.34096 -4.60007,0.7664 -8.85931,2.41602 -12.34416,4.91844 z m 15.3618,-7.94088 c 0.4384,-0.0112 0.86401,-0.0544 1.30881,-0.05122 3.45445,0.02721 6.5793,0.45602 9.50252,1.14722 0.30722,-3.77925 0.0496,-7.60649 -0.592,-11.31054 -3.70564,-0.6416 -7.52971,-0.8976 -11.31054,-0.5936 0.68958,2.92482 1.12,6.04967 1.14721,9.50252 0.0016,0.44641 -0.04161,0.8688 -0.056,1.30562 z M 3.93463,67.02884 10.0243,78.5235 c 0,0 4.32647,-2.52324 11.02737,-3.54564 -0.59682,-2.27205 -1.39844,-4.51527 -2.42565,-6.6897 -0.65121,-1.37292 -1.352,-2.71373 -2.06562,-4.04173 -4.56646,0.47679 -8.8929,1.352 -12.62577,2.78241 z M 20.67885,24.9051 c 2.51204,4.90886 10.52493,5.77288 14.9554,2.28324 C 41.00072,22.96269 41.23112,13.60417 36.66306,8.23608 33.99261,5.09685 29.21495,3.11282 24.1589,2.78802 c -0.80001,3.57285 -1.07203,6.61609 -0.92962,9.05132 0.70562,-0.2896 1.42081,-0.50401 2.12964,-0.63522 5.59526,-1.02559 8.56331,3.99687 6.50728,7.53611 -1.73124,2.98565 -7.60811,3.44484 -9.70253,-2.05603 -0.144,-0.37602 -0.26401,-0.7936 -0.36802,-1.22882 -0.98559,0.93282 -1.81761,1.89923 -2.51683,2.89286 -0.07519,1.77441 0.16323,4.13603 1.40003,6.55686 z M 23.4885,14.02336 c 0.6512,3.43204 2.29922,5.13767 4.27044,4.83048 C 31.2838,18.30501 29.25496,9.9145 23.4885,14.02336 Z M 26.84373,55.7327 C 20.33644,45.22856 14.62756,37.46365 14.28517,27.87315 14.02437,20.57066 17.33961,15.32898 21.40526,12.78815 21.10925,8.9097 21.69006,4.42325 21.94127,2.75282 19.05643,2.85042 16.1684,3.49683 13.59875,4.81364 4.23705,9.6089 0.15529,24.6667 5.26744,38.83487 8.55229,47.947 13.48836,54.8639 17.5924,62.05917 c 3.52006,-0.29919 7.57932,-0.40959 12.21778,-0.16479 0.1104,0.0064 0.224,0.01282 0.3344,0.02081 -1.07202,-2.32484 -2.20325,-4.41608 -3.30085,-6.18249 z m 4.19045,8.18411 c -4.09766,-0.18721 -8.2785,-0.1552 -12.32976,0.15199 1.80962,3.35526 3.37926,6.8322 4.48967,10.64664 1.44162,-0.1328 2.96002,-0.2 4.56166,-0.14719 2.30081,0.07199 4.57285,0.26399 6.87047,0.60161 C 33.75581,71.1554 32.4774,67.32805 31.03418,63.91681 Z m 2.34404,0.13119 c 1.72642,4.06096 2.85284,7.83382 3.55363,11.50585 3.67048,0.70082 7.4433,1.83043 11.50575,3.55366 -0.31199,-4.82887 -0.88,-9.46252 -1.55842,-13.49949 -4.03845,-0.68 -8.6721,-1.24961 -13.50096,-1.56002 z m 24.76352,2.16964 c -0.67522,-3.30884 -1.03682,-7.0129 -0.9008,-10.97295 -3.96007,0.13441 -7.66571,-0.22559 -10.97135,-0.8992 0.88001,2.91203 1.62881,6.16168 2.24962,9.61932 3.45924,0.62401 6.70888,1.37122 9.62253,2.25283 z m 26.47075,31.9813 C 75.02196,97.85815 67.25865,92.14766 56.75452,85.64038 54.9849,84.54597 52.89366,83.41475 50.57204,82.34114 c 0.0064,0.11041 0.01439,0.224 0.01921,0.33601 0.24319,4.63526 0.1344,8.69773 -0.16641,12.21616 7.19529,4.10245 14.11376,9.0385 23.22428,12.32495 14.1698,5.10887 29.23079,1.02883 34.02445,-8.33449 1.31361,-2.56804 1.96164,-5.45768 2.06082,-8.33932 -1.67361,0.2496 -6.15526,0.83201 -10.03371,0.53601 -2.54405,4.06564 -7.7873,7.3793 -15.08819,7.11848 z m 9.0193,-13.47216 c -0.31039,1.97122 1.39522,3.61766 4.83208,4.27206 4.10403,-5.76808 -4.28168,-7.79692 -4.83208,-4.27206 z m 10.61613,-8.90412 C 98.88145,71.2562 89.51974,71.4834 85.29889,76.84827 c -3.48966,4.43367 -2.62883,12.44497 2.28003,14.95698 2.41922,1.24004 4.78245,1.47684 6.55847,1.40325 0.99202,-0.70241 1.95683,-1.52964 2.88965,-2.52004 -0.4352,-0.1008 -0.84802,-0.224 -1.22722,-0.36482 -5.49928,-2.09923 -5.03847,-7.9745 -2.05282,-9.70731 3.53764,-2.05604 8.5601,0.91361 7.53448,6.50888 -0.12959,0.71042 -0.3456,1.4256 -0.63519,2.13123 2.43522,0.14241 5.47845,-0.1312 9.05291,-0.92801 -0.3264,-5.05766 -2.31523,-9.83694 -5.45128,-12.50577 z"
                 style="fill:#000000;fill-opacity:1;fill-rule:nonzero;stroke:#000000;stroke-width:0.3985;stroke-linecap:butt;stroke-linejoin:miter;stroke-miterlimit:10;stroke-dasharray:none;stroke-opacity:1"
                 id="path26" /></g></g></g></g></g></g></svg>
