<?xml version="1.0" encoding="UTF-8" standalone="no"?>
<svg
   xmlns:dc="http://purl.org/dc/elements/1.1/"
   xmlns:cc="http://creativecommons.org/ns#"
   xmlns:rdf="http://www.w3.org/1999/02/22-rdf-syntax-ns#"
   xmlns:svg="http://www.w3.org/2000/svg"
   xmlns="http://www.w3.org/2000/svg"
   xmlns:sodipodi="http://sodipodi.sourceforge.net/DTD/sodipodi-0.dtd"
   xmlns:inkscape="http://www.inkscape.org/namespaces/inkscape"
   version="1.1"
   id="svg2"
   xml:space="preserve"
   width="38.787064"
   height="19.819048"
   viewBox="0 0 38.787064 19.819048"
   sodipodi:docname="vectorian098.pdf"><metadata
     id="metadata8"><rdf:RDF><cc:Work
         rdf:about=""><dc:format>image/svg+xml</dc:format><dc:type
           rdf:resource="http://purl.org/dc/dcmitype/StillImage" /></cc:Work></rdf:RDF></metadata><defs
     id="defs6" /><sodipodi:namedview
     pagecolor="#ffffff"
     bordercolor="#666666"
     borderopacity="1"
     objecttolerance="10"
     gridtolerance="10"
     guidetolerance="10"
     inkscape:pageopacity="0"
     inkscape:pageshadow="2"
     inkscape:window-width="640"
     inkscape:window-height="480"
     id="namedview4" /><g
     id="g10"
     inkscape:groupmode="layer"
     inkscape:label="vectorian098"
     transform="matrix(1.3333333,0,0,-1.3333333,-1.1651127,20.127188)"><g
       id="g12"
       transform="translate(72,-55.676)"><g
         id="g14"
         transform="translate(-70.929,56.108)"><g
           id="g16"><g
             id="g18"><path
               d="m 28.78775,10.78362 c 0,0 -4.35155,-1.43432 -10.29863,1.12022 -5.94838,2.55443 -12.33536,3.98884 -16.84602,0.4371 0,0 -2.7143,-2.23354 -1.1577,-5.34807 0,0 1.31752,-2.35643 3.87204,-1.16111 0,0 1.25673,0.64199 1.1761,2.06273 C 5.45296,9.3083 4.13683,9.4927 4.13683,9.4927 c 0,0 2.75254,1.45483 5.85009,-0.79229 3.09684,-2.24715 6.37668,-3.92735 10.64693,-2.38374 0,0 -3.58313,-0.9767 -7.6116,1.3319 -4.02775,2.30866 -6.31458,3.46296 -9.65451,1.70073 0,0 1.74101,-0.10249 1.74101,-1.45481 0,-1.35921 -1.31621,-2.39063 -2.79355,-1.94663 -1.47812,0.44389 -2.44928,2.16513 -1.8018,4.29616 0.6482,2.12422 4.23065,4.58995 8.8458,3.51765 4.61517,-1.07242 7.32749,-2.65014 11.31495,-3.44244 0,0 5.25317,-1.31823 8.1136,0.46439"
               style="fill:#000000;fill-opacity:1;fill-rule:nonzero;stroke:#000000;stroke-width:0.3985;stroke-linecap:butt;stroke-linejoin:miter;stroke-miterlimit:10;stroke-dasharray:none;stroke-opacity:1"
               id="path20" /><path
               d="m 26.73732,8.83699 c 0,0 -5.05986,-1.59142 -11.04173,1.18163 -5.98189,2.76622 -10.04312,3.39463 -12.70285,1.25682 0,0 -1.54974,-1.40702 -0.77452,-3.28534 l 0.44259,0.55319 c 0,0 -0.66459,0 -0.3313,1.29092 0.3313,1.29093 2.88034,3.21024 7.5324,1.58463 4.65277,-1.61873 8.60402,-5.05437 16.87541,-2.58185"
               style="fill:#000000;fill-opacity:1;fill-rule:nonzero;stroke:#000000;stroke-width:0.3985;stroke-linecap:butt;stroke-linejoin:miter;stroke-miterlimit:10;stroke-dasharray:none;stroke-opacity:1"
               id="path22" /><path
               d="m 5.31985,8.17447 c 0,0 3.78455,0.47133 6.12117,-2.28131 0,0 1.34833,-1.80312 0.40162,-3.15555 0,0 -0.44942,-0.68301 -1.37152,-0.56689 -0.92272,0.1161 -1.39541,1.01771 -1.39541,1.01771 0,0 0.85179,-0.94263 1.93911,-0.5191 1.08871,0.4235 1.06422,2.73893 -1.41862,4.13914 C 7.11278,8.2018 5.29117,8.01059 5.29117,8.01059 Z"
               style="fill:#000000;fill-opacity:1;fill-rule:nonzero;stroke:#000000;stroke-width:0.3985;stroke-linecap:butt;stroke-linejoin:miter;stroke-miterlimit:10;stroke-dasharray:none;stroke-opacity:1"
               id="path24" /><path
               d="m 3.56512,5.81126 c 0,0 3.21636,0.8537 5.01338,-1.41392 C 10.37692,2.12291 8.88649,0.3949 7.86948,0.29929 6.85248,0.21048 5.67017,0.65439 5.83546,2.36201 c 0,0 0.0943,-1.70762 1.70281,-1.70762 1.60852,0 1.75053,2.39064 0.35451,3.74295 C 6.49736,5.74297 4.79454,5.85905 3.56512,5.81126"
               style="fill:#000000;fill-opacity:1;fill-rule:nonzero;stroke:#000000;stroke-width:0.3985;stroke-linecap:butt;stroke-linejoin:miter;stroke-miterlimit:10;stroke-dasharray:none;stroke-opacity:1"
               id="path26" /><path
               d="m 2.26262,5.72246 c 0,0 2.26422,-0.43712 2.58113,-2.84822 C 5.15996,0.46318 2.89572,-0.26758 1.387,0.78418 -0.12318,1.82921 0.09608,4.09683 1.2886,4.41104 2.48181,4.72525 3.21204,3.50943 3.06583,2.2663 c 0,0 0.6093,1.09973 -0.36472,2.11744 C 1.72641,5.40826 -0.48788,4.65015 0.09608,2.29372 0.68,-0.06958 3.13893,-0.4316 4.50294,0.4154 c 0,0 1.21642,0.7786 0.9733,2.65693 C 5.23306,4.94385 3.62663,5.84537 2.26262,5.72246"
               style="fill:#000000;fill-opacity:1;fill-rule:nonzero;stroke:#000000;stroke-width:0.3985;stroke-linecap:butt;stroke-linejoin:miter;stroke-miterlimit:10;stroke-dasharray:none;stroke-opacity:1"
               id="path28" /></g></g></g></g></g></svg>
