<?xml version="1.0" encoding="UTF-8" standalone="no"?>
<svg
   xmlns:dc="http://purl.org/dc/elements/1.1/"
   xmlns:cc="http://creativecommons.org/ns#"
   xmlns:rdf="http://www.w3.org/1999/02/22-rdf-syntax-ns#"
   xmlns:svg="http://www.w3.org/2000/svg"
   xmlns="http://www.w3.org/2000/svg"
   xmlns:sodipodi="http://sodipodi.sourceforge.net/DTD/sodipodi-0.dtd"
   xmlns:inkscape="http://www.inkscape.org/namespaces/inkscape"
   version="1.1"
   id="svg2"
   xml:space="preserve"
   width="66.573334"
   height="39.506668"
   viewBox="0 0 66.573334 39.506668"
   sodipodi:docname="vectorian163.pdf"><metadata
     id="metadata8"><rdf:RDF><cc:Work
         rdf:about=""><dc:format>image/svg+xml</dc:format><dc:type
           rdf:resource="http://purl.org/dc/dcmitype/StillImage" /></cc:Work></rdf:RDF></metadata><defs
     id="defs6" /><sodipodi:namedview
     pagecolor="#ffffff"
     bordercolor="#666666"
     borderopacity="1"
     objecttolerance="10"
     gridtolerance="10"
     guidetolerance="10"
     inkscape:pageopacity="0"
     inkscape:pageshadow="2"
     inkscape:window-width="640"
     inkscape:window-height="480"
     id="namedview4" /><g
     id="g10"
     inkscape:groupmode="layer"
     inkscape:label="vectorian163"
     transform="matrix(1.3333333,0,0,-1.3333333,0,39.506667)"><g
       id="g12"
       transform="translate(72,-42.374)"><g
         id="g14"
         transform="translate(-71.684,42.374)"><g
           id="g16"><g
             id="g18"><path
               d="m 7.98459,25.72122 c 0,0 -1.77384,-4.74356 -0.91051,-11.16534 0,0 0.71851,-5.89449 6.66089,-10.54314 0,0 -4.93697,4.98407 -5.94238,10.59093 0,0 -1.10172,4.50456 0.192,11.11755"
               style="fill:#000000;fill-opacity:1;fill-rule:nonzero;stroke:#000000;stroke-width:0.3985;stroke-linecap:butt;stroke-linejoin:miter;stroke-miterlimit:10;stroke-dasharray:none;stroke-opacity:1"
               id="path20" /><path
               d="m 10.28432,2.39462 c 0,0 -3.27785,-0.3722 -5.62538,-0.11612 C 2.31071,2.53401 1.56691,4.27704 5.70396,4.83514 9.8424,5.39384 13.11955,4.32423 13.25885,3.09131 13.39885,1.8592 9.2611,0.9303 5.49567,1.13928 1.72942,1.3483 0.2651,2.34822 1.125,3.90483 c 0.8606,1.55861 5.34668,2.88233 8.20581,1.65083 0,0 -0.74451,0.8606 -3.48685,0.7206 C 3.10094,6.13696 0.38118,4.41644 0.03279,3.06813 -0.31618,1.7205 2.10172,0 7.98248,0 13.86407,0 15.65358,3.06813 12.46925,4.41644 9.2843,5.76466 4.84474,5.36926 3.05452,4.44035 1.2643,3.51003 2.33391,1.9766 6.02975,1.92882 c 0,0 2.83594,-0.04572 4.25457,0.4658"
               style="fill:#000000;fill-opacity:1;fill-rule:nonzero;stroke:#000000;stroke-width:0.3985;stroke-linecap:butt;stroke-linejoin:miter;stroke-miterlimit:10;stroke-dasharray:none;stroke-opacity:1"
               id="path22" /><path
               d="m 37.99927,25.72122 c 0,0 1.77243,-4.74356 0.91052,-11.16534 0,0 -0.71922,-5.89449 -6.66089,-10.54314 0,0 4.93558,4.98407 5.94167,10.59093 0,0 1.10233,4.50456 -0.1913,11.11755"
               style="fill:#000000;fill-opacity:1;fill-rule:nonzero;stroke:#000000;stroke-width:0.3985;stroke-linecap:butt;stroke-linejoin:miter;stroke-miterlimit:10;stroke-dasharray:none;stroke-opacity:1"
               id="path24" /><path
               d="m 35.69954,2.39462 c 0,0 3.27783,-0.3722 5.62538,-0.11612 2.34753,0.25551 3.09203,1.99854 -1.04642,2.55664 C 36.14146,5.39384 32.86362,4.32423 32.72432,3.09131 32.58499,1.8592 36.72276,0.9303 40.4882,1.13928 c 3.76626,0.20902 5.23057,1.20894 4.36997,2.76555 -0.85992,1.55861 -5.34667,2.88233 -8.20511,1.65083 0,0 0.74312,0.8606 3.48614,0.7206 2.74373,-0.1393 5.46276,-1.85982 5.81188,-3.20813 C 46.30008,1.7205 43.88216,0 38.00139,0 32.1198,0 30.33026,3.06813 33.51462,4.41644 c 3.18423,1.34822 7.62449,0.95282 9.41403,0.02391 1.79021,-0.93032 0.7213,-2.46375 -2.97527,-2.51153 0,0 -2.8352,-0.04572 -4.25384,0.4658"
               style="fill:#000000;fill-opacity:1;fill-rule:nonzero;stroke:#000000;stroke-width:0.3985;stroke-linecap:butt;stroke-linejoin:miter;stroke-miterlimit:10;stroke-dasharray:none;stroke-opacity:1"
               id="path26" /><path
               d="M 2.75052,24.5785 C 2.89883,23.27467 5.23535,22.38878 5.23535,22.38878 4.89044,26.22601 2.60371,25.88171 2.75052,24.5785"
               style="fill:#000000;fill-opacity:1;fill-rule:nonzero;stroke:#000000;stroke-width:0.3985;stroke-linecap:butt;stroke-linejoin:miter;stroke-miterlimit:10;stroke-dasharray:none;stroke-opacity:1"
               id="path28" /><path
               d="m 22.43797,17.35152 c 0.14821,-1.25544 0.88661,-1.07032 1.14542,-0.14822 0.25819,0.92411 -0.18511,2.08733 -0.60991,3.10224 0,0 -0.683,-1.69862 -0.53551,-2.95402"
               style="fill:#000000;fill-opacity:1;fill-rule:nonzero;stroke:#000000;stroke-width:0.3985;stroke-linecap:butt;stroke-linejoin:miter;stroke-miterlimit:10;stroke-dasharray:none;stroke-opacity:1"
               id="path30" /><path
               d="m 23.5828,17.2039 c -0.25822,-0.9234 -0.99723,-1.10782 -1.14553,0.14762 -0.14751,1.25599 0.53551,2.95402 0.53551,2.95402 0.42491,-1.01491 0.86813,-2.17741 0.61002,-3.10164 M 2.75052,24.5785 c -0.14681,1.30392 2.13992,1.64684 2.48483,-2.18972 0,0 -2.33652,0.88589 -2.48483,2.18972 m 40.48141,0 c -0.14749,-1.30383 -2.48411,-2.18972 -2.48411,-2.18972 0.34488,3.83656 2.63162,3.49364 2.48411,2.18972 M 41.55922,10.24051 c -1.49922,3.44314 -1.69731,7.5993 -1.03272,11.58276 0,0 3.31945,1.4753 3.07425,3.07564 -0.24592,1.59821 -3.00055,1.30321 -3.14805,-2.55864 0,0 -1.35242,-1.15571 -4.82006,0.12291 -3.46844,1.27932 -7.72229,3.24783 -12.51777,-1.57364 l -0.11069,-0.13177 -0.13589,0.13177 C 18.07281,25.71101 13.81755,23.7425 10.34991,22.46318 6.88287,21.18456 5.52974,22.34027 5.52974,22.34027 5.38295,26.20212 2.62761,26.49712 2.38171,24.89891 2.1358,23.29857 5.45667,21.82327 5.45667,21.82327 6.11987,17.83981 5.92386,13.68365 4.42325,10.24051 2.92332,6.79678 0.07039,3.87202 0.07039,3.87202 c 3.34474,2.63036 5.73057,7.35212 5.95189,11.18856 0.22128,3.83595 -0.34432,6.66499 -0.34432,6.66499 2.95074,-1.22942 5.48336,-0.76292 9.91074,1.00882 4.42665,1.77041 7.20587,-2.23824 7.20587,-2.23824 -1.5628,-3.29904 -0.44809,-4.23745 0.10653,-4.48745 l 0.10038,-0.04991 0.0881,0.05189 c 0.55671,0.25681 1.65363,1.20213 0.09839,4.48547 0,0 2.77925,4.00865 7.20591,2.23824 4.42735,-1.77174 6.95997,-2.23824 9.91062,-1.00882 0,0 -0.56489,-2.82904 -0.3436,-6.66499 0.2213,-3.83644 2.60714,-8.5582 5.95118,-11.18856 0,0 -2.85224,2.92476 -4.35286,6.36849"
               style="fill:#000000;fill-opacity:1;fill-rule:nonzero;stroke:#000000;stroke-width:0.3985;stroke-linecap:butt;stroke-linejoin:miter;stroke-miterlimit:10;stroke-dasharray:none;stroke-opacity:1"
               id="path32" /><path
               d="m 23.6538,28.01685 c -0.36881,1.03682 -1.50742,0.85929 -1.82983,-0.5662 -0.3224,-1.42613 0.8893,-3.94856 0.8893,-3.94856 1.66723,1.72191 1.31554,3.45815 0.94053,4.51476 m 1.01081,-0.31691 C 24.7473,26.24712 24.5417,24.7138 23.19687,23.1258 c 0,0 1.04912,-1.53344 2.87755,-2.58185 0,0 0.6461,-0.26911 0.40431,-0.61812 -0.24242,-0.35041 -0.96851,0.37631 -1.53333,0.99443 l -2.20553,2.09761 -2.09751,-2.09761 c -0.56492,-0.61812 -1.29093,-1.34484 -1.53343,-0.99443 -0.2418,0.34901 0.40372,0.61812 0.40372,0.61812 1.82912,1.04841 2.87822,2.58185 2.87822,2.58185 -1.34491,1.588 -1.53471,3.16782 -1.45412,4.62063 0,0 0.0799,1.72873 1.76084,1.70824 0,0 1.85711,0.1714 1.96702,-1.75473"
               style="fill:#000000;fill-opacity:1;fill-rule:nonzero;stroke:#000000;stroke-width:0.3985;stroke-linecap:butt;stroke-linejoin:miter;stroke-miterlimit:10;stroke-dasharray:none;stroke-opacity:1"
               id="path34" /></g></g></g></g></g></svg>
