<?xml version="1.0" encoding="UTF-8" standalone="no"?>
<svg
   xmlns:dc="http://purl.org/dc/elements/1.1/"
   xmlns:cc="http://creativecommons.org/ns#"
   xmlns:rdf="http://www.w3.org/1999/02/22-rdf-syntax-ns#"
   xmlns:svg="http://www.w3.org/2000/svg"
   xmlns="http://www.w3.org/2000/svg"
   xmlns:sodipodi="http://sodipodi.sourceforge.net/DTD/sodipodi-0.dtd"
   xmlns:inkscape="http://www.inkscape.org/namespaces/inkscape"
   version="1.1"
   id="svg2"
   xml:space="preserve"
   width="156.66667"
   height="45.720001"
   viewBox="0 0 156.66667 45.720001"
   sodipodi:docname="vectorian048.pdf"><metadata
     id="metadata8"><rdf:RDF><cc:Work
         rdf:about=""><dc:format>image/svg+xml</dc:format><dc:type
           rdf:resource="http://purl.org/dc/dcmitype/StillImage" /></cc:Work></rdf:RDF></metadata><defs
     id="defs6" /><sodipodi:namedview
     pagecolor="#ffffff"
     bordercolor="#666666"
     borderopacity="1"
     objecttolerance="10"
     gridtolerance="10"
     guidetolerance="10"
     inkscape:pageopacity="0"
     inkscape:pageshadow="2"
     inkscape:window-width="640"
     inkscape:window-height="480"
     id="namedview4" /><g
     id="g10"
     inkscape:groupmode="layer"
     inkscape:label="vectorian048"
     transform="matrix(1.3333333,0,0,-1.3333333,0,45.72)"><g
       id="g12"
       transform="translate(72,-37.714)"><g
         id="g14"
         transform="translate(-71.979,39.466)"><g
           id="g16"><g
             id="g18"><path
               d="m 22.04657,22.83847 c 0,0 -2.00482,-2.49123 -2.00482,-6.01607 0,-4.34726 5.01445,-5.35046 6.35206,-1.00322 1.02723,3.33446 -1.84001,6.8129 -1.84001,6.8129 0,0 6.5217,6.22568 15.549,6.39369 9.02893,0.1664 16.67552,-6.64329 16.67552,-6.64329 -3.38403,-5.72488 -3.25925,-9.27852 -3.25925,-9.27852 0.168,-5.35046 3.46885,-7.48491 6.81288,-6.31209 2.64484,0.92482 6.60329,8.06572 -0.16639,16.0498 0,0 2.67523,4.17766 9.02731,5.34728 6.3521,1.17122 16.38262,2.17444 26.08035,-7.1889 0,0 -5.85127,-5.85128 -4.84967,-13.54096 1.2032,-9.21129 9.19533,-8.69449 11.70415,-4.84967 3.27205,5.01926 1.21123,13.24976 -3.97285,19.26904 0,0 5.81128,6.48009 16.00822,8.98732 0,0 -6.0177,1.16962 -16.88342,-8.1089 0,0 -6.84809,8.23531 -19.72827,8.7777 C 65.55603,32.0354 58.78473,24.3873 58.78473,24.3873 c 0,0 -5.30725,5.80649 -16.3411,6.80968 C 31.4099,32.2002 23.55219,24.1793 23.55219,24.1793 c 0,0 -6.35369,8.35529 -23.57308,7.01768 0,0 16.88658,-0.3344 22.06746,-8.35851 z m 74.22986,-2.96643 c 0,0 3.38563,-2.50724 4.84807,-9.07051 1.4224,-6.38089 -1.67203,-8.85932 -3.84485,-9.02571 -1.70082,-0.1312 -4.51528,0.83681 -5.01767,7.35528 -0.49921,6.5233 4.01445,10.74094 4.01445,10.74094 z m -37.8613,1.25441 c 0,0 3.94406,-4.66885 3.29924,-9.21291 -0.7952,-5.61609 -7.03848,-4.05924 -6.27368,1.94722 0.55201,4.35045 2.97444,7.26569 2.97444,7.26569 z m -35.36536,0.20641 c 4.18087,-6.01607 -1.0032,-8.69132 -1.50399,-5.18086 -0.50084,3.51045 1.50399,5.18086 1.50399,5.18086 z"
               style="fill:#000000;fill-opacity:1;fill-rule:nonzero;stroke:#000000;stroke-width:0.3985;stroke-linecap:butt;stroke-linejoin:miter;stroke-miterlimit:10;stroke-dasharray:none;stroke-opacity:1"
               id="path20" /></g></g></g></g></g></svg>
