<?xml version="1.0" encoding="UTF-8" standalone="no"?>
<svg
   xmlns:dc="http://purl.org/dc/elements/1.1/"
   xmlns:cc="http://creativecommons.org/ns#"
   xmlns:rdf="http://www.w3.org/1999/02/22-rdf-syntax-ns#"
   xmlns:svg="http://www.w3.org/2000/svg"
   xmlns="http://www.w3.org/2000/svg"
   xmlns:sodipodi="http://sodipodi.sourceforge.net/DTD/sodipodi-0.dtd"
   xmlns:inkscape="http://www.inkscape.org/namespaces/inkscape"
   version="1.1"
   id="svg2"
   xml:space="preserve"
   width="492.81332"
   height="205.22667"
   viewBox="0 0 492.81332 205.22667"
   sodipodi:docname="vectorian068.pdf"><metadata
     id="metadata8"><rdf:RDF><cc:Work
         rdf:about=""><dc:format>image/svg+xml</dc:format><dc:type
           rdf:resource="http://purl.org/dc/dcmitype/StillImage" /></cc:Work></rdf:RDF></metadata><defs
     id="defs6"><clipPath
       clipPathUnits="userSpaceOnUse"
       id="clipPath28"><path
         d="M -2.59062,0 H 363.70477 V 153.92097 H -2.59062 Z"
         id="path26" /></clipPath></defs><sodipodi:namedview
     pagecolor="#ffffff"
     bordercolor="#666666"
     borderopacity="1"
     objecttolerance="10"
     gridtolerance="10"
     guidetolerance="10"
     inkscape:pageopacity="0"
     inkscape:pageshadow="2"
     inkscape:window-width="640"
     inkscape:window-height="480"
     id="namedview4" /><g
     id="g10"
     inkscape:groupmode="layer"
     inkscape:label="vectorian068"
     transform="matrix(1.3333333,0,0,-1.3333333,0,205.22667)"><g
       id="g12"
       transform="translate(72,81.919)"><g
         id="g14"
         transform="translate(-69.409,-81.919)"><g
           id="g16"><g
             id="g18"><path
               d="m 88.11963,133.40921 c 1.3168,0 2.52482,0.464 3.48805,1.21602 l 3.09442,-2.99205 0.73761,-1.90404 c -0.2912,0.24002 -0.59359,0.48003 -0.92001,0.70403 -2.28322,1.63202 -5.45287,2.00003 -8.0705,0.94401 -2.01283,-0.81601 -3.36644,-2.36802 -3.71525,-4.22406 -0.69121,-3.68005 2.51523,-5.64808 2.65123,-5.72807 l 1.06402,-0.62401 -0.136,1.23201 c -0.0048,0.016 -0.1936,1.80801 0.7104,2.78405 0.42241,0.464 1.02242,0.688 1.83043,0.672 2.93442,-0.064 3.23684,-2.51203 3.19204,-7.6801 l -0.0096,-0.72001 c -0.0544,-3.68004 -0.12799,-8.72011 4.57286,-10.96014 3.23366,-1.55202 5.61449,-0.512 6.7457,0.24 1.5616,1.04002 2.53761,2.70404 2.61122,4.35207 1.14882,-0.33602 2.36644,-0.38401 3.60805,-0.11202 3.29603,0.73602 5.15686,2.17603 5.23046,2.24004 0.006,0 0.0192,0 0.0352,0.016 l 0.93441,-0.94401 c -0.2976,-0.62401 -0.4272,-1.48803 -0.33439,-2.38402 0.096,-0.96002 0.528,-2.78406 2.33441,-4.22407 2.57284,-2.06401 23.2787,-14.00019 24.0563,-14.46418 0,0 -15.9874,18.89624 -18.45303,21.08828 -1.73122,1.55201 -3.60324,1.66401 -4.56327,1.60002 -0.86561,-0.064 -1.66401,-0.30402 -2.22881,-0.67202 l -0.84002,0.83201 c 0.79682,0.84802 1.86883,2.32003 2.22884,4.36807 0.0752,0.448 0.112,0.87998 0.112,1.31201 0,0.48 -0.12801,0.944 -0.22881,1.408 1.62563,0.19201 3.25446,1.23203 4.17286,2.80004 0.37759,0.64001 0.81921,1.68003 0.81921,3.00805 0,1.02401 -0.25441,2.19201 -0.98401,3.50405 -2.49124,4.44806 -7.52009,4.14404 -11.19215,3.90403 l -0.72321,-0.032 c -5.34727,-0.31999 -7.6145,0 -7.82251,2.70404 -0.0624,0.76802 0.11521,1.34401 0.53441,1.77601 0.93121,0.944 2.75844,0.84803 2.77605,0.84803 l 1.25761,-0.08 -0.712,1.04001 c -0.0896,0.12798 -2.21125,3.15203 -5.84169,2.30403 -1.87362,-0.44802 -3.34884,-1.87203 -4.04644,-3.90406 -0.7568,-2.22403 -0.45601,-4.76807 0.7296,-6.78409 l -1.24,0.62402 -3.09285,2.97604 c 0.8128,0.99202 1.30081,2.24002 1.30081,3.61604 0,3.12004 -2.54404,5.66408 -5.67366,5.66408 -3.12645,0 -5.67047,-2.54404 -5.67047,-5.66408 0,-3.12004 2.54402,-5.68007 5.67047,-5.68007 z m 28.89797,-21.77629 c 0.23681,0.27202 0.93119,0.608 1.87841,0.67201 0.76802,0.048 2.26885,-0.048 3.66567,-1.28001 1.78721,-1.60004 10.10411,-11.24816 14.28816,-16.14422 -5.52486,3.31205 -16.43862,9.88813 -18.30582,11.39216 -1.45762,1.16801 -1.80324,2.62402 -1.88003,3.39203 -0.0176,0.16001 -0.0224,0.30401 -0.0224,0.46401 0,0.72 0.1792,1.26401 0.376,1.50402 z m -19.75547,26.62434 c 0.5536,1.63202 1.70723,2.75206 3.15845,3.10404 1.70083,0.4 2.95362,-0.304 3.71684,-0.944 -0.76322,-0.128 -1.67201,-0.416 -2.34883,-1.10402 -0.60001,-0.608 -0.90399,-1.40801 -0.90399,-2.36803 0,-0.11201 0.005,-0.23999 0.0144,-0.36801 0.3376,-4.35205 4.80327,-4.09604 9.12171,-3.84003 l 0.7296,0.032 c 3.53284,0.224 7.92812,0.51199 10.04334,-3.28005 0.54561,-0.97601 0.81921,-1.96802 0.81921,-2.91203 0,-0.83202 -0.2144,-1.63202 -0.6432,-2.36803 -0.77122,-1.31203 -2.14244,-2.19203 -3.45444,-2.25603 -0.22241,0.528 -0.45442,1.05602 -0.81281,1.52001 -1.55521,2.04803 -4.41927,3.48805 -7.4769,3.79207 -4.42086,0.43199 -8.02093,1.024 -10.78895,4.41604 -0.99839,1.23202 -1.53122,2.81604 -1.53122,4.40006 0,0.73601 0.11521,1.47201 0.3568,2.17602 z m 1.51523,-8.73611 c 2.87524,-2.54404 6.40329,-3.10405 10.32812,-3.48805 2.73124,-0.256 5.26409,-1.52001 6.6193,-3.29602 0.97762,-1.29604 1.32642,-2.78403 1.03522,-4.44806 -0.4944,-2.84804 -2.66884,-4.44806 -2.69123,-4.46407 -0.0368,-0.032 -1.75683,-1.34401 -4.76329,-2.01604 -1.688,-0.384 -3.25922,-0.08 -4.67204,0.88004 -1.94724,1.34399 -3.47046,3.95204 -3.87847,6.67207 -0.40478,2.68804 -1.1472,5.64808 -3.27201,8.30411 -0.18242,0.51201 -0.71202,2.03201 -1.10885,3.05603 1.12484,-0.56001 2.40325,-1.20001 2.40325,-1.20001 z m 0.76161,-10.33612 c 0.4576,-3.04006 2.18242,-5.9841 4.40006,-7.50409 0.38401,-0.27202 0.80322,-0.41602 1.21281,-0.59203 -0.168,-0.016 -0.392,-0.032 -0.392,-0.032 0.005,-0.048 0.005,-0.096 0.005,-0.14398 0,-1.28002 -0.8256,-2.68804 -2.09121,-3.52005 -0.91522,-0.608 -2.84966,-1.44002 -5.53449,-0.15999 -3.99046,1.90402 -3.92483,6.30408 -3.87205,9.84012 l 0.0096,0.736 c 0.03841,4.32007 0.07519,8.80012 -4.39366,8.89612 -1.17122,0.032 -2.10563,-0.32 -2.77123,-1.056 -0.65442,-0.72001 -0.89921,-1.64804 -0.99202,-2.41604 -0.5888,0.62399 -1.25122,1.58402 -1.25122,2.91203 0,0.256 0.02082,0.51201 0.07361,0.78401 0.2688,1.44001 1.35042,2.64003 2.96965,3.29604 2.23842,0.912 4.94406,0.59202 6.89608,-0.784 3.28803,-2.35203 5.00326,-5.40809 5.73127,-10.25613 z m -11.41934,24.35232 c 2.45123,0 4.44165,-2.00004 4.44165,-4.44807 0,-1.04001 -0.3584,-2.00003 -0.95841,-2.75205 l -0.90403,-0.832 c -0.7152,-0.544 -1.60961,-0.86401 -2.57921,-0.86401 -2.44965,0 -4.44327,2.00002 -4.44327,4.44806 0,2.44803 1.99362,4.44807 4.44327,4.44807 z"
               style="fill:#000000;fill-opacity:1;fill-rule:nonzero;stroke:#000000;stroke-width:0.3985;stroke-linecap:butt;stroke-linejoin:miter;stroke-miterlimit:10;stroke-dasharray:none;stroke-opacity:1"
               id="path20" /><path
               d="m 242.96161,105.31284 c 1.80803,1.44001 2.24003,3.26405 2.33444,4.22407 0.0912,0.89599 -0.0368,1.76001 -0.33601,2.38402 l 0.93922,0.94401 c 0.0112,-0.016 0.0256,-0.016 0.0304,-0.016 0.0768,-0.064 1.93445,-1.50402 5.23369,-2.24004 1.24162,-0.27199 2.45921,-0.224 3.60643,0.11202 0.0752,-1.64803 1.05284,-3.31205 2.60964,-4.35207 1.13441,-0.752 3.51524,-1.79202 6.7473,-0.24 4.70245,2.24003 4.62725,7.2801 4.57125,10.96014 l -0.006,0.72001 c -0.0432,5.16807 0.25281,7.6161 3.19043,7.6801 0.80962,0.016 1.40643,-0.208 1.83205,-0.672 0.9024,-0.97604 0.71201,-2.76804 0.7088,-2.78405 l -0.1344,-1.23201 1.06243,0.62401 c 0.13758,0.08 3.34404,2.04802 2.65283,5.72807 -0.3488,1.85604 -1.70244,3.40805 -3.71526,4.22406 -2.62083,1.05602 -5.79046,0.68801 -8.0721,-0.94401 -0.32479,-0.224 -0.63042,-0.46401 -0.92161,-0.70403 l 0.73761,1.90404 3.09762,2.99205 c 0.96163,-0.75202 2.17126,-1.21602 3.48647,-1.21602 3.12483,0 5.67206,2.56003 5.67206,5.68007 0,3.12004 -2.54723,5.66408 -5.67206,5.66408 -3.13126,0 -5.67529,-2.54404 -5.67529,-5.66408 0,-1.37602 0.48802,-2.62402 1.30082,-3.61604 l -3.09124,-2.97604 -1.2368,-0.62402 c 1.184,2.01602 1.4848,4.56006 0.728,6.78409 -0.70081,2.03203 -2.17603,3.45604 -4.04644,3.90406 -3.63206,0.848 -5.75368,-2.17605 -5.84169,-2.30403 l -0.71201,-1.04001 1.25602,0.08 c 0.0192,0 1.84322,0.096 2.77763,-0.84803 0.4192,-0.432 0.59521,-1.00799 0.53442,-1.77601 -0.20801,-2.70404 -2.47685,-3.02403 -7.82411,-2.70404 l -0.72162,0.032 c -3.67363,0.24001 -8.7041,0.54403 -11.19374,-3.90403 -0.72961,-1.31204 -0.98561,-2.48004 -0.98561,-3.50405 0,-1.32802 0.4464,-2.36804 0.82402,-3.00805 0.91679,-1.56801 2.54561,-2.60803 4.16644,-2.80004 -0.096,-0.464 -0.2256,-0.928 -0.2256,-1.408 0,-0.43203 0.0384,-0.86401 0.1136,-1.31201 0.35682,-2.04804 1.42722,-3.52005 2.22403,-4.36807 l -0.83682,-0.83201 c -0.56639,0.368 -1.3632,0.60801 -2.22882,0.67202 -0.96161,0.064 -2.83363,-0.048 -4.56166,-1.60002 -2.46564,-2.19204 -16.90901,-19.72826 -17.49461,-20.41628 0,0 20.52185,11.72817 23.09628,13.79218 z m 25.21153,33.77644 c 0,2.44803 1.99362,4.44807 4.44327,4.44807 2.44963,0 4.44005,-2.00004 4.44005,-4.44807 0,-2.44804 -1.99042,-4.43207 -4.43685,-4.44806 -2.39683,0 -4.44647,2.06404 -4.44647,4.44806 z m -1.24322,-9.64812 c 1.94564,1.37602 4.65767,1.696 6.89608,0.784 1.61603,-0.65601 2.69605,-1.85603 2.96965,-3.29604 0.0496,-0.272 0.0736,-0.52801 0.0736,-0.78401 0,-1.32801 -0.66243,-2.28804 -1.24962,-2.91203 -0.0944,0.768 -0.34402,1.69603 -0.99362,2.41604 -0.66562,0.736 -1.6,1.088 -2.77122,1.056 -4.46886,-0.096 -4.43207,-4.57605 -4.39527,-8.89612 l 0.0128,-0.736 c 0.048,-3.53604 0.11361,-7.9361 -3.87685,-9.84012 -2.68163,-1.28003 -4.61607,-0.44801 -5.53607,0.15999 -1.26082,0.83201 -2.08643,2.24003 -2.08643,3.52005 0,0.048 0,0.096 0.003,0.14398 0,0 0.43361,0.35202 0.82242,0.62404 2.21123,1.51999 3.94244,4.46403 4.40005,7.50409 0.72641,4.84804 2.44323,7.9041 5.73127,10.25613 z m -27.16034,-5.23207 c -0.43361,0.73601 -0.64801,1.53601 -0.64801,2.36803 0,0.94401 0.2752,1.93602 0.8224,2.91203 2.11203,3.79204 6.51048,3.50405 10.04173,3.28005 l 0.72801,-0.032 c 4.32166,-0.25601 8.78733,-0.51202 9.12174,3.84003 0.01,0.12802 0.016,0.256 0.016,0.36801 0,0.96002 -0.30402,1.76003 -0.90721,2.36803 -0.67522,0.68802 -1.58402,0.97602 -2.34564,1.10402 0.76481,0.64 2.01441,1.344 3.71525,0.944 1.45282,-0.35198 2.60643,-1.47202 3.16164,-3.10404 0.2384,-0.70401 0.35361,-1.44001 0.35361,-2.17602 0,-1.58402 -0.53121,-3.16804 -1.52802,-4.40006 -2.77122,-3.39204 -6.37129,-3.98405 -10.79375,-4.41604 -3.05284,-0.30402 -5.92007,-1.74404 -7.47209,-3.79207 -0.36,-0.46399 -0.59041,-0.99201 -0.8096,-1.52001 -1.31521,0.064 -2.68965,0.944 -3.45605,2.25603 z m 4.20645,-5.92007 c -0.2912,1.66403 0.056,3.15202 1.03682,4.44806 1.35042,1.77601 3.88806,3.04002 6.61609,3.29602 3.92804,0.384 7.45289,0.94401 10.31852,3.50406 0.01,-0.016 1.29441,0.62399 2.41284,1.184 -0.39361,-1.02402 -0.92481,-2.54402 -1.10884,-3.05603 -2.1264,-2.65603 -2.86561,-5.61607 -3.26882,-8.30411 -0.40961,-2.72003 -1.93124,-5.32808 -3.88166,-6.67207 -1.4096,-0.96002 -2.98083,-1.26404 -4.66885,-0.88004 -3.00964,0.67203 -4.72806,1.98404 -4.76486,2.01604 -0.0192,0.016 -2.19844,1.61603 -2.69124,4.46407 z m -5.80008,-7.2641 c 1.39682,1.23199 2.89445,1.32802 3.66245,1.28001 0.94882,-0.064 1.64323,-0.39999 1.88003,-0.67201 0.19679,-0.24001 0.37759,-0.78402 0.37759,-1.50402 0,-0.16 -0.008,-0.304 -0.0256,-0.46401 -0.0752,-0.76801 -0.4208,-2.22402 -1.88003,-3.39203 -1.86562,-1.50403 -12.78098,-8.08011 -18.30263,-11.39216 4.18405,4.89606 12.49935,14.54418 14.28818,16.14422 z"
               style="fill:#000000;fill-opacity:1;fill-rule:nonzero;stroke:#000000;stroke-width:0.3985;stroke-linecap:butt;stroke-linejoin:miter;stroke-miterlimit:10;stroke-dasharray:none;stroke-opacity:1"
               id="path22" /><g
               id="g24"
               clip-path="url(#clipPath28)"><path
                 d="m 353.42705,106.56085 c -4.76168,5.23207 -12.44017,8.11211 -19.55387,7.36009 -5.18727,-0.55999 -9.2673,-2.96002 -11.49293,-6.78408 -2.57285,-4.40004 -2.80324,-9.58411 -0.61923,-13.88817 2.08804,-4.09606 6.1185,-6.75209 11.06256,-7.24809 5.09767,-0.52802 9.25932,1.32801 11.42254,5.08805 1.80323,3.15205 1.72483,7.0401 -0.20321,9.68013 -1.93442,2.65604 -6.04166,3.87206 -9.54731,2.83203 -2.83525,-0.84801 -4.54408,-2.89602 -4.68485,-5.61605 -0.08,-1.58402 0.36,-2.81604 1.31521,-3.63207 1.87682,-1.61601 5.02886,-0.992 5.16326,-0.96001 l 1.22561,0.24001 -0.94722,0.81601 c -1.056,0.91202 -1.44961,1.84003 -1.11041,2.60803 0.3296,0.75202 1.30723,1.21602 2.27363,1.10402 1.48324,-0.17599 2.15203,-1.44003 2.27685,-2.44803 0.1472,-1.21602 -0.36162,-2.88003 -2.28484,-3.61604 -3.41446,-1.29604 -8.06729,-1.10402 -10.87694,3.31204 -1.43202,2.24002 -1.40642,5.60007 0.056,8.1601 1.82881,3.20006 5.59688,4.86407 10.60973,4.70405 4.51527,-0.16 8.5281,-2.208 11.59377,-5.95205 4.03365,-4.92809 5.85925,-12.11217 4.76644,-18.75225 -0.20639,-1.28003 -0.46879,-2.43205 -0.76321,-3.53605 -0.45121,3.29603 -3.18564,5.82406 -6.48807,5.82406 -3.61765,0 -6.56007,-3.04002 -6.56007,-6.76808 0,-3.72804 2.94242,-6.76808 6.56007,-6.76808 1.41281,0 2.71684,0.464 3.78564,1.24802 -1.62242,-2.75204 -3.72964,-5.23208 -6.33929,-8.17612 l -0.0832,0.11201 c -0.2032,-0.16 -5.01285,-3.84005 -10.68494,1.32801 -2.60962,2.36804 -5.42567,2.72003 -8.37131,1.04004 -0.4448,-0.25603 -0.7936,-0.30402 -1.04161,-0.14403 -0.45282,0.272 -0.3312,1.98404 -0.25599,3.05605 l 0.0912,1.26402 -1.04962,-0.72002 c -1.08,-0.736 -2.18881,-2.76804 -2.43521,-4.17604 -0.80322,0.76799 -2.22242,1.64801 -4.64807,1.88803 -1.82082,0.17599 -3.44645,1.68001 -3.78244,3.47203 -0.10081,3.93604 2.90244,5.61608 5.77127,6.17608 l -2.76004,0.06399 c -3.12484,-0.144 -6.05928,-2.28803 -7.46568,-5.48806 -1.78723,-4.03204 -0.84642,-8.84813 2.51362,-12.88017 6.17768,-7.40809 18.86104,-7.24809 26.67714,-3.72804 -0.61599,-0.78401 -1.1616,-1.53601 -1.64322,-2.25603 0,0 -2.83204,-1.05601 -3.60324,-1.45602 -3.88165,-1.69603 -10.37774,-4.01605 -16.13142,-3.58405 -7.35368,0.56 -9.89932,2.35204 -12.59377,4.24005 l -1.88481,1.28003 c -2.97442,1.87201 -5.71208,2.20801 -7.7121,2.44802 l -1.51361,0.224 c -0.88963,0.17601 -1.51202,0.51202 -1.80482,0.94401 -0.20961,0.32002 -0.26881,0.72002 -0.17281,1.20001 l 0.3232,1.61602 -1.30082,-1.008 c -1.0448,-0.80002 -1.96003,-2.68803 -1.69121,-4.73606 0.0544,-0.432 0.17279,-0.912 0.36641,-1.392 -1.44483,0.65598 -3.55047,1.28 -6.4849,1.344 -5.09926,0.112 -8.84651,2.30403 -9.10731,5.31206 -0.44642,1.82404 2.39523,4.38406 2.39523,4.38406 -1.22243,0 -2.98404,-0.72 -4.16005,-2.32003 -0.62401,-0.84801 -1.22403,-2.16002 -1.22403,-4.01604 0,-0.96002 0.16161,-2.06403 0.56163,-3.34404 1.48479,-4.70407 7.93768,-10.01614 15.39697,-11.21616 -2.48642,0.032 -5.27525,0.17601 -8.4561,0.52802 -12.16494,1.37601 -17.79063,5.28007 -17.90262,7.61609 -0.003,0.04802 -0.003,0.09601 -0.003,0.128 0,0.49601 0.14563,0.89603 0.45281,1.21601 0.81761,0.88003 2.47365,0.89603 2.49122,0.89603 h 1.05924 l -0.53122,0.912 c -0.0688,0.128 -1.81921,3.07205 -5.84485,3.18405 -2.64645,0.06399 -5.14088,-1.93604 -5.94089,-4.76808 -0.74081,-2.65601 0.0976,-5.36007 2.27202,-7.71209 l -3.92486,1.45603 c -0.01,0.06399 -0.016,0.12799 -0.0304,0.192 -0.29759,1.02402 -3.27684,3.48804 -4.56006,4.52806 -0.0656,4.16005 -3.39205,7.53609 -7.4785,7.53609 -1.29601,0 -2.51525,-0.35201 -3.57765,-0.94402 -0.5376,0.64 -2.00162,2.14404 -3.84804,2.20802 -0.6304,0.016 -1.23201,-0.14398 -1.80483,-0.44799 -1.89923,1.184 -5.13768,3.90405 -7.23849,5.72807 0.41279,-0.12799 0.82081,-0.24001 1.21922,-0.368 7.00968,-2.20804 10.06572,-0.92801 13.50897,0.72002 2.68644,1.28 4.64966,-0.78403 4.85605,-0.73602 0.17601,0.048 1.17122,2.33603 0.47681,4.24006 1.13763,0.032 2.67204,0.288 4.55208,1.13602 3.74723,1.66402 5.97767,1.69601 7.97128,0.08 0.94083,-0.76802 1.78403,-2.20804 1.55363,-3.69606 -0.216,-1.40802 -1.09602,-2.86404 -3.67206,-4.04805 3.60004,0.16001 6.12807,1.68001 7.4001,4.30405 0.59042,1.20003 0.88482,2.52803 0.88482,3.82405 0,1.39201 -0.3376,2.76804 -1.00641,3.93605 -1.83682,3.24804 -5.52809,6.16008 -11.60495,6.27209 0.90399,0.56 1.46402,1.39202 2.06082,2.41602 0.54721,0.92803 0.82561,1.96803 0.82561,3.12004 0,1.13602 -0.272,2.38403 -0.81599,3.71205 0,0 -0.0128,0.01599 -0.0192,0.01599 5.49768,-1.184 8.39052,-3.16803 10.76654,-4.81605 2.27365,-1.58402 4.24007,-2.94405 7.55691,-2.88004 7.4049,0.14402 8.90572,-2.43203 9.00812,-3.96804 1.43521,1.64802 2.88803,5.69608 1.4256,9.26412 -0.26559,0.64 -0.60001,1.24801 -1,1.82403 2.37444,-0.01601 10.47214,-0.35203 14.453,-4.20806 2.46242,-2.40004 3.72483,-6.83209 3.14081,-11.04016 -0.46559,-3.32802 -2.0096,-5.92006 -4.23364,-7.12009 -2.26244,-1.216 -4.56006,-1.44 -6.46887,-0.608 -1.42884,0.62401 -2.29124,1.68003 -2.48484,2.41602 -0.2224,0.83202 0.04,1.66403 0.5936,2.20805 1.33441,1.312 4.37126,-1.15202 4.54086,-1.04003 0.096,2.83204 -0.87202,6.08007 -2.58082,7.42411 -1.35364,1.07201 -3.20806,1.26401 -5.51048,0.59199 -2.80004,-0.832 -4.58086,-3.20002 -4.76807,-6.33607 -0.17279,-2.97603 1.25282,-6.68809 4.83687,-8.22411 2.42884,-1.04 7.63369,-1.69602 12.02255,0.73601 3.28964,1.82402 5.38408,5.08807 6.04648,9.44013 0.82881,5.40806 -1.02562,11.44014 -5.08806,16.56019 -5.01767,6.3201 -12.58417,10.30414 -20.75548,10.94415 -15.91701,1.21602 -30.21318,-1.552 -46.23898,-9.92013 -4.65608,-2.43202 -8.86572,-5.32807 -12.49457,-8.22411 2.87204,2.81606 6.22247,6.25608 9.40332,9.87215 3.56004,4.04804 20.92348,25.05632 13.21137,40.99251 -4.03205,8.3361 -11.22574,12.49617 -19.24184,11.13615 -8.05611,-1.376 -10.61135,-7.1681 -10.35054,-11.71214 0.27522,-4.86407 3.60164,-8.46411 8.08649,-8.78413 2.41125,-0.15998 4.84808,0.70402 6.5249,2.30403 1.4992,1.44003 2.25764,3.32805 2.19523,5.44007 -0.072,2.49605 -1.14881,4.56007 -2.95684,5.68009 -1.66723,1.02402 -3.74724,1.088 -5.70568,0.192 -0.0368,-0.016 -0.0672,-0.048 -0.10241,-0.064 3.14566,5.45607 9.96655,5.05606 10.29615,5.04007 0.04,0 0.0752,0.016 0.11199,0.016 5.9265,-1.68001 10.73135,-7.74409 9.31051,-14.00018 -0.44799,-1.98401 -1.6128,-4.12804 -2.99682,-5.63206 -4.64487,-4.99206 -6.9569,-7.7121 -7.87529,-10.52813 -0.20001,0.4 -0.43361,0.80001 -0.71521,1.18401 -1.54723,2.11203 -4.51846,3.61604 -8.07853,3.69604 2.12485,-2.19203 2.66724,-6.83209 0.21921,-10.25613 -2.90084,-4.06404 -4.63685,-6.78407 -3.79844,-11.40816 0.8112,-4.43203 1.47682,-9.1521 0.0208,-13.77617 -0.006,-0.01599 -0.002,-0.03199 -0.006,-0.06399 -1.66083,-1.58402 -3.08005,-2.91205 -4.10246,-3.84004 1.07683,2.288 2.05923,4.96005 2.69925,7.96809 1.55842,7.32808 -0.1328,14.67219 -4.10886,17.85623 -2.28004,1.82402 -5.03047,2.08002 -7.9553,0.73601 l -1.64002,-0.752 1.76001,-0.41602 c 1.21281,-0.272 2.11523,-0.96 2.68485,-2.03202 0.96481,-1.80802 0.86241,-4.64005 -0.26243,-8.03211 -8.9889,12.06416 -9.28649,20.64028 -9.21769,22.60829 1.7536,-1.04 4.21603,-1.744 7.36968,-0.88 5.71047,1.568 7.0657,6.70408 6.4929,10.62413 -0.41762,2.86404 -1.92324,5.45608 -4.60009,7.93609 -4.14563,3.87206 -5.44325,6.0481 -5.54246,9.31214 -0.0416,1.36001 0.37602,2.36803 1.14242,2.78403 0.8144,0.44801 1.98883,0.20801 3.22245,-0.64 l 1.22882,-0.84803 -0.27202,1.47204 c -0.60001,3.21603 -2.49443,5.23205 -5.19366,5.53607 -2.76644,0.30398 -5.66086,-1.36004 -6.7409,-3.87206 -0.55999,-1.312 -0.79681,-2.72003 -0.88479,-3.88805 l -3.57447,8.40011 -0.5632,-1.34401 c -0.0176,-0.048 -1.03361,-2.44803 -2.4224,-5.80808 -0.88004,2.22403 -2.95206,6.30408 -6.45771,6.80008 -2.74243,0.384 -4.24646,-0.52798 -5.02727,-1.36002 -1.0672,-1.136 -1.46562,-2.84804 -1.0928,-4.70405 l 0.2464,-1.23203 0.8224,0.94402 c 0.56322,0.672 1.37763,0.88003 2.23204,0.60802 1.05921,-0.35202 2.35681,-1.55204 2.53124,-3.84005 0.24319,-3.18405 -2.97444,-6.51208 -5.81609,-9.44012 l -1.29601,-1.36002 c -1.38723,-1.48803 -4.57287,-5.36007 -4.24485,-9.55214 0.168,-2.12803 1.23999,-3.98405 3.18724,-5.50405 2.95683,-2.28804 6.80008,-2.04804 9.41131,-1.05602 0.35842,0.14401 0.69121,0.288 1.01441,0.46399 -0.01,-2.57602 -0.79039,-10.73611 -9.0513,-21.92027 -0.0672,0.016 -0.1216,0.048 -0.18562,0.08 l -0.39678,0.144 -0.27682,-0.32 c -0.0912,-0.112 -0.16802,-0.22401 -0.25119,-0.32 -1.18244,3.45604 -1.31043,6.35208 -0.32961,8.2081 0.5712,1.07202 1.47362,1.76002 2.68643,2.03202 l 1.76003,0.41602 -1.64163,0.752 c -2.92484,1.34401 -5.67687,1.08801 -7.95531,-0.73601 -3.97604,-3.18404 -5.66727,-10.52815 -4.10886,-17.85623 0.64003,-3.00804 1.62403,-5.68009 2.70085,-7.96809 -1.02401,0.92799 -2.44323,2.25602 -4.10404,3.84004 -0.003,0.032 0,0.048 -0.006,0.06399 -1.45441,4.62407 -0.78723,9.34414 0.0192,13.77617 0.84161,4.62409 -0.89443,7.34412 -3.79685,11.40816 -2.44645,3.42404 -1.90724,8.0641 0.21918,10.25613 -3.56003,-0.08 -6.53128,-1.58401 -8.07849,-3.69604 -0.28002,-0.384 -0.51521,-0.78401 -0.71361,-1.18401 -0.91843,2.81603 -3.23205,5.53607 -7.8753,10.52813 -1.38723,1.50402 -2.54885,3.64805 -2.99846,5.63206 -1.41759,6.25609 3.38406,12.32017 9.31054,14.00018 0.04,0 0.0736,-0.016 0.11359,-0.016 0.32961,0.016 7.14731,0.416 10.29614,-5.04007 -0.0352,0.016 -0.0672,0.048 -0.104,0.064 -1.95683,0.896 -4.03845,0.83202 -5.70409,-0.192 -1.80641,-1.12002 -2.88482,-3.18404 -2.95843,-5.68009 -0.0624,-2.11202 0.69601,-4.00004 2.19684,-5.44007 1.67363,-1.60001 4.11364,-2.46401 6.52327,-2.30403 4.48487,0.32002 7.81131,3.92006 8.08811,8.78413 0.25922,4.54404 -2.29443,10.33614 -10.35053,11.71214 -8.0145,1.36002 -15.20981,-2.80005 -19.24346,-11.13615 -7.70889,-15.93619 9.65454,-36.94447 13.21297,-40.99251 3.17766,-3.61607 6.53129,-7.05609 9.40333,-9.87215 -3.62884,2.89604 -7.8401,5.79209 -12.49455,8.22411 -16.0242,8.36813 -30.32678,11.13615 -46.2406,9.92013 C 82.72275,102.03279 75.15955,98.04875 70.1392,91.72865 66.07974,86.6086 64.2234,80.57652 65.05162,75.16846 c 0.66412,-4.35206 2.75635,-7.61611 6.04698,-9.44013 4.39076,-2.43203 9.59543,-1.77601 12.02097,-0.73601 3.58563,1.53602 5.01445,5.24808 4.83845,8.22411 -0.18399,3.13605 -1.96802,5.50407 -4.76486,6.33607 -2.30693,0.67202 -4.16006,0.48002 -5.51327,-0.59199 -1.70783,-1.34404 -2.67504,-4.59207 -2.58123,-7.42411 0.1688,-0.11199 3.20623,2.35203 4.54065,1.04003 0.5531,-0.54402 0.81652,-1.37603 0.59542,-2.20805 -0.1922,-0.73599 -1.05483,-1.79201 -2.48604,-2.41602 -1.90622,-0.832 -4.20326,-0.608 -6.46869,0.608 -2.22434,1.20003 -3.76584,3.79207 -4.23145,7.12009 -0.58751,4.20807 0.6749,8.64012 3.13995,11.04016 3.97895,3.85603 12.07665,4.19205 14.45426,4.20806 -0.4032,-0.57602 -0.73759,-1.18403 -1.00159,-1.82403 -1.46403,-3.56804 -0.0096,-7.6161 1.42402,-9.26412 0.104,1.53601 1.60481,4.11206 9.00811,3.96804 3.32006,-0.06401 5.28487,1.29602 7.5569,2.88004 2.37603,1.64802 5.26888,3.63205 10.76653,4.81605 -0.008,0 -0.0176,-0.01599 -0.0208,-0.01599 -0.5424,-1.32802 -0.8128,-2.57603 -0.8128,-3.71205 0,-1.15201 0.27681,-2.19201 0.8224,-3.12004 0.5984,-1.024 1.15681,-1.85602 2.06244,-2.41602 -6.07689,-0.11201 -9.76653,-3.02405 -11.60495,-6.27209 -0.66881,-1.16801 -1.00641,-2.54404 -1.00641,-3.93605 0,-1.29602 0.29439,-2.62402 0.88321,-3.82405 1.27679,-2.62404 3.80163,-4.14404 7.40489,-4.30405 -2.57924,1.18401 -3.45926,2.64003 -3.67525,4.04805 -0.2304,1.48802 0.6144,2.92804 1.55361,3.69606 1.99363,1.61601 4.22726,1.58402 7.97131,-0.08 1.88004,-0.84802 3.41444,-1.10402 4.55046,-1.13602 -0.69281,-1.90403 0.3024,-4.19206 0.48,-4.24006 0.2032,-0.04801 2.16803,2.01602 4.85766,0.73602 3.44005,-1.64803 6.4977,-2.92806 13.50579,-0.72002 0.7904,0.24001 1.61121,0.48001 2.44482,0.70401 -2.07042,-1.80803 -5.60966,-4.80008 -7.62891,-6.06408 -0.57281,0.30401 -1.176,0.46399 -1.80641,0.44799 -1.84483,-0.06398 -3.30884,-1.56802 -3.84324,-2.20802 -1.06723,0.59201 -2.28643,0.94402 -3.58246,0.94402 -4.08805,0 -7.41129,-3.37604 -7.4769,-7.53609 -1.28961,-1.04002 -4.26724,-3.50404 -4.56006,-4.52806 -0.0384,-0.144 -0.0496,-0.28801 -0.0496,-0.44801 l -0.112,0.30401 -3.67206,-1.36003 c 2.07843,2.32004 2.87364,4.96005 2.14563,7.56809 -0.7968,2.83204 -3.29283,4.83207 -5.93767,4.76808 -4.02406,-0.112 -5.77127,-3.05605 -5.84648,-3.18405 l -0.528,-0.912 h 1.06081 c 0.01761,0 1.66882,-0.016 2.48964,-0.89603 0.304,-0.31998 0.4528,-0.72 0.4528,-1.21601 0,-0.03199 0,-0.07998 -0.003,-0.128 -0.112,-2.33602 -5.74088,-6.24008 -17.90582,-7.61609 -3.17925,-0.35201 -5.96508,-0.49602 -8.45423,-0.52802 7.45581,1.20002 13.9135,6.51209 15.3967,11.21616 0.40321,1.28001 0.56482,2.38402 0.56482,3.34404 0,1.85602 -0.60001,3.16803 -1.22882,4.01604 -1.17441,1.60003 -2.93443,2.32003 -4.15686,2.32003 0,0 2.84004,-2.56002 2.40803,-4.28805 -0.27519,-3.10404 -4.02084,-5.29607 -9.1213,-5.40807 -2.93443,-0.064 -5.04087,-0.68802 -6.4876,-1.344 0.19441,0.48 0.31552,0.96 0.3703,1.392 0.26561,2.04803 -0.6485,3.93604 -1.69221,4.73606 l -1.30002,1.008 0.3234,-1.61602 c 0.09532,-0.47999 0.03921,-0.87999 -0.17428,-1.20001 -0.2928,-0.43199 -0.91633,-0.768 -1.80543,-0.94401 l -1.51253,-0.224 c -1.99843,-0.24001 -4.73607,-0.57601 -7.7126,-2.44802 l -1.88451,-1.28003 c -2.69685,-1.88801 -5.24048,-3.68005 -12.59378,-4.24005 -5.75317,-0.432 -12.25017,1.88802 -16.13301,3.58405 -0.77202,0.40001 -1.59521,0.78401 -2.47662,1.15202 -0.6203,0.31999 -0.97812,0.51199 -0.99841,0.528 0,0 -1.15552,1.24802 -1.77184,2.03203 7.81641,-3.52005 20.50168,-3.68005 26.68304,3.72804 3.35937,4.03204 4.30007,8.84813 2.51264,12.88017 -1.40941,3.20003 -4.34224,5.34406 -7.47209,5.48806 L 43.53265,78.6885 c 2.87183,-0.56 5.87346,-2.24004 5.77668,-6.17608 -0.33922,-1.79202 -1.96723,-3.29604 -3.78676,-3.47203 -2.42113,-0.24002 -3.84314,-1.12004 -4.64475,-1.88803 -0.24522,1.408 -1.35684,3.44004 -2.43445,4.17604 l -1.05149,0.72002 0.09069,-1.26402 c 0.07491,-1.07201 0.197,-2.78405 -0.25631,-3.05605 -0.24691,-0.15999 -0.59371,-0.112 -1.04132,0.14403 -2.94623,1.67999 -5.76195,1.328 -8.3713,-1.04004 C 22.14177,61.66428 17.33232,65.34433 17.1292,65.50433 l -0.08289,-0.11201 c -2.61404,2.94404 -4.71718,5.42408 -6.33908,8.17612 1.07021,-0.78402 2.37343,-1.24802 3.78433,-1.24802 3.61896,0 6.5595,3.04004 6.5595,6.76808 0,3.72806 -2.94054,6.76808 -6.5595,6.76808 -3.30383,0 -6.03526,-2.52803 -6.48598,-5.82406 -0.29541,1.104 -0.55468,2.25602 -0.7642,3.53605 -1.09502,6.64008 0.73142,13.82416 4.76585,18.75225 3.06725,3.74405 7.0782,5.79205 11.59397,5.95205 5.01246,0.16002 8.7813,-1.50399 10.60933,-4.70405 1.46281,-2.56003 1.48451,-5.92008 0.0594,-8.1601 -2.81334,-4.41606 -7.46411,-4.60808 -10.88203,-3.31204 -1.92113,0.73601 -2.43365,2.40002 -2.28374,3.61604 0.1235,1.008 0.79541,2.27204 2.27661,2.44803 0.96873,0.112 1.94536,-0.352 2.27115,-1.10402 0.3416,-0.768 -0.05071,-1.69601 -1.10712,-2.60803 l -0.9452,-0.81601 1.22491,-0.24001 c 0.13279,-0.03199 3.28294,-0.656 5.16026,0.96001 0.95731,0.81603 1.40013,2.04805 1.31651,3.63207 -0.1423,2.72003 -1.85011,4.76804 -4.68296,5.61605 -3.50794,1.04003 -7.611,-0.17599 -9.54522,-2.83203 -1.93142,-2.64003 -2.01272,-6.52808 -0.2034,-9.68013 2.15954,-3.76004 6.322,-5.61607 11.42045,-5.08805 4.94557,0.496 8.9768,3.15203 11.05805,7.24809 2.18442,4.30406 1.95621,9.48813 -0.6124,13.88817 -2.22826,3.82406 -6.3096,6.22409 -11.49717,6.78408 -7.11259,0.75202 -14.78769,-2.12802 -19.55494,-7.36009 -9.25329,-10.12811 -10.275,-26.56035 -2.37975,-38.1925 3.17826,-4.70406 6.5735,-8.56009 9.56894,-11.96815 4.33266,-4.92806 7.75319,-8.8161 7.14999,-11.76014 -0.15771,-0.768 -0.49211,-1.28001 -1.02171,-1.58401 -1.17354,-0.65601 -2.92983,-0.01601 -2.94774,-0.01601 l -0.85552,0.32001 0.02811,-0.91204 c 0.0032,-0.07998 0.0813,-2.06401 1.59063,-3.37602 1.0189,-0.88002 2.41572,-1.23202 4.14854,-1.04002 2.10333,0.224 4.77057,1.52003 5.94688,4.41604 0.86101,2.12804 1.064,5.48809 -1.70303,10.33615 0.63901,-0.304 1.44753,-0.688 2.41734,-1.12002 7.52179,-3.93605 10.02571,-8.97611 10.85623,-11.82416 l 0.35462,-1.26399 c 0.9547,-3.47205 0.23621,-4.86408 6.38597,-7.7281 4.43066,-2.06405 3.82825,-5.87209 3.82825,-5.87209 1.42491,0.83202 2.42813,1.23202 4.09846,2.38403 1.98291,1.37604 2.51734,4.16007 1.2705,4.80007 2.44375,-1.24802 4.98428,-1.64801 7.6968,-1.87201 2.08133,-0.17601 4.23137,-0.27202 5.79378,-1.90404 1.39082,-1.45601 1.20004,-3.08805 -0.342,-4.12805 -0.01409,-0.016 -1.80003,-1.216 -1.80003,-1.216 l 2.16403,0.09597 c 0.1579,0 3.87186,0.16002 5.39696,2.30405 2.58115,3.61603 -0.58609,8.6721 -3.54143,10.94414 -0.84771,0.67199 -1.70532,1.23201 -2.57124,1.74403 2.69695,-0.28802 5.61267,-0.38402 8.46743,-0.49602 6.48927,-0.224 13.20135,-0.47999 16.0302,-2.75204 0.60479,-0.496 0.896,-0.99201 0.89121,-1.56803 -0.0096,-1.08801 -1.13441,-2.19201 -1.56642,-2.52803 l -1.52483,-1.184 1.92803,0.09599 c 0.0688,0 6.80967,0.35201 7.55369,5.85608 0.20961,1.56802 -0.032,2.86403 -0.71679,3.85605 5.79687,0.84801 12.91056,3.95206 14.52497,4.67206 0.61602,-0.46402 1.29122,-0.72 1.98082,-0.72 h 0.0672 0.0672 c 1.15042,0.27198 3.68807,1.79202 4.48488,2.27203 1.0576,-0.57602 2.26402,-0.91202 3.54723,-0.91202 4.12326,0 7.4817,3.44005 7.4817,7.64809 0,0.24 -0.016,0.464 -0.0336,0.688 1.38562,0 3.26563,0.91204 4.03206,2.40005 0.2112,0.40002 0.41759,1.05602 0.3136,1.85601 l 0.0432,-0.06398 c 6.8225,4.22404 12.46417,9.82413 13.47539,10.84814 0.47041,0 0.94081,-0.016 1.41281,-0.06401 -2.17443,-0.688 -3.74403,-2.86404 -3.88003,-4.52806 2.0496,0.56002 4.33604,0.336 6.00807,-2.11203 0.65762,-0.96 1.40001,-1.68002 2.10243,-2.22403 -0.1216,0 -0.25281,0 -0.36801,0 -5.62726,-0.09599 -7.53929,-4.00006 -7.53929,-4.12804 0,-0.08001 1.70721,-1.92002 3.14082,-2.19204 -1.48642,-0.33598 -2.87523,-1.39201 -4.19205,-2.70403 l -0.87841,-0.912 c -1.61602,-1.69603 -3.44964,-3.61606 -5.59846,-3.42406 -2.68165,0.25602 -3.68806,4.73607 -2.13923,6.56008 -1.93923,0.38402 -4.17445,-0.288 -4.99527,-2.22402 -1.0704,-2.51203 0.35841,-5.98408 2.12002,-7.82409 0.79523,-0.83202 1.97283,-1.74404 3.64165,-2.41604 -2.07362,-0.4 -4.17445,-1.10401 -6.24168,-2.16003 -4.12166,-2.11203 -8.7489,-6.11209 -13.64816,-10.33613 -5.97768,-5.16806 -12.15697,-10.51214 -17.06742,-11.85616 -5.08807,-1.39201 -9.39213,-1.15201 -11.80656,0.65602 -1.17122,0.864 -1.80802,2.08003 -1.84001,3.48804 -0.04161,1.74402 0.84161,3.47203 2.50082,3.85605 3.13765,0.73601 6.00328,-1.90401 6.29608,-1.71202 -0.18721,2.24002 -2.53764,4.24005 -4.98407,4.96007 -2.86882,0.848 -5.81927,0.47999 -8.0977,-0.99202 -3.31204,-2.12802 -4.89096,-6.73607 -3.84164,-11.20015 1.21281,-5.15206 6.22567,-8.67211 11.43054,-9.28011 5.03047,-0.57602 9.86732,0.76802 12.88977,2.35204 -0.63681,-0.44802 -0.37122,-3.21607 -0.30721,-3.88807 0.13282,-1.36001 0.65122,-2.89603 1.78882,-3.79202 0.56801,1.02399 3.38403,2.896 4.98407,3.88802 1.72482,1.05601 3.36325,2.08003 4.08485,3.69604 0.13921,-0.70399 0.2128,-2.76802 1.30561,-4.06404 0.27522,1.36002 2.53285,3.55205 3.71206,4.36806 1.46242,1.00801 2.97924,2.04802 4.01925,3.88804 1.44163,2.54404 1.60961,4.91207 1.77603,7.20009 0.12159,1.69603 0.24638,3.34406 0.86239,5.07207 0.0208,-0.27199 0.0528,-0.528 0.10082,-0.8 0.4048,-2.16004 1.65762,-4.19205 3.93284,-4.92806 -0.25759,1.248 0.97123,2.48001 2.29764,3.50405 1.1584,0.76802 3.05603,1.50399 4.35524,0.64 0.0976,-0.064 0.2032,-0.09601 0.31041,-0.112 -0.504,-1.88802 -0.68161,-3.98408 -0.504,-6.12808 0.84641,-10.30414 12.29935,-15.6002 19.81626,-15.1682 8.50731,0.49601 14.26898,3.77604 17.87382,9.37613 0.53601,0.83201 0.99202,1.80801 1.38242,2.91203 0.76961,-0.65601 2.62244,-2.32002 3.47844,-3.80805 1.83043,2.64005 3.13124,3.84006 3.67685,4.28806 0.42241,-1.29604 0.93281,-2.44804 1.54562,-3.39204 3.60326,-5.60009 9.36652,-8.88012 17.87223,-9.37613 7.5185,-0.432 18.96984,4.86406 19.81787,15.1682 0.17919,2.19201 -0.0144,4.33604 -0.53922,6.24008 1.29602,0.848 3.18085,0.112 4.33926,-0.64 1.86081,-1.44004 2.29444,-3.50405 2.29444,-3.50405 0,0 2.56321,0.52799 3.93443,4.92806 0.0816,0.25599 0.0816,0.52801 0.10242,0.8 0.616,-1.72801 0.7392,-3.37604 0.86079,-5.07207 0.16481,-2.28802 0.33441,-4.65605 1.77443,-7.20009 1.04001,-1.84002 2.55364,-2.88003 4.02084,-3.88804 1.18244,-0.81601 3.43845,-3.00804 3.71045,-4.36806 1.09443,1.29602 1.16802,3.36005 1.30724,4.06404 0.7216,-1.61601 2.35843,-2.64003 4.08644,-3.69604 1.59681,-0.99202 4.41286,-2.86403 4.98088,-3.88802 1.13759,0.89599 1.66081,2.43201 1.79201,3.79202 0.0624,0.672 0.328,3.44005 -0.3104,3.88807 3.02243,-1.58402 7.86249,-2.92806 12.89457,-2.35204 5.20165,0.608 10.21614,4.12805 11.42733,9.28011 1.05124,4.46408 -0.5312,9.07213 -3.84324,11.20015 -2.27843,1.47201 -5.22566,1.84002 -8.0977,0.99202 -2.44643,-0.72002 -4.79686,-2.72005 -4.98726,-4.96007 0.29759,-0.19199 3.16322,2.44803 6.30247,1.71202 1.65442,-0.38402 2.53765,-2.11203 2.49765,-3.85605 -0.032,-1.40801 -0.66884,-2.62404 -1.84004,-3.48804 -2.41603,-1.80803 -6.71529,-2.04803 -11.80655,-0.65602 -4.90726,1.34402 -11.09135,6.6881 -17.06903,11.85616 -4.89764,4.22404 -9.5233,8.2241 -13.64658,10.33613 -1.98562,1.00801 -4.00323,1.69602 -6.00167,2.11202 1.73922,0.67203 2.95045,1.60003 3.76486,2.46405 1.76162,1.84001 3.18882,5.31206 2.12162,7.82409 -0.82081,1.93602 -3.05444,2.60804 -4.99845,2.22402 1.55362,-1.82401 0.54399,-6.30406 -2.13766,-6.56008 -2.15041,-0.192 -3.98084,1.72803 -5.60006,3.42406 l -0.87521,0.912 c -1.31841,1.31202 -2.70563,2.36805 -4.19365,2.70403 1.43522,0.27202 3.14084,2.11203 3.14084,2.19204 0,0.12798 -1.91042,4.03205 -7.5393,4.12804 -0.1168,0 -0.24479,0 -0.36641,0 0.69921,0.54401 1.44481,1.26403 2.09923,2.22403 1.67203,2.44803 3.96326,2.67205 6.0129,2.11203 -0.13762,1.66402 -1.70564,3.84006 -3.88326,4.52806 0.7536,0.06401 1.50562,0.06401 2.25603,0.06401 1.03361,-1.05601 6.66408,-6.64009 13.46737,-10.84814 l 0.0416,0.06398 c -0.10402,-0.79999 0.104,-1.45599 0.312,-1.85601 0.76962,-1.48801 2.64804,-2.40005 4.03364,-2.40005 -0.0208,-0.224 -0.0336,-0.448 -0.0336,-0.688 0,-4.20804 3.35686,-7.64809 7.48171,-7.64809 1.2848,0 2.49124,0.336 3.54724,0.91202 0.79681,-0.48001 3.33765,-2.00005 4.48326,-2.27203 h 0.0688 0.0656 c 0.68802,0 1.36642,0.25598 1.98242,0.72 1.61444,-0.72 8.72812,-3.82405 14.52501,-4.67206 -0.68481,-0.99202 -0.92802,-2.28803 -0.71523,-3.85605 0.74241,-5.50407 7.4881,-5.85608 7.5537,-5.85608 l 1.92804,-0.09599 -1.52644,1.184 c -0.43039,0.33602 -1.55521,1.44002 -1.56479,2.52803 -0.006,0.57602 0.28798,1.07203 0.89119,1.56803 2.82724,2.27205 9.53932,2.52804 16.0274,2.75204 2.85924,0.112 5.77287,0.208 8.47211,0.49602 -0.86881,-0.51202 -1.72801,-1.07204 -2.57764,-1.74403 -2.95042,-2.27204 -6.12166,-7.32811 -3.53763,-10.94414 1.5248,-2.14403 5.23687,-2.30405 5.39687,-2.30405 l 2.16483,-0.09597 c 0,0 -1.78722,1.2 -1.80002,1.216 -1.54402,1.04 -1.73442,2.67204 -0.34081,4.12805 1.56001,1.63202 3.71045,1.72803 5.79207,1.90404 2.71526,0.224 5.25287,0.62399 7.69611,1.87201 -1.24643,-0.64 -0.70884,-3.42403 1.2688,-4.80007 1.67523,-1.15201 2.67524,-1.55201 4.10406,-2.38403 0,0 -0.608,3.80804 3.82405,5.87209 6.15047,2.86402 5.43367,4.25605 6.38728,7.7281 l 0.35359,1.26399 c 0.83044,2.84805 3.33446,7.88811 10.85935,11.82416 0.96642,0.43202 1.77763,0.81602 2.41285,1.12002 -2.76484,-4.83206 -2.56004,-8.20811 -1.69923,-10.33615 1.1744,-2.89601 3.84005,-4.19204 5.94248,-4.41604 1.73761,-0.192 3.13124,0.16 4.15045,1.04002 1.5072,1.31201 1.58722,3.29604 1.59042,3.37602 l 0.0288,0.91204 -0.85762,-0.32001 c -0.0144,0 -1.77124,-0.64 -2.94565,0.01601 -0.5312,0.304 -0.86241,0.81601 -1.0224,1.58401 -0.60321,2.94404 2.81924,6.83208 7.15049,11.76014 2.99363,3.40806 6.39048,7.26409 9.56651,11.96815 7.89932,11.63215 6.87689,28.06439 -2.37921,38.1925 z M 288.58301,66.80034 c -3.97605,-2.20801 -8.81932,-1.58402 -10.94094,-0.672 -3.03685,1.29599 -4.24327,4.46406 -4.09126,7.00809 0.15039,2.60803 1.77123,4.80007 4.05446,5.47206 3.88965,1.15202 5.32166,-1.29601 5.87686,-4.81604 -1.79042,0.84799 -3.09923,0.192 -3.64964,-0.28802 -0.9344,-0.81601 -1.31842,-2.17603 -0.9776,-3.45604 0.34079,-1.26403 1.59041,-2.52803 3.18722,-3.23204 2.21283,-0.94401 4.82247,-0.73601 7.37131,0.59201 -0.28002,-0.19202 -0.5216,-0.43203 -0.83041,-0.60802 z m -79.15143,70.38492 c -0.0256,-0.08 -0.0256,-0.16002 -0.0128,-0.24001 -0.18403,-0.60802 -0.25442,-1.24801 -0.16802,-1.90402 0.2064,-1.61603 1.24322,-2.88003 2.57603,-3.12006 1.22083,-0.224 2.17763,-0.048 2.85123,0.51203 0.85762,0.72001 0.88162,1.76 0.88162,1.87202 0,0.336 -0.272,0.608 -0.6096,0.608 -0.33762,0 -0.61121,-0.272 -0.62081,-0.608 0,0 -0.0176,-0.57602 -0.44802,-0.92801 -0.37598,-0.30401 -1.0096,-0.40001 -1.83359,-0.24001 -0.80324,0.14399 -1.43844,0.97602 -1.57764,2.06402 -0.1456,1.12002 0.2688,2.59204 1.86562,3.32805 1.57441,0.73602 3.23044,0.68802 4.53605,-0.12799 1.44962,-0.88002 2.31523,-2.59205 2.37923,-4.65607 0.0496,-1.76001 -0.5792,-3.32805 -1.81921,-4.51206 -1.42723,-1.37602 -3.51844,-2.11203 -5.58727,-1.96801 -3.84965,0.272 -6.70569,3.39203 -6.94409,7.61607 -0.23041,4.04807 2.07362,9.20012 9.32811,10.43214 1.40323,0.24001 2.77763,0.28801 4.11206,0.17601 -3.17764,-0.70402 -7.4481,-2.70404 -8.90892,-8.3041 z m -63.38001,8.12809 c 7.25449,-1.23202 9.56011,-6.38407 9.32973,-10.43214 -0.24162,-4.22404 -3.09767,-7.34407 -6.94569,-7.61607 -2.07044,-0.14402 -4.15846,0.59199 -5.5873,1.96801 -1.24319,1.18401 -1.87041,2.75205 -1.81761,4.51206 0.0592,2.06402 0.92482,3.77605 2.37444,4.65607 1.31041,0.81601 2.96324,0.86401 4.54086,0.12799 1.59361,-0.73601 2.00641,-2.20803 1.86243,-3.32805 -0.13763,-1.088 -0.77123,-1.92003 -1.57603,-2.06402 -0.82403,-0.16 -1.45762,-0.064 -1.83523,0.24001 -0.4288,0.35199 -0.448,0.92801 -0.448,0.92801 -0.008,0.336 -0.28322,0.608 -0.61923,0.608 -0.34077,0 -0.60957,-0.272 -0.60957,-0.608 0,-0.11202 0.0224,-1.15201 0.87999,-1.87202 0.6736,-0.56002 1.63203,-0.73603 2.85284,-0.51203 1.33281,0.24003 2.36804,1.50403 2.57762,3.12006 0.0848,0.65601 0.0128,1.296 -0.16958,1.90402 0.0112,0.08 0.01,0.16001 -0.0112,0.24001 -1.46404,5.60006 -5.73288,7.60008 -8.91373,8.3041 1.33443,0.112 2.71204,0.064 4.11526,-0.17601 z m -67.81526,-78.497 c 1.59839,0.70401 2.84963,1.96801 3.18723,3.23204 0.3408,1.28001 -0.04,2.64003 -0.97801,3.45604 -0.54992,0.48002 -1.85773,1.13601 -3.64846,0.28802 0.55471,3.52003 1.98624,5.96806 5.87609,4.81604 2.28323,-0.67199 3.90564,-2.86403 4.05764,-5.47206 0.1504,-2.54403 -1.05761,-5.7121 -4.09445,-7.00809 -2.11892,-0.91202 -6.96429,-1.53601 -10.93933,0.672 -0.3085,0.17599 -0.54842,0.416 -0.83272,0.60802 2.54993,-1.32802 5.16086,-1.53602 7.37201,-0.59201 z M 28.64185,65.92033 c 2.19844,2.00002 4.46727,2.28803 6.93429,0.88001 1.08452,-0.608 1.85173,-0.4 2.30643,-0.11199 0.63123,0.4 0.96242,1.13602 1.11401,1.93602 0.46721,-0.70402 0.75162,-1.58401 0.75162,-2.49603 0,-0.256 -0.01871,-0.51202 -0.0609,-0.76802 -0.5266,-2.94403 -4.89928,-4.84805 -4.89928,-4.84805 3.14145,-0.28801 5.71959,2.35202 6.1119,4.64006 0.01939,0.128 0.02321,0.256 0.03599,0.36801 l 0.15761,-0.06401 c 0.03598,0.08002 0.91712,2.00003 4.55155,2.36804 2.38133,0.24001 4.42987,2.11202 4.87196,4.46405 0.04381,0.23999 0.08292,0.54401 0.08292,0.89601 0,0.88001 -0.2437,2.08002 -1.19384,3.26403 1.35472,-0.832 2.52355,-2.06401 3.23287,-3.66404 0.5374,-1.216 0.80299,-2.49603 0.80299,-3.80806 0,-2.60803 -1.0686,-5.32804 -3.13745,-7.80809 -6.40936,-7.68008 -21.24088,-6.59208 -27.98544,-1.84002 l -3.43366,3.96805 c 2.29392,-0.72 5.89848,-0.88001 9.75643,2.62403 z M 14.49156,84.62459 c 2.94075,0 5.33129,-2.48006 5.33129,-5.53609 0,-3.05604 -2.39054,-5.53606 -5.33129,-5.53606 -2.93742,0 -5.32828,2.48002 -5.32828,5.53606 0,3.05603 2.39086,5.53609 5.32828,5.53609 z m 13.2815,-41.71256 c -0.97504,-2.40001 -3.19385,-3.47204 -4.94379,-3.66404 -1.37279,-0.144 -2.44692,0.09602 -3.19714,0.73602 -0.5757,0.496 -0.8624,1.13602 -1.01221,1.66402 0.81241,-0.16001 1.97804,-0.22402 2.97496,0.33599 0.8515,0.46399 1.40001,1.28003 1.63119,2.41603 0.72821,3.53605 -2.69392,7.42411 -7.42977,12.81618 -2.97194,3.37604 -6.33999,7.21608 -9.47283,11.84015 -7.58517,11.18414 -6.61175,26.96034 2.26802,36.68846 4.51256,4.92806 11.77985,7.66411 18.51755,6.94411 4.78596,-0.51201 8.53911,-2.68805 10.56573,-6.1601 2.35622,-4.04803 2.57343,-8.80011 0.57893,-12.72015 -1.91796,-3.77606 -5.50079,-6.11208 -10.08846,-6.59209 -4.59544,-0.464 -8.32329,1.16802 -10.22812,4.48006 -1.57204,2.73604 -1.52052,6.09609 0.12651,8.3521 1.64372,2.25604 5.17035,3.28004 8.20319,2.36803 2.30624,-0.68801 3.69215,-2.32001 3.80624,-4.49605 0.06273,-1.18401 -0.23599,-2.08004 -0.88509,-2.62405 -0.81811,-0.72 -2.03993,-0.832 -2.94613,-0.81599 0.56878,0.76801 0.75618,1.45601 0.75618,2.01601 0,0.46402 -0.11859,0.83203 -0.21878,1.07204 -0.54682,1.23199 -2.03744,1.984 -3.54526,1.80801 -1.77191,-0.20801 -3.11884,-1.61601 -3.35164,-3.52005 -0.20161,-1.64801 0.4812,-3.92004 3.07194,-4.91206 3.86864,-1.45601 9.14382,-1.23201 12.35326,3.80804 1.66242,2.60805 1.64992,6.48009 -0.028,9.42413 -1.19681,2.09603 -4.31265,5.56807 -11.71905,5.32805 C 18.67912,109.3289 14.35417,107.12086 11.05492,103.0888 6.80397,97.90474 4.87735,90.35265 6.02907,83.36057 7.53209,74.22444 11.13531,70.17639 17.1091,63.47229 l 4.10756,-4.75206 -0.0592,-0.06398 c 0.10479,-0.08002 0.2201,-0.16002 0.328,-0.24001 l 1.48431,-1.71202 c 4.49387,-5.45608 6.1987,-10.33615 4.80329,-13.79219 z m 185.21217,65.47286 c 1.36162,1.92003 2.04321,3.85603 2.04321,5.69607 0,1.37603 -0.24157,2.70401 -1.00639,3.88804 2.20483,-0.528 3.73443,-1.536 4.82246,-3.02404 1.23201,-1.68001 2.04483,-4.08006 1.85923,-7.07208 0.33439,-0.064 1.0912,2.48002 0.5536,4.68805 0.0832,0.096 0.72479,3.02403 2.43362,5.10407 1.25603,1.72802 3.08484,3.76005 5.64328,6.5121 2.87844,3.12003 3.56005,6.43208 3.56005,8.8961 4.89287,-13.7602 -7.95211,-30.92841 -12.68976,-36.60848 0.75201,2.64005 0.3456,4.54407 0.002,5.37607 -0.40801,-3.55203 -0.1984,-4.09604 -2.51363,-8.0961 -0.0432,-0.06399 -0.0704,-0.14398 -0.0768,-0.24001 -0.1376,-0.14399 -0.27679,-0.304 -0.41441,-0.44799 0.75682,2.75203 0.38562,5.36006 0.0112,5.64808 -0.0112,-1.00804 -0.12482,-5.08809 -2.38245,-8.25612 -1.53922,-1.64802 -3.04323,-3.20005 -4.53287,-4.65605 0.90883,0.896 0.23842,5.31206 0.13762,6.41608 -0.23201,2.48002 -0.58722,3.26404 -1.03362,5.71207 -0.1296,0.70401 -0.19041,1.36 -0.19041,1.98404 0,3.02403 1.45603,5.24806 3.77446,8.4801 z M 198.81865,88.52863 c 0.52,1.87202 0.2368,3.68005 -0.74081,5.39205 0.90081,2.38404 1.36003,4.52807 1.36003,6.36811 0,1.40801 -0.27042,2.64003 -0.81282,3.66405 -0.46242,0.86401 -1.12801,1.53601 -1.93123,2.00001 1.92482,0.496 3.71045,0.14401 5.22728,-1.07201 3.57124,-2.86404 5.32165,-9.90412 3.67685,-16.64022 -1.11683,-4.56005 -3.07686,-8.4001 -4.79367,-11.13614 0.10078,1.90402 -0.3904,3.24804 -1.05762,3.80804 0.3744,-0.864 0.4288,-3.21603 -0.60802,-6.27208 -0.4752,-0.64 -0.88321,-1.16801 -1.17601,-1.52002 0.11202,2.27204 -0.2944,3.77605 -1.23361,4.48006 -0.30881,0.23999 -0.75681,0.43201 -1.35362,0.41602 0.472,1.2 0.68962,2.51202 0.68962,3.80804 0,2.30403 -0.66881,4.54405 -1.74404,5.96808 -0.42399,0.576 -1.32321,1.53602 -1.32321,1.53602 -0.006,0.03199 -0.0432,0.24001 -0.0432,0.56 0,1.04003 0.40803,3.20004 3.36965,4.44805 1.81123,-1.44002 2.49443,-5.80806 2.49443,-5.80806 z m -6.0513,-16.09621 c 0.21762,-1.42402 0.59203,-4.06407 -1.2368,-8.44811 0.59523,5.02408 -1.0912,7.9041 -2.18242,8.52811 0.70241,-0.912 1.74242,-6.84808 0.0272,-12.51216 -1.4752,-2.54402 -2.86244,-5.23207 -3.95525,-7.9361 -0.12159,1.45601 -0.4432,2.99204 -1.1504,4.01606 1.29442,1.55201 3.76803,5.90408 3.76803,10.70411 0,1.36002 -0.2128,2.73606 -0.6912,4.11207 0.16319,-0.176 0.26399,-0.288 0.26559,-0.288 -0.11359,0.14398 -0.2128,0.288 -0.31199,0.432 -0.0256,0.064 -0.0448,0.14402 -0.072,0.208 -0.24159,0.62402 -0.52159,1.16801 -0.82399,1.63202 -0.94562,2.99205 -0.20963,6.70408 0.21438,7.8881 0.91842,2.56003 1.47843,4.17606 1.47843,5.34408 0,1.52001 -1.30724,2.12802 -2.26242,2.27203 0.91841,0.70401 2.40641,1.03999 3.12802,1.024 1.63203,-0.06398 3.35046,-0.99202 4.37609,-2.35203 1.6208,-2.16004 2.1744,-6.65609 0.37438,-9.66413 l -1.08803,-1.80801 1.88965,0.94401 c 0.6384,0.32001 1.13442,0.35201 1.4752,0.096 0.28481,-0.20801 1.24003,-3.37604 -0.0368,-6.75208 -0.728,-0.97603 -1.5248,-2.08003 -2.35522,-3.26405 0.61441,3.07205 -0.0544,5.05607 -0.83043,5.82408 z m -8.56328,2.59202 c -0.88484,0.52802 -1.79843,0.76803 -2.58884,0.86403 -1.96322,0.24001 -3.96804,-0.30401 -5.57447,-1.20002 0.1344,0.94401 0.0752,2.88003 -1.22243,6.49607 -1.08162,3.00805 -1.6704,4.73608 -1.29442,5.53609 0.18881,0.384 0.69122,0.68801 1.73444,1.04001 l 0.8576,0.304 -0.59199,0.688 c -1.10721,1.28002 -2.57764,1.93604 -4.24968,1.87203 -0.9216,-0.032 -1.86402,-0.28801 -2.73603,-0.72 -0.003,0.39999 -0.0576,0.92801 -0.2176,1.50401 10.31694,11.12015 12.00017,26.46436 12.10415,28.20836 0.0464,0 0.0864,0 0.1312,0 0.10242,0 0.19843,0 0.29922,0 0.10241,-1.71202 1.26722,-16.20821 11.42576,-27.31235 -0.42562,-0.92801 -0.53443,-1.79201 -0.54403,-2.40002 -0.86721,0.43199 -1.81123,0.688 -2.73283,0.72 -1.67202,0.06401 -3.14084,-0.59201 -4.25125,-1.87203 l -0.59041,-0.688 0.85761,-0.304 c 1.04481,-0.352 1.54722,-0.65601 1.73283,-1.04001 0.3792,-0.80001 -0.2128,-2.52804 -1.29121,-5.53609 -1.15844,-3.23202 -1.32964,-5.12005 -1.25762,-6.16008 z M 195.697,95.40872 c -1.272,-0.54402 -2.15202,-1.26404 -2.74243,-2.01604 -9.72653,10.83214 -10.78894,24.86432 -10.87054,26.32035 1.16962,0.144 2.15683,0.46402 2.98723,0.88002 0.30562,-0.416 1.03522,-1.29602 2.16644,-2.11203 l -0.3728,0.048 c -0.0496,-0.38401 -1.08322,-9.4081 8.8321,-23.12028 z m -9.40012,53.48868 c 0.87203,2.03203 3.22406,3.37605 5.47207,3.12006 1.08483,-0.11202 2.87525,-0.72002 3.76965,-3.23206 -1.176,0.48001 -2.30082,0.528 -3.20645,0.032 -1.18881,-0.65601 -1.8368,-2.08002 -1.78241,-3.90404 0.112,-3.66406 1.49762,-6.04808 5.93608,-10.17613 2.46242,-2.28804 3.84005,-4.65607 4.21766,-7.2161 0.5008,-3.42404 -0.66562,-7.90411 -5.60328,-9.26413 -5.21606,-1.44 -8.2161,1.95205 -8.96972,2.96004 0.41281,0.288 0.77922,0.60802 1.09442,0.92801 0.67682,-1.12001 2.51042,-3.34402 6.40007,-3.34402 4.03366,0 5.59048,4.65605 5.59048,4.65605 0,0 -2.34562,-3.44004 -5.59048,-3.44004 -3.93445,0 -5.33606,2.67202 -5.55046,3.13604 0.048,0.08 0.0976,0.14401 0.14399,0.20799 2.00324,3.00804 2.25605,7.45611 0.64483,11.34416 l -3.33927,8.24008 c -0.005,0.032 -0.36477,3.29605 0.77282,5.95209 z m -5.58086,1.82402 c 0.97121,-2.28802 7.00968,-16.48021 7.00968,-16.48021 0.63682,-1.53601 0.94883,-3.20003 0.94883,-4.78406 0,-2.01602 -0.49922,-3.95205 -1.47682,-5.40808 -1.40323,-2.09601 -3.69766,-3.20003 -6.64171,-3.20003 -2.73442,0 -4.77444,0.94402 -6.05608,2.83205 -1.0288,1.50401 -1.44481,3.42403 -1.44481,5.36006 0,1.93602 0.41442,3.88806 1.05121,5.52007 2.37284,6.00006 5.38088,13.23218 6.6097,16.1602 z m -8.93773,-32.52841 c -2.29761,-0.88002 -5.66246,-1.10402 -8.21609,0.88002 -1.66402,1.296 -2.57764,2.84802 -2.71843,4.62405 -0.29761,3.80805 2.92163,7.5521 3.91523,8.6081 l 1.28482,1.34404 c 3.02245,3.12002 6.44649,6.67207 6.15689,10.40013 -0.18241,2.36802 -1.50721,4.30405 -3.37284,4.91206 -0.91521,0.304 -1.81443,0.192 -2.58405,-0.224 0,0.016 -0.006,0.048 -0.006,0.08 0,1.00801 0.3056,1.90402 0.89441,2.52804 0.83361,0.88001 2.20323,1.21601 3.96006,0.97602 3.75045,-0.52802 5.71686,-6.59211 5.92968,-7.28011 -1.28162,-3.12004 -2.76645,-6.75207 -4.05765,-10.03212 -1.39844,-3.53605 -1.77925,-8.62411 0.5088,-12.00015 -0.37762,-0.72002 -1.85124,-2.99204 -5.47207,-2.99204 -3.24166,0 -5.59368,3.44004 -5.59368,3.44004 0,0 1.56003,-4.65605 5.59368,-4.65605 3.72484,0 5.56327,2.04801 6.30566,3.20002 0.28801,-0.30401 0.59682,-0.56001 0.92804,-0.81599 -0.30563,-1.13603 -1.63205,-2.28806 -3.45607,-2.99205 z m 2.66563,0.048 c 0.89603,0.672 1.55523,1.45601 1.87684,2.28803 0.85441,-0.43201 1.81922,-0.70401 2.88003,-0.83202 -0.088,-1.48801 -1.65282,-16.17621 -11.39696,-27.02435 -0.4736,0.84802 -1.25279,1.69601 -2.48481,2.36804 9.35852,12.76816 9.24812,21.55228 9.1249,23.2003 z M 154.68369,88.24062 c -1.64644,6.7361 0.1024,13.77618 3.67524,16.64022 1.51522,1.21602 3.30245,1.56801 5.22568,1.07201 -0.80324,-0.464 -1.46884,-1.136 -1.92966,-2.00001 -0.54239,-1.02402 -0.81439,-2.25604 -0.81439,-3.66405 0,-1.84004 0.4592,-3.98407 1.35841,-6.36811 -0.97761,-1.712 -1.25921,-3.52003 -0.73759,-5.39205 0,0 0.68159,4.36804 2.49122,5.80806 2.96483,-1.24801 3.37285,-3.40802 3.37285,-4.44805 0,-0.31999 -0.0384,-0.52801 -0.0448,-0.56 0,0 -0.89761,-0.96002 -1.3232,-1.53602 -1.07362,-1.42403 -1.74244,-3.66405 -1.74244,-5.96808 0,-1.29602 0.2176,-2.60804 0.68802,-3.80804 -0.59682,0.01599 -1.04482,-0.17603 -1.35041,-0.41602 -0.94084,-0.70401 -1.34724,-2.20802 -1.23683,-4.48006 -1.46722,1.77602 -5.75688,7.4401 -7.63209,15.1202 z m -13.53459,6.9761 c -3.33445,3.79205 -19.09945,22.8483 -13.76339,37.85648 0,-2.46402 0.67842,-5.77607 3.55687,-8.8961 2.56003,-2.75205 4.39046,-4.78408 5.64646,-6.5121 1.70722,-2.08004 2.34883,-5.00806 2.43205,-5.10407 -0.53762,-2.20803 0.21919,-4.75206 0.5536,-4.68805 -0.18562,2.99202 0.6288,5.39207 1.86081,7.07208 1.08641,1.48804 2.61765,2.49604 4.82247,3.02404 -0.76481,-1.18403 -1.00483,-2.51201 -1.00483,-3.88804 0,-1.84004 0.68004,-3.77604 2.04006,-5.69607 2.31842,-3.23204 3.77604,-5.45607 3.77604,-8.4801 0,-0.62404 -0.0624,-1.28003 -0.18882,-1.98404 -0.4496,-2.44803 -0.8064,-3.23205 -1.03362,-5.71207 -0.10397,-1.10402 -0.776,-5.52008 0.1344,-6.41608 -2.8352,2.78403 -5.70085,5.85608 -8.8321,9.42412 z M 71.0362,35.42393 c 2.01643,-1.568 4.00924,-4.43205 4.00924,-6.96008 0,-0.81601 -0.2155,-1.61601 -0.7155,-2.32002 -0.57339,-0.80002 -1.64082,-1.24803 -2.58454,-1.48803 0.46561,0.60801 0.86562,1.36002 0.86562,2.22402 -0.0062,1.18402 -0.7124,2.22405 -2.09524,3.12004 -1.76721,1.13602 -3.96724,1.32804 -6.29528,1.52004 -2.43531,0.192 -4.95185,0.416 -7.17848,1.74402 -1.07642,1.296 -2.67024,3.29603 -3.94044,4.41606 -2.06565,1.82402 -2.84076,-0.41602 -0.91883,-2.00003 1.20553,-0.99202 3.02685,-2.48005 3.17194,-4.33606 0.0125,-0.112 0.01552,-0.224 0.01552,-0.32001 0,-1.24802 -0.58722,-2.06401 -1.10622,-2.52802 -0.70932,-0.64003 -1.50001,-0.86402 -1.79364,-0.89602 -0.04368,0.128 -0.12819,0.38402 -0.12819,0.38402 -0.3312,1.13601 -1.0227,3.52003 -4.92506,4.81604 -4.08756,1.36003 -4.47205,2.75204 -5.39397,6.11207 l -0.3593,1.26404 c -0.56871,1.95203 -1.91702,4.86406 -4.85008,7.7921 3.64157,-1.74403 11.06255,-5.12006 16.15482,-6.2401 L 56.15771,41.056 c 5.52038,-1.12 10.28624,-2.08002 14.87849,-5.63207 z m 28.74116,0.28801 c -0.39999,-2.96004 -2.95044,-4.08006 -4.70725,-4.52806 0.40641,0.59202 0.75681,1.31203 0.76641,2.11203 0,0.01599 0,0.032 0,0.032 0,0.94402 -0.45279,1.79202 -1.35201,2.51203 -3.14724,2.52804 -9.75372,2.76805 -16.75451,3.02404 -4.31267,0.16001 -8.77213,0.32001 -12.31267,1.05602 -2.90485,1.104 -5.90949,1.71202 -9.01273,2.35203 l -3.17183,0.65601 c -4.83127,1.05601 -12.04785,4.32006 -15.71429,6.06409 2.75012,-0.65604 5.70007,-1.05603 8.5204,-0.84804 7.6908,0.57602 10.37352,2.44806 13.21107,4.44807 l 1.83313,1.248 c 2.74373,1.72804 5.21866,2.03205 7.20777,2.27204 l 1.60465,0.24 c 1.2312,0.24001 2.10001,0.73601 2.58772,1.47203 0.08419,0.12801 0.13099,0.27201 0.192,0.416 0.26101,-0.55999 0.4421,-1.23199 0.4421,-1.95201 0,-0.192 -0.01249,-0.36802 -0.0373,-0.56002 -0.18448,-1.42402 -2.95014,-4.68805 -6.45018,-6.16007 0,0 3.84214,0.86401 4.44676,1.26401 0.42981,0.28802 0.78921,0.576 1.11572,0.88002 l 0.097,-0.08002 c 0.0217,0.01601 2.27182,2.51204 8.15781,2.65606 5.72685,0.12798 9.94931,2.76801 10.29172,6.40006 0.04481,0.192 0.0624,0.368 0.07042,0.56002 0.2704,-0.62401 0.47679,-1.39202 0.47679,-2.36803 0,-0.84802 -0.144,-1.82404 -0.50562,-2.97605 -1.51521,-4.80006 -8.9601,-10.36813 -16.6561,-10.64013 -7.42891,-0.256 -9.13581,1.16803 -10.36493,0.14401 -0.82032,-1.71204 3.27974,-1.64802 7.78919,-1.64802 3.32504,-0.16001 7.48291,-0.62403 13.59978,-0.12803 12.29936,0.99204 18.83705,5.45607 18.99385,8.78412 0.005,0.06401 0.006,0.12802 0.006,0.17601 0,0.832 -0.2672,1.52002 -0.79682,2.08004 -0.63198,0.656 -1.50718,0.96 -2.2192,1.104 0.7168,0.73602 2.06401,1.72803 4.18724,1.79202 2.05923,0.04801 4.08804,-1.61601 4.72326,-3.87204 1.14242,-4.06405 -2.36643,-7.4721 -5.56965,-9.31213 C 98.56937,41.29602 90.79326,40.544 86.5836,40.544 c 0,0 4.50885,-1.504 9.81774,-0.33599 0.01919,0 1.69441,-0.08001 2.68483,-1.24802 0.4992,-0.59201 0.7552,-1.39201 0.7552,-2.35203 0,-0.28801 -0.024,-0.592 -0.06401,-0.89602 z m -0.61279,4.80008 c -0.0848,0.06398 -0.16481,0.12798 -0.24961,0.176 1.87361,0.47999 3.53124,1.24802 6.15048,2.60803 0.488,0.288 0.94242,0.57601 1.37922,0.88001 l 6.58729,2.43204 c 0.18558,-0.56002 0.49919,-1.12002 0.8304,-1.56803 0.006,0 0.0144,-0.01601 0.0208,-0.01601 -2.27681,-0.992 -9.41292,-3.96806 -14.71858,-4.51204 z m 17.5682,4.09603 c -0.64158,0.01602 -1.32798,0.43202 -1.8896,1.18402 -0.53441,0.70401 -0.75682,1.44003 -0.75682,1.74403 0,0.03202 0.005,0.06401 0.01,0.096 0.1584,0.44801 1.82724,2.00003 3.50087,3.37605 0.3264,-1.85602 1.30879,-3.47205 2.68962,-4.60805 -1.08962,-0.65604 -2.77444,-1.60005 -3.55367,-1.79205 z m 8.21932,1.34404 c -3.44803,0 -6.25129,2.88001 -6.25129,6.41606 0,3.55205 2.80326,6.4321 6.25129,6.4321 3.44806,0 6.25129,-2.88005 6.25129,-6.4321 0,-3.53605 -2.80323,-6.41606 -6.25129,-6.41606 z m 10.38734,10.06411 c -0.60321,-1.168 -2.19362,-1.79203 -3.06726,-1.728 l -0.0192,-0.27203 c -0.37921,1.77603 -1.35361,3.29604 -2.69763,4.38408 0.47841,0.528 1.59361,1.63201 2.86244,1.66402 0.8192,0.01599 1.60642,-0.41602 2.34403,-1.31204 0.8096,-0.99201 1.0048,-1.90401 0.5776,-2.73603 z m 1.05441,2.43204 c -0.16641,0.35201 -0.376,0.70401 -0.68322,1.08801 -0.15839,0.19199 -0.3216,0.35199 -0.48319,0.51201 3.15525,2.11204 8.76972,7.15207 9.03052,7.37607 l -0.0464,0.06403 c 1.39524,0.272 2.82564,0.496 4.26888,0.57602 -2.01125,-1.95204 -6.66089,-6.2081 -12.08657,-9.61614 z M 133.5202,23.5998 c -1.63681,-0.70403 -3.41124,-2.80006 -3.41124,-2.80006 -2.43203,2.06403 -2.25442,5.66408 -0.18719,7.92012 5.51526,6.06408 15.6306,6.80008 15.6306,7.18409 0,0.01599 0,0.01599 0,0.03199 -0.0144,0.4 -10.75215,0.25602 -16.68022,-6.24008 -3.77285,-3.98406 -4.01766,-7.36009 -4.25127,-10.62411 -0.15838,-2.22405 -0.31039,-4.32007 -1.59361,-6.59211 -0.87682,-1.55201 -2.19202,-2.46401 -3.58407,-3.42404 -0.87519,-0.592 -1.7712,-1.21603 -2.56802,-2.01602 -0.27198,1.00801 -0.43838,1.93601 -0.43838,2.72003 0,2.27202 0.5184,4.41606 1.8464,5.82407 -2.77443,-0.08 -3.56483,-4.97606 -3.64966,-6.19208 -0.12957,-1.82402 -2.184,-3.02405 -4.22883,-4.28804 -1.31203,-0.80002 -2.75203,-1.71203 -3.92005,-2.96005 0.0544,0.048 -0.28001,0.96001 -0.30722,1.10402 -0.4976,2.17601 -0.17758,4.57605 0.72323,6.60809 0.25759,0.592 0.568,1.16802 0.904,1.71201 0.19521,0.32 0.4032,0.60803 0.61601,0.91201 0.088,0.11202 0.53442,0.88002 0.6624,0.88002 -2.65123,-0.03201 -5.04005,-7.37609 -17.06901,-6.35208 -5.32807,0.44802 -9.93773,5.13605 -10.33774,9.00811 -0.4752,4.60806 0.93123,7.18409 3.74405,8.99212 1.89923,1.23201 4.99367,1.63201 7.0977,0.28799 -3.22883,-0.16 -5.09767,-1.72802 -5.68806,-4.08004 -0.60002,-2.40003 0.74719,-4.75206 2.64642,-6.17607 2.77283,-2.06404 7.5249,-2.38404 13.04335,-0.88002 5.22249,1.44002 11.52976,6.88009 17.62904,12.16015 4.61767,3.98406 9.39371,8.11211 13.36337,10.14414 9.23054,4.72006 18.88825,2.32002 23.1427,-2.94405 1.90884,-2.36802 2.78243,-4.73607 3.16004,-6.67207 -0.37761,0.57599 -0.81441,1.12001 -1.31361,1.61601 -2.09763,2.06403 -4.98566,3.13603 -8.13611,3.00805 -4.16007,-0.19201 -7.71529,-1.72803 -10.00652,-4.32006 -0.84962,-0.96002 -1.52482,-2.14403 -2.02082,-3.45605 -1.12003,0.68801 -3.08486,0.656 -4.81768,-0.09599 z m 40.0005,12.88017 c -0.40157,0.59199 -0.89279,1.45602 -1.2944,1.84001 -1.65121,1.56801 -3.89283,2.49603 -5.99849,2.43203 -2.53923,-0.06399 -4.70883,-0.72001 -5.94886,-2.52804 -1.00801,-1.45601 -1.56322,-3.80805 -1.2224,-5.48805 -0.30241,0.48001 -0.64162,0.96 -1.02243,1.44 -2.11362,2.60803 -5.49927,4.64008 -9.49773,5.58409 2.12964,0.78399 4.04006,2.08 5.90888,3.34404 3.49606,2.35204 6.80169,4.59204 11.42575,3.80803 4.71367,-0.784 6.78728,-6.16007 7.64968,-10.43211 z m -6.77447,-3.92008 c 1.12003,0.17603 2.42244,-0.27199 3.48164,-1.184 1.79363,-1.55202 2.78086,-4.25605 2.78086,-7.6321 0,-5.34407 -4.27046,-15.37621 -14.5618,-15.5202 -5.28807,-0.064 -9.22573,1.12002 -11.39375,3.42405 -1.44962,1.53601 -2.10082,3.52004 -1.92324,5.90407 0.11362,1.55202 0.58242,2.72003 1.18882,3.60005 -0.15039,-1.77603 0.30241,-3.37605 1.33122,-4.65606 1.20483,-1.47202 3.13605,-2.36804 5.43367,-2.52803 2.25444,-0.144 4.34086,0.544 5.87369,1.93602 1.4976,1.36001 2.36802,3.31204 2.43683,5.50407 0.0144,0.46402 -0.0208,0.94402 -0.0816,1.40804 0.15682,1.92 0.0768,4.76803 -1.12321,7.69609 1.28003,-1.44004 3.28804,-2.16004 5.02887,-2.25605 -0.5472,1.63204 -0.59999,3.98407 1.52801,4.30405 z m 7.42569,-20.84825 c -3.37764,-5.23206 -8.58571,-8.27211 -16.6754,-8.73612 -8.19371,-0.30401 -18.00664,4.41605 -18.79225,13.98418 -0.32159,3.92006 0.54561,7.07208 2.57603,9.37613 2.79044,3.16803 6.92331,3.80805 9.13773,3.90404 2.80324,0.11201 5.36807,-0.81601 7.21928,-2.65604 2.79045,-2.76802 3.65445,-7.90408 0.4944,-10.76813 -1.2848,-1.16801 -3.04963,-1.74403 -4.96644,-1.61602 -1.95363,0.128 -3.57447,0.86401 -4.56007,2.08002 -0.90243,1.10401 -1.256,2.56004 -1.02082,4.19206 0.28322,1.98404 2.02882,2.22403 2.55844,2.25602 1.27202,0.06403 2.73284,-0.576 3.06883,-1.92001 0.1456,-0.576 0.20321,-1.24803 -0.13119,-1.77605 -0.272,-0.43199 -1.14243,-0.92799 -0.7408,-1.53599 0.18559,-0.28801 0.42719,-0.56002 1.14401,-0.25601 0.0832,0.04801 1.72161,1.40803 1.07682,4.00006 -0.49761,1.98402 -2.70725,2.80003 -4.48006,2.70402 -0.14882,0 -0.29123,-0.032 -0.43363,-0.048 -0.0256,0 -0.0496,0 -0.0752,0 0,0 -0.0256,-0.016 -0.0368,-0.016 -0.80641,-0.144 -1.50403,-0.496 -2.04162,-0.99201 -1.50403,-1.00801 -3.31847,-2.89605 -3.59046,-6.25608 -0.69762,-8.4801 6.50249,-11.58415 13.59697,-11.24815 11.47856,0.54402 16.73941,10.43214 16.73941,17.36023 0,3.74405 -1.13921,6.78409 -3.20802,8.56011 -1.32804,1.15203 -2.99684,1.69602 -4.46887,1.47201 -2.09922,-0.31998 -2.82083,-2.12801 -2.96482,-3.53604 -2.91046,1.24803 -4.14247,4.14406 -2.21925,6.94411 0.71521,1.024 2.14242,2.27202 4.88008,2.33602 3.17282,0.07999 5.96648,-2.22404 7.10408,-5.07208 0.4192,-1.03999 -0.0448,-4.32004 1.35683,-4.48006 1.49281,-0.192 0.64,2.78404 0.28479,5.31208 -0.3008,2.14403 -0.87361,4.75206 -1.95363,7.10409 -0.006,0.06398 -0.0192,0.144 -0.0528,0.20801 -4.34726,9.26412 -12.23214,9.24811 -12.24016,8.91211 -0.005,-0.22401 3.21764,-0.56001 6.54569,-3.34404 -0.40001,0.12801 -0.8192,0.24001 -1.26242,0.32001 -5.10565,0.84799 -8.74091,-1.96804 -12.28496,-4.36807 -2.72484,-1.82401 -5.32005,-3.56805 -8.4913,-3.84005 -0.89441,0.064 -1.80963,0.08 -2.73284,0.048 -3.21125,0.336 -5.26086,1.55204 -6.35368,2.68804 -1.57922,1.64803 -3.18722,5.50408 -1.12482,7.47209 1.12482,1.07202 1.89922,0.84803 1.90242,0.86403 -0.16159,-0.59202 -0.50239,-3.00807 0.47521,-4.81608 0.62242,-1.15201 1.69923,-1.82401 2.92485,-1.93602 4.97926,-0.48001 6.87208,6.20808 12.13455,7.29608 0.40962,-0.27199 1.05762,-0.4 1.63843,-0.4 0.42401,0 1.04962,0.36802 0.9776,0.88001 -0.14401,1.04002 -4.16966,0.35202 -5.46565,2.72005 1.3248,1.68002 3.49923,2.75203 5.95367,2.86404 2.37442,0.09599 4.76807,-0.99202 6.78728,-2.14404 1.0832,-0.62401 2.12002,-1.31201 3.11523,-2.06401 0.63842,-0.48001 2.48165,-1.53603 2.75525,-2.28804 -1.0368,2.83205 -3.98886,4.73605 -6.55849,6.03209 -2.46723,1.216 -5.16487,1.76001 -6.83049,4.17604 -1.76001,2.57603 -3.37764,3.76004 -5.47847,3.28004 0.64159,0.91202 1.77923,1.82402 3.44967,2.19203 1.38719,0.304 2.87842,0.096 4.38723,-0.47999 1.60643,-0.70401 4.50725,-4.20807 5.50889,-3.02405 1,1.19999 -4.26726,4.03204 -5.9905,4.52804 -6.16168,2.24005 -12.80016,0.76803 -17.73622,-0.78399 -6.58568,-2.06404 -9.06732,-0.73602 -12.25615,0.78399 -2.22883,1.05603 -4.19687,0.19202 -5.15208,-0.31999 -0.01,0.112 -0.1984,1.52001 0.16481,2.30402 1.00001,2.12804 4.92005,2.83205 8.3025,3.04005 -2.61923,0.928 -6.96008,0.064 -8.6929,-1.48803 -0.95844,-0.09598 -2.63843,-0.03199 -4.89288,0.99202 -4.18726,1.87202 -6.8657,1.85603 -9.24973,-0.09598 -1.28641,-1.04004 -2.04481,-2.60805 -2.04481,-4.14408 0,-0.22399 0.016,-0.44801 0.0512,-0.67201 0.0624,-0.416 0.20321,-0.864 0.4384,-1.328 -0.74722,0.62401 -1.39521,1.37602 -1.84321,2.28802 -0.51041,1.05602 -0.7632,2.19203 -0.7632,3.29604 0,1.18402 0.2816,2.33603 0.84799,3.34405 2.04802,3.60004 7.1169,6.32007 16.95864,5.21607 0.005,0.03201 -5.7761,1.87202 -7.42731,4.68805 -0.43201,0.73602 -0.64801,1.56802 -0.64801,2.51204 0,0.38402 0.0672,0.80002 0.14399,1.23201 0.60161,-1.21602 1.70403,-2.28801 3.58405,-2.20803 1.24643,0.048 2.76805,0.57601 4.53127,1.20002 3.04645,1.07202 7.7873,1.87202 11.36494,1.05603 4.36487,-1.18402 6.23209,-4.86408 7.44009,-2.67205 0.77922,1.42402 -4.05124,3.36005 -9.43692,5.23208 -4.11525,1.42401 -9.41131,2.43203 -15.3762,1.60002 -7.69451,-1.08803 -11.25774,-3.55205 -14.11856,-5.53608 -2.27205,-1.58402 -3.91207,-2.72004 -6.8321,-2.65603 -5.55528,0.112 -8.2017,-0.57602 -9.34892,-2.51206 -0.29602,0.81603 -0.54719,1.87206 -0.54719,3.07206 0,0.97601 0.15999,2.01602 0.57919,3.04004 3.56485,6.30407 13.54257,7.6481 13.54257,7.93611 0,0.048 -6.93449,0.25599 -11.97935,-3.82407 -2.07682,-0.064 -12.39496,-0.672 -17.0106,-5.15205 -0.44073,-0.43201 -0.80953,-0.94402 -1.17513,-1.47202 0.7875,1.66402 1.72511,3.29602 2.94393,4.83206 4.80926,6.04808 12.05616,9.87212 19.88827,10.48012 15.66739,1.20003 29.09797,-1.80801 44.90297,-10.04813 12.37295,-6.46408 22.02587,-16.1762 25.41632,-19.84025 -11.29136,9.55212 -22.9859,8.6081 -22.96349,8.32013 0.024,-0.33602 14.44818,0.25599 26.44513,-13.45619 -1.78722,1.53602 -3.64484,2.83204 -5.48166,3.90405 -7.4993,4.38406 -17.11862,5.18407 -17.13783,4.84807 -0.0192,-0.33602 19.50267,-1.93602 29.05638,-18.38425 0.0208,-0.04799 0.0512,-0.064 0.0784,-0.09599 0.30881,-0.57602 0.60641,-1.16802 0.89442,-1.74404 -4.20326,4.65609 -9.84173,6.2401 -9.91374,6.0161 -0.088,-0.28802 8.52172,-3.37607 12.06417,-11.04016 0.6528,-1.82402 1.1392,-3.63203 1.3984,-5.36008 1.80643,-12.11214 2.41605,-26.64033 -1.57762,-32.8484 z m -60.81517,79.98503 c 0.60161,0.11198 1.19841,0.224 1.86081,0.32001 4.87048,0.67199 9.30733,0.048 12.98897,-1.02402 -2.72003,-0.16 -5.32967,-1.04001 -7.55689,-1.80803 -1.66882,-0.59199 -3.11204,-1.104 -4.17766,-1.13602 -2.63522,-0.11198 -2.90243,3.12005 -2.91363,3.24805 -0.01,0.16002 -0.0896,0.288 -0.2016,0.40001 z M 179.9592,11.98366 c -0.99521,1.696 -2.20162,3.08801 -2.78723,3.72804 1.83682,7.68008 1.23681,19.32825 -0.20481,29.02437 -1.32002,8.8641 -8.25769,19.28024 -12.64336,25.13632 -1.27361,3.37604 -0.3216,6.54407 -0.0352,6.75208 0.34241,0.25601 0.84002,0.22401 1.47683,-0.096 l 1.88801,-0.94401 -1.08801,1.80801 c -1.79843,3.00804 -1.24641,7.50409 0.3744,9.66413 1.02562,1.36001 2.74404,2.28805 4.37607,2.35203 0.72159,0.01599 2.20963,-0.31999 3.12802,-1.024 -0.95682,-0.14401 -2.26082,-0.75202 -2.26082,-2.27203 0,-1.16802 0.55681,-2.78405 1.47523,-5.34408 0.416,-1.16801 1.13119,-4.73606 0.2768,-7.69609 -0.1808,-0.19201 -0.3488,-0.40002 -0.49121,-0.59201 -2.47204,-3.48805 -0.70561,-9.05613 -0.63042,-9.29612 0,0 -0.4816,5.60006 1.63363,8.57612 1.18081,1.664 4.20006,3.24803 7.0177,2.91202 1.496,-0.19199 3.51044,-1.00801 4.61606,-3.87204 2.55522,-6.5761 -2.20005,-13.42418 -3.00646,-14.24019 l -0.43358,-0.43201 0.43358,-0.432 c 1.30403,-1.29601 1.24962,-5.32807 1.09122,-7.18408 -0.3792,-1.28002 -0.66879,-2.54406 -0.8528,-3.77605 -1.41922,-9.52013 -2.02403,-20.92828 -0.29921,-28.62437 -0.6784,-0.76801 -2.71364,-3.10404 -3.05444,-4.12804 z m 46.44382,24.4803 c 3.97283,-2.03203 8.74411,-6.16008 13.36337,-10.14414 6.10087,-5.28006 12.40976,-10.72013 17.62901,-12.16015 5.51529,-1.50402 10.27533,-1.18402 13.04018,0.88002 1.90562,1.42401 3.24965,3.77604 2.64962,6.17607 -0.5904,2.35202 -2.45922,3.92004 -5.68647,4.08004 2.10241,1.34402 5.19688,0.94402 7.09608,-0.28799 2.81285,-1.80803 4.22246,-4.38406 3.74408,-8.99212 -0.40004,-3.87206 -5.0097,-8.56009 -10.33775,-9.00811 -12.02574,-1.02401 -14.41939,6.32007 -17.06581,6.35208 0.12799,0 0.57119,-0.768 0.65921,-0.88002 0.216,-0.30398 0.42239,-0.59201 0.61599,-0.91201 0.33761,-0.54399 0.6464,-1.12001 0.90561,-1.71201 0.89763,-2.03204 1.21923,-4.43208 0.72481,-6.60809 -0.0304,-0.14401 -0.3616,-1.05602 -0.30881,-1.10402 -1.16801,1.24802 -2.60961,2.16003 -3.92166,2.96005 -2.04481,1.26399 -4.09924,2.46402 -4.22883,4.28804 -0.0832,1.21602 -0.87361,6.11208 -3.64645,6.19208 1.32641,-1.40801 1.84643,-3.55205 1.84643,-5.82407 0,-0.78402 -0.16802,-1.71202 -0.44,-2.72003 -0.80002,0.79999 -1.69123,1.42402 -2.56965,2.01602 -1.39041,0.96003 -2.70562,1.87203 -3.58404,3.42404 -1.28162,2.27204 -1.43362,4.36806 -1.59044,6.59211 -0.23837,3.26402 -0.47838,6.64005 -4.25284,10.62411 -5.92808,6.4961 -16.6658,6.64008 -16.68022,6.24008 -0.002,-0.016 -0.002,-0.016 -0.002,-0.03199 0,-0.38401 10.11852,-1.12001 15.63219,-7.18409 2.06404,-2.25604 2.24326,-5.85609 -0.1888,-7.92012 0,0 -1.77441,2.09603 -3.40804,2.80006 -1.59362,0.70399 -3.37603,0.784 -4.52325,0.23998 -0.4896,1.26402 -1.13922,2.38404 -1.95362,3.31206 -2.29283,2.59203 -5.8481,4.12805 -10.00655,4.32006 -3.14882,0.12798 -6.04007,-0.94402 -8.13609,-3.00805 -0.7424,-0.73601 -1.35042,-1.56804 -1.81923,-2.46403 0.27522,2.06402 1.10241,4.78405 3.29925,7.52009 2.61603,3.23206 7.26729,5.37606 12.60495,5.45607 0.0112,0 0.0256,0 0.0384,0 0.12319,0 0.23839,0.01601 0.36159,0.01601 3.24326,-0.01601 6.7217,-0.78401 10.13935,-2.52803 z m -12.44338,-15.3122 c 0.60642,-0.88002 1.07842,-2.04803 1.19041,-3.60005 0.17602,-2.38403 -0.47358,-4.36806 -1.92482,-5.90407 -2.16803,-2.30403 -6.10568,-3.48805 -11.39373,-3.42405 -10.29134,0.14399 -14.5618,10.17613 -14.5618,15.5202 0,3.37605 0.98721,6.08008 2.78242,7.6321 1.05922,0.91201 2.36004,1.36003 3.48166,1.184 2.12482,-0.31998 2.07362,-2.67201 1.52482,-4.30405 1.72802,0.09601 3.53604,0.92803 4.72486,2.40004 -2.12962,-5.05606 -0.88481,-9.90414 -0.8304,-10.16014 0.0144,-0.04799 0.0272,-0.09599 0.0384,-0.16 0.27839,-1.744 1.07681,-3.29604 2.32963,-4.43205 1.53442,-1.39202 3.61923,-2.08002 5.87366,-1.93602 2.29924,0.15999 4.22885,1.05601 5.43367,2.52803 1.02722,1.28001 1.48163,2.88003 1.33122,4.65606 z m -14.04498,16.72022 c -1.24321,1.79201 -3.32485,2.81604 -5.86408,2.88003 -2.104,0.064 -4.34726,-0.86402 -5.99687,-2.43203 -0.4032,-0.38399 -0.89441,-1.24802 -1.29603,-1.84001 0.86084,4.27204 2.93925,9.64811 7.6513,10.43211 4.62407,0.78401 7.92972,-1.45599 11.42577,-3.80803 1.82881,-1.24803 3.69444,-2.49605 5.77127,-3.29605 -4.09607,-0.91203 -7.56969,-2.97605 -9.72495,-5.63208 -0.39839,-0.49599 -0.73759,-1.00801 -1.04638,-1.50402 0.48159,1.64803 0.13919,3.66404 -0.92003,5.20008 z m 3.62565,30.28837 c -1.72323,-0.496 -6.99049,-3.32805 -5.99047,-4.52804 1,-1.18402 3.90245,2.32004 5.50567,3.02405 1.51199,0.57599 3.00003,0.78399 4.39205,0.47999 1.6688,-0.36801 2.80644,-1.28001 3.44644,-2.19203 -2.09923,0.48 -3.71845,-0.70401 -5.47846,-3.26404 -1.59201,-2.33603 -4.68168,-3.26404 -4.77128,-3.37605 -3.76325,-1.44002 -7.69449,-4.41605 -8.6433,-6.8801 3.16164,2.99205 8.6929,6.7041 12.68657,6.52811 2.45122,-0.11201 4.62566,-1.18402 5.95047,-2.86404 -1.2976,-2.36803 -5.32167,-1.68003 -5.46568,-2.72005 -0.16959,-1.232 1.27522,-0.176 3.28164,-0.752 5.25928,-1.08801 6.49131,-7.5041 11.46737,-7.02409 1.2288,0.11201 2.30561,0.78401 2.92802,1.93602 0.97763,1.80801 0.63521,4.22406 0.472,4.81608 0.008,-0.016 0.77924,0.20799 1.90404,-0.86403 2.06242,-1.96801 0.45599,-5.82406 -1.1248,-7.47209 -1.10242,-1.15202 -3.17765,-2.36804 -6.4337,-2.70404 -0.96642,0.048 -1.92002,0.048 -2.85123,-0.01599 -3.08324,0.336 -5.62569,2.03203 -8.29453,3.82404 -3.54242,2.40003 -7.17448,5.21606 -12.28013,4.36807 -1.89122,-0.32001 -3.77765,-1.42403 -5.01607,-2.86405 -2.17444,-2.52803 -3.17285,-7.32809 -3.80005,-10.52813 -0.1472,-0.75202 -1.63843,-5.34407 0.1376,-5.12008 1.40002,0.16002 0.9376,3.44007 1.35682,4.48006 1.13601,2.84804 3.92805,5.15207 7.09929,5.07208 2.74082,-0.064 4.16645,-1.31202 4.88327,-2.33602 1.92002,-2.80005 0.68959,-5.69608 -2.22084,-6.94411 -0.144,1.40803 -0.864,3.21606 -2.96483,3.53604 -1.47043,0.22401 -3.14084,-0.31998 -4.46886,-1.47201 -2.06723,-1.77602 -3.20645,-4.81606 -3.20645,-8.56011 0,-6.92809 5.25928,-16.81621 16.74102,-17.36023 7.0929,-0.336 14.28977,2.76805 13.59698,11.24815 -0.27521,3.36003 -2.08962,5.24807 -3.59365,6.25608 -0.5376,0.49601 -1.23523,0.84801 -2.04163,0.99201 -0.0112,0 -0.0336,0.016 -0.0368,0.016 -0.0256,0 -0.0512,0 -0.0736,0 -0.1456,0.016 -0.2848,0.048 -0.43362,0.048 -1.77441,0.09601 -3.98403,-0.72 -4.48005,-2.70402 -0.64801,-2.59203 0.99362,-3.95205 1.07683,-4.00006 0.71679,-0.30401 0.9568,-0.032 1.14241,0.25601 0.40161,0.608 -0.46721,1.104 -0.74082,1.53599 -0.33439,0.52802 -0.27679,1.20005 -0.12799,1.77605 0.33119,1.34401 1.79523,1.98404 3.06564,1.92001 0.5312,-0.03199 2.27681,-0.27198 2.56003,-2.25602 0.2352,-1.63202 -0.12001,-3.08805 -1.02401,-4.19206 -0.98402,-1.21601 -2.60325,-1.95202 -4.55527,-2.08002 -1.91843,-0.12801 -3.68485,0.44801 -4.96967,1.61602 -1.24962,1.13602 -1.97122,2.78403 -2.03042,4.62406 -0.072,2.24004 0.8464,4.48004 2.52644,6.14407 1.85123,1.84003 4.41606,2.76805 7.2161,2.65604 2.21601,-0.09599 6.34727,-0.73601 9.13931,-3.90404 2.03363,-2.30405 2.89923,-5.45607 2.57763,-9.37613 C 220.78693,7.39157 210.9788,2.67151 202.7819,2.97552 c -8.09132,0.46401 -13.29775,3.50406 -16.67382,8.73612 -3.99524,6.20807 -3.38405,20.73626 -1.57761,32.8484 0.1648,1.12004 0.4352,2.27205 0.77759,3.44006 0.048,0.04801 0.0576,0.14399 0.0688,0.24001 2.51682,8.3521 8.95212,17.47223 12.56816,22.19229 1.86882,2.11203 12.40816,13.63218 26.44035,20.96025 15.80499,8.24012 29.23715,11.24816 44.90297,10.04813 7.83209,-0.608 15.08179,-4.43204 19.88826,-10.48012 1.2224,-1.53604 2.15682,-3.16804 2.94403,-4.83206 -0.36641,0.528 -0.73282,1.04001 -1.1728,1.47202 -4.61448,4.48005 -14.93459,5.08805 -17.01464,5.15205 -5.04165,4.08006 -11.97615,3.87207 -11.97615,3.82407 0,-0.28801 9.97614,-1.63204 13.54099,-7.93611 0.41919,-1.02402 0.58081,-2.06403 0.58081,-3.04004 0,-1.2 -0.25283,-2.25603 -0.54882,-3.07206 -1.14401,1.93604 -3.79365,2.62406 -9.34732,2.51206 -2.92324,-0.06401 -4.56326,1.07201 -6.83529,2.65603 -2.85924,1.98403 -6.42089,4.44805 -14.11379,5.53608 -5.96647,0.83201 -11.26094,-0.17601 -15.37939,-1.60002 -5.38407,-1.87203 -10.21454,-3.80806 -9.43532,-5.23208 1.20961,-2.19203 3.07204,1.48803 7.43851,2.67205 3.57762,0.81599 8.31848,0.01599 11.36332,-1.05603 1.76482,-0.62401 3.28964,-1.15202 4.53287,-1.20002 1.88002,-0.07998 2.98082,0.99201 3.58565,2.20803 0.0736,-0.43199 0.14239,-0.84799 0.14239,-1.23201 0,-0.94402 -0.2144,-1.77602 -0.64639,-2.51204 -1.65283,-2.81603 -7.43371,-4.65604 -7.42891,-4.68805 9.84174,1.104 14.91377,-1.61603 16.95703,-5.21607 0.56961,-1.00802 0.8496,-2.16003 0.8496,-3.34405 0,-1.10401 -0.25281,-2.24002 -0.7616,-3.29604 -0.44643,-0.912 -1.09442,-1.66401 -1.84804,-2.28802 0.24161,0.464 0.3792,0.912 0.44481,1.328 0.0336,0.224 0.0496,0.44802 0.0496,0.67201 0,1.53603 -0.75841,3.10404 -2.04643,4.14408 -2.38404,1.95201 -5.06408,1.968 -9.24813,0.09598 -2.25282,-1.02401 -3.93603,-1.088 -4.89445,-0.99202 -1.72962,1.55203 -6.07369,2.41603 -8.6929,1.48803 3.38244,-0.208 7.30409,-0.91201 8.30409,-3.04005 0.3632,-0.78401 0.17439,-2.19202 0.1664,-2.30402 -0.9552,0.51201 -2.92644,1.37602 -5.15366,0.31999 -3.19205,-1.52001 -5.67369,-2.84803 -12.25456,-0.78399 -4.94086,1.55202 -11.57776,3.02404 -17.73783,0.78399 z m 43.37976,23.53632 c -0.11039,-0.11201 -0.18719,-0.23999 -0.19999,-0.40001 -0.01,-0.128 -0.27841,-3.36003 -2.91526,-3.24805 -1.06401,0.03202 -2.50723,0.54403 -4.17604,1.13602 -2.22723,0.76802 -4.83847,1.64803 -7.5585,1.80803 3.68326,1.07202 8.1201,1.69601 12.98897,1.02402 0.6624,-0.09601 1.2608,-0.20803 1.86082,-0.32001 z M 225.40138,59.53625 c -0.3072,-0.384 -0.5184,-0.736 -0.68319,-1.08801 -5.35209,3.36003 -9.94254,7.5521 -12.00017,9.53612 1.46722,-0.144 2.91365,-0.40001 4.31686,-0.72 1.00002,-0.89603 5.95529,-5.28006 8.84972,-7.2161 -0.1632,-0.16002 -0.32482,-0.32002 -0.48322,-0.51201 z m 3.44007,-5.24805 c -0.87522,-0.06403 -2.46565,0.56 -3.06725,1.728 -0.42722,0.83202 -0.2336,1.74402 0.5792,2.73603 0.73441,0.89602 1.52162,1.32803 2.34084,1.31204 1.2688,-0.03201 2.38404,-1.13602 2.86243,-1.66402 -1.34401,-1.08804 -2.31523,-2.60805 -2.69765,-4.38408 l -0.0176,0.27203 z m 7.31848,-8.33611 c -1.51203,0 -2.90082,0.55999 -3.98406,1.472 0.31522,-0.04798 0.62882,-0.07999 0.92483,-0.112 1.2528,-0.07999 3.61604,0.01601 5.36166,1.68004 2.30722,2.17601 1.81282,5.16806 1.2288,6.43205 -0.13919,0.32002 -0.504,0.44803 -0.8096,0.30402 -0.31039,-0.144 -0.44639,-0.496 -0.30719,-0.80001 0.0512,-0.128 1.28,-2.92804 -0.95682,-5.04007 -2.27842,-2.16003 -6.25129,-1.23201 -6.7585,-0.73599 -0.0464,0.04799 -0.10079,0.064 -0.15519,0.09599 -0.50562,0.92803 -0.7936,2.00002 -0.7936,3.12003 0,3.55205 2.80641,6.4321 6.24967,6.4321 3.44964,0 6.25288,-2.88005 6.25288,-6.4321 0,-3.53605 -2.80324,-6.41606 -6.25288,-6.41606 z m 10.10893,-0.16002 c -0.5616,-0.752 -1.24641,-1.168 -1.88963,-1.18402 -0.7744,0.192 -2.46403,1.13601 -3.55523,1.79205 1.38239,1.136 2.36321,2.75203 2.69443,4.60805 1.66881,-1.37602 3.33765,-2.92804 3.49762,-3.39206 0.006,-0.01598 0.0128,-0.04797 0.0128,-0.07999 0,-0.304 -0.2224,-1.04002 -0.76001,-1.74403 z m 0.96001,-0.76801 c 0.006,0 0.016,0.01601 0.0256,0.01601 0.31201,0.41602 0.61283,0.96001 0.80002,1.48801 l 6.92169,-2.56003 c 0.34079,-0.224 0.6944,-0.448 1.07201,-0.672 2.61923,-1.36001 4.27365,-2.12804 6.15048,-2.60803 -0.0848,-0.04802 -0.1664,-0.11202 -0.248,-0.176 -5.30568,0.54398 -12.44657,3.52004 -14.7218,4.51204 z m 36.15408,-6.16008 c -6.9969,-0.25599 -13.60979,-0.496 -16.75383,-3.02404 -0.89922,-0.72001 -1.35362,-1.56801 -1.35362,-2.51203 0,0 0,-0.01601 0,-0.032 0.01,-0.8 0.36,-1.52001 0.76642,-2.11203 -1.75684,0.448 -4.30246,1.56802 -4.70726,4.52806 -0.04,0.30402 -0.0624,0.60801 -0.0624,0.89602 0,0.96002 0.25279,1.76002 0.7536,2.35203 0.99042,1.16801 2.66562,1.24802 2.68485,1.24802 5.30887,-1.16801 9.81932,0.33599 9.81932,0.33599 -4.20966,0 -11.98576,0.75202 -17.89143,3.84005 -4.40647,2.52803 -6.4977,6.00009 -5.56968,9.31213 0.6384,2.25603 2.66724,3.92005 4.71846,3.87204 2.13283,-0.06399 3.47684,-1.056 4.18885,-1.79202 -0.7088,-0.144 -1.5856,-0.448 -2.21602,-1.104 -0.52801,-0.56002 -0.79681,-1.24804 -0.79681,-2.08004 0,-0.04799 0.003,-0.112 0.006,-0.17601 0.15997,-3.32805 6.69608,-7.79208 18.99382,-8.78412 6.11528,-0.496 10.27534,-0.03198 13.59698,0.12803 4.51206,0 8.6129,-0.06402 7.79369,1.64802 -1.232,1.02402 -2.93764,-0.40001 -10.36813,-0.14401 -7.69129,0.272 -15.13779,5.84007 -16.653,10.64013 -0.36321,1.15201 -0.50402,2.12803 -0.50402,2.97605 0,0.97601 0.2032,1.74402 0.47202,2.36803 0.01,-0.19202 0.0288,-0.36802 0.072,-0.56002 0.3472,-3.63205 4.56646,-6.27208 10.29132,-6.40006 3.86567,-0.09602 6.6081,-2.35204 9.36812,-3.45606 1.93123,-0.76801 2.75365,-1.02402 4.44966,-1.26401 -3.49604,1.47202 -6.26567,4.73605 -6.44968,6.16007 -0.0256,0.192 -0.0368,0.36802 -0.0368,0.56002 0,0.72002 0.18081,1.39202 0.44321,1.95201 0.056,-0.14399 0.1056,-0.28799 0.19041,-0.416 0.48799,-0.73602 1.35681,-1.23202 2.58723,-1.47203 l 1.60643,-0.24 c 1.98722,-0.23999 4.46564,-0.544 7.20649,-2.27204 l 1.83041,-1.248 c 2.84163,-2.00001 5.52329,-3.87205 13.21297,-4.44807 2.82243,-0.20799 5.7729,0.192 8.51851,0.84804 -3.66564,-1.74403 -10.88013,-5.00808 -15.709,-6.06409 l -3.17443,-0.65601 C 301.60718,41.63202 298.60233,41.024 295.6951,39.92 292.15424,39.18399 287.695,39.02399 283.38295,38.86398 Z m 36.06605,1.31203 -0.36,-1.26404 c -0.92161,-3.36003 -1.30241,-4.75204 -5.39367,-6.11207 -3.89925,-1.29601 -4.59366,-3.68003 -4.92487,-4.81604 0,0 -0.0816,-0.25602 -0.128,-0.38402 -0.29441,0.032 -1.08481,0.25599 -1.79361,0.89602 -0.51841,0.46401 -1.10721,1.28 -1.10721,2.52802 0,0.09601 0.006,0.20801 0.0128,0.32001 0.15039,1.85601 1.96802,3.34404 3.17603,4.33606 1.92163,1.58401 1.14561,3.82405 -0.92002,2.00003 -1.26881,-1.12003 -2.86242,-3.12006 -3.93924,-4.41606 -2.22563,-1.32802 -4.74086,-1.55202 -7.17929,-1.74402 -2.32803,-0.192 -4.52806,-0.38402 -6.29609,-1.52004 -1.38241,-0.89599 -2.08483,-1.93602 -2.09762,-3.12004 0,-0.864 0.4,-1.61601 0.86879,-2.22402 -0.94079,0.24 -2.00961,0.68801 -2.58403,1.48803 -0.4976,0.70401 -0.71519,1.50401 -0.71519,2.32002 0,2.52803 1.98882,5.39208 4.00484,6.96008 4.59846,3.55205 9.36332,4.51207 14.8818,5.63207 l 3.19043,0.67201 c 5.09126,1.12004 12.51216,4.49607 16.15381,6.2401 -2.93123,-2.92804 -4.28165,-5.84007 -4.84966,-7.7921 z m 27.17156,33.37643 c -2.94086,0 -5.33127,2.48002 -5.33127,5.53606 0,3.05603 2.39041,5.53609 5.33127,5.53609 2.93764,0 5.33125,-2.48006 5.33125,-5.53609 0,-3.05604 -2.39361,-5.53606 -5.33125,-5.53606 z M 310.8073,61.16827 c -2.06884,2.48005 -3.13445,5.20006 -3.13445,7.80809 0,1.31203 0.26242,2.59206 0.80002,3.80806 0.7104,1.60003 1.87842,2.83204 3.23203,3.66404 -0.94722,-1.18401 -1.1904,-2.38402 -1.1904,-3.26403 0,-0.352 0.0368,-0.65602 0.0816,-0.89601 0.44319,-2.35203 2.48961,-4.22404 4.87205,-4.46405 3.63365,-0.36801 4.70885,-2.30403 4.70885,-2.30403 0.0112,-0.11201 0.0192,-0.24001 0.0368,-0.36801 0.38721,-2.28804 2.96966,-4.92807 6.1089,-4.64006 0,0 -4.37127,1.90402 -4.89608,4.84805 -0.0432,0.256 -0.0656,0.51202 -0.0656,0.76802 0,0.91202 0.28801,1.79201 0.75362,2.49603 0.15359,-0.8 0.48799,-1.53602 1.1152,-1.93602 0.45603,-0.28801 1.22243,-0.49601 2.30884,0.11199 2.46722,1.40802 4.73126,1.12001 6.93289,-0.88001 3.85445,-3.50404 7.4657,-3.34403 9.75533,-2.62403 l -3.43526,-3.96805 c -6.74246,-4.75206 -21.57466,-5.84006 -27.98434,1.84002 z m 43.63894,8.0161 c -3.13443,-4.62405 -6.16008,-8.5921 -9.1313,-11.96814 -4.73448,-5.39207 -8.1569,-9.28013 -7.4321,-12.81618 0.23519,-1.136 0.78241,-1.95204 1.63523,-2.41603 0.99679,-0.56001 2.52803,-0.32 3.34243,-0.17601 -0.55839,-1.90401 -2.78723,-2.76801 -4.58085,-2.56002 -1.74564,0.192 -3.96485,1.26403 -4.94086,3.66404 -1.39682,3.45604 0.3104,8.33611 4.80325,13.79219 l 5.86249,6.76807 c 5.97287,6.7041 9.5761,10.75215 11.08173,19.88828 1.15042,6.99208 -0.77442,14.54417 -5.02886,19.72823 -3.29925,4.03206 -7.6241,6.2401 -12.50576,6.41608 -7.4065,0.24002 -10.52175,-3.23202 -11.71856,-5.32805 -1.67842,-2.94404 -1.69122,-6.81608 -0.0256,-9.42413 3.20645,-5.04005 8.48491,-5.26405 12.35057,-3.80804 2.59042,0.99202 3.27203,3.26405 3.07202,4.91206 -0.23037,1.90404 -1.5776,3.31204 -3.35042,3.52005 -2.84965,0.35201 -4.78727,-2.51204 -3.00807,-4.89606 -2.24481,-0.048 -3.96004,1.02399 -3.83203,3.44004 0.1152,2.17604 1.49922,3.80804 3.80646,4.49605 3.03364,0.91201 6.56169,-0.11199 8.20331,-2.36803 1.6432,-2.25601 1.69922,-5.61606 0.12798,-8.3521 -1.9088,-3.31204 -5.63526,-4.94406 -10.22892,-4.48006 -4.58727,0.48001 -8.16812,2.81603 -10.08814,6.59209 -1.99522,3.92004 -1.7776,8.67212 0.57921,12.72015 2.02564,3.47205 5.77768,5.64809 10.56653,6.1601 6.7345,0.72 14.00179,-2.01605 18.51546,-6.94411 8.87849,-9.72812 9.51211,-25.37632 1.9248,-36.56047 z"
                 style="fill:#000000;fill-opacity:1;fill-rule:nonzero;stroke:#000000;stroke-width:0.3985;stroke-linecap:butt;stroke-linejoin:miter;stroke-miterlimit:10;stroke-dasharray:none;stroke-opacity:1"
                 id="path30" /><path
                 d="m 264.0707,97.26474 c 0.4512,-0.048 1.30241,0.30402 0.20478,1.15201 -1.824,1.31203 -7.75528,1.61601 -11.19053,-0.192 5.70088,0.81601 10.93454,-0.96001 10.98575,-0.96001 z"
                 style="fill:#000000;fill-opacity:1;fill-rule:nonzero;stroke:#000000;stroke-width:0.3985;stroke-linecap:butt;stroke-linejoin:miter;stroke-miterlimit:10;stroke-dasharray:none;stroke-opacity:1"
                 id="path32" /><path
                 d="m 261.99068,93.98471 c 0.15999,0.43199 -0.68962,1.15199 -1.11203,1.31199 -0.18721,0.08002 -5.24327,2.17603 -10.12813,1.04002 5.39686,-0.49601 9.66252,-2.22403 9.70412,-2.24002 0.42401,-0.16001 1.37764,-0.528 1.53604,-0.11199 z"
                 style="fill:#000000;fill-opacity:1;fill-rule:nonzero;stroke:#000000;stroke-width:0.3985;stroke-linecap:butt;stroke-linejoin:miter;stroke-miterlimit:10;stroke-dasharray:none;stroke-opacity:1"
                 id="path34" /><path
                 d="m 258.19862,91.00867 c 0.3776,-0.24001 1.02401,-0.91202 1.79682,-0.54401 0.4064,0.192 0.2368,0.864 -0.11362,1.15199 -4.83365,3.98407 -11.21612,3.39208 -12.40974,2.88005 0.0192,-0.448 5.60006,-0.09599 10.72654,-3.48803 z"
                 style="fill:#000000;fill-opacity:1;fill-rule:nonzero;stroke:#000000;stroke-width:0.3985;stroke-linecap:butt;stroke-linejoin:miter;stroke-miterlimit:10;stroke-dasharray:none;stroke-opacity:1"
                 id="path36" /><path
                 d="m 227.55342,84.99258 c 0.0352,0.01601 3.73444,1.05602 6.52327,-0.81601 0.28642,-0.17601 0.66562,-0.11199 0.85603,0.17601 0.1872,0.288 0.1088,0.65601 -0.17282,0.848 -3.27524,2.19203 -7.37768,1.02402 -7.55049,0.97602 -0.328,-0.09602 -0.51199,-0.44801 -0.41921,-0.76802 0.0976,-0.32 0.4384,-0.51202 0.76322,-0.416 z"
                 style="fill:#000000;fill-opacity:1;fill-rule:nonzero;stroke:#000000;stroke-width:0.3985;stroke-linecap:butt;stroke-linejoin:miter;stroke-miterlimit:10;stroke-dasharray:none;stroke-opacity:1"
                 id="path38" /><path
                 d="m 222.52135,81.15253 c 1.94883,0.192 5.70088,-1.23201 7.3041,-2.78405 0.2432,-0.22399 0.63041,-0.22399 0.86881,0.01601 0.112,0.12801 0.17281,0.28801 0.17281,0.43201 0,0.16 -0.0656,0.32 -0.19202,0.44801 -1.28,1.23201 -3.60965,2.33603 -5.69127,2.83203 3.76006,0.99201 7.08332,-0.528 7.12012,-0.56 0.30558,-0.14401 0.67518,-0.016 0.8176,0.288 0.15038,0.31999 0.0176,0.67201 -0.28643,0.83202 -0.21599,0.09599 -5.33285,2.49603 -10.47212,-0.36802 -0.256,-0.14401 -0.37601,-0.432 -0.288,-0.72 0.088,-0.272 0.35679,-0.44801 0.6464,-0.41601 z"
                 style="fill:#000000;fill-opacity:1;fill-rule:nonzero;stroke:#000000;stroke-width:0.3985;stroke-linecap:butt;stroke-linejoin:miter;stroke-miterlimit:10;stroke-dasharray:none;stroke-opacity:1"
                 id="path40" /><path
                 d="m 216.7757,77.00848 c 4.36483,2.73602 9.3713,-0.83201 9.4225,-0.88 0.2736,-0.19202 0.6592,-0.12802 0.8592,0.14398 0.20002,0.27202 0.14081,0.65602 -0.1344,0.84802 -0.232,0.17602 -5.72488,4.11206 -10.80172,0.91201 -0.28801,-0.176 -0.37441,-0.54399 -0.192,-0.84801 0.1808,-0.28801 0.55839,-0.368 0.84642,-0.176 z"
                 style="fill:#000000;fill-opacity:1;fill-rule:nonzero;stroke:#000000;stroke-width:0.3985;stroke-linecap:butt;stroke-linejoin:miter;stroke-miterlimit:10;stroke-dasharray:none;stroke-opacity:1"
                 id="path42" /><path
                 d="m 214.64125,74.12845 c 3.86406,1.136 7.29451,-0.62402 7.32968,-0.64002 0.30083,-0.16002 0.67043,-0.048 0.82883,0.25602 0.1584,0.30398 0.0448,0.67199 -0.25601,0.832 -0.1568,0.08 -3.89285,2.01603 -8.2529,0.736 -0.3248,-0.096 -0.51201,-0.44801 -0.416,-0.768 0.0976,-0.32001 0.4416,-0.51203 0.7664,-0.416 z"
                 style="fill:#000000;fill-opacity:1;fill-rule:nonzero;stroke:#000000;stroke-width:0.3985;stroke-linecap:butt;stroke-linejoin:miter;stroke-miterlimit:10;stroke-dasharray:none;stroke-opacity:1"
                 id="path44" /><path
                 d="m 221.22853,71.4724 c -0.13119,0.08 -3.24644,2.09604 -8.85771,1.68004 -0.3392,-0.03202 -0.59201,-0.32001 -0.56641,-0.67202 0.024,-0.33602 0.32161,-0.59201 0.65761,-0.56002 5.16325,0.38401 8.06091,-1.456 8.08972,-1.472 0.28319,-0.19202 0.664,-0.11202 0.8528,0.176 0.1824,0.288 0.10559,0.672 -0.17601,0.848 z"
                 style="fill:#000000;fill-opacity:1;fill-rule:nonzero;stroke:#000000;stroke-width:0.3985;stroke-linecap:butt;stroke-linejoin:miter;stroke-miterlimit:10;stroke-dasharray:none;stroke-opacity:1"
                 id="path46" /><path
                 d="m 180.81842,43.37604 c -0.0544,7.2321 -1.81601,13.26417 -1.81601,13.26417 0.0176,-0.09599 0.59359,-7.77611 0.99199,-13.23217 -1.49121,8.20811 -4.74725,11.28016 -4.74725,11.28016 1.88803,-3.64805 3.02243,-7.85611 4.86885,-14.99222 l 0.3952,-1.53599 0.39842,1.53599 c 1.62883,6.25611 1.64641,14.59222 1.64641,14.6722 0,0 -0.84639,-5.60005 -1.73761,-10.99214 z"
                 style="fill:#000000;fill-opacity:1;fill-rule:nonzero;stroke:#000000;stroke-width:0.3985;stroke-linecap:butt;stroke-linejoin:miter;stroke-miterlimit:10;stroke-dasharray:none;stroke-opacity:1"
                 id="path48" /><path
                 d="m 257.72021,129.93715 c 2.77443,0.96001 3.92165,4.12807 3.96485,4.36807 0,0 -2.87523,-5.26407 -12.84976,-4.24005 0,0 3.92805,-1.64803 8.88491,-0.12802 z"
                 style="fill:#000000;fill-opacity:1;fill-rule:nonzero;stroke:#000000;stroke-width:0.3985;stroke-linecap:butt;stroke-linejoin:miter;stroke-miterlimit:10;stroke-dasharray:none;stroke-opacity:1"
                 id="path50" /><path
                 d="m 269.67876,128.16113 c 0,0 -2.53765,-0.096 -4.30245,-3.07203 -0.96001,-2.12803 -0.50082,-4.60805 -0.50082,-4.60805 1.51202,6.06407 4.76967,7.66408 4.80327,7.68008 z"
                 style="fill:#000000;fill-opacity:1;fill-rule:nonzero;stroke:#000000;stroke-width:0.3985;stroke-linecap:butt;stroke-linejoin:miter;stroke-miterlimit:10;stroke-dasharray:none;stroke-opacity:1"
                 id="path52" /><path
                 d="m 258.67543,125.21709 c -1.43364,-1.98401 -0.36803,-3.93605 -0.36803,-3.93605 -0.0416,3.66406 4.53768,7.28009 4.53768,7.28009 0,0 -5.25926,-3.68003 -7.90889,-3.36003 0,0 0.93599,-1.48801 3.73924,0.016 z"
                 style="fill:#000000;fill-opacity:1;fill-rule:nonzero;stroke:#000000;stroke-width:0.3985;stroke-linecap:butt;stroke-linejoin:miter;stroke-miterlimit:10;stroke-dasharray:none;stroke-opacity:1"
                 id="path54" /><path
                 d="m 103.0142,129.93715 c 4.95687,-1.52001 8.88492,0.12802 8.88492,0.12802 -9.97612,-1.02402 -12.84495,4.24005 -12.84495,4.24005 0.03999,-0.24 1.18881,-3.40806 3.96003,-4.36807 z"
                 style="fill:#000000;fill-opacity:1;fill-rule:nonzero;stroke:#000000;stroke-width:0.3985;stroke-linecap:butt;stroke-linejoin:miter;stroke-miterlimit:10;stroke-dasharray:none;stroke-opacity:1"
                 id="path56" /><path
                 d="m 95.86212,120.48105 c 0,0 0.45761,2.48002 -0.4992,4.60805 -1.76963,2.97604 -4.30567,3.07203 -4.30567,3.07203 0.03362,-0.016 3.29125,-1.61601 4.80487,-7.68008 z"
                 style="fill:#000000;fill-opacity:1;fill-rule:nonzero;stroke:#000000;stroke-width:0.3985;stroke-linecap:butt;stroke-linejoin:miter;stroke-miterlimit:10;stroke-dasharray:none;stroke-opacity:1"
                 id="path58" /><path
                 d="m 102.42702,121.28104 c 0,0 1.0688,1.95204 -0.36482,3.93605 2.80003,-1.504 3.73924,-0.016 3.73924,-0.016 -2.64641,-0.32 -7.91049,3.36003 -7.91049,3.36003 0,0 4.57925,-3.61603 4.53607,-7.28009 z"
                 style="fill:#000000;fill-opacity:1;fill-rule:nonzero;stroke:#000000;stroke-width:0.3985;stroke-linecap:butt;stroke-linejoin:miter;stroke-miterlimit:10;stroke-dasharray:none;stroke-opacity:1"
                 id="path60" /><path
                 d="m 90.74846,60.72026 c 0,-0.01599 -0.0096,-0.01599 -0.0096,-0.032 -0.0016,-0.016 -0.0016,-0.048 -0.0064,-0.06399 l 0.01601,0.09599 z"
                 style="fill:#000000;fill-opacity:1;fill-rule:nonzero;stroke:#000000;stroke-width:0.3985;stroke-linecap:butt;stroke-linejoin:miter;stroke-miterlimit:10;stroke-dasharray:none;stroke-opacity:1"
                 id="path62" /><path
                 d="m 13.31047,77.0725 c 1.2296,-0.64004 2.74591,-0.56002 4.50615,0.224 0.30938,0.14398 0.45169,0.51197 0.31259,0.81599 -0.136,0.304 -0.5,0.448 -0.81019,0.304 -1.40233,-0.60802 -2.55864,-0.70399 -3.43996,-0.256 -1.23763,0.62399 -1.58452,2.14403 -1.58591,2.16004 -0.07339,0.31999 -0.40161,0.52801 -0.73282,0.46399 -0.32982,-0.064 -0.54059,-0.4 -0.47041,-0.71999 0.0173,-0.09603 0.46101,-2.09604 2.22055,-2.99203 z"
                 style="fill:#000000;fill-opacity:1;fill-rule:nonzero;stroke:#000000;stroke-width:0.3985;stroke-linecap:butt;stroke-linejoin:miter;stroke-miterlimit:10;stroke-dasharray:none;stroke-opacity:1"
                 id="path64" /><path
                 d="m 128.15053,55.0402 c -0.2992,-0.16 -0.416,-0.54401 -0.2576,-0.83201 0.01,-0.01601 0.85281,-1.68002 0.20962,-3.16804 -0.43682,-1.02402 -1.48803,-1.77604 -3.11685,-2.24004 -0.32321,-0.09599 -0.51521,-0.43201 -0.42082,-0.76801 0.0928,-0.32 0.43362,-0.512 0.76002,-0.41601 2.00643,0.57602 3.32163,1.56804 3.91205,2.94404 0.87201,2.04802 -0.20961,4.12807 -0.25601,4.22405 -0.15999,0.30402 -0.5296,0.40001 -0.83041,0.25602 z"
                 style="fill:#000000;fill-opacity:1;fill-rule:nonzero;stroke:#000000;stroke-width:0.3985;stroke-linecap:butt;stroke-linejoin:miter;stroke-miterlimit:10;stroke-dasharray:none;stroke-opacity:1"
                 id="path66" /><path
                 d="m 349.54858,80.78452 c -0.328,0.06402 -0.65598,-0.144 -0.72799,-0.46399 -0.003,-0.01601 -0.3488,-1.53605 -1.58724,-2.16004 -0.88159,-0.44799 -2.03682,-0.35202 -3.43683,0.256 -0.31039,0.144 -0.67522,0 -0.81282,-0.304 -0.1376,-0.30402 0,-0.67201 0.31202,-0.81599 1.76001,-0.78402 3.27523,-0.86404 4.50723,-0.224 1.75845,0.89599 2.20166,2.896 2.22085,2.99203 0.0688,0.31999 -0.144,0.65599 -0.47522,0.71999 z"
                 style="fill:#000000;fill-opacity:1;fill-rule:nonzero;stroke:#000000;stroke-width:0.3985;stroke-linecap:butt;stroke-linejoin:miter;stroke-miterlimit:10;stroke-dasharray:none;stroke-opacity:1"
                 id="path68" /><path
                 d="m 180.60562,122.17706 c 5.07526,0 6.38088,4.76805 6.38088,4.76805 0,0 -2.16164,-3.53604 -6.38088,-3.53604 -3.24005,0 -5.59048,3.42406 -5.59048,3.42406 0,0 1.56002,-4.65607 5.59048,-4.65607 z"
                 style="fill:#000000;fill-opacity:1;fill-rule:nonzero;stroke:#000000;stroke-width:0.3985;stroke-linecap:butt;stroke-linejoin:miter;stroke-miterlimit:10;stroke-dasharray:none;stroke-opacity:1"
                 id="path70" /><path
                 d="m 179.684,135.32924 c 0.95843,6.28807 1.43522,7.10408 1.43522,7.10408 0,0 1.02722,-5.39208 1.50401,-6.97609 0.27362,2.88004 -0.136,4.80007 -0.136,4.80007 0,0 2.66243,-4.17606 3.34726,-5.53608 0,0 -2.18564,7.92011 -4.71527,10.44814 -3.07524,-3.90406 -4.57607,-9.23212 -4.64485,-10.38414 1.16,2.52803 2.25442,4.30406 3.20963,5.66408 0,0 -0.34081,-3.68006 0,-5.12006 z"
                 style="fill:#000000;fill-opacity:1;fill-rule:nonzero;stroke:#000000;stroke-width:0.3985;stroke-linecap:butt;stroke-linejoin:miter;stroke-miterlimit:10;stroke-dasharray:none;stroke-opacity:1"
                 id="path72" /><path
                 d="m 172.78471,137.64928 c 2.18723,3.90402 1.09282,7.37606 1.09282,7.37606 0,0 -0.1376,-3.68004 -1.64003,-6.41607 -1.57441,-2.86403 -3.21284,-5.74408 -3.21284,-5.74408 0,0 1.57283,0.89603 3.76005,4.78409 z"
                 style="fill:#000000;fill-opacity:1;fill-rule:nonzero;stroke:#000000;stroke-width:0.3985;stroke-linecap:butt;stroke-linejoin:miter;stroke-miterlimit:10;stroke-dasharray:none;stroke-opacity:1"
                 id="path74" /><path
                 d="m 190.41214,138.00125 c -1.98084,4.22406 -2.25443,7.98412 -0.88802,10.72015 0,0 -3.07362,-0.816 -1.98082,-6.35208 0.47841,-2.25604 1.70882,-3.61605 2.86884,-4.36807 z"
                 style="fill:#000000;fill-opacity:1;fill-rule:nonzero;stroke:#000000;stroke-width:0.3985;stroke-linecap:butt;stroke-linejoin:miter;stroke-miterlimit:10;stroke-dasharray:none;stroke-opacity:1"
                 id="path76" /></g></g></g></g></g></g></svg>
