<?xml version="1.0" encoding="UTF-8" standalone="no"?>
<svg
   xmlns:dc="http://purl.org/dc/elements/1.1/"
   xmlns:cc="http://creativecommons.org/ns#"
   xmlns:rdf="http://www.w3.org/1999/02/22-rdf-syntax-ns#"
   xmlns:svg="http://www.w3.org/2000/svg"
   xmlns="http://www.w3.org/2000/svg"
   xmlns:sodipodi="http://sodipodi.sourceforge.net/DTD/sodipodi-0.dtd"
   xmlns:inkscape="http://www.inkscape.org/namespaces/inkscape"
   version="1.1"
   id="svg2"
   xml:space="preserve"
   width="609.14667"
   height="22.626667"
   viewBox="0 0 609.14667 22.626667"
   sodipodi:docname="vectorian086.pdf"><metadata
     id="metadata8"><rdf:RDF><cc:Work
         rdf:about=""><dc:format>image/svg+xml</dc:format><dc:type
           rdf:resource="http://purl.org/dc/dcmitype/StillImage" /></cc:Work></rdf:RDF></metadata><defs
     id="defs6"><clipPath
       clipPathUnits="userSpaceOnUse"
       id="clipPath30"><path
         d="M -0.00539,0 H 453.54382 V 16.9673 H -0.00539 Z"
         id="path28" /></clipPath></defs><sodipodi:namedview
     pagecolor="#ffffff"
     bordercolor="#666666"
     borderopacity="1"
     objecttolerance="10"
     gridtolerance="10"
     guidetolerance="10"
     inkscape:pageopacity="0"
     inkscape:pageshadow="2"
     inkscape:window-width="640"
     inkscape:window-height="480"
     id="namedview4" /><g
     id="g10"
     inkscape:groupmode="layer"
     inkscape:label="vectorian086"
     transform="matrix(1.3333333,0,0,-1.3333333,0,22.626667)"><g
       id="g12"
       transform="translate(72,-55.033)"><g
         id="g14"
         transform="translate(-71.995,55.033)"><g
           id="g16"><g
             id="g18"><path
               d="m 229.96645,12.02713 c 0,-3.18583 -0.73841,-5.84506 -3.50574,-5.76405 -2.76865,0.09448 -3.50704,2.57822 -3.50704,5.76405 0,0.12151 0.008,0.24301 0.0135,0.36443 -0.58449,-0.97193 -0.9327,-2.17334 -0.9327,-3.49625 0,-3.18575 2.02211,-5.76408 4.51805,-5.76408 2.49734,0 4.51946,2.57833 4.51946,5.76408 0,1.45792 -0.4279,2.79433 -1.13251,3.80675 0.0162,-0.21601 0.027,-0.44541 0.027,-0.67493 z"
               style="fill:#000000;fill-opacity:1;fill-rule:nonzero;stroke:#000000;stroke-width:0.3985;stroke-linecap:butt;stroke-linejoin:miter;stroke-miterlimit:10;stroke-dasharray:none;stroke-opacity:1"
               id="path20" /><path
               d="m 244.63045,13.28255 c -1.14472,-0.027 -1.81833,-0.2025 -2.59995,-0.93149 0.17281,0.02698 0.3469,0.0405 0.52512,0.0405 2.49322,0.05398 3.04533,-1.74134 3.04533,-3.13175 0,-2.76726 -1.79942,-3.72575 -2.89413,-3.87425 -0.0945,-0.0135 -0.18902,0 -0.28351,0 0.77351,-0.56691 1.73062,-0.89092 2.76053,-0.86391 2.49463,0.054 4.47226,2.11933 4.41687,4.61664 -0.0553,2.49735 -2.47563,4.19826 -4.97026,4.14426 z"
               style="fill:#000000;fill-opacity:1;fill-rule:nonzero;stroke:#000000;stroke-width:0.3985;stroke-linecap:butt;stroke-linejoin:miter;stroke-miterlimit:10;stroke-dasharray:none;stroke-opacity:1"
               id="path22" /><path
               d="m 210.06079,12.39156 c 0.17819,0 0.35101,-0.01352 0.52511,-0.0405 -0.7802,0.72899 -1.45521,0.90449 -2.60262,0.93149 -2.49196,0.054 -4.91368,-1.64691 -4.96897,-4.14426 -0.0526,-2.49731 1.92362,-4.56264 4.41954,-4.61664 1.03002,-0.02701 1.98442,0.297 2.75925,0.86391 -0.0945,0 -0.18901,-0.0135 -0.28482,0 -1.09341,0.1485 -2.89153,1.10699 -2.89153,3.87425 0,1.39041 0.55082,3.18573 3.04404,3.13175 z"
               style="fill:#000000;fill-opacity:1;fill-rule:nonzero;stroke:#000000;stroke-width:0.3985;stroke-linecap:butt;stroke-linejoin:miter;stroke-miterlimit:10;stroke-dasharray:none;stroke-opacity:1"
               id="path24" /><g
               id="g26"
               clip-path="url(#clipPath30)"><path
                 d="m 347.10406,9.3138 c -10.69793,-0.189 -16.60511,0.91792 -16.60511,0.91792 -15.67911,3.13185 -16.78603,1.66042 -25.27013,1.10692 -8.4841,-0.55342 -8.1156,0.74251 -18.44774,2.02493 -10.33082,1.29579 -13.09535,-0.55351 -23.05769,-0.55351 -9.95952,0 -14.12268,3.59074 -20.84649,2.40283 -5.11346,-0.90442 -5.56567,-5.11616 -5.55895,-6.64149 h -2.09903 c -0.0513,4.64366 -3.82427,8.3963 -8.48412,8.3963 -4.65315,0 -8.4302,-3.75264 -8.4788,-8.3963 h -2.03424 c 0.007,1.52533 -0.44678,5.73707 -5.56166,6.64149 -6.72109,1.18791 -10.88283,-2.40283 -20.84516,-2.40283 -9.96094,0 -12.72816,1.8493 -23.059,0.55351 -10.32944,-1.28242 -9.95954,-2.57835 -18.44774,-2.02493 -8.4828,0.5535 -9.59104,2.02493 -25.27013,-1.10692 0,0 -5.90307,-1.10692 -16.60242,-0.91792 0,0 -106.44104,-1.82231 -106.43565,-2.13283 0.00269,-0.31049 108.9316,0.91792 108.9316,0.91792 6.62127,-0.36451 15.25929,-0.82339 17.98072,-0.82339 4.61125,0 6.82509,0.9314 18.26145,-1.28244 11.43633,-2.21382 14.38858,-1.29592 28.59356,-1.29592 14.20227,0 17.33812,-3.32074 28.77448,-3.32074 10.77093,0 13.19936,2.05184 13.59897,5.8991 h 2.20573 c 0.5831,-4.11727 4.11174,-7.27599 8.38829,-7.27599 4.28046,0 7.81052,3.15872 8.39362,7.27599 h 2.26782 c 0.40231,-3.84726 2.82944,-5.8991 13.59898,-5.8991 11.43766,0 14.57219,3.32074 28.77716,3.32074 14.20369,0 17.15323,-0.9179 28.59089,1.29592 11.43633,2.21384 13.65156,1.28244 18.26283,1.28244 2.72143,0 11.36075,0.45888 17.97792,0.82339 0,0 108.93172,-1.22841 108.93442,-0.91792 0.005,0.31052 -106.43438,2.13283 -106.43438,2.13283 z M 188.15462,8.2069 c -4.79486,1.1069 -8.11702,2.76733 -19.73697,0.7289 -11.62125,-2.02482 -14.38988,-2.20033 -21.21637,-0.7289 -6.8237,1.47141 -9.40473,1.2824 -13.46527,0.7289 0,0 -0.73701,2.21384 7.01139,2.03843 7.74581,-0.18901 9.0376,-2.40283 25.45513,0.55339 16.41881,2.94287 20.75337,-0.8774 26.37845,0.17552 6.82368,1.29591 9.77731,1.84932 9.77731,1.84932 0,0 -2.95094,-1.10692 -2.76602,-6.45248 0,0 -6.64149,0 -11.43765,1.10692 z m 26.49853,0.3645 V 7.532 c -0.44011,-2.84836 -3.29515,-5.04868 -6.75898,-5.04868 -3.77025,0 -6.82639,2.60532 -6.82639,5.81807 0,3.19925 3.05614,5.80458 6.82639,5.80458 3.65963,0 6.63748,-2.45685 6.80888,-5.53457 z m 12.08165,-7.384 c -3.99705,0 -7.23819,3.25324 -7.23819,7.24899 0,3.99566 3.24114,7.2355 7.23819,7.2355 4.00106,0 7.2422,-3.23984 7.2422,-7.2355 0,-3.99575 -3.24114,-7.24899 -7.2422,-7.24899 z m 18.91075,1.29592 c -3.77026,0 -6.82508,2.60532 -6.82508,5.81807 0,3.19925 3.05482,5.80458 6.82508,5.80458 3.77025,0 6.82639,-2.60533 6.82639,-5.80458 0,-3.21275 -3.05614,-5.81807 -6.82639,-5.81807 z M 319.7996,8.9358 c -4.05644,0.5535 -6.63877,0.74251 -13.46386,-0.7289 -6.82649,-1.47143 -9.59102,-1.29592 -21.21368,0.7289 -11.62136,2.03843 -14.94338,0.378 -19.73966,-0.7289 -4.79485,-1.10692 -11.43636,-1.10692 -11.43636,-1.10692 0.18631,5.34556 -2.76722,6.45248 -2.76722,6.45248 0,0 2.95353,-0.55341 9.77733,-1.84932 5.62909,-1.05292 9.96363,2.76735 26.37834,-0.17552 16.41751,-2.95622 17.70942,-0.7424 25.45782,-0.55339 7.7471,0.17541 7.00729,-2.03843 7.00729,-2.03843 z"
                 style="fill:#000000;fill-opacity:1;fill-rule:nonzero;stroke:#000000;stroke-width:0.3985;stroke-linecap:butt;stroke-linejoin:miter;stroke-miterlimit:10;stroke-dasharray:none;stroke-opacity:1"
                 id="path32" /></g></g></g></g></g></g></svg>
