<?xml version="1.0" encoding="UTF-8" standalone="no"?>
<svg
   xmlns:dc="http://purl.org/dc/elements/1.1/"
   xmlns:cc="http://creativecommons.org/ns#"
   xmlns:rdf="http://www.w3.org/1999/02/22-rdf-syntax-ns#"
   xmlns:svg="http://www.w3.org/2000/svg"
   xmlns="http://www.w3.org/2000/svg"
   xmlns:sodipodi="http://sodipodi.sourceforge.net/DTD/sodipodi-0.dtd"
   xmlns:inkscape="http://www.inkscape.org/namespaces/inkscape"
   version="1.1"
   id="svg2"
   xml:space="preserve"
   width="167.75999"
   height="89.613335"
   viewBox="0 0 167.75999 89.613335"
   sodipodi:docname="vectorian014.pdf"><metadata
     id="metadata8"><rdf:RDF><cc:Work
         rdf:about=""><dc:format>image/svg+xml</dc:format><dc:type
           rdf:resource="http://purl.org/dc/dcmitype/StillImage" /></cc:Work></rdf:RDF></metadata><defs
     id="defs6"><clipPath
       clipPathUnits="userSpaceOnUse"
       id="clipPath24"><path
         d="M -9e-5,-0.02438 H 122.50807 V 67.18256 H -9e-5 Z"
         id="path22" /></clipPath></defs><sodipodi:namedview
     pagecolor="#ffffff"
     bordercolor="#666666"
     borderopacity="1"
     objecttolerance="10"
     gridtolerance="10"
     guidetolerance="10"
     inkscape:pageopacity="0"
     inkscape:pageshadow="2"
     inkscape:window-width="640"
     inkscape:window-height="480"
     id="namedview4" /><g
     id="g10"
     inkscape:groupmode="layer"
     inkscape:label="vectorian014"
     transform="matrix(1.3333333,0,0,-1.3333333,0,89.613333)"><g
       id="g12"
       transform="translate(72,-4.794)"><g
         id="g14"
         transform="translate(-72,4.818)"><g
           id="g16"><g
             id="g18"><g
               id="g20"
               clip-path="url(#clipPath24)"><path
                 d="m 73.15813,29.69907 c 0,0 -2.61603,-6.58889 -8.58253,-6.58889 -5.96487,0 -12.13935,3.97446 -19.25782,7.2177 -3.72806,1.69922 -7.0481,2.75363 -10.03374,3.24963 2.98564,0.49601 6.30568,1.55042 10.03374,3.24965 7.11847,3.24324 13.29295,7.22249 19.25782,7.22249 5.9665,0 8.58253,-6.59367 8.58253,-6.59367 2.30241,2.19681 4.71046,1.46561 4.71046,1.46561 -1.46403,4.29124 -5.12808,6.17127 -5.12808,6.17127 -8.47688,4.49927 -15.909,-1.46241 -26.37473,-6.69607 -5.30406,-2.65285 -9.95852,-3.84966 -13.26417,-4.38727 h -6.0017 v 4.22406 c 25.20354,1.16481 33.92205,22.14429 33.92205,22.14429 -3.97763,1.7792 -4.28964,6.80488 -4.28964,6.80488 -0.2112,-5.65287 -4.71206,-5.44487 -4.71206,-5.44487 C 51.18344,51.69615 42.18173,43.21283 32.97202,40.69922 23.7607,38.19037 16.0166,40.5952 13.08696,44.15524 c -2.93126,3.55846 -2.19844,9.20655 1.67361,9.31374 3.87366,0.10239 3.55684,-5.75528 3.55684,-5.75528 2.82885,4.91687 4.81766,-1.36162 4.81766,-1.36162 -1.04799,8.0609 3.34726,5.75368 3.34726,5.75368 -5.02248,5.12965 -11.82736,6.49127 -15.07059,1.88803 -3.24485,-4.60646 -0.41761,-9.31532 -0.41761,-9.31532 4.31686,-6.42888 13.54098,-6.5217 15.0466,-6.49449 V 34.00952 H 17.57341 C 12.41655,35.19194 10.69652,38.0176 10.69652,38.0176 8.83891,35.62395 6.42287,34.51993 4.57805,34.00952 H 0.52838 c -0.2928,0 -0.52957,-0.23839 -0.52957,-0.5312 0,-0.2912 0.23677,-0.5296 0.52957,-0.5296 h 4.57286 c 1.76322,-0.57122 3.90886,-1.68482 5.59528,-3.85607 0,0 1.58883,2.59683 6.26248,3.85607 h 9.08173 v -3.97286 c -1.50562,0.02719 -10.72974,-0.0704 -15.0466,-6.49928 0,0 -2.82724,-4.70886 0.41761,-9.31212 3.24323,-4.60645 10.04811,-3.24646 15.07059,1.88322 0,0 -4.39525,-2.30082 -3.34726,5.75528 0,0 -1.98881,-6.27848 -4.81766,-1.35843 0,0 0.31682,-5.86087 -3.55684,-5.75846 -3.87205,0.104 -4.60487,5.75846 -1.67361,9.3153 2.92964,3.55686 10.67374,5.96649 19.88506,3.45446 9.20971,-2.51365 18.21142,-10.99535 19.04824,-21.04029 0,0 4.50086,0.2112 4.71206,-5.44003 0,0 0.31201,5.02084 4.28964,6.80167 0,0 -8.71851,20.97786 -33.92205,22.14427 v 4.02727 h 6.29131 c 0.09599,0 0.1712,0.05599 0.24959,0.10398 3.26567,-0.5792 7.70091,-1.78242 12.72497,-4.29444 10.46573,-5.23366 17.89785,-11.20014 26.37473,-6.69928 0,0 3.66405,1.8832 5.12808,6.17446 0,0 -2.40805,-0.7312 -4.71046,1.46563 z"
                 style="fill:#000000;fill-opacity:1;fill-rule:nonzero;stroke:#000000;stroke-width:0.3985;stroke-linecap:butt;stroke-linejoin:miter;stroke-miterlimit:10;stroke-dasharray:none;stroke-opacity:1"
                 id="path26" /><path
                 d="m 121.97955,34.67674 h -19.45944 c -3.30084,0.5824 -7.54091,1.75841 -10.65614,4.15685 0,0 -2.35042,-2.93445 -8.35211,-4.15685 H 60.91957 c -0.29121,0 -0.52801,-0.23681 -0.52801,-0.52641 0,-0.29602 0.2368,-0.5312 0.52801,-0.5312 h 22.44029 c 2.45922,-0.65921 5.90409,-1.98883 8.4785,-4.58248 0,0 3.84645,3.07364 12.30577,4.58248 h 17.83542 c 0.2912,0 0.52962,0.23518 0.52962,0.5312 0,0.2896 -0.23842,0.52641 -0.52962,0.52641 z"
                 style="fill:#000000;fill-opacity:1;fill-rule:nonzero;stroke:#000000;stroke-width:0.3985;stroke-linecap:butt;stroke-linejoin:miter;stroke-miterlimit:10;stroke-dasharray:none;stroke-opacity:1"
                 id="path28" /><path
                 d="m 53.24747,34.13432 c 0,-1.35043 1.09602,-2.44642 2.44644,-2.44642 1.35042,0 2.44803,1.09599 2.44803,2.44642 0,1.34882 -1.09761,2.44803 -2.44803,2.44803 -1.35042,0 -2.44644,-1.09921 -2.44644,-2.44803 z"
                 style="fill:#000000;fill-opacity:1;fill-rule:nonzero;stroke:#000000;stroke-width:0.3985;stroke-linecap:butt;stroke-linejoin:miter;stroke-miterlimit:10;stroke-dasharray:none;stroke-opacity:1"
                 id="path30" /></g></g></g></g></g></g></svg>
