<?xml version="1.0" encoding="UTF-8" standalone="no"?>
<svg
   xmlns:dc="http://purl.org/dc/elements/1.1/"
   xmlns:cc="http://creativecommons.org/ns#"
   xmlns:rdf="http://www.w3.org/1999/02/22-rdf-syntax-ns#"
   xmlns:svg="http://www.w3.org/2000/svg"
   xmlns="http://www.w3.org/2000/svg"
   xmlns:sodipodi="http://sodipodi.sourceforge.net/DTD/sodipodi-0.dtd"
   xmlns:inkscape="http://www.inkscape.org/namespaces/inkscape"
   version="1.1"
   id="svg2"
   xml:space="preserve"
   width="609.76001"
   height="32"
   viewBox="0 0 609.76001 32"
   sodipodi:docname="vectorian082.pdf"><metadata
     id="metadata8"><rdf:RDF><cc:Work
         rdf:about=""><dc:format>image/svg+xml</dc:format><dc:type
           rdf:resource="http://purl.org/dc/dcmitype/StillImage" /></cc:Work></rdf:RDF></metadata><defs
     id="defs6"><clipPath
       clipPathUnits="userSpaceOnUse"
       id="clipPath24"><path
         d="M 0,0 H 454.00584 V 24.0003 H 0 Z"
         id="path22" /></clipPath></defs><sodipodi:namedview
     pagecolor="#ffffff"
     bordercolor="#666666"
     borderopacity="1"
     objecttolerance="10"
     gridtolerance="10"
     guidetolerance="10"
     inkscape:pageopacity="0"
     inkscape:pageshadow="2"
     inkscape:window-width="640"
     inkscape:window-height="480"
     id="namedview4" /><g
     id="g10"
     inkscape:groupmode="layer"
     inkscape:label="vectorian082"
     transform="matrix(1.3333333,0,0,-1.3333333,0,32)"><g
       id="g12"
       transform="translate(72,-48)"><g
         id="g14"
         transform="translate(-72,48)"><g
           id="g16"><g
             id="g18"><g
               id="g20"
               clip-path="url(#clipPath24)"><path
                 d="m 221.49454,12.67813 c 0,0 -2.11304,-5.82365 4.75175,-5.82365 6.87,0 5.81348,5.28256 5.81348,5.28256 -8.4521,-6.85448 -10.56523,0.54109 -10.56523,0.54109 z"
                 style="fill:#000000;fill-opacity:1;fill-rule:nonzero;stroke:#000000;stroke-width:0.3985;stroke-linecap:butt;stroke-linejoin:miter;stroke-miterlimit:10;stroke-dasharray:none;stroke-opacity:1"
                 id="path26" /><path
                 d="m 353.66464,11.02892 c -9.94922,1.15962 -41.77873,4.92188 -57.69344,7.57601 -19.01475,3.16955 -53.34889,8.4522 -53.34889,-5.28256 0,-0.23192 0.0258,-0.43802 0.0387,-0.64424 h -4.56886 c -0.41229,6.1845 -5.55057,11.08057 -11.84586,11.08057 -6.29266,0 -11.43092,-4.89607 -11.84323,-11.08057 H 210.865 C 209.53539,25.22751 184.32587,23.14027 158.10362,19.53264 144.46434,17.6515 129.47205,16.595 117.99731,16.02809 117.99731,16.02809 0,15.53848 0,14.97159 c 0,-0.59273 99.88448,-1.05652 99.88448,-1.05652 9.94932,-1.15962 41.77624,-4.92186 57.69093,-7.576 18.75955,-3.14374 52.40828,-8.29749 53.30759,4.74147 h 3.52006 C 214.81537,4.89604 219.95363,0 226.24629,0 c 6.29529,0 11.43357,4.89604 11.84586,11.08054 h 4.80337 c 2.76233,-11.23513 27.18076,-9.14794 52.54738,-5.66909 13.63938,1.85532 28.63417,2.91184 40.11412,3.50446 0,0 117.9922,0.48959 117.9922,1.0565 0,0.59271 -99.88458,1.05651 -99.88458,1.05651 z M 179.7622,8.9675 c -17.42992,1.0565 -43.84277,5.28256 -43.84277,5.28256 0,0 31.16462,4.22606 45.9558,5.82369 14.7913,1.57191 27.46427,-1.59763 27.46427,-6.33909 0,-4.76716 -12.14478,-5.82366 -29.5773,-4.76716 z m 47.01502,-4.74147 c -4.52246,0 -8.1867,3.65915 -8.1867,8.19443 0,4.50954 3.66424,8.16868 8.1867,8.16868 4.52234,0 8.18669,-3.65914 8.18669,-8.16868 0,-4.53528 -3.66435,-8.19443 -8.18669,-8.19443 z m 45.24718,3.81375 c -14.78609,-1.59761 -27.46425,1.59773 -27.46425,6.33908 0,4.74147 12.14995,5.82378 29.57986,4.74147 17.42733,-1.03072 43.84017,-5.28258 43.84017,-5.28258 0,0 -31.1646,-4.20024 -45.95578,-5.79797 z"
                 style="fill:#000000;fill-opacity:1;fill-rule:nonzero;stroke:#000000;stroke-width:0.3985;stroke-linecap:butt;stroke-linejoin:miter;stroke-miterlimit:10;stroke-dasharray:none;stroke-opacity:1"
                 id="path28" /></g></g></g></g></g></g></svg>
