<?xml version="1.0" encoding="UTF-8" standalone="no"?>
<svg
   xmlns:dc="http://purl.org/dc/elements/1.1/"
   xmlns:cc="http://creativecommons.org/ns#"
   xmlns:rdf="http://www.w3.org/1999/02/22-rdf-syntax-ns#"
   xmlns:svg="http://www.w3.org/2000/svg"
   xmlns="http://www.w3.org/2000/svg"
   xmlns:sodipodi="http://sodipodi.sourceforge.net/DTD/sodipodi-0.dtd"
   xmlns:inkscape="http://www.inkscape.org/namespaces/inkscape"
   version="1.1"
   id="svg2"
   xml:space="preserve"
   width="58.660709"
   height="39.200981"
   viewBox="0 0 58.660709 39.200981"
   sodipodi:docname="vectorian119.pdf"><metadata
     id="metadata8"><rdf:RDF><cc:Work
         rdf:about=""><dc:format>image/svg+xml</dc:format><dc:type
           rdf:resource="http://purl.org/dc/dcmitype/StillImage" /></cc:Work></rdf:RDF></metadata><defs
     id="defs6" /><sodipodi:namedview
     pagecolor="#ffffff"
     bordercolor="#666666"
     borderopacity="1"
     objecttolerance="10"
     gridtolerance="10"
     guidetolerance="10"
     inkscape:pageopacity="0"
     inkscape:pageshadow="2"
     inkscape:window-width="640"
     inkscape:window-height="480"
     id="namedview4" /><g
     id="g10"
     inkscape:groupmode="layer"
     inkscape:label="vectorian119"
     transform="matrix(1.3333333,0,0,-1.3333333,-2.180475,39.523907)"><g
       id="g12"
       transform="translate(72,-42.215)"><g
         id="g14"
         transform="translate(-70.119,42.657)"><g
           id="g16"><g
             id="g18"><path
               d="m 38.8852,1.379 c -1.18165,-0.8374 -5.3665,-1.72258 -9.25693,1.87013 0,0 0.54229,0.4433 0.98551,1.08389 0,0 1.72333,-1.77241 3.98824,-1.32908 2.26483,0.44259 3.74226,2.11731 4.08575,4.87476 0.34573,2.75523 -0.39338,6.84246 -3.29823,9.99322 -2.90562,3.15213 -5.21898,3.59474 -6.99148,2.90494 0,0 -0.099,1.27931 1.3791,2.46164 1.47734,1.1823 5.56319,1.478 8.12381,-1.27935 2.55933,-2.75671 4.23406,-7.53238 4.42944,-11.61954 C 42.52913,6.25375 40.7902,2.72862 38.8852,1.379 m -9.65043,2.36323 c 0,0 -1.42753,1.18163 -2.36325,5.36658 0,0 -0.39339,0.19669 -0.34419,-0.24521 0.0491,-0.4447 0.8858,-3.79146 2.41102,-5.41707 0,0 -1.13111,-0.54161 -2.65693,1.08391 -1.52721,1.62422 -2.56062,7.1875 -1.92133,10.92905 0,0 2.01903,-0.54091 2.85634,-1.82164 0,0 -0.5423,-4.57894 3.05243,-8.66411 0,0 -0.34349,-0.88719 -1.03409,-1.23151 M 14.46516,1.47742 C 8.35959,1.0833 4.07632,2.51083 2.59901,6.44978 1.1223,10.3881 1.5157,16.0503 4.86385,20.67986 c 0,0 1.57571,-1.23221 3.10163,-1.23221 0,0 0.78752,0.04988 0.78752,-0.24521 0,0 -0.83601,-2.56064 1.03412,-4.92386 1.87151,-2.36324 2.80652,-3.19995 2.80652,-3.19995 0,0 -0.88591,-1.03342 -1.1311,-2.16723 -0.24721,-1.13183 -0.59212,-3.00394 1.18101,-3.15015 1.77172,-0.14888 2.41172,3.69105 0.836,5.90818 0,0 2.31543,2.41173 4.48056,3.34815 2.16663,0.9357 4.57836,1.18091 6.15477,0.5901 0,0 -1.47671,-7.73041 2.11664,-11.66803 0,0 -5.66226,-2.06815 -11.76636,-2.46223 m -1.57511,9.2556 c 0,0 0.80262,-1.67002 0.68852,-3.15082 -0.14752,-1.91994 -1.77243,-1.82095 -1.91994,-0.59082 -0.14832,1.23151 0.24521,2.80583 1.23142,3.74164 m 14.4746,8.95981 c 0,0 -0.54232,-3.24843 -0.34492,-4.52776 0,0 -1.08391,0.78821 -2.46163,1.08333 0,0 0.98432,2.31341 2.80655,3.44443 M 30.21907,5.51537 c 0,0 -3.14943,4.33103 -2.56003,7.7783 0,0 2.95545,-3.34814 2.56003,-7.7783 m -2.11533,14.52317 c 0.98282,0.44321 4.18486,-0.39351 6.39989,-3.29764 2.21433,-2.90563 3.19992,-6.8945 2.85504,-9.99543 -0.34361,-3.10224 -3.93895,-4.82416 -6.45048,-2.01962 0,0 2.06892,6.20459 -3.54354,10.29173 0,0 -0.24722,4.57835 0.73909,5.02096 m -9.2078,3.19996 0.09759,-0.54172 c 0,0 -0.9835,-0.24521 -1.62422,-1.27922 0,0 -0.88651,0.14821 -0.98421,2.21502 z m 1.6242,3.49633 c 0,0 -1.13251,-0.78821 -1.67412,-2.56063 l -1.96913,0.34489 c 0,0 1.23084,2.26495 3.64325,2.21574 m 1.03472,-0.24591 c 0,0 -0.3456,-0.73829 -0.14748,-2.16652 0.03689,-0.2759 0.09288,-0.5525 0.15028,-0.82982 l -1.73492,-0.5007 c 0,0.0949 0.0027,0.1947 0.0089,0.2964 0.14821,2.55935 1.23012,3.24913 1.72323,3.20064 m 0.27261,-5.12745 c -0.23639,-0.10651 -0.78551,-0.34421 -1.29781,-0.49511 -0.32441,0.3633 -0.62423,0.9186 -0.69252,1.75742 l 1.79352,0.5163 c 0.1285,-0.60921 0.24121,-1.211 0.19681,-1.77861 m -0.37232,-1.12623 c 0,0 -0.36399,0.10242 -0.74649,0.45141 0.5723,0.17221 0.8899,0.26712 1.06681,0.31901 -0.05732,-0.2677 -0.15569,-0.52521 -0.32032,-0.77042 m -3.73955,0.91523 c 0.22271,0.47198 0.6427,0.9077 1.27793,1.2028 0,0 0.20149,-0.93851 0.82921,-1.64541 -0.70691,-0.13521 -1.62901,-0.23432 -2.10714,0.44261 m 1.18034,-2.48964 c -1.07034,0.2377 -1.54712,1.19392 -1.31212,2.12153 0.25,-0.26301 0.9501,-0.74862 2.44381,-0.30061 0.0062,0.0021 0.01091,0.0034 0.01639,0.0041 0.33333,-0.2957 0.76294,-0.5163 1.31284,-0.5457 0,0 -0.68849,-1.67342 -2.46092,-1.27931 m 3.88154,8.76181 c 0.65091,0.07579 2.23352,0.06759 2.89874,-1.63922 -0.0648,-0.11202 -0.13861,-0.22409 -0.22329,-0.3347 -0.0089,0.0048 -0.40302,-0.43781 -1.38723,-1.12632 -0.53282,-0.3722 -0.94801,-0.5286 -1.21711,-0.5942 -0.0287,0.34008 -0.05132,0.681 -0.06421,0.9883 -0.0267,0.66732 -0.18039,1.80663 -0.0069,2.70614 m 1.18851,1.32983 c 1.39952,0.16458 2.45273,-1.18094 1.87283,-2.63376 -0.1571,0.37233 -0.53002,1.04233 -1.28072,1.45282 -0.5716,0.31211 -1.21032,0.29372 -1.68843,0.2076 0.17281,0.51912 0.50072,0.90443 1.09632,0.97334 m -0.9344,-6.9415 c 0,0 -0.08672,0.75881 -0.15911,1.61531 1.24851,0.22541 2.32703,1.18711 2.73752,1.59622 l 0.07993,-0.0608 c 0,0 0.04989,-2.26492 -2.65834,-3.15073 m 19.05363,-4.28256 c -1.92002,4.38086 -5.12067,7.9749 -9.6013,7.33629 -4.47997,-0.6413 -4.57827,-4.18484 -4.57827,-4.18484 -2.70685,-1.08393 -3.59274,-4.43146 -3.59274,-4.43146 0,0 -2.26553,0.5416 -5.17119,-0.29512 -3.25862,-0.9391 -5.95727,-4.13704 -5.95727,-4.13704 -0.68921,1.32991 -2.36322,1.72331 -3.39733,3.49574 -1.03412,1.77242 -0.78683,3.98744 -0.78683,3.98744 0.34422,0.29651 1.96843,0.69063 3.59335,1.82302 1.62633,1.13174 1.47803,3.05176 1.47803,3.05176 l 2.06753,-0.44262 c -0.24652,-1.9691 1.08332,-2.65902 1.08332,-2.65902 -0.1974,-0.2459 -0.73903,-3.15004 1.9192,-3.15004 2.65905,0 3.29905,1.82162 3.29905,1.82162 2.41244,-0.05131 3.84065,2.65764 3.84065,2.65764 l -0.444,-0.04851 c -1.42682,-2.26492 -3.19925,-2.26492 -3.19925,-2.26492 0.24521,0.34419 0.39342,1.32921 0.39342,1.32921 3.88984,1.67271 2.90423,4.43007 2.90423,4.43007 0,0 0.59151,0.64129 0.39411,1.5272 -0.196,0.88661 -1.08332,1.96843 -2.75734,1.52593 -1.67414,-0.44261 -2.01773,-1.92072 -2.01773,-1.92072 -0.2459,0 -0.78751,-0.14552 -0.78751,-0.14552 C 18.10773,27.47324 16.435,24.51909 16.435,24.51909 l -2.16793,0.34561 c 0,-0.4439 -0.54031,-0.4439 -0.54031,-0.4439 0.44261,-2.06753 -2.51143,-3.74235 -4.23335,-3.83996 -1.72461,-0.09909 -3.00466,0.59152 -3.00466,0.59152 0.83672,1.91791 2.21576,2.46022 3.49576,2.36254 1.28003,-0.09772 1.42821,-0.93642 1.42821,-0.93642 0.49112,0 1.42613,1.33051 1.42613,1.33051 0,0 -0.54089,0.34422 -0.68849,0.93571 -0.14752,0.58882 0.24658,1.18102 0.59149,1.37703 0.34421,0.19809 0.4426,0.29568 0.59151,-0.19601 0.14619,-0.49252 0.3934,-1.08402 0.3934,-1.08402 l 0.29509,0.39412 c -0.24658,0.0977 -0.29509,0.5908 -0.34428,0.9364 -0.04981,0.34432 -0.54161,0.93582 -1.42754,0 -0.8865,-0.9364 -0.29639,-2.01901 -0.29639,-2.01901 -0.1475,-0.44322 -0.54092,-0.59082 -0.54092,-0.59082 C 7.47368,25.0601 6.29138,21.26926 6.29138,21.26926 4.02713,21.56577 4.66713,25.01091 4.66713,25.01091 5.40556,23.68239 5.94716,24.4208 5.94716,24.4208 4.27374,25.65163 5.06125,27.37483 5.65205,27.52234 6.24228,27.67055 6.34196,27.27643 6.34196,27.27643 5.94716,26.43982 5.94716,24.7165 6.43956,24.4208 6.93208,24.1257 7.08028,24.765 7.08028,24.765 6.73607,25.2581 6.48875,26.58662 6.88287,27.47324 7.27628,28.35905 8.5064,28.06404 8.5064,28.06404 7.47368,28.75247 6.58788,27.71906 6.58788,27.71906 4.71704,28.21085 4.56815,26.53741 4.56815,26.53741 l -4.57833,0.73902 C 0.08818,26.58662 3.53403,26.14404 4.22455,25.94662 4.91304,25.75063 4.71704,25.20831 4.71704,25.20831 3.09142,24.51909 4.66713,20.82666 4.66713,20.82666 -1.88092,12.40775 -0.01018,0.83739 9.1963,0.19809 18.40411,-0.44188 26.62564,3.64323 26.62564,3.64323 27.90565,2.06822 29.33456,3.10294 29.33456,3.10294 29.57977,2.56061 32.43611,0.04988 36.17635,0 c 3.74226,-0.04848 5.90887,3.05313 6.74618,5.95796 0.83742,2.90564 1.08331,7.18819 -0.83731,11.57045 M 9.49341,24.7165 c -0.0499,-0.5423 0.4911,-0.4931 0.4911,-0.4931 0.29572,0.14821 -0.05058,0.7383 -0.05058,0.7383 -0.09693,2.36394 2.06891,2.75736 2.21643,2.60983 0.1476,-0.14819 0.54169,-0.24589 0.54169,-0.24589 0,0 0.099,0.78821 -1.22951,0.44261 C 9.4149,27.23824 9.54051,25.2581 9.49341,24.7165 M 8.26059,24.51909 v 1.03411 c 0,0.49252 0.099,1.67484 0.78752,2.31345 0.69049,0.6406 1.6255,0.2957 1.6255,0.2957 l -0.24578,0.3449 c -2.46235,0.1974 -2.70896,-2.56063 -2.70896,-3.44715 0,-0.8859 0.54172,-0.54101 0.54172,-0.54101"
               style="fill:#000000;fill-opacity:1;fill-rule:nonzero;stroke:#000000;stroke-width:0.3985;stroke-linecap:butt;stroke-linejoin:miter;stroke-miterlimit:10;stroke-dasharray:none;stroke-opacity:1"
               id="path20" /></g></g></g></g></g></svg>
