<?xml version="1.0" encoding="UTF-8" standalone="no"?>
<svg
   xmlns:dc="http://purl.org/dc/elements/1.1/"
   xmlns:cc="http://creativecommons.org/ns#"
   xmlns:rdf="http://www.w3.org/1999/02/22-rdf-syntax-ns#"
   xmlns:svg="http://www.w3.org/2000/svg"
   xmlns="http://www.w3.org/2000/svg"
   xmlns:sodipodi="http://sodipodi.sourceforge.net/DTD/sodipodi-0.dtd"
   xmlns:inkscape="http://www.inkscape.org/namespaces/inkscape"
   version="1.1"
   id="svg2"
   xml:space="preserve"
   width="62.826668"
   height="38.546665"
   viewBox="0 0 62.826668 38.546665"
   sodipodi:docname="vectorian129.pdf"><metadata
     id="metadata8"><rdf:RDF><cc:Work
         rdf:about=""><dc:format>image/svg+xml</dc:format><dc:type
           rdf:resource="http://purl.org/dc/dcmitype/StillImage" /></cc:Work></rdf:RDF></metadata><defs
     id="defs6" /><sodipodi:namedview
     pagecolor="#ffffff"
     bordercolor="#666666"
     borderopacity="1"
     objecttolerance="10"
     gridtolerance="10"
     guidetolerance="10"
     inkscape:pageopacity="0"
     inkscape:pageshadow="2"
     inkscape:window-width="640"
     inkscape:window-height="480"
     id="namedview4" /><g
     id="g10"
     inkscape:groupmode="layer"
     inkscape:label="vectorian129"
     transform="matrix(1.3333333,0,0,-1.3333333,0,38.546667)"><g
       id="g12"
       transform="translate(72,-43.095)"><g
         id="g14"
         transform="translate(-72,43.195)"><g
           id="g16"><g
             id="g18"><path
               d="m 5.83366,3.17464 c -2.56813,0 -5.13908,5.19095 -5.13908,11.14213 0,5.95117 1.99443,10.58893 4.55786,10.42363 C 7.53368,24.59221 9.97072,19.91005 9.97072,13.95757 9.97072,8.0064 8.27069,3.17464 5.83366,3.17464 M 5.46486,25.25752 C 2.38782,25.37021 0,20.56854 0,14.32777 0,8.08559 2.97792,3.04494 6.05566,2.95473 c 2.51084,-0.07512 4.80027,4.76275 4.80027,11.00284 0,6.2415 -3.35974,11.22615 -5.39107,11.29995"
               style="fill:#000000;fill-opacity:1;fill-rule:nonzero;stroke:#000000;stroke-width:0.3985;stroke-linecap:butt;stroke-linejoin:miter;stroke-miterlimit:10;stroke-dasharray:none;stroke-opacity:1"
               id="path20" /><path
               d="m 8.4927,2.51141 c -2.72524,0 -5.02297,5.45609 -5.02297,11.78145 0,6.3262 2.11601,11.25696 4.83577,11.08005 2.42132,-0.15711 5.00795,-5.13567 5.00795,-11.46045 0,-6.32548 -2.23413,-11.40105 -4.82075,-11.40105 m 0.03959,23.4113 C 5.26546,26.04163 2.73271,20.93666 2.73271,14.30316 2.73271,7.67169 5.52226,2.0907 8.7891,1.99442 c 2.66314,-0.07922 5.46417,5.28385 5.46417,11.91804 0,6.6328 -3.56604,11.93176 -5.72098,12.01025"
               style="fill:#000000;fill-opacity:1;fill-rule:nonzero;stroke:#000000;stroke-width:0.3985;stroke-linecap:butt;stroke-linejoin:miter;stroke-miterlimit:10;stroke-dasharray:none;stroke-opacity:1"
               id="path22" /><path
               d="m 11.37303,1.7355 c -2.86463,0 -5.27977,5.84467 -5.27977,12.61887 0,6.77419 2.22394,12.05467 5.08437,11.86687 2.54364,-0.16942 4.99565,-5.78389 4.99565,-12.55739 0,-6.77559 -2.08121,-11.92835 -4.80025,-11.92835 m 0.04161,25.07314 c -3.43284,0.127 -6.09669,-5.33788 -6.09669,-12.44267 0,-7.1034 2.93155,-13.08127 6.36578,-13.18437 2.80113,-0.084 5.74557,5.66088 5.74557,12.76367 0,7.10479 -3.74833,12.77865 -6.01466,12.86337"
               style="fill:#000000;fill-opacity:1;fill-rule:nonzero;stroke:#000000;stroke-width:0.3985;stroke-linecap:butt;stroke-linejoin:miter;stroke-miterlimit:10;stroke-dasharray:none;stroke-opacity:1"
               id="path24" /><path
               d="m 16.80571,0.6065 c -4.51067,0 -8.31301,6.39858 -8.31301,13.81827 0,7.41961 3.50326,13.20137 8.0043,12.99517 4.00454,-0.18581 7.865,-6.33298 7.865,-13.75199 C 24.362,6.25038 21.08554,0.6065 16.80571,0.6065 M 16.7948,28.06334 C 11.83743,28.20264 7.98999,22.21738 7.98999,14.43768 7.98999,6.65808 11.87914,0.11269 16.83852,0 c 4.04484,-0.09149 8.64088,6.19777 8.64088,13.97807 0,7.77961 -5.41356,13.99308 -8.6846,14.08527"
               style="fill:#000000;fill-opacity:1;fill-rule:nonzero;stroke:#000000;stroke-width:0.3985;stroke-linecap:butt;stroke-linejoin:miter;stroke-miterlimit:10;stroke-dasharray:none;stroke-opacity:1"
               id="path26" /><path
               d="m 19.79805,0.6161 c -4.64177,-0.15031 -8.55751,6.50098 -8.55751,14.03678 0,7.53579 3.03123,13.62077 7.66479,13.41116 4.12415,-0.18791 8.78913,-5.68686 8.93673,-13.81006 C 27.97995,6.71957 23.55879,0.739 19.79805,0.6161 m 8.6362,13.64267 c -0.2234,9.59513 -5.84666,14.29628 -9.21742,14.39537 -5.10558,0.15093 -8.66071,-6.23527 -8.50911,-14.17956 0.15301,-7.94281 3.99635,-14.3517 9.104,-14.47389 4.16437,-0.10108 8.80625,6.31587 8.62253,14.25808"
               style="fill:#000000;fill-opacity:1;fill-rule:nonzero;stroke:#000000;stroke-width:0.3985;stroke-linecap:butt;stroke-linejoin:miter;stroke-miterlimit:10;stroke-dasharray:none;stroke-opacity:1"
               id="path28" /><path
               d="m 22.96797,0.88658 c -4.51616,-0.14888 -8.47769,6.6191 -8.47769,14.0197 0,7.3992 3.15154,13.31078 7.66489,13.23148 4.28465,-0.07372 8.35,-5.64719 8.4934,-13.62419 C 30.78108,7.11508 26.62834,1.0068 22.96797,0.88658 m 8.71533,13.63168 c -0.22262,9.42302 -5.84597,14.03959 -9.21663,14.13588 -5.10566,0.14753 -8.66072,-6.12327 -8.5091,-13.92276 0.15229,-7.7994 3.99566,-14.0928 9.10331,-14.21438 4.16576,-0.09831 8.80622,6.20257 8.62242,14.00126"
               style="fill:#000000;fill-opacity:1;fill-rule:nonzero;stroke:#000000;stroke-width:0.3985;stroke-linecap:butt;stroke-linejoin:miter;stroke-miterlimit:10;stroke-dasharray:none;stroke-opacity:1"
               id="path30" /><path
               d="m 30.94427,2.73341 c -4.17805,-0.13449 -8.0733,5.75519 -8.0733,12.47608 0,6.71959 2.91315,12.08615 7.08981,12.01645 3.96015,-0.0669 7.72089,-5.12877 7.8534,-12.37366 C 37.93777,8.1341 34.32803,2.84271 30.94427,2.73341 m 7.82752,12.12368 c -0.20561,8.5576 -5.40688,12.74925 -8.52412,12.83805 -4.72245,0.13392 -8.01052,-5.56176 -7.86849,-12.64477 0.14009,-7.08359 3.76824,-12.65025 8.49139,-12.76085 3.85225,-0.08951 8.07122,5.48526 7.90122,12.56757"
               style="fill:#000000;fill-opacity:1;fill-rule:nonzero;stroke:#000000;stroke-width:0.3985;stroke-linecap:butt;stroke-linejoin:miter;stroke-miterlimit:10;stroke-dasharray:none;stroke-opacity:1"
               id="path32" /><path
               d="m 34.07123,3.57832 c -3.88846,-0.12289 -7.51599,5.23748 -7.51599,11.35186 0,6.11508 2.71432,10.99934 6.60067,10.93454 3.68634,-0.0608 7.18679,-4.66716 7.3104,-11.25835 C 40.5804,8.4927 37.22057,3.67734 34.07123,3.57832 m 7.28648,11.03215 c -0.19131,7.7865 -5.03326,11.60115 -7.93399,11.68245 -4.39596,0.1216 -7.4559,-5.06047 -7.3248,-11.50755 0.13051,-6.44427 3.50664,-11.50964 7.90331,-11.61073 3.58584,-0.07991 7.51388,4.99086 7.35548,11.43583"
               style="fill:#000000;fill-opacity:1;fill-rule:nonzero;stroke:#000000;stroke-width:0.3985;stroke-linecap:butt;stroke-linejoin:miter;stroke-miterlimit:10;stroke-dasharray:none;stroke-opacity:1"
               id="path34" /><path
               d="m 36.45216,4.21902 c -3.83996,-0.11549 -7.4189,4.93689 -7.4189,10.70084 0,5.76198 2.67814,10.36494 6.51528,10.30486 3.64055,-0.05811 7.09599,-4.39865 7.2189,-10.61144 C 42.88083,8.8513 39.56339,4.31395 36.45216,4.21902 m 7.19429,10.39766 c -0.18922,7.33979 -4.96826,10.93454 -7.83419,11.01104 -4.33858,0.11399 -7.36031,-4.76886 -7.2305,-10.84575 0.1277,-6.07276 3.46153,-10.84713 7.80278,-10.94274 3.54156,-0.0765 7.419,4.70465 7.26191,10.77745"
               style="fill:#000000;fill-opacity:1;fill-rule:nonzero;stroke:#000000;stroke-width:0.3985;stroke-linecap:butt;stroke-linejoin:miter;stroke-miterlimit:10;stroke-dasharray:none;stroke-opacity:1"
               id="path36" /></g></g></g></g></g></svg>
