<?xml version="1.0" encoding="UTF-8" standalone="no"?>
<svg
   xmlns:dc="http://purl.org/dc/elements/1.1/"
   xmlns:cc="http://creativecommons.org/ns#"
   xmlns:rdf="http://www.w3.org/1999/02/22-rdf-syntax-ns#"
   xmlns:svg="http://www.w3.org/2000/svg"
   xmlns="http://www.w3.org/2000/svg"
   xmlns:sodipodi="http://sodipodi.sourceforge.net/DTD/sodipodi-0.dtd"
   xmlns:inkscape="http://www.inkscape.org/namespaces/inkscape"
   version="1.1"
   id="svg2"
   xml:space="preserve"
   width="183.09332"
   height="178.66667"
   viewBox="0 0 183.09332 178.66667"
   sodipodi:docname="vectorian053.pdf"><metadata
     id="metadata8"><rdf:RDF><cc:Work
         rdf:about=""><dc:format>image/svg+xml</dc:format><dc:type
           rdf:resource="http://purl.org/dc/dcmitype/StillImage" /></cc:Work></rdf:RDF></metadata><defs
     id="defs6"><clipPath
       clipPathUnits="userSpaceOnUse"
       id="clipPath24"><path
         d="M 0,0 H 134.00171 V 134.00171 H 0 Z"
         id="path22" /></clipPath></defs><sodipodi:namedview
     pagecolor="#ffffff"
     bordercolor="#666666"
     borderopacity="1"
     objecttolerance="10"
     gridtolerance="10"
     guidetolerance="10"
     inkscape:pageopacity="0"
     inkscape:pageshadow="2"
     inkscape:window-width="640"
     inkscape:window-height="480"
     id="namedview4" /><g
     id="g10"
     inkscape:groupmode="layer"
     inkscape:label="vectorian053"
     transform="matrix(1.3333333,0,0,-1.3333333,0,178.66667)"><g
       id="g12"
       transform="translate(72,62)"><g
         id="g14"
         transform="translate(-72,-62)"><g
           id="g16"><g
             id="g18"><g
               id="g20"
               clip-path="url(#clipPath24)"><path
                 d="m 124.1341,13.21216 c -2.08202,0 -3.77056,-1.69402 -3.77056,-3.77425 0,-2.08684 1.68854,-3.77426 3.77056,-3.77426 2.09031,0 3.77033,1.68742 3.77033,3.77426 0,2.08023 -1.68002,3.77425 -3.77033,3.77425 z"
                 style="fill:#000000;fill-opacity:1;fill-rule:nonzero;stroke:#000000;stroke-width:0.3985;stroke-linecap:butt;stroke-linejoin:miter;stroke-miterlimit:10;stroke-dasharray:none;stroke-opacity:1"
                 id="path26" /><path
                 d="m 131.14688,5.93356 c -1.63942,0 -2.96815,-1.32982 -2.96815,-2.96243 C 128.17873,1.332 129.50746,0 131.14688,0 c 1.63692,0 2.96144,1.332 2.96144,2.97113 0,1.63261 -1.32452,2.96243 -2.96144,2.96243 z"
                 style="fill:#000000;fill-opacity:1;fill-rule:nonzero;stroke:#000000;stroke-width:0.3985;stroke-linecap:butt;stroke-linejoin:miter;stroke-miterlimit:10;stroke-dasharray:none;stroke-opacity:1"
                 id="path28" /><path
                 d="M 78.41689,20.01694 C 70.32408,20.42505 66.30383,17.36832 60.73236,13.13326 57.85223,10.94542 54.58418,8.45259 50.08205,5.96426 46.19038,3.81152 41.72884,2.64641 37.18057,2.44011 c 1.81823,0.34891 3.60753,0.89972 5.33907,1.67651 3.25404,1.46582 6.25087,3.92568 8.6188,6.93849 2.76224,1.86524 7.271,5.73391 9.04093,11.99436 2.62512,9.30632 -1.01132,16.37431 0.60649,20.62257 1.61574,4.24825 7.47891,3.03266 7.47891,3.03266 -0.40512,9.2996 -8.89532,9.50152 -11.31895,5.05136 -2.42594,-4.44136 0.6065,-6.26489 2.02073,-19.40027 0.9451,-8.76869 -2.60353,-14.27867 -5.07007,-16.9931 0.42422,0.85139 0.81222,1.70723 1.13561,2.59373 1.50862,4.14736 2.55864,10.63823 -0.9964,17.98052 -2.89285,5.9709 -8.40643,9.53883 -15.1205,9.79785 -6.89159,0.26329 -13.57318,-3.08316 -16.63452,-8.32541 -2.79753,-4.80347 -3.07184,-10.32445 -0.71892,-14.7702 2.05092,-3.87745 5.81159,-6.36588 10.05873,-6.6643 1.85404,-0.1273 3.46756,0.23482 4.80896,1.06862 3.12656,1.36933 6.02809,4.34926 6.16089,9.24053 0.2014,7.48487 -7.28178,8.28799 -9.70631,5.45947 -2.69686,-3.14885 0.2025,-9.50592 5.66257,-7.0768 0.14149,-0.73732 0.09559,-1.4219 -0.06431,-2.06923 -0.11039,-0.3511 -0.2313,-0.70439 -0.37919,-1.0467 -0.63442,-1.34293 -1.76344,-2.45993 -2.91437,-3.32225 -0.97929,-0.50031 -2.13,-0.7285 -3.46092,-0.64082 -3.68477,0.25901 -6.94731,2.42924 -8.73221,5.81069 -2.09053,3.94545 -1.83473,8.87842 0.68331,13.19246 2.76644,4.74417 8.86321,7.77022 15.17399,7.52451 6.09787,-0.2304 11.10054,-3.46935 13.72566,-8.88282 C 55.8936,28.40155 54.91211,22.36487 53.50859,18.50723 51.45375,12.84135 46.98538,7.89748 41.85722,5.59337 33.70892,1.9354 24.14409,3.48903 16.31819,9.55861 c -1.76802,1.57992 -3.31523,3.39244 -4.63736,5.39587 -0.6504,2.02102 -1.50661,4.08596 -2.45372,6.06966 -0.8121,1.71594 -1.37362,3.24986 -1.76993,4.65857 -0.3549,2.26672 -0.4244,4.60596 -0.21861,6.9561 0.83342,2.66173 3.01503,-0.32251 4.01376,-3.32225 2.36132,2.90094 3.64066,5.05797 4.51925,15.1608 0.88082,10.19944 2.95735,7.8865 2.95735,7.8865 0.81102,-5.45299 3.64395,-5.45299 3.64395,-5.45299 0,0 0.9418,5.38718 11.32025,11.71788 5.72786,3.49784 12.16525,4.25485 16.44029,4.30756 19.27985,-2.52354 33.79834,-15.2661 33.96974,-15.42192 l 0.17351,-0.1514 1.44431,-0.24139 0.01502,0.06799 c 11.04684,-11.04414 18.93705,-18.93074 18.93705,-18.93074 0.4735,-0.47171 1.24481,-0.4783 1.7164,-0.0021 0.47791,0.46952 0.48232,1.23543 0.006,1.71152 L 87.6325,48.84851 87.42451,50.10373 87.2683,50.27924 c -0.16,0.17999 -14.10268,16.0495 -15.70458,36.66548 0.17688,4.16273 1.20531,9.36551 4.58704,13.74327 6.8723,8.89372 11.72606,11.32072 11.72606,11.32072 0,0 0.13711,2.82846 -5.45809,3.63817 0,0 -2.22441,1.81912 7.88283,3.43865 10.11133,1.61721 13.34717,1.55131 15.16428,4.04194 -2.99683,1.00061 -5.98287,3.17963 -3.31943,4.01126 2.88673,0.25681 5.75606,0.0878 8.50759,-0.51121 0.98563,-0.36872 2.01633,-0.84702 3.10274,-1.47902 1.46172,-0.85141 3.62377,-1.7577 6.00249,-2.40283 2.02933,-1.32982 3.87217,-2.88994 5.46437,-4.68277 6.07308,-7.82509 7.6245,-17.39902 3.97095,-25.53792 -2.30583,-5.13477 -7.25699,-9.59593 -12.91538,-11.65856 -3.85723,-1.40002 -9.89172,-2.37652 -16.7256,0.93692 -5.41297,2.62453 -8.6466,7.6276 -8.88672,13.72788 -0.23979,6.30658 2.77944,12.40477 7.52601,15.1696 4.31364,2.52133 9.24882,2.77812 13.19407,0.6891 3.38144,-1.78842 5.55037,-5.05586 5.81147,-8.738 0.09,-1.32973 -0.1393,-2.47954 -0.6429,-3.46706 -0.86132,-1.1432 -1.97583,-2.27112 -3.31725,-2.90314 -0.3535,-0.1558 -0.71672,-0.2809 -1.07352,-0.39061 -0.64051,-0.15359 -1.32641,-0.19969 -2.04843,-0.05919 2.42763,5.46177 -3.92605,8.36052 -7.07188,5.66138 -2.83074,-2.42474 -2.02502,-9.90755 5.45265,-9.70123 4.89546,0.1317 7.87842,3.03483 9.24773,6.15738 0.83381,1.34732 1.19592,2.95363 1.0673,4.81655 -0.2977,4.24396 -2.79013,8.00292 -6.66667,10.05674 -4.44876,2.34804 -9.96672,2.07812 -14.76909,-0.72191 -5.24469,-3.05894 -8.58671,-9.74953 -8.32512,-16.63101 0.25693,-6.72128 3.83156,-12.23137 9.79734,-15.12349 7.3395,-3.55927 13.8284,-2.50813 17.98562,-0.99183 0.87862,0.31812 1.73793,0.70872 2.58205,1.13222 -2.71063,-2.47303 -8.21811,-6.01687 -16.98253,-5.07325 -13.14267,1.41971 -14.96329,4.44793 -19.41064,2.02533 -4.44445,-2.42914 -4.24297,-10.92346 5.05737,-11.32508 0,0 -1.21301,5.86328 3.03213,7.48061 4.24524,1.61722 11.32114,-2.02321 20.62366,0.60562 6.25938,1.77081 10.12744,6.27808 11.99398,9.04291 3.00642,2.36992 5.47506,5.35867 6.93896,8.62161 0.77542,1.72483 1.32733,3.51535 1.67554,5.33887 -0.20821,-4.54886 -1.36502,-9.01662 -3.52495,-12.90717 -2.49103,-4.50065 -4.97818,-7.76581 -7.16809,-10.64924 -4.23466,-5.56487 -7.29799,-9.58933 -6.88109,-17.68431 0.2056,-4.06177 2.49213,-6.98461 6.27017,-8.02252 4.38846,-1.20911 9.56804,0.44541 11.78607,3.77426 1.54622,2.32384 1.85991,5.05366 0.83779,7.30499 -0.87201,1.92013 -2.56072,3.17523 -4.64365,3.44515 -0.6899,0.08999 -1.30281,0.08999 -1.84941,0.01978 -0.68572,-0.0088 -1.48163,-0.24578 -2.36354,-0.88211 -2.96375,-2.1571 -2.42804,-6.20126 -1.34801,-6.33738 1.08211,-0.13381 1.89021,0.13612 1.89021,2.96244 0,1.49652 1.24071,2.27553 2.41494,2.67713 0.33,0.0175 0.6772,0.0087 1.05021,-0.04169 1.50862,-0.19751 2.74092,-1.11693 3.37494,-2.51254 0.79501,-1.74011 0.5295,-3.88405 -0.70921,-5.74047 -1.82163,-2.73193 -6.31318,-4.12754 -10.00743,-3.11375 -1.8022,0.49591 -4.85825,2.00784 -5.08955,6.55009 -0.38473,7.50251 2.37652,11.12766 6.55097,16.62232 2.22663,2.92725 4.74866,6.24288 7.30089,10.84444 4.15544,7.5025 4.94586,16.99972 2.11513,25.40193 -1.28151,3.81814 -3.27965,7.226 -5.84267,10.13574 -0.5776,0.74159 -1.18932,1.4855 -1.84612,2.19872 l -0.16392,-0.14919 c -0.33549,0.31148 -0.68269,0.6122 -1.03621,0.9106 4.48307,-0.5508 8.87383,0.2677 10.31174,4.35354 1.61571,5.8612 -3.63644,8.69634 -7.68439,7.8844 -4.04376,-0.80969 -4.24527,-3.64262 -2.62953,-5.66145 -2.02093,-1.61723 -4.44746,-0.20192 -14.7559,0.6078 -1.83673,0.14051 -5.54829,0.0198 -9.96262,-0.89311 -0.06012,-0.0153 -0.1189,-0.0263 -0.17802,-0.0329 -0.2293,-0.0526 -0.46489,-0.1097 -0.70281,-0.1602 -0.5999,-0.13159 -1.19571,-0.28079 -1.78921,-0.44539 -10.21544,-2.74954 -22.73639,-9.90312 -25.25883,-27.18805 -0.3149,-1.42204 -0.5591,-2.87245 -0.7222,-4.34927 -0.20141,-1.80811 -0.29362,-3.59435 -0.29362,-5.35206 0,-15.82342 7.5497,-29.37799 12.34766,-36.40647 l -8.7366,8.79272 c -1.28153,2.39841 -4.79818,9.22731 -7.3653,16.5016 -1.47862,4.19335 -2.37213,8.05542 -2.72564,11.81435 -0.4224,4.46776 0.0362,9.65523 0.83871,14.06148 0.77261,4.25926 2.57704,9.24043 2.15703,13.61157 -0.4865,5.02948 -4.61606,8.30121 -9.57442,8.66112 -4.00514,0.2919 -8.5834,-2.32603 -9.02212,-6.69278 -0.2249,-2.24924 0.41801,-4.27457 1.72743,-5.64168 -0.0408,0.0132 -0.07511,0.0197 -0.11132,0.0351 0.06189,-0.0439 0.11982,-0.0834 0.18192,-0.12952 0.04059,-0.0395 0.0665,-0.0855 0.0986,-0.12498 0.84851,-0.79221 1.90511,-1.24643 3.06853,-1.41103 2.71734,-0.6846 5.05957,0.31381 6.21858,1.66553 1.61612,1.88931 1.3504,5.39597 -0.138,5.52975 -1.47963,0.13392 -2.01973,-0.67579 -2.01973,-2.96893 0,-1.3408 -0.91701,-2.06932 -1.68211,-2.45552 -0.21219,-0.0636 -0.4145,-0.14041 -0.66622,-0.1843 -1.46171,-0.22601 -2.73242,0.12069 -3.66244,1.00062 -1.08441,1.016 -1.58801,2.66613 -1.40592,4.52476 0.33861,3.37714 4.11245,5.47055 7.2947,5.24014 4.21074,-0.305 7.198,-3.27183 7.61378,-7.5486 0.2594,-2.72322 -0.4863,-5.46176 -1.20431,-8.1103 l -0.1371,-0.52669 c -1.56981,-5.78648 -2.07453,-11.75955 -1.50222,-17.74794 0.36643,-3.88846 1.29003,-7.8777 2.81374,-12.20065 1.71213,-4.84287 3.91934,-9.74512 5.62288,-13.30439 l -13.01187,13.09598 3.83815,3.45384 -3.96015,4.37998 -4.03967,-3.64916 -7.08838,7.1316 c -0.2339,2.07801 -0.18451,5.38057 2.01203,7.22818 3.37074,2.41822 5.12167,-0.81191 4.31144,-3.37485 2.83296,-0.4016 6.47379,5.79307 1.89005,9.56953 -4.58357,3.77877 -11.45806,-0.6736 -11.18816,-8.76201 -1.92233,5.09308 -5.28866,7.41251 -9.81893,8.67211 -8.58651,9.30403 -14.26327,15.81471 -16.4256,14.31158 -2.47803,-1.72701 1.13581,-4.60815 14.58279,-17.21041 1.30722,-4.11877 3.64723,-7.20179 8.42372,-9.00562 -8.08733,0.2677 -12.53177,-6.60718 -8.75594,-11.19115 3.77366,-4.57525 9.96964,-0.93921 9.56613,1.89153 -2.55665,-0.81191 -5.79667,0.94351 -3.36884,4.31186 1.65223,1.97053 4.47236,2.21412 6.54249,2.07371 2.38503,-2.40282 4.85787,-4.88025 7.36958,-7.39938 l -3.73083,-3.36394 3.95373,-4.38437 3.94697,3.55925 c 4.46376,-4.47867 9.0015,-9.02972 13.44285,-13.47767 -3.59802,1.74443 -8.8353,4.13635 -14.00436,5.96197 -4.31566,1.52513 -8.31002,2.44675 -12.19736,2.81545 -5.98727,0.5661 -11.95746,0.06799 -17.75204,-1.50312 l -0.5208,-0.1383 C 21.19116,71.0335 18.45682,70.2896 15.731,70.5507 c -4.27728,0.4126 -7.23681,3.40783 -7.54532,7.61438 -0.23348,3.17966 1.86214,6.954 5.23508,7.2963 1.86012,0.1799 3.51004,-0.327 4.52828,-1.40442 0.88479,-0.9326 1.22988,-2.20093 0.99839,-3.66234 -0.4608,-2.91853 -3.02793,-2.61134 -3.31715,-2.56523 l -0.26579,-1.59532 c 0.07919,-0.01529 1.91151,-0.30499 3.41792,0.77681 0.95374,0.6868 1.54063,1.73793 1.75944,3.12913 0.3127,1.94863 -0.19291,3.73485 -1.41842,5.02727 -1.36292,1.44612 -3.49974,2.13733 -5.85898,1.90033 -4.36296,-0.4366 -6.98917,-5.01628 -6.69449,-9.02102 0.36212,-4.95916 3.63646,-9.08902 8.65962,-9.57392 4.37355,-0.42352 9.35582,1.38461 13.60736,2.15701 4.40807,0.79662 9.60253,1.26182 14.0685,0.83832 3.76064,-0.3533 7.62338,-1.24641 11.81596,-2.72543 8.29769,-2.92723 16.0014,-7.08777 17.22481,-7.757 3.08704,-3.09414 6.09879,-6.10259 8.96172,-8.96621 -6.72238,4.73546 -20.77677,12.96866 -37.29968,12.96866 -1.75943,0 -3.54645,-0.09439 -5.35308,-0.29399 C 36.77655,64.53163 35.32784,64.2814 33.90942,63.9676 16.4702,61.43098 9.3408,48.70592 6.64066,38.43848 6.50986,37.94698 6.39197,37.45107 6.28467,36.96606 6.22476,36.70276 6.16487,36.45044 6.11356,36.19586 6.10277,36.15195 6.09206,36.11035 6.08566,36.06425 5.16624,31.64038 5.04626,27.92093 5.18446,26.08432 5.99567,15.77078 7.41217,13.34386 5.79425,11.32504 3.76663,12.94005 0.9425,12.74045 0.13478,8.69398 -0.67508,4.65204 2.15752,-0.60559 8.01538,1.0116 c 4.40256,1.54481 5.36038,5.40905 4.63815,9.96232 0.19953,-0.2348 0.41813,-0.4586 0.63002,-0.68899 L 13.13286,10.12032 C 13.84517,9.4642 14.58438,8.8608 15.33638,8.27489 18.24022,5.71187 21.64757,3.71283 25.46422,2.43132 33.86862,-0.395 43.36826,0.39279 50.86635,4.55324 c 4.60395,2.54764 7.91589,5.06897 10.84753,7.2941 5.49005,4.18025 9.11472,6.93629 16.62052,6.55448 4.54936,-0.23258 6.05577,-3.28713 6.54669,-5.08866 C 85.90118,9.61562 84.50388,5.12595 81.76944,3.30473 79.91803,2.06711 77.77069,1.79932 76.03276,2.59592 c -1.40352,0.6342 -2.31613,1.863 -2.51562,3.37274 -0.01511,0.1009 -0.0022,0.1931 -0.0086,0.28961 0.33231,1.29691 1.10141,2.97113 2.84375,2.97113 2.83062,0 3.10054,0.8119 2.96142,1.88722 -0.07609,0.6429 -1.54301,1.07523 -3.16734,0.71312 -0.84431,-0.1053 -1.73791,-0.41031 -2.50284,-1.02691 -0.99009,-0.78341 -2.08731,-2.29314 -1.72941,-5.04267 0.26991,-2.07583 1.52582,-3.76774 3.44824,-4.63886 2.25185,-1.02262 4.97878,-0.71102 7.3028,0.83381 3.33235,2.22291 4.98806,7.39938 3.77585,11.78816 -1.0351,3.77864 -3.96235,6.06517 -8.02411,6.27367 z"
                 style="fill:#000000;fill-opacity:1;fill-rule:nonzero;stroke:#000000;stroke-width:0.3985;stroke-linecap:butt;stroke-linejoin:miter;stroke-miterlimit:10;stroke-dasharray:none;stroke-opacity:1"
                 id="path30" /><path
                 d="m 121.22285,12.86545 c 0.37061,0.2063 0.7865,0.55301 1.2258,1.08623 2.57575,4.66964 1.39493,8.7599 -1.38221,12.21163 -0.25499,1.56014 -0.1157,3.44295 1.98874,3.55706 3.63754,0.20401 3.84004,4.85165 -0.20061,6.06517 -3.13614,0.94142 -5.16107,-2.37432 -4.51377,-6.82448 -4.31825,3.77216 -10.12123,6.56119 -13.47708,8.242 -6.87957,3.43854 -8.8994,10.31133 -6.07086,12.53197 2.83504,2.22513 6.47159,-1.41312 6.47159,-1.41312 5.05725,11.72443 -10.31154,12.93787 -13.14027,5.66146 -3.84237,-11.32514 11.93174,-19.00533 15.7697,-22.44167 1.00921,-5.25767 1.61462,-6.4668 9.09672,-8.28592 7.48099,-1.82573 4.87956,-7.68899 2.62712,-8.09501 -0.80562,-2.01882 -6.67088,-4.84735 -8.48581,2.63545 -1.82371,7.48059 -3.03874,8.084 -8.29311,9.09782 -3.43723,3.84014 -11.12193,19.60874 -22.44297,15.76419 -7.2827,-2.82633 -6.06661,-18.19114 5.66406,-13.14196 0,0 -3.64116,3.64485 -1.4147,6.46897 2.22223,2.83504 9.09691,0.81192 12.53195,-6.06086 1.67581,-3.35517 4.46896,-9.16362 8.2437,-13.48209 -4.45514,0.65171 -7.76801,-1.3802 -6.82929,-4.51153 1.21483,-4.04427 5.86287,-3.84236 6.06768,-0.20192 0.1145,2.10873 1.99372,2.24923 3.56034,1.99243 3.45237,-2.78244 7.5409,-3.96295 12.20806,-1.38463 0.34102,0.1909 0.60472,0.36871 0.79522,0.52881 z"
                 style="fill:#000000;fill-opacity:1;fill-rule:nonzero;stroke:#000000;stroke-width:0.3985;stroke-linecap:butt;stroke-linejoin:miter;stroke-miterlimit:10;stroke-dasharray:none;stroke-opacity:1"
                 id="path32" /></g></g></g></g></g></g></svg>
