<?xml version="1.0" encoding="UTF-8" standalone="no"?>
<svg
   xmlns:dc="http://purl.org/dc/elements/1.1/"
   xmlns:cc="http://creativecommons.org/ns#"
   xmlns:rdf="http://www.w3.org/1999/02/22-rdf-syntax-ns#"
   xmlns:svg="http://www.w3.org/2000/svg"
   xmlns="http://www.w3.org/2000/svg"
   xmlns:sodipodi="http://sodipodi.sourceforge.net/DTD/sodipodi-0.dtd"
   xmlns:inkscape="http://www.inkscape.org/namespaces/inkscape"
   version="1.1"
   id="svg2"
   xml:space="preserve"
   width="46.186668"
   height="42.866669"
   viewBox="0 0 46.186668 42.866669"
   sodipodi:docname="vectorian142.pdf"><metadata
     id="metadata8"><rdf:RDF><cc:Work
         rdf:about=""><dc:format>image/svg+xml</dc:format><dc:type
           rdf:resource="http://purl.org/dc/dcmitype/StillImage" /></cc:Work></rdf:RDF></metadata><defs
     id="defs6" /><sodipodi:namedview
     pagecolor="#ffffff"
     bordercolor="#666666"
     borderopacity="1"
     objecttolerance="10"
     gridtolerance="10"
     guidetolerance="10"
     inkscape:pageopacity="0"
     inkscape:pageshadow="2"
     inkscape:window-width="640"
     inkscape:window-height="480"
     id="namedview4" /><g
     id="g10"
     inkscape:groupmode="layer"
     inkscape:label="vectorian142"
     transform="matrix(1.3333333,0,0,-1.3333333,0,42.866667)"><g
       id="g12"
       transform="translate(72,-39.851)"><g
         id="g14"
         transform="translate(-70.385,40.936)"><g
           id="g16"><g
             id="g18"><path
               d="M 24.3737,6.16087 V 16.1671 c 0.30458,-1.04501 0.698,-2.29494 1.17612,-3.89316 0.6516,-2.19254 0.2896,-4.41914 -1.17612,-6.11307 M 20.89915,3.92735 c -0.0314,-0.01362 -0.0594,-0.0205 -0.08808,-0.03412 v 16.13982 h 1.26289 V 4.42595 c -0.3504,-0.1844 -0.7486,-0.3551 -1.17481,-0.4986 m -1.67132,16.1057 h 1.06341 V 3.71564 C 19.91084,3.57224 19.55774,3.43562 19.22783,3.29903 Z M 15.25739,0.49179 c 0,0 -0.6933,1.37282 -2.27654,2.15833 -0.09831,0.04782 -0.20489,0.09559 -0.321,0.13659 h 0.1359 v 17.24634 h 1.11332 V 9.4393 h 0.51979 v 10.59375 h 1.06353 V 9.4393 h 0.5191 V 20.03305 H 17.0271 L 17.0858,2.20612 C 16.2888,1.687 15.7191,1.12698 15.25739,0.49179 M 9.6286,3.62003 v 16.41302 h 0.767 V 3.46294 h 0.51912 v 16.57011 h 1.36131 V 2.91652 C 11.55264,3.14194 10.61832,3.32632 9.6286,3.62003 M 5.26276,6.28378 c -2.27654,2.84822 -0.63462,7.85479 0,9.91752 0.4111,1.33871 0.79499,2.60912 0.9985,3.83175 H 6.33777 V 5.21825 C 5.95396,5.51877 5.59126,5.86716 5.26276,6.28378 M 8.2434,4.13914 V 20.03305 H 9.1095 V 3.78394 C 8.7994,3.88635 8.48799,4.00253 8.1765,4.13914 Z M 7.72429,20.03305 V 4.34404 C 7.42857,4.49425 7.13898,4.65825 6.85757,4.84265 v 15.1904 z m 10.98443,0 V 3.07362 C 18.27771,2.88232 17.89252,2.68422 17.5455,2.48624 V 20.03305 Z M 5.16234,25.82503 c 0,0 0.79233,0.78549 5.04687,-0.2937 4.25658,-1.07912 8.01732,-4.22107 14.15218,-1.07912 0,0 -0.59351,-1.96713 -0.69189,-4.02986 H 6.32076 c 0.25401,1.86462 0.0505,3.63363 -1.15842,5.40268 M 23.85458,17.72441 V 5.62126 C 23.4858,5.28656 23.06567,4.97235 22.59308,4.69914 v 15.33391 h 1.06682 c 0,-0.73772 0.19468,-2.30864 0.19468,-2.30864 m 2.48624,-6.82338 c -0.179,2.75943 -2.17822,5.59397 -2.27521,9.13202 v 0.3893 c 0.03759,2.09692 0.79099,4.61726 0.79099,4.61726 -6.92859,-3.53804 -11.67764,0.3961 -14.84479,1.0791 C 6.84528,26.80864 4.46974,26.22124 4.46974,26.22124 8.52689,20.22424 2.75461,16.00319 3.57843,9.3301 4.27232,3.72932 9.31921,3.23753 11.69334,2.74571 14.06956,2.2539 15.09547,0 15.09547,0 c 1.21993,1.3865 2.51903,2.10371 4.08866,2.78671 0.79431,0.34151 1.60782,0.66252 2.50465,1.03824 3.95944,1.67342 4.85005,4.02985 4.65204,7.07608"
               style="fill:#000000;fill-opacity:1;fill-rule:nonzero;stroke:#000000;stroke-width:0.3985;stroke-linecap:butt;stroke-linejoin:miter;stroke-miterlimit:10;stroke-dasharray:none;stroke-opacity:1"
               id="path20" /><path
               d="m 13.96986,7.36298 c -0.06079,2.07632 2.07842,2.50663 2.07842,-0.1503 0,0 -0.14819,-1.46852 -0.88989,-2.65013 0,0 -1.12632,0.72401 -1.18853,2.80043 m 15.43911,6.87118 c -0.2275,2.67746 -1.58391,3.73614 -2.27655,8.05281 -0.6926,4.32355 1.48965,7.3015 1.48965,7.3015 0,0 -2.57835,-2.88234 -2.57835,-7.3015 0,-4.41916 2.47453,-7.65671 2.37553,-12.47195 C 28.32014,5.00655 26.73692,2.65012 23.47139,1.3729 20.40805,0.17758 16.73611,2.0012 15.6378,3.68832 c -0.07242,0.11611 -0.24241,0.23221 -0.18371,0.33461 2.59821,4.54217 0.22401,5.7716 -0.44393,5.7716 -0.668,0 -1.8128,-0.35523 -1.7083,-2.43155 0.07589,-1.47532 1.362,-3.34005 1.362,-3.34005 -1.88041,-3.92735 -8.7086,-5.00643 -12.27185,1.07921 -3.56331,6.09259 0.79023,9.13202 1.38443,15.1221 0.5943,5.99018 -3.51345,8.13481 -3.51345,8.13481 0,0 3.39054,-2.65693 2.12902,-7.81379 C 1.1304,15.38849 -1.6146,12.59496 1.2787,5.96277 4.17265,-0.6694 12.73366,-1.086 15.05998,3.72932 c 0,0 1.13722,-2.11062 4.40276,-2.92332 3.26623,-0.81279 5.54277,0.61472 6.53108,1.47531 3.68555,3.20334 3.71155,8.46942 3.41515,11.95285"
               style="fill:#000000;fill-opacity:1;fill-rule:nonzero;stroke:#000000;stroke-width:0.3985;stroke-linecap:butt;stroke-linejoin:miter;stroke-miterlimit:10;stroke-dasharray:none;stroke-opacity:1"
               id="path22" /><path
               d="m 8.82469,23.72139 0.3012,-0.9221 h 0.97883 L 9.313,22.23238 9.61562,21.31026 8.82469,21.87718 8.0338,21.31026 8.33559,22.23238 7.54398,22.79929 H 8.5228 Z"
               style="fill:#000000;fill-opacity:1;fill-rule:nonzero;stroke:#000000;stroke-width:0.3985;stroke-linecap:butt;stroke-linejoin:miter;stroke-miterlimit:10;stroke-dasharray:none;stroke-opacity:1"
               id="path24" /><path
               d="m 11.79854,23.72139 0.30189,-0.9221 h 0.97953 l -0.79232,-0.56691 0.30251,-0.92212 -0.79161,0.56692 -0.79022,-0.56692 0.30261,0.92212 -0.79231,0.56691 h 0.97871 z"
               style="fill:#000000;fill-opacity:1;fill-rule:nonzero;stroke:#000000;stroke-width:0.3985;stroke-linecap:butt;stroke-linejoin:miter;stroke-miterlimit:10;stroke-dasharray:none;stroke-opacity:1"
               id="path26" /><path
               d="m 14.47057,23.72139 0.30191,-0.9221 h 0.97871 l -0.79091,-0.56691 0.3019,-0.92212 -0.79161,0.56692 -0.7896,-0.56692 0.30049,0.92212 -0.79091,0.56691 h 0.97812 z"
               style="fill:#000000;fill-opacity:1;fill-rule:nonzero;stroke:#000000;stroke-width:0.3985;stroke-linecap:butt;stroke-linejoin:miter;stroke-miterlimit:10;stroke-dasharray:none;stroke-opacity:1"
               id="path28" /><path
               d="m 21.98717,23.72139 0.30191,-0.9221 h 0.9774 l -0.79091,-0.56691 0.30191,-0.92212 -0.79031,0.56692 -0.79232,-0.56692 0.30262,0.92212 -0.79163,0.56691 h 0.97884 z"
               style="fill:#000000;fill-opacity:1;fill-rule:nonzero;stroke:#000000;stroke-width:0.3985;stroke-linecap:butt;stroke-linejoin:miter;stroke-miterlimit:10;stroke-dasharray:none;stroke-opacity:1"
               id="path30" /><path
               d="m 19.41293,23.72139 0.3012,-0.9221 h 0.98011 l -0.79229,-0.56691 0.30259,-0.92212 -0.79161,0.56692 -0.7903,-0.56692 0.3019,0.92212 -0.7916,0.56691 h 0.97809 z"
               style="fill:#000000;fill-opacity:1;fill-rule:nonzero;stroke:#000000;stroke-width:0.3985;stroke-linecap:butt;stroke-linejoin:miter;stroke-miterlimit:10;stroke-dasharray:none;stroke-opacity:1"
               id="path32" /><path
               d="m 17.13231,23.72139 0.30191,-0.9221 h 0.9774 l -0.79032,-0.56691 0.30122,-0.92212 -0.79021,0.56692 -0.79231,-0.56692 0.30261,0.92212 -0.79173,0.56691 h 0.97883 z"
               style="fill:#000000;fill-opacity:1;fill-rule:nonzero;stroke:#000000;stroke-width:0.3985;stroke-linecap:butt;stroke-linejoin:miter;stroke-miterlimit:10;stroke-dasharray:none;stroke-opacity:1"
               id="path34" /><path
               d="m 0.26228,28.35905 c 0,0 3.42745,1.72121 8.27072,1.32512 6.00658,-0.4918 12.80256,-5.11589 20.28516,0.4917 0,0 -3.05383,-3.85905 -8.66492,-4.03665 -6.30218,-0.198 -11.02873,4.92468 -19.89096,2.21983"
               style="fill:#000000;fill-opacity:1;fill-rule:nonzero;stroke:#000000;stroke-width:0.3985;stroke-linecap:butt;stroke-linejoin:miter;stroke-miterlimit:10;stroke-dasharray:none;stroke-opacity:1"
               id="path36" /></g></g></g></g></g></svg>
