<?xml version="1.0" encoding="UTF-8" standalone="no"?>
<svg
   xmlns:dc="http://purl.org/dc/elements/1.1/"
   xmlns:cc="http://creativecommons.org/ns#"
   xmlns:rdf="http://www.w3.org/1999/02/22-rdf-syntax-ns#"
   xmlns:svg="http://www.w3.org/2000/svg"
   xmlns="http://www.w3.org/2000/svg"
   xmlns:sodipodi="http://sodipodi.sourceforge.net/DTD/sodipodi-0.dtd"
   xmlns:inkscape="http://www.inkscape.org/namespaces/inkscape"
   version="1.1"
   id="svg2"
   xml:space="preserve"
   width="51.093334"
   height="22.746668"
   viewBox="0 0 51.093334 22.746668"
   sodipodi:docname="vectorian154.pdf"><metadata
     id="metadata8"><rdf:RDF><cc:Work
         rdf:about=""><dc:format>image/svg+xml</dc:format><dc:type
           rdf:resource="http://purl.org/dc/dcmitype/StillImage" /></cc:Work></rdf:RDF></metadata><defs
     id="defs6" /><sodipodi:namedview
     pagecolor="#ffffff"
     bordercolor="#666666"
     borderopacity="1"
     objecttolerance="10"
     gridtolerance="10"
     guidetolerance="10"
     inkscape:pageopacity="0"
     inkscape:pageshadow="2"
     inkscape:window-width="640"
     inkscape:window-height="480"
     id="namedview4" /><g
     id="g10"
     inkscape:groupmode="layer"
     inkscape:label="vectorian154"
     transform="matrix(1.3333333,0,0,-1.3333333,0,22.746667)"><g
       id="g12"
       transform="translate(72,-54.938)"><g
         id="g14"
         transform="translate(-71.543,55.098)"><g
           id="g16"><g
             id="g18"><path
               d="m 18.45903,12.57193 c 0.0437,-0.44399 -1.06142,-0.49179 -1.06142,-0.49179 0.04511,0.53279 1.01702,0.92891 1.06142,0.49179 M 18.1045,2.84573 C 17.4871,2.36072 15.05759,2.57932 15.05759,2.57932 c 2.82562,1.85783 3.66644,0.75131 3.04691,0.26641 m -2.03272,4.11174 c 0.75072,0.04099 1.15024,-0.4439 0.26642,-1.01771 -0.88451,-0.57372 -2.82833,-0.3551 -2.82833,-0.3551 0.4856,0.75132 1.81131,1.32502 2.56191,1.37281 M 15.09987,9.6486 c -0.265,-0.6625 -3.27164,-0.5259 -3.27164,-0.5259 1.19592,1.41383 3.53665,1.19522 3.27164,0.5259 M 1.92921,12.25774 c 0.92891,0.04782 3.80166,-0.1298 6.41018,-0.3483 2.60563,-0.2254 7.82121,-0.44402 8.26381,-0.44402 0.38592,0 0.401,0.1025 0.39752,0.1229 0,0.0069 -6.3e-4,0.0069 -6.3e-4,0.0069 0,0 6.3e-4,0 6.3e-4,-0.0069 0.04579,-0.2117 0.15508,-3.08722 3.31402,-3.57213 3.18296,-0.48502 5.08168,0.1776 5.78868,1.76901 0.70832,1.59142 -1.10382,2.78673 -1.76702,3.04625 -0.66251,0.2664 -0.97062,0.2664 -0.97062,0.2664 0,0 3.04775,-1.18841 2.56203,-3.00523 -0.4863,-1.81002 -2.74022,-1.94664 -5.65747,-1.36613 -2.91644,0.57382 -3.09204,2.95755 -3.09204,2.95755 1.85583,0.17759 1.97125,1.28399 1.05943,1.28399 -0.84012,0 -1.05943,-0.75129 -1.05943,-0.75129 -2.21022,-0.0888 -3.36044,1.68023 -3.36044,1.68023 0.70691,0.75139 0.17761,1.14751 -0.265,0.75139 -0.44191,-0.403 -0.13179,-0.75139 -0.13179,-0.75139 -0.88523,-1.10641 -4.86107,-0.97671 -4.55169,0.57379 0.30872,1.54363 3.66646,1.59144 5.96549,1.54363 2.29774,-0.041 6.36439,-1.14752 9.72284,-2.29494 3.35913,-1.14752 5.03796,-1.32512 5.03796,-1.32512 -0.6181,-1.32501 -0.13182,-1.98761 -0.13182,-1.98761 0,0 -1.3701,-0.75812 -1.2827,-2.30174 0.08881,-1.54361 0.97191,-1.8988 0.97191,-1.8988 C 28.22556,5.18846 28.88875,3.99315 28.88875,3.99315 24.2046,3.20084 20.27034,0.01799 17.39761,0.1956 14.52477,0.37318 14.96808,2.14221 14.96808,2.14221 15.94,2.0056 16.8676,1.8758 18.06212,2.49052 c 1.14271,0.59421 0.14889,1.68711 -1.06203,1.28411 -0.92831,-0.30741 -2.1215,-1.10651 -2.1215,-1.10651 -1.94454,0.66251 -1.58934,2.34273 -1.58934,2.34273 1.32502,-0.2663 2.51753,-0.041 3.40075,0.71042 0.88582,0.75129 0.3989,1.72122 -1.10312,1.36601 -1.50402,-0.3483 -2.25462,-1.36601 -2.25462,-1.36601 0,0 -1.28142,0 -2.12152,0.8401 -0.79642,0.79231 -0.08742,1.81003 -0.08742,1.81003 0,0 1.81073,0.2663 3.22525,0.6147 1.41593,0.3551 0.88312,1.0177 0.88312,1.0177 C 13.59865,11.19904 11.34322,9.0749 11.34322,9.0749 2.90182,8.6377 0.51599,10.40672 0.3828,11.11023 c -0.13251,0.7104 0.6195,1.10651 1.54641,1.14751 m 11.88865,2.34274 c 0.265,-0.04089 -0.17621,-0.66251 -0.17621,-0.66251 -0.17688,0.2186 -0.08879,0.71039 0.17621,0.66251 M 29.41875,3.81563 c 0.39822,0.0478 3.40286,0.88792 4.11117,-0.30741 0.7069,-1.19531 -0.44261,-1.54362 -1.90153,-1.23631 -1.459,0.30741 -2.20964,1.54372 -2.20964,1.54372 m 0.30941,2.78674 c 0.66391,0.71033 2.78536,1.32503 2.96164,0.5327 0.17691,-0.79909 -0.3982,-1.01771 -1.01702,-1.01771 -0.6182,0 -1.94462,0.48501 -1.94462,0.48501 m 0.35453,3.88635 c 0,0 1.59009,0.62151 2.38581,0.3142 1.23963,-0.485 0.5737,-1.76902 -0.5751,-1.59143 -1.09352,0.16392 -1.81071,1.27723 -1.81071,1.27723 m -0.04512,2.12421 c 0.97201,1.72124 3.97656,2.12413 4.02166,1.23624 0.04439,-0.88114 -4.02166,-1.23624 -4.02166,-1.23624 M 10.94502,8.46011 c 0,0 -0.72392,-0.99722 -0.1318,-2.12413 0.4413,-0.84013 2.34283,-1.27733 2.34283,-1.27733 0,0 -0.83951,-1.72802 1.59073,-2.78674 0,0 -0.44191,-1.98753 2.12082,-2.21292 2.56334,-0.21858 4.19916,0.17761 6.4081,1.06551 2.2116,0.8811 5.23056,2.47253 5.84866,2.56134 0,0 0.85591,-1.63924 2.76904,-1.98763 1.94522,-0.35519 2.56403,0.7513 2.03263,1.72122 -0.52932,0.97672 -2.34133,1.10651 -4.77297,0.57372 0,0 -0.61742,1.10651 0.22128,2.16521 0,0 0.79505,-0.30739 1.50206,-0.3962 0.7083,-0.0887 1.769,-0.0887 2.1221,0.6626 0.35311,0.75131 -0.6632,2.16514 -3.44793,0.31422 0,0 -1.06002,0.4849 -1.10442,1.72113 -0.0437,1.2363 1.06142,1.76909 1.06142,1.76909 0,0 0.39682,-1.1543 1.98833,-1.32509 1.59141,-0.17762 1.90081,0.6147 1.90081,1.09969 0,0.48492 -0.70691,1.68024 -3.44723,0.66252 0,0 -0.53073,0.92891 0,1.68024 0,0 1.0601,-0.30742 2.47531,0.04777 1.41383,0.35523 2.12074,1.18843 1.85574,1.68022 -0.2664,0.48504 -1.26492,0.85383 -2.87275,0.12981 -1.37021,-0.6216 -1.76841,-1.55043 -1.76841,-1.55043 0,0 -0.6618,-0.17079 -4.68345,1.15424 -4.02236,1.32512 -5.25928,2.38383 -8.48453,2.69113 -3.22864,0.3142 -4.72925,0.403 -6.45177,-0.52591 C 8.295,15.04448 8.33939,13.67155 9.7955,13.18665 c 1.45902,-0.4849 2.69736,-0.1776 3.80315,0.4849 0,0 0.52933,-1.63241 3.13705,-1.89871 0,0 0.26439,-0.1298 -0.6201,-0.1298 -0.88391,0 -5.30238,0.30729 -9.05832,0.6147 -3.75595,0.31419 -6.54129,0.57371 -7.0269,-0.9699 C -0.4566,9.7442 4.98024,7.79759 10.94502,8.46011"
               style="fill:#000000;fill-opacity:1;fill-rule:nonzero;stroke:#000000;stroke-width:0.3985;stroke-linecap:butt;stroke-linejoin:miter;stroke-miterlimit:10;stroke-dasharray:none;stroke-opacity:1"
               id="path20" /></g></g></g></g></g></svg>
