<?xml version="1.0" encoding="UTF-8" standalone="no"?>
<svg
   xmlns:dc="http://purl.org/dc/elements/1.1/"
   xmlns:cc="http://creativecommons.org/ns#"
   xmlns:rdf="http://www.w3.org/1999/02/22-rdf-syntax-ns#"
   xmlns:svg="http://www.w3.org/2000/svg"
   xmlns="http://www.w3.org/2000/svg"
   xmlns:sodipodi="http://sodipodi.sourceforge.net/DTD/sodipodi-0.dtd"
   xmlns:inkscape="http://www.inkscape.org/namespaces/inkscape"
   version="1.1"
   id="svg2"
   xml:space="preserve"
   width="45.773335"
   height="62.279999"
   viewBox="0 0 45.773335 62.279999"
   sodipodi:docname="vectorian192.pdf"><metadata
     id="metadata8"><rdf:RDF><cc:Work
         rdf:about=""><dc:format>image/svg+xml</dc:format><dc:type
           rdf:resource="http://purl.org/dc/dcmitype/StillImage" /></cc:Work></rdf:RDF></metadata><defs
     id="defs6" /><sodipodi:namedview
     pagecolor="#ffffff"
     bordercolor="#666666"
     borderopacity="1"
     objecttolerance="10"
     gridtolerance="10"
     guidetolerance="10"
     inkscape:pageopacity="0"
     inkscape:pageshadow="2"
     inkscape:window-width="640"
     inkscape:window-height="480"
     id="namedview4" /><g
     id="g10"
     inkscape:groupmode="layer"
     inkscape:label="vectorian192"
     transform="matrix(1.3333333,0,0,-1.3333333,0,62.28)"><g
       id="g12"
       transform="translate(72,-25.294)"><g
         id="g14"
         transform="translate(-71.972,26.724)"><g
           id="g16"><g
             id="g18"><path
               d="m 21.66196,1.83632 c 0,0 0.71241,0.3544 0.64341,0.84349 -0.0663,0.489 -0.7431,0.41591 -0.82991,0.0621 -0.0881,-0.3531 0.1865,-0.90559 0.1865,-0.90559 m 2.42132,7.28029 C 23.60379,8.77919 23.9016,8.2376 24.433,8.27509 c 0.52931,0.03621 1.0457,0.86541 1.0457,0.86541 0,0 -0.9159,0.3121 -1.39542,-0.02389 m -1.94462,7.51669 c -0.32439,-0.25552 -0.15699,-0.89821 0.57312,-1.04782 0.72949,-0.1496 1.38382,0.6981 1.38382,0.6981 -0.31221,0.25612 -1.63242,0.60442 -1.95694,0.34972 m -1.10991,7.85271 c -0.5614,-0.13731 -0.8291,-0.93444 -0.12429,-1.09631 0.70292,-0.16251 1.65842,0.9405 1.65842,0.9405 0,0 -0.97191,0.2924 -1.53413,0.15581 m -0.46991,6.18817 c -3.56734,0.81692 -4.44374,4.68616 -4.44374,4.68616 0,0 -3.50725,1.81341 -5.56247,3.02314 C 8.4967,39.59169 7.40868,41.37642 7.40868,41.37642 2.93423,37.35547 4.99005,29.34367 5.80624,24.2954 6.62248,19.24783 6.10886,11.35693 4.50655,7.30658 2.90341,3.25623 1.06,1.2304 1.06,1.2304 4.47714,3.10391 8.82928,2.16681 13.78677,1.0795 c 4.95806,-1.08809 7.70848,0.63382 7.70848,0.63382 -0.99781,1.75471 0.84632,1.84482 1.05872,1.14949 0.21111,-0.696 -0.75742,-1.2096 -0.75742,-1.2096 3.23615,-3.08311 6.0481,-0.51361 6.31929,2.90213 0.27251,3.41656 -2.44934,4.47456 -2.44934,4.47456 -0.9364,-1.66253 -2.4793,-0.78552 -1.9643,0.03 0.5143,0.81623 1.90492,0.3033 1.90492,0.3033 1.54022,3.74775 -1.42144,6.64989 -1.42144,6.64989 -1.08731,-1.4214 -2.84202,-0.36201 -2.35911,0.57441 0.48491,0.93711 2.35911,-0.0908 2.35911,-0.0908 1.87424,4.83716 -1.4206,7.6184 -1.4206,7.6184 -1.2397,-1.2991 -2.60033,-1.17963 -2.44864,-0.06151 0.15091,1.11882 2.32704,0.51431 2.32704,0.51431 1.39061,4.14185 -1.1181,9.00911 -4.20195,12.72815 -3.08315,3.71767 -7.28511,6.6806 -9.25025,6.8302 -1.96501,0.153 -2.53872,-0.84491 -0.96708,-2.65893 1.57092,-1.81342 5.68335,-3.83994 5.68335,-3.83994 -1.2396,1.8748 -3.53662,3.74904 -3.53662,3.74904 2.96363,-1.90424 4.14114,-4.14186 4.14114,-4.14186 3.89933,-2.14601 6.1964,-5.01816 6.1964,-5.01816 -1.78334,1.60173 -4.14118,2.75124 -4.14118,2.75124 0.90771,-3.23415 3.99155,-4.29346 3.99155,-4.29346 M 4.11372,7.7 c 1.57033,4.29214 1.35924,9.55342 1.26842,12.69674 -0.09088,3.14326 -1.78271,10.27814 -1.20831,14.9937 0.57382,4.71626 3.02304,6.19768 3.02304,6.19768 -0.96851,1.45012 -0.09149,2.29704 -0.09149,2.29704 1.30121,1.39131 4.86796,-0.05942 7.6499,-2.44793 2.78053,-2.38854 6.04466,-5.89519 7.8889,-10.15793 1.84482,-4.26276 0.33189,-6.80219 0.33189,-6.80219 4.14116,-3.71766 1.42142,-8.10061 1.42142,-8.10061 C 28.56865,12.41565 25.8789,9.2716 25.8789,9.2716 30.98798,6.00676 29.05367,1.3821 26.30173,0.29199 23.5512,-0.7961 21.61685,1.503 21.61685,1.503 17.50581,-1.2482 12.24515,0.74748 7.16687,1.533 2.08792,2.31851 -0.02809,0.2325 -0.02809,0.2325 c 0,0 2.5695,3.17543 4.14181,7.4675"
               style="fill:#000000;fill-opacity:1;fill-rule:nonzero;stroke:#000000;stroke-width:0.3985;stroke-linecap:butt;stroke-linejoin:miter;stroke-miterlimit:10;stroke-dasharray:none;stroke-opacity:1"
               id="path20" /><path
               d="m 21.99457,4.93515 c 0,0 1.22542,0.22951 1.3777,-0.2541 0.15301,-0.4856 -0.45899,-0.7663 -1.3777,0.2541 M 8.5479,32.0341 c 0,0 1.6844,2.50054 3.31683,2.42473 1.63304,-0.07721 2.29623,-2.80793 1.55652,-4.61937 -0.741,-1.81202 -3.95464,-2.29561 -4.87335,2.19464 M 8.2918,16.44409 c 0,0 0.2561,1.55593 1.2779,1.83594 1.01982,0.2807 1.35033,-1.04642 0.94332,-1.58124 C 10.10382,16.1627 9.18591,16.0855 8.2918,16.44409 M 18.51053,3.34093 C 17.3138,2.50021 15.40959,2.67773 12.30936,6.08806 9.20981,9.49771 8.23439,13.88136 8.2788,16.09569 c 0,0 1.2909,-0.46921 2.18162,0.11751 0.89401,0.5874 0.63791,2.04153 -0.22812,2.42402 -0.8675,0.38321 -1.7615,-0.17819 -2.19591,-0.94391 0,0 -0.81561,2.16933 -0.71312,6.71069 0.10181,4.54145 0.99453,6.30228 0.99453,6.30228 0,0 1.42881,-2.72934 3.47103,-2.62764 2.04093,0.10181 2.95954,2.60234 2.29564,4.77167 -0.66322,2.16924 -2.60504,3.67944 -5.71689,-0.36681 0,0 -0.30868,2.39123 1.81754,3.45476 2.12424,1.0614 4.47176,-1.10794 5.57898,-3.63306 1.1078,-2.52372 0.6208,-4.87066 0.44258,-8.59101 -0.17688,-3.71974 0.31012,-11.51514 5.18208,-18.55704 0,0 -1.68432,-0.974 -2.87823,-1.81622 m 3.23202,1.81752 c 0,0 -3.01072,4.29556 -4.07423,10.49535 -1.06342,6.20046 -0.61952,10.09782 -0.57582,12.79916 0.0444,2.70202 -1.41722,6.73048 -4.60486,8.016 -3.18834,1.28331 -5.35966,-2.30323 -4.29625,-4.65077 0,0 -1.94931,-4.11854 -1.68292,-8.72419 0.2663,-4.60569 1.3728,-5.62398 1.3728,-5.62398 0,0 -1.0197,-3.14466 1.32854,-7.6178 2.34683,-4.47307 5.66905,-6.6875 7.08569,-7.26331 1.4172,-0.57511 2.56883,0.57581 3.58725,1.24112 1.0197,0.66391 1.68291,1.06212 1.68291,1.06212 0,0 1.19601,-1.15022 1.81543,-0.88452 0.62021,0.26501 0.79782,1.59413 -1.63854,1.15082"
               style="fill:#000000;fill-opacity:1;fill-rule:nonzero;stroke:#000000;stroke-width:0.3985;stroke-linecap:butt;stroke-linejoin:miter;stroke-miterlimit:10;stroke-dasharray:none;stroke-opacity:1"
               id="path22" /></g></g></g></g></g></svg>
