<?xml version="1.0" encoding="UTF-8" standalone="no"?>
<svg
   xmlns:dc="http://purl.org/dc/elements/1.1/"
   xmlns:cc="http://creativecommons.org/ns#"
   xmlns:rdf="http://www.w3.org/1999/02/22-rdf-syntax-ns#"
   xmlns:svg="http://www.w3.org/2000/svg"
   xmlns="http://www.w3.org/2000/svg"
   xmlns:sodipodi="http://sodipodi.sourceforge.net/DTD/sodipodi-0.dtd"
   xmlns:inkscape="http://www.inkscape.org/namespaces/inkscape"
   version="1.1"
   id="svg2"
   xml:space="preserve"
   width="57.601562"
   height="38.365143"
   viewBox="0 0 57.601562 38.365143"
   sodipodi:docname="vectorian111.pdf"><metadata
     id="metadata8"><rdf:RDF><cc:Work
         rdf:about=""><dc:format>image/svg+xml</dc:format><dc:type
           rdf:resource="http://purl.org/dc/dcmitype/StillImage" /></cc:Work></rdf:RDF></metadata><defs
     id="defs6" /><sodipodi:namedview
     pagecolor="#ffffff"
     bordercolor="#666666"
     borderopacity="1"
     objecttolerance="10"
     gridtolerance="10"
     guidetolerance="10"
     inkscape:pageopacity="0"
     inkscape:pageshadow="2"
     inkscape:window-width="640"
     inkscape:window-height="480"
     id="namedview4" /><g
     id="g10"
     inkscape:groupmode="layer"
     inkscape:label="vectorian111"
     transform="matrix(1.3333333,0,0,-1.3333333,-0.01770071,38.099478)"><g
       id="g12"
       transform="translate(72,-42.164)"><g
         id="g14"
         transform="translate(-71.787,42.164)"><g
           id="g16"><g
             id="g18"><path
               d="m 4.73494,8.12389 c 0,0 1.92004,-0.07379 2.73276,0.44391 C 8.27979,9.08421 7.9103,9.74881 7.394,9.60121 6.87688,9.4537 7.09818,8.78839 7.09818,8.78839 L 6.50737,8.5678 c 0,0 -0.14821,0.95971 0.66461,1.40222 C 7.98479,10.41331 8.87071,9.60121 8.35359,8.7154 7.83658,7.82878 6.28606,7.68127 4.73494,8.12389"
               style="fill:#000000;fill-opacity:1;fill-rule:nonzero;stroke:#000000;stroke-width:0.3985;stroke-linecap:butt;stroke-linejoin:miter;stroke-miterlimit:10;stroke-dasharray:none;stroke-opacity:1"
               id="path20" /><path
               d="m 8.8952,12.65364 c 0,0 -4.28256,2.41245 -3.44644,7.6806 0,0 2.55994,-0.54159 3.39795,-3.10094 0.83609,-2.56204 0.39279,-4.18624 0.39279,-4.18624 0,0 0.9364,2.36333 0.04979,5.46626 0,0 1.92003,2.51073 7.08981,5.56317 3.96424,2.33933 13.88378,5.75998 20.38346,1.42682 0,0 -0.44332,0.98491 -3.34885,1.96993 -2.90353,0.98491 -8.86152,0.93571 -14.37558,-1.67342 -5.51478,-2.61055 -9.158,-5.71077 -9.99533,-7.04129 -0.83671,-1.32982 -0.19609,-0.1974 -0.19609,-0.1974 0,0 -1.52653,2.01831 -3.69237,2.06953 0,0 -0.78891,-2.11734 0.04851,-4.57898 0.83672,-2.46232 3.69235,-3.39804 3.69235,-3.39804"
               style="fill:#000000;fill-opacity:1;fill-rule:nonzero;stroke:#000000;stroke-width:0.3985;stroke-linecap:butt;stroke-linejoin:miter;stroke-miterlimit:10;stroke-dasharray:none;stroke-opacity:1"
               id="path22" /><path
               d="m 39.16269,23.6455 v -0.20551 l 0.54711,0.20551 z m -0.07381,-0.3107 v 0.38448 h 0.8244 l 0.01302,-0.071 z"
               style="fill:#000000;fill-opacity:1;fill-rule:nonzero;stroke:#000000;stroke-width:0.3985;stroke-linecap:butt;stroke-linejoin:miter;stroke-miterlimit:10;stroke-dasharray:none;stroke-opacity:1"
               id="path24" /><path
               d="m 41.29231,23.9775 c 0,0 1.0334,0.78681 0.88593,2.56133 -0.14751,1.77101 -2.60914,1.96914 -2.95406,0.98281 -0.34489,-0.98281 -0.04989,-1.96914 0.83733,-1.91852 0.88591,0.04851 0.78759,0.98422 0.29439,0.93571 0,0 -0.49172,0.14681 -0.0976,0.49179 0.3934,0.34491 1.18163,0 0.98493,-0.9358 -0.19741,-0.93642 -2.01905,-1.33051 -2.41245,-0.1482 -0.39481,1.1816 -0.0499,2.11672 1.13173,2.36322 1.18161,0.24662 2.55452,-0.19259 2.65903,-1.6242 0.14749,-2.01833 -1.32923,-2.70814 -1.32923,-2.70814"
               style="fill:#000000;fill-opacity:1;fill-rule:nonzero;stroke:#000000;stroke-width:0.3985;stroke-linecap:butt;stroke-linejoin:miter;stroke-miterlimit:10;stroke-dasharray:none;stroke-opacity:1"
               id="path26" /><path
               d="m 36.17105,6.69637 c 0,0 0.39411,0.34491 1.03481,0.68981 0.63931,0.3436 2.11664,1.23081 2.90414,2.41173 0.7876,1.18161 0.5908,2.31482 0.5908,2.31482 0,0 -1.38581,-0.72061 -3.20065,-1.52661 -2.21431,-0.98491 -4.03663,0.04851 -4.03663,0.04851 0,0 1.62492,1.87152 2.21572,2.70823 0,0 1.62491,-0.73841 3.49505,0.68911 0,0 0.44331,-0.04911 0.83741,0.0991 0.3934,0.14679 1.67412,1.42751 2.11664,-0.14821 0.4433,-1.5758 0.29579,-6.84259 -5.95729,-7.28649 M 35.43333,16.9369 c 0.59023,1.03411 2.51014,0.69051 0.04851,-2.75674 0,0 -0.63991,1.72264 -0.04851,2.75674 M 31.6167,6.49898 C 30.58328,5.31735 29.32716,4.65274 28.66257,4.57895 c -0.66454,-0.0744 -1.62426,-0.29501 -0.95961,0.222 0.66459,0.5164 1.77171,1.10721 2.1412,1.32982 0.37023,0.22131 0.96102,1.32852 1.40364,2.36263 0.4433,1.03411 0.4433,1.32983 1.6256,1.55042 0,0 -0.22258,-2.36325 -1.2567,-3.54484 M 0.6232,17.33101 c 0,0 2.26482,0.34421 4.03795,-3.74165 0,0 -0.63991,-0.2465 -0.68982,-1.67402 0,0 -3.00325,0.64002 -3.34813,5.41567 m 18.26672,-4.62886 c -0.88661,0.68982 -0.04779,1.18162 0.59012,1.1324 0.6407,-0.04848 1.52722,-0.78749 1.72392,-1.27919 0,0 -1.42822,-0.54172 -2.31404,0.14679 m 18.02014,9.40451 c 0,0 1.08332,-0.0492 1.23012,-0.739 0.14759,-0.68851 -0.5901,-0.98489 -1.0832,-0.5894 -0.49182,0.3934 -0.14692,1.3284 -0.14692,1.3284 m 5.46558,-7.62999 c -1.03482,1.18091 -2.02043,0.24521 -2.41385,0.04781 -0.39339,-0.19671 -0.6891,-0.14751 -0.6891,-0.14751 0,0 2.70814,2.60913 1.42811,6.44969 -1.28062,3.84065 -3.49494,4.28325 -3.49494,4.28325 1.47664,-0.98421 2.65764,-2.90413 2.95265,-4.77567 0.29651,-1.87013 -0.83601,-6.30227 -2.11662,-6.59657 -1.27933,-0.29651 -2.31275,-0.04991 -2.31275,-0.04991 0,0 0.98352,0.9835 1.27933,1.87082 0.29568,0.88652 0.14751,2.21572 -0.68991,2.31404 -0.83672,0.09839 -1.57433,-0.54161 -1.67273,-1.91994 -0.0997,-1.37901 0.73701,-2.11813 0.73701,-2.11813 -1.08261,-1.91921 -2.41102,-2.21501 -2.41102,-2.21501 -0.83742,0.2958 -2.31543,3.54495 -0.64142,7.04129 1.67483,3.49502 4.13634,3.44583 4.13634,3.44583 -1.0839,-1.1324 0.14762,-1.92061 1.08334,-1.96982 0.93509,-0.04849 1.5265,0.78822 1.18091,1.37901 -0.34421,0.59081 -1.47663,0.73902 -1.47663,0.73902 0.29572,0.5908 1.52652,1.27933 1.52652,1.27933 -1.2308,-0.14681 -2.11732,-1.18023 -2.11732,-1.18023 -3.98755,0.04851 -6.15477,-4.13705 -6.00717,-7.18948 0.14879,-3.05176 1.92062,-4.03806 1.92062,-4.03806 C 28.04784,7.92719 22.43477,8.5678 22.43477,8.5678 c 0.1967,1.96913 -0.68909,3.98756 -0.68909,3.98756 0,0 1.12761,0.6017 1.32909,2.06741 0.34493,2.51083 -2.16651,5.16988 -4.92325,4.28395 -2.75664,-0.88591 -3.49565,-2.70823 -3.15144,-5.12065 0.34491,-2.41173 2.51153,-3.66777 2.51153,-3.66777 0,0 0.01769,0.10101 0.04229,0.27321 -2.27172,1.51422 -2.58661,4.56398 -1.86461,6.20049 0.73901,1.67472 3.59475,2.85633 5.51467,1.42881 1.92074,-1.42881 1.82091,-4.72644 0.1482,-5.07206 0,0 -0.49311,0.98562 -1.77243,1.27992 -1.2806,0.29581 -1.47801,-1.08252 -1.0347,-1.77172 0.44321,-0.68922 1.67401,-0.83741 2.80713,-0.29512 0,0 0.78689,-1.42881 0.68921,-3.29893 0,0 -1.82773,-0.04651 -4.15616,1.32161 C 17.83052,9.93861 17.75882,9.69272 17.65912,9.4537 l -0.14751,0.6646 C 16.4037,7.90259 13.52335,5.76056 10.86513,5.68616 8.20609,5.61307 7.24577,7.6068 7.24577,7.6068 L 6.80246,7.53438 C 7.68898,6.05566 9.0182,5.53996 9.0182,5.53996 7.12277,5.07144 3.92285,3.02853 3.25754,2.65971 2.59302,2.28952 1.9284,2.88103 1.1907,3.54553 0.4517,4.20944 0.7468,4.57895 0.7468,4.57895 c 4.06195,3.61864 4.06195,7.82811 4.20947,8.64162 0.14818,0.8114 1.10779,0.95959 1.10779,0.95959 -0.81211,0 -1.18161,-0.36949 -1.18161,-0.36949 C 3.47954,18.16771 0.00848,18.09392 0.00848,18.09392 -0.21278,12.33336 3.70084,11.52054 3.70084,11.52054 3.72684,8.96121 1.36351,5.76056 0.6737,5.17044 -0.01608,4.57895 0.32878,4.18414 0.32878,4.18414 0.42648,3.05313 2.34712,2.01901 2.88802,2.06882 3.43033,2.11731 4.26703,2.70811 5.49786,3.39731 6.72868,4.08723 7.17268,3.88983 8.20609,4.33243 9.2395,4.77635 9.7326,5.07144 9.7326,5.07144 c 1.52593,-0.34489 3.54426,-0.14819 3.54426,-0.14819 0,0 -0.1476,-1.22952 -0.93511,-2.21514 C 11.55354,1.7239 9.93002,0.7383 9.4369,0.4931 c -0.49179,-0.24652 -1.9692,-0.29641 -1.9692,0 0,0.29508 0.19668,0.44258 0.19668,0.44258 0,0 2.26564,1.08333 2.85575,1.77243 0.59079,0.6892 0.7384,1.72403 0.7384,1.72403 L 10.76602,4.28394 C 10.47162,2.80794 8.1077,1.4275 7.51689,1.1816 6.92677,0.93568 6.82837,0.64 6.82837,0.64 7.17268,0 8.35359,0 8.35359,0 c 1.96984,0 3.05315,1.1324 3.98816,1.6741 0.93511,0.54091 2.21501,3.54555 2.21501,3.54555 l -0.4924,0.0977 c 3.54484,1.82292 3.49565,3.89045 3.49565,3.89045 0,0 0.69062,0.39341 1.18231,-0.04989 C 19.23485,8.7154 21.69647,7.97699 21.69647,7.97699 20.31874,3.20131 16.72401,1.379 15.54169,1.1324 14.36008,0.88658 13.76926,1.0839 13.76926,1.0839 c 4.72726,2.06753 5.56457,5.71148 5.51478,6.69567 -0.04919,0.98363 -0.9358,1.18164 -0.9358,1.18164 0,0 0.64,-2.16583 -0.93574,-4.57826 -1.57571,-2.41313 -4.47924,-3.44727 -4.47924,-3.44727 -0.39481,-0.39408 1.52521,-0.6891 1.52521,-0.6891 0,0 0.68911,-0.04989 3.84066,1.91924 3.15073,1.97052 4.03795,5.86036 4.03795,5.86036 4.47995,-0.59148 8.5166,1.08332 8.5166,1.08332 0,0 -0.78752,-2.51152 -1.72252,-2.90564 -0.93512,-0.39342 -1.87153,-1.08321 -2.16653,-1.57501 -0.29509,-0.49251 0.54161,-0.49251 0.54161,-0.49251 1.27933,-0.099 2.36252,0.19609 4.18486,1.77182 1.82091,1.57573 1.87082,4.33235 1.87082,4.33235 0,0 1.32851,-0.3429 3.34814,-0.19669 2.01832,0.14749 3.39734,1.57572 3.39734,1.57572 -0.099,-0.64002 -0.14889,-1.28063 -0.83801,-2.21503 -0.68851,-0.93571 -3.34824,-2.21573 -3.34824,-2.21573 -0.3435,-0.2957 -0.29431,-0.7875 1.08471,-0.8367 1.37902,-0.04922 3.00254,1.0341 4.08645,1.92002 1.08333,0.88581 2.11603,5.02227 1.08333,6.20457 M 17.88521,10.18451 c 0.4255,1.95622 -0.44809,3.99565 -0.44809,3.99565 0.41391,-1.24171 0.2124,-3.09674 0.11678,-3.78865 0.04992,-0.03419 0.10252,-0.06828 0.15501,-0.10111 0.05881,-0.03617 0.11751,-0.07109 0.1763,-0.10589"
               style="fill:#000000;fill-opacity:1;fill-rule:nonzero;stroke:#000000;stroke-width:0.3985;stroke-linecap:butt;stroke-linejoin:miter;stroke-miterlimit:10;stroke-dasharray:none;stroke-opacity:1"
               id="path28" /></g></g></g></g></g></svg>
