<?xml version="1.0" encoding="UTF-8" standalone="no"?>
<svg
   xmlns:dc="http://purl.org/dc/elements/1.1/"
   xmlns:cc="http://creativecommons.org/ns#"
   xmlns:rdf="http://www.w3.org/1999/02/22-rdf-syntax-ns#"
   xmlns:svg="http://www.w3.org/2000/svg"
   xmlns="http://www.w3.org/2000/svg"
   xmlns:sodipodi="http://sodipodi.sourceforge.net/DTD/sodipodi-0.dtd"
   xmlns:inkscape="http://www.inkscape.org/namespaces/inkscape"
   version="1.1"
   id="svg2"
   xml:space="preserve"
   width="66.573334"
   height="40.080002"
   viewBox="0 0 66.573334 40.080002"
   sodipodi:docname="vectorian166.pdf"><metadata
     id="metadata8"><rdf:RDF><cc:Work
         rdf:about=""><dc:format>image/svg+xml</dc:format><dc:type
           rdf:resource="http://purl.org/dc/dcmitype/StillImage" /></cc:Work></rdf:RDF></metadata><defs
     id="defs6" /><sodipodi:namedview
     pagecolor="#ffffff"
     bordercolor="#666666"
     borderopacity="1"
     objecttolerance="10"
     gridtolerance="10"
     guidetolerance="10"
     inkscape:pageopacity="0"
     inkscape:pageshadow="2"
     inkscape:window-width="640"
     inkscape:window-height="480"
     id="namedview4" /><g
     id="g10"
     inkscape:groupmode="layer"
     inkscape:label="vectorian166"
     transform="matrix(1.3333333,0,0,-1.3333333,0,40.08)"><g
       id="g12"
       transform="translate(72,-41.936)"><g
         id="g14"
         transform="translate(-71.337,42.338)"><g
           id="g16"><g
             id="g18"><path
               d="m 10.13612,18.71593 c -0.45282,1.69792 0.4529,2.23481 1.83872,1.32911 1.38582,-0.9029 3.48004,-3.22244 3.48004,-3.22244 0.82031,0.59421 0.5928,4.43956 -2.48962,7.15529 C 9.88141,26.69423 4.95885,28.41956 2.61061,28.39095 0.26309,28.36356 0.0937,27.93875 0.6879,25.47713 1.2814,23.01619 5.26967,18.29242 9.99413,15.71808 14.71858,13.14445 16.8407,15.15257 16.8407,15.15257 l -1.24452,1.04503 c -2.43293,-0.65022 -5.00716,0.823 -5.46006,2.51833 m 5.03527,-2.00812 c 0,0 -2.14943,2.12141 -3.22525,2.94243 -1.07442,0.81961 -1.72533,0.3948 -1.15912,-0.84902 0.5656,-1.24512 2.63103,-2.54692 4.38437,-2.09341 M 37.57857,7.696 c 0,0 -0.7451,-1.08943 -0.48691,-2.57976 0,0 1.74854,0.40231 2.63713,0.80252 0,0 -0.5451,-0.65841 -2.57983,-1.37561 0,0 1.17483,-3.20945 3.72526,-3.52575 2.55173,-0.31481 4.21355,3.72724 -3.29565,6.6786 m -20.43526,7.27898 -0.74522,-0.48562 c 0,0 2.00674,-2.12211 7.6246,-5.36035 5.61717,-3.23895 10.20294,-3.95477 12.52386,-4.07014 0,0 -0.25749,1.29021 0.68781,2.75122 0,0 -1.06,0.34351 -6.53449,1.43362 -5.47377,1.0894 -10.28833,3.32492 -13.55656,5.73127 m 0.20081,0.2302 C 22.15936,11.56534 28.46436,10.04703 31.9321,9.4452 35.40044,8.8435 37.49257,8.1823 37.49257,8.1823 38.72539,9.2724 40.4685,8.8435 40.4685,8.8435 43.16023,8.03 43.41365,4.83145 43.41365,4.83145 41.63641,10.51892 37.82787,7.9289 37.82787,7.9289 45.95248,4.72964 43.61725,-0.19629 40.26561,0.3624 36.91406,0.9204 36.60945,4.52675 36.60945,4.52675 29.09344,3.40933 19.54753,11.48203 19.54753,11.48203 17.82011,12.80365 16.19589,14.32677 16.19589,14.32677 7.36038,12.65135 1.8757,20.62286 0.6066,24.17871 c -1.26969,3.55304 -0.15232,4.16234 -0.15232,4.16234 5.99219,1.32092 11.73026,-3.35094 11.73026,-3.35094 5.78859,-4.82417 3.70606,-8.53093 3.70606,-8.53093 l 1.16801,-1.0655 c 1.87962,2.89325 -1.37082,7.5146 -1.37082,7.5146 4.04684,-4.73465 1.65633,-7.7031 1.65633,-7.7031"
               style="fill:#000000;fill-opacity:1;fill-rule:nonzero;stroke:#000000;stroke-width:0.3985;stroke-linecap:butt;stroke-linejoin:miter;stroke-miterlimit:10;stroke-dasharray:none;stroke-opacity:1"
               id="path20" /><path
               d="m 3.81613,5.41817 c 0,0 2.49515,2.86932 5.11446,3.57692 2.61944,0.70633 3.94996,-0.04229 3.94996,-0.04229 0,0 -2.12013,-0.3743 -6.73597,-2.45272 C 1.5287,4.42094 -0.30038,1.8432 0.07388,0.71959 0.4482,-0.40259 3.52513,-0.23589 7.80768,1.3849 c 4.28326,1.62213 6.32069,5.69777 6.32069,5.69777 0,0 4.28255,0.87221 7.60961,3.03395 l -0.29102,0.209 c 0,0 -3.07764,-1.58052 -7.1942,-2.78744 0,0 0.05391,0.48232 -0.4474,1.31831 l -0.09361,-1.2827 c 0,0 -1.74581,-0.37161 -2.34072,-1.74653 l 1.48632,0.7438 c 0,0 -0.16739,-1.11542 -4.81265,-3.69925 C 3.39954,0.28998 1.1325,-0.23108 0.5008,0.82889 -0.13098,1.88892 2.099,4.08073 5.68486,5.84566 c 3.58655,1.76494 7.93471,3.15902 7.93471,3.15902 0,0 -0.76222,1.15224 -3.80927,0.61333 C 6.76266,9.0784 4.65965,7.03558 3.81613,5.41817"
               style="fill:#000000;fill-opacity:1;fill-rule:nonzero;stroke:#000000;stroke-width:0.3985;stroke-linecap:butt;stroke-linejoin:miter;stroke-miterlimit:10;stroke-dasharray:none;stroke-opacity:1"
               id="path22" /><path
               d="m 14.12086,9.1905 c 0,0 3.92125,1.226 5.46358,2.02582 l 0.2786,-0.14889 c 0,0 -2.24854,-1.22603 -5.64858,-2.08182 z"
               style="fill:#000000;fill-opacity:1;fill-rule:nonzero;stroke:#000000;stroke-width:0.3985;stroke-linecap:butt;stroke-linejoin:miter;stroke-miterlimit:10;stroke-dasharray:none;stroke-opacity:1"
               id="path24" /><path
               d="m 44.12947,27.37593 c 0,0 -5.75719,-0.70761 -13.28609,-6.15536 0,0 -0.88589,-0.04511 -0.1326,0.62019 0.75272,0.66382 8.9012,5.53517 13.41869,5.53517"
               style="fill:#000000;fill-opacity:1;fill-rule:nonzero;stroke:#000000;stroke-width:0.3985;stroke-linecap:butt;stroke-linejoin:miter;stroke-miterlimit:10;stroke-dasharray:none;stroke-opacity:1"
               id="path26" /><path
               d="m 43.68684,25.1172 c 0,0 -6.64369,-1.28412 -11.78074,-6.28857 -5.13698,-5.00456 -6.4218,-6.46547 -7.9715,-7.26329 l -0.5758,0.13318 c 0,0 0.7527,-0.08808 4.78244,4.56187 4.03056,4.64935 9.12384,7.8391 15.5456,8.85681"
               style="fill:#000000;fill-opacity:1;fill-rule:nonzero;stroke:#000000;stroke-width:0.3985;stroke-linecap:butt;stroke-linejoin:miter;stroke-miterlimit:10;stroke-dasharray:none;stroke-opacity:1"
               id="path28" /><path
               d="m 43.46553,29.14697 c 0,0 -7.88339,-1.81473 -12.40095,-5.18138 -4.51674,-3.36595 -3.58654,-5.13637 -5.84528,-8.14839 0,0 -1.81612,-2.08125 -2.83452,-2.79025 l -0.39891,0.2207 c 0,0 2.74571,2.12694 4.07495,4.43007 1.32854,2.30173 0.6639,3.94104 5.75718,7.12938 5.09325,3.18835 11.64753,4.33987 11.64753,4.33987"
               style="fill:#000000;fill-opacity:1;fill-rule:nonzero;stroke:#000000;stroke-width:0.3985;stroke-linecap:butt;stroke-linejoin:miter;stroke-miterlimit:10;stroke-dasharray:none;stroke-opacity:1"
               id="path30" /></g></g></g></g></g></svg>
