<?xml version="1.0" encoding="UTF-8" standalone="no"?>
<svg
   xmlns:dc="http://purl.org/dc/elements/1.1/"
   xmlns:cc="http://creativecommons.org/ns#"
   xmlns:rdf="http://www.w3.org/1999/02/22-rdf-syntax-ns#"
   xmlns:svg="http://www.w3.org/2000/svg"
   xmlns="http://www.w3.org/2000/svg"
   xmlns:sodipodi="http://sodipodi.sourceforge.net/DTD/sodipodi-0.dtd"
   xmlns:inkscape="http://www.inkscape.org/namespaces/inkscape"
   version="1.1"
   id="svg2"
   xml:space="preserve"
   width="363.09332"
   height="154.66667"
   viewBox="0 0 363.09332 154.66667"
   sodipodi:docname="vectorian056.pdf"><metadata
     id="metadata8"><rdf:RDF><cc:Work
         rdf:about=""><dc:format>image/svg+xml</dc:format><dc:type
           rdf:resource="http://purl.org/dc/dcmitype/StillImage" /></cc:Work></rdf:RDF></metadata><defs
     id="defs6"><clipPath
       clipPathUnits="userSpaceOnUse"
       id="clipPath24"><path
         d="M 0,0 H 269.00345 V 116.00148 H 0 Z"
         id="path22" /></clipPath></defs><sodipodi:namedview
     pagecolor="#ffffff"
     bordercolor="#666666"
     borderopacity="1"
     objecttolerance="10"
     gridtolerance="10"
     guidetolerance="10"
     inkscape:pageopacity="0"
     inkscape:pageshadow="2"
     inkscape:window-width="640"
     inkscape:window-height="480"
     id="namedview4" /><g
     id="g10"
     inkscape:groupmode="layer"
     inkscape:label="vectorian056"
     transform="matrix(1.3333333,0,0,-1.3333333,0,154.66667)"><g
       id="g12"
       transform="translate(72,44)"><g
         id="g14"
         transform="translate(-72,-44)"><g
           id="g16"><g
             id="g18"><g
               id="g20"
               clip-path="url(#clipPath24)"><path
                 d="m 36.15594,39.32811 c 0,1.42209 1.15252,2.57652 2.57474,2.57652 1.42403,0 2.57654,-1.15443 2.57654,-2.57652 0,-1.42404 -1.15251,-2.57275 -2.57654,-2.57275 -1.42222,0 -2.57474,1.14871 -2.57474,2.57275 z"
                 style="fill:#000000;fill-opacity:1;fill-rule:nonzero;stroke:#000000;stroke-width:0.3985;stroke-linecap:butt;stroke-linejoin:miter;stroke-miterlimit:10;stroke-dasharray:none;stroke-opacity:1"
                 id="path26" /><path
                 d="m 32.43071,55.1254 c 0,1.0139 0.82209,1.83601 1.83601,1.83601 1.01201,0 1.83612,-0.82211 1.83612,-1.83601 0,-1.01203 -0.82411,-1.83423 -1.83612,-1.83423 -1.01392,0 -1.83601,0.8222 -1.83601,1.83423 z"
                 style="fill:#000000;fill-opacity:1;fill-rule:nonzero;stroke:#000000;stroke-width:0.3985;stroke-linecap:butt;stroke-linejoin:miter;stroke-miterlimit:10;stroke-dasharray:none;stroke-opacity:1"
                 id="path28" /><path
                 d="m 127.16522,41.90463 c 2.74555,-12.70617 -1.72022,-21.29219 -2.06204,-27.12884 -0.34369,-5.8405 5.49678,-3.09116 5.49678,-3.09116 0,0 -1.44681,-6.75749 -6.52588,-5.84038 -4.46765,0.80692 -5.15317,5.84038 -0.6873,15.45362 4.46385,9.61893 3.77844,20.60676 3.77844,20.60676 z"
                 style="fill:#000000;fill-opacity:1;fill-rule:nonzero;stroke:#000000;stroke-width:0.3985;stroke-linecap:butt;stroke-linejoin:miter;stroke-miterlimit:10;stroke-dasharray:none;stroke-opacity:1"
                 id="path30" /><path
                 d="m 16.3904,35.42435 c 3.88284,1.00441 8.33151,0.46141 12.52765,-1.52663 4.20187,-1.99173 8.31452,-5.43027 13.58918,-10.32713 2.13411,-1.98223 6.41757,-5.88408 10.83027,-9.50112 -4.46767,5.85567 -7.03672,13.32517 -7.29111,21.97757 -0.03041,1.01772 -0.01332,2.02785 0.03988,3.02285 0,0.01699 -0.0076,0.03219 -0.0076,0.05121 0.01522,0.62469 0.50123,15.36439 8.47011,24.18961 2.82915,3.13672 5.44937,5.32976 7.7601,7.26069 4.12966,3.45755 6.8563,5.73796 6.8563,10.44484 0,4.39366 -2.85573,6.34738 -5.52716,6.70817 -2.59365,0.36261 -5.64869,-0.78799 -6.44239,-3.64744 -0.72533,-2.63163 -0.05502,-4.86446 1.80191,-5.97147 1.44492,-0.86581 3.17273,-0.7348 4.28537,0.32849 0.3019,0.28861 0.78231,0.28291 1.069,-0.02278 0.28859,-0.30002 0.27532,-0.78032 -0.0247,-1.06703 -1.61772,-1.54181 -4.06894,-1.75821 -6.11008,-0.5374 -1.90633,1.14491 -3.56195,3.75754 -2.47783,7.67268 1.02152,3.69876 4.84366,5.18358 8.10181,4.74309 3.15573,-0.42532 6.83539,-2.83295 6.83539,-8.20631 0,-5.41127 -3.10434,-8.0069 -7.39739,-11.59926 -2.27464,-1.90442 -4.85116,-4.06324 -7.61001,-7.1164 -1.87972,-2.08284 -3.32463,-4.55307 -4.43357,-7.08978 4.24938,6.51257 10.78666,10.96513 18.49164,11.82906 9.49924,1.0632 17.38653,-0.82222 22.8225,-5.45317 4.67846,-3.98917 7.3291,-9.83153 7.66699,-16.90044 0.71593,-15.06818 -9.2296,-21.49536 -17.9637,-22.42388 -5.61639,-0.598 -11.25556,1.38042 -14.70741,5.15508 -3.09493,3.38164 -4.26076,7.96889 -3.28484,12.91695 0.89241,4.49806 2.81964,7.6043 5.74178,9.24102 4.31196,2.41324 9.14231,0.66831 9.35682,0.58863 1.28731,-0.50693 2.24433,-1.23033 2.97915,-2.04685 l 0.1804,0.19751 c 0,0 3.43284,-3.66264 2.63533,-9.04551 -0.80502,-5.38097 -6.5278,-5.83669 -8.47391,-2.85946 -1.94624,2.97527 0.2316,6.41199 2.17782,6.29419 1.94422,-0.1139 4.23415,0.56971 2.39993,4.23417 l 0.05131,0.057 c -0.60571,0.7063 -1.40312,1.33101 -2.48923,1.7563 -0.04181,0.01712 -4.37466,1.58355 -8.08281,-0.4975 -2.51393,-1.40501 -4.19425,-4.16766 -4.99368,-8.2138 -1.12781,-5.71707 0.96463,-9.46703 2.91644,-11.60495 3.13486,-3.42525 8.28412,-5.21196 13.43528,-4.66896 8.46641,0.89999 17.27643,6.84679 16.60812,20.84787 -0.31329,6.63989 -2.78354,12.11386 -7.1335,15.82201 C 86.4605,64.78792 78.95871,66.55563 69.89809,65.53603 56.71342,64.0588 47.1097,51.39824 47.5578,36.08694 48.06279,18.81242 58.11084,6.37206 74.43594,2.80252 c 17.15874,-3.74052 31.644,0.77651 39.74392,12.40236 3.45944,4.96326 5.95628,10.95374 7.37078,17.39601 -3.63795,-10.30432 -11.83844,-15.45929 -14.30679,-16.56631 -4.34804,-1.94991 -11.33153,-1.25879 -11.33153,4.57786 0,5.83858 5.83857,5.49298 5.83857,5.49298 -2.06012,-3.43284 3.08926,-10.64424 12.36447,-0.68541 3.68534,3.95876 6.52208,8.38282 7.55308,13.39348 1.56644,7.59491 0.11582,15.3398 0.11582,15.3398 0.36259,-1.34624 0.6417,-2.64684 0.86961,-3.91515 -0.97601,10.70874 -4.98796,21.29406 -12.59037,29.54207 -0.6646,-1.46582 -2.13233,-2.50442 -2.13233,-2.50442 0,0 -5.95247,-3.09114 -12.36244,5.15306 -7.1354,9.17271 -14.42461,20.94856 -39.83703,15.7993 C 30.31746,93.07689 14.86377,74.18652 14.86377,74.18652 c 22.6669,29.87821 48.42294,28.15988 69.71321,26.44536 21.29416,-1.71641 33.31303,-15.4555 41.90083,-23.6979 8.58602,-8.24041 13.73728,-8.584 20.26317,-8.584 6.52397,0 4.11824,7.55488 4.11824,7.55488 8.2442,-1.03091 13.61948,-12.35675 2.06014,-16.48651 -9.61322,-3.43285 -18.54094,2.40573 -28.84528,14.08089 -10.30243,11.67714 -19.40484,16.99733 -19.40484,16.99733 -2.06014,1.37651 -4.29116,0.69108 4.29295,-6.693 0.43291,-0.37021 0.7386,-0.74241 0.96081,-1.11262 4.78856,-3.91896 13.87198,-12.84487 21.40227,-28.89089 1.19623,-2.54802 2.36585,-5.18914 3.49745,-7.74488 0.72342,-1.63092 1.45252,-3.26955 2.19113,-4.89866 0.2031,0.03418 0.4101,0.05889 0.62461,0.05889 1.98993,0 3.60574,-1.61201 3.60574,-3.60373 0,-1.08992 -0.4975,-2.05824 -1.26271,-2.72284 1.36901,-2.74364 2.83484,-5.42647 4.45065,-7.99921 l 5.73978,4.71257 3.09303,-4.46766 -5.76835,-4.70127 c 1.80952,-2.39613 3.80693,-4.64616 6.05507,-6.69297 0.5829,0.4652 1.31392,0.7519 2.11702,0.7519 1.89492,0 3.43473,-1.53984 3.43473,-3.43475 0,-0.49559 -0.11198,-0.96451 -0.29809,-1.38982 3.49747,-2.28423 7.5076,-4.14303 12.17645,-5.43797 12.47077,-3.46324 23.77951,-2.13412 31.84912,3.74995 6.60939,4.81707 10.44863,12.38346 10.80933,21.30927 0.69111,17.12451 -9.61123,27.86177 -20.14725,29.61618 -6.48408,1.08981 -12.91318,-0.32468 -17.62382,-3.85814 -4.18096,-3.13675 -6.74999,-7.80949 -7.43161,-13.51317 -0.69112,-5.82908 0.48802,-10.71634 3.50886,-14.51948 2.80054,-3.53356 7.20749,-5.93727 11.79474,-6.44809 2.76074,-0.30381 7.07278,0.31902 10.12973,3.10254 2.24043,2.04112 3.34364,4.83986 3.28284,8.32398 -0.1101,6.3664 -3.91322,9.51066 -7.40119,9.74035 -0.2696,0.0114 -0.543,0 -0.81833,-0.0208 l 0.42342,-0.2317 c -2.57472,0.1766 -5.67908,-2.30694 -4.79236,-4.43346 0.88672,-2.12853 4.79236,-1.15442 4.79236,-1.15442 0,0 -0.1785,-3.19174 -2.83862,-4.25694 -2.66193,-1.06522 -6.7309,0.5829 -4.96886,5.67335 1.59491,4.61386 5.05815,5.67908 5.05815,5.67908 l 0.28861,-0.15952 c 0.9607,0.33232 1.96893,0.47852 2.95622,0.41204 4.15446,-0.27532 8.68851,-3.89806 8.81203,-11.22336 0.0683,-3.88286 -1.23801,-7.1543 -3.77846,-9.47072 -3.42536,-3.11774 -8.24239,-3.82405 -11.31062,-3.48224 -4.97847,0.5544 -9.76894,3.17082 -12.81449,7.00807 -3.23353,4.07657 -4.55504,9.48604 -3.82214,15.63982 0.72909,6.12518 3.50505,11.15494 8.024,14.54408 5.03537,3.77844 11.88216,5.29178 18.77824,4.13927 11.18917,-1.86644 22.13718,-13.16577 21.40996,-31.1693 -0.23547,-5.78918 -1.87211,-11.04295 -4.72974,-15.41572 3.62084,2.72845 9.86382,7.30819 18.65874,13.32327 16.80362,11.49677 29.27437,8.00311 35.34266,0.90002 4.38415,-5.13037 5.88217,-13.07647 3.64366,-19.32515 -1.69555,-4.73156 -5.34299,-7.82081 -10.26635,-8.69801 -1.26272,-0.22591 -2.41903,-0.32661 -3.46704,-0.32661 -4.99747,0 -7.70122,2.28805 -9.13473,4.42216 -2.73614,4.07466 -2.31641,9.93024 -0.3608,13.01947 1.76393,2.78734 4.47147,4.48285 7.4316,4.65566 2.51382,0.13291 4.82086,-0.83541 6.32648,-2.69423 1.93862,-2.39243 2.24433,-5.9829 0.712,-8.35251 -0.91132,-1.40881 -3.25812,-3.56386 -8.7037,-2.12653 -0.40059,0.1082 -0.64362,0.52211 -0.53731,0.92652 0.10821,0.3988 0.52022,0.63611 0.92471,0.5355 3.34935,-0.88482 5.85559,-0.3589 7.04799,1.48853 1.17342,1.81331 0.90382,4.70314 -0.61522,6.57907 -1.19429,1.47151 -3.03223,2.25002 -5.06766,2.13602 -2.46452,-0.14429 -4.74296,-1.58351 -6.24487,-3.95494 -1.70883,-2.70194 -1.97844,-7.91201 0.33991,-11.37335 2.12841,-3.16892 5.96577,-4.35946 11.08273,-3.44803 5.60127,0.99868 8.043,4.75055 9.11012,7.72018 2.02973,5.67148 0.61131,13.16948 -3.37025,17.83463 -5.64298,6.60749 -17.36562,9.76693 -33.34331,-1.16391 -14.6182,-10.00243 -22.19978,-16.0461 -22.2739,-16.1106 -0.1784,-0.1386 -0.39871,-0.1804 -0.60751,-0.1443 -0.4595,-0.4633 -0.93991,-0.90952 -1.43541,-1.34432 2.52142,1.38411 4.64236,2.47783 6.54477,3.28666 l 0.59242,0.55828 c 0,0 4.74497,2.34294 9.54302,2.58794 5.48727,0.27531 6.64168,-4.80946 5.38278,-8.35631 -0.79172,-2.21953 -2.81004,-2.73414 -4.26827,-2.26323 -0.87341,0.28101 -1.32913,1.00252 -1.80192,1.68984 -1.25881,1.83041 -1.37271,4.46194 -5.15306,4.57785 -3.77465,0.1139 -8.35442,-2.63164 -8.35442,-2.63164 l 0.42722,0.4044 C 207.35365,9.522 206.09094,8.8309 204.69162,8.0468 195.8094,3.08923 187.6203,2.91833 187.2747,2.91454 c -0.004,0 -0.008,0 -0.0114,0 -0.0607,0 -0.1158,0.01898 -0.17279,0.03418 -0.99872,-0.07221 -2.00693,-0.1178 -3.03606,-0.1178 -4.27203,0 -8.8005,0.64181 -13.47706,1.94243 -4.88346,1.35762 -9.06063,3.29614 -12.69666,5.67717 -0.6,-0.51081 -1.36331,-0.82781 -2.21203,-0.82781 -1.89872,0 -3.43474,1.53603 -3.43474,3.43474 0,0.5354 0.1329,1.03671 0.35121,1.48672 -2.33543,2.11513 -4.40117,4.44295 -6.27138,6.9208 l -6.09869,-4.97277 -3.43674,4.12024 6.46709,5.30498 c -1.67094,2.65063 -3.18414,5.41898 -4.59877,8.248 -0.3208,-0.09299 -0.655,-0.1595 -1.00821,-0.1595 -1.98982,0 -3.60566,1.61392 -3.60566,3.60576 0,1.23981 0.62473,2.32782 1.57592,2.97902 -0.73099,1.61583 -1.45059,3.23735 -2.16832,4.85507 -1.12781,2.54614 -2.29552,5.17587 -3.48224,7.71249 -4.53976,9.67023 -9.71571,16.74863 -14.10928,21.65299 12.23336,-18.63204 10.61004,-44.62738 -0.4291,-60.47028 C 108.89009,4.96896 98.44336,0 85.8454,0 82.10864,0 78.1821,0.43858 74.11514,1.3253 72.32462,1.7202 70.6291,2.23291 68.98857,2.82341 c -0.0038,0 -0.0038,-0.00189 -0.0076,-0.00189 -0.08169,0 -0.1633,0.0132 -0.2449,0.0417 -0.09689,0.03229 -1.21712,0.42722 -2.84813,1.15822 -0.07401,0.01709 -0.1481,0.01709 -0.2164,0.05701 C 65.53102,4.15813 65.36772,4.24744 65.20442,4.33662 64.55693,4.63664 63.8468,4.98604 63.10059,5.38284 62.9601,5.44547 62.81389,5.51196 62.6677,5.57845 L 63.28671,5.19676 C 60.87727,6.45746 55.8229,8.52708 53.06787,7.14677 50.30902,5.77016 52.03116,1.75061 49.16032,1.0614 46.28938,0.37209 41.58061,4.73535 45.48438,8.1816 49.38812,11.62584 56.3963,9.4423 56.3963,9.4423 L 56.73042,9.2391 C 56.89561,9.2012 57.06271,9.1575 57.22794,9.1157 51.36465,13.42387 44.40776,19.74095 41.48004,22.46178 36.30975,27.26173 32.2959,30.62057 28.27255,32.5307 24.39339,34.37053 20.30554,34.87553 16.7701,33.96233 12.08214,32.74521 9.94992,29.37117 8.98161,26.74724 7.3696,22.38017 7.924,16.9289 10.33153,13.49037 c 1.3766,-1.96893 3.30763,-3.30945 5.29936,-3.67787 3.51643,-0.655 7.58159,0.88672 8.27651,4.58546 0.48031,2.56514 -0.10631,4.86448 -1.62342,6.30939 -1.41073,1.34813 -3.49747,1.78862 -5.87278,1.2285 -0.4101,-0.09688 -0.81261,0.15952 -0.90941,0.56392 -0.09691,0.40633 0.15379,0.81263 0.56199,0.90572 2.88796,0.67399 5.46828,0.112 7.2664,-1.60631 1.88922,-1.80385 2.64113,-4.60257 2.06205,-7.67841 C 24.5264,9.4898 19.61055,7.536 15.35558,8.32779 12.97835,8.7683 10.69612,10.33282 9.0936,12.62456 6.37657,16.5036 5.76326,22.38776 7.56328,27.26933 c 1.54173,4.18667 4.67647,7.0822 8.82712,8.15502 z"
                 style="fill:#000000;fill-opacity:1;fill-rule:nonzero;stroke:#000000;stroke-width:0.3985;stroke-linecap:butt;stroke-linejoin:miter;stroke-miterlimit:10;stroke-dasharray:none;stroke-opacity:1"
                 id="path32" /><path
                 d="m 0.41649,38.76039 c -0.01329,0.04169 -0.0323,0.0759 -0.03799,0.1196 -0.02282,0.1595 -2.20252,16.18841 4.15814,33.67564 2.59933,7.14667 5.72086,11.94474 8.47592,16.17701 3.05314,4.68985 5.46637,8.39611 5.90687,13.50936 0.4975,5.77018 -2.87083,9.30942 -6.429,10.25304 -3.09114,0.82399 -5.87275,-0.31711 -7.07277,-2.90884 -1.59494,-3.44234 -0.16902,-5.57267 0.5165,-6.32457 1.00442,-1.10513 2.45123,-1.61394 3.52775,-1.23043 2.16832,0.7652 1.12792,3.88854 1.08231,4.01964 -0.1348,0.39302 0.07401,0.82212 0.46712,0.96263 0.3911,0.13289 0.824,-0.0741 0.9588,-0.46521 0.562,-1.61392 0.86201,-4.92906 -2.00882,-5.94108 -1.65382,-0.58672 -3.72334,0.0741 -5.14557,1.63482 -1.85124,2.03542 -2.13792,5.02205 -0.76892,7.9803 1.49994,3.23725 5.05057,4.74297 8.83092,3.73475 4.16766,-1.1088 8.11891,-5.20245 7.54739,-11.84415 C 19.94855,96.62184 17.3207,92.58507 14.27896,87.90671 11.56763,83.74466 8.49739,79.02261 5.95695,72.04102 2.94171,63.75311 1.888,55.8089 1.6013,49.79382 c 2.00502,10.18274 7.27579,25.74465 21.15927,38.68251 5.6904,5.30306 11.98658,9.36061 18.10044,12.45555 l -0.46901,-0.0741 c 10.41823,5.72656 20.49098,8.24429 24.95482,9.96261 4.46577,1.71643 3.31895,5.61068 3.31895,5.61068 5.60878,0.68162 10.64804,-4.69556 7.78659,-6.98729 -2.86133,-2.28792 -7.44288,-1.71451 -14.88399,-3.08924 -7.43919,-1.3746 -14.65047,-4.46575 -14.65047,-4.46575 l -0.74052,-0.1139 C 38.8028,98.53755 30.82439,93.92369 23.78969,87.37311 4.17975,69.09607 2.11772,45.47417 1.90512,40.1217 c 7.24167,32.36933 26.65224,41.61223 33.0509,41.27814 5.52898,-0.29242 9.44225,-2.06203 9.78594,-8.24243 0.34181,-6.18218 -8.92772,-6.52397 -8.92772,-6.52397 1.37271,6.8658 -4.78856,9.95314 -15.6284,2.06013 C 9.891,61.19366 3.50754,44.12805 1.88422,39.38501 1.88042,39.14958 1.88042,39.0167 1.88042,38.99768 1.88422,38.9654 1.8671,38.93118 1.86142,38.89899 1.85762,38.8458 1.85191,38.79828 1.8348,38.74898 1.8215,38.70529 1.7968,38.66159 1.774,38.61989 1.7494,38.57808 1.7285,38.5382 1.69432,38.50017 1.6639,38.46417 1.62782,38.43567 1.5899,38.40717 1.5728,38.39198 1.56331,38.37488 1.5443,38.3635 1.493,38.20778 1.4703,38.12617 1.4703,38.12617 1.48541,38.20027 1.50252,38.2667 1.51392,38.33888 1.50252,38.33128 1.48541,38.33128 1.4703,38.32178 1.42851,38.29898 1.3829,38.28757 1.3354,38.27237 1.2994,38.26097 1.269,38.24199 1.2329,38.23438 1.2025,38.23247 1.176,38.23247 1.1456,38.23247 c -0.0019,0 -0.0019,-0.0019 -0.0057,-0.0019 -0.0057,0 -0.0095,0 -0.0133,0 -0.1006,0 -0.1899,0.02281 -0.28102,0.0551 -0.02658,0.0114 -0.04938,0.0304 -0.07408,0.04751 -0.05692,0.02652 -0.1101,0.0588 -0.15761,0.10249 -0.02269,0.02281 -0.03979,0.05131 -0.06261,0.0778 -0.03798,0.0437 -0.0722,0.08742 -0.1006,0.14052 -0.01518,0.03231 -0.02278,0.0741 -0.03419,0.1064 z"
                 style="fill:#000000;fill-opacity:1;fill-rule:nonzero;stroke:#000000;stroke-width:0.3985;stroke-linecap:butt;stroke-linejoin:miter;stroke-miterlimit:10;stroke-dasharray:none;stroke-opacity:1"
                 id="path34" /></g></g></g></g></g></g></svg>
