<?xml version="1.0" encoding="UTF-8" standalone="no"?>
<svg
   xmlns:dc="http://purl.org/dc/elements/1.1/"
   xmlns:cc="http://creativecommons.org/ns#"
   xmlns:rdf="http://www.w3.org/1999/02/22-rdf-syntax-ns#"
   xmlns:svg="http://www.w3.org/2000/svg"
   xmlns="http://www.w3.org/2000/svg"
   xmlns:sodipodi="http://sodipodi.sourceforge.net/DTD/sodipodi-0.dtd"
   xmlns:inkscape="http://www.inkscape.org/namespaces/inkscape"
   version="1.1"
   id="svg2"
   xml:space="preserve"
   width="164.00209"
   height="83.868507"
   viewBox="0 0 164.00209 83.868507"
   sodipodi:docname="vectorian043.pdf"><metadata
     id="metadata8"><rdf:RDF><cc:Work
         rdf:about=""><dc:format>image/svg+xml</dc:format><dc:type
           rdf:resource="http://purl.org/dc/dcmitype/StillImage" /></cc:Work></rdf:RDF></metadata><defs
     id="defs6"><clipPath
       clipPathUnits="userSpaceOnUse"
       id="clipPath24"><path
         d="M 0,0 H 123.00157 V 63.0008 H 0 Z"
         id="path22" /></clipPath></defs><sodipodi:namedview
     pagecolor="#ffffff"
     bordercolor="#666666"
     borderopacity="1"
     objecttolerance="10"
     gridtolerance="10"
     guidetolerance="10"
     inkscape:pageopacity="0"
     inkscape:pageshadow="2"
     inkscape:window-width="640"
     inkscape:window-height="480"
     id="namedview4" /><g
     id="g10"
     inkscape:groupmode="layer"
     inkscape:label="vectorian043"
     transform="matrix(1.3333333,0,0,-1.3333333,0,83.868506)"><g
       id="g12"
       transform="translate(72,-9)"><g
         id="g14"
         transform="translate(-72,9)"><g
           id="g16"><g
             id="g18"><g
               id="g20"
               clip-path="url(#clipPath24)"><path
                 d="M 91.31276,32.03479 C 85.04388,31.7836 78.94461,28.93556 77.26938,21.75307 c -1.75682,-7.52491 3.00964,-14.797 9.78093,-14.797 6.76968,0 10.78255,3.76166 10.78255,9.53133 0,5.76648 -4.76648,9.77932 -10.03214,7.7713 -5.26247,-2.00482 -5.01286,-8.77452 -0.75041,-9.77773 4.26245,-1.0032 4.51365,3.00965 2.75683,4.26245 -1.75363,1.25283 -3.76004,-0.75041 -3.76004,-0.75041 0,0 -0.75201,5.01286 3.76004,5.01286 5.76969,0 6.2721,-5.51525 6.01928,-8.02249 -0.24959,-2.50885 -2.76004,-6.26727 -9.27852,-6.01928 -5.00966,0.1936 -9.78092,7.7729 -6.77288,14.04177 3.01284,6.27048 9.78573,9.02892 18.56023,6.5185 8.77612,-2.50563 13.54099,-10.02735 13.54099,-10.02735 -4.01287,9.52814 -14.29459,12.78898 -20.56348,12.53777 z"
                 style="fill:#000000;fill-opacity:1;fill-rule:nonzero;stroke:#000000;stroke-width:0.3985;stroke-linecap:butt;stroke-linejoin:miter;stroke-miterlimit:10;stroke-dasharray:none;stroke-opacity:1"
                 id="path26" /><path
                 d="m 104.35452,32.53722 c -26.58113,18.30583 -52.16064,9.5281 -52.16064,9.5281 0,0 1.50079,4.76328 -3.00966,5.01607 -5.26567,0.2928 -3.76166,-4.26566 -3.76166,-4.26566 -5.76966,1.50722 -5.01605,-0.2496 -9.78091,-1.25282 -4.76647,-1.00158 -6.26888,2.51044 -6.26888,2.51044 1.75521,-7.77451 12.28656,-7.77451 12.28656,-7.77451 -8.02092,-5.26565 -13.04017,-0.7552 -13.04017,-0.7552 -3.76325,-3.00642 -0.24961,-6.26729 -0.24961,-6.26729 -4.51365,-0.25119 -6.01927,-4.26405 -7.7729,-5.76646 -1.75522,-1.50563 -4.51525,-2.25603 -6.77129,1.25282 -2.25602,3.50882 0.24961,7.27208 0.24961,7.27208 -3.76006,-1.7552 -4.01287,-10.03053 3.76324,-12.28816 7.77451,-2.25601 13.53939,3.76326 13.53939,3.76326 -0.24962,-5.26888 4.01284,-3.51364 4.01284,-3.51364 1.00321,9.2801 10.78414,12.54097 10.78414,12.54097 0,0 -2.67363,-3.09285 -4.51525,-8.02412 -1.89283,-5.08166 2.00643,-8.77932 2.00643,-8.77932 -1.00322,3.51366 -0.24962,5.01608 4.00964,6.7697 4.26566,1.75522 4.01605,4.26564 4.01605,4.26564 2.50884,-1.25281 6.01608,-0.7536 6.01927,2.75525 0,2.42723 -2.76004,3.51364 -2.76004,3.51364 0,0 13.59378,12.62257 39.37172,2.75845 20.31386,-7.77293 24.82593,-28.08517 24.82593,-28.08517 0,0 -0.66562,15.09459 -14.79381,24.82593 z m -52.41346,0.2496 c 0,0 6.31208,-2.06084 3.25923,-4.76329 -2.17122,-1.9232 -4.26245,1.75523 -4.26245,1.75523 0,0 -0.24961,-3.34724 -2.08802,-4.68484 -1.84004,-1.33442 -5.68327,-2.67204 -6.35209,-4.34406 0,0 -1.3376,7.35689 9.86253,14.87859 0,0 -13.03857,0 -18.39064,-13.54418 0,0 -2.34084,0.16961 -0.50079,4.34725 0,0 -2.17444,-0.49919 -3.51204,-2.33762 -1.33443,-1.84002 -7.51851,-4.84646 -10.69774,-3.00964 0,0 3.00963,0.66881 5.18243,4.01284 2.17446,3.34405 5.34888,3.67846 7.52492,3.00965 0,0 -5.18567,2.17123 -3.34404,6.18408 0,0 2.67522,-2.33923 7.52168,-1.67203 4.84647,0.66881 10.69936,4.68166 10.69936,4.68166 0,0 -8.35852,-0.50081 -11.03375,2.34084 0,0 1.1712,0.4992 3.84643,1.67202 2.67206,1.16802 5.6817,0.50081 7.3537,-1.50722 0,0 -1.84001,5.01606 1.33763,5.85126 3.17763,0.83841 4.17764,-4.51045 1.00322,-5.68165 0,0 1.67201,-0.50081 5.01926,0.16799 3.34083,0.6672 9.52491,3.00965 22.64668,1.17281 0,0 -13.28816,1.75203 -25.07551,-8.52969 z"
                 style="fill:#000000;fill-opacity:1;fill-rule:nonzero;stroke:#000000;stroke-width:0.3985;stroke-linecap:butt;stroke-linejoin:miter;stroke-miterlimit:10;stroke-dasharray:none;stroke-opacity:1"
                 id="path28" /><path
                 d="M 63.97803,60.87358 C 47.6754,62.3792 22.85269,60.12157 8.5597,44.82536 -5.73807,29.52437 -0.9716,12.72415 14.32457,5.95447 29.62236,-0.8152 48.93143,4.19923 59.71555,14.73216 70.4981,25.2635 70.7509,32.286 70.7509,32.286 59.46275,7.96089 37.39687,7.20888 27.61594,6.20567 17.83821,5.20244 2.54042,11.97374 2.28761,25.2635 c -0.2464,13.29299 11.53775,24.57474 25.83074,28.33797 14.29458,3.76166 43.88537,8.02411 69.71451,-8.77611 25.83073,-16.80183 24.0755,-44.88855 24.0755,-44.88855 0,0 4.72805,12.73134 -7.2721,31.34438 C 102.3481,50.34062 80.27902,59.36955 63.97803,60.87358 Z"
                 style="fill:#000000;fill-opacity:1;fill-rule:nonzero;stroke:#000000;stroke-width:0.3985;stroke-linecap:butt;stroke-linejoin:miter;stroke-miterlimit:10;stroke-dasharray:none;stroke-opacity:1"
                 id="path30" /><path
                 d="m 115.38828,33.79163 c -13.04018,17.05142 -6.3489,26.38111 -0.66881,26.91394 5.35048,0.50079 6.68808,-3.00804 6.68808,-6.35369 0,-3.34243 -1.49921,-5.62727 -4.84967,-5.18086 -2.50724,0.33441 -2.34082,3.68005 -2.34082,3.68005 0.16481,-1.84483 3.51204,-2.34245 3.67844,0.3344 0.1152,1.84163 -1.75681,2.42084 -3.25924,1.92162 -1.50722,-0.50399 -2.76002,-2.75841 -1.0032,-5.76966 1.75522,-3.00966 9.52812,-3.00966 9.52812,5.01606 0,8.02571 -6.77289,9.02891 -10.28174,8.02571 -3.50885,-1.00322 -7.77449,-4.26247 -6.26887,-13.04177 1.50241,-8.7761 8.77771,-15.5458 8.77771,-15.5458 z"
                 style="fill:#000000;fill-opacity:1;fill-rule:nonzero;stroke:#000000;stroke-width:0.3985;stroke-linecap:butt;stroke-linejoin:miter;stroke-miterlimit:10;stroke-dasharray:none;stroke-opacity:1"
                 id="path32" /></g></g></g></g></g></g></svg>
