<?xml version="1.0" encoding="UTF-8" standalone="no"?>
<svg
   xmlns:dc="http://purl.org/dc/elements/1.1/"
   xmlns:cc="http://creativecommons.org/ns#"
   xmlns:rdf="http://www.w3.org/1999/02/22-rdf-syntax-ns#"
   xmlns:svg="http://www.w3.org/2000/svg"
   xmlns="http://www.w3.org/2000/svg"
   xmlns:sodipodi="http://sodipodi.sourceforge.net/DTD/sodipodi-0.dtd"
   xmlns:inkscape="http://www.inkscape.org/namespaces/inkscape"
   version="1.1"
   id="svg2"
   xml:space="preserve"
   width="176.42667"
   height="194.66667"
   viewBox="0 0 176.42667 194.66667"
   sodipodi:docname="vectorian005.pdf"><metadata
     id="metadata8"><rdf:RDF><cc:Work
         rdf:about=""><dc:format>image/svg+xml</dc:format><dc:type
           rdf:resource="http://purl.org/dc/dcmitype/StillImage" /></cc:Work></rdf:RDF></metadata><defs
     id="defs6"><clipPath
       clipPathUnits="userSpaceOnUse"
       id="clipPath24"><path
         d="M 0,0 H 129.00165 V 146.00186 H 0 Z"
         id="path22" /></clipPath></defs><sodipodi:namedview
     pagecolor="#ffffff"
     bordercolor="#666666"
     borderopacity="1"
     objecttolerance="10"
     gridtolerance="10"
     guidetolerance="10"
     inkscape:pageopacity="0"
     inkscape:pageshadow="2"
     inkscape:window-width="640"
     inkscape:window-height="480"
     id="namedview4" /><g
     id="g10"
     inkscape:groupmode="layer"
     inkscape:label="vectorian005"
     transform="matrix(1.3333333,0,0,-1.3333333,0,194.66667)"><g
       id="g12"
       transform="translate(72,74)"><g
         id="g14"
         transform="translate(-72,-74)"><g
           id="g16"><g
             id="g18"><g
               id="g20"
               clip-path="url(#clipPath24)"><path
                 d="M 106.12546,95.94913 C 91.00105,96.81984 85.769,81.40523 83.73326,81.40523 c -1.85892,0 -0.5762,12.96247 -7.73039,31.0142 5.58967,9.56003 7.15419,21.90429 7.15419,21.90429 l -6.6873,4.64747 c 0.31962,-5.63588 -0.9758,-13.06769 -3.67174,-19.41437 -9.68201,19.05684 -25.00403,26.38774 -37.89929,26.10595 -13.37897,-0.29441 -19.77614,-11.33905 -19.77614,-11.33905 0,0 -3.19646,5.52238 -5.52228,9.88381 -2.32593,4.36156 -11.33913,1.16083 -9.30342,-3.78105 2.03142,-4.94194 14.53549,-29.07116 16.28101,-30.81657 1.74543,-1.74544 7.85238,0 7.55789,2.0314 -0.29019,2.03984 -1.45522,15.12441 7.26779,19.19147 3.81476,1.78331 9.51372,2.11562 15.45252,0.6646 -8.17212,-10.91434 -3.71807,-30.56839 13.61868,-30.03008 4.67694,0.1472 8.42859,2.29643 11.43574,5.42976 4.97975,-12.82376 6.01447,-25.54232 3.68442,-25.77784 -2.90633,-0.29438 -7.84817,7.8482 -16.86139,9.30342 C 49.72023,91.88206 33.43501,86.3555 34.89873,68.03465 36.34976,49.71803 63.38521,42.74463 69.19777,34.31183 75.01877,25.8748 66.00543,13.66937 54.08177,13.37917 42.16232,13.08475 30.53297,22.67838 27.33653,25.29861 24.13579,27.91466 17.1583,24.7182 21.80995,19.19164 26.46594,13.66516 39.8322,0.58478 68.03696,1.8e-4 c 28.20048,-0.58036 52.32966,27.32985 59.31566,52.62828 6.97329,25.29003 -6.11538,42.44587 -21.22716,43.32067 z m -42.45004,11.91534 c -8.71883,-4.93776 -16.57122,5.81668 -11.05304,11.91945 3.73063,4.12596 8.50849,2.81375 11.22973,1.52672 1.32482,-1.50142 2.53613,-3.16702 3.60025,-5.01335 0.60979,-1.05991 1.1902,-2.14504 1.73702,-3.23856 -1.59833,-2.19971 -3.44045,-4.01243 -5.51396,-5.19426 z"
                 style="fill:#000000;fill-opacity:1;fill-rule:nonzero;stroke:#000000;stroke-width:0.3985;stroke-linecap:butt;stroke-linejoin:miter;stroke-miterlimit:10;stroke-dasharray:none;stroke-opacity:1"
                 id="path26" /></g></g></g></g></g></g></svg>
