<?xml version="1.0" encoding="UTF-8" standalone="no"?>
<svg
   xmlns:dc="http://purl.org/dc/elements/1.1/"
   xmlns:cc="http://creativecommons.org/ns#"
   xmlns:rdf="http://www.w3.org/1999/02/22-rdf-syntax-ns#"
   xmlns:svg="http://www.w3.org/2000/svg"
   xmlns="http://www.w3.org/2000/svg"
   xmlns:sodipodi="http://sodipodi.sourceforge.net/DTD/sodipodi-0.dtd"
   xmlns:inkscape="http://www.inkscape.org/namespaces/inkscape"
   version="1.1"
   id="svg2"
   xml:space="preserve"
   width="282.55508"
   height="282.50015"
   viewBox="0 0 282.55508 282.50016"
   sodipodi:docname="vectorian063.pdf"><metadata
     id="metadata8"><rdf:RDF><cc:Work
         rdf:about=""><dc:format>image/svg+xml</dc:format><dc:type
           rdf:resource="http://purl.org/dc/dcmitype/StillImage" /></cc:Work></rdf:RDF></metadata><defs
     id="defs6"><clipPath
       clipPathUnits="userSpaceOnUse"
       id="clipPath24"><path
         d="M 0,0 H 212.00273 V 212.00273 H 0 Z"
         id="path22" /></clipPath><clipPath
       clipPathUnits="userSpaceOnUse"
       id="clipPath40"><path
         d="m 0,-3.8e-4 h 211.91632 v 211.8755 L 0,211.87512 Z"
         id="path38" /></clipPath></defs><sodipodi:namedview
     pagecolor="#ffffff"
     bordercolor="#666666"
     borderopacity="1"
     objecttolerance="10"
     gridtolerance="10"
     guidetolerance="10"
     inkscape:pageopacity="0"
     inkscape:pageshadow="2"
     inkscape:window-width="640"
     inkscape:window-height="480"
     id="namedview4" /><g
     id="g10"
     inkscape:groupmode="layer"
     inkscape:label="vectorian063"
     transform="matrix(1.3333333,0,0,-1.3333333,0,282.50015)"><g
       id="g12"
       transform="translate(72,140)"><g
         id="g14"
         transform="translate(-72,-140)"><g
           id="g16"><g
             id="g18"><g
               id="g20"
               clip-path="url(#clipPath24)"><path
                 d="m 64.1092,190.70644 c -1.1296,3.66404 -6.20806,3.15205 -8.74232,-0.94402 -1.97191,-3.20004 -1.3016,-6.84807 -0.9095,-8.30411 -0.4454,-1.28 -1.067,-3.72804 -1.1936,-7.60008 -0.16721,-5.15208 0.9906,-10.38414 1.36402,-11.93616 -0.76402,-0.14399 -1.40003,-0.36799 -1.86803,-0.59201 l -22.00168,21.55228 c 0.5209,0.80002 0.82879,1.74402 0.82879,2.76804 0,2.80003 -2.26721,5.07206 -5.07035,5.07206 -2.80144,0 -5.07047,-2.27203 -5.07047,-5.07206 0,-2.80004 2.26903,-5.07206 5.07047,-5.07206 1.1892,0 2.26712,0.43199 3.13124,1.10399 l 21.19567,-22.24028 c -0.2227,-0.464 -0.45631,-1.088 -0.6141,-1.85602 -1.53841,0.40001 -6.76259,1.63202 -11.91905,1.52004 -3.86386,-0.064 -6.31719,-0.65602 -7.60771,-1.08801 -1.45002,0.416 -5.09086,1.136 -8.31261,-0.80002 -4.12985,-2.46405 -4.71895,-7.5361 -1.06101,-8.72011 3.10634,-1.00803 11.11564,2.88003 10.15343,8.62409 1.32022,0.30401 3.51544,0.62403 7.06391,0.68801 4.84695,0.096 10.0118,-2.19201 11.55654,-2.94403 0.04679,-0.448 0.114,-0.91202 0.23899,-1.40802 0.08751,-0.352 0.24701,-0.64 0.37181,-0.94401 0.02501,-2.28803 -0.40621,-10.68813 -8.03911,-11.80815 0,0 7.17659,-1.21601 11.11885,8.3841 2.47813,-1.296 5.79556,-1.344 8.71422,-0.46401 0.73599,-0.752 1.87022,-2.11202 1.87022,-3.31205 0,-1.77601 -2.12483,-3.66403 -2.12483,-3.66403 0,0 5.25307,1.104 13.82896,-5.87207 -6.85939,8.6721 -5.69137,13.90418 -5.69137,13.90418 0,0 -1.91571,-2.09603 -3.68434,-2.08002 -1.19861,0.032 -2.54082,1.184 -3.28372,1.92003 0.91011,2.91203 0.9179,6.22406 -0.34612,8.7201 9.65514,3.80805 8.52391,11.00814 8.52391,11.00814 -1.22243,-7.61611 -9.61304,-7.9361 -11.90365,-7.8721 -0.30941,0.128 -0.58912,0.28801 -0.93441,0.384 -0.4969,0.12801 -0.96241,0.20801 -1.41423,0.25601 -0.7256,1.552 -2.95624,6.75209 -2.79122,11.60013 0.12249,3.53604 0.467,5.72807 0.78968,7.04012 5.73758,-1.04003 9.72374,6.92807 8.76272,10.04811 z M 23.45079,150.27393 c -2.71254,0 -3.06725,3.18403 -0.82742,5.29606 2.24313,2.12802 4.95576,0.35199 4.95576,0.35199 2.24054,-2.24002 -1.41711,-5.64805 -4.12834,-5.64805 z m 5.89697,35.37645 c 0,-1.56801 -1.26561,-2.83205 -2.83123,-2.83205 -1.56412,0 -2.82894,1.26404 -2.82894,2.83205 0,1.56802 1.26482,2.83202 2.82894,2.83202 1.56562,0 2.83123,-1.264 2.83123,-2.83202 z m 23.70961,-26.52834 c 0,0 3.45955,2.32002 6.62039,0.62401 3.30184,-1.77602 3.23603,-7.2641 1.3252,-8.67211 -1.43442,-1.90404 -6.92969,-1.88803 -8.65651,1.44001 -1.6515,3.18403 0.71092,6.60809 0.71092,6.60809 z m 9.25483,29.48839 c -0.039,-2.72005 -3.50466,-6.33609 -5.71718,-4.06406 0,0 -1.73284,2.73603 0.4219,4.96005 2.15463,2.20804 5.33127,1.80802 5.29528,-0.89599 z"
                 style="fill:#000000;fill-opacity:1;fill-rule:nonzero;stroke:#000000;stroke-width:0.3985;stroke-linecap:butt;stroke-linejoin:miter;stroke-miterlimit:10;stroke-dasharray:none;stroke-opacity:1"
                 id="path26" /><path
                 d="m 57.20912,158.24203 c -0.0048,0 -0.0078,0 -0.01408,0 -0.0096,0 -0.01872,0 -0.02811,0 -0.13911,0 -0.27431,-0.016 -0.40871,-0.032 -0.0773,-0.016 -0.15391,-0.016 -0.2288,-0.032 -0.1265,-0.032 -0.24692,-0.064 -0.36962,-0.11201 -0.08348,-0.032 -0.1709,-0.048 -0.25048,-0.08 -0.10642,-0.032 -0.20642,-0.096 -0.30501,-0.16 -0.08591,-0.048 -0.17651,-0.08 -0.25621,-0.12801 -0.0892,-0.064 -0.16249,-0.12801 -0.24222,-0.20799 -0.0851,-0.064 -0.1718,-0.12801 -0.24849,-0.192 -0.06851,-0.08 -0.1217,-0.14402 -0.1797,-0.20802 -0.078,-0.096 -0.1593,-0.192 -0.228,-0.28798 -0.04679,-0.064 -0.0764,-0.14402 -0.1203,-0.20801 -0.0641,-0.11201 -0.1344,-0.22401 -0.18589,-0.33601 -0.02662,-0.08 -0.04223,-0.144 -0.06583,-0.208 -0.04828,-0.14401 -0.09998,-0.272 -0.12798,-0.416 -0.0139,-0.064 -0.0126,-0.12802 -0.02031,-0.17602 -0.0251,-0.15999 -0.05009,-0.304 -0.0531,-0.46399 0,-0.016 0.003,-0.016 0.003,-0.032 0,0 0,0 0,-0.016 0,-0.032 0.0087,-0.064 0.0087,-0.112 0.01008,-0.17599 0.0211,-0.36799 0.0569,-0.54402 0.0048,-0.016 0.0133,-0.032 0.02198,-0.064 0.04223,-0.19201 0.09691,-0.36801 0.16881,-0.54402 0.0046,-0.016 0.0078,-0.016 0.0092,-0.016 0.49701,-1.16801 1.63282,-1.98404 2.97356,-2.00003 0.0157,0 0.03128,0 0.04687,0 0.0078,0 0.01561,0 0.02361,0 0.21861,0 0.42952,0.032 0.63492,0.064 0.02429,0.016 0.0477,0.016 0.07119,0.032 0.1875,0.032 0.36881,0.096 0.54082,0.16001 0.04819,0.016 0.09059,0.048 0.13748,0.08 0.14362,0.064 0.2856,0.128 0.41712,0.22401 0.067,0.048 0.1251,0.096 0.1873,0.14398 0.10159,0.08 0.205,0.16002 0.29559,0.24002 0.07961,0.08 0.14511,0.176 0.21471,0.256 0.06169,0.08 0.1304,0.14401 0.18651,0.224 0.0807,0.12802 0.14241,0.256 0.2064,0.38402 0.03119,0.048 0.0703,0.11198 0.0968,0.17599 0.06901,0.14402 0.1159,0.32001 0.1594,0.48001 0.0094,0.048 0.0282,0.08 0.0376,0.128 0.0422,0.19201 0.0594,0.38401 0.06741,0.57601 0,0.032 0.006,0.048 0.006,0.08 0,0.016 0.0063,0.032 0.0063,0.032 0,0.208 -0.02661,0.4 -0.05951,0.592 -0.0031,0.016 -0.0015,0.016 -0.0031,0.032 -0.0421,0.22401 -0.1046,0.41601 -0.1813,0.62401 0,0 0,0 -0.0014,0 -0.1611,0.38402 -0.39221,0.736 -0.68132,1.04001 -0.0032,0 -0.0062,0.016 -0.0094,0.016 -0.13751,0.14399 -0.28752,0.25599 -0.44832,0.384 -0.01269,0 -0.022,0.016 -0.03298,0.016 -0.15151,0.11201 -0.31872,0.20801 -0.48591,0.27202 -0.02481,0.016 -0.04692,0.032 -0.07171,0.048 -0.15941,0.064 -0.32591,0.11199 -0.49391,0.16001 -0.0437,0.016 -0.0813,0.032 -0.125,0.032 -0.15772,0.032 -0.32032,0.048 -0.48291,0.064 -0.05928,0 -0.11238,0.016 -0.1686,0.016 z m -0.4971,-1.96803 c 0.15019,0.048 0.3049,0.08 0.4689,0.08 0.58132,-0.016 1.07351,-0.36802 1.28131,-0.86403 0.0047,-0.016 0.0031,-0.048 0.0093,-0.064 0.05491,-0.16001 0.09231,-0.32001 0.09092,-0.48002 0,-0.064 -0.02671,-0.128 -0.03601,-0.19201 -0.01728,-0.11199 -0.03141,-0.24001 -0.07829,-0.35199 -0.03282,-0.08 -0.09289,-0.14401 -0.13882,-0.208 -0.0533,-0.08 -0.0938,-0.17601 -0.1612,-0.24002 -0.0812,-0.064 -0.18429,-0.12799 -0.2828,-0.192 -0.0548,-0.016 -0.10161,-0.08 -0.16242,-0.096 -0.12338,-0.048 -0.26257,-0.064 -0.4032,-0.08 -0.0453,0 -0.0892,-0.032 -0.13748,-0.032 -0.175,0 -0.34212,0.048 -0.49531,0.096 -0.01571,0.016 -0.0328,0.016 -0.04691,0.016 -0.48131,0.20799 -0.81571,0.672 -0.84231,1.23201 0,0.016 -0.0124,0.032 -0.0124,0.064 0,0.14401 0.04221,0.272 0.0844,0.40002 0.0127,0.048 0.0092,0.096 0.0296,0.14398 0.04232,0.096 0.11411,0.176 0.17672,0.25602 0.0451,0.064 0.07339,0.128 0.12489,0.192 0.05,0.048 0.11409,0.064 0.17029,0.112 0.0907,0.064 0.17662,0.14399 0.28292,0.192 0.02328,0 0.05309,0 0.0779,0.016 z"
                 style="fill:#000000;fill-opacity:1;fill-rule:nonzero;stroke:#000000;stroke-width:0.3985;stroke-linecap:butt;stroke-linejoin:miter;stroke-miterlimit:10;stroke-dasharray:none;stroke-opacity:1"
                 id="path28" /><path
                 d="m 104.35593,113.42545 c 3.47525,0 6.29129,-2.81603 6.29129,-6.28809 0,-0.256 -0.0224,-0.51201 -0.0528,-0.76802 -0.25442,2.19205 -2.16163,3.92006 -4.50886,3.92006 -2.52006,0 -4.56006,-1.96802 -4.56006,-4.40004 0,-2.43204 2.04,-4.41608 4.56006,-4.41608 0.5232,0 1.0144,0.11202 1.47842,0.27202 -0.93922,-0.56001 -2.03044,-0.89601 -3.20805,-0.89601 -3.47524,0 -6.28968,2.81604 -6.28968,6.28807 0,3.47206 2.81444,6.28809 6.28968,6.28809 z"
                 style="fill:#000000;fill-opacity:1;fill-rule:nonzero;stroke:#000000;stroke-width:0.3985;stroke-linecap:butt;stroke-linejoin:miter;stroke-miterlimit:10;stroke-dasharray:none;stroke-opacity:1"
                 id="path30" /><path
                 d="m 198.70764,194.57849 c 0,-2.43202 1.97124,-4.41606 4.40326,-4.41606 2.43204,0 4.40328,1.98404 4.40328,4.41606 0,2.43202 -1.97124,4.40006 -4.40328,4.40006 -2.43202,0 -4.40326,-1.96804 -4.40326,-4.40006 z m 1.88645,0 c 0,1.39203 1.12799,2.51204 2.51681,2.51204 1.38883,0 2.51685,-1.12001 2.51685,-2.51204 0,-1.39201 -1.12802,-2.52803 -2.51685,-2.52803 -1.38882,0 -2.51681,1.13602 -2.51681,2.52803 z"
                 style="fill:#000000;fill-opacity:1;fill-rule:nonzero;stroke:#000000;stroke-width:0.3985;stroke-linecap:butt;stroke-linejoin:miter;stroke-miterlimit:10;stroke-dasharray:none;stroke-opacity:1"
                 id="path32" /><path
                 d="m 12.89044,8.81609 c 0,-2.43203 1.97283,-4.40004 4.40407,-4.40004 2.43121,0 4.40306,1.96801 4.40306,4.40004 0,2.43205 -1.97185,4.40007 -4.40306,4.40007 -2.43124,0 -4.40407,-1.96802 -4.40407,-4.40007 z m 1.88994,0 c 0,1.39201 1.1234,2.51204 2.51413,2.51204 1.38902,0 2.51874,-1.12003 2.51874,-2.51204 0,-1.39202 -1.12972,-2.51201 -2.51874,-2.51201 -1.39073,0 -2.51413,1.11999 -2.51413,2.51201 z"
                 style="fill:#000000;fill-opacity:1;fill-rule:nonzero;stroke:#000000;stroke-width:0.3985;stroke-linecap:butt;stroke-linejoin:miter;stroke-miterlimit:10;stroke-dasharray:none;stroke-opacity:1"
                 id="path34" /><g
                 id="g36"
                 clip-path="url(#clipPath40)"><path
                   d="M 8.4874,8.81609 C 8.4874,3.95204 12.43185,0 17.29451,0 c 4.86485,0 8.80801,3.95204 8.80801,8.81609 0,1.93603 -0.63432,3.72805 -1.69542,5.18408 l 7.3564,6.92808 c 10.53443,-6.28808 20.08765,-1.408 20.44236,4.86408 0.31411,5.58406 -10.06572,7.71208 -10.06572,7.71208 0,0 8.49391,8.33611 5.97986,15.2482 -2.51903,6.92809 -10.06582,5.04007 -12.26734,2.20804 -2.20325,-2.83205 -6.6033,-9.12013 -6.6033,-9.12013 -4.09156,2.83204 -7.39079,7.69608 -7.39079,7.69608 0,0 4.55796,5.8241 6.13147,13.05619 2.56085,11.77615 -6.92208,16.99221 -10.38002,5.34407 -2.41094,-8.11209 1.57511,-17.45624 1.57511,-17.45624 -0.63041,-1.408 -7.86399,-7.39207 -7.86399,-7.39207 -6.922,10.70413 -7.86281,32.72041 -0.94242,48.12861 7.5806,16.89621 20.75507,26.09633 20.75507,26.09633 4.08835,-6.91209 10.69383,-11.95215 10.69383,-11.95215 0,0 -11.22204,-12.17616 -3.77344,-25.77634 8.5681,-15.64819 23.2721,-12.89614 23.2721,-12.89614 9.1206,-10.06416 17.29652,-7.23212 17.29652,-7.23212 -4.57448,3.04006 -4.76967,6.7041 -3.41125,10.22414 6.38409,3.71205 10.44014,9.44012 11.97777,11.90416 5.49125,1.55201 9.0465,6.80009 9.0465,6.80009 -3.14404,-2.20803 -6.6033,-1.26402 -6.6033,-1.26402 0.65763,3.56805 0.76963,6.99208 0.42082,10.25615 3.07364,1.37601 5.64328,2.70401 6.90569,3.37602 1.84802,-2.22401 4.59687,-3.68004 7.7121,-3.68004 2.61604,0 4.99687,1.00801 6.78891,2.65604 l 2.60962,-2.60805 c -0.56801,-0.81601 -0.90882,-1.80803 -0.90882,-2.88002 0,-2.76803 2.25444,-5.02408 5.03526,-5.02408 2.77604,0 5.02888,2.25605 5.02888,5.02408 0,2.78403 -2.25284,5.04006 -5.02888,5.04006 -0.9056,0 -1.7392,-0.256 -2.47363,-0.67202 l -2.79203,2.78405 c 1.13601,1.63201 1.8048,3.61602 1.8048,5.74406 0,3.08804 -1.42239,5.8241 -3.61122,7.66411 0.64962,1.23203 2.01284,3.85605 3.42725,7.00809 3.25443,-0.33602 6.68167,-0.224 10.24814,0.432 0,0 0.94239,-3.45604 -1.25761,-6.60809 0,0 5.23844,3.55206 6.79206,9.04011 2.47204,1.55202 8.19531,5.60009 11.90416,11.98417 3.52963,1.36001 7.18408,1.16801 10.23853,-3.40804 0,0 2.83205,8.1761 -7.23369,17.29622 0,0 2.75203,14.70419 -12.89776,23.2643 -13.59698,7.4561 -25.78915,-3.77605 -25.78915,-3.77605 0,0 -5.03045,6.60809 -11.94894,10.70413 0,0 9.20972,13.16819 26.10432,20.75228 15.41141,6.92808 37.42767,5.98407 48.11742,-0.94402 0,0 -5.97606,-7.2321 -7.39049,-7.85609 0,0 -9.33772,3.98405 -17.45463,1.568 -11.63853,-3.45602 -6.43367,-12.94416 5.34729,-10.38414 7.23368,1.58403 13.05296,6.14411 13.05296,6.14411 0,0 4.87366,-3.31206 7.70248,-7.39212 0,0 -6.28806,-4.40004 -9.1185,-6.60807 -2.82886,-2.20803 -4.71846,-9.74412 2.20164,-12.27216 6.91686,-2.51205 15.25138,5.98408 15.25138,5.98408 0,0 2.12642,-10.38414 7.70731,-10.06413 6.28168,0.352 11.16342,9.90413 4.87367,20.43225 l 6.93137,7.3601 c 1.45442,-1.05603 3.24165,-1.69603 5.17767,-1.69603 4.86408,0 8.80652,3.95206 8.80652,8.81612 0,4.86408 -3.94244,8.80013 -8.80652,8.80013 -4.86406,0 -8.80652,-3.93605 -8.80652,-8.80013 0,-2.04802 0.69922,-3.92004 1.86082,-5.40808 l -6.42097,-6.94408 -6.83848,9.20012 c 0,0 3.77284,4.48007 7.0753,9.66413 0,0 -1.88645,2.60803 -12.34258,10.78413 0,0 -3.46084,-4.40005 -7.47209,-9.84012 0,0 -12.02738,8.03211 -33.02122,6.8481 -20.89788,-1.16801 -37.58129,-10.52815 -47.50621,-25.50433 -3.90725,1.71202 -8.69452,2.59202 -11.59696,3.02401 1.63202,1.77603 3.26563,2.52803 3.26563,2.52803 -1.71199,4.16007 -6.91687,3.16805 -6.91687,3.16805 0.75999,3.76005 -2.26883,6.6241 -0.91841,10.38414 0.6224,1.74403 0.6336,3.29605 0.6336,3.29605 -1.88322,0.384 -2.96324,-1.13602 -4.26086,-1.12001 -1.2984,0.016 -5.78437,-0.40003 -8.261,-0.36803 -2.47654,0.048 -4.53125,-3.58403 -4.53125,-3.58403 0,0 -0.57351,1.31203 -2.08753,2.62403 -1.51562,1.31202 -3.03755,2.16003 -3.03755,2.16003 -0.83841,-0.92801 -1.70003,-3.52003 -3.13744,-5.15207 -1.99234,-2.25601 -4.28296,-2.64003 -4.80645,-6.41607 -0.61872,-4.46407 2.36723,-8.04812 1.75451,-9.80813 -0.61531,-1.76002 -4.02485,-1.00801 -3.97474,2.64004 0.04989,3.66404 0.7765,5.07206 0.8063,7.31208 0.03101,2.24004 -2.99065,5.58408 -4.72826,7.84011 -1.73762,2.27203 -1.96263,2.97604 -2.41654,4.64007 -0.44608,1.64801 -1.96642,2.496 -1.96642,2.496 -1.65152,0.032 -2.15471,-2.208 -2.40002,-3.02401 -0.24691,-0.832 -1.30932,-0.81603 -2.38595,-1.74404 -1.07341,-0.92801 -0.9891,-3.40803 -0.9891,-3.40803 0,0 -1.27031,2.03201 -3.13283,3.69604 -1.86584,1.68003 -5.87198,1.85602 -10.12355,1.56804 -4.24834,-0.30402 -5.40946,1.008 -7.05159,1.744 -1.6423,0.72001 -2.74693,0.336 -2.74693,0.336 0,0 -0.40161,-1.104 0.30461,-2.75204 0.70792,-1.64801 2.00633,-2.83203 1.65163,-7.07208 -0.35161,-4.24006 -0.2359,-8.25611 1.41562,-10.14412 1.65162,-1.88803 3.65623,-3.18404 3.65623,-3.18404 0,0 -2.47652,0.12799 -3.42184,-0.94402 -0.94462,-1.05603 -0.94462,-2.12803 -1.76723,-2.35203 -0.82649,-0.23999 -3.06723,-0.70401 -3.06723,-2.36803 0,0 0.8266,-1.52003 2.47653,-2.00003 1.65012,-0.48001 2.35793,-0.70401 4.60007,-2.48002 2.23922,-1.76005 5.54397,-4.83208 7.78299,-4.83208 2.24064,0 3.65635,0.70401 7.31259,0.70401 3.65635,0 4.36276,-3.42403 2.59553,-4.00005 -1.77052,-0.59199 -5.31747,2.43204 -9.78943,1.88802 -3.77503,-0.48 -4.19844,-2.76802 -6.48597,-4.72006 -1.65154,-1.42401 -4.24857,-2.24001 -5.19066,-3.07203 0,0 0.825,-1.53602 2.12262,-3.07205 1.30083,-1.52001 2.59463,-2.11203 2.59463,-2.11203 0,0 -3.65484,-2.01602 -3.65484,-4.48005 0,-2.48003 -0.47422,-6.96009 -0.47422,-8.27211 0,-1.29601 -1.53121,-2.35204 -1.1773,-4.24006 0,0 1.5563,0 3.30323,0.59203 3.77196,1.29599 6.6048,-1.77603 10.37824,-1.05603 0,0 -1.06261,-5.20007 3.06564,-6.96008 0,0 0.77352,1.58401 2.53442,3.18403 0.3781,-2.81604 1.27033,-8.00009 3.09605,-12.17616 C 13.51636,112.35344 4.15915,95.68121 2.98813,74.78494 1.80681,53.79268 9.82722,41.76051 9.82722,41.76051 4.39914,37.74446 -0.00108,34.28842 -0.00108,34.28842 8.17569,23.84029 10.77094,21.93626 10.77094,21.93626 c 5.18836,3.31204 9.6705,7.08809 9.6705,7.08809 l 9.20013,-6.8481 -6.94387,-6.41605 c -1.49224,1.168 -3.36417,1.85601 -5.40319,1.85601 -4.86266,0 -8.80711,-3.93606 -8.80711,-8.80012 z m 188.02021,185.7624 c 0,3.64804 2.95525,6.60809 6.60329,6.60809 3.64806,0 6.60329,-2.96005 6.60329,-6.60809 0,-3.64805 -2.95523,-6.60808 -6.60329,-6.60808 -3.64804,0 -6.60329,2.96003 -6.60329,6.60808 z m -36.95578,-3.39203 c -2.59361,-2.59206 -17.92662,-8.48012 -17.68982,-1.87204 0.2448,6.89609 17.68982,1.87204 17.68982,1.87204 z m 21.46589,1.88802 c -3.53925,3.77604 -8.72811,7.7921 -8.72811,7.7921 l 5.42406,7.31209 8.96492,-7.31209 z m -0.47042,-22.64029 8.72652,7.7921 c 4.24646,-8.03211 0.94401,-14.8642 -2.83045,-14.8642 -2.38401,0 -4.19523,1.72803 -5.89607,7.0721 z m -7.00007,12.19214 7.75209,7.0081 c 1.66723,-1.85603 4.30566,-5.08806 6.77609,-9.29611 -1,-0.89602 -4.30725,-4.16007 -8.00011,-7.07208 -2.83203,4.48004 -4.40484,6.28806 -6.52807,9.36009 z m -1.96643,-2.04801 c 1.65283,-1.18402 6.36808,-8.72012 6.36808,-8.72012 -11.08334,-9.2001 -16.51062,-4.01605 -15.565,0.46402 0.69602,3.31204 9.19692,8.2561 9.19692,8.2561 z m -0.94242,18.64025 c 1.38243,-0.99204 4.62566,-3.28005 8.96492,-7.79212 -2.91044,-3.29603 -7.31369,-7.07208 -7.31369,-7.07208 -4.29126,4.91206 -8.01771,7.53609 -8.01771,7.53609 2.01924,2.11203 4.25445,4.67206 6.36648,7.32811 z M 115.67767,94.24121 c 0,1.39201 1.12801,2.52803 2.51843,2.52803 1.38723,0 2.51684,-1.13602 2.51684,-2.52803 0,-1.39201 -1.12961,-2.51204 -2.51684,-2.51204 -1.39042,0 -2.51843,1.12003 -2.51843,2.51204 z M 77.64838,188.7384 c 0,0 -1.65282,0.032 -2.51044,-2.32002 -0.85599,-2.35203 -1.5936,-4.46405 -5.74437,-6.04806 -4.14993,-1.60001 -7.71419,-3.55205 -9.18921,-7.90412 -1.80002,-5.29605 3.67204,-7.6001 6.05959,-5.39206 2.38902,2.20803 1.75622,7.6481 6.23237,7.34409 0,0 -0.36801,-1.16802 1.13282,-3.42404 1.50561,-2.27204 2.04483,-5.80808 0.12321,-8.2721 -1.92165,-2.43204 -6.0932,-5.56809 -5.88838,-8.04811 0.20149,-2.48004 2.74053,2.08003 7.09477,1.55202 0,0 -1.33121,-2.68804 -1.15359,-7.0561 0.17599,-4.36804 2.69601,-11.69613 7.83369,-19.02424 -7.26729,5.23209 -14.55069,7.85609 -18.91554,8.0961 -4.36107,0.24001 -7.0752,-1.07201 -7.0752,-1.07201 -0.4704,4.36805 4.12964,6.8481 1.65003,7.08809 -2.47675,0.224 -5.65947,-3.88806 -8.1384,-5.77607 -2.47585,-1.88804 -6.0132,-1.31202 -8.25241,0.22399 -2.24375,1.53604 -3.42356,1.18403 -3.42356,1.18403 -0.23429,4.48005 5.19077,3.77604 7.4298,6.12808 2.24004,2.36803 0.0157,7.8721 -5.30466,6.12807 -4.36566,-1.40802 -6.3689,-4.94407 -8.02202,-9.0721 -1.65141,-4.12807 -3.77194,-4.83208 -6.13127,-5.66408 -2.35792,-0.81603 -2.35792,-2.48004 -2.35792,-2.48004 0,0 -1.88903,1.66401 -0.23751,3.55205 1.65151,1.88801 3.42034,3.05603 3.18294,4.24005 -0.23601,1.16801 -2.00323,0.94401 -4.12665,-0.704 -2.12193,-1.64804 -4.24545,-0.72002 -7.54838,-0.59201 -3.29866,0.11199 -5.54329,0 -5.54329,0 1.65233,2.94403 0.23701,6.48009 1.0626,9.66413 0.82572,3.18403 4.71638,2.83203 5.8975,3.77604 1.1782,0.94402 0.2362,2.48003 -2.36165,3.07205 -2.59442,0.592 -4.12585,2.59203 -4.12585,2.59203 3.89086,0.592 5.77978,5.77606 9.31762,6.36807 3.53735,0.59201 6.01398,-3.29603 11.44066,-2.72004 5.42337,0.59202 5.07046,5.90408 1.2952,7.79211 -3.77175,1.88803 -7.31099,0.81601 -11.20334,0.23999 -3.89064,-0.59199 -5.42485,2.00003 -7.66719,4.00006 -2.23905,2.01604 -4.24536,2.96005 -4.24536,2.96005 0,0 1.65241,3.53604 4.01095,3.76004 2.35784,0.24001 4.36276,-2.00003 4.60007,0.36802 0.23439,2.35202 -2.47792,2.35202 -5.30629,4.35204 -2.83121,2.00002 -2.71492,4.12806 -2.59542,8.3841 0.11751,4.24007 -0.1195,4.70406 -0.70931,6.2401 -0.59072,1.53601 -0.03899,2.32002 -0.03899,2.32002 0,0 0.79219,0.54402 2.31543,-0.064 1.5267,-0.624 1.99393,-0.86401 6.24327,-0.80002 4.24767,0.064 6.36948,0.144 8.3361,-2.70402 1.96624,-2.86404 1.92884,-5.56808 4.29155,-5.37608 2.36085,0.208 0.14982,2.24003 0.41543,4.60806 0.26879,2.35204 3.82975,3.95206 3.82975,3.95206 0,0 0.9157,-2.01602 2.89063,-4.28806 1.97421,-2.27203 4.54855,-3.84004 3.90407,-7.72809 -0.64315,-3.87205 -1.75234,-7.3921 0.08347,-11.20015 1.83604,-3.79205 7.1377,-4.22406 7.80012,1.20002 0.66261,5.40806 -3.19225,7.93609 -2.55474,11.47213 0.6377,3.52005 5.85318,5.34407 6.49378,9.23212 0,0 1.98291,-1.56801 2.54053,-4.17604 0.55171,-2.59203 2.07363,-3.55205 3.03152,-2.40002 0.95943,1.16801 0.65942,5.07206 3.85468,5.85606 3.19543,0.76801 6.71257,-0.688 9.68392,0.92801 0,0 -0.14721,-2.24002 -0.07359,-5.55207 0.07038,-3.29605 0.9872,-5.42407 -0.69293,-7.53608 -1.68291,-2.09604 -1.94072,-3.87207 -0.7664,-4.11206 1.17611,-0.25601 2.38252,1.50401 4.28976,3.12004 1.91043,1.63202 3.53603,-0.28803 3.53603,-0.28803 z m 29.33639,-22.14427 c 1.80162,-2.32002 4.35045,-6.44809 6.58568,-13.16817 -1.14882,-0.33601 -2.41924,-0.384 -3.78726,-0.20799 -3.64324,0.448 -6.82567,8.3841 -2.79842,13.37616 z m 35.34924,-15.0242 c -2.12323,1.16802 -5.89765,1.16802 -5.89765,1.16802 2.12321,6.84809 -1.18084,11.32815 -1.18084,11.32815 -1.64961,-7.07208 -12.03054,-3.77605 -13.91378,-3.53604 -1.88802,0.24001 -3.06724,-2.36803 -3.06724,-2.36803 -0.7136,-1.82403 -1.68801,-3.07205 -2.86721,-3.88806 -0.77123,2.25603 -3.17766,8.65611 -7.09772,13.71218 5.10727,4.57606 15.41461,8.20809 24.82433,1.74403 11.32334,-7.7921 9.20011,-18.16025 9.20011,-18.16025 z m -12.18734,-20.20825 c 0,0 2.83044,-0.32001 7.54568,2.83205 0.27362,0.17599 0.55042,0.352 0.82881,0.528 -1.56482,-1.98404 -4.30406,-5.08806 -7.76008,-7.4401 0.0512,1.29601 -0.12482,2.65604 -0.61441,4.08005 z m -13.8386,1.56801 c -3.14723,1.88803 -2.20162,1.88803 -2.20162,3.15205 0,1.24802 -1.57442,2.51203 -1.57442,2.51203 0,0 4.08964,0 6.44967,-2.12803 0,0 2.59525,0.48002 1.17923,2.12803 -1.41443,1.64803 -11.08494,1.64803 -15.805,7.07209 l 1.88641,-0.464 c 0,0 6.84171,-4.72006 14.1554,-3.31204 7.3121,1.42401 16.27542,3.07205 19.57624,0.94401 0,0 -0.2352,1.64801 -4.24484,2.36803 -4.01126,0.70401 -9.19852,-0.48001 -13.44658,-1.18401 -4.24486,-0.70402 -5.34567,-0.40001 -5.34567,-0.40001 -8.17932,0.64 -11.63855,5.34407 -11.63855,5.34407 2.20161,0.64 2.83365,0 2.83365,0 8.17608,-7.5361 19.49783,5.98407 19.49783,5.98407 0,0 -9.43372,-6.28808 -13.83858,-5.98407 -4.40486,0.32001 -4.71846,2.52803 -4.71846,2.52803 6.28969,-1.88803 9.12332,1.24801 10.69295,3.45604 1.57282,2.19204 3.77607,2.83205 8.17771,2.20802 4.40166,-0.64001 6.29129,1.56805 6.29129,1.56805 1.57281,-6.9281 -3.77446,-6.9281 -5.97768,-9.12014 -2.20165,-2.20802 1.88962,-1.58401 1.88962,-1.58401 0,0 3.77446,3.77605 11.63533,1.26402 7.86252,-2.51204 7.2337,-10.68815 7.2337,-10.68815 -3.45924,2.19203 -7.8641,1.26403 -11.00813,-1.88802 -3.14404,-3.15204 -8.80492,-1.88803 -11.00655,-0.62401 -2.20483,1.24802 -1.57442,-1.58403 -1.57442,-1.58403 6.29128,-6.91208 1.88962,-10.36811 1.88962,-10.36811 -2.20322,6.59206 -7.86409,6.91207 -11.00815,8.80009 z m -0.72,-8.72011 c 0.77923,1.85603 1.52163,3.80806 2.10724,5.68008 2.58881,-1.02401 4.38565,-2.25602 6.78888,-4.81606 0,0 -3.06244,-1.47202 -8.89612,-0.86402 z m -2.33763,0.33602 c -3.69763,0.656 -7.8049,2.09602 -11.72494,4.92806 -11.32016,8.17609 -19.81467,29.87238 -8.1777,50.00064 0,0 5.66247,-3.13604 11.32333,-10.38414 0,0 -6.28968,-8.1761 -5.03206,-17.29621 1.84642,-13.37618 9.12012,-13.84018 10.06251,-16.03222 0.94402,-2.20802 1.25762,-3.15203 3.14565,-4.09605 0.52162,-0.256 1.40964,-0.54401 2.50404,-0.91202 -0.3744,-1.34399 -1.07683,-3.64802 -2.10083,-6.20806 z m -4.41127,-8.2721 c -1.27519,0.592 -2.67682,0.92799 -4.16804,0.92799 -2.44003,0 -4.64646,-0.89601 -6.38887,-2.33603 -11.27856,10.17612 -19.98905,21.55228 -21.8259,30.01639 -1.66081,7.69611 0.99843,12.49617 0.99843,12.49617 -3.16005,1.69602 -7.20491,-0.73602 -7.20491,-0.73602 0.62962,2.94404 6.0753,4.40005 6.94092,7.34408 0.8656,2.92806 -0.15682,5.7761 -1.66243,7.80812 -1.50722,2.01603 -0.7632,4.49605 -0.7632,4.49605 -3.76647,0.64 -5.9153,-1.216 -7.48252,-3.79204 -1.56883,-2.57603 -3.70305,-3.48805 -4.14546,-1.24803 -0.44209,2.25605 2.19873,5.52008 6.45958,6.75211 4.26436,1.23201 4.87558,2.76803 6.80841,6.16008 0.16158,0.28798 0.34239,0.54399 0.5184,0.8 5.52808,-0.832 9.35532,-1.96802 11.89615,-2.97604 -1.87203,-3.55203 -6.80169,-14.76818 -3.96325,-30.49639 2.70882,-15.0402 13.14578,-26.78434 27.36515,-29.34437 -0.93762,-2.03204 -2.06723,-4.09606 -3.38246,-5.87207 z m -11.71373,-9.13614 c 0,4.17607 3.37602,7.55211 7.54569,7.55211 4.16804,0 7.5473,-3.37604 7.5473,-7.55211 0,-4.16005 -3.37926,-7.53609 -7.5473,-7.53609 -4.16967,0 -7.54569,3.37604 -7.54569,7.53609 z M 77.14438,73.40894 c 0.17601,0.27198 0.35681,0.544 0.53601,0.83201 3.14563,4.70405 2.83203,7.53609 2.83203,7.53609 1.42244,-0.496 2.78244,-0.672 4.07045,-0.60802 C 82.22925,77.713 79.13321,74.96097 77.14438,73.40894 Z M 62.27019,83.66507 c -2.20003,-2.19203 -2.20003,-7.55209 -9.11902,-5.96808 0,0 2.20001,1.88801 1.57202,6.28807 -0.62831,4.40007 0.0014,6.60808 2.20143,8.17612 2.20183,1.56801 5.34557,4.40005 3.46105,10.68812 0,0 1.6672,-0.38398 2.51423,-4.72006 0.8856,-4.51204 -5.03297,-16.03221 -5.03297,-16.03221 0,0 12.58296,13.52019 5.03297,21.69629 0,0 -0.62971,0.62401 0,2.83203 0,0 4.71866,-3.45604 5.34677,-11.63212 0,0 0.3133,-1.10404 -0.39532,-5.3601 -0.7063,-4.24005 -1.88432,-9.42413 -1.17651,-13.44017 0.70301,-4.00004 2.35623,-4.24006 2.35623,-4.24006 -2.12342,3.29605 -0.4711,12.25616 0.94542,19.56826 1.41421,7.31209 -3.30165,14.16018 -3.30165,14.16018 l -0.47339,1.88801 c 5.42445,-4.72005 5.42445,-14.38417 7.07568,-15.8082 1.65282,-1.408 2.12483,1.18403 2.12483,1.18403 -2.12483,2.35203 -2.12483,6.44808 -2.12483,6.44808 0,0 1.25761,-1.568 2.51843,-1.568 1.25922,0 1.25922,0.94401 3.14565,-2.20804 1.88481,-3.15204 2.20003,-8.80012 8.8049,-11.00813 0,0 -3.46085,-4.40009 -10.37933,1.88801 0,0 -2.83204,0.62401 -1.57122,-1.56804 1.25922,-2.20801 2.51684,-7.87208 -0.62881,-11.00813 -3.14723,-3.15204 -4.08645,-7.55209 -1.88962,-11.00813 0,0 -8.1759,-0.64002 -10.69163,7.23208 -2.51534,7.85611 1.25651,11.63216 1.25651,11.63216 0,0 0.62961,4.09604 -1.57182,1.88803 z M 87.1157,86.1771 c -2.57442,2.40003 -4.11364,5.47207 -5.13766,8.0481 1.87042,0.592 3.82085,1.328 5.68488,2.11202 C 88.27094,90.49716 87.1157,86.1771 87.1157,86.1771 Z M 58.44353,98.35326 c -6.71578,2.24002 -10.85474,4.78405 -13.17217,6.59208 5.00627,4.01607 12.92838,0.832 13.38159,-2.80004 0.1709,-1.37601 0.12018,-2.64004 -0.20942,-3.79204 z m -14.56278,5.26405 c 5.06406,-3.92004 11.46573,-6.33608 13.71288,-7.1041 -0.80802,-1.16801 -2.06273,-2.14402 -3.89256,-2.86402 0,0 -2.59504,-1.18401 -2.35923,-3.07204 0.23442,-1.87203 3.53766,-12.25615 -3.53763,-13.90419 0,0 4.47976,-3.31203 11.32044,-1.18401 0,0 0,-3.77605 1.17831,-5.88807 0,0 -10.37843,-2.12803 -18.16282,9.18411 -6.46889,9.42411 -2.84226,19.72825 1.74061,24.83232 z m -11.48604,14.9602 c 20.12526,11.63215 41.82482,3.13604 50.00574,-8.17611 2.82883,-3.92005 4.26405,-8.0321 4.93126,-11.72815 -2.56323,-1.02402 -4.86726,-1.72803 -6.20967,-2.09601 -0.37442,1.088 -0.66402,1.98402 -0.92482,2.49602 -0.94402,1.88803 -1.88482,2.20804 -4.08646,3.15204 -2.20321,0.94401 -2.65922,8.20811 -16.0406,10.06411 -9.12051,1.24804 -17.29883,-5.04004 -17.29883,-5.04004 -7.23448,5.66408 -10.37662,11.32814 -10.37662,11.32814 z m -2.50703,4.52807 c -1.05391,2.62402 -2.22275,6.62406 -3.06264,12.46415 0.28069,0.17601 0.5586,0.36801 0.8712,0.54401 3.42036,1.88801 4.95316,2.48003 6.25147,6.72009 1.29553,4.24005 4.59859,6.84809 6.83929,6.36807 2.24065,-0.464 1.29683,-2.59202 -1.296,-4.12805 -2.59622,-1.53602 -4.48217,-3.64804 -3.89316,-7.4241 0,0 2.47824,0.70403 4.48126,-0.83202 2.00473,-1.52 4.83446,-2.59202 7.7846,-1.76001 2.94674,0.816 4.48275,6.24008 7.4289,6.8321 0,0 -2.47423,-4.00005 -0.8241,-7.18412 0,0 4.83585,2.59206 12.50016,0.81604 8.45889,-1.95204 19.72305,-10.83214 29.75838,-22.2723 -1.31041,-1.696 -2.12003,-3.79206 -2.12003,-6.11208 0,-1.47202 0.33119,-2.84804 0.89601,-4.11205 -1.75363,-1.28001 -3.77125,-2.40004 -5.77447,-3.32804 -2.56805,14.22418 -14.31539,24.65632 -29.34288,27.37637 -15.72681,2.83203 -26.95815,-2.09604 -30.49799,-3.96806 z m -11.09775,-92.1932 -7.78299,-5.66408 -7.311,8.9601 7.311,5.42409 c 0,0 4.00945,-5.18406 7.78299,-8.72011 z m 1.88732,21.45627 c 0,0 -5.01397,17.44023 1.88922,17.69623 6.6017,0.24001 0.7032,-15.10418 -1.88922,-17.69623 z m 6.84079,-12.73616 c 0,0 -3.77494,-4.40005 -7.0766,-7.31209 -4.51256,4.33606 -6.79549,7.5841 -7.78459,8.9601 2.65013,2.11205 5.20648,4.35208 7.31269,6.36809 0,0 2.62813,-3.72804 7.5485,-8.0161 z M 40.0199,33.96841 c 0,0 -7.5487,4.72007 -8.7276,6.36809 0,0 4.94775,8.51212 8.2556,9.2001 4.48135,0.94402 9.67202,-4.48004 0.472,-15.56819 z m -6.37049,-11.31213 7.7829,8.72011 c 5.35158,-1.69603 7.0797,-3.50406 7.0797,-5.88808 0,-3.77604 -6.84209,-7.08811 -14.8626,-2.83203 z m -2.12512,1.20002 c -4.19525,2.46403 -7.42659,5.10407 -9.28912,6.76807 l 7.01419,7.76012 C 32.315,36.25645 34.12112,34.68843 38.6041,31.85638 35.68774,28.16035 32.4291,24.84831 31.52429,23.8563 Z M 10.68903,8.81609 c 0,3.64807 2.95852,6.60809 6.60548,6.60809 3.64853,0 6.60639,-2.96002 6.60639,-6.60809 0,-3.64803 -2.95786,-6.60808 -6.60639,-6.60808 -3.64696,0 -6.60548,2.96005 -6.60548,6.60808 z"
                   style="fill:#000000;fill-opacity:1;fill-rule:nonzero;stroke:#000000;stroke-width:0.3985;stroke-linecap:butt;stroke-linejoin:miter;stroke-miterlimit:10;stroke-dasharray:none;stroke-opacity:1"
                   id="path42" /></g></g></g></g></g></g></g></svg>
