<?xml version="1.0" encoding="UTF-8" standalone="no"?>
<svg
   xmlns:dc="http://purl.org/dc/elements/1.1/"
   xmlns:cc="http://creativecommons.org/ns#"
   xmlns:rdf="http://www.w3.org/1999/02/22-rdf-syntax-ns#"
   xmlns:svg="http://www.w3.org/2000/svg"
   xmlns="http://www.w3.org/2000/svg"
   xmlns:sodipodi="http://sodipodi.sourceforge.net/DTD/sodipodi-0.dtd"
   xmlns:inkscape="http://www.inkscape.org/namespaces/inkscape"
   version="1.1"
   id="svg2"
   xml:space="preserve"
   width="57.203606"
   height="39.509487"
   viewBox="0 0 57.203605 39.509487"
   sodipodi:docname="vectorian115.pdf"><metadata
     id="metadata8"><rdf:RDF><cc:Work
         rdf:about=""><dc:format>image/svg+xml</dc:format><dc:type
           rdf:resource="http://purl.org/dc/dcmitype/StillImage" /></cc:Work></rdf:RDF></metadata><defs
     id="defs6" /><sodipodi:namedview
     pagecolor="#ffffff"
     bordercolor="#666666"
     borderopacity="1"
     objecttolerance="10"
     gridtolerance="10"
     guidetolerance="10"
     inkscape:pageopacity="0"
     inkscape:pageshadow="2"
     inkscape:window-width="640"
     inkscape:window-height="480"
     id="namedview4" /><g
     id="g10"
     inkscape:groupmode="layer"
     inkscape:label="vectorian115"
     transform="matrix(1.3333333,0,0,-1.3333333,-2.0437567,40.467933)"><g
       id="g12"
       transform="translate(72,-41.13)"><g
         id="g14"
         transform="translate(-70.269,42.047)"><g
           id="g16"><g
             id="g18"><path
               d="m 35.46664,5.06505 c 0,0 1.18091,2.80585 -1.62562,3.98744 0,0 -0.14681,3.25055 1.10791,5.16917 0,0 0.96031,-0.66319 2.06814,-0.22061 1.1079,0.44191 1.92072,1.92135 1.1816,3.61795 0,0 2.06753,0.14821 3.10236,-3.10093 1.03338,-3.24913 -0.96032,-9.45302 -5.83439,-9.45302 m -0.51771,0 c 0,0 -2.14201,0 -2.65833,1.92062 l 1.92063,-0.29642 c 0,0 -0.1489,1.32925 -0.37021,1.84624 0,0 0.88591,0 1.32922,-1.40361 0.4439,-1.40222 -0.22131,-2.06683 -0.22131,-2.06683 M 30.59189,1.372 C 27.34204,0.4116 24.0929,0.7081 22.54248,1.6677 c 0,0 1.47672,0.95962 1.47672,2.51144 0,0 1.10781,2.43703 7.9019,2.65834 0,0 -0.07381,-1.55112 2.80583,-2.29013 0,0 -0.88591,-2.21503 -4.13504,-3.17535 m -8.34511,0.59141 c 0,0 -1.62494,1.2547 -1.69873,1.84564 -0.07381,0.59079 -0.07381,0.9596 0.66461,0.5177 0.7383,-0.44331 1.10712,-1.03482 1.10712,-1.03482 l 1.2561,0.81281 c 0,0 0.07381,-1.32982 -1.3291,-2.14133 M 16.6343,0.9287 c -3.61935,0.2964 -6.94219,2.51142 -7.97631,3.61865 0,0 1.99373,0.14819 3.02785,2.51143 0,0 4.94846,0.22131 9.08352,-2.29013 0,0 -0.59012,-0.07311 -0.51642,-0.73772 0.07311,-0.66451 0.73841,-1.77171 1.69802,-2.28943 0,0 -1.69802,-1.10722 -5.31666,-0.8128 M 8.21469,4.99065 c 0,0 -1.84622,3.32355 0.88591,4.50445 0,0 0.54161,-1.25401 -0.07309,-3.10084 0,0 1.10719,0.66452 2.06751,0.59141 0,0 -0.88592,-2.14262 -2.88033,-1.99502 M 2.52791,7.50137 c -2.51012,2.95545 -1.99381,6.2033 -0.73841,8.42103 0,0 0.81281,-1.92135 3.24985,-1.25611 0,0 2.95405,-1.18234 3.83995,-4.72649 0,0 -1.18162,-0.51709 -1.55041,-1.9213 -0.36962,-1.40233 0.44258,-3.02785 0.44258,-3.02785 0,0 -2.73212,-0.4433 -5.24356,2.51072 m 2.36325,7.45929 c 0,0 -1.92003,-0.36877 -2.73215,1.03484 0,0 1.25542,1.77171 3.02783,0.8858 0,0 -0.73829,-0.6645 -2.36323,-0.6645 z m -0.88591,0.96174 1.40291,0.3681 c 0,0 0.2951,-0.5914 -0.14751,-0.81342 z m -3.17537,4.23264 c 0.34422,3.20005 3.83997,5.26746 6.94159,4.77576 0,0 -1.77251,-2.95343 0.54233,-4.43014 0,0 -0.444,-2.61045 -2.90564,-3.39734 0,0 -2.01833,1.3777 -3.39664,-0.69052 0,0 -1.52722,0.5423 -1.18164,3.74224 m 9.84714,2.41243 -2.06822,0.83813 c 0,0 0.2459,-1.72394 -0.34491,-2.56136 0,0 -1.37832,1.62564 -0.19671,3.64396 0,0 0.93573,0.6393 2.60984,-1.92073 m 3.05244,5.81047 c 3.19994,0.83602 5.66156,-0.0997 5.95728,-1.13241 0.2958,-1.03481 -1.03473,-3.25053 -3.29894,-4.43216 -2.26564,-1.1816 -5.21838,-0.34349 -5.21838,-0.34349 0,0 -0.6406,1.57502 -2.60983,2.60913 0,0 1.96923,2.46094 5.16987,3.29893 m -4.72655,-8.12449 0.04849,2.65964 1.72393,-0.93572 c 0,0 0.09839,-1.77313 -1.77242,-1.72392 M 9.69211,9.4951 c 0,0 1.40291,-0.2213 1.62422,-1.99373 0,0 -0.88591,0 -1.69873,-0.5157 0,0 0.29582,1.69873 0.07451,2.50943 M 22.17297,5.80347 c 1.03412,0 1.25542,-0.96042 1.25542,-0.96042 0,0 -0.07381,-0.66391 -1.10861,-1.034 0,0 -0.95892,1.10779 -1.47601,1.3291 0,0 0.29508,0.66532 1.3292,0.66532 M 33.1764,8.53549 c 0,0 0.36892,-0.73699 0.59083,-1.47671 0,0 -0.88653,0.345 -1.40293,0.44259 0,0 -0.3695,0.96032 0.8121,1.03412 m 1.55053,7.3118 c 0,0 0.73971,0 1.47732,0.29501 l -1.03401,-0.66522 z m -6.64578,3.02783 c 0,0 1.77241,1.62554 -0.0738,3.61867 0,0 1.10721,0.95958 4.28325,0.37018 3.17604,-0.5922 4.72647,-3.47115 5.24288,-4.72655 0,0 -2.21504,0.14749 -2.95413,-1.77312 0,0 -3.69237,-0.1475 -6.4982,2.51082 m -0.2958,0.22133 -0.66461,1.40421 -1.32982,-0.81342 c 0,0 -0.5901,1.84683 1.84693,2.65834 0,0 1.3291,-1.55052 0.1475,-3.24913 m -2.06753,-0.22133 1.18161,1.03403 0.59091,-1.18092 c 0,0 -0.96042,-0.96102 -1.77252,0.14689 m -6.64649,-0.88591 c 0,0 0.22132,1.69803 -2.80653,1.69803 0,0 0.7384,2.29013 3.98814,3.54485 3.24915,1.25611 6.35079,0.29509 6.94159,-0.66462 0,0 -3.02783,-1.10781 -1.77243,-3.24914 0,0 -2.21501,-1.47731 -6.35077,-1.32912 m -0.7438,-1.00201 c -0.53612,0.89541 -1.25063,1.29771 -1.25063,1.29771 0.3183,-0.4548 0.57991,-1.0381 0.73432,-1.4227 -0.15781,-7.1e-4 -0.33542,0.0253 -0.53692,0.09089 -1.18162,0.39411 -1.18162,2.26554 -1.18162,2.26554 0,0 1.96984,0.6899 2.65834,-1.18232 h -0.6885 l 0.7875,-0.4917 c 0,0 -0.14609,-0.36 -0.52249,-0.55742 m 0.3251,-3.97174 c 0,0 -1.87074,0.29438 -2.26483,-1.18163 -0.39412,-1.47742 0.4931,-2.36322 0.4931,-2.36322 0,0 -4.43215,0 -4.43215,4.03595 0,4.03806 2.46234,5.71208 3.15153,5.71208 0,0 -0.49251,-2.65834 2.36324,-2.75664 0,0 1.28061,-0.78892 0.68911,-3.44654 m 0.39409,-1.28002 -0.9842,-0.68982 0.59011,0.98491 c 0,0 0.49251,0.1967 0.39409,-0.29509 m 8.07471,-1.87141 c 0,0 -0.6891,-1.47742 -4.43146,-1.77183 -3.74154,-0.29642 -5.90808,1.2793 -5.90808,2.85433 0,1.57582 1.08322,1.67481 1.57573,1.67481 0.4924,0 0.12289,-0.17081 0.12289,-0.17081 l -1.1078,-1.99501 c 0,0 5.71138,2.85432 9.74872,-0.59149 m 10.19142,4.87604 c -1.1823,-1.0354 -2.06891,-0.07378 -2.06891,-0.07378 0,0 1.25612,1.55051 2.06891,1.91861 0,0 -1.25539,0.0752 -1.99441,-0.0737 0,0 0.73902,1.77371 2.43763,1.1809 0,0 0.73842,-1.91791 -0.44322,-2.95203 m 5.16908,-2.51142 c -0.3941,5.51326 -4.23475,5.71067 -4.23475,5.71067 0.09909,0.6892 -1.57502,4.82486 -4.92318,5.61247 -3.34753,0.7888 -5.61245,-0.78761 -5.61245,-0.78761 0,0 -2.65894,3.44654 -6.59731,1.57641 -4.45532,-2.11731 -5.31724,-4.82616 -5.31724,-4.82616 -1.96923,0 -5.11998,-3.34683 -3.64397,-7.1875 1.47733,-3.84063 5.02227,-3.15144 5.02227,-3.15144 0,0 2.68014,-2.64123 5.90807,-2.16582 3.34755,0.4917 6.6957,3.05104 4.03737,5.71068 -2.65824,2.65973 -6.893,0.19741 -6.893,0.19741 1.87011,0.7882 4.13635,1.18101 6.10548,-0.002 1.96983,-1.18032 1.18161,-2.95206 1.18161,-2.95206 -4.23404,4.82349 -8.074,1.87013 -8.074,1.87013 0,0.59012 -0.59081,0.78751 -0.59081,0.78751 1.18163,2.56064 -0.3941,4.13568 -0.3941,4.13568 0.68922,0.09838 0.78821,0.88589 0.78821,0.88589 3.24914,-1.37902 6.10487,0.88721 6.10487,0.88721 1.67413,-1.08391 2.46164,0 2.46164,0 2.65904,-3.54553 6.59729,-2.65962 6.59729,-2.65962 l 0.4918,-0.78684 C 32.2414,11.93283 33.02962,8.7814 33.02962,8.7814 31.84729,8.9781 31.84729,7.60048 31.84729,7.60048 27.02313,8.1892 23.77258,5.23717 23.77258,5.23717 c 0,0 -0.59078,0.9843 -1.57571,0.9843 -0.98351,0 -1.57503,-0.78821 -1.57503,-0.78821 -4.62816,3.54484 -9.0589,2.06741 -9.0589,2.06741 0.0983,2.06894 -1.96924,2.26566 -1.96924,2.26566 -0.59079,4.03804 -4.03794,5.51466 -4.03794,5.51466 0.5914,0.5902 0.09899,1.08191 0.09899,1.08191 2.46235,0.98491 3.24915,3.54564 3.24915,3.54564 2.36322,0 2.16652,1.96912 2.16652,1.96912 6.79399,-1.87014 9.35472,3.84136 9.05963,5.31668 -0.2964,1.47731 -3.54555,2.75874 -7.3855,1.57641 C 8.9039,27.58974 8.3138,25.3249 8.3138,25.3249 c 0,0 -5.61309,1.08252 -7.3856,-2.46162 C -1.3619,18.28293 1.91312,16.2653 1.91312,16.2653 1.1249,15.96948 -1.73071,10.84962 1.519,7.00967 4.76884,3.16971 8.4121,4.54665 8.4121,4.54665 c 0,0 1.77241,-3.05175 5.61238,-4.13505 4.71215,-1.3291 8.27139,0.9856 8.27139,0.9856 0,0 2.85576,-1.96979 7.4832,-1.08392 4.85698,0.92962 5.31737,4.33307 5.31737,4.33307 3.15074,-0.39411 7.7789,2.06822 7.38549,7.5823"
               style="fill:#000000;fill-opacity:1;fill-rule:nonzero;stroke:#000000;stroke-width:0.3985;stroke-linecap:butt;stroke-linejoin:miter;stroke-miterlimit:10;stroke-dasharray:none;stroke-opacity:1"
               id="path20" /></g></g></g></g></g></svg>
