<?xml version="1.0" encoding="UTF-8" standalone="no"?>
<svg
   xmlns:dc="http://purl.org/dc/elements/1.1/"
   xmlns:cc="http://creativecommons.org/ns#"
   xmlns:rdf="http://www.w3.org/1999/02/22-rdf-syntax-ns#"
   xmlns:svg="http://www.w3.org/2000/svg"
   xmlns="http://www.w3.org/2000/svg"
   xmlns:sodipodi="http://sodipodi.sourceforge.net/DTD/sodipodi-0.dtd"
   xmlns:inkscape="http://www.inkscape.org/namespaces/inkscape"
   version="1.1"
   id="svg2"
   xml:space="preserve"
   width="56.37244"
   height="39.440891"
   viewBox="0 0 56.37244 39.440892"
   sodipodi:docname="vectorian103.pdf"><metadata
     id="metadata8"><rdf:RDF><cc:Work
         rdf:about=""><dc:format>image/svg+xml</dc:format><dc:type
           rdf:resource="http://purl.org/dc/dcmitype/StillImage" /></cc:Work></rdf:RDF></metadata><defs
     id="defs6"><clipPath
       clipPathUnits="userSpaceOnUse"
       id="clipPath32"><path
         d="M 0,0 H 42.27933 V 29.58067 H 0 Z"
         id="path30" /></clipPath></defs><sodipodi:namedview
     pagecolor="#ffffff"
     bordercolor="#666666"
     borderopacity="1"
     objecttolerance="10"
     gridtolerance="10"
     guidetolerance="10"
     inkscape:pageopacity="0"
     inkscape:pageshadow="2"
     inkscape:window-width="640"
     inkscape:window-height="480"
     id="namedview4" /><g
     id="g10"
     inkscape:groupmode="layer"
     inkscape:label="vectorian103"
     transform="matrix(1.3333333,0,0,-1.3333333,0,39.440892)"><g
       id="g12"
       transform="translate(72,-42.42)"><g
         id="g14"
         transform="translate(-72,42.42)"><g
           id="g16"><g
             id="g18"><path
               d="m 11.82144,8.38579 c 0,0 -3.02783,-1.40363 -5.76068,-0.2964 -2.73274,1.10781 -5.55368,4.43895 -2.73274,10.70913 2.65904,5.90877 12.11206,9.67433 16.83853,4.50446 0,0 -1.69933,1.84692 -5.53857,1.99382 C 10.78734,25.44502 7.24237,23.525 4.14082,18.79852 1.0385,14.07196 3.47623,9.27171 6.28206,8.38579 c 2.80724,-0.88649 5.53938,0 5.53938,0"
               style="fill:#000000;fill-opacity:1;fill-rule:nonzero;stroke:#000000;stroke-width:0.3985;stroke-linecap:butt;stroke-linejoin:miter;stroke-miterlimit:10;stroke-dasharray:none;stroke-opacity:1"
               id="path20" /><path
               d="m 12.11644,9.04971 c 0,0 -1.84624,-1.25541 -5.02086,-0.29503 -3.17604,0.95963 -4.80096,4.94779 -1.92064,9.97074 2.87955,5.02087 8.05013,6.49758 9.97003,5.75988 0,0 -5.24354,-0.0744 -8.93661,-5.39108 C 2.51591,13.77626 4.80534,7.20418 12.11644,9.04971"
               style="fill:#000000;fill-opacity:1;fill-rule:nonzero;stroke:#000000;stroke-width:0.3985;stroke-linecap:butt;stroke-linejoin:miter;stroke-miterlimit:10;stroke-dasharray:none;stroke-opacity:1"
               id="path22" /><path
               d="m 11.96893,9.49371 c 0,0 -3.10232,-1.03552 -4.94845,1.47602 -1.84624,2.51144 -1.50272,6.21407 1.69931,9.89631 2.95335,3.39736 8.04942,3.61867 9.96943,1.99445 0,0 -1.77252,1.25461 -5.46487,0.36879 C 9.5312,22.34337 6.98967,18.83951 6.50407,15.03168 6.06076,11.56053 9.01491,9.1972 11.96893,9.49371"
               style="fill:#000000;fill-opacity:1;fill-rule:nonzero;stroke:#000000;stroke-width:0.3985;stroke-linecap:butt;stroke-linejoin:miter;stroke-miterlimit:10;stroke-dasharray:none;stroke-opacity:1"
               id="path24" /><path
               d="m 21.64326,4.76645 c 0,0 0.07381,-0.66451 0.88591,-1.25533 0.81272,-0.5908 1.47731,-1.10791 1.69933,-1.7725 H 23.637 c 0,0 -0.14751,0.88589 -1.25542,1.40301 -1.10782,0.5177 -1.32912,1.62482 -1.32912,1.62482 z"
               style="fill:#000000;fill-opacity:1;fill-rule:nonzero;stroke:#000000;stroke-width:0.3985;stroke-linecap:butt;stroke-linejoin:miter;stroke-miterlimit:10;stroke-dasharray:none;stroke-opacity:1"
               id="path26" /><g
               id="g28"
               clip-path="url(#clipPath32)"><path
                 d="m 38.77689,20.00475 h 1.42822 l -1.08401,1.57501 c 0,0 2.26492,-1.52521 3.24983,-1.72324 0,0 -2.16653,-0.58948 -3.29834,-1.72261 0,0 0.7384,1.18163 1.03341,1.47673 h -1.87013 z"
                 style="fill:#000000;fill-opacity:1;fill-rule:nonzero;stroke:#000000;stroke-width:0.3985;stroke-linecap:butt;stroke-linejoin:miter;stroke-miterlimit:10;stroke-dasharray:none;stroke-opacity:1"
                 id="path34" /><path
                 d="m 37.84117,20.34966 c -0.29579,-0.29511 -1.23082,-0.34491 -1.23082,-0.34491 0,0 -0.39339,0.1967 0.04981,0.34491 0.44261,0.1475 0.93512,0.34489 0.93512,0.34489 0,0 0.54159,-0.04981 0.24589,-0.34489 M 36.11856,16.87851 C 35.01074,14.95789 31.6871,13.40735 31.7616,10.82281 l -6.204,7.0898 c 0,0 0.81212,1.03342 1.99384,1.25542 1.18161,0.2206 2.88023,-0.07381 2.88023,-0.07381 0,0 0.36891,0.07381 1.0341,0.29441 0.66463,0.22201 2.21506,0.51841 2.21506,0.51841 0,0 1.32991,-0.37019 1.77242,-0.37019 0.4433,0 1.2561,-0.22131 1.2561,-0.22131 0,0 0.17693,-1.10581 -0.59079,-2.43703 M 22.38158,16.731 c -1.77243,-0.3688 -2.58454,0.66461 -3.98745,0.2957 0,0 0.9603,0.44261 1.25542,0.7384 0.2957,0.29502 0.66449,0.44192 1.1078,0.44192 0.44262,0 1.40293,-0.36881 1.99372,-0.2206 l 0.81212,0.739 2.14203,0.1475 c 0,0 -1.55112,-1.77311 -3.32364,-2.14192 m 13.68777,4.60286 c 0.44261,0.2459 0.93512,0.39479 0.93512,0.39479 0,0 0.7383,0.14682 0.64,-0.19738 l -0.5417,-0.099 -0.59081,-0.24591 c 0,0 0.0492,-0.29509 -0.3934,-0.44262 -0.44331,-0.14888 -0.49312,0.34491 -0.04921,0.59012 m 1.77182,-0.04851 c 0.099,-0.14819 0.24651,-0.44259 -0.93512,-0.54161 0,0 -0.24589,0.14753 0.14821,0.34491 0.39342,0.1967 0.68851,0.34362 0.78691,0.1967 M 18.31963,8.6071 c -0.36881,1.476 -0.22121,2.58522 0.5171,2.51152 0.739,-0.07448 2.28952,-1.99512 0.59149,-4.65274 0,0 -0.739,0.6646 -1.10859,2.14122 m 4.57905,-1.40292 c 0,0 -0.5908,0.88591 -1.25542,2.06753 -0.66461,1.1816 -0.51701,2.14121 0.22132,2.14121 0.73829,0 1.55112,-1.03342 1.0341,-4.20874 m -7.6069,3.17532 c 0.1483,1.84624 1.69942,1.69873 1.40364,-0.0737 -0.29502,-1.77312 -0.96033,-2.5859 -0.96033,-2.5859 0,0 -0.59012,0.81278 -0.44331,2.6596 m 6.64659,12.99799 c 0,0 1.03401,0.2951 1.18161,-0.07379 0.14821,-0.37021 0.5908,-0.81282 0.8865,-0.81282 l 0.73842,-0.14681 c 0,0 0.52452,-0.1318 0.70823,-0.4563 -0.41453,-0.54231 -1.43435,-1.84962 -1.66865,-1.90762 -0.29499,-0.07311 -1.55041,0.8121 -2.28872,0.8121 -0.0472,0 -0.09911,-0.0027 -0.15511,-0.0096 -0.14889,0.57581 -0.515,1.22402 -0.70761,1.53952 0.24451,0.1346 0.89201,0.5232 1.30533,1.05532 m 1.47733,3.81465 c 0.49249,0.0991 1.6249,0.0991 1.87081,-0.04851 0.2466,-0.14679 0.44332,-0.88579 0.44332,-0.88579 0,0 -0.34502,0.09899 -0.44332,-0.14831 -0.0977,-0.24521 0.2466,-0.29431 0.2957,-0.4924 0.04921,-0.196 0.29511,-0.64002 0.29511,-0.64002 0,0 -0.44332,-0.44261 -0.78752,-0.3941 L 24.8439,24.3863 25.434,24.2395 c 0,0 0.19742,-0.2473 -0.0485,-0.2473 -0.24648,0 -0.7383,-0.19671 -0.78821,-0.39271 -0.04919,-0.19741 0.73842,-0.44402 0.98492,-0.39481 0,0 -0.8865,-0.5908 -1.52651,0 0,0 -0.93572,0.09902 -0.93572,0.8374 0,0 0.54232,0.04981 0.5908,0.29503 0,0 -1.18161,-0.04851 -1.37831,0.64 -0.1968,0.68989 0.59081,2.11742 1.08323,2.21503 m 14.54907,-6.3261 c 0.3688,0.14823 0.0744,0.59142 0.0744,0.59142 0.1469,0.44261 -0.66521,0.51642 -0.66521,0.51642 0,0 -1.157,0.19738 -2.14201,-1.18163 0,0 0,-0.29509 0.29579,-0.36879 0,0 -0.59082,-0.0738 -1.32982,0.14681 -0.7384,0.22198 -1.62491,-0.07311 -3.10162,-0.59012 0,0 -2.36325,0.0744 -3.10167,0.0744 -0.739,0 -1.84679,-0.29572 -2.58452,-0.81282 H 24.7449 c 0,0 -0.5908,-0.14751 -1.03412,0 0,0 -0.44259,0.1469 -0.7384,-0.2957 -0.295,-0.4433 -0.36951,-0.66461 -0.95962,-0.4433 -0.5915,0.22269 -0.7383,0.59149 -1.84621,0.29579 -1.10852,-0.29579 -2.73275,-2.73282 -6.35138,-1.99372 0,0 -0.88593,1.18162 0,2.06812 0.8858,0.88591 2.73273,1.69735 3.17603,1.99312 0.4426,0.29572 1.10722,1.62484 1.84553,1.62484 0.47612,0 1.04161,-0.09151 1.38582,-0.15641 0.32449,-0.3961 0.5908,-1.21711 0.71101,-1.63371 -0.85032,-0.21861 -2.06883,-0.78142 -2.53943,-1.01642 -0.59082,-0.29571 -1.62492,-0.6645 -2.43773,-0.6645 -0.81143,0 -1.55042,-0.22132 -1.77174,-0.59081 0,0 0.51631,0.0737 0.81212,0.14819 0.295,0.0737 1.47672,0.2957 2.06752,0.2957 0.59082,0 2.14194,0.73772 2.88095,1.03412 0.73769,0.29441 1.47601,0.59012 2.14131,0.36881 0.66451,-0.2213 1.77244,-0.739 1.77244,-0.739 l 1.99372,2.14191 c 0,0 0.88661,-0.36949 1.77243,-0.29569 0.8859,0.07439 3.61933,1.18161 5.46486,0.07439 0,0 -0.2957,0.96042 -2.21573,0.81282 -1.91993,-0.14821 -3.98744,-0.96101 -4.72644,-0.22261 l 5.31793,5.90878 c 0,0 0.88593,-2.14123 2.58455,-2.80655 2.19733,-0.85989 2.28952,-2.36322 2.28952,-2.36322 0,0 -0.96029,-0.96033 -1.94452,-0.96033 0,0 0.59083,-0.29508 1.18163,0.04912 0.5901,0.3443 1.08321,0.5902 1.42752,0.49251 0.34419,-0.0977 0.36949,-0.3941 0.36949,-0.3941 0.22132,0.739 -0.36949,0.88661 -0.36949,0.88661 -0.88591,2.36251 -1.32922,2.51073 -3.02857,3.32353 -1.69871,0.81282 -2.58451,2.43703 -2.58451,2.43703 -0.95972,-1.32981 -5.75997,-6.49898 -5.75997,-6.49898 l -0.51699,0.36881 c 1.10778,0.59082 0.51699,0.96101 0.51699,1.25541 0,0.29579 0.81211,0.81282 0.81211,0.81282 -0.22132,0.29509 -0.66461,1.18159 -0.66461,1.18159 l 0.222,0.36883 -0.222,0.8128 c 1.55052,0 1.55052,1.1823 1.55052,1.1823 -0.51641,-0.22258 -0.88591,-0.22258 -2.28884,-0.22258 -1.4029,0 -2.58453,0.0744 -3.02784,-1.25543 -0.4433,-1.32982 0.22131,-2.43703 0.22131,-2.43703 -1.10782,0.07381 -1.47672,1.47741 -1.10782,3.10165 0.36951,1.62493 2.28945,1.92063 3.61865,1.62493 1.32912,-0.29512 1.69863,0 2.21573,0 0.517,0 0.59081,-0.44332 0.59081,-0.44332 0.29501,1.10782 -0.4433,1.10782 -0.4433,1.10782 -0.59082,-0.8852 -1.84622,-0.29501 -1.84622,-0.29501 -2.73275,0.51701 -4.80028,-0.59019 -4.80028,-2.80653 0,-2.21573 1.40294,-2.80654 1.40294,-2.80654 l -1.03342,-0.95971 c -0.81282,0.14761 -1.32983,0.22061 -1.32983,0.22061 -1.62421,1.7738 -2.95343,1.32991 -2.95343,1.32991 1.10722,0 1.69873,-0.66391 2.14132,-0.9597 0.44321,-0.2957 0,-0.44321 0,-0.44321 -0.44259,-0.22131 -0.88591,-0.44261 -1.18172,-1.03414 -0.29499,-0.59019 -2.36253,-1.6249 -2.36253,-1.6249 0,0 -1.40361,-0.07381 -1.99441,-1.84624 -0.59082,-1.77171 0.517,-2.43701 0.517,-2.43701 h 2.51083 c 1.25541,0 2.58524,1.03412 2.58524,1.03412 0,0 1.47602,-0.51642 2.28883,-0.66463 0.81212,-0.14819 1.47671,-0.36949 1.47671,-0.36949 -1.10791,-1.62493 -1.92002,-2.21573 -3.98756,-1.91994 -2.06811,0.29501 -3.10153,1.69862 -3.10153,1.69862 l 0.44262,-0.66459 c -2.51083,-1.18164 -3.39675,-4.06185 -3.39675,-4.06185 -1.99443,-0.66464 -2.73345,0 -3.39734,0.88649 -0.66461,0.88593 -1.55113,5.31667 1.25541,8.49273 2.46502,2.78874 4.87197,2.73002 5.42186,2.67334 C 8.99031,23.94778 6.80736,15.89839 8.27579,12.44633 9.6241,9.2792 12.48595,10.52782 12.48595,10.52782 11.67314,7.13048 14.11017,6.02257 14.11017,6.02257 13.74136,4.69345 14.03647,3.21533 14.03647,3.21533 12.48595,5.13606 10.86104,4.76715 9.90143,4.47075 8.94041,4.17635 7.24237,4.02814 6.28206,4.39763 5.32246,4.76715 4.65785,5.13606 4.28763,5.28354 3.91884,5.43105 2.88472,5.06226 2.88472,4.02814 2.88472,2.99472 2.29462,2.69902 1.92511,2.47772 1.55562,2.25572 1.6293,1.9599 1.6293,1.9599 c 2.58522,1.25543 1.47744,1.92073 1.84693,2.51085 0.3688,0.59151 0.95962,0.44459 0.95962,0.44459 2.58463,-1.70001 5.39118,-0.8134 5.90817,-0.5921 0.51702,0.22191 2.51084,0 3.02785,-1.03412 0.517,-1.0334 1.40291,-0.9597 1.40291,-0.9597 -0.81142,1.18231 -0.1468,3.61934 -0.1468,3.61934 0,0 1.32842,-0.14819 2.36322,2.43703 1.03341,2.58465 0.22131,3.83995 -0.5908,3.83995 -0.81281,0 -1.92072,-0.81282 -1.92072,-2.87964 0,-2.06882 1.25541,-2.14192 1.25541,-2.14192 -1.69862,-1.55182 -3.24914,0.2958 -2.73204,3.10162 0.517,2.80585 2.87965,4.35767 2.87965,4.35767 2.06812,-2.36324 5.09595,-1.32982 5.09595,-1.32982 3.98755,-0.36879 5.02227,-3.69315 4.72657,-5.39177 -0.29511,-1.69801 -2.21573,-1.40363 -2.21573,-1.40363 0,0 0.4433,-0.58949 1.69932,-0.29438 0,0 1.10721,-0.96033 1.18091,-3.32355 0.07381,-2.36333 -1.40352,-2.87962 -7.9025,-0.4426 0,0 1.40363,2.28943 0.66521,2.95333 0,0 0.07381,0.22131 0.59082,0 0.5164,-0.22129 1.69801,-1.2547 3.76624,1.1072 1.18162,3.17606 -0.44332,5.53998 -1.69872,5.31868 -1.25543,-0.222 -0.95961,-1.99443 -0.44261,-3.32425 0.51642,-1.3285 1.62422,-1.77241 1.62422,-1.77241 -1.47662,-2.06682 -3.17534,-0.9597 -3.17534,-0.9597 1.10791,0.9597 1.55112,1.99373 1.03412,4.06193 -0.51712,2.06826 -3.24916,3.24915 -3.17604,0 0.07438,-3.24983 1.62492,-3.76544 1.62492,-3.76544 -1.1072,-1.92071 -3.47044,0 -3.47044,0 C 16.6217,4.02814 18.68922,4.84094 18.68922,4.84094 16.4004,-0.10748 14.99678,0.7046 13.37187,1.1485 c -1.62424,0.44261 -2.88035,0.8114 -3.32355,0.8114 -0.44261,0 -2.36265,0.29582 -2.95344,0.66461 -0.59081,0.37021 -0.96031,0.51712 -1.84694,0 C 4.36215,2.1075 3.32802,1.5173 2.44144,1.3705 1.55562,1.2223 1.0385,0.7783 0.74348,0.7783 c -0.29578,0 0.22132,0.81281 0.22132,0.81281 0,0 -0.5171,-0.29511 -0.88591,-0.88651 -0.36948,-0.59022 0.66459,-0.51641 0.88591,-0.4433 0.2219,0.07438 0.7383,0.3702 0.7383,0.3702 1.32983,0 3.39735,1.25472 4.06196,1.4029 0.66452,0.14752 0.88582,-0.0745 2.36324,-0.5915 1.47741,-0.517 2.21572,-0.2206 2.21572,-0.2206 0.96032,-0.0738 3.61934,-1.47738 5.31736,-1.1816 1.69864,0.29498 2.58525,1.9937 2.58525,1.9937 0,0 3.24913,-1.4029 6.8678,-1.62492 1.3271,-0.08129 2.21501,1.47674 1.77241,3.47115 -0.44331,1.99443 -1.40364,2.73204 -1.40364,2.73204 0,0 1.10854,0.59151 0.81282,2.80723 -0.49589,3.71836 -4.72656,4.13436 -4.72656,4.13436 1.25612,0.59221 1.84624,2.21642 1.92003,2.58524 0.0737,0.3702 0.4433,0.517 0.4433,0.517 0.6645,0.0745 1.40292,0.8866 1.40292,0.8866 3.24975,-4.13575 6.72089,-7.60607 6.72089,-7.60607 -0.295,1.84611 0.73771,2.95402 1.69871,4.06123 0.95961,1.10782 3.10155,1.91994 3.61865,3.39735 0.51702,1.47731 -0.1476,2.06743 -0.1476,2.06743 1.62491,0.29579 0.73841,1.403 0.73841,1.403 M 15.76588,23.023 c 0.03892,-0.0041 0.07781,-0.0089 0.11682,-0.015 0,0 -0.04031,0.0082 -0.11682,0.015"
                 style="fill:#000000;fill-opacity:1;fill-rule:nonzero;stroke:#000000;stroke-width:0.3985;stroke-linecap:butt;stroke-linejoin:miter;stroke-miterlimit:10;stroke-dasharray:none;stroke-opacity:1"
                 id="path36" /><path
                 d="m 24.99141,26.10953 c 0,0 0.04919,-0.59081 -0.2957,-0.63991 -0.3443,-0.04849 -1.23082,0 -0.73842,0.19738 0,0 0.68991,0.19732 0.68991,0.39413 0,0.19671 0.34421,0.0484 0.34421,0.0484"
                 style="fill:#000000;fill-opacity:1;fill-rule:nonzero;stroke:#000000;stroke-width:0.3985;stroke-linecap:butt;stroke-linejoin:miter;stroke-miterlimit:10;stroke-dasharray:none;stroke-opacity:1"
                 id="path38" /></g></g></g></g></g></g></svg>
