<?xml version="1.0" encoding="UTF-8" standalone="no"?>
<svg
   xmlns:dc="http://purl.org/dc/elements/1.1/"
   xmlns:cc="http://creativecommons.org/ns#"
   xmlns:rdf="http://www.w3.org/1999/02/22-rdf-syntax-ns#"
   xmlns:svg="http://www.w3.org/2000/svg"
   xmlns="http://www.w3.org/2000/svg"
   xmlns:sodipodi="http://sodipodi.sourceforge.net/DTD/sodipodi-0.dtd"
   xmlns:inkscape="http://www.inkscape.org/namespaces/inkscape"
   version="1.1"
   id="svg2"
   xml:space="preserve"
   width="74.360001"
   height="135.81332"
   viewBox="0 0 74.360001 135.81332"
   sodipodi:docname="vectorian028.pdf"><metadata
     id="metadata8"><rdf:RDF><cc:Work
         rdf:about=""><dc:format>image/svg+xml</dc:format><dc:type
           rdf:resource="http://purl.org/dc/dcmitype/StillImage" /></cc:Work></rdf:RDF></metadata><defs
     id="defs6"><clipPath
       clipPathUnits="userSpaceOnUse"
       id="clipPath24"><path
         d="M -0.01479,0 H 52.43356 V 101.8581 H -0.01479 Z"
         id="path22" /></clipPath></defs><sodipodi:namedview
     pagecolor="#ffffff"
     bordercolor="#666666"
     borderopacity="1"
     objecttolerance="10"
     gridtolerance="10"
     guidetolerance="10"
     inkscape:pageopacity="0"
     inkscape:pageshadow="2"
     inkscape:window-width="640"
     inkscape:window-height="480"
     id="namedview4" /><g
     id="g10"
     inkscape:groupmode="layer"
     inkscape:label="vectorian028"
     transform="matrix(1.3333333,0,0,-1.3333333,0,135.81333)"><g
       id="g12"
       transform="translate(72,29.857)"><g
         id="g14"
         transform="translate(-71.985,-29.857)"><g
           id="g16"><g
             id="g18"><g
               id="g20"
               clip-path="url(#clipPath24)"><path
                 d="m 51.55925,2.50684 c -5.23047,8.06569 -4.35525,15.47376 -3.26564,18.63382 1.08799,3.16164 3.81285,5.77606 2.50723,5.44966 -4.58246,-1.4352 -5.86087,-5.78568 -6.17608,-8.82891 -0.06881,-0.63201 0.01921,-1.63841 0.1968,-2.77443 -3.53764,5.11527 -10.61773,14.76499 -17.81303,21.16187 7.16969,6.8737 10.84174,6.99849 13.52818,7.07851 3.66724,0.10559 5.72966,-1.59844 6.80968,-3.04485 1.66882,-2.22884 1.88164,-4.92488 1.37283,-6.48488 -1.01282,-3.10084 -2.83523,-4.37608 -5.90406,-4.13127 -0.26243,0.02081 -0.49283,0.07201 -0.70884,0.136 -0.9344,0.45922 -1.93121,1.24162 -1.73122,2.44484 0.21601,0.72801 3.48804,0.72801 2.97765,3.63364 -0.44961,2.57603 -4.28647,2.68803 -5.23048,0.50882 -0.8944,-2.07044 -0.0096,-5.29608 2.13124,-6.79849 0.6096,-0.53602 1.41281,-0.92641 2.47522,-1.01122 3.56164,-0.2832 5.86249,1.31041 7.0273,4.88007 0.73761,2.25763 0.11839,5.26406 -1.53762,7.47528 -1.74882,2.33925 -4.48967,3.57446 -7.71531,3.48005 -1.50562,-0.04638 -3.05284,-0.19358 -4.84964,-0.8352 0,0.0016 0,0.0016 0,0.0016 -0.29442,0.2192 1.67199,2.03204 1.45282,4.79366 -0.21923,2.76005 -3.84966,2.97925 -3.34406,2.25445 2.10883,-2.18244 1.59682,-4.94246 -0.94081,-7.26731 -1.43362,-1.3088 -2.80005,-2.75842 -3.71844,-3.77285 -0.75042,-0.61921 -1.54404,-1.3216 -2.38724,-2.11203 v 0.87204 c -0.06239,5.06726 0.59361,7.97128 0.80641,8.7729 0.0192,0.01759 0.0432,0.0304 0.0656,0.0544 3.48645,11.65933 12.40016,10.55691 14.16499,7.62568 2.25122,-3.73762 -1.67203,-6.20807 -0.21921,-7.08009 2.69123,-0.8 4.65126,4.86568 1.45761,8.42573 -2.12802,2.36962 -6.14088,2.47043 -10.06251,1.59841 1.52481,1.74241 7.19049,6.42889 7.51849,15.03699 0.32479,8.61131 -8.60971,15.25781 -9.48173,14.49299 -0.7056,-0.61601 6.53769,-4.79365 6.32168,-13.29457 -0.21759,-8.49931 -3.81605,-12.85776 -6.97448,-18.52184 -1.87203,-3.36164 -2.93764,-5.25765 -3.49765,-6.25129 -0.03681,1.44324 -0.12799,6.69609 0.33761,11.80656 0.2688,2.98883 2.08162,6.46408 3.81284,8.1729 2.41603,2.38723 4.64966,2.48004 3.37605,3.05124 -2.15042,0 -3.73765,-0.58721 -4.90407,-1.40161 -0.36801,1.33122 -1.184,4.07207 -2.15042,5.96647 0,0.19201 0,22.9731 0,22.9731 l -0.79042,2.18082 -0.4064,-1.12961 -0.3808,-1.05121 c 0,0 0,-22.78109 0,-22.9731 -1.03682,-2.03683 -1.90562,-5.05125 -2.22563,-6.24007 -1.19681,0.95202 -2.88005,1.67521 -5.26888,1.67521 -1.26881,-0.5712 0.96323,-0.66401 3.37925,-3.05124 1.73123,-1.70882 3.54244,-5.18407 3.81446,-8.1729 0.46399,-5.11047 0.376,-10.36332 0.3376,-11.80656 -0.55841,0.99364 -1.62402,2.88965 -3.49925,6.25129 -3.16005,5.66408 -6.75369,10.02253 -6.97288,18.52184 -0.21761,8.50092 7.02568,12.67856 6.32007,13.29457 -0.87201,0.76482 -9.80652,-5.88168 -9.47852,-14.49299 0.32481,-8.6081 5.99048,-13.29458 7.51851,-15.03699 -3.92487,0.87202 -7.93772,0.77121 -10.06255,-1.59841 -3.19363,-3.56005 -1.23521,-9.22573 1.45284,-8.42573 1.4512,0.87202 -2.46884,3.34247 -0.2208,7.08009 1.752,2.91043 10.54251,4.00807 14.08336,-7.36808 l -0.0592,-0.0752 c 0,0 0.94401,-2.98085 0.872,-9.0097 v -0.87204 c -0.83999,0.79043 -1.6368,1.49282 -2.3904,2.11203 -0.91843,1.01443 -2.28164,2.46405 -3.71206,3.77285 -2.54405,2.32485 -3.05124,5.08487 -0.94401,7.26731 0.5088,0.7248 -3.12164,0.5056 -3.34085,-2.25445 -0.21919,-2.76162 1.74081,-4.57446 1.45283,-4.79366 -1.80005,0.64003 -3.34726,0.78723 -4.85287,0.83361 C 8.68669,44.40976 5.94586,43.17455 4.19705,40.8353 2.53943,38.62408 1.92502,35.61765 2.66261,33.36002 3.82423,29.79036 6.12506,28.19675 9.6867,28.47995 c 1.06241,0.08481 1.86564,0.4752 2.47524,1.01122 2.14084,1.50241 3.02884,4.72805 2.13123,6.79849 -0.94402,2.17921 -4.77767,2.06721 -5.23046,-0.50882 -0.50721,-2.90563 2.76163,-2.90563 2.98082,-3.63364 0.2,-1.20322 -0.8,-1.98562 -1.73121,-2.44484 -0.2192,-0.06399 -0.44962,-0.11519 -0.71201,-0.136 -3.06883,-0.24481 -4.89126,1.03043 -5.90408,4.13127 -0.50881,1.56 -0.29599,4.25604 1.37282,6.48488 1.08322,1.44641 3.14083,3.15044 6.81129,3.04485 2.68805,-0.08002 6.35687,-0.20481 13.52338,-7.07851 C 18.21002,29.75197 11.13152,20.10225 7.59389,14.98698 7.77467,16.123 7.8595,17.1294 7.79388,17.76141 7.4755,20.80464 6.19707,25.15512 1.6178,26.59032 0.30899,26.91672 3.03381,24.3023 4.12503,21.14066 5.20985,17.9806 6.08348,10.57253 0.853,2.50684 0.20018,0.982 -0.01578,-3.8e-4 -0.01578,-3.8e-4 c 0,0 12.74732,0 16.78099,0 4.03205,0 9.22571,2.87361 9.07851,7.30246 -0.0352,2.79844 -1.51523,4.54246 -3.41284,5.52325 -1.89762,0.97924 -5.52168,0.79682 -5.74088,-0.29118 1.31041,-0.29282 6.46567,-0.50722 6.28488,-5.23207 0,-2.50563 -2.14402,-5.37287 -8.82891,-5.55527 -7.95209,0.10719 -11.33135,0 -11.33135,0 0,0 1.38243,4.93607 5.45607,4.84967 2.40483,-0.67522 4.93926,-0.38882 5.27846,1.67041 0.38402,2.32004 -1.93121,3.55205 -3.81123,2.61282 C 7.56828,9.7933 8.3747,8.17409 5.86586,8.8269 c 0.408,0.86081 0.80801,2.07682 1.13922,3.36164 2.57602,3.86244 10.82252,15.78421 19.20345,23.2147 8.37931,-7.43049 16.62581,-19.35226 19.20024,-23.2147 0.33119,-1.28482 0.73121,-2.50083 1.13763,-3.36164 -2.50564,-0.65281 -1.69923,0.9664 -3.87047,2.05281 -1.87841,0.93923 -4.19206,-0.29278 -3.80964,-2.61282 0.3376,-2.05923 2.87362,-2.34563 5.27528,-1.67041 4.07684,0.0864 5.45926,-4.84967 5.45926,-4.84967 0,0 -3.37926,0.10719 -11.33455,0 -6.68168,0.1824 -8.82571,3.04964 -8.82571,5.55527 -0.18082,4.72485 4.97445,4.93925 6.28488,5.23207 -0.21921,1.088 -3.84165,1.27042 -5.74088,0.29118 -1.89763,-0.98079 -3.38084,-2.72481 -3.41284,-5.52325 -0.1472,-4.42885 5.04647,-7.30246 9.08173,-7.30246 4.02724,0 16.78102,0 16.78102,0 0,0 -0.21922,0.98238 -0.87523,2.50722 z M 24.21008,69.80208 c 0.12961,0.4976 1.11842,4.25287 2.28644,6.5377 1.02242,-1.98883 1.90083,-5.08808 2.19682,-6.18888 -2.0272,-1.85285 -2.41282,-4.33127 -2.41282,-4.33127 0,0 -0.35199,2.18083 -2.07044,3.98245 z"
                 style="fill:#000000;fill-opacity:1;fill-rule:nonzero;stroke:#000000;stroke-width:0.3985;stroke-linecap:butt;stroke-linejoin:miter;stroke-miterlimit:10;stroke-dasharray:none;stroke-opacity:1"
                 id="path26" /><path
                 d="m 34.88702,19.07184 c 0.54403,0.7104 0.04642,1.20961 -0.76159,0.656 -1.26561,-0.87841 -6.20967,-4.14245 -4.79366,-5.34248 1.00159,-0.8448 2.94243,1.52644 5.55525,4.68648 z"
                 style="fill:#000000;fill-opacity:1;fill-rule:nonzero;stroke:#000000;stroke-width:0.3985;stroke-linecap:butt;stroke-linejoin:miter;stroke-miterlimit:10;stroke-dasharray:none;stroke-opacity:1"
                 id="path28" /><path
                 d="m 18.29001,19.72784 c -0.8064,0.55361 -1.30559,0.0544 -0.7616,-0.656 2.61124,-3.16004 4.55527,-5.53128 5.55527,-4.68648 1.41602,1.20003 -3.52486,4.46407 -4.79367,5.34248 z"
                 style="fill:#000000;fill-opacity:1;fill-rule:nonzero;stroke:#000000;stroke-width:0.3985;stroke-linecap:butt;stroke-linejoin:miter;stroke-miterlimit:10;stroke-dasharray:none;stroke-opacity:1"
                 id="path30" /><path
                 d="m 28.24055,18.63503 c -0.2192,1.63362 -2.17762,12.64175 -2.17762,12.64175 0,0 -1.96324,-11.00813 -2.18243,-12.64175 -0.21441,-1.63361 2.18243,-7.08169 2.18243,-7.08169 0,0 2.39682,5.44808 2.17762,7.08169 z"
                 style="fill:#000000;fill-opacity:1;fill-rule:nonzero;stroke:#000000;stroke-width:0.3985;stroke-linecap:butt;stroke-linejoin:miter;stroke-miterlimit:10;stroke-dasharray:none;stroke-opacity:1"
                 id="path32" /></g></g></g></g></g></g></svg>
