<?xml version="1.0" encoding="UTF-8" standalone="no"?>
<svg
   xmlns:dc="http://purl.org/dc/elements/1.1/"
   xmlns:cc="http://creativecommons.org/ns#"
   xmlns:rdf="http://www.w3.org/1999/02/22-rdf-syntax-ns#"
   xmlns:svg="http://www.w3.org/2000/svg"
   xmlns="http://www.w3.org/2000/svg"
   xmlns:sodipodi="http://sodipodi.sourceforge.net/DTD/sodipodi-0.dtd"
   xmlns:inkscape="http://www.inkscape.org/namespaces/inkscape"
   version="1.1"
   id="svg2"
   xml:space="preserve"
   width="78.371193"
   height="40.743549"
   viewBox="0 0 78.371193 40.74355"
   sodipodi:docname="vectorian158.pdf"><metadata
     id="metadata8"><rdf:RDF><cc:Work
         rdf:about=""><dc:format>image/svg+xml</dc:format><dc:type
           rdf:resource="http://purl.org/dc/dcmitype/StillImage" /></cc:Work></rdf:RDF></metadata><defs
     id="defs6" /><sodipodi:namedview
     pagecolor="#ffffff"
     bordercolor="#666666"
     borderopacity="1"
     objecttolerance="10"
     gridtolerance="10"
     guidetolerance="10"
     inkscape:pageopacity="0"
     inkscape:pageshadow="2"
     inkscape:window-width="640"
     inkscape:window-height="480"
     id="namedview4" /><g
     id="g10"
     inkscape:groupmode="layer"
     inkscape:label="vectorian158"
     transform="matrix(1.3333333,0,0,-1.3333333,-2.0516302,39.887088)"><g
       id="g12"
       transform="translate(72,-42.448)"><g
         id="g14"
         transform="translate(-70.263,42.55)"><g
           id="g16"><g
             id="g18"><path
               d="m 45.93547,26.92773 c 0.14681,-0.51701 -0.5177,-0.6652 -1.73563,0.3326 0,0 1.58744,0.18451 1.73563,-0.3326 M 39.03009,24.9702 c 0.83671,-1.08261 1.28071,-1.37761 1.28071,-1.37761 l -5.31808,-0.98491 0.54102,-0.29581 c 2.46223,0 5.36786,-1.77243 5.36786,-1.77243 l -3.34752,-1.87083 c 0.88449,0.14752 3.59274,-0.5416 5.21765,-0.59011 1.62492,-0.04989 2.36323,0.54034 2.11734,1.27935 -0.24591,0.739 -0.83812,0.3934 -0.83812,0.3934 0,0 0.49321,-0.24522 0.248,-0.54162 -0.248,-0.29441 -2.21642,-0.73771 -3.54553,-0.54102 -1.32854,0.19742 -1.92003,0.49252 -1.92003,0.49252 l 2.51083,1.28061 c 1.72322,-0.3941 2.46093,0.04921 2.60913,0.44261 0.14751,0.39411 -0.24591,0.88593 -0.98492,0.78753 -0.73839,-0.09832 -0.73839,-0.49312 -0.73839,-0.49312 0.54169,0.2964 1.0334,0.2472 1.0334,0.2472 0.78751,-0.1967 0.19739,-0.6898 -1.0334,-0.4924 -1.23012,0.19669 -1.67404,0.68981 -3.00325,1.03342 -1.32982,0.34489 -2.70683,0.6898 -2.70683,0.6898 l 3.74025,0.68851 c 1.37971,-1.18162 3.64323,-0.93442 3.44723,-0.0977 -0.1974,0.8367 -2.01971,0.78821 -2.01971,0.78821 l -0.0977,-0.24721 c 1.47741,0 2.36332,-0.541 1.47741,-0.5901 -0.8865,-0.04992 -1.67411,0.29499 -2.31402,1.03401 -0.64002,0.7377 -2.36334,2.01842 -2.36334,2.01842 2.56002,-0.1483 2.90493,-0.5909 2.90493,-0.5909 1.67342,-1.87143 2.75594,-1.27991 2.85575,-0.83731 0.09829,0.4432 -0.24732,0.34559 -0.24732,0.34559 -0.34421,-0.88659 -2.01762,0.49172 -1.57431,0.58942 0.4426,0.09911 0.98491,-0.0977 0.98491,-0.0977 -0.6906,0.5417 -1.33052,0.3941 -1.33052,0.3941 l -1.32921,1.72332 c 1.1331,-0.14818 2.60913,-0.3449 2.60913,-0.3449 1.08332,-1.68642 2.60984,-1.57571 2.80724,-0.7876 0.2657,1.06079 -1.91992,0.73839 -1.91992,0.73839 -0.29511,0.29501 -0.73912,1.28003 -0.73912,1.28003 2.46164,-0.59152 3.74306,-0.24591 5.21836,-0.68922 1.47664,-0.44258 1.32912,-1.42823 1.32912,-1.42823 0,0 -1.08191,-0.09829 -1.37691,-0.49179 -0.57099,-0.7608 0.2452,-1.33053 0.68842,-1.33053 0.4426,0 1.13321,0.69061 1.13321,0.69061 -1.33061,-0.39409 -1.33061,0.49103 -0.83882,0.73762 0.49322,0.2473 1.08403,-0.19599 1.08403,-0.19599 0.54159,-0.14821 1.96982,-0.29581 2.26622,-0.88663 0.2944,-0.5908 0.0478,-0.8367 -0.5416,-1.0825 -0.59083,-0.2466 -0.34561,-0.68992 -0.34561,-0.68992 h 0.59081 c 0.09829,-0.73901 -0.29651,-0.88591 -0.29651,-0.88591 l 0.14831,-0.19801 c 0,0 0.39409,0.34491 0.39409,0.54231 0,0.1967 0.09831,0.93572 0.09831,0.93572 0.54161,0.14821 0.64071,0.83601 0.64071,0.83601 0,0.29581 -0.54171,0.78822 -0.54171,0.78822 -0.1468,0.9358 -2.85565,1.32982 -2.85565,1.32982 0.0491,1.92003 -2.75672,1.77251 -4.67805,1.96923 -1.91861,0.19668 -3.00254,0.8367 -3.00254,0.8367 0.04851,-0.78751 0.78821,-1.57572 0.78821,-1.57572 -1.92071,-0.19681 -3.29974,0.5423 -3.79146,0.78821 -0.49108,0.24579 -0.444,-0.04919 -0.444,-0.04919 1.13382,-0.68991 1.92002,-2.51155 1.92002,-2.51155 -0.34429,0.1483 -4.13504,0.44329 -4.13504,0.44329 0,0 1.32913,-0.49179 2.16653,-1.57571 m -2.88032,-0.29509 c 0.51849,-0.44261 -0.36953,-0.73833 -2.06747,-0.22191 0,0 1.55044,0.66522 2.06747,0.22191 M 15.10178,16.77332 c 0,0 0.3695,-1.25544 -0.36951,-1.32924 -0.7383,-0.07379 -0.2944,1.25543 0.36951,1.32924 m 13.22058,0.14747 c 0,0 0.51571,-0.14747 0.44261,-0.73769 -0.07442,-0.59152 -1.25614,-0.2226 -0.44261,0.73769 m 4.72653,1.69805 c 0,0 0.58941,0 0.51562,-0.66463 -0.07299,-0.6639 -1.18229,-0.1469 -0.51562,0.66463 m -20.35954,-5.7607 c 1.52722,0 1.47671,-1.72192 0.14819,-1.72192 -1.3298,0 -2.11801,1.42752 -2.11801,1.42752 0,0 0.44331,0.2944 1.96982,0.2944 M 9.1936,9.51071 c 0,0 1.38042,0.3114 1.96924,-0.93441 C 11.60674,7.64058 10.47972,7.52518 9.93272,7.935 9.1445,8.5264 9.1936,9.51071 9.1936,9.51071 M 6.33797,7.39468 c 0.2465,-0.6414 -0.98502,-0.93571 -0.98502,0.29439 0,0 0.73981,0.34493 0.98502,-0.29439 m -3.93766,8.6402 c 4.13497,-3.39664 7.71752,-1.92061 7.71752,-1.92061 -0.40642,-0.77592 0,-1.55053 0,-1.55053 C 8.30779,11.64034 8.45601,9.79411 8.45601,9.79411 4.24585,9.60971 4.17204,7.20958 4.91104,6.50748 5.64946,5.80595 6.82968,6.06487 6.79277,7.13518 6.75658,8.20609 5.50055,8.02238 5.50055,8.02238 L 5.35295,7.98549 c 0,0 1.14552,1.47671 3.13994,1.43911 0,0 0.36881,-1.73553 1.58803,-2.17812 1.2178,-0.44332 1.66041,0.4057 1.66041,0.84971 0,0.44321 -0.33201,1.73411 -2.62143,1.77101 0,0 -0.22131,1.36672 1.29221,2.29013 0,0 0.81351,-1.2922 2.29024,-1.5135 1.79832,-0.26981 2.17741,1.99441 0.7007,2.28882 -1.4766,0.2957 -2.80582,-0.18379 -2.80582,-0.18379 0,0 -1.12082,1.2438 -0.11133,1.43981 1.14473,0.2213 2.32636,1.18162 2.32636,1.18162 L 12.36903,16.1831 12.14844,15.66469 C 11.33492,14.48306 8.0127,14.77948 8.0127,14.77948 c -5.68749,0.36888 -7.238,3.83936 -7.3118,5.98198 -0.07442,2.14122 0.88661,5.39036 3.91444,6.57198 3.02785,1.18161 5.31738,1.5512 9.23102,1.18161 3.91446,-0.36879 10.19212,-2.95335 12.99867,-3.17533 2.80654,-0.2213 4.94777,1.03411 4.94777,1.03411 -1.47742,-1.47672 -3.47044,-1.69872 -3.47044,-1.69872 h 2.43632 c 1.10792,0 2.29021,-0.36881 2.29021,-0.36881 -1.55249,-0.51771 -3.61932,-0.73832 -3.61932,-0.73832 0.29501,0 2.65832,-1.1086 2.65832,-1.1086 -2.51013,-0.51633 -6.20328,1.1086 -8.714,1.92073 -2.51152,0.81139 -7.97641,3.24915 -12.77666,3.24915 -4.80026,0 -7.23799,-2.14064 -8.27202,-4.28397 -1.03281,-2.14123 0.14821,-3.98744 0.14821,-3.98744 2.95402,-3.39735 7.08969,-2.06754 9.45303,-1.77243 2.36322,0.2957 2.80582,-0.59082 2.80582,-0.59082 -1.54982,-1.1817 -0.1469,-1.84624 -0.1469,-1.84624 1.47603,0 0.81211,1.69795 0.81211,1.69795 5.39047,3.25054 12.55467,0.444 12.55467,0.444 -1.03412,-1.69873 0.81282,-2.43702 1.18091,-1.55183 0.37021,0.88722 -0.73761,1.55183 -0.73761,1.55183 2.43843,1.99373 4.35696,1.40289 4.35696,1.40289 -1.03271,-1.55041 1.10722,-1.77241 1.1823,-0.88589 0.07312,0.88589 -0.739,1.18172 -0.739,1.18172 0.59082,1.25531 2.29024,0.88582 2.73213,1.25531 0.44322,0.36891 0.51772,0.88591 0.51772,0.88591 -0.44402,-0.4426 -0.95961,-0.95961 -1.92003,-0.95961 -0.96102,0 -1.62482,-0.96101 -1.62482,-0.96101 -3.61934,1.25601 -4.80037,-1.55051 -4.80037,-1.55051 -0.73901,0 -2.14122,1.62492 -6.27757,1.62492 -4.13576,0 -6.79538,-2.06754 -6.79538,-2.06754 -1.10724,1.10793 -3.61807,0.73771 -4.79967,0.51711 C 9.0447,17.51161 7.5694,17.4385 7.5694,17.4385 c -4.87409,0.29511 -5.39109,3.10094 -5.16909,4.50455 0.2213,1.40224 1.99303,5.02158 6.9415,5.24288 4.94786,0.22131 8.41901,-1.3291 13.44129,-3.24915 5.02086,-1.92003 7.97558,-1.84622 8.9366,-1.84622 0.95901,0 1.6973,-0.2213 1.6973,-0.2213 -0.14748,0.44261 -2.14262,1.47603 -2.14262,1.47603 1.32982,0 2.43773,0.739 2.43773,0.739 1.70003,-0.22189 2.58596,-0.14751 2.95615,0.14821 0.3674,0.2944 -0.37019,1.10722 -1.25612,0.88592 C 34.52553,24.89711 33.417,24.5269 33.417,24.5269 c -0.36811,0.0745 -2.43702,0.4433 -2.43702,0.4433 1.47742,1.03412 2.06891,2.51143 2.06891,2.51143 C 26.99254,23.78859 21.60075,27.11284 16.94872,28.22005 12.29594,29.32787 7.64319,29.25346 3.80254,27.18593 -0.03809,25.11842 -1.7367,19.43153 2.40031,16.03488 M 5.50055,0.8588 c 0,0 -0.4781,-0.07442 -0.4044,0.3313 0.07241,0.40571 0.6632,-0.11 0.4044,-0.3313 m 6.27829,4.65206 C 9.6745,5.47406 8.89859,5.43716 7.6063,5.17825 6.31396,4.92006 5.39125,3.62714 5.24304,2.88881 5.09615,2.15111 6.20406,1.8554 6.94107,1.7071 7.6794,1.55962 7.9007,1.1901 7.42188,0.7468 6.94107,0.30418 6.12956,0.4156 5.87076,0.5624 5.61186,0.7099 6.01897,0.8588 6.05586,1.0064 6.09276,1.1532 5.05865,1.89221 4.76355,1.59581 4.46645,1.3014 5.05865,0.6737 5.05865,0.6737 c 0,0 -0.1851,-0.44322 -0.9235,-0.29571 C 3.39613,0.5255 2.14072,1.44902 2.73221,1.59581 3.32233,1.744 3.61813,1.0064 3.61813,1.0064 c 0,0 -0.25889,1.58732 -1.03341,1.03341 C 1.8088,1.48581 2.62161,0.5993 2.62161,0.5993 2.17831,0.04608 0.8109,0.5993 1.3286,3.33273 1.8457,6.06487 3.95073,7.68907 3.95073,7.68907 0.7378,6.13857 0.40659,2.59372 0.6647,1.44902 0.9222,0.30418 2.1032,-0.0653 2.58472,0.00848 3.06422,0.08229 2.91661,0.5624 2.91661,0.5624 c 0,0 0.55402,-0.59078 1.80934,-0.48011 C 5.64667,0.16418 5.42744,0.6737 5.42744,0.6737 5.79697,-0.10149 7.01547,0.19289 7.01547,0.19289 7.64319,0.23048 8.1227,0.9319 7.97508,1.55962 c -0.10449,0.4447 -1.51352,0.4064 -2.03062,0.8121 -0.51702,0.4057 -0.1106,1.47812 1.07101,2.06822 1.18163,0.59151 3.80376,0.1844 5.64858,0.33191 1.84694,0.14821 3.84135,1.58801 3.84135,1.58801 -0.3326,0 -0.81212,-0.33191 -0.81212,-0.33191 C 14.87976,5.54846 13.88255,5.54846 11.77884,5.51086 m 39.1044,-3.54484 c 0.14691,0.1107 0.2951,0.14819 0.2951,0.14819 0.0362,0.25751 -0.332,0.25751 -0.44329,0.1107 -0.10991,-0.14819 -0.36953,-0.25889 -0.36953,-0.25889 0,0 0.36953,-0.11062 0.51772,0 m -2.21503,0.4057 c 0.3313,0.14819 -0.1851,0.36949 -0.1851,0.36949 C 47.6335,2.59372 47.7441,1.96602 47.7441,1.96602 48.07741,2.00291 48.07741,1.744 48.07741,1.744 48.26181,2.00291 48.003,2.00291 48.003,2.15111 c 0,0.1468 0.66521,0.22061 0.66521,0.22061 M 37.66408,8.0593 c 0.1844,0.44259 1.18161,0 1.69731,-1.58872 0,0 -1.88243,1.1447 -1.69731,1.58872 m -2.95545,2.76893 c 0,0 -1.21711,0.88591 -1.25333,1.43981 -0.0383,0.55391 0.627,0.51701 1.25333,-1.43981 m -3.13714,-0.22201 c -1.02112,2.84823 -0.14819,4.35777 0.73831,4.68966 0.88591,0.3319 3.02785,0.3319 4.28325,-0.92282 1.25543,-1.25531 1.18233,-4.35763 -1.40291,-3.65544 0,0 -0.51772,1.25531 -0.88591,1.73554 -0.45423,0.5881 -0.96101,0.47949 -1.10852,0.22128 -0.14682,-0.25888 -0.40641,-0.7383 1.32982,-2.17952 0,0 0.5533,-1.84622 -0.36951,-3.21155 0,0 -1.69862,0.84833 -2.58453,3.32285 m -10.80745,0.18512 c 0,0 -0.78749,0.19738 -1.03342,1.0341 -0.24658,0.83601 0.63934,1.0327 1.03342,-1.0341 m -2.21501,0.8852 c -0.6899,1.96981 0.34349,3.00464 1.47662,2.70882 1.13251,-0.2957 1.82233,-1.57571 1.82233,-2.70882 0,-1.13172 -0.54232,-0.93371 -0.54232,-0.93371 0,0 -0.3934,2.01771 -1.32911,2.06682 -0.93582,0.04849 -1.18165,-1.67343 0.88582,-2.55994 0,0 0,-0.78751 -0.39342,-1.42751 0,0 -1.23152,0.8859 -1.91992,2.85434 m 7.88958,-0.21991 c -0.47949,0.95893 0.62763,1.32842 1.55043,-1.29303 0,0 -1.07101,0.33132 -1.55043,1.29303 M 42.31683,8.6487 c -0.7015,0.18509 -1.47743,0.96101 -1.10791,1.40362 0.36892,0.4426 1.69802,-0.25821 2.40084,-1.58732 0,0 -0.59223,0 -1.29293,0.1837 m -0.1844,3.76686 c -0.14891,0.554 1.10712,0 1.62492,-0.33122 0,0 -1.47741,-0.22271 -1.62492,0.33122 m 15.50939,-1.77173 c -1.03481,0.49239 -2.26633,0 -3.20203,-0.29511 -0.93511,-0.2964 -2.36324,-1.03541 -3.88844,-0.83801 -1.52652,0.19739 -2.95543,1.03411 -4.03736,1.67471 -1.08333,0.64002 -2.16723,0.98491 -2.16723,0.98491 3.39734,1.72333 1.23211,4.82427 1.23211,4.82427 2.55934,0.68982 3.00334,2.55993 3.00334,2.55993 2.16513,-0.88592 3.49434,0.29641 3.74015,1.23082 0.24661,0.93572 -0.49102,1.67403 -1.52512,1.47733 -1.03412,-0.19672 -1.37831,-1.32912 -1.37831,-1.32912 l 0.54019,-0.2951 c 0.73972,1.13182 1.52864,0.64 1.77382,0.1967 0.24591,-0.44322 -0.49249,-1.52652 -1.82231,-1.32913 -1.32842,0.19671 -1.57434,1.32913 -1.57434,1.32913 l -0.5423,-0.24652 c 0.24652,-0.541 0.59012,-0.8859 0.59012,-0.8859 C 47.7441,18.56963 44.39665,17.8312 44.39665,17.8312 43.55923,16.20639 42.77173,16.69951 42.77173,16.69951 l 0.0498,-1.92003 c 0,0 0.93582,1.18102 1.52523,1.77252 0.5908,0.59079 0.88591,0.24582 0.88591,0.24582 1.7239,-3.15147 -1.32923,-4.38226 -1.32923,-4.38226 0,0 -0.29368,0.29649 -1.13171,0.6906 -0.83672,0.3934 -1.77313,-0.54242 -0.83672,-1.03483 0.93433,-0.49249 2.11594,-0.0984 2.11594,-0.0984 1.08401,-0.04849 5.46698,-3.05303 7.23869,-2.80583 1.77243,0.24521 3.05243,0.7875 3.79076,1.1311 0.7384,0.34563 1.181,0.39412 1.87152,0.34563 0.6899,-0.04991 1.18031,-0.64003 0.93512,-0.93573 -0.24522,-0.29579 -0.78693,-0.09839 -0.78693,-0.09839 0,0.14821 -0.34559,0.49181 -0.69049,0.1967 -0.34361,-0.2957 0.0983,-0.59082 0.0983,-0.59082 0.2466,0.0492 0.7876,-0.34488 0.1974,-0.7875 C 56.11322,7.98549 55.5729,8.1317 55.5729,8.1317 55.5237,8.5763 55.13028,9.11661 54.4896,9.0681 53.85098,9.0189 53.94798,8.1317 54.24239,8.034 c 0.2964,-0.099 0.44459,0.1967 0.44459,0.1967 -0.19738,-0.099 -0.4924,0.04919 -0.3954,0.2466 0.0997,0.1967 0.4931,0.1967 0.78882,-0.2466 C 55.37549,7.78807 55.2273,7.04907 53.94798,7.00058 52.66737,6.95007 51.14076,7.14737 49.07323,7.73828 47.0064,8.32909 43.80515,8.5763 43.80515,8.5763 42.67403,11.03722 40.4583,10.74283 40.8524,9.5605 41.24652,8.3796 43.16585,7.935 44.15076,7.68907 45.13496,7.44319 46.5625,6.06487 47.5481,5.12904 48.5323,4.19334 48.87721,3.84984 49.27063,3.70154 49.66472,3.55333 51.09224,3.55333 52.37367,3.30742 53.65297,3.06163 53.9972,2.32321 53.70277,1.7809 53.40637,1.2393 52.52048,1.2891 51.73294,1.53502 50.94543,1.7809 50.94543,1.6832 50.94543,1.6832 50.89484,0.89499 50.35393,0.6492 49.56502,0.796 c -0.78681,0.1482 -0.73761,0.5423 -0.73761,0.5423 0,0.19672 -0.2452,0.3449 -0.2452,0.3449 C 47.8431,0.5016 46.51399,0.99269 45.57887,2.51991 44.64316,4.04652 43.95335,4.88326 43.01753,5.27734 42.08182,5.67076 39.6202,6.45897 39.6202,6.45897 38.73439,9.0681 37.20847,8.77301 37.35597,7.88649 37.50356,7.00058 38.73439,6.11397 38.73439,6.11397 36.51996,5.07994 34.48732,6.98758 34.48732,6.98758 c 1.18303,1.6748 0.66592,3.43494 0.66592,3.43494 0.73771,-0.39411 3.03945,-0.0253 2.74373,2.23893 -0.33949,2.61124 -3.44584,3.25054 -4.92326,3.10235 -1.71361,-0.17222 -3.04834,-1.63653 -2.26483,-4.77508 0.71442,-2.85702 2.85563,-4.25937 2.85563,-4.25937 -3.17533,-1.5511 -5.85826,0.41802 -5.85826,0.41802 -3.98745,2.11742 -5.71208,8.07469 -2.36323,8.0256 3.34753,-0.04919 4.33174,-3.59413 4.03665,-4.38163 -0.29442,-0.78754 -1.03412,-0.59084 -1.03412,-0.59084 -0.1967,1.23084 -1.42752,2.51155 -2.06741,2.36324 -0.63933,-0.14818 -0.88661,-1.1816 0.5914,-2.26554 1.47601,-1.08261 2.95413,-0.9344 3.00262,1.08394 0.04981,2.01833 -1.87013,3.93904 -4.28326,4.03664 -2.41243,0.0991 -3.39733,-2.11733 -1.8701,-5.07006 1.52652,-2.95404 3.49574,-3.72996 3.49574,-3.72996 -0.44472,-0.19669 -1.87152,-0.55389 -3.79085,0.03689 -1.92203,0.59083 -2.61043,1.96984 -2.61043,1.96984 0.39411,0.78682 0.39411,1.52522 0.39411,1.52522 0.9842,0 1.67471,1.72322 0.44189,3.49564 -1.22952,1.77243 -4.13165,1.42892 -3.83936,-1.3284 0.24662,-2.31415 1.96923,-4.43146 1.96923,-4.43146 -0.7384,-0.83742 -1.77242,-1.08333 -2.80582,-0.83742 -1.03411,0.2466 -1.08403,0.83742 -0.88661,0.68921 0.1967,-0.14691 0.3934,-0.04921 0.3934,-0.04921 0.39409,0.19742 -0.0485,1.03412 -0.73901,0.49312 -0.68851,-0.54161 0.19811,-1.87143 1.77452,-1.77242 1.57501,0.09771 2.51004,1.23081 2.51004,1.23081 5.16986,-3.15143 7.44699,-1.24381 7.44699,-1.24381 3.58115,-1.91932 6.43817,0.11071 6.43817,0.11071 C 36.32126,4.48915 39.1408,5.80595 39.1408,5.80595 40.1748,5.16594 42.67403,5.12904 44.29895,3.01244 45.92249,0.89499 46.41428,0.69829 47.25229,0.5501 48.08832,0.40259 48.63,0.9442 48.63,0.9442 c 0.34563,-0.295 0.64063,-0.4924 1.77384,-0.4426 0.8858,0.03829 1.03342,0.6885 1.03342,0.6885 2.06742,-1.13242 2.75732,-0.0485 2.75732,0.83671 0,0.88722 -1.08401,1.28061 -1.62491,1.42892 -0.54161,0.14679 -2.06824,0.19671 -2.80655,0.34491 -0.73829,0.14681 -1.42683,1.08262 -2.46162,1.96772 -1.03412,0.88729 -2.21503,1.77313 -2.21503,1.77313 1.67471,0.04988 4.08516,-0.44321 5.51337,-0.83663 1.42822,-0.3941 1.82162,-0.44329 3.24913,-0.3941 1.42953,0.0491 1.91993,1.32982 1.91993,1.32982 0.5423,0 1.08402,0.34491 1.28003,0.73902 0.19809,0.39341 0.4446,0.59011 0.4446,0.59011 1.13112,0.1469 1.181,1.181 0.14829,1.67412"
               style="fill:#000000;fill-opacity:1;fill-rule:nonzero;stroke:#000000;stroke-width:0.3985;stroke-linecap:butt;stroke-linejoin:miter;stroke-miterlimit:10;stroke-dasharray:none;stroke-opacity:1"
               id="path20" /></g></g></g></g></g></svg>
