<?xml version="1.0" encoding="UTF-8" standalone="no"?>
<svg
   xmlns:dc="http://purl.org/dc/elements/1.1/"
   xmlns:cc="http://creativecommons.org/ns#"
   xmlns:rdf="http://www.w3.org/1999/02/22-rdf-syntax-ns#"
   xmlns:svg="http://www.w3.org/2000/svg"
   xmlns="http://www.w3.org/2000/svg"
   xmlns:sodipodi="http://sodipodi.sourceforge.net/DTD/sodipodi-0.dtd"
   xmlns:inkscape="http://www.inkscape.org/namespaces/inkscape"
   version="1.1"
   id="svg2"
   xml:space="preserve"
   width="601.76001"
   height="302.66666"
   viewBox="0 0 601.76001 302.66666"
   sodipodi:docname="vectorian069.pdf"><metadata
     id="metadata8"><rdf:RDF><cc:Work
         rdf:about=""><dc:format>image/svg+xml</dc:format><dc:type
           rdf:resource="http://purl.org/dc/dcmitype/StillImage" /></cc:Work></rdf:RDF></metadata><defs
     id="defs6"><clipPath
       clipPathUnits="userSpaceOnUse"
       id="clipPath24"><path
         d="M 0,0 H 448.00577 V 227.00291 H 0 Z"
         id="path22" /></clipPath></defs><sodipodi:namedview
     pagecolor="#ffffff"
     bordercolor="#666666"
     borderopacity="1"
     objecttolerance="10"
     gridtolerance="10"
     guidetolerance="10"
     inkscape:pageopacity="0"
     inkscape:pageshadow="2"
     inkscape:window-width="640"
     inkscape:window-height="480"
     id="namedview4" /><g
     id="g10"
     inkscape:groupmode="layer"
     inkscape:label="vectorian069"
     transform="matrix(1.3333333,0,0,-1.3333333,0,302.66667)"><g
       id="g12"
       transform="translate(72,155)"><g
         id="g14"
         transform="translate(-72,-155)"><g
           id="g16"><g
             id="g18"><g
               id="g20"
               clip-path="url(#clipPath24)"><path
                 d="m 103.24301,80.40102 c 10.21134,0 15.4306,-7.15209 15.4306,-7.15209 -5.30246,8.4321 -0.32319,16.3842 -0.32319,16.3842 -5.46086,-7.31209 -15.10741,-8.03209 -15.10741,-8.03209 H 71.4186 l -1.36161,-0.48001 1.12161,-0.72001 c 0,0 21.85947,0 32.06441,0 z"
                 style="fill:#000000;fill-opacity:1;fill-rule:nonzero;stroke:#000000;stroke-width:0.3985;stroke-linecap:butt;stroke-linejoin:miter;stroke-miterlimit:10;stroke-dasharray:none;stroke-opacity:1"
                 id="path26" /><path
                 d="m 344.88293,80.40102 c 10.20333,0 32.06601,0 32.06601,0 l 1.12163,0.72001 -1.36323,0.48001 h -31.82441 c 0,0 -9.64491,0.72 -15.10739,8.03209 0,0 4.97926,-7.9521 -0.32161,-16.3842 0,0 5.22247,7.15209 15.429,7.15209 z"
                 style="fill:#000000;fill-opacity:1;fill-rule:nonzero;stroke:#000000;stroke-width:0.3985;stroke-linecap:butt;stroke-linejoin:miter;stroke-miterlimit:10;stroke-dasharray:none;stroke-opacity:1"
                 id="path28" /><path
                 d="m 445.03622,16.8802 c -5.24966,3.37606 -9.93292,-1.44001 -8.87052,-5.31208 1.06242,-3.87203 4.87368,-3.69603 4.87368,-3.69603 1.87522,-0.06402 3.25444,1.76002 3.99684,-0.06402 0.24161,-0.55999 0.0912,-1.20001 -0.1936,-1.80801 C 443.00899,3.85603 438.71773,1.072 428.7272,1.072 c 0,0 -175.23906,0 -176.29025,0 0.003,0.176 0.006,0.352 0.006,0.608 0,4.56007 -0.89922,21.29627 -13.58417,29.24838 7.6593,12.22416 18.87544,19.84027 31.83402,21.08828 8.5041,0.816 14.91699,-1.29603 18.90744,-3.29605 4.43365,-2.97603 10.56814,-8.5921 11.02734,-17.08822 C 301.1716,21.58426 294.1971,17.0242 287.97142,15.24818 h -10.49293 c -0.088,0 -8.55053,0.51202 -11.47535,8.22411 -1.38722,3.66403 -1.08162,7.23209 0.87201,10.04813 1.89281,2.73603 5.04967,4.32005 8.67852,4.32005 0.0832,0 7.73768,0.192 8.89932,-4.97606 -0.0224,-0.24002 -0.0656,-0.48001 -0.15201,-0.68802 -0.54721,-1.26401 -2.31364,0.04801 -2.31364,0.04801 0,0 -1.70242,1.312 -3.35843,0.39999 -1.65764,-0.89599 -2.86244,-4.86404 0.2464,-6.48007 3.11203,-1.60002 6.17128,0.51201 6.63049,3.82405 0.13119,0.97601 0.0784,1.80803 -0.0592,2.54403 l 0.1312,0.01601 c -0.90239,6.59207 -9.96492,6.33608 -10.03692,6.33608 -3.95686,0 -7.42569,-1.72803 -9.51213,-4.76807 -2.11363,-3.05605 -2.46884,-7.05609 -0.98561,-10.97615 3.17285,-8.35208 12.29776,-8.8961 12.40657,-8.8961 h 13.19376 v 0.08 h 18.68504 c -2.24643,1.08801 -3.76805,3.21605 -3.76805,5.68007 0,3.55205 3.20804,6.44809 7.16809,6.44809 3.96326,0 7.1745,-2.89604 7.1745,-6.44809 0,-2.46402 -1.52482,-4.59206 -3.76164,-5.68007 h 66.35446 c 0,0 12.38094,-0.304 14.27697,7.5681 1.8848,7.8721 -7.16808,8.94411 -8.94091,4.09605 0,0 -1.76163,-4.51205 2.68483,-5.63208 0,0 2.16321,-0.06398 2.09761,-1.16801 -0.0624,-1.12001 -3.40643,-3.53604 -10.34732,-3.53604 -6.93768,0 -22.84029,0 -22.84029,0 0,0 -19.12345,0.14401 -33.31082,9.96814 -12.01295,8.3201 -23.37472,18.24022 -34.83087,23.3923 -3.98243,2.22401 -11.05133,4.96005 -20.68825,4.04803 -13.29458,-1.28001 -24.78752,-9.07211 -32.62283,-21.56826 -0.89601,0.496 -1.86241,0.97601 -2.88322,1.39201 15.125,35.12044 42.18452,36.83247 42.48054,36.86447 l 0.6416,0.01601 -0.16639,0.62399 c -2.97126,10.88016 1.67201,17.95226 1.71681,18.01625 l 0.76802,1.13602 -1.32483,-0.35202 c -0.12479,-0.03198 -7.84009,-1.96802 -17.86263,1.47201 9.11213,7.96811 20.34746,12.24018 31.61641,11.68018 10.30573,-0.52802 18.72185,-5.02408 23.0723,-12.35217 0.25601,-0.46401 6.13129,-11.55216 -2.91364,-20.94428 -0.0784,-0.08 -7.8529,-7.13609 -18.40344,-2.28802 -5.97447,2.73604 -6.83687,7.6161 -6.82408,10.28813 0.0272,4.60806 2.61124,9.0881 6.14886,10.65612 2.99366,1.32802 5.97291,1.36002 8.38732,0.09601 1.29123,-0.656 2.29443,-1.66403 2.92004,-2.81602 0.0528,-0.48003 0.072,-0.96002 -0.0384,-1.37602 -0.3648,-1.40804 -2.02083,1.168 -4.65606,-0.06401 -2.63363,-1.21601 -2.82243,-6.00006 -0.12159,-7.7761 2.69923,-1.77601 5.94726,0 6.68167,3.79204 0.37442,1.95204 0.01,3.66407 -0.58721,5.02407 -0.6224,1.69603 -1.93441,3.20004 -3.72323,4.12805 -2.69606,1.40802 -5.99689,1.37602 -9.27693,-0.07999 -3.88164,-1.71203 -6.73288,-6.59207 -6.76007,-11.58415 -0.0256,-4.96007 2.67521,-9.05612 7.42248,-11.23213 11.19054,-5.12009 19.44664,2.40001 19.54904,2.51202 9.59053,9.95212 3.16326,22.03227 3.08484,22.16029 -4.53764,7.64809 -13.25615,12.33616 -23.91229,12.88014 -11.71217,0.57603 -23.37311,-3.92004 -32.76042,-12.32014 -5.21607,1.96802 -10.97774,5.42407 -16.59383,11.32816 2.63524,5.82406 4.97766,9.80812 6.41608,12.01614 0.31201,-0.23999 0.68481,-0.70401 1.07524,-1.61603 1.11841,-2.60803 6.15846,-7.84008 10.83052,2.24004 4.67526,10.08013 5.97607,29.13637 28.20358,32.49641 0,0 1.3008,0.032 1.3904,0.40002 0.1008,0.384 -0.3936,0.55999 -0.83042,0.544 0,0 -20.28504,-0.89601 -39.94129,-31.28041 -0.12163,-0.096 -3.61606,-4.59206 -7.89132,-13.98418 -0.7872,0.86402 -1.57762,1.77603 -2.36483,2.73604 -7.3937,9.16814 -10.41614,19.47226 -10.31852,28.14436 h 2.33762 c 0.98082,0 1.77443,0.80002 1.77443,1.77603 0,0.976 -0.79361,1.77602 -1.77443,1.77602 h -2.09442 c 0.4288,3.72804 1.46242,7.04009 3.00324,9.63211 2.10244,3.55205 4.98725,5.52008 8.0785,5.60008 0.43681,-0.208 0.8272,-0.51199 1.00322,-1.04 0.55839,-1.68003 -2.24164,-1.12002 -1.49124,-5.05608 0.74081,-3.92004 5.9713,-4.84805 8.02892,-0.92801 1.64642,3.15205 -0.92321,7.63211 -5.77927,7.90411 -4.12805,0.76801 -8.03371,-1.40802 -10.72176,-5.95208 -1.65921,-2.78403 -2.75842,-6.27207 -3.21602,-10.16013 h -4.79367 v 6.14407 c 1.73762,8.41611 8.54091,31.47242 29.92519,22.2403 l -16.24661,8.60809 c 0,0 -10.80974,-8.41609 -13.67858,-28.96035 v 16.0642 c 1.77442,12.48015 6.77287,15.1202 6.77287,15.1202 -5.04325,3.36004 -6.16645,11.95215 -6.16645,11.95215 l -1.12163,38.68849 c 0,0 -0.3728,-31.2164 -1.12161,-38.68849 -0.74401,-7.4721 -6.72008,-11.56815 -6.72008,-11.56815 4.69446,-4.59206 6.57127,-11.32816 7.33128,-15.85622 v -15.72819 c -2.86882,20.56027 -13.68338,28.97636 -13.68338,28.97636 l -16.25138,-8.60809 c 21.40025,9.24812 28.20196,-13.85619 29.93476,-22.2563 v -6.12807 h -4.79848 c -0.4608,3.88806 -1.5632,7.3761 -3.21762,10.16013 -2.68644,4.54406 -6.59689,6.72009 -10.72653,5.96808 -4.84807,-0.288 -7.4257,-4.76806 -5.77449,-7.92011 2.05284,-3.92004 7.2865,-2.99203 8.02732,0.92801 0.74879,3.93606 -2.05443,3.37605 -1.48961,5.05608 0.17599,0.52801 0.56479,0.832 1.0032,1.04 3.08963,-0.08 5.97449,-2.04803 8.0753,-5.60008 1.54402,-2.59202 2.57602,-5.90407 3.00644,-9.63211 h -3.02882 c -0.97923,0 -1.77126,-0.80002 -1.77126,-1.77602 0,-0.97601 0.79203,-1.77603 1.77126,-1.77603 h 3.27362 c 0.0896,-8.6721 -2.92803,-18.97622 -10.32492,-28.14436 -0.78081,-0.96001 -1.57283,-1.87202 -2.36325,-2.73604 -4.27526,9.39212 -7.76648,13.88819 -7.8561,14.00019 -19.68985,30.36839 -39.97331,31.2644 -39.97331,31.2644 -0.44159,0.016 -0.93121,-0.16 -0.83201,-0.544 0.0928,-0.368 1.38563,-0.40002 1.38563,-0.40002 22.23067,-3.36004 23.53789,-22.41628 28.20677,-32.49641 4.67044,-10.08012 9.71372,-4.84807 10.83371,-2.24004 0.39362,0.91202 0.76163,1.37604 1.07842,1.61603 1.43524,-2.20802 3.78085,-6.19208 6.40489,-12.01614 -5.60967,-5.90409 -11.37294,-9.36014 -16.58902,-11.32816 -9.38411,8.4001 -21.05147,12.89617 -32.75882,12.32014 -10.65773,-0.54398 -19.37305,-5.23205 -23.9139,-12.88014 -0.0768,-0.12802 -6.50729,-12.20817 3.08484,-22.16029 0.10399,-0.11201 8.35851,-7.63211 19.55225,-2.51202 4.74725,2.17601 7.44809,6.27206 7.4193,11.23213 -0.0256,4.99208 -2.87206,9.87212 -6.76009,11.58415 -3.28325,1.45601 -6.57608,1.48801 -9.27533,0.07999 -1.79202,-0.92801 -3.09923,-2.43202 -3.72484,-4.12805 -0.59681,-1.36 -0.96001,-3.07203 -0.58241,-5.02407 0.73282,-3.79204 3.98247,-5.56805 6.6769,-3.79204 2.70082,1.77604 2.51522,6.56009 -0.12322,7.7761 -2.63202,1.23201 -4.28645,-1.34403 -4.65607,0.06401 -0.10718,0.416 -0.0912,0.89599 -0.0336,1.37602 0.62401,1.15199 1.62721,2.16002 2.91043,2.81602 2.42403,1.26401 5.40007,1.23201 8.39531,-0.09601 3.53443,-1.56802 6.12007,-6.04806 6.14889,-10.65612 0.016,-2.67203 -0.84962,-7.55209 -6.82249,-10.28813 -10.55214,-4.84807 -18.32504,2.20802 -18.40505,2.28802 -9.0417,9.39212 -3.17124,20.48027 -2.91682,20.94428 4.35524,7.32809 12.76975,11.82415 23.07709,12.35217 11.26733,0.56 22.50268,-3.71207 31.61801,-11.68018 -10.02254,-3.44003 -17.73943,-1.50399 -17.86743,-1.47201 l -1.32482,0.35202 0.76641,-1.13602 c 0.0448,-0.06399 4.69125,-7.13609 1.72003,-18.01625 l -0.16483,-0.62399 0.63842,-0.01601 c 0.29921,-0.032 27.36035,-1.74403 42.48216,-36.86447 -1.02083,-0.416 -1.98563,-0.89601 -2.88165,-1.39201 -7.8353,12.49615 -19.32985,20.28825 -32.62761,21.56826 -9.64972,0.91202 -16.71384,-1.84002 -20.68827,-4.04803 -11.46095,-5.15208 -22.8179,-15.0722 -34.82925,-23.3923 -14.18419,-9.82413 -33.30763,-9.96814 -33.30763,-9.96814 0,0 -15.909,0 -22.84668,0 -6.94091,0 -10.27535,2.41603 -10.34415,3.53604 -0.064,1.10403 2.09761,1.16801 2.09761,1.16801 4.44968,1.12003 2.68166,5.63208 2.68166,5.63208 -1.76323,4.84806 -10.82737,3.77605 -8.93132,-4.09605 1.89122,-7.8721 14.27377,-7.5681 14.27377,-7.5681 h 66.35608 c -2.24005,1.08801 -3.76167,3.21605 -3.76167,5.68007 0,3.55205 3.21125,6.44809 7.17131,6.44809 3.96005,0 7.17128,-2.89604 7.17128,-6.44809 0,-2.46402 -1.52322,-4.59206 -3.76964,-5.68007 h 18.68504 v -0.08 h 13.18897 c 0.1168,0 9.23692,0.54402 12.40814,8.8961 1.48643,3.92006 1.13122,7.9201 -0.98239,10.97615 -2.09124,3.04004 -5.55848,4.76807 -9.51534,4.76807 -0.0704,0 -9.13132,0.25599 -10.03532,-6.33608 l 0.12959,-0.01601 c -0.14079,-0.736 -0.1904,-1.56802 -0.056,-2.54403 0.45443,-3.31204 3.51524,-5.42407 6.62889,-3.82405 3.11046,1.61603 1.90724,5.58408 0.24321,6.48007 -1.65121,0.91201 -3.35686,-0.39999 -3.35686,-0.39999 0,0 -1.76001,-1.31202 -2.30881,-0.04801 -0.0912,0.20801 -0.1344,0.448 -0.15681,0.70403 1.17601,5.15205 8.81772,4.96005 8.89611,4.96005 3.63685,0 6.78729,-1.58402 8.69133,-4.32005 1.94561,-2.81604 2.25282,-6.3841 0.86401,-10.04813 C 179.1944,15.7602 170.7383,15.24818 170.6487,15.24818 h -10.49135 c -6.23049,1.77602 -13.20177,6.33608 -12.65938,16.38421 0.45923,8.49612 6.59529,14.11219 11.03056,17.08822 3.98885,2.00002 10.40653,4.11205 18.90424,3.29605 12.95856,-1.24801 24.17313,-8.86412 31.83562,-21.08828 C 196.58342,22.97627 195.681,6.24007 195.681,1.68 c 0,-0.256 0.005,-0.432 0.006,-0.608 -1.04641,0 -176.28708,0 -176.28708,0 -9.98732,0 -14.28017,2.78403 -16.11861,4.92806 -0.2832,0.608 -0.43199,1.24802 -0.19679,1.80801 0.752,1.82404 2.12804,0 4.00165,0.06402 0,0 3.81604,-0.176 4.87846,3.69603 1.05921,3.87207 -3.62565,8.68814 -8.88011,5.31208 C -1.1247,14.17616 -0.7551,8.41609 2.55531,5.23204 4.59373,2.86401 9.149,0.06398 19.40033,0.06398 h 177.3559 l -0.032,0.52802 c -0.0624,1.02401 -1.08001,20.81626 13.06899,29.53639 2.53604,-4.20807 4.65927,-8.94412 6.30566,-14.1442 -1.08162,-1.64802 -1.71361,-3.63205 -1.71361,-5.77609 0,-5.63205 4.34406,-10.2081 9.71854,-10.2081 5.36165,0 9.7121,4.57605 9.7121,10.2081 0,2.17604 -0.65919,4.17609 -1.76001,5.84009 1.63841,5.16807 3.75364,9.88814 6.27849,14.0802 C 252.48813,21.40826 251.46573,1.61601 251.40013,0.592 l -0.032,-0.52802 h 177.35908 c 10.25295,0 14.80661,2.80003 16.84343,5.16806 3.31685,3.18405 3.68164,8.94412 -0.53441,11.64816 z M 278.34767,87.96913 c -0.85121,-1.63203 -2.34083,-5.23208 -2.34083,-10.33615 0,-2.06403 0.28959,-4.40005 0.92802,-6.96008 -4.05925,-0.432 -28.63237,-4.52806 -42.79096,-37.42447 -0.6384,0.24 -1.30403,0.448 -1.9872,0.656 2.88963,12.11214 9.0465,31.58442 21.21465,48.06461 2.15363,2.91205 4.53766,5.53606 7.10089,7.8721 8.40332,-3.02404 15.325,-2.30403 17.87543,-1.87201 z M 229.91824,22.40027 c 0.1008,0.78401 0.66242,4.68806 2.00324,10.49614 0.632,-0.176 1.23522,-0.368 1.83202,-0.592 -1.29441,-3.08804 -2.49123,-6.4321 -3.57926,-10.03213 -0.0736,0.048 -0.17119,0.08 -0.256,0.12799 z M 217.9197,22.35228 c -1.0752,3.58405 -2.25922,6.89607 -3.54246,9.95213 0.59362,0.224 1.19843,0.416 1.82723,0.592 1.31043,-5.63207 1.87202,-9.48811 1.99042,-10.40013 -0.0848,-0.04801 -0.18559,-0.09601 -0.27519,-0.144 z m 1.24961,0.59199 c -0.18721,1.32804 -0.7728,5.04007 -1.97923,10.22414 0.77281,0.192 1.57283,0.36799 2.40645,0.51201 0.19679,-3.37604 0.33598,-6.83208 0.40799,-10.41612 -0.28802,-0.11203 -0.5712,-0.20801 -0.83521,-0.32003 z m 1.84961,0.60802 c -0.0704,3.53604 -0.21118,6.94409 -0.40958,10.25612 0.5376,0.08002 1.0624,0.16 1.61441,0.20801 h 1.33121 V 23.92029 c -0.90721,-0.032 -1.74722,-0.17599 -2.53604,-0.368 z m 3.56166,10.46413 h 1.32482 c 0.5568,-0.04801 1.07522,-0.12799 1.60961,-0.20801 -0.19039,-3.31203 -0.33439,-6.73607 -0.41281,-10.27212 -0.77598,0.20801 -1.6176,0.33599 -2.52162,0.384 z m 3.94725,-0.336 c 0.83362,-0.14402 1.63523,-0.32001 2.40644,-0.51201 -1.21921,-5.24808 -1.80323,-8.99213 -1.98403,-10.27214 -0.2624,0.112 -0.54082,0.20803 -0.82561,0.32003 0.0688,3.60003 0.2128,7.08808 0.4032,10.46412 z m 30.86281,56.56073 c -2.46245,-2.28802 -4.76167,-4.83206 -6.84009,-7.66411 -12.25616,-16.6082 -18.46586,-36.20846 -21.38267,-48.41661 -0.82723,0.20799 -1.68323,0.384 -2.58084,0.54399 1.94403,31.80841 8.8753,53.60071 14.61936,66.64087 5.47208,-5.68007 11.06894,-9.08812 16.18424,-11.10414 z m -30.2724,43.80856 c -0.12801,-8.8641 2.98723,-19.31225 10.63214,-28.78436 0.89281,-1.12003 1.79042,-2.14405 2.69282,-3.12005 -5.82087,-13.10418 -12.89616,-35.10447 -14.87858,-67.29685 -0.51041,0.06398 -1.02882,0.14398 -1.56962,0.19199 h -1.41442 v 54.3047 c 0.78882,4.56006 2.79044,10.48013 7.8913,12.76817 0,0 -5.96168,2.70401 -7.8913,11.68015 v 20.25625 z m -20.73787,-28.78436 c 7.63851,9.47211 10.75213,19.92026 10.62733,28.78436 h 4.54726 v -20.19226 c -0.80159,-3.48803 -2.85122,-8.84813 -8.0833,-11.93615 0,0 6.23688,-1.39202 8.0833,-12.43215 V 35.04044 h -1.42563 c -0.5408,-0.04801 -1.0496,-0.12801 -1.568,-0.19199 -1.98243,32.19238 -9.05771,54.19267 -14.8818,67.29685 0.90561,0.976 1.80324,2.00002 2.70084,3.12005 z m -3.46245,-3.92006 c 5.74888,-13.04016 12.67698,-34.83246 14.62101,-66.64087 -0.89284,-0.15999 -1.75042,-0.336 -2.58085,-0.54399 -2.91523,12.20815 -9.1249,31.80841 -21.37786,48.41661 -2.08165,2.83205 -4.38247,5.37609 -6.8433,7.6801 5.11527,2.00003 10.71375,5.40808 16.181,11.08815 z M 171.19429,70.6729 c 0.63681,2.56003 0.92641,4.89605 0.92641,6.96008 0,5.10407 -1.48961,8.70412 -2.34084,10.33615 2.54726,-0.43202 9.47373,-1.15203 17.88024,1.87201 2.55525,-2.33604 4.94087,-4.96005 7.0993,-7.8721 12.16655,-16.48019 18.31863,-35.95247 21.20987,-48.06461 -0.6864,-0.208 -1.34882,-0.416 -1.98564,-0.656 -14.16176,32.89641 -38.73488,36.99247 -42.78934,37.42447 z m 42.21335,-38.7205 c 1.30241,-3.12005 2.51364,-6.4801 3.60963,-10.12814 -0.68319,-0.432 -1.19841,-0.81602 -1.52641,-1.08801 -1.37442,3.55205 -2.97604,6.86409 -4.80326,9.88812 0.85921,0.48003 1.75523,0.92803 2.72004,1.32803 z M 223.81256,5.92006 c -3.87206,0 -7.01768,2.92804 -7.01768,6.5441 0,3.61602 3.14562,6.54406 7.01768,6.54406 3.88487,0 7.0273,-2.92804 7.0273,-6.54406 0,-3.61606 -3.14243,-6.5441 -7.0273,-6.5441 z m 0.29123,14.49618 c -2.90726,0 -5.47849,-1.36001 -7.25929,-3.47203 -0.30562,0.928 -0.61603,1.87201 -0.94884,2.78403 0.55042,0.496 3.73766,3.21603 8.16971,3.21603 4.83526,0 8.05611,-3.40803 8.09133,-3.44003 -0.29765,-0.81601 -0.57603,-1.64802 -0.85604,-2.49604 -1.77602,2.08004 -4.32965,3.40804 -7.19687,3.40804 z m 8.44969,0.12801 c -0.29761,0.27199 -0.8,0.70401 -1.47842,1.15202 1.09921,3.69605 2.32803,7.10408 3.64324,10.25613 0.96963,-0.4 1.86243,-0.848 2.71844,-1.32803 -1.85923,-3.08802 -3.48963,-6.46407 -4.88326,-10.08012 z"
                 style="fill:#000000;fill-opacity:1;fill-rule:nonzero;stroke:#000000;stroke-width:0.3985;stroke-linecap:butt;stroke-linejoin:miter;stroke-miterlimit:10;stroke-dasharray:none;stroke-opacity:1"
                 id="path30" /></g></g></g></g></g></g></svg>
