<?xml version="1.0" encoding="UTF-8" standalone="no"?>
<svg
   xmlns:dc="http://purl.org/dc/elements/1.1/"
   xmlns:cc="http://creativecommons.org/ns#"
   xmlns:rdf="http://www.w3.org/1999/02/22-rdf-syntax-ns#"
   xmlns:svg="http://www.w3.org/2000/svg"
   xmlns="http://www.w3.org/2000/svg"
   xmlns:sodipodi="http://sodipodi.sourceforge.net/DTD/sodipodi-0.dtd"
   xmlns:inkscape="http://www.inkscape.org/namespaces/inkscape"
   version="1.1"
   id="svg2"
   xml:space="preserve"
   width="182.75911"
   height="143.7028"
   viewBox="0 0 182.75911 143.7028"
   sodipodi:docname="vectorian001.pdf"><metadata
     id="metadata8"><rdf:RDF><cc:Work
         rdf:about=""><dc:format>image/svg+xml</dc:format><dc:type
           rdf:resource="http://purl.org/dc/dcmitype/StillImage" /></cc:Work></rdf:RDF></metadata><defs
     id="defs6" /><sodipodi:namedview
     pagecolor="#ffffff"
     bordercolor="#666666"
     borderopacity="1"
     objecttolerance="10"
     gridtolerance="10"
     guidetolerance="10"
     inkscape:pageopacity="0"
     inkscape:pageshadow="2"
     inkscape:window-width="640"
     inkscape:window-height="480"
     id="namedview4" /><g
     id="g10"
     inkscape:groupmode="layer"
     inkscape:label="vectorian001"
     transform="matrix(1.3333333,0,0,-1.3333333,0.79025766,143.96515)"><g
       id="g12"
       transform="translate(72,35.099)"><g
         id="g14"
         transform="translate(-71.987,-34.697)"><g
           id="g16"><g
             id="g18"><path
               d="m 109.853,58.40474 c -7.14089,12.35446 -21.42607,8.97852 -27.38156,5.61956 -5.94686,-3.37174 -9.5233,-3.37174 -13.09118,11.22626 -3.58064,14.60659 -20.24873,15.7219 -30.96179,15.7219 -10.71254,0 -5.95025,15.72619 -5.95025,15.72619 C 9.8486,79.74193 25.32312,66.26364 38.41847,62.89609 51.52255,59.52864 49.2234,58.05013 34.85063,49.41782 21.75476,41.55042 27.70593,31.4438 24.1338,19.09363 c 0,0 -3.28456,-15.4142 -24.14648,0.3889 C 0,19.48253 10.14043,-0.40169 36.04036,0 c 40.48811,0.6196 46.43108,29.20027 46.43108,32.5677 0,3.37175 0,10.11093 4.76617,6.74349 4.75676,-3.37174 11.90196,-8.9913 11.90196,-8.9913 20.23625,-8.98703 36.91246,17.97402 36.91246,17.97402 -16.6638,-3.37605 -19.05475,-2.24353 -26.19903,10.11083 z"
               style="fill:#000000;fill-opacity:1;fill-rule:nonzero;stroke:#000000;stroke-width:0.3985;stroke-linecap:butt;stroke-linejoin:miter;stroke-miterlimit:10;stroke-dasharray:none;stroke-opacity:1"
               id="path20" /><path
               d="m 105.07445,80.41292 c 13.67917,2.76913 16.0668,12.46127 16.0668,17.32013 0,4.84607 -2.02652,7.00837 -5.14188,6.57678 -3.12124,-0.4359 -2.53282,-4.02126 -2.53282,-4.02126 1.57732,-9.84173 -2.85075,-13.71768 -15.17621,-16.39282 -12.32574,-2.68371 -14.53768,-9.5511 -14.53768,-9.5511 3.73115,4.85885 7.64131,3.29904 21.32179,6.06827 z"
               style="fill:#000000;fill-opacity:1;fill-rule:nonzero;stroke:#000000;stroke-width:0.3985;stroke-linecap:butt;stroke-linejoin:miter;stroke-miterlimit:10;stroke-dasharray:none;stroke-opacity:1"
               id="path22" /></g></g></g></g></g></svg>
