<?xml version="1.0" encoding="UTF-8" standalone="no"?>
<svg
   xmlns:dc="http://purl.org/dc/elements/1.1/"
   xmlns:cc="http://creativecommons.org/ns#"
   xmlns:rdf="http://www.w3.org/1999/02/22-rdf-syntax-ns#"
   xmlns:svg="http://www.w3.org/2000/svg"
   xmlns="http://www.w3.org/2000/svg"
   xmlns:sodipodi="http://sodipodi.sourceforge.net/DTD/sodipodi-0.dtd"
   xmlns:inkscape="http://www.inkscape.org/namespaces/inkscape"
   version="1.1"
   id="svg2"
   xml:space="preserve"
   width="45.293331"
   height="22.173332"
   viewBox="0 0 45.293331 22.173332"
   sodipodi:docname="vectorian172.pdf"><metadata
     id="metadata8"><rdf:RDF><cc:Work
         rdf:about=""><dc:format>image/svg+xml</dc:format><dc:type
           rdf:resource="http://purl.org/dc/dcmitype/StillImage" /></cc:Work></rdf:RDF></metadata><defs
     id="defs6" /><sodipodi:namedview
     pagecolor="#ffffff"
     bordercolor="#666666"
     borderopacity="1"
     objecttolerance="10"
     gridtolerance="10"
     guidetolerance="10"
     inkscape:pageopacity="0"
     inkscape:pageshadow="2"
     inkscape:window-width="640"
     inkscape:window-height="480"
     id="namedview4" /><g
     id="g10"
     inkscape:groupmode="layer"
     inkscape:label="vectorian172"
     transform="matrix(1.3333333,0,0,-1.3333333,0,22.173333)"><g
       id="g12"
       transform="translate(72,-55.367)"><g
         id="g14"
         transform="translate(-71.965,55.628)"><g
           id="g16"><g
             id="g18"><path
               d="m 24.32039,3.13753 c 0,0 -0.5963,-1.11881 -2.05042,-1.47191 -1.45422,-0.35521 -2.40432,0.3736 -2.40432,0.3736 0,0 2.49713,-0.84082 4.02574,1.06141 0,0 -0.63382,0.27941 -3.37345,-0.3538 C 17.77701,2.11232 16.1542,1.88902 16.1542,1.88902 c 0,0 1.36121,-0.20492 3.87885,-0.83812 2.51692,-0.6345 6.32066,-0.95082 8.3513,0.61472 0,0 -1.19252,1.0061 -4.06396,1.47191 m 0.87633,1.75262 c 0,0 -0.31692,-0.80122 -0.76362,-1.36052 0,0 2.31063,-0.2418 4.19436,-1.60241 0,0 1.99443,2.36662 -3.43074,2.96293 M 13.58185,3.17583 15.18628,2.35481 c 0,0 5.44307,1.90283 8.81782,1.23082 0,0 0.3716,0.46649 0.6899,1.30593 0,0 -1.30533,0.33529 -4.49435,-0.20491 C 17.012,4.14563 13.58185,3.17583 13.58185,3.17583 M 0.69939,2.50441 C 0.9979,1.2551 3.04832,0.47168 5.86375,0.49078 c 2.81606,0.01781 9.00422,1.69663 9.00422,1.69663 -0.8933,0.4474 -1.84482,0.76433 -1.84482,0.76433 0,0 -3.48685,-1.11882 -6.05907,-0.61472 C 4.39043,2.83902 3.92464,4.66754 3.92464,4.66754 2.13512,4.38745 0.40088,3.75293 0.69939,2.50441 m 7.699,0.16731 c 1.17552,0.1673 2.88854,0.85102 2.88854,0.85102 C 8.22969,4.46124 4.44444,4.73854 4.44444,4.73854 4.72374,3.05763 7.22498,2.50441 8.39839,2.67172 M 4.44444,5.01726 c 0,0 3.68143,-0.07042 7.64092,-1.39003 0,0 2.18641,0.83401 5.34675,1.56282 3.15964,0.72812 7.39639,0.41591 7.39639,0.41591 0,0 0.9733,5.34808 -5.34667,7.3275 -6.32068,1.97941 -15.52239,0.03479 -15.03739,-7.9162 m 15.83582,8.4373 c 6.11107,-2.91715 5.07007,-7.91762 5.07007,-7.91762 2.0832,-0.27798 4.86114,-1.38919 3.78463,-3.43764 -1.07711,-2.04832 -5.83368,-2.11799 -8.2297,-1.59692 -2.39604,0.51982 -5.20938,1.21513 -5.20938,1.21513 0,0 -2.88173,-1.35441 -7.64029,-1.66653 C 3.29903,-0.26189 -0.03479,0.8842 0,2.75842 c 0.03418,1.87563 3.82013,2.22322 3.82013,2.22322 0.0348,8.71683 10.34773,11.39016 16.46013,8.47292"
               style="fill:#000000;fill-opacity:1;fill-rule:nonzero;stroke:#000000;stroke-width:0.3985;stroke-linecap:butt;stroke-linejoin:miter;stroke-miterlimit:10;stroke-dasharray:none;stroke-opacity:1"
               id="path20" /></g></g></g></g></g></svg>
