<?xml version="1.0" encoding="UTF-8" standalone="no"?>
<svg
   xmlns:dc="http://purl.org/dc/elements/1.1/"
   xmlns:cc="http://creativecommons.org/ns#"
   xmlns:rdf="http://www.w3.org/1999/02/22-rdf-syntax-ns#"
   xmlns:svg="http://www.w3.org/2000/svg"
   xmlns="http://www.w3.org/2000/svg"
   xmlns:sodipodi="http://sodipodi.sourceforge.net/DTD/sodipodi-0.dtd"
   xmlns:inkscape="http://www.inkscape.org/namespaces/inkscape"
   version="1.1"
   id="svg2"
   xml:space="preserve"
   width="114.26093"
   height="114.28571"
   viewBox="0 0 114.26094 114.28571"
   sodipodi:docname="vectorian033.pdf"><metadata
     id="metadata8"><rdf:RDF><cc:Work
         rdf:about=""><dc:format>image/svg+xml</dc:format><dc:type
           rdf:resource="http://purl.org/dc/dcmitype/StillImage" /></cc:Work></rdf:RDF></metadata><defs
     id="defs6" /><sodipodi:namedview
     pagecolor="#ffffff"
     bordercolor="#666666"
     borderopacity="1"
     objecttolerance="10"
     gridtolerance="10"
     guidetolerance="10"
     inkscape:pageopacity="0"
     inkscape:pageshadow="2"
     inkscape:window-width="640"
     inkscape:window-height="480"
     id="namedview4" /><g
     id="g10"
     inkscape:groupmode="layer"
     inkscape:label="vectorian033"
     transform="matrix(1.3333333,0,0,-1.3333333,0.18982255,114.38674)"><g
       id="g12"
       transform="translate(72,13.728)"><g
         id="g14"
         transform="translate(-71.943,-13.447)"><g
           id="g16"><g
             id="g18"><path
               d="m 84.80968,8.66519 c -1.16161,4.55846 -4.69286,9.71692 -9.12972,13.82579 -1.53442,1.42562 -3.35524,3.02562 -5.43687,4.64165 3.89924,5.66727 5.95367,11.32815 5.56807,15.77141 -0.0896,0.992 -0.26239,1.87843 -0.4672,2.71203 -1.35841,7.9137 -8.48491,9.77933 -10.22413,9.78253 -1.48963,0 -1.91524,-0.91201 -1.91524,-0.91201 0,0 -0.608,-1.22081 0.86882,-1.65444 0.95361,-0.27679 3.52005,0.17121 6.12967,-1.8704 1.31042,-1.02402 2.14244,-2.15525 2.68805,-3.12165 0.66881,-1.33761 1.1776,-2.98724 1.36001,-5.07527 0.35041,-4.00644 -1.62083,-9.35531 -5.25767,-14.68338 -5.68327,4.19684 -13.18257,8.30571 -22.4083,9.57773 -0.36959,2.00481 -0.58239,4.04164 -0.63519,6.09927 2.41924,2.35201 4.62087,4.81285 6.12648,7.33609 2.10083,3.51204 1.68163,6.53447 0.73281,8.66092 -0.47042,1.25121 -1.26882,2.33124 -2.29763,3.16484 6.86249,12.97136 18.07543,17.23062 21.64987,18.59864 3.58245,1.37281 7.56969,0.11039 8.11852,2.01283 0.24959,0.8672 -0.2368,1.91681 -1.96963,1.76321 C 76.52797,85.13818 73.19353,83.75897 68.00946,81.03093 61.57098,77.65169 54.11807,72.27562 49.48923,63.65471 46.57237,65.29953 42.01714,65.90753 36.70186,59.68987 35.67464,58.48663 34.48422,56.80342 33.225,55.02899 29.61217,49.92972 24.6681,42.94403 20.40404,43.26564 c -2.99523,0.22562 -3.92004,2.72804 -3.80164,4.80647 0.0256,0.4032 0.1008,0.79039 0.20639,1.17762 1.49124,3.40965 6.22251,5.76646 10.23215,10.27532 4.16966,4.69767 3.55684,8.57612 3.55684,8.57612 -0.0176,0.29118 0.01919,0.52481 0.0048,0.7776 -0.11039,1.76321 -0.99362,3.05604 -2.48803,3.64325 -2.29602,0.89921 -5.52968,-0.112 -8.0497,-2.51843 l -2.28003,-2.30404 c -2.96484,-3.07682 -6.32649,-6.56488 -8.41452,-5.05766 -0.4192,0.29601 -0.63359,0.696 -0.6576,1.22722 -0.02079,0.4288 0.09441,0.93121 0.304,1.46242 0.784,1.56003 2.72324,3.13443 4.16645,4.75847 1.16483,1.31042 1.54404,2.13601 1.76003,2.77124 0.4272,1.25921 0.2288,2.21443 0.2288,2.21443 -0.0096,0.05118 -0.04159,0.08317 -0.05279,0.12797 -0.01281,0.04963 -0.01122,0.10402 -0.02401,0.1552 -0.1808,0.64804 -0.78082,1.79204 -2.78404,2.15204 -2.01922,0.36162 -3.19203,-1.112 -4.13284,-2.30081 -0.29122,-0.36643 -0.54721,-0.68003 -0.79201,-0.93764 -0.00162,0 -0.82403,-0.83839 -1.82085,-0.18239 -0.99839,0.6512 0.47841,3.04164 -0.04479,5.12646 -0.52001,2.08803 -3.34563,2.17763 -4.04005,1.08802 -0.69601,-1.08802 -0.0464,-1.86563 1.34562,-1.86563 1.39201,0 0.432,-1.52641 0,-3.34885 -0.4352,-1.82561 0.5888,-3.53923 3.34884,-3.17282 0.09601,0.0096 0.14721,0.05119 0.2336,0.07359 1.34723,0.2096 2.26724,1.33123 2.99684,2.24804 0.94722,1.19201 1.56803,1.74562 2.62883,1.72961 0.45122,-0.0048 0.81922,-0.16479 1.09603,-0.38719 0.11041,-0.12161 0.22399,-0.2368 0.32321,-0.37763 0.05279,-0.08639 0.1056,-0.17599 0.13118,-0.26559 0.06561,-0.23041 0.0576,-0.52481 -0.0192,-0.85921 C 12.92555,72.51402 9.67111,70.4004 7.80229,67.41635 6.34627,65.09473 7.17027,63.1411 7.43588,62.6323 7.65347,62.13788 7.9863,61.70749 8.45349,61.36987 c 3.19045,-2.29762 7.05449,1.71203 10.45934,5.24327 l 2.23043,2.25924 c 2.05604,1.96002 4.68966,2.86244 6.40007,2.19042 0.92002,-0.3584 1.42722,-1.12802 1.49602,-2.28321 0.01921,-0.35363 -0.01759,-0.68964 -0.048,-1.03203 -0.06239,-0.2944 -0.11839,-0.5856 -0.21439,-0.91843 -1.13121,-3.91203 -8.52171,-8.34729 -11.47694,-11.99695 -2.95845,-3.64964 -2.25923,-7.91211 -2.25923,-7.91211 0.2928,-2.55522 1.90081,-4.96165 5.24485,-5.21286 5.14887,-0.38719 10.17614,6.7137 14.21621,12.41456 1.2384,1.74725 2.4096,3.40165 3.39203,4.54728 3.73764,4.37604 7.39208,5.58248 10.86413,3.60004 -1.83043,-3.80646 -3.08482,-8.2337 -3.52005,-13.34097 -0.1824,-0.16482 -0.34239,-0.31202 -0.528,-0.48641 C 41.41551,45.36006 36.74185,41.17603 33.29062,37.43358 16.42,34.57272 8.0631,22.65259 3.69662,13.10365 1.2598,7.77557 0.06299,4.37074 0.00218,2.58034 -0.057,0.8443 1.015,0.4155 1.871,0.7163 c 1.87042,0.6496 0.3872,4.56165 1.56484,8.21131 1.1712,3.65444 4.82405,15.12979 17.47541,22.69309 3.67205,2.19523 7.48011,3.67044 11.32494,4.56004 -3.00642,-3.82564 -4.67204,-9.28171 -3.80804,-13.60176 0.216,-2.36963 1.06242,-4.65445 2.55684,-6.63208 3.14564,-4.16327 8.6273,-6.36807 15.04499,-6.05768 3.40645,0.15999 7.33129,1.73921 11.26255,4.33605 1.84642,-2.16323 3.66883,-4.02724 5.27687,-5.58567 4.34726,-4.20326 9.68971,-7.4481 14.30098,-8.3585 2.84805,-0.56159 5.89767,-0.30878 7.33769,1.00482 1.33922,1.8176 1.31682,4.57124 0.60161,7.37927 z M 60.68617,31.9663 c 2.78883,-1.53762 5.30086,-3.22564 7.54248,-4.96647 -0.83999,-1.15201 -1.72641,-2.30563 -2.71202,-3.43524 -2.57284,-2.94405 -5.34407,-5.43048 -8.12012,-7.39689 -1.768,2.0656 -3.50402,4.35844 -5.10884,6.9297 -2.62884,4.20483 -4.50887,8.82089 -5.51849,13.63536 4.86087,-0.74402 9.57294,-2.36963 13.91699,-4.76646 z m -15.01298,5.80328 c -1.94884,0.224 -3.97927,0.3168 -6.07689,0.26559 1.81602,1.56322 3.70244,3.21283 5.51526,4.92807 0.08961,-1.79202 0.2736,-3.52646 0.56163,-5.19366 z m 4.15524,23.72509 c 0.96001,-0.87841 1.60321,-2.05122 1.84001,-3.40484 -0.09759,-3.44805 -1.97122,-5.08647 -5.37607,-8.18891 0.52961,3.88645 1.70083,7.78092 3.53606,11.59375 z M 45.95319,11.45084 c -5.89129,-0.28481 -10.88974,1.69601 -13.717,5.44007 -1.6992,2.24643 -2.47203,4.94086 -2.26721,7.68489 0.2032,1.86402 1.0816,5.74088 4.80646,9.21612 1.1136,1.03523 2.39204,2.14563 3.72806,3.29765 2.45762,0.14558 4.90884,0.08641 7.32807,-0.22722 C 47.566,27.94385 51.90366,20.82054 56.2941,15.42209 52.65726,13.03645 49.06041,11.59964 45.95319,11.45084 Z M 80.18562,5.09076 c 0,0 -2.23683,-2.21283 -7.05929,-0.83362 -3.41605,0.97441 -9.15693,4.63366 -14.6882,10.73613 2.83845,2.02723 5.65608,4.56487 8.25611,7.54091 1.00322,1.15201 1.90403,2.31682 2.75844,3.48164 6.20969,-5.12007 10.04172,-10.52493 11.18416,-13.82896 1.64002,-4.74088 -0.45122,-7.0961 -0.45122,-7.0961 z"
               style="fill:#000000;fill-opacity:1;fill-rule:nonzero;stroke:#000000;stroke-width:0.3985;stroke-linecap:butt;stroke-linejoin:miter;stroke-miterlimit:10;stroke-dasharray:none;stroke-opacity:1"
               id="path20" /></g></g></g></g></g></svg>
