<?xml version="1.0" encoding="UTF-8" standalone="no"?>
<svg
   xmlns:dc="http://purl.org/dc/elements/1.1/"
   xmlns:cc="http://creativecommons.org/ns#"
   xmlns:rdf="http://www.w3.org/1999/02/22-rdf-syntax-ns#"
   xmlns:svg="http://www.w3.org/2000/svg"
   xmlns="http://www.w3.org/2000/svg"
   xmlns:sodipodi="http://sodipodi.sourceforge.net/DTD/sodipodi-0.dtd"
   xmlns:inkscape="http://www.inkscape.org/namespaces/inkscape"
   version="1.1"
   id="svg2"
   xml:space="preserve"
   width="120.34846"
   height="120.98192"
   viewBox="0 0 120.34845 120.98192"
   sodipodi:docname="vectorian194.pdf"><metadata
     id="metadata8"><rdf:RDF><cc:Work
         rdf:about=""><dc:format>image/svg+xml</dc:format><dc:type
           rdf:resource="http://purl.org/dc/dcmitype/StillImage" /></cc:Work></rdf:RDF></metadata><defs
     id="defs6" /><sodipodi:namedview
     pagecolor="#ffffff"
     bordercolor="#666666"
     borderopacity="1"
     objecttolerance="10"
     gridtolerance="10"
     guidetolerance="10"
     inkscape:pageopacity="0"
     inkscape:pageshadow="2"
     inkscape:window-width="640"
     inkscape:window-height="480"
     id="namedview4" /><g
     id="g10"
     inkscape:groupmode="layer"
     inkscape:label="vectorian194"
     transform="matrix(1.3333333,0,0,-1.3333333,-0.24870871,122.34318)"><g
       id="g12"
       transform="translate(72,19.595)"><g
         id="g14"
         transform="translate(-71.614,-18.401)"><g
           id="g16"><g
             id="g18"><path
               d="m 29.18077,15.944 c 0,0 -1.35652,-0.82982 -1.15024,-1.71573 0.20562,-0.88392 0.49932,-0.97529 0.89754,-1.65701 0.3989,-0.68233 1.0033,-2.24983 -0.54031,-3.68006 -1.54363,-1.42903 -3.08174,-1.07241 -4.29207,-0.0219 -0.9124,0.79092 -0.52049,2.93833 1.14331,2.21023 1.27594,-0.5574 2.07164,-1.82222 2.07164,-1.82222 0,0 -1.87763,1.87761 -2.82434,1.55311 -0.94731,-0.3237 0.0246,-2.00331 2.00203,-2.17131 1.97732,-0.16601 2.17883,1.39951 1.87072,2.57831 -0.4064,1.56282 -1.65902,4.08736 0.82172,4.72658"
               style="fill:#000000;fill-opacity:1;fill-rule:nonzero;stroke:#000000;stroke-width:0.3985;stroke-linecap:butt;stroke-linejoin:miter;stroke-miterlimit:10;stroke-dasharray:none;stroke-opacity:1"
               id="path20" /><path
               d="m 23.40068,3.79973 c 0,0 -0.554,-2.68973 -3.04703,-2.16523 C 17.50812,2.23001 16.29578,4.34132 15.91669,5.44295 15.53769,6.54686 16.11,7.6021 17.2971,6.29958 18.48293,4.99625 18.14331,2.83313 18.14331,2.83313 19.21643,4.86865 17.431,7.34328 16.5526,7.31798 15.6742,7.29338 15.08478,6.02367 15.85658,4.32832 c 0.60182,-1.32019 1.34014,-1.8195 1.34014,-1.8195 0,0 -0.49721,-1.27532 -2.62413,-0.8893 C 12.44633,2.00461 12.35135,3.78333 12.35135,3.78333 11.21272,7.16768 10.0216,8.8418 9.13231,9.78223 8.243,10.72214 7.57018,11.89143 4.33263,13.35927 1.0951,14.82707 0.50368,15.32979 0.34518,16.36528 0.18608,17.40071 0.8356,18.08713 0.8356,18.08713 L 0.54048,18.30092 C 0.03308,17.98953 -0.38559,16.2703 0.58429,14.73767 1.5535,13.20566 2.80003,13.01836 4.93164,12.18796 7.06477,11.35663 7.94919,10.78702 9.0647,9.3342 10.18001,7.8801 10.49352,6.18076 11.17523,4.19585 11.85823,2.21031 12.36433,2.67003 12.81105,2.08801 13.25706,1.5068 13.69836,1.2971 13.69836,1.2971 l -0.7261,-0.3927 c 0.95351,-0.27052 1.67891,0.34491 1.67891,0.34491 1.83652,-0.61613 2.76823,0.9691 2.76823,0.9691 5.38358,-3.41221 6.27529,1.44062 6.27529,1.44062 5.27496,-0.51912 4.11937,4.27567 4.11937,4.27567 0,0 0.09629,-1.92954 -0.69742,-2.84135 -0.79361,-0.91391 -3.20136,-1.50203 -5.49458,0.5866 -2.29361,2.08954 -1.57781,3.37075 -0.0362,2.89545 1.54363,-0.47541 2.37735,-2.90356 2.38753,-3.79424 0,0 0.35591,0.82651 -0.39411,2.36471 C 22.82887,8.6846 20.76616,9.88823 19.68434,8.5221 18.60432,7.15268 20.97865,4.39874 23.40068,3.79973"
               style="fill:#000000;fill-opacity:1;fill-rule:nonzero;stroke:#000000;stroke-width:0.3985;stroke-linecap:butt;stroke-linejoin:miter;stroke-miterlimit:10;stroke-dasharray:none;stroke-opacity:1"
               id="path22" /><path
               d="m 11.34474,8.35939 c 0,0 0.3673,-0.13719 1.54352,-0.55049 1.17551,-0.41252 3.69583,-3.08925 1.1557,-4.79479 0,0 0.71172,1.65354 0.11411,2.67675 -0.68242,1.16662 -1.11812,1.67611 -1.92754,2.02513 -0.8094,0.34839 -0.88579,0.6434 -0.88579,0.6434"
               style="fill:#000000;fill-opacity:1;fill-rule:nonzero;stroke:#000000;stroke-width:0.3985;stroke-linecap:butt;stroke-linejoin:miter;stroke-miterlimit:10;stroke-dasharray:none;stroke-opacity:1"
               id="path24" /><path
               d="m 9.8632,3.78773 c 0,0 -1.4931,2.48203 -3.11462,3.40064 -1.62082,0.91942 -5.81729,3.02794 -5.34258,6.16229 0,0 0.1748,-2.37213 2.16044,-3.20746 C 5.55196,9.30861 9.4438,8.23138 9.8632,3.78773"
               style="fill:#000000;fill-opacity:1;fill-rule:nonzero;stroke:#000000;stroke-width:0.3985;stroke-linecap:butt;stroke-linejoin:miter;stroke-miterlimit:10;stroke-dasharray:none;stroke-opacity:1"
               id="path26" /><path
               d="m 7.7932,11.60114 c 0,0 -0.39763,2.58723 -2.31554,3.86935 -1.91794,1.28271 -3.65076,-0.6223 -3.65076,-0.6223 0,0 0.78002,2.02722 3.42135,1.43291 2.55583,-0.57302 2.54495,-4.67996 2.54495,-4.67996"
               style="fill:#000000;fill-opacity:1;fill-rule:nonzero;stroke:#000000;stroke-width:0.3985;stroke-linecap:butt;stroke-linejoin:miter;stroke-miterlimit:10;stroke-dasharray:none;stroke-opacity:1"
               id="path28" /><path
               d="m 2.0051,24.28511 c 0,0 -2.02929,-1.61804 -0.974,-4.18767 1.056,-2.57024 4.57077,-2.76683 4.77636,-1.64671 0.2063,1.11941 -2.21983,2.01631 -3.88776,0.7813 l -0.2964,0.28761 c 0,0 1.30244,1.22542 3.43487,0.3961 C 7.18988,19.08394 6.19476,16.679 4.14435,16.8429 2.46751,16.9781 0.7626,18.08522 0.2245,20.22314 c -0.5383,2.13924 0.9056,3.81397 1.7806,4.06197"
               style="fill:#000000;fill-opacity:1;fill-rule:nonzero;stroke:#000000;stroke-width:0.3985;stroke-linecap:butt;stroke-linejoin:miter;stroke-miterlimit:10;stroke-dasharray:none;stroke-opacity:1"
               id="path30" /><path
               d="M 14.52156,29.98697 C 11.99443,27.16713 10.13322,29.86127 8.8928,29.52997 6.70576,28.94377 7.24329,26.73483 7.6948,25.78201 8.1832,24.7492 9.8367,24.1345 9.8941,25.47333 9.95012,26.81334 7.81299,28.08725 7.81299,28.08725 9.136,27.60634 9.87761,26.81062 10.1065,25.99782 10.33603,25.18921 9.84221,23.6155 8.0752,24.5307 6.30827,25.4459 6.71538,28.05714 6.71538,28.05714 5.17236,28.60625 3.49353,28.18895 3.23264,25.65562 2.96962,23.12297 5.11224,21.47546 6.21326,21.13606 7.31567,20.79524 8.32799,21.78966 7.13948,23.24118 5.95177,24.6925 3.61034,24.62631 3.61034,24.62631 L 3.60693,24.9234 c 0,0 1.75673,-0.02379 2.93563,-0.7335 1.17952,-0.7097 2.07494,-2.16924 1.06413,-3.23694 -1.01154,-1.06952 -3.43904,-0.02449 -4.48746,1.95213 -1.04853,1.97461 -0.4904,4.21902 0.74301,5.07005 1.2343,0.85251 2.99593,0.38181 2.99593,0.38181 0,0 0.85303,2.10533 3.20055,1.57742 1.6235,-0.3641 2.05792,-0.6846 3.00663,-0.50911 0.94872,0.17641 1.45621,0.56171 1.45621,0.56171"
               style="fill:#000000;fill-opacity:1;fill-rule:nonzero;stroke:#000000;stroke-width:0.3985;stroke-linecap:butt;stroke-linejoin:miter;stroke-miterlimit:10;stroke-dasharray:none;stroke-opacity:1"
               id="path32" /><path
               d="m 12.58124,0.9182 c 0,0 -5.06737,-0.5395 -9.01241,3.01153 -3.94581,3.55234 -3.61862,8.81031 -3.24504,10.10744 0,0 -0.44948,-11.20166 12.25745,-13.11897"
               style="fill:#000000;fill-opacity:1;fill-rule:nonzero;stroke:#000000;stroke-width:0.3985;stroke-linecap:butt;stroke-linejoin:miter;stroke-miterlimit:10;stroke-dasharray:none;stroke-opacity:1"
               id="path34" /><path
               d="m 16.8038,16.7572 c 0,0 0.5055,-5.48126 5.69847,-5.25937 l -0.36129,-0.38241 c 0,0 -4.01197,-1.0792 -5.45658,3.48405 0,0 -0.0916,1.48363 0.1194,2.15773"
               style="fill:#000000;fill-opacity:1;fill-rule:nonzero;stroke:#000000;stroke-width:0.3985;stroke-linecap:butt;stroke-linejoin:miter;stroke-miterlimit:10;stroke-dasharray:none;stroke-opacity:1"
               id="path36" /><path
               d="m 16.3386,18.97163 c 0,0 -2.68974,-1.48631 -4.01205,-1.07852 -1.32243,0.40851 -3.10504,2.65975 -2.47395,4.90537 0,0 0.3845,-1.54833 1.35104,-2.78453 0.96579,-1.23362 2.28603,-1.49312 3.30922,-1.39065 1.02314,0.10313 1.82574,0.34833 1.82574,0.34833"
               style="fill:#000000;fill-opacity:1;fill-rule:nonzero;stroke:#000000;stroke-width:0.3985;stroke-linecap:butt;stroke-linejoin:miter;stroke-miterlimit:10;stroke-dasharray:none;stroke-opacity:1"
               id="path38" /><path
               d="m 18.98123,16.2496 c 0,0 1.00542,-2.44734 3.54625,-2.82093 0,0 -0.67682,-0.46442 -2.00262,0.2411 -1.32582,0.70489 -2.02785,2.26973 -1.83654,2.62083 z m 2.29843,-0.47892 c 0.64202,-0.62632 -0.03489,-1.13991 -0.03489,-1.13991 l -0.14951,0.24241 c 0,0 0.29019,0.2562 -0.0567,0.6435 -0.3456,0.38582 -0.68372,0.07921 -0.68372,0.07921 l -0.1961,0.14209 c 0,0 0.4788,0.65842 1.12092,0.0327 m -2.64404,0.81622 c -0.94802,-0.32372 0.1756,-2.44583 1.94113,-3.21225 1.76563,-0.7684 2.70963,-0.14749 2.70963,-0.14749 -0.44541,0.50741 -0.82241,1.46303 -0.82241,1.46303 0,0 -0.4624,-0.14483 -0.2138,-0.45142 0.37091,-0.4604 0.1517,-0.51581 0.1517,-0.51581 -0.65979,0.12921 -0.88449,0.569 -0.88449,0.569 0,0 0.58047,0.97133 -0.01991,1.63242 -0.56821,0.62712 -0.88103,0.27322 -1.39263,0.25692 -0.5123,-0.0137 -0.74031,0.64881 -0.74031,0.64881 -0.0035,0.29649 0.43842,0.08809 0.43842,0.08809 0.3681,-0.21439 0.4364,0.1591 0.4364,0.1591 -0.14891,0.21861 -0.73422,0.2766 -0.73422,0.2766 -0.58879,0.20572 -0.6639,0.35182 -0.6639,0.35182 -0.5088,-0.23632 -0.20561,-1.11882 -0.20561,-1.11882"
               style="fill:#000000;fill-opacity:1;fill-rule:nonzero;stroke:#000000;stroke-width:0.3985;stroke-linecap:butt;stroke-linejoin:miter;stroke-miterlimit:10;stroke-dasharray:none;stroke-opacity:1"
               id="path40" /><path
               d="m 14.64098,20.13695 c 0,0 -0.67951,-0.26711 -1.56752,0.59971 -0.88932,0.86611 -0.90783,2.40014 -0.90783,2.40014 0,0 0.26371,-1.62772 2.47535,-2.99985 m -0.0764,2.32492 c 0.5402,-0.33121 0.7922,-1.01831 0.3087,-1.32842 l -0.24662,0.24111 c 0,0 0.14142,0.39961 -0.15509,0.68852 -0.29631,0.28818 -0.58531,-0.0164 -0.58531,-0.0164 l -0.2971,0.3381 c 0,0 0.4351,0.40839 0.97542,0.07709 m 1.0866,-1.10781 0.15641,-0.88722 c 0,0 -0.29171,-0.0581 -0.53891,0.23221 0,0 0.09221,0.44872 0.0888,0.69531 z m -3.68754,2.41993 c -0.19612,-0.0048 -0.3887,-0.1584 -0.3887,-0.1584 0.668,-2.80385 1.55452,-3.52105 2.82632,-3.83246 1.27242,-0.31011 2.23894,0.45961 2.23894,0.45961 l -0.19881,0.2425 C 16.046,21.01807 15.8909,21.65866 15.8909,21.65866 l -0.53612,-0.017 c -0.1667,1.62963 -2.01423,1.13101 -2.01423,1.13101 -0.49039,0.28342 -0.54509,0.72742 -0.54509,0.72742 0.48979,-0.13321 1.2212,-0.1127 1.2212,-0.1127 -0.1017,0.3436 -0.44391,0.43312 -0.44391,0.43312 -0.6345,-0.01782 -1.90561,0.24307 -1.90561,0.24307 0.29369,-0.14137 0.2965,-0.28959 0.2965,-0.28959"
               style="fill:#000000;fill-opacity:1;fill-rule:nonzero;stroke:#000000;stroke-width:0.3985;stroke-linecap:butt;stroke-linejoin:miter;stroke-miterlimit:10;stroke-dasharray:none;stroke-opacity:1"
               id="path42" /><path
               d="m 17.65791,18.71283 c 0,0 1.16323,0.7001 1.81201,1.46231 0,0 0.1503,-0.2923 -0.3551,-0.82712 -0.50619,-0.53549 -1.4501,-1.155 -1.45691,-0.63519"
               style="fill:#000000;fill-opacity:1;fill-rule:nonzero;stroke:#000000;stroke-width:0.3985;stroke-linecap:butt;stroke-linejoin:miter;stroke-miterlimit:10;stroke-dasharray:none;stroke-opacity:1"
               id="path44" /><path
               d="m 18.67113,21.68776 c 0,0 -0.89483,-0.5949 -1.03682,-0.97121 -0.14139,-0.37509 -0.57781,-0.60931 -0.57781,-0.60931 0,0 -0.233,0.3025 0.06621,0.51971 0.532,0.388 0.81412,1.33741 1.54842,1.06081"
               style="fill:#000000;fill-opacity:1;fill-rule:nonzero;stroke:#000000;stroke-width:0.3985;stroke-linecap:butt;stroke-linejoin:miter;stroke-miterlimit:10;stroke-dasharray:none;stroke-opacity:1"
               id="path46" /><path
               d="m 18.27292,22.36867 c 0,0 -0.34092,-0.0593 -0.34491,0.28761 -0.0041,0.34632 0.23701,0.5518 0.2827,0.80051 0.04651,0.24791 0.14142,0.44952 0.67892,0.3163 0.5389,-0.13319 1.02872,-0.317 1.41872,-0.30809 0.39059,0.0116 0.78201,-0.12563 1.03401,-0.81153 0.25281,-0.68501 0.5437,-0.5285 0.74381,-0.9691 0.20021,-0.43992 -0.0299,-1.53543 -0.71102,-1.75273 -0.67959,-0.21782 -0.78261,0.2262 -0.78261,0.2262 0,0 0.63031,0.31422 0.62623,0.66111 -0.0042,0.3463 -0.3927,0.18641 -0.43923,-0.01289 -0.04568,-0.19881 -0.47877,-0.70702 -0.7704,-0.71452 0,0 -0.29581,0.1394 -0.29779,0.3374 0,0 0.57779,0.6113 0.668,1.20694 0.09079,0.59759 -0.3026,0.83389 -0.64681,1.0224 -0.34289,0.18849 -0.78341,0.27389 -1.07852,0.5136 -0.2958,0.23842 -0.43239,-0.60781 -0.3811,-0.80321"
               style="fill:#000000;fill-opacity:1;fill-rule:nonzero;stroke:#000000;stroke-width:0.3985;stroke-linecap:butt;stroke-linejoin:miter;stroke-miterlimit:10;stroke-dasharray:none;stroke-opacity:1"
               id="path48" /><path
               d="m 21.61665,24.1963 c 0.0034,-0.24801 -0.485,-0.2124 -0.48838,0.03551 -0.002,0.24789 0.19189,0.3026 0.19189,0.3026 0,0 0.2937,-0.09011 0.29649,-0.33811 m -1.4972,2.82982 c 0.0102,-0.84149 -0.51841,-1.50059 -0.51841,-1.50059 0.19809,-0.24183 0.58681,-0.13263 0.58681,-0.13263 -0.052,0.29712 -0.0076,0.59422 -0.0076,0.59422 0.0041,-0.29629 0.4521,-1.07572 0.4521,-1.07572 0.343,-0.0894 0.24802,-0.3387 0.25082,-0.58671 0.0033,-0.24788 0.5463,-0.7274 0.5463,-0.7274 -0.0041,0.29711 0.28889,0.3053 0.28889,0.3053 0,0 0.34563,-0.3873 0.49392,-0.53072 0.1482,-0.14477 -0.04511,-0.29909 -0.04511,-0.29909 0,0 -0.04588,-0.24859 0.24791,-0.33878 0.29442,-0.09083 0.58812,-0.23092 0.58812,-0.23092 0.49071,-0.18442 0.73109,0.07039 0.73109,0.07039 0,0 -0.14338,-0.2029 -0.14068,-0.49931 0.0041,-0.29711 -0.1407,-0.45018 -0.1407,-0.45018 0.442,-0.18442 0.9255,0.12579 1.0205,0.37509 0.09351,0.25131 0.9207,0.4227 0.9207,0.4227 -0.6837,0.12921 -1.6673,0.74591 -1.91183,0.83681 -0.24548,0.0928 -0.64299,0.72462 -0.89299,1.21302 -0.24991,0.4877 -0.83331,0.32311 -0.83331,0.32311 -0.0068,0.59419 -0.34902,0.68361 -0.49862,0.87761 -0.14819,0.1932 -0.64001,0.52659 -0.64001,0.52659 0.08612,0.8927 -0.49789,0.82721 -0.49789,0.82721"
               style="fill:#000000;fill-opacity:1;fill-rule:nonzero;stroke:#000000;stroke-width:0.3985;stroke-linecap:butt;stroke-linejoin:miter;stroke-miterlimit:10;stroke-dasharray:none;stroke-opacity:1"
               id="path50" /><path
               d="m 21.64665,25.78192 -0.14958,0.293 c 0,0 0.77121,0.7635 1.85851,-0.44189 1.08842,-1.20765 1.52892,-1.39342 1.29742,-2.43913 0,0 -0.38931,-0.06153 -0.34221,0.13859 0.04579,0.19949 -0.10379,0.5403 -0.3511,0.8313 -0.2486,0.291 -0.89301,1.16324 -1.33561,1.44732 -0.44261,0.28481 -0.97743,0.17081 -0.97743,0.17081"
               style="fill:#000000;fill-opacity:1;fill-rule:nonzero;stroke:#000000;stroke-width:0.3985;stroke-linecap:butt;stroke-linejoin:miter;stroke-miterlimit:10;stroke-dasharray:none;stroke-opacity:1"
               id="path52" /><path
               d="m 23.34898,26.22601 0.81362,-0.79359 c 0,0 -0.5601,-0.041 -0.81362,0.79359"
               style="fill:#000000;fill-opacity:1;fill-rule:nonzero;stroke:#000000;stroke-width:0.3985;stroke-linecap:butt;stroke-linejoin:miter;stroke-miterlimit:10;stroke-dasharray:none;stroke-opacity:1"
               id="path54" /><path
               d="m 24.37021,26.40352 c 0,0 0.88929,-0.86681 1.13319,-0.90842 0.24521,-0.04298 0.58802,-0.1824 1.21164,0.72753 0,0 0.05118,-0.24593 -0.1885,-0.59983 -0.23971,-0.35298 -0.91861,-0.62019 -1.31342,-0.28549 -0.39482,0.33672 -1.03412,0.81351 -1.03412,0.81351 z"
               style="fill:#000000;fill-opacity:1;fill-rule:nonzero;stroke:#000000;stroke-width:0.3985;stroke-linecap:butt;stroke-linejoin:miter;stroke-miterlimit:10;stroke-dasharray:none;stroke-opacity:1"
               id="path56" /><path
               d="m 10.1067,25.99802 0.06481,0.67132 c 0,0 2.02522,1.98902 6.54408,3.45282 4.51888,1.46512 8.08081,0.40302 10.11354,-1.27249 2.43903,-2.01025 4.85837,-8.40262 -0.82651,-16.36183 0,0 1.71781,3.16714 2.25744,6.97151 0.53959,3.80104 -0.2363,8.5734 -4.73126,10.03922 -4.18775,1.36741 -11.61896,-1.36882 -13.4221,-3.50055"
               style="fill:#000000;fill-opacity:1;fill-rule:nonzero;stroke:#000000;stroke-width:0.3985;stroke-linecap:butt;stroke-linejoin:miter;stroke-miterlimit:10;stroke-dasharray:none;stroke-opacity:1"
               id="path58" /><path
               d="m 23.8436,44.81126 c 0,0 -0.1974,-1.87011 -0.68961,-2.85574 -0.49182,-0.9835 -1.47603,-1.47742 -1.87083,-1.18092 -0.39342,0.29503 0.19729,2.26484 2.56044,4.03666 m -5.31706,1.96982 c -0.98494,-2.06752 -2.85575,-0.88589 -1.47672,1.28062 1.3783,2.16663 1.87071,2.56003 1.87071,2.56003 0,0 0.59091,-1.77241 -0.39399,-3.84065 m -3.54497,10.14284 c 0,0 -0.6891,-2.36394 -1.47731,-3.15072 -0.78751,-0.78823 -1.96924,-0.49312 -1.37831,1.27929 0.5908,1.77243 2.85562,1.87143 2.85562,1.87143 m -3.93895,10.43733 c 0,0 0,-2.36333 -0.3934,-3.64255 -0.39409,-1.28071 -1.96981,-2.0682 -1.57582,0.295 0.3942,2.36324 1.96922,3.34755 1.96922,3.34755 M 28.17606,37.13206 c 0,0 -0.88663,-1.18232 -2.55994,-1.57582 -1.67413,-0.3941 -1.86603,1.25132 -0.0984,1.37772 1.37762,0.09901 2.65834,0.1981 2.65834,0.1981 m 0.59149,0.2943 c 0,0 -3.44724,0.69061 -4.52986,-0.5908 -1.0837,-1.27932 1.27931,-2.95264 4.33245,0 0,0 1.28002,-0.39342 0.78823,-2.36324 -0.49321,-1.96982 -6.00767,-3.83993 -10.43784,-1.08261 0,0 0.59091,1.77243 0.09842,3.15144 -0.49241,1.37842 -1.27994,1.77182 -2.16655,1.08332 -0.88592,-0.68981 -0.5915,-2.46233 1.47742,-4.52976 0,0 -3.74236,-3.84085 -9.55211,0.0983 -5.80978,3.93905 -5.41498,14.96779 -4.33167,21.07127 1.08251,6.10619 2.65824,12.11266 2.46084,20.77757 -0.19671,8.66482 -3.24974,12.80118 -3.24974,12.80118 0,0 4.23475,-3.05316 6.00718,-10.33894 1.77242,-7.28719 1.27991,-9.65044 1.27991,-9.65044 0,0 -1.87083,-1.67473 -2.16652,-3.64323 -0.29501,-1.96843 0.49249,-2.85504 1.57571,-2.06815 1.08332,0.78753 1.1816,5.51398 1.1816,5.51398 0,0 2.26495,0.69061 3.24916,-2.46022 0.985,-3.15215 0.09909,-7.68062 0.09909,-7.68062 0,0 -1.67412,-0.09968 -2.56071,-1.6754 -0.88582,-1.57573 -0.68842,-2.85504 0.19747,-3.15076 0.88582,-0.2944 2.85566,1.96984 2.95406,4.43137 0,0 3.34815,0.39479 3.64323,-5.90808 0,0 -1.67413,-1.18161 -2.46162,-2.95415 -0.78831,-1.77239 -0.4925,-3.64253 1.18161,-2.95402 1.67342,0.6885 2.36253,4.03805 2.26424,5.80977 0,0 1.77241,0.98492 3.05244,-1.57642 1.2804,-2.55852 0.59059,-4.43005 0.59059,-4.43005 0,0 -1.96823,-1.08391 -2.55912,-2.65833 -0.59079,-1.57574 -0.78812,-2.85704 1.08262,-2.06813 1.87062,0.78751 2.65813,4.82346 2.55983,5.12058 0,0 3.64385,1.8708 5.61307,-0.099 1.96913,-1.96854 1.18231,-6.30091 -1.67343,-7.97643 M 18.52654,33.58643 c 0,0 -1.28002,1.27929 -1.57574,2.65832 -0.2951,1.37972 0.98481,1.77312 1.47732,0.68921 0.49241,-1.08261 0.29512,-2.85503 0.09842,-3.34753 M 31.5242,45.20667 c -2.46223,2.85503 -6.6957,0.78691 -6.6957,0.78691 0.19611,6.69627 -5.02206,5.80978 -5.02206,5.80978 -0.1967,5.81046 -4.33235,5.71205 -4.33235,5.71205 0,0 1.67403,2.46164 0.29509,6.9901 -1.37842,4.53117 -4.43085,3.54484 -4.43085,3.54484 1.96923,13.68779 -9.94543,22.35189 -9.94543,22.35189 0,0 4.33237,-3.54273 4.82416,-13.68636 C 6.71017,66.57436 1.5896,54.95479 3.06691,45.00937 4.64204,34.40742 8.581,31.8147 12.81575,31.12418 c 4.23407,-0.68851 5.90749,1.87141 5.90749,1.87141 5.51376,-3.83932 10.43772,-1.37829 11.12692,0.98492 0.68912,2.36333 -0.78819,3.05246 -0.78819,3.05246 2.16652,0.8866 4.92385,5.31734 2.46223,8.1737"
               style="fill:#000000;fill-opacity:1;fill-rule:nonzero;stroke:#000000;stroke-width:0.3985;stroke-linecap:butt;stroke-linejoin:miter;stroke-miterlimit:10;stroke-dasharray:none;stroke-opacity:1"
               id="path60" /><path
               d="m 44.30907,22.40405 c 0,0 -1.87084,-0.19728 -2.85575,-0.68979 -0.98492,-0.4924 -1.47601,-1.47671 -1.18162,-1.87013 0.2957,-0.39339 2.26483,0.19672 4.03737,2.55992 m 1.96981,-5.31654 c -2.06822,-0.98633 -0.88662,-2.85645 1.27991,-1.47811 2.16663,1.3784 2.56005,1.87151 2.56005,1.87151 0,0 -1.77244,0.59012 -3.83996,-0.3934 M 56.4204,13.54115 c 0,0 -2.36261,-0.6884 -3.15012,-1.47731 -0.78822,-0.78691 -0.4931,-1.96841 1.28002,-1.37771 1.77172,0.5908 1.8701,2.85502 1.8701,2.85502 M 66.85905,9.6036 c 0,0 -2.36332,0 -3.64326,-0.3934 -1.28,-0.39549 -2.06821,-1.96992 0.29571,-1.57641 2.36324,0.39398 3.34755,1.96981 3.34755,1.96981 m -30.2299,17.13224 c 0,0 -1.18231,-0.88582 -1.57581,-2.55855 -0.39341,-1.67421 1.25272,-1.86812 1.37912,-0.09969 0.0983,1.37893 0.19669,2.65824 0.19669,2.65824 m 0.29501,0.59279 c 0,0 0.6899,-3.44713 -0.5908,-4.53116 -1.28002,-1.08321 -2.95336,1.28013 0,4.33316 0,0 -0.39342,1.27992 -2.36324,0.7868 -1.96913,-0.49099 -3.83995,-6.00576 -1.08261,-10.43652 0,0 1.77242,0.59071 3.15084,0.09841 1.37902,-0.49181 1.77243,-1.28012 1.0832,-2.16663 -0.68909,-0.88652 -2.46162,-0.59082 -4.52975,1.47671 0,0 -3.84066,-3.74165 0.0983,-9.5521 3.93905,-5.8084 14.96781,-5.41428 21.07267,-4.33237 6.10478,1.084 12.11197,2.65964 20.77678,2.46153 8.66551,-0.196 12.80057,-3.24916 12.80057,-3.24916 0,0 -3.05245,4.23476 -10.33895,6.00719 -7.28648,1.77252 -9.64971,1.28071 -9.64971,1.28071 0,0 -1.67414,-1.87141 -3.64326,-2.1679 -1.96983,-0.29442 -2.85574,0.4931 -2.06753,1.5764 0.78693,1.08331 5.51338,1.18173 5.51338,1.18173 0,0 0.68991,2.26481 -2.46093,3.24972 -3.15145,0.98491 -7.68119,0.0983 -7.68119,0.0983 0,0 -0.09842,-1.67471 -1.67413,-2.56053 -1.57503,-0.88591 -2.85574,-0.6899 -3.15085,0.19661 -0.2957,0.88731 1.96924,2.85713 4.43147,2.95412 0,0 0.39351,3.34756 -5.90878,3.64256 0,0 -1.18091,-1.67273 -2.95344,-2.46022 -1.77242,-0.78893 -3.64385,-0.49182 -2.95403,1.18091 0.68919,1.67472 4.03734,2.36332 5.80977,2.26562 0,0 0.98422,1.77182 -1.57573,3.05174 -2.55994,1.28144 -4.43074,0.59081 -4.43074,0.59081 0,0 -1.08333,-1.96843 -2.65836,-2.56073 -1.57641,-0.58942 -2.85643,-0.78671 -2.0688,1.08331 0.78821,1.87212 4.82546,2.65905 5.12056,2.56134 0,0 1.87151,3.64255 -0.09831,5.61238 -1.96993,1.96981 -6.30159,1.1816 -7.9764,-1.67274 M 33.08421,17.08751 c 0,0 1.28002,-1.28073 2.65833,-1.57643 1.37832,-0.29509 1.77243,0.98552 0.68992,1.47672 -1.08401,0.49311 -2.85644,0.295 -3.34825,0.09971 m 11.61956,12.99637 c 2.85574,-2.46085 0.78759,-6.69489 0.78759,-6.69489 6.69629,0.196 5.80979,-5.02228 5.80979,-5.02228 5.80977,-0.1967 5.71078,-4.33306 5.71078,-4.33306 0,0 2.46224,1.67404 6.99208,0.29641 4.52906,-1.38031 3.54485,-4.43205 3.54485,-4.43205 13.68638,1.96983 22.35188,-9.9449 22.35188,-9.9449 0,0 -3.54484,4.33324 -13.68706,4.82494 C 66.07144,5.27046 54.45189,0.15048 44.50705,1.6265 33.90453,3.20221 31.3118,7.1413 30.62198,11.37534 c -0.68851,4.23406 1.87142,5.90746 1.87142,5.90746 -3.83994,5.51467 -1.37832,10.43934 0.98492,11.12775 2.36322,0.68921 3.05244,-0.78889 3.05244,-0.78889 0.88661,2.16791 5.31735,4.92456 8.17301,2.46222"
               style="fill:#000000;fill-opacity:1;fill-rule:nonzero;stroke:#000000;stroke-width:0.3985;stroke-linecap:butt;stroke-linejoin:miter;stroke-miterlimit:10;stroke-dasharray:none;stroke-opacity:1"
               id="path62" /></g></g></g></g></g></svg>
