<?xml version="1.0" encoding="UTF-8" standalone="no"?>
<svg
   xmlns:dc="http://purl.org/dc/elements/1.1/"
   xmlns:cc="http://creativecommons.org/ns#"
   xmlns:rdf="http://www.w3.org/1999/02/22-rdf-syntax-ns#"
   xmlns:svg="http://www.w3.org/2000/svg"
   xmlns="http://www.w3.org/2000/svg"
   xmlns:sodipodi="http://sodipodi.sourceforge.net/DTD/sodipodi-0.dtd"
   xmlns:inkscape="http://www.inkscape.org/namespaces/inkscape"
   version="1.1"
   id="svg2"
   xml:space="preserve"
   width="64.973335"
   height="40.32"
   viewBox="0 0 64.973335 40.32"
   sodipodi:docname="vectorian185.pdf"><metadata
     id="metadata8"><rdf:RDF><cc:Work
         rdf:about=""><dc:format>image/svg+xml</dc:format><dc:type
           rdf:resource="http://purl.org/dc/dcmitype/StillImage" /></cc:Work></rdf:RDF></metadata><defs
     id="defs6" /><sodipodi:namedview
     pagecolor="#ffffff"
     bordercolor="#666666"
     borderopacity="1"
     objecttolerance="10"
     gridtolerance="10"
     guidetolerance="10"
     inkscape:pageopacity="0"
     inkscape:pageshadow="2"
     inkscape:window-width="640"
     inkscape:window-height="480"
     id="namedview4" /><g
     id="g10"
     inkscape:groupmode="layer"
     inkscape:label="vectorian185"
     transform="matrix(1.3333333,0,0,-1.3333333,0,40.32)"><g
       id="g12"
       transform="translate(72,-41.756)"><g
         id="g14"
         transform="translate(-72,42.531)"><g
           id="g16"><g
             id="g18"><path
               d="m 0.5464,23.13809 c 0,0 9.92983,-3.23414 16.16919,6.14858 0,0 -3.96223,-10.74875 -16.16919,-6.14858"
               style="fill:#000000;fill-opacity:1;fill-rule:nonzero;stroke:#000000;stroke-width:0.3985;stroke-linecap:butt;stroke-linejoin:miter;stroke-miterlimit:10;stroke-dasharray:none;stroke-opacity:1"
               id="path20" /><path
               d="m 0,22.81837 c 0,0 6.69568,-3.96284 13.70956,-0.7288 0,0 -5.73869,-5.46487 -13.70956,0.7288"
               style="fill:#000000;fill-opacity:1;fill-rule:nonzero;stroke:#000000;stroke-width:0.3985;stroke-linecap:butt;stroke-linejoin:miter;stroke-miterlimit:10;stroke-dasharray:none;stroke-opacity:1"
               id="path22" /><path
               d="m 13.93777,22.40997 c 0,0 4.09874,-1.9582 8.56301,-0.41049 4.46286,1.5491 5.28245,6.69568 5.28245,6.69568 0,0 0.27391,-5.14658 -5.14586,-7.4238 0,0 -5.19296,-1.91313 -8.6996,1.13861"
               style="fill:#000000;fill-opacity:1;fill-rule:nonzero;stroke:#000000;stroke-width:0.3985;stroke-linecap:butt;stroke-linejoin:miter;stroke-miterlimit:10;stroke-dasharray:none;stroke-opacity:1"
               id="path24" /><path
               d="m 18.21892,29.46967 c 0,0 -1.59482,-5.28316 -8.33562,-7.78782 0,0 7.06041,1.04703 8.33562,7.78782"
               style="fill:#000000;fill-opacity:1;fill-rule:nonzero;stroke:#000000;stroke-width:0.3985;stroke-linecap:butt;stroke-linejoin:miter;stroke-miterlimit:10;stroke-dasharray:none;stroke-opacity:1"
               id="path26" /><path
               d="m 20.13205,29.42325 c 0,0 -1.0928,-4.14464 -5.28386,-6.69498 0,0 4.91914,1.64063 5.28386,6.69498"
               style="fill:#000000;fill-opacity:1;fill-rule:nonzero;stroke:#000000;stroke-width:0.3985;stroke-linecap:butt;stroke-linejoin:miter;stroke-miterlimit:10;stroke-dasharray:none;stroke-opacity:1"
               id="path28" /><path
               d="m 22.04457,29.05917 c 0,0 -0.59219,-4.14456 -5.78457,-6.7865 0,0 5.46557,1.13791 5.78457,6.7865"
               style="fill:#000000;fill-opacity:1;fill-rule:nonzero;stroke:#000000;stroke-width:0.3985;stroke-linecap:butt;stroke-linejoin:miter;stroke-miterlimit:10;stroke-dasharray:none;stroke-opacity:1"
               id="path30" /><path
               d="m 24.09499,29.19647 c 0,0 -0.4556,-4.37337 -5.14727,-6.83301 0,0 5.19297,1.13863 5.14727,6.83301"
               style="fill:#000000;fill-opacity:1;fill-rule:nonzero;stroke:#000000;stroke-width:0.3985;stroke-linecap:butt;stroke-linejoin:miter;stroke-miterlimit:10;stroke-dasharray:none;stroke-opacity:1"
               id="path32" /><path
               d="m 25.68842,28.42125 c 0,0 -0.63721,-4.09885 -5.64788,-6.5591 0,0 5.60288,1.32094 5.64788,6.5591"
               style="fill:#000000;fill-opacity:1;fill-rule:nonzero;stroke:#000000;stroke-width:0.3985;stroke-linecap:butt;stroke-linejoin:miter;stroke-miterlimit:10;stroke-dasharray:none;stroke-opacity:1"
               id="path34" /><path
               d="m 26.23552,27.01012 c 0,0 1.13861,-3.05173 5.05577,-4.41915 3.91715,-1.36612 5.60217,-1.09282 9.29111,0.95761 0,0 -3.09682,-3.32563 -7.78778,-2.45962 0,0 -5.55709,1.18371 -6.5591,5.92116"
               style="fill:#000000;fill-opacity:1;fill-rule:nonzero;stroke:#000000;stroke-width:0.3985;stroke-linecap:butt;stroke-linejoin:miter;stroke-miterlimit:10;stroke-dasharray:none;stroke-opacity:1"
               id="path36" /><path
               d="m 38.07707,22.09097 c 0,0 -2.96013,-3.55235 -2.96013,-8.6546 0,-5.10149 3.00594,-9.42772 3.00594,-9.42772 0,0 -3.96225,4.18964 -4.00725,9.15521 -0.04651,4.96427 2.77783,7.9251 3.96144,8.92711"
               style="fill:#000000;fill-opacity:1;fill-rule:nonzero;stroke:#000000;stroke-width:0.3985;stroke-linecap:butt;stroke-linejoin:miter;stroke-miterlimit:10;stroke-dasharray:none;stroke-opacity:1"
               id="path38" /><path
               d="m 7.74268,19.08435 c 0,0 3.41586,-7.97162 -0.86602,-15.89671 0,0 2.73344,2.68773 2.87074,8.01668 0.1359,5.32817 -2.00472,7.88003 -2.00472,7.88003"
               style="fill:#000000;fill-opacity:1;fill-rule:nonzero;stroke:#000000;stroke-width:0.3985;stroke-linecap:butt;stroke-linejoin:miter;stroke-miterlimit:10;stroke-dasharray:none;stroke-opacity:1"
               id="path40" /><path
               d="m 9.6101,19.40195 c 0,0 1.63923,-2.77725 1.59422,-7.65122 C 11.15854,6.87738 9.063,3.91643 9.063,3.91643 c 0,0 2.55173,2.50465 2.77854,7.78851 0.2281,5.28388 -2.23144,7.69701 -2.23144,7.69701"
               style="fill:#000000;fill-opacity:1;fill-rule:nonzero;stroke:#000000;stroke-width:0.3985;stroke-linecap:butt;stroke-linejoin:miter;stroke-miterlimit:10;stroke-dasharray:none;stroke-opacity:1"
               id="path42" /><path
               d="m 11.15854,19.94974 c 0,0 2.18631,-3.46094 2.23212,-8.6082 0.04509,-5.14786 -2.73284,-8.79112 -2.73284,-8.79112 0,0 3.32504,3.64326 3.46163,8.60881 0.13662,4.96417 -2.96091,8.79051 -2.96091,8.79051"
               style="fill:#000000;fill-opacity:1;fill-rule:nonzero;stroke:#000000;stroke-width:0.3985;stroke-linecap:butt;stroke-linejoin:miter;stroke-miterlimit:10;stroke-dasharray:none;stroke-opacity:1"
               id="path44" /><path
               d="m 12.52525,20.81506 c 0,0 2.86933,-3.55235 2.82433,-9.15452 -0.04579,-5.60146 -2.91515,-9.51932 -2.91515,-9.51932 0,0 3.46225,3.23415 3.50666,9.42781 0.04641,6.19497 -3.41584,9.24603 -3.41584,9.24603"
               style="fill:#000000;fill-opacity:1;fill-rule:nonzero;stroke:#000000;stroke-width:0.3985;stroke-linecap:butt;stroke-linejoin:miter;stroke-miterlimit:10;stroke-dasharray:none;stroke-opacity:1"
               id="path46" /><path
               d="m 14.39268,21.58896 c 0,0 2.82354,-4.14396 2.91514,-9.92912 C 17.3986,5.87537 14.07367,1.5942 14.07367,1.5942 c 0,0 3.50804,3.00594 3.87204,10.11074 0,0 0.09021,5.46626 -3.55303,9.88402"
               style="fill:#000000;fill-opacity:1;fill-rule:nonzero;stroke:#000000;stroke-width:0.3985;stroke-linecap:butt;stroke-linejoin:miter;stroke-miterlimit:10;stroke-dasharray:none;stroke-opacity:1"
               id="path48" /><path
               d="m 16.898,20.17714 c 0,0 2.50465,-2.64192 2.36802,-8.83691 C 19.13004,5.14584 15.75938,1.0464 15.75938,1.0464 c 0,0 3.91715,3.00664 4.23606,10.15792 0,0 0.3641,5.23738 -3.09744,8.97282"
               style="fill:#000000;fill-opacity:1;fill-rule:nonzero;stroke:#000000;stroke-width:0.3985;stroke-linecap:butt;stroke-linejoin:miter;stroke-miterlimit:10;stroke-dasharray:none;stroke-opacity:1"
               id="path50" /><path
               d="m 0.72809,0 c 0,0 3.68965,3.27911 8.38141,1.6392 C 13.80046,0 19.63074,-0.7752 23.04648,3.00531 c 0,0 -2.18633,-2.86873 -7.6061,-1.5477 C 10.01993,2.77852 5.32826,3.91643 0.72809,0"
               style="fill:#000000;fill-opacity:1;fill-rule:nonzero;stroke:#000000;stroke-width:0.3985;stroke-linecap:butt;stroke-linejoin:miter;stroke-miterlimit:10;stroke-dasharray:none;stroke-opacity:1"
               id="path52" /><path
               d="m 45.41138,0 c 0,0 -3.68965,3.27911 -8.38132,1.6392 C 32.33899,0 26.50873,-0.7752 23.09299,3.00531 c 0,0 2.18632,-2.86873 7.60609,-1.5477 C 36.11954,2.77852 40.8112,3.91643 45.41138,0"
               style="fill:#000000;fill-opacity:1;fill-rule:nonzero;stroke:#000000;stroke-width:0.3985;stroke-linecap:butt;stroke-linejoin:miter;stroke-miterlimit:10;stroke-dasharray:none;stroke-opacity:1"
               id="path54" /><path
               d="m 26.37492,21.99606 c 0,0 1.79833,-1.51431 1.82222,-2.88853 0.02401,-1.37221 -1.3489,-1.86942 -2.03532,-1.04089 -0.68651,0.82849 -0.1899,1.72731 0.30801,1.6809 0.4959,-0.04651 0.42551,-1.20691 0.42551,-1.20691 0,0 0.59219,0.45009 0.11888,1.32572 -0.4734,0.87359 -1.56282,0.30739 -1.39682,-1.01901 0.16531,-1.32583 1.89334,-2.08252 2.76895,-0.68512 0.87572,1.39543 -0.59141,3.33654 -2.01143,3.83384"
               style="fill:#000000;fill-opacity:1;fill-rule:nonzero;stroke:#000000;stroke-width:0.3985;stroke-linecap:butt;stroke-linejoin:miter;stroke-miterlimit:10;stroke-dasharray:none;stroke-opacity:1"
               id="path56" /><path
               d="m 29.16707,15.9356 c 0,0 0.75751,1.49241 2.15433,0.7349 1.3967,-0.75752 1.51559,-3.38505 0.42619,-4.33235 -1.08881,-0.94603 -1.98833,0.7813 -1.96512,2.29622 0.02391,1.51501 1.23151,1.60921 1.51561,0.4734 0.28352,-1.13661 -0.5218,-2.15362 -0.5218,-2.15362 0,0 1.16041,0.3784 0.99522,1.91733 -0.166,1.53811 -1.44461,2.08252 -2.20143,0.5436 -0.75752,-1.53811 0.52049,-3.73884 1.60921,-3.69174 1.08872,0.0465 2.17674,1.68033 1.72804,3.57294 -0.45012,1.89472 -2.93424,3.03125 -3.74025,0.63932"
               style="fill:#000000;fill-opacity:1;fill-rule:nonzero;stroke:#000000;stroke-width:0.3985;stroke-linecap:butt;stroke-linejoin:miter;stroke-miterlimit:10;stroke-dasharray:none;stroke-opacity:1"
               id="path58" /><path
               d="m 22.42227,16.8365 c 0,0 1.82223,0.448 2.57973,-1.11401 0.75682,-1.56142 0.23631,-2.98075 -0.6393,-3.71423 -0.87561,-0.73502 -2.20132,0.40289 -2.13032,2.29631 0.071,1.89193 1.46782,1.41792 1.70412,0.68499 0.237,-0.73349 0,-2.15281 0,-2.15281 0,0 0.9938,0.87561 0.5922,2.27174 -0.4023,1.3954 -2.50943,1.3721 -2.72183,-0.80392 -0.2131,-2.17821 1.4671,-3.38575 2.76893,-2.79364 1.30182,0.5895 1.56142,2.69793 0.94672,4.25865 C 24.9071,17.333 23.5342,17.2845 22.42227,16.8365"
               style="fill:#000000;fill-opacity:1;fill-rule:nonzero;stroke:#000000;stroke-width:0.3985;stroke-linecap:butt;stroke-linejoin:miter;stroke-miterlimit:10;stroke-dasharray:none;stroke-opacity:1"
               id="path60" /><path
               d="m 25.71231,9.83 c 0,0 1.53752,0.99452 2.93436,-0.6639 1.39671,-1.65562 1.04089,-5.06457 0.07168,-6.55558 -0.97129,-1.49042 -2.58043,-0.80462 -2.95883,2.10643 -0.37842,2.91103 0.2124,4.14186 1.20621,4.02295 0.99512,-0.1181 1.46852,-2.15283 1.30252,-3.85693 -0.166,-1.70484 -1.04161,-2.31966 -1.04161,-2.31966 0,0 1.68092,0.49663 1.72801,3.24304 0.04712,2.74504 -2.03541,4.44917 -3.14732,2.84005 -1.11264,-1.60992 -0.52121,-6.01199 0.946,-7.029 1.46782,-1.0191 3.38433,1.15971 3.76345,3.66785 0.37841,2.50874 -1.84552,6.93471 -4.80447,4.54475"
               style="fill:#000000;fill-opacity:1;fill-rule:nonzero;stroke:#000000;stroke-width:0.3985;stroke-linecap:butt;stroke-linejoin:miter;stroke-miterlimit:10;stroke-dasharray:none;stroke-opacity:1"
               id="path62" /></g></g></g></g></g></svg>
