<?xml version="1.0" encoding="UTF-8" standalone="no"?>
<svg
   xmlns:dc="http://purl.org/dc/elements/1.1/"
   xmlns:cc="http://creativecommons.org/ns#"
   xmlns:rdf="http://www.w3.org/1999/02/22-rdf-syntax-ns#"
   xmlns:svg="http://www.w3.org/2000/svg"
   xmlns="http://www.w3.org/2000/svg"
   xmlns:sodipodi="http://sodipodi.sourceforge.net/DTD/sodipodi-0.dtd"
   xmlns:inkscape="http://www.inkscape.org/namespaces/inkscape"
   version="1.1"
   id="svg2"
   xml:space="preserve"
   width="595.09332"
   height="108"
   viewBox="0 0 595.09332 108"
   sodipodi:docname="vectorian071.pdf"><metadata
     id="metadata8"><rdf:RDF><cc:Work
         rdf:about=""><dc:format>image/svg+xml</dc:format><dc:type
           rdf:resource="http://purl.org/dc/dcmitype/StillImage" /></cc:Work></rdf:RDF></metadata><defs
     id="defs6"><clipPath
       clipPathUnits="userSpaceOnUse"
       id="clipPath24"><path
         d="M 0,0 H 443.00569 V 81.00102 H 0 Z"
         id="path22" /></clipPath></defs><sodipodi:namedview
     pagecolor="#ffffff"
     bordercolor="#666666"
     borderopacity="1"
     objecttolerance="10"
     gridtolerance="10"
     guidetolerance="10"
     inkscape:pageopacity="0"
     inkscape:pageshadow="2"
     inkscape:window-width="640"
     inkscape:window-height="480"
     id="namedview4" /><g
     id="g10"
     inkscape:groupmode="layer"
     inkscape:label="vectorian071"
     transform="matrix(1.3333333,0,0,-1.3333333,0,108)"><g
       id="g12"
       transform="translate(72,9)"><g
         id="g14"
         transform="translate(-72,-9)"><g
           id="g16"><g
             id="g18"><g
               id="g20"
               clip-path="url(#clipPath24)"><path
                 d="m 49.63933,55.27809 c 1.07471,-2.78084 3.13193,-2.76784 5.00986,-1.52031 1.87562,1.24741 3.39724,-0.5328 3.39724,-0.5328 -0.62561,2.67682 -3.48735,3.30053 -5.27517,3.20964 -1.78792,-0.09102 -1.87822,0 -4.11355,2.32591 -2.23403,2.32605 -5.45477,5.99049 -5.45477,5.99049 -5.27647,5.80848 -10.99684,5.80848 -14.57489,5.63947 -3.57724,-0.18189 -4.73776,-0.89661 -4.02335,-1.79322 0.71581,-0.89662 1.78672,0.27289 1.78672,0.27289 5.18767,1.24753 9.83734,0.62372 14.66429,-3.75534 4.83257,-4.37915 0.09151,-10.36952 -2.68184,-8.8622 -2.77203,1.53341 -0.98149,5.01586 -0.98149,5.01586 -0.98343,0.7147 -4.56197,-0.27291 -4.29556,-4.65198 0.27029,-4.37915 4.82965,-6.79608 9.12071,-4.19714 4.29495,2.58583 3.40155,7.41969 3.40155,7.41969 0,0 2.94923,-1.79321 4.02025,-4.56096 z"
                 style="fill:#000000;fill-opacity:1;fill-rule:nonzero;stroke:#000000;stroke-width:0.3985;stroke-linecap:butt;stroke-linejoin:miter;stroke-miterlimit:10;stroke-dasharray:none;stroke-opacity:1"
                 id="path26" /><path
                 d="m 26.24432,16.8147 c 5.11278,0.87062 9.54653,3.82036 12.41308,8.0695 1.4049,-0.6497 2.66741,-0.79262 2.94161,-0.2729 0.26261,0.4938 -0.51269,1.44243 -1.78291,2.22203 0.49231,0.96161 0.9187,1.94922 1.2607,3.00175 1.99545,6.14637 0.69862,12.34464 -3.46753,16.59382 -4.19646,4.27513 -9.44122,5.65255 -14.02467,3.66442 -3.34504,-1.45541 -5.68769,-4.44406 -6.3729,-7.82258 -0.9989,-3.19666 -0.4162,-6.6402 2.03053,-8.92724 3.51237,-3.27453 8.70133,-1.7542 9.33953,2.48194 0.63699,4.22326 -2.63434,5.49667 -4.71027,4.85997 -2.07494,-0.63671 -2.87195,-3.33954 -4.86797,-1.75423 -1.36842,1.09151 -0.6777,4.08017 -0.10659,5.87339 1.06532,2.00122 2.78663,3.66444 4.98077,4.61306 4.35895,1.8842 9.17342,0.61069 13.20746,-3.49556 3.96945,-4.05413 5.20416,-9.97961 3.29246,-15.8661 -0.32492,-1.00052 -0.73283,-1.94911 -1.20243,-2.85873 -1.52652,0.77961 -2.97184,0.9746 -3.26523,0.42881 -0.2853,-0.53282 0.641,-1.58532 2.09001,-2.40395 -2.75983,-4.04124 -6.99689,-6.86108 -11.87746,-7.67968 -8.2446,-1.39042 -14.25827,2.326 -17.70231,5.44467 -1.08132,1.42932 -2.10204,3.48244 -1.55323,5.80846 1.03801,4.39205 3.43395,3.27455 3.83236,2.48193 0.3984,-0.80569 1.83741,-1.20851 2.47453,0.46782 0.64091,1.67621 -2.23592,4.00224 -5.42877,1.52031 C 5.62216,31.6153 5.13606,27.89896 6.61308,24.8063 c -1.00122,1.1175 -1.53283,1.91012 -1.55194,1.93613 -2.05691,3.50846 -3.24223,6.926 -3.83484,10.12262 -0.0089,0.97452 0.2577,1.44234 1.17392,2.14405 1.43521,1.1175 2.87033,0.5588 2.71064,1.5983 -0.15752,1.03963 -2.23372,0.32491 -3.59146,1.44244 -0.3882,0.32478 -0.6217,0.81861 -0.76392,1.37741 0.32372,8.16041 3.88946,13.79997 3.94656,13.89099 0.71192,1.11749 1.44922,2.14401 2.19403,3.14462 0.03191,-0.039 0.06111,-0.065 0.0927,-0.104 3.67627,-3.50844 9.14173,-3.76834 12.19876,-0.57169 2.91374,3.04062 2.59505,8.12151 -0.61302,11.62994 6.08479,3.82035 12.13656,5.28865 16.94864,5.74347 4.96925,0.05199 8.4787,-1.52032 11.63394,-3.26153 4.52536,-2.48194 5.83728,-3.92436 5.77138,-5.23677 -0.0662,-1.31243 0.0659,-2.88474 1.50893,-1.91014 1.4414,0.98751 5.96787,7.21191 5.96787,7.21191 0.91881,1.57231 -1.11662,1.3773 -2.36024,0.7276 -1.24741,-0.6627 -2.49483,0.12999 -2.49483,0.12999 -7.2941,3.39156 -14.19218,3.69036 -19.24286,3.14466 -3.82342,-0.28591 -8.50979,-1.16952 -13.42137,-3.39155 -1.07291,-0.104 -2.59302,0.1299 -2.82162,2.36493 0,0 1.3388,1.27352 0.0533,2.36502 -1.28663,1.07852 -3.08615,-0.10399 -2.26554,-2.46893 0.57273,-1.63731 2.00803,-2.91074 3.72495,-2.88474 -1.17,-0.5848 -2.34513,-1.23451 -3.52675,-1.98822 C 14.37427,75.45836 8.9265,75.71826 5.87206,72.52162 2.99022,69.50687 3.26813,64.50412 6.38087,60.99557 5.60046,59.95607 4.83174,58.87755 4.08534,57.70804 3.99214,57.57813 -5.28986,42.93346 4.43814,26.35262 4.51193,26.24863 10.39462,17.36052 21.07455,16.5678 21.11136,14.22887 20.35245,14.50166 17.08751,14.34576 13.73206,14.18987 8.3046,12.74744 4.23254,8.04349 0.16148,3.32654 0.64,0.29889 0.64,0.29889 c 2.55693,5.82149 5.35016,6.38019 7.5049,4.47008 2.15602,-1.92324 3.11262,-1.67633 5.42666,3.43042 2.31783,5.10688 4.55196,5.43167 5.83039,4.06724 1.2767,-1.35141 -0.31983,-2.87172 -1.75754,-5.66545 -1.43521,-2.79385 1.91763,-4.87298 1.91763,-4.87298 0.63941,3.44355 2.87273,4.31416 2.87273,4.31416 0,0 0.4796,-2.00112 3.11413,-2.87174 2.63465,-0.8836 2.79435,-2.39092 2.79435,-2.39092 7.82451,8.2124 -0.71952,10.05763 -3.03425,11.48693 -1.94523,1.20853 -1.18771,3.59947 -0.8946,4.32717 0.5989,0.052 1.20563,0.117 1.82992,0.2209 z m -7.41909,47.55943 c -1.61353,-1.57234 -4.72767,-0.98753 -6.95589,1.29939 -0.07732,0.09102 -0.13841,0.18203 -0.21192,0.25992 2.07215,2.04012 4.19326,3.72945 6.32329,5.11986 1.98154,-2.26103 2.38565,-5.17177 0.84452,-6.67917 z m -8.0656,8.29039 c 1.5563,1.50743 4.49216,1.01361 6.69566,-1.06552 -2.11021,-1.3904 -4.21673,-3.07964 -6.27635,-5.09375 -1.61524,2.15703 -1.84633,4.76897 -0.41931,6.15927 z"
                 style="fill:#000000;fill-opacity:1;fill-rule:nonzero;stroke:#000000;stroke-width:0.3985;stroke-linecap:butt;stroke-linejoin:miter;stroke-miterlimit:10;stroke-dasharray:none;stroke-opacity:1"
                 id="path28" /><path
                 d="m 78.9629,56.62952 c -0.4143,0 -0.80071,-0.11701 -1.11802,-0.33791 -0.8082,0.75371 -8.79269,8.27742 -11.55653,10.83734 -1.94915,1.80622 -2.03034,3.66443 -1.87493,4.69097 0.82421,0.6497 1.85971,0.078 5.17687,-1.75422 l 0.6521,-0.36381 2.99813,-1.72833 c 4.53455,-2.66384 10.71206,-6.27628 16.42872,-6.991 8.30831,-1.88411 13.03967,3.52156 14.77699,6.12039 1.12532,1.13051 1.88293,2.28703 2.24283,3.45655 0.473,1.5073 0.26899,3.04063 -0.60161,4.52204 -1.25011,2.14403 -2.90813,2.92376 -4.36356,3.15766 -0.8811,0.3248 -2.08922,0.5457 -3.71354,0.3118 -3.78915,-0.5327 -3.94144,-4.01525 -2.35013,-4.92486 1.59132,-0.90962 3.48965,-0.07801 4.09634,1.5853 0.45673,1.26044 0.70172,2.26105 2.03363,2.28703 1.22922,-0.24688 2.59755,-0.97459 3.66315,-2.78082 0.75882,-1.29941 0.94072,-2.63783 0.53401,-3.95025 -0.41191,-1.32543 -1.43971,-2.67684 -3.01334,-4.01526 -0.86681,-0.27291 -1.70883,-0.12999 -2.76205,0.11689 -1.89711,0.46782 -1.29041,-0.45478 -4.85376,-3.32652 -1.31851,-1.06552 -2.62613,-1.63733 -3.74864,-1.94913 -2.14833,0 -4.42106,0.5067 -6.68248,1.31241 1.31972,0.25991 3.62805,1.06552 4.21306,3.50846 0.8352,3.49554 -1.59133,2.50793 -1.51383,6.06839 0.0735,3.57342 -2.96113,5.23675 -6.90208,2.20901 -3.48454,-2.68985 -1.64963,-8.0825 -5.72818,-6.88699 -0.47461,0.2729 -0.939,0.5458 -1.38301,0.80562 l -3.01526,1.74132 -0.6523,0.36378 c -5.12915,2.81975 -5.43626,2.98875 -7.33969,-0.1299 l -0.5076,-0.8317 -1.27913,-1.93612 c -1.64722,-2.42993 -2.84013,-4.18415 -0.5051,-5.79547 l 0.3985,-0.25991 c 2.41863,-1.63731 7.70711,-5.22377 12.28247,-15.81421 0.01661,-1.37741 -0.39091,-3.20953 -2.58505,-3.66433 -3.62283,-0.74073 -3.70532,1.80621 -7.32696,3.13163 -3.62166,1.31241 -7.07581,-2.54692 -7.07581,-2.54692 0,0 5.18236,-3.79437 4.11395,-5.6006 -1.06912,-1.81921 -2.63623,1.06552 -5.84367,-1.81921 -3.20795,-2.87172 -4.03145,-7.7316 -4.03145,-7.7316 0,0 2.55063,5.84747 5.67737,2.96265 3.12863,-2.88475 6.41856,-2.96265 6.41856,-2.96265 0,0 -0.74179,-2.39102 -0.903,-5.01587 0,0 6.00869,-1.0785 10.28583,3.11865 2.99596,2.93674 4.45277,6.67908 4.46927,10.30452 0.85281,-4.34014 0.6981,-8.09549 -0.09901,-11.42204 -1.07102,-2.63783 -3.33092,-6.09437 -8.0682,-7.6667 -8.1694,-2.72884 -10.43844,-2.87174 -12.63118,-5.75647 0,0 2.72435,-0.51981 2.64945,-3.24864 -0.0661,-2.37793 -4.28166,-5.37967 -9.32473,-6.00338 -2.28072,0.05199 -4.37133,0.64971 -6.03637,1.98812 -3.79294,3.02774 -4.02363,7.4978 -2.05811,10.07063 0.06971,0.091 0.1433,0.1819 0.2168,0.2599 0.60671,0.40281 1.479,0.76673 2.60913,0.62371 2.34773,-0.2858 0.93901,-3.50843 3.17493,-4.14514 2.24365,-0.66271 4.37286,2.33892 2.17004,5.30166 -1.81984,2.44293 -6.24858,1.58533 -8.1418,-0.92261 C 40.42711,14.99548 40.222,14.77457 40.0408,14.54066 37.86058,11.68192 38.08138,6.75708 42.22594,3.44353 44.06345,1.97511 46.38568,1.3384 48.91103,1.3124 51.74535,0.85759 56.88261,0.71469 63.41281,3.49544 71.84511,7.08188 75.24425,15.26839 76.49727,23.28589 77.96288,28.26276 78.0279,34.14923 75.48216,41.55602 70.5065,56.0187 63.9299,60.46286 61.12096,62.37299 l -0.3908,0.2599 c -0.57609,0.3898 -0.87181,0.77972 -0.95172,1.22153 0.32743,0.8576 1.43393,1.93612 5.15967,0.46778 5.15718,-2.04011 12.04787,-7.36788 12.89798,-8.03059 -0.51021,-0.35081 -0.84781,-0.92261 -0.84781,-1.58533 0,-1.0525 0.88332,-1.92312 1.97462,-1.92312 1.09131,0 1.97452,0.87062 1.97452,1.92312 0,1.06562 -0.88321,1.92324 -1.97452,1.92324 z"
                 style="fill:#000000;fill-opacity:1;fill-rule:nonzero;stroke:#000000;stroke-width:0.3985;stroke-linecap:butt;stroke-linejoin:miter;stroke-miterlimit:10;stroke-dasharray:none;stroke-opacity:1"
                 id="path30" /><path
                 d="m 186.5382,38.37239 c 0.37429,-0.15591 0.7017,-0.37682 0.9707,-0.64972 -1.0148,5.24976 -6.6025,6.39328 -6.6025,6.39328 -3.25891,0.72762 -5.89935,-1.88423 -7.8642,-4.30116 -1.5982,-1.98811 -4.76104,-1.67632 -5.83965,-1.5204 0.1508,0.51979 0.23518,1.05259 0.23518,1.61131 0,1.85822 -0.894,3.53453 -2.29862,4.63907 1.78023,3.09263 5.85268,2.31291 5.85268,2.31291 3.70075,-0.92262 7.373,0.75371 9.14021,4.10626 1.20462,2.28704 0.84851,6.52318 -1.93481,9.35593 0.2598,-1.02652 0.0103,-2.11804 -0.77452,-2.84575 -1.18121,-1.10451 -3.10564,-0.96161 -4.29856,0.32491 -1.19421,1.27342 -1.20332,3.20955 -0.0195,4.31405 0.29502,0.27289 0.63932,0.46781 1.00191,0.58481 -5.16397,1.37741 -8.62829,-3.15764 -8.62829,-3.15764 -2.07525,-2.61194 -0.88233,-6.12037 0.44569,-8.94011 1.03961,-2.22203 -0.44569,-4.82097 -1.11232,-5.80858 -1.0681,0.7407 -2.3818,1.18252 -3.80734,1.18252 -1.24481,0 -2.40264,-0.3378 -3.38765,-0.90961 -2.14922,2.97573 0.41063,6.38028 0.41063,6.38028 2.43901,2.93673 2.5417,6.96498 0.295,10.01863 -1.52555,2.09213 -5.49279,3.61244 -9.25983,2.35203 1.037,-0.20791 1.91023,-0.90962 2.22462,-1.93621 0.47171,-1.54633 -0.4976,-3.20955 -2.17003,-3.72937 -1.67112,-0.51981 -3.41233,0.3249 -3.88664,1.87123 -0.11819,0.3898 -0.1468,0.77961 -0.0948,1.15651 -3.49555,-4.04125 -0.93561,-9.13512 -0.93561,-9.13512 1.44241,-3.01463 5.11975,-3.46944 8.2475,-3.50844 2.57423,-0.03901 4.30636,-2.78084 4.81836,-3.69044 -1.62953,-1.10453 -2.69504,-2.91074 -2.69504,-4.93787 0,-0.55872 0.0857,-1.1045 0.23392,-1.61131 -3.37467,-1.00052 -5.79938,2.31301 -5.79938,2.31301 -2.08043,3.19665 -5.90988,4.47007 -9.49374,3.22265 -2.43642,-0.84462 -5.06134,-4.18425 -4.95997,-8.16049 0.51072,0.9226 1.43725,1.55931 2.51053,1.55931 1.61394,0 2.92637,-1.41642 2.92637,-3.17064 0,-1.75423 -1.31243,-3.17064 -2.92637,-3.17064 -0.40667,0 -0.79139,0.09099 -1.1396,0.24689 2.84055,-4.52204 8.45932,-3.57344 8.45932,-3.57344 3.30315,0.5068 4.82616,3.88536 5.78245,6.86109 0.74593,2.32593 3.60857,3.20954 4.77029,3.48244 0.82121,-2.22203 2.96792,-3.85936 5.54466,-4.05426 0.60951,-3.50844 -3.01853,-5.50957 -3.01853,-5.50957 -3.42535,-1.67633 -5.16919,-5.31477 -4.37266,-9.01811 0.5406,-2.53393 3.53065,-5.54857 7.48221,-5.93846 -0.85633,0.6238 -1.36444,1.61131 -1.23183,2.67683 0.2014,1.61132 1.76852,2.72883 3.50584,2.50792 1.73993,-0.2079 2.97963,-1.68922 2.77955,-3.28753 -0.0481,-0.4028 -0.18462,-0.77973 -0.3873,-1.10453 4.84436,2.26104 4.59614,7.95252 4.59614,7.95252 -0.0806,3.33964 -3.24864,5.26276 -6.08136,6.58816 -2.18823,1.01363 -2.72755,3.89835 -2.86136,5.10679 0.0389,0 0.074,0 0.11431,0 2.80035,0 5.18478,1.70231 6.06318,4.06724 3.71254,-0.1169 4.81838,-4.27516 4.81838,-4.27516 0.79129,-3.72934 3.89824,-6.30228 7.69258,-6.43218 2.57814,-0.091 6.23218,2.07914 7.5732,5.82147 -0.81092,-0.6757 -1.90374,-0.9356 -2.90163,-0.54578 -1.50873,0.58478 -2.21695,2.378 -1.58664,4.01533 0.63022,1.62422 2.36626,2.48183 3.87487,1.89714 z m -25.53394,-3.80736 c -3.14073,0 -5.70067,2.39095 -5.70067,5.34067 0,2.94975 2.55994,5.34067 5.70067,5.34067 3.14204,0 5.69938,-2.39092 5.69938,-5.34067 0,-2.94972 -2.55734,-5.34067 -5.69938,-5.34067 z"
                 style="fill:#000000;fill-opacity:1;fill-rule:nonzero;stroke:#000000;stroke-width:0.3985;stroke-linecap:butt;stroke-linejoin:miter;stroke-miterlimit:10;stroke-dasharray:none;stroke-opacity:1"
                 id="path32" /><path
                 d="m 161.30705,41.81592 c -1.2189,0 -2.20251,-0.98761 -2.20251,-2.20903 0,-1.22151 0.98361,-2.20914 2.20251,-2.20914 1.21753,0 2.20255,0.98763 2.20255,2.20914 0,1.22142 -0.98502,2.20903 -2.20255,2.20903 z"
                 style="fill:#000000;fill-opacity:1;fill-rule:nonzero;stroke:#000000;stroke-width:0.3985;stroke-linecap:butt;stroke-linejoin:miter;stroke-miterlimit:10;stroke-dasharray:none;stroke-opacity:1"
                 id="path34" /><path
                 d="m 198.83615,42.98543 c -0.0182,0.37681 -0.0273,0.76661 -0.0572,1.14342 -0.3496,4.72996 -1.48273,9.18713 -3.31095,13.24128 -0.62642,2.04012 -1.64772,5.05486 -3.11484,8.4464 -2.68981,6.22429 -2.26353,8.84912 -0.6367,9.97963 1.62563,1.13052 4.59746,0 4.95476,-3.32654 0,0 3.18234,2.75482 0.421,5.73058 -2.75863,2.97564 -8.13569,1.2084 -8.13569,-4.80797 0,0 -0.3756,-2.96274 2.99643,-9.90172 -1.77373,2.46892 -3.86196,4.69096 -6.23857,6.61418 -16.99402,13.79997 -38.18529,9.71973 -48.45993,4.96385 -1.73342,-0.62379 -3.82164,-1.49441 -6.16199,-2.70282 -6.56077,-3.39155 -11.08414,-3.31364 -12.29134,-1.05262 -1.20593,2.26103 1.0551,5.13288 4.37525,3.46954 0,0 -0.45221,4.52206 -4.82618,4.06726 -4.37645,-0.4418 -5.73176,-6.62718 -1.7347,-9.04411 3.99574,-2.41694 9.27401,-1.20852 12.74355,0.75371 1.46962,0.8316 3.05623,1.70222 4.79888,2.57282 -2.82245,-2.10502 -7.36531,-6.22427 -10.53586,-12.66946 -3.02122,0.4418 -5.92157,-1.05261 -6.85588,-3.71645 -1.0005,-2.84573 0.5809,-6.02937 3.56175,-7.47169 -0.10519,-0.84471 -0.1884,-1.70233 -0.23782,-2.59894 0,-0.026 0,-0.6497 0.0897,-1.65031 -0.83162,-0.44182 -5.27838,-3.27455 -5.27838,-14.1119 0,-4.75595 -0.1572,-9.69381 -1.02912,-14.12487 -5.65126,4.17126 -9.4924,7.9526 -11.04133,9.56392 0.27549,2.65083 -0.49379,3.23555 -0.49379,3.23555 2.27661,0 3.06282,0 4.81184,1.48141 1.75164,1.48132 3.67484,-0.61079 3.67484,-0.61079 -2.01282,3.67744 -5.42386,1.57231 -8.04749,1.66331 -2.62584,0.091 -7.69991,5.34065 -10.49934,7.61469 -0.83249,0.67571 -1.36791,1.03953 -1.71253,1.23451 -0.06028,0.51971 -0.0894,1.07854 -0.0729,1.74124 l 0.0089,0.0909 0.099,0.013 c 3.94655,0 4.36275,-1.45533 11.74024,-2.18304 7.3757,-0.7277 9.55743,3.11864 8.3099,6.86102 -1.2448,3.74243 -4.88066,1.55941 -4.04774,-0.31182 0.8291,-1.87123 2.80294,-1.03963 2.80294,-1.03963 0.83161,-2.28692 -1.35273,-3.53443 -1.35273,-3.53443 -3.22003,-1.55932 -8.83121,0.7277 -12.88246,4.57406 -4.04994,3.84635 -7.06508,3.84635 -9.45203,3.63844 -2.38812,-0.2079 -4.05304,1.14351 -4.05304,1.14351 l -0.09269,-0.104 c 0,0 1.31221,-1.68922 1.0431,-4.08025 -0.26651,-2.37794 -0.34012,-5.39267 3.40345,-9.53782 3.74095,-4.14525 5.88548,-9.81082 4.24854,-12.99437 0,0 -1.29679,-2.14414 -3.56332,-1.2605 0,0 0.8806,1.94911 -0.96954,2.83282 -1.84761,0.87063 -4.12035,-2.70283 -0.41109,-4.04124 3.70924,-1.33842 7.60509,0.7406 7.06059,8.13438 -0.41371,5.60059 -1.33983,7.2249 -1.72333,9.38204 1.42313,-1.24751 4.89577,-4.35315 7.47941,-7.2119 3.32162,-3.67744 2.62294,-5.43167 2.62294,-9.44691 0,-4.02826 2.36201,-4.47007 2.36201,-4.47007 0,0 -1.30981,1.75423 -0.52499,5.69147 0.0416,0.1949 0.0741,0.38991 0.10659,0.57181 1.80364,-1.84521 5.60969,-5.48368 11.00624,-9.43391 C 112.33774,9.7328 109.414,4.58705 103.22473,2.55994 98.01553,0.85759 93.2313,1.4294 90.10475,4.14523 87.80472,6.14636 86.7455,9.0831 87.26971,12.00684 c 0.65482,3.63835 3.39583,5.45758 5.76759,5.37966 0.14579,0 0.29427,-0.02598 0.44299,-0.05198 2.05291,-0.92262 2.79025,-2.87175 1.39453,-3.96335 -1.75262,-1.37733 -2.00122,-4.92488 1.1624,-4.98977 3.15965,-0.07801 5.48008,4.31403 2.52642,7.51069 -1.6656,1.80623 -3.65213,2.19604 -5.06825,2.18304 -0.1448,0.013 -0.28939,0.03899 -0.43281,0.05199 -2.68903,0.091 -5.78786,-1.94914 -6.51628,-5.99039 -0.5709,-3.18362 0.58131,-6.36729 3.07373,-8.5373 3.32905,-2.89773 8.37013,-3.53444 13.83077,-1.74123 6.2569,2.05315 9.35084,7.1989 10.85036,13.70908 2.32734,-1.6893 4.93137,-3.41755 7.78879,-5.06786 -2.00502,-0.31182 -4.30104,-1.00052 -4.73895,-2.55983 -0.79921,-2.87184 3.53573,-3.40454 5.80458,-3.06674 2.26752,0.33789 6.06967,1.72833 5.93577,-4.87285 0,0 1.58272,2.11812 -0.1741,6.92598 0.9213,-0.42882 1.85433,-0.84462 2.81192,-1.24742 14.91371,-6.27625 36.07248,-6.92596 50.49626,2.45593 1.77764,0.46782 4.66367,1.07852 7.84471,1.14351 -1.44372,-0.5588 -2.65484,-1.50743 -3.16024,-2.75482 -1.23322,-3.05365 1.2929,-5.00288 3.40974,-3.58646 2.11673,1.41641 2.41043,4.00226 5.46536,3.82036 3.05504,-0.18192 2.29483,-5.17178 2.29483,-5.17178 0.76282,2.17003 1.11364,5.17178 -1.70611,7.22491 -1.06041,0.7796 -2.48715,1.07851 -3.91785,0.9875 -1.61783,0.19489 -4.52077,0.28591 -8.6477,-0.5717 1.81521,1.32541 3.51233,2.80674 5.05476,4.49605 0.9252,1.01352 1.78671,2.07914 2.59363,3.20966 0.5068,-0.23392 1.06689,-0.37692 1.66592,-0.37692 2.17912,0 3.94765,1.7672 3.94765,3.95036 0,1.35141 -0.68861,2.55983 -1.73732,3.26154 1.94661,4.43105 3.13553,9.33001 3.46304,14.34577 0.6939,0.77971 2.15703,2.89775 0.0403,4.87296 z m -79.29173,7.22479 c -2.33382,1.67633 -3.24474,4.40518 -2.03362,6.08139 0.9252,1.28652 2.82624,1.58533 4.71566,0.90961 -0.83551,-2.27403 -1.48142,-4.76897 -1.84913,-7.5107 -0.28199,0.1429 -0.56131,0.3248 -0.83291,0.5197 z m 4.39075,6.08139 c 2.33514,-1.68922 3.24604,-4.40506 2.03495,-6.09437 -0.95512,-1.32543 -2.94584,-1.58533 -4.88978,-0.81861 0.3482,2.75482 0.98764,5.26276 1.81923,7.52379 0.35211,-0.16901 0.69913,-0.36391 1.0356,-0.61081 z M 193.12248,24.4554 c -2.18175,0 -3.95155,-1.78023 -3.95155,-3.95024 0,-1.32543 0.65231,-2.48195 1.65021,-3.20964 -0.77961,-1.07852 -1.61132,-2.10514 -2.50013,-3.07965 -2.73783,-2.98873 -5.97607,-5.37967 -9.53262,-7.25089 3.62674,4.45706 1.49042,10.39554 -1.92581,10.13562 -3.67607,-0.2729 -3.58386,-4.49606 -3.58386,-4.49606 0,0 4.03996,4.04126 4.95868,-0.83161 0.53408,-2.81982 -0.31833,-4.61305 -1.13443,-5.63957 -5.88767,-2.72883 -12.54476,-4.10625 -19.27326,-4.35315 3.09915,2.05313 2.47154,5.74349 0.56661,7.1729 -2.07911,1.55931 -4.10755,-0.67572 -3.48383,-2.02713 0.62371,-1.35144 2.3403,-0.67571 2.3403,-0.67571 0,0 1.45664,-1.03953 0.31313,-3.01464 -0.4379,-0.76671 -1.11882,-1.22153 -1.79192,-1.49443 -8.3917,-0.026 -16.77052,1.66333 -23.7602,4.61306 -0.24041,0.10392 -0.4769,0.2079 -0.71862,0.31182 4.01665,-0.3508 11.93144,-0.0519 14.67459,7.13398 0,0 -2.06744,-4.32716 -7.27168,-4.19725 -5.20159,0.14301 -5.5343,4.67795 -8.87125,8.34241 -3.33563,3.66444 -7.27037,1.27342 -6.80517,-2.00113 0,0 0,-2.87173 2.20253,-5.19777 0,0 -0.81342,0 -1.91143,-0.10389 -3.27975,1.85812 -6.23988,3.80735 -8.83882,5.69147 0.92391,4.45705 1.16173,9.47292 1.16173,14.57967 0,9.44693 3.51885,12.55259 4.62865,13.29329 0.42752,-3.57346 1.90753,-10.36955 7.09491,-15.50232 4.79104,-4.72994 11.60653,-7.01698 20.25696,-6.80908 0.20399,0.01302 0.36639,0.18199 0.3586,0.37691 -0.004,0.2079 -0.17281,0.3638 -0.37551,0.3638 -8.44252,-0.2079 -15.07609,2.00113 -19.71765,6.5882 -7.1106,7.02998 -7.0573,17.32151 -7.0573,17.42541 0.0416,0.79271 0.11571,1.57231 0.20531,2.32605 0.0273,0 0.0507,-0.01302 0.0754,-0.02602 3.47725,-1.20851 7.17291,0.29891 8.25401,3.37856 1.08112,3.09263 -0.86282,6.57516 -4.34015,7.7966 -0.22221,0.07799 -0.44439,0.11699 -0.66662,0.1689 3.51245,7.05598 8.69722,11.21423 11.21934,12.94246 -2.08421,-2.06613 -3.37204,-5.32765 -3.12122,-9.0831 0.37559,-5.6526 5.42906,-5.8085 6.63499,-3.54747 1.20709,2.26103 -0.67832,4.00224 -0.67832,4.00224 0.1507,-2.04011 -4.14654,-3.70334 -4.44925,1.80625 -0.22612,4.14525 2.89124,7.14689 4.43625,8.35542 5.62917,2.4559 14.14698,4.58703 23.3678,3.92423 -9.17401,-2.19604 -10.16553,-9.55082 -10.16553,-9.55082 0,0 1.62821,4.66495 4.95216,4.45705 3.32784,-0.2079 4.59867,-2.97573 7.9253,-1.83222 3.32526,1.13053 2.26624,5.01587 2.26624,5.01587 -0.0741,0.67571 0.4638,0.96161 1.19799,1.02651 5.86699,-1.26041 11.81458,-3.80736 17.31243,-8.26441 4.24786,-3.45646 7.5458,-7.8616 9.74844,-12.91636 -1.52171,1.76721 -4.55456,4.39206 -8.73352,3.53444 0,0 -3.11223,-0.92261 -2.82764,-4.53506 0.28331,-3.61245 4.17518,-3.10565 4.38566,-0.98751 0.2157,2.11802 -2.61841,2.54683 -1.3449,4.24916 1.16422,1.54631 6.10727,0.4288 9.2182,-3.98935 1.26694,-3.37845 2.06734,-7.0169 2.34935,-10.82423 0.0208,-0.28592 0.026,-0.57183 0.0416,-0.85762 -0.3015,-0.03902 -0.68609,-0.18201 -1.08111,-0.62381 -0.8434,-0.92263 -1.3241,-1.63724 -4.61174,-2.00114 0,0 3.80993,-0.8056 4.52984,-1.7672 0.39111,-0.51981 0.81601,-0.77962 1.12401,-0.90963 -0.3391,-4.82086 -1.49561,-9.52482 -3.36293,-13.79997 -0.48082,0.2209 -1.00703,0.3378 -1.56322,0.3378 z"
                 style="fill:#000000;fill-opacity:1;fill-rule:nonzero;stroke:#000000;stroke-width:0.3985;stroke-linecap:butt;stroke-linejoin:miter;stroke-miterlimit:10;stroke-dasharray:none;stroke-opacity:1"
                 id="path36" /><path
                 d="m 416.57515,68.87016 c 0,0 1.0733,-1.16951 1.78932,-0.27289 0.71732,0.89661 -0.4483,1.61133 -4.02435,1.79322 -3.57344,0.16901 -9.30011,0.16901 -14.57579,-5.63947 0,0 -3.21873,-3.66444 -5.44986,-5.99049 -2.24024,-2.32591 -2.32604,-2.41693 -4.11795,-2.32591 -1.78543,0.09089 -4.64806,-0.53282 -5.27307,-3.20964 0,0 1.51901,1.78021 3.39415,0.5328 1.87892,-1.24753 3.93594,-1.26053 5.01057,1.52031 1.0734,2.76775 4.02303,4.56096 4.02303,4.56096 0,0 -0.894,-4.83386 3.39936,-7.41969 4.29204,-2.59894 8.85181,-0.18201 9.11951,4.19714 0.26891,4.37907 -3.30975,5.36668 -4.29205,4.65198 0,0 1.78801,-3.48245 -0.98372,-5.01586 -2.77174,-1.50732 -7.51068,4.48305 -2.68332,8.8622 4.82875,4.37906 9.48072,5.00287 14.66417,3.75534 z"
                 style="fill:#000000;fill-opacity:1;fill-rule:nonzero;stroke:#000000;stroke-width:0.3985;stroke-linecap:butt;stroke-linejoin:miter;stroke-miterlimit:10;stroke-dasharray:none;stroke-opacity:1"
                 id="path38" /><path
                 d="m 425.88298,14.34576 c -3.26544,0.1559 -4.02437,-0.11689 -3.99057,2.22204 10.68275,0.79272 16.56522,9.68083 16.63933,9.78482 9.72761,16.58084 0.44571,31.22551 0.35211,31.35542 -0.74582,1.16951 -1.51773,2.24803 -2.29474,3.28753 3.10953,3.50855 3.38765,8.5113 0.50801,11.52605 -3.05494,3.19664 -8.50351,2.93674 -12.17956,-0.55881 -1.17731,0.75371 -2.35723,1.40342 -3.52414,1.98822 1.71663,-0.026 3.15114,1.24743 3.72165,2.88474 0.82251,2.36494 -0.97722,3.54745 -2.26364,2.46893 -1.28512,-1.0915 0.052,-2.36502 0.052,-2.36502 -0.2287,-2.23503 -1.74651,-2.46893 -2.82373,-2.36493 -4.90796,2.22203 -9.59243,3.10564 -13.41666,3.39155 -5.05228,0.5457 -11.94966,0.2469 -19.24597,-3.14466 0,0 -1.24751,-0.79269 -2.49233,-0.12999 -1.24621,0.6497 -3.27853,0.84471 -2.36372,-0.7276 0,0 4.52986,-6.2244 5.97096,-7.21191 1.44364,-0.9746 1.57233,0.59771 1.50864,1.91014 -0.065,1.31241 1.2474,2.75483 5.77206,5.23677 3.15245,1.74121 6.66619,3.31352 11.63385,3.26153 4.81187,-0.45482 10.86335,-1.92312 16.94863,-5.74347 -3.20964,-3.50843 -3.52664,-8.58932 -0.61591,-11.62994 3.06012,-3.19665 8.52303,-2.93675 12.19905,0.57169 0.0338,0.039 0.0637,0.065 0.0949,0.104 0.74592,-1.00061 1.48004,-2.02713 2.19345,-3.14462 0.0585,-0.09102 3.62155,-5.73058 3.94774,-13.89099 -0.14299,-0.5588 -0.37819,-1.05263 -0.76542,-1.37741 -1.35661,-1.11753 -3.43052,-0.40281 -3.59294,-1.44244 -0.15719,-1.0395 1.27861,-0.4808 2.71323,-1.5983 0.91612,-0.70171 1.18123,-1.16953 1.17471,-2.14405 -0.5952,-3.19662 -1.78021,-6.61416 -3.83725,-10.12262 -0.0195,-0.02601 -0.5484,-0.81863 -1.55151,-1.93613 1.48003,3.09266 0.99272,6.809 -1.13312,8.45931 -3.19273,2.48193 -6.06447,0.1559 -5.42906,-1.52031 0.63802,-1.67633 2.07912,-1.27351 2.47803,-0.46782 0.39761,0.79262 2.79374,1.91012 3.82944,-2.48193 0.54962,-2.32602 -0.4717,-4.37914 -1.55022,-5.80846 -3.44483,-3.11867 -9.45861,-6.83509 -17.70352,-5.44467 -4.88077,0.8186 -9.11821,3.63844 -11.87436,7.67968 1.44372,0.81863 2.37283,1.87113 2.08563,2.40395 -0.29111,0.54579 -1.73862,0.3508 -3.26285,-0.42881 -0.47169,0.90962 -0.8797,1.85821 -1.2046,2.85873 -1.91014,5.88649 -0.67701,11.81197 3.29274,15.8661 4.03476,4.10625 8.84922,5.37976 13.20888,3.49556 2.19212,-0.94862 3.91514,-2.61184 4.97807,-4.61306 0.57309,-1.79322 1.26309,-4.78188 -0.10523,-5.87339 -1.99461,-1.58531 -2.79252,1.11752 -4.86634,1.75423 -2.07653,0.6367 -5.35117,-0.63671 -4.71047,-4.85997 0.63672,-4.23614 5.82667,-5.75647 9.33902,-2.48194 2.44682,2.28704 3.02895,5.73058 2.02713,8.92724 -0.6796,3.37852 -3.02515,6.36717 -6.36859,7.82258 -4.58956,1.98813 -9.83153,0.61071 -14.02867,-3.66442 -4.16477,-4.24918 -5.46028,-10.44745 -3.46305,-16.59382 0.33791,-1.05253 0.7667,-2.04014 1.2592,-3.00175 -1.26962,-0.7796 -2.04791,-1.72823 -1.78291,-2.22203 0.27161,-0.51972 1.53861,-0.3768 2.94194,0.2729 2.86666,-4.24914 7.29769,-7.19888 12.41356,-8.0695 0.6237,-0.1039 1.23061,-0.1689 1.82832,-0.2209 0.29371,-0.7277 1.05122,-3.11864 -0.89401,-4.32717 -2.31433,-1.4293 -10.85814,-3.27453 -3.03422,-11.48693 0,0 0.15989,1.50732 2.79512,2.39092 2.63133,0.87062 3.11345,2.87174 3.11345,2.87174 0,0 2.23373,-0.87061 2.87303,-4.31416 0,0 3.34994,2.07913 1.91543,4.87298 -1.43591,2.79373 -3.03425,4.31404 -1.75554,5.66545 1.27602,1.36443 3.51235,1.03964 5.82929,-4.06724 2.31552,-5.10675 3.27194,-5.35366 5.42636,-3.43042 2.15582,1.91011 4.94826,1.35141 7.5056,-4.47008 0,0 0.47819,3.02765 -3.59425,7.7446 -4.06986,4.70395 -9.50022,6.14638 -12.85146,6.30227 z m 6.32567,58.31876 c 1.42813,-1.3903 1.19812,-4.00224 -0.41969,-6.15927 -2.05834,2.01411 -4.16466,3.70335 -6.27758,5.09375 2.20512,2.07913 5.14185,2.57295 6.69727,1.06552 z m -8.06558,-8.29039 c -1.53984,1.5074 -1.13573,4.41814 0.8459,6.67917 2.12723,-1.39041 4.25173,-3.07974 6.32307,-5.11986 -0.0728,-0.07789 -0.13379,-0.1689 -0.21438,-0.25992 -2.22594,-2.28692 -5.33937,-2.87173 -6.95459,-1.29939 z"
                 style="fill:#000000;fill-opacity:1;fill-rule:nonzero;stroke:#000000;stroke-width:0.3985;stroke-linecap:butt;stroke-linejoin:miter;stroke-miterlimit:10;stroke-dasharray:none;stroke-opacity:1"
                 id="path40" /><path
                 d="m 402.31508,15.20338 c -1.89584,2.50794 -6.32311,3.36554 -8.14479,0.92261 -2.20265,-2.96274 -0.0702,-5.96437 2.17001,-5.30166 2.23631,0.63671 0.83031,3.85934 3.17844,4.14514 1.1279,0.14302 1.99722,-0.2209 2.60533,-0.62371 0.0767,-0.078 0.15071,-0.1689 0.21831,-0.2599 1.96472,-2.57283 1.73342,-7.04289 -2.05834,-10.07063 -1.66452,-1.33841 -3.75534,-1.93613 -6.03457,-1.98812 -5.04307,0.62371 -9.25852,3.62545 -9.32473,6.00338 -0.0754,2.72883 2.64956,3.24864 2.64956,3.24864 -2.19603,2.88473 -4.46227,3.02763 -12.63187,5.75647 -4.73647,1.57233 -7.00009,5.02887 -8.07082,7.6667 -0.7939,3.32655 -0.94601,7.0819 -0.0961,11.42204 0.0169,-3.62544 1.47351,-7.36778 4.47006,-10.30452 4.27775,-4.19715 10.28373,-3.11865 10.28373,-3.11865 -0.1611,2.62485 -0.9031,5.01587 -0.9031,5.01587 0,0 3.29273,0.0779 6.41787,2.96265 3.12904,2.88482 5.67988,-2.96265 5.67988,-2.96265 0,0 -0.8238,4.85988 -4.03216,7.7316 -3.20964,2.88473 -4.77286,0 -5.84357,1.81921 -1.07071,1.80623 4.11665,5.6006 4.11665,5.6006 0,0 -3.45915,3.85933 -7.07809,2.54692 -3.62154,-1.32542 -3.70595,-3.87236 -7.32489,-3.13163 -2.19733,0.4548 -2.60414,2.28692 -2.58725,3.66433 4.57406,10.59044 9.86145,14.1769 12.28497,15.81421 l 0.39632,0.25991 c 2.33241,1.61132 1.14221,3.36554 -0.50812,5.79547 l -1.27603,1.93612 -0.50549,0.8317 c -1.90753,3.11865 -2.21294,2.94965 -7.3418,0.1299 l -0.65229,-0.36378 -3.01475,-1.74132 c -0.44443,-0.25982 -0.90962,-0.53272 -1.38131,-0.80562 -4.08158,-1.19551 -2.24804,4.19714 -5.73049,6.88699 -3.94385,3.02774 -6.97537,1.36441 -6.90138,-2.20901 0.0767,-3.56046 -2.35063,-2.57285 -1.51772,-6.06839 0.5887,-2.44294 2.89383,-3.24855 4.21404,-3.50846 -2.25961,-0.80571 -4.53104,-1.31241 -6.68038,-1.31241 -1.12531,0.3118 -2.43122,0.88361 -3.74885,1.94913 -3.56563,2.87174 -2.95752,3.79434 -4.85205,3.32652 -1.05521,-0.24688 -1.89853,-0.3898 -2.76393,-0.11689 -1.57363,1.33842 -2.60155,2.68983 -3.01216,4.01526 -0.40799,1.31242 -0.22999,2.65084 0.53152,3.95025 1.06161,1.80623 2.43253,2.53394 3.66446,2.78082 1.33061,-0.02598 1.5775,-1.02659 2.03361,-2.28703 0.60811,-1.66331 2.50263,-2.49492 4.09446,-1.5853 1.59312,0.90961 1.44111,4.39216 -2.35064,4.92486 -1.62171,0.2339 -2.83154,0.013 -3.71253,-0.3118 -1.45534,-0.2339 -3.11347,-1.01363 -4.36217,-3.15766 -0.8719,-1.48141 -1.07463,-3.01474 -0.60172,-4.52204 0.36,-1.16952 1.11623,-2.32604 2.24285,-3.45655 1.73613,-2.59883 6.46998,-8.0045 14.77468,-6.12039 5.72008,0.71472 11.89376,4.32716 16.4287,6.991 l 2.99785,1.72833 0.65361,0.36381 c 3.31874,1.83222 4.35445,2.40392 5.17567,1.75422 0.1585,-1.02654 0.0767,-2.88475 -1.87254,-4.69097 -2.76383,-2.55992 -10.74893,-10.08363 -11.55714,-10.83734 -0.31579,0.2209 -0.7043,0.33791 -1.12011,0.33791 -1.08761,0 -1.97383,-0.85762 -1.97383,-1.92324 0,-1.0525 0.88622,-1.92312 1.97383,-1.92312 1.08892,0 1.97512,0.87062 1.97512,1.92312 0,0.66272 -0.3352,1.23452 -0.84722,1.58533 0.85244,0.66271 7.74201,5.99048 12.89948,8.03059 3.72426,1.46834 4.83004,0.38982 5.16005,-0.46778 -0.0792,-0.44181 -0.37679,-0.83173 -0.9511,-1.22153 l -0.39251,-0.2599 c -2.80932,-1.91013 -9.3871,-6.35429 -14.36136,-20.81697 -2.54294,-7.40679 -2.48194,-13.29326 -1.01484,-18.27013 1.25522,-8.0175 4.65456,-16.20401 13.08278,-19.79045 6.53228,-2.78075 11.66893,-2.63785 14.50168,-2.18304 2.52874,0.026 4.84947,0.66271 6.6882,2.13113 4.14394,3.31355 4.36225,8.23839 2.18313,11.09713 -0.1794,0.23391 -0.38732,0.45482 -0.61211,0.66272 z"
                 style="fill:#000000;fill-opacity:1;fill-rule:nonzero;stroke:#000000;stroke-width:0.3985;stroke-linecap:butt;stroke-linejoin:miter;stroke-miterlimit:10;stroke-dasharray:none;stroke-opacity:1"
                 id="path42" /><path
                 d="m 361.30486,51.96455 c 0,0 -1.66333,-1.35141 -4.05297,-1.14351 -2.38963,0.20791 -5.40178,0.20791 -9.45341,-3.63844 -4.05165,-3.84636 -9.66394,-6.13338 -12.88527,-4.57406 0,0 -2.17914,1.24751 -1.35002,3.53443 0,0 1.97253,-0.8316 2.80543,1.03963 0.83162,1.87123 -2.80543,4.05425 -4.05165,0.31182 -1.24612,-3.74238 0.93692,-7.58872 8.31252,-6.86102 7.37558,0.72771 7.79399,2.18304 11.73915,2.18304 l 0.1,-0.013 0.009,-0.0909 c 0.0169,-0.6627 -0.0143,-1.22153 -0.074,-1.74124 -0.34309,-0.19498 -0.87842,-0.5588 -1.71141,-1.23451 -2.79895,-2.27404 -7.87463,-7.52369 -10.49945,-7.61469 -2.62614,-0.091 -6.03848,2.01413 -8.04872,-1.66331 0,0 1.92444,2.09211 3.67346,0.61079 1.74912,-1.48141 2.53784,-1.48141 4.81188,-1.48141 0,0 -0.76673,-0.58472 -0.49121,-3.23555 -1.55152,-1.61132 -5.39138,-5.39266 -11.04136,-9.56392 -0.87192,4.43106 -1.03041,9.36892 -1.03041,14.12487 0,10.83735 -4.44534,13.67008 -5.27707,14.1119 0.0871,1.00061 0.0871,1.62431 0.0871,1.65031 -0.0455,0.89661 -0.13251,1.75423 -0.2352,2.59894 2.97831,1.44232 4.55974,4.62596 3.56434,7.47169 -0.93821,2.66384 -3.83987,4.15825 -6.8584,3.71645 -3.17063,6.44519 -7.71481,10.56444 -10.53584,12.66946 1.74384,-0.8706 3.32915,-1.74122 4.79877,-2.57282 3.46954,-1.96223 8.74522,-3.17065 12.74237,-0.75371 3.99574,2.41693 2.64172,8.60231 -1.73224,9.04411 -4.37643,0.4548 -4.82475,-4.06726 -4.82475,-4.06726 3.31354,1.66334 5.57847,-1.20851 4.36996,-3.46954 -1.20712,-2.26102 -5.72789,-2.33893 -12.29137,1.05262 -2.33502,1.20841 -4.42715,2.07903 -6.16187,2.70282 -10.27213,4.75588 -31.46331,8.83612 -48.45484,-4.96385 -2.37921,-1.92322 -4.46614,-4.14526 -6.23857,-6.61418 3.36685,6.93898 2.99265,9.90172 2.99265,9.90172 0,6.01637 -5.37708,7.78361 -8.1371,4.80797 -2.75875,-2.97576 0.4262,-5.73058 0.4262,-5.73058 0.35349,3.32654 3.32392,4.45706 4.95217,3.32654 1.62822,-1.13051 2.05311,-3.75534 -0.63802,-9.97963 -1.46582,-3.39154 -2.48584,-6.40628 -3.11604,-8.4464 -1.82703,-4.05415 -2.95883,-8.51132 -3.30835,-13.24128 -0.0286,-0.37681 -0.0377,-0.76661 -0.0598,-1.14342 -2.11554,-1.97521 -0.6497,-4.09325 0.0442,-4.87296 0.3274,-5.01576 1.51123,-9.91472 3.45773,-14.34577 -1.04471,-0.70171 -1.73212,-1.91013 -1.73212,-3.26154 0,-2.18316 1.76462,-3.95036 3.94635,-3.95036 0.59783,0 1.15912,0.143 1.66461,0.37692 0.80823,-1.13052 1.66983,-2.19614 2.59233,-3.20966 1.54255,-1.68931 3.23955,-3.17064 5.05878,-4.49605 -4.13095,0.85761 -7.03259,0.76659 -8.64911,0.5717 -1.43061,0.09101 -2.85742,-0.2079 -3.91514,-0.9875 -2.82375,-2.05313 -2.47023,-5.05488 -1.70882,-7.22491 0,0 -0.76141,4.98986 2.29222,5.17178 3.05765,0.1819 3.35256,-2.40395 5.46936,-3.82036 2.11414,-1.41642 4.64157,0.53281 3.40845,3.58646 -0.5081,1.24739 -1.71791,2.19602 -3.16025,2.75482 3.17977,-0.06499 6.06709,-0.67569 7.84601,-1.14351 14.4225,-9.38189 35.58118,-8.73218 50.49745,-2.45593 0.95383,0.4028 1.88683,0.8186 2.80673,1.24742 C 312.29521,2.11812 313.87535,0 313.87535,0 c -0.13382,6.60118 3.66962,5.21074 5.93845,4.87285 2.26753,-0.3378 6.6024,0.1949 5.80458,3.06674 -0.4379,1.55931 -2.73664,2.24801 -4.73776,2.55983 2.85874,1.65031 5.46028,3.37856 7.7862,5.06786 1.50092,-6.51018 4.59487,-11.65593 10.85035,-13.70908 5.45765,-1.79321 10.49942,-1.1565 13.82858,1.74123 2.49751,2.17001 3.64624,5.35368 3.07585,8.5373 -0.72642,4.04125 -3.82817,6.08139 -6.5141,5.99039 -0.14432,-0.013 -0.2885,-0.03899 -0.4327,-0.05199 -1.41773,0.013 -3.40716,-0.37681 -5.07177,-2.18304 -2.95103,-3.19666 -0.63022,-7.5887 2.53003,-7.51069 3.16284,0.06489 2.91724,3.61244 1.16042,4.98977 -1.39562,1.0916 -0.65752,3.04073 1.39561,3.96335 0.14941,0.026 0.29622,0.05198 0.44311,0.05198 2.37012,0.07792 5.11326,-1.74131 5.76688,-5.37966 0.5237,-2.92374 -0.53802,-5.86048 -2.83404,-7.86161 -3.12784,-2.71583 -7.91101,-3.28764 -13.11918,-1.58529 -6.18917,2.02711 -9.11291,7.17286 -10.48902,13.43616 5.39396,3.95023 9.20001,7.5887 11.01013,9.43391 0.0273,-0.1819 0.0623,-0.37691 0.1013,-0.57181 0.78623,-3.93724 -0.52751,-5.69147 -0.52751,-5.69147 0,0 2.36493,0.44181 2.36493,4.47007 0,4.01524 -0.70039,5.76947 2.62483,9.44691 2.58334,2.85875 6.05538,5.96439 7.47832,7.2119 -0.3833,-2.15714 -1.30854,-3.78145 -1.72304,-9.38204 -0.5445,-7.39378 3.35255,-9.4728 7.06111,-8.13438 3.70864,1.33841 1.43591,4.91187 -0.41194,4.04124 -1.84911,-0.88371 -0.96939,-2.83282 -0.96939,-2.83282 -2.26624,-0.88364 -3.56305,1.2605 -3.56305,1.2605 -1.63982,3.18355 0.50941,8.84912 4.24916,12.99437 3.74245,4.14515 3.66834,7.15988 3.40323,9.53782 -0.26639,2.39103 1.04353,4.08025 1.04353,4.08025 l -0.0936,0.104 z m -35.84627,4.32706 c 1.21101,-1.67621 0.30139,-4.40506 -2.03623,-6.08139 -0.26901,-0.1949 -0.54841,-0.3768 -0.83041,-0.5197 -0.36772,2.74173 -1.01352,5.23667 -1.84903,7.5107 1.88933,0.67572 3.78784,0.37691 4.71567,-0.90961 z m -5.38877,0.61081 c 0.83292,-2.26103 1.46831,-4.76897 1.82172,-7.52379 -1.94654,-0.76672 -3.93596,-0.50682 -4.89107,0.81861 -1.2136,1.68931 -0.3014,4.40515 2.03362,6.09437 0.33531,0.2469 0.68222,0.4418 1.03573,0.61081 z m -0.41331,-46.25999 c -1.09673,0.10389 -1.91274,0.10389 -1.91274,0.10389 2.20385,2.32604 2.20385,5.19777 2.20385,5.19777 0.46649,3.27455 -3.46946,5.66557 -6.80521,2.00113 -3.33694,-3.66446 -3.66823,-8.1994 -8.8725,-8.34241 -5.20427,-0.12991 -7.2704,4.19725 -7.2704,4.19725 2.74056,-7.18588 10.65804,-7.48478 14.67461,-7.13398 C 311.435,6.56216 311.1972,6.45818 310.95288,6.35426 303.9658,3.40453 295.5871,1.7152 287.1953,1.7412 c -0.67313,0.2729 -1.35402,0.72772 -1.79193,1.49443 -1.14483,1.97511 0.31189,3.01464 0.31189,3.01464 0,0 1.71654,-0.67573 2.34154,0.67571 0.62501,1.35141 -1.40472,3.58644 -3.48633,2.02713 -1.90374,-1.42941 -2.53266,-5.11977 0.56907,-7.1729 -6.72847,0.2469 -13.38284,1.62432 -19.27322,4.35315 -0.81342,1.02652 -1.66724,2.81975 -1.13701,5.63957 0.92001,4.87287 4.96255,0.83161 4.96255,0.83161 0,0 0.0871,4.22316 -3.58514,4.49606 -3.41495,0.25992 -5.54988,-5.67856 -1.92574,-10.13562 -3.55534,1.87122 -6.79476,4.26216 -9.53532,7.25089 -0.88751,0.97451 -1.72041,2.00113 -2.49753,3.07965 0.99542,0.72769 1.65032,1.88421 1.65032,3.20964 0,2.17001 -1.76981,3.95024 -3.95165,3.95024 -0.5561,0 -1.08371,-0.1169 -1.56581,-0.3378 -1.86592,4.27515 -3.02115,8.97911 -3.36294,13.79997 0.30929,0.13001 0.73291,0.38982 1.124,0.90963 0.72382,0.9616 4.53247,1.7672 4.53247,1.7672 -3.28884,0.3639 -3.76835,1.07851 -4.61036,2.00114 -0.399,0.4418 -0.78362,0.58479 -1.08121,0.62381 0.0143,0.28579 0.0195,0.5717 0.0416,0.85762 0.28201,3.80733 1.07981,7.44578 2.34811,10.82423 3.11085,4.41815 8.05261,5.53566 9.21823,3.98935 1.27083,-1.70233 -1.56062,-2.13114 -1.34492,-4.24916 0.21051,-2.11814 4.10237,-2.62494 4.38426,0.98751 0.28329,3.61245 -2.83014,4.53506 -2.83014,4.53506 -4.17645,0.85762 -7.20929,-1.76723 -8.72832,-3.53444 2.19993,5.05476 5.49918,9.4599 9.74704,12.91636 5.49797,4.45705 11.44544,7.004 17.31111,8.26441 0.73291,-0.0649 1.27353,-0.3508 1.20072,-1.02651 0,0 -1.06032,-3.88534 2.26364,-5.01587 3.32525,-1.14351 4.59996,1.62432 7.9214,1.83222 3.32915,0.2079 4.95726,-4.45705 4.95726,-4.45705 0,0 -0.99272,7.35478 -10.16803,9.55082 9.22342,0.6628 17.73863,-1.46833 23.3678,-3.92423 1.54503,-1.20853 4.66498,-4.21017 4.43886,-8.35542 -0.3015,-5.50959 -4.60006,-3.84636 -4.44925,-1.80625 0,0 -1.88555,-1.74121 -0.67704,-4.00224 1.20585,-2.26103 6.25811,-2.10513 6.63491,3.54747 0.24691,3.75545 -1.03821,7.01697 -3.12253,9.0831 2.51962,-1.72823 7.70828,-5.88648 11.22063,-12.94246 -0.22479,-0.05191 -0.4457,-0.09091 -0.66789,-0.1689 -3.47727,-1.22144 -5.41999,-4.70397 -4.34017,-7.7966 1.0786,-3.07965 4.77677,-4.58707 8.25281,-3.37856 0.0285,0.013 0.0519,0.02602 0.0766,0.02602 0.0884,-0.75374 0.1625,-1.53334 0.20401,-2.32605 0.003,-0.1039 0.0546,-10.39543 -7.05721,-17.42541 -4.64035,-4.58707 -11.27524,-6.7961 -19.71634,-6.5882 -0.2027,0 -0.37172,-0.1559 -0.37561,-0.3638 -0.005,-0.19492 0.15211,-0.36389 0.35611,-0.37691 8.65679,-0.2079 15.4672,2.07914 20.25684,6.80908 5.18738,5.13277 6.6701,11.92886 7.09759,15.50232 1.10713,-0.7407 4.62727,-3.84636 4.62727,-13.29329 0,-5.10675 0.23652,-10.12262 1.16172,-14.57967 -2.59752,-1.88412 -5.55898,-3.83335 -8.83751,-5.69147 z"
                 style="fill:#000000;fill-opacity:1;fill-rule:nonzero;stroke:#000000;stroke-width:0.3985;stroke-linecap:butt;stroke-linejoin:miter;stroke-miterlimit:10;stroke-dasharray:none;stroke-opacity:1"
                 id="path44" /><path
                 d="m 298.58353,27.56104 c 0,0 5.62397,-0.9486 8.4633,3.57344 -0.34699,-0.1559 -0.73549,-0.24689 -1.1396,-0.24689 -1.61652,0 -2.92503,1.41641 -2.92503,3.17064 0,1.75422 1.30851,3.17064 2.92503,3.17064 1.07461,0 1.99852,-0.63671 2.51053,-1.55931 0.0987,3.97624 -2.52482,7.31587 -4.96126,8.16049 -3.58385,1.24742 -7.4107,-0.026 -9.49501,-3.22265 0,0 -2.42084,-3.31353 -5.79939,-2.31301 0.14941,0.50681 0.2378,1.05259 0.2378,1.61131 0,2.02713 -1.0669,3.83334 -2.69244,4.93787 0.50542,0.9096 2.23894,3.65143 4.81567,3.69044 3.12644,0.039 6.8039,0.49381 8.2462,3.50844 0,0 2.55992,5.09387 -0.93551,9.13512 0.0519,-0.3769 0.0234,-0.76671 -0.0949,-1.15651 -0.47562,-1.54633 -2.21555,-2.39104 -3.88927,-1.87123 -1.66972,0.51982 -2.64174,2.18304 -2.16743,3.72937 0.31192,1.02659 1.18641,1.7283 2.22334,1.93621 -3.76315,1.26041 -7.7303,-0.2599 -9.25853,-2.35203 -2.24674,-3.05365 -2.14662,-7.0819 0.29372,-10.01863 0,0 2.56123,-3.40455 0.41189,-6.38028 -0.98491,0.57181 -2.14403,0.90961 -3.38895,0.90961 -1.42411,0 -2.74043,-0.44182 -3.80604,-1.18252 -0.6666,0.98761 -2.15444,3.58655 -1.11101,5.80858 1.32672,2.81974 2.52224,6.32817 0.44179,8.94011 0,0 -3.46422,4.53505 -8.6243,3.15764 0.36119,-0.117 0.70689,-0.31192 0.99921,-0.58481 1.18641,-1.1045 1.17602,-3.04063 -0.0195,-4.31405 -1.19152,-1.28652 -3.11603,-1.42942 -4.29984,-0.32491 -0.78482,0.72771 -1.03174,1.81923 -0.77312,2.84575 -2.77952,-2.83275 -3.13813,-7.06889 -1.93612,-9.35593 1.76982,-3.35255 5.44195,-5.02888 9.14021,-4.10626 0,0 4.07897,0.77972 5.85268,-2.31291 -1.40212,-1.10454 -2.29613,-2.78085 -2.29613,-4.63907 0,-0.55872 0.0845,-1.09152 0.2339,-1.61131 -1.07722,-0.15592 -4.24266,-0.46771 -5.83967,1.5204 -1.96604,2.41693 -4.60396,5.02878 -7.8642,4.30116 0,0 -5.58888,-1.14352 -6.60118,-6.39328 0.269,0.2729 0.59649,0.49381 0.97069,0.64972 1.50863,0.58469 3.24215,-0.27292 3.87626,-1.89714 0.6315,-1.63733 -0.0793,-3.43055 -1.58661,-4.01533 -0.99934,-0.38982 -2.09083,-0.12992 -2.90295,0.54578 1.33841,-3.74233 4.99246,-5.91247 7.57051,-5.82147 3.79433,0.1299 6.90128,2.70284 7.69659,6.43218 0,0 1.10451,4.15826 4.81176,4.27516 0.88362,-2.36493 3.26555,-4.06724 6.06707,-4.06724 0.039,0 0.0767,0 0.11571,0 -0.13521,-1.20844 -0.67311,-4.09316 -2.86264,-5.10679 -2.83024,-1.3254 -5.99958,-3.24852 -6.08267,-6.58816 0,0 -0.24561,-5.69148 4.60126,-7.95252 -0.204,0.3248 -0.34169,0.70173 -0.3911,1.10453 -0.2001,1.59831 1.0421,3.07963 2.77953,3.28753 1.73602,0.22091 3.30573,-0.8966 3.50584,-2.50792 0.13379,-1.06552 -0.37421,-2.05303 -1.23451,-2.67683 3.95425,0.38989 6.94419,3.40453 7.4861,5.93846 0.7953,3.70334 -0.94993,7.34178 -4.37388,9.01811 0,0 -3.62933,2.00113 -3.01733,5.50957 2.57555,0.1949 4.72217,1.83223 5.54338,4.05426 1.16432,-0.2729 4.02435,-1.15651 4.77155,-3.48244 0.95773,-2.97573 2.47545,-6.35429 5.77858,-6.86109 z m -16.61982,7.00399 c -3.14202,0 -5.69795,2.39095 -5.69795,5.34067 0,2.94975 2.55593,5.34067 5.69795,5.34067 3.14335,0 5.69938,-2.39092 5.69938,-5.34067 0,-2.94972 -2.55603,-5.34067 -5.69938,-5.34067 z"
                 style="fill:#000000;fill-opacity:1;fill-rule:nonzero;stroke:#000000;stroke-width:0.3985;stroke-linecap:butt;stroke-linejoin:miter;stroke-miterlimit:10;stroke-dasharray:none;stroke-opacity:1"
                 id="path46" /><path
                 d="m 281.66232,41.81592 c -1.21892,0 -2.20523,-0.98761 -2.20523,-2.20903 0,-1.22151 0.98631,-2.20914 2.20523,-2.20914 1.21752,0 2.20383,0.98763 2.20383,2.20914 0,1.22142 -0.98631,2.20903 -2.20383,2.20903 z"
                 style="fill:#000000;fill-opacity:1;fill-rule:nonzero;stroke:#000000;stroke-width:0.3985;stroke-linecap:butt;stroke-linejoin:miter;stroke-miterlimit:10;stroke-dasharray:none;stroke-opacity:1"
                 id="path48" /><path
                 d="m 239.32787,41.03621 h -10.51894 c -0.1429,2.92374 -1.96733,5.39269 -4.50256,6.40628 0.37031,1.85812 1.60613,7.4068 3.01864,6.84799 1.69443,-0.67569 2.79503,-4.06726 5.76038,-2.19603 2.96792,1.85823 -1.01612,11.77295 5.00287,16.94472 0,0 -13.06847,-8.32941 -14.20549,-21.44078 -0.67701,0.2209 -1.39302,0.3378 -2.13623,0.3378 -0.1586,0 -0.30799,-0.01288 -0.4639,-0.01288 0.0623,1.2214 0.31439,6.56207 0.382,10.38243 0.0819,4.32715 3.31354,6.38028 6.46727,9.38202 3.15377,2.98864 1.18382,7.01689 1.18382,7.01689 0,0 -1.1045,-1.10452 -2.04922,-0.8706 -0.94731,0.23388 -1.42163,-0.15592 -1.42163,-0.15592 -0.7108,4.88587 -4.49474,7.1729 -4.49474,7.1729 l -0.17671,0.10391 -0.1559,-0.10391 c 0,0 -3.78785,-2.28703 -4.49475,-7.1729 0,0 -0.4743,0.3898 -1.42033,0.15592 -0.946,-0.23392 -2.04921,0.8706 -2.04921,0.8706 0,0 -1.97124,-4.02825 1.18121,-7.01689 3.15503,-3.00174 6.38938,-5.05487 6.46858,-9.38202 0.0689,-3.83336 0.31969,-9.20001 0.38069,-10.39543 -0.70809,-0.06501 -1.38639,-0.24692 -2.02061,-0.51982 -1.16682,13.08537 -14.19757,21.38878 -14.19757,21.38878 6.01636,-5.17177 2.0336,-15.08649 4.99756,-16.94472 2.96792,-1.87122 4.06854,1.52032 5.76436,2.19605 1.41122,0.57179 2.64304,-4.95089 3.01463,-6.835 -2.30252,-1.15652 -3.90604,-3.54745 -3.97104,-6.34128 h -10.75413 c -0.20402,0 -0.36771,-0.15591 -0.36771,-0.36381 0,-0.1949 0.16369,-0.36391 0.36771,-0.36391 h 10.76844 c 0.1949,-2.63783 1.76592,-4.88586 3.98015,-5.99037 -0.34691,-1.75421 -1.59964,-7.51079 -3.03805,-6.93899 -1.69582,0.6757 -2.79644,4.06724 -5.76436,2.20903 -2.96396,-1.87124 1.0188,-11.78587 -4.99756,-16.95762 0,0 13.10606,8.35529 14.21057,21.49268 0.63031,-0.2599 1.30731,-0.42882 2.01152,-0.50682 -0.0441,-0.89659 -0.31311,-6.52318 -0.3846,-10.49944 -0.0792,-4.34016 -3.31355,-6.39327 -6.46858,-9.38192 -3.15245,-3.00173 -1.18121,-7.01697 -1.18121,-7.01697 0,0 1.10321,1.10449 2.04921,0.85762 0.94603,-0.23392 1.42033,0.15588 1.42033,0.15588 0.7069,-4.88586 4.49475,-7.17289 4.49475,-7.17289 l 0.1559,-0.10389 0.17671,0.10389 c 0,0 3.78394,2.28703 4.49474,7.17289 0,0 0.47432,-0.3898 1.42163,-0.15588 0.94472,0.24687 2.04922,-0.85762 2.04922,-0.85762 0,0 1.96995,4.01524 -1.18382,7.01697 -3.15373,2.98865 -6.38537,5.04176 -6.46727,9.38192 -0.0715,3.96326 -0.3405,9.56383 -0.38591,10.49944 0.15592,-0.013 0.30921,-0.026 0.46781,-0.026 0.73802,0 1.45402,0.11702 2.12713,0.33792 1.07071,-13.16339 14.21459,-21.54469 14.21459,-21.54469 -6.01899,5.15878 -2.03495,15.08639 -5.00287,16.94461 -2.96535,1.87123 -4.06595,-1.5203 -5.76038,-2.19602 -1.44241,-0.58471 -2.69893,5.19777 -3.04072,6.95198 2.54562,1.00061 4.38174,3.48246 4.52464,6.40619 h 10.51894 c 0.2014,0 0.36651,0.16901 0.36651,0.36391 0,0.2079 -0.16511,0.3638 -0.36651,0.3638 z m -17.58133,-6.89998 c -3.50204,0 -6.35167,2.93672 -6.35167,6.53618 0,3.59946 2.84963,6.53618 6.35167,6.53618 3.49676,0 6.34378,-2.93672 6.34378,-6.53618 0,-3.59946 -2.84702,-6.53618 -6.34378,-6.53618 z"
                 style="fill:#000000;fill-opacity:1;fill-rule:nonzero;stroke:#000000;stroke-width:0.3985;stroke-linecap:butt;stroke-linejoin:miter;stroke-miterlimit:10;stroke-dasharray:none;stroke-opacity:1"
                 id="path50" /><path
                 d="m 221.98683,43.18033 c -1.2812,0 -2.31943,-1.0396 -2.31943,-2.32601 0,-1.27342 1.03823,-2.31304 2.31943,-2.31304 1.28394,0 2.31954,1.03962 2.31954,2.31304 0,1.28641 -1.0356,2.32601 -2.31954,2.32601 z"
                 style="fill:#000000;fill-opacity:1;fill-rule:nonzero;stroke:#000000;stroke-width:0.3985;stroke-linecap:butt;stroke-linejoin:miter;stroke-miterlimit:10;stroke-dasharray:none;stroke-opacity:1"
                 id="path52" /></g></g></g></g></g></g></svg>
