<?xml version="1.0" encoding="UTF-8" standalone="no"?>
<svg
   xmlns:dc="http://purl.org/dc/elements/1.1/"
   xmlns:cc="http://creativecommons.org/ns#"
   xmlns:rdf="http://www.w3.org/1999/02/22-rdf-syntax-ns#"
   xmlns:svg="http://www.w3.org/2000/svg"
   xmlns="http://www.w3.org/2000/svg"
   xmlns:sodipodi="http://sodipodi.sourceforge.net/DTD/sodipodi-0.dtd"
   xmlns:inkscape="http://www.inkscape.org/namespaces/inkscape"
   version="1.1"
   id="svg2"
   xml:space="preserve"
   width="63.52"
   height="39.119999"
   viewBox="0 0 63.52 39.119999"
   sodipodi:docname="vectorian104.pdf"><metadata
     id="metadata8"><rdf:RDF><cc:Work
         rdf:about=""><dc:format>image/svg+xml</dc:format><dc:type
           rdf:resource="http://purl.org/dc/dcmitype/StillImage" /></cc:Work></rdf:RDF></metadata><defs
     id="defs6"><clipPath
       clipPathUnits="userSpaceOnUse"
       id="clipPath32"><path
         d="M 0,0 H 44.32365 V 29.34467 H 0 Z"
         id="path30" /></clipPath></defs><sodipodi:namedview
     pagecolor="#ffffff"
     bordercolor="#666666"
     borderopacity="1"
     objecttolerance="10"
     gridtolerance="10"
     guidetolerance="10"
     inkscape:pageopacity="0"
     inkscape:pageshadow="2"
     inkscape:window-width="640"
     inkscape:window-height="480"
     id="namedview4" /><g
     id="g10"
     inkscape:groupmode="layer"
     inkscape:label="vectorian104"
     transform="matrix(1.3333333,0,0,-1.3333333,0,39.12)"><g
       id="g12"
       transform="translate(72,-42.656)"><g
         id="g14"
         transform="translate(-72,42.656)"><g
           id="g16"><g
             id="g18"><path
               d="m 22.36127,27.07912 c 0,0 -0.98491,-0.44258 -1.87082,-0.24588 0,0 0.78821,0.0491 1.37832,0.34489 z"
               style="fill:#000000;fill-opacity:1;fill-rule:nonzero;stroke:#000000;stroke-width:0.3985;stroke-linecap:butt;stroke-linejoin:miter;stroke-miterlimit:10;stroke-dasharray:none;stroke-opacity:1"
               id="path20" /><path
               d="m 17.83142,27.96634 c 0,0 -0.98491,0.19742 -1.67404,0.98491 0,0 3.10156,-5.66297 9.30552,-2.90553 0,0 0.19672,0.19731 0.78812,-0.4426 0.59021,-0.6393 2.01843,-1.57573 3.44594,-0.59082 0,0 -1.77252,-0.59091 -3.10164,0.88582 0,0 1.42752,1.52661 3.15145,-0.0492 0,0 -0.2466,1.13181 -2.11731,1.03412 0,0 -0.32991,0.18309 -1.03414,0.1469 -1.92001,-0.09772 -6.59727,-2.11673 -9.50222,0.88582 0,0 0.29571,-0.29432 0.73832,0.05058"
               style="fill:#000000;fill-opacity:1;fill-rule:nonzero;stroke:#000000;stroke-width:0.3985;stroke-linecap:butt;stroke-linejoin:miter;stroke-miterlimit:10;stroke-dasharray:none;stroke-opacity:1"
               id="path22" /><path
               d="m 31.56769,24.81491 c 0,0 1.08333,0.93572 1.47741,-0.09911 z m 0.3941,0.59079 c -0.8865,-0.14818 -1.47673,-0.0492 -1.47673,-0.0492 0.83614,-1.08329 3.15087,-0.88659 3.15087,-0.88659 -0.34491,0.83672 -0.78751,1.08259 -1.67414,0.93579"
               style="fill:#000000;fill-opacity:1;fill-rule:nonzero;stroke:#000000;stroke-width:0.3985;stroke-linecap:butt;stroke-linejoin:miter;stroke-miterlimit:10;stroke-dasharray:none;stroke-opacity:1"
               id="path24" /><path
               d="m 27.08774,25.01161 c 0,0 -1.03472,-0.39411 -2.41243,-2.41243 C 23.2956,20.57944 20.39145,18.26672 16.4033,18.02081 12.41505,17.77362 10.19933,18.06932 8.77179,16.3461 7.34499,14.62277 7.04927,12.94945 5.62036,12.11273 c 0,0 0.98491,-0.6906 2.60984,1.03342 0,0 -0.2459,-1.96922 -1.72252,-1.92073 -1.47674,0.04921 -1.77253,0.59082 -1.77253,0.59082 0,0 1.27932,0.73912 2.01831,2.26562 0.73911,1.52523 1.18233,2.55924 2.85574,3.29836 1.67413,0.7383 3.64326,0.6891 6.15409,0.78749 2.51144,0.09901 5.56387,1.28062 7.28648,3.19995 1.72394,1.92062 2.80655,3.93897 4.03797,3.64395"
               style="fill:#000000;fill-opacity:1;fill-rule:nonzero;stroke:#000000;stroke-width:0.3985;stroke-linecap:butt;stroke-linejoin:miter;stroke-miterlimit:10;stroke-dasharray:none;stroke-opacity:1"
               id="path26" /><g
               id="g28"
               clip-path="url(#clipPath32)"><path
                 d="m 7.88669,16.7409 c 0,0 -0.98491,1.23011 -2.65975,0.83602 -1.67341,-0.39342 -1.57431,-2.65764 0.099,-3.05176 0,0 -0.88649,-0.2473 -2.0189,0.49242 0,0 -0.39351,0.24661 -0.93512,0 0,0 -0.93572,-1.77313 -2.46162,-1.67401 0,0 0.5908,0.09759 0.64,1.57571 0.0499,1.47662 0.1967,4.28385 3.64323,4.77567 0,0 -2.95403,-0.64002 -2.75733,-3.44727 0,0 0.3941,2.26564 2.06752,2.36266 0,0 -1.72192,-0.58883 -1.62422,-2.50946 0,0 0.14821,1.72193 1.42754,2.11604 0,0 -0.98433,-0.68851 -1.03342,-2.01772 0,0 0.39409,2.31412 2.51073,2.46233 0,0 -1.32912,-0.09901 -1.52584,-1.82233 0,0 0.34423,1.13181 1.96843,1.28002 1.62493,0.1475 2.65975,-1.08402 2.65975,-1.37832"
                 style="fill:#000000;fill-opacity:1;fill-rule:nonzero;stroke:#000000;stroke-width:0.3985;stroke-linecap:butt;stroke-linejoin:miter;stroke-miterlimit:10;stroke-dasharray:none;stroke-opacity:1"
                 id="path34" /><path
                 d="m 38.16568,8.6655 c 0.9351,-1.18161 2.70752,-3.44585 1.57572,-5.90819 0,0 -1.52723,0.49321 -1.52723,1.37834 0,0 0.49253,0.39409 0.54231,0.73911 0.04922,0.34489 -0.73899,0.49168 -0.54231,1.27931 0.1967,0.7881 0.34561,1.42813 -1.2799,3.00451 -1.62493,1.57514 -2.75744,1.32854 -3.24984,1.27935 -0.49182,-0.04921 -4.23336,-0.29442 -4.23336,-0.29442 0,0 0.59082,0.83601 0.34489,1.91862 0,0 1.42752,0.14821 2.55994,-0.2944 1.13182,-0.4426 2.11673,-0.39409 2.65832,-0.39409 0.54163,0 2.21506,-1.52654 3.15146,-2.70814 m -9.99463,6.00576 c 0,0 1.67412,0.05062 2.21503,-0.9828 0.54161,-1.03482 0,-1.23221 0,-1.23221 l -0.68912,0.05059 c 0,0 -0.04919,1.18162 -1.52591,2.16442 M 44.31975,8.0255 c 0,0 -0.739,-0.34423 -1.37902,-0.29572 -0.63931,0.05051 -0.9842,0.93572 -0.9842,0.93572 h 1.08322 c -0.68982,1.62562 -4.13568,2.75734 -5.02226,3.10223 -0.88582,0.345 -1.27993,0.345 -2.41245,0.09772 -1.13241,-0.24591 -1.57501,-0.14682 -2.51073,0.19668 -0.93511,0.34562 -2.16662,0.29642 -2.21572,0.44471 -0.04921,0.1468 -0.04921,1.32843 -0.04921,1.32843 0.93502,0.1967 2.70814,0 3.44654,-0.24652 0.7383,-0.24589 1.82164,-0.5902 2.46164,-0.4426 0.6406,0.14822 1.23072,0.14822 1.23072,0.14822 0.64001,-0.68992 2.90492,-1.62564 3.93976,-2.26565 1.03269,-0.64 2.26351,-2.01832 2.26351,-2.01832 -0.3934,1.52653 -2.41243,2.46233 -3.29835,2.85505 -0.8859,0.39409 -2.3632,1.47741 -2.80652,1.6748 -0.44261,0.1967 -2.55994,0.0485 -2.55994,0.0485 -1.87081,1.03402 -4.52916,0.73902 -4.52916,0.73902 0.04922,1.13172 -0.24659,1.91991 -0.8374,2.75733 -0.59082,0.83671 -0.73901,1.13112 -0.73901,1.13112 1.72392,-1.27932 2.75803,-0.9836 2.75803,-0.9836 -2.80654,1.4774 -1.42821,5.02225 -1.42821,5.02225 h 1.03341 c 0.3948,0 0.8627,-0.29572 0.8627,-0.29572 -1.92072,-1.62491 0.14681,-3.39734 1.18162,-4.06193 1.03341,-0.6646 -0.0745,-2.36324 -0.0745,-2.36324 0,0 1.99442,0.96032 1.84622,3.02783 -0.1475,2.06813 -1.40361,2.21575 -1.40361,2.21575 2.06823,-1.92003 0.444,-3.39734 0.444,-3.39734 0.0738,1.62421 -1.77241,1.91992 -1.92062,3.17602 -0.1476,1.25544 0.95961,1.47603 0.95961,1.47603 1.99442,-1.03341 1.99442,0.88721 1.99442,0.88721 0.59082,-0.37021 0.88652,0.44261 0.88652,0.44261 -3.84055,7.3848 -10.56084,5.68616 -13.88448,5.39108 -3.32283,-0.29571 -4.50447,0.5915 -4.50447,0.5915 2.68295,-3.54555 6.03038,-1.96984 8.296,-1.52652 2.26415,0.44261 3.83997,-0.39411 3.83997,-0.39411 -2.16664,1.92063 -6.10559,0 -8.31992,0.1967 -2.21571,0.19741 -2.56063,1.03412 -2.56063,1.03412 1.23011,-0.4918 6.15397,0.19669 7.2373,0.29569 1.08322,0.0977 2.95404,0.14752 5.51467,-1.2806 2.56002,-1.42753 3.79074,-3.59346 3.74165,-3.83996 -0.04991,-0.2466 -0.68921,-0.29579 -0.93582,-0.0492 -0.24581,0.2459 -0.5416,0.0983 -0.5416,0.0983 0.2466,0 0.29579,-0.29501 0.29579,-0.29501 0.04911,-0.39339 0.73833,-0.6899 0.73833,-0.6899 -0.1967,-0.63931 -1.28072,-0.4917 -1.28072,-0.4917 -1.77174,0.83672 -2.11662,0.29502 -3.19925,0.54089 -1.08392,0.2459 -1.47741,0.68992 -2.11734,0.93572 -0.6407,0.24589 -1.13249,0.39412 -1.13249,0.39412 0.6892,-0.88582 1.37831,-1.32984 1.77242,-1.47801 0.39349,-0.14693 0.73912,-0.44123 0.73912,-0.44123 -1.28073,-2.21713 0.24577,-4.03874 0.24577,-4.03874 -1.8707,0.29578 -2.21561,2.70882 -2.21561,2.70882 -0.4925,-1.08391 -0.0984,-2.51142 1.03342,-3.79143 1.13309,-1.28062 1.23142,-2.90485 1.23142,-2.90485 -0.54163,1.13172 -1.42823,1.18161 -2.80654,1.82161 -1.37903,0.64003 -1.23083,2.01833 -1.23083,2.01833 -0.8373,-2.65833 2.80595,-3.98814 2.95415,-5.95737 0.1475,-1.96913 -0.88662,-2.80583 -0.88662,-2.80583 -0.09829,2.95404 -2.60913,3.54494 -3.00325,3.79074 -0.3941,0.24591 -0.3941,1.42752 -0.88589,1.42752 -0.49312,0 0.04919,-0.93431 0.7384,-2.36323 0.6891,-1.42751 0.64002,-2.95404 0.64002,-2.95404 -0.1967,0.93571 -1.47743,2.11734 -2.11743,2.70814 -0.6393,0.59081 -0.54091,0.83672 -0.73832,1.47603 -0.1974,0.6414 -0.49249,0.8873 -0.49249,0.8873 -0.64003,-1.96922 1.0833,-2.85503 1.0833,-2.85503 -0.3934,0.0976 -0.73842,-0.0991 -0.73842,-0.0991 0.34502,-0.73761 0.29582,-2.36324 0.29582,-2.36324 -0.24661,1.03342 -1.32983,1.03342 -2.26562,2.41313 -0.93503,1.37763 -0.59012,2.11602 -0.59012,2.11602 -1.3291,-2.06821 0.9351,-2.80593 0.64,-4.08515 -0.29569,-1.28071 -1.1324,-1.72331 -1.1324,-1.72331 0.7875,1.62422 -0.54241,2.55862 -1.13253,3.54484 -0.59079,0.98432 -0.24591,1.77112 -0.24591,1.77112 C 17.0931,12.75204 18.81633,9.60121 17.58562,8.17369 16.3541,6.74615 15.36989,7.23798 15.36989,7.23798 c 2.46153,1.47742 1.37901,3.39665 1.27991,4.48065 -0.099,1.0825 0.3941,1.72253 0.3941,1.72253 -1.1331,-0.0983 -1.2308,-3.15004 -1.96982,-4.13566 -0.73761,-0.98491 -1.67341,-0.7384 -1.67341,-0.7384 1.1325,1.0833 1.18161,2.41242 1.0334,4.18494 -0.13929,1.67612 0.46861,1.81063 0.5355,1.82024 C 13.15547,14.46507 13.64586,10.43723 12.90825,9.2563 12.16983,8.07469 10.98822,7.82878 8.96921,7.58287 6.95088,7.33568 6.06436,6.94217 4.93254,6.05637 3.80013,5.17044 3.55353,3.88983 3.70174,2.70811 3.84935,1.52652 4.83426,0.5416 4.83426,0.5416 L 2.96274,0.5908 3.20932,1.96982 c -0.4433,0.14749 -1.2308,0.6393 -1.2308,0.6393 2.11673,2.06892 1.5252,4.33305 1.5252,4.33305 4.13636,0.54172 4.43207,3.44655 4.43207,3.44655 C 7.2959,9.15858 5.52277,9.552 5.52277,9.552 6.16336,9.79791 6.60597,10.58612 6.60597,10.58612 6.16336,9.99463 4.39095,9.40451 4.39095,9.40451 5.67026,8.76521 7.04927,9.15858 7.04927,9.15858 6.45848,7.97699 4.53845,7.58287 3.80013,7.48389 3.06113,7.3855 3.06113,6.59866 3.06113,6.59866 3.11034,4.03804 1.8303,3.15143 1.6336,2.90492 1.4362,2.65971 1.1903,2.51141 1.2395,2.16652 1.2893,1.82092 2.76602,1.1816 2.76602,1.1816 c 0,0 -0.1974,-0.4918 -0.3941,-0.78751 C 2.17522,0.09898 2.32211,0 2.32211,0 H 4.98175 C 5.32594,0 5.22694,0.444 4.73515,1.1331 4.24205,1.82092 4.04605,2.51141 4.19353,3.93895 4.34175,5.36644 5.86766,5.76056 5.86766,5.76056 6.45848,4.67804 5.81776,4.87476 5.57256,3.69313 5.32594,2.51141 6.16336,2.41312 6.16336,2.41312 c 0,0 -0.14819,0.196 0.5417,0.4918 C 7.3935,3.20131 7.5902,2.80722 7.5902,2.80722 7.34438,2.56061 7.14758,2.16652 7.14758,2.16652 6.65518,1.3298 7.3935,0.5908 7.3935,0.5908 8.28009,0.39409 10.05252,1.0839 10.05252,1.0839 10.29912,1.57571 10.15091,2.46231 9.70761,3.15143 9.26498,3.84134 8.08339,5.07144 7.9843,5.41707 c -0.09831,0.34349 0,0.39337 0,0.39337 L 7.3935,5.71146 C 7.83678,4.43214 9.16591,3.34813 9.51091,2.60912 9.85582,1.8715 9.6092,1.6747 9.6092,1.6747 c 0,0 -1.96912,-0.6406 -2.019,0.0977 C 7.54167,2.51141 8.28009,2.65971 7.78758,3.29903 7.2959,3.93895 6.85187,3.44724 6.50768,3.34813 6.16336,3.25052 6.01517,3.59543 6.01517,3.59543 c 0.099,0.54022 0.54161,0.54022 0.5908,1.18092 0.04921,0.64072 -0.44261,1.23081 -0.44261,1.23081 0.73842,0.64001 3.10162,1.08262 6.15338,1.37834 3.05315,0.29577 3.79144,2.1181 3.79144,2.1181 0,-1.72331 -1.67411,-2.61052 -1.67411,-2.61052 4.87477,-0.34491 3.79145,3.49564 3.79145,3.49564 0,0 0.73841,-0.0976 1.13251,-1.23014 0.39342,-1.13308 -0.09909,-2.0688 -0.09909,-2.0688 2.31482,0.1482 2.41313,2.95473 2.41313,2.95473 l 0.541,-0.39411 c 0.8373,-0.7875 0.24651,-2.41242 0.24651,-2.41242 2.36332,0.83671 1.37842,3.98814 1.37842,3.98814 1.91992,-0.8374 1.7232,-3.24913 1.7232,-3.24913 2.46164,1.08261 0.44332,3.74164 0.44332,3.74164 3.10154,-0.5417 1.96981,-3.49574 1.96981,-3.49574 1.03342,0.34421 1.23014,1.42751 1.23014,1.42751 0,0 2.46233,0.14751 3.49574,0.099 1.03401,-0.05049 2.31401,-0.1974 2.31401,-0.1974 1.77243,-0.6891 2.90495,-2.46222 2.90495,-2.46222 0,0 -0.3443,-0.93571 -0.44331,-1.42752 -0.0977,-0.49182 0.09901,-0.54161 0.34491,-0.49182 0.24591,0.04921 0.3934,-0.19809 0.19672,-0.39409 -0.19672,-0.1974 -0.63933,-0.8374 -0.63933,-0.8374 0.73842,-1.57573 2.80584,-1.72324 2.80584,-1.72324 2.01902,4.92456 -3.98814,8.81301 -3.98814,8.81301 3.49574,0.54232 5.31806,-1.87014 5.31806,-1.87014 0.49171,-1.87141 1.03341,-1.9698 1.03341,-1.9698 h 1.57501 c 0.2466,0.19672 0.19741,0.83672 0.19741,0.83672"
                 style="fill:#000000;fill-opacity:1;fill-rule:nonzero;stroke:#000000;stroke-width:0.3985;stroke-linecap:butt;stroke-linejoin:miter;stroke-miterlimit:10;stroke-dasharray:none;stroke-opacity:1"
                 id="path36" /></g></g></g></g></g></g></svg>
