<?xml version="1.0" encoding="UTF-8" standalone="no"?>
<svg
   xmlns:dc="http://purl.org/dc/elements/1.1/"
   xmlns:cc="http://creativecommons.org/ns#"
   xmlns:rdf="http://www.w3.org/1999/02/22-rdf-syntax-ns#"
   xmlns:svg="http://www.w3.org/2000/svg"
   xmlns="http://www.w3.org/2000/svg"
   xmlns:sodipodi="http://sodipodi.sourceforge.net/DTD/sodipodi-0.dtd"
   xmlns:inkscape="http://www.inkscape.org/namespaces/inkscape"
   version="1.1"
   id="svg2"
   xml:space="preserve"
   width="64.186668"
   height="40.759998"
   viewBox="0 0 64.186668 40.759998"
   sodipodi:docname="vectorian128.pdf"><metadata
     id="metadata8"><rdf:RDF><cc:Work
         rdf:about=""><dc:format>image/svg+xml</dc:format><dc:type
           rdf:resource="http://purl.org/dc/dcmitype/StillImage" /></cc:Work></rdf:RDF></metadata><defs
     id="defs6" /><sodipodi:namedview
     pagecolor="#ffffff"
     bordercolor="#666666"
     borderopacity="1"
     objecttolerance="10"
     gridtolerance="10"
     guidetolerance="10"
     inkscape:pageopacity="0"
     inkscape:pageshadow="2"
     inkscape:window-width="640"
     inkscape:window-height="480"
     id="namedview4" /><g
     id="g10"
     inkscape:groupmode="layer"
     inkscape:label="vectorian128"
     transform="matrix(1.3333333,0,0,-1.3333333,0,40.76)"><g
       id="g12"
       transform="translate(72,-41.426)"><g
         id="g14"
         transform="translate(-72,42.311)"><g
           id="g16"><g
             id="g18"><path
               d="m 23.77939,18.02171 c 0,0 -1.03342,0.22132 -1.10782,1.77254 -0.07379,1.55042 1.40363,1.40151 1.47733,0.22128 0.07379,-1.18231 -0.36951,-1.99382 -0.36951,-1.99382 m 10.63534,-1.69792 c 3.76625,-1.70003 7.31108,0.36811 8.5665,2.80583 0.1209,0.2343 0.22542,0.47542 0.31482,0.72193 0.9044,-3.35365 -2.08525,-5.30568 -4.45056,-5.44849 -2.43703,-0.14889 -4.28386,1.62363 -4.28386,1.62363 2.88092,-3.54425 7.4599,-2.36334 8.8629,0.22191 1.23764,2.28062 0.34901,4.10025 0.12221,4.49707 0.42691,2.0955 -0.20351,4.36924 -1.89472,5.76876 -2.14193,1.77253 -5.09526,0.8866 -5.09526,0.8866 -2.29023,0.95963 -4.13646,0.295 -4.13646,0.295 0,0 -1.69862,1.55122 -4.13565,1.55122 -2.43702,0 -2.95413,-1.55122 -2.95413,-1.55122 2.21571,1.99384 4.21014,0.88592 5.90818,0 1.69871,-0.8858 2.80583,-3.61922 1.62422,-6.20316 -1.18165,-2.58525 -2.87966,-2.80584 -2.87966,-2.80584 0.36952,0.58882 0.81212,1.99302 0.81212,1.99302 2.58524,2.73354 0.29581,5.83438 -1.77243,6.49828 -2.06752,0.666 -3.61862,-0.6639 -3.61862,-0.6639 2.80652,1.62493 5.53926,-0.4432 5.90887,-2.58593 0.36807,-2.14054 -0.81352,-2.65764 -0.81352,-2.65764 0,0 0.0744,2.80595 -2.58453,3.98754 -3.08324,1.37153 -4.87407,-0.3682 -4.87407,-0.3682 0,0 2.65902,1.54982 5.46487,-0.6652 2.80725,-2.21574 1.25533,-6.7941 -1.2554,-7.1643 -2.51086,-0.3688 -3.10165,0.59091 -3.10165,0.59091 0,0 0.9603,1.10852 0.44331,2.65964 -0.51701,1.55041 -2.65903,1.25471 -2.51083,-0.59081 0.14758,-1.84692 1.47671,-2.28954 1.47671,-2.28954 -1.53401,-0.4548 -2.27994,0.18241 -2.54353,0.50141 1.31001,-1.76771 2.91304,-0.7227 2.91304,-0.7227 0,0 1.0334,-0.66521 3.10164,-0.51771 2.06752,0.1482 2.58453,1.69802 2.58453,1.69802 1.69943,0.07439 4.06195,1.84693 4.35763,4.80097 0.11892,1.1898 -0.12149,2.10302 -0.45138,2.77034 -0.13181,0.02868 -0.2131,0.03619 -0.2131,0.03619 0,0 0.07029,0.0096 0.18848,0.0137 -0.487,0.95551 -1.1488,1.38991 -1.1488,1.38991 5.02225,1.03342 6.13007,-2.88033 5.24347,-5.76198 -0.97531,-3.16993 -4.94847,-3.69104 -4.94847,-3.69104 6.7947,0 6.35149,6.71959 6.35149,6.71959 1.03399,-0.29512 1.99371,-2.21573 1.03399,-4.72517 -0.96029,-2.51153 -3.83992,-2.73282 -3.83992,-2.73282 0.95971,-0.14891 4.50455,0.0731 4.79964,3.98615 0.29572,3.91506 -2.36261,4.13705 -2.36261,4.13705 -0.29571,0.8128 -1.55113,1.84552 -1.55113,1.84552 4.72656,0.88792 7.45859,-3.98744 4.87405,-8.1969 -2.58451,-4.21014 -7.08976,-2.43703 -7.60678,-2.14133 -0.5164,0.29439 -0.59021,-0.36882 -0.59021,-0.36882 0.40099,-2.61122 2.98694,-8.1355 3.46774,-9.145 0.16462,0.01921 0.32581,0.0383 0.48432,0.0601 -2.40973,4.84197 -3.28745,8.93741 -3.28745,8.93741 M 31.68127,3.62093 c 0,0 -3.91372,-2.14263 -9.82179,-1.84693 -5.90818,0.29581 -8.34451,1.99373 -8.34451,1.99373 0,0 -2.51213,-1.18161 -3.69376,-1.40222 0,0 -2.06751,2.73143 -3.24913,3.69176 0,0 14.99228,-3.61795 36.70485,0.5164 0,0 0.66461,0.14819 0.36882,-0.7377 -0.2957,-0.88663 -1.25532,-2.88164 -1.25532,-2.88164 0,0 -4.28323,-1.69663 -10.70916,0.6666 M 16.0251,26.07123 c 0,0 -0.66461,-4.80037 -1.55052,-7.75441 C 13.58807,15.36208 10.19131,10.1192 5.98116,7.8297 c 0,0 -2.95333,0.51638 -4.43074,1.1823 0,0 10.63401,5.83369 14.47468,17.05923 m 0.22188,-0.81283 1.18173,-3.39674 c 0,0 -1.10792,-0.95962 -1.32921,-2.58581 z m 3.83996,-3.02712 c 0,0 -1.18161,-1.62493 -0.6645,-3.84136 0.517,-2.21432 1.84622,-2.95274 1.84622,-2.95274 0,0 -2.95343,0 -3.91374,2.28813 -0.96033,2.29022 0.2213,4.57967 2.73202,4.50597 m 1.25612,-15.58252 -2.06823,0.0731 0.81211,8.27201 1.92003,0.0738 z m -5.09608,11.22476 c 0,0 0.36962,-1.69792 3.39744,-2.80585 L 18.83163,7.3127 c 0,0 -2.43704,4.57823 -2.58465,10.56082 M 14.69656,6.94377 15.50868,18.24303 c 0,0 0.44262,-7.97631 3.02785,-11.52117 z M 6.94156,7.756 c 0,0 4.87408,2.14122 7.97632,10.48703 L 13.80936,6.79558 c 0,0 -6.49828,0.96042 -6.8678,0.96042 m 36.18719,-4.65279 1.1816,2.95406 c 0.07381,0.8128 -1.1816,0.8128 -1.1816,0.8128 C 35.22614,5.68776 19.56995,5.24445 13.95757,5.68776 8.3445,6.13106 5.61237,6.50056 5.61237,6.50056 L 2.73212,8.19919 C 12.70145,5.61464 21.78566,6.05727 30.42657,6.20547 39.06679,6.35298 42.53792,7.756 43.42453,7.756 c 0.88582,0 0.29501,-0.51711 0.29501,-0.51711 l 0.36953,-0.22131 0.5171,1.25612 c 0,0 -0.73842,0 -6.3515,-0.81353 -0.1796,-0.02528 -0.3633,-0.05049 -0.55249,-0.07379 0.0123,-0.02519 0.02319,-0.04978 0.03619,-0.07368 0,0 -0.47061,-0.09152 -0.52051,0.01358 C 35.73575,7.15277 34.01582,7.02306 32.27621,6.92747 L 32.5679,17.57921 H 32.0515 L 31.32268,6.87898 C 29.61926,6.79558 27.93495,6.74236 26.47804,6.70886 28.88084,9.62671 31.3862,17.35721 31.3862,17.35721 L 30.49968,16.91249 C 29.41914,12.58904 26.36052,7.5244 25.84892,6.69518 23.58679,6.64876 22.00697,6.64876 22.00697,6.64876 l 0.22199,0.73831 c 2.21574,1.99374 6.4989,9.08421 6.4989,9.08421 L 27.91515,16.3969 C 24.1489,9.75043 22.00697,7.8297 22.00697,7.8297 l 0.6646,7.23797 c 0,0 -2.58463,0.95902 -2.73213,4.06195 -0.14749,3.10166 4.28325,4.43006 5.61238,2.50943 1.32991,-1.91861 0.07449,-4.13435 0.07449,-4.13435 1.77173,0 3.39664,1.77115 2.80583,4.20877 -0.59079,2.43773 -2.06752,2.65901 -3.54423,2.65901 -1.47733,0 -1.47733,-0.73829 -1.47733,-0.73829 0,0 1.25542,1.10781 3.39736,-0.2206 2.14123,-1.32991 1.69801,-4.50597 -0.517,-5.46558 0,0 1.91991,4.13567 -2.88036,5.68618 -1.99443,0 -2.58523,-1.18232 -2.58523,-1.18232 -2.14131,0.59153 -3.02712,-0.59021 -3.02712,-0.59021 -1.10794,2.21515 -1.62495,5.53937 -1.62495,5.53937 C 13.14545,16.6175 1.03339,9.0851 1.03339,9.0851 L 0,9.30711 0.5901,8.7887 C 5.83366,7.3127 9.453,2.2173 9.453,2.2173 3.76613,1.1094 0.5901,3.02943 0.5901,3.02943 c 0,0 2.28951,-1.62492 4.94785,-1.84553 3.54556,-0.2958 7.755,1.99301 7.755,1.99301 0,0 2.88033,-2.06751 8.27141,-2.06751 5.39107,0 9.97012,2.14203 9.97012,2.14203 0,0 4.06188,-1.84692 7.75431,-1.55113 4.72037,0.37772 5.53868,2.06743 5.53868,2.06743 -0.88593,-0.5163 -1.69872,-0.66452 -1.69872,-0.66452 m -22.11419,14.8291 c -0.0383,0.0526 -0.0772,0.10581 -0.11479,0.16181 0,0 0.03547,-0.06551 0.11479,-0.16181 m 14.7287,4.51956 c -0.59012,-3.24913 -3.39666,-3.54425 -3.39666,-3.54425 2.14193,0.07381 4.65265,1.99442 4.13565,4.72657 -0.4337,2.29083 -2.37213,2.40083 -2.98685,2.37693 0.0082,-0.0158 0.01711,-0.0328 0.02462,-0.04989 0.67821,-0.1387 2.71773,-0.78891 2.22324,-3.50936 m 1.7731,-8.86152 C 39.87961,9.012 41.43011,7.97789 41.43011,7.97789 h 0.44321 c -2.51072,2.80583 -3.69234,5.61246 -3.69234,5.61246 z M 31.53448,2.2173 c 0,0 -3.17613,-1.40361 -8.78851,-1.6263 C 17.1336,0.3704 13.73625,2.06981 13.73625,2.06981 7.6061,-0.07219 3.02783,0.8881 3.02783,0.8881 9.3786,-0.58919 13.66177,1.7003 13.66177,1.7003 c 0,0 5.46486,-1.77249 9.45371,-1.69801 3.98756,0.0737 8.419,1.84481 8.419,1.84481 0,0 2.80585,-1.69802 6.3507,-1.62421 3.54493,0.07441 6.42517,1.99441 6.42517,1.99441 -7.5324,-3.1023 -12.77587,0 -12.77587,0"
               style="fill:#000000;fill-opacity:1;fill-rule:nonzero;stroke:#000000;stroke-width:0.3985;stroke-linecap:butt;stroke-linejoin:miter;stroke-miterlimit:10;stroke-dasharray:none;stroke-opacity:1"
               id="path20" /></g></g></g></g></g></svg>
