<?xml version="1.0" encoding="UTF-8" standalone="no"?>
<svg
   xmlns:dc="http://purl.org/dc/elements/1.1/"
   xmlns:cc="http://creativecommons.org/ns#"
   xmlns:rdf="http://www.w3.org/1999/02/22-rdf-syntax-ns#"
   xmlns:svg="http://www.w3.org/2000/svg"
   xmlns="http://www.w3.org/2000/svg"
   xmlns:sodipodi="http://sodipodi.sourceforge.net/DTD/sodipodi-0.dtd"
   xmlns:inkscape="http://www.inkscape.org/namespaces/inkscape"
   version="1.1"
   id="svg2"
   xml:space="preserve"
   width="58.213013"
   height="39.189117"
   viewBox="0 0 58.213013 39.189117"
   sodipodi:docname="vectorian102.pdf"><metadata
     id="metadata8"><rdf:RDF><cc:Work
         rdf:about=""><dc:format>image/svg+xml</dc:format><dc:type
           rdf:resource="http://purl.org/dc/dcmitype/StillImage" /></cc:Work></rdf:RDF></metadata><defs
     id="defs6" /><sodipodi:namedview
     pagecolor="#ffffff"
     bordercolor="#666666"
     borderopacity="1"
     objecttolerance="10"
     gridtolerance="10"
     guidetolerance="10"
     inkscape:pageopacity="0"
     inkscape:pageshadow="2"
     inkscape:window-width="640"
     inkscape:window-height="480"
     id="namedview4" /><g
     id="g10"
     inkscape:groupmode="layer"
     inkscape:label="vectorian102"
     transform="matrix(1.3333333,0,0,-1.3333333,-0.67537939,40.423933)"><g
       id="g12"
       transform="translate(72,-41.328)"><g
         id="g14"
         transform="translate(-71.297,42.451)"><g
           id="g16"><g
             id="g18"><path
               d="m 12.24603,10.49663 c 0,0 1.18163,-4.62886 -4.18493,-4.62886 0,0 4.18493,0.4433 4.18493,4.62886"
               style="fill:#000000;fill-opacity:1;fill-rule:nonzero;stroke:#000000;stroke-width:0.3985;stroke-linecap:butt;stroke-linejoin:miter;stroke-miterlimit:10;stroke-dasharray:none;stroke-opacity:1"
               id="path20" /><path
               d="m 15.88919,10.61823 c 0,0 0.72611,-2.05864 -0.22191,-3.39666 -1.25471,-1.77112 -3.47113,-1.62491 -4.80035,-1.10791 0,0 3.42134,-0.2957 4.35776,1.10791 0.88581,1.32912 0.6645,3.39666 0.6645,3.39666"
               style="fill:#000000;fill-opacity:1;fill-rule:nonzero;stroke:#000000;stroke-width:0.3985;stroke-linecap:butt;stroke-linejoin:miter;stroke-miterlimit:10;stroke-dasharray:none;stroke-opacity:1"
               id="path22" /><path
               d="m 20.09804,10.10251 c 0,0 0.36952,-1.69931 -1.0334,-2.73341 C 17.66101,6.33568 16.2581,6.85268 16.2581,6.85268 c 0,0 1.32912,-0.29502 2.88024,1.03342 0.76231,0.6537 0.9597,2.21641 0.9597,2.21641"
               style="fill:#000000;fill-opacity:1;fill-rule:nonzero;stroke:#000000;stroke-width:0.3985;stroke-linecap:butt;stroke-linejoin:miter;stroke-miterlimit:10;stroke-dasharray:none;stroke-opacity:1"
               id="path24" /><path
               d="m 23.5698,9.88052 c 0,0 0.7391,-1.92064 -0.73902,-2.95474 0,0 0.96031,1.84691 0.73902,2.95474"
               style="fill:#000000;fill-opacity:1;fill-rule:nonzero;stroke:#000000;stroke-width:0.3985;stroke-linecap:butt;stroke-linejoin:miter;stroke-miterlimit:10;stroke-dasharray:none;stroke-opacity:1"
               id="path26" /><path
               d="m 9.24211,25.61122 c -3.10164,0.07379 -4.06195,-1.77243 -4.06195,-1.77243 0,0 2.51143,1.77243 5.02226,0.7383 2.50394,-1.03059 2.77983,-3.48473 2.80584,-4.21894 0.02799,-0.0014 0.05599,-0.0035 0.08399,-0.0048 0.61062,1.77382 -0.86882,5.18685 -3.85014,5.25787"
               style="fill:#000000;fill-opacity:1;fill-rule:nonzero;stroke:#000000;stroke-width:0.3985;stroke-linecap:butt;stroke-linejoin:miter;stroke-miterlimit:10;stroke-dasharray:none;stroke-opacity:1"
               id="path28" /><path
               d="m 16.4801,25.2424 c 1.69861,-2.80722 -0.2951,-5.17045 -0.2951,-5.17045 0,0 2.80583,2.28883 1.1072,5.39106 -1.77111,3.23484 -6.35078,1.55043 -6.35078,1.55043 0,0 3.83995,1.03481 5.53868,-1.77104"
               style="fill:#000000;fill-opacity:1;fill-rule:nonzero;stroke:#000000;stroke-width:0.3985;stroke-linecap:butt;stroke-linejoin:miter;stroke-miterlimit:10;stroke-dasharray:none;stroke-opacity:1"
               id="path30" /><path
               d="m 21.20586,24.65019 c 0.5915,-2.36322 -0.51632,-3.76542 -0.51632,-3.76542 0,0 1.82224,1.61731 1.18091,3.98744 -0.73768,2.73344 -4.87405,2.51083 -4.87405,2.51083 0,0 3.61867,-0.3696 4.20946,-2.73285"
               style="fill:#000000;fill-opacity:1;fill-rule:nonzero;stroke:#000000;stroke-width:0.3985;stroke-linecap:butt;stroke-linejoin:miter;stroke-miterlimit:10;stroke-dasharray:none;stroke-opacity:1"
               id="path32" /><path
               d="m 24.9727,24.20691 c 0.2213,-2.43634 -1.69862,-3.54486 -1.69862,-3.54486 0,0 3.10165,1.55182 2.43704,3.84064 -0.66461,2.28944 -3.39734,2.65835 -3.39734,2.65835 0,0 2.43703,-0.51712 2.65892,-2.95413"
               style="fill:#000000;fill-opacity:1;fill-rule:nonzero;stroke:#000000;stroke-width:0.3985;stroke-linecap:butt;stroke-linejoin:miter;stroke-miterlimit:10;stroke-dasharray:none;stroke-opacity:1"
               id="path34" /><path
               d="m 38.38869,6.45857 c -3.15076,0 -8.32062,-1.82162 -10.53563,5.07147 l 0.78819,0.59009 c 0,0 0.5901,-3.54414 4.62675,-3.79144 4.03808,-0.24589 5.81049,4.03805 3.20066,6.3528 0,0 1.28,0.68849 2.56073,-0.93643 C 40.30931,12.12013 39.8661,9.315 38.97949,9.0677 38.09357,8.8219 36.02544,7.5412 34.79535,7.34518 33.56451,7.14708 32.0379,7.3944 32.0379,7.3944 c 0,0 0.54169,-0.64074 2.16593,-0.64074 1.62422,0 2.56064,0.24661 3.34814,0.54161 0.78823,0.29651 3.88985,1.67484 5.21897,-2.01832 0,0 -1.23153,1.18162 -4.38225,1.18162 m -12.45627,5.36656 c 0,0 1.27992,2.60914 -0.1967,6.20249 0,0 1.42822,0.4447 2.06752,-1.2301 0.63991,-1.67345 0.09901,-2.90426 0.09901,-2.90426 0,0 0.78751,1.37771 0.1967,3.10094 -0.59082,1.72392 -1.92003,1.57573 -2.46164,1.28073 -0.01019,-0.0055 -0.02179,-0.01301 -0.0314,-0.01852 -0.46381,0.78892 -0.92551,1.31142 -0.9931,1.38653 2.78055,3.66656 5.40266,-0.99031 5.25857,-3.63296 -0.14752,-2.70821 -1.62494,-4.87335 -3.93896,-4.18485 m -0.3934,0.24591 c 0,0 -0.78821,0.59079 -0.88662,2.70815 -0.09829,2.11731 0.83742,2.90491 0.83742,2.90491 0,0 1.23081,-3.69243 0.0492,-5.61306 m -1.57581,-1.52592 c -1.23074,-0.04849 -2.41244,4.62746 0.4433,8.81232 0.01977,0.0287 0.0383,0.05539 0.05809,0.08268 0.24861,-0.29917 0.59491,-0.92478 0.83742,-1.3879 -0.57452,-0.44941 -1.34763,-1.41932 -1.38722,-3.32225 -0.04992,-2.31402 1.67332,-2.95403 1.67332,-2.95403 0,0 -0.39412,-1.18163 -1.62491,-1.23082 m 5.56325,15.312 c 1.62492,2.11671 3.59476,3.00253 5.95798,2.80584 2.36323,-0.19741 4.62747,-1.37902 7.2865,-0.68913 0,0 -0.0983,-1.42821 -1.52652,-1.62361 -1.42751,-0.19798 -3.05245,0.29442 -4.43145,0.78691 -1.37832,0.49242 -3.74165,0.8858 -5.95669,-1.77312 -2.21503,-2.65832 -1.32982,-4.77507 -1.32982,-4.77507 0,0 -0.88521,-0.4924 -1.28002,0.34432 0,0 -0.34419,2.80584 1.28002,4.92386 m 9.25633,-1.72321 c 0.64,-2.26494 -0.59082,-3.98826 -2.01832,-3.98826 0,0 1.47673,1.47743 0.44259,3.64263 -1.03341,2.16784 -3.93906,2.46224 -5.90819,1.47803 0,0 0.73903,1.27931 2.46164,1.52652 1.72393,0.2459 4.38227,-0.3941 5.02228,-2.65892 m -7.4593,-2.76974 c 0,0 -0.55321,-1.84613 -1.10723,-2.54834 0,0 1.77254,0.25889 2.51014,0.96101 0,0 -0.1837,-1.21921 -2.06753,-2.28943 0,0 0.99723,-0.40641 2.62145,-0.29581 0,0 -1.21852,-1.14471 -2.54694,-1.21781 0,0 1.36602,-0.81283 1.91991,-2.17952 0,0 -1.3298,0.85041 -2.47383,0.88722 0,0 0.70074,2.62081 -1.0341,5.24156 0,0 1.80932,0.70351 2.17813,1.44112 M 31.693,11.39413 c 0,0 -0.55392,1.07161 -2.28944,1.62423 0,0 0.4063,0.7021 0.59082,1.18161 0,0 1.55042,-1.29232 1.69862,-2.80584 m -10.30204,2.99094 c 0.2213,-3.69305 -1.73552,-3.83995 -2.32632,-3.02783 -0.64553,0.88661 -1.58804,4.54274 0.70071,7.6068 0,0 1.40361,-0.88582 1.62561,-4.57897 m -4.32074,-0.14821 c 0.22198,-2.65762 -0.51712,-3.43353 -1.43983,-3.39604 -0.92282,0.03622 -1.51363,1.95694 -1.18163,3.95137 0.33261,1.99303 1.03342,3.58104 1.03342,3.58104 0,0 1.36671,-1.47673 1.58804,-4.13637 m -4.24637,-0.25749 c 0.3326,-2.28954 -0.7752,-2.69524 -1.32922,-2.47464 -0.55391,0.22199 -1.77242,2.69524 -0.96031,6.16638 0,0 1.95692,-1.40221 2.28953,-3.69174 M 8.98389,13.86867 C 9.7967,12.17004 9.75911,10.95152 8.4668,11.13663 c -1.29291,0.18371 -2.32633,2.73204 -1.77242,4.94716 0,0 1.47672,-0.51711 2.28951,-2.21512 M 6.28796,11.46794 C 7.54338,10.10251 7.46689,9.02951 6.84187,8.95781 5.88226,8.8471 4.36804,9.76993 3.62964,12.57576 c 0,0 1.40291,0.2589 2.65832,-1.10782 M 3.74033,8.66199 c 1.25541,0 1.80932,-0.77589 1.58802,-1.18161 C 5.10634,7.07327 3.37154,6.29877 1.6352,7.92369 c 0,0 0.84902,0.7383 2.10513,0.7383 M 4.21985,4.93207 C 4.84744,5.74486 5.77097,5.96545 6.06667,5.52286 6.36176,5.07954 5.84467,3.60223 3.59283,3.45534 c 0,0 0.13042,0.8333 0.62702,1.47673 M 39.52179,8.9933 c 0.66391,0.4433 1.10721,3.17674 -0.29569,5.02297 -1.40293,1.84681 -4.06266,1.0341 -4.06266,1.0341 0,0 1.92062,-1.2561 1.77241,-3.54564 C 36.78906,9.21599 34.35133,8.18188 31.9888,8.8471 c -1.90843,0.5362 -2.90083,2.56344 -3.21295,3.32494 0.265,0.26781 0.4064,0.48979 0.4064,0.48979 2.21575,-0.49179 2.70745,-2.1652 2.70745,-2.1652 0,0 0.739,1.96782 -1.37832,3.79074 l 0.59081,-0.198 c 1.13241,-0.39281 2.06752,-1.08261 2.06752,-1.08261 -0.09839,1.92062 -1.67412,2.75734 -1.67412,2.75734 1.28071,0.24588 2.41243,1.77241 2.41243,1.77241 -1.08261,-0.0491 -2.51002,0.19671 -2.51002,0.19671 1.72322,0.64001 1.67332,2.90492 1.67332,2.90492 -0.39412,-0.8866 -2.21504,-1.2807 -2.21504,-1.2807 1.13252,1.62561 0.73842,3.05313 0.73842,3.05313 -0.64002,-1.47731 -1.82163,-1.6741 -1.82163,-1.6741 -0.7384,2.61051 1.82163,4.18423 3.74155,4.18423 1.92003,0 3.19993,-1.27931 3.24985,-2.85434 0.0485,-1.57642 -1.13312,-2.21571 -1.13312,-2.21571 0.83731,-0.59081 3.10223,0.0977 3.64385,2.21571 0.54171,2.11734 -0.54162,3.29895 -0.54162,3.29895 4.67737,-0.69051 4.52986,3.29765 4.52986,3.29765 -1.18171,-0.68913 -2.60983,-0.78752 -5.02224,-0.1482 -2.41315,0.64141 -5.66161,1.0348 -8.17313,-1.47603 -2.51073,-2.51145 -2.26483,-5.90877 -2.26483,-5.90877 -1.87082,1.08391 -3.59415,-1.03342 -3.59415,-1.03342 0,0 -1.0825,0.68912 -2.41243,0.68912 -1.3291,0 -2.06752,-1.13171 -2.06752,-1.13171 0,0 -1.08391,0.98419 -2.41302,0.83599 -1.32852,-0.1475 -1.96924,-1.3292 -1.96924,-1.3292 0,0 -0.8647,1.1161 -2.25533,1.19261 -0.02459,-0.0717 -0.05189,-0.14141 -0.08329,-0.2077 0,0 0.0041,0.07719 -7.1e-4,0.2125 -0.21042,0.0034 -0.4317,-0.0144 -0.66322,-0.06491 C 10.52202,19.89984 9.8827,18.22643 9.8827,18.22643 7.22377,19.16074 6.04207,16.5516 6.04207,16.5516 c 0,0 -1.47733,0.29441 -2.51145,-0.93571 -1.03341,-1.23082 -0.73829,-2.65834 -0.73829,-2.65834 0,0 -1.92003,-0.0499 -2.56003,-1.91992 C -0.46368,9.0035 0.62569,7.59178 0.62569,7.59178 -0.70268,4.98195 0.52739,2.91373 2.79233,2.56882 5.05714,2.22452 6.48537,4.14453 6.58305,5.07954 6.68208,6.01596 6.04207,6.50778 4.76215,5.81865 3.48143,5.12874 3.08731,3.40613 3.08731,3.40613 -0.3585,3.80023 0.9707,7.24608 0.9707,7.24608 1.1674,6.95178 2.84143,5.52286 4.66302,6.45857 6.48537,7.3944 5.69716,8.8219 3.97394,8.97011 2.25131,9.11691 1.3156,8.13339 1.3156,8.13339 c 0,0 -1.0341,0.5409 -0.68991,2.41173 0.34501,1.87083 2.11744,2.26422 2.11744,2.26422 0.24659,-3.83923 3.79143,-5.11996 4.57895,-4.18484 0.78749,0.93641 -0.14819,2.70742 -1.47741,3.64323 -1.32912,0.93572 -2.26413,0.68982 -2.26413,0.68982 0,0 -0.4433,1.08261 0.34419,2.16652 0.78822,1.08261 1.91994,1.13252 1.91994,1.13252 -0.83733,-4.03735 1.67411,-5.61307 2.75744,-5.75996 1.08319,-0.14821 1.67401,0.68849 0.83729,3.00322 -0.83729,2.31274 -2.60972,2.85505 -2.60972,2.85505 0.83731,2.31412 3.10153,1.57502 3.10153,1.57502 0,0 -0.73831,-1.23011 -0.54161,-3.34745 0.29161,-3.12753 1.82164,-3.69313 2.36394,-3.69313 0.54089,0 1.87083,1.03409 1.27931,3.54493 -0.59012,2.51143 -2.36323,3.39805 -2.36323,3.39805 0,0 0.56891,1.83661 2.06813,2.06752 1.28,0.1967 2.41243,-0.83671 2.41243,-0.83671 -1.27991,-1.42891 -1.87073,-2.80654 -1.72252,-4.92395 0.1468,-2.11664 0.93501,-3.64255 2.21502,-3.69306 1.27991,-0.04849 2.01833,1.32982 1.62422,4.28385 -0.3934,2.95413 -1.7226,4.08586 -1.7226,4.08586 0,0 0.88589,1.28071 1.96922,1.28071 1.08321,0 1.91991,-0.68921 1.91991,-0.68921 -0.8367,-0.44329 -1.82161,-2.11671 -1.77242,-4.43145 0.04981,-2.31405 0.98422,-4.47925 2.21571,-4.47925 1.23084,0 2.01905,1.57441 1.87143,4.43075 -0.14888,2.85503 -1.7239,4.28185 -1.7239,4.28185 1.08331,1.96982 3.93896,0.69061 3.93896,0.69061 -3.64386,-4.72726 -1.52583,-9.79733 -0.09833,-9.84714 1.42822,-0.04918 1.91992,1.37833 1.91992,1.37833 0.73292,-0.27191 1.36474,-0.20901 1.87833,-0.0096 0.70221,-3.43622 2.95275,-5.09056 4.99016,-5.38156 2.06754,-0.295 5.61251,0.14759 7.97571,-0.22121 2.36323,-0.36888 2.58455,-2.14201 2.58455,-2.14201 0.1475,5.17046 -3.69176,5.31666 -3.69176,5.31666"
               style="fill:#000000;fill-opacity:1;fill-rule:nonzero;stroke:#000000;stroke-width:0.3985;stroke-linecap:butt;stroke-linejoin:miter;stroke-miterlimit:10;stroke-dasharray:none;stroke-opacity:1"
               id="path36" /><path
               d="m 16.6768,2.91373 c 0,0 -0.64,0.4931 -0.83741,1.2308 -0.19671,0.73901 0.0498,1.28063 0.54161,0.78821 0.4925,-0.49249 0.4925,-1.3298 0.2958,-2.01901 M 14.31346,1.3872 c 0,0 -0.68909,0.3941 -0.83731,1.72393 -0.1476,1.32912 1.07372,1.57771 1.13313,0.04851 C 14.65778,1.88031 14.31346,1.3872 14.31346,1.3872 m -2.80653,0.09902 c 0,0 -0.54161,0.59079 -0.3449,1.7724 0.19739,1.18163 1.084,1.67412 1.1324,0.49181 0.0499,-1.18091 -0.7875,-2.26421 -0.7875,-2.26421 M 8.7496,1.1905 c 0,0 -0.39412,0.98421 0.04921,2.16581 0.4433,1.18164 1.1816,1.57643 1.23151,0.54234 C 10.07942,2.86452 9.1929,1.3387 8.7496,1.1905 M 6.58305,1.5354 c 0,0 -0.39337,2.36325 0.78752,2.95404 C 8.55289,5.08025 7.27287,1.6836 6.58305,1.5354 M 15.5566,4.67455 C 15.81549,2.68011 16.7382,2.53192 16.7382,2.53192 15.88919,0.9077 14.78137,1.3134 14.78137,1.3134 c 0.84902,1.25612 0.29511,2.88094 -0.0738,3.24985 -0.3695,0.36949 -1.29291,0.33191 -1.44042,-1.18161 -0.1476,-1.51363 0.81212,-2.21514 0.81212,-2.21514 0,0 -0.18382,-0.40571 -0.95972,-0.5908 -0.77522,-0.18512 -1.29291,0.11069 -1.29291,0.11069 0,0 0.84971,0.36951 1.10851,1.55113 0.25821,1.18161 0.14691,2.47392 -0.70212,2.58322 -0.8497,0.112 -1.29161,-0.99651 -1.3661,-1.95622 C 10.79323,1.90561 11.30954,1.2765 11.30954,1.2765 11.05142,0.79639 10.64502,0.4651 10.018,0.4651 9.3903,0.4651 9.31581,0.72328 9.31581,0.72328 9.6853,0.9446 10.38751,1.86801 10.60883,2.86452 10.83012,3.86174 10.57191,4.85825 9.8697,4.85825 9.169,4.85825 8.4668,3.89865 8.3931,2.75392 8.31859,1.6091 8.54059,1.0183 8.54059,1.0183 c 0,0 -0.33189,-0.5908 -0.88589,-0.517 C 7.10008,0.5757 6.98947,0.9814 6.98947,0.9814 8.94629,3.08653 8.43,4.96965 7.87599,5.11784 7.32208,5.26537 6.58305,4.37813 6.32486,3.34471 6.06667,2.31131 6.36176,1.3503 6.36176,1.3503 6.02975,0.39058 4.77444,0.31618 4.03603,0.83319 3.29773,1.3503 3.03882,2.08861 3.03882,2.08861 3.62964,-1.12288 6.65747,0.68639 6.65747,0.68639 7.98668,-0.20018 8.79881,0.4651 8.79881,0.4651 c 1.5887,-1.10789 2.88033,0.1106 2.88033,0.1106 1.44041,-1.18158 2.99095,0.3689 2.99095,0.3689 1.62491,-0.0369 2.58521,0.6645 2.54832,2.69512 -0.03759,2.03135 -1.92002,3.02854 -1.66181,1.03483"
               style="fill:#000000;fill-opacity:1;fill-rule:nonzero;stroke:#000000;stroke-width:0.3985;stroke-linecap:butt;stroke-linejoin:miter;stroke-miterlimit:10;stroke-dasharray:none;stroke-opacity:1"
               id="path38" /><path
               d="m 24.8491,4.78384 c 0,0 -0.44189,0.59153 -0.59011,1.18232 C 24.1115,6.55836 24.4557,6.95178 24.899,6.80417 25.34232,6.65596 25.58812,5.81865 24.8491,4.78384 M 22.58487,4.44025 c 0,0 -0.5416,0.49249 -0.6891,1.4282 -0.14821,0.93572 0.8865,0.98362 0.8865,0.19602 0,-0.78681 -0.1974,-1.62422 -0.1974,-1.62422 M 20.27084,4.14453 c 0,0 -0.3443,0.44331 -0.49182,1.37903 -0.14888,0.93501 0.19602,1.1324 0.49182,1.08261 0.29572,-0.04781 0.4433,-1.18101 0,-2.46164 M 18.35081,3.60294 c 0,0 -0.4931,0.3941 -0.5901,1.3298 -0.0984,0.93571 0.14619,1.32841 0.5901,0.93571 0.44332,-0.39479 0.19742,-1.87141 0,-2.26551 M 28.77585,2.42123 c -0.07311,0.8859 -0.849,1.55181 -1.95693,1.7363 -1.1078,0.18442 -1.5866,0.40572 -1.5866,0.40572 1.14341,1.6979 0.4788,2.51072 -0.11272,2.65762 C 24.53021,7.3698 23.90181,7.03778 24.04999,6.00307 24.1975,4.96965 24.8621,4.48944 24.8621,4.48944 c -0.62771,-0.6277 -1.8093,-0.4064 -1.8093,-0.4064 0.8128,1.0348 0.44259,2.99093 -0.22202,3.17604 -0.66461,0.1844 -1.29222,-0.66452 -1.18092,-1.58801 0.11059,-0.92342 0.81212,-1.51354 0.81212,-1.51354 -0.4433,-0.77589 -1.84691,-0.4433 -1.84691,-0.4433 0.5177,0.77521 0.70219,2.36322 0.29577,3.13784 C 20.50516,7.62798 19.32343,7.03778 19.43343,5.59737 19.54474,4.15753 20.13495,3.74973 20.13495,3.74973 19.61784,2.82832 18.73264,3.04964 18.73264,3.04964 19.61784,4.23195 19.02843,6.00307 18.51132,6.29877 17.99362,6.59456 17.329,6.41008 17.40352,5.15474 17.4766,3.89865 18.17801,2.97653 18.17801,2.97653 17.95671,2.64322 17.2191,2.16312 17.2191,2.16312 c 0.62772,-0.07381 1.29222,0.51629 1.29222,0.51629 1.4391,-0.33119 1.95694,0.88593 1.95694,0.88593 1.29219,-0.88593 2.21501,0.11059 2.21501,0.11059 1.47731,-0.44192 2.32566,0.62909 2.32566,0.62909 0.66598,-0.40637 1.32989,-0.25888 2.47461,-0.77519 1.14471,-0.5171 0.96031,-1.40361 0.96031,-1.40361 -0.1482,0.0369 -1.10781,-0.07381 -0.77591,-0.66461 0.33261,-0.59152 1.18233,0.0731 1.10791,0.95962"
               style="fill:#000000;fill-opacity:1;fill-rule:nonzero;stroke:#000000;stroke-width:0.3985;stroke-linecap:butt;stroke-linejoin:miter;stroke-miterlimit:10;stroke-dasharray:none;stroke-opacity:1"
               id="path40" /></g></g></g></g></g></svg>
