<?xml version="1.0" encoding="UTF-8" standalone="no"?>
<svg
   xmlns:dc="http://purl.org/dc/elements/1.1/"
   xmlns:cc="http://creativecommons.org/ns#"
   xmlns:rdf="http://www.w3.org/1999/02/22-rdf-syntax-ns#"
   xmlns:svg="http://www.w3.org/2000/svg"
   xmlns="http://www.w3.org/2000/svg"
   xmlns:sodipodi="http://sodipodi.sourceforge.net/DTD/sodipodi-0.dtd"
   xmlns:inkscape="http://www.inkscape.org/namespaces/inkscape"
   version="1.1"
   id="svg2"
   xml:space="preserve"
   width="219.65739"
   height="167.30893"
   viewBox="0 0 219.6574 167.30893"
   sodipodi:docname="vectorian050.pdf"><metadata
     id="metadata8"><rdf:RDF><cc:Work
         rdf:about=""><dc:format>image/svg+xml</dc:format><dc:type
           rdf:resource="http://purl.org/dc/dcmitype/StillImage" /></cc:Work></rdf:RDF></metadata><defs
     id="defs6" /><sodipodi:namedview
     pagecolor="#ffffff"
     bordercolor="#666666"
     borderopacity="1"
     objecttolerance="10"
     gridtolerance="10"
     guidetolerance="10"
     inkscape:pageopacity="0"
     inkscape:pageshadow="2"
     inkscape:window-width="640"
     inkscape:window-height="480"
     id="namedview4" /><g
     id="g10"
     inkscape:groupmode="layer"
     inkscape:label="vectorian050"
     transform="matrix(1.3333333,0,0,-1.3333333,0.15944771,167.0846)"><g
       id="g12"
       transform="translate(72,53.141)"><g
         id="g14"
         transform="translate(-71.92,-53.11)"><g
           id="g16"><g
             id="g18"><path
               d="m 101.3994,93.51959 c 3.00963,0 13.29137,0 17.30423,0 4.01285,0 7.52167,-2.50883 10.03212,-4.51207 0,0 -4.51686,4.51207 -0.50081,11.78577 0,0 -4.76486,-5.76807 -10.53454,-5.51688 0,0 -9.55373,-0.15041 -16.1058,-0.21761 0.32799,1.33282 0.528,2.57925 0.5584,3.69447 0.25119,8.7729 -4.26245,12.53775 -8.2753,13.03855 -4.01286,0.50081 -8.51692,-1.62082 -7.77292,-6.26887 0.38881,-2.42882 2.35366,-3.55365 4.32967,-3.77765 -0.51361,-2.02882 -1.20162,-3.99046 -2.02243,-5.89449 -2.30724,0.71042 -4.96007,2.02244 -8.3281,4.44007 l -0.51361,0.21921 c 2.12642,5.45126 2.84964,10.27853 2.77124,13.78738 -0.1952,8.83211 -5.01606,10.78573 -7.7745,10.78573 -2.75844,0 -7.02089,-2.76164 -5.51688,-11.03533 1.50403,-8.27532 7.02089,-12.28658 7.02089,-12.28658 -2.39684,-4.94086 -5.40326,-9.38092 -8.6913,-13.33777 -3.14564,4.14565 -5.47528,8.63372 -6.36648,13.32978 1.92961,0.264 3.82243,1.39201 4.20166,3.76965 0.7424,4.64805 -3.76166,6.76968 -7.77613,6.26887 -4.01124,-0.5008 -8.5249,-4.26565 -8.27369,-13.03855 C 49.3043,93.75319 52.55556,86.24269 57.95561,78.84421 57.07724,78.081 56.19562,77.3418 55.3204,76.63615 51.61475,78.11299 47.61789,79.31621 43.47224,79.94502 28.47205,82.21706 18.20792,76.45378 15.48628,68.82327 c -1.63522,0.112 -3.34244,0.15039 -5.11686,0.08319 C 0.61728,68.55927 -0.08029,63.6072 0.00609,62.5448 c -0.08638,-1.06563 0.61119,-6.02248 10.36333,-6.37128 2.12004,-0.07522 4.14405,0.01119 6.06088,0.208 3.16163,-6.5537 11.00014,-11.88175 26.03714,-10.04014 4.46403,0.5456 8.4689,1.52962 12.04495,2.75205 0.89441,-0.71841 1.79202,-1.45123 2.69603,-2.22244 -4.95366,-7.05768 -7.90729,-14.11059 -8.0433,-18.87384 -0.25121,-8.77773 4.26245,-12.54097 8.27369,-13.04177 4.01447,-0.50081 8.51853,1.61922 7.77613,6.26888 -0.34401,2.15362 -1.93124,3.27843 -3.66247,3.66565 0.75843,4.37605 2.71683,8.5697 5.37769,12.46255 3.36162,-3.81766 6.44006,-8.0177 8.8913,-12.58096 0,0 -5.26726,-5.46088 -6.77129,-13.73616 C 67.54616,2.76003 71.80861,0 74.56705,0 c 2.75844,0 7.5793,1.952 7.7745,10.78412 0.0864,3.88325 -0.80801,9.37773 -3.49606,15.54899 l 1.23843,0.94883 c 2.87844,2.06883 5.23046,3.32003 7.29448,4.08644 0.93444,-2.09281 1.68643,-4.27045 2.20804,-6.51848 -1.66243,-0.42079 -3.15204,-1.54723 -3.48166,-3.62564 -0.744,-4.64966 3.76006,-6.76969 7.77292,-6.26888 4.01285,0.5008 8.52649,4.26404 8.2753,13.04177 -0.04,1.34082 -0.3088,2.86723 -0.7744,4.51845 6.55527,-0.0656 16.3218,-0.21918 16.3218,-0.21918 5.76968,0.25279 10.53454,-5.51688 10.53454,-5.51688 -4.01605,7.27208 0.50081,11.78736 0.50081,11.78736 -2.51045,-2.00646 -6.01927,-4.51528 -10.03212,-4.51528 -4.01286,0 -14.2946,0 -17.30423,0 -0.15201,0 -0.32482,0 -0.49922,0.0016 -2.21282,6.49133 -7.23847,14.597 -14.12338,21.6355 5.51368,3.52164 10.48333,5.79848 13.18897,6.42087 0.77761,-0.2912 1.49122,-0.52639 2.12804,-0.7088 0.49118,-0.76001 1.34081,-1.26721 2.31522,-1.26721 1.52321,0 2.76004,1.23203 2.76004,2.75684 0,1.5248 -1.23683,2.75842 -2.76004,2.75842 -1.27521,0 -2.33763,-0.87041 -2.64963,-2.04162 -3.53764,1.25602 -9.00333,3.90885 -14.82259,7.6145 7.09929,7.30249 12.18894,15.7282 14.22579,22.29469 0.0784,0 0.1664,0.0032 0.2368,0.0032 z m -9.41133,8.2289 c 0.8464,0.10401 1.61122,0.36641 2.14082,0.76321 2.00642,1.50562 0.50241,4.51368 -1.75842,4.01285 -2.25603,-0.50079 -2.00482,-3.00804 -2.00482,-3.00804 -2.25762,0 -3.51044,3.00804 -2.00324,5.01448 1.50243,2.00481 6.76972,3.26083 10.02895,-1.25282 1.89923,-2.63362 2.59042,-6.87369 1.26561,-12.24015 -1.11042,-0.0096 -2.06563,-0.0128 -2.76964,-0.0128 -2.32483,0 -4.47044,-0.11522 -6.98729,0.43199 0.84962,2.02243 1.56161,4.11846 2.08803,6.29128 z m -20.92986,13.55379 c -0.75363,7.77449 3.22241,9.80972 6.26728,7.27209 3.01123,-2.50723 3.01123,-15.0482 -0.75202,-19.55865 0,0 -4.76486,4.51045 -5.51526,12.28656 z m 7.9729,-16.10741 c 1.1088,-0.82402 4.18404,-2.96165 8.07369,-4.42087 0.2288,-0.08479 0.46722,-0.16319 0.71681,-0.2384 -2.80162,-5.95047 -6.89607,-11.24494 -11.22575,-15.7074 -2.26882,1.93282 -4.43044,4.00646 -6.40168,6.19208 4.09926,4.85606 6.94089,9.69932 8.83693,14.17459 z M 61.06287,49.00542 c 1.57123,1.98883 3.11045,3.75206 4.55207,5.28486 0.51841,0.32162 1.0224,0.63842 1.50721,0.95841 2.44642,-1.89762 5.08967,-4.13925 7.6929,-6.67206 -2.24642,-2.04164 -4.38725,-4.24487 -6.31528,-6.58571 -2.16003,2.36325 -4.62566,4.71205 -7.4369,7.0145 z m 8.01771,34.72683 c 1.92482,-2.18402 4.02403,-4.26245 6.22568,-6.20326 -2.67525,-2.63524 -5.39208,-4.96327 -7.89771,-6.92331 -1.6912,1.68483 -3.58084,3.72966 -5.54246,6.1361 2.72961,2.29603 5.12007,4.64325 7.21449,6.99047 z m 4.81926,-19.83863 c 0,0 0,-1.16962 0.33441,-1.67044 0,0 -4.68167,-4.01285 -7.35531,-4.85126 -3.32003,2.45923 -6.49288,4.52006 -8.16489,5.51688 1.67841,0.98081 4.76965,2.88964 8.44811,5.63368 0,0 4.56326,-2.45604 6.73768,-4.62886 z M 55.6772,62.724 c 0.10562,-0.0576 4.66566,-2.42244 9.72174,-6.16808 C 64.68692,55.8503 63.9893,55.1415 63.31729,54.41669 61.57648,53.47906 59.65164,52.55746 57.56523,51.70305 52.23555,55.5879 45.85149,59.27596 38.20499,62.5448 46.10268,65.91762 52.65157,69.73529 58.07724,73.76094 60.57648,72.66972 63.1573,71.2889 66.00053,69.52249 62.09328,66.57364 55.6772,62.724 55.6772,62.724 Z m 12.80656,-6.54889 c 2.81604,1.98563 4.88646,3.85124 6.23049,5.19048 0.48959,-0.45282 1.14081,-0.73122 1.85922,-0.73122 0.63362,0 1.21123,0.22079 1.67682,0.58081 1.23042,-0.96802 3.34564,-2.73924 5.91528,-5.32808 -2.71684,-1.82721 -5.49607,-3.92644 -8.16652,-6.25288 -2.53762,2.47844 -5.11207,4.66887 -7.51529,6.54089 z m 8.08971,9.97614 c -0.8,0 -1.51521,-0.34562 -2.01923,-0.89283 -1.4208,1.19202 -3.44164,2.73606 -5.92967,4.37607 2.50563,1.94562 5.20645,4.24486 7.8705,6.86726 2.46724,-2.0944 5.02246,-4.02084 7.5569,-5.75367 -2.49924,-2.51042 -4.56166,-4.24164 -5.77768,-5.19686 -0.472,0.3712 -1.05601,0.60003 -1.70082,0.60003 z M 57.94283,81.94824 c -8.0257,11.57135 -8.27691,20.81467 -5.01767,25.32993 3.25924,4.51365 8.52812,3.25763 10.03214,1.25282 1.504,-2.00644 0.2496,-5.01448 -2.00804,-5.01448 0,0 0.25123,2.50725 -2.00322,3.00804 -2.25604,0.50083 -3.76324,-2.50723 -1.7584,-4.01285 0.5616,-0.4192 1.3872,-0.6912 2.296,-0.7776 0.92482,-5.14886 3.42565,-10.06255 6.8113,-14.58578 -2.24964,-2.58725 -4.60807,-4.95687 -6.98729,-7.10889 -0.45282,0.62079 -0.912,1.25441 -1.36482,1.90881 z m 2.53123,-6.34727 c 0.62561,-0.75841 1.26082,-1.51363 1.92802,-2.25605 -0.94081,0.49921 -1.92642,0.99042 -2.93124,1.47202 0.33762,0.26242 0.67522,0.52161 1.00322,0.78403 z m -17.75543,1.8352 c 4.06886,-0.35359 7.57449,-0.9648 11.02734,-2.048 C 43.53625,67.48726 34.44333,63.64241 34.44333,63.64241 c 0,0 -4.60005,2.64323 -11.92816,4.19366 2.28643,6.81608 9.94894,10.48973 20.20346,9.6001 z M 21.90558,65.14803 c 0.03999,0.3184 0.10559,0.62081 0.16319,0.93281 5.28006,-1.33601 9.86733,-3.19044 9.86733,-3.19044 0,0 -1.47524,-1.65282 -9.59212,-3.69925 -0.53922,2.02563 -0.65921,4.08485 -0.4384,5.95688 z M 2.34691,63.39119 c 0.49281,2.96965 4.01124,4.26247 11.53615,4.01446 0.38401,-0.0144 0.77762,-0.03999 1.17442,-0.07359 -0.0688,-0.30881 -0.12799,-0.6192 -0.17441,-0.93123 -0.38399,-2.70082 -0.1344,-5.72166 0.93763,-8.5953 C 5.01736,56.1191 1.8701,60.54156 2.34691,63.39119 Z M 47.48349,48.59741 c -14.78418,-3.12164 -22.05467,2.40323 -24.5939,8.92493 7.10888,1.78241 11.55374,4.67046 11.55374,4.67046 0,0 8.7857,-4.30248 18.76825,-12.07058 -1.81284,-0.5776 -3.71207,-1.10242 -5.72809,-1.52481 z m 11.34096,2.16802 c 0.73121,0.32161 1.44961,0.64802 2.13762,0.98242 -0.45121,-0.53439 -0.888,-1.07202 -1.31681,-1.60962 -0.27041,0.20961 -0.5456,0.41919 -0.82081,0.6272 z m 1.23039,-25.72031 c -1.13121,-0.01282 -2.18883,-0.30081 -2.8672,-0.81123 -2.00484,-1.504 -0.49764,-4.51206 1.7584,-4.01125 2.25445,0.49921 2.00322,3.00964 2.00322,3.00964 2.25764,0 3.51204,-3.00964 2.00804,-5.01606 -1.50402,-2.00642 -6.7729,-3.26084 -10.03214,1.2528 -3.25924,4.51368 -3.00803,13.7586 5.01767,25.32995 0.20961,0.30079 0.4192,0.59201 0.62561,0.88641 2.48484,-2.19524 4.95846,-4.58246 7.31369,-7.15691 -2.89444,-4.19365 -5.02405,-8.73131 -5.82729,-13.48335 z M 77.32549,2.50882 c -3.04487,-2.5392 -7.02091,-0.49922 -6.26728,7.27209 0.7504,7.77451 5.76647,13.98899 5.76647,13.98899 3.76164,-4.51367 3.51204,-18.75225 0.50081,-21.26108 z m 1.25441,25.52513 -0.3072,-0.44801 c -1.97924,4.22886 -4.81127,8.73611 -8.72651,13.24019 1.94403,2.35681 4.11206,4.58404 6.39368,6.64007 4.16806,-4.22886 8.1217,-9.21933 10.83532,-14.8002 -4.73285,-1.84161 -8.19529,-4.63205 -8.19529,-4.63205 z m 19.81146,-8.56493 c -3.25923,-4.51364 -8.52652,-3.25922 -10.02895,-1.2528 -1.5072,2.00642 -0.25438,5.01606 2.00324,5.01606 0,0 -0.25121,-2.51043 2.00482,-3.00964 2.26083,-0.50081 3.76484,2.50725 1.75842,4.01125 -0.712,0.53441 -1.84802,0.83203 -3.04323,0.81123 -0.5312,2.35204 -1.30241,4.62247 -2.25444,6.80487 2.99686,0.84801 5.41289,0.69922 8.05611,0.69922 0.656,0 1.53763,-0.0048 2.55363,-0.01281 1.61602,-5.76167 0.94722,-10.30253 -1.0496,-13.06738 z m -5.01607,25.32995 c 2.68483,-3.87046 4.48166,-7.47371 5.58726,-10.73296 -3.13763,0.01121 -7.55848,-0.06879 -10.72492,-0.91361 -2.77924,5.83208 -6.83211,11.00335 -11.11055,15.35701 2.68005,2.31684 5.46568,4.40647 8.1697,6.20968 2.48644,-2.61283 5.29448,-5.90728 8.07851,-9.92012 z m 4.35045,18.22744 C 94.5977,61.95758 90.26486,59.82315 85.6296,56.84392 c -2.02402,1.97282 -4.19846,3.83204 -6.49609,5.53767 0.12479,0.312 0.2,0.6496 0.2,1.0096 0,0.35041 -0.07521,0.67521 -0.18721,0.98082 2.24004,1.67042 4.37445,3.47844 6.35848,5.40327 4.46246,-2.93763 8.76173,-5.24008 12.22096,-6.74887 z m -4.35045,18.92183 c -2.72803,-3.93124 -5.47527,-7.1729 -7.92651,-9.76332 -2.55523,1.69443 -5.14566,3.57764 -7.64649,5.62888 4.44646,4.58725 8.66251,10.08331 11.52974,16.35219 3.13445,-0.6272 7.09291,-0.672 9.90254,-0.6592 -1.06881,-3.47043 -2.94723,-7.3569 -5.85928,-11.55855 z"
               style="fill:#000000;fill-opacity:1;fill-rule:nonzero;stroke:#000000;stroke-width:0.3985;stroke-linecap:butt;stroke-linejoin:miter;stroke-miterlimit:10;stroke-dasharray:none;stroke-opacity:1"
               id="path20" /><path
               d="m 161.58575,35.81004 c -1.52479,0 -2.76002,-1.23842 -2.76002,-2.76323 0,-1.52162 1.23523,-2.75364 2.76002,-2.75364 1.52164,0 2.75846,1.23202 2.75846,2.75364 0,1.52481 -1.23682,2.76323 -2.75846,2.76323 z"
               style="fill:#000000;fill-opacity:1;fill-rule:nonzero;stroke:#000000;stroke-width:0.3985;stroke-linecap:butt;stroke-linejoin:miter;stroke-miterlimit:10;stroke-dasharray:none;stroke-opacity:1"
               id="path22" /><path
               d="m 150.92963,36.43404 c -1.86883,0 -3.38565,-1.51841 -3.38565,-3.38723 0,-1.86881 1.51682,-3.38404 3.38565,-3.38404 1.86882,0 3.38404,1.51523 3.38404,3.38404 0,1.86882 -1.51522,3.38723 -3.38404,3.38723 z"
               style="fill:#000000;fill-opacity:1;fill-rule:nonzero;stroke:#000000;stroke-width:0.3985;stroke-linecap:butt;stroke-linejoin:miter;stroke-miterlimit:10;stroke-dasharray:none;stroke-opacity:1"
               id="path24" /><path
               d="m 137.75986,37.43567 c -2.41924,0 -4.38887,-1.96323 -4.38887,-4.38886 0,-2.42083 1.96963,-4.38726 4.38887,-4.38726 2.42563,0 4.39045,1.96643 4.39045,4.38726 0,2.42563 -1.96482,4.38886 -4.39045,4.38886 z"
               style="fill:#000000;fill-opacity:1;fill-rule:nonzero;stroke:#000000;stroke-width:0.3985;stroke-linecap:butt;stroke-linejoin:miter;stroke-miterlimit:10;stroke-dasharray:none;stroke-opacity:1"
               id="path26" /><path
               d="m 161.58575,91.22676 c 1.52164,0 2.75846,1.23682 2.75846,2.75842 0,1.52485 -1.23682,2.76004 -2.75846,2.76004 -1.52479,0 -2.76002,-1.23519 -2.76002,-2.76004 0,-1.5216 1.23523,-2.75842 2.76002,-2.75842 z"
               style="fill:#000000;fill-opacity:1;fill-rule:nonzero;stroke:#000000;stroke-width:0.3985;stroke-linecap:butt;stroke-linejoin:miter;stroke-miterlimit:10;stroke-dasharray:none;stroke-opacity:1"
               id="path28" /><path
               d="m 150.92963,97.37083 c -1.86883,0 -3.38565,-1.51521 -3.38565,-3.38565 0,-1.8672 1.51682,-3.38403 3.38565,-3.38403 1.86882,0 3.38404,1.51683 3.38404,3.38403 0,1.87044 -1.51522,3.38565 -3.38404,3.38565 z"
               style="fill:#000000;fill-opacity:1;fill-rule:nonzero;stroke:#000000;stroke-width:0.3985;stroke-linecap:butt;stroke-linejoin:miter;stroke-miterlimit:10;stroke-dasharray:none;stroke-opacity:1"
               id="path30" /><path
               d="m 137.75986,98.37245 c -2.41924,0 -4.38887,-1.96162 -4.38887,-4.38727 0,-2.42241 1.96963,-4.38563 4.38887,-4.38563 2.42563,0 4.39045,1.96322 4.39045,4.38563 0,2.42565 -1.96482,4.38727 -4.39045,4.38727 z"
               style="fill:#000000;fill-opacity:1;fill-rule:nonzero;stroke:#000000;stroke-width:0.3985;stroke-linecap:butt;stroke-linejoin:miter;stroke-miterlimit:10;stroke-dasharray:none;stroke-opacity:1"
               id="path32" /><path
               d="m 50.24194,65.90004 c -1.52482,0 -2.75845,-1.23361 -2.75845,-2.75845 0,-1.52321 1.23363,-2.76003 2.75845,-2.76003 1.52481,0 2.76003,1.23682 2.76003,2.76003 0,1.52484 -1.23522,2.75845 -2.76003,2.75845 z"
               style="fill:#000000;fill-opacity:1;fill-rule:nonzero;stroke:#000000;stroke-width:0.3985;stroke-linecap:butt;stroke-linejoin:miter;stroke-miterlimit:10;stroke-dasharray:none;stroke-opacity:1"
               id="path34" /></g></g></g></g></g></svg>
