<?xml version="1.0" encoding="UTF-8" standalone="no"?>
<svg
   xmlns:dc="http://purl.org/dc/elements/1.1/"
   xmlns:cc="http://creativecommons.org/ns#"
   xmlns:rdf="http://www.w3.org/1999/02/22-rdf-syntax-ns#"
   xmlns:svg="http://www.w3.org/2000/svg"
   xmlns="http://www.w3.org/2000/svg"
   xmlns:sodipodi="http://sodipodi.sourceforge.net/DTD/sodipodi-0.dtd"
   xmlns:inkscape="http://www.inkscape.org/namespaces/inkscape"
   version="1.1"
   id="svg2"
   xml:space="preserve"
   width="43.119999"
   height="40.026669"
   viewBox="0 0 43.119999 40.026669"
   sodipodi:docname="vectorian100.pdf"><metadata
     id="metadata8"><rdf:RDF><cc:Work
         rdf:about=""><dc:format>image/svg+xml</dc:format><dc:type
           rdf:resource="http://purl.org/dc/dcmitype/StillImage" /></cc:Work></rdf:RDF></metadata><defs
     id="defs6"><clipPath
       clipPathUnits="userSpaceOnUse"
       id="clipPath24"><path
         d="M 0,0 H 29.02435 V 30.02158 H 0 Z"
         id="path22" /></clipPath></defs><sodipodi:namedview
     pagecolor="#ffffff"
     bordercolor="#666666"
     borderopacity="1"
     objecttolerance="10"
     gridtolerance="10"
     guidetolerance="10"
     inkscape:pageopacity="0"
     inkscape:pageshadow="2"
     inkscape:window-width="640"
     inkscape:window-height="480"
     id="namedview4" /><g
     id="g10"
     inkscape:groupmode="layer"
     inkscape:label="vectorian100"
     transform="matrix(1.3333333,0,0,-1.3333333,0,40.026667)"><g
       id="g12"
       transform="translate(72,-41.979)"><g
         id="g14"
         transform="translate(-72,41.979)"><g
           id="g16"><g
             id="g18"><g
               id="g20"
               clip-path="url(#clipPath24)"><path
                 d="m 10.27892,15.12857 c 0,0 3.20205,-12.29436 -9.14972,-14.76009 0,0 6.17587,3.21026 7.2045,9.50083 1.03001,6.28377 0.80119,11.20845 3.48884,14.80799 2.68703,3.59945 6.06317,2.86184 6.29128,1.42753 0.22889,-1.42753 -1.88643,-2.51353 -1.88643,-3.25806 0,-0.74451 1.94313,-1.48901 2.68763,0.79912 0.74251,2.28813 0.39962,4.18007 3.25945,5.55296 2.85974,1.36603 5.03107,-0.806 5.37537,-2.00812 0,0 -1.77382,2.11744 -4.68966,0.57383 0,0 -1.58052,-0.76502 -2.65083,-3.29215 -1.07022,-2.52044 -1.79773,-3.59276 -2.93834,-4.41917 0,0 1.86812,0.1024 3.52573,2.34953 1.65974,2.24712 2.31543,3.03943 3.90625,3.21025 0,0 -3.59473,-1.93294 -5.21895,-7.32199 -1.62422,-5.39587 -1.45143,-14.27521 7.4299,-17.77225 0,0 -5.25316,0 -8.05281,3.83855 -2.79903,3.83856 -2.10783,8.60613 -2.10783,8.60613 0,0 -1.38242,-5.04756 1.14062,-8.84522 2.52243,-3.80434 8.1915,-4.42592 11.19884,-3.70194 0,0 -6.29129,0.9016 -8.57262,7.2947 -2.28062,6.39306 -0.86331,14.07027 5.35828,18.55772 0,0 -2.31613,0.24591 -3.94095,-1.72801 -1.62492,-1.96713 -1.45212,-2.48624 -3.14464,-3.52446 0,0 0.6563,0.90163 2.03884,3.42194 1.38241,2.52723 4.59664,5.18417 7.29258,1.65973 0,0 0.06969,2.73214 -2.69594,3.66105 -2.76342,0.93572 -5.46006,-0.72401 -6.35958,-3.42195 -0.89821,-2.69113 -1.10651,-3.76344 -1.93503,-3.49025 -0.83051,0.28 0.3094,0.66253 1.00201,2.11053 0.69191,1.45482 0.03481,3.25115 -2.93834,2.52033 C 12.22554,26.75362 10.22081,24.3357 8.83841,18.98083 7.45459,13.61917 7.00658,3.70163 -0.0449,0.0407 c 0,0 4.07894,-0.5943 8.22689,2.75933 4.14806,3.35363 3.64055,9.2345 2.09693,12.32854"
                 style="fill:#000000;fill-opacity:1;fill-rule:nonzero;stroke:#000000;stroke-width:0.3985;stroke-linecap:butt;stroke-linejoin:miter;stroke-miterlimit:10;stroke-dasharray:none;stroke-opacity:1"
                 id="path26" /></g></g></g></g></g></g></svg>
