<?xml version="1.0" encoding="UTF-8" standalone="no"?>
<svg
   xmlns:dc="http://purl.org/dc/elements/1.1/"
   xmlns:cc="http://creativecommons.org/ns#"
   xmlns:rdf="http://www.w3.org/1999/02/22-rdf-syntax-ns#"
   xmlns:svg="http://www.w3.org/2000/svg"
   xmlns="http://www.w3.org/2000/svg"
   xmlns:sodipodi="http://sodipodi.sourceforge.net/DTD/sodipodi-0.dtd"
   xmlns:inkscape="http://www.inkscape.org/namespaces/inkscape"
   version="1.1"
   id="svg2"
   xml:space="preserve"
   width="39.618172"
   height="39.173836"
   viewBox="0 0 39.618172 39.173836"
   sodipodi:docname="vectorian118.pdf"><metadata
     id="metadata8"><rdf:RDF><cc:Work
         rdf:about=""><dc:format>image/svg+xml</dc:format><dc:type
           rdf:resource="http://purl.org/dc/dcmitype/StillImage" /></cc:Work></rdf:RDF></metadata><defs
     id="defs6" /><sodipodi:namedview
     pagecolor="#ffffff"
     bordercolor="#666666"
     borderopacity="1"
     objecttolerance="10"
     gridtolerance="10"
     guidetolerance="10"
     inkscape:pageopacity="0"
     inkscape:pageshadow="2"
     inkscape:window-width="640"
     inkscape:window-height="480"
     id="namedview4" /><g
     id="g10"
     inkscape:groupmode="layer"
     inkscape:label="vectorian118"
     transform="matrix(1.3333333,0,0,-1.3333333,-0.01414408,39.080678)"><g
       id="g12"
       transform="translate(72,-42.622)"><g
         id="g14"
         transform="translate(-71.79,42.752)"><g
           id="g16"><g
             id="g18"><path
               d="m 14.41357,19.05634 c -0.69392,0 -1.25541,0.5621 -1.25541,1.2554 0,0.69392 0.56149,1.25612 1.25541,1.25612 0.6939,0 1.25611,-0.5622 1.25611,-1.25612 0,-0.6933 -0.56221,-1.2554 -1.25611,-1.2554 m 0,3.02783 c -0.97941,0 -1.77311,-0.79361 -1.77311,-1.77243 0,-0.97811 0.7937,-1.77242 1.77311,-1.77242 0.97881,0 1.77173,0.79431 1.77173,1.77242 0,0.97882 -0.79292,1.77243 -1.77173,1.77243"
               style="fill:#000000;fill-opacity:1;fill-rule:nonzero;stroke:#000000;stroke-width:0.3985;stroke-linecap:butt;stroke-linejoin:miter;stroke-miterlimit:10;stroke-dasharray:none;stroke-opacity:1"
               id="path20" /><path
               d="m 26.75372,6.53177 c -0.4474,0.3757 -1.0074,0.72191 -1.70282,1.0184 2.20824,2.99436 2.62285,6.31929 2.11063,8.62593 -0.59081,2.65892 -1.92072,4.43006 -1.92072,4.43006 0.5177,-0.29442 3.32425,-2.58393 3.54554,-7.01601 0.1797,-3.61394 -1.43361,-6.22096 -2.03263,-7.05838 M 23.21638,6.10008 c -2.46372,-2.32976 -3.90216,-0.05052 -3.07023,0.8449 0.28891,0.31149 0.79101,0.487 1.3531,0.58259 1.11675,-0.2377 1.55042,-0.9418 1.71713,-1.42749 M 22.15697,7.60619 C 23.2929,7.68608 24.35431,7.46138 24.35431,7.46138 24.0927,7.09047 23.9144,6.84457 23.66719,6.56868 23.19717,7.18817 22.64667,7.48047 22.15697,7.60619 m 4.07084,10.34843 c -0.0082,0.0219 -0.01709,0.04439 -0.02598,0.06761 0,0 0.0096,-0.0245 0.02598,-0.06761 C 28.53435,12.08064 24.7245,7.6827 24.7245,7.6827 18.59433,8.8636 18.89012,5.54135 20.29375,4.95055 21.69667,4.35904 23.32089,5.61444 23.32089,5.61444 22.65698,3.54832 19.77594,2.80862 18.44614,3.25124 17.1176,3.69653 16.23108,6.05975 17.63402,7.97769 c 1.40361,1.92142 5.31865,3.61934 7.38618,5.83508 1.84413,1.97741 1.33802,3.77575 1.20761,4.14185 M 14.65738,1.2582 c 0,0 -7.38411,-0.4754 -11.82105,4.91976 0.60988,0.5266 1.23832,0.8777 1.65149,1.07851 0.27942,-0.3566 0.58202,-0.7076 0.91533,-1.05121 0,0 -0.44259,-1.62282 1.25542,-2.95402 1.69863,-1.32923 4.35765,-1.69804 5.83438,0.5908 1.47662,2.29013 -0.36821,4.72655 -2.73145,6.35208 -2.36322,1.62561 -5.09675,3.24983 -5.68756,5.61307 -0.59082,2.36263 0.44259,5.46417 3.47045,6.27698 0,0 -1.70073,-0.75061 -1.25473,-3.24915 C 6.65857,16.7662 8.3572,16.6193 8.3572,16.6193 c 0,0 -0.66462,-1.32912 -0.222,-2.36323 0.4447,-1.03412 2.28951,-2.06822 3.76695,-0.73901 0,0 0.02249,-2.21573 2.75523,-2.21573 2.73342,0 2.75534,2.21573 2.75534,2.21573 1.4774,-1.32921 3.32353,-0.29511 3.76614,0.73901 0.44472,1.03411 -0.22129,2.36323 -0.22129,2.36323 0,0 1.69941,0.1469 2.0682,2.21572 0.44602,2.49854 -2.03952,3.24915 -2.03952,3.24915 3.54425,0.29651 4.84537,-3.91435 4.25456,-6.27698 C 24.65,13.44395 21.91856,11.81973 19.55463,10.19412 17.19211,8.56859 15.34518,6.13217 16.8226,3.84204 c 1.47673,-2.28884 4.13497,-1.92003 5.83438,-0.5908 1.69733,1.3312 1.2554,2.95402 1.2554,2.95402 0.33263,0.34361 0.63581,0.69461 0.91452,1.05121 C 25.24011,7.05566 25.86852,6.70456 26.47783,6.17796 22.04156,0.7828 14.65738,1.2582 14.65738,1.2582 M 7.81558,7.52757 C 8.377,7.43198 8.8804,7.25647 9.16931,6.94498 10.0005,6.04956 8.5621,3.77032 6.09846,6.10008 6.26506,6.58577 6.69818,7.28987 7.81558,7.52757 M 5.64764,6.56868 c -0.24519,0.27589 -0.42547,0.52179 -0.68708,0.8927 0,0 1.0614,0.2247 2.19792,0.14481 C 6.66876,7.48047 6.11755,7.18817 5.64764,6.56868 M 4.29593,13.81277 C 6.36276,11.59703 10.2772,9.89911 11.68013,7.97769 13.08376,6.05975 12.19714,3.69653 10.86874,3.25124 9.5388,2.80862 6.65857,3.54832 5.99397,5.61444 c 0,0 1.62423,-1.2554 3.02713,-0.66389 1.40361,0.5908 1.69933,3.91305 -4.43075,2.73215 0,0 -3.80855,4.39794 -1.50333,10.27192 0.01572,0.04311 0.02661,0.06761 0.02661,0.06761 C 3.10411,17.99901 3.09651,17.97652 3.08702,17.95462 2.95651,17.58852 2.45041,15.79018 4.29593,13.81277 M 0.52838,13.59015 c 0.22202,4.43208 3.02785,6.72159 3.54556,7.01601 0,0 -1.32843,-1.77114 -1.92062,-4.43006 C 1.6417,13.86946 2.05632,10.54453 4.26382,7.55017 3.56923,7.25368 3.00981,6.90747 2.56172,6.53177 1.96211,7.36919 0.34879,9.97621 0.52838,13.59015 m 8.42032,3.39937 c 0,0 0.8128,1.47601 1.55041,1.40159 0.73771,-0.0731 0.73771,-1.40159 -1.55041,-1.40159 m 3.10164,-2.51143 c 0,0 -0.14819,1.2554 0.2206,1.69801 0,0 0.36952,0.2957 0.36952,-0.29582 0,-0.5901 -0.59012,-1.40219 -0.59012,-1.40219 m 4.94776,-0.51773 c 0,0 -1.77242,0.8858 -1.1816,1.62483 0.5901,0.73841 1.3298,-1.18222 1.1816,-1.62483 m 3.39666,3.17535 c 0,0 -1.69862,-0.36951 -1.69862,0.5177 0,0.88591 1.69862,-0.5177 1.69862,-0.5177 m -0.14612,4.65274 c 0,0 -0.66659,-0.737 -1.47813,-0.51709 -0.81209,0.2213 0.22201,1.25542 1.47813,0.51709 m -2.95683,4.43218 c 0,0 -0.07311,-1.84693 -0.81071,-1.69872 -0.73902,0.14749 -0.14821,1.62421 0.81071,1.69872 m -4.94717,0.44319 c 0,0 0.79582,-0.7014 1.03411,-1.47802 0.29512,-0.9603 -1.10781,-1.62422 -1.03411,1.47802 M 9.16931,22.08417 c 0,0 2.21501,0.96033 2.2888,0 0.08951,-1.15151 -1.4767,-0.73902 -2.2888,0 M 8.8743,22.01047 c 0,0 0.4425,-0.73911 1.91992,-0.88591 1.47672,-0.1482 2.14194,2.58383 -1.91992,1.40222 0,0 -1.0348,1.40431 0,3.10234 0.96982,1.59142 3.10223,1.0347 3.10223,1.0347 0,0 -0.44459,-2.36392 0.81142,-2.65961 1.25612,-0.29582 1.84692,1.77381 -0.51701,3.10152 0,0 0.22201,1.32992 2.58453,1.32992 2.36323,0 2.36323,-1.84692 2.36323,-1.84692 0,0 -1.3284,-0.44261 -1.3284,-1.40293 0,-0.9603 0.8128,-1.25471 1.3284,-0.5908 0.77051,0.9897 0.37021,1.84552 0.37021,1.84552 0,0 1.78542,0.48221 2.95414,-1.40222 0.95961,-1.5505 -0.14829,-2.87962 -0.14829,-2.87962 0,0 -2.36255,0.5901 -2.21504,-0.66602 0.14761,-1.25471 1.92073,-0.5163 2.43702,0.0752 0,0 1.77184,-0.51641 1.69874,-2.29023 -0.07381,-1.77241 -1.62563,-1.84552 -1.62563,-1.84552 0,0 -2.06683,1.69732 -2.43634,0.2213 -0.36879,-1.47731 2.43634,-0.88721 2.43634,-0.88721 0,0 0.73972,-1.77183 -0.66461,-2.65763 -1.40222,-0.88662 -2.65833,-0.22132 -2.65833,-0.22132 0,0 -0.32991,2.92676 -1.77173,1.99303 -1.2554,-0.8114 1.25612,-2.36322 1.25612,-2.36322 0,0 -0.1482,-1.10852 -2.29094,-1.25472 0,0 -1.99441,0.2206 -2.43562,1.69802 0,0 1.69661,2.14194 0.51572,2.65894 -1.18235,0.51641 -0.96033,-2.58453 -0.96033,-2.58453 0,0 -1.32991,-0.96102 -2.36333,-0.07441 -1.03271,0.8858 -0.66382,2.14194 -0.4425,2.43762 0,0 1.32843,-0.29568 2.36252,0.95972 1.03412,1.25532 -1.25541,2.43763 -2.58384,-0.22199 0,0 -1.2547,0.36951 -1.69941,2.14192 -0.44332,1.77382 1.92073,2.73284 1.92073,2.73284 m 12.15635,0.4432 c 0,0 1.03412,1.32921 0.37021,3.24915 -0.66461,1.92001 -2.80653,1.84622 -3.84065,1.55052 0,0 -0.46581,1.99512 -2.90283,1.69863 -2.43703,0.29649 -2.90285,-1.69863 -2.90285,-1.69863 -1.0341,0.2957 -3.17463,0.36949 -3.84065,-1.55052 C 7.24997,23.78288 8.28409,22.45367 8.28409,22.45367 2.59732,21.93596 -0.20988,17.20952 0.01208,12.55736 0.19708,8.684 1.50581,6.52626 1.9402,5.91226 0.09259,3.70744 1.2176,0.9378 1.2176,0.9378 0.65819,3.00333 1.3016,4.51004 2.20592,5.55096 2.93813,4.57974 6.88667,-0.12968 14.65738,0.00209 c 7.18199,0 11.62506,4.63776 12.43996,5.56258 0.90899,-1.04163 1.56132,-2.55184 0.9999,-4.62687 0,0 1.12493,2.76964 -0.72261,4.97446 0.43442,0.614 1.74302,2.77174 1.92813,6.6451 0.22201,4.65216 -2.58523,9.3786 -8.27211,9.89631"
               style="fill:#000000;fill-opacity:1;fill-rule:nonzero;stroke:#000000;stroke-width:0.3985;stroke-linecap:butt;stroke-linejoin:miter;stroke-miterlimit:10;stroke-dasharray:none;stroke-opacity:1"
               id="path22" /></g></g></g></g></g></svg>
