<?xml version="1.0" encoding="UTF-8" standalone="no"?>
<svg
   xmlns:dc="http://purl.org/dc/elements/1.1/"
   xmlns:cc="http://creativecommons.org/ns#"
   xmlns:rdf="http://www.w3.org/1999/02/22-rdf-syntax-ns#"
   xmlns:svg="http://www.w3.org/2000/svg"
   xmlns="http://www.w3.org/2000/svg"
   xmlns:sodipodi="http://sodipodi.sourceforge.net/DTD/sodipodi-0.dtd"
   xmlns:inkscape="http://www.inkscape.org/namespaces/inkscape"
   version="1.1"
   id="svg2"
   xml:space="preserve"
   width="292.42667"
   height="77.333336"
   viewBox="0 0 292.42667 77.333336"
   sodipodi:docname="vectorian072.pdf"><metadata
     id="metadata8"><rdf:RDF><cc:Work
         rdf:about=""><dc:format>image/svg+xml</dc:format><dc:type
           rdf:resource="http://purl.org/dc/dcmitype/StillImage" /></cc:Work></rdf:RDF></metadata><defs
     id="defs6"><clipPath
       clipPathUnits="userSpaceOnUse"
       id="clipPath24"><path
         d="M 0,0 H 216.00278 V 58.00073 H 0 Z"
         id="path22" /></clipPath></defs><sodipodi:namedview
     pagecolor="#ffffff"
     bordercolor="#666666"
     borderopacity="1"
     objecttolerance="10"
     gridtolerance="10"
     guidetolerance="10"
     inkscape:pageopacity="0"
     inkscape:pageshadow="2"
     inkscape:window-width="640"
     inkscape:window-height="480"
     id="namedview4" /><g
     id="g10"
     inkscape:groupmode="layer"
     inkscape:label="vectorian072"
     transform="matrix(1.3333333,0,0,-1.3333333,0,77.333333)"><g
       id="g12"
       transform="translate(72,-14)"><g
         id="g14"
         transform="translate(-72,14)"><g
           id="g16"><g
             id="g18"><g
               id="g20"
               clip-path="url(#clipPath24)"><path
                 d="M 0.01979,30.94438 C 0.9158,12.73613 24.8425,3.74405 46.22359,3.74405 c 18.16502,0 34.39084,6.20805 46.38789,16.20819 3.44644,2.86404 6.8161,6.56007 8.03211,8.83211 3.23364,-3.05605 7.56808,-6.40007 18.91224,-6.11208 14.48018,0.35202 24.0739,4.03205 34.43724,8.81613 4.35686,2.01601 12.47856,6.20807 17.21943,7.90409 21.95547,7.87211 37.64367,2.78404 37.82449,2.73605 0.3936,-0.08002 0.78081,0.15999 0.8688,0.56001 0.088,0.38401 -0.1584,0.76798 -0.552,0.864 -0.18561,0.032 -18.74745,4.04807 -41.12054,-3.98405 -4.80324,-1.71202 -9.34092,-3.80806 -13.72496,-5.84009 C 143.82013,28.78435 132.7048,23.6003 118.54301,23.6003 c -9.72811,0 -14.78099,3.00804 -17.62423,5.96806 0.86242,1.42403 1.18724,2.67204 1.18724,3.71205 0,1.05602 -0.23522,1.88802 -0.56003,2.44803 -0.60641,1.04002 -1.62881,1.47203 -2.60324,1.10402 -0.87199,-0.32001 -1.37122,-1.32802 -1.37122,-2.64003 0,-0.336 0.03362,-0.67201 0.09603,-1.04003 0.23199,-1.28001 1.1504,-2.54402 2.54081,-3.68003 C 99.15236,27.31233 96.53633,24.4963 92.9587,21.52026 81.21443,11.72813 63.55501,5.88806 45.72118,5.88806 c -20.71387,0 -44.02297,7.72811 -44.87099,24.99234 -0.27681,5.66406 3.32324,11.26413 9.00012,15.5362 9.72972,7.32809 30.29799,14.44816 55.99272,3.93605 0.3712,-0.14402 0.79683,0.08 0.92481,0.44799 0.13119,0.38401 -0.07199,0.80002 -0.45281,0.92801 C 40.0075,60.72076 18.98483,55.1207 8.9767,47.5846 2.89822,43.00853 -0.28418,37.10446 0.01979,30.94438 Z m 100.355,-0.59199 c -0.776,0.81599 -1.34403,1.632 -1.55043,2.43201 -0.07199,0.27201 -0.10241,0.51202 -0.10241,0.73602 0,0.736 0.33921,1.152 0.58722,1.216 0.55841,0.14403 0.98722,-0.27199 1.14402,-0.46399 0.27999,-0.32001 0.51519,-0.89601 0.51519,-1.64804 0,-0.62399 -0.18719,-1.39201 -0.59359,-2.272 z"
                 style="fill:#000000;fill-opacity:1;fill-rule:nonzero;stroke:#000000;stroke-width:0.3985;stroke-linecap:butt;stroke-linejoin:miter;stroke-miterlimit:10;stroke-dasharray:none;stroke-opacity:1"
                 id="path26" /><path
                 d="m 158.01872,44.99257 c -0.15039,0.112 -13.43858,11.82414 -41.09494,11.82414 -30.73808,0 -53.43438,-13.93616 -54.29039,-26.17633 -0.73761,-10.60814 7.74089,-15.23219 8.06891,-15.42419 0.3472,-0.20801 0.4624,-0.65601 0.2592,-1.00803 -0.2032,-0.35199 -0.64961,-0.464 -0.99681,-0.25601 -0.08801,0.04802 -8.76012,5.24808 -7.95691,16.78422 0.90082,12.89618 21.41629,26.81635 52.99118,26.81635 28.17157,0 43.73177,-11.28014 43.88378,-11.39214 0.3264,-0.24 0.39518,-0.688 0.15361,-1.02401 -0.24002,-0.32003 -0.69602,-0.38401 -1.01763,-0.144 z"
                 style="fill:#000000;fill-opacity:1;fill-rule:nonzero;stroke:#000000;stroke-width:0.3985;stroke-linecap:butt;stroke-linejoin:miter;stroke-miterlimit:10;stroke-dasharray:none;stroke-opacity:1"
                 id="path28" /><path
                 d="m 168.17406,17.31221 c 30.38438,12.76816 48.01021,9.4241 48.01021,9.4241 0,0 -14.89139,0.60804 -30.38759,-4.86404 C 170.29889,16.40019 140.8265,0 116.51738,0 92.20828,0 78.536,9.10411 78.536,9.10411 c 34.94455,-14.27217 60.50328,-4.03206 89.63806,8.2081 z"
                 style="fill:#000000;fill-opacity:1;fill-rule:nonzero;stroke:#000000;stroke-width:0.3985;stroke-linecap:butt;stroke-linejoin:miter;stroke-miterlimit:10;stroke-dasharray:none;stroke-opacity:1"
                 id="path30" /></g></g></g></g></g></g></svg>
