<?xml version="1.0" encoding="UTF-8" standalone="no"?>
<svg
   xmlns:dc="http://purl.org/dc/elements/1.1/"
   xmlns:cc="http://creativecommons.org/ns#"
   xmlns:rdf="http://www.w3.org/1999/02/22-rdf-syntax-ns#"
   xmlns:svg="http://www.w3.org/2000/svg"
   xmlns="http://www.w3.org/2000/svg"
   xmlns:sodipodi="http://sodipodi.sourceforge.net/DTD/sodipodi-0.dtd"
   xmlns:inkscape="http://www.inkscape.org/namespaces/inkscape"
   version="1.1"
   id="svg2"
   xml:space="preserve"
   width="45.306667"
   height="60"
   viewBox="0 0 45.306667 60"
   sodipodi:docname="vectorian174.pdf"><metadata
     id="metadata8"><rdf:RDF><cc:Work
         rdf:about=""><dc:format>image/svg+xml</dc:format><dc:type
           rdf:resource="http://purl.org/dc/dcmitype/StillImage" /></cc:Work></rdf:RDF></metadata><defs
     id="defs6" /><sodipodi:namedview
     pagecolor="#ffffff"
     bordercolor="#666666"
     borderopacity="1"
     objecttolerance="10"
     gridtolerance="10"
     guidetolerance="10"
     inkscape:pageopacity="0"
     inkscape:pageshadow="2"
     inkscape:window-width="640"
     inkscape:window-height="480"
     id="namedview4" /><g
     id="g10"
     inkscape:groupmode="layer"
     inkscape:label="vectorian174"
     transform="matrix(1.3333333,0,0,-1.3333333,0,60)"><g
       id="g12"
       transform="translate(72,-27)"><g
         id="g14"
         transform="translate(-71.717,27.295)"><g
           id="g16"><g
             id="g18"><path
               d="m 11.85594,5.90967 c 0,0 3.58515,0.90291 5.90398,0.48219 C 20.07944,5.97105 20.74207,3.53062 16.10359,3.10924 11.46524,2.68712 7.21748,4.40425 9.29591,6.66298 11.37434,8.92111 15.6214,9.5549 19.80835,8.28929 23.9953,7.02428 25.0491,4.55455 21.55547,2.62701 18.06111,0.69948 9.56642,-0.20479 7.00647,3.10924 c 0,0 -1.14481,1.20421 -1.83731,3.97653 -0.69261,2.77035 -3.01215,16.2655 -3.73486,21.4469 -0.72332,5.18005 -1.56679,8.82469 0.0902,11.29453 1.65632,2.47042 7.3493,3.61515 14.6392,3.16305 7.2892,-0.45082 10.99324,-2.77104 11.47543,-4.75938 0.48222,-1.98751 -2.37963,-5.45046 -10.87363,-5.45046 -8.4941,0 -14.63928,2.16861 -14.39819,4.72926 0.24112,2.55924 3.64465,4.27637 11.50626,4.00596 C 21.73515,41.2437 25.38042,39.377 25.0491,37.50967 24.71791,35.64154 20.74136,34.94902 12.63866,35.21944 4.53595,35.49065 2.84894,37.93108 6.46407,39.6181 c 0,0 -2.25942,-0.42271 -2.37964,-1.98893 -0.12088,-1.56682 3.55446,-3.70475 11.59706,-3.70475 8.0419,0 9.81912,2.53064 9.84923,3.79564 0.02998,1.26493 -1.62703,3.10156 -8.91622,3.91576 C 9.3253,42.44864 4.56665,41.12352 2.81952,39.58669 1.0723,38.05127 1.0723,33.98462 9.4161,32.3282 c 8.34382,-1.65692 15.72323,0.33061 18.43415,4.15695 0,0 2.52994,4.36586 -7.6212,6.29398 C 10.078,44.70595 3.96355,42.44724 2.0955,41.09212 0.2281,39.73698 -0.28339,37.83957 0.13799,34.31512 0.55939,30.79149 2.93973,15.27728 4.44574,8.3794 5.95186,1.48161 8.39159,0.36758 13.51225,0.03629 18.63283,-0.29489 22.96999,1.6619 23.7835,4.16173 24.59698,6.66298 21.85608,8.5604 17.3371,9.13281 12.81966,9.70522 8.96329,8.16978 8.36159,5.75797 c -0.60311,-2.40966 4.27707,-4.27636 8.313,-3.49366 4.03595,0.78412 4.84947,3.43425 0.90361,4.48746 0,0 -2.85911,0.7554 -5.72226,-0.8421"
               style="fill:#000000;fill-opacity:1;fill-rule:nonzero;stroke:#000000;stroke-width:0.3985;stroke-linecap:butt;stroke-linejoin:miter;stroke-miterlimit:10;stroke-dasharray:none;stroke-opacity:1"
               id="path20" /><path
               d="m 27.76006,37.17567 c 0,0 0.09019,-2.29023 -0.36202,-6.23469 -0.4508,-3.94574 -3.49365,-24.76022 -3.49365,-24.76022 0,0 0.33201,-0.6939 0.3914,0.181 0.06011,0.87292 3.40415,21.20578 3.79556,25.12164 0.39141,3.91504 -0.0294,6.71608 -0.0294,6.71608 z"
               style="fill:#000000;fill-opacity:1;fill-rule:nonzero;stroke:#000000;stroke-width:0.3985;stroke-linecap:butt;stroke-linejoin:miter;stroke-miterlimit:10;stroke-dasharray:none;stroke-opacity:1"
               id="path22" /></g></g></g></g></g></svg>
