<?xml version="1.0" encoding="UTF-8" standalone="no"?>
<svg
   xmlns:dc="http://purl.org/dc/elements/1.1/"
   xmlns:cc="http://creativecommons.org/ns#"
   xmlns:rdf="http://www.w3.org/1999/02/22-rdf-syntax-ns#"
   xmlns:svg="http://www.w3.org/2000/svg"
   xmlns="http://www.w3.org/2000/svg"
   xmlns:sodipodi="http://sodipodi.sourceforge.net/DTD/sodipodi-0.dtd"
   xmlns:inkscape="http://www.inkscape.org/namespaces/inkscape"
   version="1.1"
   id="svg2"
   xml:space="preserve"
   width="88.773331"
   height="85.160004"
   viewBox="0 0 88.773331 85.160004"
   sodipodi:docname="vectorian030.pdf"><metadata
     id="metadata8"><rdf:RDF><cc:Work
         rdf:about=""><dc:format>image/svg+xml</dc:format><dc:type
           rdf:resource="http://purl.org/dc/dcmitype/StillImage" /></cc:Work></rdf:RDF></metadata><defs
     id="defs6"><clipPath
       clipPathUnits="userSpaceOnUse"
       id="clipPath28"><path
         d="M -3.8e-4,0 H 63.2652 V 63.8688 H -3.8e-4 Z"
         id="path26" /></clipPath></defs><sodipodi:namedview
     pagecolor="#ffffff"
     bordercolor="#666666"
     borderopacity="1"
     objecttolerance="10"
     gridtolerance="10"
     guidetolerance="10"
     inkscape:pageopacity="0"
     inkscape:pageshadow="2"
     inkscape:window-width="640"
     inkscape:window-height="480"
     id="namedview4" /><g
     id="g10"
     inkscape:groupmode="layer"
     inkscape:label="vectorian030"
     transform="matrix(1.3333333,0,0,-1.3333333,0,85.16)"><g
       id="g12"
       transform="translate(72,-8.132)"><g
         id="g14"
         transform="translate(-72,8.132)"><g
           id="g16"><g
             id="g18"><path
               d="m 21.50266,56.06912 c 0,0 15.60821,-3.88167 30.41639,-15.70582 0,0 -8.1729,15.4898 -30.41639,15.70582 z"
               style="fill:#000000;fill-opacity:1;fill-rule:nonzero;stroke:#000000;stroke-width:0.3985;stroke-linecap:butt;stroke-linejoin:miter;stroke-miterlimit:10;stroke-dasharray:none;stroke-opacity:1"
               id="path20" /><path
               d="M 52.71268,25.05911 C 38.40529,12.63333 22.96828,8.1149 22.96828,8.1149 c 22.2147,1.13121 29.7444,16.94421 29.7444,16.94421 z"
               style="fill:#000000;fill-opacity:1;fill-rule:nonzero;stroke:#000000;stroke-width:0.3985;stroke-linecap:butt;stroke-linejoin:miter;stroke-miterlimit:10;stroke-dasharray:none;stroke-opacity:1"
               id="path22" /><g
               id="g24"
               clip-path="url(#clipPath28)"><path
                 d="m 59.98476,32.54881 c -0.04639,0.08321 -0.1408,0.1568 -0.19841,0.2336 0.0032,0.0048 -0.0336,0.04001 -0.04319,0.04961 -0.192,0.248 -0.41121,0.49279 -0.69441,0.72641 -0.93602,1.048 -2.45923,3.05603 -2.68803,5.34726 -0.93921,9.37931 -5.32327,15.9154 -12.67539,18.91224 -5.71206,2.32804 -13.32495,3.01605 -20.68985,3.68164 -5.93766,0.53601 -11.54576,1.04323 -15.5186,2.36963 l -0.7776,-1.87523 c 0.0816,-0.04157 8.09291,-4.08644 11.30255,-8.72329 0.2816,-0.38881 6.96327,-9.62093 12.72655,-13.07857 5.90248,-3.54245 13.42099,-4.67526 17.37463,-5.03366 3.42243,-0.31203 7.59689,-1.67684 9.36972,-2.94086 L 35.41965,32.528 c -1.22562,0.30562 -11.85776,3.13445 -18.58265,10.65295 0.53602,0.8624 0.8592,1.87201 0.8592,2.96163 0,3.12324 -2.52802,5.64967 -5.64646,5.64967 -3.11845,0 -5.64648,-2.52643 -5.64648,-5.64967 0,-3.11684 2.52803,-5.64488 5.64648,-5.64488 1.53443,0 2.92003,0.61601 3.93926,1.60801 4.56325,-5.02723 10.63852,-7.97288 14.74579,-9.5121 L 11.19054,32.86722 C 10.70573,35.49445 8.41449,37.48326 5.64806,37.48326 2.52802,37.48326 0,34.95683 0,31.8384 c 0,-3.12005 2.52802,-5.64808 5.64806,-5.64808 3.00644,0 5.44166,2.35683 5.61288,5.31848 l 19.24344,-0.26883 c -6.87689,-2.47203 -13.06098,-7.41288 -15.3458,-9.37771 -0.89282,0.59041 -1.96003,0.93764 -3.11044,0.93764 -3.11844,0 -5.64647,-2.52805 -5.64647,-5.64809 0,-3.11844 2.52803,-5.64647 5.64647,-5.64647 3.11844,0 5.64647,2.52803 5.64647,5.64647 0,1.47362 -0.57601,2.80324 -1.49921,3.80804 2.88804,2.44483 11.28014,9.01773 19.29784,10.20653 L 56.49352,30.87839 C 54.40549,29.87357 51.20705,28.95515 48.4806,28.70715 44.52536,28.34875 37.01006,27.21594 31.1044,23.67029 25.3443,20.21585 18.65942,10.98372 18.37624,10.59332 15.16658,5.95805 7.15688,1.9116 7.07687,1.8716 L 7.85129,-3.8e-4 c 3.97445,1.32319 9.58251,1.83038 15.5186,2.36639 7.36648,0.66562 14.98099,1.35202 20.69147,3.68006 7.35209,2.99684 11.73614,9.53453 12.67535,18.91385 0.22881,2.28962 1.75043,4.29925 2.68964,5.34565 0.20159,0.16802 0.36799,0.34561 0.52002,0.52321 l 3.29762,-0.0464 0.02081,1.35524 z M 48.287,37.18246 c -3.78085,0.34401 -10.95375,1.42083 -16.5138,4.75367 -5.40008,3.24003 -12.05616,12.43054 -12.11056,12.50735 -1.62883,2.35364 -4.26725,4.48486 -6.66888,6.13448 3.02562,-0.46559 6.34729,-0.79039 9.81774,-1.10399 7.21449,-0.65282 14.67538,-1.32483 20.10424,-3.53606 6.61289,-2.69604 10.56332,-8.65451 11.42255,-17.23543 0.1136,-1.1408 0.47839,-2.19682 0.93601,-3.15203 -2.31843,0.8576 -4.98887,1.45121 -6.9873,1.63201 z M 54.71428,25.16312 C 53.85509,16.5806 49.90463,10.62372 43.29333,7.92769 37.86447,5.71645 30.40356,5.04285 23.18748,4.39003 19.71704,4.07643 16.397,3.75323 13.36975,3.28761 c 2.40004,1.64963 5.04165,3.78087 6.6689,6.13289 0.0544,0.0768 6.71208,9.26734 12.11215,12.50736 5.55686,3.33766 12.73137,4.41128 16.51221,4.75367 1.99843,0.1856 4.66727,0.7744 6.98729,1.63363 -0.45761,-0.95522 -0.82242,-2.01124 -0.93602,-3.15204 z"
                 style="fill:#000000;fill-opacity:1;fill-rule:nonzero;stroke:#000000;stroke-width:0.3985;stroke-linecap:butt;stroke-linejoin:miter;stroke-miterlimit:10;stroke-dasharray:none;stroke-opacity:1"
                 id="path30" /></g></g></g></g></g></g></svg>
