<?xml version="1.0" encoding="UTF-8" standalone="no"?>
<svg
   xmlns:dc="http://purl.org/dc/elements/1.1/"
   xmlns:cc="http://creativecommons.org/ns#"
   xmlns:rdf="http://www.w3.org/1999/02/22-rdf-syntax-ns#"
   xmlns:svg="http://www.w3.org/2000/svg"
   xmlns="http://www.w3.org/2000/svg"
   xmlns:sodipodi="http://sodipodi.sourceforge.net/DTD/sodipodi-0.dtd"
   xmlns:inkscape="http://www.inkscape.org/namespaces/inkscape"
   version="1.1"
   id="svg2"
   xml:space="preserve"
   width="106.63819"
   height="132.43636"
   viewBox="0 0 106.63819 132.43635"
   sodipodi:docname="vectorian010.pdf"><metadata
     id="metadata8"><rdf:RDF><cc:Work
         rdf:about=""><dc:format>image/svg+xml</dc:format><dc:type
           rdf:resource="http://purl.org/dc/dcmitype/StillImage" /></cc:Work></rdf:RDF></metadata><defs
     id="defs6"><clipPath
       clipPathUnits="userSpaceOnUse"
       id="clipPath24"><path
         d="M -0.90298,0 H 80.48183 V 99.32727 H -0.90298 Z"
         id="path22" /></clipPath><clipPath
       clipPathUnits="userSpaceOnUse"
       id="clipPath32"><path
         d="M -0.90298,0 H 80.48183 V 99.32727 H -0.90298 Z"
         id="path30" /></clipPath></defs><sodipodi:namedview
     pagecolor="#ffffff"
     bordercolor="#666666"
     borderopacity="1"
     objecttolerance="10"
     gridtolerance="10"
     guidetolerance="10"
     inkscape:pageopacity="0"
     inkscape:pageshadow="2"
     inkscape:window-width="640"
     inkscape:window-height="480"
     id="namedview4" /><g
     id="g10"
     inkscape:groupmode="layer"
     inkscape:label="vectorian010"
     transform="matrix(1.3333333,0,0,-1.3333333,-0.9373062,132.43636)"><g
       id="g12"
       transform="translate(72,27.326)"><g
         id="g14"
         transform="translate(-71.097,-27.326)"><g
           id="g16"><g
             id="g18"><g
               id="g20"
               clip-path="url(#clipPath24)"><path
                 d="m 39.775,82.48645 c 4.28645,0 7.7585,3.32805 7.7585,7.4321 0,3.33925 -2.29282,6.16167 -5.45608,7.10089 v 2.30882 c 0,0 -1.38081,-1.18561 -2.50082,0 -1.31523,-1.11841 -2.76164,-0.3952 -2.76164,-0.3952 V 96.79062 C 33.99413,95.6754 32.0117,93.021 32.0117,89.91855 c 0,-4.10405 3.47524,-7.4321 7.7633,-7.4321 z"
                 style="fill:#000000;fill-opacity:1;fill-rule:nonzero;stroke:#000000;stroke-width:0.3985;stroke-linecap:butt;stroke-linejoin:miter;stroke-miterlimit:10;stroke-dasharray:none;stroke-opacity:1"
                 id="path26" /><g
                 id="g28"
                 clip-path="url(#clipPath32)"><path
                   d="m 46.58148,51.58684 c 0.09922,3.25606 -1.38241,5.9153 0.2,7.6961 1.18402,1.33123 3.00644,0.34563 3.45286,0.64002 0.8384,0.44481 0.29439,1.82722 -1.87522,1.82722 -4.24328,-0.24641 -5.42888,-3.94725 -5.57448,-10.16334 -0.09441,-3.90404 -1.36801,-4.83525 -2.21283,-5.02567 -0.0032,0.11841 -0.0064,0.23523 -0.008,0.3376 -0.1312,6.1825 0.1456,29.84841 0.1456,29.84841 1.67843,1.38402 0.54562,3.57765 1.26242,3.72644 0.71202,0.14721 1.18243,0.0224 2.21603,-1.97443 1.03841,-1.99841 1.68002,-3.69925 2.09763,-3.67525 0.42082,0.02401 0.43681,2.18724 -0.04801,3.79845 -0.61601,2.04964 -1.25761,2.24483 -0.69119,2.66403 0.56799,0.41922 1.57602,0.37921 3.77443,-1.0832 2.00003,-1.33602 2.83685,-2.14882 3.10725,-1.95043 0.27201,0.19679 -0.4944,2.19364 -1.67521,3.25604 -1.18563,1.05922 -1.83362,1.63524 -4.07205,1.63524 -2.23525,0 -3.75046,-2.03843 -6.84171,-2.03843 h -0.16161 c -3.09123,0 -4.60804,2.03843 -6.84328,2.03843 -2.23683,0 -2.88482,-0.57602 -4.06884,-1.63524 -1.18401,-1.0624 -1.95044,-3.05925 -1.67842,-3.25604 0.272,-0.19839 1.10881,0.61441 3.10882,1.95043 2.19525,1.46241 3.20645,1.50242 3.77284,1.0832 0.56803,-0.4192 -0.07359,-0.61439 -0.68958,-2.66403 -0.48801,-1.61121 -0.46882,-3.77444 -0.05122,-3.79845 0.42083,-0.024 1.06403,1.67684 2.09444,3.67525 1.04001,1.99683 1.50882,2.12164 2.22403,1.97443 0.7152,-0.14879 -0.4192,-2.34242 1.256,-3.72644 0,0 0.28001,-23.66591 0.14882,-29.84841 -0.0016,-0.09437 -0.0032,-0.19677 -0.0048,-0.30717 -0.84161,0.25918 -1.99682,1.2912 -2.08162,4.99524 -0.1472,6.21609 -1.33442,9.91693 -5.57448,10.16334 -2.17121,0 -2.71524,-1.38241 -1.87522,-1.82722 0.4416,-0.29439 2.26884,0.69121 3.45284,-0.64002 1.58243,-1.7808 0.09762,-4.44004 0.19681,-7.6961 0.09281,-3.02564 2.01603,-6.60167 5.84967,-6.85288 -0.136,-10.01454 -0.35519,-41.49174 -0.35519,-42.69815 0,-1.31521 0.672,-2.0368 1.19681,-2.0368 0.5264,0 1.2032,0.72159 1.2032,2.0368 0,1.20641 -0.22238,32.66281 -0.36,42.68535 3.92325,0.1792 5.89128,3.80644 5.98248,6.86568 z"
                   style="fill:#000000;fill-opacity:1;fill-rule:nonzero;stroke:#000000;stroke-width:0.3985;stroke-linecap:butt;stroke-linejoin:miter;stroke-miterlimit:10;stroke-dasharray:none;stroke-opacity:1"
                   id="path34" /><path
                   d="m 79.5675,12.75916 c -0.19679,1.9728 -1.91043,1.58081 -1.84483,0.328 0.72803,-6.77291 -4.40484,-9.86733 -9.0097,-9.80014 -4.60326,0.06401 -8.8161,5.59047 -16.18262,5.59047 -5.87686,0 -8.81931,-3.26084 -9.76971,-4.57924 0.024,3.04645 0.2416,8.4769 1.29602,14.67698 0.02079,0 0.912,3.15685 5.25286,5.03207 4.34086,1.87522 7.30089,1.67841 10.26255,4.24485 2.95681,2.56484 5.42566,6.1153 10.26251,6.41289 1.57602,0.29599 1.37922,1.57761 -0.49759,1.47842 -1.87204,-0.09762 -10.25934,-1.08322 -16.28021,-5.22888 -4.11365,-2.83203 -6.84011,-6.03047 -8.21932,-7.9633 0.60321,2.72003 1.37921,5.51687 2.37763,8.27212 4.63685,12.76654 11.32815,19.80184 14.04017,22.27387 0.96484,0.1104 2.14403,0.1024 2.29606,-0.54559 0.26398,-1.11843 -0.43042,-2.07204 -2.00484,-2.69605 -1.58083,-0.6272 0.42561,-1.44641 2.23523,-0.69121 1.80641,0.75681 2.26883,-0.36162 1.28322,-2.10562 -0.98722,-1.74403 -2.63366,-2.89445 -1.58083,-3.12645 1.05441,-0.2288 3.35364,1.31842 4.34085,3.88486 0.98723,2.56483 0.39681,3.52003 -0.55679,4.43846 -0.95362,0.9216 -2.13924,1.64643 -2.83043,2.66403 -1.28482,1.89922 -0.06401,4.47365 -3.22246,6.11688 -3.15843,1.64643 -6.97288,0.32959 -6.97288,-0.65762 0,-0.98561 5.65766,0.26561 6.11848,-1.48001 0.09599,-0.8208 -0.296,-0.75681 -2.26884,-1.61122 -1.97283,-0.85442 -2.04163,-2.07203 -1.81121,-2.26883 0.232,-0.19841 1.28481,0.4608 2.53443,0.75522 1.24962,0.29759 2.26881,0.33119 2.03843,-0.75522 -0.05442,-0.2528 -0.13122,-0.5024 -0.216,-0.73601 C 57.99763,52.30206 50.82794,44.98517 45.74306,31.7882 40.2182,17.45522 41.20862,1.7446 41.22142,1.5894 c 0.02879,-0.4352 0.4032,-0.7632 0.83841,-0.7344 0.4368,0.0304 0.7648,0.40641 0.73441,0.84 0.59201,2.28965 2.14563,4.18085 5.92007,3.63206 C 52.56395,4.76704 56.87122,0.39258 67.13376,0.7894 77.3947,1.183 79.76591,10.78632 79.5675,12.75916 Z"
                   style="fill:#000000;fill-opacity:1;fill-rule:nonzero;stroke:#000000;stroke-width:0.3985;stroke-linecap:butt;stroke-linejoin:miter;stroke-miterlimit:10;stroke-dasharray:none;stroke-opacity:1"
                   id="path36" /><path
                   d="m 76.81546,53.38687 c 3.21286,2.41443 3.66727,7.2305 1.01444,10.76013 -2.65125,3.52805 -7.4049,4.43367 -10.61776,2.01764 -3.21283,-2.41282 -3.66564,-7.2321 -1.0144,-10.76014 2.65283,-3.52645 7.40649,-4.43046 10.61772,-2.01763 z"
                   style="fill:#000000;fill-opacity:1;fill-rule:nonzero;stroke:#000000;stroke-width:0.3985;stroke-linecap:butt;stroke-linejoin:miter;stroke-miterlimit:10;stroke-dasharray:none;stroke-opacity:1"
                   id="path38" /><path
                   d="m 18.93953,54.68289 c -0.08479,0.23361 -0.16161,0.48321 -0.21761,0.73601 -0.23039,1.08641 0.79201,1.05281 2.04004,0.75522 1.24962,-0.29442 2.30243,-0.95363 2.53122,-0.75522 0.23201,0.1968 0.16321,1.41441 -1.80642,2.26883 -1.97283,0.85441 -2.36803,0.79042 -2.26883,1.61122 0.45919,1.74562 6.11527,0.4944 6.11527,1.48001 0,0.98721 -3.81445,2.30405 -6.97286,0.65762 -3.15847,-1.64323 -1.93444,-4.21766 -3.22246,-6.11688 -0.68799,-1.0176 -1.87523,-1.74243 -2.82724,-2.66403 -0.95522,-0.91843 -1.54563,-1.87363 -0.5616,-4.43846 0.98721,-2.56644 3.29124,-4.11366 4.34245,-3.88486 1.05441,0.232 -0.59201,1.38242 -1.57762,3.12645 -0.98882,1.744 -0.528,2.86243 1.28162,2.10562 1.80963,-0.7552 3.81445,0.06401 2.23683,0.69121 -1.57922,0.62401 -2.27043,1.57762 -2.00803,2.69605 0.1536,0.64799 1.33122,0.65599 2.29762,0.54559 2.71044,-2.47203 9.40012,-9.50733 14.03699,-22.27387 1.00003,-2.75525 1.77602,-5.55209 2.38083,-8.27212 -1.37921,1.93283 -4.10725,5.13127 -8.2225,7.9633 -6.01769,4.14566 -14.40499,5.13126 -16.27861,5.22888 C 8.36499,36.24265 8.165,34.96103 9.7442,34.66504 c 4.83687,-0.29759 7.3025,-3.84805 10.26254,-6.41289 2.95844,-2.56644 5.91848,-2.36963 10.26094,-4.24485 4.34244,-1.87522 5.23206,-5.03207 5.23206,-5.03207 1.07521,-6.20008 1.29121,-11.63053 1.31522,-14.67698 -0.95041,1.3184 -3.89286,4.57924 -9.76972,4.57924 -7.36812,0 -11.57776,-5.52646 -16.1842,-5.59047 C 6.25616,3.21983 1.1265,6.31425 1.8513,13.08716 1.91692,14.33997 0.2081,14.73196 0.01129,12.75916 -0.18869,10.78632 2.1809,1.183 12.44183,0.7894 22.70277,0.39258 27.01003,4.76704 30.85648,5.32706 34.63733,5.87585 36.18935,3.98465 36.78136,1.695 c -0.032,-0.43359 0.29919,-0.8096 0.7344,-0.84 0.43521,-0.0288 0.81124,0.2992 0.84162,0.7344 0.0096,0.1552 0.99841,15.86582 -4.52645,30.1988 -5.08328,13.19697 -12.25297,20.51386 -14.8914,22.89469 z"
                   style="fill:#000000;fill-opacity:1;fill-rule:nonzero;stroke:#000000;stroke-width:0.3985;stroke-linecap:butt;stroke-linejoin:miter;stroke-miterlimit:10;stroke-dasharray:none;stroke-opacity:1"
                   id="path40" /><path
                   d="m 2.76013,53.38687 c 3.21443,-2.41283 7.96649,-1.50882 10.61772,2.01763 2.65284,3.52804 2.20003,8.34732 -1.0144,10.76014 C 9.1522,68.58067 4.39853,67.67505 1.74571,64.147 -0.9039,60.61737 -0.45108,55.8013 2.76013,53.38687 Z"
                   style="fill:#000000;fill-opacity:1;fill-rule:nonzero;stroke:#000000;stroke-width:0.3985;stroke-linecap:butt;stroke-linejoin:miter;stroke-miterlimit:10;stroke-dasharray:none;stroke-opacity:1"
                   id="path42" /></g></g></g></g></g></g></g></svg>
