<?xml version="1.0" encoding="UTF-8" standalone="no"?>
<svg
   xmlns:dc="http://purl.org/dc/elements/1.1/"
   xmlns:cc="http://creativecommons.org/ns#"
   xmlns:rdf="http://www.w3.org/1999/02/22-rdf-syntax-ns#"
   xmlns:svg="http://www.w3.org/2000/svg"
   xmlns="http://www.w3.org/2000/svg"
   xmlns:sodipodi="http://sodipodi.sourceforge.net/DTD/sodipodi-0.dtd"
   xmlns:inkscape="http://www.inkscape.org/namespaces/inkscape"
   version="1.1"
   id="svg2"
   xml:space="preserve"
   width="176.25864"
   height="39.899532"
   viewBox="0 0 176.25864 39.899532"
   sodipodi:docname="vectorian101.pdf"><metadata
     id="metadata8"><rdf:RDF><cc:Work
         rdf:about=""><dc:format>image/svg+xml</dc:format><dc:type
           rdf:resource="http://purl.org/dc/dcmitype/StillImage" /></cc:Work></rdf:RDF></metadata><defs
     id="defs6"><clipPath
       clipPathUnits="userSpaceOnUse"
       id="clipPath26"><path
         d="M 0,0 H 132.03978 V 29.55296 H 0 Z"
         id="path24" /></clipPath></defs><sodipodi:namedview
     pagecolor="#ffffff"
     bordercolor="#666666"
     borderopacity="1"
     objecttolerance="10"
     gridtolerance="10"
     guidetolerance="10"
     inkscape:pageopacity="0"
     inkscape:pageshadow="2"
     inkscape:window-width="640"
     inkscape:window-height="480"
     id="namedview4" /><g
     id="g10"
     inkscape:groupmode="layer"
     inkscape:label="vectorian101"
     transform="matrix(1.3333333,0,0,-1.3333333,0.20559776,40.984819)"><g
       id="g12"
       transform="translate(72,-40.192)"><g
         id="g14"
         transform="translate(-72,41.204)"><g
           id="g16"><g
             id="g18"><path
               d="m 53.12546,13.98007 c 0.93571,-1.44803 3.86116,-0.1844 3.86116,-0.1844 -3.33255,3.39462 -4.79556,1.62561 -3.86116,0.1844 M 53.39049,3.50932 c 0,0 1.1994,2.03543 1.239,3.27166 0.0417,1.2431 -0.67002,2.1789 -1.27932,0.6694 -0.6092,-1.50263 0.04032,-3.94106 0.04032,-3.94106 M 45.44418,8.2632 c 0,0 3.14943,0.83331 4.00254,1.8305 0.85371,0.99723 -0.4262,1.99443 -1.66522,1.07912 C 46.54048,10.25761 45.44418,8.2632 45.44418,8.2632 m -6.22029,4.37135 c 0,0 3.69925,0.3893 5.26477,1.50261 1.56481,1.12012 0.3654,2.21982 -1.48353,1.55042 -1.85031,-0.66932 -3.51752,-2.26073 -3.78124,-3.05303 m -6.80838,4.53525 c 0,0 3.77985,0.8742 4.36934,1.95343 0.59012,1.07231 -1.36201,1.42072 -2.70275,0.58742 C 32.74,18.87733 32.41551,17.1698 32.41551,17.1698 m -10.71185,3.37415 c 0,0 4.41168,0.48489 5.61108,1.52313 1.19872,1.03821 -3.02994,2.1925 -5.61108,-1.52313 m -0.3647,0.02049 c 0.7588,1.55723 2.03741,2.15834 2.03741,2.15834 2.63785,1.47531 5.9144,0.67621 4.55646,-0.683 -1.35991,-1.35922 -6.35477,-1.87834 -6.35477,-1.87834 1.27991,-4.58995 10.43044,-3.11463 10.43044,-3.11463 1.15701,4.71285 5.43405,3.83863 5.31387,2.35642 -0.11952,-1.47531 -4.87405,-2.91643 -4.87405,-2.91643 1.55801,-3.71565 6.23258,-3.79085 6.23258,-3.79085 0,0 0.4392,1.59151 3.59684,3.11463 3.15622,1.51634 4.35425,-0.724 2.1562,-2.11742 C 42.23813,12.29305 38.92068,12.05394 38.92068,12.05394 38.0826,7.17717 44.95447,8.1402 44.95447,8.1402 47.511,13.09215 50.82845,12.41595 49.98904,10.37372 49.15033,8.33829 44.75366,7.25917 44.75366,7.25917 42.95593,3.70064 45.15387,0.78409 47.87169,0.7021 c 2.71635,-0.0751 5.35348,2.63652 5.35348,2.63652 -0.67822,1.40012 -0.47811,3.03945 -0.47811,3.03945 0.2397,2.63644 1.87832,2.95744 2.19662,1.1611 0.32032,-1.79631 -1.35851,-4.39865 -1.35851,-4.39865 1.75802,-1.67342 4.87537,0.1981 5.15537,3.75665 0.2787,3.55855 -1.63921,6.7141 -1.63921,6.7141 -3.47656,-2.47945 -5.87259,1.55722 -4.07556,2.35643 1.79831,0.7991 4.43556,-1.95343 4.43556,-1.95343 2.19722,1.79631 1.55791,5.23185 1.55791,5.23185 -0.99921,4.51487 -5.63487,7.03521 -5.63487,7.03521 C 46.51178,29.91496 38.12088,28.39865 25.65363,25.75542 13.18645,23.11888 1.8387,28.23474 1.8387,28.23474 6.11436,22.24467 21.33896,20.56444 21.33896,20.56444 M 0,29.55296 c 10.14972,-5.71006 21.73787,-3.35363 26.29434,-2.1925 4.55434,1.1543 7.15187,1.6734 7.15187,1.6734 11.98705,1.76222 21.97699,-1.47533 24.85453,-7.1922 2.87683,-5.71007 -0.72062,-8.1075 -0.72062,-8.1075 0,0 3.79766,-5.27977 0.99863,-9.23443 C 55.78311,0.54498 53.46558,2.86041 53.46558,2.86041 51.06685,0.14198 47.8703,-1.0122 45.19356,1.0641 c -2.67682,2.07642 -0.9187,6.07207 -0.9187,6.07207 -6.71279,-0.84009 -5.71418,4.83577 -5.71418,4.83577 -5.43347,-0.198 -6.49139,4.33035 -6.49139,4.33035 C 22.24738,13.79567 21.28777,20.14775 21.28777,20.14775 8.52959,19.13004 0,29.55296 0,29.55296"
               style="fill:#000000;fill-opacity:1;fill-rule:nonzero;stroke:#000000;stroke-width:0.3985;stroke-linecap:butt;stroke-linejoin:miter;stroke-miterlimit:10;stroke-dasharray:none;stroke-opacity:1"
               id="path20" /><g
               id="g22"
               clip-path="url(#clipPath26)"><path
                 d="m 75.09486,13.79567 c 0,0 2.92744,-1.26363 3.86114,0.1844 0.935,1.44121 -0.52799,3.21022 -3.86114,-0.1844 m 3.63785,-6.34529 c -0.60931,1.5095 -1.32103,0.5737 -1.27934,-0.6694 0.04031,-1.23623 1.23964,-3.27166 1.23964,-3.27166 0,0 0.64959,2.43843 0.0397,3.94106 m 5.56865,3.72244 c -1.239,0.91531 -2.52042,-0.08189 -1.66591,-1.07912 0.85442,-0.99719 4.00386,-1.8305 4.00386,-1.8305 0,0 -1.09762,1.99441 -2.33795,2.90962 m 4.77707,4.51476 c -1.85033,0.6694 -3.04903,-0.4303 -1.48422,-1.55042 1.56482,-1.11331 5.26338,-1.50261 5.26338,-1.50261 -0.26302,0.7923 -1.93024,2.38371 -3.77916,3.05303 m 8.92162,4.02307 c -1.34012,0.8333 -3.29215,0.48489 -2.70203,-0.58742 0.5887,-1.07923 4.36996,-1.95343 4.36996,-1.95343 0,0 -0.32652,1.70753 -1.66793,2.54085 m 6.76867,2.35643 c 1.19943,-1.03824 5.6091,-1.52313 5.6091,-1.52313 -2.57985,3.71563 -6.80911,2.56134 -5.6091,1.52313 m 25.47544,6.16766 c 0,0 -11.34914,-5.11586 -23.8163,-2.47932 -12.46657,2.63643 -20.85817,4.15954 -27.73075,0.52591 0,0 -4.63426,-2.52034 -5.63359,-7.03521 0,0 -0.63931,-3.43554 1.55873,-5.23185 0,0 2.63715,2.75253 4.43485,1.95343 1.79773,-0.79921 -0.5997,-4.83588 -4.07564,-2.35643 0,0 -1.91794,-3.15555 -1.63853,-6.7141 0.2807,-3.55855 3.39665,-5.43007 5.15477,-3.75665 0,0 -1.67823,2.60234 -1.35991,4.39865 0.32029,1.79634 1.95822,1.47534 2.19862,-1.1611 0,0 0.19949,-1.63933 -0.4801,-3.03945 0,0 2.63713,-2.71162 5.35626,-2.63652 2.71495,0.08199 4.91298,2.99854 3.11525,6.55707 0,0 -4.39526,1.07912 -5.23396,3.11455 -0.83884,2.03541 2.47731,2.71843 5.03456,-2.23352 0,0 6.87188,-0.96303 6.03447,3.91374 0,0 -3.31674,0.23911 -5.51477,1.63922 -2.19794,1.39342 -0.99852,3.63376 2.15703,2.11742 3.15695,-1.52312 3.59674,-3.12143 3.59674,-3.12143 0,0 4.67396,0.082 6.23329,3.79765 0,0 -4.75588,1.44112 -4.87537,2.91643 -0.1196,1.48221 4.15686,2.35643 5.31456,-2.35642 0,0 9.15043,-1.47532 10.43045,3.11463 0,0 -4.99638,0.51912 -6.35489,1.87834 -1.35783,1.35921 1.91791,2.15831 4.55576,0.683 0,0 1.27861,-0.60111 2.03752,-2.15834 0,0 15.2245,1.68023 19.50095,7.6703 M 110.7964,20.14775 c 0,0 -0.96159,-6.35208 -10.78424,-3.84546 0,0 -1.05519,-4.52835 -6.49068,-4.33035 0,0 0.99922,-5.67586 -5.71287,-4.83577 0,0 1.75673,-3.99565 -0.92001,-6.07207 -2.67603,-2.0763 -5.87326,-0.92212 -8.27141,1.79631 0,0 -2.31682,-2.31543 -5.11376,1.63932 -2.79763,3.95466 0.99932,9.23443 0.99932,9.23443 0,0 -3.59825,2.39743 -0.72061,8.1075 2.87614,5.71687 12.86746,8.95442 24.85511,7.1922 0,0 2.59755,-0.5191 7.15131,-1.6734 4.55574,-1.16113 16.1432,-3.51756 26.29364,2.1925 0,0 -8.52821,-10.42292 -21.2858,-9.40521"
                 style="fill:#000000;fill-opacity:1;fill-rule:nonzero;stroke:#000000;stroke-width:0.3985;stroke-linecap:butt;stroke-linejoin:miter;stroke-miterlimit:10;stroke-dasharray:none;stroke-opacity:1"
                 id="path28" /></g></g></g></g></g></g></svg>
