<?xml version="1.0" encoding="UTF-8" standalone="no"?>
<svg
   xmlns:dc="http://purl.org/dc/elements/1.1/"
   xmlns:cc="http://creativecommons.org/ns#"
   xmlns:rdf="http://www.w3.org/1999/02/22-rdf-syntax-ns#"
   xmlns:svg="http://www.w3.org/2000/svg"
   xmlns="http://www.w3.org/2000/svg"
   xmlns:sodipodi="http://sodipodi.sourceforge.net/DTD/sodipodi-0.dtd"
   xmlns:inkscape="http://www.inkscape.org/namespaces/inkscape"
   version="1.1"
   id="svg2"
   xml:space="preserve"
   width="59.544727"
   height="39.474403"
   viewBox="0 0 59.544728 39.474404"
   sodipodi:docname="vectorian107.pdf"><metadata
     id="metadata8"><rdf:RDF><cc:Work
         rdf:about=""><dc:format>image/svg+xml</dc:format><dc:type
           rdf:resource="http://purl.org/dc/dcmitype/StillImage" /></cc:Work></rdf:RDF></metadata><defs
     id="defs6" /><sodipodi:namedview
     pagecolor="#ffffff"
     bordercolor="#666666"
     borderopacity="1"
     objecttolerance="10"
     gridtolerance="10"
     guidetolerance="10"
     inkscape:pageopacity="0"
     inkscape:pageshadow="2"
     inkscape:window-width="640"
     inkscape:window-height="480"
     id="namedview4" /><g
     id="g10"
     inkscape:groupmode="layer"
     inkscape:label="vectorian107"
     transform="matrix(1.3333333,0,0,-1.3333333,0.03177408,40.27776)"><g
       id="g12"
       transform="translate(72,-41.673)"><g
         id="g14"
         transform="translate(-71.824,42.477)"><g
           id="g16"><g
             id="g18"><path
               d="m 12.82016,2.29802 c 0.5416,0.19672 0.49319,-0.59151 -0.04921,-0.83812 0,0 -0.49101,0.64072 0.04921,0.83812 M 16.809,6.48218 C 16.4156,5.25134 15.62738,2.93803 15.08578,1.9531 14.54349,0.96819 13.70746,0.87048 13.16646,0.87048 c -0.54231,0 -0.19811,0.39342 -0.19811,0.39342 0.78691,0.44261 0.64002,1.62422 -0.09831,1.42752 C 12.13164,2.49474 12.18013,1.854 12.42604,1.50981 12.67336,1.1649 12.32774,1.06578 12.32774,1.06578 11.39192,0.91899 11.39192,1.3131 11.44182,1.70651 11.49173,2.10062 10.94933,2.0016 10.94933,2.0016 l 0.19741,-0.1967 c 0,-0.4433 -0.34352,-0.4918 -0.73692,-0.3941 -0.3941,0.09901 -0.64142,0.5908 -0.14891,0.78752 0.49242,0.1974 0.34421,0.5423 0.34421,0.5423 C 9.86752,2.19832 9.07861,2.44553 9.276,2.93803 9.47401,3.42912 10.01572,3.33144 10.01572,3.33144 L 9.81761,3.03574 c 0.4433,0.2957 1.13172,-0.04923 1.13172,-0.04923 0,0.44261 -0.7383,0.59082 -0.7383,0.59082 0.59219,0.3449 2.06891,0.2957 2.75732,1.03342 0.6899,0.739 0.64002,3.29964 0.54172,5.17045 -0.05131,0.97402 0.15089,1.49372 0.35648,1.76833 -1.336,-1.29771 -1.0416,-4.20265 -0.99651,-5.60896 C 12.91924,4.41534 11.93434,4.21735 10.90092,4.02124 9.86752,3.82323 9.17691,3.67633 8.98091,2.88812 8.7835,2.10062 9.71921,1.7564 9.71921,1.7564 10.06282,0.7715 10.99852,1.1649 10.99852,1.1649 11.34343,0.32819 12.87004,0.6232 12.87004,0.6232 16.26738,0.13148 16.36508,3.82323 17.2516,6.28546 18.13821,8.74779 19.36763,8.69789 19.36763,8.69789 18.1867,8.84549 17.2024,7.71298 16.809,6.48218 m -2.94245,5.06735 c 0.11541,0.112 0.24182,0.2131 0.38252,0.29921 0,0 -0.1926,-0.04581 -0.38252,-0.29921"
               style="fill:#000000;fill-opacity:1;fill-rule:nonzero;stroke:#000000;stroke-width:0.3985;stroke-linecap:butt;stroke-linejoin:miter;stroke-miterlimit:10;stroke-dasharray:none;stroke-opacity:1"
               id="path20" /><path
               d="m 21.68376,1.7564 c 0,0 -0.14821,-0.345 -0.7868,-0.19738 0,0 -0.1483,0.29498 0.7868,0.19738"
               style="fill:#000000;fill-opacity:1;fill-rule:nonzero;stroke:#000000;stroke-width:0.3985;stroke-linecap:butt;stroke-linejoin:miter;stroke-miterlimit:10;stroke-dasharray:none;stroke-opacity:1"
               id="path22" /><path
               d="m 37.48618,2.39572 -0.29512,-0.2951 -0.2465,0.04919 0.34562,0.34493 z"
               style="fill:#000000;fill-opacity:1;fill-rule:nonzero;stroke:#000000;stroke-width:0.3985;stroke-linecap:butt;stroke-linejoin:miter;stroke-miterlimit:10;stroke-dasharray:none;stroke-opacity:1"
               id="path24" /><path
               d="m 38.17668,0.5249 c -0.4924,0 -0.44331,0.4924 -0.24521,0.4924 0.19541,0 0.6386,0.04848 0.68781,0.3443 0,0 0.04921,-0.8367 -0.4426,-0.8367 m 0.8367,7.139 c -0.3941,0.54229 0.64002,0.98489 1.42752,0.19668 0,0 -1.03412,-0.7384 -1.42752,-0.19668 m 3.74166,-4.23478 c -0.1476,3.39864 -1.82163,4.67797 -1.82163,4.67797 2.11804,5.71077 -0.39351,9.64973 -0.39351,9.64973 0.62291,-0.2568 0.94461,-0.7028 1.06961,-0.9145 -1.23761,2.33592 -3.23544,3.62272 -3.23544,3.62272 C 43.09854,14.80276 40.4409,8.1556 40.4409,8.1556 39.9485,8.7956 38.42189,8.7963 38.76749,7.76149 39.11238,6.72807 40.7353,7.56618 40.7353,7.56618 42.85333,5.39824 41.96742,1.70651 41.57404,1.06578 41.17992,0.42589 40.63832,0.37668 40.63832,0.6717 c 0,0.2958 -0.14822,0.39408 -0.14822,0.39408 C 40.195,1.0173 40.0468,1.2639 40.0468,1.2639 c -0.19739,-0.2466 0,-0.39412 0,-0.39412 0.3955,-0.09898 0.04991,-0.88646 -0.49109,-0.34488 -0.54233,0.54088 0.24589,0.98491 0.24589,0.98491 -0.1974,0.24591 -0.59082,0 -0.59082,0 C 39.06259,1.8049 39.456,2.10062 39.456,2.10062 38.66849,2.44553 38.47177,1.55902 38.47177,1.55902 38.27507,2.49474 37.68428,2.0016 37.68428,2.0016 38.17668,1.9039 38.02847,1.06578 37.43835,0.91899 36.84756,0.7708 36.94456,1.75572 36.94456,1.75572 36.15694,0.47568 37.68428,0.5249 37.68428,0.5249 c 0.64059,-0.49252 1.08321,0.1974 1.08321,0.1974 0.5908,-1.08398 1.62422,-0.24662 1.62422,-0.24662 0.29649,-0.68976 2.51152,-0.4433 2.36333,2.95344 m -1.14553,13.4132 c 0.02123,-0.041 0.04311,-0.07923 0.06223,-0.11892 0,0 -0.01912,0.04581 -0.06223,0.11892"
               style="fill:#000000;fill-opacity:1;fill-rule:nonzero;stroke:#000000;stroke-width:0.3985;stroke-linecap:butt;stroke-linejoin:miter;stroke-miterlimit:10;stroke-dasharray:none;stroke-opacity:1"
               id="path26" /><path
               d="m 42.60744,7.6639 c 0,0 -0.0983,-2.31415 1.47743,-3.64266 0,0 -0.63931,2.60854 -0.04993,5.85766 0.59223,3.24915 0.24523,8.2229 -3.88914,11.57107 0,0 -1.92061,1.37762 -6.15398,3.05174 -4.80846,1.90082 -5.51477,2.51143 -8.17372,2.80653 -2.65833,0.2957 -4.57834,-0.83671 -11.96385,1.77242 0,0 0.0984,-0.295 1.47673,-0.6891 1.37901,-0.39353 3.44714,-1.42752 7.4832,-1.67414 4.03796,-0.24589 6.54878,-0.935 8.37041,-1.67412 1.82162,-0.73829 5.51477,-2.16581 7.08979,-3.00393 1.57503,-0.83602 3.39736,-2.16513 4.77637,-5.56247 1.3783,-3.39734 -0.19812,-7.3364 0.39481,-10.14295 0,0 -0.49323,-0.04849 -0.83812,1.32995"
               style="fill:#000000;fill-opacity:1;fill-rule:nonzero;stroke:#000000;stroke-width:0.3985;stroke-linecap:butt;stroke-linejoin:miter;stroke-miterlimit:10;stroke-dasharray:none;stroke-opacity:1"
               id="path28" /><path
               d="m 14.93819,23.41978 c 0,0 0,1.52522 -0.98493,1.18162 -0.98491,-0.3449 -0.5915,-1.57572 0.09911,-1.92063 0,0 -1.30591,-0.81279 -1.57572,-2.21573 0,0 -1.23153,0.54161 -1.57511,2.85504 -0.34562,2.31473 0.63929,3.79146 2.21501,3.93895 1.57512,0.14821 2.51153,-1.13241 2.56004,-1.87013 0.04849,-0.73901 0,-1.7738 -0.7384,-1.96912 m -0.54232,-0.14819 c 0,0 -0.68841,0.04849 -0.64,0.59081 0.04989,0.5409 0.7882,0.4918 0.64,-0.59081 m -1.42752,4.28255 c -2.54153,-0.3873 -3.24914,-2.90425 -2.46093,-5.21826 0.7875,-2.31343 2.70683,-2.65834 2.70683,-2.65834 -0.68849,1.47673 1.28142,2.90414 1.28142,2.90414 3.59265,1.28072 1.37761,5.41635 -1.52732,4.97246"
               style="fill:#000000;fill-opacity:1;fill-rule:nonzero;stroke:#000000;stroke-width:0.3985;stroke-linecap:butt;stroke-linejoin:miter;stroke-miterlimit:10;stroke-dasharray:none;stroke-opacity:1"
               id="path30" /><path
               d="m 13.11655,29.08066 c 0,0 -2.31333,0.04849 -4.67656,-0.83742 l -0.54241,0.0977 c 0,0 2.65834,1.18233 5.21897,0.73972"
               style="fill:#000000;fill-opacity:1;fill-rule:nonzero;stroke:#000000;stroke-width:0.3985;stroke-linecap:butt;stroke-linejoin:miter;stroke-miterlimit:10;stroke-dasharray:none;stroke-opacity:1"
               id="path32" /><path
               d="M 4.10684,5.20294 C 3.66353,5.10387 3.61372,6.03957 4.50023,5.89136 c 0,0 0.04851,-0.59012 -0.39339,-0.68842 M 2.23541,9.18971 c -0.3941,0.5416 0.98493,0.3456 1.18093,0.099 0,0 -0.78682,-0.63992 -1.18093,-0.099 M 7.99599,8.3537 C 7.05957,8.89459 6.02686,8.40291 5.97696,7.61537 5.92847,6.82776 6.76518,6.82776 6.76518,6.82776 6.71527,6.08806 5.23796,5.94057 4.99277,6.72807 4.74754,7.5163 4.15605,7.61537 4.15605,7.61537 4.89435,8.5005 3.95863,9.1419 3.95863,9.1419 4.94284,9.8795 4.15605,10.96352 4.15605,10.96352 4.54944,9.83041 3.61372,9.43631 3.61372,9.43631 2.33232,10.2736 1.3502,9.53531 1.89041,8.84549 2.43211,8.1563 3.81042,8.9438 3.81042,8.9438 4.45044,8.69789 3.95863,7.86118 3.41634,7.46709 2.87471,7.07298 2.38292,7.31888 2.38292,7.31888 c 0.04919,-0.59081 0.64,-0.7383 1.18162,-0.34491 0.5423,0.3941 0.8859,0.1981 0.8859,0.1981 C 4.40193,6.72807 4.59865,6.28546 4.59865,6.28546 3.85963,6.53137 3.27763,5.76575 3.66353,5.10387 4.00713,4.51305 4.59865,5.00485 4.69635,5.25134 c 0.099,0.24662 0.29642,0.78823 0.83801,0.78823 0.5423,0 0.5895,-0.68982 0.5895,-0.68982 C 6.37036,5.30124 6.81367,5.05466 6.32185,4.80885 5.82877,4.56224 5.63206,5.20294 5.63206,5.20294 5.28775,4.21735 6.71527,3.97073 6.96257,4.70975 7.20778,5.44876 6.42026,5.69466 6.42026,5.69466 6.91208,5.59706 7.15857,6.03957 7.15857,6.03957 6.91208,5.79306 6.32185,6.23636 6.91208,6.43367 7.5042,6.63048 7.84778,6.08806 7.84778,6.08806 c 0,0.54242 -0.49181,0.6906 -0.49181,0.6906 0.54161,1.18022 -0.6407,0.98352 -0.6407,0.98352 0.6407,-0.0492 0.78893,-0.59011 0.2473,-0.59011 -0.54231,0 -0.83871,0.64 -0.54231,0.88582 C 6.71527,8.30379 8.43999,8.5996 8.5861,6.97397 8.7343,5.34975 7.25768,3.67633 5.28775,3.67633 c -1.96841,0 -3.84055,2.26424 -4.47985,7.97571 -0.6407,5.71138 1.03341,8.5664 1.87012,11.12643 0.83732,2.55995 2.41243,3.15145 3.20064,3.59406 0.78682,0.44391 1.32912,1.18161 1.32912,1.18161 H 6.56848 C 6.12386,26.76663 4.84454,26.42232 3.61372,25.0925 2.38292,23.76341 0.21709,19.77513 0.01968,15.04938 -0.17639,10.32211 1.1029,6.13727 2.77771,4.41534 4.45044,2.69142 6.81367,2.93803 8.14279,4.51305 9.4734,6.08806 8.93098,7.81207 7.99599,8.3537"
               style="fill:#000000;fill-opacity:1;fill-rule:nonzero;stroke:#000000;stroke-width:0.3985;stroke-linecap:butt;stroke-linejoin:miter;stroke-miterlimit:10;stroke-dasharray:none;stroke-opacity:1"
               id="path34" /><path
               d="m 2.23541,11.45534 c -0.59079,0.0491 -0.1967,1.08322 1.13172,0.49171 0,0 -0.54161,-0.54091 -1.13172,-0.49171 m 2.21503,2.01832 c -0.14819,-1.08261 -0.73702,-1.42752 -0.9351,-1.32852 -0.196,0.0977 -1.37833,0.49181 -1.77174,-0.19809 -0.3934,-0.68913 0.44332,-1.32843 1.67274,-0.73762 1.2315,0.59079 1.0341,2.26423 1.0341,2.26423"
               style="fill:#000000;fill-opacity:1;fill-rule:nonzero;stroke:#000000;stroke-width:0.3985;stroke-linecap:butt;stroke-linejoin:miter;stroke-miterlimit:10;stroke-dasharray:none;stroke-opacity:1"
               id="path36" /><path
               d="m 1.89041,13.86705 c -0.14681,0.59084 1.0833,0.73901 1.96922,0 0,0 -1.82092,-0.5908 -1.96922,0 m 3.83995,2.21643 c -0.4924,-0.6906 -1.47662,-1.82231 -1.47662,-1.82231 0,0 -1.62422,0.4924 -2.51014,0.19672 -0.8866,-0.29512 0.09771,-1.62494 1.57574,-1.23084 1.47601,0.39412 2.95272,3.10225 2.95272,3.10225 z"
               style="fill:#000000;fill-opacity:1;fill-rule:nonzero;stroke:#000000;stroke-width:0.3985;stroke-linecap:butt;stroke-linejoin:miter;stroke-miterlimit:10;stroke-dasharray:none;stroke-opacity:1"
               id="path38" /><path
               d="m 32.41609,14.01527 c -0.14818,1.82163 1.27933,2.06881 1.52513,0.6892 0.24591,-1.3777 0.0506,-3.59415 -0.54159,-4.47997 0,0 -0.83533,1.96913 -0.98354,3.79077 m -10.24054,1.96982 c -0.93579,3.00254 -0.93579,4.92327 0,4.62746 0.93572,-0.295 3.24916,-4.47997 2.31335,-9.00971 0,0 -1.37763,1.37902 -2.31335,4.38225 m -5.07214,-1.87082 c -0.1469,1.03342 1.77511,1.84893 2.16652,-0.739 0.24591,-1.62423 -0.93501,-1.96913 -0.93501,-1.96913 0,0 -1.08332,1.67342 -1.23151,2.70813 m -5.26677,5.16918 c 0.4911,-0.04851 0,-0.78752 -0.49381,-0.88593 0,0 0,0.93572 0.49381,0.88593 M 22.22466,9.7812 c -0.73969,0.29512 0.19612,1.03412 1.42824,0.04992 0,0 -0.69051,-0.34571 -1.42824,-0.04992 m 14.3264,-2.80723 c -2.06743,1.32982 -2.90343,2.51144 -2.90343,2.51144 1.62352,6.00658 0.196,6.20458 -0.39483,6.40069 C 32.662,16.08408 31.9229,15.49199 32.022,13.12865 32.1203,10.76543 32.95772,9.48541 32.95772,9.48541 32.5643,8.7485 30.64297,8.05789 28.77216,8.69789 26.90204,9.3379 24.6358,11.01273 24.6358,11.01273 c 1.62552,5.02087 -0.63931,9.05891 -2.16522,9.94473 -1.52724,0.88661 -1.82234,-1.82163 -0.64062,-5.26747 1.18164,-3.44715 2.56065,-4.72647 2.56065,-4.72647 l -0.59082,-0.8872 c -1.67412,1.13311 -2.51013,0.19728 -1.87082,-0.44261 0.64,-0.64 1.67412,-0.1483 1.67412,-0.1483 2.60913,-3.39665 0.98492,-8.27131 0.29501,-8.81301 -0.68852,-0.54092 -1.08392,-0.196 -1.08392,-0.196 0.6905,1.28 -0.58952,0.7882 -0.58952,0.7882 0,0 0.68854,0.1462 0.64071,-0.1981 C 22.81418,0.7223 22.42078,0.4764 22.42078,0.4764 22.51907,0.7715 22.37157,0.82 22.37157,0.82 22.17555,0.42589 21.78207,0.22908 21.38736,0.22908 c -0.3941,0 -0.29581,0.24732 -0.29581,0.24732 0.63932,0.2951 0.49311,0.8367 0.49311,0.8367 -0.6884,-0.6899 -1.0347,-0.1482 -1.0347,-0.1482 -0.196,-0.24591 0.14819,-0.5417 0.14819,-0.5417 0,0 -0.34419,-0.34491 -0.83742,-0.29501 -0.49168,0.04919 -0.34489,0.54229 -0.1468,0.54229 0.1953,0 0.29442,0.24592 0.29442,0.24592 0.0491,0.2459 0.54161,0.49111 0.54161,0.49111 0,0 -0.29512,0.099 -0.68923,-0.24521 -0.39409,-0.345 -0.8872,-0.2459 -0.8872,-0.2459 -0.3436,0.2944 -0.29441,1.47604 1.42953,1.91934 1.72261,0.44389 1.67412,2.06881 1.23081,2.95472 -0.4433,0.88581 -3.05375,4.97306 -3.05375,4.97306 2.06812,1.27932 0.39341,4.08586 -0.19609,4.67596 -0.59141,0.59151 -2.01895,0.099 -1.82093,-1.67271 0.1954,-1.77314 1.2793,-2.65975 1.2793,-2.65975 -3.98815,-0.4917 -6.40058,6.8924 -6.40058,6.8924 1.03413,0.44331 1.13243,1.23152 0.44261,1.3305 -0.68851,0.09911 -0.7383,-0.9357 -0.7383,-0.9357 -0.4911,-0.54091 -2.41183,-0.739 -2.80593,-0.49242 -0.39342,0.24653 0.345,0.49242 0.345,0.49242 0,0 -0.83811,0.29581 -2.36335,-0.98491 C 5.54466,16.9584 4.47435,16.4987 3.61093,16.2037 4.45175,17.45021 7.02748,18.46992 7.84709,19.72673 8.6852,21.00665 7.6511,21.20406 7.01108,20.66245 6.37036,20.12085 6.41956,19.13583 6.41956,19.13583 6.96187,20.16925 7.79858,20.71165 7.55339,20.07164 7.30548,19.43094 5.63206,18.34833 4.84454,17.85522 4.15875,17.4276 3.21411,16.29178 2.97923,16.00348 2.47511,15.85739 2.13701,15.78769 2.13701,15.78769 2.038,15.34508 1.3502,14.85268 1.3502,14.85268 c 1.52451,-0.09841 6.39919,2.46223 6.39919,2.46223 1.52592,-0.0491 3.39674,0.7384 3.39674,0.7384 2.01892,-7.77971 6.84449,-7.23799 6.84449,-7.23799 C 18.72833,9.92873 21.97818,5.25134 21.23976,4.07045 20.50145,2.88812 19.51584,3.67633 18.67912,2.49474 17.8424,1.3131 18.72833,0.96819 19.02403,0.6232 c 0.29579,-0.34491 0.7882,-0.49172 0.7882,-0.49172 0.93582,-0.34486 2.60855,0.0976 2.60855,0.0976 2.21502,-1.03338 3.79144,3.29906 3.34884,5.56398 -0.4433,2.26483 -1.82164,3.84065 -1.82164,3.84065 0.14681,0.04909 0.78751,0.88581 0.78751,0.88581 3.93826,-4.67666 8.46883,-1.67344 8.46883,-1.67344 0.54161,-0.83659 1.77102,-1.6248 1.77102,-1.6248 0.04988,-0.98492 -0.3435,-2.70823 -0.93432,-3.74165 -0.59081,-1.0341 -1.32922,-0.88719 -1.62493,-0.88719 -0.29579,0 -0.29579,0.29568 -0.0997,0.78819 0.19801,0.4924 -0.59021,0.4924 -0.59021,0.4924 -0.24588,-0.04919 -0.5908,-0.44391 -0.6393,-0.88652 -0.0505,-0.4426 -0.83801,-0.49177 -0.98561,-0.29509 -0.1475,0.1967 0.24662,0.54231 0.49321,1.0341 0.24651,0.49183 0.09828,0.64 -0.34561,0.64 -0.4413,0 -0.24591,-0.54168 -0.541,-0.88589 -0.2944,-0.34489 -0.739,-0.099 -0.739,-0.099 -0.19671,0.68982 0.64,1.18161 1.72389,2.16653 1.08334,0.98421 1.08334,2.31402 0.68993,2.41172 -0.39481,0.09901 -0.59221,-0.14681 -0.59221,-0.5409 V 6.58058 C 30.54459,5.25134 28.67375,4.85794 28.47705,3.62784 28.27963,2.39572 29.90527,2.54391 29.90527,2.54391 c 0.29581,-0.8374 1.47742,-0.1967 1.47742,-0.1967 1.42682,-0.6407 2.60913,0.54091 2.60913,0.54091 1.77103,1.72263 1.42752,3.98815 1.42752,3.98815 0,0 2.46163,-1.37831 2.85504,-2.01833 0.39339,-0.64059 0,-1.62421 0,-1.62421 1.28062,1.52521 0.3449,2.41243 -1.72332,3.74024"
               style="fill:#000000;fill-opacity:1;fill-rule:nonzero;stroke:#000000;stroke-width:0.3985;stroke-linecap:butt;stroke-linejoin:miter;stroke-miterlimit:10;stroke-dasharray:none;stroke-opacity:1"
               id="path40" /><path
               d="m 5.14095,23.22168 c 0,0 1.0819,0.78751 1.47602,0.04991 0,0 -1.08261,-0.14822 -1.47602,-0.04991 m 0.0977,0.44402 C 4.74754,23.36989 4.74754,23.02568 4.50023,22.48407 4.25374,21.94177 4.25374,21.49916 4.25374,21.49916 c 0,0 0.14819,0.34491 0.5908,0.64 0.44391,0.29431 0.44391,0 0.88582,-0.24588 0.444,-0.24663 0.444,0.4924 0.49249,0.8858 0.04921,0.3935 1.03542,0.29579 1.03542,0.29579 -0.2957,1.03342 -1.52791,0.88591 -2.01962,0.59083"
               style="fill:#000000;fill-opacity:1;fill-rule:nonzero;stroke:#000000;stroke-width:0.3985;stroke-linecap:butt;stroke-linejoin:miter;stroke-miterlimit:10;stroke-dasharray:none;stroke-opacity:1"
               id="path42" /></g></g></g></g></g></svg>
