<?xml version="1.0" encoding="UTF-8" standalone="no"?>
<svg
   xmlns:dc="http://purl.org/dc/elements/1.1/"
   xmlns:cc="http://creativecommons.org/ns#"
   xmlns:rdf="http://www.w3.org/1999/02/22-rdf-syntax-ns#"
   xmlns:svg="http://www.w3.org/2000/svg"
   xmlns="http://www.w3.org/2000/svg"
   xmlns:sodipodi="http://sodipodi.sourceforge.net/DTD/sodipodi-0.dtd"
   xmlns:inkscape="http://www.inkscape.org/namespaces/inkscape"
   version="1.1"
   id="svg2"
   xml:space="preserve"
   width="178.25363"
   height="178.25679"
   viewBox="0 0 178.25364 178.25679"
   sodipodi:docname="vectorian004.pdf"><metadata
     id="metadata8"><rdf:RDF><cc:Work
         rdf:about=""><dc:format>image/svg+xml</dc:format><dc:type
           rdf:resource="http://purl.org/dc/dcmitype/StillImage" /></cc:Work></rdf:RDF></metadata><defs
     id="defs6" /><sodipodi:namedview
     pagecolor="#ffffff"
     bordercolor="#666666"
     borderopacity="1"
     objecttolerance="10"
     gridtolerance="10"
     guidetolerance="10"
     inkscape:pageopacity="0"
     inkscape:pageshadow="2"
     inkscape:window-width="640"
     inkscape:window-height="480"
     id="namedview4" /><g
     id="g10"
     inkscape:groupmode="layer"
     inkscape:label="vectorian004"
     transform="matrix(1.3333333,0,0,-1.3333333,-1.582684,179.8368)"><g
       id="g12"
       transform="translate(72,64.063)"><g
         id="g14"
         transform="translate(-70.614,-62.679)"><g
           id="g16"><g
             id="g18"><path
               d="m 130.53687,68.73878 c -0.92031,-0.03511 -4.75776,-0.18333 -9.69494,-0.35882 -0.42509,13.68838 -5.87316,26.09375 -14.56977,35.44156 3.58003,3.32266 6.36067,5.90437 7.03138,6.52058 2.33994,2.14873 -0.008,5.86528 -2.95994,2.96774 -0.8267,-0.8151 -3.38114,-3.51374 -6.60237,-6.94949 -9.29723,8.76291 -21.63619,14.23828 -35.23877,14.61649 0.14821,4.69156 0.24962,8.40802 0.23791,9.56242 -0.039,4.14156 -4.32106,3.17445 -4.18844,0 0.03898,-0.91652 0.17939,-4.70705 0.3627,-9.59361 -13.59867,-0.53423 -25.90654,-6.13048 -35.11797,-15.01819 -3.48643,3.74774 -6.21237,6.68039 -6.84808,7.38238 -2.14873,2.33593 -5.86527,-0.0156 -2.95993,-2.96774 0.83851,-0.858 3.71653,-3.58005 7.3434,-6.98068 -8.45873,-9.29334 -13.743,-21.52708 -14.16028,-35.00874 -5.29209,0.19108 -9.45314,0.3432 -10.41644,0.3861 -3.17441,0.13649 -4.14153,-4.15336 0,-4.18448 1.22462,-0.0117 5.31157,0.10132 10.42034,0.26511 0.4446,-13.43486 5.72496,-25.62181 14.15638,-34.88774 -3.62687,-3.40063 -6.50489,-6.12279 -7.34731,-6.98068 -2.90143,-2.95996 0.81511,-5.30379 2.96384,-2.96387 0.63571,0.69412 3.36165,3.63077 6.84808,7.37842 9.21143,-8.8876 21.5193,-14.48389 35.11797,-15.0182 -0.18331,-4.88646 -0.32372,-8.67711 -0.3627,-9.59353 -0.13262,-3.17439 4.14944,-4.13772 4.18844,0 0.01171,1.15432 -0.0897,4.86696 -0.23791,9.56623 13.60258,0.3744 25.94154,5.84978 35.23877,14.61268 3.22123,-3.43183 5.77567,-6.13836 6.60237,-6.9456 2.95605,-2.90152 5.29988,0.81114 2.95994,2.96387 -0.67071,0.61619 -3.45135,3.19783 -7.03138,6.52048 8.66931,9.31673 14.10568,21.68296 14.56588,35.32455 4.76166,-0.15212 8.53281,-0.25342 9.69883,-0.24172 4.14166,0.03112 3.17443,4.32097 0,4.18448 z m -13.15018,-0.4914 C 107.27837,67.88087 94.6429,67.42065 90.96925,67.28806 c -0.15979,6.23577 -2.66354,11.89445 -6.67259,16.10229 2.69873,2.50765 12.01927,11.17305 19.44066,18.07573 8.14671,-8.75511 13.24767,-20.38434 13.64937,-33.2187 z M 67.00883,45.21506 c -11.70343,0 -21.22676,9.61693 -21.22676,21.43339 0,11.81255 9.52333,21.42957 21.22676,21.42957 11.70337,0 21.2228,-9.61702 21.2228,-21.42957 0,-11.81646 -9.51943,-21.43339 -21.2228,-21.43339 z M 101.374,103.83713 C 94.4245,96.40802 85.75919,87.07181 83.27495,84.39268 c -4.18845,3.90375 -9.73392,6.32938 -15.845,6.43468 0.12872,3.48254 0.6123,16.39871 0.95552,26.69034 12.73677,-0.3509 24.28803,-5.47917 32.98853,-13.68057 z m -36.33457,13.64938 c 0.37819,-10.29166 0.84619,-23.2507 0.97101,-26.68646 -6.1227,-0.2535 -11.66045,-2.81563 -15.76702,-6.8676 -1.95761,2.10205 -10.91942,11.73457 -18.09512,19.45627 8.6225,8.3378 20.15036,13.59477 32.89113,14.09779 z M 29.85518,100.9942 c 7.74899,-7.242 17.39711,-16.19203 19.43674,-18.07954 -3.75945,-4.15726 -6.10318,-9.63263 -6.25139,-15.6539 -2.37893,0.0858 -15.67729,0.56939 -26.40963,0.96321 0.3822,12.61595 5.32328,24.0697 13.22428,32.77023 z M 16.6387,64.93642 c 10.76354,0.35881 24.0463,0.85801 26.40964,0.94381 0.1871,-5.95897 2.51532,-11.37585 6.24358,-15.5018 C 47.2562,48.48701 37.60808,39.54079 29.85518,32.2988 21.98538,40.96812 17.0521,52.37126 16.6387,64.93642 Z M 32.15219,29.90439 c 7.17571,7.72157 16.13362,17.3542 18.09123,19.46004 4.10657,-4.05187 9.64432,-6.61409 15.76702,-6.87151 C 65.88562,39.05719 65.41762,26.09032 65.03943,15.80649 52.30255,16.3096 40.7747,21.56657 32.15219,29.90439 Z m 36.23328,-14.1252 c -0.34322,10.28774 -0.8268,23.20399 -0.95552,26.68645 6.11108,0.1053 11.65655,2.53492 15.845,6.43867 C 85.75919,46.22118 94.4245,36.88506 101.374,29.45586 92.6735,21.25456 81.12224,16.1263 68.38547,15.77919 Z M 103.73732,31.827 c -7.42528,6.89878 -16.74972,15.572 -19.44455,18.07562 3.97786,4.17287 6.47379,9.77293 6.66869,15.95421 3.66194,-0.13649 16.2818,-0.61231 26.41743,-0.94773 C 116.946,52.12946 111.85281,40.547 103.73732,31.827 Z"
               style="fill:#000000;fill-opacity:1;fill-rule:nonzero;stroke:#000000;stroke-width:0.3985;stroke-linecap:butt;stroke-linejoin:miter;stroke-miterlimit:10;stroke-dasharray:none;stroke-opacity:1"
               id="path20" /><path
               d="M 78.27148,77.24037 H 58.05482 c -0.63958,0 -1.15831,-0.51871 -1.15831,-1.15431 V 56.44261 c 0,-0.63951 0.51873,-1.1582 1.15831,-1.1582 h 20.21666 c 0.64352,0 1.15433,0.51869 1.15433,1.1582 v 19.64345 c 0,0.6356 -0.51081,1.15431 -1.15433,1.15431 z M 77.1211,57.59702 c -1.93435,0 -15.98153,0 -17.91195,0 0,1.91862 0,15.41601 0,17.33074 1.93042,0 15.9776,0 17.91195,0 0,-1.91473 0,-15.41212 0,-17.33074 z"
               style="fill:#000000;fill-opacity:1;fill-rule:nonzero;stroke:#000000;stroke-width:0.3985;stroke-linecap:butt;stroke-linejoin:miter;stroke-miterlimit:10;stroke-dasharray:none;stroke-opacity:1"
               id="path22" /><path
               d="m 100.71107,75.40744 c 1.91485,0 3.46695,1.55603 3.46695,3.47086 0,1.91092 -1.5521,3.46304 -3.46695,3.46304 -1.91482,0 -3.46693,-1.55212 -3.46693,-3.46304 0,-1.91483 1.55211,-3.47086 3.46693,-3.47086 z"
               style="fill:#000000;fill-opacity:1;fill-rule:nonzero;stroke:#000000;stroke-width:0.3985;stroke-linecap:butt;stroke-linejoin:miter;stroke-miterlimit:10;stroke-dasharray:none;stroke-opacity:1"
               id="path24" /><path
               d="m 34.84692,55.3858 c -1.91861,0 -3.46695,-1.55601 -3.46695,-3.46695 0,-1.91482 1.54834,-3.47084 3.46695,-3.47084 1.91484,0 3.46695,1.55602 3.46695,3.47084 0,1.91094 -1.55211,3.46695 -3.46695,3.46695 z"
               style="fill:#000000;fill-opacity:1;fill-rule:nonzero;stroke:#000000;stroke-width:0.3985;stroke-linecap:butt;stroke-linejoin:miter;stroke-miterlimit:10;stroke-dasharray:none;stroke-opacity:1"
               id="path26" /><path
               d="m 98.14885,49.19293 c 1.35321,-1.35723 3.54494,-1.35333 4.89816,0 1.35723,1.34931 1.35723,3.54872 0,4.90206 -1.35322,1.35321 -3.54884,1.34931 -4.89816,0 -1.35712,-1.35334 -1.35712,-3.55275 0,-4.90206 z"
               style="fill:#000000;fill-opacity:1;fill-rule:nonzero;stroke:#000000;stroke-width:0.3985;stroke-linecap:butt;stroke-linejoin:miter;stroke-miterlimit:10;stroke-dasharray:none;stroke-opacity:1"
               id="path28" /><path
               d="m 37.41307,81.60423 c -1.35713,1.35332 -3.54884,1.35332 -4.90597,0 -1.3532,-1.35321 -1.3532,-3.55264 0,-4.90596 1.35713,-1.35321 3.54884,-1.3493 4.90597,0 1.35321,1.35332 1.35321,3.55275 0,4.90596 z"
               style="fill:#000000;fill-opacity:1;fill-rule:nonzero;stroke:#000000;stroke-width:0.3985;stroke-linecap:butt;stroke-linejoin:miter;stroke-miterlimit:10;stroke-dasharray:none;stroke-opacity:1"
               id="path30" /><path
               d="m 81.26262,35.92953 c -1.91481,0 -3.47084,-1.5482 -3.47084,-3.46304 0,-1.91871 1.55603,-3.46693 3.46695,-3.46693 1.91482,0 3.47084,1.55212 3.47084,3.46693 0,1.91484 -1.55602,3.46304 -3.46695,3.46304 z"
               style="fill:#000000;fill-opacity:1;fill-rule:nonzero;stroke:#000000;stroke-width:0.3985;stroke-linecap:butt;stroke-linejoin:miter;stroke-miterlimit:10;stroke-dasharray:none;stroke-opacity:1"
               id="path32" /><path
               d="m 54.29538,94.85591 c 1.91484,0.0078 3.47475,1.55602 3.47475,3.47084 0,1.91483 -1.55991,3.46305 -3.47084,3.46305 -1.91094,0 -3.47084,-1.54822 -3.47084,-3.46305 0,-1.91482 1.5599,-3.46304 3.46693,-3.47084 z"
               style="fill:#000000;fill-opacity:1;fill-rule:nonzero;stroke:#000000;stroke-width:0.3985;stroke-linecap:butt;stroke-linejoin:miter;stroke-miterlimit:10;stroke-dasharray:none;stroke-opacity:1"
               id="path34" /><path
               d="m 56.47932,35.02484 c -1.35712,1.35321 -3.55275,1.35712 -4.90597,0 -1.35332,-1.34934 -1.35332,-3.54884 0.0039,-4.90207 1.34931,-1.3493 3.54494,-1.3493 4.90206,0 1.34931,1.36103 1.34931,3.55273 0,4.90207 z"
               style="fill:#000000;fill-opacity:1;fill-rule:nonzero;stroke:#000000;stroke-width:0.3985;stroke-linecap:butt;stroke-linejoin:miter;stroke-miterlimit:10;stroke-dasharray:none;stroke-opacity:1"
               id="path36" /><path
               d="m 79.0787,95.76062 c 1.35723,-1.34932 3.55275,-1.35712 4.90607,0 1.34931,1.35321 1.34931,3.55273 0,4.90596 -1.35332,1.34942 -3.54884,1.34942 -4.90607,0 -1.34931,-1.35713 -1.34931,-3.54884 0,-4.90596 z"
               style="fill:#000000;fill-opacity:1;fill-rule:nonzero;stroke:#000000;stroke-width:0.3985;stroke-linecap:butt;stroke-linejoin:miter;stroke-miterlimit:10;stroke-dasharray:none;stroke-opacity:1"
               id="path38" /></g></g></g></g></g></svg>
