<?xml version="1.0" encoding="UTF-8" standalone="no"?>
<svg
   xmlns:dc="http://purl.org/dc/elements/1.1/"
   xmlns:cc="http://creativecommons.org/ns#"
   xmlns:rdf="http://www.w3.org/1999/02/22-rdf-syntax-ns#"
   xmlns:svg="http://www.w3.org/2000/svg"
   xmlns="http://www.w3.org/2000/svg"
   xmlns:sodipodi="http://sodipodi.sourceforge.net/DTD/sodipodi-0.dtd"
   xmlns:inkscape="http://www.inkscape.org/namespaces/inkscape"
   version="1.1"
   id="svg2"
   xml:space="preserve"
   width="57.78688"
   height="39.016071"
   viewBox="0 0 57.78688 39.016071"
   sodipodi:docname="vectorian159.pdf"><metadata
     id="metadata8"><rdf:RDF><cc:Work
         rdf:about=""><dc:format>image/svg+xml</dc:format><dc:type
           rdf:resource="http://purl.org/dc/dcmitype/StillImage" /></cc:Work></rdf:RDF></metadata><defs
     id="defs6" /><sodipodi:namedview
     pagecolor="#ffffff"
     bordercolor="#666666"
     borderopacity="1"
     objecttolerance="10"
     gridtolerance="10"
     guidetolerance="10"
     inkscape:pageopacity="0"
     inkscape:pageshadow="2"
     inkscape:window-width="640"
     inkscape:window-height="480"
     id="namedview4" /><g
     id="g10"
     inkscape:groupmode="layer"
     inkscape:label="vectorian159"
     transform="matrix(1.3333333,0,0,-1.3333333,-1.0665383,40.216558)"><g
       id="g12"
       transform="translate(72,-40.097)"><g
         id="g14"
         transform="translate(-71,41.197)"><g
           id="g16"><g
             id="g18"><path
               d="m 5.79565,9.23941 c 0,0 -1.55181,-2.14133 0.29371,-3.47115 1.84822,-1.32913 3.98884,-0.66459 5.83438,-0.1475 1.57571,0.4405 3.91504,1.18162 5.46626,-1.47672 0,0 -0.9604,1.47672 -2.80724,1.40293 C 12.73726,5.47255 11.87663,3.82443 9.48811,3.99585 6.75806,4.19255 2.76714,6.58177 5.79565,9.23941"
               style="fill:#000000;fill-opacity:1;fill-rule:nonzero;stroke:#000000;stroke-width:0.3985;stroke-linecap:butt;stroke-linejoin:miter;stroke-miterlimit:10;stroke-dasharray:none;stroke-opacity:1"
               id="path20" /><path
               d="m 17.3169,2.37091 c 0,0 -2.06821,0.95963 -3.02993,0.81212 -0.95892,-0.14681 -4.57826,-2.65834 -7.90051,0 0,0 2.43634,-1.10782 5.31668,-0.29512 2.76483,0.78001 3.39734,1.18173 5.61376,-0.517"
               style="fill:#000000;fill-opacity:1;fill-rule:nonzero;stroke:#000000;stroke-width:0.3985;stroke-linecap:butt;stroke-linejoin:miter;stroke-miterlimit:10;stroke-dasharray:none;stroke-opacity:1"
               id="path22" /><path
               d="M 29.69867,12.39014 C 28.15855,11.37863 24.628,8.9443 21.23056,8.89449 c -3.39795,-0.0492 -5.83568,1.82843 -8.31981,3.44654 -3.10234,2.01896 -5.61445,2.31473 -5.61445,2.31473 0,0 2.31471,-0.68989 5.71136,-3.25053 3.39744,-2.55994 5.21837,-3.69304 9.20792,-3.44583 3.98744,0.2466 6.10347,2.75732 7.53228,3.88914 1.42752,1.13242 4.11116,2.31413 6.47438,2.55992 0,0 -2.19041,0.2473 -5.39106,2.06824 -3.20064,1.82161 -5.71078,3.88916 -10.68384,3.54485 C 15.17429,19.67664 13.20575,16.7233 8.971,15.34428 c 0,0 1.42822,0.24651 2.51153,0.78752 1.08261,0.5416 4.57826,2.85633 9.74803,3.05243 0,0 2.85504,0 5.85968,-1.32922 3.00253,-1.32911 5.07006,-3.05244 7.9251,-3.29834 0,0 -2.01763,0 -5.31667,-2.16653"
               style="fill:#000000;fill-opacity:1;fill-rule:nonzero;stroke:#000000;stroke-width:0.3985;stroke-linecap:butt;stroke-linejoin:miter;stroke-miterlimit:10;stroke-dasharray:none;stroke-opacity:1"
               id="path24" /><path
               d="m 10.89032,15.29578 c 0,0 6.05638,2.74714 9.67574,2.80583 4.57824,0.0744 9.82252,-3.17603 11.07724,-3.17603 0,0 -0.0738,-0.29442 -1.84552,0.1482 -1.77244,0.44331 -5.16978,2.21502 -9.30623,2.14122 -4.13565,-0.073 -7.0898,-1.91922 -9.60123,-1.91922"
               style="fill:#000000;fill-opacity:1;fill-rule:nonzero;stroke:#000000;stroke-width:0.3985;stroke-linecap:butt;stroke-linejoin:miter;stroke-miterlimit:10;stroke-dasharray:none;stroke-opacity:1"
               id="path26" /><path
               d="m 15.39618,15.14818 c 0,0 3.61735,0.88452 5.61249,0.88452 1.99371,0 3.69233,-0.73761 5.09465,-0.95892 0,0 -3.47045,0.2957 -5.02167,0.2957 -1.54971,0 -3.91293,-0.3702 -5.68547,-0.2213"
               style="fill:#000000;fill-opacity:1;fill-rule:nonzero;stroke:#000000;stroke-width:0.3985;stroke-linecap:butt;stroke-linejoin:miter;stroke-miterlimit:10;stroke-dasharray:none;stroke-opacity:1"
               id="path28" /><path
               d="m 18.64532,10.56923 c -0.36669,0 -0.6652,0.29709 -0.6652,0.6646 0,0.36679 0.29851,0.6652 0.6652,0.6652 0.36681,0 0.6646,-0.29841 0.6646,-0.6652 0,-0.36751 -0.29779,-0.6646 -0.6646,-0.6646 m 0.1476,1.99312 c -0.65229,0 -1.18161,-0.52872 -1.18161,-1.18173 0,-0.6516 0.52932,-1.1816 1.18161,-1.1816 0.65221,0 1.18161,0.53 1.18161,1.1816 0,0.65301 -0.5294,1.18173 -1.18161,1.18173"
               style="fill:#000000;fill-opacity:1;fill-rule:nonzero;stroke:#000000;stroke-width:0.3985;stroke-linecap:butt;stroke-linejoin:miter;stroke-miterlimit:10;stroke-dasharray:none;stroke-opacity:1"
               id="path30" /><path
               d="m 23.2974,10.56923 c -0.36542,0 -0.66453,0.29709 -0.66453,0.6646 0,0.36679 0.29911,0.6652 0.66453,0.6652 0.36678,0 0.66601,-0.29841 0.66601,-0.6652 0,-0.36751 -0.29923,-0.6646 -0.66601,-0.6646 m 0.14828,1.91933 c -0.6523,0 -1.1817,-0.52872 -1.1817,-1.18164 0,-0.6523 0.5294,-1.18032 1.1817,-1.18032 0.65361,0 1.18232,0.52802 1.18232,1.18032 0,0.65292 -0.52871,1.18164 -1.18232,1.18164"
               style="fill:#000000;fill-opacity:1;fill-rule:nonzero;stroke:#000000;stroke-width:0.3985;stroke-linecap:butt;stroke-linejoin:miter;stroke-miterlimit:10;stroke-dasharray:none;stroke-opacity:1"
               id="path32" /><path
               d="m 14.80537,20.46484 c 0,0 -2.88163,-0.73901 -5.46547,2.21573 -2.58392,2.95343 0.88723,8.12322 5.98188,4.80026 0,0 -2.14191,0.66532 -3.39804,-1.25529 -1.25402,-1.92073 -0.14681,-4.57909 4.94846,-5.0954 l -0.4426,-0.29648 c 0,0 -1.62423,-0.14752 -4.20945,1.62561 -2.58453,1.77183 -1.32983,5.09537 1.77251,5.39048 0,0 -1.99382,1.03341 -3.84065,-0.66462 -1.84552,-1.69871 -1.03342,-6.05499 4.65336,-6.72029"
               style="fill:#000000;fill-opacity:1;fill-rule:nonzero;stroke:#000000;stroke-width:0.3985;stroke-linecap:butt;stroke-linejoin:miter;stroke-miterlimit:10;stroke-dasharray:none;stroke-opacity:1"
               id="path34" /><path
               d="m 28.09836,20.53865 c 0,0 3.17612,1.55043 3.47114,3.54485 0.29439,1.99311 -1.62422,4.72725 -5.90878,2.14132 0,0 0.0744,1.18161 2.36462,2.21573 2.28812,1.03472 5.02088,0.14751 5.83368,-2.28953 0.81281,-2.43773 -1.84692,-5.61237 -4.28395,-5.90818 0,0 3.10164,1.62423 3.76686,3.91375 0.6646,2.29013 -2.06745,6.27839 -6.5727,3.17605 0,0 1.62422,1.18161 4.06195,-0.14821 2.43634,-1.32782 1.92062,-5.68617 -2.73282,-6.64578"
               style="fill:#000000;fill-opacity:1;fill-rule:nonzero;stroke:#000000;stroke-width:0.3985;stroke-linecap:butt;stroke-linejoin:miter;stroke-miterlimit:10;stroke-dasharray:none;stroke-opacity:1"
               id="path36" /><path
               d="m 37.25708,11.08632 0.07237,0.2943 c 0,0 2.43705,0.73912 3.39807,2.58525 0.9589,1.84693 0.073,5.82278 -4.21086,5.90887 -3.69177,0.07381 -5.24218,-2.21573 -5.24218,-2.21573 l -0.4433,0.29511 c 0,0 0.8865,1.77241 3.61795,2.65892 2.73343,0.88592 5.98187,-0.1482 7.01599,-2.43703 1.03412,-2.28941 0.739,-5.76056 -4.20804,-7.08969 m -2.04366,2.59814 c 0.85793,0.2439 1.43165,0.23909 1.82164,0.3306 0.83602,0.1967 0.98291,0.59081 0.98291,0.59081 -2.92684,0.35722 -4.94445,1.50813 -6.62669,2.74714 0.70962,1.0211 2.81604,2.21984 5.4218,1.93022 2.65831,-0.2957 4.35702,-3.17603 3.47113,-5.16906 -0.88593,-1.99443 -3.10165,-2.43703 -3.10165,-2.43703 -0.27588,1.09761 -1.407,1.74713 -1.96914,2.00732 m 1.52524,-2.82084 C 36.44356,8.5748 34.08102,8.428 32.45612,8.8706 c -1.21723,0.33051 -2.34824,0.99312 -2.84143,1.30521 0.41737,0.3996 0.8634,0.79781 1.36399,1.18091 1.37702,1.05261 2.47122,1.65703 3.34404,2.01633 0.24181,-0.0253 2.69664,-0.332 2.41594,-2.50943 M 23.34659,7.07358 c -3.15074,-0.29512 -5.07076,-0.2712 -7.72971,1.62352 -6.40817,4.57075 -6.5721,5.12126 -9.5009,6.05697 0,0 1.13111,-0.09761 3.44583,1.27933 2.31482,1.37901 5.11856,3.79215 8.32061,4.43144 3.19923,0.64002 6.15469,0.93512 10.48643,-1.67402 4.33315,-2.60924 4.72656,-3.93906 9.10883,-4.28325 0,0 -0.14823,-0.2452 -1.32984,-0.3934 -1.1817,-0.1483 -1.87082,-0.1483 -4.43016,-1.77251 C 29.15706,10.71672 26.49803,7.3693 23.34659,7.07358 M 7.937,9.53511 C 5.50055,9.682 5.13045,10.79124 5.13045,10.79124 c 0,0 -0.2459,2.63303 2.58525,2.95272 0.4917,0.05671 2.51143,-1.32851 3.84054,-2.80593 0,0 -1.18162,-1.55043 -3.61924,-1.40292 m 34.85795,8.05011 c -0.81271,3.02782 -3.98815,4.50453 -7.31241,3.91374 -2.77584,-0.4931 -4.62136,-2.63443 -5.15545,-3.32634 -1.32843,1.05532 -2.50395,2.06203 -3.87816,2.58805 -3.34823,1.2799 -4.48067,1.37829 -6.10559,1.32908 -1.62491,-0.04918 -2.51073,-0.4433 -4.33176,-1.37831 C 14.18997,19.77574 11.18604,17.51152 9.19301,16.4036 7.19788,15.29578 4.54025,14.63116 4.54025,14.63116 6.16386,14.55737 7.05037,13.89217 7.05037,13.89217 4.68715,13.37576 4.68715,11.23383 4.68715,11.23383 c -2.14064,0.07309 -3.83995,4.50515 -0.6653,6.86778 3.17603,2.36323 6.64787,0.0744 6.64787,0.0744 l 0.36811,0.22131 c -2.87966,2.51084 -7.3841,1.18102 -8.78841,-1.32913 -1.40222,-2.51082 0.29709,-5.16916 0.29709,-5.16916 -2.29082,1.55054 -2.88091,5.90819 0.81212,7.90122 3.69174,1.99443 7.08909,-0.07372 7.08909,-0.07372 l 0.4419,0.22202 C 3.65373,23.78848 -0.9997,18.54492 0.1833,14.85176 1.36351,11.16002 4.31825,10.42102 4.31825,10.42102 1.5111,8.35419 0.69958,4.51285 4.68715,1.707 8.67459,-1.0995 11.03783,0.23029 13.03296,0.96799 15.02667,1.707 15.83948,1.485 15.83948,1.485 c -2.29013,0.88661 -5.68747,-2.28938 -9.75012,0 -4.06055,2.29024 -3.61794,4.80035 -3.24913,6.12949 0.37019,1.33051 2.06753,2.65902 2.06753,2.65902 0,0 1.0354,-1.2561 3.10362,-1.62492 2.06752,-0.36819 3.69176,1.92064 3.69176,1.92064 0,0 5.11107,-4.47307 8.49271,-4.80097 5.42047,-0.52522 6.86099,1.94393 9.37031,4.36244 0.25212,-0.24178 0.75551,-0.6864 1.63452,-1.3339 1.40291,-1.03342 3.02575,-1.03342 4.35697,-0.3688 1.32921,0.6639 1.47741,1.9186 1.47741,1.9186 C 39.25009,9.75641 40.65442,7.24638 40.35732,5.17744 40.06151,3.10992 37.69827,1.19 33.71152,0.8942 30.24239,0.63739 28.17215,2.0014 28.17215,2.0014 c 1.18231,-1.03341 3.25055,-2.21498 7.3855,-1.55041 4.13504,0.66451 5.83377,4.21005 5.09677,6.79539 -0.73972,2.58454 -3.47186,3.47034 -3.47186,3.47034 3.76556,0.73842 6.42389,3.84065 5.61239,6.8685"
               style="fill:#000000;fill-opacity:1;fill-rule:nonzero;stroke:#000000;stroke-width:0.3985;stroke-linecap:butt;stroke-linejoin:miter;stroke-miterlimit:10;stroke-dasharray:none;stroke-opacity:1"
               id="path38" /><path
               d="m 37.10815,8.9443 c 0,0 1.03412,-0.2964 1.03412,-1.62553 0,-1.32851 -1.40361,-3.47114 -4.43145,-3.24913 -3.02784,0.2213 -5.76069,2.95404 -8.5672,-0.36891 0,0 0.2965,1.62422 2.80651,2.28953 2.51156,0.66321 4.35839,-1.69932 7.68061,-0.96101 3.32295,0.73901 2.14203,3.84135 1.47741,3.91505"
               style="fill:#000000;fill-opacity:1;fill-rule:nonzero;stroke:#000000;stroke-width:0.3985;stroke-linecap:butt;stroke-linejoin:miter;stroke-miterlimit:10;stroke-dasharray:none;stroke-opacity:1"
               id="path40" /><path
               d="m 38.5111,5.76826 c 0,0 -1.25402,-3.91376 -4.6528,-3.91376 -3.39661,0 -5.46485,2.36333 -7.45786,1.10793 0,0 1.03341,1.18161 2.73202,0.9596 1.69872,-0.2206 3.61864,-1.32842 5.09467,-1.256 1.47812,0.07439 2.80793,0.22188 4.28397,3.10223"
               style="fill:#000000;fill-opacity:1;fill-rule:nonzero;stroke:#000000;stroke-width:0.3985;stroke-linecap:butt;stroke-linejoin:miter;stroke-miterlimit:10;stroke-dasharray:none;stroke-opacity:1"
               id="path42" /></g></g></g></g></g></svg>
