<?xml version="1.0" encoding="UTF-8" standalone="no"?>
<svg
   xmlns:dc="http://purl.org/dc/elements/1.1/"
   xmlns:cc="http://creativecommons.org/ns#"
   xmlns:rdf="http://www.w3.org/1999/02/22-rdf-syntax-ns#"
   xmlns:svg="http://www.w3.org/2000/svg"
   xmlns="http://www.w3.org/2000/svg"
   xmlns:sodipodi="http://sodipodi.sourceforge.net/DTD/sodipodi-0.dtd"
   xmlns:inkscape="http://www.inkscape.org/namespaces/inkscape"
   version="1.1"
   id="svg2"
   xml:space="preserve"
   width="40.643257"
   height="20.134912"
   viewBox="0 0 40.643257 20.134912"
   sodipodi:docname="vectorian096.pdf"><metadata
     id="metadata8"><rdf:RDF><cc:Work
         rdf:about=""><dc:format>image/svg+xml</dc:format><dc:type
           rdf:resource="http://purl.org/dc/dcmitype/StillImage" /></cc:Work></rdf:RDF></metadata><defs
     id="defs6" /><sodipodi:namedview
     pagecolor="#ffffff"
     bordercolor="#666666"
     borderopacity="1"
     objecttolerance="10"
     gridtolerance="10"
     guidetolerance="10"
     inkscape:pageopacity="0"
     inkscape:pageshadow="2"
     inkscape:window-width="640"
     inkscape:window-height="480"
     id="namedview4" /><g
     id="g10"
     inkscape:groupmode="layer"
     inkscape:label="vectorian096"
     transform="matrix(1.3333333,0,0,-1.3333333,-0.96195568,19.869246)"><g
       id="g12"
       transform="translate(72,-56.489)"><g
         id="g14"
         transform="translate(-71.079,56.489)"><g
           id="g16"><g
             id="g18"><path
               d="m 20.20296,7.99818 c 0.1304,-1.65972 2.21292,-2.76623 2.21292,-2.76623 0.35789,4.03665 -2.34273,4.42596 -2.21292,2.76623 M 7.66739,5.23195 c 0,0 2.08253,1.10651 2.21303,2.76623 C 10.01022,9.65791 7.31018,9.2686 7.66739,5.23195 M 14.98808,0 C 9.78271,0 7.56969,4.41914 7.56969,4.41914 4.86975,3.60632 2.59253,4.54893 2.59253,4.54893 -0.6614,5.81937 -0.9209,10.57312 2.20181,13.04575 5.32535,15.5114 8.1886,14.50737 8.1886,14.50737 1.81122,14.83527 -0.59648,9.43251 1.0633,6.86436 2.72304,4.28935 7.31018,5.13637 7.31018,5.13637 6.78908,9.56232 10.07503,10.27953 10.2048,8.2304 10.33531,6.18138 7.9932,4.87674 7.9932,4.87674 9.2944,1.3319 14.85759,1.2294 14.85759,1.2294 h 0.36809 c 0,0 5.56328,0.1025 6.86438,3.64734 0,0 -2.34201,1.30464 -2.21161,3.35366 0.12979,2.04913 3.41583,1.33192 2.89532,-3.09403 0,0 4.58716,-0.84702 6.247,1.72799 1.65831,2.56815 -0.74933,7.97091 -7.12531,7.64301 0,0 2.86325,1.00403 5.9867,-1.46162 3.12202,-2.47263 2.86251,-7.22638 -0.39141,-8.49682 0,0 -2.27714,-0.94261 -4.97787,-0.12979 0,0 -2.21164,-4.41914 -7.41692,-4.41914 z"
               style="fill:#000000;fill-opacity:1;fill-rule:nonzero;stroke:#000000;stroke-width:0.3985;stroke-linecap:butt;stroke-linejoin:miter;stroke-miterlimit:10;stroke-dasharray:none;stroke-opacity:1"
               id="path20" /></g></g></g></g></g></svg>
