<?xml version="1.0" encoding="UTF-8" standalone="no"?>
<svg
   xmlns:dc="http://purl.org/dc/elements/1.1/"
   xmlns:cc="http://creativecommons.org/ns#"
   xmlns:rdf="http://www.w3.org/1999/02/22-rdf-syntax-ns#"
   xmlns:svg="http://www.w3.org/2000/svg"
   xmlns="http://www.w3.org/2000/svg"
   xmlns:sodipodi="http://sodipodi.sourceforge.net/DTD/sodipodi-0.dtd"
   xmlns:inkscape="http://www.inkscape.org/namespaces/inkscape"
   version="1.1"
   id="svg2"
   xml:space="preserve"
   width="358.67126"
   height="154.66864"
   viewBox="0 0 358.67126 154.66864"
   sodipodi:docname="vectorian055.pdf"><metadata
     id="metadata8"><rdf:RDF><cc:Work
         rdf:about=""><dc:format>image/svg+xml</dc:format><dc:type
           rdf:resource="http://purl.org/dc/dcmitype/StillImage" /></cc:Work></rdf:RDF></metadata><defs
     id="defs6"><clipPath
       clipPathUnits="userSpaceOnUse"
       id="clipPath24"><path
         d="M 0,0 H 269.00345 V 116.00148 H 0 Z"
         id="path22" /></clipPath></defs><sodipodi:namedview
     pagecolor="#ffffff"
     bordercolor="#666666"
     borderopacity="1"
     objecttolerance="10"
     gridtolerance="10"
     guidetolerance="10"
     inkscape:pageopacity="0"
     inkscape:pageshadow="2"
     inkscape:window-width="640"
     inkscape:window-height="480"
     id="namedview4" /><g
     id="g10"
     inkscape:groupmode="layer"
     inkscape:label="vectorian055"
     transform="matrix(1.3333333,0,0,-1.3333333,0,154.66864)"><g
       id="g12"
       transform="translate(72,44)"><g
         id="g14"
         transform="translate(-72,-44)"><g
           id="g16"><g
             id="g18"><g
               id="g20"
               clip-path="url(#clipPath24)"><path
                 d="m 232.9444,39.32889 c 0,1.42402 -1.15454,2.57855 -2.57663,2.57855 -1.42032,0 -2.57665,-1.15453 -2.57665,-2.57855 0,-1.42032 1.15633,-2.57474 2.57665,-2.57474 1.42209,0 2.57663,1.15442 2.57663,2.57474 z"
                 style="fill:#000000;fill-opacity:1;fill-rule:nonzero;stroke:#000000;stroke-width:0.3985;stroke-linecap:butt;stroke-linejoin:miter;stroke-miterlimit:10;stroke-dasharray:none;stroke-opacity:1"
                 id="path26" /><path
                 d="m 236.66783,55.13028 c 0,1.01593 -0.8222,1.83234 -1.83612,1.83234 -1.01202,0 -1.83232,-0.81641 -1.83232,-1.83234 0,-1.01579 0.8203,-1.83791 1.83232,-1.83791 1.01392,0 1.83612,0.82212 1.83612,1.83791 z"
                 style="fill:#000000;fill-opacity:1;fill-rule:nonzero;stroke:#000000;stroke-width:0.3985;stroke-linecap:butt;stroke-linejoin:miter;stroke-miterlimit:10;stroke-dasharray:none;stroke-opacity:1"
                 id="path28" /><path
                 d="m 141.93512,41.90744 c -2.74934,-12.71028 1.71461,-21.29268 2.05823,-27.13136 0.3437,-5.84059 -5.49308,-3.09114 -5.49308,-3.09114 0,0 1.44303,-6.75389 6.52408,-5.83867 4.46598,0.8051 5.15137,5.83867 0.68741,15.45588 -4.46396,9.61524 -3.77664,20.60529 -3.77664,20.60529 z"
                 style="fill:#000000;fill-opacity:1;fill-rule:nonzero;stroke:#000000;stroke-width:0.3985;stroke-linecap:butt;stroke-linejoin:miter;stroke-miterlimit:10;stroke-dasharray:none;stroke-opacity:1"
                 id="path30" /><path
                 d="m 252.70654,35.42503 c -3.88105,1.01012 -8.3298,0.46523 -12.52607,-1.52663 -4.19814,-1.9898 -8.31459,-5.43035 -13.58747,-10.32542 -2.13421,-1.98221 -6.41586,-5.88606 -10.83244,-9.50322 4.46976,5.85768 7.0387,13.32927 7.29129,21.97998 0.0322,1.01583 0.0152,2.02593 -0.038,3.02096 0.002,0.01899 0.009,0.03599 0.009,0.0531 -0.0171,0.6247 -0.50319,15.36288 -8.47031,24.1921 -2.83113,3.13294 -5.44945,5.32598 -7.76219,7.2627 -4.12976,3.45195 -6.85829,5.73236 -6.85829,10.43744 0,4.39564 2.85384,6.35138 5.52917,6.71208 2.59184,0.3627 5.64697,-0.7841 6.44249,-3.64555 0.7272,-2.63173 0.0551,-4.86466 -1.80192,-5.97348 -1.44872,-0.86589 -3.17284,-0.73292 -4.28736,0.33221 -0.30189,0.28679 -0.78041,0.2811 -1.06712,-0.02841 -0.28859,-0.2981 -0.2791,-0.77661 0.0228,-1.06709 1.61581,-1.54184 4.07095,-1.75634 6.10827,-0.53742 1.91013,1.14691 3.56394,3.76144 2.48163,7.67288 -1.0234,3.69875 -4.84176,5.18549 -8.10379,4.74687 -3.15194,-0.431 -6.83371,-2.83673 -6.83371,-8.21209 0,-5.40958 3.10265,-8.00513 7.3976,-11.59755 2.27285,-1.90442 4.85127,-4.05767 7.61022,-7.11279 1.87971,-2.08484 3.32473,-4.55317 4.43164,-7.08991 -4.24556,6.5127 -10.78673,10.96146 -18.49002,11.82925 -9.49944,1.05953 -17.38884,-0.82411 -22.82491,-5.45517 -4.67666,-3.98925 -7.3273,-9.82981 -7.66531,-16.90271 -0.71578,-15.0704 9.22604,-21.49197 17.96225,-22.41859 5.61647,-0.60191 11.25963,1.37473 14.7096,5.15137 3.09313,3.37974 4.25892,7.97281 3.28292,12.91526 -0.88861,4.49816 -2.81962,7.6045 -5.73798,9.24312 -4.31396,2.41144 -9.14442,0.6684 -9.36282,0.58681 -1.2816,-0.50511 -2.24051,-1.22852 -2.97532,-2.04312 l -0.1803,0.1956 c 0,0 -3.43485,-3.66275 -2.63364,-9.04762 0.79941,-5.37726 6.52608,-5.83678 8.4704,-2.85764 1.94624,2.97355 -0.2298,6.41408 -2.17412,6.29628 -1.94434,-0.11959 -4.23616,0.56971 -2.40573,4.23617 l -0.0475,0.0513 c 0.60382,0.70631 1.40132,1.33102 2.48741,1.7582 0.0437,0.01522 4.37478,1.58544 8.08302,-0.4975 2.51584,-1.40312 4.19245,-4.16586 4.99176,-8.21589 1.13172,-5.71718 -0.96261,-9.46713 -2.91453,-11.60137 -3.13104,-3.42914 -8.28052,-5.21584 -13.43558,-4.67095 -8.46471,0.89811 -17.27681,6.845 -16.60841,20.84455 0.3152,6.6437 2.78354,12.11788 7.13549,15.82042 5.10956,4.35765 12.60965,6.12728 21.67428,5.10576 13.18116,-1.47722 22.78698,-14.13817 22.337,-29.44966 C 221.03723,18.81284 210.9871,6.37405 194.6617,2.80632 177.50447,-0.9361 163.01889,3.58293 154.91689,15.20898 c -3.45765,4.95957 -5.95449,10.95394 -7.3709,17.39454 3.63983,-10.30645 11.83864,-15.45971 14.30898,-16.56473 4.34626,-1.95194 11.33366,-1.26271 11.33366,4.57597 0,5.83487 -5.84059,5.49497 -5.84059,5.49497 2.06013,-3.43296 -3.09304,-10.64624 -12.36275,-0.68921 -3.68735,3.95895 -6.52419,8.38681 -7.5571,13.39568 -1.56264,7.59509 -0.11392,15.33817 -0.11392,15.33817 -0.36449,-1.3481 -0.6418,-2.64492 -0.86961,-3.91333 0.97212,10.71083 4.98808,21.29646 12.59068,29.54077 0.66261,-1.46391 2.13042,-2.50444 2.13042,-2.50444 0,0 5.95257,-3.09114 12.36467,5.15706 7.13359,9.16904 14.42479,20.94709 39.8377,15.79763 25.41484,-5.15319 40.86884,-24.04012 40.86884,-24.04012 -22.66539,29.87878 -48.42395,28.15666 -69.71851,26.44205 -21.29257,-1.71462 -33.31363,-15.45401 -41.89975,-23.69461 -8.5843,-8.2424 -13.73567,-8.59183 -20.25975,-8.59183 -6.52598,0 -4.12214,7.56082 -4.12214,7.56082 -8.24442,-1.03291 -13.61789,-12.35517 -2.06214,-16.48492 9.61724,-3.43485 18.54705,2.40384 28.84967,14.08108 10.30274,11.67545 19.40346,16.99771 19.40346,16.99771 2.06012,1.37473 4.29306,0.68923 -4.29126,-6.69687 -0.431,-0.3684 -0.73671,-0.74052 -0.96072,-1.10891 -4.79055,-3.92286 -13.87227,-12.84697 -21.40277,-28.89526 -1.19811,-2.54816 -2.36774,-5.18929 -3.49946,-7.73742 -0.72149,-1.63672 -1.44871,-3.27534 -2.19111,-4.90446 -0.20131,0.03419 -0.4082,0.0588 -0.62471,0.0588 -1.98993,0 -3.60574,-1.61202 -3.60574,-3.60386 0,-1.0936 0.4956,-2.05821 1.26651,-2.72273 -1.37282,-2.74563 -2.83863,-5.42856 -4.45444,-7.99952 l -5.73998,4.71468 -3.09115,-4.46596 5.76646,-4.70695 c -1.80949,-2.39243 -3.80505,-4.64628 -6.05316,-6.6931 -0.58299,0.46521 -1.31401,0.75192 -2.11903,0.75192 -1.89693,0 -3.43485,-1.53801 -3.43485,-3.43295 0,-0.4975 0.112,-0.96462 0.3019,-1.38802 C 106.79677,9.38551 102.78471,7.5286 98.11375,6.23166 85.64468,2.76833 74.33565,4.10133 66.26595,9.97981 59.65634,14.79698 55.81711,22.36726 55.4563,31.28958 c -0.69492,17.12672 9.61153,27.86417 20.14776,29.61679 6.48609,1.08791 12.91147,-0.3247 17.62234,-3.85835 4.18104,-3.13294 6.75198,-7.80759 7.42979,-13.50958 0.69691,-5.83107 -0.48422,-10.71653 -3.50505,-14.52547 -2.80074,-3.52597 -7.2096,-5.93549 -11.79695,-6.44629 -2.75894,-0.30191 -7.07289,0.32282 -10.12802,3.10063 -2.24056,2.04692 -3.34555,4.84568 -3.28675,8.32611 0.112,6.36649 3.91524,9.51082 7.40709,9.73684 0.2677,0.01509 0.54302,0 0.81452,-0.01711 L 79.7395,43.48523 c 2.57096,0.17282 5.67728,-2.30881 4.79058,-4.43544 -0.88672,-2.12853 -4.79058,-1.15442 -4.79058,-1.15442 0,0 0.17853,-3.19185 2.83866,-4.25707 2.66012,-1.0671 6.73109,0.58103 4.96716,5.67159 -1.59682,4.61775 -5.05637,5.68108 -5.05637,5.68108 l -0.2886,-0.15761 c -0.96082,0.32471 -1.96715,0.47662 -2.95455,0.4044 -4.15635,-0.26579 -8.68872,-3.89424 -8.81591,-11.21963 -0.06639,-3.88306 1.23993,-7.1565 3.78045,-9.46723 3.42536,-3.11964 8.24251,-3.82605 11.31275,-3.48234 4.97857,0.5525 9.76531,3.17094 12.81286,7.00639 3.23355,4.07665 4.55316,9.48241 3.82216,15.6382 -0.72721,6.12538 -3.50314,11.15705 -8.0222,14.5444 C 89.09654,62.04367 82.25154,63.5532 75.35336,62.4007 64.16592,60.53416 53.21767,49.22902 53.94687,31.22878 54.18039,25.4395 55.81711,20.18184 58.67473,15.81088 55.0557,18.54134 48.81262,23.1211 40.0157,29.13824 23.20978,40.6371 10.74062,37.13968 4.67224,30.03448 0.28989,24.904 -1.2082,16.95592 1.0285,10.70892 2.72223,5.97536 6.36786,2.88802 11.29512,2.01082 c 1.26451,-0.22411 2.41525,-0.32471 3.46907,-0.32471 4.99556,0 7.70128,2.28984 9.13291,4.42024 2.73614,4.07668 2.31652,9.93244 0.36271,13.02549 -1.76773,2.78352 -4.47537,4.47725 -7.43359,4.65005 -2.51395,0.1348 -4.82479,-0.83731 -6.33049,-2.69434 -1.93674,-2.39242 -2.24243,-5.98297 -0.71012,-8.3469 0.91332,-1.41462 3.26014,-3.56774 8.70391,-2.13042 0.40442,0.11009 0.64363,0.52219 0.5373,0.9247 -0.10629,0.4006 -0.5164,0.63992 -0.92279,0.53921 -3.35314,-0.88862 -5.85389,-0.36261 -7.05011,1.48671 -1.17152,1.81333 -0.90191,4.70137 0.61902,6.57729 1.19242,1.47152 3.02852,2.25381 5.06586,2.13423 2.46652,-0.1424 4.74126,-1.57971 6.24318,-3.94947 C 24.6946,15.62108 24.96231,10.40892 22.64017,6.94946 20.51355,3.77664 16.6781,2.58803 11.56094,3.50133 5.95766,4.49623 3.51404,8.25198 2.45071,11.21782 0.41908,16.8932 1.8374,24.3914 5.81906,29.05286 c 5.64508,6.60579 17.36601,9.77093 33.34403,-1.16211 14.62048,-10.00453 22.20217,-16.04631 22.27809,-16.11281 0.17849,-0.14052 0.39691,-0.1785 0.6038,-0.1424 0.46142,-0.46141 0.93992,-0.91331 1.43362,-1.34622 -2.51962,1.38802 -4.64057,2.48174 -6.54498,3.28675 l -0.5924,0.5601 c 0,0 -4.74317,2.34503 -9.53945,2.58804 -5.48925,0.27721 -6.63986,-4.81148 -5.38105,-8.35832 0.78802,-2.21773 2.80833,-2.73613 4.26466,-2.26523 0.87341,0.28482 1.33101,1.00632 1.80191,1.69373 1.25882,1.83232 1.37474,4.46014 5.15317,4.57976 3.77856,0.1139 8.3583,-2.63544 8.3583,-2.63544 l -0.431,0.4082 C 61.73927,9.526 63.00389,8.8311 64.4071,8.0488 73.28563,3.09111 81.47684,2.92021 81.82054,2.91463 c 0.0038,0 0.0057,0 0.0114,0 0.06271,0 0.11769,0.01889 0.17281,0.03788 0.9987,-0.07209 2.01072,-0.1215 3.03804,-0.1215 4.27214,0 8.79881,0.64561 13.47726,1.94244 4.88556,1.35952 9.06282,3.29815 12.69518,5.67728 0.59809,-0.51073 1.367,-0.82402 2.21202,-0.82402 1.89872,0 3.43675,1.53412 3.43675,3.43294 0,0.5335 -0.1348,1.03482 -0.35321,1.48481 2.33554,2.11524 4.40326,4.44307 6.27348,6.9209 l 6.09877,-4.97276 3.43296,4.12216 -6.4652,5.30516 c 1.67282,2.65253 3.18605,5.41707 4.59877,8.2482 0.32281,-0.09689 0.65509,-0.15952 1.00821,-0.15952 1.99184,0 3.60574,1.61584 3.60574,3.60566 0,1.23993 -0.62469,2.32604 -1.57403,2.97546 0.73101,1.61962 1.44873,3.23923 2.16645,4.85506 1.12981,2.55003 2.29563,5.18164 3.48423,7.7184 4.53988,9.66852 9.71782,16.7451 14.11148,21.65156 C 141.0161,56.1803 142.63951,30.18637 153.67706,14.34506 160.20874,4.96715 170.65758,0 183.25394,0 c 3.73486,0.00569 7.66342,0.43858 11.73236,1.3272 1.78671,0.393 3.48613,0.90762 5.12286,1.49621 0.004,0 0.004,-0.00189 0.004,-0.00189 0.0854,0 0.16901,0.01329 0.2506,0.04559 0.0969,0.0285 1.21711,0.42532 2.85005,1.15633 0.0703,0.01709 0.1443,0.01899 0.21271,0.05891 0.14048,0.07588 0.30569,0.1671 0.4671,0.25438 0.6493,0.30571 1.3576,0.65321 2.10573,1.04622 0.14239,0.06651 0.28479,0.1291 0.4329,0.1956 l -0.62091,-0.3798 c 2.41333,1.26081 7.4659,3.32855 10.22292,1.95002 2.75504,-1.37851 1.03291,-5.39627 3.90567,-6.08547 2.87094,-0.69112 7.57987,3.67405 3.67413,7.1203 -3.90195,3.44244 -10.91023,1.26461 -10.91023,1.26461 l -0.3342,-0.207 c -0.16902,-0.0399 -0.33232,-0.08351 -0.49562,-0.12151 5.85959,4.30446 12.81668,10.62545 15.74641,13.34447 5.17035,4.80196 9.18242,8.15891 13.20966,10.07093 3.87915,1.83613 7.96152,2.34504 11.50075,1.42982 4.68617,-1.21521 6.8222,-4.58925 7.78871,-7.2153 1.61201,-4.36905 1.05762,-9.82033 -1.34813,-13.25707 -1.37849,-1.96711 -3.31145,-3.30952 -5.30136,-3.67984 -3.51645,-0.64932 -7.58359,0.88671 -8.2785,4.58745 -0.48041,2.56334 0.11009,4.86456 1.6215,6.3077 1.41645,1.35182 3.50127,1.79051 5.87848,1.2322 0.40642,-0.09871 0.80891,0.15572 0.90762,0.56021 0.0931,0.4101 -0.1557,0.8145 -0.5639,0.90752 -2.88423,0.67792 -5.47028,0.11211 -7.2665,-1.60634 -1.88742,-1.80571 -2.63934,-4.60445 -2.06391,-7.68039 0.86959,-4.62915 5.78356,-6.58106 10.03863,-5.78936 2.37732,0.43669 4.66144,2.0032 6.26407,4.29505 2.71513,3.87915 3.33224,9.7652 1.53032,14.64699 -1.54553,4.18294 -4.68036,7.08229 -8.83112,8.15129 z"
                 style="fill:#000000;fill-opacity:1;fill-rule:nonzero;stroke:#000000;stroke-width:0.3985;stroke-linecap:butt;stroke-linejoin:miter;stroke-miterlimit:10;stroke-dasharray:none;stroke-opacity:1"
                 id="path32" /><path
                 d="m 268.68465,38.76309 c 0.009,0.04171 0.0322,0.07588 0.0398,0.1196 0.0209,0.1595 2.19693,16.18689 -4.16203,33.67442 -2.59944,7.1507 -5.71909,11.94506 -8.47223,16.17932 -3.05513,4.68797 -5.46655,8.39431 -5.90898,13.50957 -0.4974,5.77037 2.87095,9.30774 6.43109,10.25713 3.08743,0.81833 5.86908,-0.32469 7.07098,-2.91463 1.59493,-3.44244 0.16903,-5.56908 -0.52027,-6.32098 -1.00063,-1.10502 -2.44745,-1.61772 -3.52405,-1.23222 -2.17026,0.76711 -1.12784,3.88296 -1.08043,4.01775 0.13479,0.3949 -0.0759,0.82212 -0.46901,0.96073 -0.39299,0.13289 -0.8221,-0.0721 -0.95882,-0.46523 -0.56199,-1.61203 -0.86389,-4.92535 2.00693,-5.93927 1.65384,-0.5829 3.72345,0.076 5.14377,1.63672 1.85513,2.03932 2.14374,5.02037 0.77091,7.98241 -1.50002,3.23353 -5.05065,4.74307 -8.82731,3.73103 -4.16966,-1.1089 -8.121,-5.20065 -7.5495,-11.84445 0.47279,-5.48926 3.10074,-9.52791 6.14818,-14.20077 2.70572,-4.16774 5.77989,-8.88432 8.3204,-15.8698 3.01323,-8.28992 4.06705,-16.23242 4.35376,-22.24579 -2.00311,10.17921 -7.27598,25.74142 -21.15966,38.6795 -5.69059,5.30517 -11.98687,9.36092 -18.10085,12.45966 l 0.46902,-0.0778 c -10.41653,5.73036 -20.48947,8.24811 -24.95534,9.96272 -4.46394,1.71642 -3.31904,5.60697 -3.31904,5.60697 -5.61086,0.6893 -10.64632,-4.68987 -7.783,-6.97979 2.85954,-2.28993 7.43931,-1.71643 14.87861,-3.09306 7.44319,-1.37089 14.65457,-4.46394 14.65457,-4.46394 l 0.73682,-0.1159 c 7.37849,-3.23354 15.35709,-7.84751 22.38818,-14.40198 19.61416,-18.27555 21.67429,-41.89986 21.88689,-47.25052 -7.23801,32.37182 -26.65463,41.61303 -33.04782,41.27702 -5.52918,-0.28859 -9.44623,-2.06021 -9.78803,-8.24059 -0.34561,-6.18429 8.92983,-6.52229 8.92983,-6.52229 -1.37474,6.86589 4.78485,9.95523 15.62489,2.05834 10.29503,-7.5058 16.6824,-24.56423 18.30202,-29.31108 0.006,-0.23551 0.006,-0.36461 0.006,-0.38741 -0.002,-0.03419 0.0133,-0.06641 0.0171,-0.09871 0.008,-0.05128 0.0114,-0.10058 0.0247,-0.14621 0.0171,-0.04748 0.0418,-0.08928 0.0665,-0.13289 0.0227,-0.03988 0.0455,-0.08169 0.0778,-0.11581 0.0285,-0.03609 0.0646,-0.06837 0.10249,-0.0988 0.0152,-0.0114 0.0285,-0.02849 0.0475,-0.03989 0.0475,-0.15759 0.0741,-0.23921 0.0741,-0.23921 -0.0152,0.07413 -0.0323,0.14241 -0.0456,0.21272 0.0133,-0.0057 0.0304,-0.0057 0.0437,-0.01332 0.0436,-0.0247 0.0892,-0.03989 0.13672,-0.05319 0.036,-0.01138 0.0645,-0.02851 0.10437,-0.03801 0.0266,0 0.057,0 0.0854,0 0.002,0 0.004,0 0.006,0 0.004,0 0.0114,0 0.0133,0 0.0969,0 0.1918,0.01901 0.27913,0.05131 0.0304,0.01329 0.0475,0.03231 0.0741,0.04749 0.0551,0.02652 0.11199,0.0607 0.15759,0.10253 0.0247,0.02277 0.0418,0.05128 0.0626,0.07778 0.038,0.04561 0.0741,0.0912 0.10069,0.1443 0.0152,0.03231 0.0247,0.07221 0.0361,0.10451 z"
                 style="fill:#000000;fill-opacity:1;fill-rule:nonzero;stroke:#000000;stroke-width:0.3985;stroke-linecap:butt;stroke-linejoin:miter;stroke-miterlimit:10;stroke-dasharray:none;stroke-opacity:1"
                 id="path34" /></g></g></g></g></g></g></svg>
