<?xml version="1.0" encoding="UTF-8" standalone="no"?>
<svg
   xmlns:dc="http://purl.org/dc/elements/1.1/"
   xmlns:cc="http://creativecommons.org/ns#"
   xmlns:rdf="http://www.w3.org/1999/02/22-rdf-syntax-ns#"
   xmlns:svg="http://www.w3.org/2000/svg"
   xmlns="http://www.w3.org/2000/svg"
   xmlns:sodipodi="http://sodipodi.sourceforge.net/DTD/sodipodi-0.dtd"
   xmlns:inkscape="http://www.inkscape.org/namespaces/inkscape"
   version="1.1"
   id="svg2"
   xml:space="preserve"
   width="37.719803"
   height="39.177204"
   viewBox="0 0 37.719803 39.177204"
   sodipodi:docname="vectorian187.pdf"><metadata
     id="metadata8"><rdf:RDF><cc:Work
         rdf:about=""><dc:format>image/svg+xml</dc:format><dc:type
           rdf:resource="http://purl.org/dc/dcmitype/StillImage" /></cc:Work></rdf:RDF></metadata><defs
     id="defs6" /><sodipodi:namedview
     pagecolor="#ffffff"
     bordercolor="#666666"
     borderopacity="1"
     objecttolerance="10"
     gridtolerance="10"
     guidetolerance="10"
     inkscape:pageopacity="0"
     inkscape:pageshadow="2"
     inkscape:window-width="640"
     inkscape:window-height="480"
     id="namedview4" /><g
     id="g10"
     inkscape:groupmode="layer"
     inkscape:label="vectorian187"
     transform="matrix(1.3333333,0,0,-1.3333333,-1.6102288,39.499732)"><g
       id="g12"
       transform="translate(72,-42.575)"><g
         id="g14"
         transform="translate(-70.593,43.017)"><g
           id="g16"><g
             id="g18"><path
               d="m 20.67354,5.80244 c 0,0 -1.32572,-0.51228 -1.47672,-1.41459 -0.15019,-0.90502 1.77724,-0.72331 1.47672,1.41459 M 8.69398,4.38785 C 8.5445,5.29016 7.21797,5.80244 7.21797,5.80244 6.91676,3.66454 8.84499,3.48283 8.69398,4.38785 m 5.74289,19.94296 c 5.72448,0 8.88822,-5.18147 8.97832,-9.97214 0.0902,-4.78937 -2.32023,-7.8022 -2.32023,-7.8022 0,0 0.6031,-1.14473 -0.09011,-2.38032 -0.69331,-1.23563 -2.38032,-0.93502 -2.10992,0.27118 0.27189,1.20343 1.74862,1.62623 1.74862,1.62623 -1.59692,1.38721 -3.58593,0 -4.36935,-1.62623 -0.78201,-1.6263 0,-3.85633 2.41113,-4.00804 2.40963,-0.14949 4.27295,2.32025 4.27295,2.32025 3.26213,4.00184 6.21689,12.12773 2.70813,18.53042 -3.50863,6.40129 -11.51164,6.77007 -11.51164,6.77007 h -0.41801 c 0,0 -8.0029,-0.36878 -11.51165,-6.77007 C -1.2828,14.88727 1.6712,6.76138 4.93405,2.75954 c 0,0 1.86252,-2.46974 4.27295,-2.32025 2.40971,0.15171 3.19315,2.38174 2.40971,4.00804 -0.78349,1.62623 -2.77172,3.01344 -4.36863,1.62623 0,0 1.47673,-0.4228 1.74782,-1.62623 C 9.2664,3.24113 7.57997,2.94052 6.88678,4.17615 6.19348,5.41174 6.79657,6.55647 6.79657,6.55647 c 0,0 -2.41034,3.01283 -2.32022,7.8022 0.09019,4.79067 3.25392,9.97214 8.9783,9.97214 z m -0.94731,-0.88863 c 0,0 -6.40199,-0.06008 -8.1252,-7.01669 0,0 -1.47673,-5.35496 1.84682,-9.54251 0,0 2.03133,0.9856 4.00115,-0.92282 C 13.18216,4.05183 12.62825,0.54318 9.67351,0.05069 6.71878,-0.44179 3.45593,2.63591 1.5483,7.56119 c -1.90908,4.92456 -2.9554,11.14213 2.40074,17.17601 0,0 3.57023,4.24635 9.91001,4.24635 h 0.17281 c 6.34048,0 9.91134,-4.24635 9.91134,-4.24635 5.35487,-6.03388 4.30855,-12.25145 2.40014,-17.17601 -1.90764,-4.92528 -5.17047,-8.00298 -8.12453,-7.5105 -2.95543,0.49249 -3.50944,4.00114 -1.53951,5.90947 1.96982,1.90842 4.00175,0.92282 4.00175,0.92282 3.32363,4.18755 1.84622,9.54251 1.84622,9.54251 -1.72391,6.95661 -8.1259,7.01669 -8.1259,7.01669 z"
               style="fill:#000000;fill-opacity:1;fill-rule:nonzero;stroke:#000000;stroke-width:0.3985;stroke-linecap:butt;stroke-linejoin:miter;stroke-miterlimit:10;stroke-dasharray:none;stroke-opacity:1"
               id="path20" /><path
               d="m 1.86452,13.19275 0.44049,0.0464 c 0.10521,-0.991 0.33681,-2.03743 0.73633,-3.12753 L 2.62543,9.9593 C 2.2135,11.08282 1.97452,12.16685 1.86452,13.19275"
               style="fill:#000000;fill-opacity:1;fill-rule:nonzero;stroke:#000000;stroke-width:0.3985;stroke-linecap:butt;stroke-linejoin:miter;stroke-miterlimit:10;stroke-dasharray:none;stroke-opacity:1"
               id="path22" /><path
               d="m 1.8467,15.7602 c 0.1141,1.2267 0.39282,2.33112 0.73364,3.28533 L 2.99832,18.89594 C 2.66771,17.97252 2.39862,16.90361 2.28801,15.71788 Z"
               style="fill:#000000;fill-opacity:1;fill-rule:nonzero;stroke:#000000;stroke-width:0.3985;stroke-linecap:butt;stroke-linejoin:miter;stroke-miterlimit:10;stroke-dasharray:none;stroke-opacity:1"
               id="path24" /><path
               d="m 3.32204,20.75854 c 0.69738,1.35854 1.3688,2.13515 1.37771,2.14533 l 0.3347,-0.29089 c 0,0 -0.03689,-0.043 -0.10731,-0.13251 -0.0703,-0.08949 -0.17209,-0.222 -0.295,-0.39891 -0.24661,-0.3504 -0.5779,-0.8667 -0.91531,-1.52521 z"
               style="fill:#000000;fill-opacity:1;fill-rule:nonzero;stroke:#000000;stroke-width:0.3985;stroke-linecap:butt;stroke-linejoin:miter;stroke-miterlimit:10;stroke-dasharray:none;stroke-opacity:1"
               id="path26" /><path
               d="m 26.35422,13.19275 -0.44049,0.0464 c -0.10591,-0.991 -0.33741,-2.03743 -0.73702,-3.12753 L 25.59273,9.9593 c 0.41179,1.12352 0.6523,2.20755 0.76149,3.23345"
               style="fill:#000000;fill-opacity:1;fill-rule:nonzero;stroke:#000000;stroke-width:0.3985;stroke-linecap:butt;stroke-linejoin:miter;stroke-miterlimit:10;stroke-dasharray:none;stroke-opacity:1"
               id="path28" /><path
               d="m 26.37132,15.7602 c -0.11339,1.2267 -0.3927,2.33112 -0.73291,3.28533 l -0.41729,-0.14959 c 0.32991,-0.92342 0.59899,-1.99233 0.70899,-3.17806 z"
               style="fill:#000000;fill-opacity:1;fill-rule:nonzero;stroke:#000000;stroke-width:0.3985;stroke-linecap:butt;stroke-linejoin:miter;stroke-miterlimit:10;stroke-dasharray:none;stroke-opacity:1"
               id="path30" /><path
               d="m 24.89601,20.75854 c -0.69741,1.35854 -1.36941,2.13515 -1.37762,2.14533 l -0.33541,-0.29089 c 0,0 0.03762,-0.043 0.1079,-0.13251 0.0704,-0.08949 0.1728,-0.222 0.29581,-0.39891 0.24592,-0.3504 0.5778,-0.8667 0.91451,-1.52521 z"
               style="fill:#000000;fill-opacity:1;fill-rule:nonzero;stroke:#000000;stroke-width:0.3985;stroke-linecap:butt;stroke-linejoin:miter;stroke-miterlimit:10;stroke-dasharray:none;stroke-opacity:1"
               id="path32" /></g></g></g></g></g></svg>
