<?xml version="1.0" encoding="UTF-8" standalone="no"?>
<svg
   xmlns:dc="http://purl.org/dc/elements/1.1/"
   xmlns:cc="http://creativecommons.org/ns#"
   xmlns:rdf="http://www.w3.org/1999/02/22-rdf-syntax-ns#"
   xmlns:svg="http://www.w3.org/2000/svg"
   xmlns="http://www.w3.org/2000/svg"
   xmlns:sodipodi="http://sodipodi.sourceforge.net/DTD/sodipodi-0.dtd"
   xmlns:inkscape="http://www.inkscape.org/namespaces/inkscape"
   version="1.1"
   id="svg2"
   xml:space="preserve"
   width="49.653332"
   height="40.439999"
   viewBox="0 0 49.653332 40.439999"
   sodipodi:docname="vectorian130.pdf"><metadata
     id="metadata8"><rdf:RDF><cc:Work
         rdf:about=""><dc:format>image/svg+xml</dc:format><dc:type
           rdf:resource="http://purl.org/dc/dcmitype/StillImage" /></cc:Work></rdf:RDF></metadata><defs
     id="defs6" /><sodipodi:namedview
     pagecolor="#ffffff"
     bordercolor="#666666"
     borderopacity="1"
     objecttolerance="10"
     gridtolerance="10"
     guidetolerance="10"
     inkscape:pageopacity="0"
     inkscape:pageshadow="2"
     inkscape:window-width="640"
     inkscape:window-height="480"
     id="namedview4" /><g
     id="g10"
     inkscape:groupmode="layer"
     inkscape:label="vectorian130"
     transform="matrix(1.3333333,0,0,-1.3333333,0,40.44)"><g
       id="g12"
       transform="translate(72,-41.674)"><g
         id="g14"
         transform="translate(-69.31,41.674)"><g
           id="g16"><g
             id="g18"><path
               d="M 14.27097,0.38928 C 8.6579,3.24432 3.75853,10.63463 2.08511,16.05098 c -1.67401,5.41638 0.1967,11.91197 3.74234,12.49937 3.54485,0.59421 4.82418,-1.47531 4.82418,-1.47531 0,0 -0.79981,-0.68992 -1.41524,-1.37292 C 7.07187,27.51894 4.06654,25.87971 3.85754,22.74467 3.66083,19.79395 6.52136,17.178 8.58409,17.0346 c 2.75665,-0.1981 5.02226,2.06953 4.82486,4.82207 -0.19668,2.75943 -2.10442,5.13637 -2.10442,5.13637 1.47672,1.27721 2.96644,1.99442 2.96644,1.99442 0,0 1.48893,-0.71721 2.96635,-1.99442 0,0 -1.90834,-2.37694 -2.10515,-5.13637 -0.196,-2.75254 2.06824,-5.02017 4.82497,-4.82207 2.06332,0.1434 4.92387,2.75935 4.72647,5.71007 -0.20901,3.13504 -3.21436,4.77427 -5.37877,2.95745 -0.61542,0.683 -1.41522,1.37292 -1.41522,1.37292 0,0 1.27992,2.06952 4.82486,1.47531 3.54484,-0.5874 5.41636,-7.08299 3.74154,-12.49937 C 24.78261,10.63463 19.88405,3.24432 14.27097,0.38928 M 9.3723,24.9098 c 0,0 1.04163,-1.3729 0.88592,-3.05313 -0.20971,-2.25393 -2.71984,-0.4439 -0.88592,3.05313 m 3.44585,-3.44244 C 12.71974,18.31183 9.96242,17.23262 8.68239,17.43071 7.4025,17.62192 5.61844,18.42792 4.94016,21.36496 c -0.88592,3.83854 2.16651,5.90808 4.13634,4.03665 0,0 -1.05791,-1.0724 -1.0586,-2.95064 0,-1.37971 0.66449,-2.36332 1.6495,-2.16522 0.94593,0.18439 1.89054,2.56133 -0.09019,5.06117 0.19331,0.23908 0.64891,0.7582 1.37012,1.33872 0,0 1.96983,-2.06954 1.87082,-5.21828 m 6.35208,3.44244 c 1.83323,-3.49703 -0.67753,-5.30706 -0.88651,-3.05313 -0.15579,1.68023 0.88651,3.05313 0.88651,3.05313 m -1.57573,1.77584 c 0.72062,-0.58052 1.17753,-1.09964 1.37013,-1.33872 -1.98073,-2.49984 -1.03682,-4.87678 -0.0901,-5.06117 0.98492,-0.1981 1.64882,0.78551 1.64882,2.16522 0,1.87824 -1.05872,2.95064 -1.05872,2.95064 1.96983,1.87143 5.02298,-0.19811 4.13635,-4.03665 -0.6775,-2.93704 -2.46223,-3.74304 -3.74223,-3.93425 -1.27933,-0.19809 -4.03667,0.88112 -4.13565,4.03665 -0.0977,3.14874 1.8714,5.21828 1.8714,5.21828 m 7.8773,1.07921 c -1.47742,1.33191 -5.16905,2.56132 -7.9756,-0.38932 -2.14401,1.47533 -2.28401,1.46163 -3.22523,1.87143 -0.94191,-0.4098 -1.08121,-0.3961 -3.22594,-1.87143 C 8.2392,30.32617 4.54675,29.09676 3.07004,27.76485 1.5927,26.43982 -2.69054,21.56296 2.47922,12.26025 7.64838,2.95064 14.27097,0 14.27097,0 c 0,0 6.62188,2.95064 11.79165,12.26025 5.16976,9.30271 0.8866,14.17957 -0.59082,15.5046"
               style="fill:#000000;fill-opacity:1;fill-rule:nonzero;stroke:#000000;stroke-width:0.3985;stroke-linecap:butt;stroke-linejoin:miter;stroke-miterlimit:10;stroke-dasharray:none;stroke-opacity:1"
               id="path20" /></g></g></g></g></g></svg>
