<?xml version="1.0" encoding="UTF-8" standalone="no"?>
<svg
   xmlns:dc="http://purl.org/dc/elements/1.1/"
   xmlns:cc="http://creativecommons.org/ns#"
   xmlns:rdf="http://www.w3.org/1999/02/22-rdf-syntax-ns#"
   xmlns:svg="http://www.w3.org/2000/svg"
   xmlns="http://www.w3.org/2000/svg"
   xmlns:sodipodi="http://sodipodi.sourceforge.net/DTD/sodipodi-0.dtd"
   xmlns:inkscape="http://www.inkscape.org/namespaces/inkscape"
   version="1.1"
   id="svg2"
   xml:space="preserve"
   width="100.72"
   height="60.279999"
   viewBox="0 0 100.72 60.279999"
   sodipodi:docname="vectorian136.pdf"><metadata
     id="metadata8"><rdf:RDF><cc:Work
         rdf:about=""><dc:format>image/svg+xml</dc:format><dc:type
           rdf:resource="http://purl.org/dc/dcmitype/StillImage" /></cc:Work></rdf:RDF></metadata><defs
     id="defs6"><clipPath
       clipPathUnits="userSpaceOnUse"
       id="clipPath56"><path
         d="M 0,0 H 72.22682 V 44.10385 H 0 Z"
         id="path54" /></clipPath></defs><sodipodi:namedview
     pagecolor="#ffffff"
     bordercolor="#666666"
     borderopacity="1"
     objecttolerance="10"
     gridtolerance="10"
     guidetolerance="10"
     inkscape:pageopacity="0"
     inkscape:pageshadow="2"
     inkscape:window-width="640"
     inkscape:window-height="480"
     id="namedview4" /><g
     id="g10"
     inkscape:groupmode="layer"
     inkscape:label="vectorian136"
     transform="matrix(1.3333333,0,0,-1.3333333,0,60.28)"><g
       id="g12"
       transform="translate(72,-26.791)"><g
         id="g14"
         transform="translate(-72,26.791)"><g
           id="g16"><g
             id="g18"><path
               d="m 0,25.51802 c 0,0 1.6987,-0.88791 5.53867,-0.14342 3.84054,0.73772 8.27139,2.87555 11.81625,3.68837 3.54555,0.81281 7.23588,0.8059 9.7487,-1.99443 2.58464,-2.87554 1.25543,-5.23878 0.59021,-5.90819 -0.66459,-0.6625 -2.36331,-1.32501 -3.69174,-0.1434 -1.32982,1.18163 -0.6653,2.58184 -0.222,2.95065 0.44331,0.3688 1.84622,0.96311 2.51085,-0.66252 0,0 0.07439,2.87555 -2.65836,3.46976 -2.73211,0.58739 -5.02224,-0.44401 -9.45372,-2.51354 -4.43075,-2.06272 -8.56579,-1.69393 -11.81564,-0.88113 0,0 3.76624,-0.8128 7.97639,0.66253 4.20876,1.47532 6.68199,2.80723 8.12311,3.25123 1.69872,0.51221 6.11377,0.84691 7.60691,-1.70073 1.25531,-2.14471 0.0737,-3.02583 0.0737,-3.02583 0,0 0.01301,1.79643 -1.77172,1.32512 -1.40432,-0.3689 -0.88662,-2.95063 0.81211,-3.17603 1.69801,-0.21861 3.32293,0.6693 3.10163,3.17603 -0.22201,2.51353 -3.17615,5.02708 -6.27699,5.02708 -3.10303,0 -6.05706,-1.33194 -10.19272,-2.58874 C 7.68057,25.07413 3.76613,23.44849 0,25.51802"
               style="fill:#000000;fill-opacity:1;fill-rule:nonzero;stroke:#000000;stroke-width:0.3985;stroke-linecap:butt;stroke-linejoin:miter;stroke-miterlimit:10;stroke-dasharray:none;stroke-opacity:1"
               id="path20" /><path
               d="m 24.00209,24.5618 c 0,0 -1.47742,0.8811 -3.98814,-0.3005 -2.51154,-1.18162 -5.98198,-5.02017 -11.81636,-3.17605 0,0 2.06751,-0.27321 4.80026,0.44391 3.91445,1.03821 7.75511,5.02707 11.00424,3.03264"
               style="fill:#000000;fill-opacity:1;fill-rule:nonzero;stroke:#000000;stroke-width:0.3985;stroke-linecap:butt;stroke-linejoin:miter;stroke-miterlimit:10;stroke-dasharray:none;stroke-opacity:1"
               id="path22" /><path
               d="m 22.96729,22.86108 c 0,0 -2.88035,0.0752 -5.31728,-2.14462 -2.43703,-2.21303 0,-3.98886 1.40422,-3.24446 0,0 -1.10782,-0.7444 -2.21642,0 -1.10783,0.73773 -0.99991,3.26495 2.43702,4.72658 2.95485,1.24991 3.69246,0.6625 3.69246,0.6625"
               style="fill:#000000;fill-opacity:1;fill-rule:nonzero;stroke:#000000;stroke-width:0.3985;stroke-linecap:butt;stroke-linejoin:miter;stroke-miterlimit:10;stroke-dasharray:none;stroke-opacity:1"
               id="path24" /><path
               d="m 24.666,20.71646 c 0,0 -2.95343,0.30049 -4.35635,-1.76903 -1.40432,-2.06964 -0.22271,-3.86595 1.25401,-3.42195 1.47812,0.4439 1.25614,2.09003 1.25614,2.09003 0,0 0.66459,-2.58864 -1.77184,-2.50673 -2.19113,0.06828 -2.30033,2.80724 -0.81272,4.35767 1.23072,1.27729 2.73205,1.6188 4.43076,1.25001"
               style="fill:#000000;fill-opacity:1;fill-rule:nonzero;stroke:#000000;stroke-width:0.3985;stroke-linecap:butt;stroke-linejoin:miter;stroke-miterlimit:10;stroke-dasharray:none;stroke-opacity:1"
               id="path26" /><path
               d="m 25.18372,17.24672 c 0,0 -0.22132,1.62549 1.47741,2.28801 1.69792,0.66942 2.65824,-1.62552 1.47663,-3.54485 -1.18163,-1.91932 -4.50518,-1.91932 -4.94777,0.96314 -0.4433,2.88232 2.28941,3.61992 2.28941,3.61992 0,0 -2.37071,-0.80591 -1.77312,-3.61992 0.51712,-2.43843 3.61936,-2.14473 4.21016,-0.29372 0.49732,1.5572 0.1476,2.58183 -0.73901,2.58183 -0.88591,0 -1.91991,-0.66263 -1.99371,-1.99441"
               style="fill:#000000;fill-opacity:1;fill-rule:nonzero;stroke:#000000;stroke-width:0.3985;stroke-linecap:butt;stroke-linejoin:miter;stroke-miterlimit:10;stroke-dasharray:none;stroke-opacity:1"
               id="path28" /><path
               d="m 72.22682,25.51802 c 0,0 -1.69864,-0.88791 -5.53927,-0.14342 -3.83925,0.73772 -8.2714,2.87555 -11.81625,3.68837 -3.54496,0.81281 -7.236,0.8059 -9.74813,-1.99443 -2.58525,-2.87554 -1.25542,-5.23878 -0.59152,-5.90819 0.66531,-0.6625 2.36393,-1.32501 3.69316,-0.1434 1.32911,1.18163 0.66522,2.58184 0.222,2.95065 -0.4433,0.3688 -1.84622,0.96311 -2.51084,-0.66252 0,0 -0.0745,2.87555 2.65764,3.46976 2.73273,0.58739 5.02227,-0.44401 9.45372,-2.51354 4.43076,-2.06272 8.56711,-1.69393 11.81626,-0.88113 0,0 -3.76616,-0.8128 -7.9756,0.66253 -4.21016,1.47532 -6.68269,2.80723 -8.12392,3.25123 -1.69861,0.51221 -6.11437,0.84691 -7.6068,-1.70073 -1.2554,-2.14471 -0.07379,-3.02583 -0.07379,-3.02583 0,0 -0.01361,1.79643 1.77242,1.32512 1.40301,-0.3689 0.8859,-2.95063 -0.8127,-3.17603 -1.69803,-0.21861 -3.32366,0.6693 -3.10234,3.17603 0.22268,2.51353 3.17674,5.02708 6.27836,5.02708 3.10155,0 6.05568,-1.33194 10.19135,-2.58874 4.13505,-1.2567 8.04941,-2.88234 11.81625,-0.81281"
               style="fill:#000000;fill-opacity:1;fill-rule:nonzero;stroke:#000000;stroke-width:0.3985;stroke-linecap:butt;stroke-linejoin:miter;stroke-miterlimit:10;stroke-dasharray:none;stroke-opacity:1"
               id="path30" /><path
               d="m 48.22551,24.5618 c 0,0 1.47662,0.8811 3.98674,-0.3005 2.51145,-1.18162 5.98328,-5.02017 11.81765,-3.17605 0,0 -2.06821,-0.27321 -4.80096,0.44391 -3.91374,1.03821 -7.75438,5.02707 -11.00343,3.03264"
               style="fill:#000000;fill-opacity:1;fill-rule:nonzero;stroke:#000000;stroke-width:0.3985;stroke-linecap:butt;stroke-linejoin:miter;stroke-miterlimit:10;stroke-dasharray:none;stroke-opacity:1"
               id="path32" /><path
               d="m 49.25891,22.86108 c 0,0 2.87955,0.0752 5.31728,-2.14462 2.43702,-2.21303 0,-3.98886 -1.40361,-3.24446 0,0 1.10859,-0.7444 2.21572,0 1.10792,0.73773 0.9999,3.26495 -2.43702,4.72658 -2.95336,1.24991 -3.69237,0.6625 -3.69237,0.6625"
               style="fill:#000000;fill-opacity:1;fill-rule:nonzero;stroke:#000000;stroke-width:0.3985;stroke-linecap:butt;stroke-linejoin:miter;stroke-miterlimit:10;stroke-dasharray:none;stroke-opacity:1"
               id="path34" /><path
               d="m 47.5602,20.71646 c 0,0 2.95404,0.30049 4.35696,-1.76903 1.40361,-2.06964 0.2213,-3.86595 -1.25471,-3.42195 -1.47802,0.4439 -1.25603,2.09003 -1.25603,2.09003 0,0 -0.66462,-2.58864 1.77243,-2.50673 2.19043,0.06828 2.30043,2.80724 0.8121,4.35767 -1.2308,1.27729 -2.73204,1.6188 -4.43075,1.25001"
               style="fill:#000000;fill-opacity:1;fill-rule:nonzero;stroke:#000000;stroke-width:0.3985;stroke-linecap:butt;stroke-linejoin:miter;stroke-miterlimit:10;stroke-dasharray:none;stroke-opacity:1"
               id="path36" /><path
               d="m 47.0432,17.24672 c 0,0 0.22189,1.62549 -1.47672,2.28801 -1.69803,0.66942 -2.65974,-1.62552 -1.47741,-3.54485 1.18159,-1.91932 4.50524,-1.91932 4.94856,0.96314 0.4425,2.88232 -2.29024,3.61992 -2.29024,3.61992 0,0 2.37143,-0.80591 1.77382,-3.61992 -0.517,-2.43843 -3.61934,-2.14473 -4.21086,-0.29372 -0.49719,1.5572 -0.14751,2.58183 0.73901,2.58183 0.8859,0 1.92074,-0.66263 1.99384,-1.99441"
               style="fill:#000000;fill-opacity:1;fill-rule:nonzero;stroke:#000000;stroke-width:0.3985;stroke-linecap:butt;stroke-linejoin:miter;stroke-miterlimit:10;stroke-dasharray:none;stroke-opacity:1"
               id="path38" /><path
               d="m 42.66904,17.44472 c -0.28481,-0.6557 -0.6761,-1.13382 -1.11463,-1.48892 v 7.88891 h 0.0587 c 0.6147,-2.17204 1.91043,-4.43288 1.05593,-6.39999 m -4.33306,-2.45885 c -1.08261,0 -2.20684,1.91923 -1.28003,3.05306 0.36342,0.444 0.72683,0.55329 1.02932,0.5328 l 0.2323,-0.041 c 0.30803,-0.0956 0.51092,-0.30051 0.51092,-0.30051 0,0 -0.03422,0.29371 -0.32722,0.4713 v 5.14319 h 1.25813 v -8.71542 c -0.5471,-0.12293 -1.05321,-0.14342 -1.42342,-0.14342 m -0.25071,8.85884 v -5.02708 c -0.1919,0.01359 -0.43032,-0.0068 -0.73349,-0.0956 -0.12093,-0.03419 -0.23023,-0.0957 -0.32721,-0.1776 v 5.30028 z m 3.05314,0 V 15.6621 C 40.8242,15.4708 40.4977,15.33418 40.17601,15.23857 v 8.60614 z M 30.7988,24.2408 c 0.04788,0.1981 0.08879,0.39621 0.12028,0.5874 0.39412,2.46573 -1.28,3.94107 -1.28,3.94107 5.71137,-2.56135 6.51538,-1.96715 6.51538,-1.96715 0,0 0.8039,-0.5942 6.51458,1.96715 0,0 -1.67403,-1.47534 -1.28063,-3.94107 0.03211,-0.19119 0.07311,-0.3893 0.12091,-0.5874 z m 4.43083,-5.65537 c -0.08339,0.06141 -0.17349,0.1092 -0.2733,0.1366 -0.1461,0.04781 -0.27519,0.0683 -0.39339,0.08189 v 5.04079 h 0.66669 z M 33.9721,14.98587 c -0.2684,0 -0.60917,0.0068 -0.98489,0.0614 v 8.79744 h 1.15912 v -5.02708 c -0.61131,-0.082 -0.66663,-0.58741 -0.66663,-0.58741 0,0 0.27251,0.27321 0.66663,0.33471 l 0.41661,-0.0342 c 0.21858,-0.06152 0.4536,-0.20491 0.6892,-0.4918 0.92752,-1.13383 -0.1967,-3.05306 -1.28004,-3.05306 m -2.46162,8.85884 h 1.06014 v -8.72223 c -0.34492,0.07509 -0.70632,0.1844 -1.06014,0.3551 z m -1.8714,-6.39999 c -0.85452,1.96711 0.44118,4.22795 1.0559,6.39999 h 0.39891 v -8.13483 c -0.5744,0.36882 -1.09833,0.91521 -1.45481,1.73484 m 13.71917,3.25123 c -1.08332,3.54485 -2.55993,5.21827 0,8.66071 0,0 -3.85564,-1.57092 -7.20379,-1.57092 -3.34825,0 -7.20462,1.57092 -7.20462,1.57092 2.56064,-3.44244 1.08333,-5.11586 0,-8.66071 -0.82778,-2.71164 0.53003,-4.67185 2.49173,-5.53247 l 0.06891,-0.082 v 0.05458 c 0.58612,-0.2527 1.22333,-0.40289 1.87084,-0.45068 2.21573,-0.1503 2.77034,2.12413 2.26492,3.33993 v 5.8194 h 0.96242 v -5.9628 c -0.40642,-1.24311 0.1885,-3.34004 2.31813,-3.19653 2.85643,0.19798 5.51475,2.46562 4.43146,6.01057"
               style="fill:#000000;fill-opacity:1;fill-rule:nonzero;stroke:#000000;stroke-width:0.3985;stroke-linecap:butt;stroke-linejoin:miter;stroke-miterlimit:10;stroke-dasharray:none;stroke-opacity:1"
               id="path40" /><path
               d="m 32.98651,26.93874 0.29852,-0.91523 h 0.9617 l -0.77861,-0.5601 0.29711,-0.91522 -0.77872,0.56001 -0.77861,-0.56001 0.2971,0.91522 -0.77731,0.5601 h 0.9617 z"
               style="fill:#000000;fill-opacity:1;fill-rule:nonzero;stroke:#000000;stroke-width:0.3985;stroke-linecap:butt;stroke-linejoin:miter;stroke-miterlimit:10;stroke-dasharray:none;stroke-opacity:1"
               id="path42" /><path
               d="m 36.05054,26.93874 0.2978,-0.91523 h 0.96244 l -0.77863,-0.5601 0.29781,-0.91522 -0.77942,0.56001 -0.7786,-0.56001 0.29781,0.91522 -0.77861,0.5601 h 0.96231 z"
               style="fill:#000000;fill-opacity:1;fill-rule:nonzero;stroke:#000000;stroke-width:0.3985;stroke-linecap:butt;stroke-linejoin:miter;stroke-miterlimit:10;stroke-dasharray:none;stroke-opacity:1"
               id="path44" /><path
               d="m 39.49709,26.93874 0.2978,-0.91523 h 0.96173 l -0.77802,-0.5601 0.2972,-0.91522 -0.77871,0.56001 -0.7786,-0.56001 0.29779,0.91522 -0.7793,0.5601 h 0.96232 z"
               style="fill:#000000;fill-opacity:1;fill-rule:nonzero;stroke:#000000;stroke-width:0.3985;stroke-linecap:butt;stroke-linejoin:miter;stroke-miterlimit:10;stroke-dasharray:none;stroke-opacity:1"
               id="path46" /><path
               d="m 36.53215,35.95465 c 0,0 1.08322,-7.0898 -7.6806,-6.10619 0,0 2.95405,0.39611 4.62815,3.54485 1.67344,3.15555 -0.19738,6.50239 -2.56062,7.88211 0,0 0.78821,0.4917 3.84055,-2.16524 0,0 -1.08321,2.16524 -2.65893,3.05313 -1.57513,0.88112 -2.36333,0.29372 -2.36333,0.29372 0,0 -0.4917,1.18163 1.47743,1.57094 1.96982,0.39618 2.85573,-0.88113 3.74153,-0.88113 0.88661,0 3.44725,0.68991 5.41637,-2.56131 1.96853,-3.25116 0.68852,-7.97773 3.34684,-10.83277 0,0 -4.62745,0.19811 -4.23334,6.50238 0,0 0.4924,-4.63086 3.24914,-5.71687 0,0 -0.78681,0 -1.57502,5.02707 -0.78762,5.02019 -2.36334,7.97081 -6.20399,7.18539 0,0 -3.74153,2.45883 -5.02156,0.0956 0,0 1.67413,0.79233 2.95415,-0.68302 1.2799,-1.48221 2.36322,-3.35361 3.44584,-4.43284 0,0 -1.47673,0.68993 -3.44584,2.36334 0,0 1.87071,-1.28411 1.77243,-4.43286 -0.09841,-3.14875 -2.26495,-4.63087 -3.93908,-5.61447 0,0 1.87083,-0.19802 3.54496,1.08601 1.67412,1.2773 2.16652,4.13225 2.26492,4.82216"
               style="fill:#000000;fill-opacity:1;fill-rule:nonzero;stroke:#000000;stroke-width:0.3985;stroke-linecap:butt;stroke-linejoin:miter;stroke-miterlimit:10;stroke-dasharray:none;stroke-opacity:1"
               id="path48" /><path
               d="m 35.54784,41.96524 c 0,0 0.39351,-1.08603 0.39351,-1.67343 0,0 -0.68921,-0.198 -1.18102,0.98361 -0.4931,1.18161 -0.198,1.57091 0.39342,0.88789 0,0 -0.78752,0.09563 0,-0.88789 0.7876,-0.98361 0.39409,0.68982 0.39409,0.68982"
               style="fill:#000000;fill-opacity:1;fill-rule:nonzero;stroke:#000000;stroke-width:0.3985;stroke-linecap:butt;stroke-linejoin:miter;stroke-miterlimit:10;stroke-dasharray:none;stroke-opacity:1"
               id="path50" /><g
               id="g52"
               clip-path="url(#clipPath56)"><path
                 d="m 35.97615,14.58966 h 1.26631 c 1.32914,-1.3318 3.69246,0.2937 5.46488,-1.91922 1.25471,-1.57101 0.5908,-3.40144 0.5908,-3.40144 -0.73831,4.58307 -5.76057,4.28247 -5.76057,4.28247 8.27139,-3.68827 3.84054,-7.97081 3.84054,-7.97081 1.47672,1.62562 0.77532,3.73614 -0.44319,4.72647 -2.36332,1.91931 -4.13576,3.39464 -4.13576,3.39464 0.59079,-3.10096 3.10163,-3.25115 3.98754,-5.75787 1.12083,-3.17605 -1.92002,-6.5024 -1.92002,-6.5024 2.21573,3.69514 1.47742,5.90817 0.14822,7.5338 -1.32983,1.62551 -2.36324,3.98886 -2.36324,3.98886 0.1475,-2.36335 0.88591,-2.80724 1.62491,-6.93959 0.73833,-4.13906 -2.06821,-6.05835 -2.06821,-6.05835 0,0 1.18159,1.03138 1.18159,4.57623 0,3.54485 -1.26561,5.46417 -1.4138,7.39029 -0.14749,-1.92612 -1.41321,-3.84544 -1.41321,-7.39029 0,-3.54485 1.1816,-4.57623 1.1816,-4.57623 0,0 -2.80713,1.91929 -2.06812,6.05835 0.73831,4.13235 1.47672,4.57624 1.62422,6.93959 0,0 -1.03341,-2.36335 -2.36323,-3.98886 -1.32923,-1.62563 -2.06752,-3.83866 0.14821,-7.5338 0,0 -3.04085,3.32635 -1.92002,6.5024 0.8859,2.50672 3.39734,2.65691 3.98754,5.75787 0,0 -1.77182,-1.47533 -4.13506,-3.39464 -1.21922,-0.99033 -1.92062,-3.10085 -0.444,-4.72647 0,0 -4.43075,4.28254 3.84065,7.97081 0,0 -5.02226,0.3006 -5.76059,-4.28247 0,0 -0.66391,1.83043 0.59153,3.40144 1.77241,2.21292 4.13565,0.58742 5.46417,1.91922 z"
                 style="fill:#000000;fill-opacity:1;fill-rule:nonzero;stroke:#000000;stroke-width:0.3985;stroke-linecap:butt;stroke-linejoin:miter;stroke-miterlimit:10;stroke-dasharray:none;stroke-opacity:1"
                 id="path58" /></g></g></g></g></g></g></svg>
