<?xml version="1.0" encoding="UTF-8" standalone="no"?>
<svg
   xmlns:dc="http://purl.org/dc/elements/1.1/"
   xmlns:cc="http://creativecommons.org/ns#"
   xmlns:rdf="http://www.w3.org/1999/02/22-rdf-syntax-ns#"
   xmlns:svg="http://www.w3.org/2000/svg"
   xmlns="http://www.w3.org/2000/svg"
   xmlns:sodipodi="http://sodipodi.sourceforge.net/DTD/sodipodi-0.dtd"
   xmlns:inkscape="http://www.inkscape.org/namespaces/inkscape"
   version="1.1"
   id="svg2"
   xml:space="preserve"
   width="95.893333"
   height="76.080002"
   viewBox="0 0 95.893333 76.080002"
   sodipodi:docname="vectorian021.pdf"><metadata
     id="metadata8"><rdf:RDF><cc:Work
         rdf:about=""><dc:format>image/svg+xml</dc:format><dc:type
           rdf:resource="http://purl.org/dc/dcmitype/StillImage" /></cc:Work></rdf:RDF></metadata><defs
     id="defs6"><clipPath
       clipPathUnits="userSpaceOnUse"
       id="clipPath24"><path
         d="M -0.37999,-0.8 H 68.22089 V 56.26073 H -0.37999 Z"
         id="path22" /></clipPath></defs><sodipodi:namedview
     pagecolor="#ffffff"
     bordercolor="#666666"
     borderopacity="1"
     objecttolerance="10"
     gridtolerance="10"
     guidetolerance="10"
     inkscape:pageopacity="0"
     inkscape:pageshadow="2"
     inkscape:window-width="640"
     inkscape:window-height="480"
     id="namedview4" /><g
     id="g10"
     inkscape:groupmode="layer"
     inkscape:label="vectorian021"
     transform="matrix(1.3333333,0,0,-1.3333333,0,76.08)"><g
       id="g12"
       transform="translate(72,-14.94)"><g
         id="g14"
         transform="translate(-71.62,15.74)"><g
           id="g16"><g
             id="g18"><g
               id="g20"
               clip-path="url(#clipPath24)"><path
                 d="m 45.79257,21.40186 c 4.94698,3.11524 8.65952,4.81765 11.36576,5.74728 H 41.64102 C 38.03917,21.64507 31.90948,23.61949 31.90948,23.61949 18.56422,26.68994 0,27.99394 0,27.99394 c 16.7218,1.60643 27.46114,3.90726 33.06122,5.21446 4.54996,1.05762 7.63128,-3.20004 8.6243,-4.83204 h 15.2509 c -2.68613,0.94401 -6.33757,2.64161 -11.14385,5.67207 -12.65646,7.97771 -19.63623,18.64023 -20.48007,21.40025 0,0 7.97673,-8.89768 22.09259,-12.88655 0,0 11.35025,-2.14883 4.90776,-9.89613 0,0 2.76123,-3.39043 8.73772,-4.43684 0.30781,1.54081 1.62352,2.70242 3.22813,2.80644 v 2.55522 c 0,0 -5.82976,1.60802 -4.52576,6.51688 1.30544,4.91046 4.14287,6.6721 4.83367,14.03857 0,0 2.99045,-4.37285 3.37506,-11.27693 0.38271,-6.90248 -2.99234,-8.97454 -2.99234,-8.97454 v -2.88 c 1.72971,-0.22882 3.06882,-1.68965 3.06882,-3.48166 0,-1.79042 -1.33911,-3.25445 -3.06882,-3.48166 v -2.49601 c 0,0 3.37505,-2.07203 2.99234,-8.97612 C 67.57706,5.67686 64.58661,1.304 64.58661,1.304 c -0.6908,7.3617 -3.52823,9.12813 -4.83367,14.03859 -1.304,4.90886 4.52576,6.51846 4.52576,6.51846 v 2.16964 C 62.5475,24.1427 61.16779,25.4963 61.01146,27.21474 55.0629,26.15712 52.31285,22.78268 52.31285,22.78268 58.75534,15.03218 47.40509,12.88815 47.40509,12.88815 33.28923,8.90091 25.3125,0 25.3125,0 c 0.84384,2.76323 7.82361,13.42416 20.48007,21.40186 z"
                 style="fill:#000000;fill-opacity:1;fill-rule:nonzero;stroke:#000000;stroke-width:0.3985;stroke-linecap:butt;stroke-linejoin:miter;stroke-miterlimit:10;stroke-dasharray:none;stroke-opacity:1"
                 id="path26" /></g></g></g></g></g></g></svg>
