<?xml version="1.0" encoding="UTF-8" standalone="no"?>
<svg
   xmlns:dc="http://purl.org/dc/elements/1.1/"
   xmlns:cc="http://creativecommons.org/ns#"
   xmlns:rdf="http://www.w3.org/1999/02/22-rdf-syntax-ns#"
   xmlns:svg="http://www.w3.org/2000/svg"
   xmlns="http://www.w3.org/2000/svg"
   xmlns:sodipodi="http://sodipodi.sourceforge.net/DTD/sodipodi-0.dtd"
   xmlns:inkscape="http://www.inkscape.org/namespaces/inkscape"
   version="1.1"
   id="svg2"
   xml:space="preserve"
   width="275.73978"
   height="119.21084"
   viewBox="0 0 275.73977 119.21084"
   sodipodi:docname="vectorian077.pdf"><metadata
     id="metadata8"><rdf:RDF><cc:Work
         rdf:about=""><dc:format>image/svg+xml</dc:format><dc:type
           rdf:resource="http://purl.org/dc/dcmitype/StillImage" /></cc:Work></rdf:RDF></metadata><defs
     id="defs6"><clipPath
       clipPathUnits="userSpaceOnUse"
       id="clipPath26"><path
         d="M -0.00108,0 H 206.80376 V 89.40813 H -0.00108 Z"
         id="path24" /></clipPath></defs><sodipodi:namedview
     pagecolor="#ffffff"
     bordercolor="#666666"
     borderopacity="1"
     objecttolerance="10"
     gridtolerance="10"
     guidetolerance="10"
     inkscape:pageopacity="0"
     inkscape:pageshadow="2"
     inkscape:window-width="640"
     inkscape:window-height="480"
     id="namedview4" /><g
     id="g10"
     inkscape:groupmode="layer"
     inkscape:label="vectorian077"
     transform="matrix(1.3333333,0,0,-1.3333333,1.0666666e-4,119.21084)"><g
       id="g12"
       transform="translate(72,17.407)"><g
         id="g14"
         transform="translate(-71.999,-17.407)"><g
           id="g16"><g
             id="g18"><path
               d="m 131.40808,75.04045 c 1.45441,0 2.78244,0.51201 3.82884,1.36002 1.77764,-1.87203 3.54085,-4.97606 4.20964,-6.30408 l 1.15523,0.57601 c -0.1056,0.208 -2.12482,4.20805 -4.45285,6.64008 0.84961,1.04002 1.36322,2.38402 1.36322,3.84005 0,3.37603 -2.73443,6.09607 -6.10408,6.09607 -3.37125,0 -6.10248,-2.72004 -6.10248,-6.09607 0,-3.37604 2.73123,-6.11208 6.10248,-6.11208 z"
               style="fill:#000000;fill-opacity:1;fill-rule:nonzero;stroke:#000000;stroke-width:0.3985;stroke-linecap:butt;stroke-linejoin:miter;stroke-miterlimit:10;stroke-dasharray:none;stroke-opacity:1"
               id="path20" /><g
               id="g22"
               clip-path="url(#clipPath26)"><path
                 d="m 201.06017,41.29602 c -5.38567,9.69612 -13.64498,13.28017 -13.64498,13.28017 -17.2306,11.85615 -37.33807,7.18411 -37.33807,7.18411 -1.53121,0 -2.26242,4.25603 -2.56165,8.09608 3.05925,0.064 5.52489,2.56003 5.52489,5.63207 0,3.13605 -2.53444,5.66408 -5.65608,5.66408 -3.12163,0 -5.65607,-2.52803 -5.65607,-5.66408 0,-2.64002 1.82402,-4.83205 4.27365,-5.45607 0.0544,-0.15999 0.064,-0.256 0.016,-0.23999 -0.29921,-4.01607 1.54402,-8.03209 1.54402,-8.03209 l -8.97452,-0.35202 c 3.23044,3.23202 -1.43841,11.48813 -6.82247,7.53609 -5.3841,-3.95205 0.36,-8.97611 0.36,-8.97611 -29.7972,-2.16003 -35.18606,0 -44.16376,6.46408 -8.97454,6.46407 -10.40976,17.23223 -10.40976,17.23223 0,0 -5.38727,-4.30407 -16.1554,-2.51204 -10.77295,1.79202 -16.1602,8.2561 -16.1602,8.2561 0,0 0,-6.81607 -5.38438,-7.9041 -5.38537,-1.072 -17.59093,0 -17.59093,0 C 24.4137,76.48048 21.90108,72.89641 13.28227,71.1044 4.66585,69.29639 0,66.43234 0,66.43234 c 2.86903,-2.88004 4.30705,0 16.5135,-4.30404 12.20955,-4.32007 7.54068,-13.64818 7.54068,-13.64818 4.54697,1.184 10.23134,1.44 10.23134,1.44 0,0 0.20951,0.03203 0.51171,0.06401 C 32.4543,46.76808 27.48544,40.32 22.61978,36.99197 15.797,32.3199 11.48843,35.19994 11.48843,35.19994 14.71967,25.1358 3.94774,19.75975 3.94774,19.75975 15.43839,11.48764 0.7166,4.31955 0.7166,4.31955 5.38516,3.59953 7.17897,6.46356 12.56656,8.6236 c 5.38455,2.16002 6.46268,0.35199 6.46268,0.35199 -0.36022,7.90411 9.33451,7.90411 9.33451,7.90411 -1.07832,9.69614 5.38436,11.13615 5.38436,11.13615 -4.66564,1.44001 -6.10317,6.09607 -5.02506,9.32813 0.78742,2.36802 5.97499,9.4081 8.53131,12.78416 0.01491,-0.01602 0.0219,-0.03201 0,-0.06401 10.12864,-0.848 10.13824,-8.04811 10.13824,-8.04811 0,0 3.94885,3.58405 12.20495,3.58405 8.26091,0 11.85136,-6.09607 11.85136,-6.09607 0,0 0.35521,5.02406 11.12813,11.48814 10.77135,6.4641 28.72518,5.02406 39.85333,6.09607 11.13133,1.08803 23.69791,1.80803 23.69791,1.80803 -7.54091,-3.23204 -17.23543,-12.57616 -26.56996,-13.64816 -9.33452,-1.07202 -14.36177,2.86401 -14.36177,2.86401 0,-14.35217 -22.26109,-17.95222 -22.26109,-17.95222 8.9793,-10.04813 -8.97451,-25.84032 -8.97451,-25.84032 0,0 4.30884,2.51201 12.20655,5.02406 7.89929,2.51203 12.20657,0.35199 8.9745,-3.23205 -3.23044,-3.58405 -2.51203,-6.11205 -2.51203,-6.11205 14.72181,10.41611 20.82589,0.71997 20.82589,0.71997 7.54087,18.32025 21.18104,16.52822 21.18104,16.52822 -5.38405,13.28018 7.18091,16.86422 7.18091,16.86422 -14.36177,12.20816 7.54089,24.06432 7.54089,24.06432 C 161.56526,39.85599 179.5191,47.4081 179.5191,47.4081 175.56866,39.13599 165.51572,40.224 165.51572,40.224 167.66776,31.9679 155.4628,25.5038 155.4628,25.5038 c 6.10246,-2.16002 2.87044,-8.9761 1.0768,-12.57614 -1.79682,-3.58405 -1.43682,-5.02406 -1.43682,-5.02406 7.90092,9.3281 13.28498,3.23202 13.28498,3.23202 5.74408,10.76816 12.20655,6.4641 12.20655,6.4641 -2.15362,12.56015 8.25931,15.07218 8.25931,15.07218 -11.49136,5.04006 -3.23204,17.24822 -3.23204,17.24822 4.31046,0 11.48815,-11.13614 14.71858,-16.52822 3.23204,-5.37605 1.43844,-9.3281 1.43844,-9.3281 l -3.59365,-0.35201 c -4.30726,-1.44002 -3.22886,-8.62413 2.15521,-8.27211 5.38569,0.368 6.4625,5.76006 6.4625,10.78414 0,5.02408 -0.3584,5.37606 -5.74249,15.0722 z M 12.20735,14.01567 c 0,0 8.6156,11.48813 11.12714,19.02425 0,0 2.15721,1.44001 2.15721,-1.79202 0,-3.23205 -7.54059,-16.88024 -13.28435,-17.23223 z m 42.72453,58.16075 c 1.07842,0 -6.10246,-3.95205 -10.05241,7.9041 0,0 8.97882,-7.9041 10.05241,-7.9041 z M 49.90782,61.04028 C 46.67639,58.17624 40.2138,54.22417 36.98256,56.3842 c 0,0 12.56526,7.88811 14.00368,9.68015 1.43362,1.80803 2.15204,-2.14405 -1.07842,-5.02407 z m 35.54447,-2.86404 c -2.91684,0.20801 -4.75045,2.46402 -10.32013,4.60805 -2.79364,-1.58402 -8.0961,-4.75206 -13.73618,-8.91209 0,0 3.40164,6.43206 10.19052,10.08012 -3.84164,1.08801 -9.0193,2.03202 -16.2946,2.48002 -23.3376,1.44004 -23.6969,-3.95205 -38.41591,0 0,0 20.10657,3.58406 37.6975,3.23204 5.74728,-0.11201 11.06253,-1.00801 15.7906,-2.20802 -1.33121,2.72003 -2.70564,6.60808 -1.42882,9.39212 0,0 3.50084,-6.75209 6.53768,-10.86414 7.1537,-2.30404 12.43856,-5.02406 15.00341,-6.01608 0,0 0,-2.16003 -5.02407,-1.79202 z M 132.1249,40.94402 c -1.58243,-1.79202 -4.15366,-4.54406 -8.29452,-7.74412 -0.82241,-2.88001 -2.41923,-10.01611 0.39681,-14.51217 0,0 -5.38408,1.42401 -3.95046,11.84015 l 0.31041,0.304 c -2.84484,-1.95203 -6.25609,-4.00005 -10.36334,-6.04808 -0.4464,-0.224 -0.8928,-0.44802 -1.33762,-0.67201 -1.2192,-3.56804 -3.20002,-9.5681 -3.68963,-12.25615 0,0 -2.40964,3.34404 0.26239,10.57614 -11.00653,-5.36008 -20.36665,-9.50412 -20.36665,-9.50412 0,0 5.74407,6.46406 18.66903,12.20814 0,0 0.22881,0.09601 0.63201,0.24002 -2.04803,1.10401 -5.06246,2.89603 -5.30086,4.08004 0,0 5.53766,-2.11202 9.15372,-2.49602 4.40005,1.92001 10.99053,5.12006 14.90258,8.62411 -6.38087,0.448 -9.69291,3.20003 -9.69291,3.20003 3.02401,-1.00801 8.86891,-0.96001 12.08975,-0.832 4.28805,4.57605 5.22885,7.60008 8.37609,9.80812 0,0 1.07682,-3.58404 -1.7968,-6.81608 z m 36.98127,-12.57618 c 0,0 -0.36,-4.30404 -6.10247,-3.95204 0,0 1.79362,3.95204 6.10247,3.95204 z m 10.05292,8.97614 c -0.7184,-3.23206 -4.30884,-5.7441 -2.15361,-11.12016 l -2.51523,2.51205 c 0,0 -8.61614,-13.28018 -11.84657,-11.48817 0,0 8.2561,11.12014 11.48974,15.4242 0,0 -2.87362,-0.704 -5.02725,1.44002 0,0 6.46249,-0.352 10.05292,8.27211 0,0 0.71841,-1.80803 0,-5.04005 z m -11.84975,11.13614 c -11.48814,1.44 -15.43858,10.76813 -15.43858,10.76813 0,0 18.66902,2.88005 31.23559,-7.18409 0,0 -4.30726,-5.02406 -15.79701,-3.58404 z"
                 style="fill:#000000;fill-opacity:1;fill-rule:nonzero;stroke:#000000;stroke-width:0.3985;stroke-linecap:butt;stroke-linejoin:miter;stroke-miterlimit:10;stroke-dasharray:none;stroke-opacity:1"
                 id="path28" /></g></g></g></g></g></g></svg>
