<?xml version="1.0" encoding="UTF-8" standalone="no"?>
<svg
   xmlns:dc="http://purl.org/dc/elements/1.1/"
   xmlns:cc="http://creativecommons.org/ns#"
   xmlns:rdf="http://www.w3.org/1999/02/22-rdf-syntax-ns#"
   xmlns:svg="http://www.w3.org/2000/svg"
   xmlns="http://www.w3.org/2000/svg"
   xmlns:sodipodi="http://sodipodi.sourceforge.net/DTD/sodipodi-0.dtd"
   xmlns:inkscape="http://www.inkscape.org/namespaces/inkscape"
   version="1.1"
   id="svg2"
   xml:space="preserve"
   width="40.170139"
   height="59.768715"
   viewBox="0 0 40.17014 59.768715"
   sodipodi:docname="vectorian125.pdf"><metadata
     id="metadata8"><rdf:RDF><cc:Work
         rdf:about=""><dc:format>image/svg+xml</dc:format><dc:type
           rdf:resource="http://purl.org/dc/dcmitype/StillImage" /></cc:Work></rdf:RDF></metadata><defs
     id="defs6" /><sodipodi:namedview
     pagecolor="#ffffff"
     bordercolor="#666666"
     borderopacity="1"
     objecttolerance="10"
     gridtolerance="10"
     guidetolerance="10"
     inkscape:pageopacity="0"
     inkscape:pageshadow="2"
     inkscape:window-width="640"
     inkscape:window-height="480"
     id="namedview4" /><g
     id="g10"
     inkscape:groupmode="layer"
     inkscape:label="vectorian125"
     transform="matrix(1.3333333,0,0,-1.3333333,-1.4871501,60.03578)"><g
       id="g12"
       transform="translate(72,-26.312)"><g
         id="g14"
         transform="translate(-70.686,26.711)"><g
           id="g16"><g
             id="g18"><path
               d="m 19.98004,33.20241 c 0,0 0.29511,-1.69871 -1.4042,-1.55112 -1.69805,0.14819 -2.73146,1.03401 -3.98755,0.8114 0,0 0.59149,0.37021 1.23079,0.41942 0,0 -1.08261,0.83729 -2.70752,-0.88661 0,0 0.78759,1.52653 1.96992,1.52653 1.1816,0 1.82092,-0.49171 2.55994,-0.88581 0.73759,-0.39342 2.01832,-0.93512 2.33862,0.56619"
               style="fill:#000000;fill-opacity:1;fill-rule:nonzero;stroke:#000000;stroke-width:0.3985;stroke-linecap:butt;stroke-linejoin:miter;stroke-miterlimit:10;stroke-dasharray:none;stroke-opacity:1"
               id="path20" /><path
               d="m 18.57643,29.38635 c 0,0 -0.98493,1.28063 -1.52582,1.37833 0,0 -0.44261,-0.0492 -0.64071,0.04921 -0.1967,0.09901 -0.54091,0.2957 -1.27932,0.19809 -0.73829,-0.09908 -1.23083,-0.19809 -1.62492,-0.69061 0,0 -0.14751,0.64073 1.13251,1.13322 1.28063,0.49171 1.96913,0.1967 2.11662,-0.44261 0,0 0.73912,0.04851 1.18173,-0.4447 0.44319,-0.49111 0.63991,-1.18093 0.63991,-1.18093"
               style="fill:#000000;fill-opacity:1;fill-rule:nonzero;stroke:#000000;stroke-width:0.3985;stroke-linecap:butt;stroke-linejoin:miter;stroke-miterlimit:10;stroke-dasharray:none;stroke-opacity:1"
               id="path22" /><path
               d="m 18.08472,28.84406 -0.29581,-0.14692 -0.295,0.34502 c 0,0 -0.83741,-1.28073 -1.96922,-0.24661 0,0 0.3443,-0.2459 0.88521,-0.1469 0.54231,0.0977 0.8873,0.39351 0.73901,0.83601 -0.14749,0.44332 -0.98491,1.03412 -2.01833,-0.0484 0,0 -0.29501,-0.1981 -0.64059,-0.1483 l -0.0977,-0.2957 h -0.68982 c 0,0 0.34489,0.88723 1.67471,1.37972 1.32912,0.4918 2.11673,-0.49249 2.70754,-1.52792"
               style="fill:#000000;fill-opacity:1;fill-rule:nonzero;stroke:#000000;stroke-width:0.3985;stroke-linecap:butt;stroke-linejoin:miter;stroke-miterlimit:10;stroke-dasharray:none;stroke-opacity:1"
               id="path24" /><path
               d="m 18.0355,28.30376 c 0,0 -1.3292,-2.61054 -3.84063,-1.08393 0,0 0.5833,-0.22879 1.82163,-0.0977 0.93571,0.0977 2.019,1.18163 2.019,1.18163"
               style="fill:#000000;fill-opacity:1;fill-rule:nonzero;stroke:#000000;stroke-width:0.3985;stroke-linecap:butt;stroke-linejoin:miter;stroke-miterlimit:10;stroke-dasharray:none;stroke-opacity:1"
               id="path26" /><path
               d="m 16.804,29.33716 c 0,-0.16251 -0.19809,-0.295 -0.44261,-0.295 -0.24521,0 -0.44259,0.13249 -0.44259,0.295 0,0.16261 0.19738,0.29581 0.44259,0.29581 0.24452,0 0.44261,-0.1332 0.44261,-0.29581"
               style="fill:#000000;fill-opacity:1;fill-rule:nonzero;stroke:#000000;stroke-width:0.3985;stroke-linecap:butt;stroke-linejoin:miter;stroke-miterlimit:10;stroke-dasharray:none;stroke-opacity:1"
               id="path28" /><path
               d="m 23.05708,27.21983 c 0,0 -0.73901,-0.04919 -1.08261,0.78752 0,0 0.24521,-1.32852 0.4419,-2.46093 0.1974,-1.13243 0.49322,-2.56064 -0.6884,-3.10234 0,0 -0.34499,-0.24581 -0.64,-0.14751 0,0 -0.14821,-0.34421 -0.73903,-0.34421 0,0 -0.2459,-0.14821 -0.2459,-0.444 0,0 -0.04919,0.39411 0.0492,0.6393 0,0 -0.54169,0.34561 -0.73839,0.64142 0,0 -0.68912,-0.04921 -1.13173,0.14749 -0.444,0.19812 -0.78821,1.03412 0.49171,2.31343 0,0 0.0492,0 -0.09899,-0.49179 -0.14751,-0.49251 -0.44263,-1.03412 0.19808,-1.08331 0.63932,-0.0491 1.18163,-0.34491 1.23012,-0.93503 0,0 0.34423,0.09831 0.54093,-0.09839 0.19737,-0.1974 0.98489,-0.1974 1.2315,0.68851 0,0 -1.08262,-0.54091 -2.06755,0.49251 0,0 0.04851,0.099 0.54102,-0.1476 0.4924,-0.24651 1.47662,-0.4917 1.77243,0.68919 0,0 0,0.59154 -0.1469,1.47673 -0.14891,0.88721 -1.3305,5.17116 0.88593,5.46545 0,0 2.60911,0.49183 3.0025,0.68923 0,0 -0.14679,-0.2459 -0.78679,-0.4924 0,0 -0.1974,-0.24532 0.1967,-0.39351 0.3934,-0.14749 0.59009,-0.34561 0.68921,-0.83603 0,0 -0.3941,0.93372 -1.52591,0.54033 0,0 0.8367,-0.59012 1.18159,-0.98351 0,0 -0.34489,0 -0.6891,0.14681 -0.34559,0.14749 -0.64071,0.73829 -1.4289,0.68849 -0.78682,-0.04781 -1.13183,-0.7377 -1.23014,-0.98421 0,0 0.34421,0.4924 1.28003,0.44321 0.93501,-0.04851 1.47661,-0.64002 1.62421,-1.57503 0,0 -0.0492,-0.24589 -0.4426,0.34419 0,0 -0.2466,-1.1809 -1.57512,-0.73829 0,0 0.98432,0 1.13181,0.68851 0,0 -0.04919,0 -0.2459,-0.04851 -0.1974,-0.0492 -0.73901,-0.2459 -0.6891,0.1475 0.0607,0.49112 0.88581,0.14821 0.88581,0.14821 0,0 -0.88581,0.73912 -1.72323,-0.14821 0,0 -0.0991,0.04921 0,0.4433 0,0 -0.29579,-0.09839 -0.3443,-0.54229 0,0 -0.14819,0.1981 -0.09829,0.4931 0,0 -0.54161,-1.1331 0.9842,-2.11733"
               style="fill:#000000;fill-opacity:1;fill-rule:nonzero;stroke:#000000;stroke-width:0.3985;stroke-linecap:butt;stroke-linejoin:miter;stroke-miterlimit:10;stroke-dasharray:none;stroke-opacity:1"
               id="path30" /><path
               d="m 25.42032,28.05655 c 0,0 -0.19742,-1.67272 -1.87143,-1.72263 0,0 1.52652,0.5416 1.52652,1.72263 z"
               style="fill:#000000;fill-opacity:1;fill-rule:nonzero;stroke:#000000;stroke-width:0.3985;stroke-linecap:butt;stroke-linejoin:miter;stroke-miterlimit:10;stroke-dasharray:none;stroke-opacity:1"
               id="path32" /><path
               d="m 21.92467,22.19827 c 0,0 -0.0492,-1.18173 1.08252,-2.21573 0,0 -1.57502,0.4426 -1.08252,2.21573"
               style="fill:#000000;fill-opacity:1;fill-rule:nonzero;stroke:#000000;stroke-width:0.3985;stroke-linecap:butt;stroke-linejoin:miter;stroke-miterlimit:10;stroke-dasharray:none;stroke-opacity:1"
               id="path34" /><path
               d="m 21.82556,19.53923 c 0,0 -0.4924,-0.7377 -1.87071,-0.7377 -1.37842,0 -1.91935,0.88591 -1.91935,0.88591 0,0 0.68923,-0.5423 1.82093,-0.5423 1.13243,0 1.32922,0.19669 1.67413,0.39409 0.34491,0.19812 0.295,0 0.295,0"
               style="fill:#000000;fill-opacity:1;fill-rule:nonzero;stroke:#000000;stroke-width:0.3985;stroke-linecap:butt;stroke-linejoin:miter;stroke-miterlimit:10;stroke-dasharray:none;stroke-opacity:1"
               id="path36" /><path
               d="m 19.75813,17.07759 c 0,0 -0.09839,1.32982 -0.4925,1.23084 0,0 0.34492,0.3934 0.68981,0.0485 0,0 0.09841,-0.54101 -0.19731,-1.27934"
               style="fill:#000000;fill-opacity:1;fill-rule:nonzero;stroke:#000000;stroke-width:0.3985;stroke-linecap:butt;stroke-linejoin:miter;stroke-miterlimit:10;stroke-dasharray:none;stroke-opacity:1"
               id="path38" /><path
               d="m 17.3948,22.19827 c 0,0 0.04992,-0.73912 -0.6885,-1.23083 0,0 0.93512,0.09761 1.27933,0.09761 0.34498,0 0.34498,0.14891 0.5417,0.0991 0.1974,-0.04991 0.63991,-0.39341 1.2308,-0.39341 0.59081,0 1.57573,0.09762 1.57573,0.09762 0,0 -0.1967,-0.44322 -0.64001,-0.59152 0,0 0.5908,0.09981 0.93501,0.19811 0.34561,0.0977 0.83742,0.04991 0.83742,0.04991 0,0 -0.14821,-0.19811 -1.13242,-0.39481 -0.98492,-0.1967 -1.13252,-0.3934 -2.65834,-0.04991 -1.52661,0.345 -1.6741,0.4433 -2.75672,-0.24519 0,0 -0.68981,0.345 0,0.93579 0.6885,0.59012 0.9843,0.39341 1.476,1.42753"
               style="fill:#000000;fill-opacity:1;fill-rule:nonzero;stroke:#000000;stroke-width:0.3985;stroke-linecap:butt;stroke-linejoin:miter;stroke-miterlimit:10;stroke-dasharray:none;stroke-opacity:1"
               id="path40" /><path
               d="m 18.67484,1.1256 c 0,0 -0.88663,2.46163 -4.43148,3.69314 C 10.69852,6.04886 8.8277,6.14857 6.95688,7.52617 5.08604,8.9046 4.05203,10.67772 4.05203,10.67772 c 0,0 2.16654,0.3435 0.78821,3.20065 0,0 0.54161,0.14679 0.78752,-0.0997 0.24651,-0.24592 1.37831,-1.32854 2.26424,-1.52524 0,0 -0.68852,-0.9357 0.2957,-1.82231 0.9849,-0.88591 2.46162,-0.59082 2.46162,-0.59082 0,0 -0.24521,-0.9357 0.54161,-1.3298 1.10381,-0.55193 2.16652,0.34561 2.16652,0.34561 0,0 -0.099,-1.13252 0.29512,-1.92003 0.39479,-0.78892 2.01902,-0.34492 2.01902,-0.34492 0,0 -0.3449,-2.36321 1.96913,-1.92061 0,0 0.24659,-1.03342 0.98491,-1.37842 0,0 -0.0983,-1.13173 0.64,-2.16653 z M 8.0893,3.48894 c -4.82487,2.11731 -8.8628,6.30287 -6.8438,11.12774 0,0 1.23141,-1.67472 3.39795,-1.23213 0,0 0.6885,-1.03282 0.04919,-1.91862 -0.64001,-0.8873 -2.46223,-0.64141 -2.80653,1.13171 0,0 -0.44331,-1.67403 1.87013,-2.11801 0,0 0.739,-2.85436 3.93906,-4.33106 3.20062,-1.47802 9.40382,-1.96913 10.53691,-5.07217 0,0 -5.31796,0.2958 -10.14291,2.41254 M 4.49524,13.63246 c 0,0 -2.11733,0.24591 -2.55992,1.67272 0,0 1.6242,0.29501 2.55992,-1.67272 m 0.14821,4.18416 c -0.099,1.72261 0.7384,2.36333 1.18171,1.1331 0.4426,-1.2321 0.4917,-3.05374 -0.3948,-4.08784 0,0 -0.68921,1.2308 -0.78691,2.95474 m 7.18748,-6.49889 c 0.444,0.0484 0.93642,-0.59091 -0.78749,-1.18233 0,0 0.34558,1.13244 0.78749,1.18233 m 6.74491,-4.82496 c 0.4432,0 0.19729,-0.78751 -0.541,-0.88652 0,0 0.09837,0.88652 0.541,0.88652 M 3.87984,27.84753 C 5.13525,27.81064 6.16937,26.99854 5.61546,25.7807 5.06154,24.56221 2.90791,24.52461 1.6396,26.77722 c 0,0 0.98491,1.10712 2.24024,1.07031 M 24.5338,14.17267 c 0,0 1.0839,-0.54021 1.42752,-1.52582 0.34421,-0.98421 -0.0492,-1.67413 -0.68921,-1.77243 -0.6393,-0.0984 -2.11664,0.98492 -0.73831,3.29825 M 20.59544,4.91774 c -0.3948,0.1954 -0.04979,0.78752 0.98423,0.14691 0,0 -0.59081,-0.345 -0.98423,-0.14691 m -0.34489,1.91864 c -0.59081,0.2466 -0.24661,0.739 0.34489,0.4931 0.59021,-0.2465 0.73772,-0.3934 0.73772,-0.3934 0,0 -0.49182,-0.34492 -1.08261,-0.0997 M 20.00394,8.7577 c -0.78751,0.19669 -0.93502,0.98423 -0.04909,0.98423 0.88649,0 1.47732,-0.68982 1.47732,-0.68982 0,0 -0.64003,-0.49182 -1.42823,-0.29441 m -0.04909,2.51154 c -0.49251,0.491 0.04909,0.93431 0.78749,0.29428 0.73901,-0.63991 0.78822,-0.7875 0.78822,-0.7875 0,0 -1.08329,0 -1.57571,0.49322 m 1.27991,2.31333 c 0.19741,0.4925 0.83741,-0.09832 1.18161,-0.39342 0,0 -1.37831,-0.099 -1.18161,0.39342 m -7.87731,4.38095 c 0,0 -0.0491,1.08392 0.39412,1.18162 0.4433,0.09899 -0.0491,-1.03342 -0.39412,-1.18162 m -3.19993,15.60701 c 0.54161,-0.0976 0.88592,-0.78684 0.44329,-1.13102 -0.44329,-0.34501 -0.98491,-0.19671 -1.5265,0.6884 0,0 0.54159,0.54171 1.08321,0.44262 M 9.2225,25.25131 c 0.78681,-0.04981 0.93502,-1.18231 0.14681,-1.2308 -0.78751,-0.04982 -1.37833,0.5417 -1.37833,0.5417 0,0 0.44332,0.739 1.23152,0.6891 M 6.85918,32.2912 c 0.04849,-0.6898 -0.64061,-0.98422 -1.03402,-0.5416 -0.39411,0.444 -0.63999,1.28072 -0.63999,1.28072 0,0 1.6242,-0.04921 1.67401,-0.73912 M 3.11693,22.83818 c 1.13241,0.1967 1.92001,-0.29501 1.72331,-1.18092 -0.19679,-0.88591 -1.77252,-1.92131 -3.34824,-0.3456 0,0 0.4925,1.32982 1.62493,1.52652 m 6.35078,-9.45363 c 0.34489,0.05051 0.83731,-0.39349 0.19739,-0.6393 -0.64001,-0.24661 -0.8866,0 -0.8866,0 0,0 0.34491,0.59081 0.68921,0.6393 m 4.72716,-3.05183 c 0.49249,0.3941 1.32921,-0.099 -0.3941,-1.18162 0,0 -0.0983,0.78751 0.3941,1.18162 M 17.2473,8.95439 C 18.13321,9.54521 18.77313,8.4121 17.69061,7.72359 16.6066,7.03378 16.2624,7.08298 16.2624,7.08298 c 0,0 0.0983,1.28061 0.9849,1.87141 m 2.95334,-4.97236 c 0.5417,0.0485 0.78822,-0.64 -0.88581,-0.73902 0,0 0.34491,0.68982 0.88581,0.73902 m 9.45312,4.72648 c -0.04849,2.26421 -0.54101,2.26421 -0.54101,2.26421 C 29.60527,6.88687 28.37445,4.57285 25.71541,2.75124 23.05708,0.9289 19.56075,1.0273 19.56075,1.0273 l -0.29512,0.73901 c -0.29571,0.7383 -0.1475,1.13242 -0.1475,1.13242 1.27991,-0.099 2.65892,0.98361 1.62421,1.3777 -1.0334,0.3947 -1.87013,-0.7862 -1.87013,-0.7862 -0.6899,0.1469 -0.83737,1.67272 -0.83737,1.67272 0.73829,0.19742 1.18159,0.73842 1.18159,1.18231 0,0.44261 -0.4917,0.78752 -1.03412,0.1974 -0.54159,-0.5915 -0.59081,-1.47801 -0.59081,-1.47801 -1.6733,-0.4433 -1.6733,1.52651 -1.6733,1.52651 0.39398,0 1.62422,0.49182 2.31401,1.27934 0.68922,0.78749 0.24592,2.16792 -1.03479,1.5265 C 15.9182,8.7577 15.9673,7.13278 15.9673,7.13278 c 0,0 -0.54231,-0.2964 -1.42822,0.04921 -0.88651,0.34418 -0.83661,1.67412 -0.83661,1.67412 0.54089,0.1468 1.2307,0.73759 1.52652,1.18231 0.29509,0.4419 -0.39482,1.18091 -1.18163,0.6884 -0.7882,-0.4931 -0.59079,-1.57572 -0.59079,-1.57572 -1.87083,-1.23081 -2.26564,0.6892 -2.26564,0.6892 2.26564,0.44332 1.62493,1.82234 0.739,1.87154 -0.88649,0.0484 -1.37903,-1.62493 -1.37903,-1.62493 -2.3632,0.24581 -1.9691,2.26482 -1.9691,2.26482 2.01901,-0.24649 1.87082,1.08333 1.0833,1.32924 -0.78821,0.24589 -1.72333,-1.03412 -1.72333,-1.03412 -1.1324,0.1489 -2.2642,1.82163 -2.2642,1.82163 0.1967,0.1482 1.4268,1.5258 0.78749,3.74223 -0.6399,2.21504 -2.36321,2.36336 -2.51143,-0.3449 -0.14749,-2.70683 0.93571,-3.69314 0.93571,-3.69314 l -0.1967,-0.0976 C 3.46184,16.1924 1.68872,15.50258 1.68872,15.50258 0.2612,17.71762 1.2953,20.77135 1.2953,20.77135 3.16542,19.29333 5.13525,20.47495 5.28346,21.55827 5.43105,22.64148 4.39694,23.2815 3.21533,23.1832 2.0337,23.08409 1.393,22.10057 1.393,22.10057 c -1.52589,2.36323 0.1482,4.08514 0.1482,4.08514 1.23083,-2.46091 4.43075,-1.72332 4.57826,0 0.1483,1.72393 -1.37831,2.06884 -2.36322,2.01905 -0.98421,-0.04921 -1.91933,-0.59012 -1.91933,-0.59012 0,0 -0.19731,0.93501 0.3935,2.85564 0.5914,1.91862 2.70744,2.26353 2.70744,2.26353 0.444,-2.26353 2.41313,-1.42683 2.46233,-0.44261 0.04919,0.98501 -2.21501,1.03412 -2.21501,1.03412 -0.19742,2.51082 1.67401,6.20457 4.87333,8.51732 3.20066,2.31411 8.86293,3.44654 12.55527,0.73829 3.69244,-2.70813 4.23407,-5.90808 4.43077,-9.0104 0.1967,-3.10025 -0.04851,-6.10418 -0.04851,-6.10418 l 0.39351,-0.04982 -0.29581,-0.44259 c 1.62493,-3.98816 1.57572,-7.13829 0.3449,-9.15732 -1.23081,-2.01834 -2.85562,-2.01834 -2.85562,-2.01834 1.82162,0.93572 2.41302,3.34686 2.36323,4.97307 -0.04921,1.62422 -0.93512,5.16917 -0.93512,5.16917 0,0 0.4925,4.18416 0.09841,8.1239 -0.39412,3.93825 -0.98493,5.80838 -2.70824,7.3841 -1.72324,1.57571 -3.79074,2.41313 -7.13889,2.11802 C 12.91425,43.26944 10.79752,40.95673 9.2225,38.19937 7.64679,35.44275 8.5818,32.9305 8.5818,32.9305 c 0,0 -1.47743,-0.8851 -1.91992,-3.88834 -0.44331,-3.00394 0.935,-4.38236 0.935,-4.38236 -2.16652,-3.05233 -0.4433,-6.44909 0.83742,-8.912 1.2799,-2.46025 4.57896,-4.47856 7.8281,-3.93837 3.24984,0.5423 4.03734,2.41313 4.03734,2.41313 -2.31411,-2.60984 -5.51477,-2.21502 -6.99139,-1.72392 -1.47742,0.49242 -4.82495,2.60985 -5.76067,6.69629 -0.93501,4.08657 0.4433,5.02227 0.4433,5.02227 0.29511,-0.3947 1.57573,-0.73902 2.11734,-0.0498 0.541,0.69051 -0.04982,1.67412 -0.98491,1.47731 -0.93571,-0.19731 -1.18164,-0.7868 -1.18164,-0.7868 -0.64,0.78621 -1.23149,1.96851 -0.73829,4.47925 0.36059,1.84212 1.67341,3.39665 1.67341,3.39665 0.34561,-1.27922 2.16655,-0.78751 2.41313,-0.14612 0.24582,0.63931 -0.19679,1.27933 -1.0341,1.32843 -0.83672,0.04851 -1.23083,-0.54089 -1.23083,-0.54089 -0.29578,0.44258 -0.49249,3.64253 1.47671,6.25166 1.96983,2.60913 4.92319,4.13635 8.37041,3.64255 3.44586,-0.49109 5.21827,-2.90354 6.0065,-4.77495 0.7875,-1.87013 1.47673,-7.28721 0.54161,-13.14479 -0.93572,-5.85826 -3.59406,-10.83203 -7.6806,-10.63461 -4.08715,0.19668 -4.18555,3.00253 -4.18555,3.00253 0.6407,0.04979 1.42821,1.92062 0.34498,1.92062 -1.08329,0 -0.88589,-1.67472 -0.88589,-1.67472 0,0 -1.62424,-0.1469 -2.65904,2.41372 -1.03411,2.56075 1.18162,4.33176 1.18162,4.33176 -1.82164,-1.0832 -2.21573,-3.39594 -1.32841,-5.36577 0.8858,-1.96982 2.85502,-1.67412 2.85502,-1.67412 0.2459,-1.62422 0.88652,-2.65904 2.51073,-3.24914 2.09483,-0.7629 4.72656,-0.49311 7.13899,1.77243 2.41243,2.26422 3.15073,7.6301 3.15073,7.6301 1.18164,-5.26687 -1.0334,-7.5324 -1.82161,-8.1232 -0.78752,-0.59081 -2.06752,-0.59081 -2.06752,-0.59081 0.98431,0 1.2308,-0.59082 1.2308,-1.13184 0,-0.54159 -0.63989,-0.54159 -0.63989,-0.54159 -0.29512,0.54159 -1.72334,1.18162 -1.67412,0.24591 0.04848,-0.93572 1.57572,-0.68991 1.57572,-0.68991 0.54091,-0.19531 0.54091,-0.8367 0.3934,-1.47664 -0.14751,-0.64 -0.88591,-0.64 -0.88591,-0.64 l -1.13243,1.03412 c -1.1324,0.83671 -2.06821,-0.1967 -1.08389,-0.836 0.98489,-0.64072 1.96981,-0.59222 1.96981,-0.59222 0.64,-0.54171 0,-1.23011 0,-1.23011 0,0 -0.8367,0.7383 -1.87083,0.8367 -1.0341,0.09832 -1.47742,-0.93581 -0.44258,-1.42892 1.03342,-0.4911 2.11671,0.09971 2.11671,0.09971 0,0 0.44321,-0.09971 0.49242,-0.73901 0.04919,-0.64001 -0.39412,-0.73771 -0.39412,-0.73771 -0.54089,0.44261 -2.06811,0.73771 -1.96912,-0.198 0.09771,-0.93441 1.87082,-0.29511 1.87082,-0.29511 0,0 0.64002,-0.24521 0.78751,-0.83671 0.14821,-0.59079 -0.2459,-0.83802 -0.2459,-0.83802 -0.68982,0.93572 -2.26493,0.83802 -2.11732,0 0.14819,-0.83671 1.8222,-0.34359 1.8222,-0.34359 1.28003,-1.42752 0.34363,-3.10225 0.34363,-3.10225 1.37902,1.37901 0.39479,3.20065 0.39479,3.20065 1.03342,1.23142 -0.5417,2.16583 -0.5417,2.16583 0,0 0.39349,0.2957 0.49251,0.98491 0.0984,0.68982 -0.59081,0.98422 -0.59081,0.98422 0.98421,0.8873 0.0983,1.62491 0.0983,1.62491 0,0 1.03342,-0.0977 1.2308,0.9357 0.23232,1.21721 -0.3941,1.57575 -0.3941,1.57575 0.29512,0.04988 0.59082,0.39348 0.59082,0.39348 l 0.345,0.04982 c -0.49252,-2.41315 0.7076,-3.32695 1.87141,-3.00394 0.88592,0.2473 0.78693,1.6748 0.78693,1.6748 C 28.66945,10.92361 26.60191,7.92029 26.15872,7.08298 25.71541,6.24698 24.8295,5.55707 23.7954,3.88234 22.76137,2.20961 23.00719,1.76631 23.00719,1.76631 c 0.7391,1.42751 1.52661,2.51012 2.61051,3.24913 1.08262,0.73831 2.90426,2.80655 2.41175,5.11996 -0.49242,2.31335 -1.57571,2.31473 -1.57571,2.31473 -0.39342,1.57572 -1.72324,1.96843 -1.72324,1.96843 2.51074,0.93583 4.18556,-2.70672 4.18556,-2.70672 l 0.5901,-0.49251 c -0.88581,2.55934 -2.36323,3.59265 -3.74156,3.69244 -1.3783,0.0983 -2.21571,-1.0334 -2.21571,-1.0334 0.14819,0.88649 -0.49181,1.1317 -0.49181,1.1317 5.51407,0.34432 5.66158,5.02228 5.66158,7.1888 0,2.16522 -1.08333,5.31737 -1.08333,5.31737 0,0 0.64072,4.38156 -0.6393,9.25561 C 25.71541,41.64522 22.17058,44.74756 16.164,44.40256 10.15752,44.05765 6.90767,40.021 5.48015,37.90367 4.05263,35.78624 4.79034,33.07881 4.79034,33.07881 c 0,0 -1.96853,0 -3.15074,-2.31413 C 0.45789,28.45065 1.393,26.72803 1.393,26.72803 c 0,0 -1.1318,-0.44261 -1.27932,-2.46233 C -0.03448,22.24738 1.1478,21.85396 1.1478,21.85396 -1.31451,17.37341 0.9504,14.96086 0.9504,14.96086 0.35959,14.56677 -0.77219,11.12094 0.9019,8.21538 2.57603,5.31116 6.21857,2.55382 11.09323,1.0764 15.9673,-0.3995 20.49646,-0.3019 24.8295,1.0273 c 4.33246,1.32982 4.87337,5.41568 4.82426,7.68121"
               style="fill:#000000;fill-opacity:1;fill-rule:nonzero;stroke:#000000;stroke-width:0.3985;stroke-linecap:butt;stroke-linejoin:miter;stroke-miterlimit:10;stroke-dasharray:none;stroke-opacity:1"
               id="path42" /></g></g></g></g></g></svg>
