<?xml version="1.0" encoding="UTF-8" standalone="no"?>
<svg
   xmlns:dc="http://purl.org/dc/elements/1.1/"
   xmlns:cc="http://creativecommons.org/ns#"
   xmlns:rdf="http://www.w3.org/1999/02/22-rdf-syntax-ns#"
   xmlns:svg="http://www.w3.org/2000/svg"
   xmlns="http://www.w3.org/2000/svg"
   xmlns:sodipodi="http://sodipodi.sourceforge.net/DTD/sodipodi-0.dtd"
   xmlns:inkscape="http://www.inkscape.org/namespaces/inkscape"
   version="1.1"
   id="svg2"
   xml:space="preserve"
   width="26.186666"
   height="19.76"
   viewBox="0 0 26.186666 19.76"
   sodipodi:docname="vectorian134.pdf"><metadata
     id="metadata8"><rdf:RDF><cc:Work
         rdf:about=""><dc:format>image/svg+xml</dc:format><dc:type
           rdf:resource="http://purl.org/dc/dcmitype/StillImage" /></cc:Work></rdf:RDF></metadata><defs
     id="defs6" /><sodipodi:namedview
     pagecolor="#ffffff"
     bordercolor="#666666"
     borderopacity="1"
     objecttolerance="10"
     gridtolerance="10"
     guidetolerance="10"
     inkscape:pageopacity="0"
     inkscape:pageshadow="2"
     inkscape:window-width="640"
     inkscape:window-height="480"
     id="namedview4" /><g
     id="g10"
     inkscape:groupmode="layer"
     inkscape:label="vectorian134"
     transform="matrix(1.3333333,0,0,-1.3333333,0,19.76)"><g
       id="g12"
       transform="translate(72,-57.179)"><g
         id="g14"
         transform="translate(-71.419,57.322)"><g
           id="g16"><g
             id="g18"><path
               d="M 13.96637,2.76602 C 13.68156,2.11032 13.29016,1.63211 12.85095,1.277 v 7.88891 h 0.0594 c 0.6148,-2.17203 1.91044,-4.43286 1.05602,-6.39989 M 9.63321,0.30028 C 8.55,0.30028 7.42639,2.22641 8.35329,3.35333 8.71661,3.79733 9.08,3.91344 9.38261,3.89293 L 9.6148,3.84512 c 0.308,-0.08877 0.51092,-0.29368 0.51092,-0.29368 0,0 -0.03409,0.29368 -0.3272,0.4713 v 5.14317 h 1.25821 V 0.4437 C 10.50963,0.32759 10.00282,0.30028 9.63321,0.30028 M 9.38261,9.16591 V 4.13884 C 9.1907,4.15253 8.9523,4.13205 8.64899,4.04323 8.52809,4.00905 8.4189,3.94765 8.32188,3.86565 v 5.30026 z m 3.05245,0 V 0.9833 C 12.12083,0.792 11.79504,0.6554 11.47264,0.55298 V 9.16591 Z M 2.09612,9.56201 C 2.1439,9.7601 2.1849,9.9514 2.21631,10.14943 c 0.3941,2.46573 -1.28001,3.94104 -1.28001,3.94104 5.71078,-2.56133 6.51469,-1.96713 6.51469,-1.96713 0,0 0.80391,-0.5942 6.51538,1.96713 0,0 -1.67413,-1.47531 -1.28072,-3.94104 0.03211,-0.19803 0.07311,-0.38933 0.1209,-0.58742 z M 6.52687,3.90665 C 6.44356,3.96814 6.35336,4.01593 6.25366,4.04323 6.10747,4.08423 5.97836,4.11154 5.85956,4.12514 V 9.16591 H 6.52687 Z M 5.26945,0.30028 c -0.26838,0 -0.60931,0.01362 -0.98492,0.06831 V 9.16591 H 5.44354 V 4.13205 C 4.83224,4.05005 4.77695,3.55144 4.77695,3.55144 c 0,0 0.27249,0.27319 0.66659,0.32789 L 5.85956,3.84512 C 6.07877,3.79053 6.31377,3.64023 6.54936,3.35333 7.47697,2.22641 6.35208,0.30028 5.26945,0.30028 M 2.80711,9.16591 H 3.86783 V 0.4437 C 3.52223,0.51878 3.16092,0.6281 2.80711,0.7989 Z M 0.9363,2.76602 C 0.08188,4.73305 1.3776,6.99388 1.99231,9.16591 H 2.39122 V 1.0311 C 1.81671,1.39992 1.2929,1.94632 0.9363,2.76602 m 13.71917,3.25115 c -1.08322,3.54484 -2.55993,5.21827 0,8.66072 0,0 -3.85625,-1.57094 -7.20448,-1.57094 -3.34746,0 -7.20381,1.57094 -7.20381,1.57094 2.55993,-3.44245 1.08322,-5.11588 0,-8.66072 C -0.58058,3.30553 0.7772,1.3453 2.73883,0.4847 L 2.80711,0.40268 c 0.58672,-0.198 1.22332,-0.3483 1.87154,-0.39609 2.21573,-0.15028 2.77032,2.12413 2.26483,3.33994 v 5.81938 h 0.9617 V 3.19633 C 7.49878,1.96 8.09439,-0.13689 10.2241,0.00659 c 2.85566,0.19809 5.51468,2.46573 4.43137,6.01058"
               style="fill:#000000;fill-opacity:1;fill-rule:nonzero;stroke:#000000;stroke-width:0.3985;stroke-linecap:butt;stroke-linejoin:miter;stroke-miterlimit:10;stroke-dasharray:none;stroke-opacity:1"
               id="path20" /><path
               d="m 4.28383,12.25993 0.2978,-0.91519 H 5.54396 L 4.76465,10.78462 5.06245,9.8694 4.28383,10.42952 3.50523,9.8694 l 0.29711,0.91522 -0.778,0.56012 h 0.96168 z"
               style="fill:#000000;fill-opacity:1;fill-rule:nonzero;stroke:#000000;stroke-width:0.3985;stroke-linecap:butt;stroke-linejoin:miter;stroke-miterlimit:10;stroke-dasharray:none;stroke-opacity:1"
               id="path22" /><path
               d="M 7.34787,12.25993 7.64568,11.34474 H 8.60799 L 7.82939,10.78462 8.1272,9.8694 7.34787,10.42952 6.56927,9.8694 l 0.2977,0.91522 -0.77929,0.56012 h 0.9631 z"
               style="fill:#000000;fill-opacity:1;fill-rule:nonzero;stroke:#000000;stroke-width:0.3985;stroke-linecap:butt;stroke-linejoin:miter;stroke-miterlimit:10;stroke-dasharray:none;stroke-opacity:1"
               id="path24" /><path
               d="m 10.79442,12.25993 0.2978,-0.91519 h 0.96231 l -0.77859,-0.56012 0.2971,-0.91522 -0.77862,0.56012 -0.7787,-0.56012 0.2978,0.91522 -0.77931,0.56012 h 0.96242 z"
               style="fill:#000000;fill-opacity:1;fill-rule:nonzero;stroke:#000000;stroke-width:0.3985;stroke-linecap:butt;stroke-linejoin:miter;stroke-miterlimit:10;stroke-dasharray:none;stroke-opacity:1"
               id="path26" /></g></g></g></g></g></svg>
