<?xml version="1.0" encoding="UTF-8" standalone="no"?>
<svg
   xmlns:dc="http://purl.org/dc/elements/1.1/"
   xmlns:cc="http://creativecommons.org/ns#"
   xmlns:rdf="http://www.w3.org/1999/02/22-rdf-syntax-ns#"
   xmlns:svg="http://www.w3.org/2000/svg"
   xmlns="http://www.w3.org/2000/svg"
   xmlns:sodipodi="http://sodipodi.sourceforge.net/DTD/sodipodi-0.dtd"
   xmlns:inkscape="http://www.inkscape.org/namespaces/inkscape"
   version="1.1"
   id="svg2"
   xml:space="preserve"
   width="604.73773"
   height="13.333467"
   viewBox="0 0 604.73773 13.333467"
   sodipodi:docname="vectorian089.pdf"><metadata
     id="metadata8"><rdf:RDF><cc:Work
         rdf:about=""><dc:format>image/svg+xml</dc:format><dc:type
           rdf:resource="http://purl.org/dc/dcmitype/StillImage" /></cc:Work></rdf:RDF></metadata><defs
     id="defs6"><clipPath
       clipPathUnits="userSpaceOnUse"
       id="clipPath24"><path
         d="M 0,0 H 454.00584 V 10.0001 H 0 Z"
         id="path22" /></clipPath></defs><sodipodi:namedview
     pagecolor="#ffffff"
     bordercolor="#666666"
     borderopacity="1"
     objecttolerance="10"
     gridtolerance="10"
     guidetolerance="10"
     inkscape:pageopacity="0"
     inkscape:pageshadow="2"
     inkscape:window-width="640"
     inkscape:window-height="480"
     id="namedview4" /><g
     id="g10"
     inkscape:groupmode="layer"
     inkscape:label="vectorian089"
     transform="matrix(1.3333333,0,0,-1.3333333,0,13.333466)"><g
       id="g12"
       transform="translate(72,-62)"><g
         id="g14"
         transform="translate(-72,62)"><g
           id="g16"><g
             id="g18"><g
               id="g20"
               clip-path="url(#clipPath24)"><path
                 d="m 249.9086,6.28076 c 2.60393,0.062 3.23766,1.49283 3.23766,1.49283 0,0 -1.23763,-0.92291 -3.65015,-0.92291 -2.41203,0 -4.37927,0.92291 -6.3794,0.89189 -1.80923,-0.03097 -2.38032,-1.32549 -2.38032,-2.52091 0,-1.19554 0.57109,-2.49005 2.38032,-2.51483 2.00013,-0.03102 3.96737,0.8857 6.3794,0.8857 2.41252,0 3.65015,-0.91672 3.65015,-0.91672 0,0 -0.63373,1.42462 -3.23766,1.48662 -2.60213,0.0681 -4.69766,-0.9539 -6.72867,-0.9539 -2.03105,0 -1.96843,2.01313 -1.96843,2.01313 0,0 -0.0626,2.01302 1.96843,2.01302 2.03101,0 4.12654,-1.01582 6.72867,-0.95392 z"
                 style="fill:#000000;fill-opacity:1;fill-rule:nonzero;stroke:#000000;stroke-width:0.3985;stroke-linecap:butt;stroke-linejoin:miter;stroke-miterlimit:10;stroke-dasharray:none;stroke-opacity:1"
                 id="path26" /><path
                 d="m 255.21008,6.78868 c -0.0823,-0.30351 0.3048,-0.31592 0.415,-1.10873 h -0.3629 c -0.127,0.25401 -0.35811,0.43361 -0.62322,0.43361 -0.26629,0 -0.4973,-0.1796 -0.62431,-0.43361 h -0.965 c 0.7247,0.63801 1.84331,1.98215 1.84331,4.15626 0,0 -1.73621,-1.35652 -4.52916,-1.35652 -2.79352,0 -4.06264,1.00961 -6.89827,1.00961 -2.40893,0 -3.74435,-1.3131 -4.06276,-3.20854 h -2.31653 V 4.16243 h 2.31653 c 0.31841,-1.89542 1.65383,-3.20235 4.06276,-3.20235 2.83563,0 4.10475,1.00344 6.89827,1.00344 2.79295,0 4.52916,-1.35033 4.52916,-1.35033 0,2.17413 -1.11861,3.51204 -1.84331,4.15625 h 0.965 c 0.12701,-0.26019 0.35802,-0.43359 0.62431,-0.43359 0.26511,0 0.49622,0.1734 0.62322,0.43359 h 0.3629 c -0.1102,-0.79901 -0.4973,-0.81142 -0.415,-1.11491 0.0954,-0.34691 0.7619,-0.28499 0.88829,0.2911 0.12693,0.56981 0.12693,1.98833 0,2.55814 -0.12639,0.5699 -0.79289,0.6318 -0.88829,0.28491 z M 239.33899,4.70134 h -1.68175 v 1.04053 h 1.68175 c -0.0111,-0.1734 -0.0155,-0.34061 -0.0124,-0.52021 -0.003,-0.17352 10e-4,-0.3469 0.0124,-0.52032 z m 4.25343,-0.7867 c 1.58762,0.062 2.98374,0.94771 5.46018,1.07161 4.88086,0.25389 5.11006,-3.45635 5.11006,-3.45635 -3.49155,2.03173 -7.49109,1.01582 -9.23721,0.6999 -1.74552,-0.322 -3.14285,-0.35298 -4.03046,0.63183 -0.88831,0.9849 -0.76251,2.36003 -0.76251,2.36003 0,0 -0.1258,1.37502 0.76251,2.35993 0.88761,0.9848 2.28494,0.9538 4.03046,0.63181 1.74612,-0.31592 5.74566,-1.33182 9.23721,0.6999 0,0 -0.2292,-3.71025 -5.11006,-3.45635 -2.47644,0.12391 -3.87256,1.01581 -5.46018,1.07781 -0.98232,0.03711 -1.80982,-0.3407 -1.80982,-1.3131 0,-0.97251 0.8275,-1.35032 1.80982,-1.30702 z"
                 style="fill:#000000;fill-opacity:1;fill-rule:nonzero;stroke:#000000;stroke-width:0.3985;stroke-linecap:butt;stroke-linejoin:miter;stroke-miterlimit:10;stroke-dasharray:none;stroke-opacity:1"
                 id="path28" /><path
                 d="m 210.8871,7.74257 c -1.99953,0.03102 -3.96675,-0.89189 -6.37868,-0.89189 -2.41383,0 -3.65146,0.92291 -3.65146,0.92291 0,0 0.63494,-1.43083 3.23705,-1.49283 2.60394,-0.0619 4.69948,0.95392 6.72989,0.95392 2.03163,0 1.96783,-2.01302 1.96783,-2.01302 0,0 0.0638,-2.01313 -1.96783,-2.01313 -2.03041,0 -4.12595,1.022 -6.72989,0.9539 -2.60211,-0.062 -3.23705,-1.48662 -3.23705,-1.48662 0,0 1.23763,0.91672 3.65146,0.91672 2.41193,0 4.37915,-0.91672 6.37868,-0.8857 1.80983,0.02478 2.38095,1.31929 2.38095,2.51483 0,1.19542 -0.57112,2.48994 -2.38095,2.52091 z"
                 style="fill:#000000;fill-opacity:1;fill-rule:nonzero;stroke:#000000;stroke-width:0.3985;stroke-linecap:butt;stroke-linejoin:miter;stroke-miterlimit:10;stroke-dasharray:none;stroke-opacity:1"
                 id="path30" /><path
                 d="m 210.5377,9.4893 c -2.83442,0 -4.10484,-1.00961 -6.89839,-1.00961 -2.79353,0 -4.52784,1.35652 -4.52784,1.35652 0,-2.17411 1.11869,-3.51825 1.84341,-4.15626 h -0.96512 c -0.12689,0.25401 -0.35861,0.43361 -0.62489,0.43361 -0.26583,0 -0.49562,-0.1796 -0.62384,-0.43361 h -0.36168 c 0.1096,0.79281 0.4974,0.80522 0.41499,1.10873 -0.0954,0.34689 -0.76251,0.28499 -0.88951,-0.28491 -0.12689,-0.56981 -0.12689,-1.98833 0,-2.55814 0.127,-0.57609 0.79411,-0.63801 0.88951,-0.2911 0.0824,0.30349 -0.30539,0.3159 -0.41499,1.11491 h 0.36168 c 0.12822,-0.26019 0.35801,-0.43359 0.62384,-0.43359 0.26628,0 0.498,0.1734 0.62489,0.43359 h 0.96512 c -0.72472,-0.64421 -1.84341,-1.98212 -1.84341,-4.15625 0,0 1.73431,1.35033 4.52784,1.35033 2.79355,0 4.06397,-1.00344 6.89839,-1.00344 2.41013,0 3.74495,1.30693 4.06334,3.20235 h 2.31725 v 2.11833 h -2.31725 C 214.28265,8.1762 212.94783,9.4893 210.5377,9.4893 Z m 2.57183,-6.62767 C 212.22061,1.87682 210.8239,1.9078 209.07838,2.2298 c -1.74552,0.31592 -5.74498,1.33183 -9.23661,-0.6999 0,0 0.22859,3.71024 5.11015,3.45635 2.47513,-0.1239 3.87247,-1.00961 5.45877,-1.07161 0.98363,-0.0433 1.80992,0.33451 1.80992,1.30702 0,0.9724 -0.82629,1.35021 -1.80992,1.3131 -1.5863,-0.062 -2.98364,-0.9539 -5.45877,-1.07781 -4.88156,-0.2539 -5.11015,3.45635 -5.11015,3.45635 3.49163,-2.03172 7.49109,-1.01582 9.23661,-0.6999 1.74552,0.32199 3.14223,0.35299 4.03115,-0.63181 0.88821,-0.98491 0.76062,-2.35993 0.76062,-2.35993 0,0 0.12759,-1.37513 -0.76062,-2.36003 z m 1.55473,2.88024 h 1.68231 V 4.70134 h -1.68231 c 0.0111,0.17342 0.0167,0.3468 0.0136,0.52032 0.003,0.1796 -0.002,0.34681 -0.0136,0.52021 z"
                 style="fill:#000000;fill-opacity:1;fill-rule:nonzero;stroke:#000000;stroke-width:0.3985;stroke-linecap:butt;stroke-linejoin:miter;stroke-miterlimit:10;stroke-dasharray:none;stroke-opacity:1"
                 id="path32" /><path
                 d="m 227.18062,5.45076 c -0.345,0 -0.6268,-0.2787 -0.6268,-0.62561 0,-0.34061 0.2818,-0.62561 0.6268,-0.62561 0.34619,0 0.6262,0.285 0.6262,0.62561 0,0.34691 -0.28001,0.62561 -0.6262,0.62561 z"
                 style="fill:#000000;fill-opacity:1;fill-rule:nonzero;stroke:#000000;stroke-width:0.3985;stroke-linecap:butt;stroke-linejoin:miter;stroke-miterlimit:10;stroke-dasharray:none;stroke-opacity:1"
                 id="path34" /><path
                 d="M 225.24498,8.77701 217.49739,4.82515 227.46861,0 236.77895,4.82515 226.7061,9.56981 Z m 1.71573,-8.18241 -4.82456,2.45292 c 0,0 -0.0173,0.87953 1.52253,0.76182 1.1013,-0.0805 1.1013,-1.94493 1.1013,-1.94493 0,0 0.1691,1.01581 1.35342,0.92911 1.18552,-0.08051 0.84731,-2.19892 0.84731,-2.19892 z m -2.94464,4.23055 3.11375,1.86443 3.65694,-1.86443 -3.40293,-2.03163 z m 3.79075,-4.05707 c 0,0 -0.8659,1.13972 0.1697,1.85823 1.10012,0.76183 1.77713,-1.01591 1.77713,-1.01591 z m -0.5921,8.03992 c 0,0 0.7618,-2.37235 2.53893,-0.93532 0,0 -0.0842,-1.01581 0.93031,-1.35033 1.01649,-0.34068 1.94801,0.08051 1.94801,0.08051 0,0 0.42193,-1.18301 1.86203,-1.18301 1.43822,0 1.57512,-0.5947 1.57512,-0.5947 0,0 -0.1369,-0.4212 -1.0672,-0.58841 l -4.82458,-2.53952 c 0,0 -0.8951,1.4308 -0.0849,2.11212 1.20294,1.01581 1.94624,-0.76182 1.94624,-0.76182 0,0 0,1.52372 0.93032,1.52372 0.93218,0 1.94802,0 1.94802,0 0,0 0.5748,0.59461 -0.2539,0.4274 h -1.35342 c 0,0 -1.01652,-0.17349 -1.01652,0.76183 0,0 -2.11584,-1.26972 -3.04744,0.92911 0,0 -1.43892,-0.25393 -1.94682,0.8486 0,0 -1.01582,-1.52371 -2.53894,-0.8486 0,0 -0.5092,-2.88024 -2.70932,-1.01581 0,0 -1.26982,-0.84862 -1.89664,-0.84862 -0.62431,0 3.16645,-0.25391 1.21962,-1.60422 l -2.91184,1.60422 c 0,0 2.82703,0.08672 3.16584,1.6105 0,0 1.01642,-0.76188 2.11583,-0.17349 1.10011,0.59471 0.5916,1.53002 0.5916,1.53002 0,0 1.77833,-1.1026 2.87965,1.01582 z"
                 style="fill:#000000;fill-opacity:1;fill-rule:nonzero;stroke:#000000;stroke-width:0.3985;stroke-linecap:butt;stroke-linejoin:miter;stroke-miterlimit:10;stroke-dasharray:none;stroke-opacity:1"
                 id="path36" /><path
                 d="M 353.50105,3.47481 C 339.70366,3.72884 323.19894,4.31723 300.51495,6.26216 277.83157,8.2134 267.08041,7.70538 267.08041,7.70538 257.60042,7.45149 256.7549,5.16585 256.7549,5.16585 c -0.0848,-4.99246 20.65236,-4.23056 42.65935,-3.46863 22.00698,0.76179 51.20896,1.0963 54.2565,1.0963 3.04742,0 99.87847,-1.35032 99.87847,-1.35032 0,0 -86.25151,1.77773 -100.04817,2.03161 z M 283.50223,1.69722 c -13.03545,0 -24.80053,0.50788 -25.73212,2.70673 l 68.30657,-1.01581 c 0,0 -29.54029,-1.69092 -42.57445,-1.69092 z"
                 style="fill:#000000;fill-opacity:1;fill-rule:nonzero;stroke:#000000;stroke-width:0.3985;stroke-linecap:butt;stroke-linejoin:miter;stroke-miterlimit:10;stroke-dasharray:none;stroke-opacity:1"
                 id="path38" /><path
                 d="m 186.46808,7.70538 c 0,0 -10.74922,0.50802 -33.43381,-1.44322 C 130.35027,4.31723 113.84486,3.72884 100.04819,3.47481 86.2508,3.22093 0,1.4432 0,1.4432 c 0,0 96.83154,1.35032 99.87846,1.35032 3.04746,0 32.24894,-0.33451 54.2565,-1.0963 22.0076,-0.76193 42.74416,-1.52383 42.65926,3.46863 0,0 -0.84669,2.28564 -10.32614,2.53953 z m -16.4211,-6.00816 c -13.03428,0 -42.57445,1.69092 -42.57445,1.69092 l 68.30719,1.01581 C 194.8481,2.2051 183.08304,1.69722 170.04698,1.69722 Z"
                 style="fill:#000000;fill-opacity:1;fill-rule:nonzero;stroke:#000000;stroke-width:0.3985;stroke-linecap:butt;stroke-linejoin:miter;stroke-miterlimit:10;stroke-dasharray:none;stroke-opacity:1"
                 id="path40" /></g></g></g></g></g></g></svg>
