<?xml version="1.0" encoding="UTF-8" standalone="no"?>
<svg
   xmlns:dc="http://purl.org/dc/elements/1.1/"
   xmlns:cc="http://creativecommons.org/ns#"
   xmlns:rdf="http://www.w3.org/1999/02/22-rdf-syntax-ns#"
   xmlns:svg="http://www.w3.org/2000/svg"
   xmlns="http://www.w3.org/2000/svg"
   xmlns:sodipodi="http://sodipodi.sourceforge.net/DTD/sodipodi-0.dtd"
   xmlns:inkscape="http://www.inkscape.org/namespaces/inkscape"
   version="1.1"
   id="svg2"
   xml:space="preserve"
   width="118.56"
   height="114.30667"
   viewBox="0 0 118.56 114.30667"
   sodipodi:docname="vectorian034.pdf"><metadata
     id="metadata8"><rdf:RDF><cc:Work
         rdf:about=""><dc:format>image/svg+xml</dc:format><dc:type
           rdf:resource="http://purl.org/dc/dcmitype/StillImage" /></cc:Work></rdf:RDF></metadata><defs
     id="defs6" /><sodipodi:namedview
     pagecolor="#ffffff"
     bordercolor="#666666"
     borderopacity="1"
     objecttolerance="10"
     gridtolerance="10"
     guidetolerance="10"
     inkscape:pageopacity="0"
     inkscape:pageshadow="2"
     inkscape:window-width="640"
     inkscape:window-height="480"
     id="namedview4" /><g
     id="g10"
     inkscape:groupmode="layer"
     inkscape:label="vectorian034"
     transform="matrix(1.3333333,0,0,-1.3333333,0,114.30667)"><g
       id="g12"
       transform="translate(72,13.728)"><g
         id="g14"
         transform="translate(-71.747,-13.447)"><g
           id="g16"><g
             id="g18"><path
               d="m 1.0873,1.28592 c 1.44162,-1.3136 4.48967,-1.56641 7.33769,-1.00482 4.61126,0.9104 9.95372,4.15524 14.30258,8.3585 1.60802,1.55843 3.42885,3.42244 5.27689,5.58567 3.93124,-2.59684 7.85609,-4.17606 11.26254,-4.33605 6.41606,-0.31039 11.89775,1.89441 15.04338,6.05768 1.49602,1.97763 2.34244,4.26245 2.55044,6.63368 0.87201,4.31845 -0.79362,9.77452 -3.80004,13.60016 3.84324,-0.8896 7.65129,-2.36481 11.32495,-4.56004 C 77.03548,24.0574 80.68832,12.58205 81.86115,8.92761 83.03716,5.27795 81.55394,1.3659 83.42436,0.7163 c 0.85442,-0.3008 1.92803,0.128 1.86882,1.86404 -0.0608,1.7904 -1.25761,5.19523 -3.69284,10.52331 -4.36807,9.54894 -12.72497,21.46907 -29.59398,24.32993 -3.45285,3.74245 -8.12651,7.92648 -11.41936,11.00813 -0.1856,0.17439 -0.3472,0.32159 -0.528,0.48641 -0.43679,5.10727 -1.69122,9.53451 -3.52004,13.34097 3.47203,1.98244 7.12649,0.776 10.86413,-3.60004 0.98242,-1.14563 2.15204,-2.80003 3.39205,-4.54728 4.03845,-5.70086 9.0673,-12.80175 14.21616,-12.41456 3.34248,0.25121 4.95049,2.65764 5.2129,5.25129 0.03198,-0.03843 0.7296,4.22404 -2.22725,7.87368 -2.95682,3.64966 -10.34572,8.08492 -11.47693,11.99695 -0.0976,0.33283 -0.1536,0.62403 -0.216,0.91843 -0.0288,0.34239 -0.06722,0.6784 -0.04642,1.03203 0.0688,1.15519 0.57442,1.92481 1.49441,2.28321 1.71204,0.67202 4.34407,-0.2304 6.4001,-2.19042 l 2.23203,-2.25924 c 3.40485,-3.53124 7.26889,-7.54089 10.45773,-5.24327 0.46723,0.33762 0.80002,0.76801 1.01921,1.26243 0.26562,0.5088 1.08803,2.46243 -0.36799,4.78405 -1.86882,2.98405 -5.12328,5.09767 -5.76168,6.66249 -0.07681,0.3344 -0.08481,0.6288 -0.02079,0.85921 0.02719,0.0896 0.08,0.1792 0.13119,0.26559 0.1008,0.14083 0.2144,0.25602 0.3232,0.37763 0.27682,0.2224 0.64641,0.3824 1.09762,0.38719 1.06081,0.01601 1.68163,-0.5376 2.62723,-1.72961 0.7296,-0.91681 1.65123,-2.03844 2.99683,-2.24804 0.08642,-0.0224 0.13761,-0.06399 0.23521,-0.07359 2.75844,-0.36641 3.78246,1.34721 3.34883,3.17282 -0.43357,1.82244 -1.3936,3.34885 0,3.34885 1.39203,0 2.04164,0.77761 1.34404,1.86563 -0.69282,1.08961 -3.52006,1.00001 -4.04005,-1.08802 -0.52162,-2.08482 0.9552,-4.47526 -0.04322,-5.12646 -0.9968,-0.656 -1.8192,0.18239 -1.8192,0.18239 -0.24642,0.25761 -0.5024,0.57121 -0.79362,0.93764 -0.94081,1.18881 -2.11361,2.66243 -4.13287,2.30081 -2.00321,-0.36 -2.60483,-1.504 -2.78403,-2.15204 -0.0128,-0.05118 -0.0112,-0.10557 -0.024,-0.1552 -0.0128,-0.0448 -0.04318,-0.07679 -0.0528,-0.12797 0,0 -0.19839,-0.95522 0.22721,-2.21443 0.21601,-0.63523 0.59521,-1.46082 1.76163,-2.77124 1.44162,-1.62404 3.38084,-3.19844 4.16485,-4.75847 0.20961,-0.53121 0.3264,-1.03362 0.3056,-1.46242 -0.02562,-0.53122 -0.23841,-0.93121 -0.6576,-1.22722 -2.08963,-1.50722 -5.44967,1.98084 -8.41611,5.05766 l -2.28003,2.30404 c -2.52003,2.40643 -5.75206,3.41764 -8.04971,2.51843 -1.49442,-0.58721 -2.37604,-1.88004 -2.48802,-3.64325 -0.01441,-0.25279 0.024,-0.48642 0.032,-0.73442 -0.02721,-0.04318 -0.64002,-3.92163 3.53123,-8.6193 4.00966,-4.50886 8.7409,-6.86567 10.23054,-10.27532 0.1072,-0.38723 0.18241,-0.77442 0.20639,-1.17762 0.12001,-2.07843 -0.80641,-4.58085 -3.80163,-4.80647 -4.26407,-0.32161 -9.20813,6.66408 -12.81937,11.76335 -1.25922,1.77443 -2.45123,3.45764 -3.47685,4.66088 -5.31688,6.21766 -9.87053,5.60966 -12.78736,3.96484 -4.62887,8.62091 -12.08177,13.99698 -18.52183,17.37622 -5.18407,2.72804 -8.51852,4.10725 -10.29935,4.26405 -1.73282,0.1536 -2.22082,-0.89601 -1.97122,-1.76321 0.54881,-1.90244 4.53605,-0.64002 8.1201,-2.01283 3.57285,-1.36802 14.7874,-5.62728 21.64987,-18.59864 -1.03039,-0.8336 -1.82881,-1.91363 -2.29922,-3.16484 -0.94722,-2.12645 -1.36643,-5.14888 0.73282,-8.66092 1.50722,-2.52324 3.70884,-4.98408 6.12646,-7.33609 -0.05279,-2.05763 -0.26559,-4.09446 -0.63359,-6.09927 -9.22732,-1.27202 -16.72502,-5.38089 -22.40989,-9.57773 -3.63526,5.32807 -5.60808,10.67694 -5.25608,14.68338 0.18082,2.08803 0.69121,3.73766 1.36002,5.07527 0.54402,0.9664 1.37762,2.09763 2.68645,3.12165 2.60963,2.04161 5.17765,1.59361 6.12966,1.8704 1.47683,0.43363 0.86881,1.65444 0.86881,1.65444 0,0 -0.424,0.91201 -1.91362,0.91201 C 18.43631,55.3954 11.30983,53.52977 9.91782,45.61607 9.74501,44.78247 9.5738,43.89604 9.4842,42.90404 9.0986,38.46078 11.15302,32.7999 15.05388,27.13263 12.97066,25.5166 11.14984,23.9166 9.61542,22.49098 5.18016,18.38211 1.64891,13.22365 0.4857,8.66519 -0.22949,5.85716 -0.25348,3.10352 1.0873,1.28592 Z m 37.44049,35.44684 c -1.00962,-4.81447 -2.89125,-9.43053 -5.51848,-13.63536 -1.60483,-2.57126 -3.34084,-4.8641 -5.11046,-6.9297 -2.77445,1.96641 -5.54727,4.45284 -8.1185,7.39689 -0.98564,1.12961 -1.87364,2.28323 -2.71205,3.43524 2.24005,1.74083 4.75206,3.42885 7.54251,4.96647 4.34245,2.39683 9.05611,4.02244 13.91698,4.76646 z m 1.65762,6.23048 c 1.81282,-1.71524 3.69765,-3.36485 5.51366,-4.92807 -2.09603,0.05121 -4.12806,-0.04159 -6.07686,-0.26559 0.28959,1.6672 0.472,3.40164 0.5632,5.19366 z m -1.18081,6.93768 c -3.40485,3.10244 -5.27848,4.74086 -5.37768,8.18891 0.23839,1.35362 0.88001,2.52643 1.84162,3.40484 1.83363,-3.81283 3.00645,-7.7073 3.53606,-11.59375 z M 29.00285,15.42209 c 4.39046,5.39845 8.72812,12.52176 10.46255,21.44026 2.41764,0.31363 4.87045,0.3728 7.32807,0.22722 1.33605,-1.15202 2.61446,-2.26242 3.72808,-3.29765 3.72483,-3.47524 4.60325,-7.3521 4.80645,-9.21612 0.2048,-2.74403 -0.5696,-5.43846 -2.26722,-7.68489 -2.82886,-3.74406 -7.82732,-5.72488 -13.71697,-5.44007 -3.10887,0.1488 -6.70571,1.58561 -10.34096,3.97125 z M 4.66014,12.18686 c 1.14243,3.30403 4.97287,8.70889 11.18414,13.82896 0.85282,-1.16482 1.75524,-2.32963 2.75842,-3.48164 2.60006,-2.97604 5.41608,-5.51368 8.25613,-7.54091 C 21.32756,8.8908 15.58669,5.23155 12.16904,4.25714 7.34499,2.87793 5.10974,5.09076 5.10974,5.09076 c 0,0 -2.09123,2.35522 -0.4496,7.0961 z"
               style="fill:#000000;fill-opacity:1;fill-rule:nonzero;stroke:#000000;stroke-width:0.3985;stroke-linecap:butt;stroke-linejoin:miter;stroke-miterlimit:10;stroke-dasharray:none;stroke-opacity:1"
               id="path20" /></g></g></g></g></g></svg>
