<?xml version="1.0" encoding="UTF-8" standalone="no"?>
<svg
   xmlns:dc="http://purl.org/dc/elements/1.1/"
   xmlns:cc="http://creativecommons.org/ns#"
   xmlns:rdf="http://www.w3.org/1999/02/22-rdf-syntax-ns#"
   xmlns:svg="http://www.w3.org/2000/svg"
   xmlns="http://www.w3.org/2000/svg"
   xmlns:sodipodi="http://sodipodi.sourceforge.net/DTD/sodipodi-0.dtd"
   xmlns:inkscape="http://www.inkscape.org/namespaces/inkscape"
   version="1.1"
   id="svg2"
   xml:space="preserve"
   width="111.09333"
   height="117.33333"
   viewBox="0 0 111.09333 117.33333"
   sodipodi:docname="vectorian025.pdf"><metadata
     id="metadata8"><rdf:RDF><cc:Work
         rdf:about=""><dc:format>image/svg+xml</dc:format><dc:type
           rdf:resource="http://purl.org/dc/dcmitype/StillImage" /></cc:Work></rdf:RDF></metadata><defs
     id="defs6"><clipPath
       clipPathUnits="userSpaceOnUse"
       id="clipPath24"><path
         d="M 0,0 H 80.001 V 88.00111 H 0 Z"
         id="path22" /></clipPath></defs><sodipodi:namedview
     pagecolor="#ffffff"
     bordercolor="#666666"
     borderopacity="1"
     objecttolerance="10"
     gridtolerance="10"
     guidetolerance="10"
     inkscape:pageopacity="0"
     inkscape:pageshadow="2"
     inkscape:window-width="640"
     inkscape:window-height="480"
     id="namedview4" /><g
     id="g10"
     inkscape:groupmode="layer"
     inkscape:label="vectorian025"
     transform="matrix(1.3333333,0,0,-1.3333333,0,117.33333)"><g
       id="g12"
       transform="translate(72,16)"><g
         id="g14"
         transform="translate(-72,-16)"><g
           id="g16"><g
             id="g18"><g
               id="g20"
               clip-path="url(#clipPath24)"><path
                 d="m 39.48459,20.63477 c -2.12642,-8.07373 -7.65129,-5.94889 -7.65129,-5.94889 0,-5.09927 6.79849,-2.97604 6.79849,-2.97604 0,0 0,-6.8001 0,-10.19854 0,-3.40162 2.55203,0 2.55203,0 v 10.19854 c 5.94727,-0.85121 5.52486,2.55043 5.52486,2.55043 -5.52486,0 -7.22409,6.3745 -7.22409,6.3745 z"
                 style="fill:#000000;fill-opacity:1;fill-rule:nonzero;stroke:#000000;stroke-width:0.3985;stroke-linecap:butt;stroke-linejoin:miter;stroke-miterlimit:10;stroke-dasharray:none;stroke-opacity:1"
                 id="path26" /><path
                 d="m 75.60837,33.3854 c -3.82727,1.27524 -7.22569,2.55044 -7.22569,2.55044 9.77452,2.97446 9.34892,5.94729 9.34892,5.94729 -2.97606,2.55042 -8.07373,0 -11.89948,-2.54884 -3.82405,-2.55043 -5.95045,-2.55043 -5.95045,-2.55043 0,0 9.35061,8.0753 14.87387,15.72499 5.52647,7.64972 3.40166,14.45139 3.40166,14.45139 -2.54883,-0.42881 -5.94889,-1.70241 -5.94889,-1.70241 5.52487,8.92489 0.42241,13.60016 0.42241,13.60016 -2.54882,-0.8512 -3.39844,-1.27519 -3.39844,-1.27519 -5.52658,15.72499 -24.22282,10.62412 -26.34764,2.97602 -2.12802,-7.65129 0.8496,-15.30099 7.64809,-15.72661 6.80009,-0.42239 11.47534,4.67687 8.49931,9.77454 -2.97284,5.10086 -8.49931,2.12483 -8.0737,-1.27362 0.424,-3.39843 4.67526,-1.70082 4.67526,-1.70082 0.84962,-5.95207 -6.80007,-5.94728 -9.77451,-0.84801 -2.97605,5.09766 0,11.89935 4.67364,13.59857 4.67687,1.69762 10.20013,0.42562 15.29939,-4.67526 C 70.9331,74.60675 69.65787,58.03374 67.95546,51.66086 66.25613,45.28477 59.88167,37.21106 49.68152,31.683 46.43988,29.92616 43.07024,28.51656 39.73419,27.20123 36.46536,28.51656 33.16132,29.92616 29.98528,31.683 19.98674,37.21106 13.73866,45.28477 12.07463,51.66086 10.4042,58.03374 9.1562,74.60675 14.15466,79.70761 c 4.99848,5.10088 10.41295,6.37288 14.99701,4.67526 4.58086,-1.69922 7.49929,-8.50091 4.58086,-13.59857 -2.91525,-5.09927 -10.41453,-5.10406 -9.58093,0.84801 0,0 4.16645,-1.69761 4.58245,1.70082 0.41762,3.39845 -5.00005,6.37448 -7.91529,1.27362 -2.91524,-5.09767 1.66722,-10.19693 8.33291,-9.77454 6.66567,0.42562 9.5809,8.07532 7.49768,15.72661 -2.08322,7.6481 -20.40986,12.74897 -25.82753,-2.97602 0,0 -0.83041,0.42399 -3.33125,1.27519 0,0 -5.00005,-4.67527 0.41602,-13.60016 0,0 -3.33284,1.2736 -5.83209,1.70241 0,0 -2.08158,-6.80167 3.33447,-14.45139 5.41285,-7.64969 14.57777,-15.72499 14.57777,-15.72499 0,0 -1.57443,0.99202 -5.83208,2.55043 -6.96968,2.55043 -11.43054,0.0016 -11.43054,0.0016 5.73607,0 7.00971,-5.09927 7.00971,-5.09927 0,0 -1.40964,0.42401 -5.15848,-0.85123 -3.75046,-1.2752 -5.83365,-5.10085 -3.75046,-9.7746 2.08322,-4.67527 9.57931,-5.09926 9.57931,-5.09926 0,0 -1.5792,2.97602 -4.49444,4.25125 -2.91524,1.27361 2.06403,9.13461 9.56172,9.56181 7.0849,0.40001 8.68012,0.2096 11.59696,-1.48962 1.72963,-1.008 4.78404,-2.91364 9.1457,-5.00498 C 30.31648,23.5436 24.7164,21.29236 20.35796,17.66031 12.70985,11.28583 16.1099,4.48895 22.06038,4.48895 c 5.95045,0 5.09766,5.52167 2.54881,5.52167 -2.54881,0 -2.12481,-2.97284 -2.12481,-2.97284 0,0 -2.97445,0 -3.39846,3.39684 -0.4272,3.40324 2.54724,7.6497 13.17459,11.05134 2.74881,0.87842 5.23687,1.81442 7.47368,2.74883 2.19522,-0.93441 4.63365,-1.87041 7.3281,-2.74883 10.41613,-3.40164 13.33297,-7.6481 12.91377,-11.05134 -0.416,-3.39684 -3.33124,-3.39684 -3.33124,-3.39684 0,0 0.4144,2.97284 -2.08324,2.97284 -2.49922,0 -3.33444,-5.52167 2.49764,-5.52167 5.83208,0 9.16652,6.79688 1.66881,13.17136 -4.25284,3.61446 -9.7121,5.86407 -15.46418,8.13931 4.48327,2.10253 7.62249,4.02095 9.39531,5.03536 2.97444,1.69922 7.22251,2.10082 14.44829,1.69922 7.64809,-0.424 8.92491,-9.77303 5.95049,-11.04824 -2.97604,-1.27522 -3.40007,-2.97442 -3.40007,-2.97442 0,0 7.6481,0.42399 9.77455,5.09926 2.12482,4.67375 -0.0016,8.4994 -3.82405,9.7746 z"
                 style="fill:#000000;fill-opacity:1;fill-rule:nonzero;stroke:#000000;stroke-width:0.3985;stroke-linecap:butt;stroke-linejoin:miter;stroke-miterlimit:10;stroke-dasharray:none;stroke-opacity:1"
                 id="path28" /><path
                 d="m 36.25414,34.55663 c 0,-2.25602 1.82886,-4.08007 4.07849,-4.08007 2.2512,0 4.08001,1.82405 4.08001,4.08007 0,2.25123 -1.82881,4.07685 -4.08001,4.07685 -2.24963,0 -4.07849,-1.82562 -4.07849,-4.07685 z"
                 style="fill:#000000;fill-opacity:1;fill-rule:nonzero;stroke:#000000;stroke-width:0.3985;stroke-linecap:butt;stroke-linejoin:miter;stroke-miterlimit:10;stroke-dasharray:none;stroke-opacity:1"
                 id="path30" /><path
                 d="m 44.79666,62.28659 c -3.18724,5.73608 -4.78085,6.37448 -4.78085,12.74738 0,-6.3729 -1.59521,-7.0113 -4.78249,-12.74738 -2.0496,-3.69286 -1.9888,-6.05447 -1.68319,-7.27689 -0.75363,1.232 -2.84005,3.04804 -8.51691,2.17601 -8.28652,-1.27521 -3.82247,-8.92491 -3.82247,-8.92491 0,0 0.63683,6.37448 6.3745,3.18724 5.73607,-3.18724 6.05447,-9.56332 12.43056,-10.20013 6.37446,0.63681 6.69287,7.01289 12.42895,10.20013 5.73767,3.18724 6.37448,-3.18724 6.37448,-3.18724 0,0 4.46407,7.6497 -3.82246,8.92491 -5.67686,0.87203 -7.76331,-0.94401 -8.51691,-2.17601 0.30561,1.22242 0.36641,3.58403 -1.68321,7.27689 z"
                 style="fill:#000000;fill-opacity:1;fill-rule:nonzero;stroke:#000000;stroke-width:0.3985;stroke-linecap:butt;stroke-linejoin:miter;stroke-miterlimit:10;stroke-dasharray:none;stroke-opacity:1"
                 id="path32" /></g></g></g></g></g></g></svg>
