<?xml version="1.0" encoding="UTF-8" standalone="no"?>
<svg
   xmlns:dc="http://purl.org/dc/elements/1.1/"
   xmlns:cc="http://creativecommons.org/ns#"
   xmlns:rdf="http://www.w3.org/1999/02/22-rdf-syntax-ns#"
   xmlns:svg="http://www.w3.org/2000/svg"
   xmlns="http://www.w3.org/2000/svg"
   xmlns:sodipodi="http://sodipodi.sourceforge.net/DTD/sodipodi-0.dtd"
   xmlns:inkscape="http://www.inkscape.org/namespaces/inkscape"
   version="1.1"
   id="svg2"
   xml:space="preserve"
   width="63.133331"
   height="38.386665"
   viewBox="0 0 63.133331 38.386665"
   sodipodi:docname="vectorian190.pdf"><metadata
     id="metadata8"><rdf:RDF><cc:Work
         rdf:about=""><dc:format>image/svg+xml</dc:format><dc:type
           rdf:resource="http://purl.org/dc/dcmitype/StillImage" /></cc:Work></rdf:RDF></metadata><defs
     id="defs6"><clipPath
       clipPathUnits="userSpaceOnUse"
       id="clipPath24"><path
         d="M 0,0 H 44.02934 V 28.79076 H 0 Z"
         id="path22" /></clipPath></defs><sodipodi:namedview
     pagecolor="#ffffff"
     bordercolor="#666666"
     borderopacity="1"
     objecttolerance="10"
     gridtolerance="10"
     guidetolerance="10"
     inkscape:pageopacity="0"
     inkscape:pageshadow="2"
     inkscape:window-width="640"
     inkscape:window-height="480"
     id="namedview4" /><g
     id="g10"
     inkscape:groupmode="layer"
     inkscape:label="vectorian190"
     transform="matrix(1.3333333,0,0,-1.3333333,0,38.386667)"><g
       id="g12"
       transform="translate(72,-43.21)"><g
         id="g14"
         transform="translate(-72,43.21)"><g
           id="g16"><g
             id="g18"><g
               id="g20"
               clip-path="url(#clipPath24)"><path
                 d="m 39.78351,27.44803 c 0,0 0.70219,0.33272 1.3305,0.62912 0.62911,0.2957 2.95954,0.739 2.95954,0.739 0,0 -2.33043,-1.84891 -2.66303,-3.58792 0,0 -0.3327,0.33267 -0.88802,-0.14823 0,0 0.4433,1.77654 2.70075,3.21915 0,0 -1.18371,0.1468 -3.10774,-0.88802 z"
                 style="fill:#000000;fill-opacity:1;fill-rule:nonzero;stroke:#000000;stroke-width:0.3985;stroke-linecap:butt;stroke-linejoin:miter;stroke-miterlimit:10;stroke-dasharray:none;stroke-opacity:1"
                 id="path26" /><path
                 d="m 24.6559,11.80824 c 0,0 2.58113,0.35579 3.23555,1.51351 0.6523,1.15643 -2.04703,1.57234 -3.23555,-1.51351 m 0.56493,4.98466 c -0.17832,-0.62362 1.66239,-0.1776 1.66239,-0.1776 -0.05938,1.74993 -1.4841,0.80122 -1.66239,0.1776 M 8.18959,11.57054 c 0,0 3.59004,-0.26712 8.27831,1.06821 0,0 1.69181,1.45482 3.44244,1.78062 1.74983,0.32721 2.40213,0 1.18571,-1.00941 -1.2165,-1.00893 -3.44115,-1.80944 -6.85418,-2.28472 l -1.00881,-1.09694 5.57827,0.88993 c 0,0 3.53125,1.3934 6.64718,4.92456 L 25.8136,15.7841 c 0,0 -2.58043,-3.11595 -6.58696,-4.86587 0,0 2.07841,-0.06011 5.10417,0.80049 0,0 0.2083,1.66183 1.95821,2.61125 1.75132,0.94872 2.84823,-0.3566 2.01834,-1.45352 -0.82982,-1.09831 -3.59136,-1.42471 -3.59136,-1.42471 0,0 1.89882,-1.66112 6.85419,0.1782 4.95467,1.84012 5.93478,4.48136 5.57826,6.40879 -0.35519,1.92892 -2.66992,2.64123 -4.53945,2.64123 0,0 -1.3653,-2.46295 -4.36176,-3.85765 -2.99704,-1.39403 -3.82834,-0.59291 -3.20473,0.41591 0.62361,1.00949 2.25603,1.15709 2.04703,-0.47472 0,0 3.47253,0.80051 4.74835,4.00464 0,0 -4.27293,0 -9.22832,-2.28401 C 17.6549,16.1994 12.81775,12.99466 8.18959,11.57054 m 12.07655,2.67063 c -1.27652,-0.2083 -3.23474,-1.48351 -3.23474,-1.48351 6.05359,1.09689 4.51067,1.6911 3.23474,1.48351 M 5.08804,1.7937 C 3.27803,1.2391 3.03891,1.4987 3.03891,1.4987 5.88106,2.12642 9.11171,4.28615 9.11171,4.28615 6.19516,4.08255 2.00351,1.77602 2.26172,0.75969 2.52051,-0.25528 5.32776,0.649 7.9117,2.0342 c 2.58522,1.38371 4.46765,2.93495 4.46765,2.93495 L 9.79541,4.49034 c 0,0 -2.89874,-2.14332 -4.70737,-2.69664 m 6.95929,4.26558 4.28327,0.7014 1.14401,0.8299 -4.30096,-0.59081 z M 1.3,4.08733 c 0,0 -2.4903,-2.31951 0.96172,-2.34753 0,0 2.80034,2.85635 9.41882,4.21496 l 1.27381,1.10232 c 0,0 -4.01685,-0.19732 -6.05359,-0.98961 L 4.38315,4.31683 Z M 6.67468,6.03946 C 3.59084,5.95476 1.6955,4.28474 1.6955,4.28474 L 4.15703,4.42613 C 5.58185,5.38435 6.67468,6.03946 6.67468,6.03946 M 10.0133,7.7934 14.53836,8.13219 16.5471,9.4053 11.22844,8.8965 Z M 1.4701,6.37816 C 0.11148,5.04904 1.272,4.37013 1.272,4.37013 4.15703,6.88777 9.5318,7.73608 9.5318,7.73608 l 1.15973,1.1324 C 6.56197,8.83981 2.82721,7.70808 1.4701,6.37816 M 34.38153,3.67824 C 33.37271,3.82095 32.079,2.91731 32.079,2.91731 c 2.88854,-0.5321 3.31265,0.61952 2.30253,0.76093 M 31.9561,0.8635 C 32.1856,1.3409 31.07088,1.73021 31.07088,1.73021 30.25539,0.4735 31.7266,0.38399 31.9561,0.8635 M 26.99873,1.2699 C 27.79514,1.0752 28.83945,2.54512 28.83945,2.54512 26.78424,2.72263 26.20161,1.4645 26.99873,1.2699 m -5.84468,2.97525 c 0.86751,0 2.26565,1.20411 2.26565,1.20411 -1.73493,0.3019 -3.13305,-1.20411 -2.26565,-1.20411 m 8.75363,4.96896 C 28.28215,9.02899 26.69064,7.62398 26.69064,7.62398 c 3.95743,0.2958 4.84404,1.77522 3.21704,1.59013 M 41.37361,25.0063 c 0,0 -1.51491,-0.3696 -0.77661,-2.1085 0.73972,-1.73764 2.40424,-4.69648 1.25813,-8.69013 -1.1475,-3.99437 -5.32617,-7.43469 -14.68289,-8.729 0,0 1.59142,-1.22052 3.03255,-2.14475 1.44191,-0.9248 3.99364,-1.1092 4.88154,-0.4077 0.88863,0.70281 -0.7028,1.73893 -3.29214,0.11061 0,0 -1.4794,0.29709 -3.69714,2.14612 0,0 5.91627,0.77651 10.28152,3.77223 4.36317,2.99515 5.06667,7.69292 4.17867,10.65246 -0.88723,2.95883 -1.96024,4.65895 -1.18363,5.39866 M 4.05122,11.29462 c 0,0 3.36596,-0.51369 11.18036,3.93626 7.81652,4.44846 12.83538,5.64647 16.65892,5.76056 0,0 0.79781,1.71164 1.82502,3.99366 1.02801,2.28263 3.59274,3.02375 5.13298,2.39605 1.54151,-0.62701 0.79908,-2.22394 -0.056,-2.05315 -0.85582,0.17072 -0.42011,0.87763 -0.42011,0.87763 0,0 0.39411,-0.90973 0.89071,-0.47531 0.49581,0.43431 0.20618,1.86122 -1.94532,1.44792 -2.15083,-0.4139 -2.68765,-2.29564 -3.82626,-4.92316 L 32.8303,20.97504 c 0,0 3.44044,0.1107 4.55038,-2.36661 1.1078,-2.47875 -1.44324,-6.4731 -5.58579,-7.98801 -4.14186,-1.51692 -7.24889,-0.44461 -7.43471,0.8497 0,0 -1.9958,-0.8128 -6.98936,-1.77522 L 15.00278,8.17929 c 0,0 2.21982,0.07311 9.69073,1.62701 0,0 -3.55107,-0.9993 -5.17666,-1.5539 C 17.88852,7.69708 16.7035,6.73538 16.7035,6.73538 c 0,0 3.66375,0.3696 6.36237,0.62909 2.70066,0.25951 3.10774,0.18512 3.10774,0.18512 0,0 1.47942,1.51631 3.40215,1.84961 C 31.4998,9.73251 31.4254,8.807 30.38988,8.06659 29.35307,7.32758 25.5807,6.95738 25.5807,6.95738 L 24.1389,5.77374 c 0,0 1.22052,-0.22198 3.10704,-1.1461 1.88721,-0.92421 1.84963,-1.77521 1.84963,-1.77521 0,0 2.66173,-0.66592 3.14262,-1.55323 0.48152,-0.8879 -0.99791,-1.47939 -1.59012,-0.66521 0,0 -0.37021,0.59151 0.14821,1.22051 0,0 -0.77661,0.44262 -1.73761,0.66463 0,0 -0.48082,-1.10923 -1.77513,-1.47873 -1.29572,-0.37022 -2.03543,1.73821 1.44182,1.88582 0,0 -0.2957,1.51702 -4.77156,2.62554 0,0 -1.47873,-1.40502 -2.69934,-1.51563 -1.22121,-0.1114 -0.9617,0.44391 0.1107,1.18361 1.07301,0.73912 2.44043,0.59152 2.44043,0.59152 L 25.063,6.88368 c 0,0 -6.25027,-0.40712 -12.16735,-1.77524 0,0 -1.70141,-1.70141 -5.32616,-3.62344 -3.62486,-1.92398 -6.28729,-2.0354 -5.39937,0 0,0 -3.95872,-0.1106 -1.18362,2.81062 0,0 -1.4794,0.92412 0.6652,2.69866 2.14545,1.77652 5.58448,2.29423 11.13263,2.99644 l 1.03614,1.07372 c 0,0 -7.73931,-0.87091 -9.76925,0.23018"
                 style="fill:#000000;fill-opacity:1;fill-rule:nonzero;stroke:#000000;stroke-width:0.3985;stroke-linecap:butt;stroke-linejoin:miter;stroke-miterlimit:10;stroke-dasharray:none;stroke-opacity:1"
                 id="path28" /></g></g></g></g></g></g></svg>
