<?xml version="1.0" encoding="UTF-8" standalone="no"?>
<svg
   xmlns:dc="http://purl.org/dc/elements/1.1/"
   xmlns:cc="http://creativecommons.org/ns#"
   xmlns:rdf="http://www.w3.org/1999/02/22-rdf-syntax-ns#"
   xmlns:svg="http://www.w3.org/2000/svg"
   xmlns="http://www.w3.org/2000/svg"
   xmlns:sodipodi="http://sodipodi.sourceforge.net/DTD/sodipodi-0.dtd"
   xmlns:inkscape="http://www.inkscape.org/namespaces/inkscape"
   version="1.1"
   id="svg2"
   xml:space="preserve"
   width="49.84"
   height="39.279999"
   viewBox="0 0 49.84 39.279999"
   sodipodi:docname="vectorian147.pdf"><metadata
     id="metadata8"><rdf:RDF><cc:Work
         rdf:about=""><dc:format>image/svg+xml</dc:format><dc:type
           rdf:resource="http://purl.org/dc/dcmitype/StillImage" /></cc:Work></rdf:RDF></metadata><defs
     id="defs6"><clipPath
       clipPathUnits="userSpaceOnUse"
       id="clipPath26"><path
         d="M 0,0 H 30.60757 V 29.46497 H 0 Z"
         id="path24" /></clipPath></defs><sodipodi:namedview
     pagecolor="#ffffff"
     bordercolor="#666666"
     borderopacity="1"
     objecttolerance="10"
     gridtolerance="10"
     guidetolerance="10"
     inkscape:pageopacity="0"
     inkscape:pageshadow="2"
     inkscape:window-width="640"
     inkscape:window-height="480"
     id="namedview4" /><g
     id="g10"
     inkscape:groupmode="layer"
     inkscape:label="vectorian147"
     transform="matrix(1.3333333,0,0,-1.3333333,0,39.28)"><g
       id="g12"
       transform="translate(72,-42.535)"><g
         id="g14"
         transform="translate(-70.271,42.535)"><g
           id="g16"><g
             id="g18"><path
               d="m 20.96426,8.95439 c -1.96981,-2.36323 -2.56065,0.30052 -1.28071,3.05315 1.28071,2.75944 3.34823,4.52846 3.34823,4.52846 0.09899,-0.78551 -0.0991,-5.21836 -2.06752,-7.58161 M 7.57558,16.536 c 0,0 2.06825,-1.76902 3.34825,-4.52846 1.27992,-2.75263 0.6898,-5.41638 -1.28,-3.05315 -1.96985,2.36325 -2.16655,6.7961 -2.06825,7.58161 M 8.56049,4.82214 c 0,0 1.47813,0.68982 3.64326,0.78542 2.16661,0.10251 2.95483,-1.07913 0.98491,-1.57091 C 11.21884,3.54483 8.56049,4.82214 8.56049,4.82214 m 13.48628,0 c 0,0 -2.65894,-1.27731 -4.62747,-0.78549 -1.96982,0.49178 -1.1816,1.67342 0.98361,1.57091 2.16655,-0.0956 3.64386,-0.78542 3.64386,-0.78542 m 5.95808,6.15398 C 25.1484,6.54338 22.09598,5.16367 22.09598,5.16367 c -0.88582,0.49859 -2.95406,0.9904 -5.02156,0.68978 -2.06826,-0.2937 -1.57573,-2.16513 0.98491,-2.26072 2.56002,-0.1025 4.13574,0.7854 4.13574,0.7854 C 24.6566,1.12698 15.30399,1.4753 15.30399,1.4753 c 0,0 -9.35264,-0.34832 -6.89099,2.90283 0,0 1.57571,-0.8879 4.13635,-0.7854 2.56004,0.09559 3.05185,1.96702 0.9843,2.26072 C 11.46542,6.15407 9.3979,5.66226 8.51208,5.16367 c 0,0 -3.05313,1.37971 -5.90887,5.81245 -2.85571,4.43286 -1.01021,6.8781 0.29572,7.28788 1.57511,0.49183 3.05242,-0.2937 3.74163,-0.88789 0,0 -0.73829,-3.49716 1.23084,-7.24011 1.9691,-3.73614 4.03734,-3.54484 4.43144,-1.18161 0.39342,2.36325 -1.96982,6.7961 -4.72726,8.27142 0,0 -0.1967,2.46573 1.77253,4.13915 1.96982,1.67331 4.72716,-0.98361 5.51465,-2.85504 0,0 -1.08319,-1.57781 -1.7724,-4.92467 -0.68992,-3.34672 0,-6.10615 2.21363,-6.10615 2.21711,0.19807 2.90283,2.75943 2.21373,6.10615 -0.68992,3.34686 -1.77243,4.92467 -1.77243,4.92467 0.78821,1.87143 3.54484,4.52835 5.51467,2.85504 1.96912,-1.67342 1.77182,-4.13915 1.77182,-4.13915 -2.75674,-1.47532 -5.11996,-5.90817 -4.72658,-8.27142 0.39413,-2.36323 2.46165,-2.55453 4.43218,1.18161 1.96913,3.74295 1.22943,7.24011 1.22943,7.24011 0.68979,0.59419 2.16721,1.37972 3.74292,0.88789 1.30593,-0.40978 3.15085,-2.85502 0.29512,-7.28788 m -12.62497,6.9395 c 0,0 0.98491,-2.16513 1.37832,-4.92456 0.39341,-2.75253 -0.5908,-3.83855 -1.67412,-3.73615 -1.08332,0.09568 -1.87082,1.37291 -1.28002,4.03664 0.59081,2.65705 1.57582,4.62407 1.57582,4.62407 m 8.3909,-0.04781 c 0,0 -0.17619,3.31266 -2.95474,4.28257 -3.10092,1.08601 -5.51205,-3.14875 -5.51205,-3.14875 0,0 -2.41034,4.23476 -5.51199,3.14875 C 7.01347,21.18047 6.83798,17.86781 6.83798,17.86781 2.99731,20.67506 -1.7292,17.72441 0.63408,12.40366 2.99731,7.08978 7.87209,4.42595 7.87209,4.42595 5.21306,0.14339 15.25688,0 15.25688,0 h 0.0943 c 0,0 10.04312,0.14339 7.3848,4.42595 0,0 4.87475,2.66383 7.238,7.97771 2.36191,5.32075 -2.36325,8.2714 -6.2032,5.46415"
               style="fill:#000000;fill-opacity:1;fill-rule:nonzero;stroke:#000000;stroke-width:0.3985;stroke-linecap:butt;stroke-linejoin:miter;stroke-miterlimit:10;stroke-dasharray:none;stroke-opacity:1"
               id="path20" /><g
               id="g22"
               clip-path="url(#clipPath26)"><path
                 d="m 15.03487,26.80182 c 0,0 -1.2553,1.77583 -0.1475,2.21974 1.10781,0.444 1.03411,-1.91922 0.1475,-2.21974 M 12.00703,25.0327 c -0.95961,0.07521 -1.3879,0.5738 -0.8858,1.10652 0.8367,0.88791 2.36252,-0.73761 2.36252,-0.73761 0,0 -0.5163,-0.444 -1.47672,-0.36891 m 7.04061,1.10652 c 0.5021,-0.53272 0.07379,-1.03131 -0.88582,-1.10652 -0.96032,-0.07509 -1.47742,0.36891 -1.47742,0.36891 0,0 1.52593,1.62552 2.36324,0.73761 M 16.3893,21.71327 c -0.739,2.13782 0.2951,3.31943 0.2951,3.31943 0,0 1.25542,-0.519 2.28952,-0.21849 1.0334,0.2937 1.10782,1.84413 -0.44402,1.84413 -1.0334,0 -2.06681,-0.96303 -2.06681,-0.96303 0,0 -0.59081,0.30051 -0.96031,0.88793 0,0 0.51701,0.6625 0.66531,1.55041 0.14751,0.88791 -0.6407,1.33191 -1.08401,1.33191 -0.4433,0 -1.23081,-0.444 -1.08263,-1.33191 0.14761,-0.88791 0.66394,-1.55041 0.66394,-1.55041 -0.36882,-0.58742 -0.95963,-0.88793 -0.95963,-0.88793 0,0 -1.03411,0.96303 -2.06752,0.96303 -1.55113,0 -1.47741,-1.55043 -0.444,-1.84413 1.03479,-0.30051 2.28951,0.21849 2.28951,0.21849 0,0 1.03484,-1.18161 0.29582,-3.31943 -1.06013,-3.07365 -4.35707,-2.43844 -4.35707,-2.43844 0,0 0.95963,-0.74442 3.32295,0.21859 2.36324,0.96312 2.70743,4.08448 1.18161,5.90819 0,0 0.9357,0.73761 1.15702,1.03133 0.22131,-0.29372 1.15702,-1.03133 1.15702,-1.03133 -1.52581,-1.82371 -1.18164,-4.94507 1.1816,-5.90819 2.36334,-0.96301 3.32364,-0.21859 3.32364,-0.21859 0,0 -3.29762,-0.63521 -4.35704,2.43844"
                 style="fill:#000000;fill-opacity:1;fill-rule:nonzero;stroke:#000000;stroke-width:0.3985;stroke-linecap:butt;stroke-linejoin:miter;stroke-miterlimit:10;stroke-dasharray:none;stroke-opacity:1"
                 id="path28" /></g></g></g></g></g></g></svg>
