<?xml version="1.0" encoding="UTF-8" standalone="no"?>
<svg
   xmlns:dc="http://purl.org/dc/elements/1.1/"
   xmlns:cc="http://creativecommons.org/ns#"
   xmlns:rdf="http://www.w3.org/1999/02/22-rdf-syntax-ns#"
   xmlns:svg="http://www.w3.org/2000/svg"
   xmlns="http://www.w3.org/2000/svg"
   xmlns:sodipodi="http://sodipodi.sourceforge.net/DTD/sodipodi-0.dtd"
   xmlns:inkscape="http://www.inkscape.org/namespaces/inkscape"
   version="1.1"
   id="svg2"
   xml:space="preserve"
   width="410.67194"
   height="124.00156"
   viewBox="0 0 410.67193 124.00156"
   sodipodi:docname="vectorian076.pdf"><metadata
     id="metadata8"><rdf:RDF><cc:Work
         rdf:about=""><dc:format>image/svg+xml</dc:format><dc:type
           rdf:resource="http://purl.org/dc/dcmitype/StillImage" /></cc:Work></rdf:RDF></metadata><defs
     id="defs6"><clipPath
       clipPathUnits="userSpaceOnUse"
       id="clipPath24"><path
         d="M 0,0 H 308.00397 V 93.00117 H 0 Z"
         id="path22" /></clipPath></defs><sodipodi:namedview
     pagecolor="#ffffff"
     bordercolor="#666666"
     borderopacity="1"
     objecttolerance="10"
     gridtolerance="10"
     guidetolerance="10"
     inkscape:pageopacity="0"
     inkscape:pageshadow="2"
     inkscape:window-width="640"
     inkscape:window-height="480"
     id="namedview4" /><g
     id="g10"
     inkscape:groupmode="layer"
     inkscape:label="vectorian076"
     transform="matrix(1.3333333,0,0,-1.3333333,0,124.00156)"><g
       id="g12"
       transform="translate(72,21)"><g
         id="g14"
         transform="translate(-72,-21)"><g
           id="g16"><g
             id="g18"><g
               id="g20"
               clip-path="url(#clipPath24)"><path
                 d="M 161.65167,56.72072 C 244.37433,51.21664 308.31276,1.216 308.31276,1.216 c 0,0 -73.76575,49.87264 -152.33316,52.65667 C 76.16898,56.72072 40.9221,45.37657 7.29288,30.78438 c 0,0 50.64546,32.81643 154.35879,25.93634 z"
                 style="fill:#000000;fill-opacity:1;fill-rule:nonzero;stroke:#000000;stroke-width:0.3985;stroke-linecap:butt;stroke-linejoin:miter;stroke-miterlimit:10;stroke-dasharray:none;stroke-opacity:1"
                 id="path26" /><path
                 d="M 91.96918,81.82506 C 38.08368,81.42503 0,57.52074 0,57.52074 48.615,89.93715 91.96918,81.82506 91.96918,81.82506 Z"
                 style="fill:#000000;fill-opacity:1;fill-rule:nonzero;stroke:#000000;stroke-width:0.3985;stroke-linecap:butt;stroke-linejoin:miter;stroke-miterlimit:10;stroke-dasharray:none;stroke-opacity:1"
                 id="path28" /><path
                 d="m 272.06589,29.31236 -1.24321,1.32802 c 0.112,0.112 10.93454,10.36813 7.83369,25.88834 -4.23524,21.18428 -38.43728,33.39242 -70.0377,34.52844 -33.40683,1.21602 -56.46631,-9.93613 -56.69512,-10.04814 l 2.43683,2.04803 c 0.23519,0.112 20.45465,11.02415 54.31909,9.82415 32.31723,-1.16802 67.34168,-13.88819 71.76413,-35.98449 3.30403,-16.51221 -7.8993,-27.13635 -8.37771,-27.58435 z"
                 style="fill:#000000;fill-opacity:1;fill-rule:nonzero;stroke:#000000;stroke-width:0.3985;stroke-linecap:butt;stroke-linejoin:miter;stroke-miterlimit:10;stroke-dasharray:none;stroke-opacity:1"
                 id="path30" /><path
                 d="M 46.99738,23.9043 C 111.0078,49.02463 162.05807,10.94412 198.92735,10.12813 231.42058,9.40811 256.8625,21.05626 256.8625,21.05626 191.63286,-12.97614 147.47388,28.76837 100.47649,29.96837 68.71927,30.80038 46.99738,23.9043 46.99738,23.9043 Z"
                 style="fill:#000000;fill-opacity:1;fill-rule:nonzero;stroke:#000000;stroke-width:0.3985;stroke-linecap:butt;stroke-linejoin:miter;stroke-miterlimit:10;stroke-dasharray:none;stroke-opacity:1"
                 id="path32" /><path
                 d="m 223.55327,27.63234 c 1.96161,0.20799 4.01124,0.448 6.1617,0.72002 0,0 -2.23525,-0.44802 -6.1617,-0.72002 z"
                 style="fill:#000000;fill-opacity:1;fill-rule:nonzero;stroke:#000000;stroke-width:0.3985;stroke-linecap:butt;stroke-linejoin:miter;stroke-miterlimit:10;stroke-dasharray:none;stroke-opacity:1"
                 id="path34" /><path
                 d="m 167.73013,35.24844 c -17.0162,5.66408 -34.43883,4.04806 -34.43883,4.04806 24.31072,3.64803 36.46126,-2.83204 58.34156,-8.51212 13.76016,-3.56804 25.26914,-3.60004 31.92041,-3.15204 -29.76679,-3.08804 -38.33328,1.77603 -55.82314,7.6161 z"
                 style="fill:#000000;fill-opacity:1;fill-rule:nonzero;stroke:#000000;stroke-width:0.3985;stroke-linecap:butt;stroke-linejoin:miter;stroke-miterlimit:10;stroke-dasharray:none;stroke-opacity:1"
                 id="path36" /><path
                 d="M 123.56639,1.216 C 68.87607,15.39218 22.68509,0 22.68509,0 c 45.78139,19.85623 100.8813,1.216 100.8813,1.216 z"
                 style="fill:#000000;fill-opacity:1;fill-rule:nonzero;stroke:#000000;stroke-width:0.3985;stroke-linecap:butt;stroke-linejoin:miter;stroke-miterlimit:10;stroke-dasharray:none;stroke-opacity:1"
                 id="path38" /><path
                 d="m 211.88751,70.4969 -7.6945,0.4 c -8.10091,2.43203 -26.33473,3.64805 -26.33473,3.64805 20.25627,0.40001 27.14434,-1.21602 27.14434,-1.21602 z"
                 style="fill:#000000;fill-opacity:1;fill-rule:nonzero;stroke:#000000;stroke-width:0.3985;stroke-linecap:butt;stroke-linejoin:miter;stroke-miterlimit:10;stroke-dasharray:none;stroke-opacity:1"
                 id="path40" /><path
                 d="m 229.79015,65.21683 -7.1281,2.94404 7.4369,-0.40002 c 0,0 6.9169,-1.48801 25.04512,-10.54413 0,0 -16.99061,6.72009 -25.35392,8.00011 z"
                 style="fill:#000000;fill-opacity:1;fill-rule:nonzero;stroke:#000000;stroke-width:0.3985;stroke-linecap:butt;stroke-linejoin:miter;stroke-miterlimit:10;stroke-dasharray:none;stroke-opacity:1"
                 id="path42" /><path
                 d="m 218.8332,71.0569 c 0.61283,-0.27202 0.92322,-0.89601 0.70081,-1.39201 l -1.22561,-2.70403 c -0.2256,-0.49602 -0.90241,-0.67203 -1.51522,-0.40002 -0.61282,0.28801 -0.9248,0.91201 -0.7008,1.40802 l 1.22882,2.70404 c 0.2256,0.496 0.90078,0.672 1.512,0.384 z"
                 style="fill:#000000;fill-opacity:1;fill-rule:nonzero;stroke:#000000;stroke-width:0.3985;stroke-linecap:butt;stroke-linejoin:miter;stroke-miterlimit:10;stroke-dasharray:none;stroke-opacity:1"
                 id="path44" /></g></g></g></g></g></g></svg>
