<?xml version="1.0" encoding="UTF-8" standalone="no"?>
<svg
   xmlns:dc="http://purl.org/dc/elements/1.1/"
   xmlns:cc="http://creativecommons.org/ns#"
   xmlns:rdf="http://www.w3.org/1999/02/22-rdf-syntax-ns#"
   xmlns:svg="http://www.w3.org/2000/svg"
   xmlns="http://www.w3.org/2000/svg"
   xmlns:sodipodi="http://sodipodi.sourceforge.net/DTD/sodipodi-0.dtd"
   xmlns:inkscape="http://www.inkscape.org/namespaces/inkscape"
   version="1.1"
   id="svg2"
   xml:space="preserve"
   width="59.353432"
   height="39.872063"
   viewBox="0 0 59.353431 39.872063"
   sodipodi:docname="vectorian122.pdf"><metadata
     id="metadata8"><rdf:RDF><cc:Work
         rdf:about=""><dc:format>image/svg+xml</dc:format><dc:type
           rdf:resource="http://purl.org/dc/dcmitype/StillImage" /></cc:Work></rdf:RDF></metadata><defs
     id="defs6" /><sodipodi:namedview
     pagecolor="#ffffff"
     bordercolor="#666666"
     borderopacity="1"
     objecttolerance="10"
     gridtolerance="10"
     guidetolerance="10"
     inkscape:pageopacity="0"
     inkscape:pageshadow="2"
     inkscape:window-width="640"
     inkscape:window-height="480"
     id="namedview4" /><g
     id="g10"
     inkscape:groupmode="layer"
     inkscape:label="vectorian122"
     transform="matrix(1.3333333,0,0,-1.3333333,0.61596225,41.757962)"><g
       id="g12"
       transform="translate(72,-40.685)"><g
         id="g14"
         transform="translate(-72,42.311)"><g
           id="g16"><g
             id="g18"><path
               d="m 9.99402,20.40735 c 0,0 -4.08656,-0.64002 -4.77706,2.06752 -0.68853,2.70813 1.91991,3.64325 2.75802,3.49635 0.83731,-0.1468 2.60842,-0.54092 2.26425,-2.60983 -0.34432,-2.06824 -3.00266,-2.21503 -3.59478,-0.88652 -0.58947,1.32982 0.49242,2.16783 1.03342,2.16783 0,0 -0.58879,-1.18231 0.34621,-1.57573 0.93512,-0.39407 1.47673,0.68782 1.18173,1.47672 -0.29582,0.78753 -1.82164,1.52653 -3.00465,0.44261 -1.18102,-1.08332 -1.13181,-3.59474 1.23152,-4.03734 0,0 1.42812,-0.24519 2.21502,-0.14751 0,0 0.198,-0.04849 0.34632,-0.3941"
               style="fill:#000000;fill-opacity:1;fill-rule:nonzero;stroke:#000000;stroke-width:0.3985;stroke-linecap:butt;stroke-linejoin:miter;stroke-miterlimit:10;stroke-dasharray:none;stroke-opacity:1"
               id="path20" /><path
               d="m 36.48155,19.79195 c 0,0 1.55052,0.8128 1.77184,2.36322 0.22188,1.55182 -0.59091,2.36323 -1.69873,2.36323 -1.10782,0 -1.62422,-1.18161 -1.18161,-1.84483 0.44259,-0.66521 1.91992,-0.14819 1.47673,1.03342 0,0 0.88647,-0.3702 0.44319,-1.84691 -0.44319,-1.47664 -3.10086,-1.03342 -3.24844,0.7384 -0.1475,1.77173 1.10789,2.51072 1.91932,2.65904 0.81281,0.14818 2.14122,0 2.58454,-1.40303 0.44329,-1.40292 -0.07312,-3.61925 -2.06684,-4.06254"
               style="fill:#000000;fill-opacity:1;fill-rule:nonzero;stroke:#000000;stroke-width:0.3985;stroke-linecap:butt;stroke-linejoin:miter;stroke-miterlimit:10;stroke-dasharray:none;stroke-opacity:1"
               id="path22" /><path
               d="m 35.81636,10.192 c 0,0 -4.35707,0.44193 -7.0154,2.06683 -2.65895,1.62494 -1.32913,3.32496 1.10723,2.58526 2.43702,-0.73902 5.61305,-3.69307 5.90817,-4.65209 m 1.92061,6.499 c 0,0 -0.66531,-0.51641 -2.43703,-0.66462 -1.77313,-0.14888 -1.84752,1.55054 -0.14752,1.47533 1.69794,-0.073 2.58455,-0.81071 2.58455,-0.81071 m 2.51083,8.2714 c -0.5171,-2.1426 0.44322,-4.57896 -0.36819,-6.05636 -0.81282,-1.47733 -1.77384,-1.92063 -1.77384,-1.92063 0,0 -1.32911,1.256 -3.47044,0.6646 -2.14193,-0.58951 -1.256,-1.99313 0.59151,-1.99313 1.84482,0 3.02655,1.03412 3.02655,1.03412 0,0 1.55181,-0.66462 1.92061,-2.65973 0.3688,-1.99373 -1.18232,-3.98745 -3.83994,-3.61927 0,0 -2.14133,3.02916 -5.24498,4.35837 -3.10023,1.32913 -4.42937,0.14821 -4.42937,-0.8128 0,-0.95972 0.51703,-2.87894 4.35627,-4.28327 3.84066,-1.40361 5.53938,-0.2213 5.53938,-0.2213 0,0 2.43632,-4.06195 2.21573,-7.97558 0,0 -6.5741,-0.81282 -12.99727,4.43074 0,0 0.73701,3.61795 -1.25602,9.37852 0,0 0.2957,3.32366 -0.22201,5.68688 0,0 7.31169,7.68058 18.83226,7.45999 0,0 -2.36323,-1.32993 -2.88025,-3.47115 M 25.18161,6.64717 c 0,0 -1.91994,1.77173 -2.80513,3.47044 0,0 1.47602,2.43775 1.99301,4.28386 0,0 1.40433,-3.76754 0.81212,-7.7543 M 22.22757,1.92061 c -2.14063,-0.07509 -3.17534,4.28325 -3.17534,4.28325 0,0 1.62491,1.32924 3.10225,3.54554 0,0 1.40431,-2.2163 3.02713,-3.91574 0,0 -0.22189,-3.81875 -2.95404,-3.91305 m -2.14063,12.55466 c 0,0 0.96042,-2.73273 1.84554,-4.28327 0,0 -1.69794,-2.5859 -3.17535,-3.39734 0,0 -0.37021,4.50528 1.32981,7.68061 M 6.44907,16.76482 c 0,0 1.67271,0.59078 2.80523,0.59078 1.1338,0 1.82224,-0.3941 0.98552,-1.08402 -0.83801,-0.68779 -3.15074,-0.04909 -3.79075,0.49324 m 1.27933,-6.4007 c 0,0 1.23148,2.31412 4.18484,4.03735 2.95413,1.72402 5.21898,1.57581 5.36656,0.49181 0.14821,-1.08322 -3.69243,-4.67667 -9.5514,-4.52916 M 5.53725,1.2554 c -0.36818,3.61936 1.32913,7.90251 1.32913,7.90251 7.45999,-0.66451 10.19144,3.17473 10.85733,4.65215 0.66321,1.47662 -0.222,3.25044 -4.57826,1.62552 -4.35765,-1.62552 -5.83437,-5.09597 -5.83437,-5.09597 -0.4447,0 -3.69385,0.73902 -3.54555,2.80584 0.14749,2.06813 1.77172,2.95405 1.77172,2.95405 1.91993,-0.66392 3.76756,-0.66392 4.80098,-0.07312 1.0334,0.58952 0.81141,1.55054 -0.66393,1.69803 -1.47801,0.14751 -3.47243,-0.739 -3.47243,-0.739 -1.1072,0.22199 -2.21574,2.51142 -2.73144,5.98256 -0.51772,3.47045 -2.28953,5.09537 -2.28953,5.09537 13.66187,0.29571 18.90604,-7.60748 18.90604,-7.60748 -0.6659,-3.39536 0,-4.72446 0,-4.72446 C 17.42801,10.78223 18.31381,6.32686 18.31381,6.32686 12.11064,1.9691 5.53725,1.2554 5.53725,1.2554 m 14.91929,19.05425 1.18161,-1.77382 c 0,0 -1.3305,-1.77101 -1.3305,-2.21504 0,0 -0.36821,1.84692 0.14889,3.98886 m 1.77103,4.57896 c 0,0 1.33122,-1.62624 1.47742,-3.84065 0,0 -0.95972,-0.96031 -1.77251,-2.21573 l -1.32982,1.92073 c 0,0 0.5177,2.06684 1.62491,4.13565 m 1.77171,-10.33884 c 0,0 -1.4022,-3.24983 -1.9192,-3.84135 0,0 -1.69802,3.10164 -1.69802,4.72716 0,0 0.8866,1.77182 1.62421,2.73213 0,0 1.55252,-2.65903 1.99301,-3.61794 m 0,1.03402 -1.8448,2.95204 c 0,0 1.40431,1.84761 1.77243,2.06892 0,0 0.59089,-2.36334 0.07237,-5.02096 m 19.94088,13.14477 c -12.55396,0.44261 -19.79258,-7.2373 -19.79258,-7.2373 0,1.18164 -1.5505,3.91375 -1.5505,3.91375 1.18161,1.77242 2.80655,3.10164 2.80655,3.10164 v 0.59081 c -1.62494,-0.96042 -3.10096,-3.47115 -3.10096,-3.47115 -1.03401,1.91992 -3.76754,3.76616 -3.76754,3.76616 l -0.22132,-0.51633 c 0,0 3.17615,-2.21572 3.76627,-3.61862 0,0 -1.40294,-2.80655 -1.77243,-4.28396 0,0 -7.0161,8.716 -20.30765,7.31179 l 0.8107,-0.73912 c 1.62561,-1.84613 1.69871,-5.09526 2.06822,-7.45858 0.36809,-2.36324 2.51015,-3.69306 2.51015,-3.69306 0,0 -2.28885,-1.5505 -1.99375,-3.83923 C 3.69243,10.2651 6.64445,9.453 6.64445,9.453 4.50314,4.79955 5.16907,0 5.16907,0 c 8.56509,0.5908 13.14474,5.46486 13.14474,5.46486 0,0 0.73842,-5.09537 4.20886,-5.09537 3.47245,0 3.25115,4.80025 3.25115,4.80025 C 32.41962,-1.6256 39.36119,0.444 39.36119,0.444 c 0.14819,5.09467 -2.43703,9.08211 -2.43703,9.08211 0,0 3.17603,0.5915 3.69245,3.17604 0.51842,2.58453 -1.99314,4.21085 -1.99314,4.21085 3.02726,1.69734 2.87964,3.91307 2.87964,7.01528 0,3.12346 2.43705,4.80028 2.43705,4.80028"
               style="fill:#000000;fill-opacity:1;fill-rule:nonzero;stroke:#000000;stroke-width:0.3985;stroke-linecap:butt;stroke-linejoin:miter;stroke-miterlimit:10;stroke-dasharray:none;stroke-opacity:1"
               id="path24" /></g></g></g></g></g></svg>
