<?xml version="1.0" encoding="UTF-8" standalone="no"?>
<svg
   xmlns:dc="http://purl.org/dc/elements/1.1/"
   xmlns:cc="http://creativecommons.org/ns#"
   xmlns:rdf="http://www.w3.org/1999/02/22-rdf-syntax-ns#"
   xmlns:svg="http://www.w3.org/2000/svg"
   xmlns="http://www.w3.org/2000/svg"
   xmlns:sodipodi="http://sodipodi.sourceforge.net/DTD/sodipodi-0.dtd"
   xmlns:inkscape="http://www.inkscape.org/namespaces/inkscape"
   version="1.1"
   id="svg2"
   xml:space="preserve"
   width="66.426666"
   height="39.52"
   viewBox="0 0 66.426666 39.52"
   sodipodi:docname="vectorian151.pdf"><metadata
     id="metadata8"><rdf:RDF><cc:Work
         rdf:about=""><dc:format>image/svg+xml</dc:format><dc:type
           rdf:resource="http://purl.org/dc/dcmitype/StillImage" /></cc:Work></rdf:RDF></metadata><defs
     id="defs6" /><sodipodi:namedview
     pagecolor="#ffffff"
     bordercolor="#666666"
     borderopacity="1"
     objecttolerance="10"
     gridtolerance="10"
     guidetolerance="10"
     inkscape:pageopacity="0"
     inkscape:pageshadow="2"
     inkscape:window-width="640"
     inkscape:window-height="480"
     id="namedview4" /><g
     id="g10"
     inkscape:groupmode="layer"
     inkscape:label="vectorian151"
     transform="matrix(1.3333333,0,0,-1.3333333,0,39.52)"><g
       id="g12"
       transform="translate(72,-42.364)"><g
         id="g14"
         transform="translate(-70.474,42.994)"><g
           id="g16"><g
             id="g18"><path
               d="m 1.4183,3.45432 c 0,0 1.03481,4.78117 4.57967,8.42161 3.54353,3.64055 6.84796,6.07889 9.64902,6.39999 3.39734,0.39609 3.89934,-4.74707 0,-10.04043 C 11.58504,2.71661 6.39136,1.1184 4.71724,0.94759 2.61832,0.729 1.3616,0.96808 0.8767,2.42291 c -0.19741,0.59423 -1.11808,4.02985 1.96913,9.05693 2.65763,4.33716 8.5664,8.5719 12.60375,9.06371 2.46092,0.30051 5.61377,-1.48222 4.43145,-6.79608 0,0 1.96985,4.82216 -1.0839,6.49548 -3.05175,1.68031 -7.6799,0.79231 -13.48909,-4.62407 C -0.50299,10.20251 -1.52621,1.5282 2.15662,0.25778 4.71594,-0.63019 8.5156,0.7837 12.79126,4.29445 16.9024,7.66858 21.03816,14.53287 18.1578,17.93442 14.67577,22.03937 0.8275,11.63004 1.4183,3.45432"
               style="fill:#000000;fill-opacity:1;fill-rule:nonzero;stroke:#000000;stroke-width:0.3985;stroke-linecap:butt;stroke-linejoin:miter;stroke-miterlimit:10;stroke-dasharray:none;stroke-opacity:1"
               id="path20" /><path
               d="m 10.89323,22.66768 c 0,0 4.20325,2.70482 9.40581,2.77315 5.20126,0.07507 9.35472,-0.56013 11.61615,-2.34966 2.74515,-2.17882 -0.6147,-6.26327 -7.26599,-7.26739 -6.93059,-1.05179 -11.84904,1.55052 -13.18436,2.63653 -1.67543,1.36603 -2.41444,2.44524 -1.71092,3.85227 0.28409,0.56689 2.10501,3.72244 7.98039,5.12947 5.05776,1.20892 12.39898,-0.0068 15.67742,-2.57505 1.99922,-1.56413 2.99371,-5.12945 -1.70894,-8.1211 0,0 4.91777,2.06272 3.91925,5.48468 -1.00002,3.42195 -4.99017,6.13357 -13.11476,6.42039 C 14.38336,28.93785 7.36807,23.4054 9.1125,19.81953 c 1.21172,-2.49992 4.98607,-4.22114 10.61895,-4.78117 5.41636,-0.53279 13.37907,1.44112 13.75196,5.98329 0.45012,5.49147 -17.10563,7.98451 -22.59018,1.64603"
               style="fill:#000000;fill-opacity:1;fill-rule:nonzero;stroke:#000000;stroke-width:0.3985;stroke-linecap:butt;stroke-linejoin:miter;stroke-miterlimit:10;stroke-dasharray:none;stroke-opacity:1"
               id="path22" /><path
               d="m 42.03152,3.45432 c 0,0 -1.0341,4.78117 -4.57835,8.42161 -3.54555,3.64055 -6.84799,6.07889 -9.65044,6.39999 -3.39733,0.39609 -3.89933,-4.74707 0,-10.04043 4.06267,-5.51888 9.25702,-7.11709 10.93116,-7.2879 2.09683,-0.21859 3.35493,0.02049 3.83925,1.47532 0.1967,0.59423 1.11811,4.02985 -1.96854,9.05693 -2.65892,4.33716 -8.5678,8.5719 -12.60445,9.06371 -2.46093,0.30051 -5.61308,-1.48222 -4.43145,-6.79608 0,0 -1.96912,4.82216 1.08401,6.49548 3.05173,1.68031 7.6812,0.79231 13.49036,-4.62407 C 43.95215,10.20251 44.97527,1.5282 41.2924,0.25778 38.73389,-0.63019 34.93355,0.7837 30.65848,4.29445 26.54674,7.66858 22.41235,14.53287 25.2913,17.93442 28.77336,22.03937 42.62163,11.63004 42.03152,3.45432"
               style="fill:#000000;fill-opacity:1;fill-rule:nonzero;stroke:#000000;stroke-width:0.3985;stroke-linecap:butt;stroke-linejoin:miter;stroke-miterlimit:10;stroke-dasharray:none;stroke-opacity:1"
               id="path24" /></g></g></g></g></g></svg>
