<?xml version="1.0" encoding="UTF-8" standalone="no"?>
<svg
   xmlns:dc="http://purl.org/dc/elements/1.1/"
   xmlns:cc="http://creativecommons.org/ns#"
   xmlns:rdf="http://www.w3.org/1999/02/22-rdf-syntax-ns#"
   xmlns:svg="http://www.w3.org/2000/svg"
   xmlns="http://www.w3.org/2000/svg"
   xmlns:sodipodi="http://sodipodi.sourceforge.net/DTD/sodipodi-0.dtd"
   xmlns:inkscape="http://www.inkscape.org/namespaces/inkscape"
   version="1.1"
   id="svg2"
   xml:space="preserve"
   width="513.79858"
   height="85.900345"
   viewBox="0 0 513.79859 85.900344"
   sodipodi:docname="vectorian045.pdf"><metadata
     id="metadata8"><rdf:RDF><cc:Work
         rdf:about=""><dc:format>image/svg+xml</dc:format><dc:type
           rdf:resource="http://purl.org/dc/dcmitype/StillImage" /></cc:Work></rdf:RDF></metadata><defs
     id="defs6"><clipPath
       clipPathUnits="userSpaceOnUse"
       id="clipPath32"><path
         d="M 0,-0.07298 H 385.34895 V 64.15411 H 0 Z"
         id="path30" /></clipPath></defs><sodipodi:namedview
     pagecolor="#ffffff"
     bordercolor="#666666"
     borderopacity="1"
     objecttolerance="10"
     gridtolerance="10"
     guidetolerance="10"
     inkscape:pageopacity="0"
     inkscape:pageshadow="2"
     inkscape:window-width="640"
     inkscape:window-height="480"
     id="namedview4" /><g
     id="g10"
     inkscape:groupmode="layer"
     inkscape:label="vectorian045"
     transform="matrix(1.3333333,0,0,-1.3333333,0,85.900371)"><g
       id="g12"
       transform="translate(72,-7.774)"><g
         id="g14"
         transform="translate(-72,7.847)"><g
           id="g16"><g
             id="g18"><path
               d="m 170.91339,45.79118 c 1.22561,0 2.27524,0.75679 2.71843,1.81922 7.91209,-1.0224 12.81937,-4.80007 12.87378,-4.85126 0.1552,-0.1456 0.65439,-0.54401 1.10881,-0.81282 -0.79042,-0.1984 -1.34082,-0.256 -1.34082,-0.256 3.92485,-0.2288 6.90088,-4.38725 6.90088,-4.38725 0,0 2.97925,4.15845 6.9041,4.38725 0,0 -1.15203,0.11679 -2.52484,0.62561 0.2512,0.1808 0.4656,0.3568 0.5552,0.44321 0.056,0.05119 4.96166,3.82886 12.87377,4.85126 0.44642,-1.06243 1.49441,-1.81922 2.71684,-1.81922 1.62562,0 2.94723,1.32162 2.94723,2.94722 0,1.62244 -1.32161,2.94405 -2.94723,2.94405 -1.53923,0 -2.79364,-1.19843 -2.92004,-2.70404 -6.59208,-0.8656 -11.96496,-4.65285 -13.97619,-6.34888 -1.5328,0.71202 -3.12962,1.92961 -3.62884,4.02886 -0.6288,-2.66404 -3.03204,-3.92006 -4.82886,-4.49927 -1.40641,1.32483 -7.22249,5.86088 -14.51059,6.81929 -0.12799,1.50561 -1.37921,2.70404 -2.92163,2.70404 -1.62242,0 -2.94563,-1.32161 -2.94563,-2.94405 0,-1.6256 1.32321,-2.94722 2.94563,-2.94722 z m 42.78615,4.50246 c 0.86243,0 1.56003,-0.69922 1.56003,-1.55524 0,-0.8592 -0.6976,-1.56161 -1.56003,-1.56161 -0.64801,0 -1.2032,0.39841 -1.43681,0.96483 L 212.14752,48.82 c 0.0448,0.81762 0.72002,1.47364 1.55202,1.47364 z m -42.78615,0 c 0.832,0 1.50722,-0.65602 1.55202,-1.47364 l -0.1104,-0.67838 c -0.23841,-0.56642 -0.79042,-0.96483 -1.44162,-0.96483 -0.85922,0 -1.55842,0.70241 -1.55842,1.56161 0,0.85602 0.6992,1.55524 1.55842,1.55524 z"
               style="fill:#000000;fill-opacity:1;fill-rule:nonzero;stroke:#000000;stroke-width:0.3985;stroke-linecap:butt;stroke-linejoin:miter;stroke-miterlimit:10;stroke-dasharray:none;stroke-opacity:1"
               id="path20" /><path
               d="m 182.51993,51.33524 c 0.47522,0 0.91362,0.13122 1.30722,0.34242 l 6.25609,-5.94249 c -0.41281,0.50722 -3.63205,5.18407 -5.23528,6.87851 0.27522,0.43199 0.44643,0.94079 0.44643,1.49281 0,1.52962 -1.24643,2.77283 -2.77446,2.77283 -1.52641,0 -2.77123,-1.24321 -2.77123,-2.77283 0,-1.52803 1.24482,-2.77125 2.77123,-2.77125 z m 0,4.15527 c 0.76642,0 1.38563,-0.61921 1.38563,-1.38402 0,-0.76163 -0.61921,-1.38403 -1.38563,-1.38403 -0.76479,0 -1.38721,0.6224 -1.38721,1.38403 0,0.76481 0.62242,1.38402 1.38721,1.38402 z"
               style="fill:#000000;fill-opacity:1;fill-rule:nonzero;stroke:#000000;stroke-width:0.3985;stroke-linecap:butt;stroke-linejoin:miter;stroke-miterlimit:10;stroke-dasharray:none;stroke-opacity:1"
               id="path22" /><path
               d="m 201.69458,51.67766 c 0.39202,-0.2112 0.83042,-0.34242 1.30562,-0.34242 1.52963,0 2.76802,1.24322 2.76802,2.77125 0,1.52962 -1.23839,2.77283 -2.76802,2.77283 -1.53122,0 -2.77284,-1.24321 -2.77284,-2.77283 0,-0.55202 0.16481,-1.06082 0.44322,-1.49281 -1.60163,-1.69444 -4.82408,-6.37129 -5.23688,-6.87851 z m 1.30562,3.81285 c 0.76481,0 1.38402,-0.61921 1.38402,-1.38402 0,-0.76163 -0.61921,-1.38403 -1.38402,-1.38403 -0.7648,0 -1.38883,0.6224 -1.38883,1.38403 0,0.76481 0.62403,1.38402 1.38883,1.38402 z"
               style="fill:#000000;fill-opacity:1;fill-rule:nonzero;stroke:#000000;stroke-width:0.3985;stroke-linecap:butt;stroke-linejoin:miter;stroke-miterlimit:10;stroke-dasharray:none;stroke-opacity:1"
               id="path24" /><path
               d="m 192.04646,53.46648 v -5.07846 c 0,-0.3808 0.31201,-0.69122 0.6928,-0.69122 0.38402,0 0.69603,0.31042 0.69603,0.69122 v 5.17926 c 1.09921,0.3648 1.90402,1.39201 1.90402,2.62082 0,1.28804 -0.88962,2.36003 -2.08003,2.67044 v 4.60165 c 0,0.38402 -0.30881,0.69284 -0.69123,0.69284 -0.3824,0 -0.69439,-0.30882 -0.69439,-0.69284 v -4.60165 c -1.19042,-0.31041 -2.08002,-1.3824 -2.08002,-2.67044 0,-1.35361 0.9744,-2.47683 2.25282,-2.72162 z m 0.52159,4.10563 c 0.76322,0 1.38404,-0.62399 1.38404,-1.38401 0,-0.7664 -0.62082,-1.38721 -1.38404,-1.38721 -0.76319,0 -1.39039,0.62081 -1.39039,1.38721 0,0.76002 0.6272,1.38401 1.39039,1.38401 z"
               style="fill:#000000;fill-opacity:1;fill-rule:nonzero;stroke:#000000;stroke-width:0.3985;stroke-linecap:butt;stroke-linejoin:miter;stroke-miterlimit:10;stroke-dasharray:none;stroke-opacity:1"
               id="path26" /><g
               id="g28"
               clip-path="url(#clipPath32)"><path
                 d="m 384.82974,1.365 c -0.23359,0.0608 -23.84671,6.05288 -81.84265,14.10418 -0.91841,0.13121 -1.84321,0.2528 -2.76805,0.3744 -0.0608,0.03681 -0.12158,0.0688 -0.19357,0.08481 -0.11682,0.02241 -11.63216,2.33444 -16.72664,7.64971 l -0.36319,0.3824 -0.46881,-0.25441 c -0.0768,-0.04 -7.53609,-4.02724 -16.1266,-4.28804 -3.62085,0.29599 -7.17931,0.55999 -10.65775,0.8 0.95842,0.19519 1.86242,0.52 2.62245,1.06721 0.3472,0.24961 0.64639,0.53279 0.91359,0.8496 2.90083,2.14244 1.86884,5.59689 0.6192,6.27849 -1.272,0.68962 -3.12162,-0.35039 -3.12162,-1.50402 0,-1.74722 0.46562,-1.96161 1.38722,-2.30882 0.6208,-0.23203 0.51201,-0.76962 0.376,-1.10402 -0.2528,-0.42081 -0.57281,-0.7904 -0.98242,-1.08641 -1.60322,-1.15681 -4.49444,-1.34883 -8.13449,-0.54082 -3.23366,0.71843 -9.47534,5.47368 -14.49139,9.29294 -2.02083,1.5424 -3.93447,3.00003 -5.52808,4.11365 -5.76807,4.01443 -11.44654,5.25445 -11.68815,5.30566 -0.1408,0.03202 -0.71041,0.2368 -0.83521,0.1888 -7.5361,1.72963 -16.22742,-0.7424 -22.9043,-5.13927 -0.42239,-0.28 -0.8368,-0.58081 -1.24481,-0.88962 -0.40321,0.30881 -0.81761,0.60962 -1.24002,0.88962 -6.67528,4.39687 -15.36661,6.8689 -22.90269,5.13927 -0.1232,0.048 -0.6944,-0.15678 -0.83681,-0.1888 -0.23999,-0.05121 -5.92008,-1.29123 -11.68655,-5.30566 -1.59363,-1.11362 -3.50565,-2.57125 -5.52808,-4.11365 -5.01926,-3.81926 -11.25934,-8.57451 -14.49298,-9.29294 -3.63844,-0.80801 -6.52649,-0.61599 -8.13451,0.54082 -0.41119,0.29601 -0.72961,0.6656 -0.9792,1.08641 -0.14081,0.3344 -0.24802,0.87199 0.3712,1.10402 0.92322,0.34721 1.38722,0.5616 1.38722,2.30882 0,1.15363 -1.84964,2.19364 -3.12005,1.50402 -1.248,-0.6816 -2.28164,-4.13605 0.624,-6.27849 0.26242,-0.31681 0.56643,-0.59999 0.90722,-0.8496 0.76161,-0.54721 1.66563,-0.87202 2.62564,-1.06721 -3.47684,-0.24001 -7.03528,-0.50401 -10.66094,-0.8 -8.58571,0.2608 -16.04662,4.24804 -16.12502,4.28804 l -0.46719,0.25441 -0.36482,-0.3824 c -5.09605,-5.31527 -16.6098,-7.6273 -16.72501,-7.64971 -0.0704,-0.01601 -0.13119,-0.048 -0.1936,-0.08481 -0.92482,-0.1216 -1.84802,-0.24319 -2.77124,-0.3744 C 24.3627,7.41788 0.7496,1.4258 0.5176,1.365 0.20238,1.285 -7.8e-4,1.0034 -7.8e-4,0.693 c 0,-0.05442 0.00316,-0.1152 0.01917,-0.1712 0.09599,-0.3712 0.4736,-0.59358 0.8432,-0.50082 0.23361,0.06241 23.78752,6.04327 81.68586,14.07698 12.19855,1.69283 24.7043,2.97124 36.57488,3.93926 0.2496,-0.0064 0.9904,0.02718 1.09759,0.09121 34.03725,2.72481 62.55443,2.88964 62.93844,2.89283 l 0.43039,0.0016 0.18881,0.384 c 0.0368,0.0768 3.51843,7.00649 8.89291,11.54574 5.37766,-4.53925 8.85932,-11.46894 8.89771,-11.54574 l 0.192,-0.384 0.42561,-0.0016 c 0.38721,-0.0032 28.90119,-0.16802 62.94321,-2.89283 0.104,-0.06403 0.84321,-0.09761 1.09282,-0.09121 11.87214,-0.96802 24.37951,-2.24643 36.57487,-3.93926 57.89995,-8.03371 81.45386,-14.01457 81.68746,-14.07698 0.3712,-0.09276 0.75041,0.12962 0.84001,0.50082 0.0176,0.056 0.0256,0.11678 0.0256,0.1712 0,0.3104 -0.20801,0.592 -0.52002,0.672 z M 93.47719,16.89482 c 3.21445,1.23361 6.73768,2.99202 9.18731,5.36165 1.24483,-0.62241 4.96328,-2.35202 9.78254,-3.40004 -6.24489,-0.56322 -12.60977,-1.20961 -18.96985,-1.96161 z m 135.07054,17.24341 c 1.57123,-1.09763 3.47525,-2.54564 5.48648,-4.07524 5.08485,-3.87686 10.80974,-8.23374 14.40499,-9.37294 -9.84014,0.6 -18.75545,0.992 -26.08195,1.24643 0.0752,0.0448 0.1536,0.08319 0.2224,0.12958 2.19522,1.50883 3.66565,4.69606 3.65765,7.92491 -0.006,2.78082 -1.07682,5.25926 -3.02085,7.1649 1.64964,-0.75202 3.49125,-1.73763 5.33128,-3.01764 z m -77.23459,-4.07524 c 2.01282,1.5296 3.91365,2.97761 5.48646,4.07524 1.83843,1.28001 3.68325,2.26562 5.32967,3.01764 -1.94241,-1.90564 -3.01445,-4.38408 -3.02084,-7.1649 -0.008,-3.22885 1.45923,-6.41608 3.65765,-7.92491 0.0688,-0.04639 0.1472,-0.08478 0.22082,-0.12958 -7.3233,-0.25443 -16.24023,-0.64643 -26.07874,-1.24643 3.59684,1.1392 9.31851,5.49608 14.40498,9.37294 z m 31.418,-7.66251 c -1.11682,-0.0064 -4.59524,-0.04481 -9.83533,-0.1696 0.95522,0.6288 1.72641,1.4064 2.19203,2.3168 1.04482,-0.14717 2.95684,-0.01918 3.77285,2.59366 1.04483,3.33922 2.08163,6.00647 4.73607,2.53923 0,0 0,2.42563 -2.42563,2.77283 -2.42404,0.3472 -3.00325,-3.23523 -3.92485,-4.39044 -0.45443,-0.56642 -0.99202,-0.63202 -1.41762,-0.55042 0.10878,1.66083 -0.2608,3.28644 -1.09604,4.55686 -0.92799,1.40962 -2.31522,2.24003 -3.90564,2.34562 -1.85922,0.12481 -3.00963,-0.12799 -3.74405,-0.80799 -0.0784,-0.07842 -0.15199,-0.1632 -0.2224,-0.24482 -0.008,0.01441 -1.85603,-1.83361 -0.816,-4.37126 1.0384,-2.54243 3.81126,-1.38881 3.81126,0.68962 0,0 -0.11682,1.96323 -1.96324,2.19523 l -0.1632,0.2336 c 0.072,0.20801 0.1728,0.36641 0.30401,0.48481 0.416,0.38881 1.296,0.5312 2.69921,0.43679 1.47203,-0.09599 2.36324,-0.992 2.84325,-1.7264 0.99522,-1.51043 1.17603,-3.68006 0.4736,-5.66408 -0.48159,-1.37762 -1.81602,-2.51204 -3.65764,-3.11044 -2.37443,-0.77442 -5.12486,-0.5024 -6.84168,0.68 -1.80483,1.24162 -3.06405,4.02886 -3.05445,6.77768 0.005,2.98566 1.41762,5.58568 3.97446,7.32172 7.44969,5.06245 18.52504,2.22081 26.19394,-2.83685 0.30719,-0.1968 0.6,-0.41923 0.89601,-0.63842 -4.82086,-4.14564 -8.03531,-9.91533 -8.82892,-11.43373 z m 11.05616,11.43373 c 0.29438,0.21919 0.58718,0.44162 0.89278,0.63842 7.66892,5.05766 18.74425,7.8993 26.19396,2.83685 2.55842,-1.73604 3.96805,-4.33606 3.97764,-7.32172 0.01,-2.74882 -1.24961,-5.53606 -3.05442,-6.77768 -1.71683,-1.1824 -4.46727,-1.45442 -6.8433,-0.68 -1.84002,0.5984 -3.17285,1.73282 -3.65924,3.11044 -0.70242,1.98402 -0.52162,4.15365 0.47359,5.66408 0.4848,0.7344 1.37122,1.63041 2.84325,1.7264 1.40481,0.09441 2.28644,-0.04798 2.70402,-0.43679 0.12639,-0.1184 0.22721,-0.2768 0.30242,-0.48481 l -0.16321,-0.2336 c -1.84963,-0.232 -1.96163,-2.19523 -1.96163,-2.19523 0,-2.07843 2.76806,-3.23205 3.80805,-0.68962 1.03842,2.53765 -0.808,4.38567 -0.808,4.38567 -0.0768,0.06721 -0.14882,0.15199 -0.23199,0.23041 -0.73122,0.68 -1.88645,0.9328 -3.74405,0.80799 -1.59044,-0.10559 -2.97765,-0.936 -3.90567,-2.34562 -0.83202,-1.27042 -1.20002,-2.89603 -1.09281,-4.55686 -0.4288,-0.0816 -0.96322,-0.016 -1.41762,0.55042 -0.92642,1.15521 -1.49923,4.73764 -3.92807,4.39044 -2.42242,-0.3472 -2.42242,-2.77283 -2.42242,-2.77283 2.65285,3.46724 3.69124,0.79999 4.73286,-2.53923 0.81762,-2.61284 2.72805,-2.74083 3.77767,-2.59366 0.46879,-0.9104 1.2368,-1.688 2.192,-2.3168 -5.24486,0.12479 -8.71851,0.16319 -9.83691,0.1696 -0.79522,1.5184 -4.00805,7.28809 -8.8289,11.43373 z m 79.11462,-14.97778 c 4.81605,1.04802 8.53448,2.77763 9.78251,3.40004 2.44643,-2.36963 5.97127,-4.12804 9.18732,-5.36165 -6.36328,0.752 -12.72816,1.39839 -18.96983,1.96161 z"
                 style="fill:#000000;fill-opacity:1;fill-rule:nonzero;stroke:#000000;stroke-width:0.3985;stroke-linecap:butt;stroke-linejoin:miter;stroke-miterlimit:10;stroke-dasharray:none;stroke-opacity:1"
                 id="path34" /><path
                 d="m 192.91367,27.94775 c -2.94403,-2.42244 -3.98565,-6.58249 -3.98565,-6.58249 h 7.1057 c 0,2.42564 -3.12005,6.58249 -3.12005,6.58249 z"
                 style="fill:#000000;fill-opacity:1;fill-rule:nonzero;stroke:#000000;stroke-width:0.3985;stroke-linecap:butt;stroke-linejoin:miter;stroke-miterlimit:10;stroke-dasharray:none;stroke-opacity:1"
                 id="path36" /><path
                 d="m 276.11476,2.0706 c -0.21922,0.0368 -21.40829,3.43364 -76.31779,4.63208 l -7.83532,4.09444 -7.34089,-3.83365 c -62.00081,0.7216 -76.20737,-4.69925 -76.78818,-4.93286 -0.35521,-0.1424 -0.52641,-0.54721 -0.38562,-0.90081 0.14401,-0.35362 0.54561,-0.52482 0.90401,-0.38241 0.1376,0.05121 14.4178,5.43369 74.42657,4.84807 l 9.18411,-3.80484 8.47693,3.51204 c 54.2855,-1.20801 75.23296,-4.56328 75.45056,-4.59846 0.37761,-0.06242 0.73922,0.192 0.79841,0.5728 0.064,0.3728 -0.19359,0.7328 -0.57279,0.7936 z m -83.8923,1.80005 c -1.14882,0 -2.08003,0.9296 -2.08003,2.07521 0,1.14722 0.93121,2.08004 2.08003,2.08004 1.14561,0 2.07683,-0.93282 2.07683,-2.08004 0,-1.14561 -0.93122,-2.07521 -2.07683,-2.07521 z"
                 style="fill:#000000;fill-opacity:1;fill-rule:nonzero;stroke:#000000;stroke-width:0.3985;stroke-linecap:butt;stroke-linejoin:miter;stroke-miterlimit:10;stroke-dasharray:none;stroke-opacity:1"
                 id="path38" /></g></g></g></g></g></g></svg>
