<?xml version="1.0" encoding="UTF-8" standalone="no"?>
<svg
   xmlns:dc="http://purl.org/dc/elements/1.1/"
   xmlns:cc="http://creativecommons.org/ns#"
   xmlns:rdf="http://www.w3.org/1999/02/22-rdf-syntax-ns#"
   xmlns:svg="http://www.w3.org/2000/svg"
   xmlns="http://www.w3.org/2000/svg"
   xmlns:sodipodi="http://sodipodi.sourceforge.net/DTD/sodipodi-0.dtd"
   xmlns:inkscape="http://www.inkscape.org/namespaces/inkscape"
   version="1.1"
   id="svg2"
   xml:space="preserve"
   width="199.27112"
   height="41.284843"
   viewBox="0 0 199.27112 41.284844"
   sodipodi:docname="vectorian196.pdf"><metadata
     id="metadata8"><rdf:RDF><cc:Work
         rdf:about=""><dc:format>image/svg+xml</dc:format><dc:type
           rdf:resource="http://purl.org/dc/dcmitype/StillImage" /></cc:Work></rdf:RDF></metadata><defs
     id="defs6" /><sodipodi:namedview
     pagecolor="#ffffff"
     bordercolor="#666666"
     borderopacity="1"
     objecttolerance="10"
     gridtolerance="10"
     guidetolerance="10"
     inkscape:pageopacity="0"
     inkscape:pageshadow="2"
     inkscape:window-width="640"
     inkscape:window-height="480"
     id="namedview4" /><g
     id="g10"
     inkscape:groupmode="layer"
     inkscape:label="vectorian196"
     transform="matrix(1.3333333,0,0,-1.3333333,1.2369016,43.342358)"><g
       id="g12"
       transform="translate(72,-38.925)"><g
         id="g14"
         transform="translate(-72,40.664)"><g
           id="g16"><g
             id="g18"><path
               d="m 60.92827,27.05304 c 0,0 -0.59151,-3.27585 3.32295,-4.44177 3.91506,-1.16381 6.72028,0.21931 9.009,-2.18293 0,0 -0.66319,0.72742 -3.10082,0.87291 -2.43774,0.14621 -9.74953,-0.87291 -9.23113,5.75179"
               style="fill:#000000;fill-opacity:1;fill-rule:nonzero;stroke:#000000;stroke-width:0.3985;stroke-linecap:butt;stroke-linejoin:miter;stroke-miterlimit:10;stroke-dasharray:none;stroke-opacity:1"
               id="path20" /><path
               d="m 73.55675,21.37506 c 0,0 -1.03414,1.68222 -3.84067,1.82703 -2.80515,0.14549 -5.31737,-0.16931 -6.64648,1.72261 -1.32982,1.89403 0.2964,3.87617 1.77243,4.09475 1.47671,0.21921 1.99441,-1.0191 1.99441,-1.0191 0,0 -0.7383,1.09219 -2.14122,0.72881 -1.40361,-0.3647 -2.51083,-2.37693 -0.73972,-3.71496 0.91253,-0.6878 4.87467,-0.97541 5.61307,-0.97541 0.73902,0 3.61927,-0.698 3.98818,-2.66373"
               style="fill:#000000;fill-opacity:1;fill-rule:nonzero;stroke:#000000;stroke-width:0.3985;stroke-linecap:butt;stroke-linejoin:miter;stroke-miterlimit:10;stroke-dasharray:none;stroke-opacity:1"
               id="path22" /><path
               d="m 77.42598,25.92812 c -0.3831,-0.52871 -1.34482,-0.34569 -0.95821,0.57502 0.38381,0.9132 1.24651,0.96169 1.24651,0.96169 0,0 0.09632,-1.0101 -0.2883,-1.53671 m 3.71295,2.19863 c -1.07921,0.79232 -3.20953,-0.25412 -3.20953,-0.25412 -2.80445,3.31336 -6.04128,0.71991 -6.04128,0.71991 0,0 1.39672,1.08533 3.16443,0.64882 1.75122,-0.4309 2.56545,-1.53672 2.56545,-1.53672 -0.2883,0 -1.15023,-0.26371 -1.43914,-1.2015 -0.3224,-1.04911 0.86602,-1.69524 1.67884,-0.57502 0.57579,0.79092 0.14549,1.72871 0.14549,1.72871 1.72531,0.93571 3.12483,-0.13869 2.37143,-1.2261 -0.56481,-0.81551 -1.98284,-0.97732 -3.42055,-1.55383 -1.43841,-0.57722 -2.1891,-2.33663 -2.1891,-2.33663 1.43909,1.80183 2.87822,2.28743 4.89186,2.52176 1.76691,0.20689 2.56131,2.27171 1.4821,3.06472 M 71.537,27.72784 c 0,0 0.59972,-0.29991 0.77112,-1.12492 0.17149,-0.8237 -1.33662,-1.12021 -1.19932,0.07649 0.0846,0.74852 0.4282,1.04843 0.4282,1.04843 m -0.94322,-3.02583 c -1.655,0.43239 -2.3018,0.93649 -2.3018,1.94531 0,1.00951 1.58261,1.94522 3.09274,1.22531 0,0 -0.78273,-0.4351 -0.78273,-1.37152 0,-1.22671 2.07773,-1.44591 2.15834,-0.07237 0.07169,1.22531 -1.15982,1.6611 -1.15982,1.6611 -0.43101,0.35791 -3.26204,0.88312 -4.19856,-0.7021 -0.88101,-1.49452 0.73361,-2.84284 2.40024,-3.04564 2.37342,-0.2882 3.16503,-1.51361 3.16503,-1.51361 0,0 -0.71991,1.44121 -2.37344,1.87352"
               style="fill:#000000;fill-opacity:1;fill-rule:nonzero;stroke:#000000;stroke-width:0.3985;stroke-linecap:butt;stroke-linejoin:miter;stroke-miterlimit:10;stroke-dasharray:none;stroke-opacity:1"
               id="path24" /><path
               d="m 81.09042,28.43745 c 0,0 1.69733,0.87502 3.02715,-0.4364 1.32991,-1.30932 -0.22191,-4.29556 -2.65965,-4.36866 -2.43561,-0.073 -4.50455,0.36551 -7.16217,-2.18421 0,0 1.32782,2.11121 3.32225,2.62212 1.99511,0.5095 4.99086,-0.32309 6.17927,1.93832 1.03411,1.96582 -0.71312,2.93915 -2.70685,2.42883"
               style="fill:#000000;fill-opacity:1;fill-rule:nonzero;stroke:#000000;stroke-width:0.3985;stroke-linecap:butt;stroke-linejoin:miter;stroke-miterlimit:10;stroke-dasharray:none;stroke-opacity:1"
               id="path26" /><path
               d="m 86.1612,27.14043 c 0,0 0.78752,-1.92002 -0.56621,-3.53253 -1.67073,-1.99035 -4.60425,-1.53344 -7.11439,-1.63654 -1.94184,-0.08 -3.62475,-1.06082 -3.98815,-1.57582 0,0 0.96582,1.19671 2.36323,1.72262 1.39751,0.52591 5.81258,0.33951 7.77899,1.47744 2.05382,1.1905 1.52653,3.54483 1.52653,3.54483"
               style="fill:#000000;fill-opacity:1;fill-rule:nonzero;stroke:#000000;stroke-width:0.3985;stroke-linecap:butt;stroke-linejoin:miter;stroke-miterlimit:10;stroke-dasharray:none;stroke-opacity:1"
               id="path28" /><path
               d="m 86.50479,8.26889 c 0,0 0.88722,-0.92282 0.24651,-2.42813 -0.7841,-1.84491 -2.55992,-3.73615 1.82162,-4.95066 0,0 -1.2301,-0.1933 -2.70814,1.01981 -1.47672,1.2137 -0.29439,3.01073 0.05052,3.68894 0.3443,0.68032 0.98361,1.45562 0.58949,2.67004"
               style="fill:#000000;fill-opacity:1;fill-rule:nonzero;stroke:#000000;stroke-width:0.3985;stroke-linecap:butt;stroke-linejoin:miter;stroke-miterlimit:10;stroke-dasharray:none;stroke-opacity:1"
               id="path30" /><path
               d="m 72.81902,2.88133 c 0,0 0.51571,0.71781 1.32853,0.77451 0.81351,0.05398 1.62421,-0.77451 1.62421,-0.77451 0,0 -1.54982,0.9952 -2.95274,0"
               style="fill:#000000;fill-opacity:1;fill-rule:nonzero;stroke:#000000;stroke-width:0.3985;stroke-linecap:butt;stroke-linejoin:miter;stroke-miterlimit:10;stroke-dasharray:none;stroke-opacity:1"
               id="path32" /><path
               d="m 76.21635,4.55495 c 0,0 -0.46849,-0.1456 -0.83801,-0.5089 -0.36949,-0.36412 -1.15709,-0.51022 -1.96921,-0.14542 -0.81141,0.36391 -0.81141,0.58182 -1.33052,0.58182 0,0 0.07451,0.43779 0.44472,0.29109 0,0 0.8414,-0.53549 1.62491,-0.6311 1.18091,-0.1456 1.32912,0.9234 2.06811,0.41251"
               style="fill:#000000;fill-opacity:1;fill-rule:nonzero;stroke:#000000;stroke-width:0.3985;stroke-linecap:butt;stroke-linejoin:miter;stroke-miterlimit:10;stroke-dasharray:none;stroke-opacity:1"
               id="path34" /><path
               d="m 73.70493,13.87505 c 0,0 -0.59079,-0.43709 -1.99303,0.43702 0,0 -0.0738,-0.50869 -0.5185,-0.36461 0,0 -0.9603,0.94663 -3.69305,0.29161 l -0.07379,0.36409 c 0,0 -0.73831,-0.21858 -1.18163,-0.94599 0,0 -0.81141,0.5088 1.25542,1.38241 2.06822,0.87401 4.43146,-0.14549 6.20458,-1.16453"
               style="fill:#000000;fill-opacity:1;fill-rule:nonzero;stroke:#000000;stroke-width:0.3985;stroke-linecap:butt;stroke-linejoin:miter;stroke-miterlimit:10;stroke-dasharray:none;stroke-opacity:1"
               id="path36" /><path
               d="m 66.31874,12.27295 c 0,0 0.44391,0.87431 1.77384,1.31142 0,0 -0.07453,-0.21862 0.36878,-0.21862 0.44262,0 2.73204,-0.50959 3.76615,-1.16531 0,0 0.22131,-0.8011 -0.51561,-0.94592 0,0 -0.3702,0.36342 0.21991,0.58192 0,0 -0.21991,0.364 -0.59011,0.2186 -0.3702,-0.14551 -0.5915,-0.50951 -0.5915,-0.50951 0,0 -0.36891,0.364 0.295,0.79981 l -1.25531,0.14619 c 0,0 -0.36821,-0.582 -0.81153,0 0,0 -0.22259,-0.43649 0.07383,-0.582 0.63519,-0.3128 0.88519,0.21722 0.88519,0.21722 l 0.44391,-0.07171 c 0,0 -0.18441,-0.50951 -0.84961,-0.5826 -0.7377,-0.08061 -1.07032,0.43709 -1.07032,1.01909 0,0 -0.5908,0.1461 -1.33052,-0.65509 l -0.36819,0.2186 c 0,0 0.14828,0.51019 0.66391,0.6557 0,0 -0.8114,-0.07311 -1.10782,-0.43779"
               style="fill:#000000;fill-opacity:1;fill-rule:nonzero;stroke:#000000;stroke-width:0.3985;stroke-linecap:butt;stroke-linejoin:miter;stroke-miterlimit:10;stroke-dasharray:none;stroke-opacity:1"
               id="path38" /><path
               d="m 78.38089,11.71452 c -0.27249,0.07721 -0.32849,0.36892 -0.34149,0.48563 0.44809,0.04169 0.9289,0.05119 1.3701,0.04451 -0.06277,-0.62442 -0.70009,-0.62302 -1.02861,-0.53014 m 3.10365,0.53423 c -2.36324,1.35911 -3.69307,0.6311 -3.69307,0.6311 0,0 -0.8381,-0.33951 -1.47741,-0.43721 -0.64,-0.09698 -0.34418,-0.63051 -0.34418,-0.63051 0.24579,-0.14479 0,-0.38789 0,-0.38789 0.24579,-0.48492 0.54089,-0.09761 0.54089,-0.09761 0.739,0 0.49251,0.68021 0.49251,0.68021 0.2083,0.0677 0.45079,0.11889 0.71032,0.15499 0.05808,-0.25469 0.26568,-0.77439 1.01359,-0.73759 0.72882,0.0356 0.89001,0.55049 0.92483,0.81551 0.78141,-0.02181 1.38861,-0.0887 1.38861,-0.0887 z"
               style="fill:#000000;fill-opacity:1;fill-rule:nonzero;stroke:#000000;stroke-width:0.3985;stroke-linecap:butt;stroke-linejoin:miter;stroke-miterlimit:10;stroke-dasharray:none;stroke-opacity:1"
               id="path40" /><path
               d="m 79.2675,13.41486 c 0,0 -1.28003,0.72811 -2.31413,-0.43851 0,0 0.3934,0.03621 0.98633,0.1823 0.58941,0.1455 1.3278,0.25621 1.3278,0.25621"
               style="fill:#000000;fill-opacity:1;fill-rule:nonzero;stroke:#000000;stroke-width:0.3985;stroke-linecap:butt;stroke-linejoin:miter;stroke-miterlimit:10;stroke-dasharray:none;stroke-opacity:1"
               id="path42" /><path
               d="m 81.82814,13.31746 c 0,0 -1.92003,2.08733 -5.41707,0.09759 0,0 0.5327,0.77402 2.51212,1.16463 1.72394,0.34009 2.90495,-1.26222 2.90495,-1.26222"
               style="fill:#000000;fill-opacity:1;fill-rule:nonzero;stroke:#000000;stroke-width:0.3985;stroke-linecap:butt;stroke-linejoin:miter;stroke-miterlimit:10;stroke-dasharray:none;stroke-opacity:1"
               id="path44" /><path
               d="m 82.02486,13.65686 c 0,0 -0.93444,1.16402 -2.90356,1.16402 -1.96983,0 -3.44724,-1.16402 -3.44724,-1.16402 0,0 -0.0983,0.33951 0.68991,0.77741 0.7875,0.43571 2.36322,1.26141 4.08516,0.67881 1.7239,-0.58261 1.57573,-1.45622 1.57573,-1.45622"
               style="fill:#000000;fill-opacity:1;fill-rule:nonzero;stroke:#000000;stroke-width:0.3985;stroke-linecap:butt;stroke-linejoin:miter;stroke-miterlimit:10;stroke-dasharray:none;stroke-opacity:1"
               id="path46" /><path
               d="m 76.43697,8.6323 c 0,0 -0.22062,-0.50881 -0.8127,-0.72742 -0.58951,-0.2199 -1.25472,-0.8012 -1.91934,-0.4364 -0.66532,0.36261 -1.03409,1.01901 -1.55112,1.01901 0,0 -0.36949,0.36341 0.29501,1.31001 0,0 0.59079,0.2924 0.59079,0.6557 0,0 0.51714,0.21793 0.36891,-0.14548 -0.14759,-0.36482 -0.6632,-0.94662 -0.6632,-0.94662 0,0 0.29429,-0.3647 0.58941,-0.7288 0.2964,-0.36341 0.88721,-0.50881 1.70003,-0.14481 0.8114,0.36341 1.18159,0.87361 0.22128,1.16392 0,0 0.1107,0.46719 0.44193,0.61541 0,0 0.07379,-0.3341 0.37021,-0.55532 0.2964,-0.22 0.44259,-0.60719 0.36879,-1.0792"
               style="fill:#000000;fill-opacity:1;fill-rule:nonzero;stroke:#000000;stroke-width:0.3985;stroke-linecap:butt;stroke-linejoin:miter;stroke-miterlimit:10;stroke-dasharray:none;stroke-opacity:1"
               id="path48" /><path
               d="m 74.98425,5.93826 h -0.58951 c 0,0 -0.09899,0.29161 0.3436,0.29161 l 0.68981,0.04921 c 0,0 -0.14751,-0.29232 -0.4439,-0.34082 m -1.50132,0.0485 c -0.1762,0 -0.3196,0.06561 -0.3196,0.14691 0,0.07991 0.1434,0.14541 0.3196,0.14541 0.17761,0 0.32031,-0.0655 0.32031,-0.14541 0,-0.0813 -0.1427,-0.14691 -0.32031,-0.14691 M 78.2347,5.74495 c -0.295,0.19331 -0.59081,0.19331 -0.78821,0.53413 -0.19672,0.33879 -0.73902,0.5826 -0.88582,0.5335 -0.14891,-0.0479 0.1468,-0.58271 -0.24661,-0.58271 -0.39409,0 -1.13181,0.53481 -1.13181,0.53481 0,0 -0.5914,-0.4856 -0.9357,-0.4856 l -0.64001,0.33879 c -0.44321,-0.4364 -1.87142,-0.2418 -1.87142,-0.2418 l 0.0492,0.2418 c 0,0.24381 -0.39352,0.3886 -0.39352,0.3886 0,0 -0.0491,-1.01971 -1.03402,-1.74713 0,0 -0.24588,-0.38867 0.04851,-0.53349 0,0 0.63991,0.53349 0.93641,0.67901 0.2964,0.1462 2.11735,-0.097 3.05304,-0.63112 0,0 0.2459,0.3886 1.03341,0.4364 0.7882,0.0492 1.52592,0.14621 1.96985,0.43782 0,0 0.7876,-0.2431 0.98359,-0.38862 0,0 0.14752,0.29172 -0.14689,0.48561"
               style="fill:#000000;fill-opacity:1;fill-rule:nonzero;stroke:#000000;stroke-width:0.3985;stroke-linecap:butt;stroke-linejoin:miter;stroke-miterlimit:10;stroke-dasharray:none;stroke-opacity:1"
               id="path50" /><path
               d="m 56.42311,13.84776 c 0,0 -0.7384,-0.51771 -2.36322,-0.66461 -1.62433,-0.1469 -2.58533,2.36293 -1.03412,2.43674 1.55042,0.07379 3.10153,-1.32952 3.39734,-1.77213 m -35.00555,6.64618 c 0,0 0.81212,1.77243 3.39735,2.36326 2.58452,0.59148 3.24913,-0.95963 0.66449,-1.69804 -2.58452,-0.73901 -4.06184,-0.66522 -4.06184,-0.66522 M 31.9784,16.87599 c 0,0 0.3688,1.91994 1.84622,2.80583 1.47673,0.88652 2.95333,0.07311 2.43634,-0.59079 -0.51642,-0.66461 -1.84623,-1.77182 -4.28256,-2.21504 m 6.79398,-4.20926 c 0,0 0.81282,1.40294 2.73215,2.36196 1.92131,0.96139 3.17603,0.88631 3.17603,0.07509 0,-0.81341 -1.84622,-2.51075 -5.90818,-2.43705 M 44.68056,8.0127 c 0,0 1.1085,1.84683 2.36324,2.73342 1.2554,0.88591 1.99383,0.59082 2.06753,-0.0731 C 49.1858,10.00781 48.59502,9.3433 44.68056,8.0127 M 57.75223,5.33044 C 56.57062,2.57242 54.7982,1.8839 53.02577,3.26291 c 0,0 1.57572,1.57434 1.47661,4.13566 0,0 0.09911,1.18172 -0.98421,1.18172 -1.0832,0 -2.06811,-2.46162 -0.88652,-5.31738 0,0 -2.90492,-2.80581 -5.41566,-2.46291 -3.10375,0.4262 -4.52986,3.20194 -3.00264,6.40128 0,0 3.44525,0.78691 4.72587,2.36323 1.28,1.57431 -0.19671,2.60912 -1.52583,1.87082 -1.32991,-0.7391 -2.11813,-1.92062 -3.15153,-3.34823 0,0 -5.95659,-0.836 -6.10479,3.69314 0,0 3.64315,0.19739 5.66217,1.72193 2.01833,1.52652 1.13253,2.65931 -0.14819,2.61021 -1.27931,-0.04919 -4.18414,-0.8371 -5.36578,-3.59305 0,0 -4.43146,-0.14828 -6.25305,3.74056 0,0 2.51072,0.54091 3.93823,1.96843 1.42821,1.42962 0.49249,2.56074 -1.42751,2.06892 C 32.643,19.80475 31.7571,17.98311 31.6581,16.8514 c 0,0 -3.64327,-0.444 -5.61238,-0.0984 -3.03545,0.53002 -4.48136,1.67342 -4.82557,3.19935 0,0 3.88976,0.34489 5.36647,1.32982 1.47742,0.9842 1.18163,2.11732 -1.03342,2.01832 -2.2157,-0.09901 -3.98884,-1.47671 -4.67735,-2.95404 0,0 -4.18485,0.2957 -9.50282,1.91992 -5.31666,1.62493 -9.10812,4.53046 -10.14153,5.46627 0,0 7.38479,-3.29904 18.80704,-2.80794 11.42284,0.49252 18.11853,4.33307 25.01152,3.25116 6.8931,-1.08393 10.63404,-3.15346 12.20975,-6.69631 1.57504,-3.54623 1.37833,-6.00787 -0.59079,-7.48428 0,0 -1.18232,1.96953 -3.54565,1.96953 -2.36322,0 -1.18161,-4.72618 3.05313,-2.55965 0,0 0.39412,0.59012 0.98492,-0.88719 0.59081,-1.47614 1.77243,-4.43086 0.59081,-7.18752 M 52.87817,3.58263 c 0,0 -0.51699,1.55041 -0.29571,3.10153 0.22201,1.55124 0.73901,1.40294 1.10782,1.40294 0.36961,0 1.25543,-1.18163 -0.81211,-4.50447 m 4.08585,10.11682 c 0.98491,0.39412 3.05244,3.24965 0.88661,7.58272 -2.16592,4.33305 -6.10489,6.49758 -14.86868,7.77829 C 34.21803,30.34108 26.34071,26.30304 17.47852,25.61522 8.61629,24.9247 0,28.51945 0,28.51945 c 10.83203,-10.24194 21.02277,-8.5173 21.02277,-8.5173 1.18159,-6.597 10.73363,-3.74226 10.73363,-3.74226 1.67341,-4.92295 6.20327,-4.33286 6.20327,-4.33286 -0.59021,-5.90806 5.90878,-4.92315 5.90878,-4.92315 0,0 -2.16653,-4.23406 1.18161,-6.30159 3.95195,-2.44111 7.87731,2.26493 7.87731,2.26493 1.96913,-2.26493 5.80978,0.29432 6.00648,4.43135 0.1967,4.13367 -1.96983,6.30088 -1.96983,6.30088"
               style="fill:#000000;fill-opacity:1;fill-rule:nonzero;stroke:#000000;stroke-width:0.3985;stroke-linecap:butt;stroke-linejoin:miter;stroke-miterlimit:10;stroke-dasharray:none;stroke-opacity:1"
               id="path52" /><path
               d="m 91.78867,14.76627 c 0,0 0.7205,-0.5083 2.31881,-0.6366 1.59764,-0.1264 2.58185,2.39662 1.05392,2.45123 -1.52522,0.054 -3.07494,-1.36792 -3.37273,-1.81463 m 34.08895,7.08419 c 0,0 -0.70492,1.76212 -3.01835,2.32154 -2.31403,0.5574 -2.93215,-1.00061 -0.6201,-1.70752 2.31133,-0.70621 3.63845,-0.61402 3.63845,-0.61402 m -9.96464,-3.75123 c 0,0 -0.53072,1.4241 -1.97324,2.29022 -1.4412,0.86881 -2.90832,0.0369 -2.40973,-0.61951 0.50002,-0.65912 1.98894,-1.25811 4.38297,-1.67071 m -6.75577,-4.29398 c 0,0 -0.58192,1.09763 -2.45885,2.03324 -1.87701,0.93501 -3.11534,0.84691 -3.12693,0.0334 -0.0123,-0.81061 1.58392,-2.19092 5.58578,-2.06664 m -5.98739,-4.82496 c 0,0 -1.06481,1.83194 -2.28743,2.70285 -1.22332,0.87082 -1.95554,0.56541 -2.03743,-0.09913 -0.08201,-0.66658 0.48901,-1.32438 4.32486,-2.60372 M 90.35155,6.23256 c 1.12361,-2.74303 2.85843,-3.41034 4.62477,-2.00952 0,0 -1.47943,1.50133 -1.49103,3.82155 0,0 -0.0793,1.18101 0.98901,1.19322 1.06553,0.01429 2.09684,-2.13994 0.89061,-5.01058 0,0 2.48824,-3.34413 5.55027,-2.86263 3.06195,0.48301 4.15826,3.62684 2.70272,6.80909 0,0 -3.38302,0.74381 -4.61933,2.30382 -1.23761,1.55945 0.2323,2.61114 1.53141,1.88994 1.29772,-0.72061 2.05654,-1.89405 3.05304,-3.30785 0,0 5.95398,-0.66461 6.16767,3.86725 0,0 -3.38843,-0.14479 -5.35486,1.35712 -1.96501,1.50053 -1.07572,2.64395 0.1851,2.61114 1.25952,-0.03351 3.91306,-0.48971 5.03457,-3.23135 0,0 4.36317,-0.09279 6.21618,3.81946 0,0 -2.66243,0.01768 -4.04686,1.4282 -1.3866,1.40903 -0.4467,2.55374 1.43631,2.08594 1.88525,-0.4679 2.92744,-1.78682 3.00736,-2.91794 0,0 2.55791,-0.7561 5.52777,-0.02859 2.96843,0.7267 4.48056,1.3865 4.80026,3.26072 0,0 -3.82626,0.29641 -5.26608,1.26293 -1.44051,0.96571 -1.12021,2.26622 1.04911,2.03122 1.58465,-0.1721 3.48685,-1.26491 4.14457,-2.73273 0,0 4.54486,0.18509 9.80612,1.87563 5.26208,1.69181 9.04052,4.64445 10.07322,5.59187 0,0 -7.32399,-3.39055 -18.56863,-3.04085 -11.24394,0.34902 -18.23604,3.93146 -25.04303,2.76143 -6.80498,-1.16931 -10.41263,-3.02502 -12.01775,-6.58978 -1.6051,-3.56464 -1.10241,-6.10957 0.81481,-7.56088 0,0 1.19324,1.9833 3.52167,2.01271 2.32841,0.0307 1.09289,-4.71065 -3.04486,-2.59813 0,0 -0.37981,0.58542 -0.9843,-0.89882 -0.60442,-1.48421 -1.81205,-4.45194 -0.68982,-7.19359 m 4.77496,-1.68851 c 0,0 0.43381,1.26291 0.23909,2.81073 -0.1947,1.54903 -0.7069,1.39403 -1.07031,1.38992 -0.3633,-0.00541 -1.15502,-0.9022 0.83122,-4.20065 m -3.87334,10.06581 c -0.96382,0.38312 -3.30384,3.29746 -1.10383,7.65651 2.19806,4.36045 5.52636,6.28998 14.1775,7.68201 8.65259,1.38852 17.28122,-2.35034 25.99993,-2.92815 8.71881,-0.57849 17.26002,3.12345 17.26002,3.12345 -10.82255,-10.37574 -20.83627,-8.7809 -20.83627,-8.7809 -1.26222,-6.6109 -10.62854,-3.87616 -10.62854,-3.87616 -1.72191,-4.94357 -6.17588,-4.41086 -6.17588,-4.41086 0.4877,-5.18547 -5.99078,-5.09536 -5.99078,-5.09536 0,0 2.42192,-4.57697 -0.90772,-6.6875 -3.92873,-2.4896 -7.97707,2.63644 -7.97707,2.63644 -1.97525,-2.29014 -5.71891,0.22201 -5.85209,4.35424 -0.13182,4.13436 2.03473,6.32628 2.03473,6.32628"
               style="fill:#000000;fill-opacity:1;fill-rule:nonzero;stroke:#000000;stroke-width:0.3985;stroke-linecap:butt;stroke-linejoin:miter;stroke-miterlimit:10;stroke-dasharray:none;stroke-opacity:1"
               id="path54" /><path
               d="M 86.6038,8.9479 C 85.66939,8.609 83.79796,8.80171 83.94547,9.67662 c 0.1482,0.87289 1.27931,0.388 1.27931,0.388 -0.0997,0.1584 -0.4289,0.2766 -0.76572,0.26151 0.11682,0.60719 0.16123,1.0895 0.17561,1.42001 0.12151,-0.03481 0.2493,-0.06281 0.39272,-0.07921 1.23221,-0.1454 2.36392,0.72812 2.36392,0.72812 C 88.67203,10.59862 87.5402,9.28801 86.6038,8.9479 m -2.06683,4.80567 c 1.17961,0.0977 1.96713,-0.79161 1.96713,-0.79161 0,0 -0.3429,-0.24652 -1.52522,-0.2964 -1.18092,-0.04921 -1.62352,0.99171 -0.44191,1.08801 m -2.01832,2.62173 c -0.73902,0.77662 -0.0997,1.84421 1.37701,1.89332 C 85.14688,18.31032 86.8203,17.725 87.30461,17.544 87.12772,17.29881 86.918,17.07811 86.7028,16.9006 85.22478,15.68748 83.25635,15.59808 82.51865,16.3753 m 5.56189,-0.097 c 0.44459,-2.33143 -0.88593,-2.92225 -0.88593,-2.92225 -1.29362,0.76431 -1.99033,0.89201 -2.51283,0.74721 0.0014,0.29441 -0.02941,0.7308 -0.04231,0.89552 0.0655,0.0075 0.12841,0.01909 0.1912,0.03 1.67343,0.3408 3.54625,1.80482 3.34885,3.98845 -0.196,2.18503 -2.60913,2.50264 -4.43275,2.26153 -1.43374,-0.19191 -2.22533,-0.59361 -2.49714,-0.75612 -0.59971,0.40232 -1.54712,0.57302 -2.76903,0.41532 -2.26425,-0.2903 -3.34884,-1.74791 -3.34884,-1.74791 4.43146,2.13582 6.84528,0.29169 6.35348,-0.63114 -0.4945,-0.9214 -2.31683,-1.21301 -2.31683,-1.21301 0.642,0 2.71022,0.33942 2.80863,1.69933 0.0362,0.5218 -0.13871,0.96312 -0.4918,1.29501 1.01561,0.5983 3.56815,1.20422 5.26606,0.2083 1.42071,-0.82979 1.20901,-2.07973 0.56901,-2.98203 -1.60373,0.9883 -4.48745,1.82773 -5.59057,0.17141 -1.04091,-1.56202 1.03752,-2.82804 2.68083,-2.75823 l -0.0607,-1.01163 c -0.138,-0.07379 -0.26849,-0.1653 -0.4044,-0.2623 -0.60721,-0.44059 -0.57992,-1.40702 0.3545,-1.84143 -0.02051,-0.56819 -0.16389,-1.18641 -0.293,-1.65632 -0.2855,-0.15781 -0.47401,-0.4836 -0.3572,-1.06552 0.0252,-0.1229 0.04978,-0.34078 0.04978,-0.34078 C 81.58154,3.90234 77.6924,0.89908 74.49245,0.7939 71.6845,0.7017 69.86429,2.05621 68.53516,3.36552 c -1.1769,1.15973 -2.92882,3.79755 -3.31813,4.39316 0.50059,0.24662 0.7875,0.63242 0.85511,0.99581 0.12841,0.67222 -0.4084,1.01564 -1.25741,1.00343 L 64.6152,10.49 c -0.02177,0.07792 -0.10307,0.12513 -0.18098,0.10322 -0.07851,-0.0205 -0.12491,-0.10239 -0.10381,-0.18102 L 64.5142,9.73743 C 64.47522,9.73332 64.43832,9.7305 64.39871,9.72441 63.3148,9.57901 63.11942,8.62889 63.11942,8.62889 L 63.4138,8.5804 c 0.93512,1.11673 2.36394,0.90161 2.31543,0.416 -0.05049,-0.48511 -1.38031,-1.21253 -3.25044,-0.48511 -1.87083,0.72821 -1.37903,2.91322 -1.37903,2.91322 2.46095,-1.40771 4.57898,-0.19468 4.72647,1.01833 0.1489,1.21443 -1.0334,1.79643 -2.26552,1.55383 -1.22952,-0.2431 -2.26353,-1.62552 -2.26353,-1.62552 l 0.2943,-0.14552 c 2.61123,3.09966 4.92537,0.36331 3.15155,-0.31619 -1.77113,-0.67821 -4.23407,0.194 -4.62816,1.84413 -0.39342,1.65091 0.6905,2.42841 0.6905,2.42841 1.96842,-2.33071 6.44909,-1.71462 6.84249,0.32452 0.3941,2.03883 -1.64192,2.87413 -3.49506,2.48953 -1.87141,-0.3865 -2.4615,-1.50393 -2.4615,-1.50393 l 0.24718,-0.0977 c 0,0 1.13112,1.40904 3.10025,1.31204 1.96981,-0.09761 2.23622,-1.63242 1.8715,-2.23274 -0.4433,-0.7302 -3.29904,-1.45792 -5.26745,0.0949 -1.96982,1.55461 -0.54302,4.02986 1.91793,4.12615 2.46293,0.0984 4.03866,-1.31001 4.03866,-1.31001 -0.39472,-2.71704 2.56003,-2.03884 2.56003,-2.03884 -1.27933,0.19461 -2.51154,0.97121 -1.67274,1.94254 1.08463,1.2595 4.72577,0.48561 4.72577,0.48561 -3.64386,1.84411 -5.41638,-0.0977 -5.41638,-0.0977 -3.44713,2.03881 -6.30217,1.26219 -7.08967,-0.29161 -0.78762,-1.55253 0,-2.62075 0,-2.62075 -2.46235,-3.30144 0.19738,-5.14615 0.19738,-5.14615 -0.88659,-2.52455 1.28063,-3.88307 1.28063,-3.88307 -0.09972,-2.66922 1.06552,-2.51973 0.5894,-4.85354 -0.3947,-1.93293 -3.15074,-2.62275 -3.15074,-2.62275 0.59152,0 3.00465,0.71361 3.69175,2.36313 0.69051,1.65163 -0.3429,3.36534 -0.54101,4.04557 -0.1967,0.67889 -0.09759,1.0178 -0.09759,1.0178 1.01151,-0.2774 1.797,-0.22198 2.35912,-0.00549 L 64.99022,7.59 c 0,0 3.29765,-6.9416 8.81241,-7.28171 h 1.03341 c 0.83872,0 5.81047,0.38861 9.15932,8.10681 l 0.0075,0.06819 C 84.95088,7.52577 87.293,7.9356 88.08054,9.6145 c 0.8797,1.87074 -0.34432,3.19925 -0.34432,3.19925 1.42821,1.47672 0.34432,3.46455 0.34432,3.46455 M 63.9555,11.77963 c 0.0034,0 0.0088,0 0.0116,7e-4 0.08191,0.0062 0.14202,0.0779 0.13591,0.15842 l -0.07451,0.96111 c -0.0061,0.0798 -0.07708,0.14129 -0.1577,0.13449 -0.0806,-0.0048 -0.1414,-0.07579 -0.1366,-0.15709 l 0.0737,-0.96102 c 0.0055,-0.07791 0.07111,-0.13661 0.1476,-0.13661"
               style="fill:#000000;fill-opacity:1;fill-rule:nonzero;stroke:#000000;stroke-width:0.3985;stroke-linecap:butt;stroke-linejoin:miter;stroke-miterlimit:10;stroke-dasharray:none;stroke-opacity:1"
               id="path56" /><path
               d="m 85.9638,9.1213 c 0,0 -0.14752,0.43511 -0.44262,0.68911 0,0 0.59012,0.14761 0.44262,-0.68911"
               style="fill:#000000;fill-opacity:1;fill-rule:nonzero;stroke:#000000;stroke-width:0.3985;stroke-linecap:butt;stroke-linejoin:miter;stroke-miterlimit:10;stroke-dasharray:none;stroke-opacity:1"
               id="path58" /></g></g></g></g></g></svg>
