<?xml version="1.0" encoding="UTF-8" standalone="no"?>
<svg
   xmlns:dc="http://purl.org/dc/elements/1.1/"
   xmlns:cc="http://creativecommons.org/ns#"
   xmlns:rdf="http://www.w3.org/1999/02/22-rdf-syntax-ns#"
   xmlns:svg="http://www.w3.org/2000/svg"
   xmlns="http://www.w3.org/2000/svg"
   xmlns:sodipodi="http://sodipodi.sourceforge.net/DTD/sodipodi-0.dtd"
   xmlns:inkscape="http://www.inkscape.org/namespaces/inkscape"
   version="1.1"
   id="svg2"
   xml:space="preserve"
   width="40.340271"
   height="60.287556"
   viewBox="0 0 40.340271 60.287556"
   sodipodi:docname="vectorian180.pdf"><metadata
     id="metadata8"><rdf:RDF><cc:Work
         rdf:about=""><dc:format>image/svg+xml</dc:format><dc:type
           rdf:resource="http://purl.org/dc/dcmitype/StillImage" /></cc:Work></rdf:RDF></metadata><defs
     id="defs6" /><sodipodi:namedview
     pagecolor="#ffffff"
     bordercolor="#666666"
     borderopacity="1"
     objecttolerance="10"
     gridtolerance="10"
     guidetolerance="10"
     inkscape:pageopacity="0"
     inkscape:pageshadow="2"
     inkscape:window-width="640"
     inkscape:window-height="480"
     id="namedview4" /><g
     id="g10"
     inkscape:groupmode="layer"
     inkscape:label="vectorian180"
     transform="matrix(1.3333333,0,0,-1.3333333,-0.55601274,61.188607)"><g
       id="g12"
       transform="translate(72,-25.251)"><g
         id="g14"
         transform="translate(-71.384,26.127)"><g
           id="g16"><g
             id="g18"><path
               d="m 24.344,22.07396 c 0,0 -1.92063,3.32425 -2.80582,5.6131 -0.88722,2.28941 -0.88722,4.87464 0.14689,7.71878 0,0 -1.55122,-1.95822 -1.07101,-5.68747 0.47949,-3.72937 2.10501,-5.16987 2.76964,-7.38559 0,0 -4.06197,0.9228 -5.09607,6.24217 -1.03401,5.31526 1.10721,8.89772 3.58183,8.74951 2.47454,-0.14691 4.65277,-3.39735 3.87676,-8.64021 0,0 0.77601,1.66171 0.3702,4.68956 -0.40699,3.02855 -2.43704,4.24707 -4.46756,4.35776 0,0 1.69722,0.81141 1.73484,2.76963 0.03619,1.95684 -3.50806,2.65694 -5.90949,0.405 0,0 2.10572,1.55184 4.10016,0.96103 1.99371,-0.59083 1.51423,-3.39733 -0.6291,-3.95126 0,0 -4.09537,-0.67419 -5.943,1.32501 0,0 1.26162,3.02585 4.12416,4.16097 2.86455,1.13452 5.80089,-1.18984 7.6382,-4.05306 0,0 2.67472,-4.97716 2.12082,-9.96322 -0.55389,-4.98468 -2.03131,-6.9784 -4.54145,-7.31171 M 21.75676,7.9074 c 0,0 -7.76331,4.02574 -14.41249,-1.83254 0,0 -1.07851,0.50272 -1.90492,1.58182 0,0 2.48004,2.29843 6.25369,2.98214 0,0 -3.23544,-0.0724 -6.4702,-2.69523 0,0 -3.01833,3.30583 -2.55112,8.83961 0.46651,5.53527 3.09134,9.27343 4.24086,13.08266 1.15091,3.80916 -0.17961,6.8289 -0.86192,7.97902 0,0 1.61324,0.83949 1.92064,2.48552 0,0 -0.58263,-1.42342 -2.13713,-2.09143 0,0 -1.85514,2.73765 -4.28877,3.35507 0,0 1.11613,-0.57924 2.27243,-1.59555 1.15701,-1.0157 1.56411,-1.92342 1.56411,-1.92342 -0.52049,-0.15229 -1.13179,-0.21989 -1.84482,-0.1407 -3.30244,0.36072 -3.84611,4.38774 -1.4022,5.74487 2.44313,1.35793 5.61028,-0.58801 8.2789,-2.80584 2.66994,-2.21572 3.75595,-2.75933 3.75595,-2.75933 0,0 -3.89197,-11.49185 4.61516,-18.82074 0,0 -7.91831,7.3234 -4.07834,18.62264 0,0 1.55041,-0.68102 3.13162,-0.57379 1.58193,0.10858 2.80455,0.07178 2.80455,0.07178 0,0 -2.30044,-0.68239 -3.09204,-5.10356 -0.79033,-4.41915 2.08452,-9.81092 6.18266,-10.53014 0,0 3.05515,-8.91352 -1.97662,-13.87286 M 7.54509,5.92116 C 14.55496,11.43924 21.38995,7.46208 21.38995,7.46208 14.72847,2.09421 7.54509,5.92116 7.54509,5.92116 M 22.55788,3.80925 C 21.58865,1.27391 14.10617,0.7261 11.62062,0.80118 9.13521,0.875 1.4068,2.73894 5.11015,7.51117 c 0,0 0.74581,-1.11809 1.96292,-1.88921 0,0 -0.9685,-2.26083 2.73415,-3.45474 3.70335,-1.19252 9.96672,-0.14821 12.00484,3.92876 0,0 -1.71512,-2.36255 -6.23936,-2.88375 -4.52308,-0.5225 -8.34933,0.1988 -8.07752,2.23621 0,0 2.73485,-1.51631 7.30769,-1.09279 4.57417,0.42279 7.1834,2.68433 7.1834,2.68433 0,0 1.54022,-0.696 0.57161,-3.23073 m 6.84047,31.63139 c -1.4466,4.93967 -5.57686,9.11153 -9.3662,8.55901 C 16.24338,43.44576 14.62529,39.4446 14.62529,39.4446 12.71074,40.1255 11.30583,42.04002 7.7275,43.95665 4.15253,45.87318 -0.6156,44.51054 0.0653,40.5504 0.7463,36.59085 5.72755,37.61337 5.72755,37.61337 7.13258,35.31435 6.70697,31.48119 4.36563,27.18153 2.02422,22.88129 1.68202,18.87872 1.68202,18.87872 1.1301,11.81224 4.87584,7.76869 4.87584,7.76869 1.85352,4.36113 4.83417,2.10582 4.83417,2.10582 c 3.40483,-2.98212 13.87904,-2.68291 16.98678,0.17 3.10637,2.85234 0.72402,5.15068 0.72402,5.15068 6.17248,5.53456 1.83044,14.34828 1.83044,14.34828 4.38506,-0.127 6.47167,8.72771 5.02294,13.66586"
               style="fill:#000000;fill-opacity:1;fill-rule:nonzero;stroke:#000000;stroke-width:0.3985;stroke-linecap:butt;stroke-linejoin:miter;stroke-miterlimit:10;stroke-dasharray:none;stroke-opacity:1"
               id="path20" /></g></g></g></g></g></svg>
