<?xml version="1.0" encoding="UTF-8" standalone="no"?>
<svg
   xmlns:dc="http://purl.org/dc/elements/1.1/"
   xmlns:cc="http://creativecommons.org/ns#"
   xmlns:rdf="http://www.w3.org/1999/02/22-rdf-syntax-ns#"
   xmlns:svg="http://www.w3.org/2000/svg"
   xmlns="http://www.w3.org/2000/svg"
   xmlns:sodipodi="http://sodipodi.sourceforge.net/DTD/sodipodi-0.dtd"
   xmlns:inkscape="http://www.inkscape.org/namespaces/inkscape"
   version="1.1"
   id="svg2"
   xml:space="preserve"
   width="185.84"
   height="314.57333"
   viewBox="0 0 185.84 314.57333"
   sodipodi:docname="vectorian013.pdf"><metadata
     id="metadata8"><rdf:RDF><cc:Work
         rdf:about=""><dc:format>image/svg+xml</dc:format><dc:type
           rdf:resource="http://purl.org/dc/dcmitype/StillImage" /></cc:Work></rdf:RDF></metadata><defs
     id="defs6" /><sodipodi:namedview
     pagecolor="#ffffff"
     bordercolor="#666666"
     borderopacity="1"
     objecttolerance="10"
     gridtolerance="10"
     guidetolerance="10"
     inkscape:pageopacity="0"
     inkscape:pageshadow="2"
     inkscape:window-width="640"
     inkscape:window-height="480"
     id="namedview4" /><g
     id="g10"
     inkscape:groupmode="layer"
     inkscape:label="vectorian013"
     transform="matrix(1.3333333,0,0,-1.3333333,0,314.57333)"><g
       id="g12"
       transform="translate(72,163.932)"><g
         id="g14"
         transform="translate(-71.992,-163.916)"><g
           id="g16"><g
             id="g18"><path
               d="M 16.6402,52.26945 C 9.0373,42.13594 1.4399,33.992 4.69754,31.8275 7.9551,29.65767 9.76431,32.9152 22.06767,50.27992 34.37112,67.65016 36.90176,74.16534 36.90176,74.16534 33.4638,71.44891 24.2376,62.3976 16.6402,52.26945 Z"
               style="fill:#000000;fill-opacity:1;fill-rule:nonzero;stroke:#000000;stroke-width:0.3985;stroke-linecap:butt;stroke-linejoin:miter;stroke-miterlimit:10;stroke-dasharray:none;stroke-opacity:1"
               id="path20" /><path
               d="m 36.90176,161.73236 c 0,0 -2.53064,6.5152 -14.83409,23.88542 C 9.76431,202.98251 7.9551,206.24014 4.69754,204.0702 1.4399,201.90578 9.0373,193.76178 16.6402,183.62825 24.2376,173.5001 33.4638,164.4489 36.90176,161.73236 Z"
               style="fill:#000000;fill-opacity:1;fill-rule:nonzero;stroke:#000000;stroke-width:0.3985;stroke-linecap:butt;stroke-linejoin:miter;stroke-miterlimit:10;stroke-dasharray:none;stroke-opacity:1"
               id="path22" /><path
               d="m 61.50868,150.51662 c 5.06676,-7.95269 3.25763,-20.98307 6.51518,-22.07077 3.25764,1.0877 1.44843,14.11808 6.50968,22.07077 5.07226,7.9636 11.58206,10.48884 11.58206,10.48884 -7.5975,5.79918 -15.5611,14.8395 -15.5611,26.78764 v 43.05385 c 0,4.34526 -2.53064,5.07227 -2.53064,5.07227 0,0 -2.53063,-0.72701 -2.53063,-5.07227 V 187.7931 c 0,-11.94814 -7.9636,-20.98846 -15.5665,-26.78764 0,0 6.51517,-2.52524 11.58195,-10.48884 z"
               style="fill:#000000;fill-opacity:1;fill-rule:nonzero;stroke:#000000;stroke-width:0.3985;stroke-linecap:butt;stroke-linejoin:miter;stroke-miterlimit:10;stroke-dasharray:none;stroke-opacity:1"
               id="path24" /><path
               d="m 119.40753,183.62825 c 7.60289,10.13353 15.20027,18.27753 11.93724,20.44195 -3.25213,2.16994 -5.06135,-1.08769 -17.36471,-18.45242 -12.30347,-17.37022 -14.83959,-23.88542 -14.83959,-23.88542 3.43794,2.71654 12.66966,11.76774 20.26706,21.89589 z"
               style="fill:#000000;fill-opacity:1;fill-rule:nonzero;stroke:#000000;stroke-width:0.3985;stroke-linecap:butt;stroke-linejoin:miter;stroke-miterlimit:10;stroke-dasharray:none;stroke-opacity:1"
               id="path26" /><path
               d="m 99.14047,74.16534 c 0,0 2.53612,-6.51518 14.83959,-23.88542 12.30336,-17.36472 14.11258,-20.62225 17.36471,-18.45242 3.26303,2.1645 -4.33435,10.30844 -11.93724,20.44195 -7.5974,10.12815 -16.82912,19.17946 -20.26706,21.89589 z"
               style="fill:#000000;fill-opacity:1;fill-rule:nonzero;stroke:#000000;stroke-width:0.3985;stroke-linecap:butt;stroke-linejoin:miter;stroke-miterlimit:10;stroke-dasharray:none;stroke-opacity:1"
               id="path28" /><path
               d="m 133.33981,120.48775 h -13.21078 c -6.38948,0 -17.16253,7.9581 -20.26164,15.55009 0,0 -5.26899,-6.50978 -9.53225,-11.57106 -4.26336,-5.07225 -11.23213,-3.25764 -11.81704,-6.50969 0.58491,-3.27403 7.55368,-1.45392 11.81704,-6.52617 4.26326,-5.06126 9.53225,-11.57104 9.53225,-11.57104 3.09911,7.59749 13.87216,15.55008 20.26164,15.55008 h 13.21078 c 2.32292,0 2.71643,2.54713 2.71643,2.54713 0,0 -0.39351,2.53066 -2.71643,2.53066 z"
               style="fill:#000000;fill-opacity:1;fill-rule:nonzero;stroke:#000000;stroke-width:0.3985;stroke-linecap:butt;stroke-linejoin:miter;stroke-miterlimit:10;stroke-dasharray:none;stroke-opacity:1"
               id="path30" /><path
               d="m 57.52963,117.95709 c -0.58491,3.25205 -7.5592,1.43744 -11.81704,6.50969 -4.26326,5.06128 -9.53223,11.57106 -9.53223,11.57106 C 33.0812,128.44585 22.30818,120.48775 15.91328,120.48775 H 2.70253 c -2.32845,0 -2.71101,-2.53066 -2.71101,-2.53066 0,0 0.38256,-2.54713 2.71101,-2.54713 h 13.21075 c 6.3949,0 17.16792,-7.95259 20.26708,-15.55008 0,0 5.26897,6.50978 9.53223,11.57104 4.25784,5.07225 11.23213,3.25214 11.81704,6.52617 z"
               style="fill:#000000;fill-opacity:1;fill-rule:nonzero;stroke:#000000;stroke-width:0.3985;stroke-linecap:butt;stroke-linejoin:miter;stroke-miterlimit:10;stroke-dasharray:none;stroke-opacity:1"
               id="path32" /><path
               d="M 74.53354,85.38658 C 69.47229,93.35019 71.2815,106.36415 68.02386,107.45737 64.76631,106.36415 66.57544,93.35019 61.50868,85.38658 56.4419,77.42299 49.92673,74.89224 49.92673,74.89224 57.52963,69.09308 65.49323,60.05276 65.49323,48.10461 V 5.05077 c 0,-4.34527 2.53063,-5.06676 2.53063,-5.06676 0,0 2.53064,0.72149 2.53064,5.06676 v 43.05384 c 0,11.94815 7.9636,20.98847 15.5611,26.78763 0,0 -6.5098,2.53075 -11.58206,10.49434 z"
               style="fill:#000000;fill-opacity:1;fill-rule:nonzero;stroke:#000000;stroke-width:0.3985;stroke-linecap:butt;stroke-linejoin:miter;stroke-miterlimit:10;stroke-dasharray:none;stroke-opacity:1"
               id="path34" /></g></g></g></g></g></svg>
