<?xml version="1.0" encoding="UTF-8" standalone="no"?>
<svg
   xmlns:dc="http://purl.org/dc/elements/1.1/"
   xmlns:cc="http://creativecommons.org/ns#"
   xmlns:rdf="http://www.w3.org/1999/02/22-rdf-syntax-ns#"
   xmlns:svg="http://www.w3.org/2000/svg"
   xmlns="http://www.w3.org/2000/svg"
   xmlns:sodipodi="http://sodipodi.sourceforge.net/DTD/sodipodi-0.dtd"
   xmlns:inkscape="http://www.inkscape.org/namespaces/inkscape"
   version="1.1"
   id="svg2"
   xml:space="preserve"
   width="501.76001"
   height="160"
   viewBox="0 0 501.76001 160"
   sodipodi:docname="vectorian075.pdf"><metadata
     id="metadata8"><rdf:RDF><cc:Work
         rdf:about=""><dc:format>image/svg+xml</dc:format><dc:type
           rdf:resource="http://purl.org/dc/dcmitype/StillImage" /></cc:Work></rdf:RDF></metadata><defs
     id="defs6"><clipPath
       clipPathUnits="userSpaceOnUse"
       id="clipPath24"><path
         d="M 0,0 H 373.00479 V 120.00154 H 0 Z"
         id="path22" /></clipPath></defs><sodipodi:namedview
     pagecolor="#ffffff"
     bordercolor="#666666"
     borderopacity="1"
     objecttolerance="10"
     gridtolerance="10"
     guidetolerance="10"
     inkscape:pageopacity="0"
     inkscape:pageshadow="2"
     inkscape:window-width="640"
     inkscape:window-height="480"
     id="namedview4" /><g
     id="g10"
     inkscape:groupmode="layer"
     inkscape:label="vectorian075"
     transform="matrix(1.3333333,0,0,-1.3333333,0,160)"><g
       id="g12"
       transform="translate(72,48)"><g
         id="g14"
         transform="translate(-72,-48)"><g
           id="g16"><g
             id="g18"><g
               id="g20"
               clip-path="url(#clipPath24)"><path
                 d="m 236.44403,119.40953 c 0,0 -22.48509,-6.08008 -48.61983,-6.68808 -26.12834,-0.60802 -51.35104,7.60008 -51.35104,7.60008 50.13504,-22.48028 99.97087,-0.912 99.97087,-0.912 z"
                 style="fill:#000000;fill-opacity:1;fill-rule:nonzero;stroke:#000000;stroke-width:0.3985;stroke-linecap:butt;stroke-linejoin:miter;stroke-miterlimit:10;stroke-dasharray:none;stroke-opacity:1"
                 id="path26" /><path
                 d="m 305.26253,120.32153 c -24.61313,-1.23201 -36.16048,-8.81611 -36.16048,-8.81611 0,0 34.37644,12.17614 69.88892,2.12803 41.80381,-11.80815 43.93504,-51.53668 -2.40964,-64.65683 -5.8337,12.08016 -26.67235,28.41635 -73.99776,27.60036 -17.78105,-0.32002 -32.26762,-4.30406 -43.63736,-9.39212 -6.13289,3.64804 -16.50901,10.33614 -29.20039,16.5602 17.50903,8.43211 28.05637,10.41614 37.8853,11.66417 14.28178,1.824 31.602,-2.73604 35.24687,-5.47208 3.64644,-2.73604 6.07686,-3.34405 7.89929,-2.43205 1.82562,0.91203 4.56325,3.64805 7.29769,0.91203 2.73443,-2.73605 4.85928,1.216 7.8993,0.608 3.03844,-0.608 6.38088,0 6.38088,0 -3.64644,3.04004 -7.29289,2.43204 -8.81131,1.52004 -1.52001,-0.91204 -3.34404,-1.21602 -3.34404,-1.21602 -5.77287,5.16806 -8.20332,0.608 -9.42252,0.30398 -1.21602,-0.30398 -3.03683,0 -3.03683,0 -26.32835,15.3602 -57.26955,6.7361 -81.05705,-4.43205 -23.78753,11.16815 -54.7303,19.79225 -81.05706,4.43205 0,0 -1.82402,-0.30398 -3.04002,0 -1.21283,0.30402 -3.64485,4.86408 -9.41933,-0.30398 0,0 -1.82243,0.30398 -3.34085,1.21602 -1.52004,0.912 -5.16647,1.52 -8.81291,-1.52004 0,0 3.34244,-0.608 6.38089,0 3.03842,0.608 5.16646,-3.34405 7.90089,-0.608 2.73444,2.73602 5.46888,0 7.29131,-0.91203 1.824,-0.912 4.25606,-0.30399 7.90248,2.43205 3.64487,2.73604 20.96507,7.29608 35.24686,5.47208 9.82894,-1.24803 20.37628,-3.23206 37.88531,-11.66417 -12.64018,-6.20807 -22.98753,-12.86416 -29.1284,-16.5282 -11.35693,5.08806 -25.80992,9.0401 -43.54295,9.36012 C 63.56981,77.39297 42.74074,61.02478 36.93427,48.94461 -9.5639,62.0168 -7.46948,101.8093 34.38063,113.63345 c 35.51085,10.04811 69.8857,-2.12803 69.8857,-2.12803 0,0 -11.54733,7.5841 -36.15888,8.81611 C 37.71986,121.84155 -1.47742,108.4654 0.04259,81.72903 1.1578,62.09677 16.93242,51.80865 36.01904,46.6566 32.2702,34.65645 44.78876,19.05623 71.1443,16.7042 c 27.34757,-2.43203 44.36377,10.94413 44.36377,10.94413 0,0 -23.70109,-13.37616 -50.13664,-8.2081 -26.43555,5.16807 -27.53476,20.25626 -27.34755,24.00031 0.0336,0.67201 0.18399,1.53602 0.50241,2.57603 9.02092,-2.19202 18.65622,-3.31204 27.75556,-3.79205 27.81635,-1.424 55.0919,2.56004 88.71633,21.90431 21.04828,-9.21613 30.394,-21.90431 30.394,-21.90431 0,0 -6.0737,-7.28009 -7.8977,-17.0082 C 173.96002,6.35208 182.04333,0 186.9138,0 c 6.07848,0 11.76015,6.06406 10.02893,20.96027 -1.52162,13.07215 -8.80333,21.26425 -8.80333,21.26425 0,0 9.32174,12.65618 30.30121,21.87228 33.59082,-19.31224 60.84877,-23.29628 88.64273,-21.87228 9.15372,0.48001 18.84824,1.61603 27.91396,3.82406 0.328,-1.04002 0.48161,-1.93603 0.51521,-2.60804 0.18721,-3.74405 -0.912,-18.83224 -27.34756,-24.00031 -26.43393,-5.16806 -50.14144,8.2081 -50.14144,8.2081 0,0 17.02262,-13.37616 44.37018,-10.94413 26.38434,2.35203 38.9029,17.98423 35.11244,30.00037 19.01944,5.16808 34.70777,15.44022 35.81978,35.02446 1.5184,26.73637 -37.679,40.11252 -68.06338,38.5925 z M 44.71034,47.0886 c -1.8336,0.36799 -3.59842,0.76801 -5.30725,1.18401 4.25765,9.24813 19.95706,25.52034 68.50969,25.24833 17.86423,-0.09601 32.30442,-3.47205 43.67735,-7.9681 C 135.97394,56.81671 98.31905,36.60846 44.71034,47.0886 Z M 194.2083,17.92023 c 0.60478,-14.2722 -6.08168,-13.96819 -7.6001,-13.96819 -1.51842,0 -8.50572,1.20001 -7.59369,14.57619 1.01599,14.88019 8.20329,20.97626 8.20329,20.97626 0,0 6.39368,-7.58409 6.9905,-21.58426 z m -7.44011,25.52031 c 0,0 -9.33931,12.60818 -29.05318,22.2723 1.11522,0.656 2.24005,1.344 3.37126,2.04801 9.94092,6.12808 18.33943,10.81615 25.59713,14.4642 7.25607,-3.64805 15.653,-8.33612 25.59552,-14.4642 1.15841,-0.72002 2.30725,-1.40801 3.45126,-2.09602 -19.65306,-9.64812 -28.96199,-22.22429 -28.96199,-22.22429 z m 141.89143,3.64806 c -53.53189,-10.46415 -91.15318,9.68012 -106.81257,18.41624 11.38734,4.52806 25.85952,7.92009 43.77337,8.0161 48.4886,0.27201 64.21042,-15.95223 68.49528,-25.20032 -1.75683,-0.44802 -3.57125,-0.86403 -5.45608,-1.23202 z"
                 style="fill:#000000;fill-opacity:1;fill-rule:nonzero;stroke:#000000;stroke-width:0.3985;stroke-linecap:butt;stroke-linejoin:miter;stroke-miterlimit:10;stroke-dasharray:none;stroke-opacity:1"
                 id="path28" /><path
                 d="m 120.77695,87.92113 c 1.21441,2.41601 -0.81122,4.04805 -3.64806,2.01602 -2.83365,-2.03203 -4.05125,-0.81601 -4.05125,-0.81601 0,-2.43204 6.48329,-3.63205 7.69931,-1.20001 z"
                 style="fill:#000000;fill-opacity:1;fill-rule:nonzero;stroke:#000000;stroke-width:0.3985;stroke-linecap:butt;stroke-linejoin:miter;stroke-miterlimit:10;stroke-dasharray:none;stroke-opacity:1"
                 id="path30" /><path
                 d="m 252.40263,87.92113 c 1.21602,-2.43204 7.69611,-1.23203 7.69611,1.20001 0,0 -1.21442,-1.21602 -4.04805,0.81601 -2.83844,2.03203 -4.86408,0.39999 -3.64806,-2.01602 z"
                 style="fill:#000000;fill-opacity:1;fill-rule:nonzero;stroke:#000000;stroke-width:0.3985;stroke-linecap:butt;stroke-linejoin:miter;stroke-miterlimit:10;stroke-dasharray:none;stroke-opacity:1"
                 id="path32" /></g></g></g></g></g></g></svg>
