<?xml version="1.0" encoding="UTF-8" standalone="no"?>
<svg
   xmlns:dc="http://purl.org/dc/elements/1.1/"
   xmlns:cc="http://creativecommons.org/ns#"
   xmlns:rdf="http://www.w3.org/1999/02/22-rdf-syntax-ns#"
   xmlns:svg="http://www.w3.org/2000/svg"
   xmlns="http://www.w3.org/2000/svg"
   xmlns:sodipodi="http://sodipodi.sourceforge.net/DTD/sodipodi-0.dtd"
   xmlns:inkscape="http://www.inkscape.org/namespaces/inkscape"
   version="1.1"
   id="svg2"
   xml:space="preserve"
   width="39.170879"
   height="39.559158"
   viewBox="0 0 39.170879 39.559158"
   sodipodi:docname="vectorian144.pdf"><metadata
     id="metadata8"><rdf:RDF><cc:Work
         rdf:about=""><dc:format>image/svg+xml</dc:format><dc:type
           rdf:resource="http://purl.org/dc/dcmitype/StillImage" /></cc:Work></rdf:RDF></metadata><defs
     id="defs6"><clipPath
       clipPathUnits="userSpaceOnUse"
       id="clipPath24"><path
         d="M 0,0 H 29.37816 V 29.66937 H 0 Z"
         id="path22" /></clipPath></defs><sodipodi:namedview
     pagecolor="#ffffff"
     bordercolor="#666666"
     borderopacity="1"
     objecttolerance="10"
     gridtolerance="10"
     guidetolerance="10"
     inkscape:pageopacity="0"
     inkscape:pageshadow="2"
     inkscape:window-width="640"
     inkscape:window-height="480"
     id="namedview4" /><g
     id="g10"
     inkscape:groupmode="layer"
     inkscape:label="vectorian144"
     transform="matrix(1.3333333,0,0,-1.3333333,0,39.559159)"><g
       id="g12"
       transform="translate(72,-42.331)"><g
         id="g14"
         transform="translate(-72,42.331)"><g
           id="g16"><g
             id="g18"><g
               id="g20"
               clip-path="url(#clipPath24)"><path
                 d="M 4.73114,18.96072 C 6.58418,19.35002 8.66939,18.36641 8.27599,16.3037 7.8819,14.23416 3.35213,13.74237 1.383,16.1057 c 0,0 -1.08262,-0.79231 -0.6892,-2.46573 0.3941,-1.67343 2.85573,-2.56134 4.62815,-1.87154 1.77243,0.68991 -0.4433,3.34685 -3.05243,0.64211 l -0.2957,0.15019 c 0,0 0.93571,1.07924 2.16583,1.32513 1.2315,0.2459 2.41313,-0.3415 2.26553,-1.57103 -0.14752,-1.2362 -2.26553,-2.46562 -4.72648,-1.0381 0,0 -0.4925,-2.21303 1.37834,-2.95074 1.87082,-0.7444 3.20062,0 3.24913,0.49182 C 6.35608,9.30959 4.82945,9.69891 3.89374,8.57188 L 3.59863,8.61969 c 0,0 0.29511,0.78552 1.37844,0.93582 C 6.06026,9.69891 6.79866,9.3574 6.65176,8.57188 6.50357,7.77957 5.37115,6.89848 3.25441,7.48587 c 0,0 -0.09898,-0.34149 0.09772,-1.0313 C 3.54953,5.76466 4.58365,4.23473 3.89374,2.56131 3.20453,0.8879 0.4971,0.05458 -0.0937,0.05458 c 0,0 3.21083,1.42754 3.44583,2.56134 0.4931,2.36333 -0.68851,2.21303 -0.59081,4.91776 0,0 -2.16652,1.37972 -1.27931,3.94104 0,0 -2.65901,1.87153 -0.19671,5.21838 0,0 -0.7882,1.0859 0,2.65692 0.78681,1.57774 3.64256,2.36325 7.0891,0.30052 0,0 1.7724,1.96712 5.41567,0.09558 0,0 -3.64055,0.78553 -4.72657,-0.49169 -0.83671,-0.9836 0.39411,-1.77591 1.67413,-1.96712 0,0 -2.95406,-0.68991 -2.56064,2.06271 0,0 -1.57502,1.42754 -4.03734,1.33182 C 1.6787,20.57944 0.25049,18.07271 2.21962,16.495 4.18953,14.92397 7.04518,15.66168 7.4878,16.3994 c 0.36538,0.6078 0.09908,2.16513 -1.87073,2.26071 -1.96924,0.10252 -3.10166,-1.325 -3.10166,-1.325 l -0.24589,0.0956 c 0,0 0.5908,1.13382 2.46162,1.53001"
                 style="fill:#000000;fill-opacity:1;fill-rule:nonzero;stroke:#000000;stroke-width:0.3985;stroke-linecap:butt;stroke-linejoin:miter;stroke-miterlimit:10;stroke-dasharray:none;stroke-opacity:1"
                 id="path26" /><path
                 d="m 1.50662,27.12964 c 0,0 -0.59082,-3.31944 3.32283,-4.50114 3.91445,-1.18165 6.72098,0.21858 9.00981,-2.21985 0,0 -0.66461,0.73771 -3.10092,0.88801 -2.43706,0.15019 -9.74944,-0.88801 -9.23172,5.83298"
                 style="fill:#000000;fill-opacity:1;fill-rule:nonzero;stroke:#000000;stroke-width:0.3985;stroke-linecap:butt;stroke-linejoin:miter;stroke-miterlimit:10;stroke-dasharray:none;stroke-opacity:1"
                 id="path28" /><path
                 d="m 14.13426,21.37177 c 0,0 -0.3688,1.47531 -3.17532,1.62561 -2.80585,0.14342 -5.68689,0 -7.01599,1.91923 -1.32924,1.91933 0,3.98885 1.4767,4.20746 1.47731,0.22539 1.99373,-1.03143 1.99373,-1.03143 0,0 -0.73771,1.10652 -2.14133,0.73773 -1.40363,-0.36882 -2.14122,-2.51355 -0.7383,-3.76346 1.40361,-1.25671 5.24356,-1.18163 5.98258,-1.18163 0.7377,0 3.24913,-0.51908 3.61793,-2.51351"
                 style="fill:#000000;fill-opacity:1;fill-rule:nonzero;stroke:#000000;stroke-width:0.3985;stroke-linecap:butt;stroke-linejoin:miter;stroke-miterlimit:10;stroke-dasharray:none;stroke-opacity:1"
                 id="path30" /><path
                 d="m 18.27072,25.94801 c -0.3941,-0.53959 -1.38252,-0.35519 -0.98491,0.59421 0.39409,0.93572 1.28059,0.98352 1.28059,0.98352 0,0 0.09843,-1.03811 -0.29568,-1.57773 m 3.32353,2.06954 c -1.1078,0.81282 -2.80652,-0.07511 -2.80652,-0.07511 -2.88033,3.39466 -6.2032,0.73761 -6.2032,0.73761 0,0 1.43293,1.11342 3.24917,0.66941 1.797,-0.444 2.63372,-1.57781 2.63372,-1.57781 -0.2958,0 -1.18161,-0.27322 -1.47742,-1.22943 -0.3306,-1.07921 0.88932,-1.74172 1.72393,-0.59421 0.59082,0.81281 0.1476,1.77584 0.1476,1.77584 1.77241,0.9562 3.10153,-0.07511 2.43702,-1.25673 -0.66461,-1.1816 -2.14203,-1.25681 -3.61865,-1.84421 -1.47742,-0.59421 -2.14201,-2.14464 -2.14201,-2.14464 1.47741,1.84413 3.24984,2.14464 5.02226,2.58183 1.77243,0.4439 2.14134,2.14464 1.0341,2.95745 m -9.37101,-0.22541 c 0,0 0.61541,-0.3005 0.79231,-1.14741 0.17551,-0.84703 -1.37291,-1.15431 -1.23291,0.07509 0.0881,0.77182 0.4406,1.07232 0.4406,1.07232 m -0.96862,-3.10093 c -1.69792,0.44401 -2.36322,0.9631 -2.36322,1.99443 0,1.03821 1.62493,1.99441 3.17534,1.2568 0,0 -0.81212,-0.5874 -0.81212,-1.5505 0,-1.25672 2.13315,-1.48214 2.21573,-0.07512 0.0745,1.25682 -1.18159,1.85103 -1.18159,1.85103 -0.44322,0.36882 -2.95406,0.8811 -3.91367,-0.74451 -0.90501,-1.53001 0.35581,-2.88924 2.06743,-3.10094 2.43703,-0.2937 3.24913,-1.55043 3.24913,-1.55043 0,0 -0.7383,1.47531 -2.43703,1.91924"
                 style="fill:#000000;fill-opacity:1;fill-rule:nonzero;stroke:#000000;stroke-width:0.3985;stroke-linecap:butt;stroke-linejoin:miter;stroke-miterlimit:10;stroke-dasharray:none;stroke-opacity:1"
                 id="path32" /><path
                 d="m 21.88937,28.46155 c 0,0 1.69793,0.88791 3.02783,-0.444 1.32912,-1.33191 -0.222,-4.35765 -2.65832,-4.43275 -2.43773,-0.0683 -4.50526,0.36878 -7.16429,-2.21303 0,0 1.32991,2.14473 3.32364,2.65693 1.99371,0.51909 5.08786,-0.66931 6.27697,1.62561 1.03483,1.99443 -0.81211,3.32636 -2.80583,2.80724"
                 style="fill:#000000;fill-opacity:1;fill-rule:nonzero;stroke:#000000;stroke-width:0.3985;stroke-linecap:butt;stroke-linejoin:miter;stroke-miterlimit:10;stroke-dasharray:none;stroke-opacity:1"
                 id="path34" /><path
                 d="m 26.83714,26.24173 c 0,0 1.1079,-1.03142 -0.59082,-3.02583 -1.69864,-1.99443 -5.02228,-1.33182 -7.533,-1.40012 -1.94192,-0.06151 -2.65834,-0.66942 -3.02783,-1.18173 0,0 0.07441,0.73772 1.47731,1.25003 1.40293,0.519 6.1431,0.19798 8.12323,1.33182 2.0682,1.18159 1.55111,3.02583 1.55111,3.02583"
                 style="fill:#000000;fill-opacity:1;fill-rule:nonzero;stroke:#000000;stroke-width:0.3985;stroke-linecap:butt;stroke-linejoin:miter;stroke-miterlimit:10;stroke-dasharray:none;stroke-opacity:1"
                 id="path36" /><path
                 d="m 15.70998,19.15193 c 0,0 1.08334,1.48212 3.34825,1.77583 2.26483,0.29371 3.59475,-0.53952 3.49565,-1.91923 -0.0983,-1.37972 -2.16654,-1.72813 -2.80654,-1.72813 0,0 1.82161,0.30061 2.31412,1.23632 0.49242,0.9357 -1.92001,2.80724 -6.35148,0.63521"
                 style="fill:#000000;fill-opacity:1;fill-rule:nonzero;stroke:#000000;stroke-width:0.3985;stroke-linecap:butt;stroke-linejoin:miter;stroke-miterlimit:10;stroke-dasharray:none;stroke-opacity:1"
                 id="path38" /><path
                 d="m 21.71655,20.43605 c 0,0 0.78823,0.5874 2.60915,0.8401 1.82234,0.24591 4.38226,-0.30061 4.57895,-2.51352 0.19742,-2.21983 -1.77172,-3.74295 -3.44585,-4.09137 -1.67412,-0.34149 -4.08655,1.13384 -2.95402,2.86194 1.13241,1.72123 3.93895,0.93572 5.51396,-0.10249 0,0 -2.06752,0.84012 -3.54484,0.78551 -1.47672,-0.04779 -2.11742,-1.12702 -1.37832,-1.91932 0.73902,-0.7855 3.00324,-0.83332 4.48058,0.3962 1.00679,0.8401 1.5751,2.75932 -0.24652,3.83855 -1.82233,1.08601 -4.62815,0.30049 -5.46486,-0.34151 z"
                 style="fill:#000000;fill-opacity:1;fill-rule:nonzero;stroke:#000000;stroke-width:0.3985;stroke-linecap:butt;stroke-linejoin:miter;stroke-miterlimit:10;stroke-dasharray:none;stroke-opacity:1"
                 id="path40" /><path
                 d="m 25.70401,12.26025 c -1.18161,-0.0478 -1.77241,1.28411 -0.59081,1.37972 1.18232,0.1024 2.36394,-0.98361 2.36394,-0.98361 0,0 -0.5908,-0.34832 -1.77313,-0.39611 m 2.95476,3.94105 c 0.98419,-2.60914 -0.54163,-3.25124 -0.54163,-3.25124 -1.9691,1.1817 -2.89943,1.15431 -3.59474,0.6421 -0.73772,-0.53961 -0.54102,-1.87152 1.08391,-2.06964 1.23083,-0.14338 2.36333,0.73773 2.36333,0.73773 1.27993,-1.81683 0.1475,-3.14874 -0.7876,-3.49705 -0.9364,-0.34151 -2.80654,-0.14351 -2.65964,0.74441 0.1482,0.88111 1.28062,0.38941 1.28062,0.38941 -0.24592,0.3961 -1.87142,0.5464 -1.57501,-0.93581 0.33879,-1.69381 3.59404,-1.67332 4.52985,0.34838 0.87901,1.89883 -0.3457,3.25114 -0.3457,3.25114 2.01902,1.42754 0.24661,3.64057 0.24661,3.64057"
                 style="fill:#000000;fill-opacity:1;fill-rule:nonzero;stroke:#000000;stroke-width:0.3985;stroke-linecap:butt;stroke-linejoin:miter;stroke-miterlimit:10;stroke-dasharray:none;stroke-opacity:1"
                 id="path42" /><path
                 d="m 27.08304,8.08018 c 0,0 0.88591,-0.9358 0.2466,-2.46574 -0.78551,-1.8715 -2.56063,-3.79083 1.82092,-5.02024 0,0 -1.23012,-0.19811 -2.70754,1.0314 -1.47671,1.23623 -0.29498,3.05305 0.0492,3.74296 0.34492,0.6898 0.98492,1.4753 0.59082,2.71162"
                 style="fill:#000000;fill-opacity:1;fill-rule:nonzero;stroke:#000000;stroke-width:0.3985;stroke-linecap:butt;stroke-linejoin:miter;stroke-miterlimit:10;stroke-dasharray:none;stroke-opacity:1"
                 id="path44" /><path
                 d="M 24.57219,8.22359 C 21.22404,0.39609 16.25168,0 15.41428,0 H 14.38087 C 8.86609,0.34828 5.56786,7.39029 5.56786,7.39029 l 0.1475,0.2937 c 0,0 2.06752,-3.25114 3.39664,-4.57628 1.32993,-1.33189 3.15695,-2.80722 5.95808,-2.60913 2.85564,0.19122 6.64647,1.96713 9.20712,8.12111 h 0.34418 z"
                 style="fill:#000000;fill-opacity:1;fill-rule:nonzero;stroke:#000000;stroke-width:0.3985;stroke-linecap:butt;stroke-linejoin:miter;stroke-miterlimit:10;stroke-dasharray:none;stroke-opacity:1"
                 id="path46" /><path
                 d="m 13.39597,2.60912 c 0,0 0.51699,0.96312 1.3291,1.0382 0.81212,0.07511 1.62492,-1.0382 1.62492,-1.0382 0,0 -1.55112,1.3319 -2.95402,0"
                 style="fill:#000000;fill-opacity:1;fill-rule:nonzero;stroke:#000000;stroke-width:0.3985;stroke-linecap:butt;stroke-linejoin:miter;stroke-miterlimit:10;stroke-dasharray:none;stroke-opacity:1"
                 id="path48" /><path
                 d="m 16.79332,4.30984 c 0,0 -0.46792,-0.14341 -0.83672,-0.51911 -0.36952,-0.36881 -1.15702,-0.5122 -1.96913,-0.14341 -0.81282,0.36881 -0.81282,0.58741 -1.33052,0.58741 0,0 0.07439,0.44392 0.4439,0.30052 0,0 0.84152,-0.5464 1.62492,-0.64202 1.18163,-0.15029 1.32921,0.93572 2.06755,0.41661"
                 style="fill:#000000;fill-opacity:1;fill-rule:nonzero;stroke:#000000;stroke-width:0.3985;stroke-linecap:butt;stroke-linejoin:miter;stroke-miterlimit:10;stroke-dasharray:none;stroke-opacity:1"
                 id="path50" /><path
                 d="m 14.28249,13.76286 c 0,0 -0.59084,-0.44389 -1.99373,0.444 0,0 -0.07442,-0.5191 -0.51703,-0.3688 0,0 -0.96031,0.95621 -3.69313,0.2937 l -0.0737,0.3688 c 0,0 -0.73842,-0.21859 -1.18164,-0.9562 0,0 -0.81279,0.5122 1.25534,1.40011 2.0682,0.88802 4.43146,-0.1502 6.20389,-1.18161"
                 style="fill:#000000;fill-opacity:1;fill-rule:nonzero;stroke:#000000;stroke-width:0.3985;stroke-linecap:butt;stroke-linejoin:miter;stroke-miterlimit:10;stroke-dasharray:none;stroke-opacity:1"
                 id="path52" /><path
                 d="m 6.89696,12.13734 c 0,0 0.44331,0.88791 1.77243,1.33182 0,0 -0.0737,-0.2254 0.36961,-0.2254 0.4425,0 2.73273,-0.51222 3.76613,-1.18163 0,0 0.22202,-0.8128 -0.51637,-0.95619 0,0 -0.36952,0.36878 0.2213,0.5874 0,0 -0.2213,0.36879 -0.59082,0.22539 -0.3695,-0.1503 -0.59081,-0.51909 -0.59081,-0.51909 0,0 -0.36949,0.36879 0.29511,0.81281 l -1.25542,0.15021 c 0,0 -0.36879,-0.59423 -0.81212,0 0,0 -0.2213,-0.44393 0.0738,-0.59423 0.6352,-0.31421 0.88653,0.22541 0.88653,0.22541 l 0.44261,-0.07511 c 0,0 -0.18442,-0.51909 -0.84903,-0.59419 -0.7383,-0.08202 -1.07091,0.44389 -1.07091,1.03812 0,0 -0.59091,0.14349 -1.32922,-0.66932 l -0.36951,0.22539 c 0,0 0.14753,0.51221 0.66463,0.66251 0,0 -0.81282,-0.07509 -1.10794,-0.4439"
                 style="fill:#000000;fill-opacity:1;fill-rule:nonzero;stroke:#000000;stroke-width:0.3985;stroke-linecap:butt;stroke-linejoin:miter;stroke-miterlimit:10;stroke-dasharray:none;stroke-opacity:1"
                 id="path54" /><path
                 d="m 18.95982,11.57034 c -0.27389,0.082 -0.32989,0.3757 -0.34149,0.49179 0.44809,0.04782 0.92749,0.05471 1.36879,0.04782 -0.06149,-0.63523 -0.70009,-0.62831 -1.0273,-0.53961 m 3.10234,0.5465 c -2.36332,1.37962 -3.69383,0.6352 -3.69383,0.6352 0,0 -0.83601,-0.3415 -1.47603,-0.43721 -0.64062,-0.10238 -0.3449,-0.64199 -0.3449,-0.64199 0.24592,-0.15032 0,-0.39611 0,-0.39611 0.24592,-0.4918 0.5416,-0.09571 0.5416,-0.09571 0.73841,0 0.49181,0.68992 0.49181,0.68992 0.209,0.0683 0.45081,0.11609 0.71101,0.15709 0.05741,-0.2596 0.26571,-0.78551 1.01293,-0.7513 0.72949,0.04091 0.8914,0.56 0.92549,0.8264 0.78072,-0.02049 1.38863,-0.08879 1.38863,-0.08879 z"
                 style="fill:#000000;fill-opacity:1;fill-rule:nonzero;stroke:#000000;stroke-width:0.3985;stroke-linecap:butt;stroke-linejoin:miter;stroke-miterlimit:10;stroke-dasharray:none;stroke-opacity:1"
                 id="path56" /><path
                 d="m 19.84575,13.29846 c 0,0 -0.88593,0.2937 -2.31413,-0.44401 0,0 0.24659,-0.04779 0.83671,0.09561 0.59149,0.1503 1.47742,0.3484 1.47742,0.3484"
                 style="fill:#000000;fill-opacity:1;fill-rule:nonzero;stroke:#000000;stroke-width:0.3985;stroke-linecap:butt;stroke-linejoin:miter;stroke-miterlimit:10;stroke-dasharray:none;stroke-opacity:1"
                 id="path58" /><path
                 d="m 22.40567,13.19597 c 0,0 -1.91992,2.11742 -5.41567,0.10249 0,0 0.53141,0.7854 2.51153,1.18161 1.72251,0.34151 2.90414,-1.2841 2.90414,-1.2841"
                 style="fill:#000000;fill-opacity:1;fill-rule:nonzero;stroke:#000000;stroke-width:0.3985;stroke-linecap:butt;stroke-linejoin:miter;stroke-miterlimit:10;stroke-dasharray:none;stroke-opacity:1"
                 id="path60" /><path
                 d="m 22.60307,13.54436 c 0,0 -0.93571,1.18162 -2.90484,1.18162 -1.96991,0 -3.44655,-1.18162 -3.44655,-1.18162 0,0 -0.09839,0.3415 0.68912,0.78541 0.78752,0.444 2.36334,1.27732 4.08656,0.68991 1.72261,-0.5943 1.57571,-1.47532 1.57571,-1.47532"
                 style="fill:#000000;fill-opacity:1;fill-rule:nonzero;stroke:#000000;stroke-width:0.3985;stroke-linecap:butt;stroke-linejoin:miter;stroke-miterlimit:10;stroke-dasharray:none;stroke-opacity:1"
                 id="path62" /><path
                 d="m 15.9074,9.77402 c 0,0 1.1816,-0.14342 1.1079,-1.32503 0,0 -0.22198,-0.51912 -0.81282,-0.74449 -0.5908,-0.21863 -1.2547,-0.80602 -1.91931,-0.4371 -0.66522,0.36877 -1.03471,1.03129 -1.55113,1.03129 0,0 -0.36879,0.36882 0.29511,1.33191 0,0 0.5908,0.2937 0.5908,0.66252 0,0 0.51701,0.2186 0.36952,-0.15021 C 13.83926,9.77402 13.32286,9.1866 13.32286,9.1866 c 0,0 0.29509,-0.36879 0.59081,-0.73761 0.2951,-0.36881 0.88591,-0.51912 1.69801,-0.1503 0.81282,0.36882 1.18164,0.88791 0.22202,1.18161 0,0 -0.29581,0.36891 0.0737,0.29372"
                 style="fill:#000000;fill-opacity:1;fill-rule:nonzero;stroke:#000000;stroke-width:0.3985;stroke-linecap:butt;stroke-linejoin:miter;stroke-miterlimit:10;stroke-dasharray:none;stroke-opacity:1"
                 id="path64" /><path
                 d="m 25.21292,12.11684 -0.36952,0.2185 c 0.1311,-0.73761 -0.1059,-1.73482 -0.28691,-2.39741 0.1223,-0.03412 0.33682,0.1503 0.45971,0.1093 0.25683,1.2978 0.19672,2.06961 0.19672,2.06961"
                 style="fill:#000000;fill-opacity:1;fill-rule:nonzero;stroke:#000000;stroke-width:0.3985;stroke-linecap:butt;stroke-linejoin:miter;stroke-miterlimit:10;stroke-dasharray:none;stroke-opacity:1"
                 id="path66" /><path
                 d="m 15.56248,5.71684 h -0.5901 c 0,0 -0.099,0.29372 0.3449,0.29372 l 0.68782,0.0478 c 0,0 -0.14681,-0.2937 -0.44262,-0.34152 m -1.50131,0.04782 c -0.17691,0 -0.32031,0.0615 -0.32031,0.1435 0,0.08191 0.1434,0.1502 0.32031,0.1502 0.1763,0 0.3197,-0.06829 0.3197,-0.1502 0,-0.082 -0.1434,-0.1435 -0.3197,-0.1435 m 4.75116,-0.24589 c -0.29512,0.19807 -0.5908,0.19807 -0.78822,0.53959 -0.1967,0.3415 -0.7383,0.5943 -0.88591,0.53962 -0.1482,-0.04782 0.14761,-0.58742 -0.2459,-0.58742 -0.3941,0 -1.1324,0.5396 -1.1324,0.5396 0,0 -0.59083,-0.4918 -0.93643,-0.4918 l -0.6393,0.3415 C 13.74086,5.96277 12.31335,6.15407 12.31335,6.15407 l 0.0492,0.24579 c 0,0.2528 -0.39342,0.39622 -0.39342,0.39622 0,0 -0.04919,-1.03142 -1.0341,-1.76904 0,0 -0.24661,-0.3962 0.04919,-0.54639 0,0 0.64002,0.54639 0.93572,0.68979 0.2951,0.1503 2.11673,-0.09558 3.05244,-0.63519 0,0 0.24588,0.3893 1.03272,0.4371 0.78822,0.05469 1.52722,0.1503 1.96981,0.44402 0,0 0.78821,-0.24593 0.98491,-0.38933 0,0 0.1476,0.2937 -0.14749,0.49173"
                 style="fill:#000000;fill-opacity:1;fill-rule:nonzero;stroke:#000000;stroke-width:0.3985;stroke-linecap:butt;stroke-linejoin:miter;stroke-miterlimit:10;stroke-dasharray:none;stroke-opacity:1"
                 id="path68" /></g></g></g></g></g></g></svg>
