<?xml version="1.0" encoding="UTF-8" standalone="no"?>
<svg
   xmlns:dc="http://purl.org/dc/elements/1.1/"
   xmlns:cc="http://creativecommons.org/ns#"
   xmlns:rdf="http://www.w3.org/1999/02/22-rdf-syntax-ns#"
   xmlns:svg="http://www.w3.org/2000/svg"
   xmlns="http://www.w3.org/2000/svg"
   xmlns:sodipodi="http://sodipodi.sourceforge.net/DTD/sodipodi-0.dtd"
   xmlns:inkscape="http://www.inkscape.org/namespaces/inkscape"
   version="1.1"
   id="svg2"
   xml:space="preserve"
   width="39.858734"
   height="59.465103"
   viewBox="0 0 39.858734 59.465104"
   sodipodi:docname="vectorian126.pdf"><metadata
     id="metadata8"><rdf:RDF><cc:Work
         rdf:about=""><dc:format>image/svg+xml</dc:format><dc:type
           rdf:resource="http://purl.org/dc/dcmitype/StillImage" /></cc:Work></rdf:RDF></metadata><defs
     id="defs6" /><sodipodi:namedview
     pagecolor="#ffffff"
     bordercolor="#666666"
     borderopacity="1"
     objecttolerance="10"
     gridtolerance="10"
     guidetolerance="10"
     inkscape:pageopacity="0"
     inkscape:pageshadow="2"
     inkscape:window-width="640"
     inkscape:window-height="480"
     id="namedview4" /><g
     id="g10"
     inkscape:groupmode="layer"
     inkscape:label="vectorian126"
     transform="matrix(1.3333333,0,0,-1.3333333,-0.07225642,61.887613)"><g
       id="g12"
       transform="translate(72,-26.359)"><g
         id="g14"
         transform="translate(-71.746,28.374)"><g
           id="g16"><g
             id="g18"><path
               d="m 26.77693,35.13315 c -0.66531,0.36879 -1.32983,1.91992 -1.32983,1.91992 0,0 1.10783,0.36949 2.06814,-0.6645 0.95971,-1.03483 -0.07371,-1.62563 -0.73831,-1.25542 m -0.88661,-2.14264 c 0.07381,-1.10721 -0.295,-1.47673 -0.96031,-1.25471 -0.6646,0.22129 -0.88591,1.32911 -0.36881,3.39735 0,0 1.25542,-1.03412 1.32912,-2.14264 M 22.86247,32.6216 c 0.22132,-0.9596 -0.0737,-1.47731 -0.6645,-1.3291 -0.59079,0.14819 -0.73841,1.84622 -0.22132,2.7327 0,0 0.66452,-0.44317 0.88582,-1.4036 m -3.32354,0.0745 c -0.73841,-0.73901 -1.3285,0.14751 -0.81211,0.95963 0.51702,0.8121 1.03412,0.88661 1.03412,0.88661 0,0 0.517,-1.10862 -0.22201,-1.84624 m -2.58454,1.3291 c -0.73839,-0.73829 -1.69871,-0.66448 -1.69871,0.36953 0,1.03342 2.43774,1.47601 2.43774,1.47601 0,0 0,-1.1078 -0.73903,-1.84554 m -1.92003,1.99384 c -0.66459,-0.9597 -2.47322,0.0717 -1.55111,1.40352 0.66522,0.95972 1.55111,1.32993 1.55111,1.32993 0,0 0.66464,-1.77384 0,-2.73345 m -2.88032,3.47036 c 0.2958,-1.03342 -0.36881,-1.55042 -1.18161,-0.8114 -0.81283,0.73838 -0.14751,2.51013 -0.14751,2.51013 0,0 1.03412,-0.66463 1.32912,-1.69873 m 12.92418,2.73353 c 0.44329,0.4426 0.95971,0.14749 0.29508,-0.44401 -0.66459,-0.59079 -1.03341,-0.88522 -1.03341,-0.88522 0,0 0.29512,0.88522 0.73833,1.32923 m 2.51083,-2.14263 c 0.8859,-0.1462 0.9603,-1.25541 -0.22131,-1.4023 -1.18161,-0.14751 -1.40361,0.59008 -1.40361,0.59008 0,0 0.73901,0.96103 1.62492,0.81222 m 0.22128,-3.32224 c -1.32921,0.81282 -2.28882,0.5908 -2.28882,0.5908 0,0 -0.14821,0.36812 0.07381,0.95891 0,0 1.10782,-0.66389 2.36324,-0.07368 1.25471,0.5908 0.88589,2.14334 -0.29581,2.14334 -1.18163,0 -2.14124,-1.03554 -2.14124,-1.03554 0,0 -0.8865,0.66531 -1.03411,1.10791 0,0 1.03411,0.2957 1.69873,1.18162 0.66391,0.88721 -1.10791,1.99514 -2.14203,-0.66462 0,0 -2.06745,-0.2213 -4.13565,2.51083 0,0 0.73831,-2.80652 4.28326,-3.1002 0,0 0.0737,-0.81353 1.10779,-1.92145 0,0 -0.36949,-0.66451 -0.22128,-1.25531 0,0 -0.96032,-0.36951 -1.18163,-1.62493 0,0 -1.18161,0.36881 -2.28941,-0.44259 0,0 -0.96042,0.36879 -1.84624,0.22059 0,0 -0.59079,1.25612 -1.62491,1.40432 0,0 0,1.69792 -1.10723,2.58383 -1.10851,0.88722 -1.84692,0.4447 -1.84692,0.4447 0,0 -0.81211,2.58383 -3.24974,2.65694 -2.43704,0.0751 -2.65834,-3.39734 -1.25541,-4.28323 1.40291,-0.88593 2.06883,0.37019 1.77311,1.25608 -0.2958,0.88582 -0.88592,1.84683 -1.62492,2.06813 0,0 0.1434,0.59082 0.88591,0.59082 0.96033,0 2.51074,-0.59082 3.17535,-2.43762 0,0 -1.99372,-0.66463 -2.14062,-2.36334 -0.14893,-1.69863 0.66389,-2.28945 1.62421,-2.21503 0.96041,0.07381 1.92003,2.43701 1.03341,3.83995 0,0 1.25612,0.29579 1.92073,-0.6652 0.66451,-0.95972 0.4426,-1.55053 0.4426,-1.55053 0,0 -0.81212,-0.0737 -1.99371,-0.73901 -1.18174,-0.66321 -1.32923,-2.14063 -0.44262,-2.73204 0.88582,-0.59091 2.65824,0.59141 2.73203,2.65823 0,0 1.03413,0.1483 1.32922,-0.73759 0,0 -1.32922,-0.29582 -1.55052,-1.40363 -0.22201,-1.10792 0.14751,-1.84622 0.95961,-1.77243 0.81282,0.07441 2.06822,1.18163 1.32923,2.73276 0,0 0.73899,0.36949 1.25541,-0.14751 0,0 -0.88592,-1.18162 -0.59021,-2.29083 0.29511,-1.10722 0.88593,-1.54983 1.84622,-1.25413 0.95972,0.29512 0.8859,2.21513 -0.4432,3.61805 0,0 0.96033,1.10781 1.62481,0.66591 0,0 -0.29571,-1.40431 -0.0744,-2.88164 0.222,-1.47602 1.55112,-1.40232 1.99443,-1.1072 0.44332,0.2964 1.69872,1.77241 -1.18161,4.43074 0,0 0.2213,0.51712 0.6646,0.73832 0,0 0.44263,-1.77171 1.77243,-2.14123 1.32912,-0.36812 2.14194,1.62422 0.8121,2.43773"
               style="fill:#000000;fill-opacity:1;fill-rule:nonzero;stroke:#000000;stroke-width:0.3985;stroke-linecap:butt;stroke-linejoin:miter;stroke-miterlimit:10;stroke-dasharray:none;stroke-opacity:1"
               id="path20" /><path
               d="M 9.12619,39.26749 C 10.0121,38.60287 8.97731,37.86517 8.31409,38.38158 7.64818,38.89859 7.20488,39.5639 7.20488,39.5639 c 0,0 1.03481,0.3709 1.92131,-0.29641 m -0.961,-2.28954 c 0.961,-0.59009 0.88661,-1.62421 -0.36952,-1.3278 -1.25401,0.2944 -2.06741,1.25401 -2.06741,1.25401 0,0 1.47662,0.66672 2.43693,0.07379 M 7.13177,33.87633 c 1.40362,-0.29502 1.62432,-1.55042 -0.0737,-1.32843 -1.69871,0.22131 -2.28883,0.81282 -2.28883,0.81282 0,0 0.95902,0.81141 2.36253,0.51561 m 2.73354,-4.79958 c -4.35835,0.44332 -5.76196,2.58454 -5.98326,3.17535 -0.22061,0.59151 0.517,0.81211 0.517,0.81211 1.32921,-2.21503 5.53868,-1.55112 4.43145,0.29651 -1.10783,1.84683 -4.20875,0.44261 -4.20875,0.44261 0,0 -0.59152,0.22128 -0.5184,1.32912 0.07438,1.1072 0.88719,1.18231 0.88719,1.18231 1.62422,-2.73345 4.72586,-1.47743 4.13565,0.0731 -0.5908,1.55112 -3.91364,0.9603 -3.91364,0.9603 -0.44331,1.62492 1.18162,1.91933 1.18162,1.91933 1.62422,-2.80593 3.91375,-1.77114 3.39665,-0.4426 -0.51773,1.32982 -2.65905,1.03412 -2.65905,1.03412 -0.22129,0.5177 -0.0737,1.32912 -0.0737,1.32912 -0.88661,-0.51702 -0.6639,-1.55042 -0.6639,-1.55042 -2.21644,-0.29582 -1.55181,-2.80655 -1.55181,-2.80655 0,0 -1.18092,-0.3696 -1.25543,-1.62361 -0.07379,-1.25605 0.5908,-1.70075 0.5908,-1.70075 0,0 -1.1078,-0.73759 -0.73761,-1.6986 0.56962,-1.48352 2.36254,-3.24915 7.82741,-3.54355 5.46557,-0.29512 7.97562,3.10165 7.97562,3.10165 -2.21435,-1.84623 -5.02158,-2.73213 -9.37784,-2.28955"
               style="fill:#000000;fill-opacity:1;fill-rule:nonzero;stroke:#000000;stroke-width:0.3985;stroke-linecap:butt;stroke-linejoin:miter;stroke-miterlimit:10;stroke-dasharray:none;stroke-opacity:1"
               id="path22" /><path
               d="m 1.5932,26.12273 c 0,0 4.13565,4.13565 10.11763,3.98814 5.98189,-0.14821 12.84966,-1.55182 16.1732,-8.49341 C 31.207,14.67587 28.69615,7.88118 26.55421,5.29665 24.4137,2.71211 19.39143,-2.01512 10.08661,0.93968 0.78038,3.89233 -0.25368,11.87004 0.04208,16.0782 c 0.29572,4.21016 2.58454,9.74942 8.71401,11.37364 6.12939,1.62491 11.96448,0 15.0661,-3.83926 3.10155,-3.84206 4.06184,-7.46068 2.65893,-12.84964 C 25.0775,5.36906 18.65303,0.7908 12.37535,2.12062 6.09776,3.45041 3.66074,7.5862 2.47911,9.65361 1.2974,11.72183 0.85419,16.4484 2.99612,20.14014 c 0,0 -2.51082,-4.94786 -0.22131,-10.33893 2.28954,-5.39108 8.93602,-7.7544 12.62778,-7.16419 3.69304,0.59081 8.4196,2.43833 9.89691,7.3862 1.47743,4.94776 1.55054,8.1238 -2.0675,12.55526 -3.61927,4.43075 -7.6068,4.72586 -11.00414,4.65136 C 8.8305,27.15681 6.09776,25.97382 4.03023,24.1283 1.96202,22.28278 0.26338,18.51582 0.3378,15.63559 0.4116,12.75594 0.26338,8.5458 4.54724,4.63205 8.8305,0.717 14.14787,0.20128 18.80052,1.01268 c 4.65278,0.81352 8.12322,6.0564 8.86164,8.34592 0.73899,2.28944 2.06811,7.8274 -1.10795,13.21988 -3.17532,5.39047 -9.231,6.64648 -10.26441,6.71959 -1.03412,0.0744 -7.97631,1.92003 -14.6966,-3.17534"
               style="fill:#000000;fill-opacity:1;fill-rule:nonzero;stroke:#000000;stroke-width:0.3985;stroke-linecap:butt;stroke-linejoin:miter;stroke-miterlimit:10;stroke-dasharray:none;stroke-opacity:1"
               id="path24" /><path
               d="m 14.40807,15.73868 0.44259,2.73342 0.36542,-0.06008 -0.44331,-2.73134 z"
               style="fill:#000000;fill-opacity:1;fill-rule:nonzero;stroke:#000000;stroke-width:0.3985;stroke-linecap:butt;stroke-linejoin:miter;stroke-miterlimit:10;stroke-dasharray:none;stroke-opacity:1"
               id="path26" /><path
               d="m 15.23108,21.05196 c 0,0 0.78751,-1.18161 0.59082,-1.72332 -0.1967,-0.54091 -0.68913,-0.49241 -0.68913,-0.49241 0,0 -0.73841,0.0498 -0.59081,0.93499 0.14752,0.88593 0.68912,1.28074 0.68912,1.28074"
               style="fill:#000000;fill-opacity:1;fill-rule:nonzero;stroke:#000000;stroke-width:0.3985;stroke-linecap:butt;stroke-linejoin:miter;stroke-miterlimit:10;stroke-dasharray:none;stroke-opacity:1"
               id="path28" /><path
               d="m 14.24617,15.24219 c 0,0 0.2459,-0.98432 -0.3934,-0.98432 -0.64072,0 -0.83672,0.78691 -0.83672,0.78691 -0.0553,-0.1947 -0.0601,-0.37089 -0.0294,-0.52661 l -1.24301,-0.78552 c -0.05811,0.24931 -0.0082,0.47542 -0.0082,0.47542 0,0 -0.7281,-0.40302 -0.64752,-0.89 L 10.0292,12.64735 c 0.09011,0.56553 -0.1154,1.36402 -0.1154,1.36402 -0.04918,-0.78752 -1.3299,-2.60913 -1.3299,-2.60913 1.23153,0.44259 2.85644,0.6399 2.85644,0.6399 -0.59012,0.2459 -0.98352,0.29509 -1.23012,0.2828 l 1.05731,0.66941 c 0.446,-0.4413 1.10782,0.1297 1.10782,0.1297 -0.22191,0.0533 -0.37021,0.15441 -0.46919,0.2739 l 1.2274,0.77661 c 0.37221,-0.53819 1.26221,-0.62491 1.50671,-0.0649 0.34432,0.78753 -0.3941,1.13253 -0.3941,1.13253"
               style="fill:#000000;fill-opacity:1;fill-rule:nonzero;stroke:#000000;stroke-width:0.3985;stroke-linecap:butt;stroke-linejoin:miter;stroke-miterlimit:10;stroke-dasharray:none;stroke-opacity:1"
               id="path30" /><path
               d="m 11.39523,7.3041 0.20969,-0.70425 c 0.05461,-0.18309 0.09631,-0.35109 0.14001,-0.53 0.15641,0.13183 0.2903,0.24521 0.42551,0.362 l 0.56079,0.46372 0.53482,-0.16319 -1.33331,-1.03412 0.5267,-1.70142 -0.5635,0.1722 -0.2118,0.73561 c -0.05941,0.19119 -0.1024,0.37219 -0.14821,0.5634 -0.1537,-0.13719 -0.29229,-0.2499 -0.44329,-0.38109 l -0.58263,-0.49382 -0.5464,0.16731 1.39473,1.0949 -0.51502,1.61943 z"
               style="fill:#000000;fill-opacity:1;fill-rule:nonzero;stroke:#000000;stroke-width:0.3985;stroke-linecap:butt;stroke-linejoin:miter;stroke-miterlimit:10;stroke-dasharray:none;stroke-opacity:1"
               id="path32" /><path
               d="M 8.86261,8.5519 8.99239,7.82797 C 9.0265,7.64008 9.04909,7.46938 9.073,7.28558 9.24371,7.39897 9.3885,7.49599 9.5361,7.59908 l 0.60852,0.3982 0.5136,-0.22261 L 9.2185,6.89557 9.55241,5.14575 9.01219,5.37936 8.8838,6.13606 C 8.8462,6.33148 8.82231,6.51447 8.79909,6.71188 8.6311,6.59026 8.48079,6.49467 8.31549,6.38057 L 7.68167,5.95506 7.15778,6.18185 8.66519,7.11488 8.3333,8.78079 Z"
               style="fill:#000000;fill-opacity:1;fill-rule:nonzero;stroke:#000000;stroke-width:0.3985;stroke-linecap:butt;stroke-linejoin:miter;stroke-miterlimit:10;stroke-dasharray:none;stroke-opacity:1"
               id="path34" /><path
               d="M 7.37497,10.29572 7.11407,9.60791 C 7.04648,9.42891 6.97816,9.2725 6.90367,9.10179 7.10727,9.11131 7.28278,9.12091 7.46167,9.1325 L 8.18849,9.16121 8.5149,8.7056 6.82788,8.69261 6.21455,7.02057 5.87096,7.49939 6.14897,8.2145 c 0.069,0.18719 0.14339,0.3559 0.224,0.53689 C 6.16736,8.7343 5.98917,8.7302 5.78836,8.7159 L 5.02606,8.6783 4.69415,9.1414 6.46658,9.16669 7.03827,10.76492 Z"
               style="fill:#000000;fill-opacity:1;fill-rule:nonzero;stroke:#000000;stroke-width:0.3985;stroke-linecap:butt;stroke-linejoin:miter;stroke-miterlimit:10;stroke-dasharray:none;stroke-opacity:1"
               id="path36" /><path
               d="m 20.34764,5.74336 -0.99379,1.23352 c -0.16391,0.19809 -0.30601,0.38179 -0.43101,0.571 6.8e-4,-0.2343 0.0021,-0.4678 6.8e-4,-0.72471 l 0.0157,-1.58181 -0.47609,-0.1708 0.0895,2.85783 0.4344,0.155 1.84763,-2.16654 z"
               style="fill:#000000;fill-opacity:1;fill-rule:nonzero;stroke:#000000;stroke-width:0.3985;stroke-linecap:butt;stroke-linejoin:miter;stroke-miterlimit:10;stroke-dasharray:none;stroke-opacity:1"
               id="path38" /><path
               d="M 18.02742,4.89984 17.57112,4.73795 16.673,7.25697 17.1278,7.4188 Z"
               style="fill:#000000;fill-opacity:1;fill-rule:nonzero;stroke:#000000;stroke-width:0.3985;stroke-linecap:butt;stroke-linejoin:miter;stroke-miterlimit:10;stroke-dasharray:none;stroke-opacity:1"
               id="path40" /><path
               d="M 17.10672,4.57124 16.6511,4.40944 15.7516,6.92906 16.20709,7.09027 Z"
               style="fill:#000000;fill-opacity:1;fill-rule:nonzero;stroke:#000000;stroke-width:0.3985;stroke-linecap:butt;stroke-linejoin:miter;stroke-miterlimit:10;stroke-dasharray:none;stroke-opacity:1"
               id="path42" /><path
               d="m 16.0542,4.19635 -0.45561,-0.16193 -0.89893,2.51905 0.45563,0.1632 z"
               style="fill:#000000;fill-opacity:1;fill-rule:nonzero;stroke:#000000;stroke-width:0.3985;stroke-linecap:butt;stroke-linejoin:miter;stroke-miterlimit:10;stroke-dasharray:none;stroke-opacity:1"
               id="path44" /><path
               d="m 24.40271,10.52522 -1.51903,0.4487 c -0.24719,0.07042 -0.46791,0.14002 -0.6775,0.22472 0.13247,-0.19052 0.26559,-0.38182 0.4118,-0.59561 l 0.91181,-1.29293 -0.2943,-0.40979 -1.55121,2.40152 0.26979,0.37491 2.75053,-0.73222 z"
               style="fill:#000000;fill-opacity:1;fill-rule:nonzero;stroke:#000000;stroke-width:0.3985;stroke-linecap:butt;stroke-linejoin:miter;stroke-miterlimit:10;stroke-dasharray:none;stroke-opacity:1"
               id="path46" /><path
               d="m 22.97318,8.5123 -0.28281,-0.3927 -2.17203,1.56271 0.28282,0.39281 z"
               style="fill:#000000;fill-opacity:1;fill-rule:nonzero;stroke:#000000;stroke-width:0.3985;stroke-linecap:butt;stroke-linejoin:miter;stroke-miterlimit:10;stroke-dasharray:none;stroke-opacity:1"
               id="path48" /><path
               d="M 22.40288,7.71939 22.12007,7.32658 19.94804,8.8887 20.23015,9.28139 Z"
               style="fill:#000000;fill-opacity:1;fill-rule:nonzero;stroke:#000000;stroke-width:0.3985;stroke-linecap:butt;stroke-linejoin:miter;stroke-miterlimit:10;stroke-dasharray:none;stroke-opacity:1"
               id="path50" /><path
               d="M 24.7975,16.67511 23.29898,16.1588 c -0.24179,-0.08751 -0.4617,-0.15642 -0.6824,-0.2104 0.21931,-0.07921 0.43921,-0.15711 0.68101,-0.2452 l 1.49312,-0.52322 -0.0014,-0.50679 -2.65763,1.05729 0.0027,0.46112 2.66523,0.9999 -0.0021,-0.51639 z"
               style="fill:#000000;fill-opacity:1;fill-rule:nonzero;stroke:#000000;stroke-width:0.3985;stroke-linecap:butt;stroke-linejoin:miter;stroke-miterlimit:10;stroke-dasharray:none;stroke-opacity:1"
               id="path52" /><path
               d="m 24.80089,14.20667 -0.002,-0.4849 -2.67544,0.0123 0.0021,0.48419 2.67531,-0.01159 z"
               style="fill:#000000;fill-opacity:1;fill-rule:nonzero;stroke:#000000;stroke-width:0.3985;stroke-linecap:butt;stroke-linejoin:miter;stroke-miterlimit:10;stroke-dasharray:none;stroke-opacity:1"
               id="path54" /><path
               d="M 17.44002,24.8311 17.9181,24.7512 17.47142,22.11337 16.994,22.19397 Z"
               style="fill:#000000;fill-opacity:1;fill-rule:nonzero;stroke:#000000;stroke-width:0.3985;stroke-linecap:butt;stroke-linejoin:miter;stroke-miterlimit:10;stroke-dasharray:none;stroke-opacity:1"
               id="path56" /><path
               d="m 12.57965,25.3488 0.48351,-0.013 -0.06691,-2.67603 -0.4836,0.01301 z"
               style="fill:#000000;fill-opacity:1;fill-rule:nonzero;stroke:#000000;stroke-width:0.3985;stroke-linecap:butt;stroke-linejoin:miter;stroke-miterlimit:10;stroke-dasharray:none;stroke-opacity:1"
               id="path58" /><path
               d="M 7.81898,23.4753 8.2172,23.7499 9.73752,21.54776 9.3387,21.27255 Z"
               style="fill:#000000;fill-opacity:1;fill-rule:nonzero;stroke:#000000;stroke-width:0.3985;stroke-linecap:butt;stroke-linejoin:miter;stroke-miterlimit:10;stroke-dasharray:none;stroke-opacity:1"
               id="path60" /><path
               d="m 4.84775,20.58064 0.25,0.41602 2.29292,-1.37901 -0.25,-0.41602 z"
               style="fill:#000000;fill-opacity:1;fill-rule:nonzero;stroke:#000000;stroke-width:0.3985;stroke-linecap:butt;stroke-linejoin:miter;stroke-miterlimit:10;stroke-dasharray:none;stroke-opacity:1"
               id="path62" /><path
               d="M 8.55179,23.90079 8.9507,24.1754 10.46973,21.97195 10.07152,21.69667 Z"
               style="fill:#000000;fill-opacity:1;fill-rule:nonzero;stroke:#000000;stroke-width:0.3985;stroke-linecap:butt;stroke-linejoin:miter;stroke-miterlimit:10;stroke-dasharray:none;stroke-opacity:1"
               id="path64" /><path
               d="m 13.46547,25.3488 0.4843,-0.013 -0.06691,-2.67603 -0.4843,0.01301 z"
               style="fill:#000000;fill-opacity:1;fill-rule:nonzero;stroke:#000000;stroke-width:0.3985;stroke-linecap:butt;stroke-linejoin:miter;stroke-miterlimit:10;stroke-dasharray:none;stroke-opacity:1"
               id="path66" /><path
               d="m 14.30217,25.3488 0.4843,-0.013 -0.06699,-2.67603 -0.48352,0.01301 z"
               style="fill:#000000;fill-opacity:1;fill-rule:nonzero;stroke:#000000;stroke-width:0.3985;stroke-linecap:butt;stroke-linejoin:miter;stroke-miterlimit:10;stroke-dasharray:none;stroke-opacity:1"
               id="path68" /><path
               d="m 22.50737,21.55186 -1.05321,-1.18292 c -0.1694,-0.1954 -0.3265,-0.3641 -0.4918,-0.5191 0.2295,0.03891 0.459,0.07921 0.71371,0.11951 l 1.5573,0.27659 0.24663,-0.4433 -2.83385,-0.3797 -0.22481,0.4037 1.83464,2.17742 z"
               style="fill:#000000;fill-opacity:1;fill-rule:nonzero;stroke:#000000;stroke-width:0.3985;stroke-linecap:butt;stroke-linejoin:miter;stroke-miterlimit:10;stroke-dasharray:none;stroke-opacity:1"
               id="path70" /><path
               d="m 19.10243,24.28809 -0.3797,-1.53812 c -0.0594,-0.25 -0.11952,-0.47339 -0.19331,-0.68851 0.1844,0.14202 0.36951,0.28412 0.57512,0.43921 l 1.24991,0.97123 0.4235,-0.2773 -2.32843,-1.65844 -0.38731,0.25341 0.60722,2.78063 z"
               style="fill:#000000;fill-opacity:1;fill-rule:nonzero;stroke:#000000;stroke-width:0.3985;stroke-linecap:butt;stroke-linejoin:miter;stroke-miterlimit:10;stroke-dasharray:none;stroke-opacity:1"
               id="path72" /><path
               d="M 13.55356,6.70576 14.05087,6.55817 13.23737,3.80972 12.74086,3.95653 Z"
               style="fill:#000000;fill-opacity:1;fill-rule:nonzero;stroke:#000000;stroke-width:0.3985;stroke-linecap:butt;stroke-linejoin:miter;stroke-miterlimit:10;stroke-dasharray:none;stroke-opacity:1"
               id="path74" /><path
               d="M 6.87567,11.30864 7.05258,10.82092 4.35733,9.84221 4.18114,10.32912 Z"
               style="fill:#000000;fill-opacity:1;fill-rule:nonzero;stroke:#000000;stroke-width:0.3985;stroke-linecap:butt;stroke-linejoin:miter;stroke-miterlimit:10;stroke-dasharray:none;stroke-opacity:1"
               id="path76" /><path
               d="M 6.08676,14.70937 5.44955,14.34196 c -0.16531,-0.0957 -0.31691,-0.17419 -0.4822,-0.26029 0.16391,-0.1222 0.30529,-0.22471 0.4521,-0.32781 l 0.58201,-0.43851 -0.03489,-0.558 -1.31682,1.0559 -1.53133,-0.90979 0.03621,0.5874 0.66661,0.37979 c 0.17141,0.09972 0.33599,0.18512 0.51291,0.27452 -0.17001,0.1162 -0.31071,0.22479 -0.47471,0.3422 l -0.61611,0.45082 0.03559,0.57029 1.38992,-1.10171 1.45282,0.87912 z"
               style="fill:#000000;fill-opacity:1;fill-rule:nonzero;stroke:#000000;stroke-width:0.3985;stroke-linecap:butt;stroke-linejoin:miter;stroke-miterlimit:10;stroke-dasharray:none;stroke-opacity:1"
               id="path78" /><path
               d="m 6.25346,16.44289 -0.054,-0.51569 -2.85223,0.2944 0.05389,0.5157 z"
               style="fill:#000000;fill-opacity:1;fill-rule:nonzero;stroke:#000000;stroke-width:0.3985;stroke-linecap:butt;stroke-linejoin:miter;stroke-miterlimit:10;stroke-dasharray:none;stroke-opacity:1"
               id="path80" /><path
               d="M 6.30266,17.32811 6.24936,16.8145 3.39774,17.1082 3.45103,17.62381 Z"
               style="fill:#000000;fill-opacity:1;fill-rule:nonzero;stroke:#000000;stroke-width:0.3985;stroke-linecap:butt;stroke-linejoin:miter;stroke-miterlimit:10;stroke-dasharray:none;stroke-opacity:1"
               id="path82" /></g></g></g></g></g></svg>
