<?xml version="1.0" encoding="UTF-8" standalone="no"?>
<svg
   xmlns:dc="http://purl.org/dc/elements/1.1/"
   xmlns:cc="http://creativecommons.org/ns#"
   xmlns:rdf="http://www.w3.org/1999/02/22-rdf-syntax-ns#"
   xmlns:svg="http://www.w3.org/2000/svg"
   xmlns="http://www.w3.org/2000/svg"
   xmlns:sodipodi="http://sodipodi.sourceforge.net/DTD/sodipodi-0.dtd"
   xmlns:inkscape="http://www.inkscape.org/namespaces/inkscape"
   version="1.1"
   id="svg2"
   xml:space="preserve"
   width="82.41333"
   height="38.013332"
   viewBox="0 0 82.41333 38.013332"
   sodipodi:docname="vectorian153.pdf"><metadata
     id="metadata8"><rdf:RDF><cc:Work
         rdf:about=""><dc:format>image/svg+xml</dc:format><dc:type
           rdf:resource="http://purl.org/dc/dcmitype/StillImage" /></cc:Work></rdf:RDF></metadata><defs
     id="defs6" /><sodipodi:namedview
     pagecolor="#ffffff"
     bordercolor="#666666"
     borderopacity="1"
     objecttolerance="10"
     gridtolerance="10"
     guidetolerance="10"
     inkscape:pageopacity="0"
     inkscape:pageshadow="2"
     inkscape:window-width="640"
     inkscape:window-height="480"
     id="namedview4" /><g
     id="g10"
     inkscape:groupmode="layer"
     inkscape:label="vectorian153"
     transform="matrix(1.3333333,0,0,-1.3333333,0,38.013333)"><g
       id="g12"
       transform="translate(72,-43.494)"><g
         id="g14"
         transform="translate(-71.239,43.764)"><g
           id="g16"><g
             id="g18"><path
               d="m 30.84738,21.00014 c 0.07311,-0.73909 -1.77312,-0.81209 -1.77312,-0.81209 0.07381,0.8858 1.69863,1.55041 1.77312,0.81209 M 30.25586,4.75305 C 29.22247,3.94023 25.1605,4.30914 25.1605,4.30914 c 4.72657,3.10155 6.12948,1.25533 5.09536,0.44391 m -3.39732,6.86849 c 1.25611,0.0738 1.92131,-0.73902 0.444,-1.69933 C 25.82512,8.9618 22.57597,9.3314 22.57597,9.3314 c 0.81211,1.25602 3.02785,2.21563 4.28257,2.29014 M 25.2343,16.1261 c -0.4433,-1.10861 -5.46486,-0.88591 -5.46486,-0.88591 1.99371,2.36322 5.90749,1.99303 5.46486,0.88591 M 3.22661,20.48376 c 1.55113,0.07308 6.3508,-0.22271 10.70846,-0.59152 4.35695,-0.3695 13.07166,-0.73831 13.80997,-0.73831 0.64481,0 0.67011,0.1687 0.66672,0.21172 -7e-4,0.0027 -0.0014,0.0082 -0.0021,0.01028 0,0 0.0014,-0.0041 0.0021,-0.01028 0.07439,-0.36061 0.25879,-5.16639 5.53726,-5.9724 5.31726,-0.81281 8.49262,0.29512 9.67433,2.95415 1.18161,2.65832 -1.84622,4.65274 -2.95415,5.09526 -1.10781,0.4433 -1.62492,0.4433 -1.62492,0.4433 0,0 5.09607,-1.99372 4.28327,-5.02156 -0.81212,-3.02784 -4.57897,-3.24985 -9.45232,-2.28953 -4.87476,0.95971 -5.16979,4.94787 -5.16979,4.94787 3.10155,0.29571 3.29485,2.14262 1.77173,2.14262 -1.40291,0 -1.77173,-1.25601 -1.77173,-1.25601 -3.69242,-0.1483 -5.61305,2.80655 -5.61305,2.80655 1.18161,1.25529 0.29569,1.9199 -0.44261,1.25529 -0.73912,-0.66521 -0.222,-1.25529 -0.222,-1.25529 -1.47673,-1.84624 -8.12392,-1.62493 -7.6068,0.9596 0.517,2.58523 6.13007,2.65902 9.97002,2.58523 3.83995,-0.0745 10.63464,-1.92063 16.24771,-3.84066 5.61247,-1.91993 8.41902,-2.21571 8.41902,-2.21571 -1.03412,-2.21504 -0.222,-3.32284 -0.222,-3.32284 0,0 -2.28953,-1.25542 -2.14134,-3.84137 0.1476,-2.58393 1.62422,-3.17473 1.62422,-3.17473 C 47.16818,8.6668 48.27602,6.67236 48.27602,6.67236 40.4479,5.34386 33.87523,0.02658 29.07426,0.3216 24.274,0.61739 25.01302,3.57143 25.01302,3.57143 c 1.62422,-0.222 3.17533,-0.444 5.16975,0.5908 1.91113,0.99112 0.2493,2.81474 -1.77312,2.14134 -1.55111,-0.5171 -3.54485,-1.84622 -3.54485,-1.84622 -3.24983,1.10712 -2.65832,3.91364 -2.65832,3.91364 2.21572,-0.44319 4.20944,-0.073 5.68616,1.18171 1.47662,1.25533 0.66452,2.88025 -1.84622,2.29013 C 23.5349,11.25134 22.28027,9.5527 22.28027,9.5527 c 0,0 -2.14203,0 -3.54493,1.40352 -1.33123,1.33191 -0.14751,3.02854 -0.14751,3.02854 0,0 3.02714,0.44261 5.39107,1.03273 2.36322,0.59151 1.47671,1.69941 1.47671,1.69941 -2.73283,1.99373 -6.49898,-1.55111 -6.49898,-1.55111 C 4.85085,14.42737 0.8634,17.38152 0.64139,18.56313 0.4201,19.74475 1.6762,20.40935 3.22661,20.48376 m 19.86578,3.91373 C 23.5349,24.323 22.79727,23.2896 22.79727,23.2896 c -0.29579,0.36879 -0.14749,1.18159 0.29512,1.10789 M 49.16191,6.37727 c 0.66461,0.0745 5.68688,1.47672 6.86849,-0.51701 1.18164,-1.99371 -0.7383,-2.58453 -3.17603,-2.06822 -2.43703,0.5171 -3.69246,2.58523 -3.69246,2.58523 m 0.51712,4.65276 c 1.1078,1.18162 4.65265,2.21573 4.94847,0.88591 0.29509,-1.32852 -0.66531,-1.69873 -1.69873,-1.69873 -1.03401,0 -3.24974,0.81282 -3.24974,0.81282 m 0.59081,6.49896 c 0,0 2.65893,1.03414 3.98746,0.51703 2.07092,-0.80521 0.961,-2.95406 -0.95902,-2.65894 -1.82634,0.28141 -3.02844,2.14191 -3.02844,2.14191 m -0.0738,3.54486 c 1.62562,2.88035 6.64647,3.54495 6.72028,2.06754 0.0744,-1.47603 -6.72028,-2.06754 -6.72028,-2.06754 M 18.29202,14.13237 c 0,0 -1.21162,-1.66391 -0.22191,-3.54495 0.73902,-1.40363 3.91436,-2.14262 3.91436,-2.14262 0,0 -1.40291,-2.88033 2.65904,-4.65276 0,0 -0.73901,-3.32284 3.54484,-3.69176 4.28327,-0.36948 7.01539,0.29512 10.70844,1.77184 3.69244,1.47731 8.73931,4.13704 9.77333,4.28384 0,0 1.4303,-2.74234 4.62816,-3.32353 3.24913,-0.59082 4.28325,1.25599 3.39674,2.88022 -0.88592,1.62492 -3.91444,1.84623 -7.97641,0.95971 0,0 -1.03341,1.84693 0.3696,3.61866 0,0 1.32913,-0.51709 2.51073,-0.66462 1.18164,-0.14679 2.95406,-0.14679 3.54484,1.10794 0.59152,1.2553 -1.10782,3.61933 -5.75985,0.517 0,0 -1.77313,0.81279 -1.84693,2.88103 -0.0737,2.06743 1.77243,2.95262 1.77243,2.95262 0,0 0.6646,-1.9192 3.32363,-2.21501 2.65904,-0.29511 3.17604,1.03342 3.17604,1.84692 0,0.81209 -1.1816,2.80584 -5.76058,1.1078 0,0 -0.88661,1.55123 0,2.80585 0,0 1.77314,-0.51701 4.13567,0.07381 2.36322,0.59081 3.54494,1.99442 3.10164,2.80724 -0.44332,0.8114 -2.11263,1.4343 -4.80097,0.2206 -2.28882,-1.03342 -2.95343,-2.58384 -2.95343,-2.58384 0,0 -1.10782,-0.29582 -7.82811,1.91924 -6.72088,2.21571 -8.78912,3.98823 -14.17956,4.50454 -5.39179,0.51841 -7.90251,0.66462 -10.78216,-0.88591 -2.88033,-1.55043 -2.80653,-3.83926 -0.3695,-4.65205 2.43703,-0.81271 4.50514,-0.29572 6.35068,0.81279 0,0 0.88661,-2.73343 5.24356,-3.17603 0,0 0.44331,-0.22201 -1.03342,-0.22201 -1.47731,0 -8.86281,0.51781 -15.13919,1.03483 C 5.51546,21.00014 0.8634,21.44266 0.05058,18.85883 -0.7615,16.2736 8.3227,13.02446 18.29202,14.13237"
               style="fill:#000000;fill-opacity:1;fill-rule:nonzero;stroke:#000000;stroke-width:0.3985;stroke-linecap:butt;stroke-linejoin:miter;stroke-miterlimit:10;stroke-dasharray:none;stroke-opacity:1"
               id="path20" /></g></g></g></g></g></svg>
