<?xml version="1.0" encoding="UTF-8" standalone="no"?>
<svg
   xmlns:dc="http://purl.org/dc/elements/1.1/"
   xmlns:cc="http://creativecommons.org/ns#"
   xmlns:rdf="http://www.w3.org/1999/02/22-rdf-syntax-ns#"
   xmlns:svg="http://www.w3.org/2000/svg"
   xmlns="http://www.w3.org/2000/svg"
   xmlns:sodipodi="http://sodipodi.sourceforge.net/DTD/sodipodi-0.dtd"
   xmlns:inkscape="http://www.inkscape.org/namespaces/inkscape"
   version="1.1"
   id="svg2"
   xml:space="preserve"
   width="59.866711"
   height="39.35923"
   viewBox="0 0 59.866711 39.35923"
   sodipodi:docname="vectorian182.pdf"><metadata
     id="metadata8"><rdf:RDF><cc:Work
         rdf:about=""><dc:format>image/svg+xml</dc:format><dc:type
           rdf:resource="http://purl.org/dc/dcmitype/StillImage" /></cc:Work></rdf:RDF></metadata><defs
     id="defs6" /><sodipodi:namedview
     pagecolor="#ffffff"
     bordercolor="#666666"
     borderopacity="1"
     objecttolerance="10"
     gridtolerance="10"
     guidetolerance="10"
     inkscape:pageopacity="0"
     inkscape:pageshadow="2"
     inkscape:window-width="640"
     inkscape:window-height="480"
     id="namedview4" /><g
     id="g10"
     inkscape:groupmode="layer"
     inkscape:label="vectorian182"
     transform="matrix(1.3333333,0,0,-1.3333333,-1.6911524,41.2065)"><g
       id="g12"
       transform="translate(72,-39.303)"><g
         id="g14"
         transform="translate(-70.53,40.888)"><g
           id="g16"><g
             id="g18"><path
               d="m 15.12149,3.03284 c 0,0 3.59744,1.50389 6.17377,4.29616 2.57773,2.79222 1.18231,4.67054 -1.98554,2.73751 C 16.1426,8.1343 14.20897,5.23625 15.12149,3.03284 m 0.91319,6.01466 c 3.59745,3.54285 8.85812,3.38234 6.9798,-0.21521 C 21.13414,5.23416 15.49849,2.49661 15.49849,2.49661 19.79335,-0.51 27.84544,3.08742 27.84544,3.08742 37.56418,7.38159 41.59132,14.68376 41.59132,14.68376 46.04668,21.82475 43.95384,27.46313 36.16747,27.99925 28.38306,28.53545 17.2149,24.9387 8.4634,17.69041 -0.28818,10.44292 -1.46982,2.38872 3.14871,0.8314 7.76599,-0.7252 14.69186,2.81902 14.69186,2.81902 13.18915,6.30788 16.03468,9.0475 16.03468,9.0475 M 0.46379,2.71114 C -1.254,6.79076 2.34352,12.05275 2.34352,12.05275 4.43625,14.68376 13.24245,26.06631 27.95404,28.59015 42.66504,31.1125 47.17569,24.2413 43.04063,16.02658 38.90709,7.81187 29.83167,3.46243 29.83167,3.46243 19.14793,-1.5851 15.12149,2.33542 15.12149,2.33542 10.18182,-0.29558 2.18231,-1.3693 0.46379,2.71114"
               style="fill:#000000;fill-opacity:1;fill-rule:nonzero;stroke:#000000;stroke-width:0.3985;stroke-linecap:butt;stroke-linejoin:miter;stroke-miterlimit:10;stroke-dasharray:none;stroke-opacity:1"
               id="path20" /><path
               d="m 11.77534,11.05832 c 0,0 -3.15214,0.33742 -5.93888,-1.85852 C 3.04903,7.00458 3.97723,4.38655 5.86446,4.66794 7.74959,4.94934 9.72081,6.49706 9.94553,7.73679 10.17093,8.9751 7.01808,9.5099 5.86446,6.01897 c 0,0 -0.17009,1.68982 1.60371,2.81614 C 9.242,9.96 11.63533,8.581 9.77751,6.41377 7.91899,4.24515 4.34335,3.31621 3.75185,5.48485 c -0.58942,2.16722 1.3237,5.20869 4.61795,5.96818 0,0 1.94252,0.47753 3.40554,-0.39471"
               style="fill:#000000;fill-opacity:1;fill-rule:nonzero;stroke:#000000;stroke-width:0.3985;stroke-linecap:butt;stroke-linejoin:miter;stroke-miterlimit:10;stroke-dasharray:none;stroke-opacity:1"
               id="path22" /><path
               d="m 20.74477,18.61324 c 0,0 -2.89536,1.1058 -5.74759,-0.41941 -2.85164,-1.52523 -2.60784,-3.97926 -0.77321,-4.17807 1.83463,-0.1981 4.13365,1.08333 4.39933,2.23284 0.26433,1.1502 -2.1897,1.65771 -4.06802,-0.79572 0,0 0.1106,1.26012 1.63582,2.03403 1.52521,0.77252 3.93555,-0.17761 2.47524,-1.98903 -1.45823,-1.81342 -4.90747,-2.45473 -5.79068,-1.21642 -0.88453,1.23834 -0.22193,3.66855 2.23283,4.86316 2.45203,1.19324 5.04005,0.22133 5.63628,-0.53138"
               style="fill:#000000;fill-opacity:1;fill-rule:nonzero;stroke:#000000;stroke-width:0.3985;stroke-linecap:butt;stroke-linejoin:miter;stroke-miterlimit:10;stroke-dasharray:none;stroke-opacity:1"
               id="path24" /><path
               d="m 25.3647,21.35626 c 0,0 1.52524,1.32572 3.07225,1.19321 1.54771,-0.13249 1.23903,-1.54701 -0.77382,-2.27721 -2.01082,-0.72812 -3.73474,0.11128 -3.27103,1.63651 0.4645,1.52593 3.51485,3.46974 7.5816,1.1707 0,0 -1.56821,2.41044 -4.95057,1.50473 -3.38163,-0.90772 -3.82493,-3.58174 -2.43222,-4.51006 1.39272,-0.92889 4.59805,-0.0894 5.06256,1.30393 0.46439,1.39201 -1.10511,1.87833 -2.43223,1.61401 -1.32584,-0.265 -1.85654,-1.63582 -1.85654,-1.63582"
               style="fill:#000000;fill-opacity:1;fill-rule:nonzero;stroke:#000000;stroke-width:0.3985;stroke-linecap:butt;stroke-linejoin:miter;stroke-miterlimit:10;stroke-dasharray:none;stroke-opacity:1"
               id="path26" /><path
               d="m 34.11772,21.40067 c 0,0 1.43703,0.90631 2.94104,0.6188 1.50203,-0.28831 1.01631,-1.50343 -0.86261,-2.01224 -1.87903,-0.50819 -3.89055,0.50881 -3.22865,1.98963 0.66392,1.48083 4.82077,2.18773 6.89781,1.28273 2.07842,-0.90702 1.21509,-2.76355 -1.10443,-3.75797 0,0 2.54224,0.32993 2.80653,2.16583 0.265,1.83465 -2.56402,3.53606 -6.01266,2.47536 -3.44855,-1.06141 -3.51555,-3.07225 -2.14405,-3.93426 1.37023,-0.86202 4.26618,-0.72951 4.88508,0.97261 0.61941,1.70141 -2.76354,2.34343 -4.17806,0.19951"
               style="fill:#000000;fill-opacity:1;fill-rule:nonzero;stroke:#000000;stroke-width:0.3985;stroke-linecap:butt;stroke-linejoin:miter;stroke-miterlimit:10;stroke-dasharray:none;stroke-opacity:1"
               id="path28" /></g></g></g></g></g></svg>
