<?xml version="1.0" encoding="UTF-8" standalone="no"?>
<svg
   xmlns:dc="http://purl.org/dc/elements/1.1/"
   xmlns:cc="http://creativecommons.org/ns#"
   xmlns:rdf="http://www.w3.org/1999/02/22-rdf-syntax-ns#"
   xmlns:svg="http://www.w3.org/2000/svg"
   xmlns="http://www.w3.org/2000/svg"
   xmlns:sodipodi="http://sodipodi.sourceforge.net/DTD/sodipodi-0.dtd"
   xmlns:inkscape="http://www.inkscape.org/namespaces/inkscape"
   version="1.1"
   id="svg2"
   xml:space="preserve"
   width="79.082542"
   height="40.228115"
   viewBox="0 0 79.082543 40.228115"
   sodipodi:docname="vectorian168.pdf"><metadata
     id="metadata8"><rdf:RDF><cc:Work
         rdf:about=""><dc:format>image/svg+xml</dc:format><dc:type
           rdf:resource="http://purl.org/dc/dcmitype/StillImage" /></cc:Work></rdf:RDF></metadata><defs
     id="defs6" /><sodipodi:namedview
     pagecolor="#ffffff"
     bordercolor="#666666"
     borderopacity="1"
     objecttolerance="10"
     gridtolerance="10"
     guidetolerance="10"
     inkscape:pageopacity="0"
     inkscape:pageshadow="2"
     inkscape:window-width="640"
     inkscape:window-height="480"
     id="namedview4" /><g
     id="g10"
     inkscape:groupmode="layer"
     inkscape:label="vectorian168"
     transform="matrix(1.3333333,0,0,-1.3333333,-1.0542823,41.441106)"><g
       id="g12"
       transform="translate(72,-40.505)"><g
         id="g14"
         transform="translate(-71.008,41.613)"><g
           id="g16"><g
             id="g18"><path
               d="m 9.1903,17.74431 c 0,0 6.9696,3.26895 21.03297,0.86471 14.06418,-2.40623 20.91078,-3.51684 25.90704,1.04781 0,0 -2.09753,-4.81056 -14.92741,-3.39123 -12.82985,1.41722 -19.05974,4.37747 -32.0126,1.47871"
               style="fill:#000000;fill-opacity:1;fill-rule:nonzero;stroke:#000000;stroke-width:0.3985;stroke-linecap:butt;stroke-linejoin:miter;stroke-miterlimit:10;stroke-dasharray:none;stroke-opacity:1"
               id="path20" /><path
               d="m 6.82907,26.98424 c 3.66925,0.88521 5.41367,-1.17201 5.41367,-1.17201 8.17311,0.46919 11.73985,-0.10322 17.31053,-1.06623 5.56936,-0.96312 13.87358,-2.60373 20.06785,-2.23962 6.19509,0.3654 8.64231,3.30585 8.1225,4.86786 -0.5211,1.56213 -3.61934,2.88992 -7.2885,1.7192 -3.67054,-1.1728 -3.12342,-2.96842 -3.12342,-2.96842 3.98133,0 6.66288,0.91181 6.66288,0.91181 -2.16043,-1.01631 -6.58508,-1.35373 -6.58508,-1.35373 1.27591,-1.0157 3.04562,-1.19729 5.64796,-0.5471 2.60364,0.65161 2.65484,2.39464 0.57232,2.73345 -2.08112,0.3381 -4.21695,-1.01502 -4.21695,-1.01502 1.66591,1.61333 4.40004,1.74313 5.49356,0.93782 1.09283,-0.80801 0.72882,-3.43626 -3.17603,-3.90486 C 47.8262,23.4175 46.86179,25.65712 46.86179,25.65712 43.71236,25.5 39.7037,25.99593 39.7037,25.99593 31.5047,26.98424 26.74193,28.39055 17.68301,29.01485 8.62479,29.64116 2.89902,28.44255 1.3096,25.76163 -0.277,23.0808 1.5193,20.84114 1.5193,20.84114 l 1.95214,2.13513 c -0.33953,1.04232 -0.31292,3.12276 3.35763,4.00797 M 3.80945,23.21059 c 0,0 2.86322,1.74371 8.06929,2.52513 0,0 -1.69191,1.69111 -5.02437,0.96231 C 3.52263,25.96992 3.54922,23.6791 3.80945,23.21059 M 3.73093,22.40387 c 0,0 -1.22261,-1.1461 -1.79631,-1.92613 0,0 2.3693,-1.66721 6.48257,-0.13039 4.11246,1.53471 4.24286,4.08644 4.11246,4.71145 l -1.61403,-0.2595 c 0,0 0.0779,-1.43301 -2.21292,-2.63032 -2.29024,-1.19733 -4.63367,-0.25892 -4.97177,0.23489 m 6.84658,2.34213 c 0,0 -3.54074,-0.416 -6.50848,-2.00532 0,0 1.35371,-0.98772 3.82697,-0.31081 2.47252,0.67691 2.68151,2.31613 2.68151,2.31613 M 53.26987,14.72878 c -7.6328,-3.37755 -17.76683,-0.3073 -23.9509,0.6578 C 23.13359,16.3523 11.37804,17.4923 8.1317,14.77179 4.88664,12.05275 6.46506,9.378 8.57079,7.53378 10.67662,5.69235 11.07072,3.49854 9.7108,2.22601 8.3516,0.9543 6.90358,2.26912 6.90358,2.26912 8.17538,2.84012 8.4827,4.28813 7.2553,4.68425 6.02727,5.07765 4.36005,4.06955 5.10515,2.00821 c 0.74521,-2.0627 5.61447,-2.282 7.01808,0.08669 1.40364,2.36804 0.21922,4.29898 -1.0088,6.40469 -1.22813,2.10513 0.04441,3.33314 0.04441,3.33314 -0.13182,-1.44661 2.01831,-1.84211 2.89592,-0.6577 0.87572,1.18433 0.2623,3.55375 -2.63304,3.42195 -2.89464,-0.1311 -4.03525,-3.02714 -4.03525,-3.02714 0.4829,2.93832 3.50866,3.42125 3.50866,3.42125 2.63174,0.35039 4.86927,-1.05252 4.16716,-3.59615 C 14.36076,8.84999 11.28992,9.77141 11.28992,9.77141 11.07072,8.63081 13.61566,6.78938 13.26456,4.20004 12.91345,1.61272 10.67662,0.51648 10.67662,0.51648 6.81618,-1.1071 4.00894,1.43651 4.40375,3.45554 4.79785,5.47386 7.03535,5.91026 8.04417,4.59544 9.05371,3.27994 7.51828,2.26912 7.51828,2.26912 8.57079,1.65642 10.01813,2.53342 9.97443,3.98143 9.93071,5.42804 8.7901,5.95537 7.12347,7.35898 5.45625,8.76259 5.58806,11.08762 5.58806,11.08762 c 0.3074,4.91298 7.28169,5.83438 7.28169,5.83438 14.8701,1.18431 17.54552,-1.31621 28.51277,-2.50052 10.96524,-1.18512 15.9663,2.41304 16.49231,5.35077 0.5266,2.93902 -2.14882,3.59744 -2.14882,3.59744 -7.63279,-4.25456 -24.52054,-0.56961 -31.97772,0.9214 -7.4566,1.49103 -10.96664,0.79021 -10.96664,0.79021 0.3511,-1.62421 -0.4392,-4.86986 -4.82556,-5.87935 C 3.56973,18.19373 1.77202,20.21144 1.77202,20.21144 1.2017,19.55234 0.19289,17.97452 0.49889,16.0006 0.8062,14.02596 3.39552,12.79785 5.80736,14.11476 8.21979,15.43028 8.439,18.06262 6.20148,18.23753 3.96454,18.41302 3.08821,16.83452 3.65852,15.95619 c 0.56963,-0.87771 2.32434,0.2629 2.32434,0.2629 -0.3948,-1.53402 -1.93023,-1.97321 -2.80723,-1.228 -0.87772,0.74579 -0.96582,2.80851 1.57982,3.42193 2.54362,0.61402 4.25314,-0.7022 2.93773,-3.11463 -1.31482,-2.41243 -5.83438,-3.11385 -7.238,-0.3503 -1.40228,2.76273 0.87832,5.52626 0.87832,5.52626 -1.40488,1.31552 -2.3256,5.65958 2.49995,7.6765 4.82544,2.01903 16.22989,1.44801 27.85495,-0.61331 11.62434,-2.06273 15.04489,-1.44802 15.04489,-1.44802 -0.1318,2.85163 4.47455,3.55304 4.47455,3.55304 6.22917,0.74523 6.9313,-1.93091 6.9313,-1.93091 0.74521,-2.45472 -1.88652,-3.94647 -1.88652,-3.94647 2.10511,-0.614 4.65006,-5.65887 -2.98275,-9.0364"
               style="fill:#000000;fill-opacity:1;fill-rule:nonzero;stroke:#000000;stroke-width:0.3985;stroke-linecap:butt;stroke-linejoin:miter;stroke-miterlimit:10;stroke-dasharray:none;stroke-opacity:1"
               id="path22" /><path
               d="m 31.39948,3.05592 -1.56272,-1.1215 c 0,0 1.02382,-0.53821 1.54844,-0.93912 0,0 1.12011,0.82852 1.6317,1.07842 0,0 -1.0225,0.55329 -1.61742,0.9822 M 36.25237,2.82033 C 35.46484,3.23492 33.91573,2.21172 33.91573,2.21172 35.20184,1.7281 37.04056,2.40501 36.25237,2.82033 m -7.3691,-0.78891 c 0,0 -0.78822,0.48489 -1.65913,0.42889 -0.87152,-0.0553 -0.99582,-1.36871 1.65913,-0.42889 m 2.89733,11.21043 c 0,0 -2.65494,-1.63791 -2.55584,-4.45604 0.0977,-2.81814 1.34352,-4.42468 2.26082,-5.14518 0,0 2.75255,1.14671 3.11386,3.86796 0.36,2.71971 -0.98352,4.45665 -2.81884,5.73326 m -5.21078,1.34552 c -1.70412,-0.62361 -1.93362,-2.85225 -0.39338,-3.37543 1.54019,-0.52462 2.52302,0.68779 1.93431,1.4746 -0.59079,0.78683 -2.09822,0.16261 -2.09822,0.16261 1.47462,1.90082 3.27714,0.2301 3.08102,-0.94942 -0.19729,-1.17961 -2.16311,-2.06552 -3.60493,-0.81959 -1.44252,1.24582 -0.75411,3.90004 1.70341,3.96554 2.45824,0.0656 4.55577,-1.34411 4.55577,-1.34411 3.14604,0.42618 4.52236,0 4.52236,0 3.37544,-0.75342 3.27714,-3.63785 1.54022,-3.96567 -1.73692,-0.3272 -2.81824,1.37694 -2.12973,2.39264 0.68779,1.01561 1.93301,0.06619 1.93301,0.06619 -1.73701,0.03282 -1.7691,-1.90083 -0.52389,-2.0982 1.24511,-0.196 2.49023,1.73831 0.35991,2.94992 -2.12964,1.21242 -5.27638,0.32721 -5.27638,0.32721 C 32.5995,13.07925 36.17175,10.3916 35.38495,7.4751 34.59944,4.55925 31.6167,3.34624 31.6167,3.34624 32.4035,2.78891 33.64873,2.32991 33.64873,2.32991 35.35284,3.70613 37.58086,3.05112 36.59726,2.13321 35.61514,1.2159 33.38641,1.87221 33.38641,1.87221 32.4035,1.37982 31.38649,0.4611 31.38649,0.4611 c -0.95012,0.91872 -2.06403,1.41111 -2.06403,1.41111 -3.37484,-1.21373 -3.53944,0.71992 -2.26083,0.9167 1.27792,0.1967 2.49023,-0.75409 2.49023,-0.75409 l 1.57304,1.2124 c -2.94926,2.06543 -2.94926,4.94776 -2.94926,4.94776 -0.13119,3.50734 3.08046,5.40818 3.08046,5.40818 -0.95083,0.65571 -2.98214,1.60651 -4.68628,0.98421"
               style="fill:#000000;fill-opacity:1;fill-rule:nonzero;stroke:#000000;stroke-width:0.3985;stroke-linecap:butt;stroke-linejoin:miter;stroke-miterlimit:10;stroke-dasharray:none;stroke-opacity:1"
               id="path24" /><path
               d="m 55.8121,8.86371 c 1.32022,2.26282 0.4091,4.93414 -2.32432,5.08986 -2.73413,0.1584 -4.02236,-2.16724 -3.01694,-3.67536 1.0054,-1.5081 3.51966,-0.06279 3.51966,-0.06279 C 52.85938,8.89581 51.03705,5.91096 52.41945,3.11462 53.80199,0.3184 57.32082,0.6326 58.23134,2.14072 59.14314,3.64813 57.25801,4.77985 56.47252,3.90013 55.6864,3.01973 56.5354,2.23491 56.5354,2.23491 52.38806,3.99373 54.49318,6.60217 55.8121,8.86371 M 55.6864,3.17752 c 0,0 0.25131,1.57022 1.88513,1.38173 1.63382,-0.18781 2.16793,-2.92194 -0.69052,-3.83315 -2.85913,-0.91038 -5.68687,1.3203 -5.78177,3.83315 -0.09359,2.51352 1.16251,3.55032 1.69661,4.43145 0,0 -2.6392,-0.84971 -3.23553,1.31823 -0.5969,2.16862 1.28752,4.55576 4.71288,3.80243 C 57.69724,13.35655 57.72934,9.39781 56.37831,7.5127 55.0266,5.62816 54.11609,4.30794 55.6864,3.17752"
               style="fill:#000000;fill-opacity:1;fill-rule:nonzero;stroke:#000000;stroke-width:0.3985;stroke-linecap:butt;stroke-linejoin:miter;stroke-miterlimit:10;stroke-dasharray:none;stroke-opacity:1"
               id="path26" /></g></g></g></g></g></svg>
