<?xml version="1.0" encoding="UTF-8" standalone="no"?>
<svg
   xmlns:dc="http://purl.org/dc/elements/1.1/"
   xmlns:cc="http://creativecommons.org/ns#"
   xmlns:rdf="http://www.w3.org/1999/02/22-rdf-syntax-ns#"
   xmlns:svg="http://www.w3.org/2000/svg"
   xmlns="http://www.w3.org/2000/svg"
   xmlns:sodipodi="http://sodipodi.sourceforge.net/DTD/sodipodi-0.dtd"
   xmlns:inkscape="http://www.inkscape.org/namespaces/inkscape"
   version="1.1"
   id="svg2"
   xml:space="preserve"
   width="83.333336"
   height="38.599998"
   viewBox="0 0 83.333336 38.599998"
   sodipodi:docname="vectorian108.pdf"><metadata
     id="metadata8"><rdf:RDF><cc:Work
         rdf:about=""><dc:format>image/svg+xml</dc:format><dc:type
           rdf:resource="http://purl.org/dc/dcmitype/StillImage" /></cc:Work></rdf:RDF></metadata><defs
     id="defs6" /><sodipodi:namedview
     pagecolor="#ffffff"
     bordercolor="#666666"
     borderopacity="1"
     objecttolerance="10"
     gridtolerance="10"
     guidetolerance="10"
     inkscape:pageopacity="0"
     inkscape:pageshadow="2"
     inkscape:window-width="640"
     inkscape:window-height="480"
     id="namedview4" /><g
     id="g10"
     inkscape:groupmode="layer"
     inkscape:label="vectorian108"
     transform="matrix(1.3333333,0,0,-1.3333333,0,38.6)"><g
       id="g12"
       transform="translate(72,-43.05)"><g
         id="g14"
         transform="translate(-71.704,43.098)"><g
           id="g16"><g
             id="g18"><path
               d="m 2.06752,4.77765 c 0,0 -1.47742,-1.82231 -1.52664,-2.60983 C 0.4925,1.381 0.83739,1.381 0.83739,1.381 c 0,0 -0.09909,-0.345 -0.39411,-0.1974 C 0.1468,1.3304 -0.29568,1.82422 0.39339,2.90683 1.0833,3.99013 2.06752,4.77765 2.06752,4.77765"
               style="fill:#000000;fill-opacity:1;fill-rule:nonzero;stroke:#000000;stroke-width:0.3985;stroke-linecap:butt;stroke-linejoin:miter;stroke-miterlimit:10;stroke-dasharray:none;stroke-opacity:1"
               id="path20" /><path
               d="m 1.52591,1.773 c 0,0 0.44391,-0.5403 -0.34431,-0.7363 0,0 0.29582,-0.543 0.78822,-0.543 0.49249,0 0.9351,0.4918 0.9351,0.4918 0,0 -1.37901,0.98632 -0.24591,2.41443 0,0 -0.68919,-1.57632 1.18163,-2.60913 0,0 -0.49251,-0.83868 -1.32981,-0.78882 C 1.6741,0.05109 1.1324,0.4937 0.9849,0.9384 0.83739,1.3816 1.52591,1.773 1.52591,1.773"
               style="fill:#000000;fill-opacity:1;fill-rule:nonzero;stroke:#000000;stroke-width:0.3985;stroke-linecap:butt;stroke-linejoin:miter;stroke-miterlimit:10;stroke-dasharray:none;stroke-opacity:1"
               id="path22" /><path
               d="m 3.00323,4.08774 c 0,0 1.92002,2.01832 4.18485,2.31482 2.26422,0.29571 6.74489,-0.3934 9.50221,0.88582 0,0 -0.78749,-1.18232 -3.88975,-1.52652 C 9.69891,5.41766 5.02225,6.10606 3.00323,4.08774"
               style="fill:#000000;fill-opacity:1;fill-rule:nonzero;stroke:#000000;stroke-width:0.3985;stroke-linecap:butt;stroke-linejoin:miter;stroke-miterlimit:10;stroke-dasharray:none;stroke-opacity:1"
               id="path24" /><path
               d="m 3.05243,6.79597 c 0,0 -1.18163,0.14821 -0.93572,1.03413 0.24651,0.8872 1.37832,-0.19672 0.93572,-1.03413 m 0.4651,0.01711 c 0.03211,0.1646 0.0335,0.3531 -0.0225,0.5737 C 3.14803,8.7774 1.62491,8.5192 1.77171,7.53497 1.92,6.55077 3.19994,6.59926 3.19994,6.59926 L 2.90492,6.00916 c 0,0 0.4774,0.22471 0.6044,0.76022 l 0.13391,-0.0219 c 0.49242,-0.09971 1.32912,0 1.32912,0 -0.267,0.1523 -1.09552,0.09769 -1.45482,0.0656"
               style="fill:#000000;fill-opacity:1;fill-rule:nonzero;stroke:#000000;stroke-width:0.3985;stroke-linecap:butt;stroke-linejoin:miter;stroke-miterlimit:10;stroke-dasharray:none;stroke-opacity:1"
               id="path26" /><path
               d="m 5.76056,6.99338 c 0,0 3.59413,2.06752 4.23407,2.55993 0,0 -1.77243,3.59406 2.1174,7.53239 0,0 -1.57571,-0.8859 -2.70893,-2.95405 C 8.2714,12.06413 6.10486,10.09491 3.44653,10.78412 0.78818,11.47403 0,13.39256 0,14.62407 l 1.0833,-0.54091 c 0,0 -0.5908,-0.14819 -0.345,-0.54231 0.2466,-0.39348 1.0833,-1.92003 3.84065,-1.57511 2.75673,0.3449 3.79074,1.96923 4.72655,3.19994 0.93501,1.23152 2.51074,2.65902 3.84065,2.75743 0,0 -1.77312,-1.62491 -2.46233,-3.93974 -0.68919,-2.31264 0.2957,-4.33167 1.32912,-4.47927 1.03412,-0.14749 0.93512,1.13323 -0.24651,0.64 0,0 0.04981,0.44332 0.59153,0.44332 0.54159,0 1.41652,-1.06891 0.1967,-1.77312 -1.28003,-0.73831 -2.16656,0.2466 -2.36335,0.4938 0,0 -2.90483,-1.97053 -4.43075,-2.31472"
               style="fill:#000000;fill-opacity:1;fill-rule:nonzero;stroke:#000000;stroke-width:0.3985;stroke-linecap:butt;stroke-linejoin:miter;stroke-miterlimit:10;stroke-dasharray:none;stroke-opacity:1"
               id="path28" /><path
               d="m 5.02225,13.54085 c 0,0 1.47743,0.5908 2.95404,1.87074 1.47671,1.2807 4.18495,4.08724 7.7298,4.48065 3.54486,0.39411 8.76321,-1.18231 11.17625,-1.13112 2.41182,0.04851 4.57834,0.78753 5.26747,1.08263 0,0 -2.51073,-1.87083 -6.39989,-2.06883 -3.88984,-0.19611 -6.25309,1.87143 -9.55143,1.67401 -3.29894,-0.1967 -4.23406,-1.3291 -5.66217,-2.26352 C 9.10811,16.2497 7.28648,13.93497 5.02225,13.54085"
               style="fill:#000000;fill-opacity:1;fill-rule:nonzero;stroke:#000000;stroke-width:0.3985;stroke-linecap:butt;stroke-linejoin:miter;stroke-miterlimit:10;stroke-dasharray:none;stroke-opacity:1"
               id="path30" /><path
               d="m 33.72563,19.64635 c 0,0 1.1324,-0.49182 0.9849,-1.32982 -0.1482,-0.83603 -1.37843,-1.42754 -1.96983,0.04979 -0.59089,1.47743 0.29569,3.49504 1.92065,3.29835 0,0 -1.03484,-0.29442 -1.32925,-1.52653 -0.29571,-1.23081 0.29441,-2.41243 0.83613,-2.11601 0.5423,0.2944 0.0498,1.3278 -0.4426,1.62422"
               style="fill:#000000;fill-opacity:1;fill-rule:nonzero;stroke:#000000;stroke-width:0.3985;stroke-linecap:butt;stroke-linejoin:miter;stroke-miterlimit:10;stroke-dasharray:none;stroke-opacity:1"
               id="path32" /><path
               d="m 37.02457,20.28635 c 0,0 0.49179,-0.39411 0,-0.93572 -0.49311,-0.541 -1.96984,-0.29509 -2.06824,1.37903 -0.0983,1.67471 0.83672,2.46154 1.52661,2.51073 0,0 -0.98489,-0.49242 -1.0341,-2.26422 -0.0492,-1.77243 1.67343,-1.67405 1.57573,-0.68982"
               style="fill:#000000;fill-opacity:1;fill-rule:nonzero;stroke:#000000;stroke-width:0.3985;stroke-linecap:butt;stroke-linejoin:miter;stroke-miterlimit:10;stroke-dasharray:none;stroke-opacity:1"
               id="path34" /><path
               d="m 38.89468,22.84697 c 0,0 0.83742,-0.19739 0.78822,-0.935 -0.0492,-0.7391 -1.32912,-1.62562 -2.41242,0.196 -1.08332,1.82233 0.83672,3.44725 1.47672,3.24983 0,0 -0.88593,-0.24728 -0.93513,-1.96922 -0.0491,-1.72322 0.73842,-1.96982 1.37842,-1.72322 0.63991,0.24661 0,1.18161 -0.29581,1.18161"
               style="fill:#000000;fill-opacity:1;fill-rule:nonzero;stroke:#000000;stroke-width:0.3985;stroke-linecap:butt;stroke-linejoin:miter;stroke-miterlimit:10;stroke-dasharray:none;stroke-opacity:1"
               id="path36" /><path
               d="m 40.8147,25.01282 c 0,0 0.83664,-0.19672 0.88652,-1.23073 0.04989,-1.03412 -1.37902,-1.03412 -1.96843,0.29501 -0.59151,1.3298 0.44191,3.84136 3.05174,3.00254 0,0 -0.0984,0.1981 -0.4433,0.68989 -0.34419,0.49242 -0.34419,0.73901 -0.34419,0.73901 0,0 1.23071,-0.24659 1.7225,-0.4924 l -0.73759,0.88652 c 0,0 2.51001,-0.19671 2.51001,-1.2806 0,0 0.59152,-0.29513 1.03484,-0.73772 0,0 -0.39342,-0.09902 -0.54162,0 -0.14761,0.0984 -0.49322,0.2466 -0.49322,0.2466 0,0 -0.68909,-0.29651 -0.7376,-0.6899 -0.04989,-0.39482 0.7376,-0.19742 0.7376,0.24519 0,0 0.14763,-0.64001 -0.59009,-0.64001 -0.73903,0 -0.59082,0.93652 0.14691,1.23152 0.739,0.29579 -0.14691,0.88591 -0.88594,1.13251 l 0.34421,-1.13251 c 0,0 -1.03342,0.49179 -1.18091,0.29579 -0.14819,-0.1974 0.54091,-0.78821 0.49181,-1.0341 -0.0485,-0.24661 -1.22951,0.3941 -2.21503,0.34491 -0.985,-0.04991 -1.42822,-1.18163 -1.37842,-2.16724 0.04851,-0.9842 0.7377,-1.5259 1.13253,-1.08331 0.39408,0.44331 -0.54233,1.37903 -0.54233,1.37903"
               style="fill:#000000;fill-opacity:1;fill-rule:nonzero;stroke:#000000;stroke-width:0.3985;stroke-linecap:butt;stroke-linejoin:miter;stroke-miterlimit:10;stroke-dasharray:none;stroke-opacity:1"
               id="path38" /><path
               d="m 47.0186,26.63774 c 0,0 0.8865,-0.63992 1.2806,-1.32843 0.39341,-0.69061 0.29441,-1.08401 1.91932,-2.75743 0,0 0.099,-0.2964 -0.29507,-0.14751 -0.39412,0.14751 -1.72324,2.11673 -2.01835,2.70824 -0.29571,0.5901 -0.5416,1.0825 -0.83741,1.22942 0,0 -0.34421,0.29571 -0.04909,0.29571"
               style="fill:#000000;fill-opacity:1;fill-rule:nonzero;stroke:#000000;stroke-width:0.3985;stroke-linecap:butt;stroke-linejoin:miter;stroke-miterlimit:10;stroke-dasharray:none;stroke-opacity:1"
               id="path40" /><path
               d="m 48.0028,20.43384 c 0,0 -0.9842,0.64071 -0.64,0.83742 0.3449,0.1967 0.78751,-0.34491 0.64,-0.83742 m 2.70814,1.67413 c 0.1476,-0.49249 0.345,-1.1318 -0.0983,-1.37762 -0.44331,-0.2473 -0.98491,-0.19739 -1.37833,0.09829 -0.3941,0.29512 -0.14819,0.49112 0.04911,0.44262 0.1974,-0.0492 0.6885,-0.44262 0.6885,-0.44262 -0.1967,0.88523 -0.6885,0.88523 -1.03342,0.59012 -0.34489,-0.295 -0.24589,-0.49241 0.04851,-0.68841 0.29641,-0.19739 0.59151,-0.59221 0.34491,-0.83811 -0.2458,-0.24519 -0.78752,0.19741 -0.78752,0.19741 0,0 -0.04849,1.03411 -0.8367,1.37831 -0.78752,0.34559 -0.9849,-0.29509 -0.73903,-0.5915 0.24663,-0.2937 0.09902,-0.54022 0.09902,-0.54022 -1.57573,2.01892 -2.51073,1.32912 -2.51073,1.32912 1.52582,-0.1974 2.51073,-1.92131 2.95404,-2.06822 0.4426,-0.14751 0.68921,0.39409 0.68921,0.39409 1.42752,-0.9849 1.87083,0.14691 1.87083,0.14691 0.39409,-0.04849 0.88581,0.1981 1.1816,0.6905 0.29501,0.49112 -0.5417,1.27933 -0.5417,1.27933"
               style="fill:#000000;fill-opacity:1;fill-rule:nonzero;stroke:#000000;stroke-width:0.3985;stroke-linecap:butt;stroke-linejoin:miter;stroke-miterlimit:10;stroke-dasharray:none;stroke-opacity:1"
               id="path42" /><path
               d="m 40.07631,10.83263 c -0.54091,-0.39341 -1.23082,-0.39341 -0.78752,0.34561 0.44331,0.73829 1.52651,0.98421 1.72322,0.98421 0,0 -0.39409,-0.93572 -0.9357,-1.32982 m -1.87013,5.95936 c -0.88652,0.34363 0.39279,1.57433 1.47672,0.29371 0,0 -0.59081,-0.6393 -1.47672,-0.29371 m 2.36264,-0.05119 c 3.79142,2.51143 4.52975,5.56526 4.13565,6.74618 -0.39412,1.18233 -1.91994,1.18233 -2.21503,0.29511 -0.2957,-0.88731 0.73831,-1.62491 0.73831,-1.62491 -1.47734,1.62491 -0.0491,2.01832 0.4433,1.87073 0.49179,-0.14682 1.13182,-0.88582 -0.24652,-3.24846 -1.3784,-2.36324 -3.34822,-3.64383 -3.34822,-3.64383 0,0 -0.44261,0.8373 -1.42752,0.93571 -1.33733,0.13318 -1.66042,-0.99652 -0.68912,-1.42823 0.88582,-0.3934 2.06741,0 2.06741,0 1.42824,-1.0334 0.88662,-4.23406 0.88662,-4.23406 0,0 -1.03409,-0.0984 -1.82161,-0.64 -0.78821,-0.54231 -1.03411,-1.82234 0.2957,-1.57643 1.32922,0.24661 1.82162,1.82163 1.82162,1.82163 0.34432,0.04989 1.82164,-0.09771 1.82164,-0.09771 -0.68982,0.24592 -1.77313,0.49251 -1.77313,0.49251 0.68919,2.55992 -0.6891,4.33176 -0.6891,4.33176"
               style="fill:#000000;fill-opacity:1;fill-rule:nonzero;stroke:#000000;stroke-width:0.3985;stroke-linecap:butt;stroke-linejoin:miter;stroke-miterlimit:10;stroke-dasharray:none;stroke-opacity:1"
               id="path44" /><path
               d="m 45.34447,23.53549 c 0,0 -0.1967,0.19741 0.44261,0.98561 0,0 -0.7383,-0.0991 -0.98421,-0.39341 0,0 0.1482,0.58941 0.68909,1.03341 0.54172,0.44193 1.32992,0.34351 2.11674,-0.88661 0,0 0.0499,-0.2957 -0.2452,-0.19739 0,0 -0.44332,0.29639 -0.54232,-0.04849 -0.0977,-0.34492 -0.196,-0.68913 -0.541,-0.54092 l -0.4931,0.3934 c 0,0 -0.39342,-7e-4 -0.44261,-0.3456"
               style="fill:#000000;fill-opacity:1;fill-rule:nonzero;stroke:#000000;stroke-width:0.3985;stroke-linecap:butt;stroke-linejoin:miter;stroke-miterlimit:10;stroke-dasharray:none;stroke-opacity:1"
               id="path46" /><path
               d="m 44.31035,11.52312 c 0,0 1.87083,-0.39408 2.11673,-0.4924 0.24652,-0.09839 -1.13182,-0.09839 -2.11673,0.4924"
               style="fill:#000000;fill-opacity:1;fill-rule:nonzero;stroke:#000000;stroke-width:0.3985;stroke-linecap:butt;stroke-linejoin:miter;stroke-miterlimit:10;stroke-dasharray:none;stroke-opacity:1"
               id="path48" /><path
               d="m 48.2992,10.78412 c 0,0 1.62425,0.0997 2.16593,-0.0983 0,0 0.83661,-0.3436 2.01834,-1.62432 1.1816,-1.2806 3.00323,-2.70814 3.49564,-3.29964 0.49251,-0.59011 0.19669,-0.54161 0.19669,-0.54161 0,0 -2.3932,2.13853 -3.15073,2.80655 -1.67413,1.4773 -1.77173,2.16862 -3.39664,2.36321 -1.23152,0.14821 -1.32923,0.39411 -1.32923,0.39411"
               style="fill:#000000;fill-opacity:1;fill-rule:nonzero;stroke:#000000;stroke-width:0.3985;stroke-linecap:butt;stroke-linejoin:miter;stroke-miterlimit:10;stroke-dasharray:none;stroke-opacity:1"
               id="path50" /><path
               d="m 56.91492,4.63014 c 0,0 0.39412,-0.24589 0.49241,-0.78761 0,0 -0.19671,0 -0.49241,0.78761"
               style="fill:#000000;fill-opacity:1;fill-rule:nonzero;stroke:#000000;stroke-width:0.3985;stroke-linecap:butt;stroke-linejoin:miter;stroke-miterlimit:10;stroke-dasharray:none;stroke-opacity:1"
               id="path52" /><path
               d="m 58.19484,2.16782 c 0,0 0.68849,-1.08262 0,-1.87012 0,0 -0.93572,-0.09972 -1.52652,0.19668 -0.59082,0.29582 -1.87083,1.13242 -1.67412,2.21575 0,0 0.98491,-1.32983 1.82231,-1.47673 0.83672,-0.1482 1.23012,-0.0997 1.23012,-0.0997 0,0 0.29582,0.2964 0.14821,1.03412"
               style="fill:#000000;fill-opacity:1;fill-rule:nonzero;stroke:#000000;stroke-width:0.3985;stroke-linecap:butt;stroke-linejoin:miter;stroke-miterlimit:10;stroke-dasharray:none;stroke-opacity:1"
               id="path54" /><path
               d="m 54.94571,3.59602 c 0,0 0.29507,0.78752 0.73839,0.49172 C 56.1273,3.79343 55.4867,3.39993 54.94571,3.59602 M 36.23636,9.0615 c 0,0 -0.93572,0.93511 -0.54161,1.77113 0.3941,0.8374 1.82161,-0.29441 0.54161,-1.77113 M 54.69919,3.79343 c 0,0 -0.49251,0.24591 -1.03412,1.32911 -0.5417,1.08193 -2.41173,4.57828 -6.84389,4.62816 -4.43007,0.04852 -7.13828,-2.01831 -10.14222,-0.98489 0,0 0.54231,0.54159 0.2958,1.77241 -0.2466,1.23082 -1.32922,1.18161 -1.57512,0.39341 -0.2465,-0.78681 0.29511,-1.87013 0.64,-2.01833 0,0 -2.70813,-3.05304 -9.40382,-1.47662 0,0 1.27933,1.03342 2.16653,3.05302 0.88591,2.01704 -0.1974,3.24847 -1.08392,2.90355 -0.8859,-0.34489 -1.08261,-1.47601 0.29571,-2.50943 0,0 -1.1318,0.98222 -0.6892,1.91864 0.44331,0.93571 1.47741,0.29579 1.37843,-1.08263 -0.09842,-1.37761 -2.01834,-3.20063 -2.90495,-3.54414 0,0 -1.47672,0.59012 -1.82092,3.19855 -0.3456,2.60913 1.67341,4.53114 2.75733,4.87476 0,0 -1.67473,-0.29441 -2.61055,-2.06753 -0.93501,-1.77243 -0.78749,-4.53047 1.28073,-6.15467 0,0 -2.60913,-1.77242 -7.2373,-0.2459 0,0 2.46164,1.1809 1.67343,4.18553 0,0 0.099,-3.39804 -2.26422,-3.98814 0,0 -1.82234,0.04851 -2.90495,2.65963 -1.08322,2.60923 0.24591,5.41436 2.46163,5.90678 2.21575,0.49322 3.88985,-1.03341 3.64326,-2.51003 -0.24592,-1.47814 -1.23082,-1.42963 -1.23082,-1.42963 0,0 -0.1482,1.18233 -1.28002,1.18233 -1.13242,0 -1.13242,-1.08322 -0.6891,-1.37833 0,0 -0.09911,1.28063 0.6891,0.98421 0.78751,-0.295 1.08333,-0.9337 1.08333,-0.9337 l -0.83742,-0.14891 c 0,0 0.3934,-0.44321 1.87084,-0.0484 1.47731,0.39271 1.9698,3.29754 -0.34423,4.28246 -2.31483,0.98362 -5.56396,0 -6.05638,-3.10294 -0.49179,-3.09954 1.57572,-5.16777 3.24974,-6.05498 1.67343,-0.8866 5.16988,-2.26424 9.15732,0 0,0 1.62492,-1.32982 4.92398,-1.28072 3.29822,0.0499 5.16905,2.51224 5.16905,2.51224 0,0 1.77242,-1.13312 3.74225,-0.88591 1.96924,0.2459 3.88916,1.3776 6.9908,1.3776 3.15483,0 4.62814,-1.32909 5.80977,-3.44713 1.18161,-2.11603 1.57571,-2.36335 2.26493,-2.36335 0,0 0.4432,-0.0484 0.68911,0.39483 0.2466,0.44259 -0.49241,1.4282 -1.27992,0.09909"
               style="fill:#000000;fill-opacity:1;fill-rule:nonzero;stroke:#000000;stroke-width:0.3985;stroke-linecap:butt;stroke-linejoin:miter;stroke-miterlimit:10;stroke-dasharray:none;stroke-opacity:1"
               id="path56" /><path
               d="m 27.52164,16.4956 c 0,0 3.88984,1.3291 5.31736,-1.72332 1.42823,-3.05245 -1.91992,-5.07078 -3.64323,-4.33306 0,0 0.09839,0.19811 0.5416,0.2957 0.44331,0.09771 2.26493,0.73842 2.56003,2.01833 0.3715,1.60922 -0.73842,4.33245 -4.77576,3.74235"
               style="fill:#000000;fill-opacity:1;fill-rule:nonzero;stroke:#000000;stroke-width:0.3985;stroke-linecap:butt;stroke-linejoin:miter;stroke-miterlimit:10;stroke-dasharray:none;stroke-opacity:1"
               id="path58" /></g></g></g></g></g></svg>
