<?xml version="1.0" encoding="UTF-8" standalone="no"?>
<svg
   xmlns:dc="http://purl.org/dc/elements/1.1/"
   xmlns:cc="http://creativecommons.org/ns#"
   xmlns:rdf="http://www.w3.org/1999/02/22-rdf-syntax-ns#"
   xmlns:svg="http://www.w3.org/2000/svg"
   xmlns="http://www.w3.org/2000/svg"
   xmlns:sodipodi="http://sodipodi.sourceforge.net/DTD/sodipodi-0.dtd"
   xmlns:inkscape="http://www.inkscape.org/namespaces/inkscape"
   version="1.1"
   id="svg2"
   xml:space="preserve"
   width="152.42667"
   height="150.66667"
   viewBox="0 0 152.42667 150.66667"
   sodipodi:docname="vectorian042.pdf"><metadata
     id="metadata8"><rdf:RDF><cc:Work
         rdf:about=""><dc:format>image/svg+xml</dc:format><dc:type
           rdf:resource="http://purl.org/dc/dcmitype/StillImage" /></cc:Work></rdf:RDF></metadata><defs
     id="defs6"><clipPath
       clipPathUnits="userSpaceOnUse"
       id="clipPath24"><path
         d="M 0,0 H 111.00142 V 113.00143 H 0 Z"
         id="path22" /></clipPath></defs><sodipodi:namedview
     pagecolor="#ffffff"
     bordercolor="#666666"
     borderopacity="1"
     objecttolerance="10"
     gridtolerance="10"
     guidetolerance="10"
     inkscape:pageopacity="0"
     inkscape:pageshadow="2"
     inkscape:window-width="640"
     inkscape:window-height="480"
     id="namedview4" /><g
     id="g10"
     inkscape:groupmode="layer"
     inkscape:label="vectorian042"
     transform="matrix(1.3333333,0,0,-1.3333333,0,150.66667)"><g
       id="g12"
       transform="translate(72,41)"><g
         id="g14"
         transform="translate(-72,-41)"><g
           id="g16"><g
             id="g18"><g
               id="g20"
               clip-path="url(#clipPath24)"><path
                 d="m 2.91862,107.49596 c 3.90726,0.29921 8.4657,1.85122 14.41779,0.096 2.01283,-0.59363 3.38724,-1.43202 4.34245,-2.35684 -1.38562,-1.00481 -2.36483,-2.21602 -2.91523,-3.45284 -1.12001,-2.50404 -0.0768,-5.02726 2.28323,-5.48326 2.36324,-0.45602 4.56966,1.98081 3.35044,6.17125 -0.1856,0.59682 -0.42881,1.15044 -0.72001,1.66084 2.40483,1.10881 5.79848,1.59522 9.92012,0.81441 -0.03038,-0.088 -0.07199,-0.1776 -0.09598,-0.26561 -1.65603,-6.00006 1.88642,-17.59701 18.39542,-15.88341 1.22083,0.12641 2.39844,0.3264 3.55045,0.56 3.46403,-3.63363 7.30409,-6.69607 13.35856,-7.60487 13.00978,-1.95365 20.02907,6.09286 20.33629,15.38739 0.14078,4.33125 -1.40164,8.13771 -3.93927,10.95696 3.59364,2.1168 7.3393,2.0592 9.02411,0.46879 2.05605,-1.94403 2.74884,-4.47846 2.40645,-9.79213 5.32005,0.2288 7.81929,-0.53761 9.71692,-2.63524 1.66081,-1.83202 1.56802,-5.98888 -1.09761,-9.73612 -2.55204,1.91042 -5.76168,3.07525 -9.37453,3.08164 -9.29772,0.0128 -17.58101,-6.72809 -16.07539,-19.80028 0.64639,-5.60646 3.19844,-9.3889 6.34407,-12.76014 -0.1744,-0.87841 -0.33121,-1.76961 -0.44641,-2.68804 -2.05764,-16.47061 9.45933,-20.25625 15.49139,-18.72503 0.0672,0.0176 0.14241,0.048 0.2128,0.0688 1.16642,-5.00006 0.58402,-9.04973 -0.7824,-11.76175 -0.50239,0.30879 -1.04641,0.5728 -1.63681,0.7776 -4.14567,1.36322 -6.6593,-0.76321 -6.28327,-3.13762 0.37757,-2.37605 2.86082,-3.50566 5.40646,-2.47204 1.2512,0.51039 2.49443,1.4448 3.54724,2.79683 0.8912,-0.98722 1.68161,-2.39364 2.20483,-4.42406 1.55042,-6.00807 -0.15521,-10.50893 -0.58882,-14.40019 -0.44,-3.95042 2.01283,-3.5008 2.47363,-1.22882 0.39682,1.96324 2.07203,15.1314 -3.55204,20.80348 1.69124,2.59362 2.71364,6.44647 2.07522,11.63855 -0.11679,0.92801 -0.30719,1.81122 -0.54719,2.66403 2.97282,2.29444 5.64166,7.11211 3.36802,12.83537 -2.93283,7.37288 -10.88653,6.74089 -12.85456,2.89763 -0.30719,-0.5984 -0.4496,-1.18561 -0.5264,-1.74884 -1.88323,1.86404 -3.97766,3.89448 -6.23848,6.19049 0.3824,2.43843 1.10242,4.84007 2.08804,7.1633 1.36641,-1.41122 3.26564,-2.52803 5.79846,-3.17764 6.87531,-1.75682 15.4498,3.81605 15.96981,12.33296 0.27682,4.50566 -1.47522,8.74731 -4.54726,11.75696 5.17287,5.84007 3.97604,11.51214 1.45923,13.87218 -3.35846,3.15203 -9.49935,1.60801 -9.49935,1.60801 0,0 1.28162,6.27847 -1.656,9.82413 -2.38564,2.88162 -7.70731,3.92485 -13.45137,-0.76801 -2.76325,2.29923 -6.3201,3.61444 -10.10414,3.51204 -8.52971,-0.22719 -14.39698,-8.60811 -12.87217,-15.5394 0.42881,-1.95843 1.16962,-3.52324 2.09443,-4.80006 -2.30562,-0.9904 -4.69126,-1.72642 -7.11368,-2.13762 -2.21124,2.35842 -4.15846,4.51686 -5.96489,6.45288 0.24641,0.0768 0.48962,0.13599 0.73921,0.25919 3.88486,1.88324 4.68326,9.82414 -2.62564,12.90898 -5.62726,2.37125 -10.46094,-0.12801 -12.84016,-3.01924 -0.2656,0.0528 -0.5232,0.11841 -0.7952,0.16321 -5.16486,0.81439 -9.05132,-0.072 -11.69775,-1.67524 -5.47688,5.81768 -18.69944,4.59366 -20.67388,4.26247 -2.28639,-0.37761 -2.8208,-2.81924 1.14082,-2.51205 z m 97.27005,-84.47628 c -1.2656,-2.04322 -3.00483,-3.11204 -4.63527,-2.97604 -2.51522,0.216 -1.9392,3.49765 0.01761,3.83044 0.63521,0.10722 2.65764,0.34563 4.61766,-0.8544 z M 90.01895,65.19623 c 3.12962,6.77449 8.4129,12.82416 13.81456,17.11221 0.46883,0.36961 0.89441,0.74402 1.30884,1.11841 2.08643,-2.01762 3.50723,-4.71045 3.82243,-7.88329 0.13282,-1.37921 0.0384,-2.69285 -0.21121,-3.93286 -0.5504,-1.79362 -1.78241,-4.25604 -4.36163,-3.79844 -2.37603,0.65121 -1.52804,2.11042 -3.12645,2.16482 -1.59682,0.05602 -2.04482,-3.01442 0.41121,-4.70083 0.92799,-0.63363 2.26721,-0.71365 3.55525,-0.16002 -2.94724,-2.85605 -7.1729,-4.10567 -11.12335,-2.70565 -1.87525,0.66404 -3.18885,1.65602 -4.08965,2.78565 z M 102.6623,39.6775 c -1.1168,2.36641 -2.74082,4.55205 -4.79685,6.8321 1.37121,0.7952 1.71042,2.8592 0.72801,4.02244 -1.22722,1.45441 -3.07686,0.35201 -3.07686,0.35201 0,0 0.0816,3.99524 5.4865,2.79841 6.06086,-1.7536 6.62088,-10.83851 1.6592,-14.00496 z M 87.19331,54.54329 c 0.02239,0.392 0.07359,0.77919 0.11521,1.16961 2.06721,-2.07362 4.30084,-4.06405 6.40327,-6.28808 0.28001,-1.76802 1.49764,-3.05763 2.72482,-3.20644 1.26403,-1.67361 2.41124,-3.51045 3.32486,-5.64648 0.264,-0.61441 0.48319,-1.21442 0.69761,-1.81122 C 93.3774,37.17825 86.5661,43.70474 87.19331,54.54329 Z m 16.54102,30.06758 c -2.96484,-3.04004 -9.98094,-9.09772 -14.4274,-18.33462 -1.73603,3.14244 -0.92801,6.84648 -0.1344,7.73609 1.19043,1.33281 2.20323,2.05924 4.33606,1.98403 1.37602,0.03041 2.11524,1.60483 0.392,2.49922 -1.72481,0.90242 -6.50247,-0.76482 -7.04167,-5.24165 -0.35362,-2.94086 0.18878,-5.83689 1.89921,-8.13771 -0.95681,-2.15843 -1.75201,-4.49125 -2.33443,-6.9809 -8.1697,9.01292 -6.92649,23.77153 2.24163,27.78437 5.44327,2.38241 11.09933,1.57441 15.069,-1.30883 z m -54.98153,14.069 c 0,0 1.14245,1.82721 -0.28478,3.08483 -0.92963,0.8176 -2.47684,0.7744 -3.46565,0.0112 -2.28484,2.05123 -4.54247,3.60964 -7.0897,4.60964 3.44805,4.54086 12.16657,3.68486 13.75699,-2.27681 1.08321,-5.42886 -2.91686,-5.42886 -2.91686,-5.42886 z m 33.14285,9.35852 c -0.51841,-0.52322 -1.03203,-1.08003 -1.55044,-1.70244 -4.24963,-5.12806 -10.13772,-10.11532 -16.69781,-13.14096 -0.6544,0.82242 -1.21921,1.83043 -1.62082,3.10405 -1.26562,3.99524 0.12482,8.17128 3.08324,11.02254 -0.5936,-1.27043 -0.56479,-2.60803 0.0384,-3.55687 1.60163,-2.51523 4.68647,-2.16961 4.68647,-0.57278 0,1.60002 -1.48642,0.8016 -2.05764,3.20002 -0.3712,2.59044 2.13123,3.73766 3.94246,4.22885 1.24961,0.208 2.56482,0.25922 3.93926,0.0752 2.40323,-0.32001 4.50564,-1.27522 6.23688,-2.65762 z M 56.6169,89.62215 c 2.43525,0.56959 4.73128,1.34721 6.8529,2.27681 2.34883,-2.56482 5.68808,-3.51043 9.14412,-3.21604 4.49286,0.3824 6.32168,5.10247 5.48328,6.8561 -0.83681,1.75041 -2.43685,1.06561 -2.51204,-0.30402 0,-2.1296 -0.76161,-3.12642 -2.13283,-4.26564 -1.04962,-0.87361 -5.79367,-1.64644 -9.02251,1.37601 9.30091,4.36006 15.44181,11.30574 18.42904,14.04658 0.136,0.12801 0.28799,0.22241 0.43039,0.34241 3.77125,-4.07686 4.96489,-10.58572 2.04483,-16.68022 -4.41925,-9.21611 -19.76824,-9.81932 -28.41156,-0.7616 -0.10561,0.11199 -0.2016,0.21759 -0.30562,0.32961 z m -19.81945,14.48498 c 1.16002,-0.37761 2.35204,-0.82723 3.59365,-1.40802 1.38402,-0.64801 2.62405,-1.39683 3.78245,-2.20164 -0.04799,-0.18079 -0.09919,-0.3584 -0.1024,-0.55999 -0.04001,-1.57763 1.93923,-3.29446 4.44806,-3.07684 2.11842,-2.07843 3.98564,-4.29767 5.90088,-6.39688 -0.72482,-0.09122 -1.45282,-0.15361 -2.18083,-0.18082 -10.91054,-0.39999 -17.30902,6.62568 -15.48339,13.71059 0.01119,0.04 0.03038,0.072 0.04158,0.1136 z m -13.93296,-0.37761 c 1.13279,-2.00322 0.82721,-4.01765 0.6976,-4.64966 -0.40161,-1.94082 -3.69766,-2.40643 -3.82726,0.11519 -0.08641,1.63685 1.04644,3.33605 3.12966,4.53447 z"
                 style="fill:#000000;fill-opacity:1;fill-rule:nonzero;stroke:#000000;stroke-width:0.3985;stroke-linecap:butt;stroke-linejoin:miter;stroke-miterlimit:10;stroke-dasharray:none;stroke-opacity:1"
                 id="path26" /></g></g></g></g></g></g></svg>
