<?xml version="1.0" encoding="UTF-8" standalone="no"?>
<svg
   xmlns:dc="http://purl.org/dc/elements/1.1/"
   xmlns:cc="http://creativecommons.org/ns#"
   xmlns:rdf="http://www.w3.org/1999/02/22-rdf-syntax-ns#"
   xmlns:svg="http://www.w3.org/2000/svg"
   xmlns="http://www.w3.org/2000/svg"
   xmlns:sodipodi="http://sodipodi.sourceforge.net/DTD/sodipodi-0.dtd"
   xmlns:inkscape="http://www.inkscape.org/namespaces/inkscape"
   version="1.1"
   id="svg2"
   xml:space="preserve"
   width="138.66844"
   height="138.66844"
   viewBox="0 0 138.66844 138.66844"
   sodipodi:docname="vectorian038.pdf"><metadata
     id="metadata8"><rdf:RDF><cc:Work
         rdf:about=""><dc:format>image/svg+xml</dc:format><dc:type
           rdf:resource="http://purl.org/dc/dcmitype/StillImage" /></cc:Work></rdf:RDF></metadata><defs
     id="defs6"><clipPath
       clipPathUnits="userSpaceOnUse"
       id="clipPath24"><path
         d="M 0,0 H 104.00133 V 104.00133 H 0 Z"
         id="path22" /></clipPath><clipPath
       clipPathUnits="userSpaceOnUse"
       id="clipPath30"><path
         d="M 0,-0.2523 H 109.5367 V 105.03914 H 0 Z"
         id="path28" /></clipPath></defs><sodipodi:namedview
     pagecolor="#ffffff"
     bordercolor="#666666"
     borderopacity="1"
     objecttolerance="10"
     gridtolerance="10"
     guidetolerance="10"
     inkscape:pageopacity="0"
     inkscape:pageshadow="2"
     inkscape:window-width="640"
     inkscape:window-height="480"
     id="namedview4" /><g
     id="g10"
     inkscape:groupmode="layer"
     inkscape:label="vectorian038"
     transform="matrix(1.3333333,0,0,-1.3333333,0,138.66844)"><g
       id="g12"
       transform="translate(72,32)"><g
         id="g14"
         transform="translate(-72,-32)"><g
           id="g16"><g
             id="g18"><g
               id="g20"
               clip-path="url(#clipPath24)"><g
                 id="g26"
                 clip-path="url(#clipPath30)"><path
                   d="m -3.8e-4,102.54051 c 0,-1.13121 1.11998,-1.44482 4.95685,-0.91203 2.77603,0.38562 5.22085,0.16962 6.92007,-0.11519 3.71684,-0.77281 6.43529,-2.23682 8.3217,-4.04965 -2.33923,-1.97124 -3.90246,-4.34726 -4.28966,-7.0945 -0.3936,-2.57283 1.36802,-5.94087 4.21447,-5.81927 0.4608,-0.0192 0.92959,0.03041 1.39842,0.21922 0.47519,0.192 0.9248,0.49919 1.336,0.89119 0.0912,0.0656 0.17923,0.1152 0.26883,0.19042 -0.04161,-0.0128 -0.07202,-0.02242 -0.11682,-0.03521 0.96802,1.00801 1.65443,2.54564 1.65443,4.44806 0,0.504 -0.04961,1.03842 -0.15361,1.59363 -0.15361,0.80319 -0.6816,2.79042 -2.25443,4.87204 0.5264,0.40161 1.12162,0.80002 1.77121,1.19523 2.86084,1.31202 9.22094,3.61925 17.79224,3.05283 5.53608,-0.368 11.94894,-1.79681 18.57465,-4.35524 2.66722,-1.05602 5.34085,-2.25285 7.96168,-3.60326 0.18881,-0.09759 0.37122,-0.192 0.55843,-0.28961 0.23839,-0.12799 0.472,-0.2608 0.7088,-0.38879 C 68.39246,90.47954 67.55887,88.33391 67.29004,85.9355 67.25645,85.64108 67.26125,85.35788 67.23726,85.06668 62.1364,87.1131 56.1107,87.0891 52.33946,83.76266 47.54579,79.5402 47.08499,70.38649 52.28825,63.03441 56.56512,56.3559 64.242,50.24223 72.50772,49.39903 c 7.02251,-0.71523 11.71535,1.52481 14.7538,4.12966 7.29608,-5.8129 15.92661,-13.20017 15.32818,-25.14594 -0.17118,-3.43685 -1.04481,-5.87367 -2.27523,-7.57451 -2.39684,2.55686 -5.51847,3.93446 -9.11371,3.74886 -6.90567,-0.36002 -7.91211,-10.43373 3.30244,-8.77931 2.32644,0.34239 4.26566,1.39523 5.83689,2.91044 2.75363,-4.18565 1.43841,-10.64816 1.2928,-13.86578 -0.17279,-3.82567 0.79841,-5.07364 2.26083,-4.78247 0.43521,0.08642 2.08483,0.69282 1.30562,8.60492 -0.44641,4.50085 -1.83524,8.2673 -3.91366,11.01294 5.06726,6.16488 4.86088,18.13783 -2.26241,26.63394 -3.15366,3.76485 -6.33609,6.81129 -9.39533,9.47212 0.7248,0.86562 1.37603,1.89124 1.90244,3.09285 0.03679,0.07199 0.06718,0.12959 0.09918,0.1984 0.98401,1.84803 1.84163,4.55045 1.74244,8.02249 13.50576,-0.70079 16.165,17.41143 4.72483,27.80036 -7.89288,7.1729 -19.36184,6.27848 -25.87552,0.4272 -6.03688,3.48325 -13.40176,6.3265 -22.22909,7.84492 -10.71373,1.88801 -22.40668,-0.13759 -28.96196,-5.01928 -0.71042,0.70723 -1.56642,1.39362 -2.58403,2.02724 0.056,-0.0224 0.1024,-0.032 0.1616,-0.0528 -3.04484,2.34881 -9.43533,3.89283 -12.99856,3.80323 -3.56485,-0.0816 -5.60965,-0.2368 -5.60965,-1.36801 z M 99.44887,19.80185 C 95.56882,15.8914 89.41515,17.47382 88.59111,18.99384 c -1.73599,3.21603 5.43529,4.77925 9.74094,1.78082 0.4192,-0.2944 0.78242,-0.62561 1.11682,-0.97281 z M 80.41022,85.28589 c 1.76802,-1.43363 3.34565,-2.89444 4.70886,-4.37605 0.03041,-0.032 0.06081,-0.06722 0.0928,-0.09922 0.6288,-0.6896 1.20322,-1.37921 1.74404,-2.07681 0.11039,-0.14082 0.2128,-0.2816 0.32319,-0.42561 2.28482,-3.05284 3.71206,-6.15369 4.18885,-9.23374 0.01919,-0.11679 0.01919,-0.22557 0.0352,-0.34239 C 81.32544,70.20569 78.47578,80.1114 80.41022,85.28589 Z M 77.99579,66.09363 c -0.0544,-0.15039 -0.12642,-0.28481 -0.1888,-0.4288 -3.95366,3.62886 -7.00009,7.44171 -8.42891,12.88177 -0.34881,1.32481 -0.5104,2.57762 -0.5984,3.79526 1.168,-0.66402 2.33602,-1.44963 3.48964,-2.37766 6.16808,-4.94885 6.93928,-10.56334 5.72647,-13.87057 z m 5.81608,-9.80171 C 84.62306,55.6263 85.49028,54.9367 86.3783,54.23428 86.22308,54.12389 86.0903,53.99907 85.9271,53.89668 85.08868,53.36227 84.19107,52.92067 83.25827,52.56226 73.19572,49.46301 65.07562,55.2663 60.83398,59.24234 55.5555,64.1992 50.82904,70.5833 51.25304,76.52417 c 0.23842,3.37924 1.69442,5.33447 3.19845,6.47049 1.07681,0.71201 2.28803,1.2608 3.62725,1.54082 2.81604,0.59041 5.93127,0.0944 9.0849,-1.36643 0.0816,-7.79368 4.16166,-14.43377 8.97612,-19.71864 -0.424,-0.33601 -0.8928,-0.59842 -1.39362,-0.76481 -1.15361,-0.224 -2.72804,-0.16961 -4.78085,0.79841 -5.11527,2.41603 -5.54247,8.99852 -8.15052,9.25932 -2.60962,0.26241 -0.19677,-7.10731 6.8465,-10.36813 3.82884,-1.77284 6.55048,-1.25122 8.30731,0.19359 2.27522,-2.39205 4.66565,-4.49926 6.84329,-6.27687 z m 9.4545,12.32334 c -0.15678,1.45763 -0.46879,3.02245 -1.0224,4.71528 -1.43361,4.37445 -4.71046,9.60331 -9.90413,14.51217 0.39681,0.25121 0.81762,0.44962 1.29763,0.52962 6.25767,1.04161 8.51849,-7.04329 9.47533,-9.39213 0.9552,-2.34562 3.56484,-2.69602 3.47683,0 -0.0864,2.69604 -3.99686,11.73776 -12.51855,11.04334 -1.11043,-0.0912 -2.07204,-0.4944 -2.89446,-1.12001 -2.20162,1.95523 -4.69604,3.84644 -7.53929,5.59047 4.61287,3.72805 11.78575,4.37767 18.69304,0.4848 12.37295,-6.97769 12.68336,-26.31553 0.936,-26.36354 z m -24.5283,15.78582 c 0.1264,2.77603 0.94241,5.19044 2.25763,7.18087 2.75363,-1.568 5.48166,-3.34402 8.1441,-5.32965 -2.68645,-5.78248 0.08641,-16.41302 11.62576,-18.83384 0.30561,-0.064 0.5952,-0.10561 0.89121,-0.15041 0.36641,-4.44163 -0.5856,-8.11211 -2.82884,-10.82255 -3.66245,3.13285 -7.12809,5.74888 -10.12174,8.39532 0.52002,1.08643 0.78081,2.27362 0.78081,3.33765 0.17921,2.34082 -0.42879,5.17926 -2.32802,8.04489 -0.88962,1.65443 -2.37283,3.75206 -4.91206,5.88968 -1.04802,0.88162 -2.23683,1.64962 -3.50885,2.28804 z M 23.6175,90.25075 c 0,-2.31523 -1.14402,-3.97605 -2.48325,-4.51207 -1.14881,-0.4608 -2.25922,-0.0336 -3.04642,1.17764 -0.41762,0.64 -0.62561,1.4144 -0.62561,2.26242 0,0.80321 0.18719,1.67362 0.5616,2.55524 0.34239,0.8096 1.30241,2.53123 3.42725,4.35844 1.0512,-1.39522 1.7456,-2.90243 2.03203,-4.42566 0.09278,-0.496 0.1344,-0.9664 0.1344,-1.41601 z"
                   style="fill:#000000;fill-opacity:1;fill-rule:nonzero;stroke:#000000;stroke-width:0.3985;stroke-linecap:butt;stroke-linejoin:miter;stroke-miterlimit:10;stroke-dasharray:none;stroke-opacity:1"
                   id="path32" /></g></g></g></g></g></g></g></svg>
