<?xml version="1.0" encoding="UTF-8" standalone="no"?>
<svg
   xmlns:dc="http://purl.org/dc/elements/1.1/"
   xmlns:cc="http://creativecommons.org/ns#"
   xmlns:rdf="http://www.w3.org/1999/02/22-rdf-syntax-ns#"
   xmlns:svg="http://www.w3.org/2000/svg"
   xmlns="http://www.w3.org/2000/svg"
   xmlns:sodipodi="http://sodipodi.sourceforge.net/DTD/sodipodi-0.dtd"
   xmlns:inkscape="http://www.inkscape.org/namespaces/inkscape"
   version="1.1"
   id="svg2"
   xml:space="preserve"
   width="62.746666"
   height="41.053333"
   viewBox="0 0 62.746666 41.053333"
   sodipodi:docname="vectorian160.pdf"><metadata
     id="metadata8"><rdf:RDF><cc:Work
         rdf:about=""><dc:format>image/svg+xml</dc:format><dc:type
           rdf:resource="http://purl.org/dc/dcmitype/StillImage" /></cc:Work></rdf:RDF></metadata><defs
     id="defs6" /><sodipodi:namedview
     pagecolor="#ffffff"
     bordercolor="#666666"
     borderopacity="1"
     objecttolerance="10"
     gridtolerance="10"
     guidetolerance="10"
     inkscape:pageopacity="0"
     inkscape:pageshadow="2"
     inkscape:window-width="640"
     inkscape:window-height="480"
     id="namedview4" /><g
     id="g10"
     inkscape:groupmode="layer"
     inkscape:label="vectorian160"
     transform="matrix(1.3333333,0,0,-1.3333333,0,41.053333)"><g
       id="g12"
       transform="translate(72,-41.205)"><g
         id="g14"
         transform="translate(-71.432,41.722)"><g
           id="g16"><g
             id="g18"><path
               d="m 32.73811,29.83597 c 0,0 0.59149,0.44261 1.08389,-0.1967 0,0 0.49183,0.24589 1.13254,0.1967 0,0 -0.83671,-0.14821 -0.98492,-0.5416 0,0 0.5908,-0.44262 0.14821,-0.68922 -0.44402,-0.2452 -1.13312,0.4918 -0.49253,0.83742 0,0 -0.49378,0.5908 -0.88719,0.3934"
               style="fill:#000000;fill-opacity:1;fill-rule:nonzero;stroke:#000000;stroke-width:0.3985;stroke-linecap:butt;stroke-linejoin:miter;stroke-miterlimit:10;stroke-dasharray:none;stroke-opacity:1"
               id="path20" /><path
               d="m 17.0081,13.29256 c 0,0 -1.62562,1.10852 -4.13705,1.69862 0,0 1.40422,0.14821 2.58594,0.5184 1.18162,0.36882 2.58525,1.55052 2.95402,1.62422 l 0.66461,-1.1078 c 0,0 -1.18161,-0.59082 -2.06752,-2.73344 m 8.34581,9.60122 c 0.9597,-0.5908 2.14134,-1.40362 1.91863,-3.91375 -0.2213,-2.51143 -0.5163,-3.76685 -1.10723,-4.13565 0,0 -0.2957,-0.14762 -0.8114,0.1468 -0.5184,0.29581 -4.43207,2.28882 -6.27829,-0.5901 0,0 0.44463,0.22128 1.25533,0.73831 0.81212,0.51639 2.56685,0.46789 5.09535,-0.59151 3.17676,-1.32913 7.01671,-6.05429 11.96385,-3.17465 0,0 0.29572,-1.2554 -0.88589,-1.92003 -1.18161,-0.6652 -3.61867,-0.37019 -5.53798,0.81152 0,0 -0.44461,0.1482 -0.8127,0.1482 0,0 1.25529,-0.95972 2.36324,-1.32991 1.1078,-0.36882 2.21501,-0.66381 3.98744,-0.073 0,0 -0.2964,-1.77254 -1.99303,-1.55183 -1.69934,0.2219 -3.02853,0.3701 -5.76057,3.02844 -2.73354,2.65973 -4.06266,3.32294 -4.06266,3.32294 0,0 1.10723,-0.73771 2.43773,-3.61796 1.32912,-2.87962 3.24845,-4.72584 5.75986,-4.57965 0,0 -1.47672,-0.6632 -3.39734,0.0737 -1.9193,0.73911 -2.28882,1.77253 -3.39664,4.50595 -1.10791,2.73205 -1.99311,4.35628 -3.76684,4.35628 0,0 1.40363,-0.22059 2.21503,-1.77174 l -0.51641,0.29571 0.1489,-0.44389 c 0,0 -1.99512,2.21642 -4.43215,1.84622 0,0 3.10233,0.22258 4.50526,-3.91376 l -0.4433,0.29642 -0.0737,-0.37022 c 0,0 -1.91933,0.95971 -1.91933,2.21504 0,0 -0.666,1.32991 -2.88105,1.32991 0,0 -0.88578,-1.25543 0,-2.28954 0,0 -1.25531,-0.44261 -1.25531,0.51711 0,0 -0.59091,0.14821 -0.07451,1.55042 0.51774,1.40362 1.55182,2.14264 2.14194,2.36324 0.59081,0.222 3.61934,0.961 4.87407,0.73902 0,0 -0.22133,-0.51702 0.36949,-0.95962 0,0 -0.4439,1.92062 0.4426,2.95403 0,0 -1.47601,0.29509 -0.6639,1.91933 0,0 -1.034,-1.10783 -0.0744,-2.06755 0,0 0.14751,-1.47801 -0.22131,-1.47801 h -2.28952 l -2.43703,-0.8114 c 0,0 -0.81212,0.6652 -0.81212,1.55041 0,0.88722 0.73842,1.92064 1.03342,2.28954 0,0 -0.36879,0.22189 -0.59012,-0.2206 -0.2213,-0.44401 -0.73829,-2.14205 -1.99442,-2.95415 -1.25541,-0.8128 -3.10163,-1.1078 -4.50585,-1.62422 -1.40163,-0.5184 -2.14063,-0.2964 -2.14063,-0.2964 l -0.517,-0.3688 c 0,0 1.03402,0.22131 2.88024,-0.2965 1.84622,-0.51631 4.06265,-1.84622 4.06265,-1.84622 0,0 -0.44401,-1.54974 2.36394,-1.99304 l 0.36749,-0.88721 c 0,0 -2.58462,0.59151 -4.50526,-1.69801 0,0 0.14821,-0.29512 -0.95961,0.2958 -1.10721,0.59081 -2.06752,1.91921 -3.02784,3.39734 0,0 -0.95971,0.1475 -1.18161,-0.07451 -0.22061,-0.222 0.66451,-1.55043 0.66451,-1.55043 0,0 -0.14751,-1.7724 -0.88512,-2.58522 C 9.25299,6.79358 7.55507,4.28343 7.2593,3.24863 c 0,0 -1.25533,-0.36881 -2.43766,0.0738 0,0 0.73901,0.81281 1.55183,2.43773 0.81141,1.62421 0.88583,3.02784 1.55042,4.43144 0.6653,1.40224 0.739,3.76616 1.84624,4.28258 0,0 -0.51714,0.14818 -0.95963,0.0737 -0.44331,-0.0737 -0.44331,-0.73832 -0.88661,-0.73832 0,0 -0.2944,0.1482 -0.81282,-0.81141 0,0 -0.44191,0 -0.7376,-1.03411 0,0 -0.22271,0.1468 -0.22271,0.51701 l -0.4426,-0.66451 c 0,0 0.36881,4.06186 5.24426,4.57826 0,0 1.18091,0.739 2.95404,1.5511 1.77244,0.81211 2.80584,0.73841 4.35765,3.47047 0,0 0.95903,1.5518 2.95275,1.69871 0,0 0.29642,-1.10791 1.03412,-1.2547 0.73971,-0.14822 2.28882,-0.0738 2.21571,1.10779 0,0 -0.07381,0.51642 0.88722,-0.07439 m 3.76555,-2.14204 c 0,0 -0.22201,-1.91991 0.36879,-2.28941 0,0 -1.0334,-1.18233 -0.07379,-3.61795 0,0 -0.8114,-0.66462 -0.8114,-1.62563 l -1.92063,1.18233 c 0,0 2.21502,4.20945 0.59011,6.57267 0,0 1.25612,0.36951 1.84692,-0.22201 m 0.81282,-3.02713 c 0,0 1.1099,-1.14681 3.24972,-1.32981 2.58465,-0.222 3.32226,1.69872 3.32226,1.69872 0,0 0.8128,-2.51083 1.62561,-3.54564 0,0 -0.73972,0 -0.81281,-0.44261 -0.0738,-0.44261 -0.739,-1.77171 -0.44259,-2.36324 0,0 -0.51773,-0.2957 -0.81281,-0.51701 -0.29501,-0.22198 -2.43704,-1.32921 -6.8678,1.40294 0,0 0.2206,1.84622 0.73842,2.14261 0,0 0.29498,-0.07381 1.034,-0.29639 0.73772,-0.22061 1.03342,-0.73912 2.28883,-0.44261 1.25612,0.29572 2.58525,0.66519 2.58525,0.66519 0,0 -2.36323,-0.22258 -2.95477,-0.29568 -0.58937,-0.07379 -1.91931,0.36949 -2.58382,0.66461 -0.666,0.2957 -0.81352,1.5511 -0.36949,2.65892 M 32.44301,5.90765 c -2.51073,0.81212 -4.13635,2.88035 -4.94776,5.16979 0,0 1.10781,-1.10712 2.28942,-2.14124 1.18161,-1.03482 3.61865,-2.95474 5.53798,-1.84692 0,0 -0.89612,-1.82292 -2.87964,-1.18163 m -7.68061,6.13079 c 0,0 1.47742,-1.99442 1.69944,-3.76685 0,0 -1.62633,2.80585 -1.69944,3.76685 m 1.32921,-3.76685 c 0,0 -0.66531,-0.0744 -1.4774,2.95343 0,0 1.40291,-2.36332 1.4774,-2.95343 M 24.02339,7.16377 c 0,0 -0.29499,-0.07449 -0.29499,0.51631 0,0.59151 -0.14832,1.99512 -0.51711,2.06752 0,0 0.36879,0.22272 0.8121,-0.1468 0.4433,-0.3702 1.77184,-1.84622 2.65904,-2.14262 0,0 -1.47673,-0.4426 -2.65904,-0.29441 M 7.92389,3.76643 c 0,0 0.6653,1.25602 1.69871,2.36322 1.03342,1.10782 1.62484,2.14194 1.69933,3.91437 0,0 1.1078,-2.06885 3.39665,-2.43764 0,0 -0.44331,-0.36891 -1.40292,-0.66462 C 12.35535,6.64735 10.06651,4.72604 8.219,3.61813 Z m 13.36748,3.17533 h -1.99384 c -0.59212,0 -1.69933,-0.29441 -2.80713,-2.06751 -1.10792,-1.77241 -3.02655,-1.47732 -3.02655,-1.47732 0,0 -2.65964,-1.40302 -4.43145,-1.40302 0,0 -0.8134,-0.2957 -1.62552,-0.73901 -0.81151,-0.4426 -1.47742,-1.47728 -3.84066,0.51712 0,0 -1.32852,0.517 -1.7711,0.517 -0.44462,0 -1.25604,0.4433 -0.22262,0.5164 0,0 -0.222,0.37021 -0.5164,0.37021 -0.2951,0 -0.6653,0.36951 -0.1482,0.36951 0.3231,0 0.5867,-0.02871 0.7417,-0.0506 C 1.3437,3.54922 0.65378,3.70154 0.53908,3.98775 0.3908,4.35722 1.42491,4.28343 2.0171,4.13524 2.60652,3.98775 4.01013,2.95361 5.63435,2.87982 c 1.62495,-0.0744 2.51152,-0.0744 5.31807,2.06893 2.80585,2.14053 3.84066,2.36323 3.84066,2.36323 0,0 0.95961,0.5894 1.40292,0.95961 0.44261,0.36821 1.54971,1.40361 3.76544,1.10721 0,0 0.66602,-2.06682 1.32993,-2.43704 M 0.9079,1.0336 c 0,0 0.0738,0.0738 0.51701,0.2958 L 2.08951,1.55072 3.12431,1.4031 3.41862,1.0336 Z m 5.53927,9.82324 c 0,0 -0.14749,0.8114 0.51711,0.8114 0.66521,0 0.8128,1.55051 0.8128,1.55051 l 0.59011,0.07381 c 0,0 -0.81212,-1.99314 -1.47672,-4.06196 C 6.22516,7.16377 4.67474,3.69263 4.67474,3.69263 Z m 13.44057,14.99098 c 0,0 1.32912,1.32982 1.77312,1.91932 0,0 0.22261,0 0.59012,-0.2206 0.36949,-0.222 0.96031,0 1.77241,-0.96101 0,0 0.22201,0 0.22201,-0.51641 0,-0.51701 0.14748,-1.69872 -0.81352,-2.06753 0,0 -0.29438,-0.73902 -0.81141,-0.73902 -0.517,0 -1.10719,0.73902 -1.10719,0.73902 0,0 -1.40424,0.66459 -1.62554,1.84623 m -0.44261,0.36879 c 0,0 -0.22199,0.73912 0.14752,1.69873 0.36879,0.96102 1.10791,1.47803 1.84621,1.18161 0,0 -0.59081,-0.5908 0,-0.5908 0,0 0.37021,0 0.37021,0.5908 0,0 1.91933,0.37021 2.65762,-0.5908 0.73901,-0.95961 0.44261,-2.14133 0,-1.84622 -0.4433,0.2958 -1.03481,0.88661 -1.77242,1.03412 -0.73841,0.1475 -1.03341,0.44328 -1.03341,0.44328 0,0 -1.18161,-1.4774 -2.21573,-1.92072 m 4.87405,-2.43701 c 0,0 0.44322,-1.03341 -0.81278,-1.47662 -1.25542,-0.4426 -1.99312,0.14819 -1.84554,0.8858 0,0 0.66391,-1.1078 2.65832,0.59082 m 10.48714,3.10234 c -0.04919,-0.34492 -0.68919,0.14749 -0.68919,0.14749 0,0 0.7445,0.24181 0.68919,-0.14749 m 1.18164,0.59079 c 0.14748,0.29441 0.6884,-0.14819 0.6884,-0.14819 0,0 -0.88652,-0.248 -0.6884,0.14819 m -0.68924,1.23084 c -0.24588,0 -0.19807,0.39338 0.24663,0.39338 0,0 0,-0.39338 -0.24663,-0.39338 M 42.68353,4.08675 c -0.295,1.18089 -1.89532,1.74711 -1.89532,1.74711 -0.14751,1.18172 0.5908,4.65276 0.66461,6.27698 0.0737,1.62422 -0.07381,2.36334 -0.88661,5.83506 -0.81282,3.47047 -1.84622,4.20946 -1.84622,4.20946 0,0 -1.32984,0.59083 -2.43773,1.32923 -1.10712,0.73901 -1.18161,1.40361 -1.18161,1.40361 0.8381,-0.4187 1.23149,0.32033 1.23149,0.32033 0.78822,0 1.67343,0.44258 1.62494,1.47599 -0.0383,0.79372 -0.8866,0.93572 -0.8866,0.93572 0.8866,1.52663 -0.49242,1.72333 -0.93504,1.96983 -0.4433,0.2459 -1.1816,0.2459 -1.1816,0.2459 0.7383,0 0.4924,-0.4426 0.4924,-0.4426 -0.29499,0.0977 -0.4924,-0.1974 -0.54089,-0.44461 -0.09903,-0.4911 0.34349,-0.63931 0.34349,-0.63931 0.93581,0.0505 0.5417,0.7875 0.5417,0.7875 1.47803,0.39412 1.03412,-1.37829 1.03412,-1.37829 0,0 -1.27931,0.39407 -1.18231,-0.34493 0.09968,-0.73771 1.42813,-0.14689 1.42813,-0.14689 0,0 0.98489,-0.39411 0.24658,-1.03482 -0.739,-0.63991 -1.37831,-0.44321 -1.37831,-0.44321 0.34351,-0.2459 0.04921,-1.27931 -1.32982,-0.49179 -1.37842,0.78821 -0.68993,1.57571 -0.68993,1.57571 0,0 0.68993,-0.4931 0.98635,-0.14821 0.52449,0.61272 -0.49382,1.32982 -1.08403,0.54232 -0.59081,-0.78823 -0.1967,-1.60033 -0.1967,-1.60033 0,0 -0.95962,-0.59151 -1.62492,-0.59151 -0.66453,0 -0.59083,0.36882 -0.3701,0.73902 0.2219,0.36889 0.0744,0.5171 0.0744,0.5171 -0.36883,0 -0.09841,0.44261 -0.09841,0.44261 h -0.78751 c 0,0.222 0.222,0.517 0.222,0.517 h 1.03412 c 0,0 -0.1721,0 -0.02531,0.222 0.14761,0.22132 -0.34489,0.59012 -0.34489,0.59012 0,0.2227 0.2957,0.88591 0.2957,0.88591 0.51712,0.37021 0.29652,0.5184 0.29652,0.5184 -0.66662,-0.37021 -0.96105,-1.25612 -0.96105,-1.25612 l -0.29509,-0.6645 c -1.25541,-0.81281 -0.3702,-1.10793 0,-1.10793 0.36879,0 0.29509,-0.66459 0.29509,-0.66459 -0.29509,-0.59081 -0.14689,-0.88582 0.29443,-0.95962 0.4446,-0.0738 0.2964,-0.444 0.2964,-0.444 -0.95972,0.0738 -2.43775,-0.0737 -3.61934,-0.1468 -1.18093,-0.0738 -3.69245,-0.1482 -3.69245,-0.1482 -0.51571,0.0744 -0.36881,0.3688 -0.36881,0.3688 0.36881,0.444 0.22129,1.03412 0.22129,1.03412 0.22131,0.2957 0.22131,0.8865 0.22131,0.8865 0.5177,0.1476 0.66591,0.59091 0.2957,1.77251 -0.36949,1.18164 -2.06742,1.92064 -3.32284,1.77313 -1.25542,-0.14888 -1.84691,-0.739 -1.84691,-0.739 -2.14124,-1.55122 -0.66393,-3.54495 -0.2213,-4.21016 0.44328,-0.6646 0.81279,-0.4426 0.81279,-0.4426 l 0.36882,-0.222 -0.36882,-0.1469 c -0.5177,-0.0744 -0.2964,-0.29639 -0.2964,-0.29639 l 0.95962,0.14818 0.22271,-0.4433 c -2.58596,-0.44321 -3.10164,-1.69791 -3.10164,-1.69791 -0.88661,-0.29582 -0.22202,1.10779 -0.22202,1.10779 l -0.4433,-0.14818 c -0.81211,-1.10783 0.2213,-1.84624 0.2213,-1.84624 -1.18091,-2.28944 -3.17463,-2.51142 -4.20805,-2.88023 -1.03412,-0.36891 -2.29022,-1.1817 -2.29022,-1.1817 C 7.11107,16.321 6.07697,13.80956 6.07697,13.80956 5.19115,11.81654 5.85567,10.70862 5.85567,10.70862 L 4.23215,3.54514 c -0.73831,0 -2.14264,0.95889 -2.88165,1.1809 C 0.61278,4.94875 0.3908,4.35722 0.3908,4.35722 -0.56808,3.69263 0.53908,2.65921 0.53908,2.65921 0.761,1.99391 2.0171,1.8464 2.0171,1.8464 L 0.61278,1.47762 C 0.24329,1.1818 0.53908,0.6648 0.53908,0.6648 L 2.16402,0.51659 C 3.12431,0.5903 4.37904,0.6648 4.37904,0.6648 5.56065,-0.5168 6.44717,0.14778 7.2593,0.5903 c 0.8128,0.4433 1.5512,0.96042 1.5512,0.96042 0,0 0.73761,0 1.84552,0.14749 1.10712,0.14819 3.25044,1.40363 3.25044,1.40363 l 1.32853,0.22059 c 1.69931,0.1482 2.28942,2.28952 3.54484,2.73343 1.2561,0.44261 2.95473,0.1482 2.95473,0.1482 0.73771,-1.03472 0.59021,-2.21631 0.51642,-2.65892 -0.07381,-0.4433 0.36949,-0.29651 0.36949,-0.29651 0.14821,1.84694 -0.59081,3.02853 -1.99301,5.68757 -1.40432,2.65764 -1.25614,3.83994 -1.25614,3.83994 0.59012,0.66463 2.51215,-0.9596 2.65834,-1.25611 C 22.17717,11.22502 23.2851,6.71977 23.7284,5.24304 24.17229,3.76643 24.9093,3.17563 25.1326,2.95361 25.35391,2.73232 25.27951,2.067 25.27951,2.067 c 0,0 -1.18101,-0.07309 -1.69943,-0.07309 -0.517,0 -1.62422,-0.73901 -1.62422,-0.73901 0,0 -0.66449,0.1482 -1.2553,-0.0731 -0.59152,-0.2226 -1.03412,0 -1.03412,0 0,0 0.51631,0.36892 0.96102,0.51641 0.4412,0.14819 0.5894,0.2957 0.5894,0.2957 -0.88591,0 -1.91933,-0.66451 -1.91933,-0.66451 -0.81271,0 -0.07439,-0.5908 -0.07439,-0.5908 l 0.4433,-0.29582 c 0.51631,0.14752 1.47663,0.22202 1.91994,0.22202 0.44328,0 0.44328,0.1475 0.44328,0.1475 0.96103,0.73842 3.02787,0.5908 3.02787,0.5908 0.88589,0.14762 0.81208,1.55051 0.81208,1.55051 -1.32981,1.18163 -2.14121,3.54486 -2.14121,3.54486 1.62551,-0.22131 3.24912,0.36881 3.24912,0.36881 0,0 1.84754,-1.91853 3.76686,-1.99303 1.92062,-0.0744 2.51073,0.66461 2.51073,0.66461 2.21573,0.07309 2.36333,1.77312 2.36333,1.77312 1.40422,0.88521 1.40422,2.28882 1.40422,2.28882 1.62363,1.32841 0.51572,2.88025 0.51572,2.88025 l 0.51699,1.40292 c 0,0 0.36962,-0.07441 0.1483,-1.55041 -0.22129,-1.47672 0.22132,-2.43775 0.36742,-4.57898 0.1489,-2.14263 -1.10712,-2.73213 -1.47603,-3.47115 -0.3688,-0.73829 -0.0724,-1.7724 0.36891,-1.47801 0.4446,0.29642 1.10712,0.66521 1.10712,0.66521 0,0 0.27319,-1.35302 0.61679,-1.45212 0.34491,-0.09831 0.39342,0.29581 0.39342,0.29581 0,0 0.8374,-0.0492 1.18161,0.04849 0.34491,0.09831 0.3941,0.44261 0.3941,0.44261 l 0.54161,-0.39351 c 0.34432,-0.24579 0.39409,0.44261 0.39409,0.44261 0,0 -0.04977,-0.24579 -0.4917,0 -0.444,0.24732 -0.49319,0.88732 -0.8381,0.83811 0,0 -0.29441,-0.099 -0.14751,-0.39342 0,0 0.46782,-0.3456 -0.1223,-0.56689 0,0 -0.2213,0.29571 -0.44389,0.81282 C 39.8272,4.06145 39.4584,3.69263 39.4584,3.69263 l 0.517,-0.96031 c 0,0 -0.36882,-0.29581 -0.44261,0 -0.07439,0.29571 -0.9617,1.69801 -0.9617,1.69801 0,0 -0.0724,-0.58949 -0.73692,-0.8122 -0.66461,-0.2212 -0.88591,0.2958 0,1.25612 0.88582,0.95961 1.32982,1.0334 1.32982,2.36322 0,1.32854 -0.6653,3.54495 -0.37021,4.80097 0.29572,1.25412 0.22202,1.99313 -0.29509,2.58392 0,0 -1.18163,1.99443 -1.25543,3.32354 -0.0737,1.32925 -0.1482,2.36265 -0.1482,2.36265 0,0 -0.0724,0.6652 -0.5908,0.37019 v -1.99443 c 0,-0.36888 -0.59011,-1.55051 -1.77243,-1.77249 -1.18023,-0.22062 -1.62423,0.22198 -2.65763,0.59079 0,0 -0.3702,2.43704 0.81139,2.80594 0,0 -0.36877,0.37019 -0.81139,-0.2206 -0.4446,-0.59093 -0.3702,-2.36334 -0.3702,-2.36334 0,0 -1.62491,0.07381 -1.91933,1.18162 -0.29642,1.10721 0,2.80593 -1.03401,2.88035 l -1.62493,0.0738 c 0,0 -0.51709,1.2547 -2.65904,1.62421 l 0.34561,0.4433 c 0,0 2.80583,0.04851 3.79076,0.099 0.98361,0.04851 1.57512,0.34351 3.49504,0 0,0 0.4925,-0.88721 1.62561,-0.98491 0,0 0.39342,0.3435 0,0.3435 -0.39411,0 -1.1823,0.68992 -1.37971,0.98492 0,0 0.29571,0.5909 1.18163,0.6899 0.8859,0.0977 1.37972,-0.39412 1.37972,-0.39412 0,0 0.54089,-1.42678 1.6235,-1.7724 1.08332,-0.34431 1.37972,-1.08403 1.77312,-1.13252 0,0 1.37831,-1.57571 2.21573,-6.35068 0,0 0.46312,-1.68841 0,-5.31805 -0.2971,-2.31406 -0.0492,-4.57826 -0.0492,-4.57826 0,-0.29641 0.49181,-0.29641 0.49181,-0.29641 1.23012,-0.44261 1.72322,-1.42753 1.28072,-1.37702 -0.44402,0.04849 -0.78821,0.64001 -1.13321,0.8852 -0.34491,0.2459 -0.34491,0.04921 -0.34491,0.04921 0.09901,-0.2944 0.8381,-1.23011 1.08403,-1.32852 0.24577,-0.099 0.73759,0 0.73759,0 0.5922,-0.099 0.099,0.64002 0.099,0.64002"
               style="fill:#000000;fill-opacity:1;fill-rule:nonzero;stroke:#000000;stroke-width:0.3985;stroke-linecap:butt;stroke-linejoin:miter;stroke-miterlimit:10;stroke-dasharray:none;stroke-opacity:1"
               id="path22" /><path
               d="m 22.10347,24.8882 c 0,0 0.88722,0.29501 0.88722,-0.1476 0,-0.4439 -0.51842,-0.2226 -0.51842,-0.2226 0,0 -0.6632,-0.2944 -0.3688,0.3702"
               style="fill:#000000;fill-opacity:1;fill-rule:nonzero;stroke:#000000;stroke-width:0.3985;stroke-linecap:butt;stroke-linejoin:miter;stroke-miterlimit:10;stroke-dasharray:none;stroke-opacity:1"
               id="path24" /><path
               d="m 23.48247,25.55211 h -0.6899 l -0.34349,0.54161 c 0,0 0.09761,0.1974 0.2943,0.24591 0.1974,0.05049 0.93651,0.09898 0.73909,-0.78752"
               style="fill:#000000;fill-opacity:1;fill-rule:nonzero;stroke:#000000;stroke-width:0.3985;stroke-linecap:butt;stroke-linejoin:miter;stroke-miterlimit:10;stroke-dasharray:none;stroke-opacity:1"
               id="path26" /><path
               d="m 21.56175,26.04523 c 0,0 0.24732,-0.04921 0.24732,-0.39412 0,-0.3449 -0.24732,-0.3449 -0.24732,-0.3449 l -0.39338,-0.1967 c 0,0 -0.68912,0.1967 -0.34562,0.49311 0,0 0.54232,0.4918 0.739,0.44261"
               style="fill:#000000;fill-opacity:1;fill-rule:nonzero;stroke:#000000;stroke-width:0.3985;stroke-linecap:butt;stroke-linejoin:miter;stroke-miterlimit:10;stroke-dasharray:none;stroke-opacity:1"
               id="path28" /><path
               d="m 19.29753,23.70659 -0.88652,-0.222 c 0,0 0.22202,0.6646 0.88652,0.222"
               style="fill:#000000;fill-opacity:1;fill-rule:nonzero;stroke:#000000;stroke-width:0.3985;stroke-linecap:butt;stroke-linejoin:miter;stroke-miterlimit:10;stroke-dasharray:none;stroke-opacity:1"
               id="path30" /></g></g></g></g></g></svg>
