<?xml version="1.0" encoding="UTF-8" standalone="no"?>
<svg
   xmlns:dc="http://purl.org/dc/elements/1.1/"
   xmlns:cc="http://creativecommons.org/ns#"
   xmlns:rdf="http://www.w3.org/1999/02/22-rdf-syntax-ns#"
   xmlns:svg="http://www.w3.org/2000/svg"
   xmlns="http://www.w3.org/2000/svg"
   xmlns:sodipodi="http://sodipodi.sourceforge.net/DTD/sodipodi-0.dtd"
   xmlns:inkscape="http://www.inkscape.org/namespaces/inkscape"
   version="1.1"
   id="svg2"
   xml:space="preserve"
   width="129.33498"
   height="129.33498"
   viewBox="0 0 129.33497 129.33498"
   sodipodi:docname="vectorian036.pdf"><metadata
     id="metadata8"><rdf:RDF><cc:Work
         rdf:about=""><dc:format>image/svg+xml</dc:format><dc:type
           rdf:resource="http://purl.org/dc/dcmitype/StillImage" /></cc:Work></rdf:RDF></metadata><defs
     id="defs6"><clipPath
       clipPathUnits="userSpaceOnUse"
       id="clipPath24"><path
         d="M 0,0 H 97.00124 V 97.00124 H 0 Z"
         id="path22" /></clipPath></defs><sodipodi:namedview
     pagecolor="#ffffff"
     bordercolor="#666666"
     borderopacity="1"
     objecttolerance="10"
     gridtolerance="10"
     guidetolerance="10"
     inkscape:pageopacity="0"
     inkscape:pageshadow="2"
     inkscape:window-width="640"
     inkscape:window-height="480"
     id="namedview4" /><g
     id="g10"
     inkscape:groupmode="layer"
     inkscape:label="vectorian036"
     transform="matrix(1.3333333,0,0,-1.3333333,0,129.33498)"><g
       id="g12"
       transform="translate(72,25)"><g
         id="g14"
         transform="translate(-72,-25)"><g
           id="g16"><g
             id="g18"><g
               id="g20"
               clip-path="url(#clipPath24)"><path
                 d="m 9.90862,58.29044 c 12.40016,-5.65769 25.67073,0.4944 28.24835,8.63531 3.21126,-0.87521 6.80809,-1.35043 10.83055,-1.20323 10.54893,0.39043 16.63061,3.90727 18.85943,9.26254 2.47684,-0.1664 4.89927,-0.14401 7.21932,0.08319 -0.22562,-2.32164 -0.248,-4.74245 -0.08481,-7.2209 -5.35687,-2.2288 -8.86732,-8.3105 -9.25772,-18.85783 -0.14882,-4.02086 0.32478,-7.61769 1.2,-10.83055 -8.1393,-2.57923 -14.29459,-15.84659 -8.6353,-28.24994 6.12968,-13.43216 27.12515,-13.95377 33.25482,3.00003 6.13129,16.95221 -5.97768,33.12523 -10.04013,42.77174 -1.54561,3.66886 -2.60004,7.5217 -3.16324,11.27216 0.44322,0.05919 0.89442,0.11039 1.37921,0.11839 9.38893,0.17601 13.02419,-10.55695 13.6834,-15.2018 0.4224,-2.98885 -0.34403,-5.12326 0,-7.1425 0.22718,-1.3376 1.66403,-1.95521 2.74083,-1.32159 1.53602,0.9104 1.1408,5.20005 0.38881,9.0513 -1.46404,7.51051 -7.77131,16.0066 -15.59542,16.35542 -0.97601,0.0432 -1.91362,-0.0096 -2.82243,-0.13442 -0.25762,2.34724 -0.31041,4.62887 -0.16001,6.78249 4.83367,0.85761 9.09293,2.66884 12.28656,5.52167 6.11847,5.47208 2.54084,11.80177 2.54084,11.80177 0,0 -6.32968,3.57605 -11.80175,-2.54245 -2.85604,-3.19364 -4.66247,-7.45129 -5.52166,-12.28494 -2.15525,-0.15361 -4.43687,-0.09923 -6.7825,0.16319 0.1248,0.9056 0.17601,1.84482 0.1344,2.81925 -0.34881,7.82569 -8.84331,14.13137 -16.35381,15.59538 -3.84806,0.74722 -8.1393,1.14722 -9.04971,-0.39359 -0.63521,-1.07523 -0.0176,-2.50723 1.32,-2.73763 2.01925,-0.34241 4.15207,0.4224 7.14251,0 4.64645,-0.65601 15.3746,-4.29287 15.20179,-13.6802 -0.0096,-0.4848 -0.0608,-0.9376 -0.12001,-1.3808 -3.75204,0.5648 -7.60489,1.6176 -11.26733,3.16164 C 46.03548,85.56758 29.85767,97.67496 12.90706,91.54688 -4.04515,85.41559 -3.52193,64.42172 9.90862,58.29044 Z M 67.56856,36.07416 c 2.39363,-6.91849 6.71206,-11.79058 10.67213,-14.733 0.56,-0.416 1.10081,-0.78241 1.62883,-1.12642 -0.58402,-2.91683 -1.98083,-5.51686 -4.46248,-6.97129 -0.408,2.87205 -1.53122,5.45766 -4.07524,6.44648 -6.39047,2.47845 -7.43529,-6.52167 -1.56642,-9.25771 C 70.9158,9.8946 72.09181,9.70901 73.24384,9.81142 73.37183,7.92499 73.18143,5.78896 72.72383,3.60812 65.81815,4.27054 59.40685,9.2626 59.20364,19.29953 c -0.21759,10.74574 3.89127,15.49622 8.36492,16.77463 z m 4.54565,-23.94913 c -4.43525,-0.3904 -6.00007,5.34569 -2.47842,4.30407 1.61441,-0.4768 2.65283,-2.02723 3.19522,-4.13125 -0.2432,-0.05441 -0.4608,-0.1344 -0.7168,-0.17282 z m 8.03211,10.35855 c -4.26245,3.71364 -7.6465,8.6145 -9.58574,13.95378 2.54403,-0.08482 4.92007,-1.12161 6.3777,-2.66243 2.15043,-2.27523 3.47042,-6.89131 3.20804,-11.29135 z M 75.14946,65.94974 C 75.67107,60.92728 76.92708,55.73041 78.89351,50.72873 84.63278,36.12054 94.4137,24.38438 88.41682,11.86424 85.9032,6.62416 80.44713,3.74252 74.92224,3.54573 c 0.26561,1.36961 0.70403,4.06887 0.67842,6.92329 2.79202,1.30082 5.13768,4.39844 6.08647,8.6449 4.19686,-2.30562 6.8273,-2.25442 5.85608,-1.42401 -1.94243,0.8768 -3.80005,1.98404 -5.54088,3.28806 0.09762,0.8432 0.16321,1.712 0.15201,2.62402 -0.09601,7.06409 -3.80165,15.1938 -12.29936,15.01939 -0.63681,2.25603 -1.02081,4.56966 -1.08961,6.8913 -0.28,9.40012 1.03042,17.54741 6.38409,20.43706 z m 3.13443,12.33455 c 0.71201,4.17607 2.32164,7.64651 4.91206,9.74091 3.39365,2.73925 6.97931,2.15044 6.97931,2.15044 0,0 0.58721,-3.58724 -2.15204,-6.97609 -2.09283,-2.59362 -5.56488,-4.20164 -9.73933,-4.91526 z M 45.51067,68.76738 c -2.32161,0.06718 -4.63526,0.45439 -6.8913,1.0896 0.17603,8.49611 -7.95848,12.20656 -15.01777,12.29936 -0.91201,0.0128 -1.78084,-0.05281 -2.62723,-0.15361 -1.30085,1.74083 -2.41124,3.60005 -3.28646,5.54088 C 16.8559,88.51483 16.8063,85.88438 19.11674,81.69073 14.86868,80.73712 11.76944,78.3931 10.46541,75.60266 7.61258,75.62987 4.91335,75.18665 3.54533,74.91945 3.74052,80.44592 6.62218,85.902 11.86545,88.41562 24.384,94.41571 36.12177,84.63477 50.72354,78.8987 55.73001,76.93228 60.92368,75.67146 65.94614,75.15306 63.05809,69.79619 54.9092,68.48418 45.51067,68.76738 Z m -9.07372,1.7968 c -5.34407,1.93603 -10.23852,5.31688 -13.95697,9.58255 4.40324,0.26239 9.01932,-1.05602 11.29294,-3.20966 1.54082,-1.45602 2.57603,-3.83044 2.66403,-6.37289 z M 3.60934,72.72581 c 2.17762,0.45922 4.31684,0.64483 6.20326,0.52002 -0.1056,-1.15043 0.08002,-2.33123 0.61762,-3.47845 2.73764,-5.86726 11.73773,-4.82405 9.25772,1.56482 -0.98561,2.54245 -3.57604,3.66566 -6.44647,4.07367 1.45439,2.48482 4.05444,3.88163 6.97447,4.46245 0.34081,-0.52802 0.70722,-1.06723 1.12482,-1.62563 2.94243,-3.96164 7.81451,-8.2785 14.73459,-10.67374 -1.28,-4.47045 -6.03049,-8.58412 -16.77782,-8.3665 C 9.26059,59.40565 4.27014,65.81854 3.60934,72.72581 Z m 8.68331,0.10723 c 2.11041,-0.54242 3.65764,-1.58404 4.13445,-3.19527 1.0448,-3.52324 -4.69446,-1.9568 -4.30085,2.47365 0.03519,0.2608 0.11519,0.48 0.1664,0.72162 z"
                 style="fill:#000000;fill-opacity:1;fill-rule:nonzero;stroke:#000000;stroke-width:0.3985;stroke-linecap:butt;stroke-linejoin:miter;stroke-miterlimit:10;stroke-dasharray:none;stroke-opacity:1"
                 id="path26" /><path
                 d="m 44.07545,53.07437 -10.17294,-5.86888 11.28015,-1.89122 1.89284,-11.28014 5.86726,10.17131 9.38894,-0.52159 -5.60808,7.04488 3.65284,9.77774 -9.78092,-3.65125 -7.04329,5.60648 z m 2.98243,-1.50723 c 0,0 -0.15999,2.90724 -0.2688,4.87846 1.37283,-1.0896 3.33764,-2.65602 3.33764,-2.65602 0,0 3.43847,1.28801 5.6401,2.11043 -0.82404,-2.20165 -2.10885,-5.64328 -2.10885,-5.64328 0,0 1.56484,-1.96164 2.65924,-3.33443 -1.97121,0.1104 -4.88325,0.2688 -4.88325,0.2688 0,0 -1.61763,-2.80325 -2.78246,-4.82246 -0.37759,2.25282 -0.92161,5.48965 -0.92161,5.48965 0,0 -3.24004,0.54402 -5.49446,0.92322 2.01922,1.16481 4.82245,2.78563 4.82245,2.78563 z"
                 style="fill:#000000;fill-opacity:1;fill-rule:nonzero;stroke:#000000;stroke-width:0.3985;stroke-linecap:butt;stroke-linejoin:miter;stroke-miterlimit:10;stroke-dasharray:none;stroke-opacity:1"
                 id="path28" /></g></g></g></g></g></g></svg>
