<?xml version="1.0" encoding="UTF-8" standalone="no"?>
<svg
   xmlns:dc="http://purl.org/dc/elements/1.1/"
   xmlns:cc="http://creativecommons.org/ns#"
   xmlns:rdf="http://www.w3.org/1999/02/22-rdf-syntax-ns#"
   xmlns:svg="http://www.w3.org/2000/svg"
   xmlns="http://www.w3.org/2000/svg"
   xmlns:sodipodi="http://sodipodi.sourceforge.net/DTD/sodipodi-0.dtd"
   xmlns:inkscape="http://www.inkscape.org/namespaces/inkscape"
   version="1.1"
   id="svg2"
   xml:space="preserve"
   width="391.09332"
   height="68.133331"
   viewBox="0 0 391.09332 68.133331"
   sodipodi:docname="vectorian084.pdf"><metadata
     id="metadata8"><rdf:RDF><cc:Work
         rdf:about=""><dc:format>image/svg+xml</dc:format><dc:type
           rdf:resource="http://purl.org/dc/dcmitype/StillImage" /></cc:Work></rdf:RDF></metadata><defs
     id="defs6"><clipPath
       clipPathUnits="userSpaceOnUse"
       id="clipPath24"><path
         d="M 0,-5.50005 H 290.00372 V 45.6006 H 0 Z"
         id="path22" /></clipPath></defs><sodipodi:namedview
     pagecolor="#ffffff"
     bordercolor="#666666"
     borderopacity="1"
     objecttolerance="10"
     gridtolerance="10"
     guidetolerance="10"
     inkscape:pageopacity="0"
     inkscape:pageshadow="2"
     inkscape:window-width="640"
     inkscape:window-height="480"
     id="namedview4" /><g
     id="g10"
     inkscape:groupmode="layer"
     inkscape:label="vectorian084"
     transform="matrix(1.3333333,0,0,-1.3333333,0,68.133333)"><g
       id="g12"
       transform="translate(72,-20.9)"><g
         id="g14"
         transform="translate(-72,26.4)"><g
           id="g16"><g
             id="g18"><g
               id="g20"
               clip-path="url(#clipPath24)"><path
                 d="m 271.48288,19.23474 c -1.64032,0 -3.96695,1.07181 -6.65818,2.31842 l -3.02554,1.37471 c -2.32663,1.00202 -6.47648,2.01555 -8.70871,0.25641 -0.2749,-0.22139 -0.49861,-0.50101 -0.63491,-0.88551 -0.67571,-1.88733 1.46322,-3.05234 2.98133,-3.34365 -0.9134,0.17481 -2.37323,-0.92028 -2.78332,-1.65432 -1.16731,-2.08542 1.22911,-3.20383 2.87303,-3.28543 2.11453,-0.11651 4.31647,0.1165 6.27258,0.96701 l 3.02554,1.36312 c 2.69123,1.24651 5.01786,2.33002 6.65818,2.33002 h 18.69774 v 0.55922 z m -6.86668,-2.43494 -3.01284,-1.36302 c -3.02093,-1.30491 -5.79138,-1.14181 -6.86549,-0.3146 -0.36241,0.2796 -0.5464,0.61752 -0.5464,1.02522 0,0.0699 0.005,0.12819 0.0163,0.1981 0.28661,2.07372 3.65465,2.27182 6.00689,2.70282 -2.84856,0.0233 -5.72028,0.43113 -6.00689,2.50484 -0.0711,0.50099 0.1095,0.90871 0.53011,1.23491 1.07411,0.81561 3.84456,0.97871 6.86549,-0.3145 l 3.01284,-1.36311 c 2.02603,-0.94371 3.84225,-1.78253 5.36267,-2.15534 -1.52042,-0.38441 -3.33664,-1.22331 -5.36267,-2.15532 z"
                 style="fill:#000000;fill-opacity:1;fill-rule:nonzero;stroke:#000000;stroke-width:0.3985;stroke-linecap:butt;stroke-linejoin:miter;stroke-miterlimit:10;stroke-dasharray:none;stroke-opacity:1"
                 id="path26" /><path
                 d="m 243.25403,19.64255 c -0.48232,0.1398 -1.33863,2.09701 -2.94284,3.92615 -2.54796,-3.26215 -6.96809,-3.57665 -8.25312,-3.58835 h -0.29359 c -0.0431,0 -0.0676,0 -0.0676,0 h -58.62355 c -0.34371,2.57472 -2.55023,4.57865 -5.23097,4.57865 -2.91724,0 -5.28348,-2.36503 -5.28348,-5.28927 0,-2.91264 2.36624,-5.27766 5.28348,-5.27766 2.81933,0 5.11796,2.21363 5.26947,4.98635 h 58.79126 c 1.03342,-0.0699 5.74368,-0.6174 8.40811,-4.05435 1.60421,1.82913 2.46052,4.26406 2.94284,4.40386 0,0 1.01712,-1.24651 1.55182,-2.29514 1.01481,1.14181 1.49591,2.45825 1.49591,2.45825 0,0 -0.4811,1.0369 -1.49591,2.19033 -0.5347,-1.04853 -1.55182,-2.03882 -1.55182,-2.03882 z m -74.66837,-4.36896 c -2.05174,0 -3.71534,1.7825 -3.71534,3.99614 0,2.21353 1.6636,4.00777 3.71534,4.00777 1.83022,0 3.34594,-1.42142 3.65465,-3.29715 h -0.78401 c -0.26682,0.85051 -1.05902,1.47961 -2.00273,1.47961 -1.165,0 -2.10521,-0.9436 -2.10521,-2.10873 0,-1.16501 0.94021,-2.09702 2.10521,-2.09702 1.03451,0 1.89082,0.74561 2.06563,1.72421 h 0.7677 c -0.13979,-2.07372 -1.74172,-3.70483 -3.70124,-3.70483 z"
                 style="fill:#000000;fill-opacity:1;fill-rule:nonzero;stroke:#000000;stroke-width:0.3985;stroke-linecap:butt;stroke-linejoin:miter;stroke-miterlimit:10;stroke-dasharray:none;stroke-opacity:1"
                 id="path28" /><path
                 d="m 249.5336,21.55316 c -1.31531,0 -2.38252,-1.07182 -2.38252,-2.38833 0,-1.31652 1.06721,-2.37663 2.38252,-2.37663 1.31763,0 2.38484,1.06011 2.38484,2.37663 0,1.31651 -1.06721,2.38833 -2.38484,2.38833 z"
                 style="fill:#000000;fill-opacity:1;fill-rule:nonzero;stroke:#000000;stroke-width:0.3985;stroke-linecap:butt;stroke-linejoin:miter;stroke-miterlimit:10;stroke-dasharray:none;stroke-opacity:1"
                 id="path30" /><path
                 d="m 222.28566,14.42317 h -45.23959 l -0.3751,-0.0233 c -1.69744,-2.98254 -4.81047,-4.98636 -8.37312,-4.98636 -2.05981,0 -4.03565,0.66399 -5.71448,1.93392 l -0.4637,0.3612 -0.27259,-0.5243 C 158.55583,4.89314 152.10493,0.9903 145.01926,0.9903 c -7.08809,0 -13.53658,3.90284 -16.82903,10.19403 l -0.27139,0.5243 -0.466,-0.3612 c -1.67884,-1.26993 -3.65476,-1.93392 -5.71218,-1.93392 -3.56505,0 -6.6781,2.00382 -8.37552,4.98636 h -0.23179 l -45.2385,0.0233 C 57.49344,14.46979 54.61931,11.46394 54.34898,8.6912 54.13457,6.48926 55.3789,4.86984 56.48332,4.33394 c 0.2249,-0.1398 0.44969,-0.233 0.6583,-0.29131 1.41902,-0.3262 3.73394,-0.13978 4.15916,2.22524 C 61.72598,8.63289 59.97847,9.6698 58.93925,9.7164 57.89883,9.763 56.76292,9.25041 56.71751,7.50278 55.76682,7.75917 55.7028,8.598 55.7866,9.18051 c 0.6466,2.07372 4.08465,4.25235 12.10825,4.25235 h 44.89708 c 1.92113,-3.01744 5.21127,-5.00966 8.94873,-5.00966 2.09702,0 4.10084,0.6524 5.85307,1.84082 C 131.12727,3.92613 137.74005,0 145.01926,0 c 7.27449,0 13.88717,3.92613 17.42312,10.26402 1.75222,-1.18842 3.75724,-1.84082 5.85547,-1.84082 3.73517,0 7.02631,1.99222 8.94863,5.00966 h 45.03918 c 8.02249,0 11.45814,-2.17863 12.10477,-4.25235 0.0839,-0.58251 0.0233,-1.42134 -0.92855,-1.67773 -0.0478,1.74763 -1.1802,2.26022 -2.2205,2.21362 -1.04042,-0.0466 -2.78916,-1.08351 -2.36505,-3.44853 0.42642,-2.36502 2.74243,-2.55144 4.16037,-2.22524 0.2062,0.05831 0.43219,0.15151 0.6582,0.29131 1.10451,0.5359 2.34753,2.15532 2.13432,4.35726 -0.2691,2.77274 -3.14553,5.77859 -13.54356,5.73197 z"
                 style="fill:#000000;fill-opacity:1;fill-rule:nonzero;stroke:#000000;stroke-width:0.3985;stroke-linecap:butt;stroke-linejoin:miter;stroke-miterlimit:10;stroke-dasharray:none;stroke-opacity:1"
                 id="path32" /><path
                 d="m 201.53517,26.59782 c 1.37943,0 2.49675,0.95531 2.49675,2.15535 0,1.1883 -1.11732,2.15531 -2.49675,2.15531 -1.37701,0 -2.49432,-0.96701 -2.49432,-2.15531 0,-1.20004 1.11731,-2.15535 2.49432,-2.15535 z"
                 style="fill:#000000;fill-opacity:1;fill-rule:nonzero;stroke:#000000;stroke-width:0.3985;stroke-linecap:butt;stroke-linejoin:miter;stroke-miterlimit:10;stroke-dasharray:none;stroke-opacity:1"
                 id="path34" /><path
                 d="m 201.53517,12.41925 c -1.37701,0 -2.49432,-0.96692 -2.49432,-2.15523 0,-1.20001 1.11731,-2.15533 2.49432,-2.15533 1.37943,0 2.49675,0.95532 2.49675,2.15533 0,1.18831 -1.11732,2.15523 -2.49675,2.15523 z"
                 style="fill:#000000;fill-opacity:1;fill-rule:nonzero;stroke:#000000;stroke-width:0.3985;stroke-linecap:butt;stroke-linejoin:miter;stroke-miterlimit:10;stroke-dasharray:none;stroke-opacity:1"
                 id="path36" /><path
                 d="m 117.0676,18.97842 c 0.1503,-2.77272 2.44893,-4.98635 5.26835,-4.98635 2.91846,0 5.28348,2.36502 5.28348,5.27766 0,2.92424 -2.36502,5.28927 -5.28348,5.28927 -2.67842,0 -4.88855,-2.00393 -5.23216,-4.57865 H 58.48135 c 0,0 -0.02331,0 -0.06871,0 h -0.29361 c -1.28381,0.0117 -5.70398,0.3262 -8.2508,3.58835 -1.60653,-1.82914 -2.45934,-3.78635 -2.94164,-3.92615 0,0 -1.01711,0.99029 -1.55191,2.03882 -1.01701,-1.15343 -1.50053,-2.19033 -1.50053,-2.19033 0,0 0.48352,-1.31644 1.50053,-2.45825 0.5348,1.04863 1.55191,2.29514 1.55191,2.29514 0.4823,-0.1398 1.33511,-2.57473 2.94164,-4.40386 2.66212,3.43695 7.37469,3.98445 8.4058,4.05435 z m 3.65944,2.48154 c -0.94721,0 -1.73713,-0.6291 -2.00272,-1.47961 h -0.7852 c 0.30639,1.87573 1.8244,3.29715 3.65353,3.29715 2.05393,0 3.71416,-1.79424 3.71416,-4.00777 0,-2.21364 -1.66023,-3.99614 -3.71416,-3.99614 -1.96072,0 -3.56264,1.63111 -3.70134,3.70483 h 0.7666 c 0.1783,-0.9786 1.03342,-1.72421 2.06913,-1.72421 1.16272,0 2.10403,0.93201 2.10403,2.09702 0,1.16513 -0.94131,2.10873 -2.10403,2.10873 z"
                 style="fill:#000000;fill-opacity:1;fill-rule:nonzero;stroke:#000000;stroke-width:0.3985;stroke-linecap:butt;stroke-linejoin:miter;stroke-miterlimit:10;stroke-dasharray:none;stroke-opacity:1"
                 id="path38" /><path
                 d="m 40.64351,21.55316 c -1.31531,0 -2.38374,-1.07182 -2.38374,-2.38833 0,-1.31652 1.06843,-2.37663 2.38374,-2.37663 1.31531,0 2.38483,1.06011 2.38483,2.37663 0,1.31651 -1.06952,2.38833 -2.38483,2.38833 z"
                 style="fill:#000000;fill-opacity:1;fill-rule:nonzero;stroke:#000000;stroke-width:0.3985;stroke-linecap:butt;stroke-linejoin:miter;stroke-miterlimit:10;stroke-dasharray:none;stroke-opacity:1"
                 id="path40" /><path
                 d="m 37.72157,22.29877 c -0.134,0.3845 -0.35652,0.66412 -0.63382,0.88551 -2.23211,1.75914 -6.38318,0.74561 -8.7063,-0.25641 L 25.3524,21.55316 C 22.6612,20.30655 20.33455,19.23474 18.69652,19.23474 H 0 v -0.55922 h 18.69652 c 1.63803,0 3.96468,-1.08351 6.65588,-2.33002 l 3.02905,-1.36312 c 1.95383,-0.85051 4.15455,-1.08352 6.27028,-0.96701 1.64612,0.0816 4.04035,1.20001 2.87293,3.28543 -0.41008,0.73404 -1.86872,1.82913 -2.78324,1.65432 1.51804,0.29131 3.65705,1.45632 2.98015,3.34365 z m -1.74873,-0.74561 c -0.2889,-2.07371 -3.16193,-2.48154 -6.00806,-2.50484 2.35332,-0.431 5.71916,-0.6291 6.00806,-2.70282 0.0082,-0.06991 0.0128,-0.1282 0.0128,-0.1981 0,-0.4077 -0.18168,-0.74562 -0.5464,-1.02522 -1.07062,-0.82721 -3.84346,-0.99031 -6.86208,0.3146 l -3.01504,1.36302 c -2.02603,0.93201 -3.84346,1.77091 -5.36388,2.15532 1.52042,0.37281 3.33785,1.21163 5.36388,2.15534 l 3.01504,1.36311 c 3.01862,1.29321 5.79146,1.13011 6.86208,0.3145 0.4241,-0.3262 0.60121,-0.73392 0.5336,-1.23491 z"
                 style="fill:#000000;fill-opacity:1;fill-rule:nonzero;stroke:#000000;stroke-width:0.3985;stroke-linecap:butt;stroke-linejoin:miter;stroke-miterlimit:10;stroke-dasharray:none;stroke-opacity:1"
                 id="path42" /><path
                 d="m 67.89485,24.93181 h 44.44159 0.79691 0.3518 c 1.72313,2.86593 4.77435,4.78825 8.25551,4.78825 1.9409,0 3.81664,-0.60579 5.42317,-1.72421 l 0.4777,-0.33791 0.25511,0.5243 c 3.14444,6.5475 9.86322,10.77666 17.12262,10.77666 7.25579,0 13.97807,-4.22916 17.12251,-10.77666 l 0.25281,-0.5243 0.47769,0.33791 c 1.60653,1.11842 3.48117,1.72421 5.42558,1.72421 3.47885,0 6.53,-1.92232 8.25542,-4.78825 h 0.4928 0.65361 44.58598 c 10.39803,-0.0466 13.27446,2.95914 13.54356,5.73198 0.21321,2.19023 -1.02981,3.82133 -2.13432,4.34553 -0.22601,0.13982 -0.452,0.24471 -0.6582,0.29132 -1.41794,0.3378 -3.73395,0.1514 -4.16037,-2.21364 -0.42411,-2.36492 1.32463,-3.41354 2.36505,-3.44843 1.0403,-0.05831 2.17273,0.46601 2.2205,2.21353 0.95183,-0.2679 1.01242,-1.09511 0.92855,-1.67763 -0.64663,-2.08542 -4.08228,-4.25235 -12.10477,-4.25235 h -45.18709 c -1.94102,2.88924 -5.15767,4.77656 -8.80072,4.77656 -1.96661,0 -3.85974,-0.5708 -5.52926,-1.61932 -3.40545,6.60568 -10.29424,10.86972 -17.74933,10.86972 -7.45629,0 -14.3498,-4.26404 -17.74825,-10.86972 -1.67061,1.04852 -3.56384,1.61932 -5.53035,1.61932 -3.64316,0 -6.86209,-1.88732 -8.80311,-4.77656 h -45.0427 c -8.0236,0 -11.46165,2.16693 -12.10825,4.25235 -0.0838,0.58252 -0.01978,1.40973 0.93091,1.67763 0.04541,-1.74752 1.18132,-2.27184 2.22174,-2.21353 1.03922,0.03489 2.78673,1.08351 2.36153,3.44843 -0.42522,2.36504 -2.74014,2.55144 -4.15916,2.21364 -0.20861,-0.04661 -0.4334,-0.1515 -0.6583,-0.29132 -1.10442,-0.5242 -2.34875,-2.1553 -2.13434,-4.34553 0.27033,-2.77284 3.14446,-5.77858 13.54587,-5.73198 z"
                 style="fill:#000000;fill-opacity:1;fill-rule:nonzero;stroke:#000000;stroke-width:0.3985;stroke-linecap:butt;stroke-linejoin:miter;stroke-miterlimit:10;stroke-dasharray:none;stroke-opacity:1"
                 id="path44" /><path
                 d="m 88.64304,26.59782 c 1.3782,0 2.49553,0.95531 2.49553,2.15535 0,1.1883 -1.11733,2.15531 -2.49553,2.15531 -1.37704,0 -2.49664,-0.96701 -2.49664,-2.15531 0,-1.20004 1.1196,-2.15535 2.49664,-2.15535 z"
                 style="fill:#000000;fill-opacity:1;fill-rule:nonzero;stroke:#000000;stroke-width:0.3985;stroke-linecap:butt;stroke-linejoin:miter;stroke-miterlimit:10;stroke-dasharray:none;stroke-opacity:1"
                 id="path46" /><path
                 d="m 88.64304,12.41925 c -1.37704,0 -2.49664,-0.96692 -2.49664,-2.15523 0,-1.20001 1.1196,-2.15533 2.49664,-2.15533 1.3782,0 2.49553,0.95532 2.49553,2.15533 0,1.18831 -1.11733,2.15523 -2.49553,2.15523 z"
                 style="fill:#000000;fill-opacity:1;fill-rule:nonzero;stroke:#000000;stroke-width:0.3985;stroke-linecap:butt;stroke-linejoin:miter;stroke-miterlimit:10;stroke-dasharray:none;stroke-opacity:1"
                 id="path48" /><path
                 d="m 145.09724,21.66966 c -1.1813,0 -2.14241,-0.96692 -2.14241,-2.14363 0,-1.18833 0.96111,-2.14373 2.14241,-2.14373 1.18023,0 2.13785,0.9554 2.13785,2.14373 0,1.17671 -0.95762,2.14363 -2.13785,2.14363 z"
                 style="fill:#000000;fill-opacity:1;fill-rule:nonzero;stroke:#000000;stroke-width:0.3985;stroke-linecap:butt;stroke-linejoin:miter;stroke-miterlimit:10;stroke-dasharray:none;stroke-opacity:1"
                 id="path50" /><path
                 d="m 145.09724,33.63461 c -7.79168,0 -14.10856,-6.31448 -14.10856,-14.10858 0,-7.7941 6.31688,-14.10856 14.10856,-14.10856 7.78832,0 14.10749,6.31446 14.10749,14.10856 0,7.7941 -6.31917,14.10858 -14.10749,14.10858 z m 0.27503,-5.67376 c 0.0209,2.17862 0.66641,3.29713 2.09122,3.61165 1.42831,0.3146 3.80854,-0.36112 4.55296,-1.59614 0.80151,-1.3397 0.61398,-2.4116 -0.63731,-3.72804 l -2.58863,-2.58642 -1.11381,-1.11843 c -0.63033,0.53591 -1.42832,0.88541 -2.30684,0.94371 l 0.005,4.33386 c 0,0.04659 -0.002,0.09321 -0.002,0.13981 z m -7.14292,2.01551 c 0.74453,1.23502 3.12346,1.91074 4.55068,1.59614 1.42482,-0.31452 2.07143,-1.43303 2.09123,-3.61165 0,-0.0466 0,-0.09322 0,-0.13981 l 0.002,-4.33386 c -0.88301,-0.04658 -1.69272,-0.3845 -2.33002,-0.92041 l -1.08932,1.09513 -2.58754,2.58642 c -1.2547,1.31644 -1.4377,2.38834 -0.63732,3.72804 z m -3.44033,-3.43682 c 1.33403,0.7922 2.41163,0.61749 3.72465,-0.64072 l 3.67334,-3.66995 c -0.58371,-0.62911 -0.96811,-1.44463 -1.04971,-2.34172 h -4.19524 c -2.27655,-0.0116 -3.43456,0.64079 -3.75497,2.0971 -0.31459,1.42135 0.36232,3.80966 1.60193,4.55529 z m 0,-14.06199 c -1.23961,0.74561 -1.91652,3.12233 -1.60193,4.54366 0.32041,1.4563 1.47842,2.10872 3.75497,2.09702 h 4.19756 c 0.0909,-0.89703 0.47998,-1.70092 1.06489,-2.31843 l -3.69084,-3.69313 c -1.31302,-1.24664 -2.39062,-1.43306 -3.72465,-0.62912 z m 10.08224,-1.43301 c -0.0198,-2.17865 -0.66641,-3.29704 -2.09123,-3.61166 -1.42722,-0.3145 -3.80615,0.36122 -4.55068,1.60782 -0.80038,1.32812 -0.61738,2.41163 0.63732,3.71646 l 3.69664,3.70484 c 0.63263,-0.52432 1.43652,-0.86212 2.31024,-0.90872 l -0.002,-4.36895 c 0,-0.04659 0,-0.0932 0,-0.13979 z m -3.25626,8.48149 c 0,1.92235 1.56113,3.48345 3.48224,3.48345 1.92003,0 3.48345,-1.5611 3.48345,-3.48345 0,-1.92232 -1.56342,-3.48344 -3.48345,-3.48344 -1.92111,0 -3.48224,1.56112 -3.48224,3.48344 z M 152.01645,9.0407 c -0.74442,-1.2466 -3.12465,-1.92232 -4.55068,-1.60782 -1.42709,0.31462 -2.07261,1.43301 -2.0935,3.61166 0,0.04659 0.002,0.0932 0.002,0.13979 0,0 -0.005,3.44856 -0.005,4.36895 0.8668,0.0699 1.66022,0.39611 2.28703,0.93202 l 3.72225,-3.72814 c 1.25129,-1.30483 1.43652,-2.38834 0.63731,-3.71646 z m 3.43805,3.43685 c -1.33402,-0.80394 -2.41165,-0.61752 -3.72466,0.62912 -0.002,0 -1.83844,1.84072 -2.98594,2.99411 -0.2074,0.19812 -0.39031,0.38452 -0.5383,0.53592 0,0 -0.002,0 -0.005,0 -0.0734,0.0699 -0.13519,0.1398 -0.18649,0.1864 0.57089,0.61751 0.95071,1.40972 1.0392,2.29513 h 4.24897 c 2.27413,0.0117 3.43333,-0.64072 3.75374,-2.09702 0.31571,-1.42133 -0.36121,-3.79805 -1.60191,-4.54366 z m 1.60191,9.5067 c -0.32041,-1.45631 -1.47961,-2.1087 -3.75374,-2.0971 h -4.24426 c -0.085,0.88551 -0.45782,1.68931 -1.02641,2.30682 l 3.70015,3.70485 c 1.3107,1.25821 2.39183,1.43292 3.72235,0.64072 1.2431,-0.74563 1.91762,-3.13394 1.60191,-4.55529 z"
                 style="fill:#000000;fill-opacity:1;fill-rule:nonzero;stroke:#000000;stroke-width:0.3985;stroke-linecap:butt;stroke-linejoin:miter;stroke-miterlimit:10;stroke-dasharray:none;stroke-opacity:1"
                 id="path52" /><path
                 d="m 145.47826,40.8811 c 1.31881,0 2.38364,1.00203 2.38364,2.23693 0,1.23494 -1.06483,2.23684 -2.38364,2.23684 -1.31652,0 -2.38362,-1.0019 -2.38362,-2.23684 0,-1.2349 1.0671,-2.23693 2.38362,-2.23693 z"
                 style="fill:#000000;fill-opacity:1;fill-rule:nonzero;stroke:#000000;stroke-width:0.3985;stroke-linecap:butt;stroke-linejoin:miter;stroke-miterlimit:10;stroke-dasharray:none;stroke-opacity:1"
                 id="path54" /><path
                 d="m 145.47826,-5.21945 c 1.31881,0 2.38364,1.002 2.38364,2.23694 0,1.23491 -1.06483,2.23681 -2.38364,2.23681 -1.31652,0 -2.38362,-1.0019 -2.38362,-2.23681 0,-1.23494 1.0671,-2.23694 2.38362,-2.23694 z"
                 style="fill:#000000;fill-opacity:1;fill-rule:nonzero;stroke:#000000;stroke-width:0.3985;stroke-linecap:butt;stroke-linejoin:miter;stroke-miterlimit:10;stroke-dasharray:none;stroke-opacity:1"
                 id="path56" /></g></g></g></g></g></g></svg>
