<?xml version="1.0" encoding="UTF-8" standalone="no"?>
<svg
   xmlns:dc="http://purl.org/dc/elements/1.1/"
   xmlns:cc="http://creativecommons.org/ns#"
   xmlns:rdf="http://www.w3.org/1999/02/22-rdf-syntax-ns#"
   xmlns:svg="http://www.w3.org/2000/svg"
   xmlns="http://www.w3.org/2000/svg"
   xmlns:sodipodi="http://sodipodi.sourceforge.net/DTD/sodipodi-0.dtd"
   xmlns:inkscape="http://www.inkscape.org/namespaces/inkscape"
   version="1.1"
   id="svg2"
   xml:space="preserve"
   width="134.42738"
   height="130.62334"
   viewBox="0 0 134.42738 130.62333"
   sodipodi:docname="vectorian027.pdf"><metadata
     id="metadata8"><rdf:RDF><cc:Work
         rdf:about=""><dc:format>image/svg+xml</dc:format><dc:type
           rdf:resource="http://purl.org/dc/dcmitype/StillImage" /></cc:Work></rdf:RDF></metadata><defs
     id="defs6"><clipPath
       clipPathUnits="userSpaceOnUse"
       id="clipPath24"><path
         d="M -0.74428,-0.00189 H 100.62848 V 98.59966 H -0.74428 Z"
         id="path22" /></clipPath></defs><sodipodi:namedview
     pagecolor="#ffffff"
     bordercolor="#666666"
     borderopacity="1"
     objecttolerance="10"
     gridtolerance="10"
     guidetolerance="10"
     inkscape:pageopacity="0"
     inkscape:pageshadow="2"
     inkscape:window-width="640"
     inkscape:window-height="480"
     id="namedview4" /><g
     id="g10"
     inkscape:groupmode="layer"
     inkscape:label="vectorian027"
     transform="matrix(1.3333333,0,0,-1.3333333,-0.73592249,130.62348)"><g
       id="g12"
       transform="translate(72,26.6)"><g
         id="g14"
         transform="translate(-71.256,-26.598)"><g
           id="g16"><g
             id="g18"><g
               id="g20"
               clip-path="url(#clipPath24)"><path
                 d="m 30.42989,63.4191 c -4.55687,-0.90242 -7.21611,-4.76816 -6.40969,-6.48499 0.7632,-1.52481 2.94403,3.92327 8.93451,3.48805 2.38404,-0.1744 5.24007,-1.48481 7.60969,-2.81764 l 7.11849,-6.84329 c -7.44009,3.17606 -13.28976,1.74883 -19.41304,2.24963 -6.64648,0.54561 -7.51851,7.1937 -8.3905,7.5185 -1.30562,0.10881 -0.32482,-7.62729 3.81604,-9.58731 4.13766,-1.96325 6.75369,-0.54561 15.25619,-0.21762 5.28167,0.20321 9.04972,-1.19681 11.14414,-2.28162 l 3.16165,-3.04164 c -2.32162,1.06882 -5.44647,1.97122 -8.6929,1.34401 C 35.74834,46.7788 28.21385,36.91306 23.87619,31.545 c -4.57767,-5.66889 -8.4241,-4.07045 -9.44333,-2.25124 -1.01599,1.81444 -1.30881,3.70406 -2.61603,2.68483 -1.3088,-1.016 1.16323,-4.14084 3.77765,-5.15686 5.01288,-1.96002 9.22572,-0.43359 15.32981,8.42731 3.76803,5.47686 6.48329,7.5121 8.00808,8.27051 -0.75198,-0.90082 -1.3312,-1.92163 -1.712,-3.02245 -0.496,-0.2384 -1.30561,-0.6432 -1.64643,-0.888 -3.19685,-2.76164 -5.08805,-6.10408 -3.63525,-11.33455 1.43204,-5.14728 5.12328,-10.64174 5.23207,-15.981 0,-4.35846 -1.67201,-3.99686 -2.76004,-5.88327 -0.57761,-1.00324 1.56004,-3.34247 3.41286,1.2336 1.85281,4.57608 2.39682,10.89614 -2.24964,19.43385 -4.12486,7.5697 -0.4656,11.05134 1.32483,12.20977 -0.03361,-0.16801 -0.07841,-0.33761 -0.10241,-0.50881 -0.34081,-2.40323 0.31842,-4.70888 1.84962,-6.4977 2.36482,-2.76163 5.54567,-2.88002 7.54891,-2.13762 1.4512,0.53441 2.36003,1.51043 2.40641,2.55043 0.10721,0.3264 0.17923,0.66721 0.15361,1.03041 -0.10561,1.96164 -1.30561,3.05124 -2.83043,2.61444 -1.52641,-0.43521 -1.63522,-2.61444 -0.2192,-3.59685 0.688,-0.47358 0.6848,-1.00001 0.49279,-1.41602 -0.12159,-0.05758 -0.24641,-0.11199 -0.38081,-0.1616 -1.6752,-0.6192 -4.34083,-0.51359 -6.34726,1.82723 -1.32483,1.54402 -1.88963,3.54565 -1.59683,5.63368 0.33441,2.35202 1.76004,4.56166 3.78564,5.88808 6.8497,3.97444 14.70899,-2.21605 14.78421,-2.27843 l 0.04959,0.05919 6.39048,-6.14088 -2.59363,-2.64322 2.28163,-2.24005 2.61443,2.66725 10.17775,-9.78252 c -1.69445,0.57279 -3.99367,0.99681 -6.86251,0.7424 -5.11047,0.8512 -9.43371,-2.67523 -13.45457,-3.01283 -5.22887,-0.43523 -7.8481,1.96321 -7.51849,1.09122 3.21124,-4.28487 7.4433,-4.05606 9.68014,-3.54085 C 56.315,18.3256 55.587,17.08722 55.08939,15.72238 53.77739,12.11594 54.21098,8.1735 56.2494,5.17186 58.05745,2.50781 60.75188,0.999 63.8415,0.9254 c 3.08964,-0.0704 6.24969,1.31842 7.85612,3.46083 1.41761,1.89442 1.8256,4.67688 1.0032,6.9249 -0.6848,1.87523 -2.10242,3.14724 -3.99686,3.58246 -1.4416,0.33277 -2.65924,0.15199 -3.62564,-0.54242 -0.02079,-0.016 -0.03999,-0.03681 -0.06239,-0.0544 -1.03522,-0.56482 -2.36323,-1.69762 -2.55684,-3.85445 -0.33119,-3.59524 4.13927,-4.03045 5.12007,-1.96162 0.98081,2.07362 -0.11041,3.05124 -0.9808,3.59524 -0.65123,0.40801 -0.45442,1.29282 0.13919,1.58564 0.1888,0.04158 0.3824,0.06399 0.59041,0.06878 0.048,-0.0096 0.08799,-0.0032 0.14079,-0.01759 0.28162,0.0144 0.5968,-0.01282 0.94083,-0.09281 C 70.2656,13.19275 71.1008,11.88554 71.4752,10.86313 72.15042,9.0151 71.81601,6.72546 70.64638,5.16866 69.30717,3.37823 66.66234,2.46301 64.01591,2.52542 62.1359,2.57022 59.47984,3.24384 57.47343,6.19586 55.6462,8.8935 55.2766,12.30635 56.46062,15.56398 c 1.34399,3.69127 4.29765,6.17448 8.35211,7.32649 8.3537,2.37283 13.08494,-1.46881 13.13136,-1.50721 l 0.1344,0.16 2.85283,-2.74243 c -0.26558,-0.40801 -0.424,-0.89441 -0.424,-1.41923 0,-1.4464 1.17122,-2.61604 2.61605,-2.61604 0.5616,0 1.07679,0.1792 1.50561,0.48322 l 8.1409,-7.83049 C 91.56348,6.36707 89.86905,5.89986 86.973,7.50468 83.63855,9.35591 79.1665,8.29669 77.41608,3.43742 77.16327,2.08061 80.21933,6.24228 83.92337,4.88385 87.46582,3.58783 90.05785,2.18942 94.01949,6.22147 l 0.40002,-0.38401 c -0.0096,-1.09602 0.13119,-2.88963 1.0688,-3.71366 1.40001,-1.2272 3.74086,-0.8976 5.14087,-2.12479 -1.09442,1.50559 -0.55679,3.80803 -1.65282,5.31206 -0.72961,1.00318 -2.48803,1.3072 -3.58084,1.4 l -0.50401,0.48641 c 3.71846,4.64485 1.94722,7.04489 0.1472,10.43693 -1.85283,3.48803 1.85283,7.08487 0.54241,6.64808 C 91.00665,21.88408 90.56985,17.30801 92.86108,14.25836 94.9107,11.52234 94.5955,9.7527 93.6451,8.39429 l -8.17292,7.85931 c 0.16642,0.34079 0.2656,0.72 0.2656,1.128 0,1.44323 -1.17121,2.61445 -2.61441,2.61445 -0.44481,0 -0.85442,-0.11841 -1.21923,-0.31522 l -3.56965,3.43044 c -0.968,1.67204 -2.79042,5.93287 -0.97441,12.32498 1.15042,4.05763 3.63525,7.00969 7.32489,8.3521 3.25924,1.18402 6.67209,0.81282 9.36494,-1.01441 2.95682,-2.00324 3.62885,-4.66406 3.67365,-6.53929 0.06239,-2.64803 -0.85442,-5.29128 -2.64164,-6.63528 -1.55844,-1.16802 -3.84646,-1.49762 -5.6929,-0.82082 -1.02241,0.3712 -2.3312,1.20802 -2.76002,3.06085 -0.0784,0.34721 -0.10561,0.6624 -0.1088,0.96642 0.0032,0.02558 0.008,0.07038 0.0032,0.11839 0,0.20641 0.02401,0.4032 0.06561,0.58882 0.2928,0.592 1.17762,0.7888 1.58403,0.14078 0.5472,-0.872 1.5248,-1.96321 3.59685,-0.98081 2.0688,0.98081 1.63361,5.45127 -1.96324,5.12168 -2.15683,-0.19521 -3.28644,-1.52642 -3.85606,-2.56003 -0.01598,-0.024 -0.03518,-0.03841 -0.0528,-0.06401 -0.6944,-0.96481 -0.87521,-2.18244 -0.54078,-3.62405 0.4352,-1.89283 1.70881,-3.31363 3.58085,-3.99686 2.248,-0.82399 5.03205,-0.41759 6.92807,1.00323 2.14081,1.6064 3.52965,4.76645 3.45764,7.8577 -0.07359,3.08484 -1.58241,5.78247 -4.24484,7.59369 -3.00325,2.03363 -6.94411,2.46722 -10.54895,1.15681 -1.36642,-0.49601 -2.60321,-1.22561 -3.71364,-2.12002 0.5152,2.23843 0.74399,6.46889 -3.54085,9.68173 -0.87202,0.328 1.52482,-2.28804 1.09122,-7.52011 -0.33762,-4.02084 -3.86566,-8.3425 -3.01285,-13.45296 -0.22879,-2.56804 0.08481,-4.68806 0.56961,-6.3185 l -9.82252,9.44013 2.37123,2.41444 -2.27683,2.23843 -2.39683,-2.44004 -7.2081,6.92969 c -1.41281,2.09443 -5.04166,8.41612 -1.77921,14.04178 1.344,2.04801 3.55043,3.47215 5.90726,3.80656 2.08324,0.29761 4.08486,-0.27042 5.6321,-1.59853 2.33761,-2.00323 2.44801,-4.66886 1.82559,-6.34248 -0.04958,-0.13281 -0.10397,-0.26401 -0.16319,-0.38398 -0.4144,-0.18563 -0.9408,-0.19202 -1.4144,0.49279 -0.98244,1.41762 -3.16005,1.30879 -3.59685,-0.21762 -0.43681,-1.52321 0.6528,-2.72324 2.61441,-2.83203 0.36482,-0.0208 0.70722,0.048 1.03041,0.15361 1.04163,0.04799 2.01444,0.9568 2.55203,2.40802 0.73923,2.00323 0.62403,5.18246 -2.1376,7.54901 -1.79204,1.53601 -4.09606,2.18882 -6.49609,1.85121 -0.17441,-0.0256 -0.34081,-0.0688 -0.51201,-0.1024 1.15523,1.79202 4.63847,5.44968 12.20976,1.32481 8.53772,-4.64816 14.85779,-4.10254 19.43224,-2.25122 4.57766,1.85283 2.24005,3.99366 1.23523,3.41445 -1.88804,-1.09122 -1.52642,-2.76004 -5.88327,-2.76004 -5.34249,0.10721 -10.83376,3.79844 -15.98102,5.23047 -5.23046,1.45281 -8.57291,-0.4368 -11.33295,-3.63366 -0.24638,-0.34239 -0.6496,-1.15039 -0.8896,-1.64961 -1.10082,-0.37761 -2.12163,-0.95842 -3.02245,-1.71533 0.75682,1.52333 2.78725,4.24016 8.27051,8.01462 8.8625,6.10246 10.38733,10.31532 8.42412,15.32818 -1.01443,2.61446 -4.13927,5.08647 -5.15528,3.77925 -1.01921,-1.30882 0.87201,-1.60001 2.68644,-2.61763 1.81762,-1.01602 3.41444,-4.86726 -2.25122,-9.44332 C 62.4303,71.52641 52.58057,64.00471 52.59175,55.19969 51.97096,52.01405 52.82697,48.94202 53.86699,46.6284 l -2.79366,2.68642 c -1.1024,2.01283 -2.67204,5.89128 -2.45601,11.47375 0.32799,8.49939 1.74401,11.11385 -0.2192,15.2547 -1.95844,4.14084 -9.69612,5.12006 -9.58733,3.81604 0.3248,-0.87522 6.97289,-1.74561 7.51689,-8.39531 0.5152,-6.28007 -1.00322,-12.27066 2.50243,-19.99076 l -5.85607,5.62727 c -1.63842,2.59044 -3.82885,6.54738 -4.05285,9.68024 -0.4384,5.99208 5.01126,8.17129 3.48324,8.93611 -1.85283,0.87361 -6.20806,-2.28963 -6.64648,-7.5201 -0.0096,-0.09761 0,-0.192 -0.0032,-0.28799 -3.93445,4.24644 -9.84653,5.95848 -10.13453,6.04165 l -0.016,-0.05439 c 0,0 -22.8963,22.66751 -23.6243,23.39552 C 0.6695,98.59875 -0.7449,96.96353 0.4519,95.87712 1.1207,95.27072 24.48581,73.15843 24.48581,73.15843 24.6522,72.28801 25.78342,67.38875 30.42989,63.4191 Z m -2.08164,4.23686 c -0.22079,0.85921 -0.30882,1.81122 0.21919,2.28482 0.55683,0.50082 1.75043,0.27681 2.61284,0.0208 1.75841,-1.10561 3.55205,-2.58403 4.84328,-4.47525 0.3632,-1.37282 1.0128,-2.64804 1.72801,-3.73764 -1.55043,0.97601 -3.44324,1.79841 -5.43367,1.84481 -1.72482,1.26082 -3.01604,2.68644 -3.96965,4.06246 z"
                 style="fill:#000000;fill-opacity:1;fill-rule:nonzero;stroke:#000000;stroke-width:0.3985;stroke-linecap:butt;stroke-linejoin:miter;stroke-miterlimit:10;stroke-dasharray:none;stroke-opacity:1"
                 id="path26" /></g></g></g></g></g></g></svg>
