<?xml version="1.0" encoding="UTF-8" standalone="no"?>
<svg
   xmlns:dc="http://purl.org/dc/elements/1.1/"
   xmlns:cc="http://creativecommons.org/ns#"
   xmlns:rdf="http://www.w3.org/1999/02/22-rdf-syntax-ns#"
   xmlns:svg="http://www.w3.org/2000/svg"
   xmlns="http://www.w3.org/2000/svg"
   xmlns:sodipodi="http://sodipodi.sourceforge.net/DTD/sodipodi-0.dtd"
   xmlns:inkscape="http://www.inkscape.org/namespaces/inkscape"
   version="1.1"
   id="svg2"
   xml:space="preserve"
   width="45.68"
   height="60.560001"
   viewBox="0 0 45.68 60.560001"
   sodipodi:docname="vectorian121.pdf"><metadata
     id="metadata8"><rdf:RDF><cc:Work
         rdf:about=""><dc:format>image/svg+xml</dc:format><dc:type
           rdf:resource="http://purl.org/dc/dcmitype/StillImage" /></cc:Work></rdf:RDF></metadata><defs
     id="defs6" /><sodipodi:namedview
     pagecolor="#ffffff"
     bordercolor="#666666"
     borderopacity="1"
     objecttolerance="10"
     gridtolerance="10"
     guidetolerance="10"
     inkscape:pageopacity="0"
     inkscape:pageshadow="2"
     inkscape:window-width="640"
     inkscape:window-height="480"
     id="namedview4" /><g
     id="g10"
     inkscape:groupmode="layer"
     inkscape:label="vectorian121"
     transform="matrix(1.3333333,0,0,-1.3333333,0,60.56)"><g
       id="g12"
       transform="translate(72,-26.582)"><g
         id="g14"
         transform="translate(-71.11,27.362)"><g
           id="g16"><g
             id="g18"><path
               d="m 18.97673,2.02672 0.3701,0.0737 c 0.14832,0.51709 0.73702,1.69871 0.73702,1.69871 0,0 -0.29441,0 -0.44191,-0.3681 C 19.34683,2.69131 18.97673,2.02672 18.97673,2.02672 m -3.54425,1.47731 c 0,0 0.0731,1.10791 1.10722,1.99383 1.03472,0.88651 3.39594,0.29639 -1.10722,-1.99383 m 0,-1.32912 c 0,0 -0.2213,0.2944 0.0731,0.5164 0.29572,0.22262 2.58524,0.88582 3.10154,2.73275 0.51782,1.84622 -3.61864,0.59012 -3.54343,-2.21643 0,0 -2.21574,-0.36812 -2.73283,0.5171 0,0 3.83993,0.88721 4.80096,3.98944 0,0 2.14131,0.36891 2.80382,-1.10849 C 20.60226,5.12895 17.57442,2.69131 15.43248,2.17491 M 6.93907,0.8451 c 0,0 0.88663,0.4426 0,1.32981 -0.8865,0.88652 -2.65832,0.07381 -1.18162,-1.47671 0,0 -0.29509,-0.66591 -2.06823,-0.22261 -1.77171,0.44319 -2.14122,2.28942 -1.4766,3.10154 0,0 2.80583,-1.99301 9.67431,0.07379 0,0 0.44393,-1.10719 3.10155,-0.95961 l 0.14828,-0.5164 c 0,0 -2.0682,-1.55041 -8.19769,-1.32981 M 6.20006,0.91878 c 0,0 -1.25472,0.51712 -0.51641,1.03412 C 6.42276,2.46931 6.64406,1.3614 6.20006,0.91878 M 1.6962,8.08308 c 0,0 1.10722,-1.1817 2.51083,-1.40292 0,0 -1.10791,-0.73979 -1.99441,-2.36333 0,0 -2.215,1.40293 -0.51642,3.76625 m 1.10722,4.72648 c 0,0 0.44391,-0.96032 1.25601,-1.62494 0,0 -1.77311,-1.55111 -2.28943,-2.28881 0,0 -1.10722,2.06751 1.03342,3.91375 m -0.14821,6.79339 c 0,0 0.59212,-1.03273 1.99443,-1.47605 0,0 -1.25541,-0.73899 -1.7718,-1.1816 0,0 -0.66522,0.81141 -0.22263,2.65765 m -0.2944,1.03409 c 0,0 -0.59081,1.18223 -0.29509,2.65965 0,0 1.10789,-1.03482 1.47601,-1.18162 0,0 -0.88652,-0.88721 -1.18092,-1.47803 M 1.2516,27.50613 c 0,0 0.89882,-0.9562 2.45203,-1.73831 C 2.86832,25.23242 2.35602,24.4879 2.1361,24.11288 1.3827,24.82051 0.8506,25.89693 1.2516,27.50613 m -0.3675,4.06055 c 0,0 1.18162,-1.034 1.91932,-1.3277 L 1.326,28.31825 c 0,0 -1.03341,1.77242 -0.4419,3.24843 m 0.1469,4.35837 c 0,0 0.96102,-0.95963 2.21633,-1.40291 0,0 -1.40361,-1.18162 -2.36323,-2.06814 0,0 -1.18229,0.66452 0.1469,3.47105 M 0.3664,38.8785 c 0.5908,1.69862 2.36321,1.9206 2.36321,1.9206 0,0 0.81212,-2.58523 3.47045,-1.2554 l 0.81282,-0.6652 c 0,0 -3.10164,0 -5.83438,-2.36326 0,0 -1.40218,0.66523 -0.8121,2.36326 m 3.47044,5.02296 c 0.8872,0.51568 1.92061,-0.59221 1.92061,-0.59221 0,0 -0.2206,-0.95961 -0.2206,-1.40224 L 3.09912,41.38992 c 0,0 -0.4801,1.80052 0.73772,2.51154 m 2.21573,-3.98888 c 0,0 -1.99314,-1.40289 -3.02713,1.03342 l 2.51141,0.51771 c 0,0 0.0731,-1.0334 0.51572,-1.55113 m 1.1078,4.13497 C 8.4896,44.27095 8.342,42.20143 8.19519,41.98073 H 5.90497 c 0,0 -0.07302,1.84692 1.2554,2.06682 M 6.79086,40.2828 c 0,0 -0.73829,0.5163 -0.66389,1.40221 0,0 1.32921,0.07381 1.84622,0 0,0 -0.73901,-1.18161 -1.18233,-1.40221 m 5.76198,0.6632 c 1.84552,-0.6632 1.77045,-2.51013 0.44121,-2.87892 0,0 -2.36322,1.25472 -4.79886,0.81142 0,0 -0.51712,0.4433 -1.10921,1.10778 0,0 0.96102,0.88663 1.25602,1.55184 0,0 2.36332,0.07241 4.21084,-0.59212 M 8.564,38.58267 c 0,0 2.73284,0.29583 3.54423,-0.73759 0,0 -1.62361,-0.37023 -3.54423,0.73759 m 3.98884,-3.32283 c 0,0 -3.61934,1.92063 -8.34581,-0.22059 0,0 -1.55182,0.22059 -2.88103,1.1809 0,0 2.21573,2.06823 6.0557,2.28954 0,0 2.43773,-2.43703 6.20456,-1.10861 0,0 1.10722,-1.77173 -1.03342,-2.14124 m -7.8288,-0.36882 c 0,0 3.76556,1.92064 7.60682,0.0744 0,0 -2.73345,-1.18229 -7.60682,-0.0744 m 9.30552,-2.2151 c -0.22199,-1.40422 -2.14263,-1.69864 -2.14263,-1.69864 0,0 -1.77182,1.32852 -4.57833,1.10782 -2.80585,-0.22191 -3.69376,-1.32982 -3.69376,-1.32982 0,0 -1.91864,0.5908 -2.43634,1.47812 0,0 1.47671,1.47592 2.36323,2.06683 0,0 5.16976,-2.28953 9.52683,0.22191 0,0 1.18161,-0.44392 0.961,-1.84622 M 4.05943,30.75528 c 0,0 3.84066,2.28952 7.53241,0 0,0 -4.35766,-0.81282 -7.53241,0 m 7.97571,-4.06195 c 0,0 -3.98814,2.06892 -7.45929,-0.36881 0,0 -1.77243,0.59012 -3.10223,1.77114 l 1.55182,2.06881 c 0,0 5.68605,-1.84622 9.30542,0.44332 0,0 3.39674,-2.28954 -0.29572,-3.91446 m -7.0898,-0.44261 c 0,0 3.32226,2.06753 6.72028,0.1483 0,0 -2.73212,-1.32992 -6.72028,-0.1483 m 8.27071,-1.62554 c 0.14821,-1.03408 -1.32912,-1.99371 -1.32912,-1.99371 0,0 -3.47114,1.77313 -7.23729,0.22191 0,0 -1.27041,0.2377 -2.28743,1.06142 0.00811,0.01708 0.0163,0.03349 0.03,0.0526 0.222,0.37699 0.76363,1.153 1.62563,1.64751 1.95273,-0.90031 4.81186,-1.44941 8.16479,0.26561 0,0 0.88593,-0.22059 1.03342,-1.25534 m -8.1232,-2.0675 c 0,0 3.02785,1.25542 5.61247,0.14749 0,0 -1.77182,-1.1078 -5.61247,-0.14749 m 7.7551,-2.36324 c -0.1482,-0.96042 -1.03481,-1.25541 -1.03481,-1.25541 0,0 -3.32354,1.69801 -6.20319,-0.29511 0,0 -2.21572,0.44331 -3.02783,1.92073 0,0 0.81211,1.40152 1.32912,1.40152 0,0 3.98885,-2.21504 8.19699,0.0744 0,0 0.88582,-0.88652 0.73972,-1.84613 M 6.05257,18.57022 c 0,0 2.43703,1.40222 4.94845,0.2206 0,0 -1.91932,-1.03411 -4.94845,-0.2206 m 5.61305,-3.02853 c 0,0 -2.87961,1.03411 -6.35147,-0.59081 0,0 -1.47731,0.517 -2.21503,1.62492 0,0 1.33052,1.1071 1.91933,1.3291 0,0 4.21086,-1.55041 6.94218,0.44334 0,0 1.84694,-1.62423 -0.29501,-2.80655 M 5.75745,14.80267 c 0,0 1.84692,1.18223 5.61378,0.51702 0,0 -2.58522,-1.40293 -5.61378,-0.51702 M 3.02544,13.62166 c 0,0 -0.51783,0.8121 0.07368,2.14204 0,0 1.25612,-1.18173 1.55052,-1.18173 z m 9.5274,-1.18231 c 0,0 -4.28524,1.40432 -7.3862,-1.10712 0,0 -1.40291,0.29571 -1.99303,1.92062 l 1.84484,1.10723 c 0,0 0.739,-0.73842 2.95474,-0.81212 2.21571,-0.07379 4.13504,1.47662 4.13504,1.47662 0,0 2.06813,-0.96031 0.44461,-2.58523 M 5.46236,11.25842 c 0,0 3.24913,1.99443 6.57278,0.88591 0,0 -2.80583,-1.92003 -6.57278,-0.88591 m 8.63961,-1.10789 c 0,0 -5.02027,0.44259 -9.00912,-2.88025 0,0 -1.91924,0.0737 -3.10083,1.32982 0,0 1.99303,2.28952 2.51073,2.43702 0,0 4.57895,-2.14131 8.05009,0.81212 0,0 1.54913,0 1.54913,-1.69871 M 5.46236,7.27028 c 0,0 4.35707,3.02783 8.4927,2.58523 0,0 -0.8865,-1.47811 -3.47044,-2.21504 C 7.90009,6.90138 5.46236,7.27028 5.46236,7.27028 M 16.6865,7.41849 c 0,0 -1.84481,-2.21575 -4.50387,-3.10166 0,0 -0.2957,2.06754 4.50387,3.10166 m 0.1482,0.44258 c 0,0 -4.87407,-0.6653 -5.09466,-3.47115 0,0 -6.94289,-1.92061 -9.23243,-0.22059 0,0 1.10723,2.06753 2.14203,2.36325 0,0 6.6472,-1.47733 9.67365,3.24913 0,0 2.51141,0 2.51141,-1.92064 M 29.68576,2.91393 c -0.37019,1.4029 -2.43773,0.5171 -2.73343,-0.29642 -0.29509,-0.81141 0.961,-0.51709 0.961,-0.51709 0,0 -1.10779,0 -0.517,0.66459 0.90431,1.01772 1.84613,0.44262 1.99373,0.0745 C 29.53757,2.46931 29.31557,1.5096 27.54385,1.0677 25.77072,0.6245 24.44218,0.7706 24.44218,0.7706 c 0.88663,0.2971 1.69873,1.32982 1.69873,1.32982 1.69802,1.99443 0,2.65832 -1.55111,1.77321 C 23.03929,2.98773 22.96558,1.2877 22.96558,1.2877 23.92519,3.87363 25.84512,4.24313 26.36221,3.72473 26.87923,3.20763 24.66219,1.2139 22.74428,0.99258 20.82356,0.7706 20.38095,1.3614 20.38095,1.3614 25.84512,4.02115 23.70319,5.64606 22.44707,5.42406 21.19176,5.20274 20.82356,4.53815 20.82356,4.53815 21.78328,5.35097 23.777,5.42406 23.555,4.38992 23.33507,3.35652 21.04485,2.24872 19.49515,1.8061 c -1.55254,-0.4447 -3.10305,0 -3.10305,0 3.76624,1.40153 4.57836,3.76546 3.84064,5.09528 -0.73759,1.32851 -3.02783,1.10792 -3.02783,1.10792 -0.37021,2.28881 -2.65834,2.0682 -2.65834,2.0682 0.07381,1.77174 -1.62492,2.06683 -1.62492,2.06683 0,0 0.5908,0.51702 0.5908,1.47733 0,0.96031 -1.18159,1.69803 -1.18159,1.69803 0,0 0.81149,0.51841 0.81149,1.55113 0,1.03408 -0.95972,1.7731 -0.95972,1.7731 0,0 1.10793,0.36881 1.10793,1.62424 0,1.2554 -0.9597,2.06752 -0.9597,2.06752 0,0 1.32991,0.96101 1.40361,2.06892 0.0731,1.1078 -1.18163,1.69792 -1.18163,1.69792 1.32782,0.88591 1.62352,1.77312 1.62352,2.65973 0,0.88521 -1.40291,1.91924 -1.40291,1.91924 0,0 1.40291,0.5164 1.69802,1.92073 0.2971,1.4015 -1.10721,2.06682 -1.10721,2.06682 2.43704,1.77241 0.222,3.02853 0.222,3.02853 1.5505,0.6639 1.62492,2.21501 -0.2957,3.24843 -1.91933,1.03473 -4.80096,1.03473 -4.80096,1.03473 0,0 0.3695,1.84692 -0.81153,2.21512 -1.18161,0.36882 -1.69931,-0.5909 -1.69931,-0.5909 0,0 -0.88591,1.03412 -2.06752,0.5909 C 2.23991,43.56944 2.72961,41.09422 2.72961,41.09422 1.47362,40.57712 0.37248,40.179 0.07129,38.73099 -0.29819,36.95845 0.8841,36.22015 0.8841,36.22015 -0.8897,33.11852 0.66278,32.15889 0.66278,32.15889 -0.29819,30.01627 1.1054,27.80125 1.1054,27.80125 -0.00238,25.21672 1.91751,23.6655 1.91751,23.6655 1.1785,21.15405 2.50761,20.04614 2.50761,20.04614 1.6218,18.05312 2.80342,16.2807 2.80342,16.2807 1.99202,14.28627 2.72961,13.17836 2.72961,13.17836 -0.22368,10.44632 1.6218,8.3774 1.6218,8.3774 -0.59319,6.16306 1.91751,3.72473 1.91751,3.72473 1.77,3.50403 0.8841,1.5096 3.02544,0.47559 5.40987,-0.67528 6.27458,0.6245 6.27458,0.6245 c 5.31726,-1.4036 9.3047,0.95962 9.3047,0.95962 C 17.4255,0.32799 19.19864,1.0677 19.19864,1.0677 20.38095,-0.41028 23.555,0.47559 23.555,0.47559 27.32254,-0.6316 30.05528,1.5096 29.68576,2.91393"
               style="fill:#000000;fill-opacity:1;fill-rule:nonzero;stroke:#000000;stroke-width:0.3985;stroke-linecap:butt;stroke-linejoin:miter;stroke-miterlimit:10;stroke-dasharray:none;stroke-opacity:1"
               id="path20" /></g></g></g></g></g></svg>
