<?xml version="1.0" encoding="UTF-8" standalone="no"?>
<svg
   xmlns:dc="http://purl.org/dc/elements/1.1/"
   xmlns:cc="http://creativecommons.org/ns#"
   xmlns:rdf="http://www.w3.org/1999/02/22-rdf-syntax-ns#"
   xmlns:svg="http://www.w3.org/2000/svg"
   xmlns="http://www.w3.org/2000/svg"
   xmlns:sodipodi="http://sodipodi.sourceforge.net/DTD/sodipodi-0.dtd"
   xmlns:inkscape="http://www.inkscape.org/namespaces/inkscape"
   version="1.1"
   id="svg2"
   xml:space="preserve"
   width="64.293335"
   height="41.253334"
   viewBox="0 0 64.293335 41.253334"
   sodipodi:docname="vectorian114.pdf"><metadata
     id="metadata8"><rdf:RDF><cc:Work
         rdf:about=""><dc:format>image/svg+xml</dc:format><dc:type
           rdf:resource="http://purl.org/dc/dcmitype/StillImage" /></cc:Work></rdf:RDF></metadata><defs
     id="defs6" /><sodipodi:namedview
     pagecolor="#ffffff"
     bordercolor="#666666"
     borderopacity="1"
     objecttolerance="10"
     gridtolerance="10"
     guidetolerance="10"
     inkscape:pageopacity="0"
     inkscape:pageshadow="2"
     inkscape:window-width="640"
     inkscape:window-height="480"
     id="namedview4" /><g
     id="g10"
     inkscape:groupmode="layer"
     inkscape:label="vectorian114"
     transform="matrix(1.3333333,0,0,-1.3333333,0,41.253333)"><g
       id="g12"
       transform="translate(72,-41.062)"><g
         id="g14"
         transform="translate(-71.495,41.821)"><g
           id="g16"><g
             id="g18"><path
               d="M 4.00024,0.41728 C 0.5291,-0.17348 -0.505,1.377 0.89859,2.63231 2.30151,3.88843 7.76637,3.81464 9.90833,2.48412 c 0,0 -2.43703,-1.47602 -5.90809,-2.06684 M 27.55833,23.8279 c 1.84694,2.51081 4.28387,4.21016 5.83439,4.80026 1.55111,0.59149 3.91435,0.59149 4.28385,-1.40293 0.3689,-1.99373 -4.65207,-9.97003 -14.99229,-12.18505 0,0 3.02783,6.27697 4.87405,8.78772 M 37.74968,10.83063 C 35.75594,6.02966 29.99606,2.04152 25.26952,1.377 20.54305,0.7124 18.03221,1.9684 15.964,2.48412 c -2.06813,0.5177 -3.69236,0.88731 -3.69236,0.88731 0,0 4.94098,2.95543 7.016,5.98257 1.77242,2.58454 2.95403,5.31598 2.95403,5.31598 6.49829,1.10712 9.89563,3.91574 12.70216,6.57338 2.80585,2.65834 4.28325,6.42447 1.77243,7.68061 -2.51004,1.2554 -5.90808,-0.95902 -9.08352,-4.13506 -3.17603,-3.17676 -6.72087,-9.74873 -6.72087,-9.74873 -0.29513,-0.14891 -5.46489,-1.84623 -9.37934,0.73692 -3.91433,2.5859 -2.80585,5.68758 -1.18163,8.1246 1.62493,2.43701 7.23731,5.17044 10.63535,4.21015 3.39676,-0.95972 2.51013,-4.57906 1.25542,-6.2777 -1.25542,-1.69871 -4.13565,-3.76683 -7.01669,-3.02781 -2.88034,0.73831 -2.28882,3.10163 -0.44262,4.87405 1.84694,1.77243 4.72658,2.06811 4.72658,2.06811 -3.32364,0.81212 -7.60689,-2.95472 -6.49899,-5.46476 1.10782,-2.51152 5.53868,-2.88033 8.78842,0.66522 3.24913,3.54425 1.32921,6.05498 1.32921,6.05498 -2.36333,3.17543 -10.26512,1.92003 -13.29297,-2.51073 -3.02853,-4.43077 -1.18163,-7.3118 2.14122,-9.30482 3.32295,-1.99444 8.64091,-0.6653 8.64091,-0.6653 0,0 -0.29499,-0.81212 -2.21571,-4.28327 C 16.4804,6.76878 11.75453,3.52032 11.75453,3.52032 4.22154,4.99565 0.15959,3.44583 0.01198,1.82022 -0.13548,0.19598 1.0461,-0.17348 4.00024,0.12088 c 2.95403,0.2964 6.49887,2.21713 6.49887,2.21713 0,0 -0.5177,0.2943 3.91378,-1.18171 4.43144,-1.478 10.30401,-1.9151 15.65687,1.18171 6.1295,3.54555 8.05011,8.49262 8.05011,8.49262 z"
               style="fill:#000000;fill-opacity:1;fill-rule:nonzero;stroke:#000000;stroke-width:0.3985;stroke-linecap:butt;stroke-linejoin:miter;stroke-miterlimit:10;stroke-dasharray:none;stroke-opacity:1"
               id="path20" /><path
               d="m 39.5966,20.13544 c -3.10165,-2.65833 -7.238,-4.72646 -9.97014,-5.39107 0,0 1.32923,2.58523 2.06754,4.50456 0.73909,1.92063 3.17603,5.61307 5.61247,7.6075 2.43694,1.99373 4.28386,2.14124 5.53926,1.10852 1.25612,-1.03412 -0.1475,-5.17117 -3.24913,-7.82951 m 4.06195,7.23869 c -0.73841,2.14064 -3.25055,1.62354 -4.57896,1.10722 -1.32991,-0.5164 -4.87407,-3.69244 -6.42528,-5.98257 -1.55113,-2.28954 -4.43075,-8.19701 -4.43075,-8.19701 0,0 -3.76685,-1.25602 -6.8684,0.5895 -3.10165,1.84683 -2.80653,5.83497 -1.32922,8.05012 1.47672,2.21571 7.3849,6.13075 10.19144,4.57895 2.80653,-1.55052 1.25531,-5.24217 -0.66462,-6.8678 -1.92062,-1.6242 -4.80026,-2.21501 -5.83438,-1.25612 -1.0341,0.96102 -0.5171,3.10236 1.25542,4.43148 1.77243,1.3292 3.17534,1.1079 3.17534,1.1079 -2.43703,0.6659 -5.68616,-2.28883 -5.16916,-4.65206 0.5164,-2.36331 4.06195,-2.06893 6.86778,0.22122 2.80655,2.28882 2.87964,5.68616 0.81282,7.08978 -2.06813,1.40293 -6.42517,0.59021 -9.37922,-2.14192 -2.95403,-2.73274 -3.84064,-7.08982 -1.18161,-9.89563 2.65895,-2.80653 7.7543,-1.62494 7.7543,-1.62494 0,0 -1.55112,-3.98885 -5.83438,-8.71529 C 17.73651,0.49109 11.53253,-0.17348 8.72668,0.7868 5.91946,1.74582 5.47685,5.29137 8.20898,8.7625 c 2.73276,3.47046 7.75432,4.87407 10.11835,3.54414 2.36322,-1.32841 1.84612,-4.28256 0.36948,-6.05498 -1.47742,-1.77243 -5.53935,-3.10153 -7.31178,-1.99441 -1.77242,1.10791 -1.55112,3.84134 1.03341,5.31737 2.58524,1.47601 4.35766,1.0354 4.35766,1.0354 -4.13564,1.84492 -7.016,-1.99511 -6.94219,-4.50657 0.07442,-2.51011 3.32355,-2.95332 5.76057,-2.28952 2.43773,0.6653 4.43146,2.95485 4.65276,4.94857 0.22133,1.99373 -0.59081,3.54414 -2.95333,4.28325 -2.36332,0.73832 -5.98269,0.1482 -8.41972,-2.06752 C 6.43727,8.7625 4.88605,4.25725 6.65857,1.96782 8.43098,-0.3217 11.75383,-0.3955 14.85619,0.63858 c 3.10153,1.03484 7.45858,2.80655 10.70841,6.79469 3.24917,3.98755 3.84067,6.8685 3.84067,6.8685 11.59423,2.95343 14.99088,10.92973 14.25328,13.07236"
               style="fill:#000000;fill-opacity:1;fill-rule:nonzero;stroke:#000000;stroke-width:0.3985;stroke-linecap:butt;stroke-linejoin:miter;stroke-miterlimit:10;stroke-dasharray:none;stroke-opacity:1"
               id="path22" /></g></g></g></g></g></svg>
