<?xml version="1.0" encoding="UTF-8" standalone="no"?>
<svg
   xmlns:dc="http://purl.org/dc/elements/1.1/"
   xmlns:cc="http://creativecommons.org/ns#"
   xmlns:rdf="http://www.w3.org/1999/02/22-rdf-syntax-ns#"
   xmlns:svg="http://www.w3.org/2000/svg"
   xmlns="http://www.w3.org/2000/svg"
   xmlns:sodipodi="http://sodipodi.sourceforge.net/DTD/sodipodi-0.dtd"
   xmlns:inkscape="http://www.inkscape.org/namespaces/inkscape"
   version="1.1"
   id="svg2"
   xml:space="preserve"
   width="178.35222"
   height="63.954166"
   viewBox="0 0 178.35222 63.954166"
   sodipodi:docname="vectorian002.pdf"><metadata
     id="metadata8"><rdf:RDF><cc:Work
         rdf:about=""><dc:format>image/svg+xml</dc:format><dc:type
           rdf:resource="http://purl.org/dc/dcmitype/StillImage" /></cc:Work></rdf:RDF></metadata><defs
     id="defs6"><clipPath
       clipPathUnits="userSpaceOnUse"
       id="clipPath24"><path
         d="M -0.2,0 H 133.80171 V 48.00061 H -0.2 Z"
         id="path22" /></clipPath></defs><sodipodi:namedview
     pagecolor="#ffffff"
     bordercolor="#666666"
     borderopacity="1"
     objecttolerance="10"
     gridtolerance="10"
     guidetolerance="10"
     inkscape:pageopacity="0"
     inkscape:pageshadow="2"
     inkscape:window-width="640"
     inkscape:window-height="480"
     id="namedview4" /><g
     id="g10"
     inkscape:groupmode="layer"
     inkscape:label="vectorian002"
     transform="matrix(1.3333333,0,0,-1.3333333,-5.9665934e-4,63.954165)"><g
       id="g12"
       transform="translate(72,-24)"><g
         id="g14"
         transform="translate(-71.8,24)"><g
           id="g16"><g
             id="g18"><g
               id="g20"
               clip-path="url(#clipPath24)"><path
                 d="M 132.9565,23.3774 C 131.36998,31.9189 119.19011,48.15121 83.39935,47.75941 47.6182,47.3675 30.70728,35.17494 28.74466,22.98558 26.77904,10.79301 38.18459,9.21921 38.18459,9.21921 c 8.25479,9.83491 42.86035,28.70517 50.72323,30.28218 7.86611,1.57393 8.65624,0 8.65624,0 C 93.23119,38.7145 83.79437,33.99611 75.14467,27.70393 66.49484,21.41177 48.40831,7.64848 33.06801,5.28775 17.73091,2.93013 11.43874,5.68275 6.72357,11.57993 1.99881,17.4803 7.50728,23.3774 11.43874,22.19548 15.37338,21.01665 9.1225,16.9705 14.97829,15.9033 c 4.32655,-0.78382 4.71515,4.32645 4.71515,4.32645 0.7933,4.72156 -2.35433,7.07909 -6.68088,7.8692 C 8.68929,28.88596 1.99881,27.30884 0.43129,20.62474 -1.1425,13.94067 0.8232,3.71384 19.30484,0.5662 c 18.48793,-3.14132 34.60873,7.47417 48.76703,14.94839 14.15507,7.47099 32.63661,22.8049 45.21786,20.84236 12.58447,-1.97212 15.34031,-10.23003 15.34031,-15.73221 0,-5.50526 -2.35762,-11.79744 -10.23003,-11.40553 -7.8597,0.395 -6.67769,6.29538 -5.50208,8.26109 1.17873,1.96574 2.75585,3.14444 0,4.32327 -2.74953,1.18201 -7.46789,-0.3918 -9.83181,-4.32327 -2.35764,-3.93144 -1.16922,-16.8249 14.15828,-17.30601 12.58126,-0.39188 17.69783,12.58447 15.7321,23.20311 z"
                 style="fill:#000000;fill-opacity:1;fill-rule:nonzero;stroke:#000000;stroke-width:0.3985;stroke-linecap:butt;stroke-linejoin:miter;stroke-miterlimit:10;stroke-dasharray:none;stroke-opacity:1"
                 id="path26" /></g></g></g></g></g></g></svg>
