<?xml version="1.0" encoding="UTF-8" standalone="no"?>
<svg
   xmlns:dc="http://purl.org/dc/elements/1.1/"
   xmlns:cc="http://creativecommons.org/ns#"
   xmlns:rdf="http://www.w3.org/1999/02/22-rdf-syntax-ns#"
   xmlns:svg="http://www.w3.org/2000/svg"
   xmlns="http://www.w3.org/2000/svg"
   xmlns:sodipodi="http://sodipodi.sourceforge.net/DTD/sodipodi-0.dtd"
   xmlns:inkscape="http://www.inkscape.org/namespaces/inkscape"
   version="1.1"
   id="svg2"
   xml:space="preserve"
   width="182.77333"
   height="222.52"
   viewBox="0 0 182.77333 222.52"
   sodipodi:docname="vectorian065.pdf"><metadata
     id="metadata8"><rdf:RDF><cc:Work
         rdf:about=""><dc:format>image/svg+xml</dc:format><dc:type
           rdf:resource="http://purl.org/dc/dcmitype/StillImage" /></cc:Work></rdf:RDF></metadata><defs
     id="defs6"><clipPath
       clipPathUnits="userSpaceOnUse"
       id="clipPath24"><path
         d="M -0.67448,-1.1434 H 133.0907 V 165.75362 H -0.67448 Z"
         id="path22" /></clipPath></defs><sodipodi:namedview
     pagecolor="#ffffff"
     bordercolor="#666666"
     borderopacity="1"
     objecttolerance="10"
     gridtolerance="10"
     guidetolerance="10"
     inkscape:pageopacity="0"
     inkscape:pageshadow="2"
     inkscape:window-width="640"
     inkscape:window-height="480"
     id="namedview4" /><g
     id="g10"
     inkscape:groupmode="layer"
     inkscape:label="vectorian065"
     transform="matrix(1.3333333,0,0,-1.3333333,0,222.52)"><g
       id="g12"
       transform="translate(72,94.895)"><g
         id="g14"
         transform="translate(-71.326,-93.751)"><g
           id="g16"><g
             id="g18"><g
               id="g20"
               clip-path="url(#clipPath24)"><path
                 d="m 130.46407,33.8164 c 0.006,1.66404 -0.0736,3.32805 -0.2688,5.0081 -0.10561,0.912 -0.27681,1.808 -0.47362,2.70402 3.25284,2.12802 3.36804,7.8241 1.38403,10.62413 -2.25602,3.20005 -9.16972,6.35208 -9.26253,10.43215 -0.0944,4.19204 5.01767,2.68803 5.01767,2.68803 0,0 0.81922,4.88005 -2.84643,6.03207 -3.66565,1.16802 -7.0401,-1.20001 -6.80489,-5.44008 0.1232,-2.12802 1.1488,-4.43203 2.99524,-6.41607 3.36324,-3.63205 8.00489,-5.16806 9.64812,-8.68811 1.21762,-2.62404 0.47681,-5.21607 -0.88481,-6.56009 -1.56162,4.60807 -4.39685,8.76812 -8.39372,12.36816 -0.0352,0.08 -0.0816,0.16 -0.15679,0.24001 -0.0624,0.048 -0.50081,0.43202 -1.27681,0.992 -3.51047,2.84804 -7.7857,5.31208 -12.78576,7.2961 -13.02577,5.16809 -15.74582,10.28814 -16.68822,14.59221 -1.40644,6.44807 2.32803,13.08815 8.8817,15.7762 3.78725,1.55201 7.71211,1.50401 11.04975,-0.12803 3.35044,-1.63202 5.86568,-4.70405 6.9073,-8.4321 0.94882,-3.39205 0.2528,-7.1201 -1.81284,-9.72813 -1.65602,-2.09602 -3.98084,-3.16803 -6.51848,-3.05604 -2.71364,0.11201 -5.00006,1.34404 -6.44168,3.45607 -1.32802,1.952 -1.75522,4.46405 -1.08641,6.40007 0.25279,0.736 0.5408,1.29602 0.83999,1.72801 l 0.41602,0.224 c 1.54082,1.82403 2.91522,0.49602 2.89284,-0.84799 -0.024,-1.42402 0.57921,-2.14403 1.68802,-2.33603 1.10881,-0.19202 2.99043,0.48001 2.77124,2.80003 -0.2144,2.30403 -3.14246,4.11205 -6.19687,3.24805 -2.82086,-0.80002 -3.81127,-4.27207 -3.81127,-4.27207 l 0.31201,0.15999 c -0.0384,-0.09598 -0.07841,-0.17599 -0.1152,-0.28798 -0.80961,-2.33603 -0.33441,-5.21608 1.23682,-7.52011 1.67201,-2.46402 4.31205,-3.88805 7.44168,-4.03204 2.93123,-0.12801 5.65288,1.13601 7.56491,3.53605 2.31843,2.92803 3.10083,7.08809 2.04321,10.88013 -1.13439,4.06406 -3.89604,7.44009 -7.57129,9.23212 -3.67524,1.79202 -7.9681,1.84002 -12.09456,0.16 C 90.93556,93.70518 86.88272,86.4731 88.42352,79.417 c 1.43683,-6.57607 6.6593,-11.21615 17.46263,-15.50419 1.96802,-0.784 3.81285,-1.64801 5.55368,-2.57605 -2.07522,0.57602 -4.47206,0.96002 -7.18251,0.96002 -0.024,0 -0.048,0 -0.0672,0 C 86.2635,62.2488 79.51141,47.64061 79.34021,37.81647 c -0.07041,-4.25606 0.2368,-8.86411 2.96164,-13.58417 3.20003,-5.5521 8.8305,-8.81612 15.44659,-8.96011 0.15361,0 0.30082,0 0.44641,0 4.77286,0 8.71051,1.61601 11.71056,4.81605 4.14404,4.43207 5.62087,11.15215 5.24326,15.5362 -0.3936,4.52806 -2.09282,8.22412 -4.78725,10.43214 -2.06242,1.68001 -4.65608,2.40002 -7.51851,2.08002 -1.36963,-0.16 -2.53442,-0.52799 -3.53766,-1.04001 l -0.37279,0.048 c 0,0 -4.08644,-1.92003 -5.85926,-7.31209 -1.96804,-5.98407 1.6656,-11.61615 6.18725,-11.68016 4.52327,-0.08 6.3297,5.20008 4.95688,8.49611 -1.37442,3.29605 -3.47685,3.12006 -3.47685,3.12006 0,0 0.40001,-2.24005 -1.55042,-2.68805 -0.97281,-0.20801 -1.94403,0.14401 -2.49765,0.83202 -0.65278,0.83201 -0.79359,2.09602 -0.61758,3.12004 0.3264,1.87204 2.57123,5.34407 7.23687,5.63208 l -0.9072,0.11198 c 0.19361,0.03202 0.37602,0.08002 0.57922,0.09601 2.54562,0.28801 4.75525,-0.32001 6.57128,-1.79202 2.38882,-1.96802 3.96485,-5.45609 4.32485,-9.56813 0.35681,-4.09606 -1.0272,-10.40014 -4.90567,-14.54418 -2.83522,-3.02405 -6.61607,-4.46406 -11.19693,-4.41606 -6.1633,0.12799 -11.40015,3.16805 -14.37298,8.3201 -2.42405,4.20805 -2.87204,8.20811 -2.79045,12.92818 0.16,9.31212 6.56968,23.18429 23.57791,23.2163 0.0224,0 0.0416,0 0.0624,0 7.19207,0 12.21615,-2.91204 14.27056,-4.35206 4.58727,-3.77606 7.7585,-8.27211 9.36173,-13.24819 -1.75043,-0.92799 -3.50244,-0.33598 -4.69124,2.38404 -1.35204,3.07203 -2.45924,6.65608 -5.40489,8.48012 -2.95044,1.84002 -7.7153,0.43201 -7.90729,-3.28005 -0.19362,-3.66404 2.31522,-4.62405 4.24326,-3.85605 0,0 -0.82082,3.04006 1.304,3.80805 1.88483,0.67201 3.47525,-0.48001 4.82565,-3.56804 1.41603,-3.24805 2.30885,-7.5041 7.56812,-6.60808 0.25599,0.04799 0.49121,0.11198 0.7216,0.192 0.16321,-0.75202 0.2944,-1.52003 0.384,-2.28805 0.18241,-1.58402 0.26241,-3.15203 0.26241,-4.68805 -0.99681,-0.17602 -1.75202,-1.04001 -1.75202,-2.09602 0,-0.96001 0.6528,-1.77602 1.53762,-2.03204 -0.64481,-6.08007 -2.70403,-11.76013 -5.9905,-16.43219 -3.72003,-1.00802 -6.02247,-5.04008 -10.40332,-7.96812 -5.20967,-3.47203 -11.38255,-3.66403 -11.38255,-3.66403 2.50725,0.28799 4.38887,2.41603 5.25607,4.14404 0.86882,1.74404 -0.0928,4.06404 -4.53285,3.23204 C 97.48604,8.36009 88.17712,3.49603 81.03943,8.02408 73.90173,12.55214 69.84889,19.36823 69.84889,19.36823 l -0.09761,-0.176 c -1.95683,3.08804 -2.76962,5.29608 -2.78883,5.36006 -0.02559,0.06401 -0.0656,0.12801 -0.1104,0.17601 v 4.86406 h 5.43367 c 0.63841,0 1.15683,0.51203 1.15683,1.15202 0,0.64 -0.51842,1.15202 -1.15683,1.15202 h -5.43367 v 11.26415 c 1.2912,0.304 2.25601,1.44001 2.25601,2.83202 0,1.37602 -0.96481,2.52804 -2.25601,2.81605 v 6.75208 l 0.20801,-1.84001 c 0,5.12005 1.63042,10.64013 4.41446,12.99217 1.352,1.13602 2.68001,1.056 3.01123,0.30399 0.39999,-0.89602 1.69441,-3.66404 4.24325,-2.51203 2.91043,1.312 1.75362,6.51208 -1.92802,6.56008 -3.62405,0.048 -9.73773,-4.43206 -9.73773,-11.26413 -0.07041,-0.22402 -0.13919,-0.46402 -0.2112,-0.68802 V 71.3529 l 2.53761,4.54406 c 0,0.68802 -1.6128,3.04005 -2.53761,4.32005 v 19.08824 c 1.36002,0.28801 2.43042,1.42403 2.53761,2.88005 0.12003,1.61602 -0.9936,3.02402 -2.53761,3.34404 v 8.65612 l 0.2096,-0.048 c 0,0 -0.12479,3.31204 1.10083,5.40806 1.9056,3.24805 4.49763,4.33605 6.96649,4.14405 4.05444,-0.32001 2.71042,-6.32009 2.71042,-6.32009 0,0 6.18408,2.38403 4.38404,7.47209 -1.8144,5.12007 -8.75689,3.79207 -11.79695,1.08803 -1.92961,-1.71202 -3.00802,-3.53604 -3.57443,-5.36008 v 8.16011 l 1.76321,3.69605 -1.76321,4.67206 v 28.03236 c 0,0.33602 -0.2848,0.62401 -0.63681,0.62401 -0.35362,0 -0.63841,-0.28799 -0.63841,-0.62401 v -28.03236 l -1.76322,-4.67206 1.76322,-3.69605 v -8.20811 c -0.56,1.85605 -1.64322,3.68005 -3.58723,5.40808 -3.04005,2.70404 -9.98255,4.03204 -11.79377,-1.08803 -1.80002,-5.08806 4.38086,-7.47209 4.38086,-7.47209 0,0 -1.34082,6.00008 2.71043,6.32009 2.46885,0.192 5.06246,-0.896 6.96968,-4.14405 1.22402,-2.09602 1.09603,-5.40806 1.09603,-5.40806 l 0.224,0.048 v -8.65612 c -1.3584,-0.28799 -2.42882,-1.42401 -2.53604,-2.88005 -0.1216,-1.61601 0.99362,-3.02403 2.53604,-3.34404 V 80.21701 c -0.9232,-1.28 -2.53604,-3.63203 -2.53604,-4.32005 L 65.57683,71.3529 V 59.06474 c -0.07361,0.24001 -0.14881,0.49601 -0.224,0.73603 0,6.83207 -6.11368,11.31213 -9.73613,11.26413 -3.68324,-0.048 -4.84006,-5.24808 -1.92963,-6.56008 2.55043,-1.15201 3.84326,1.61601 4.24486,2.51203 0.33281,0.75201 1.65762,0.83203 3.00804,-0.30399 2.78723,-2.35204 4.41446,-7.87212 4.41446,-12.99217 l 0.2224,1.96801 v -6.88008 c -1.2896,-0.28801 -2.25444,-1.44003 -2.25444,-2.81605 0,-1.39201 0.96484,-2.52802 2.25444,-2.83202 V 31.8964 h -5.43209 c -0.63999,0 -1.15519,-0.51202 -1.15519,-1.15202 0,-0.63999 0.5152,-1.15202 1.15519,-1.15202 h 5.43209 V 24.74431 C 65.52562,24.6963 65.48242,24.6163 65.45682,24.55229 65.43602,24.48831 64.6248,22.26428 62.6664,19.19223 l -0.09761,0.176 c 0,0 -4.05124,-6.81609 -11.18895,-11.34415 -7.14249,-4.52805 -16.44821,0.33601 -20.88668,1.15202 -4.43844,0.832 -5.40166,-1.488 -4.53444,-3.23204 0.86881,-1.72801 2.74885,-3.85605 5.25766,-4.14404 0,0 -6.17448,0.192 -11.38253,3.66403 -4.37926,2.92804 -6.68648,6.9601 -10.40334,7.96812 -3.28645,4.67206 -5.34569,10.35212 -5.99048,16.43219 0.8848,0.25602 1.54084,1.07203 1.54084,2.03204 0,1.05601 -0.76003,1.92 -1.75684,2.09602 0,1.53602 0.07999,3.10403 0.26401,4.68805 0.09118,0.76802 0.224,1.53603 0.38241,2.28805 0.23358,-0.08002 0.4688,-0.14401 0.72159,-0.192 5.26246,-0.89602 6.15369,3.36003 7.57131,6.60808 1.3488,3.08803 2.94082,4.24005 4.82245,3.56804 2.12643,-0.76799 1.30563,-3.80805 1.30563,-3.80805 1.92802,-0.768 4.43684,0.19201 4.24484,3.85605 -0.19519,3.71206 -4.95687,5.12007 -7.91051,3.28005 -2.94403,-1.82404 -4.05284,-5.40809 -5.40167,-8.48012 -1.1904,-2.72002 -2.94563,-3.31203 -4.69284,-2.38404 1.60641,4.99209 4.79205,9.48815 9.40012,13.28019 2.07683,1.45601 7.07528,4.32006 14.22898,4.32006 0.0224,0 0.0432,0 0.0656,0 17.00983,-0.03201 23.41951,-13.90418 23.57631,-23.2163 0.08,-4.72007 -0.36162,-8.72013 -2.78883,-12.92818 -2.97286,-5.15205 -8.21291,-8.19211 -14.37299,-8.3201 -4.57927,-0.064 -8.36333,1.39201 -11.19854,4.41606 -3.87526,4.14404 -5.25928,10.44812 -4.90409,14.54418 0.35681,4.11204 1.93604,7.60011 4.32486,9.56813 1.81444,1.47201 4.02084,2.08003 6.5697,1.79202 0.20479,-0.01599 0.39041,-0.06399 0.5856,-0.09601 L 29.10435,46.6646 c 4.66725,-0.28801 6.9105,-3.76004 7.23691,-5.63208 0.17438,-1.02402 0.03998,-2.28803 -0.61603,-3.12004 -0.55358,-0.68801 -1.52482,-1.04003 -2.49443,-0.83202 -1.95362,0.448 -1.5568,2.68805 -1.5568,2.68805 0,0 -2.09763,0.17599 -3.47205,-3.12006 -1.37442,-3.29603 0.4352,-8.57611 4.95688,-8.49611 4.52003,0.06401 8.15529,5.69609 6.18407,11.68016 -1.77283,5.39206 -5.85929,7.31209 -5.85929,7.31209 l -0.36799,-0.048 c -1.00803,0.51202 -2.17442,0.88001 -3.54085,1.04001 -2.85924,0.32 -5.45767,-0.40001 -7.5185,-2.08002 -2.69284,-2.20802 -4.39526,-5.90408 -4.78727,-10.43214 -0.37758,-4.38405 1.10083,-11.10413 5.24487,-15.5362 2.99843,-3.20004 6.9361,-4.81605 11.70735,-4.81605 0.14881,0 0.29921,0 0.44641,0 6.61609,0.14399 12.24816,3.40801 15.44821,8.96011 2.72323,4.72006 3.03203,9.32811 2.95842,13.58417 -0.16639,9.82414 -6.92009,24.43233 -24.84671,24.48031 -0.0224,0 -0.0448,0 -0.0672,0 -2.71043,0 -5.10568,-0.384 -7.17929,-0.96002 1.73761,0.92804 3.57923,1.79205 5.54886,2.57605 10.80333,4.28804 16.0242,8.92812 17.46263,15.50419 1.54241,7.0561 -2.51364,14.28818 -9.64012,17.23223 -4.12486,1.68002 -8.41931,1.63202 -12.09295,-0.16 -3.67525,-1.79203 -6.43529,-5.16806 -7.5729,-9.23212 -1.05761,-3.79204 -0.27522,-7.9521 2.04163,-10.88013 1.91682,-2.40004 4.63205,-3.66406 7.5697,-3.53605 3.12482,0.14399 5.76645,1.56802 7.44007,4.03204 1.56964,2.30403 2.04484,5.18408 1.23843,7.52011 -0.03681,0.11199 -0.07841,0.192 -0.11839,0.28798 l 0.31199,-0.15999 c 0,0 -0.98881,3.47205 -3.80964,4.27207 -3.05445,0.864 -5.98088,-0.94402 -6.19847,-3.24805 -0.21601,-2.32002 1.6656,-2.99205 2.77282,-2.80003 1.11042,0.192 1.71201,0.91201 1.68961,2.33603 -0.02559,1.34401 1.34723,2.67202 2.89445,0.84799 l 0.41442,-0.224 c 0.29759,-0.43199 0.5872,-0.99201 0.83839,-1.72801 0.66722,-1.93602 0.24161,-4.44807 -1.08481,-6.40007 -1.44162,-2.11203 -3.72966,-3.34406 -6.44168,-3.45607 -2.56003,-0.11199 -4.86406,0.97601 -6.51849,3.05604 -2.06882,2.60803 -2.76164,6.33608 -1.81282,9.72813 1.03842,3.72805 3.55365,6.80008 6.9057,8.4321 3.34244,1.63204 7.2641,1.68004 11.04814,0.12803 6.55527,-2.68805 10.29132,-9.32813 8.8817,-15.7762 C 41.80692,75.38496 39.08688,70.26491 26.06113,65.09682 21.06425,63.1128 16.7874,60.64876 13.27216,57.78471 12.49934,57.24074 12.06253,56.85672 12.00015,56.80872 11.92656,56.72871 11.87694,56.64871 11.84174,56.56871 7.8465,52.96867 5.00804,48.80862 3.44963,44.20055 2.08961,45.54457 1.34721,48.1366 2.56482,50.76064 c 1.64003,3.52005 6.28807,5.05606 9.64812,8.68811 1.84483,1.98404 2.87204,4.28805 2.99205,6.41607 0.2368,4.24007 -3.13765,6.6081 -6.8033,5.44008 -3.66565,-1.15202 -2.84484,-6.03207 -2.84484,-6.03207 0,0 5.11206,1.50401 5.01607,-2.68803 C 10.48332,58.50473 3.56802,55.3527 1.3136,52.15265 -0.6736,49.35262 -0.5552,43.65654 2.69922,41.52852 2.49922,40.6325 2.32962,39.7365 2.22401,38.8245 2.02881,37.14445 1.94722,35.48044 1.95522,33.8164 1.2368,33.48042 0.7328,32.74442 0.7328,31.8964 c 0,-0.91202 0.5952,-1.69604 1.4192,-1.98402 0.60642,-5.96809 2.53445,-11.55215 5.59689,-16.24022 -0.2,0 -0.39362,0.016 -0.60161,0 C 1.93921,13.33615 1.1184,8.5521 2.37282,5.65607 3.62723,2.76003 5.74886,2.37602 5.74886,2.37602 c 0,0 0.91682,3.77603 3.95524,3.96805 3.04004,0.192 4.34247,-1.84004 9.01933,-3.66406 C 22.12187,1.336 30.44199,-1.144 39.56209,0.6 c 0,0 0.80641,0.24 2.13763,0.752 1.54882,0.44802 2.96805,0.99201 4.24005,1.58402 11.67217,5.36008 17.44983,14.4962 19.63706,18.80023 V 7.43208 c -1.45122,-0.304 -2.54404,-1.58401 -2.54404,-3.12005 0,-1.76001 1.42401,-3.18403 3.18245,-3.18403 1.75682,0 3.18243,1.42402 3.18243,3.18403 0,1.53604 -1.0928,2.81605 -2.54562,3.12005 V 21.70425 C 69.05048,17.38422 74.82657,8.28009 86.4747,2.93602 87.7483,2.34401 89.16753,1.80002 90.71796,1.352 92.04918,0.84 92.8572,0.6 92.8572,0.6 c 9.11689,-1.744 17.4386,0.736 20.83544,2.08001 4.67847,1.82402 5.97928,3.85606 9.02252,3.66406 3.03684,-0.19202 3.95206,-3.96805 3.95206,-3.96805 0,0 2.12323,0.38401 3.37924,3.28005 1.25283,2.89603 0.4336,7.68008 -4.77926,8.01609 -0.2064,0.016 -0.40001,0 -0.60001,0 3.06244,4.68807 4.99048,10.27213 5.59688,16.24022 0.82561,0.28798 1.41922,1.072 1.41922,1.98402 0,0.84802 -0.49921,1.58402 -1.21922,1.92 z"
                 style="fill:#000000;fill-opacity:1;fill-rule:nonzero;stroke:#000000;stroke-width:0.3985;stroke-linecap:butt;stroke-linejoin:miter;stroke-miterlimit:10;stroke-dasharray:none;stroke-opacity:1"
                 id="path26" /></g></g></g></g></g></g></svg>
