<?xml version="1.0" encoding="UTF-8" standalone="no"?>
<svg
   xmlns:dc="http://purl.org/dc/elements/1.1/"
   xmlns:cc="http://creativecommons.org/ns#"
   xmlns:rdf="http://www.w3.org/1999/02/22-rdf-syntax-ns#"
   xmlns:svg="http://www.w3.org/2000/svg"
   xmlns="http://www.w3.org/2000/svg"
   xmlns:sodipodi="http://sodipodi.sourceforge.net/DTD/sodipodi-0.dtd"
   xmlns:inkscape="http://www.inkscape.org/namespaces/inkscape"
   version="1.1"
   id="svg2"
   xml:space="preserve"
   width="236.513"
   height="233.28461"
   viewBox="0 0 236.513 233.2846"
   sodipodi:docname="vectorian066.pdf"><metadata
     id="metadata8"><rdf:RDF><cc:Work
         rdf:about=""><dc:format>image/svg+xml</dc:format><dc:type
           rdf:resource="http://purl.org/dc/dcmitype/StillImage" /></cc:Work></rdf:RDF></metadata><defs
     id="defs6" /><sodipodi:namedview
     pagecolor="#ffffff"
     bordercolor="#666666"
     borderopacity="1"
     objecttolerance="10"
     gridtolerance="10"
     guidetolerance="10"
     inkscape:pageopacity="0"
     inkscape:pageshadow="2"
     inkscape:window-width="640"
     inkscape:window-height="480"
     id="namedview4" /><g
     id="g10"
     inkscape:groupmode="layer"
     inkscape:label="vectorian066"
     transform="matrix(1.3333333,0,0,-1.3333333,0.26566666,233.10305)"><g
       id="g12"
       transform="translate(72,103.184)"><g
         id="g14"
         transform="translate(-72,-103.12)"><g
           id="g16"><g
             id="g18"><path
               d="m 171.1958,18.25621 c -4.46086,2.83205 -12.40176,4.11206 -21.31068,-0.80002 -3.63205,-2.016 -6.78569,-4.03203 -9.83853,-5.98405 -8.1473,-5.20008 -14.58579,-9.32814 -24.35552,-9.60013 -18.84024,0.528 -23.5811,15.53621 -24.1891,17.80823 0,2.32002 0,7.7921 0,10.41613 0,3.37606 4.16804,8.73612 4.16804,8.73612 0,0 -5.16165,4.96007 -5.16165,7.9361 0,2.97604 0,9.72813 0,19.64825 0,9.92014 17.06742,22.81628 21.23708,26.40033 4.16644,3.56807 0.9904,5.36008 -0.39842,2.97606 -1.38721,-2.38405 -5.35846,-6.1601 -8.13772,-6.1601 -2.77761,0 -8.13449,0 -8.13449,0 0,0 0,0 -0.99361,-3.37603 -0.99201,-3.37604 -4.16805,-2.17603 -3.97125,0 0.20002,2.19201 4.76487,7.3441 4.76487,7.3441 0,0 -5.3601,4.76805 -5.3601,15.68019 0,10.91215 0.20002,13.88818 6.3521,21.04028 -5.95367,3.37604 -7.37291,16.28821 -7.37291,16.28821 0,0 -1.41921,-12.91217 -7.37449,-16.28821 6.15209,-7.1521 6.35209,-10.12813 6.35209,-21.04028 0,-10.91214 -5.35847,-15.68019 -5.35847,-15.68019 0,0 4.56486,-5.15209 4.76326,-7.3441 0.1984,-2.17603 -2.97763,-3.37604 -3.97124,0 -0.99202,3.37603 -0.99202,3.37603 -0.99202,3.37603 0,0 -5.35686,0 -8.13609,0 -2.77765,0 -6.74889,3.77605 -8.13771,6.1601 -1.38723,2.38402 -4.56487,0.59201 -0.39682,-2.97606 4.16807,-3.58405 21.23548,-16.48019 21.23548,-26.40033 0,-9.92012 0,-16.67221 0,-19.64825 0,-2.97603 -5.16006,-7.9361 -5.16006,-7.9361 0,0 4.16805,-5.36006 4.16805,-8.73612 0,-2.62403 0,-8.09611 0,-10.41613 C 84.87627,17.40822 80.13702,2.40001 61.29678,1.87201 51.52544,2.144 45.09016,6.27206 36.93967,11.47214 33.89001,13.42416 30.73318,15.44019 27.10114,17.45619 18.19383,22.36827 10.25291,21.08826 5.79047,18.25621 2.24002,16.0002 0.34879,12.56013 0.5984,8.81609 0.9472,3.56802 5.72327,0.592 10.25932,0.35199 14.42737,0.14398 17.5986,2.16 18.15062,5.36006 c 0.68961,4.04805 -1.47362,6.30408 -3.72646,7.0721 -1.07841,0.368 -2.19363,0.43199 -3.18563,0.224 0,0 -0.01439,0.032 -0.01439,0.032 -0.0208,-0.01601 -0.02561,-0.01601 -0.04802,-0.032 C 9.95853,12.40015 8.9345,11.76013 8.42409,10.80013 8.08969,10.1761 7.9473,9.5841 7.9473,9.0241 c 0,-1.26401 0.7744,-2.30402 1.78401,-2.89602 1.13121,-0.65603 2.29284,-0.59202 2.75844,0.15998 0.1696,0.27201 0.24,0.52801 0.24,0.76802 0,0.72002 -0.67201,1.28001 -1.07841,1.60003 -0.31522,0.256 -0.64,0.528 -0.80481,0.81599 -0.07041,0.12801 -0.10399,0.27201 -0.10399,0.43203 0,0.11198 0.01599,0.224 0.05118,0.336 0.07522,0.25599 0.33441,0.576 0.79362,0.89599 0.73921,0.14402 1.54881,0.16002 2.35362,-0.11198 C 14.98097,10.67212 17.33621,9.4241 16.6818,5.61606 16.1682,2.62401 12.94255,1.712 10.33612,1.84001 6.57446,2.04802 2.82242,4.11203 2.51521,8.68811 c -0.21119,3.18402 1.43204,6.12807 4.50887,8.08009 4.10245,2.62403 11.02093,3.98406 19.35864,-0.624 3.58885,-1.96804 6.7233,-3.98406 9.75693,-5.9201 0.31201,-0.20799 0.62561,-0.39999 0.93921,-0.608 -2.90563,0.384 -9.15531,0.8 -11.35375,-2.24002 C 22.8243,3.36003 25.57632,-0.06398 27.21474,0 c 1.19041,0.07999 -0.84001,7.9681 5.80486,7.9681 3.95365,0 7.1393,-0.81603 9.04972,-1.45603 C 47.98619,2.99203 54.01987,0.23999 61.68878,0.01599 78.70981,0.51198 86.1915,11.85614 88.49391,16.3842 90.79475,11.85614 98.27646,0.51198 115.30066,0.01599 c 7.66891,0.224 13.69939,2.97604 19.61627,6.49608 1.90881,0.64 5.09607,1.45603 9.05292,1.45603 6.64168,0 4.61285,-7.88811 5.80325,-7.9681 1.63684,-0.06398 4.39208,3.36003 1.48804,7.37608 -2.19843,3.04002 -8.4465,2.62402 -11.35216,2.24002 0.3136,0.20801 0.62562,0.40001 0.93922,0.608 3.03364,1.93604 6.16648,3.95206 9.75693,5.9201 8.33771,4.60806 15.2562,3.24803 19.35706,0.624 3.07843,-1.95202 4.72005,-4.89607 4.50883,-8.08009 -0.3056,-4.57608 -4.05764,-6.64009 -7.82089,-6.8481 -2.60644,-0.12801 -5.83047,0.784 -6.34569,3.77605 -0.6528,3.80804 1.70082,5.05606 2.74244,5.40808 0.8048,0.272 1.61442,0.256 2.35203,0.11198 0.45921,-0.31999 0.71841,-0.64 0.79523,-0.89599 0.0352,-0.112 0.0496,-0.22402 0.0496,-0.336 0,-0.16002 -0.0336,-0.30402 -0.10399,-0.43203 -0.16481,-0.28799 -0.4896,-0.55999 -0.8048,-0.81599 -0.40639,-0.32002 -1.07682,-0.88001 -1.07682,-1.60003 0,-0.24001 0.0688,-0.49601 0.24161,-0.76802 0.46399,-0.752 1.62402,-0.81601 2.75525,-0.15998 1.0112,0.592 1.7856,1.63201 1.7856,2.89602 0,0.56 -0.14559,1.152 -0.47681,1.77603 -0.51041,0.96 -1.53441,1.60002 -2.75363,1.85603 -0.0208,0.01599 -0.0256,0.01599 -0.048,0.032 0,0 -0.0128,-0.032 -0.0144,-0.032 -0.99203,0.20799 -2.10563,0.144 -3.18404,-0.224 -2.25442,-0.76802 -4.41608,-3.02405 -3.72646,-7.0721 0.55202,-3.20006 3.72164,-5.21608 7.8897,-5.00807 4.53607,0.24001 9.31373,3.21603 9.66254,8.4641 0.24798,3.74404 -1.64322,7.18411 -5.19367,9.44012 z"
               style="fill:#000000;fill-opacity:1;fill-rule:nonzero;stroke:#000000;stroke-width:0.3985;stroke-linecap:butt;stroke-linejoin:miter;stroke-miterlimit:10;stroke-dasharray:none;stroke-opacity:1"
               id="path20" /><path
               d="m 171.0326,31.40839 c 0,-1.68003 1.33442,-3.04004 2.97762,-3.04004 1.64482,0 2.97603,1.36001 2.97603,3.04004 0,1.69603 -1.33121,3.05604 -2.97603,3.05604 -1.6432,0 -2.97762,-1.36001 -2.97762,-3.05604 z"
               style="fill:#000000;fill-opacity:1;fill-rule:nonzero;stroke:#000000;stroke-width:0.3985;stroke-linecap:butt;stroke-linejoin:miter;stroke-miterlimit:10;stroke-dasharray:none;stroke-opacity:1"
               id="path22" /><path
               d="m 111.89102,127.79364 c 1.64643,0 2.97765,1.36 2.97765,3.04004 0,1.69602 -1.33122,3.05603 -2.97765,3.05603 -1.6432,0 -2.97602,-1.36001 -2.97602,-3.05603 0,-1.68004 1.33282,-3.04004 2.97602,-3.04004 z"
               style="fill:#000000;fill-opacity:1;fill-rule:nonzero;stroke:#000000;stroke-width:0.3985;stroke-linecap:butt;stroke-linejoin:miter;stroke-miterlimit:10;stroke-dasharray:none;stroke-opacity:1"
               id="path24" /><path
               d="m 126.53442,74.88095 c -0.89442,-0.192 -1.95044,0.11202 -3.05444,0.88001 -2.56964,1.77603 -4.26086,2.75204 -6.50728,0.512 -1.26083,-1.26402 -0.0944,-2.86402 0.84322,-4.16004 1.3408,-1.85602 1.768,-2.75205 0.94401,-3.58405 -0.52322,-0.57602 -1.62403,-0.08 -3.01765,0.64 -1.20961,0.64001 -2.35204,1.23201 -3.22084,0.64001 -1.23042,-0.81601 -7.6353,-9.0401 -8.90734,-10.67213 -0.41438,-0.704 -0.64479,-1.18402 -0.36318,-1.61601 l 0.248,-0.38402 0.48159,0.032 c 0.87203,0.08001 2.54245,2.72004 2.98085,3.82406 2.95044,3.72805 5.81608,7.20008 6.38567,7.58409 0.23361,0.04799 1.15843,-0.432 1.71045,-0.72 1.4704,-0.76802 3.48483,-1.80804 4.78404,-0.35202 1.82883,1.82404 0.29601,3.93607 -0.82242,5.48809 -0.79359,1.08799 -1.32959,1.88801 -0.99359,2.22402 1.28961,1.28 1.89122,1.2 4.60645,-0.68801 1.45284,-0.99202 2.91044,-1.37604 4.21606,-1.10402 1.14401,0.25599 2.11203,0.99202 2.80002,2.12803 1.24803,2.09601 -0.6608,3.76004 -2.34561,5.24807 l -1.33763,1.23202 c -0.51999,0.51201 -0.58081,1.088 -0.18558,1.696 0.51198,0.80002 1.50079,1.21602 1.97762,1.04004 1.91203,-0.72002 2.19842,-0.41602 5.69447,3.24803 l 1.05601,1.10402 1.15201,1.216 c 4.43686,4.68808 11.86257,12.54418 17.30104,10.51215 1.82881,-0.688 2.17922,-2.09602 2.17922,-3.07204 0,-0.36801 -0.048,-0.67201 -0.088,-0.86401 -0.30721,-1.47202 -1.44162,-2.92806 -2.83205,-2.96005 -0.6528,0.28802 -0.9232,0.68801 -1.2192,1.16801 -0.37601,0.62402 -0.84322,1.39201 -2.12803,1.77603 -0.656,0.192 -1.03523,-0.12799 -1.16963,-0.272 -0.32478,-0.35201 -0.36801,-0.912 -0.12159,-1.50403 0.50401,-1.23201 2.06081,-2.52803 4.40806,-2.65602 2.34403,-0.12801 4.07685,2.03203 4.52007,4.14406 0.53278,2.52803 -0.65604,4.73605 -3.02565,5.63206 -6.36489,2.38404 -13.91219,-5.60006 -18.90584,-10.88014 l -1.14243,-1.21602 -1.06082,-1.10402 c -3.10243,-3.24802 -3.10243,-3.24802 -4.04164,-2.89602 -1.39841,0.528 -3.04804,-0.43201 -3.80324,-1.60003 -0.78242,-1.21601 -0.63841,-2.54403 0.38079,-3.56805 l 1.40963,-1.296 c 1.80962,-1.60002 2.60163,-2.43204 2.04961,-3.36004 -0.46719,-0.78402 -1.10399,-1.28004 -1.83521,-1.44003 z"
               style="fill:#000000;fill-opacity:1;fill-rule:nonzero;stroke:#000000;stroke-width:0.3985;stroke-linecap:butt;stroke-linejoin:miter;stroke-miterlimit:10;stroke-dasharray:none;stroke-opacity:1"
               id="path26" /><path
               d="m 17.3986,40.46451 c 3.18726,-0.06401 5.18728,0.44801 6.5137,1.12001 -0.9536,-1.16802 -1.82244,-2.68804 -1.82244,-4.75206 0,-1.18402 0.28482,-2.54404 1.00003,-4.08005 2.90404,-6.20808 10.71374,-7.8721 11.04492,-7.9521 l 0.99681,-0.19201 -0.10718,1.00802 c -0.0128,0.09599 -1.07841,10.83214 4.49126,17.36021 2.63364,3.08805 6.36168,4.78406 11.08014,5.04009 9.77773,0.51199 15.0674,-3.31206 17.78262,-6.6241 3.56966,-4.35207 4.90407,-10.51212 3.48645,-16.08022 -1.28161,-5.02406 -5.66728,-9.20012 -10.90893,-10.38414 -4.71368,-1.056 -9.23534,0.51203 -12.40657,4.33608 -2.58403,3.10403 -3.03203,6.99208 -1.20001,10.40013 1.83842,3.42404 5.48646,5.45607 9.07852,5.05606 3.36485,-0.368 4.71525,-2.57603 5.25445,-3.98406 -0.0096,-0.17599 -0.0048,-0.33599 -0.0048,-0.496 0,-1.87202 -0.60641,-2.94403 -1.21281,-3.32805 -0.45922,-0.28799 -1.00321,-0.27198 -1.61283,0.06401 l -0.76161,0.448 c -0.7312,0.46401 -1.36001,0.86402 -2.05922,0.64002 -0.43521,-0.14402 -0.76162,-0.48 -0.99843,-1.05602 -0.5504,-1.29602 -0.008,-2.75203 1.38724,-3.68003 1.50241,-1.00802 3.93445,-1.29603 5.72008,0.496 1.5568,1.55203 1.9824,4.52806 1.03839,7.20008 -1.03039,2.94403 -3.43043,4.81607 -6.58568,5.16808 -4.18724,0.464 -8.42891,-1.87203 -10.55693,-5.82408 -2.12803,-3.96805 -1.61601,-8.4641 1.36962,-12.06415 3.54405,-4.25606 8.60011,-6.0161 13.87857,-4.81607 5.77449,1.29602 10.60655,5.90407 12.02256,11.47215 1.53281,6.00008 0.0848,12.67217 -3.77765,17.37622 -2.93284,3.56806 -8.61132,7.7121 -19.01144,7.16809 C 45.37018,49.21663 41.28693,47.3606 38.37807,43.93655 34.06923,38.8805 33.434,31.76039 33.434,28.00035 c 0,-0.59201 0.01601,-1.07204 0.03681,-1.47203 -2.06242,0.62401 -6.99687,2.49603 -9.03212,6.86409 -0.6192,1.32802 -0.87041,2.48003 -0.87041,3.47205 0,2.65604 1.76482,4.25605 3.05445,5.40806 0.736,0.67201 1.27841,1.16802 1.27841,1.79204 0,0.032 0,0.064 -0.0032,0.09599 -0.02242,0.23999 -0.13602,0.59201 -0.5616,0.86402 -1.08164,0.67201 -1.77605,-0.112 -2.23363,-0.62403 -0.80162,-0.89599 -2.29765,-2.56002 -7.6721,-2.44801 -6.7937,0.16 -11.65297,3.56804 -13.27699,9.13611 3.60806,-0.35202 5.05128,0.88002 6.73609,2.46403 1.21761,1.15203 2.60004,2.44803 5.24648,3.64804 4.08804,1.87204 5.82248,0.112 6.97289,-1.05601 0.52481,-0.528 0.97601,-0.992 1.60001,-0.89601 0.3712,0.04801 0.672,0.27201 0.89762,0.68801 0.73601,1.32804 -0.72322,2.24003 -2.13603,3.12005 -1.92803,1.21602 -4.32965,2.73605 -4.12326,5.52008 0.1456,1.95201 0.76001,4.64004 2.87045,6.33607 1.71521,1.37601 4.19684,1.88803 7.31528,1.58402 -0.48162,-1.47202 -0.78079,-2.84804 -0.78079,-4.03205 0,-1.39201 0.3264,-2.59205 0.9776,-3.63205 2.30403,-3.68006 8.3601,-4.91207 17.38743,-5.71208 15.2706,-1.34401 24.74272,-6.25609 28.15396,-14.62417 l 0.4224,-1.02402 0.79362,0.78401 c 3.94084,3.95204 4.16004,16.28821 -1.46562,26.28833 -1.85922,3.31204 -4.81928,7.0401 -7.9489,10.99214 -5.70727,7.20009 -12.17778,15.3602 -11.80337,21.34429 0.28161,4.51205 3.08644,8.64012 7.3217,10.80012 3.97285,2.01604 8.33771,1.85604 11.97775,-0.464 4.42086,-2.81604 5.09446,-6.73609 4.25606,-9.48812 -0.90721,-2.96003 -3.48645,-4.89607 -6.41608,-4.81607 -2.72324,0.08002 -4.54884,1.29602 -5.00327,3.34405 -0.03359,0.16 -0.03039,0.30401 -0.0464,0.448 0.05278,0 0.2144,-0.016 0.2144,-0.016 0.1424,2.43202 1.39843,2.88002 3.82085,2.88002 0.96481,0 1.31842,0.384 1.44803,0.72001 0.1568,0.40001 0.02559,0.84801 -0.34882,1.18402 -0.78881,0.72002 -2.60322,0.99203 -4.40805,0.096 -1.70562,-0.84799 -2.64323,-3.328 -2.13282,-5.61605 0.60479,-2.75204 3.00483,-4.43206 6.41447,-4.52807 3.60646,-0.09599 6.7729,2.25603 7.88011,5.8721 0.1248,0.416 0.224,0.84799 0.2896,1.29599 1.33442,1.72805 2.03363,4.22406 2.03363,7.12012 0,1.10399 -0.1024,2.272 -0.31201,3.47203 -1.06882,6.17609 -4.64325,11.74414 -9.55373,15.18419 9.97134,9.53613 14.13301,20.12826 15.789,28.46437 1.65444,-8.33611 5.81767,-18.92824 15.78742,-28.46437 -4.91047,-3.44005 -8.48331,-9.0081 -9.55373,-15.18419 -0.2096,-1.20003 -0.312,-2.36804 -0.312,-3.47203 0,-2.89606 0.69922,-5.39207 2.03524,-7.12012 0.06399,-0.448 0.16319,-0.87999 0.28799,-1.29599 1.10722,-3.61607 4.27365,-5.96809 7.8833,-5.8721 3.40964,0.09601 5.80647,1.77603 6.41289,4.52807 0.51042,2.28805 -0.42722,4.76806 -2.13283,5.61605 -1.80801,0.89605 -3.62085,0.62404 -4.41127,-0.096 -0.37279,-0.33601 -0.50241,-0.78401 -0.3456,-1.18402 0.12801,-0.33601 0.48322,-0.72001 1.44642,-0.72001 2.42245,0 3.67845,-0.448 3.82246,-2.88002 0,0 0.15999,0.016 0.21439,0.016 -0.016,-0.14399 -0.0144,-0.288 -0.048,-0.448 -0.45281,-2.04803 -2.27843,-3.26403 -5.00167,-3.34405 -2.92964,-0.08 -5.50886,1.85604 -6.41768,4.81607 -0.83842,2.75203 -0.1632,6.67208 4.25766,9.48812 3.64003,2.32004 8.00489,2.48004 11.97774,0.464 4.23526,-2.16 7.0385,-6.28807 7.3217,-10.80012 0.37281,-5.98409 -6.09446,-14.1442 -11.80496,-21.34429 -3.12964,-3.95204 -6.08807,-7.6801 -7.94729,-10.99214 -5.62726,-10.00012 -5.40807,-22.33629 -1.464,-26.28833 l 0.792,-0.78401 0.42241,1.02402 c 3.40965,8.36808 12.88178,13.28016 28.15238,14.62417 9.02729,0.80001 15.08657,2.03202 17.389,5.71208 0.65122,1.04 0.97762,2.24004 0.97762,3.63205 0,1.18401 -0.30079,2.56003 -0.78241,4.03205 3.11844,0.30401 5.60168,-0.20801 7.31689,-1.58402 2.11045,-1.69603 2.72484,-4.38406 2.86884,-6.33607 0.20801,-2.78403 -2.19362,-4.30406 -4.12325,-5.52008 -1.41122,-0.88002 -2.87204,-1.79201 -2.13603,-3.12005 0.22721,-0.416 0.52641,-0.64 0.89763,-0.68801 0.6256,-0.09599 1.07842,0.36801 1.60161,0.89601 1.14722,1.16801 2.88324,2.92805 6.97288,1.05601 2.64805,-1.20001 4.02727,-2.49601 5.24327,-3.64804 1.68644,-1.58401 3.13125,-2.81605 6.73769,-2.46403 -1.62402,-5.56807 -6.48328,-8.97611 -13.27536,-9.13611 -5.37607,-0.11201 -6.8705,1.55202 -7.67371,2.44801 -0.45762,0.51203 -1.152,1.29604 -2.23364,0.62403 -0.424,-0.27201 -0.5392,-0.62403 -0.5584,-0.86402 -0.003,-0.03199 -0.005,-0.06399 -0.005,-0.09599 0,-0.62402 0.54242,-1.12003 1.27843,-1.79204 1.28801,-1.15201 3.05443,-2.75202 3.05443,-5.40806 0,-0.99202 -0.24961,-2.14403 -0.87201,-3.47205 -2.03363,-4.36806 -6.96968,-6.24008 -9.03052,-6.86409 0.0192,0.39999 0.0368,0.88002 0.0368,1.47203 0,3.76004 -0.63521,10.88015 -4.94406,15.9362 -2.90883,3.42405 -6.99209,5.28008 -12.13937,5.56807 -10.40172,0.54401 -16.08019,-3.60003 -19.01143,-7.16809 -3.86405,-4.70405 -5.31047,-11.37614 -3.77765,-17.37622 1.41283,-5.56808 6.24649,-10.17613 12.02255,-11.47215 5.27687,-1.20003 10.33453,0.56001 13.87857,4.81607 2.98406,3.60005 3.49605,8.0961 1.36803,12.06415 -2.12482,3.95205 -6.36809,6.28808 -10.55534,5.82408 -3.15683,-0.35201 -5.55686,-2.22405 -6.58568,-5.16808 -0.9456,-2.67202 -0.5184,-5.64805 1.03682,-7.20008 1.78563,-1.79203 4.21925,-1.50402 5.72326,-0.496 1.39043,0.928 1.93602,2.38401 1.38723,3.68003 -0.24001,0.57602 -0.56641,0.912 -1.00002,1.05602 -0.70082,0.224 -1.33122,-0.17601 -2.06084,-0.64002 l -0.75999,-0.448 c -0.60962,-0.33599 -1.15361,-0.352 -1.61443,-0.06401 -0.60479,0.38402 -1.21281,1.45603 -1.21281,3.32805 0,0.16001 0.005,0.32001 0.0144,0.496 0.52161,1.40803 1.87043,3.61606 5.23526,3.98406 3.59206,0.40001 7.2401,-1.63202 9.08013,-5.05606 1.83201,-3.40805 1.38402,-7.2961 -1.20003,-10.40013 -3.17283,-3.82405 -7.69449,-5.39208 -12.40655,-4.33608 -5.24326,1.18402 -9.62732,5.36008 -10.91054,10.38414 -1.41764,5.5681 -0.0816,11.72815 3.48805,16.08022 2.71362,3.31204 8.00331,7.13609 17.78102,6.6241 4.72006,-0.25603 8.44812,-1.95204 11.08174,-5.04009 5.56809,-6.52807 4.50246,-17.26422 4.49286,-17.36021 l -0.1104,-1.00802 0.99842,0.19201 c 0.3296,0.08 8.13931,1.74402 11.04333,7.9521 0.71521,1.53601 1.00002,2.89603 1.00002,4.08005 0,2.06402 -0.86721,3.58404 -1.82083,4.75206 1.32643,-0.672 3.32485,-1.18402 6.5137,-1.12001 7.9393,0.17599 13.54736,4.41606 15.00018,11.31215 l 0.2256,1.072 -1.07841,-0.192 c -3.82244,-0.656 -4.81606,0.28801 -6.62088,1.98403 -1.23522,1.16801 -2.77604,2.60804 -5.64488,3.92004 -2.07363,0.94402 -3.66404,1.04004 -4.95046,0.78401 1.39203,1.13602 2.62085,2.67206 2.62085,4.88007 0,0.16002 -0.006,0.30401 -0.0176,0.464 -0.23839,3.21607 -1.42081,5.77609 -3.42083,7.39211 -2.21444,1.77601 -5.35368,2.38403 -9.33293,1.82402 l -0.92163,-0.12799 0.32962,-0.88004 c 0.6464,-1.696 0.96962,-3.16803 0.96962,-4.41604 0,-1.12001 -0.2512,-2.06403 -0.75201,-2.86405 -1.96642,-3.13603 -7.9233,-4.27206 -16.25621,-5.00804 -15.165,-1.34402 -24.80353,-6.2081 -28.81157,-14.4162 -1.16161,1.76001 -1.82402,4.54404 -1.82402,7.88809 0,4.80008 1.28961,10.64016 4.16005,15.74422 1.80162,3.20004 4.72325,6.88008 7.8177,10.78413 5.97287,7.53611 12.14095,15.32821 12.14095,21.76028 0,0.20802 -0.006,0.40002 -0.0192,0.60801 -0.31363,5.02408 -3.43047,9.64812 -8.13292,12.03215 -4.45287,2.27204 -9.35692,2.08004 -13.44817,-0.528 -3.11044,-1.98401 -4.60486,-4.48006 -5.08327,-6.84808 -0.67682,1.98402 -0.82243,4.54405 -0.34559,7.29608 1.05439,6.09608 4.64325,11.61616 9.60011,14.7682 l 0.81281,0.512 -0.7072,0.65602 c -12.18416,11.31213 -15.75542,24.2883 -16.66103,32.88042 0.2,1.95202 0.27042,3.69605 0.27042,5.13606 0,2.91204 -0.12482,3.69606 -0.28002,4.72006 -0.15519,1.024 -1.08961,1.52002 -1.46881,0 -0.38082,-1.52001 -0.2816,-1.80802 -0.2816,-4.72006 0,-1.44001 0.07039,-3.18404 0.27038,-5.13606 -0.904,-8.59212 -4.47524,-21.56829 -16.661,-32.88042 l -0.7072,-0.65602 0.8144,-0.512 c 4.95528,-3.15204 8.54412,-8.67212 9.59853,-14.7682 0.47681,-2.75203 0.33281,-5.31206 -0.34561,-7.29608 -0.47679,2.36802 -1.97121,4.86407 -5.08006,6.84808 -4.09446,2.60804 -8.99692,2.80004 -13.45136,0.528 -4.70087,-2.38403 -7.81772,-7.00807 -8.13293,-12.03215 -0.01277,-0.20799 -0.0192,-0.39999 -0.0192,-0.60801 0,-6.43207 6.16969,-14.22417 12.14098,-21.76028 3.09443,-3.90405 6.01606,-7.58409 7.81768,-10.78413 2.87204,-5.10406 4.16007,-10.94414 4.16007,-15.74422 0,-3.34405 -0.66243,-6.12808 -1.82404,-7.88809 -4.00806,8.2081 -13.64657,13.07218 -28.80996,14.4162 -8.3345,0.73598 -14.2898,1.87201 -16.25782,5.00804 -0.50081,0.80002 -0.75041,1.74404 -0.75041,2.86405 0,1.24801 0.32321,2.72004 0.968,4.41604 l 0.33123,0.88004 -0.92162,0.12799 c -3.98085,0.56001 -7.11848,-0.04801 -9.33292,-1.82402 -2.00003,-1.61602 -3.18405,-4.17604 -3.42085,-7.39211 -0.0128,-0.15999 -0.01919,-0.30398 -0.01919,-0.464 0,-2.20801 1.2288,-3.74405 2.62083,-4.88007 -1.28642,0.25603 -2.87683,0.16001 -4.94887,-0.78401 C 12.64653,57.24873 11.10732,55.8087 9.87212,54.64069 8.06729,52.94467 7.07208,52.00066 3.25124,52.65666 l -1.08002,0.192 0.2272,-1.072 C 3.84964,44.88057 9.4577,40.6405 17.3986,40.46451 Z"
               style="fill:#000000;fill-opacity:1;fill-rule:nonzero;stroke:#000000;stroke-width:0.3985;stroke-linecap:butt;stroke-linejoin:miter;stroke-miterlimit:10;stroke-dasharray:none;stroke-opacity:1"
               id="path28" /><path
               d="m 2.97603,28.36835 c 1.64482,0 2.97763,1.36001 2.97763,3.04004 0,1.69603 -1.33281,3.05604 -2.97763,3.05604 C 1.3328,34.46443 0,33.10442 0,31.40839 0,29.72836 1.3328,28.36835 2.97603,28.36835 Z"
               style="fill:#000000;fill-opacity:1;fill-rule:nonzero;stroke:#000000;stroke-width:0.3985;stroke-linecap:butt;stroke-linejoin:miter;stroke-miterlimit:10;stroke-dasharray:none;stroke-opacity:1"
               id="path30" /><path
               d="m 65.09363,127.79364 c 1.64641,0 2.97763,1.36 2.97763,3.04004 0,1.69602 -1.33122,3.05603 -2.97763,3.05603 -1.64322,0 -2.97605,-1.36001 -2.97605,-3.05603 0,-1.68004 1.33283,-3.04004 2.97605,-3.04004 z"
               style="fill:#000000;fill-opacity:1;fill-rule:nonzero;stroke:#000000;stroke-width:0.3985;stroke-linecap:butt;stroke-linejoin:miter;stroke-miterlimit:10;stroke-dasharray:none;stroke-opacity:1"
               id="path32" /><path
               d="m 88.49391,6.25606 c -1.64481,0 -2.97761,-1.36002 -2.97761,-3.05603 0,-1.68003 1.3328,-3.04004 2.97761,-3.04004 1.64324,0 2.97605,1.36001 2.97605,3.04004 0,1.69601 -1.33281,3.05603 -2.97605,3.05603 z"
               style="fill:#000000;fill-opacity:1;fill-rule:nonzero;stroke:#000000;stroke-width:0.3985;stroke-linecap:butt;stroke-linejoin:miter;stroke-miterlimit:10;stroke-dasharray:none;stroke-opacity:1"
               id="path34" /><path
               d="m 24.9971,92.46518 c 2.34725,0.12799 3.90405,1.42401 4.40965,2.65602 0.24482,0.59203 0.20162,1.15202 -0.12158,1.50403 -0.1344,0.14401 -0.51521,0.464 -1.17122,0.272 -1.28161,-0.38402 -1.74882,-1.15201 -2.12643,-1.77603 -0.29759,-0.48 -0.56482,-0.87999 -1.21922,-1.16801 -1.39042,0.03199 -2.52643,1.48803 -2.83364,2.96005 -0.04001,0.192 -0.088,0.496 -0.088,0.86401 0,0.97602 0.35041,2.38404 2.18084,3.07204 5.43847,2.03203 12.86256,-5.82407 17.29942,-10.51215 l 1.15201,-1.216 1.05761,-1.10402 c 3.49445,-3.66405 3.78086,-3.96805 5.69446,-3.24803 0.47682,0.17598 1.46404,-0.24002 1.97605,-1.04004 0.39518,-0.608 0.33439,-1.18399 -0.18241,-1.696 L 49.68542,80.80103 C 48.00061,79.313 46.09016,77.64897 47.3398,75.55296 c 0.68802,-1.13601 1.65602,-1.87204 2.80005,-2.12803 1.3056,-0.27202 2.76161,0.112 4.21603,1.10402 2.71364,1.88801 3.31685,1.96801 4.60646,0.68801 0.33602,-0.33601 -0.2,-1.13603 -0.99361,-2.22402 -1.11842,-1.55202 -2.65123,-3.66405 -0.82402,-5.48809 1.29924,-1.45602 3.31366,-0.416 4.78406,0.35202 0.55362,0.288 1.47843,0.76799 1.71043,0.72 0.57122,-0.38401 3.43685,-3.85604 6.39208,-7.58409 0.43201,-1.10402 2.10243,-3.74405 2.97604,-3.82406 l 0.4832,-0.032 0.24482,0.38402 c 0.28318,0.43199 0.05119,0.91201 -0.36321,1.61601 -1.27041,1.63203 -7.67851,9.85612 -8.9057,10.67213 -0.87042,0.592 -2.01283,0 -3.22246,-0.64001 -1.39201,-0.72 -2.49443,-1.21602 -3.01603,-0.64 -0.82561,0.832 -0.39681,1.72803 0.94401,3.58405 0.93761,1.29602 2.10243,2.89602 0.84322,4.16004 -2.24643,2.24004 -3.93767,1.26403 -6.5089,-0.512 -1.104,-0.76799 -2.16003,-1.07201 -3.05282,-0.88001 -0.73282,0.15999 -1.36643,0.65601 -1.83684,1.44003 -0.55201,0.928 0.24162,1.76002 2.05122,3.36004 l 1.40804,1.296 c 1.01921,1.02402 1.1632,2.35204 0.38238,3.56805 -0.7568,1.16802 -2.40483,2.12803 -3.80324,1.60003 -0.94081,-0.352 -0.94081,-0.352 -4.04165,2.89602 l -1.05921,1.10402 -1.14561,1.21602 c -4.99207,5.28008 -12.53937,13.26418 -18.90425,10.88014 -2.37123,-0.89601 -3.55844,-3.10403 -3.02565,-5.63206 0.44162,-2.11203 2.17604,-4.27207 4.51846,-4.14406 z"
               style="fill:#000000;fill-opacity:1;fill-rule:nonzero;stroke:#000000;stroke-width:0.3985;stroke-linecap:butt;stroke-linejoin:miter;stroke-miterlimit:10;stroke-dasharray:none;stroke-opacity:1"
               id="path36" /></g></g></g></g></g></svg>
