<?xml version="1.0" encoding="UTF-8" standalone="no"?>
<svg
   xmlns:dc="http://purl.org/dc/elements/1.1/"
   xmlns:cc="http://creativecommons.org/ns#"
   xmlns:rdf="http://www.w3.org/1999/02/22-rdf-syntax-ns#"
   xmlns:svg="http://www.w3.org/2000/svg"
   xmlns="http://www.w3.org/2000/svg"
   xmlns:sodipodi="http://sodipodi.sourceforge.net/DTD/sodipodi-0.dtd"
   xmlns:inkscape="http://www.inkscape.org/namespaces/inkscape"
   version="1.1"
   id="svg2"
   xml:space="preserve"
   width="59.013931"
   height="39.073383"
   viewBox="0 0 59.013931 39.073384"
   sodipodi:docname="vectorian157.pdf"><metadata
     id="metadata8"><rdf:RDF><cc:Work
         rdf:about=""><dc:format>image/svg+xml</dc:format><dc:type
           rdf:resource="http://purl.org/dc/dcmitype/StillImage" /></cc:Work></rdf:RDF></metadata><defs
     id="defs6" /><sodipodi:namedview
     pagecolor="#ffffff"
     bordercolor="#666666"
     borderopacity="1"
     objecttolerance="10"
     gridtolerance="10"
     guidetolerance="10"
     inkscape:pageopacity="0"
     inkscape:pageshadow="2"
     inkscape:window-width="640"
     inkscape:window-height="480"
     id="namedview4" /><g
     id="g10"
     inkscape:groupmode="layer"
     inkscape:label="vectorian157"
     transform="matrix(1.3333333,0,0,-1.3333333,0.19510236,40.965847)"><g
       id="g12"
       transform="translate(72,-40.983)"><g
         id="g14"
         transform="translate(-71.946,42.602)"><g
           id="g16"><g
             id="g18"><path
               d="m 31.45638,25.31331 c 0.49241,0 0.68983,0.09759 0.93502,0.39342 0.27121,0.32579 -0.1468,0.39408 -0.1468,0.39408 h -0.8873 c -0.29431,0 -0.59012,-0.1967 -0.59012,-0.1967 0,0 0.196,-0.5908 0.6892,-0.5908 M 29.48717,24.5742 c 0,0 0.44259,0.4932 0.68921,0.4932 0.24521,0 0.34489,-0.19809 0.34489,-0.4932 0,-0.29501 0.14821,-0.7875 0.78752,-0.88652 l 0.19611,0.78751 c 0,0 -0.1476,0.14821 -0.2944,-0.0983 0,0 -0.59151,-0.19679 -0.54102,0.44321 0,0 0.04719,1.08401 -0.78821,0.64072 0,0 -0.4931,-0.34492 -0.83803,-0.444 -0.34358,-0.09762 -0.73768,0.444 -0.58949,1.2807 0.1462,0.83741 0.8347,0.88592 1.28001,0.78822 0.44262,-0.099 0.24521,-0.98493 -0.54229,-0.29642 0,0 0.04919,-0.59019 0.6898,-0.4918 0.64,0.09829 0.3436,1.32853 -0.54231,1.23082 -0.88521,-0.09771 -1.42682,-0.88591 -1.3298,-1.72332 0.09898,-0.83672 0.83869,-1.32983 1.47801,-1.23082 m 1.96921,4.18496 c -1.42821,0.63929 -2.06821,-0.93512 -2.06821,-0.93512 l 0.44261,-0.04981 c 0.5416,1.23143 1.6256,0.98493 1.6256,0.98493 M 39.43199,4.68324 C 37.16707,2.71341 28.74817,-1.6189 14.32277,1.5823 c 0,0 1.52653,0.29441 3.74155,2.51014 2.21644,2.21643 4.72658,5.31736 5.56387,5.95666 0.83671,0.64133 2.95343,2.21645 4.87346,2.26554 0,0 0.39342,-3.54484 -1.62361,-5.75988 C 24.85901,4.33905 21.95348,1.385 15.50508,1.82751 c 0,0 3.19925,-0.78751 6.2531,0.09841 0,0 2.11532,-0.68852 4.72644,0.05048 0,0 1.77113,-0.739 4.13437,0.1476 2.36322,0.88581 4.33235,2.85505 4.97235,7.2858 0,0 0.3456,-2.75733 2.11743,-3.05242 1.77242,-0.29583 2.90485,0.98489 3.59544,2.90493 0.6884,1.91993 0.04711,4.52976 -1.42961,4.48056 -1.47603,-0.0498 -3.29695,-3.39735 -0.98422,-6.15469 0,0 -0.78821,2.51144 -0.3941,4.23476 0.3941,1.72252 2.01902,2.06753 2.41313,0.3941 0.3948,-1.67413 -0.83742,-5.17047 -2.41313,-5.36726 -1.57502,-0.19731 -3.00254,2.16591 -1.96912,5.46486 1.034,3.29906 3.24914,3.64325 3.93825,3.59414 0.6905,-0.04919 2.31473,0.09902 2.70824,-2.80592 0.3927,-2.90553 -1.54163,-6.50649 -3.74166,-8.41962 M 12.15623,1.72992 c 0,0 -0.63929,0 -1.2322,-0.29582 0,0 -2.75664,-0.09899 -3.54425,1.13252 0,0 1.32991,0.19672 3.59475,1.77243 2.26563,1.57571 4.52846,5.12056 7.28649,6.64647 2.55253,1.41313 3.20684,1.60234 4.77365,1.70071 0.29172,0.05402 0.39623,0.02253 0.39623,0.02253 -0.13871,-0.0075 -0.27053,-0.01571 -0.39623,-0.02253 -0.51569,-0.09558 -1.61942,-0.46168 -3.78804,-1.7499 C 15.8493,8.91798 13.04205,3.99413 8.56079,2.41902 c 0,0 1.13452,-0.19742 3.44716,1.32923 2.31482,1.52581 4.82555,4.62814 5.66226,5.46485 0.83672,0.836 4.52846,4.28325 9.84712,3.34815 0,0 -2.1166,-0.34421 -5.31866,-2.85573 C 19.00073,7.19478 17.1286,2.86163 12.15623,1.72992 m 16.69162,10.83133 c 0,0 3.88787,-2.95475 1.91933,-7.0406 0,0 -1.67413,-3.74154 -8.8137,-3.34743 0,0 3.07702,0.84829 5.16975,3.29754 2.01903,2.36333 2.16522,4.18625 1.72462,7.09049 m -1.57641,2.75664 c -0.5416,1.03341 -0.83731,3.00332 0.39412,4.87475 0,0 -2.31475,-2.41243 -4.77637,-2.26553 -2.46095,0.14822 -3.39735,1.03473 -4.52907,1.52652 -1.13322,0.49312 -1.87082,0.73901 -2.26492,0.73901 l -0.44461,0.5416 c 0,0 -0.14551,0.49182 0.34691,0.29512 0.4918,-0.19741 0.34358,-0.4433 0.836,-0.4433 0.4925,0 1.03413,-0.39342 2.21502,-0.63931 1.18172,-0.24721 3.24984,-0.64131 3.54496,-0.64131 0.29571,0 0.5922,-0.44262 1.18161,-0.14621 0,0 0.34631,0.44261 1.13381,0.73701 0.78681,0.2964 3.88846,2.70883 5.31597,3.15144 0,0 0.19672,-0.3941 0.88591,-0.54031 0,0 0.77252,-0.17889 1.28062,0.2453 0.2951,0.24582 0.73902,0.73901 0.73902,0.73901 0,0 0.3934,-0.49319 0.09771,-1.18162 -0.29512,-0.6899 -1.57505,-0.64139 -2.46095,-0.34499 0,0 0.3934,-0.54161 1.47742,-0.54161 1.0819,0 2.01692,0.98491 1.13171,2.51085 h 0.44332 c 0,0 0.6898,-0.44263 1.52581,-0.24663 0,0 1.32991,-0.39408 2.16593,-2.80653 0,0 -0.2452,-0.19669 -0.73841,0.24721 -0.49169,0.44261 -0.5901,0.93441 -1.03341,0.93441 0,0 1.08331,-1.82093 1.87152,-1.82093 0,0 0,-2.06752 1.77112,-3.24914 0,0 -1.67342,-0.5423 -4.57904,4.18416 l -0.39342,-0.29571 c 0,0 -0.0977,-0.49181 -0.5416,0 0,0 -0.0984,-0.49181 0.68909,-0.63931 0,0 0.78822,-1.03411 0.78822,-1.47672 0,-0.44391 -0.49171,-1.5265 -1.57571,-1.32982 -1.08323,0.19672 -1.77243,1.18163 -2.11665,2.06752 0,0 -0.30058,-1.73761 1.52512,-2.51012 1.28143,-0.5423 2.11814,0.0485 2.11814,0.0485 0,0 -0.24661,-1.2807 -1.03482,-1.62422 0,0 -2.06752,1.47671 -5.36645,0.98491 0,0 -0.58951,0.83673 -0.24521,2.90355 0,0 -1.23012,-1.82094 0.39338,-4.28185 0,0 0.04981,-0.49323 0.39412,-0.83742 0.34491,-0.34422 3.00255,-2.60985 3.88914,-3.84065 C 34.21373,9.1147 34.45963,5.91476 33.0328,4.33905 31.60388,2.76334 28.59995,1.6308 26.97644,2.124 c 0,0 2.60913,0.44262 4.52846,3.00326 1.92131,2.55994 0.2465,5.26747 -0.98363,6.44906 -1.23282,1.18163 -2.70811,2.70815 -3.24983,3.74157 m 7.08909,-1.72394 c 0,0 0.4932,0.14892 0.24732,0.78822 0,0 1.2793,1.37833 1.5258,3.84065 0,0 0.68921,-0.68982 1.23081,-1.08331 0.54031,-0.39412 1.03411,-0.78821 2.46232,-0.68911 0,0 -4.18553,-0.88662 -4.08723,-6.25307 0,0 -0.2964,-0.24593 -0.34351,0.24589 -0.0506,0.49311 -0.24791,1.77382 -1.03551,3.15073 m -4.62677,1.33052 c 0,0 -0.78889,0.68923 -0.69052,1.23013 0,0 3.49636,0.0991 5.07209,-1.27992 0,0 0.04849,-0.59021 -0.2472,-0.63931 0,0 -2.26425,1.52652 -4.13437,0.6891 m 3.39666,-0.8858 c 1.4268,-0.98491 1.7725,-4.62887 1.7725,-4.77636 0,0 -0.3457,-0.14761 -0.54239,0.24649 -0.19671,0.3934 -1.42752,3.39666 -4.43077,5.16918 0,0 1.77314,0.34561 3.20066,-0.63931 m 0.73771,10.68383 c 0.19809,0.4426 1.32981,0.1967 2.11661,-0.0991 0.78822,-0.29502 1.18233,-0.34421 1.57642,-0.7376 0.39351,-0.39412 2.75674,-2.01974 3.54496,-4.48137 0.7875,-2.46223 -0.54232,-2.75663 -1.23152,-1.96913 -0.68852,0.78752 -1.23011,2.11734 -1.32853,3.19995 -0.099,1.084 -1.67331,3.98815 -4.03664,3.54485 0,0 -0.8373,0.09909 -0.6413,0.5424 M 5.85466,1.4341 C 5.36215,1.5823 4.58424,2.71341 3.54123,2.71341 3.34312,2.71341 2.75371,2.61572 2.26062,2.76334 1.76741,2.91151 0.9799,3.84653 0.9799,3.84653 c 0,0 0.0499,0.39352 0.4433,0.1967 0.3941,-0.1967 0.88582,-0.44251 1.42751,-0.44251 0.54162,0 1.67402,0.24581 1.77313,0 0,0 -0.1974,-0.64001 1.27933,-1.13321 0,0 0.7875,-0.09759 0.83671,-0.54159 0,0 -0.39412,-0.64 -0.88522,-0.49182 m 9.20712,21.61358 -0.78821,0.1967 c 0,0 0.09769,0.8873 -1.23152,1.52722 l 0.0499,0.73843 c 0,0 0.59012,-0.14823 0.73761,-0.14823 0,0 0.1981,-1.32919 1.37973,-1.72331 z m -1.0942,-0.49861 c -0.16321,0.0287 -0.40642,0.0287 -0.53141,-0.18991 -0.14142,-0.24649 0.11949,-0.3667 0.2807,-0.41591 -0.1325,-0.24449 -0.31822,-0.50139 -0.57512,-0.71719 -0.88722,-0.7383 -2.36933,0.2643 -1.18231,1.18231 1.08261,0.83601 2.06822,0.3934 2.06822,0.3934 0,0 -0.01709,-0.099 -0.06008,-0.2527 m -2.74646,0.74453 c -0.88592,-0.3436 -1.42821,0.39408 -0.3948,0.83808 1.03412,0.44252 1.72403,0.29432 1.72403,0.29432 0,0 -0.44331,-0.78751 -1.32923,-1.1324 m 1.57504,2.61051 c 0,0 -1.52513,0.54021 -1.27922,1.27933 0.2458,0.7383 1.37692,-0.98431 1.27922,-1.27933 m 2.85443,1.27933 c 0.83871,0.14819 0.59279,-1.13252 -1.18031,-1.23012 0,0 0.34419,1.08321 1.18031,1.23012 m 1.52851,-2.16662 c 0.98362,0.29649 1.42753,-1.32914 -1.3298,-1.18163 0,0 0.3436,0.88731 1.3298,1.18163 m 23.1388,-8.76312 -0.04849,0.2957 c 0,0 1.47603,-0.14751 1.37831,1.91932 -0.09828,2.06883 -1.52522,3.44725 -2.26553,4.08716 -0.7377,0.63931 -1.87082,1.91931 -2.60923,2.21572 -0.73762,0.2958 -1.91923,0.4426 -2.41243,0.4426 -0.4924,0 -0.88652,-0.34489 -0.6884,-0.73901 l -0.29582,-0.14681 c 0,0 -0.09829,1.13244 0.24519,1.47664 0,0 0.93572,-0.1967 1.28142,0.73842 0.34493,0.93572 -0.3457,1.77242 -1.82301,1.67471 0,0 -0.54031,0.4918 -1.13112,0.64002 0,0 0.98422,-0.44392 1.03342,-1.08394 0.05059,-0.6393 -0.836,-0.29507 -0.5423,0.14751 0,0 -0.24591,0 -0.2937,-0.44258 -0.04919,-0.44263 1.13181,-0.83673 1.13181,0.34488 0,0 1.08251,0.34431 1.3776,-0.59151 0.29572,-0.93501 -1.0819,-1.27921 -0.93499,-0.24579 0,0 -0.68783,0.24579 -0.4925,-0.3941 l 0.09837,-0.44262 c 0,0 -0.2937,-0.5417 -0.19608,-1.28071 0.09771,-0.73763 -0.44392,-1.42754 -0.78821,-1.62493 -0.34491,-0.1967 -0.98491,-0.24589 -1.37903,-0.14678 -0.3934,0.09759 -0.6386,0.7882 -1.1324,0.64 l 0.39409,-0.34502 C 28.84785,22.95 27.71404,22.16177 27.22234,21.76836 26.72984,21.37425 25.0551,20.14284 24.5148,19.99594 23.97319,19.84775 23.381,19.40443 23.381,19.40443 c -0.98423,0.49181 -3.93836,0.78821 -4.82488,1.08333 -0.88591,0.29569 -1.7711,1.2806 -2.11743,1.62349 C 16.0952,22.45688 15.30698,22.95 15.30698,22.95 l 0.3941,0.49177 c 1.91932,-0.14817 2.65904,0.59084 2.75804,1.18163 0.097,0.5908 -0.73901,0.98492 -1.62562,0.5417 -0.8858,-0.4426 -1.32842,-1.32991 -1.32842,-1.32991 -1.23151,0.49319 -1.42891,1.67484 -1.42891,1.67484 0,0 1.67412,0.1967 2.31473,0.9849 0.6407,0.78751 -0.24721,1.42681 -1.23142,0.78751 -0.98492,-0.64001 -1.03341,-1.47742 -1.03341,-1.47742 -0.29651,-0.14821 -0.98432,0.0499 -0.98432,0.0499 -0.3954,1.42752 -1.52722,2.06682 -1.92063,1.67342 -0.3948,-0.39341 -0.09899,-0.7882 -0.09899,-0.7882 0.9364,-1.13182 1.77173,-1.08333 1.77173,-1.08333 l -0.14751,-0.7875 c 0,0 -0.93512,0.04989 -2.11602,-0.44331 -1.18302,-0.49169 -1.03413,-1.67333 0.19599,-1.52652 1.23221,0.1482 2.02044,1.52652 2.02044,1.52652 1.03341,-0.14681 1.22941,-1.3284 1.22941,-1.3284 -3.00393,0.54089 -3.34744,-2.21645 -1.96913,-2.41314 1.37833,-0.1967 1.96913,1.23151 1.96913,1.23151 0.78749,0 0.29509,0.5914 0.29509,0.5914 l 0.14823,0.2944 c 0.93569,-0.1967 1.37901,-0.8367 1.37901,-0.8367 -0.93572,0.29511 -1.13313,-0.2964 -1.13313,-0.2964 -0.3436,-0.14621 -0.39411,-0.54031 -0.39411,-0.54031 l 0.59152,-0.59081 c 0,-0.44391 0.4924,-0.4924 0.4924,-0.4924 0.49252,-4.33316 -3.49574,-5.90889 -3.49574,-5.90889 4.57906,1.42752 3.79085,5.41638 3.79085,5.41638 l 0.44261,0.0492 c 1.1331,-0.49309 3.10224,-1.62493 3.64255,-2.01833 0.5423,-0.39411 0.9357,-0.24661 0.9357,-0.24661 2.65975,-1.2308 5.76059,0.78693 5.76059,0.78693 -0.63931,-2.80594 1.6748,-4.87337 1.6748,-4.87337 0,-0.24591 -0.2944,-0.444 -0.2944,-0.444 -2.51141,0.49309 -4.23605,0.0506 -4.23605,0.0506 -0.58951,0.14749 -2.31273,0.1967 -5.41507,-1.42824 C 15.15948,9.80322 14.12607,8.03148 11.27103,5.61905 8.4153,3.20663 7.82378,3.45242 7.42967,3.20663 7.03627,2.96071 7.08408,2.71341 7.08408,2.71341 4.82054,2.56662 4.82054,3.94563 4.82054,3.94563 7.5772,4.09244 8.6113,5.37315 10.13722,6.70227 c 1.52722,1.32921 5.16976,5.46417 9.94612,6.15479 4.77567,0.6884 6.84189,0.44249 6.84189,0.44249 l 0.39472,0.0991 C 22.7909,13.89047 18.75352,13.25046 15.55359,11.47792 12.35294,9.70552 9.79291,6.70227 8.06969,5.42166 6.34576,4.14235 5.01796,4.19154 4.72084,4.24005 4.42644,4.28914 4.23042,4.19154 4.23042,4.19154 c 0,-0.39412 -0.83809,-0.44329 -1.37971,-0.0991 -0.54169,0.34491 -2.21501,0.444 -2.56003,0.444 -0.34486,0 -0.34486,-0.54231 -0.1967,-0.8367 C 0.24219,3.40334 1.0783,3.10751 1.0783,3.10751 1.4724,2.36992 2.16151,2.2216 2.16151,2.2216 3.44153,2.17322 3.58904,2.07411 4.37723,1.4341 5.16406,0.7948 5.85466,0.9915 5.85466,0.9915 6.83888,0.7948 7.18378,1.72992 7.18378,1.72992 c 0.24589,0.196 0.68919,0 0.68919,0 0,0 2.46223,-1.7731 5.07079,-0.14762 0,0 0.8367,-1.1823 9.3546,-1.47802 8.51872,-0.29436 13.24319,-0.24587 18.11854,4.03807 4.87407,4.28255 4.33176,12.45625 -0.099,12.11135"
               style="fill:#000000;fill-opacity:1;fill-rule:nonzero;stroke:#000000;stroke-width:0.3985;stroke-linecap:butt;stroke-linejoin:miter;stroke-miterlimit:10;stroke-dasharray:none;stroke-opacity:1"
               id="path20" /></g></g></g></g></g></svg>
