<?xml version="1.0" encoding="UTF-8" standalone="no"?>
<svg
   xmlns:dc="http://purl.org/dc/elements/1.1/"
   xmlns:cc="http://creativecommons.org/ns#"
   xmlns:rdf="http://www.w3.org/1999/02/22-rdf-syntax-ns#"
   xmlns:svg="http://www.w3.org/2000/svg"
   xmlns="http://www.w3.org/2000/svg"
   xmlns:sodipodi="http://sodipodi.sourceforge.net/DTD/sodipodi-0.dtd"
   xmlns:inkscape="http://www.inkscape.org/namespaces/inkscape"
   version="1.1"
   id="svg2"
   xml:space="preserve"
   width="20.290609"
   height="21.94091"
   viewBox="0 0 20.290609 21.94091"
   sodipodi:docname="vectorian141.pdf"><metadata
     id="metadata8"><rdf:RDF><cc:Work
         rdf:about=""><dc:format>image/svg+xml</dc:format><dc:type
           rdf:resource="http://purl.org/dc/dcmitype/StillImage" /></cc:Work></rdf:RDF></metadata><defs
     id="defs6" /><sodipodi:namedview
     pagecolor="#ffffff"
     bordercolor="#666666"
     borderopacity="1"
     objecttolerance="10"
     gridtolerance="10"
     guidetolerance="10"
     inkscape:pageopacity="0"
     inkscape:pageshadow="2"
     inkscape:window-width="640"
     inkscape:window-height="480"
     id="namedview4" /><g
     id="g10"
     inkscape:groupmode="layer"
     inkscape:label="vectorian141"
     transform="matrix(1.3333333,0,0,-1.3333333,-1.9199604,21.772004)"><g
       id="g12"
       transform="translate(72,-56.147)"><g
         id="g14"
         transform="translate(-70.361,56.147)"><g
           id="g16"><g
             id="g18"><path
               d="m 10.56982,10.43651 c -0.98431,-0.09558 -1.67482,0.98363 -0.7875,0.98363 0.88721,0 0.7875,-0.98363 0.7875,-0.98363 M 2.49582,0 c 0,0 -0.2971,2.65692 2.06683,4.82214 2.36322,2.16513 6.91759,1.28402 6.79468,4.92456 0,0 3.74223,1.18163 3.44583,5.02028 0,0 -0.6393,-3.54496 -3.49432,-4.23475 0,0 -0.24591,1.48211 -1.52652,1.37971 -1.37503,-0.10251 -1.18233,-2.06964 0.7875,-2.26083 0,0 0.31961,-1.33191 -1.00952,-1.77591 C 7.58089,7.21957 3.47932,7.08978 2.29971,1.769 c 0,0 -1.38032,1.87153 -1.47802,4.72657 -0.09899,2.85502 1.08191,5.71007 3.44514,7.2878 2.36395,1.57781 3.93967,-0.49182 2.85645,-1.87143 -1.08332,-1.37971 -2.46163,0.19801 -1.47742,0.88791 0,0 0.5908,0 0.5908,-0.49181 v -0.4918 c 0,0 0.98561,0.53959 0.22202,1.22951 -0.85793,0.77862 -2.23343,-0.45769 -1.79703,-1.33191 0.49249,-0.9836 1.87012,-1.57093 3.15073,0.1981 0,0 0.09912,-0.78551 -0.39339,-1.27731 C 6.92587,10.14291 3.38101,11.91194 2.49582,9.453 c 0,0 0.39342,0.49182 1.87073,0.5874 1.47671,0.10251 2.26423,0 2.26423,0 0,0 -0.78752,-0.4918 -1.96913,-0.98352 C 3.47932,8.5651 1.8052,6.98727 1.9036,3.14871 c 0,0 0.19812,3.64737 2.46295,4.82898 2.26423,1.1816 4.82426,2.26084 4.13504,4.72656 -0.68921,2.45884 -3.15145,3.14864 -5.80907,0.5873 C 0.03348,10.73024 -1.6392,5.02014 2.49582,0"
               style="fill:#000000;fill-opacity:1;fill-rule:nonzero;stroke:#000000;stroke-width:0.3985;stroke-linecap:butt;stroke-linejoin:miter;stroke-miterlimit:10;stroke-dasharray:none;stroke-opacity:1"
               id="path20" /></g></g></g></g></g></svg>
