<?xml version="1.0" encoding="UTF-8" standalone="no"?>
<svg
   xmlns:dc="http://purl.org/dc/elements/1.1/"
   xmlns:cc="http://creativecommons.org/ns#"
   xmlns:rdf="http://www.w3.org/1999/02/22-rdf-syntax-ns#"
   xmlns:svg="http://www.w3.org/2000/svg"
   xmlns="http://www.w3.org/2000/svg"
   xmlns:sodipodi="http://sodipodi.sourceforge.net/DTD/sodipodi-0.dtd"
   xmlns:inkscape="http://www.inkscape.org/namespaces/inkscape"
   version="1.1"
   id="svg2"
   xml:space="preserve"
   width="114.14667"
   height="108.18667"
   viewBox="0 0 114.14667 108.18667"
   sodipodi:docname="vectorian020.pdf"><metadata
     id="metadata8"><rdf:RDF><cc:Work
         rdf:about=""><dc:format>image/svg+xml</dc:format><dc:type
           rdf:resource="http://purl.org/dc/dcmitype/StillImage" /></cc:Work></rdf:RDF></metadata><defs
     id="defs6"><clipPath
       clipPathUnits="userSpaceOnUse"
       id="clipPath24"><path
         d="M -0.84158,0 H 81.45494 V 81.13992 H -0.84158 Z"
         id="path22" /></clipPath><clipPath
       clipPathUnits="userSpaceOnUse"
       id="clipPath32"><path
         d="M -0.84158,0 H 81.45494 V 81.13992 H -0.84158 Z"
         id="path30" /></clipPath></defs><sodipodi:namedview
     pagecolor="#ffffff"
     bordercolor="#666666"
     borderopacity="1"
     objecttolerance="10"
     gridtolerance="10"
     guidetolerance="10"
     inkscape:pageopacity="0"
     inkscape:pageshadow="2"
     inkscape:window-width="640"
     inkscape:window-height="480"
     id="namedview4" /><g
     id="g10"
     inkscape:groupmode="layer"
     inkscape:label="vectorian020"
     transform="matrix(1.3333333,0,0,-1.3333333,0,108.18667)"><g
       id="g12"
       transform="translate(72,9.139)"><g
         id="g14"
         transform="translate(-71.158,-9.139)"><g
           id="g16"><g
             id="g18"><g
               id="g20"
               clip-path="url(#clipPath24)"><path
                 d="m 49.99162,29.07706 c 3.92165,3.22884 9.45453,2.76643 11.76335,1.50082 2.30564,-1.26883 2.53605,-3.11523 3.11205,-2.88484 0.57761,0.22879 0.57761,2.76803 -2.30565,4.72806 -2.88483,1.96162 -7.38089,1.96162 -7.38089,1.96162 3.22885,2.30403 5.99689,4.03366 6.3425,7.3793 0.27519,2.65923 -0.9216,6.34088 -1.84482,6.34088 -0.92163,0 -0.23201,-1.84481 -1.15201,-5.88166 -0.92163,-4.03527 -6.3441,-7.6097 -11.06895,-12.68018 -3.36965,-3.61604 -5.49606,-7.41771 -6.35848,-9.11691 v 15.87701 c 0.376,1.95841 1.14402,4.97766 2.66723,7.8817 2.53762,4.84325 5.51367,6.67848 7.02569,7.58569 1.51842,0.91201 2.49443,1.12481 2.08481,1.52323 -0.78239,0.76322 -4.75844,0.05919 -6.57288,-0.92003 -1.77441,-0.95839 -3.45924,-2.1584 -5.20485,-4.45605 v 5.04646 c 1.0192,0.29921 1.76963,1.23202 1.76963,2.35044 0,1.12 -0.75043,2.05602 -1.76963,2.35683 v 12.22736 c 0,0.3824 -0.31202,0.69279 -0.69442,0.69279 -0.3808,0 -0.69121,-0.31039 -0.69121,-0.69279 V 57.66943 c -1.02081,-0.30081 -1.77121,-1.23683 -1.77121,-2.35683 0,-1.11842 0.7504,-2.05123 1.77121,-2.35044 v -5.30084 c -1.81921,2.47361 -3.56163,3.71524 -5.40326,4.71043 -1.81444,0.97922 -5.79208,1.68325 -6.57289,0.92003 -0.40961,-0.39842 0.5664,-0.61122 2.08482,-1.52323 1.51044,-0.90721 4.48807,-2.74244 7.02411,-7.58569 1.86083,-3.54884 2.60163,-7.2769 2.86722,-9.02092 V 20.03055 c -0.70081,1.432 -2.89443,5.57767 -6.55687,9.51051 -4.72487,5.07048 -10.14734,8.64491 -11.06894,12.68018 -0.92162,4.03685 -0.23042,5.88166 -1.15363,5.88166 -0.92321,0 -2.11843,-3.68165 -1.84323,-6.34088 0.34562,-3.34564 3.11364,-5.07527 6.3425,-7.3793 0,0 -4.49768,0 -7.3809,-1.96162 -2.88326,-1.96003 -2.88326,-4.49927 -2.30724,-4.72806 0.57762,-0.23039 0.80642,1.61601 3.11365,2.88484 2.30723,1.26561 7.8401,1.72802 11.76175,-1.50082 3.42404,-2.82083 7.99211,-8.36811 9.09291,-13.10738 V 4.81424 C 38.69228,4.51505 37.94188,3.58063 37.94188,2.46222 c 0,-1.36002 1.1024,-2.4624 2.46242,-2.4624 1.36163,0 2.46405,1.10238 2.46405,2.4624 0,1.11841 -0.75043,2.05283 -1.76963,2.35202 V 16.6801 c 1.36002,4.57286 5.63846,9.71693 8.8929,12.39696 z M 41.22672,2.46222 c 0,-0.45282 -0.368,-0.81922 -0.82242,-0.81922 -0.4528,0 -0.82082,0.3664 -0.82082,0.81922 0,0.45439 0.36802,0.8208 0.82082,0.8208 0.45442,0 0.82242,-0.36641 0.82242,-0.8208 z"
                 style="fill:#000000;fill-opacity:1;fill-rule:nonzero;stroke:#000000;stroke-width:0.3985;stroke-linecap:butt;stroke-linejoin:miter;stroke-miterlimit:10;stroke-dasharray:none;stroke-opacity:1"
                 id="path26" /><g
                 id="g28"
                 clip-path="url(#clipPath32)"><path
                   d="m 74.44954,42.06921 c -3.60644,5.79049 -9.38092,11.70418 -14.96338,17.42105 -3.32004,3.39843 -6.75531,6.91527 -9.65773,10.33452 -3.18245,3.75045 -4.97128,6.42089 -6.15369,8.1873 -1.39201,2.08164 -2.09442,3.12804 -3.36804,3.12804 -1.2752,0 -1.97601,-1.0464 -3.36804,-3.12804 C 35.75464,76.24567 33.9674,73.57523 30.78499,69.82478 27.88094,66.40553 24.44731,62.88869 21.12726,59.49026 15.54478,53.77339 9.7687,47.8597 6.16386,42.06921 0.94778,33.69151 -0.8426,25.76343 0.35739,16.3617 1.3814,8.3263 7.47267,0.19019 17.1288,0.19019 c 8.72333,0 14.70259,4.99847 14.8754,12.43866 0.168,7.2801 -4.63047,10.89775 -9.46253,11.25615 -2.95845,0.2208 -5.87367,-0.77762 -7.80011,-2.66724 -1.6224,-1.59363 -2.41121,-3.67525 -2.28161,-6.01448 0.2032,-3.65764 2.01443,-5.31377 3.66084,-6.06898 3.61764,-2.10403 6.64971,-0.57601 6.97611,2.04014 0.34399,2.76961 -1.55685,4.67206 -3.11526,3.80644 -1.55522,-0.86562 0.3472,-4.49766 -1.38243,-4.75685 -0.936,-0.13931 -1.73442,0.09759 -2.28001,0.34718 -1.16481,0.68003 -2.32964,2.02884 -2.47843,4.70568 -0.1072,1.93441 0.5392,3.64643 1.87043,4.95047 1.6224,1.59359 4.19842,2.46562 6.72807,2.27841 3.87366,-0.28639 8.33931,-3.03684 8.18091,-9.84334 C 30.46338,5.92625 25.1689,1.57582 17.1288,1.57582 8.27269,1.57582 2.67741,9.1023 1.7286,16.53929 0.57178,25.6018 2.303,33.24991 7.33987,41.33961 c 3.52645,5.66409 9.24493,11.52016 14.7762,17.18584 3.33765,3.41445 6.7873,6.94727 9.72333,10.40332 3.23364,3.81127 5.04805,6.5201 6.24808,8.31371 1.1952,1.78883 1.70241,2.51362 2.21922,2.51362 0.5168,0 1.02081,-0.72479 2.21764,-2.51362 1.20001,-1.79361 3.01443,-4.50244 6.24809,-8.31371 C 51.70844,65.47272 55.1581,61.9399 58.49734,58.52545 64.02861,52.85977 69.74709,47.0037 73.27353,41.33961 78.3104,33.24991 80.0384,25.6018 78.88321,16.53929 77.93437,9.1023 72.34071,1.57582 63.483,1.57582 c -8.03851,0 -13.33298,4.35043 -13.49138,11.08661 -0.1568,6.8065 4.30727,9.55695 8.18091,9.84334 2.52963,0.18721 5.10729,-0.68482 6.72969,-2.27841 1.32962,-1.30404 1.97763,-3.01606 1.87042,-4.95047 -0.14878,-2.67684 -1.31359,-4.02565 -2.47844,-4.70568 -0.54559,-0.24959 -1.34559,-0.48649 -2.28002,-0.34718 -1.72962,0.25919 0.1728,3.89123 -1.38402,4.75685 -1.55681,0.86562 -3.46085,-1.03683 -3.11363,-3.80644 0.3264,-2.61615 3.36003,-4.14417 6.97608,-2.04014 1.64803,0.75681 3.45766,2.41134 3.66086,6.06898 0.1296,2.33923 -0.65922,4.42085 -2.28163,6.01448 C 63.94542,23.10738 61.03017,24.1058 58.07013,23.885 53.23647,23.5266 48.4396,19.90895 48.60922,12.62885 48.78043,5.18866 54.75969,0.19019 63.483,0.19019 c 9.65613,0 15.74741,8.13611 16.77143,16.17151 1.20161,9.40173 -0.58883,17.32981 -5.80489,25.70751 z"
                   style="fill:#000000;fill-opacity:1;fill-rule:nonzero;stroke:#000000;stroke-width:0.3985;stroke-linecap:butt;stroke-linejoin:miter;stroke-miterlimit:10;stroke-dasharray:none;stroke-opacity:1"
                   id="path34" /></g></g></g></g></g></g></g></svg>
