<?xml version="1.0" encoding="UTF-8" standalone="no"?>
<svg
   xmlns:dc="http://purl.org/dc/elements/1.1/"
   xmlns:cc="http://creativecommons.org/ns#"
   xmlns:rdf="http://www.w3.org/1999/02/22-rdf-syntax-ns#"
   xmlns:svg="http://www.w3.org/2000/svg"
   xmlns="http://www.w3.org/2000/svg"
   xmlns:sodipodi="http://sodipodi.sourceforge.net/DTD/sodipodi-0.dtd"
   xmlns:inkscape="http://www.inkscape.org/namespaces/inkscape"
   version="1.1"
   id="svg2"
   xml:space="preserve"
   width="99.997971"
   height="79.555794"
   viewBox="0 0 99.997969 79.555794"
   sodipodi:docname="vectorian017.pdf"><metadata
     id="metadata8"><rdf:RDF><cc:Work
         rdf:about=""><dc:format>image/svg+xml</dc:format><dc:type
           rdf:resource="http://purl.org/dc/dcmitype/StillImage" /></cc:Work></rdf:RDF></metadata><defs
     id="defs6" /><sodipodi:namedview
     pagecolor="#ffffff"
     bordercolor="#666666"
     borderopacity="1"
     objecttolerance="10"
     gridtolerance="10"
     guidetolerance="10"
     inkscape:pageopacity="0"
     inkscape:pageshadow="2"
     inkscape:window-width="640"
     inkscape:window-height="480"
     id="namedview4" /><g
     id="g10"
     inkscape:groupmode="layer"
     inkscape:label="vectorian017"
     transform="matrix(1.3333333,0,0,-1.3333333,0.85253251,79.714497)"><g
       id="g12"
       transform="translate(72,-12.099)"><g
         id="g14"
         transform="translate(-72,12.418)"><g
           id="g16"><g
             id="g18"><path
               d="m 65.71762,28.88155 c -1.19679,0 -2.23201,-0.21599 -3.13122,-0.59362 -6.1121,-1.62082 -6.0673,-8.9217 -2.35364,-10.70732 4.16004,-2.00001 7.84489,1.95684 6.61929,5.13446 -1.23042,3.18404 -4.87047,2.63526 -4.87047,2.63526 -0.08639,0.15357 -0.10881,0.31999 -0.1008,0.48959 0.05121,0.0544 0.0896,0.112 0.1424,0.1664 0.83203,0.82562 2.07362,1.24322 3.69444,1.24322 1.82404,0 3.35045,-0.71202 4.53609,-2.12483 2.0928,-2.49763 2.76323,-6.83688 1.74881,-11.32014 C 70.37689,6.60928 62.93681,1.94522 52.59267,1.6396 42.16692,1.3276 34.92363,6.85887 26.53473,14.12775 l -2.18243,1.89604 c -7.17128,6.24008 -13.36338,11.62735 -18.64824,13.45618 0,0 -0.33442,0.10079 -0.45922,0.13439 0.1344,0.04801 0.47362,0.17441 0.47362,0.17441 5.27046,1.82242 11.46256,7.20969 18.63384,13.45136 l 2.18243,1.89604 c 8.3889,7.2657 15.63219,12.80176 26.05794,12.49136 10.34414,-0.31039 17.78422,-4.96966 19.40985,-12.16496 1.01442,-4.48645 0.34399,-8.82251 -1.74881,-11.32014 -1.18564,-1.41282 -2.71205,-2.12803 -4.53609,-2.12803 -1.62082,0 -2.86241,0.4192 -3.69444,1.24482 -0.04,0.04159 -0.0688,0.0832 -0.10399,0.1248 0.0128,0.09599 0.01118,0.19679 0.06239,0.28639 0,0 3.64005,-0.54559 4.87047,2.63525 1.2256,3.18084 -2.45925,7.13448 -6.61929,5.13605 C 56.0695,39.4417 56.49512,30.49118 65.05522,30.39838 l -0.06239,0.04159 c 0.23999,-0.01919 0.46879,-0.0544 0.72479,-0.0544 2.32965,0 4.35367,0.94561 5.85608,2.73123 2.40645,2.87365 3.20645,7.7361 2.08643,12.69298 C 71.8585,53.76988 63.8056,58.92195 52.64546,59.25475 41.60692,59.58275 33.77641,53.60507 25.40031,46.34738 L 23.21149,44.44817 C 16.1762,38.32487 10.0977,33.03682 5.12964,31.31519 L 0,29.43837 5.17287,27.93594 C 10.0977,26.22871 16.1762,20.94066 23.21149,14.81738 l 2.18882,-1.90083 C 33.77641,5.66206 41.60692,-0.31879 52.64546,0.01239 63.8056,0.342 71.8585,5.49567 73.66013,13.45737 c 1.12002,4.95526 0.32002,9.81772 -2.08643,12.68815 -1.50241,1.78722 -3.52643,2.73603 -5.85608,2.73603 z"
               style="fill:#000000;fill-opacity:1;fill-rule:nonzero;stroke:#000000;stroke-width:0.3985;stroke-linecap:butt;stroke-linejoin:miter;stroke-miterlimit:10;stroke-dasharray:none;stroke-opacity:1"
               id="path20" /><path
               d="M 34.14282,14.74857 43.04213,8.9757 c 0,0 1.85443,12.32816 13.34738,20.16665 0,0 -10.67854,5.92007 -11.64334,22.30751 L 34.88683,46.74579 C 42.59734,34.70403 54.09029,29.78397 54.09029,29.78397 h -5.56008 c -15.42261,0 -24.98912,7.05609 -24.98912,7.05609 0,0 -3.11363,-4.06244 -8.60171,-6.76808 0,0 5.19206,-2.63685 8.60171,-7.12648 0,0 8.89772,5.98405 24.98912,5.98405 h 5.70888 c 0,0 -13.56979,-6.91209 -20.09627,-14.18098 z"
               style="fill:#000000;fill-opacity:1;fill-rule:nonzero;stroke:#000000;stroke-width:0.3985;stroke-linecap:butt;stroke-linejoin:miter;stroke-miterlimit:10;stroke-dasharray:none;stroke-opacity:1"
               id="path22" /></g></g></g></g></g></svg>
