<?xml version="1.0" encoding="UTF-8" standalone="no"?>
<svg
   xmlns:dc="http://purl.org/dc/elements/1.1/"
   xmlns:cc="http://creativecommons.org/ns#"
   xmlns:rdf="http://www.w3.org/1999/02/22-rdf-syntax-ns#"
   xmlns:svg="http://www.w3.org/2000/svg"
   xmlns="http://www.w3.org/2000/svg"
   xmlns:sodipodi="http://sodipodi.sourceforge.net/DTD/sodipodi-0.dtd"
   xmlns:inkscape="http://www.inkscape.org/namespaces/inkscape"
   version="1.1"
   id="svg2"
   xml:space="preserve"
   width="38.787071"
   height="19.81905"
   viewBox="0 0 38.787072 19.81905"
   sodipodi:docname="vectorian097.pdf"><metadata
     id="metadata8"><rdf:RDF><cc:Work
         rdf:about=""><dc:format>image/svg+xml</dc:format><dc:type
           rdf:resource="http://purl.org/dc/dcmitype/StillImage" /></cc:Work></rdf:RDF></metadata><defs
     id="defs6" /><sodipodi:namedview
     pagecolor="#ffffff"
     bordercolor="#666666"
     borderopacity="1"
     objecttolerance="10"
     gridtolerance="10"
     guidetolerance="10"
     inkscape:pageopacity="0"
     inkscape:pageshadow="2"
     inkscape:window-width="640"
     inkscape:window-height="480"
     id="namedview4" /><g
     id="g10"
     inkscape:groupmode="layer"
     inkscape:label="vectorian097"
     transform="matrix(1.3333333,0,0,-1.3333333,0.14053267,20.127188)"><g
       id="g12"
       transform="translate(72,-55.676)"><g
         id="g14"
         transform="translate(-72,56.108)"><g
           id="g16"><g
             id="g18"><path
               d="m 0,10.78362 c 0,0 4.35155,-1.43432 10.29932,1.12022 5.94766,2.55443 12.33465,3.98884 16.8453,0.4371 0,0 2.71436,-2.23354 1.15773,-5.34807 0,0 -1.31752,-2.35643 -3.87207,-1.16111 0,0 -1.2574,0.64199 -1.1761,2.06273 0.08062,1.41381 1.3961,1.59821 1.3961,1.59821 0,0 -2.75192,1.45483 -5.85015,-0.79229 C 15.70398,6.45326 12.42415,4.77306 8.15388,6.31667 c 0,0 3.58315,-0.9767 7.61092,1.3319 4.02844,2.30866 6.31528,3.46296 9.65521,1.70073 0,0 -1.74032,-0.10249 -1.74032,-1.45481 0,-1.35921 1.31552,-2.39063 2.79283,-1.94663 1.47742,0.44389 2.44932,2.16513 1.80183,4.29616 -0.64821,2.12422 -4.23066,4.58995 -8.84582,3.51765 -4.61514,-1.07242 -7.32678,-2.65014 -11.31565,-3.44244 0,0 -5.25306,-1.31823 -8.11288,0.46439"
               style="fill:#000000;fill-opacity:1;fill-rule:nonzero;stroke:#000000;stroke-width:0.3985;stroke-linecap:butt;stroke-linejoin:miter;stroke-miterlimit:10;stroke-dasharray:none;stroke-opacity:1"
               id="path20" /><path
               d="m 2.05112,8.83699 c 0,0 5.05845,-1.59142 11.04033,1.18163 5.98259,2.76622 10.04452,3.39463 12.70288,1.25682 0,0 1.5511,-1.40702 0.77519,-3.28534 l -0.4426,0.55319 c 0,0 0.66461,0 0.332,1.29092 -0.332,1.29093 -2.88034,3.21024 -7.53309,1.58463 C 14.27377,9.80011 10.32251,6.36447 2.05112,8.83699"
               style="fill:#000000;fill-opacity:1;fill-rule:nonzero;stroke:#000000;stroke-width:0.3985;stroke-linecap:butt;stroke-linejoin:miter;stroke-miterlimit:10;stroke-dasharray:none;stroke-opacity:1"
               id="path22" /><path
               d="m 23.4686,8.17447 c 0,0 -3.78455,0.47133 -6.12189,-2.28131 0,0 -1.34763,-1.80312 -0.40161,-3.15555 0,0 0.4494,-0.68301 1.37154,-0.56689 0.9234,0.1161 1.39541,1.01771 1.39541,1.01771 0,0 -0.85112,-0.94263 -1.93913,-0.5191 -1.08803,0.4235 -1.06412,2.73893 1.41931,4.13914 2.48343,1.39333 4.30437,1.20212 4.30437,1.20212 z"
               style="fill:#000000;fill-opacity:1;fill-rule:nonzero;stroke:#000000;stroke-width:0.3985;stroke-linecap:butt;stroke-linejoin:miter;stroke-miterlimit:10;stroke-dasharray:none;stroke-opacity:1"
               id="path24" /><path
               d="m 25.22331,5.81126 c 0,0 -3.21704,0.8537 -5.01477,-1.41392 -1.79703,-2.27443 -0.30731,-4.00244 0.7097,-4.09805 1.01772,-0.08881 2.20005,0.3551 2.03403,2.06272 0,0 -0.0943,-1.70762 -1.7028,-1.70762 -1.60782,0 -1.74982,2.39064 -0.3544,3.74295 1.3953,1.34563 3.09813,1.46171 4.32824,1.41392"
               style="fill:#000000;fill-opacity:1;fill-rule:nonzero;stroke:#000000;stroke-width:0.3985;stroke-linecap:butt;stroke-linejoin:miter;stroke-miterlimit:10;stroke-dasharray:none;stroke-opacity:1"
               id="path26" /><path
               d="m 26.52512,5.72246 c 0,0 -2.26421,-0.43712 -2.58043,-2.84822 -0.3169,-2.41106 1.94803,-3.14182 3.45744,-2.09006 1.50883,1.04503 1.28954,3.31265 0.09702,3.62686 -1.19323,0.31421 -1.92344,-0.90161 -1.77723,-2.14474 0,0 -0.60861,1.09973 0.36541,2.11744 0.97331,1.02452 3.18834,0.26641 2.60434,-2.09002 -0.58461,-2.3633 -3.04355,-2.72532 -4.40687,-1.87832 0,0 -1.21641,0.7786 -0.97323,2.65693 0.24312,1.87152 1.85023,2.77304 3.21355,2.65013"
               style="fill:#000000;fill-opacity:1;fill-rule:nonzero;stroke:#000000;stroke-width:0.3985;stroke-linecap:butt;stroke-linejoin:miter;stroke-miterlimit:10;stroke-dasharray:none;stroke-opacity:1"
               id="path28" /></g></g></g></g></g></svg>
