<?xml version="1.0" encoding="UTF-8" standalone="no"?>
<svg
   xmlns:dc="http://purl.org/dc/elements/1.1/"
   xmlns:cc="http://creativecommons.org/ns#"
   xmlns:rdf="http://www.w3.org/1999/02/22-rdf-syntax-ns#"
   xmlns:svg="http://www.w3.org/2000/svg"
   xmlns="http://www.w3.org/2000/svg"
   xmlns:sodipodi="http://sodipodi.sourceforge.net/DTD/sodipodi-0.dtd"
   xmlns:inkscape="http://www.inkscape.org/namespaces/inkscape"
   version="1.1"
   id="svg2"
   xml:space="preserve"
   width="56.501678"
   height="40.365337"
   viewBox="0 0 56.501678 40.365338"
   sodipodi:docname="vectorian184.pdf"><metadata
     id="metadata8"><rdf:RDF><cc:Work
         rdf:about=""><dc:format>image/svg+xml</dc:format><dc:type
           rdf:resource="http://purl.org/dc/dcmitype/StillImage" /></cc:Work></rdf:RDF></metadata><defs
     id="defs6" /><sodipodi:namedview
     pagecolor="#ffffff"
     bordercolor="#666666"
     borderopacity="1"
     objecttolerance="10"
     gridtolerance="10"
     guidetolerance="10"
     inkscape:pageopacity="0"
     inkscape:pageshadow="2"
     inkscape:window-width="640"
     inkscape:window-height="480"
     id="namedview4" /><g
     id="g10"
     inkscape:groupmode="layer"
     inkscape:label="vectorian184"
     transform="matrix(1.3333333,0,0,-1.3333333,-0.43548826,39.448592)"><g
       id="g12"
       transform="translate(72,-40.672)"><g
         id="g14"
         transform="translate(-71.475,40.672)"><g
           id="g16"><g
             id="g18"><path
               d="m 6.53296,0 c 0,0 13.61749,6.46545 27.43977,0.13799 0,0 -10.17843,8.32051 -27.43977,-0.13799"
               style="fill:#000000;fill-opacity:1;fill-rule:nonzero;stroke:#000000;stroke-width:0.3985;stroke-linecap:butt;stroke-linejoin:miter;stroke-miterlimit:10;stroke-dasharray:none;stroke-opacity:1"
               id="path20" /><path
               d="m 11.46443,13.38925 c 0.487,1.61603 -1.07101,1.79163 -2.29843,0.23432 -1.22733,-1.55933 -0.6044,-3.15694 -0.6044,-3.15694 0,0 2.41652,1.30591 2.90283,2.92262 m 6.8767,6.34938 C 17.65941,20.24475 16.6069,20.05144 16.43199,18.37602 16.2572,16.70059 17.309,16.1357 17.309,16.1357 c 1.75333,1.1495 1.71374,3.09753 1.03213,3.60293 m 5.80497,-0.56421 c -0.25342,0.89682 -1.86943,1.01293 -2.68834,-0.62289 -0.81829,-1.63724 -0.42901,-2.68973 -0.42901,-2.68973 2.63034,1.17 3.37005,2.41582 3.11735,3.31262 m 4.96765,-4.18826 c 0.21442,1.24584 -1.30601,1.90906 -2.14332,0.25342 -0.8374,-1.65561 -0.3702,-3.00124 -0.3702,-3.00124 0.97391,0.37021 2.29903,1.50131 2.51352,2.74782 m 4.53798,-1.65631 c -1.05123,0.78001 -1.92753,0.33192 -1.46034,-1.22672 0.46723,-1.5586 2.35643,-2.72662 2.35643,-2.72662 0.58472,1.22672 0.1564,3.17404 -0.89609,3.95334 m 6.33087,2.49443 c 0,0 -1.26562,1.42134 -3.27235,1.51834 -2.00603,0.09768 -1.6945,-1.57713 -0.935,-2.06345 0.76021,-0.48768 3.01964,-0.5662 4.20735,0.54511 m -4.26545,6.4272 c 0,0 -2.35713,-0.17352 -3.64255,-1.26633 -1.28612,-1.09141 -0.56482,-2.14192 0.7588,-2.08392 1.32512,0.05811 2.88375,1.55942 2.88375,3.35025 m -7.9285,4.12955 c 0,0 -1.71373,-0.50612 -2.35715,-2.21983 -0.6427,-1.71372 1.05262,-2.18223 1.87084,-1.5777 0.81761,0.60308 1.1092,2.57151 0.48631,3.79753 m -7.03241,0.95491 c 0,0 -1.10989,-1.47942 -0.5061,-2.96094 0.60382,-1.47943 2.37623,-1.28612 2.39604,0.19531 0.0191,1.48081 -0.95422,2.47322 -1.88994,2.76563 m -8.70718,-0.6427 c 0,0 -0.05802,-1.57784 0.974,-3.54497 1.0321,-1.96841 2.51284,-1.75331 2.70824,-0.6427 0.19459,1.11063 -1.07174,2.82364 -3.68224,4.18767 m -6.6034,-3.33115 c 0,0 0.56481,-1.71371 2.16242,-3.11734 1.59692,-1.40152 3.31125,-1.22742 3.09685,0.2343 -0.21451,1.46101 -2.80524,3.09753 -5.25927,2.88304 m -2.62143,-7.1226 c 0,0 2.90963,-1.25333 4.48674,-0.64679 1.57643,0.6065 0.54981,2.15971 -1.10582,2.17881 -1.65632,0.01981 -2.71022,-0.5901 -3.38092,-1.53202 m 16.094,-2.14263 c 0,0 -1.30182,-6.63968 3.16853,-9.98161 0,0 -4.68756,1.38919 -3.81943,8.07329 0,0 -4.55716,-7.8985 -9.80894,-2.99573 0,0 -4.07965,-1.47533 -6.50989,0.347 -2.43078,1.82292 -1.3455,5.07886 -0.38998,6.20657 0,0 -2.08382,1.60643 -1.43294,4.42807 0.65162,2.82013 4.47037,3.51484 4.47037,3.51484 0,0 0.4774,5.33847 7.03039,3.60224 0,0 2.51752,4.03737 8.6368,0.91111 0,0 3.21155,2.95204 7.24821,-0.47599 0,0 3.03803,1.12832 5.94637,-0.82511 0,0 1.90902,-1.47533 2.43022,-3.34134 0,0 3.60225,0.30319 5.51198,-2.82096 0,0 1.47603,-2.21294 -0.6509,-4.47104 0,0 1.64951,-1.73553 1.1283,-4.29684 -0.5204,-2.56066 -3.55925,-4.03537 -6.51058,-3.03746 0,0 -1.08462,-2.17062 -4.51336,-1.51972 -3.42874,0.65092 -4.16644,3.60224 -4.16644,3.60224 0,0 -4.03667,-1.77852 -5.77219,3.90626 0,0 -1.82372,-0.17282 -3.12483,0.60851 0,0 -4.03667,-3.25595 -6.46758,3.12353 0,0 2.17061,-4.16575 5.64316,-2.69042 0,0 -1.34622,1.21571 -0.6947,3.12542 0.651,1.90914 2.60373,1.25823 2.77723,-0.04439 0.1735,-1.30041 -0.34701,-2.55993 -1.21511,-3.08103 0,0 1.08461,-0.56351 2.95132,-0.1305 0,0 -0.38998,1.86742 0.73773,3.38573 1.1283,1.51971 3.77574,0.99791 3.60223,-0.95482 -0.1735,-1.95351 -2.17,-3.12483 -3.86254,-3.34203 0,0 0.65091,-3.94926 5.07828,-2.77725 0,0 -0.47744,1.82234 0.60719,3.55797 1.08472,1.7369 3.16855,0.6516 2.34353,-1.73563 -0.82441,-2.38643 -2.38722,-2.95135 -2.38722,-2.95135 0,0 0.86811,-2.38713 3.42945,-3.08043 2.56002,-0.69531 4.16644,1.17071 4.16644,1.17071 0,0 -2.56133,1.4767 -2.73483,3.55855 -0.17351,2.08322 1.90971,1.60652 2.95132,0.2179 1.04163,-1.38791 0.78142,-2.86524 0.78142,-3.69034 0,0 3.12483,-0.78001 5.07826,1.08529 1.95213,1.86733 0.30331,4.77439 -0.4781,5.25248 0,0 -2.77784,-1.73692 -4.55646,-0.304 -1.77991,1.43162 0.347,4.51347 5.03456,1.34492 0,0 1.86603,1.73622 0.39002,3.77574 -1.47533,2.03954 -4.94777,1.99784 -4.94777,1.99784 0,0 0.17411,-2.60503 -2.56003,-3.56125 -2.73483,-0.95282 -2.77854,1.47731 -1.73622,2.82223 1.04159,1.34551 3.81944,1.86663 3.81944,1.86663 0,0 -1.21512,5.12068 -7.37799,3.21093 0,0 1.04092,-3.60293 -0.99861,-4.51344 -2.03943,-0.91182 -4.12337,2.2144 0,5.33856 0,0 -2.29973,2.99504 -6.16288,0.13109 0,0 1.95274,-0.73829 1.90972,-3.12552 -0.0437,-2.38714 -3.08183,-1.69253 -3.64595,0 -0.56421,1.69321 0.65091,3.47252 0.65091,3.47252 0,0 -5.12128,3.12415 -7.81171,-0.99789 0,0 2.86385,-1.12972 3.73206,-3.29965 0.86811,-2.16933 -1.12842,-3.60094 -3.25536,-1.12772 0,0 -1.562,1.95274 -1.08459,4.42737 0,0 -5.72858,1.86603 -6.16289,-3.25525 0,0 2.90755,0.17282 4.64387,-1.60652 1.73621,-1.77922 1.04161,-4.42595 -2.29974,-2.99433 0,0 -2.30112,1.25742 -3.08183,4.12266 0,0 -2.77785,-0.43372 -3.73275,-2.51626 -0.95408,-2.08452 0.304,-3.77644 1.56281,-4.29684 0,0 1.04163,1.51831 3.42805,1.60571 2.38714,0.08611 3.47255,-1.34621 1.95342,-2.99562 -1.5197,-1.64954 -5.46896,-0.34702 -5.98938,0.39059 0,0 -1.3456,-1.25741 -0.7814,-3.42874 0.5649,-2.16864 4.73126,-2.60364 7.1615,-1.60583 0,0 -0.65093,1.99653 1.0416,3.90626 1.69253,1.90973 3.21155,0.73772 2.47393,-1.30182 -0.73839,-2.03953 -2.82152,-3.51484 -2.82152,-3.51484 0,0 0.69389,-1.69394 4.16634,-0.60721 3.47255,1.08461 4.55786,2.64462 5.85968,5.20596"
               style="fill:#000000;fill-opacity:1;fill-rule:nonzero;stroke:#000000;stroke-width:0.3985;stroke-linecap:butt;stroke-linejoin:miter;stroke-miterlimit:10;stroke-dasharray:none;stroke-opacity:1"
               id="path22" /></g></g></g></g></g></svg>
