<?xml version="1.0" encoding="UTF-8" standalone="no"?>
<svg
   xmlns:dc="http://purl.org/dc/elements/1.1/"
   xmlns:cc="http://creativecommons.org/ns#"
   xmlns:rdf="http://www.w3.org/1999/02/22-rdf-syntax-ns#"
   xmlns:svg="http://www.w3.org/2000/svg"
   xmlns="http://www.w3.org/2000/svg"
   xmlns:sodipodi="http://sodipodi.sourceforge.net/DTD/sodipodi-0.dtd"
   xmlns:inkscape="http://www.inkscape.org/namespaces/inkscape"
   version="1.1"
   id="svg2"
   xml:space="preserve"
   width="120.07629"
   height="120.46445"
   viewBox="0 0 120.07629 120.46444"
   sodipodi:docname="vectorian195.pdf"><metadata
     id="metadata8"><rdf:RDF><cc:Work
         rdf:about=""><dc:format>image/svg+xml</dc:format><dc:type
           rdf:resource="http://purl.org/dc/dcmitype/StillImage" /></cc:Work></rdf:RDF></metadata><defs
     id="defs6"><clipPath
       clipPathUnits="userSpaceOnUse"
       id="clipPath64"><path
         d="M 0,0 H 89.85774 V 90.34834 H 0 Z"
         id="path62" /></clipPath><clipPath
       clipPathUnits="userSpaceOnUse"
       id="clipPath72"><path
         d="M 0,0 H 89.85774 V 90.34834 H 0 Z"
         id="path70" /></clipPath></defs><sodipodi:namedview
     pagecolor="#ffffff"
     bordercolor="#666666"
     borderopacity="1"
     objecttolerance="10"
     gridtolerance="10"
     guidetolerance="10"
     inkscape:pageopacity="0"
     inkscape:pageshadow="2"
     inkscape:window-width="640"
     inkscape:window-height="480"
     id="namedview4" /><g
     id="g10"
     inkscape:groupmode="layer"
     inkscape:label="vectorian195"
     transform="matrix(1.3333333,0,0,-1.3333333,0,122.07112)"><g
       id="g12"
       transform="translate(72,19.552)"><g
         id="g14"
         transform="translate(-72,-18.347)"><g
           id="g16"><g
             id="g18"><path
               d="m 60.67696,15.93309 c 0,0 1.35572,-0.8298 1.15081,-1.71573 -0.20759,-0.8838 -0.50199,-0.97531 -0.8995,-1.65703 -0.39891,-0.68229 -1.00403,-2.24983 0.54161,-3.68002 1.54373,-1.42892 3.08185,-1.07243 4.29146,-0.0219 0.9125,0.79089 0.52051,2.93833 -1.14331,2.21033 -1.27391,-0.55742 -2.07094,-1.82233 -2.07094,-1.82233 0,0 1.87553,1.87761 2.82423,1.55312 0.94742,-0.32372 -0.02389,-2.00334 -2.00123,-2.17134 -1.97872,-0.166 -2.17951,1.39963 -1.87221,2.57844 0.4064,1.56282 1.65843,4.08725 -0.82092,4.72646"
               style="fill:#000000;fill-opacity:1;fill-rule:nonzero;stroke:#000000;stroke-width:0.3985;stroke-linecap:butt;stroke-linejoin:miter;stroke-miterlimit:10;stroke-dasharray:none;stroke-opacity:1"
               id="path20" /><path
               d="m 66.45734,3.78885 c 0,0 0.55322,-2.68975 3.04765,-2.16524 2.84543,0.5956 4.05576,2.70683 4.43556,3.80853 0.38039,1.10384 -0.19191,2.15903 -1.37904,0.85653 -1.18781,-1.30321 -0.8483,-3.46636 -0.8483,-3.46636 -1.07301,2.03543 0.7137,4.51007 1.59212,4.48477 0.87842,-0.02461 1.46783,-1.29432 0.69531,-2.98953 -0.60171,-1.32034 -1.33871,-1.81964 -1.33871,-1.81964 0,0 0.49659,-1.27521 2.62213,-0.8893 2.12762,0.38519 2.22252,2.16384 2.22252,2.16384 1.13792,3.38432 2.32985,5.05845 3.21774,5.99885 0.89062,0.93993 1.56271,2.10924 4.80096,3.57715 3.23545,1.46783 3.82975,1.97053 3.98676,3.00595 0.15709,1.03542 -0.49172,1.72182 -0.49172,1.72182 l 0.29371,0.2139 c 0.51222,-0.31152 0.92892,-2.03064 -0.041,-3.56334 -0.9699,-1.53203 -2.21984,-1.71923 -4.34885,-2.54975 C 82.79314,11.34584 81.90863,10.77612 80.79332,9.32341 79.6779,7.86917 79.36441,6.16986 78.68071,4.18495 77.99908,2.19942 77.493,2.65912 77.04758,2.07712 76.60158,1.4959 76.15897,1.2862 76.15897,1.2862 L 76.88638,0.8935 C 75.93156,0.623 75.20755,1.2384 75.20755,1.2384 73.37022,0.62228 72.43793,2.20761 72.43793,2.20761 67.05565,-1.2047 66.16164,3.64813 66.16164,3.64813 60.88866,3.12901 62.04298,7.92389 62.04298,7.92389 c 0,0 -0.09629,-1.92954 0.69802,-2.84143 0.7951,-0.91382 3.20132,-1.50203 5.49498,0.5867 2.29352,2.08942 1.5771,3.37065 0.03407,2.89534 -1.54149,-0.47533 -2.37622,-2.90354 -2.38712,-3.79425 0,0 -0.3552,0.82651 0.39551,2.36473 0.74921,1.53871 2.81333,2.74232 3.89385,1.3762 1.08122,-1.36941 -1.29361,-4.12333 -3.71495,-4.72233"
               style="fill:#000000;fill-opacity:1;fill-rule:nonzero;stroke:#000000;stroke-width:0.3985;stroke-linecap:butt;stroke-linejoin:miter;stroke-miterlimit:10;stroke-dasharray:none;stroke-opacity:1"
               id="path22" /><path
               d="m 78.512,8.34859 c 0,0 -0.36611,-0.13732 -1.54293,-0.55049 -1.1748,-0.4126 -3.69585,-3.08936 -1.15501,-4.79487 0,0 -0.71311,1.65362 -0.11409,2.67672 0.68101,1.16662 1.1188,1.67613 1.92613,2.02522 0.8094,0.34833 0.8859,0.64342 0.8859,0.64342"
               style="fill:#000000;fill-opacity:1;fill-rule:nonzero;stroke:#000000;stroke-width:0.3985;stroke-linecap:butt;stroke-linejoin:miter;stroke-miterlimit:10;stroke-dasharray:none;stroke-opacity:1"
               id="path24" /><path
               d="m 79.99281,3.77684 c 0,0 1.49443,2.48213 3.11594,3.40063 1.62012,0.91941 5.81598,3.02796 5.34468,6.16239 0,0 -0.1776,-2.37224 -2.15833,-3.20754 C 84.30467,9.2977 80.41283,8.2206 79.99281,3.77684"
               style="fill:#000000;fill-opacity:1;fill-rule:nonzero;stroke:#000000;stroke-width:0.3985;stroke-linecap:butt;stroke-linejoin:miter;stroke-miterlimit:10;stroke-dasharray:none;stroke-opacity:1"
               id="path26" /><path
               d="m 82.06505,11.59024 c 0,0 0.39621,2.58733 2.31412,3.86934 1.91593,1.28272 3.65073,-0.6223 3.65073,-0.6223 0,0 -0.77859,2.02722 -3.42051,1.43302 -2.55594,-0.57302 -2.54434,-4.68006 -2.54434,-4.68006"
               style="fill:#000000;fill-opacity:1;fill-rule:nonzero;stroke:#000000;stroke-width:0.3985;stroke-linecap:butt;stroke-linejoin:miter;stroke-miterlimit:10;stroke-dasharray:none;stroke-opacity:1"
               id="path28" /><path
               d="m 87.85231,24.27419 c 0,0 2.02864,-1.61802 0.97672,-4.18764 -1.05861,-2.57024 -4.57276,-2.76683 -4.77836,-1.64673 -0.20629,1.11941 2.21703,2.01634 3.89046,0.78131 l 0.2937,0.28761 c 0,0 -1.30453,1.22541 -3.43554,0.39611 -2.13173,-0.83182 -1.13732,-3.23676 0.9138,-3.07285 1.67482,0.1352 3.38234,1.24242 3.92195,3.38025 0.53961,2.13933 -0.90842,3.81393 -1.78273,4.06194"
               style="fill:#000000;fill-opacity:1;fill-rule:nonzero;stroke:#000000;stroke-width:0.3985;stroke-linecap:butt;stroke-linejoin:miter;stroke-miterlimit:10;stroke-dasharray:none;stroke-opacity:1"
               id="path30" /><path
               d="m 75.33597,29.97606 c 2.52713,-2.81983 4.38903,-0.12569 5.62805,-0.45699 2.18703,-0.58622 1.64952,-2.79515 1.19943,-3.74795 -0.48901,-1.03272 -2.14332,-1.64752 -2.20003,-0.30872 -0.0574,1.34001 2.08123,2.61394 2.08123,2.61394 -1.32241,-0.48091 -2.06414,-1.2765 -2.29363,-2.08942 -0.23021,-0.80862 0.265,-2.38235 2.03131,-1.46702 1.76693,0.9151 1.36052,3.52635 1.36052,3.52635 1.54232,0.5491 3.22055,0.13179 3.48006,-2.40154 0.26639,-2.53254 -1.87764,-4.18003 -2.98006,-4.51956 -1.101,-0.34071 -2.11322,0.65372 -0.9241,2.10514 1.18782,1.45141 3.52845,1.38511 3.52845,1.38511 v 0.2971 c 0,0 -1.75333,-0.0238 -2.93284,-0.7335 -1.17961,-0.70972 -2.07503,-2.16922 -1.06352,-3.23685 1.01092,-1.06962 3.43904,-0.02459 4.48816,1.95203 1.04501,1.97462 0.49182,4.21916 -0.74382,5.07007 -1.23351,0.85251 -2.99573,0.3818 -2.99573,0.3818 0,0 -0.8524,2.10543 -3.20134,1.57741 -1.62281,-0.36409 -2.05722,-0.6846 -3.00523,-0.50909 -0.94872,0.1765 -1.45691,0.56169 -1.45691,0.56169"
               style="fill:#000000;fill-opacity:1;fill-rule:nonzero;stroke:#000000;stroke-width:0.3985;stroke-linecap:butt;stroke-linejoin:miter;stroke-miterlimit:10;stroke-dasharray:none;stroke-opacity:1"
               id="path32" /><path
               d="m 77.27579,0.9074 c 0,0 5.06796,-0.53951 9.01239,3.01144 3.94787,3.55235 3.62007,8.81032 3.24437,10.10742 0,0 0.4508,-11.20163 -12.25676,-13.11886"
               style="fill:#000000;fill-opacity:1;fill-rule:nonzero;stroke:#000000;stroke-width:0.3985;stroke-linecap:butt;stroke-linejoin:miter;stroke-miterlimit:10;stroke-dasharray:none;stroke-opacity:1"
               id="path34" /><path
               d="m 73.05403,16.74629 c 0,0 -0.50549,-5.48126 -5.69987,-5.25937 l 0.36129,-0.38238 c 0,0 4.01345,-1.07914 5.45807,3.48404 0,0 0.09081,1.48361 -0.11949,2.15771"
               style="fill:#000000;fill-opacity:1;fill-rule:nonzero;stroke:#000000;stroke-width:0.3985;stroke-linecap:butt;stroke-linejoin:miter;stroke-miterlimit:10;stroke-dasharray:none;stroke-opacity:1"
               id="path36" /><path
               d="m 73.51913,18.96072 c 0,0 2.68973,-1.48631 4.01134,-1.0785 1.32302,0.40851 3.10646,2.65974 2.47464,4.90547 0,0 -0.3846,-1.54843 -1.35032,-2.78464 -0.96649,-1.23352 -2.28682,-1.49313 -3.30993,-1.39062 -1.02322,0.1031 -1.82573,0.34829 -1.82573,0.34829"
               style="fill:#000000;fill-opacity:1;fill-rule:nonzero;stroke:#000000;stroke-width:0.3985;stroke-linecap:butt;stroke-linejoin:miter;stroke-miterlimit:10;stroke-dasharray:none;stroke-opacity:1"
               id="path38" /><path
               d="m 71.1688,16.2793 c 0.19132,-0.35102 -0.5109,-1.91584 -1.83591,-2.62075 -1.32572,-0.70489 -2.00263,-0.2404 -2.00263,-0.2404 2.53943,0.37291 3.54624,2.82025 3.54624,2.82025 z m -1.46911,-0.55252 -0.1974,-0.14208 c 0,0 -0.33812,0.30739 -0.68372,-0.07922 -0.347,-0.3866 -0.056,-0.64272 -0.056,-0.64272 l -0.1503,-0.24319 c 0,0 -0.67692,0.51361 -0.0355,1.14003 0.64271,0.6256 1.12292,-0.03282 1.12292,-0.03282 m 1.31611,1.96774 c 0,0 -0.07581,-0.1461 -0.66322,-0.351 0,0 -0.5867,-0.0581 -0.73489,-0.2774 0,0 0.06969,-0.37352 0.43649,-0.15911 0,0 0.44252,0.209 0.43842,-0.08811 0,0 -0.2267,-0.6625 -0.73901,-0.6482 -0.51223,0.01569 -0.82442,0.3702 -1.39403,-0.25682 -0.6004,-0.66179 -0.01909,-1.63312 -0.01909,-1.63312 0,0 -0.22472,-0.43909 -0.88521,-0.56891 0,0 -0.21863,0.05522 0.15231,0.51572 0.24729,0.30659 -0.21382,0.4514 -0.21382,0.4514 0,0 -0.37771,-0.95482 -0.82299,-1.4623 0,0 0.94459,-0.62152 2.70953,0.1469 1.76562,0.767 2.88852,2.88843 1.94041,3.21283 0,0 0.304,0.88251 -0.2049,1.11812"
               style="fill:#000000;fill-opacity:1;fill-rule:nonzero;stroke:#000000;stroke-width:0.3985;stroke-linecap:butt;stroke-linejoin:miter;stroke-miterlimit:10;stroke-dasharray:none;stroke-opacity:1"
               id="path40" /><path
               d="m 77.6917,23.1256 c 0,0 -0.01842,-1.53405 -0.90842,-2.40014 -0.88722,-0.86601 -1.56612,-0.59971 -1.56612,-0.59971 2.21024,1.37221 2.47454,2.99985 2.47454,2.99985 m -1.42412,-0.75202 -0.29712,-0.3381 c 0,0 -0.28749,0.30529 -0.58402,0.0171 -0.2964,-0.28882 -0.15638,-0.68912 -0.15638,-0.68912 l -0.24591,-0.24122 c -0.48351,0.31012 -0.2329,0.99724 0.3088,1.32933 0.54091,0.3305 0.97463,-0.07799 0.97463,-0.07799 m -1.76833,-0.9904 c -0.0027,-0.24593 0.0895,-0.69463 0.0895,-0.69463 -0.2466,-0.29019 -0.5389,-0.23221 -0.5389,-0.23221 l 0.15707,0.88732 z M 78.191,24.0525 c 0,0 -1.27253,-0.2602 -1.90633,-0.2432 0,0 -0.34221,-0.08951 -0.44332,-0.43302 0,0 0.73093,-0.02051 1.22063,0.1127 0,0 -0.054,-0.44331 -0.5464,-0.72671 0,0 -1.84763,0.49793 -2.01294,-1.13109 l -0.5368,0.01639 c 0,0 -0.15371,-0.6407 -0.55121,-1.17342 l -0.19809,-0.2418 c 0,0 0.96649,-0.76981 2.23961,-0.45971 1.27113,0.3115 2.15904,1.02861 2.82704,3.83175 0,0 -0.194,0.1544 -0.3886,0.15922 0,0 0.0013,0.14748 0.29641,0.28889"
               style="fill:#000000;fill-opacity:1;fill-rule:nonzero;stroke:#000000;stroke-width:0.3985;stroke-linecap:butt;stroke-linejoin:miter;stroke-miterlimit:10;stroke-dasharray:none;stroke-opacity:1"
               id="path42" /><path
               d="m 72.19882,18.70193 c 0,0 -1.16252,0.70011 -1.81072,1.46241 0,0 -0.15022,-0.29239 0.3538,-0.8272 0.5062,-0.5355 1.45012,-1.15503 1.45692,-0.63521"
               style="fill:#000000;fill-opacity:1;fill-rule:nonzero;stroke:#000000;stroke-width:0.3985;stroke-linecap:butt;stroke-linejoin:miter;stroke-miterlimit:10;stroke-dasharray:none;stroke-opacity:1"
               id="path44" /><path
               d="m 71.1866,21.67688 c 0,0 0.89412,-0.59493 1.03612,-0.97124 0.1421,-0.375 0.57791,-0.6093 0.57791,-0.6093 0,0 0.23419,0.30262 -0.06702,0.51981 -0.5314,0.38789 -0.81279,1.33733 -1.54701,1.06073"
               style="fill:#000000;fill-opacity:1;fill-rule:nonzero;stroke:#000000;stroke-width:0.3985;stroke-linecap:butt;stroke-linejoin:miter;stroke-miterlimit:10;stroke-dasharray:none;stroke-opacity:1"
               id="path46" /><path
               d="m 71.58481,22.35777 c 0,0 0.3401,-0.05929 0.34421,0.28771 0.0041,0.3462 -0.23772,0.5518 -0.28272,0.8005 -0.04579,0.24781 -0.1407,0.44941 -0.679,0.31621 -0.53682,-0.13322 -1.02722,-0.31701 -1.41792,-0.3081 -0.39069,0.01158 -0.78272,-0.1256 -1.03482,-0.81142 -0.252,-0.68509 -0.5423,-0.5286 -0.74379,-0.96921 -0.20081,-0.43989 0.03009,-1.53541 0.71109,-1.75262 0.68022,-0.2179 0.78343,0.2261 0.78343,0.2261 0,0 -0.63112,0.31421 -0.62631,0.66121 0.004,0.34621 0.39272,0.1864 0.43908,-0.01298 0.04511,-0.19883 0.47882,-0.70693 0.77123,-0.71444 0,0 0.295,0.13932 0.29771,0.33732 0,0 -0.57922,0.61141 -0.66864,1.2069 -0.09147,0.59763 0.30191,0.83393 0.64612,1.02242 0.34362,0.18861 0.78342,0.27393 1.07992,0.5137 0.2964,0.23831 0.4302,-0.6078 0.38041,-0.8033"
               style="fill:#000000;fill-opacity:1;fill-rule:nonzero;stroke:#000000;stroke-width:0.3985;stroke-linecap:butt;stroke-linejoin:miter;stroke-miterlimit:10;stroke-dasharray:none;stroke-opacity:1"
               id="path48" /><path
               d="m 68.53787,24.52359 c 0,0 0.1939,-0.05458 0.1919,-0.30259 -0.0041,-0.24792 -0.49181,-0.28352 -0.49041,-0.03551 0.0041,0.248 0.29851,0.3381 0.29851,0.3381 m 0.70349,1.66454 c 0,0 -0.49179,-0.33343 -0.64209,-0.52662 -0.1482,-0.19401 -0.4897,-0.2834 -0.49861,-0.87771 0,0 -0.58259,0.1647 -0.83261,-0.323 -0.25059,-0.4884 -0.64751,-1.12021 -0.89271,-1.2131 -0.2445,-0.09082 -1.22731,-0.70763 -1.91312,-0.83672 0,0 0.82851,-0.17131 0.92281,-0.42271 0.0935,-0.24932 0.5785,-0.55951 1.01971,-0.37511 0,0 -0.14549,0.15312 -0.1407,0.44951 0.0034,0.2971 -0.1407,0.5 -0.1407,0.5 0,0 0.2411,-0.25479 0.73021,-0.07039 0,0 0.29571,0.13939 0.58871,0.2309 0.29231,0.09019 0.2479,0.3388 0.2479,0.3388 0,0 -0.19321,0.15432 -0.045,0.2991 0.14889,0.14352 0.49519,0.5307 0.49519,0.5307 0,0 0.29163,-0.0088 0.28822,-0.30529 0,0 0.54302,0.47951 0.545,0.72741 0.0034,0.248 -0.09151,0.4973 0.25141,0.5867 0,0 0.44938,0.7787 0.4521,1.07572 0,0 0.0451,-0.2977 -0.0068,-0.59412 0,0 0.38802,-0.1093 0.58812,0.13252 0,0 -0.5294,0.65909 -0.5191,1.49991 0,0 -0.58541,0.06621 -0.49793,-0.8265"
               style="fill:#000000;fill-opacity:1;fill-rule:nonzero;stroke:#000000;stroke-width:0.3985;stroke-linecap:butt;stroke-linejoin:miter;stroke-miterlimit:10;stroke-dasharray:none;stroke-opacity:1"
               id="path50" /><path
               d="m 68.21207,25.77103 0.14891,0.293 c 0,0 -0.77182,0.76361 -1.85993,-0.44193 -1.08803,-1.2076 -1.52792,-1.3933 -1.29632,-2.43912 0,0 0.38931,-0.06149 0.3421,0.13871 -0.04709,0.1994 0.10391,0.54021 0.35181,0.83121 0.24659,0.29101 0.89271,1.1632 1.33322,1.44743 0.4447,0.2847 0.98021,0.1707 0.98021,0.1707"
               style="fill:#000000;fill-opacity:1;fill-rule:nonzero;stroke:#000000;stroke-width:0.3985;stroke-linecap:butt;stroke-linejoin:miter;stroke-miterlimit:10;stroke-dasharray:none;stroke-opacity:1"
               id="path52" /><path
               d="m 66.50854,26.21523 -0.81411,-0.79372 c 0,0 0.56141,-0.04099 0.81411,0.79372"
               style="fill:#000000;fill-opacity:1;fill-rule:nonzero;stroke:#000000;stroke-width:0.3985;stroke-linecap:butt;stroke-linejoin:miter;stroke-miterlimit:10;stroke-dasharray:none;stroke-opacity:1"
               id="path54" /><path
               d="m 65.48672,26.39264 c 0,0 -0.88859,-0.86672 -1.1331,-0.90834 -0.24382,-0.04308 -0.58743,-0.18248 -1.21032,0.72742 0,0 -0.0526,-0.2459 0.1879,-0.5998 0.2383,-0.35301 0.9186,-0.62012 1.3127,-0.2855 0.39553,0.33679 1.03484,0.81359 1.03484,0.81359 z"
               style="fill:#000000;fill-opacity:1;fill-rule:nonzero;stroke:#000000;stroke-width:0.3985;stroke-linecap:butt;stroke-linejoin:miter;stroke-miterlimit:10;stroke-dasharray:none;stroke-opacity:1"
               id="path56" /><path
               d="m 79.75102,25.98712 -0.06491,0.67131 c 0,0 -2.02513,1.98902 -6.54468,3.45285 -4.51826,1.46512 -8.08091,0.403 -10.11283,-1.27252 -2.43972,-2.01022 -4.85767,-8.40251 0.82641,-16.3618 0,0 -1.71713,3.16713 -2.25734,6.97157 -0.53891,3.80095 0.23633,8.57332 4.73197,10.03914 4.18695,1.36742 11.61814,-1.36882 13.42138,-3.50055"
               style="fill:#000000;fill-opacity:1;fill-rule:nonzero;stroke:#000000;stroke-width:0.3985;stroke-linecap:butt;stroke-linejoin:miter;stroke-miterlimit:10;stroke-dasharray:none;stroke-opacity:1"
               id="path58" /><g
               id="g60"
               clip-path="url(#clipPath64)"><path
                 d="m 68.57336,40.7637 c -0.39341,-0.29638 -1.37831,0.19742 -1.87013,1.18094 -0.49309,0.9856 -0.68919,2.85573 -0.68919,2.85573 2.36333,-1.77173 2.95344,-3.74095 2.55932,-4.03667 m 2.36394,9.84712 c 0,0 0.49242,-0.39338 1.87012,-2.55993 1.37833,-2.16661 -0.49179,-3.34752 -1.4767,-1.28069 -0.98494,2.06821 -0.39342,3.84062 -0.39342,3.84062 m 6.79398,4.43076 c 0.59082,-1.77171 -0.59081,-2.0675 -1.3783,-1.27931 -0.78892,0.78752 -1.47673,3.15144 -1.47673,3.15144 0,0 2.26422,-0.0997 2.85503,-1.87213 m 3.05174,8.96122 c 0.3941,-2.36323 -1.18091,-1.57572 -1.57501,-0.29499 -0.39482,1.27931 -0.39482,3.64255 -0.39482,3.64255 0,0 1.57573,-0.98423 1.96983,-3.34756 M 64.34003,36.92308 c 1.76761,-0.12631 1.57571,-1.77174 -0.09913,-1.37764 -1.674,0.3941 -2.55992,1.57571 -2.55992,1.57571 0,0 1.27932,-0.09909 2.65905,-0.19807 m -4.92469,8.46878 c 1.96984,1.96984 5.61379,0.099 5.61379,0.099 -0.099,-0.29709 0.6878,-4.33306 2.56003,-5.12056 1.87213,-0.78821 1.67401,0.49312 1.08391,2.06813 -0.5922,1.57442 -2.56133,2.65834 -2.56133,2.65834 0,0 -0.68851,1.87151 0.59149,4.43016 1.28063,2.56133 3.05176,1.57643 3.05176,1.57643 -0.0984,-1.77183 0.59079,-5.12068 2.26492,-5.80989 1.67342,-0.6884 1.96984,1.1817 1.18093,2.95413 -0.78751,1.77242 -2.46025,2.95406 -2.46025,2.95406 0.29501,6.30298 3.64256,5.90886 3.64256,5.90886 0.099,-2.46231 2.06683,-4.72656 2.95404,-4.43214 0.88661,0.2957 1.08261,1.57501 0.1967,3.15142 -0.88583,1.57502 -2.55855,1.67484 -2.55855,1.67484 0,0 -0.88731,4.52905 0.0983,7.68048 0.98422,3.15085 3.24846,2.46034 3.24846,2.46034 0,0 0.09909,-4.72587 1.18161,-5.51406 1.08401,-0.78684 1.87083,0.09968 1.57582,2.06881 -0.29651,1.96784 -2.16524,3.64255 -2.16524,3.64255 0,0 -0.4931,2.36333 1.27933,9.65042 1.77101,7.2859 6.00578,10.33892 6.00578,10.33892 0,0 -3.05173,-4.13634 -3.24914,-12.80114 -0.19741,-8.66483 1.37773,-14.6713 2.46162,-20.77757 1.08122,-6.10347 1.47742,-17.13224 -4.33235,-21.07128 -5.80986,-3.93925 -9.55143,-0.09829 -9.55143,-0.09829 2.06823,2.06752 2.36324,3.83993 1.47742,4.52974 -0.88661,0.68854 -1.6748,0.29512 -2.16792,-1.0832 -0.49182,-1.37902 0.0997,-3.15144 0.0997,-3.15144 -4.43214,-2.75744 -9.94684,-0.88661 -10.43794,1.08251 -0.49249,1.96983 0.78821,2.36332 0.78821,2.36332 3.05246,-2.95273 5.41566,-1.27931 4.33166,0 -1.0825,1.28133 -4.52905,0.59142 -4.52905,0.59142 -2.85645,1.67482 -3.64467,6.00786 -1.67484,7.97569 m 12.01438,-8.46878 c 0.49179,1.084 1.77112,0.69048 1.47671,-0.68924 -0.29501,-1.37831 -1.57571,-2.65762 -1.57571,-2.65762 -0.19672,0.4918 -0.39342,2.26423 0.099,3.34686 m -10.63466,0.09898 c 0,0 -1.47731,-0.6891 -0.78819,-3.05233 0.68989,-2.36333 5.61236,-4.82448 11.12713,-0.98491 0,0 1.67342,-2.56005 5.90747,-1.87154 4.23478,0.69052 8.17511,3.28325 9.75225,13.88518 1.47529,9.94544 -3.64737,21.56508 -3.15355,31.70651 0.4924,10.14363 4.82686,13.68649 4.82686,13.68649 0,0 -11.91597,-8.66352 -9.94684,-22.35128 0,0 -3.05313,0.98559 -4.43216,-3.54557 -1.3776,-4.52845 0.29512,-6.98997 0.29512,-6.98997 0,0 -4.13576,0.0983 -4.33307,-5.71219 0,0 -5.21837,0.88663 -5.02095,-5.80907 0,0 -4.23407,2.06751 -6.69569,-0.78752 -2.46294,-2.85573 0.29371,-7.28718 2.46162,-8.1738"
                 style="fill:#000000;fill-opacity:1;fill-rule:nonzero;stroke:#000000;stroke-width:0.3985;stroke-linecap:butt;stroke-linejoin:miter;stroke-miterlimit:10;stroke-dasharray:none;stroke-opacity:1"
                 id="path66" /><g
                 id="g68"
                 clip-path="url(#clipPath72)"><path
                   d="m 49.58603,19.83315 c 0.29509,0.3934 -0.19811,1.37771 -1.18093,1.87011 -0.9863,0.4925 -2.85644,0.68991 -2.85644,0.68991 1.77243,-2.36323 3.74156,-2.95344 4.03737,-2.56002 m -9.84642,-2.36324 c 0,0 0.39339,-0.49311 2.55853,-1.87152 2.16791,-1.37833 3.34953,0.49251 1.28139,1.4781 -2.06751,0.98352 -3.83992,0.39342 -3.83992,0.39342 m -4.43147,-6.79469 c 1.77102,-0.59009 2.06813,0.5908 1.27992,1.37764 -0.78821,0.78888 -3.15145,1.47741 -3.15145,1.47741 0,0 0.09841,-2.26425 1.87153,-2.85505 M 26.34753,7.6229 c 2.36322,-0.39353 1.57502,1.1815 0.2958,1.5764 -1.28142,0.3933 -3.64394,0.3933 -3.64394,0.3933 0,0 0.98489,-1.57571 3.34814,-1.9697 m 27.07843,16.44369 c 0.12632,-1.76843 1.77244,-1.57442 1.37904,0.09971 -0.39411,1.67272 -1.57642,2.55852 -1.57642,2.55852 0,0 0.099,-1.27929 0.19738,-2.65823 m -8.46809,4.92386 c -1.96913,-1.96982 -0.0984,-5.61235 -0.0984,-5.61235 0.29512,0.0976 4.33246,-0.68923 5.12066,-2.56136 0.78751,-1.87012 -0.4938,-1.67271 -2.06753,-1.0833 -1.57642,0.59221 -2.65962,2.56133 -2.65962,2.56133 0,0 -1.87082,0.68991 -4.43146,-0.59151 -2.55933,-1.2799 -1.57512,-3.05106 -1.57512,-3.05106 1.77241,0.09713 5.11996,-0.59149 5.80777,-2.26621 0.69121,-1.67272 -1.17963,-1.96993 -2.95134,-1.181 -1.77452,0.78751 -2.95545,2.46021 -2.95545,2.46021 -6.30157,-0.29429 -5.90887,-3.64253 -5.90887,-3.64253 2.46303,-0.097 4.72656,-2.06683 4.43216,-2.95404 -0.2944,-0.88661 -1.57573,-1.08261 -3.15074,-0.19661 -1.57572,0.88582 -1.67483,2.56055 -1.67483,2.56055 0,0 -4.52845,0.88661 -7.6799,-0.09831 -3.15072,-0.98502 -2.46023,-3.24913 -2.46023,-3.24913 0,0 4.72586,-0.09911 5.51337,-1.18234 0.78683,-1.08332 -0.09969,-1.87081 -2.06893,-1.57642 -1.96772,0.29653 -3.64253,2.16794 -3.64253,2.16794 0,0 -2.36323,0.49171 -9.64973,-1.28071 C 5.56995,6.44116 2.51822,2.20642 2.51822,2.20642 c 0,0 4.13505,3.05313 12.79986,3.24913 8.6662,0.19811 14.672,-1.37761 20.77686,-2.46164 6.10559,-1.08191 17.13364,-1.47529 21.07327,4.33246 3.93907,5.81049 0.0977,9.55203 0.0977,9.55203 -2.06751,-2.06753 -3.84133,-2.36322 -4.52984,-1.47671 -0.68842,0.88731 -0.29501,1.6748 1.0833,2.16662 1.37903,0.4924 3.15014,-0.0984 3.15014,-0.0984 2.75736,4.43077 0.88723,9.94553 -1.08191,10.43654 -1.96923,0.49321 -2.3626,-0.78671 -2.3626,-0.78671 2.9527,-3.05315 1.28,-5.41648 0,-4.33316 -1.28135,1.08401 -0.59212,4.53115 -0.59212,4.53115 -1.67273,2.85434 -6.00588,3.64255 -7.97501,1.67272 M 53.42596,16.9768 c -1.08461,-0.4911 -0.6885,-1.77181 0.68853,-1.47662 1.37831,0.2956 2.65893,1.57631 2.65893,1.57631 -0.49102,0.19531 -2.26411,0.39342 -3.34746,-0.09969 m -0.09838,10.63393 c 0,0 0.68919,1.47802 3.05242,0.78893 2.36335,-0.68851 4.82488,-5.61308 0.98362,-11.12786 0,0 2.56132,-1.67341 1.87143,-5.90748 C 58.54523,7.13028 55.95381,3.19133 45.35196,1.61562 35.40645,0.13959 23.7862,5.25955 13.64336,4.76704 3.50183,4.27524 -0.04309,-0.05779 -0.04309,-0.05779 c 0,0 8.66489,11.91463 22.35196,9.94489 0,0 -0.98491,3.05176 3.54553,4.43208 4.52847,1.3776 6.9907,-0.29651 6.9907,-0.29651 0,0 -0.0983,4.13645 5.7108,4.33316 0,0 -0.88593,5.21827 5.80976,5.02227 0,0 -2.06752,4.23404 0.78821,6.69496 2.85573,2.46224 7.28719,-0.29439 8.17371,-2.46233"
                   style="fill:#000000;fill-opacity:1;fill-rule:nonzero;stroke:#000000;stroke-width:0.3985;stroke-linecap:butt;stroke-linejoin:miter;stroke-miterlimit:10;stroke-dasharray:none;stroke-opacity:1"
                   id="path74" /></g></g></g></g></g></g></g></svg>
