<?xml version="1.0" encoding="UTF-8" standalone="no"?>
<svg
   xmlns:dc="http://purl.org/dc/elements/1.1/"
   xmlns:cc="http://creativecommons.org/ns#"
   xmlns:rdf="http://www.w3.org/1999/02/22-rdf-syntax-ns#"
   xmlns:svg="http://www.w3.org/2000/svg"
   xmlns="http://www.w3.org/2000/svg"
   xmlns:sodipodi="http://sodipodi.sourceforge.net/DTD/sodipodi-0.dtd"
   xmlns:inkscape="http://www.inkscape.org/namespaces/inkscape"
   version="1.1"
   id="svg2"
   xml:space="preserve"
   width="79.381325"
   height="39.699753"
   viewBox="0 0 79.381325 39.699752"
   sodipodi:docname="vectorian093.pdf"><metadata
     id="metadata8"><rdf:RDF><cc:Work
         rdf:about=""><dc:format>image/svg+xml</dc:format><dc:type
           rdf:resource="http://purl.org/dc/dcmitype/StillImage" /></cc:Work></rdf:RDF></metadata><defs
     id="defs6" /><sodipodi:namedview
     pagecolor="#ffffff"
     bordercolor="#666666"
     borderopacity="1"
     objecttolerance="10"
     gridtolerance="10"
     guidetolerance="10"
     inkscape:pageopacity="0"
     inkscape:pageshadow="2"
     inkscape:window-width="640"
     inkscape:window-height="480"
     id="namedview4" /><g
     id="g10"
     inkscape:groupmode="layer"
     inkscape:label="vectorian093"
     transform="matrix(1.3333333,0,0,-1.3333333,0.19821618,43.287435)"><g
       id="g12"
       transform="translate(72,-39.831)"><g
         id="g14"
         transform="translate(-72,42.722)"><g
           id="g16"><g
             id="g18"><path
               d="m 14.70816,28.20045 c 0,0 2.68495,-1.96502 8.85744,-0.80252 6.17119,1.16253 9.8191,0.1209 12.14274,-2.56473 0,0 -3.00594,3.00526 -7.93528,2.08323 -4.92867,-0.9207 -8.93734,-1.6427 -13.0649,1.28402"
               style="fill:#000000;fill-opacity:1;fill-rule:nonzero;stroke:#000000;stroke-width:0.3985;stroke-linecap:butt;stroke-linejoin:miter;stroke-miterlimit:10;stroke-dasharray:none;stroke-opacity:1"
               id="path20" /><path
               d="m 13.90765,25.1542 c 0,0 3.08527,-1.84422 7.57541,-0.7609 4.48616,1.0812 8.69492,1.56143 11.94196,-2.40564 0,0 -2.60434,3.16654 -8.73722,1.76224 0,0 -7.41418,-1.72193 -10.78015,1.4043"
               style="fill:#000000;fill-opacity:1;fill-rule:nonzero;stroke:#000000;stroke-width:0.3985;stroke-linecap:butt;stroke-linejoin:miter;stroke-miterlimit:10;stroke-dasharray:none;stroke-opacity:1"
               id="path22" /><path
               d="m 11.82314,24.0306 c 0,0 2.72593,-2.24305 5.44976,-1.96302 2.72535,0.28079 9.93874,2.04432 14.5484,-2.24434 0,0 -3.92877,2.80515 -9.09652,1.88371 -5.17048,-0.92208 -7.8554,-0.5211 -10.90164,2.32365"
               style="fill:#000000;fill-opacity:1;fill-rule:nonzero;stroke:#000000;stroke-width:0.3985;stroke-linecap:butt;stroke-linejoin:miter;stroke-miterlimit:10;stroke-dasharray:none;stroke-opacity:1"
               id="path24" /><path
               d="m 10.58002,21.86818 c 0,0 2.44523,-2.16513 7.53581,-1.84413 5.08984,0.321 7.49269,1.1618 11.82173,-1.80394 0,0 -2.76492,1.92413 -7.69429,1.20213 -4.93077,-0.7205 -8.85812,-0.48151 -11.66325,2.44594"
               style="fill:#000000;fill-opacity:1;fill-rule:nonzero;stroke:#000000;stroke-width:0.3985;stroke-linecap:butt;stroke-linejoin:miter;stroke-miterlimit:10;stroke-dasharray:none;stroke-opacity:1"
               id="path26" /><path
               d="m 9.2583,19.34303 c 0,0 2.48493,-2.08463 8.65732,-1.48352 6.17188,0.60111 8.61502,-0.07989 11.10052,-1.92341 0,0 -2.7662,2.00401 -7.37388,1.12292 C 17.03322,16.1766 12.22334,16.4976 9.2583,19.34303"
               style="fill:#000000;fill-opacity:1;fill-rule:nonzero;stroke:#000000;stroke-width:0.3985;stroke-linecap:butt;stroke-linejoin:miter;stroke-miterlimit:10;stroke-dasharray:none;stroke-opacity:1"
               id="path28" /><path
               d="m 7.89569,16.65881 c 0,0 2.76424,-1.80462 6.41228,-1.48423 3.64665,0.32101 8.41681,2.36464 13.02516,-1.56281 0,0 -2.0032,1.84282 -6.45178,1.32301 -4.45056,-0.5218 -9.13812,-1.92402 -12.98566,1.72403"
               style="fill:#000000;fill-opacity:1;fill-rule:nonzero;stroke:#000000;stroke-width:0.3985;stroke-linecap:butt;stroke-linejoin:miter;stroke-miterlimit:10;stroke-dasharray:none;stroke-opacity:1"
               id="path30" /><path
               d="m 5.93207,14.33307 c 0,0 2.56543,-1.92343 7.05359,-1.28272 4.48805,0.642 8.3356,1.32302 12.78405,-1.76222 0,0 -3.48684,2.16312 -8.0146,1.28142 -4.52836,-0.88112 -8.2563,-1.04161 -11.82304,1.76352"
               style="fill:#000000;fill-opacity:1;fill-rule:nonzero;stroke:#000000;stroke-width:0.3985;stroke-linecap:butt;stroke-linejoin:miter;stroke-miterlimit:10;stroke-dasharray:none;stroke-opacity:1"
               id="path32" /><path
               d="m 4.04823,11.24713 c 0,0 2.36393,-1.80382 6.45189,-0.92131 4.08856,0.88042 8.61701,2.48341 13.26627,-1.20212 0,0 -4.00797,2.20403 -8.53642,1.20212 C 10.70164,9.3238 7.2148,8.76231 4.04823,11.24713"
               style="fill:#000000;fill-opacity:1;fill-rule:nonzero;stroke:#000000;stroke-width:0.3985;stroke-linecap:butt;stroke-linejoin:miter;stroke-miterlimit:10;stroke-dasharray:none;stroke-opacity:1"
               id="path34" /><path
               d="m 2.64462,9.2828 c 0,0 3.16654,-2.28332 6.89378,-1.48152 3.72585,0.80051 7.85471,2.60514 11.34226,-0.2807 0,0 -2.96704,1.36202 -7.09389,0.15922 C 9.6593,6.47968 6.41216,5.71606 2.64462,9.2828"
               style="fill:#000000;fill-opacity:1;fill-rule:nonzero;stroke:#000000;stroke-width:0.3985;stroke-linecap:butt;stroke-linejoin:miter;stroke-miterlimit:10;stroke-dasharray:none;stroke-opacity:1"
               id="path36" /><path
               d="m 1.3619,7.35938 c 0,0 4.20947,-2.72384 8.41692,-2.00322 4.20815,0.7212 6.81318,1.80381 10.74193,0.8025 0,0 -2.44664,0.07921 -5.41166,-0.9617 C 12.14275,4.15404 6.93336,3.43272 1.3619,7.35938"
               style="fill:#000000;fill-opacity:1;fill-rule:nonzero;stroke:#000000;stroke-width:0.3985;stroke-linecap:butt;stroke-linejoin:miter;stroke-miterlimit:10;stroke-dasharray:none;stroke-opacity:1"
               id="path38" /><path
               d="m 0.88249,5.59726 c 0,0 8.93663,-5.13028 20.03847,-0.52191 0,0 -2.92604,-2.36394 -8.41692,-2.68424 C 7.01328,2.07011 2.84543,4.35484 0.88249,5.59726"
               style="fill:#000000;fill-opacity:1;fill-rule:nonzero;stroke:#000000;stroke-width:0.3985;stroke-linecap:butt;stroke-linejoin:miter;stroke-miterlimit:10;stroke-dasharray:none;stroke-opacity:1"
               id="path40" /><path
               d="m 0,4.19493 c 0,0 6.33228,-3.56874 12.58336,-3.28733 6.25236,0.2807 10.34091,2.40493 10.34091,2.40493 0,0 -2.76553,-2.92473 -8.85611,-3.28674 C 7.97498,-0.33548 1.002,3.07211 0,4.19493"
               style="fill:#000000;fill-opacity:1;fill-rule:nonzero;stroke:#000000;stroke-width:0.3985;stroke-linecap:butt;stroke-linejoin:miter;stroke-miterlimit:10;stroke-dasharray:none;stroke-opacity:1"
               id="path42" /><path
               d="M 23.77328,7.12448 C 22.81638,8.2692 21.04256,7.63809 20.99477,5.95786 20.94826,4.27835 23.0035,3.50783 23.0035,3.50783 c 0.8627,0.65231 1.726,2.47323 0.76978,3.61665 M 22.53497,3.01672 c 0,0 -1.96101,1.47062 -1.7725,3.43084 0.18579,1.96164 3.01081,2.47464 3.59411,0.0465 0,0 0.65363,-2.00672 -1.82161,-3.47734"
               style="fill:#000000;fill-opacity:1;fill-rule:nonzero;stroke:#000000;stroke-width:0.3985;stroke-linecap:butt;stroke-linejoin:miter;stroke-miterlimit:10;stroke-dasharray:none;stroke-opacity:1"
               id="path44" /><path
               d="m 23.56088,7.55197 12.20966,16.67401 c 0,0 1.47053,0.68642 3.04085,1.61804 1.56951,0.93232 5.19777,1.32372 8.28841,1.03072 3.09002,-0.29571 6.37609,-0.0984 8.8274,2.40352 0,0 2.30595,-2.74643 3.18835,-5.29677 0,0 1.17551,-6.22787 -5.83708,-14.66449 C 46.26588,0.8816 32.2024,-2.89073 22.53497,3.01672 l 0.23972,0.317 c 0,0 2.79632,-2.45212 9.02411,-2.40223 6.22917,0.04849 14.66308,2.59955 19.91073,8.04331 5.24839,5.44367 6.91492,11.08265 6.81662,15.59399 0,0 -1.07994,2.45274 -2.15774,3.67886 0,0 1.52043,-10.74124 -7.60201,-18.53795 0,0 3.04084,3.53127 5.4929,8.72833 2.45202,5.19916 1.3257,10.05413 1.3257,10.05413 0,0 -3.09065,-2.49994 -7.35749,-2.59824 -4.26616,-0.0984 -7.01189,0.83331 -12.30875,-1.86403 L 23.7562,7.35527 Z"
               style="fill:#000000;fill-opacity:1;fill-rule:nonzero;stroke:#000000;stroke-width:0.3985;stroke-linecap:butt;stroke-linejoin:miter;stroke-miterlimit:10;stroke-dasharray:none;stroke-opacity:1"
               id="path46" /><path
               d="m 34.54523,21.72406 c 0,0 3.77574,2.30583 9.80813,2.30583 6.03179,0 9.12253,0.0492 11.77054,3.23685 0,0 -0.7861,-3.33514 -7.3575,-4.02097 -6.57068,-0.6864 -8.92439,0.73572 -14.22117,-1.52171"
               style="fill:#000000;fill-opacity:1;fill-rule:nonzero;stroke:#000000;stroke-width:0.3985;stroke-linecap:butt;stroke-linejoin:miter;stroke-miterlimit:10;stroke-dasharray:none;stroke-opacity:1"
               id="path48" /><path
               d="m 32.97632,19.37103 c 0,0 3.38432,2.55045 10.25082,2.40422 6.86568,-0.14817 10.49394,-0.39338 12.79846,3.08865 0,0 -0.97952,-3.18763 -6.76669,-4.02236 -5.78726,-0.8326 -8.8766,1.57034 -16.28259,-1.47051"
               style="fill:#000000;fill-opacity:1;fill-rule:nonzero;stroke:#000000;stroke-width:0.3985;stroke-linecap:butt;stroke-linejoin:miter;stroke-miterlimit:10;stroke-dasharray:none;stroke-opacity:1"
               id="path50" /><path
               d="m 30.27766,16.1834 c 0,0 4.95469,3.33512 11.42627,2.94313 6.47509,-0.39341 9.90792,-1.0307 13.97807,3.13784 l 0.0492,-0.2937 c 0,0 -2.84543,-4.26686 -10.00493,-4.02163 -7.15937,0.24449 -7.895,1.32429 -15.44861,-1.76564"
               style="fill:#000000;fill-opacity:1;fill-rule:nonzero;stroke:#000000;stroke-width:0.3985;stroke-linecap:butt;stroke-linejoin:miter;stroke-miterlimit:10;stroke-dasharray:none;stroke-opacity:1"
               id="path52" /><path
               d="m 28.12206,13.29007 c 0,0 5.93347,4.16925 12.50405,3.62892 6.57139,-0.53959 8.33701,-2.69792 14.41927,2.40283 0,0 -2.64943,-3.53053 -7.74948,-3.87404 -5.10018,-0.34361 -7.99411,0.98151 -11.76985,0.49112 -3.77645,-0.49112 -7.40399,-2.64883 -7.40399,-2.64883"
               style="fill:#000000;fill-opacity:1;fill-rule:nonzero;stroke:#000000;stroke-width:0.3985;stroke-linecap:butt;stroke-linejoin:miter;stroke-miterlimit:10;stroke-dasharray:none;stroke-opacity:1"
               id="path54" /><path
               d="m 27.28743,11.32773 c 0,0 5.14857,4.02165 12.11266,2.79564 6.96409,-1.22531 9.31852,-1.96163 14.32099,2.50053 0,0 -3.04084,-3.92325 -8.09182,-4.36375 -5.05095,-0.44202 -7.89569,2.20811 -12.11475,1.32301 -4.21695,-0.88251 -6.22708,-2.25543 -6.22708,-2.25543"
               style="fill:#000000;fill-opacity:1;fill-rule:nonzero;stroke:#000000;stroke-width:0.3985;stroke-linecap:butt;stroke-linejoin:miter;stroke-miterlimit:10;stroke-dasharray:none;stroke-opacity:1"
               id="path56" /><path
               d="m 25.66933,8.92561 c 0,0 3.13781,2.69722 9.41551,1.71572 6.27627,-0.98081 11.27934,-1.91312 15.4472,2.10922 0,0 -2.94174,-2.99164 -9.75833,-1.76492 -6.81659,1.22531 -12.35866,0.58731 -15.10438,-2.06002"
               style="fill:#000000;fill-opacity:1;fill-rule:nonzero;stroke:#000000;stroke-width:0.3985;stroke-linecap:butt;stroke-linejoin:miter;stroke-miterlimit:10;stroke-dasharray:none;stroke-opacity:1"
               id="path58" /><path
               d="m 24.63931,6.71736 c 0,0 3.87345,2.30654 9.26862,1.27593 5.39386,-1.03072 9.61152,-2.25673 14.32028,1.32432 0,0 -4.07156,-2.69865 -10.78975,-1.07911 -6.71818,1.61941 -9.70982,0.48971 -12.79915,-1.52114"
               style="fill:#000000;fill-opacity:1;fill-rule:nonzero;stroke:#000000;stroke-width:0.3985;stroke-linecap:butt;stroke-linejoin:miter;stroke-miterlimit:10;stroke-dasharray:none;stroke-opacity:1"
               id="path60" /><path
               d="m 24.2459,5.54184 c 0,0 3.04084,1.91183 7.99479,0.58812 4.95256,-1.32301 9.95503,-1.91242 13.58397,1.03001 0,0 -3.62894,-2.3052 -10.73982,-0.7848 C 27.97383,7.8949 24.98221,6.12996 24.29579,5.73724 Z"
               style="fill:#000000;fill-opacity:1;fill-rule:nonzero;stroke:#000000;stroke-width:0.3985;stroke-linecap:butt;stroke-linejoin:miter;stroke-miterlimit:10;stroke-dasharray:none;stroke-opacity:1"
               id="path62" /><path
               d="m 24.09969,4.90395 c 0,0 1.86264,0.83329 7.40541,-0.09771 5.54068,-0.93371 10.73912,-1.61941 16.52569,2.99096 5.78729,4.60975 9.46674,12.21115 9.46674,17.70402 l 0.293,-0.53961 c 0,0 0.63792,-5.73738 -5.39458,-13.53619 0,0 -5.88556,-7.35607 -13.92747,-7.94349 0,0 -2.69794,0 -7.4545,0.78412 -4.75795,0.78472 -5.29758,0.88242 -7.06249,0.34279 z"
               style="fill:#000000;fill-opacity:1;fill-rule:nonzero;stroke:#000000;stroke-width:0.3985;stroke-linecap:butt;stroke-linejoin:miter;stroke-miterlimit:10;stroke-dasharray:none;stroke-opacity:1"
               id="path64" /><path
               d="m 23.70358,4.24554 c 0,0 1.66933,-0.13591 5.43418,-1.17343 3.76475,-1.03689 7.102,-0.946 9.78492,0.31623 L 38.9903,3.29753 c 0,0 -2.50254,-1.80253 -7.0119,-1.32923 -4.50997,0.47271 -5.57006,1.75813 -8.3875,2.02923 z"
               style="fill:#000000;fill-opacity:1;fill-rule:nonzero;stroke:#000000;stroke-width:0.3985;stroke-linecap:butt;stroke-linejoin:miter;stroke-miterlimit:10;stroke-dasharray:none;stroke-opacity:1"
               id="path66" /></g></g></g></g></g></svg>
