<?xml version="1.0" encoding="UTF-8" standalone="no"?>
<svg
   xmlns:dc="http://purl.org/dc/elements/1.1/"
   xmlns:cc="http://creativecommons.org/ns#"
   xmlns:rdf="http://www.w3.org/1999/02/22-rdf-syntax-ns#"
   xmlns:svg="http://www.w3.org/2000/svg"
   xmlns="http://www.w3.org/2000/svg"
   xmlns:sodipodi="http://sodipodi.sourceforge.net/DTD/sodipodi-0.dtd"
   xmlns:inkscape="http://www.inkscape.org/namespaces/inkscape"
   version="1.1"
   id="svg2"
   xml:space="preserve"
   width="306.84"
   height="107.54667"
   viewBox="0 0 306.84 107.54667"
   sodipodi:docname="vectorian070.pdf"><metadata
     id="metadata8"><rdf:RDF><cc:Work
         rdf:about=""><dc:format>image/svg+xml</dc:format><dc:type
           rdf:resource="http://purl.org/dc/dcmitype/StillImage" /></cc:Work></rdf:RDF></metadata><defs
     id="defs6" /><sodipodi:namedview
     pagecolor="#ffffff"
     bordercolor="#666666"
     borderopacity="1"
     objecttolerance="10"
     gridtolerance="10"
     guidetolerance="10"
     inkscape:pageopacity="0"
     inkscape:pageshadow="2"
     inkscape:window-width="640"
     inkscape:window-height="480"
     id="namedview4" /><g
     id="g10"
     inkscape:groupmode="layer"
     inkscape:label="vectorian070"
     transform="matrix(1.3333333,0,0,-1.3333333,0,107.54667)"><g
       id="g12"
       transform="translate(72,8.656)"><g
         id="g14"
         transform="translate(-70.94,-7.248)"><g
           id="g16"><g
             id="g18"><path
               d="m 199.02765,68.67317 c -12.32016,-0.272 -16.71701,-5.79208 -23.65311,-12.62417 -6.93609,-6.81607 -7.73451,-8.64011 -10.46252,-8.64011 -2.72965,0 -4.32166,1.36001 -3.86566,4.65607 -5.68486,-1.80803 -3.75205,-7.72809 0.22721,-8.40012 3.97925,-0.688 6.14087,0.56001 9.66572,5.23207 1.53762,2.03203 3.16006,3.60005 4.50247,4.73606 -1.06082,-2.20801 -1.90723,-5.77607 -1.31842,-11.45614 1.2512,-12.04815 11.93936,-18.99226 20.58424,-17.96823 8.64012,1.02402 15.00822,6.14408 15.46422,14.67218 0.4544,8.52811 -4.43526,12.40016 -8.75691,13.31218 -4.32006,0.896 -11.14415,-0.91202 -11.82737,-7.16809 -0.67999,-6.25609 4.89127,-7.85611 4.89127,-7.85611 0,0 -2.27522,2.40004 -1.81921,5.69608 0.23199,1.68002 1.2528,3.07203 2.79682,3.79205 1.72962,0.81601 5.61768,0.752 5.27688,-2.32002 0,0 -4.32166,0.57599 -4.43526,-2.27205 0.1136,-1.82402 4.20804,-2.49602 4.09285,-6.48007 -0.112,-3.98405 -3.41124,-8.19211 -9.89133,-8.08011 -6.48327,0.112 -13.64659,5.80807 -14.78418,15.6962 -1.13763,9.88812 2.72803,12.62416 2.72803,12.62416 0,0 -0.90881,-5.68007 1.82083,-7.9681 2.72962,-2.27203 6.59528,-0.11201 6.82408,1.15203 -3.18405,1.248 -9.89453,7.61607 -0.456,14.20817 9.4385,6.59209 28.31555,4.54405 35.36526,-10.46412 2.95684,-8.19211 2.1616,-13.18418 2.1616,-13.18418 -0.0128,-0.11201 -0.0304,-0.22401 -0.0448,-0.33601 -0.6528,1.44001 -1.89761,2.96005 -4.27684,3.40805 -4.88967,0.89601 -5.79847,-3.07204 -4.32165,-4.89607 1.47841,-1.82402 3.63844,-0.91201 5.45766,-1.248 1.72644,-0.32003 2.11843,-2.28805 0.69763,-6.67211 -4.08006,-10.00012 -13.37139,-19.93623 -31.28682,-17.55221 -23.9939,3.18403 -32.18121,20.68826 -48.44222,36.96048 -16.26102,16.25619 -35.47886,19.44024 -46.055,16.4802 -0.3104,-0.08001 -0.59841,-0.192 -0.89922,-0.288 6.5537,4.20805 9.82094,4.33605 17.84344,3.47204 3.96485,-0.416 7.71848,-1.13602 10.42414,-1.74402 3.55363,-2.01602 8.82251,-3.93605 15.61619,-5.64807 13.64498,-3.40805 21.37787,-0.56001 24.56353,4.67206 3.18402,5.23207 -1.36643,9.55212 -3.18566,9.66412 0,0 2.61605,-4.32006 -0.1136,-6.83209 -2.72803,-2.49602 -7.05128,-1.02402 -8.86891,1.60002 -1.36322,0.22401 -2.72962,-1.60002 -4.32166,-1.136 1.70563,3.74403 0.45443,4.88005 -0.34079,5.56805 -1.02401,-2.49603 -2.27523,-3.40803 -5.11688,-2.38401 -2.84483,1.024 -4.09445,0.55999 -5.68646,0 0,0 3.97926,4.43205 -1.36484,6.36808 -1.59201,-2.27203 -3.29762,-1.82403 -7.27687,-0.80001 -3.98085,1.02401 -8.98411,-0.56002 -9.21132,-4.76807 -0.0688,-1.28001 0.5824,-2.56003 1.89122,-3.84006 -1.57922,0.11202 -3.83204,0.30402 -6.95848,0.64003 C 102.59921,71.3612 96.94954,70.11319 86.7094,61.07307 84.42456,59.26505 82.88216,57.44104 81.97975,56.19301 81.06934,55.729 80.2373,55.105 79.62611,54.35298 c 0.45441,3.85605 0.68161,4.08006 1.48003,7.0401 0.7952,2.96004 -0.79842,10.12812 -8.07532,9.32812 2.95526,-1.47201 2.50244,-2.73605 2.38724,-6.0321 -0.11201,-3.29602 1.13762,-3.74403 2.84323,-5.23205 0.66402,-1.32802 1.09921,-7.48809 -3.48964,-11.16814 -0.33601,0.30402 -0.664,0.62399 -1.00482,0.92801 C 66.23553,55.953 57.87064,62.0011 48.33131,65.53714 43.01764,67.50516 37.07196,68.49718 31.39188,68.33717 20.61417,68.03316 11.97084,64.25711 6.38997,57.42502 1.0907,50.94495 -1.0597,42.11284 0.49228,33.20071 2.0907,24.0006 9.7724,14.99248 19.17253,11.31244 22.55977,9.96841 26.03342,9.36041 29.50546,9.4564 29.25427,9.31241 29.24947,9.31241 29.24947,9.31241 c 0,0 12.62414,-0.112 21.49307,7.85611 8.87053,7.95208 6.14088,11.82414 11.94095,13.18416 5.79846,1.36001 6.70887,-5.68008 3.18245,-6.25609 0,0 2.95845,-3.98404 7.27848,-0.91202 4.32166,3.07205 1.93282,11.04015 -4.88964,11.15216 C 61.43228,34.44875 58.13303,29.90466 54.949,25.00862 57.33783,34.11273 55.6322,46.60889 43.92004,51.39296 32.2079,56.161 16.8429,50.46494 17.65091,37.40877 18.44771,24.5606 27.99985,24.09659 30.95668,24.32059 c 4.43366,0.12802 10.12012,5.34408 5.91208,12.97616 0,0 1.13762,-7.05609 -3.75205,-8.4161 -4.88967,-1.37601 -7.2785,1.58401 -7.50569,3.18405 5.34566,-0.576 6.82408,0.784 7.8465,3.96806 -4.20805,1.93602 -6.02568,6.14407 -2.84323,10.46413 3.18403,4.32005 13.41936,6.03209 19.33304,-1.58403 5.91207,-7.61611 5.45767,-18.08022 0.68161,-21.95229 0.45442,5.23209 -1.13602,7.96811 -3.98084,8.30411 -2.84166,0.33602 -5.00328,-1.60001 -5.5713,-3.64804 4.20646,0 5.5713,-1.80802 5.5713,-4.76805 0,-2.89604 -2.52485,-8.17612 -12.64657,-11.16815 C 29.18225,10.56042 24.27979,10.76842 19.67174,12.57643 10.69243,16.09648 3.35793,24.6726 1.8347,33.42471 c -0.3808,2.19205 -0.5248,4.38407 -0.448,6.52809 1.76162,-6.48007 8.09291,-4.81605 8.41771,-2.09603 0.34239,2.84803 -2.27363,3.53605 -2.27363,3.53605 0,0 -2.50081,-2.62404 -4.32006,-0.576 -1.16482,1.12001 -1.24321,3.21603 -0.9792,5.21606 0.9664,3.88805 2.72322,7.4881 5.21286,10.52814 5.32488,6.51207 13.61778,10.11212 23.98592,10.41614 8.8977,0.23999 18.53462,-2.72005 26.04352,-7.3281 C 64.96992,55.025 71.6676,48.9609 77.8837,42.76883 83.85657,36.81676 88.85023,30.30469 95.90472,25.48862 c 2.97925,-2.04802 6.21928,-3.82404 9.62253,-5.13608 -0.20161,0 -0.31521,0 -0.31521,0 0,0 8.08171,-4.76805 21.54428,-4.36804 -5.40648,-1.31203 -12.28815,-1.95203 -20.46106,-0.64002 -2.13924,1.02402 -4.86247,1.98402 -8.32331,2.80005 -13.49296,3.18402 -24.40992,1.216 -28.50436,-8.0321 -3.48807,-8.33613 5.60965,-11.52013 6.21606,-9.39213 0.60802,2.11204 -1.51521,1.96801 -2.88003,2.27202 -1.36482,0.30401 -3.79045,3.93606 -0.15201,7.12011 3.64006,3.18402 7.58092,0.608 8.03531,0.30398 1.44003,2.41605 8.26251,3.90406 7.80971,1.63202 C 86.5254,9.77641 80.38452,9.80841 82.20375,0.56029 c 2.42722,3.63206 3.03203,3.79205 6.06407,2.73604 3.03363,-1.07201 6.06728,2.88003 7.27851,1.96801 1.21441,-0.912 -2.95685,-2.32002 -1.06243,-5.31202 0,0 2.41924,2.55999 5.30727,1.35998 5.42087,-2.224 13.79858,-1.05601 13.94897,6.06407 0.0288,1.21602 -0.70241,3.47206 -3.76804,5.79209 17.03702,-2.17604 27.09475,4.54404 30.32358,7.20009 0.99523,0.624 1.98884,1.29603 3.01125,2.03202 -3.07043,-5.58407 -5.23045,-12.28814 -2.50243,-16.0482 2.72963,-3.74403 6.7089,-2.38402 8.7569,-0.56001 -5.00325,-0.57602 -4.88963,0.33601 -4.54886,3.85604 0.34082,3.53605 0,4.56007 -2.95683,6.1441 0.79523,4.32005 3.75365,7.05609 6.82248,10.35212 2.39525,2.57604 3.87846,5.13607 4.41926,6.89608 0.1184,-0.14399 0.23842,-0.272 0.35682,-0.416 13.53297,-15.5682 28.08836,-22.84829 42.64375,-22.51227 14.55538,0.336 29.22436,10.80012 29.33957,31.04039 0.1136,20.24026 -16.48981,27.74435 -26.60994,27.52035 z M 137.73407,26.59264 c 0,0 -0.45442,-2.03204 3.41283,-2.83205 -5.34566,-4.09605 -12.84977,-6.59207 -19.56026,-5.23206 2.04643,4.54406 -0.7968,8.1921 -5.91208,7.9681 -5.11684,-0.24001 -5.57126,4.99207 -5.11684,6.92808 -2.38884,0.44802 -4.09446,-2.62404 -3.52645,-6.70408 -3.86565,1.92003 -4.88965,6.01608 -2.16004,10.22413 2.72804,4.20806 0.1136,6.03208 -1.36481,6.94409 -0.79681,2.96004 0.7968,4.76805 0.7968,4.76805 0,0 -5.00325,1.93604 -5.57287,-5.23206 -3.18402,2.62403 -3.18402,8.52812 2.27523,11.15214 -5.57286,1.47202 -11.14573,-2.38402 -8.87051,-13.18416 2.27363,-10.81614 14.32819,-18.20825 19.33145,-21.15228 -0.0416,0 -0.0864,0 -0.12961,0 -1.34401,0.336 -2.70723,0.68802 -2.80804,0.72002 -4.94884,1.58401 -9.47691,4.09605 -13.50736,7.36007 -6.18888,5.02408 -11.35534,11.15217 -16.96821,16.80023 0.56961,2.14404 3.15843,9.76012 10.89613,8.08011 0.62082,3.29605 -1.86883,4.30407 -4.56166,3.82405 l 0.2432,0.15999 c 0.79361,1.20002 4.62725,4.22406 10.26733,6.04809 0.36002,-0.976 1.64322,-2.65604 6.20969,-2.73603 5.31846,-0.11201 9.32811,-0.51202 13.23698,-3.50406 -8.83533,-2.04801 -6.29448,-9.53611 -3.22086,-11.52012 3.18406,-2.04805 3.29926,-4.32007 1.36643,-6.48011 5.68488,0.57602 6.25288,5.23207 5.11685,8.19211 5.79848,-0.112 1.24962,-7.16809 3.52487,-9.77612 1.21599,-1.40802 2.38721,-1.13602 2.84163,-4.67206 5.23206,2.62404 3.75365,7.39207 3.75365,7.39207 0,0 2.27522,-0.67199 3.18404,-3.85603 1.47842,-4.09605 -0.79682,-8.41612 -4.66247,-11.26413 11.37295,2.16002 10.00654,14.89617 3.07045,23.53628 -3.88326,4.84807 -7.7985,6.9601 -10.49453,7.9041 -4.99848,4.20806 -11.47537,5.18407 -17.13783,5.29607 -3.91366,0.06403 -5.32488,1.18403 -5.80327,1.79204 3.87204,1.10402 8.49929,1.60002 13.53457,0.59201 18.11544,-2.36804 28.59076,-13.48817 40.45012,-27.13635 -0.75841,-2.57604 -3.47525,-8.94412 -12.13455,-10.40013 z"
               style="fill:#000000;fill-opacity:1;fill-rule:nonzero;stroke:#000000;stroke-width:0.3985;stroke-linecap:butt;stroke-linejoin:miter;stroke-miterlimit:10;stroke-dasharray:none;stroke-opacity:1"
               id="path20" /></g></g></g></g></g></svg>
