<?xml version="1.0" encoding="UTF-8" standalone="no"?>
<svg
   xmlns:dc="http://purl.org/dc/elements/1.1/"
   xmlns:cc="http://creativecommons.org/ns#"
   xmlns:rdf="http://www.w3.org/1999/02/22-rdf-syntax-ns#"
   xmlns:svg="http://www.w3.org/2000/svg"
   xmlns="http://www.w3.org/2000/svg"
   xmlns:sodipodi="http://sodipodi.sourceforge.net/DTD/sodipodi-0.dtd"
   xmlns:inkscape="http://www.inkscape.org/namespaces/inkscape"
   version="1.1"
   id="svg2"
   xml:space="preserve"
   width="223.65334"
   height="166.85333"
   viewBox="0 0 223.65334 166.85333"
   sodipodi:docname="vectorian051.pdf"><metadata
     id="metadata8"><rdf:RDF><cc:Work
         rdf:about=""><dc:format>image/svg+xml</dc:format><dc:type
           rdf:resource="http://purl.org/dc/dcmitype/StillImage" /></cc:Work></rdf:RDF></metadata><defs
     id="defs6" /><sodipodi:namedview
     pagecolor="#ffffff"
     bordercolor="#666666"
     borderopacity="1"
     objecttolerance="10"
     gridtolerance="10"
     guidetolerance="10"
     inkscape:pageopacity="0"
     inkscape:pageshadow="2"
     inkscape:window-width="640"
     inkscape:window-height="480"
     id="namedview4" /><g
     id="g10"
     inkscape:groupmode="layer"
     inkscape:label="vectorian051"
     transform="matrix(1.3333333,0,0,-1.3333333,0,166.85333)"><g
       id="g12"
       transform="translate(72,53.141)"><g
         id="g14"
         transform="translate(-72,-53.11)"><g
           id="g16"><g
             id="g18"><path
               d="m 63.18,93.51639 c 2.04002,-6.56649 7.12489,-14.9922 14.2274,-22.29469 -5.81928,-3.70565 -11.28657,-6.35848 -14.821,-7.6145 -0.31362,1.17121 -1.37442,2.04162 -2.65123,2.04162 -1.52323,0 -2.75846,-1.23362 -2.75846,-2.75842 0,-1.52481 1.23523,-2.75684 2.75846,-2.75684 0.97279,0 1.8272,0.5072 2.31681,1.26721 0.63842,0.18241 1.34883,0.4176 2.12802,0.7088 2.70725,-0.62239 7.67531,-2.89923 13.18738,-6.42087 C 70.6841,48.6502 65.65843,40.54453 63.4456,34.0532 c -0.17601,-0.0016 -0.34721,-0.0016 -0.50079,-0.0016 -3.00964,0 -13.29138,0 -17.30423,0 -4.00964,0 -7.5233,2.50882 -10.02893,4.51528 0,0 4.51205,-4.51528 0.49921,-11.78736 0,0 4.76644,5.76967 10.53132,5.51688 0,0 9.76652,0.15358 16.32341,0.21918 -0.46719,-1.65122 -0.73442,-3.17763 -0.77279,-4.51845 -0.24962,-8.77773 4.26084,-12.54097 8.2753,-13.04177 4.01284,-0.50081 8.51531,1.61922 7.7713,6.26888 -0.32801,2.07841 -1.81762,3.20485 -3.48005,3.62564 0.52159,2.24803 1.27202,4.42567 2.20642,6.51848 2.06563,-0.76641 4.41767,-2.01761 7.2945,-4.08644 l 1.23842,-0.94883 C 82.81226,20.16185 81.91624,14.66737 82.00264,10.78412 82.19945,1.952 87.0187,0 89.77715,0 92.53557,0 96.79803,2.76003 95.2924,11.03534 93.79,19.31062 88.52274,24.7715 88.52274,24.7715 c 2.45121,4.56326 5.52966,8.7633 8.89289,12.58096 2.65924,-3.89285 4.61607,-8.0865 5.37609,-12.46255 -1.73122,-0.38722 -3.31685,-1.51203 -3.66086,-3.66565 -0.744,-4.64966 3.76005,-6.76969 7.7745,-6.26888 4.01127,0.5008 8.52652,4.26404 8.2753,13.04177 -0.1376,4.76325 -3.08963,11.81616 -8.0433,18.87384 0.90242,0.77121 1.80004,1.50403 2.69443,2.22244 3.57606,-1.22243 7.5809,-2.20645 12.04496,-2.75205 15.03859,-1.84161 22.87711,3.48644 26.03715,10.04014 1.91522,-0.19681 3.94084,-0.28322 6.05767,-0.208 9.75692,0.3488 10.45293,5.30565 10.36653,6.37128 0.0864,1.0624 -0.60961,6.01447 -10.36653,6.36166 -1.77122,0.0672 -3.47845,0.02881 -5.11206,-0.08319 -2.72325,7.63051 -12.98736,13.39379 -27.98755,11.12175 -4.14409,-0.62881 -8.14093,-1.83203 -11.84817,-3.30887 -0.8752,0.70565 -1.75524,1.44485 -2.63364,2.20806 5.40009,7.39848 8.64653,14.90898 8.79051,19.90906 0.25122,8.7729 -4.26403,12.53775 -8.2753,13.03855 -4.01445,0.50081 -8.5185,-1.62082 -7.7745,-6.26887 0.37761,-2.37764 2.27204,-3.50565 4.20007,-3.76965 -0.89122,-4.69606 -3.22087,-9.18413 -6.3649,-13.32978 -3.28964,3.95685 -6.29448,8.39691 -8.69291,13.33777 0,0 5.51688,4.01126 7.01928,12.28658 1.50563,8.27369 -2.75683,11.03533 -5.51525,11.03533 -2.75845,0 -7.5777,-1.95362 -7.77451,-10.78573 -0.0784,-3.50885 0.64481,-8.33612 2.77122,-13.78738 l -0.51359,-0.21921 c -3.36804,-2.41763 -6.02407,-3.72965 -8.32811,-4.44007 -0.8208,1.90403 -1.50882,3.86567 -2.02081,5.89449 1.97601,0.224 3.94084,1.34883 4.32805,3.77765 0.74401,4.64805 -3.75846,6.76968 -7.7713,6.26887 -4.01446,-0.5008 -8.52492,-4.26565 -8.2753,-13.03855 0.032,-1.11522 0.23199,-2.36165 0.55999,-3.69447 -6.55529,0.0672 -16.11061,0.21761 -16.11061,0.21761 -5.76488,-0.25119 -10.53132,5.51688 -10.53132,5.51688 4.01284,-7.2737 -0.49921,-11.78577 -0.49921,-11.78577 2.50563,2.00324 6.01929,4.51207 10.02893,4.51207 4.01285,0 14.29459,0 17.30423,0 0.07359,0 0.15679,-0.0032 0.23519,-0.0032 z m 11.26574,1.94082 C 71.92732,94.91 69.78009,95.02522 67.45685,95.02522 c -0.70081,0 -1.65921,0.0032 -2.76642,0.0128 -1.32803,5.36646 -0.63521,9.60653 1.26561,12.24015 3.25925,4.51365 8.5249,3.25763 10.02733,1.25282 1.5072,-2.00644 0.25279,-5.01448 -2.00484,-5.01448 0,0 0.25279,2.50725 -2.00482,3.00804 -2.25923,0.50083 -3.76164,-2.50723 -1.75522,-4.01285 0.52801,-0.3968 1.28961,-0.6592 2.13763,-0.76321 0.52642,-2.17282 1.23841,-4.26885 2.08962,-6.29128 z m 13.32498,7.55851 c -3.76166,4.51045 -3.76166,17.05142 -0.75202,19.55865 3.04644,2.53763 7.0209,0.5024 6.2689,-7.27209 -0.75203,-7.77611 -5.51688,-12.28656 -5.51688,-12.28656 z m 6.37929,-17.99544 c -1.96965,-2.18562 -4.13127,-4.25926 -6.40009,-6.19208 -4.33126,4.46246 -8.42572,9.75693 -11.22575,15.7074 0.2464,0.07521 0.48801,0.15361 0.71201,0.2384 3.89445,1.45922 6.96969,3.59685 8.0785,4.42087 1.89442,-4.47527 4.73607,-9.31853 8.83533,-14.17459 z m 1.69601,-43.02936 c -1.92962,2.34084 -4.07045,4.54407 -6.31529,6.58571 2.60324,2.53281 5.24647,4.77444 7.6913,6.67206 0.4832,-0.31999 0.98882,-0.63679 1.50882,-0.95841 1.44002,-1.5328 2.97923,-3.29603 4.55048,-5.28486 -2.81125,-2.30245 -5.27527,-4.65125 -7.43531,-7.0145 z m 6.63208,34.75086 c -1.96002,-2.40644 -3.85286,-4.45127 -5.54087,-6.1361 -2.50883,1.96004 -5.22405,4.28807 -7.9009,6.92331 2.20003,1.94081 4.30407,4.01924 6.22728,6.20326 2.09442,-2.34722 4.48485,-4.69444 7.21449,-6.99047 z m -5.29446,-8.2193 c 3.67844,-2.74404 6.76968,-4.65287 8.4481,-5.63368 -1.67361,-0.99682 -4.84646,-3.05765 -8.1665,-5.51688 -2.67201,0.83841 -7.3537,4.85126 -7.3537,4.85126 0.33283,0.50082 0.33283,1.67044 0.33283,1.67044 2.1744,2.17282 6.73927,4.62886 6.73927,4.62886 z m 1.16002,1.00001 c 2.84323,1.76641 5.42407,3.14723 7.92328,4.23845 5.42727,-4.02565 11.97616,-7.84332 19.87228,-11.21614 -7.64652,-3.26884 -14.03218,-6.9569 -19.35864,-10.84175 -2.08806,0.85441 -4.01447,1.77601 -5.75209,2.71364 -0.67362,0.72481 -1.36963,1.43361 -2.08322,2.13923 5.05606,3.74564 9.61772,6.11048 9.72333,6.16808 0,0 -6.41608,3.84964 -10.32494,6.79849 z M 88.34671,49.63422 c -2.67201,2.32644 -5.45126,4.42567 -8.16651,6.25288 2.56803,2.58884 4.68326,4.36006 5.9137,5.32808 0.4656,-0.36002 1.04322,-0.58081 1.67682,-0.58081 0.72,0 1.36962,0.2784 1.86083,0.73122 1.33921,-1.33924 3.41442,-3.20485 6.23046,-5.19048 -2.40483,-1.87202 -4.97924,-4.06245 -7.5153,-6.54089 z m -2.27521,15.917 c -1.21603,0.95522 -3.27845,2.68644 -5.77928,5.19686 2.53603,1.73283 5.08966,3.65927 7.5569,5.75367 2.66562,-2.6224 5.36647,-4.92164 7.8705,-6.86726 -2.48804,-1.64001 -4.50725,-3.18405 -5.92967,-4.37607 -0.5024,0.54721 -1.21924,0.89283 -2.01923,0.89283 -0.6432,0 -1.22882,-0.22883 -1.69922,-0.60003 z m 18.96504,14.48821 c -2.37764,2.15202 -4.73765,4.52164 -6.98728,7.10889 3.38403,4.52323 5.88645,9.43692 6.81288,14.58578 0.90562,0.0864 1.73442,0.3584 2.29443,0.7776 2.00483,1.50562 0.49921,4.51368 -1.75682,4.01285 -2.25605,-0.50079 -2.00482,-3.00804 -2.00482,-3.00804 -2.25763,0 -3.51045,3.00804 -2.00803,5.01448 1.50401,2.00481 6.77289,3.26083 10.03212,-1.25282 3.25923,-4.51526 3.00965,-13.75858 -5.01607,-25.32993 -0.4544,-0.6544 -0.912,-1.28802 -1.36641,-1.90881 z m -0.16162,-5.22249 c -1.00639,-0.4816 -1.99042,-0.97281 -2.93122,-1.47202 0.6656,0.74242 1.30082,1.49764 1.92803,2.25605 0.32639,-0.26242 0.66399,-0.52161 1.00319,-0.78403 z m 36.95409,-6.98087 c -7.32968,-1.55043 -11.92975,-4.19366 -11.92975,-4.19366 0,0 -9.09132,3.84485 -19.30104,11.74576 3.45444,1.0832 6.95848,1.69441 11.02733,2.048 10.25613,0.88963 17.91862,-2.78402 20.20346,-9.6001 z m 0.1712,-8.64492 c -8.11689,2.04643 -9.59051,3.69925 -9.59051,3.69925 0,0 4.58566,1.85443 9.86574,3.19044 0.0592,-0.312 0.12478,-0.61441 0.16157,-0.93281 0.22241,-1.87203 0.10402,-3.93125 -0.4368,-5.95688 z m 6.52489,-1.38562 c 1.072,2.87364 1.32161,5.89448 0.9376,8.5953 -0.0464,0.31203 -0.1056,0.62242 -0.17439,0.93123 0.39681,0.0336 0.79039,0.05919 1.17441,0.07359 7.52489,0.24801 11.04015,-1.04481 11.53453,-4.01446 0.47684,-2.84963 -2.6688,-7.27209 -13.47215,-5.58566 z m -37.3909,-7.68331 c 9.98094,7.7681 18.76506,12.07058 18.76506,12.07058 0,0 4.44804,-2.88805 11.55694,-4.67046 -2.54083,-6.5217 -9.81132,-12.04657 -24.5955,-8.92493 -2.01443,0.42239 -3.91525,0.94721 -5.7265,1.52481 z m -6.43527,0.01601 c -0.4272,0.5376 -0.8672,1.07523 -1.3152,1.60962 0.688,-0.3344 1.40481,-0.66081 2.13762,-0.98242 -0.27523,-0.20801 -0.55361,-0.41759 -0.82242,-0.6272 z M 98.46205,38.52847 c 2.35683,2.57445 4.82886,4.96167 7.31209,7.15691 0.20962,-0.2944 0.4192,-0.58562 0.62881,-0.88641 8.02572,-11.57135 8.2753,-20.81627 5.01607,-25.32995 -3.25923,-4.51364 -8.52811,-3.25922 -10.03212,-1.2528 -1.50242,2.00642 -0.2496,5.01606 2.00803,5.01606 0,0 -0.25123,-2.51043 2.00482,-3.00964 2.25603,-0.50081 3.76165,2.50725 1.75682,4.01125 -0.67841,0.51042 -1.73602,0.79841 -2.86565,0.81123 -0.8032,4.75204 -2.93443,9.2897 -5.82887,13.48335 z M 87.51952,23.7699 c 0,0 5.01605,-6.21448 5.76808,-13.98899 0.752,-7.77131 -3.22246,-9.81129 -6.2689,-7.27209 -3.00964,2.50883 -3.25922,16.74741 0.50082,21.26108 z m -9.95214,8.8961 c 2.71524,5.58087 6.66889,10.57134 10.83855,14.8002 2.28001,-2.05603 4.44965,-4.28326 6.39367,-6.64007 -3.91683,-4.50408 -6.7473,-9.01133 -8.7281,-13.24019 l -0.30562,0.44801 c 0,0 -3.46403,2.79044 -8.1985,4.63205 z M 64.90163,32.5364 c 1.01921,0.008 1.89921,0.01281 2.55522,0.01281 2.64483,0 5.06087,0.14879 8.05609,-0.69922 -0.952,-2.1824 -1.72319,-4.45283 -2.25441,-6.80487 -1.19362,0.0208 -2.33123,-0.27682 -3.04004,-0.81123 -2.00642,-1.504 -0.50401,-4.51206 1.75522,-4.01125 2.25761,0.49921 2.00482,3.00964 2.00482,3.00964 2.25763,0 3.51204,-3.00964 2.00484,-5.01606 -1.50243,-2.00642 -6.76808,-3.26084 -10.02733,1.2528 -1.99683,2.76485 -2.66564,7.30571 -1.05441,13.06738 z m 14.14578,22.18269 c 2.70402,-1.80321 5.48965,-3.89284 8.17131,-6.20968 -4.28006,-4.35366 -8.33132,-9.52493 -11.11375,-15.35701 -3.16485,0.84482 -7.5857,0.92482 -10.72175,0.91361 1.10402,3.25925 2.90246,6.8625 5.58408,10.73296 2.78564,4.01284 5.59367,7.30729 8.08011,9.92012 z M 78.8394,69.77528 c 1.98403,-1.92483 4.12006,-3.73285 6.36008,-5.40327 -0.1136,-0.30561 -0.1872,-0.63041 -0.1872,-0.98082 0,-0.36 0.0752,-0.6976 0.1984,-1.0096 -2.29762,-1.70563 -4.47046,-3.56485 -6.4961,-5.53767 -4.63523,2.97923 -8.9665,5.11366 -12.09294,6.18249 3.45925,1.50879 7.75531,3.81124 12.21776,6.74887 z M 65.11122,93.50679 c 2.80965,-0.0128 6.7665,0.032 9.90093,0.6592 2.86885,-6.26888 7.08329,-11.76494 11.53135,-16.35219 -2.50084,-2.05124 -5.09286,-3.93445 -7.6481,-5.62888 -2.45123,2.59042 -5.20006,5.83208 -7.9281,9.76332 -2.91043,4.20165 -4.78726,8.08812 -5.85608,11.55855 z"
               style="fill:#000000;fill-opacity:1;fill-rule:nonzero;stroke:#000000;stroke-width:0.3985;stroke-linecap:butt;stroke-linejoin:miter;stroke-miterlimit:10;stroke-dasharray:none;stroke-opacity:1"
               id="path20" /><path
               d="m 2.75842,35.81004 c 1.52481,0 2.75843,-1.23842 2.75843,-2.76323 0,-1.52162 -1.23362,-2.75364 -2.75843,-2.75364 C 1.2352,30.29317 0,31.52519 0,33.04681 c 0,1.52481 1.2352,2.76323 2.75842,2.76323 z"
               style="fill:#000000;fill-opacity:1;fill-rule:nonzero;stroke:#000000;stroke-width:0.3985;stroke-linecap:butt;stroke-linejoin:miter;stroke-miterlimit:10;stroke-dasharray:none;stroke-opacity:1"
               id="path22" /><path
               d="m 13.41776,36.43404 c 1.86883,0 3.38406,-1.51841 3.38406,-3.38723 0,-1.86881 -1.51523,-3.38404 -3.38406,-3.38404 -1.86883,0 -3.38564,1.51523 -3.38564,3.38404 0,1.86882 1.51681,3.38723 3.38564,3.38723 z"
               style="fill:#000000;fill-opacity:1;fill-rule:nonzero;stroke:#000000;stroke-width:0.3985;stroke-linecap:butt;stroke-linejoin:miter;stroke-miterlimit:10;stroke-dasharray:none;stroke-opacity:1"
               id="path24" /><path
               d="m 26.58272,37.43567 c 2.42245,0 4.38728,-1.96323 4.38728,-4.38886 0,-2.42083 -1.96483,-4.38726 -4.38728,-4.38726 -2.42242,0 -4.39046,1.96643 -4.39046,4.38726 0,2.42563 1.96804,4.38886 4.39046,4.38886 z"
               style="fill:#000000;fill-opacity:1;fill-rule:nonzero;stroke:#000000;stroke-width:0.3985;stroke-linecap:butt;stroke-linejoin:miter;stroke-miterlimit:10;stroke-dasharray:none;stroke-opacity:1"
               id="path26" /><path
               d="M 2.75842,91.22676 C 1.2352,91.22676 0,92.46358 0,93.98518 c 0,1.52485 1.2352,2.76004 2.75842,2.76004 1.52481,0 2.75843,-1.23519 2.75843,-2.76004 0,-1.5216 -1.23362,-2.75842 -2.75843,-2.75842 z"
               style="fill:#000000;fill-opacity:1;fill-rule:nonzero;stroke:#000000;stroke-width:0.3985;stroke-linecap:butt;stroke-linejoin:miter;stroke-miterlimit:10;stroke-dasharray:none;stroke-opacity:1"
               id="path28" /><path
               d="m 13.41776,97.37083 c 1.86883,0 3.38406,-1.51521 3.38406,-3.38565 0,-1.8672 -1.51523,-3.38403 -3.38406,-3.38403 -1.86883,0 -3.38564,1.51683 -3.38564,3.38403 0,1.87044 1.51681,3.38565 3.38564,3.38565 z"
               style="fill:#000000;fill-opacity:1;fill-rule:nonzero;stroke:#000000;stroke-width:0.3985;stroke-linecap:butt;stroke-linejoin:miter;stroke-miterlimit:10;stroke-dasharray:none;stroke-opacity:1"
               id="path30" /><path
               d="m 26.58272,98.37245 c 2.42245,0 4.38728,-1.96162 4.38728,-4.38727 0,-2.42241 -1.96483,-4.38563 -4.38728,-4.38563 -2.42242,0 -4.39046,1.96322 -4.39046,4.38563 0,2.42565 1.96804,4.38727 4.39046,4.38727 z"
               style="fill:#000000;fill-opacity:1;fill-rule:nonzero;stroke:#000000;stroke-width:0.3985;stroke-linecap:butt;stroke-linejoin:miter;stroke-miterlimit:10;stroke-dasharray:none;stroke-opacity:1"
               id="path32" /><path
               d="m 114.10226,65.90004 c 1.52482,0 2.75844,-1.23361 2.75844,-2.75845 0,-1.52321 -1.23362,-2.76003 -2.75844,-2.76003 -1.52482,0 -2.75843,1.23682 -2.75843,2.76003 0,1.52484 1.23361,2.75845 2.75843,2.75845 z"
               style="fill:#000000;fill-opacity:1;fill-rule:nonzero;stroke:#000000;stroke-width:0.3985;stroke-linecap:butt;stroke-linejoin:miter;stroke-miterlimit:10;stroke-dasharray:none;stroke-opacity:1"
               id="path34" /></g></g></g></g></g></svg>
