<?xml version="1.0" encoding="UTF-8" standalone="no"?>
<svg
   xmlns:dc="http://purl.org/dc/elements/1.1/"
   xmlns:cc="http://creativecommons.org/ns#"
   xmlns:rdf="http://www.w3.org/1999/02/22-rdf-syntax-ns#"
   xmlns:svg="http://www.w3.org/2000/svg"
   xmlns="http://www.w3.org/2000/svg"
   xmlns:sodipodi="http://sodipodi.sourceforge.net/DTD/sodipodi-0.dtd"
   xmlns:inkscape="http://www.inkscape.org/namespaces/inkscape"
   version="1.1"
   id="svg2"
   xml:space="preserve"
   width="67.946671"
   height="40.773335"
   viewBox="0 0 67.946671 40.773335"
   sodipodi:docname="vectorian189.pdf"><metadata
     id="metadata8"><rdf:RDF><cc:Work
         rdf:about=""><dc:format>image/svg+xml</dc:format><dc:type
           rdf:resource="http://purl.org/dc/dcmitype/StillImage" /></cc:Work></rdf:RDF></metadata><defs
     id="defs6" /><sodipodi:namedview
     pagecolor="#ffffff"
     bordercolor="#666666"
     borderopacity="1"
     objecttolerance="10"
     gridtolerance="10"
     guidetolerance="10"
     inkscape:pageopacity="0"
     inkscape:pageshadow="2"
     inkscape:window-width="640"
     inkscape:window-height="480"
     id="namedview4" /><g
     id="g10"
     inkscape:groupmode="layer"
     inkscape:label="vectorian189"
     transform="matrix(1.3333333,0,0,-1.3333333,0,40.773333)"><g
       id="g12"
       transform="translate(72,-41.415)"><g
         id="g14"
         transform="translate(-70.294,41.969)"><g
           id="g16"><g
             id="g18"><path
               d="M 15.92369,7.55319 C 14.58087,7.51758 13.51407,6.55386 13.51407,6.55386 17.1983,6.21037 17.2679,7.58658 15.92369,7.55319 M 9.3134,9.20471 C 7.96999,8.86108 7.41937,7.44867 7.41937,7.44867 10.48482,7.8967 10.65692,9.5496 9.3134,9.20471 M 2.94223,1.97491 c 0,0 -0.61952,3.82215 4.13225,5.37058 0,0 0.207,1.3783 1.92822,2.06752 1.72192,0.6878 1.79082,-0.17211 1.06892,-1.30803 C 9.34831,6.96777 6.59297,5.96986 6.59297,5.96986 c 0,0 -0.0341,-1.06752 0.34421,-1.75602 0,0 1.34351,3.09823 6.12747,2.41043 0,0 1.48284,1.4118 3.30645,1.17061 1.82571,-0.24169 0.207,-1.4466 -0.96372,-1.96361 -1.17072,-0.51503 -3.02922,-0.27532 -3.02922,-0.27532 0,0 -0.75812,-1.30862 -0.03482,-2.75463 0,0 1.51423,1.54983 3.33995,1.96302 1.82503,0.41262 4.16575,-0.13859 5.37128,-4.30434 l 0.61949,0.2404 c 0,0 0.51642,3.06474 -2.27103,6.57748 C 16.6129,10.78932 11.86113,11.23802 7.9372,10.41022 4.01112,9.58511 0.22238,5.59216 2.94223,1.97491 m 3.75325,10.70914 c -0.3101,0.6201 -3.23555,-0.4481 -3.23555,-0.4481 1.85924,-0.92893 3.54555,-0.17211 3.23555,0.4481 m 5.09666,0.99991 c 0.10309,0.72131 -1.72052,1.17003 -1.72052,1.17003 0.2746,-1.13724 1.61672,-1.89406 1.72052,-1.17003 m 6.47367,-2.41243 c 0.06829,0.65503 -0.82579,1.65292 -0.82579,1.65292 -0.82712,-1.75602 0.75679,-2.30662 0.82579,-1.65292 m 0.55122,3.23824 -1.17142,-1.06762 c 0,0 1.17142,-1.48152 0.89551,-2.30723 -0.27531,-0.82649 -2.20413,-0.655 -1.30873,2.09964 0,0 -1.5142,1.68843 -3.02983,1.82573 -1.51572,0.13717 -3.20204,0.96441 -4.30376,2.61592 0,0 -0.3443,-0.79021 -0.0697,-2.27173 0,0 2.17066,-0.62019 2.23894,-1.51491 0.0683,-0.89552 -1.51561,-1.44734 -2.37552,1.13582 0,0 -1.10172,0.6216 -3.16855,0.0349 -2.06543,-0.58542 -4.02775,-0.44811 -5.37057,0.06889 0,0 0.3791,-1.68703 1.79023,-2.61734 0,0 3.37403,1.17212 4.06395,0.24049 0.68781,-0.92889 -2.13652,-1.82441 -3.96156,-0.6537 0,0 -4.75174,-3.16784 -1.37691,-8.78019 0,0 -1.06833,3.30583 2.96154,6.50776 4.02774,3.20275 10.91473,2.16864 13.73828,-0.41319 0,0 3.64944,-3.03055 3.61593,-8.12731 0,0 1.10242,2.48012 0.48151,5.26958 -0.62012,2.78873 -3.06334,4.47585 -3.64934,7.95449 m 3.71974,-5.92258 c 1.1003,-3.03124 0.2049,-5.75096 0.2049,-5.75096 2.68706,2.96083 1.54973,5.99207 0.13861,8.0576 -1.41242,2.0661 -0.75742,3.61594 -0.75742,3.61594 0,0 -1.51631,0.17282 -2.10101,0.51562 -0.58533,0.3443 -0.89612,0.3443 -0.89612,0.3443 -0.0341,-2.40904 2.30663,-3.75256 3.41104,-6.7825 m 5.71418,-4.04755 c 0.47599,-0.36679 1.90422,1.48352 1.90422,1.48352 -1.44593,-0.1844 -2.37961,-1.11741 -1.90422,-1.48352 m 8.36491,11.64214 c 0.75142,-0.47679 2.47263,1.15294 2.47263,1.15294 -2.16112,0.054 -3.22323,-0.67822 -2.47263,-1.15294 M 33.1017,16.2173 c 0.80461,0.3483 1.66592,3.22115 1.66592,3.22115 C 31.7282,17.151 32.29651,15.8703 33.1017,16.2173 m -10.87305,9.73712 c -0.34689,0.87979 -2.01349,1.61131 -2.01349,1.61131 0.76909,-2.81883 2.36121,-2.48962 2.01349,-1.61131 m 2.45276,-3.14804 c 0.12909,-0.91522 1.06211,-1.04361 1.19051,-0.1277 0.12781,0.91461 -0.67751,2.50732 -0.67751,2.50732 0,0 -0.6407,-1.4643 -0.513,-2.37962 m 2.41593,-3.91646 c 0.6598,-0.23838 1.1174,1.81142 1.1174,1.81142 -1.00611,-0.1086 -1.77523,-1.57372 -1.1174,-1.81142 m 1.37281,-6.40536 c 1.02591,0.14548 1.07991,3.54964 1.07991,3.54964 -1.31691,-0.69532 -2.10513,-3.69716 -1.07991,-3.54964 m -4.44785,3.20273 c -0.60311,0.32921 -1.59272,-0.76981 -1.59272,-0.76981 1.39191,-0.64072 2.19792,0.43921 1.59272,0.76981 m -3.27575,4.50245 c -1.0621,-0.2944 -1.52041,-1.50132 -1.52041,-1.50132 3.68014,0.34841 2.58044,1.79432 1.52041,1.50132 m -5.18007,2.68705 c -0.98152,-0.29102 -0.98152,-2.07093 -0.98152,-2.07093 2.21644,0.7274 1.96234,2.36054 0.98152,2.07093 m -0.9091,-2.39745 c 0,0 1.0894,-2.03543 4.06885,-1.85301 0,0 0.6891,1.88922 2.54213,1.88922 1.85302,0 0.83542,-2.07164 -2.32492,-2.36124 0,0 -0.50823,-3.01553 3.19714,-3.23344 0,0 0.472,0.98082 1.4528,1.09082 0.98152,0.1086 1.59763,-1.67063 -1.1632,-1.56272 0,0 -0.2896,-1.41662 0.83599,-2.65153 1.12632,-1.23492 3.37827,-5.73879 -0.72529,-9.58893 L 22.14058,1.1553 c 0,0 1.85242,0.9439 3.08732,5.52086 1.23552,4.57628 0.39953,10.71526 -2.87013,14.45751 -3.26825,3.74023 -7.95511,3.88644 -10.67833,2.86873 -2.72454,-1.01702 -3.99635,-1.37972 -5.01407,-1.19942 0,0 1.34491,0.03761 3.41445,1.19942 2.07222,1.1625 5.70386,2.10643 9.77261,0.3633 4.06817,-1.74302 6.06529,-6.75709 6.4287,-10.31565 0.36331,-3.56062 0.10919,-8.64569 -3.92336,-13.40436 0,0 1.99793,1.05391 3.95955,5.15758 1.96231,4.10565 4.06876,7.9927 7.15599,8.93591 3.08795,0.9447 8.53643,-0.39812 8.82672,-5.55707 0,0 0.03751,-1.96223 -1.30801,-3.34195 0,0 1.70822,2.57904 0.5457,5.01268 -1.16242,2.43491 -4.43207,3.92255 -8.1006,2.61531 C 29.76796,12.16084 28.31644,8.52779 27.26263,6.52997 26.20872,4.53215 24.5011,1.84511 22.54088,0.53708 c 0,0 2.32362,-0.90897 4.93956,1.23494 2.61464,2.14262 4.28596,3.63234 7.26469,3.63234 0,0 -1.85241,0.9794 -3.66923,0.76291 0,0 -1.59754,-2.21572 -2.90485,-2.03542 -1.30803,0.18309 0.14539,1.96301 2.46913,2.43573 0,0 0.907,3.26892 3.56055,4.86644 2.65083,1.59833 6.10147,0.25482 6.57408,-2.17952 0.47202,-2.43422 -1.67132,-3.85014 -4.10495,-3.55984 0,0 2.65284,-1.56212 4.83167,-0.14481 2.17892,1.41722 3.34204,5.23058 -0.58121,8.57332 l 2.68703,1.23421 c 0,0 -1.48761,0.94532 -3.45064,1.70752 0,0 -0.47272,-0.10859 -1.45214,-0.7622 -0.9808,-0.65442 -2.7983,-0.69062 -2.7983,0.0355 0,0.7267 1.4172,1.34481 3.27093,1.23492 0,0 1.5614,0.5457 2.28752,2.94315 0,0 -2.76015,-0.61823 -5.73878,-0.50963 0,0 -1.1994,-3.52295 -2.32503,-4.17734 -1.12701,-0.65361 -1.81541,0.763 -0.726,2.07092 1.0894,1.30731 2.28743,1.99782 2.28743,1.99782 l 0.7991,1.96234 c 0,0 -3.30583,-0.76294 -5.15817,-4.39587 0,0 0,-3.23274 -1.41662,-4.83107 -1.41721,-1.59892 -1.81481,0.47201 -1.34281,1.70762 0.4726,1.23423 1.67003,2.10572 1.67003,2.10572 0,0 -0.0724,3.23346 1.74442,5.9566 0,0 -1.23562,-0.10861 -2.36194,-0.94392 0,0 -0.76361,-3.05103 -1.70751,-2.97724 -0.94462,0.07032 -0.87152,1.88852 1.01702,2.54154 0,0 0.21989,1.41792 -0.47132,2.54283 -0.6905,1.12631 -0.65431,3.74165 -0.65431,3.74165 0,0 -0.54439,-0.87222 -1.63512,-1.70694 0,0 1.12693,-1.81611 0.79911,-3.01553 -0.3265,-1.19801 -2.90494,-1.4521 -1.27112,2.90695 0,0 -1.4521,2.68773 -4.93895,3.48683 l 0.07109,-0.8715 c 0,0 2.10773,-0.83602 2.47113,-2.32503 0.3627,-1.48902 -1.92403,-1.30873 -2.61533,1.92542 0,0 -2.32564,1.45283 -5.63078,0.3265 -3.30583,-1.12632 -6.97368,-6.03038 -9.33491,-4.79545 0,0 3.92263,-4.79558 9.15322,-2.65154 0,0 -0.0724,1.67133 0.94532,2.46982 1.01631,0.79982 3.12272,-0.9446 -0.43651,-2.57843 M 12.04144,5.58604 C 6.95697,6.05865 7.21039,3.51514 7.21039,3.51514 6.12166,4.24185 6.30196,5.87636 6.30196,5.87636 0.999,3.87845 4.48724,0.24548 4.48724,0.24548 2.85141,0.97218 -0.27208,3.76854 0.01889,7.43768 0.30919,11.10622 2.74283,12.30565 2.74283,12.30565 0.9635,13.57607 0.3461,15.7925 0.3461,15.7925 c 1.017,-0.58132 3.41374,-0.47202 5.66696,0.0362 2.25124,0.50808 3.48544,-0.32582 3.48544,-0.32582 -0.1454,1.52512 0.1817,2.97724 0.1817,2.97724 0.5813,-0.9084 1.45284,-1.92403 3.88717,-2.43294 2.43423,-0.5088 3.77773,-2.36182 3.77773,-2.36182 l 1.34423,1.1624 v 0.90854 l 0.47191,0.0724 c -0.58121,0.6905 -0.65361,2.25182 -0.65361,2.25182 -3.48755,-0.47191 -4.24905,2.14333 -4.24905,2.14333 -7.66491,-3.34136 -10.31714,3.70544 -10.31714,3.70544 3.55993,-1.48971 4.46765,1.45282 8.464,3.77776 3.99506,2.32432 7.41078,0.5813 7.41078,0.5813 l -0.10989,1.16252 c 3.74227,-0.61753 5.59398,-3.52375 5.59398,-3.52375 1.16241,0.83602 2.68693,2.76015 2.68693,2.76015 0,0 -0.5798,-1.92413 0.21862,-3.81337 0.7998,-1.88852 0.7998,-2.97732 0.7998,-2.97732 1.41733,0.76089 2.97934,0.94401 2.97934,0.94401 -2.07164,-3.08865 -1.52722,-4.86857 -1.52722,-4.86857 0,0 1.27182,2.21562 3.41514,3.34133 2.14264,1.12623 3.34134,1.70752 3.34134,1.70752 l -1.41662,-2.68702 c 5.19438,-0.07379 6.86569,1.01701 6.86569,1.01701 -0.58049,-2.39873 -2.43422,-3.95944 -2.43422,-3.95944 1.34482,-0.43582 4.03253,-1.92613 4.03253,-1.92613 L 41.68253,13.94005 C 45.93298,9.6903 43.02745,4.85934 39.35889,4.38664 35.68904,3.91464 34.89063,7.54628 34.89063,7.54628 36.45197,5.76636 39.4668,5.47675 40.3746,7.61937 41.28302,9.76271 39.4293,11.61444 36.05246,11.03383 32.6735,10.45262 31.22137,6.60167 31.22137,6.60167 34.52654,6.71098 35.65215,5.04034 35.65215,5.04034 33.0731,4.89555 32.0567,3.65993 29.00566,1.5535 25.95392,-0.5536 22.10378,0.09999 22.10378,0.09999 l 0.18159,0.36339 -1.49031,-0.50887 c 0,0 -1.08873,4.21424 -3.95746,4.25043 -2.87073,0.03551 -4.57695,-1.96162 -4.57695,-1.96162 -1.19932,1.96092 -0.21921,3.34272 -0.21921,3.34272"
               style="fill:#000000;fill-opacity:1;fill-rule:nonzero;stroke:#000000;stroke-width:0.3985;stroke-linecap:butt;stroke-linejoin:miter;stroke-miterlimit:10;stroke-dasharray:none;stroke-opacity:1"
               id="path20" /></g></g></g></g></g></svg>
