<?xml version="1.0" encoding="UTF-8" standalone="no"?>
<svg
   xmlns:dc="http://purl.org/dc/elements/1.1/"
   xmlns:cc="http://creativecommons.org/ns#"
   xmlns:rdf="http://www.w3.org/1999/02/22-rdf-syntax-ns#"
   xmlns:svg="http://www.w3.org/2000/svg"
   xmlns="http://www.w3.org/2000/svg"
   xmlns:sodipodi="http://sodipodi.sourceforge.net/DTD/sodipodi-0.dtd"
   xmlns:inkscape="http://www.inkscape.org/namespaces/inkscape"
   version="1.1"
   id="svg2"
   xml:space="preserve"
   width="42.303696"
   height="39.710537"
   viewBox="0 0 42.303696 39.710537"
   sodipodi:docname="vectorian188.pdf"><metadata
     id="metadata8"><rdf:RDF><cc:Work
         rdf:about=""><dc:format>image/svg+xml</dc:format><dc:type
           rdf:resource="http://purl.org/dc/dcmitype/StillImage" /></cc:Work></rdf:RDF></metadata><defs
     id="defs6" /><sodipodi:namedview
     pagecolor="#ffffff"
     bordercolor="#666666"
     borderopacity="1"
     objecttolerance="10"
     gridtolerance="10"
     guidetolerance="10"
     inkscape:pageopacity="0"
     inkscape:pageshadow="2"
     inkscape:window-width="640"
     inkscape:window-height="480"
     id="namedview4" /><g
     id="g10"
     inkscape:groupmode="layer"
     inkscape:label="vectorian188"
     transform="matrix(1.3333333,0,0,-1.3333333,0.14027662,40.337687)"><g
       id="g12"
       transform="translate(72,-41.65)"><g
         id="g14"
         transform="translate(-71.906,42.332)"><g
           id="g16"><g
             id="g18"><path
               d="M 18.78372,5.70737 C 16.176,3.91444 15.32828,0.55669 15.32828,0.55669 c 0,0 4.59677,-0.1633 7.3685,1.33592 2.77102,1.49992 3.81465,4.53184 3.81465,4.53184 -2.60913,1.10923 -5.11858,1.07653 -7.72771,-0.71708 m 2.57634,10.85723 c 0,0 0.61821,-5.38018 5.15137,-7.7277 0,0 0.32651,5.77159 -5.15137,7.7277 m -6.5871,6.06327 c 1.66324,-0.13049 1.92414,1.72803 1.92414,1.72803 -3.88025,1.17411 -3.58653,-1.59761 -1.92414,-1.72803 M 14.28467,21.25836 C 12.23013,20.70445 9.9154,23.53969 7.43738,25.0724 4.96005,26.60504 1.3735,25.98552 1.3735,25.98552 5.12254,18.68272 14.28467,21.25836 14.28467,21.25836 M 0.00339,29.50447 c 0,0 0.88101,-2.47594 5.80427,-1.46641 4.92258,1.01089 11.18314,1.63041 11.54174,-3.87955 0,0 1.82573,-0.78214 3.42326,-5.34668 0,0 -0.06552,8.6723 8.54121,9.81363 0,0 -1.69453,-2.15224 -1.20483,-4.66167 0.48901,-2.51073 1.20483,-4.82556 -0.84761,-6.48799 -2.05452,-1.66321 -5.05435,-0.5218 -5.38086,1.82573 -0.3251,2.34685 1.98893,2.96704 3.13163,2.73895 0,0 -0.06559,3.26002 2.28133,5.38016 0,0 -2.54292,-3.32703 -1.27182,-6.9464 0,0 -1.98891,1.56554 -3.19453,0.29442 -1.20682,-1.27252 0.4556,-3.88026 2.21643,-3.61937 1.76152,0.26093 2.86943,1.85784 2.24992,4.17327 -0.6188,2.31472 -0.4884,4.36796 1.04363,6.68339 0,0 -1.59763,0.19669 -3.97796,-2.15083 -2.38093,-2.34754 -3.45605,-5.96547 -3.06464,-8.83492 0,0 5.64038,-1.36871 5.57548,-8.2167 0,0 1.40149,-0.847 3.35773,-1.17351 0,0 -1.36951,-0.19601 -3.29283,0.653 0,0 -0.03351,-1.40292 -0.03351,-1.56552 0,0 2.54294,-1.63031 2.64123,-6.71747 l -0.55389,0.03279 c 0,0 0.03279,4.17394 -2.11873,6.13007 0,0 -1.98834,-6.84514 -12.06427,-5.93407 0,0 0.71793,3.38985 3.22804,6.09737 2.51073,2.70544 5.9334,2.15153 8.57532,0.45552 v 1.66321 c 0,0 -4.50046,1.30392 -5.67389,8.15121 0,0 -5.15065,1.85783 -9.9113,-2.57573 C 6.26396,9.58693 7.69827,4.37065 7.69827,4.37065 c 0,0 1.36943,4.20464 4.79346,4.88905 3.42267,0.68512 5.31389,-0.32649 6.94431,1.72802 1.63032,2.05394 0.6188,4.46766 0.6188,4.46766 0,0 -6.35757,0.4249 -10.82384,-7.23728 0,0 2.44524,8.2482 10.79175,7.49888 0,0 1.7608,-1.33801 0.61949,-3.91304 C 19.50153,9.22691 16.5018,8.73859 13.89326,8.47899 11.28484,8.2181 8.18729,7.14168 7.82867,1.89261 c 0,0 -2.18422,3.97795 0.29372,9.58493 2.47803,5.60826 9.09651,7.27139 12.71587,5.80356 0,0 -1.89133,5.54347 -3.71706,6.45529 0,0 -0.9452,-1.89063 -3.09813,-1.30461 -2.15153,0.58812 -1.17343,3.35914 2.64193,2.24992 0,0 -0.94672,3.32494 -5.77157,3.19513 -4.82557,-0.1304 -8.80283,-1.53201 -10.36823,0.55531 0,0 0.196,-1.5334 0.7178,-2.24981 0,0 4.20607,1.13991 6.94429,-0.32721 2.73895,-1.46643 3.65214,-5.08576 8.83631,-3.65215 0,0 -3.84744,-2.86863 -9.48863,-1.46571 -5.64037,1.4015 -7.62925,5.17996 -7.53158,8.76721"
               style="fill:#000000;fill-opacity:1;fill-rule:nonzero;stroke:#000000;stroke-width:0.3985;stroke-linecap:butt;stroke-linejoin:miter;stroke-miterlimit:10;stroke-dasharray:none;stroke-opacity:1"
               id="path20" /><path
               d="m 24.55391,5.88896 c 0,0 -4.59407,-0.91861 -6.7981,-3.88776 0,0 1.62282,4.10225 6.7981,3.88776"
               style="fill:#000000;fill-opacity:1;fill-rule:nonzero;stroke:#000000;stroke-width:0.3985;stroke-linecap:butt;stroke-linejoin:miter;stroke-miterlimit:10;stroke-dasharray:none;stroke-opacity:1"
               id="path22" /></g></g></g></g></g></svg>
