<?xml version="1.0" encoding="UTF-8" standalone="no"?>
<svg
   xmlns:dc="http://purl.org/dc/elements/1.1/"
   xmlns:cc="http://creativecommons.org/ns#"
   xmlns:rdf="http://www.w3.org/1999/02/22-rdf-syntax-ns#"
   xmlns:svg="http://www.w3.org/2000/svg"
   xmlns="http://www.w3.org/2000/svg"
   xmlns:sodipodi="http://sodipodi.sourceforge.net/DTD/sodipodi-0.dtd"
   xmlns:inkscape="http://www.inkscape.org/namespaces/inkscape"
   version="1.1"
   id="svg2"
   xml:space="preserve"
   width="75.951683"
   height="38.028168"
   viewBox="0 0 75.951683 38.028168"
   sodipodi:docname="vectorian113.pdf"><metadata
     id="metadata8"><rdf:RDF><cc:Work
         rdf:about=""><dc:format>image/svg+xml</dc:format><dc:type
           rdf:resource="http://purl.org/dc/dcmitype/StillImage" /></cc:Work></rdf:RDF></metadata><defs
     id="defs6" /><sodipodi:namedview
     pagecolor="#ffffff"
     bordercolor="#666666"
     borderopacity="1"
     objecttolerance="10"
     gridtolerance="10"
     guidetolerance="10"
     inkscape:pageopacity="0"
     inkscape:pageshadow="2"
     inkscape:window-width="640"
     inkscape:window-height="480"
     id="namedview4" /><g
     id="g10"
     inkscape:groupmode="layer"
     inkscape:label="vectorian113"
     transform="matrix(1.3333333,0,0,-1.3333333,-0.43134291,38.375836)"><g
       id="g12"
       transform="translate(72,-42.754)"><g
         id="g14"
         transform="translate(-71.477,43.212)"><g
           id="g16"><g
             id="g18"><path
               d="M 56.56502,16.4299 V 15.34528 L 53.61089,9.4371 47.308,9.3394 l 1.57641,3.84067 h 0.49111 l -0.88591,-2.36325 3.44725,3.24914 h 0.4917 L 48.09619,9.9302 h 5.21828 l -0.196,3.15145 0.295,-0.3941 0.19742,-1.96982 z"
               style="fill:#000000;fill-opacity:1;fill-rule:nonzero;stroke:#000000;stroke-width:0.3985;stroke-linecap:butt;stroke-linejoin:miter;stroke-miterlimit:10;stroke-dasharray:none;stroke-opacity:1"
               id="path20" /><path
               d="m 53.38417,20.08405 1.62964,0.0628 -0.14752,0.29579 H 52.65057 L 50.58232,16.1594 c 0,0 0.51642,0.4426 0.88663,0.88592 0.27659,0.33189 1.05391,1.87012 1.42273,2.61803 l 0.42279,-1.36203 z"
               style="fill:#000000;fill-opacity:1;fill-rule:nonzero;stroke:#000000;stroke-width:0.3985;stroke-linecap:butt;stroke-linejoin:miter;stroke-miterlimit:10;stroke-dasharray:none;stroke-opacity:1"
               id="path22" /><path
               d="m 53.09247,16.08429 c 0,0 0.96101,0.2964 0.96101,-0.88591 0,-1.18092 -1.62492,-1.54981 -1.84683,-0.5164 -0.222,1.0341 0.88582,1.40231 0.88582,1.40231"
               style="fill:#000000;fill-opacity:1;fill-rule:nonzero;stroke:#000000;stroke-width:0.3985;stroke-linecap:butt;stroke-linejoin:miter;stroke-miterlimit:10;stroke-dasharray:none;stroke-opacity:1"
               id="path24" /><path
               d="m 45.63528,15.76118 c -0.2118,0.0949 -0.32722,0.29441 -0.25961,0.44402 0.06831,0.153 0.2937,0.1974 0.50481,0.1052 0.20968,-0.095 0.32651,-0.29441 0.2588,-0.44541 -0.06691,-0.15091 -0.29362,-0.1974 -0.504,-0.10381 m -0.12501,0.91393 c -0.4754,0 -0.86131,-0.38521 -0.86131,-0.86131 0,-0.47542 0.38591,-0.86261 0.86131,-0.86261 0.47671,0 0.86201,0.38719 0.86201,0.86261 0,0.4761 -0.3853,0.86131 -0.86201,0.86131"
               style="fill:#000000;fill-opacity:1;fill-rule:nonzero;stroke:#000000;stroke-width:0.3985;stroke-linecap:butt;stroke-linejoin:miter;stroke-miterlimit:10;stroke-dasharray:none;stroke-opacity:1"
               id="path26" /><path
               d="m 7.47818,20.81076 c 0,0 0.88591,-0.73831 0.2951,-1.18092 -0.5915,-0.44332 -5.16976,0.98422 -7.63139,6.54748 0,0 0.34419,1.18161 1.13241,0.59149 0,0 -0.59081,-0.09837 -0.59081,-0.59149 0,-0.4918 2.90493,-4.18496 5.80906,-5.95738 0,0 0.88593,-0.5901 1.13384,-0.34419 0.24521,0.24659 -0.14821,0.93501 -0.14821,0.93501"
               style="fill:#000000;fill-opacity:1;fill-rule:nonzero;stroke:#000000;stroke-width:0.3985;stroke-linecap:butt;stroke-linejoin:miter;stroke-miterlimit:10;stroke-dasharray:none;stroke-opacity:1"
               id="path28" /><path
               d="m 5.75354,21.89406 c 0,0 -1.57501,0.68982 -1.92061,0.64071 0,0 0.73972,0.4917 1.92061,-0.64071"
               style="fill:#000000;fill-opacity:1;fill-rule:nonzero;stroke:#000000;stroke-width:0.3985;stroke-linecap:butt;stroke-linejoin:miter;stroke-miterlimit:10;stroke-dasharray:none;stroke-opacity:1"
               id="path30" /><path
               d="m 9.54501,21.35306 c 0,0 0.14821,-0.739 -0.4911,-0.739 -0.64063,0 -2.51144,1.42822 -3.74365,3.15084 0,0 -0.58942,1.92062 -1.77103,2.26623 0,0 0.34352,0.1953 0.64001,0.097 0,0 -0.5382,0.51838 0.14751,1.28001 0.4426,0.49309 1.32981,0.04979 1.32981,0.04979 0,0 -0.68981,0.1974 -1.13381,-0.34419 -0.44192,-0.5423 0.09909,-1.08261 0.09909,-1.08261 0,0 0.295,-0.64133 0.59082,-0.98633 0.29569,-0.3442 1.82161,-2.26422 2.60914,-3.00252 0.7875,-0.73832 1.42751,-1.77313 1.72321,-0.68922"
               style="fill:#000000;fill-opacity:1;fill-rule:nonzero;stroke:#000000;stroke-width:0.3985;stroke-linecap:butt;stroke-linejoin:miter;stroke-miterlimit:10;stroke-dasharray:none;stroke-opacity:1"
               id="path32" /><path
               d="M 35.29433,17.16751 C 34.94934,16.9715 34.85175,16.921 34.85175,16.921 c 1.6733,0.19872 2.90481,1.42814 2.90481,1.42814 l -0.44391,0.04988 c -0.39348,-0.49181 -1.67271,-1.03411 -2.01832,-1.23151 m 11.86546,-2.95334 c -0.3934,-0.2964 -0.54172,-1.37832 -1.2308,-1.82094 C 45.24048,11.94853 44.64827,11.60432 44.00896,10.0784 43.36894,8.5512 39.6274,4.51524 36.13095,4.31784 l 0.19811,0.93501 c 0,0 2.60983,0.345 3.93904,2.21514 1.32911,1.87141 0.98422,4.38295 -1.62563,6.49959 0,0 1.03412,0.24659 2.70755,2.75732 0,0 -1.67343,-0.34421 -2.11601,1.37772 0,0 1.4767,-0.09699 2.80582,0.34559 1.32911,0.44261 2.95404,0.93501 4.03595,0.63931 1.08401,-0.29509 1.96983,-1.92001 2.06822,-2.80582 l 1.23083,-1.08332 -1.82164,0.0984 c 0,0 -0.24519,-0.14689 0.04981,-0.24659 0.2958,-0.09841 1.47741,-0.54161 1.47741,-0.54161 0,0 -1.52722,0 -1.92062,-0.29441 M 34.75404,16.3308 c 0,0 2.65833,0.541 3.88843,1.92002 l 0.39412,-0.09838 c 0,0 -0.49251,-1.52584 0.88521,-2.41304 0,0 -0.49179,-1.08262 -1.57512,-1.52523 0,0 -1.42751,1.18161 -3.59264,2.11663 m -0.59221,0.1961 c 0,0 -3.15073,2.21703 -11.96316,3.24974 0,0 -1.57571,0.1483 -1.4295,0.5417 0.14819,0.39342 6.40127,0.68981 12.75265,-1.03341 0,0 -0.04851,0.295 -0.54161,0.59082 -0.49179,0.2957 -4.43076,2.26492 -12.94876,3.29893 0,0 -3.79076,0.63871 -3.84055,0.93512 -0.04721,0.29499 5.66216,2.21572 19.89096,-3.44726 0,0 -1.57443,1.52723 -4.43016,2.90565 -2.85635,1.37901 -5.76127,2.01833 -8.81372,2.41173 -3.05174,0.3941 -8.36902,0.93571 -8.95981,1.42822 0,0 4.87406,0.68981 11.81556,-0.54101 6.94229,-1.23081 12.75206,-4.23474 13.19465,-6.79468 0.44392,-2.55936 -4.43075,-3.59476 -4.72655,-3.54555 M 21.11546,7.96109 c 0,0 4.62816,-1.42754 4.57827,-2.01833 -0.04981,-0.5915 -2.56064,0.39412 -4.57827,2.01833 M 35.83594,4.17033 C 35.54155,3.23451 33.91531,1.1671 27.17044,0.9697 20.42494,0.77298 10.0867,3.48112 2.35762,11.45683 c 0,0 0.14749,0.14749 0.44331,-0.09909 C 3.09464,11.11252 17.0774,1.2162 24.75801,2.39722 c 0,0 0.34421,0.2964 -0.4433,0.2964 -0.78822,0 -9.74743,1.77103 -16.49362,8.51732 0,0 0.0997,0.34419 0.69051,-0.05062 0.59019,-0.39338 11.12645,-7.4832 17.18213,-6.74478 0,0 -1.77173,0.78751 -2.70815,1.08461 -0.93582,0.29441 -3.54425,1.57503 -3.74095,2.85505 0,0 0.73901,-0.0997 1.08331,-0.34492 0.34422,-0.24661 3.49495,-2.46232 5.31598,-2.65902 0,0 0.3947,0.04921 0.2964,0.4931 -0.0984,0.44261 -0.88592,1.47672 -6.4505,3.00325 0,0 1.47742,2.06751 6.59799,0.14619 0,0 -0.26019,-2.02442 2.95345,-3.29765 2.61044,-1.0341 6.50029,-0.54161 6.50029,-0.54161 0,0 0.5894,-0.04919 0.29439,-0.98421 M 14.71419,9.88103 18.75223,8.6496 c 0,0 -0.1483,-0.7377 1.42752,-2.16524 0,0 -4.13577,1.91933 -5.46556,3.39667 M 27.46553,9.58461 c 1.38034,0.59149 5.71278,0.39479 8.41963,-3.83926 0,0 -2.60914,-0.19739 -6.10348,0.68853 -3.49716,0.8872 -3.69387,2.55992 -2.31615,3.15073 M 9.8408,24.75041 c 0.88582,-1.18222 1.77172,-2.06953 1.62354,-2.60974 -0.1468,-0.5417 -1.96913,1.37901 -2.90495,3.29753 0,0 0.39551,0.49323 1.28141,-0.68779 M 48.58731,16.2325 c -0.2944,1.25542 -1.18161,3.10162 -2.87894,3.24983 -1.69941,0.14682 -3.17604,-0.666 -4.28395,-0.8128 -1.10852,-0.14821 -2.58525,-0.0738 -2.58525,-0.0738 0,0 0.88653,0.4426 0.14753,2.36321 -0.73833,1.92003 -5.9819,5.6125 -13.51499,6.7203 -7.53231,1.10921 -12.47946,-0.22131 -12.47946,-0.22131 1.32852,-0.88649 11.81495,-2.21573 14.10438,-2.65903 2.29094,-0.4432 2.80584,-1.32981 2.80584,-1.32981 -9.96802,2.88102 -14.32639,1.62493 -14.32639,0.73901 0,-0.8858 4.28326,-1.40292 7.0161,-1.77243 2.73272,-0.36879 3.83993,-1.0341 3.83993,-1.0341 l -0.81208,0.1482 c -5.46488,0.44259 -7.45929,-1.62483 -2.58464,-2.21565 4.87405,-0.59019 7.31179,-1.6994 7.31179,-1.6994 -6.3528,0.8866 -10.56094,-0.29502 -10.56094,-0.29502 -2.80654,0.66593 -6.05627,4.94778 -7.08969,6.72161 -1.03412,1.77171 -2.36333,3.98814 -3.91515,4.06055 -1.55113,0.07379 -1.55113,-1.32854 -0.4419,-3.61796 1.1079,-2.28953 3.02784,-4.13575 3.54493,-2.95413 0.51492,1.18171 -1.4781,3.17473 -2.21643,3.84003 -0.739,0.66522 -1.18161,0.29572 -1.18161,0.29572 0,0 -1.18172,2.21571 0.44261,2.06752 1.62552,-0.1469 3.02783,-3.47114 5.53996,-6.64719 2.51074,-3.17534 5.09539,-4.13435 5.09539,-4.13435 -5.39048,-1.47802 -2.51155,-4.50516 -0.51712,-5.53997 1.99443,-1.03341 5.53867,-1.18162 5.53867,-1.18162 -4.20886,0.51703 -8.56722,2.65964 -7.6062,4.65338 0.9597,1.99381 7.45931,2.36333 12.48087,1.62361 5.02097,-0.7377 7.9764,-2.58394 7.9764,-2.58394 -0.96102,-1.54973 -5.98258,0.0745 -5.98258,0.0745 3.76755,-2.06893 6.42519,-0.51711 6.42519,-0.51711 C 39.208,13.35216 41.57132,10.61873 40.3903,8.2555 39.208,5.89355 36.10704,5.59785 36.10704,5.59785 c 0,0.36881 -1.55112,3.61865 -5.31796,4.35695 -3.76485,0.73832 -4.43146,-0.66389 -4.43146,-0.66389 -4.79955,1.92003 -7.01459,0.22059 -7.01459,0.22059 0,0 -3.54563,2.73285 -5.53936,4.43146 -1.99303,1.69874 -5.09536,3.83925 -7.38549,4.87337 -2.28955,1.03551 -5.31668,2.73344 -5.7606,3.25055 -0.44128,0.517 0.0737,0.88649 0.0737,0.88649 -1.25467,-0.0744 -0.51498,-1.4036 -0.51498,-1.4036 3.61663,-3.69305 8.04939,-3.17604 13.21716,-7.755 C 18.60393,9.2165 19.34303,9.2165 19.34303,9.2165 L 19.26784,8.84761 12.99225,10.61873 C 13.36105,9.14201 18.30891,6.26176 18.30891,6.26176 15.7974,7.29578 8.70831,11.50594 7.74799,11.94853 6.78767,12.39323 7.45227,11.28464 7.45227,11.28464 8.11748,7.8142 15.7974,4.48994 15.7974,4.48994 10.99782,5.81917 3.16902,11.72723 2.43132,11.87413 1.69301,12.02234 1.98741,11.21094 1.98741,11.21094 12.54823,-0.1628 21.63118,-0.45778 28.13216,0.20609 c 6.49757,0.66521 8.1232,3.76684 8.1232,3.76684 4.20806,1.03342 6.42378,3.39734 7.31039,4.57827 0.88652,1.1816 1.77243,2.95474 1.77243,2.95474 1.1078,0.07379 2.14192,1.92001 2.14192,1.92001 l 4.11045,0.73831 c -0.96032,0.51772 -3.00324,2.06824 -3.00324,2.06824"
               style="fill:#000000;fill-opacity:1;fill-rule:nonzero;stroke:#000000;stroke-width:0.3985;stroke-linecap:butt;stroke-linejoin:miter;stroke-miterlimit:10;stroke-dasharray:none;stroke-opacity:1"
               id="path34" /></g></g></g></g></g></svg>
