<?xml version="1.0" encoding="UTF-8" standalone="no"?>
<svg
   xmlns:dc="http://purl.org/dc/elements/1.1/"
   xmlns:cc="http://creativecommons.org/ns#"
   xmlns:rdf="http://www.w3.org/1999/02/22-rdf-syntax-ns#"
   xmlns:svg="http://www.w3.org/2000/svg"
   xmlns="http://www.w3.org/2000/svg"
   xmlns:sodipodi="http://sodipodi.sourceforge.net/DTD/sodipodi-0.dtd"
   xmlns:inkscape="http://www.inkscape.org/namespaces/inkscape"
   version="1.1"
   id="svg2"
   xml:space="preserve"
   width="137.40228"
   height="69.262619"
   viewBox="0 0 137.40228 69.262619"
   sodipodi:docname="vectorian015.pdf"><metadata
     id="metadata8"><rdf:RDF><cc:Work
         rdf:about=""><dc:format>image/svg+xml</dc:format><dc:type
           rdf:resource="http://purl.org/dc/dcmitype/StillImage" /></cc:Work></rdf:RDF></metadata><defs
     id="defs6" /><sodipodi:namedview
     pagecolor="#ffffff"
     bordercolor="#666666"
     borderopacity="1"
     objecttolerance="10"
     gridtolerance="10"
     guidetolerance="10"
     inkscape:pageopacity="0"
     inkscape:pageshadow="2"
     inkscape:window-width="640"
     inkscape:window-height="480"
     id="namedview4" /><g
     id="g10"
     inkscape:groupmode="layer"
     inkscape:label="vectorian015"
     transform="matrix(1.3333333,0,0,-1.3333333,-0.13658633,69.479872)"><g
       id="g12"
       transform="translate(72,-19.878)"><g
         id="g14"
         transform="translate(-71.694,20.243)"><g
           id="g16"><g
             id="g18"><path
               d="M 5.95326,7.8223 C 5.39326,7.96628 4.72125,8.0447 3.90685,7.95349 2.21082,7.76149 0.77238,6.68788 0.24118,5.22226 0.2284,5.18546 0.22198,5.14705 0.20918,5.11024 c 0,0.00321 0,0.00483 -0.00158,0.0064 C -0.306,3.94385 0.03798,0.9422 2.31482,0.43498 3.99803,0.06218 5.54366,0.7166 5.73087,2.0254 5.91806,3.33904 4.93245,4.53424 3.67163,4.45903 2.03162,4.36624 2.59482,3.33904 1.84442,3.24463 1.6268,3.21584 1.4316,3.28464 1.2604,3.39023 1.04118,3.83823 1.0236,4.29425 1.238,4.88144 1.66522,6.06386 2.84123,6.92787 4.23004,7.08627 5.46526,7.22388 6.24767,6.95987 6.72447,6.68147 7.00928,6.30708 7.31007,5.94226 7.63489,5.59346 10.2205,2.83981 13.97737,1.315 18.50223,1.1854 c 12.34256,-0.35201 18.76182,11.10253 23.7603,21.91549 1.20802,2.61603 2.54403,4.97766 3.89445,7.07689 -0.34402,-1.35043 -0.6224,-2.96484 -0.7088,-4.82888 -0.47201,-0.4416 -2.38245,-2.45121 -2.47525,-6.29447 -0.088,-3.53604 -0.0256,-8.1313 -0.0064,-9.40972 -1.38402,-0.2848 -2.42884,-1.51202 -2.42884,-2.98243 0,-1.67844 1.36481,-3.04164 3.04325,-3.04164 1.67842,0 3.04324,1.3632 3.04324,3.04164 0,1.61281 -1.26083,2.92323 -2.84643,3.02563 -0.02082,1.31041 -0.0784,5.85127 0.0064,9.34412 0.06081,2.51845 0.98242,4.18085 1.63841,5.05606 0.0032,-2.84644 0.46242,-6.18727 1.75844,-9.94891 C 50.01942,7.45747 56.90593,0.35979 67.73645,0.47499 69.15408,0.49098 70.5877,0.6606 72.00212,0.9502 l 0.0032,-0.0688 c 0.15041,0.0032 3.75204,0.144 9.18253,3.52645 l 2.60003,1.68003 C 87.65831,8.63829 90.45676,10.4815 95.0632,9.9151 97.29843,9.64151 98.88246,8.5423 99.52087,6.81906 100.10008,5.25746 99.79927,3.32782 98.80725,2.23662 97.83286,1.163 95.95442,0.7262 94.4376,1.2158 c -0.6592,0.2144 -1.79043,0.79201 -1.95362,2.25763 -0.01921,0.168 -0.01921,0.32 -0.0112,0.46561 0.248,1.36482 1.62083,2.10883 2.51522,1.71042 0.91363,-0.40482 1.32003,-0.3392 1.62403,-0.06722 0.304,0.27042 0.304,1.76003 -2.02883,1.65764 -2.33442,-0.1008 -3.00964,-2.47044 -3.00964,-2.47044 l 0.0192,-0.0656 c -0.11998,-0.3936 -0.17439,-0.83841 -0.11681,-1.3408 0.16483,-1.48642 1.12963,-2.61925 2.64966,-3.11205 1.90082,-0.61598 4.18564,-0.0688 5.43205,1.30241 1.25443,1.37763 1.62884,3.68964 0.91362,5.61928 -0.4496,1.21282 -1.73442,3.31365 -5.28488,3.75045 -4.60484,0.5648 -7.58888,-1.1328 -11.10094,-3.42885 0.1552,0.16481 0.31202,0.3264 0.45763,0.49121 0.90559,1.0432 1.66721,2.16324 2.28641,3.33925 5.73927,3.08642 10.09613,2.02562 11.81297,0.31039 0.8784,1.01602 1.82401,3.92485 -1.48804,5.41287 -3.89125,-0.216 -8.0305,-2.92964 -9.54252,-4.01605 0.1168,0.29921 0.2256,0.6032 0.32481,0.91042 3.12483,5.00166 9.02571,5.80806 11.11055,5.40486 0.2032,2.36803 -1.48804,4.05765 -2.70404,4.39687 -3.48805,-0.4032 -6.44328,-4.65606 -7.7169,-6.7809 0.0544,0.4064 0.09601,0.8176 0.1232,1.23202 0.0064,-0.01921 0.0096,-0.04639 0.016,-0.06561 2.29923,8.86093 7.6433,8.58893 7.6433,8.58893 0,0 -0.33759,2.70723 -3.17926,3.45124 -3.80484,-2.13124 -4.41284,-7.54251 -4.51044,-9.09931 -0.0256,0.2928 -0.056,0.58561 -0.0928,0.8832 -0.112,0.9632 -0.30881,1.90403 -0.57761,2.81763 0.45921,6.8881 2.61124,8.27371 2.61124,8.27371 0,0 -1.41924,2.02892 -2.63845,2.43534 -2.02401,-1.17282 -1.52801,-5.43859 -1.00481,-8.05141 -0.22239,0.4528 -0.4624,0.89761 -0.7232,1.32642 -0.49441,0.9728 -1.43202,2.64962 -2.82724,4.37444 -1.70723,2.12012 -2.48323,4.31858 -2.18242,6.18899 0.1984,1.23043 0.86879,2.26562 1.88321,2.92324 0.76001,0.4896 1.55042,0.70081 2.25443,0.61762 0.33442,-0.15842 0.68962,-0.50722 0.4192,-1.29123 -0.25279,-0.60962 -1.08479,-1.49442 -0.35519,-2.53763 0.7104,-1.01442 3.24644,-0.8096 3.34885,1.11681 0.08158,1.52962 -1.13442,2.74403 -2.25444,3.18085 -0.0624,0.03199 -0.11521,0.07519 -0.1808,0.10079 -1.09601,0.47681 -2.43363,0.2912 -3.67045,-0.50561 -1.21281,-0.78081 -2.00963,-2.01601 -2.24482,-3.47205 -0.32641,-2.02562 0.44641,-4.34724 2.15683,-6.56979 -0.3472,0.26883 -0.70083,0.52801 -1.07363,0.76481 -3.56964,2.27375 -7.14088,3.35535 -11.80815,1.52973 -2.07361,-0.8128 -4.32324,-2.72174 -6.02248,-4.06575 -2.32162,-1.83522 -6.83047,-4.52644 -9.60331,-2.15683 -1.74564,1.48962 -1.55683,5.40978 1.76961,5.32338 0.47042,-0.0128 0.85441,-0.2016 1.14564,-0.52 0.23358,-0.29133 0.424,-0.69614 0.33119,-1.21932 -0.20161,-1.14882 -0.23041,-1.76483 0.4736,-1.82722 0.56481,-0.04961 0.93761,0.44641 1.04001,1.13121 0.0096,0.0096 0.0064,0.016 0.0064,0.024 0.09759,0.7104 -0.09441,1.6128 -0.6736,2.32812 -0.2576,0.31841 -0.48801,0.49602 -0.69281,0.5824 -0.48162,0.3024 -1.03681,0.43842 -1.57442,0.46723 -3.55846,0.18719 -4.92166,-4.58097 -2.63524,-6.9058 1.07842,-1.09761 2.77284,-1.52803 5.03687,-1.27522 0.46559,0.05121 0.91841,0.17281 1.3648,0.33281 0.0064,-0.6512 0.04963,-1.30083 0.14722,-1.93762 -0.77763,-0.57442 -4.59528,-3.04164 -8.0401,1.12642 -1.08162,-0.33602 -3.38084,-1.68964 -3.38084,-1.68964 0,0 0.608,-3.31525 3.99043,-3.78725 3.30246,-0.4624 6.60008,2.16643 7.63531,3.36005 0.1872,-0.7696 0.456,-1.50401 0.80962,-2.19522 -0.67041,-1.21602 -2.71684,-3.91205 -7.83531,-4.27687 -1.48963,-2.30081 -2.09763,-4.39685 -2.09763,-4.39685 0,0 6.50569,-2.11843 10.46414,7.7745 0.39521,-0.584 0.85601,-1.1248 1.41122,-1.59842 -0.28002,-1.27682 -1.30242,-4.76646 -4.63847,-8.47691 -0.06719,-4.53126 1.35361,-6.15367 1.35361,-6.15367 0,0 2.43524,0.8096 4.19366,3.64964 -0.25439,4.05603 -0.6064,7.9169 0.51841,10.39214 0.64801,0.14879 1.26561,0.38721 1.84323,0.67518 -0.3392,-2.19841 -1.47841,-12.19053 5.62086,-13.63536 0.94564,3.17925 0.74242,5.88489 0.74242,5.88489 0,0 -4.84967,1.45601 -5.31528,8.35529 0.49921,0.3296 0.94883,0.68162 1.33764,1.03361 0.7536,-1.71361 4.44966,-9.12651 11.28332,-7.08809 -0.67519,2.50086 -1.8928,3.98885 -1.8928,3.98885 0,0 -6.0529,-1.17281 -8.68333,3.80005 0.3312,0.36322 0.57282,0.68964 0.71201,0.94243 0.99362,-0.77282 2.23364,-1.21761 3.58885,-1.25923 0.93921,-0.0288 1.67203,0.1696 2.25124,0.45921 0.0016,0 0.0016,0 0.0032,0 0.26722,0.1344 0.5056,0.28 0.70402,0.44 1.63521,1.19362 2.33602,3.10884 1.57601,4.98726 -0.86242,2.12964 -4.05924,1.92645 -4.66726,0 -0.608,-1.92801 0.8624,-2.74081 2.03042,-2.79042 1.01603,-0.04641 0.91522,-0.66561 0.87202,-0.82562 -0.52481,-0.85601 -1.83842,-1.28801 -2.85124,-1.256 -1.38881,0.0448 -2.69763,0.7184 -3.55205,1.6752 -0.9296,1.04161 -1.15521,2.56964 -1.01761,4.26247 0.3344,4.07525 5.03366,5.53457 6.57929,5.90097 2.32324,-0.25281 4.09445,-1.22573 5.49287,-2.11691 3.54083,-2.25763 5.97447,-6.2977 6.50567,-10.81295 C 88.04872,16.86241 86.7383,12.36316 83.62466,8.7887 79.92381,4.54063 73.68213,1.75502 67.72208,1.691 57.49472,1.58382 50.98424,8.29749 48.31702,14.57277 c -4.10407,11.92335 0.6976,19.58755 0.74719,19.66276 1.70883,2.30083 3.32805,4.07845 4.55366,5.32166 0.71361,0.52161 1.30082,0.99681 1.73283,1.36963 0,-1.49122 1.89442,-3.11365 3.34565,-3.12964 1.4928,4.82565 4.94725,8.96809 9.88812,10.45934 7.48331,2.264 17.42583,-0.73122 22.69469,-4.91848 6.42889,-5.49287 8.78892,-10.72184 9.65132,-14.06268 0.26241,-1.23361 0.44002,-2.48642 0.48482,-3.76006 l 1.2144,-0.0352 c 0.005,0.04642 0.0192,0.22083 0.0192,0.51203 0,0.7024 -0.0944,2.09922 -0.60641,3.95843 C 99.60246,40.4228 89.66953,49.44212 77.67259,51.20854 73.92854,51.75735 70.12048,51.62135 66.41484,50.90775 60.42276,49.75572 54.7859,47.32849 49.52022,44.29005 44.44495,41.36041 39.8737,37.83557 33.73763,37.68677 30.80157,37.61478 25.83672,38.258 23.8287,40.78922 c 0.0016,0 1.60322,-2.01925 1.60322,-2.01925 8.25611,-6.97778 16.92822,-5.24975 22.95869,-2.35203 C 46.74579,34.28192 44.21295,30.39537 41.09932,23.66249 35.10243,10.68633 28.78716,2.307 18.35182,2.60463 14.09895,2.72461 10.73093,4.08145 8.3389,6.63187 6.09087,9.02551 5.00444,12.31836 5.12605,15.77438 c 0.1984,5.62567 4.56006,9.95855 9.93293,9.86412 2.56643,-0.04638 4.99206,-1.29919 6.65608,-3.44003 1.66243,-2.14082 2.28003,-4.79045 1.69124,-7.27688 -0.53281,-2.25284 -1.86084,-3.94887 -3.74086,-4.77769 -1.77922,-0.78399 -3.89446,-0.7088 -5.51687,0.19842 -2.30244,1.2864 -3.12324,4.26884 -2.57923,6.26568 0.128,0.4736 0.5168,1.43042 1.2928,2.07843 0.37761,0.19679 1.25923,0.5744 1.49603,-0.1008 0.25922,-0.72961 -1.12161,-0.82242 -0.76001,-2.63685 0.4064,-2.03041 3.75524,-2.28481 4.51526,-0.45758 0.95361,2.28802 -0.96323,4.72006 -3.65123,4.72006 C 14.00935,20.16005 13.66537,20.06244 13.39656,19.96004 12.03334,19.52484 10.98853,18.3872 10.54852,16.76 9.8829,14.31837 10.90692,10.88954 13.75017,9.3007 15.699,8.2159 18.03342,8.09428 20.15665,9.02869 c 2.23521,0.98881 3.81283,2.97926 4.43365,5.6129 0.5712,2.42082 0,5.10725 -1.34402,7.35368 0.09759,-0.12 0.1968,-0.24001 0.29602,-0.36641 2.79042,-3.49925 7.88649,-4.67526 9.74092,-1.2672 1.87523,3.44804 -1.67523,6.29128 -5.78407,6.39206 5.83528,-2.43521 3.55205,-5.98726 1.7248,-6.44168 -1.82722,-0.45759 -3.65283,0.50562 -7.00168,3.60166 -3.34724,3.09443 -7.50729,2.68802 -7.50729,2.68802 C 8.7645,26.58093 4.23004,21.72168 4.01083,15.4912 3.91322,12.70395 4.59645,10.07031 5.95326,7.8223 Z m 24.84992,28.98925 c 4.23367,-0.65759 9.03053,0.35041 13.49617,3.01604 5.07046,3.02565 14.485,8.61612 25.00352,9.82573 -0.35361,-0.08319 -0.72481,-0.12482 -1.0704,-0.23039 -4.91048,-1.48163 -8.43532,-4.96807 -10.27375,-10.06894 -1.54562,0.89921 -1.59361,3.02882 -1.59361,3.12964 l -0.008,1.45121 -1.03043,-1.02081 C 54.77948,42.36682 43.09615,31.10098 30.80318,36.81155 Z m 40.82934,-2.32002 c -1.85284,-0.97131 -3.76486,-2.66253 -4.00326,-5.55697 -0.1664,-2.02082 0.3536,-3.77445 1.49603,-5.06886 -0.55843,-1.07203 -2.30725,-3.23045 -5.09128,-3.55845 -2.62405,1.15361 -3.20645,4.63207 -3.10724,7.62731 1.18721,0.6416 2.34084,1.544 3.53286,2.48802 1.62881,1.28802 3.83364,2.93122 5.70407,3.67054 0.5104,0.16961 0.9936,0.29441 1.46882,0.39841 z M 43.58095,8.8959 c 1.23042,0 2.23201,-1.00161 2.23201,-2.23362 0,-1.23044 -1.00159,-2.23044 -2.23201,-2.23044 -1.23201,0 -2.23203,1 -2.23203,2.23044 0,1.23201 1.00002,2.23362 2.23203,2.23362 z"
               style="fill:#000000;fill-opacity:1;fill-rule:nonzero;stroke:#000000;stroke-width:0.3985;stroke-linecap:butt;stroke-linejoin:miter;stroke-miterlimit:10;stroke-dasharray:none;stroke-opacity:1"
               id="path20" /></g></g></g></g></g></svg>
