<?xml version="1.0" encoding="UTF-8" standalone="no"?>
<svg
   xmlns:dc="http://purl.org/dc/elements/1.1/"
   xmlns:cc="http://creativecommons.org/ns#"
   xmlns:rdf="http://www.w3.org/1999/02/22-rdf-syntax-ns#"
   xmlns:svg="http://www.w3.org/2000/svg"
   xmlns="http://www.w3.org/2000/svg"
   xmlns:sodipodi="http://sodipodi.sourceforge.net/DTD/sodipodi-0.dtd"
   xmlns:inkscape="http://www.inkscape.org/namespaces/inkscape"
   version="1.1"
   id="svg2"
   xml:space="preserve"
   width="39.836327"
   height="59.219391"
   viewBox="0 0 39.836327 59.219391"
   sodipodi:docname="vectorian173.pdf"><metadata
     id="metadata8"><rdf:RDF><cc:Work
         rdf:about=""><dc:format>image/svg+xml</dc:format><dc:type
           rdf:resource="http://purl.org/dc/dcmitype/StillImage" /></cc:Work></rdf:RDF></metadata><defs
     id="defs6" /><sodipodi:namedview
     pagecolor="#ffffff"
     bordercolor="#666666"
     borderopacity="1"
     objecttolerance="10"
     gridtolerance="10"
     guidetolerance="10"
     inkscape:pageopacity="0"
     inkscape:pageshadow="2"
     inkscape:window-width="640"
     inkscape:window-height="480"
     id="namedview4" /><g
     id="g10"
     inkscape:groupmode="layer"
     inkscape:label="vectorian173"
     transform="matrix(1.3333333,0,0,-1.3333333,-0.69841746,60.947571)"><g
       id="g12"
       transform="translate(72,-25.756)"><g
         id="g14"
         transform="translate(-71.271,27.25)"><g
           id="g16"><g
             id="g18"><path
               d="m 3.38564,36.71936 c 0,0 2.76972,-1.89542 2.18643,-7.19022 C 4.99005,24.233 3.38564,21.02615 3.38564,21.02615 c 0,0 2.0901,2.38035 2.91583,8.01671 0.8258,5.63696 -2.47794,7.3848 -2.91583,7.6765"
               style="fill:#000000;fill-opacity:1;fill-rule:nonzero;stroke:#000000;stroke-width:0.3985;stroke-linecap:butt;stroke-linejoin:miter;stroke-miterlimit:10;stroke-dasharray:none;stroke-opacity:1"
               id="path20" /><path
               d="m 2.90001,35.65034 c 0,0 0.29172,-1.31201 -0.77719,-1.45751 -1.06903,-0.1462 -2.42882,1.35992 -1.06903,3.20744 1.35992,1.84552 3.83865,0.388 5.53869,-2.86734 C 8.2932,31.27768 7.6621,24.81561 6.25237,20.34654 4.84325,15.87619 3.43483,14.46716 1.73412,15.39128 0.03268,16.3133 0.9568,19.03383 2.31671,19.61642 c 1.36063,0.58402 1.96712,-0.48019 1.87282,-1.35171 -0.09419,-0.87149 -0.8011,-1.2963 -1.3441,-0.6366 -0.54172,0.65912 0.2363,1.98084 0.2363,1.98084 0,0 -1.15502,-0.84902 -0.63662,-2.16865 0.51842,-1.3209 1.98014,-0.7069 2.12154,0.77802 0.14139,1.48351 -1.27252,2.63983 -2.85165,1.41312 -1.57982,-1.22531 -1.67342,-3.84126 -0.0239,-4.59605 1.65013,-0.75402 3.25255,0.33059 4.76135,3.25254 0,0 2.56676,4.88434 2.37006,10.39974 C 8.6258,34.20103 5.17865,38.77998 2.42192,38.58188 -0.3347,38.3852 -0.7288,34.44693 1.1911,33.61021 c 1.92003,-0.8374 2.82703,1.37214 1.70891,2.04013"
               style="fill:#000000;fill-opacity:1;fill-rule:nonzero;stroke:#000000;stroke-width:0.3985;stroke-linecap:butt;stroke-linejoin:miter;stroke-miterlimit:10;stroke-dasharray:none;stroke-opacity:1"
               id="path22" /><path
               d="m 5.27766,40.35501 c 0,0 6.64647,-3.64384 13.88378,2.26422 0,0 -5.80977,-7.82809 -13.88378,-2.26422"
               style="fill:#000000;fill-opacity:1;fill-rule:nonzero;stroke:#000000;stroke-width:0.3985;stroke-linecap:butt;stroke-linejoin:miter;stroke-miterlimit:10;stroke-dasharray:none;stroke-opacity:1"
               id="path24" /><path
               d="m 21.67288,43.30846 c 0,0 -3.44716,-6.20259 -10.63466,-6.3508 -7.18878,-0.14751 -9.2064,4.28396 -8.12379,5.71147 1.0832,1.42753 3.24913,0.7875 3.64255,-0.4426 0.3941,-1.23083 -1.62424,-2.01903 -2.46096,-0.44261 0,0 0.34423,-1.28131 1.67342,-1.1338 0,0 1.42813,0.04989 1.18164,1.57641 -0.24593,1.52652 -2.75604,2.16582 -4.03665,0.83672 -1.28003,-1.32984 -0.59082,-4.67668 4.87396,-6.4 5.46488,-1.72392 11.86556,0.8367 13.88449,6.64521"
               style="fill:#000000;fill-opacity:1;fill-rule:nonzero;stroke:#000000;stroke-width:0.3985;stroke-linecap:butt;stroke-linejoin:miter;stroke-miterlimit:10;stroke-dasharray:none;stroke-opacity:1"
               id="path26" /><path
               d="m 28.91025,35.97275 c 0,0 -0.73909,-4.72647 -8.7646,-12.11066 C 12.12083,16.47589 5.81926,14.94998 3.65273,8.2537 c 0,0 -1.03411,-3.15084 0.83741,-5.75999 1.87014,-2.6098 5.80908,-2.46223 7.2858,-0.099 1.47733,2.36324 -0.541,4.72716 -1.62424,4.67737 0,0 -1.77241,0.099 -1.9692,-1.67482 -0.1973,-1.77102 0.83671,-2.65764 0.83671,-2.65764 0,0 -3.79077,1.23081 -1.08322,6.69568 2.70743,5.46486 9.15721,8.86222 13.78609,12.75138 4.62744,3.89044 8.17239,8.96121 7.18817,13.78607 M 26.79213,35.77536 C 24.38039,30.65607 20.68796,27.79973 11.57924,20.95656 2.47112,14.11267 0.4521,10.3717 0.8954,5.35014 1.3387,0.32718 6.80348,0.42558 6.80348,0.42558 3.01273,1.85371 2.56941,5.54544 3.35703,8.89369 c 0.7882,3.34815 4.48056,7.5822 10.73364,12.06287 6.25238,4.47996 9.15732,6.49827 12.40645,10.97954 3.24975,4.47996 2.46164,8.36981 1.23141,10.14152 -1.23141,1.77243 -4.48125,2.41243 -5.31726,0.19742 -0.83742,-2.21643 1.27933,-3.74167 2.60913,-2.31344 1.32912,1.42751 -0.4426,2.75604 -0.4426,2.75604 4.28325,-1.77312 2.21433,-6.94228 2.21433,-6.94228 m -1.03952,5.83917 c 0,0 0.54912,-1.81204 -1.15641,-2.74095 -1.70542,-0.92821 -3.51754,0.54842 -3.06054,2.75534 0.45619,2.20813 3.16644,3.12203 5.34396,1.72113 0,0 3.06404,-1.91173 2.22794,-6.88409 0,0 2.11673,-3.44655 -3.84056,-11.96526 0,0 -3.15152,-3.98744 -9.4045,-8.4182 C 9.61,11.65103 5.81926,6.87468 7.73857,4.56195 c 0,0 -0.44258,1.96982 1.32983,2.80583 1.77242,0.8374 4.03736,-1.42892 3.39734,-4.08655 -0.64,-2.65763 -4.77566,-4.77494 -9.79792,-1.92063 0,0 -3.10161,2.41313 -1.92003,7.9757 1.18173,5.56386 10.78293,12.06285 14.17959,14.57361 3.39734,2.51152 16.0886,11.53014 10.82523,17.70462"
               style="fill:#000000;fill-opacity:1;fill-rule:nonzero;stroke:#000000;stroke-width:0.3985;stroke-linecap:butt;stroke-linejoin:miter;stroke-miterlimit:10;stroke-dasharray:none;stroke-opacity:1"
               id="path28" /><path
               d="m 8.97011,36.71117 c 0,0 3.84054,-5.02169 0.8865,-16.73952 0,0 4.52986,8.7624 -0.8865,16.73952"
               style="fill:#000000;fill-opacity:1;fill-rule:nonzero;stroke:#000000;stroke-width:0.3985;stroke-linecap:butt;stroke-linejoin:miter;stroke-miterlimit:10;stroke-dasharray:none;stroke-opacity:1"
               id="path30" /><path
               d="m 12.12154,36.66266 c 0,0 2.75732,-4.33246 0.98422,-14.32781 0,0 3.19994,8.56713 -0.98422,14.32781"
               style="fill:#000000;fill-opacity:1;fill-rule:nonzero;stroke:#000000;stroke-width:0.3985;stroke-linecap:butt;stroke-linejoin:miter;stroke-miterlimit:10;stroke-dasharray:none;stroke-opacity:1"
               id="path32" /><path
               d="m 14.28737,37.05676 c 0,0 3.00325,-4.77577 1.32921,-12.80126 0,0 2.95404,6.64648 -1.32921,12.80126"
               style="fill:#000000;fill-opacity:1;fill-rule:nonzero;stroke:#000000;stroke-width:0.3985;stroke-linecap:butt;stroke-linejoin:miter;stroke-miterlimit:10;stroke-dasharray:none;stroke-opacity:1"
               id="path34" /><path
               d="m 16.553,37.89348 c 0,0 2.75733,-4.67807 1.52581,-11.71726 0,0 2.46164,6.20318 -1.52581,11.71726"
               style="fill:#000000;fill-opacity:1;fill-rule:nonzero;stroke:#000000;stroke-width:0.3985;stroke-linecap:butt;stroke-linejoin:miter;stroke-miterlimit:10;stroke-dasharray:none;stroke-opacity:1"
               id="path36" /><path
               d="m 18.52141,38.92749 c 0,0 2.31415,-2.65832 1.82164,-10.97884 0,0 1.87082,6.89368 -1.82164,10.97884"
               style="fill:#000000;fill-opacity:1;fill-rule:nonzero;stroke:#000000;stroke-width:0.3985;stroke-linecap:butt;stroke-linejoin:miter;stroke-miterlimit:10;stroke-dasharray:none;stroke-opacity:1"
               id="path38" /><path
               d="m 20.68796,40.79832 c 0,0 1.82161,-5.16908 1.96991,-10.33953 0,0 1.37834,3.69303 -1.96991,10.33953"
               style="fill:#000000;fill-opacity:1;fill-rule:nonzero;stroke:#000000;stroke-width:0.3985;stroke-linecap:butt;stroke-linejoin:miter;stroke-miterlimit:10;stroke-dasharray:none;stroke-opacity:1"
               id="path40" /><path
               d="m 23.44537,38.82779 c 0,0 1.03342,-2.26355 1.08324,-6.15399 0,0 1.18102,3.05374 -1.08324,6.15399"
               style="fill:#000000;fill-opacity:1;fill-rule:nonzero;stroke:#000000;stroke-width:0.3985;stroke-linecap:butt;stroke-linejoin:miter;stroke-miterlimit:10;stroke-dasharray:none;stroke-opacity:1"
               id="path42" /></g></g></g></g></g></svg>
