<?xml version="1.0" encoding="UTF-8" standalone="no"?>
<svg
   xmlns:dc="http://purl.org/dc/elements/1.1/"
   xmlns:cc="http://creativecommons.org/ns#"
   xmlns:rdf="http://www.w3.org/1999/02/22-rdf-syntax-ns#"
   xmlns:svg="http://www.w3.org/2000/svg"
   xmlns="http://www.w3.org/2000/svg"
   xmlns:sodipodi="http://sodipodi.sourceforge.net/DTD/sodipodi-0.dtd"
   xmlns:inkscape="http://www.inkscape.org/namespaces/inkscape"
   version="1.1"
   id="svg2"
   xml:space="preserve"
   width="19.993187"
   height="19.452879"
   viewBox="0 0 19.993187 19.452879"
   sodipodi:docname="vectorian133.pdf"><metadata
     id="metadata8"><rdf:RDF><cc:Work
         rdf:about=""><dc:format>image/svg+xml</dc:format><dc:type
           rdf:resource="http://purl.org/dc/dcmitype/StillImage" /></cc:Work></rdf:RDF></metadata><defs
     id="defs6"><clipPath
       clipPathUnits="userSpaceOnUse"
       id="clipPath24"><path
         d="M 0,0 H 14.99489 V 14.58966 H 0 Z"
         id="path22" /></clipPath></defs><sodipodi:namedview
     pagecolor="#ffffff"
     bordercolor="#666666"
     borderopacity="1"
     objecttolerance="10"
     gridtolerance="10"
     guidetolerance="10"
     inkscape:pageopacity="0"
     inkscape:pageshadow="2"
     inkscape:window-width="640"
     inkscape:window-height="480"
     id="namedview4" /><g
     id="g10"
     inkscape:groupmode="layer"
     inkscape:label="vectorian133"
     transform="matrix(1.3333333,0,0,-1.3333333,0,19.45288)"><g
       id="g12"
       transform="translate(72,-57.411)"><g
         id="g14"
         transform="translate(-72,57.411)"><g
           id="g16"><g
             id="g18"><g
               id="g20"
               clip-path="url(#clipPath24)"><path
                 d="m 7.49838,14.58966 h 1.26561 c 1.32923,-1.3318 3.69176,0.2937 5.46488,-1.91922 1.25471,-1.57101 0.5901,-3.40144 0.5901,-3.40144 -0.7383,4.58307 -5.76056,4.28936 -5.76056,4.28936 8.27139,-3.69516 3.84064,-7.9777 3.84064,-7.9777 1.47803,1.62562 0.77452,3.73614 -0.4433,4.72647 C 10.09322,12.22644 8.3207,13.70177 8.3207,13.70177 8.91089,10.60081 11.42162,10.45062 12.30824,7.9439 13.42906,4.76785 10.38751,1.4415 10.38751,1.4415 12.60326,5.13664 11.86563,7.34967 10.53583,8.9753 9.2066,10.60081 8.17249,12.96416 8.17249,12.96416 8.3207,10.60081 9.05841,10.15692 9.7967,6.02457 10.53583,1.88551 7.72987,-0.03378 7.72987,-0.03378 c 0,0 1.18102,1.03138 1.18102,4.57623 0,3.54485 -1.26572,5.46417 -1.41251,7.39029 C 7.35017,10.00662 6.08386,8.0873 6.08386,4.54245 c 0,-3.54485 1.18091,-4.57623 1.18091,-4.57623 0,0 -2.80585,1.91929 -2.06682,6.05835 0.7377,4.13235 1.47603,4.57624 1.62422,6.93959 0,0 -1.03482,-2.36335 -2.36325,-3.98886 C 3.12973,7.34967 2.39001,5.13664 4.60715,1.4415 c 0,0 -3.04155,3.32635 -1.92063,6.5024 0.88581,2.50672 3.39734,2.65691 3.98746,5.75787 0,0 -1.77243,-1.47533 -4.13567,-3.39464 C 1.3198,9.3168 0.619,7.20628 2.09572,5.58066 c 0,0 -4.43143,4.28254 3.83993,7.9777 0,0 -5.02165,0.29371 -5.76065,-4.28936 0,0 -0.66319,1.83043 0.5922,3.40144 1.77111,2.21292 4.13435,0.58742 5.46486,1.91922 z"
                 style="fill:#000000;fill-opacity:1;fill-rule:nonzero;stroke:#000000;stroke-width:0.3985;stroke-linecap:butt;stroke-linejoin:miter;stroke-miterlimit:10;stroke-dasharray:none;stroke-opacity:1"
                 id="path26" /></g></g></g></g></g></g></svg>
