<?xml version="1.0" encoding="UTF-8" standalone="no"?>
<svg
   xmlns:dc="http://purl.org/dc/elements/1.1/"
   xmlns:cc="http://creativecommons.org/ns#"
   xmlns:rdf="http://www.w3.org/1999/02/22-rdf-syntax-ns#"
   xmlns:svg="http://www.w3.org/2000/svg"
   xmlns="http://www.w3.org/2000/svg"
   xmlns:sodipodi="http://sodipodi.sourceforge.net/DTD/sodipodi-0.dtd"
   xmlns:inkscape="http://www.inkscape.org/namespaces/inkscape"
   version="1.1"
   id="svg2"
   xml:space="preserve"
   width="280.39999"
   height="178.56"
   viewBox="0 0 280.39999 178.56"
   sodipodi:docname="vectorian078.pdf"><metadata
     id="metadata8"><rdf:RDF><cc:Work
         rdf:about=""><dc:format>image/svg+xml</dc:format><dc:type
           rdf:resource="http://purl.org/dc/dcmitype/StillImage" /></cc:Work></rdf:RDF></metadata><defs
     id="defs6" /><sodipodi:namedview
     pagecolor="#ffffff"
     bordercolor="#666666"
     borderopacity="1"
     objecttolerance="10"
     gridtolerance="10"
     guidetolerance="10"
     inkscape:pageopacity="0"
     inkscape:pageshadow="2"
     inkscape:window-width="640"
     inkscape:window-height="480"
     id="namedview4" /><g
     id="g10"
     inkscape:groupmode="layer"
     inkscape:label="vectorian078"
     transform="matrix(1.3333333,0,0,-1.3333333,0,178.56)"><g
       id="g12"
       transform="translate(72,61.92)"><g
         id="g14"
         transform="translate(-72,-60.48)"><g
           id="g16"><g
             id="g18"><path
               d="m 142.51543,92.30518 c -0.006,-6.01608 2.89283,-5.05607 2.89283,-5.05607 -0.86561,0.43199 -1.33761,3.08803 -1.57762,5.12006 2.32804,0.43201 4.08965,2.48004 4.08965,4.92807 0,2.78403 -2.24964,5.02408 -5.02407,5.02408 -2.77923,0 -5.02886,-2.24005 -5.02886,-5.02408 0,-2.64003 2.05282,-4.78407 4.64807,-4.99206 z"
               style="fill:#000000;fill-opacity:1;fill-rule:nonzero;stroke:#000000;stroke-width:0.3985;stroke-linecap:butt;stroke-linejoin:miter;stroke-miterlimit:10;stroke-dasharray:none;stroke-opacity:1"
               id="path20" /><path
               d="m 9.3345,108.06537 c 0,2.57603 -2.08963,4.67206 -4.66885,4.67206 C 2.0912,112.73743 0,110.6414 0,108.06537 c 0,-2.57602 2.0912,-4.65605 4.66565,-4.65605 2.57922,0 4.66885,2.08003 4.66885,4.65605 z"
               style="fill:#000000;fill-opacity:1;fill-rule:nonzero;stroke:#000000;stroke-width:0.3985;stroke-linecap:butt;stroke-linejoin:miter;stroke-miterlimit:10;stroke-dasharray:none;stroke-opacity:1"
               id="path22" /><path
               d="m 199.44415,23.16827 c -6.46248,1.61603 -16.15699,15.61621 -16.15699,15.61621 0,0 2.69442,5.92008 5.92486,6.4641 3.23206,0.52799 6.45928,-2.16003 6.45928,-2.16003 0,11.31213 7.54089,14.00016 7.54089,14.00016 l -2.15361,3.77605 c -3.23044,5.37608 2.69442,13.45618 2.69442,13.45618 -5.92486,0 -5.38726,5.39209 -5.38726,8.62411 0,3.23205 3.23044,10.22412 3.23044,10.22412 -8.61451,-5.37605 -9.1521,7.53612 -8.0785,11.31217 1.07842,3.77603 0.5376,4.30405 0.5376,4.30405 -2.15202,-3.23205 -7.5377,-10.76813 -7.5377,-10.76813 -1.6144,-3.76006 -5.38724,-0.54402 -5.38724,-0.54402 2.15682,-19.37626 -7.53772,-14.00017 -7.53772,-14.00017 5.92328,-22.08029 -5.38406,-21.00827 -5.38406,-21.00827 10.76974,-6.9921 11.30734,-20.44827 11.30734,-20.44827 -10.23213,2.14402 -26.92674,22.60827 -29.08197,31.2324 -1.69123,6.75207 0.9248,10.86414 2.13121,12.30417 0.91521,-0.94401 2.19365,-1.53603 3.61606,-1.53603 2.77443,0 5.02406,2.25603 5.02406,5.02405 0,2.76804 -2.24963,5.02408 -5.02406,5.02408 -2.77924,0 -5.02886,-2.25604 -5.02886,-5.02408 0,-0.59201 0.1184,-1.136 0.30559,-1.664 -3.80806,-2.80003 -4.79365,-7.66409 -4.79365,-7.66409 -1.94403,4.27203 -5.56487,6.57607 -7.43052,7.53608 0.0272,0.24001 0.072,0.46402 0.072,0.72002 0,3.16803 -2.57283,5.74407 -5.74409,5.74407 -3.17283,0 -5.74407,-2.57604 -5.74407,-5.74407 0,-3.16804 2.57124,-5.74408 5.74407,-5.74408 2.21604,0 4.11527,1.26402 5.07526,3.10404 4.36487,-1.71202 8.02732,-9.93613 8.02732,-9.93613 1.07841,-11.29616 16.69461,-25.84035 16.69461,-25.84035 -5.38407,4.30406 -15.0786,2.68805 -35.54445,21.53629 -20.46266,18.84825 -7.00009,28.54437 -7.00009,28.54437 -14.00339,2.16003 -14.54099,19.39226 -14.54099,19.39226 -12.38736,-5.92008 -21.00348,9.69612 -21.00348,9.69612 -5.92488,-13.47217 -23.6963,3.23202 -23.6963,3.23202 10.23373,-11.31213 2.69282,-23.6963 2.69282,-23.6963 -3.23042,1.61603 -11.84974,2.68805 -18.31222,2.68805 -6.46248,0 -15.61621,-1.44003 -25.84674,2.86403 -14.45619,6.09608 -10.77294,8.97612 -10.77294,8.97612 3.22885,-1.07202 5.92168,2.16003 4.30725,5.93608 -1.61601,3.76004 -8.61608,3.23202 -8.61608,-3.23204 0,-6.46408 2.69281,-11.31217 17.7714,-15.61621 15.0786,-4.32006 36.08207,0 47.39421,-7.55208 11.30736,-7.53612 4.84807,-14.00018 4.84807,-14.00018 17.23061,1.08799 22.07711,-12.92818 22.07711,-12.92818 6.46404,8.08011 14.00335,7.00809 22.61947,-1.07202 8.61933,-8.0801 19.38745,-15.6162 19.38745,-15.6162 0,0 -7.00009,0 -9.69293,0 -2.69122,0 -7.00008,2.68804 -21.54108,3.23204 -14.54098,0.52802 -24.77472,-7.5361 -24.77472,-7.5361 0,0 -1.04801,0.336 -3.10723,0.48002 -4.58086,8.9921 2.57283,15.48818 2.57283,15.48818 -12.20975,1.07204 -13.64818,18.32024 -13.64818,18.32024 0,0 -3.58725,-7.18408 -11.12813,-1.44001 -7.5377,5.74407 -8.97452,14.72019 -8.97452,14.72019 -5.74409,-9.69612 -16.87542,0 -17.95384,1.072 -1.07842,1.08803 -1.79361,0.72002 -1.79361,0.72002 C 39.8533,87.60112 28.72195,83.29706 28.72195,83.29706 47.751,74.32094 37.33807,62.8328 37.33807,62.8328 54.21669,64.91283 55.7111,54.76869 55.7143,51.15265 c -0.0224,0 -0.0448,0.01601 -0.0672,0.01601 -4.30886,0.52798 -4.30886,-0.54403 -8.6145,-2.68806 -4.31046,-2.16001 -4.31046,-4.84805 -11.31055,-6.46407 -7.0001,-1.63203 -5.38408,-4.32006 -10.23055,-8.0801 -4.31843,-3.36004 -8.20009,-2.44803 -8.9969,-2.20803 0,0.08 0.0224,0.14399 0.0224,0.224 0,2.78402 -2.25124,5.02407 -5.02886,5.02407 -2.77446,0 -5.02566,-2.24005 -5.02566,-5.02407 0,-2.76803 2.2512,-5.02409 5.02566,-5.02409 2.01601,0 3.74085,1.20005 4.54406,2.91205 3.97444,-0.47999 8.38089,0.32003 8.38089,0.32003 l -0.5376,-1.61603 c -4.76166,-3.02405 -6.73769,-7.10408 -7.33129,-8.57611 -0.84002,0.52801 -1.83042,0.86399 -2.90245,0.86399 -2.97284,0 -5.38568,-2.41603 -5.38568,-5.39205 0,-2.97603 2.41284,-5.39206 5.38568,-5.39206 2.97445,0 5.38727,2.41603 5.38727,5.39206 0,1.34401 -0.51039,2.54401 -1.31522,3.48803 l 0.2368,-0.07998 c 1.07523,3.23204 7.5409,7.00808 10.23215,10.24011 2.69283,3.23205 3.23045,8.08012 10.23374,10.76815 7.00007,2.68804 15.07858,9.15212 15.07858,9.15212 0,0 8.61612,-1.07202 12.38738,-1.07202 3.76963,0 11.30893,5.39207 11.30893,5.39207 l 1.34721,-0.32 C 78.0698,50.76865 75.62656,48.5126 68.93207,45.95258 61.39438,43.08855 56.0103,45.60057 56.0103,45.60057 c 0,0 2.51205,-6.46407 -3.59044,-10.04813 C 46.31738,31.9524 42.00693,34.46443 42.00693,34.46443 44.16055,22.62428 33.0292,17.95221 33.0292,17.95221 c 0,0 7.5409,-2.51202 5.38729,-7.53611 C 36.26285,5.39206 28.36356,2.16 26.56992,2.16 24.7731,2.16 24.41309,1.072 24.41309,1.072 33.7476,-1.44 47.39099,4.67204 48.82942,4.67204 50.26303,4.67204 53.49507,0 53.49507,0 59.95755,14.36818 70.7289,10.76813 70.7289,10.76813 c -5.02727,12.20814 7.90089,15.44018 7.90089,15.44018 -5.02885,3.60005 -4.31044,14.7202 -1.43841,19.02426 2.01922,3.04004 2.97282,5.88807 3.36004,7.31211 l 1.35362,-0.30402 C 83.92587,44.78456 79.345,38.78448 79.345,38.78448 88.32271,34.46443 82.21706,23.69629 82.21706,23.69629 95.1452,17.60022 92.62997,3.95204 92.62997,3.95204 c 5.7441,6.46406 12.56817,3.58405 20.10587,1.44002 7.54089,-2.16003 12.20976,-2.51204 12.20976,-2.51204 l 0.71521,1.07202 c -3.59045,1.07201 -9.69293,5.02405 -9.69293,5.02405 -10.05292,7.53609 1.43683,16.16021 1.43683,16.16021 C 98.73247,30.52838 106.99176,38.78448 106.99176,38.78448 94.06679,39.4885 96.93884,49.55261 96.93884,49.55261 89.78195,45.96858 85.5851,49.77663 84.01387,51.74466 l 0.1776,-0.04802 c 2.15683,1.63203 11.31054,5.39207 23.16031,6.4641 11.84652,1.08801 15.61619,-1.61602 19.38745,-2.68804 3.76964,-1.07202 6.45927,0.54401 6.45927,0.54401 22.08188,-5.39208 44.70139,-17.77623 44.70139,-17.77623 3.15843,-5.10407 7.5217,-9.44013 11.36174,-12.65616 -15.125,-2.57605 -15.1314,9.60011 -15.1314,9.60011 -14.35858,-3.58403 -16.15541,7.53611 -16.15541,7.53611 0,0 -1.79362,-6.81609 -10.05453,-7.8881 C 139.66418,33.7604 133.5617,37.69647 133.5617,37.69647 143.61143,21.90428 122.43037,14.72017 122.43037,14.72017 145.76826,15.08818 147.92029,1.44 147.92029,1.44 c 0,0 2.87205,10.04814 10.77293,10.41614 10.40654,0.464 14.00339,-6.11208 14.00339,-6.11208 0.89601,16.4482 13.73779,18.44824 18.00983,18.65624 4.00326,-3.18404 7.1217,-5.00807 7.1217,-5.00807 -0.54082,-9.1521 9.15691,-5.92008 9.15691,0 0,5.92007 -7.5409,3.77604 -7.5409,3.77604 z m -99.63327,89.56916 c 0,0 -2.51204,-7.53611 -1.07841,-10.04811 0,0 0.7184,-2.51204 -1.07523,-2.51204 -1.79681,0 -1.79681,3.95205 -1.79681,6.46408 0,2.51204 0.0032,5.74408 3.95045,6.09607 z M 94.7852,93.34518 c 0,0 -3.23042,2.51204 -11.84974,0.36802 0,0 2.15683,2.86404 8.2593,3.58404 6.10089,0.72002 6.46248,-2.16004 3.59044,-3.95206 z m 10.76975,-5.37605 c -3.23206,3.95204 -11.12815,12.56015 -18.66905,17.23219 -1.46242,0.89603 -3.00322,1.82406 -4.54725,2.76807 -2.58725,-0.16002 -6.43368,-0.51202 -10.17454,-1.32803 0,0 -1.24161,3.42404 7.00328,3.31204 -5.21286,3.36005 -9.75052,7.05608 -10.23532,11.40816 0,0 6.80009,-6.48009 12.40335,-10.20815 0.44162,2.60803 1.71364,8.28812 4.47526,9.12013 0,0 -1.60961,-8.3681 -0.55679,-11.69614 5.01605,-3.40806 13.19536,-9.44013 19.50105,-15.2002 0.056,2.68802 0.728,6.91206 4.39045,7.15208 0,0 -2.20961,-5.04005 -1.59682,-9.80812 2.28804,-2.30403 4.13444,-4.48006 5.18727,-6.35208 0,0 -3.94885,-0.35201 -7.18089,3.60005 z M 54.21349,68.57687 c -2.51204,0 -5.02567,1.07201 -10.41294,-1.79203 0,0 2.15683,6.09608 10.77294,4.65608 0,0 2.15522,-2.86405 -0.36,-2.86405 z m -9.09453,12.65616 c -1.51201,0.28801 -6.27367,1.34401 -7.78089,3.13605 0,0 3.02243,0.752 5.89768,-0.68802 -2.46885,3.42404 -4.44168,7.0401 -5.53768,10.75215 0,0 4.32486,-5.44008 10.75534,-12.27217 -0.3392,2.16004 -0.41441,5.66408 2.52964,6.1601 0,0 -0.6848,-4.44808 -0.7536,-8.03212 2.65283,-2.75203 5.60005,-5.66408 8.70248,-8.4961 0.19682,2.17603 1.14084,8.8161 5.33447,9.71212 0,0 -2.39682,-7.92009 -2.09602,-12.57618 2.31523,-1.98401 4.68968,-3.88804 7.07851,-5.60005 -0.08483,2.30402 -0.07521,8.5441 2.55842,8.83211 0,0 -0.53441,-7.50411 0.4816,-10.92815 1.52484,-0.992 3.04326,-1.90402 4.54407,-2.70404 0,0 -0.3568,-1.088 -2.15363,-0.72001 -0.48161,0.09602 -2.94725,1.37603 -6.40008,3.56807 -1.25602,-0.06402 -6.27529,-0.33602 -9.39692,-0.33602 0,0 2.38082,2.06403 6.59687,2.17603 -6.22248,4.20805 -14.33457,10.57615 -20.36026,18.01623 z m 22.3795,-30.06437 c -2.02242,-1.52004 -6.8913,-0.65604 -11.04175,-0.11202 6.76648,9.02412 16.45941,5.68007 20.40027,3.76004 -3.21124,-0.448 -7.49291,-2.25601 -9.35852,-3.64802 z m 6.82089,-7.00811 c 0,0 -1.62402,-1.84001 -3.66245,-4.22404 -0.24322,-0.91202 -1.00482,-3.90405 -1.00482,-5.10407 0,-1.44003 0,-3.23204 0,-3.23204 0,0 -2.19842,1.90401 -2.46405,4.22406 -1.4336,-1.72804 -2.76802,-3.39206 -3.64003,-4.59208 -0.39361,-0.54399 -0.9936,-1.45601 -1.74401,-2.62403 0.93121,-0.608 2.10401,-2.03201 2.10401,-5.26407 0,-5.39207 -0.36,-8.62411 -0.36,-8.62411 0,0 -2.51202,6.11207 -2.87204,8.62411 -0.16,1.12003 -0.46241,1.87204 -0.75039,2.36803 -2.59685,-3.98405 -6.0929,-9.18411 -9.57453,-13.21616 L 50.98305,6.81607 48.6486,10.62411 C 45.60378,7.45607 42.69814,5.52007 40.5701,6.46407 c 0,0 5.74728,3.23203 11.48976,12.20814 0.0544,0.08002 0.10719,0.16002 0.15999,0.24002 -1.95041,-1.07202 -4.80005,-1.66403 -8.0593,0.83202 0,0 6.12488,0.8 9.42733,1.248 1.23201,1.84004 2.62882,3.84005 4.10405,5.87208 -2.00643,0.416 -5.36326,1.232 -6.35048,2.22402 h 7.9729 c 1.73603,2.33603 3.52484,4.67205 5.22726,6.80009 -1.64001,-0.16 -3.62564,-0.208 -4.58406,0.36801 l 6.9249,2.49604 c 2.64323,3.15205 4.85926,5.48806 6.00009,6.12808 0,0 2.15681,1.07201 1.43681,-0.72002 z m 10.41293,4.30406 c 0,0 2.05283,-4.32006 5.13126,-10.11211 l 6.71689,-4.24007 c 0,0 -2.45123,-0.14402 -4.55365,0.24 2.30882,-4.17605 4.96486,-8.72011 7.6817,-12.81618 h 0.1024 l 5.38726,-1.792 c 0,0 -2.08964,-0.12802 -3.96805,-0.43201 2.21601,-3.16804 4.42727,-5.92007 6.48169,-7.8241 0,0 -3.68166,1.10401 -8.66892,7.26409 -0.31682,-0.12801 -0.56001,-0.27202 -0.66879,-0.448 -0.71683,-1.07203 0.7184,-3.93605 -2.51364,-4.30406 l 1.61921,6.80008 c -1.54402,2.12802 -3.17764,4.73605 -4.84967,7.92012 -0.35359,0.67199 -0.68161,1.31199 -1.01281,1.93602 -0.04,-1.76004 -0.83361,-3.31204 -3.29763,-3.72808 0,0 1.50402,3.39208 1.78881,6.6241 -5.88488,11.32816 -7.5969,15.23221 -5.37606,14.9122 z m 103.40132,2.88004 c 0,0 0.71522,6.46407 6.10409,6.46407 0,0 -4.31046,-6.11208 -6.10409,-6.46407 z m -8.97772,10.41614 c 0,0 5.38729,0.70401 5.7473,-4.67208 l -0.71843,-2.88003 c 0,0 -2.87204,7.55211 -5.02887,7.55211 z m 3.23366,-17.95224 c 0,0 -0.71843,1.79202 0,3.58405 0.71681,1.79203 3.23204,7.9041 3.23204,16.16021 0,1.85602 -0.0912,4.17604 -0.1712,6.72009 -0.83522,1.264 -4.69766,7.00808 -6.2945,7.6321 0,0 4.25608,1.296 6.20011,-3.90405 -0.13762,8.08009 0.24319,17.18422 3.85603,20.78425 0,0 -1.78723,-9.52011 -1.56323,-17.18422 1.36964,2.33605 3.38246,4.80007 5.86889,4.97606 0,0 -3.71524,-5.69606 -5.58728,-9.2801 0.14081,-2.40004 0.2128,-5.36008 0.1232,-8.48012 1.29923,1.77601 4.33925,5.63208 6.5425,5.92008 0,0 -2.33122,-8.62412 -6.6625,-8.64013 -0.44639,-7.48808 -1.91521,-15.31219 -5.54406,-18.28822 z m -4.66885,-21.55228 c 0,0 -2.51204,1.08801 -7.11531,1.79204 -1.44321,-1.66403 -4.80966,-5.7921 -5.08966,-8.60812 0,0 -2.66243,5.02407 2.34881,8.9281 -4.42404,0.41601 -10.22733,0.36801 -17.1906,-0.95999 -1.39682,-1.13602 -4.11526,-3.63205 -4.90567,-6.5281 0,0 -1.12802,3.18404 0.58402,5.56807 -3.54086,-0.89601 -7.3313,-2.12802 -11.35376,-3.77606 0,0 3.70407,4.06406 11.89456,6.56011 -1.62562,1.50399 -4.00964,4.17605 -3.28165,6.36808 0,0 4.65926,-4.36807 7.94411,-5.23207 3.76486,0.68801 8.22571,0.99201 13.41298,0.608 -1.54722,1.34403 -2.85284,3.21604 -1.96963,5.34407 0,0 5.38728,-5.02406 8.25929,-6.11209 0,0 10.77295,-0.72 6.46251,-3.95204 z"
               style="fill:#000000;fill-opacity:1;fill-rule:nonzero;stroke:#000000;stroke-width:0.3985;stroke-linecap:butt;stroke-linejoin:miter;stroke-miterlimit:10;stroke-dasharray:none;stroke-opacity:1"
               id="path24" /></g></g></g></g></g></svg>
