<?xml version="1.0" encoding="UTF-8" standalone="no"?>
<svg
   xmlns:dc="http://purl.org/dc/elements/1.1/"
   xmlns:cc="http://creativecommons.org/ns#"
   xmlns:rdf="http://www.w3.org/1999/02/22-rdf-syntax-ns#"
   xmlns:svg="http://www.w3.org/2000/svg"
   xmlns="http://www.w3.org/2000/svg"
   xmlns:sodipodi="http://sodipodi.sourceforge.net/DTD/sodipodi-0.dtd"
   xmlns:inkscape="http://www.inkscape.org/namespaces/inkscape"
   version="1.1"
   id="svg2"
   xml:space="preserve"
   width="168.42667"
   height="84"
   viewBox="0 0 168.42667 84"
   sodipodi:docname="vectorian044.pdf"><metadata
     id="metadata8"><rdf:RDF><cc:Work
         rdf:about=""><dc:format>image/svg+xml</dc:format><dc:type
           rdf:resource="http://purl.org/dc/dcmitype/StillImage" /></cc:Work></rdf:RDF></metadata><defs
     id="defs6"><clipPath
       clipPathUnits="userSpaceOnUse"
       id="clipPath24"><path
         d="M 0,0 H 123.00157 V 63.0008 H 0 Z"
         id="path22" /></clipPath></defs><sodipodi:namedview
     pagecolor="#ffffff"
     bordercolor="#666666"
     borderopacity="1"
     objecttolerance="10"
     gridtolerance="10"
     guidetolerance="10"
     inkscape:pageopacity="0"
     inkscape:pageshadow="2"
     inkscape:window-width="640"
     inkscape:window-height="480"
     id="namedview4" /><g
     id="g10"
     inkscape:groupmode="layer"
     inkscape:label="vectorian044"
     transform="matrix(1.3333333,0,0,-1.3333333,0,84)"><g
       id="g12"
       transform="translate(72,-9)"><g
         id="g14"
         transform="translate(-72,9)"><g
           id="g16"><g
             id="g18"><g
               id="g20"
               clip-path="url(#clipPath24)"><path
                 d="m 31.8468,32.03479 c 6.27207,-0.25119 12.36817,-3.09923 14.04498,-10.28172 1.75521,-7.52491 -3.01123,-14.797 -9.78253,-14.797 -6.76809,0 -10.78094,3.76166 -10.78094,9.53133 0,5.76648 4.76486,9.77932 10.03213,7.7713 5.26567,-2.00482 5.01447,-8.77452 0.74881,-9.77773 -4.26245,-1.0032 -4.51205,3.00965 -2.75523,4.26245 1.75203,1.25283 3.76164,-0.75041 3.76164,-0.75041 0,0 0.75041,5.01286 -3.76164,5.01286 -5.76967,0 -6.26889,-5.51525 -6.01929,-8.02249 0.24962,-2.50885 2.75844,-6.26727 9.27693,-6.01928 5.01445,0.1936 9.78252,7.7729 6.77289,14.04177 -3.00964,6.27048 -9.78093,9.02892 -18.55545,6.5185 C 16.0498,27.01874 11.28813,19.49702 11.28813,19.49702 15.29779,29.02516 25.5811,32.286 31.8468,32.03479 Z"
                 style="fill:#000000;fill-opacity:1;fill-rule:nonzero;stroke:#000000;stroke-width:0.3985;stroke-linecap:butt;stroke-linejoin:miter;stroke-miterlimit:10;stroke-dasharray:none;stroke-opacity:1"
                 id="path26" /><path
                 d="m 4.01285,7.71129 c 0,0 4.51524,20.31224 24.8275,28.08517 25.77475,9.86412 39.37011,-2.75845 39.37011,-2.75845 0,0 -2.76004,-1.08641 -2.76004,-3.51364 0.0032,-3.50885 3.51365,-4.00806 6.01929,-2.75525 0,0 -0.24961,-2.51042 4.01605,-4.26564 4.25925,-1.75362 5.01126,-3.25604 4.00964,-6.7697 0,0 3.89925,3.69766 2.00484,8.77932 -1.83684,4.93127 -4.51207,8.02412 -4.51207,8.02412 0,0 9.77773,-3.26087 10.78095,-12.54097 0,0 4.26565,-1.75524 4.01286,3.51364 0,0 5.76805,-6.01927 13.54416,-3.76326 7.77289,2.25763 7.52171,10.53296 3.76004,12.28816 0,0 2.50563,-3.76326 0.24962,-7.27208 -2.25763,-3.50885 -5.01286,-2.75845 -6.76968,-1.25282 -1.75524,1.50241 -3.25925,5.51527 -7.77451,5.76646 0,0 3.51204,3.26087 -0.24961,6.26729 0,0 -5.01606,-4.51045 -13.04176,0.7552 0,0 10.53453,0 12.29136,7.77451 0,0 -1.50562,-3.51202 -6.27208,-2.51044 -4.76166,1.00322 -4.01285,2.76004 -9.77773,1.25282 0,0 1.49922,4.55846 -3.76326,4.26566 -4.51205,-0.25279 -3.00963,-5.01607 -3.00963,-5.01607 0,0 -25.57792,8.77773 -52.15907,-9.5281 C 4.68004,22.80588 4.01285,7.71129 4.01285,7.71129 Z m 42.13173,33.60522 c 13.12176,1.83684 19.30584,-0.50561 22.64988,-1.17281 3.34406,-0.6688 5.01767,-0.16799 5.01767,-0.16799 -3.17764,1.1712 -2.17763,6.52006 1.00162,5.68165 3.17763,-0.8352 1.33603,-5.85126 1.33603,-5.85126 1.67362,2.00803 4.68485,2.67524 7.35689,1.50722 C 86.1819,40.1405 87.3499,39.6413 87.3499,39.6413 84.67627,36.79965 76.31938,37.30046 76.31938,37.30046 c 0,0 5.84966,-4.01285 10.70092,-4.68166 4.84646,-0.6672 7.5217,1.67203 7.5217,1.67203 1.83681,-4.01285 -3.34405,-6.18408 -3.34405,-6.18408 2.17443,0.66881 5.34728,0.3344 7.52172,-3.00965 2.17283,-3.34403 5.18086,-4.01284 5.18086,-4.01284 -3.17446,-1.83682 -9.35853,1.16962 -10.69614,3.00964 -1.33763,1.83843 -3.50885,2.33762 -3.50885,2.33762 1.83682,-4.17764 -0.50401,-4.34725 -0.50401,-4.34725 -5.35047,13.54418 -18.39063,13.54418 -18.39063,13.54418 11.20336,-7.5217 9.86573,-14.87859 9.86573,-14.87859 -0.66881,1.67202 -4.51685,3.00964 -6.35688,4.34406 -1.83683,1.3376 -2.08644,4.68484 -2.08644,4.68484 0,0 -2.08801,-3.67843 -4.26245,-1.75523 -3.05444,2.70245 3.25924,4.76329 3.25924,4.76329 -11.78895,10.28172 -25.07552,8.52969 -25.07552,8.52969 z"
                 style="fill:#000000;fill-opacity:1;fill-rule:nonzero;stroke:#000000;stroke-width:0.3985;stroke-linecap:butt;stroke-linejoin:miter;stroke-miterlimit:10;stroke-dasharray:none;stroke-opacity:1"
                 id="path28" /><path
                 d="M 59.18475,60.87358 C 75.48576,62.3792 100.31007,60.12157 114.60464,44.82536 128.89925,29.52437 124.13278,12.72415 108.83499,5.95447 93.53879,-0.8152 74.23294,4.19923 63.4472,14.73216 52.66307,25.2635 52.41345,32.286 52.41345,32.286 63.6968,7.96089 85.7643,7.20888 95.54521,6.20567 105.32614,5.20244 120.62395,11.97374 120.87354,25.2635 121.12314,38.55649 109.3358,49.83824 95.0444,53.60147 80.74664,57.36313 51.15744,61.62558 25.32831,44.82536 -0.5008,28.02353 1.256,-0.06319 1.256,-0.06319 c 0,0 -4.73123,12.73134 7.27209,31.34438 12.28496,19.05943 34.35246,28.08836 50.65666,29.59239 z"
                 style="fill:#000000;fill-opacity:1;fill-rule:nonzero;stroke:#000000;stroke-width:0.3985;stroke-linecap:butt;stroke-linejoin:miter;stroke-miterlimit:10;stroke-dasharray:none;stroke-opacity:1"
                 id="path30" /><path
                 d="m 7.77448,33.79163 c 13.03857,17.05142 6.34729,26.38111 0.66562,26.91394 -5.34727,0.50079 -6.6865,-3.00804 -6.6865,-6.35369 0,-3.34243 1.49924,-5.62727 4.84966,-5.18086 2.50564,0.33441 2.34084,3.68005 2.34084,3.68005 -0.16639,-1.84483 -3.51045,-2.34245 -3.67844,0.3344 -0.11681,1.84163 1.75682,2.42084 3.26243,1.92162 1.50403,-0.50399 2.76004,-2.75841 1.00322,-5.76966 C 7.77448,46.32777 0,46.32777 0,54.35349 0,62.3792 6.77127,63.3824 10.28493,62.3792 13.79375,61.37598 18.05621,58.11673 16.549,49.33743 15.04657,40.56133 7.77448,33.79163 7.77448,33.79163 Z"
                 style="fill:#000000;fill-opacity:1;fill-rule:nonzero;stroke:#000000;stroke-width:0.3985;stroke-linecap:butt;stroke-linejoin:miter;stroke-miterlimit:10;stroke-dasharray:none;stroke-opacity:1"
                 id="path32" /></g></g></g></g></g></g></svg>
