<?xml version="1.0" encoding="UTF-8" standalone="no"?>
<svg
   xmlns:dc="http://purl.org/dc/elements/1.1/"
   xmlns:cc="http://creativecommons.org/ns#"
   xmlns:rdf="http://www.w3.org/1999/02/22-rdf-syntax-ns#"
   xmlns:svg="http://www.w3.org/2000/svg"
   xmlns="http://www.w3.org/2000/svg"
   xmlns:sodipodi="http://sodipodi.sourceforge.net/DTD/sodipodi-0.dtd"
   xmlns:inkscape="http://www.inkscape.org/namespaces/inkscape"
   version="1.1"
   id="svg2"
   xml:space="preserve"
   width="609.14667"
   height="129.36"
   viewBox="0 0 609.14667 129.36"
   sodipodi:docname="vectorian046.pdf"><metadata
     id="metadata8"><rdf:RDF><cc:Work
         rdf:about=""><dc:format>image/svg+xml</dc:format><dc:type
           rdf:resource="http://purl.org/dc/dcmitype/StillImage" /></cc:Work></rdf:RDF></metadata><defs
     id="defs6" /><sodipodi:namedview
     pagecolor="#ffffff"
     bordercolor="#666666"
     borderopacity="1"
     objecttolerance="10"
     gridtolerance="10"
     guidetolerance="10"
     inkscape:pageopacity="0"
     inkscape:pageshadow="2"
     inkscape:window-width="640"
     inkscape:window-height="480"
     id="namedview4" /><g
     id="g10"
     inkscape:groupmode="layer"
     inkscape:label="vectorian046"
     transform="matrix(1.3333333,0,0,-1.3333333,0,129.36)"><g
       id="g12"
       transform="translate(72,25.017)"><g
         id="g14"
         transform="translate(-71.878,-25.016)"><g
           id="g16"><g
             id="g18"><path
               d="m 444.1577,35.32564 c -5.70587,5.80356 -16.16919,12.15135 -34.61543,12.15135 -27.93225,0 -47.65712,-11.46454 -66.72156,-22.55139 -2.01022,-1.17281 -4.01785,-2.3298 -6.02017,-3.47894 v 8.10701 c 0,3.42884 0.3143,6.3927 0.7581,8.7754 2.88994,3.12235 3.71416,5.48657 3.65335,6.5882 -0.0423,0.7238 -0.40681,1.27321 -0.99591,1.46603 -0.45961,0.15328 -0.95883,0.06609 -1.41063,-0.25882 -1.12791,-0.81361 -2.14493,-3.44464 -2.82384,-6.93419 -3.06681,-3.19104 -8.60632,-7.40969 -18.32214,-11.91095 -16.73711,-7.7505 -33.08603,-7.76629 -33.18631,-7.73732 -0.46231,0.03173 -0.86121,-0.37509 -0.86121,-0.8506 0,-0.47279 0.37769,-0.86112 0.85321,-0.86641 0.20078,-0.01059 16.83492,-0.0132 33.92083,7.89841 8.24971,3.82234 13.66229,7.48889 17.13601,10.61124 -0.2747,-2.13173 -0.42799,-4.44316 -0.42799,-6.78099 V 20.47186 C 319.0358,11.37682 302.92729,3.71883 281.56471,3.71883 c -39.21191,0 -47.31891,18.99315 -48.23031,32.12712 h 5.08775 c 2.66795,0 2.66795,2.58612 2.66795,3.82505 0,2.41442 -1.42643,3.27564 -2.75515,3.27564 h -4.77337 c 1.69324,13.82076 11.49627,22.26068 26.54805,22.26068 15.81003,0 25.59714,-12.02455 25.59714,-23.16409 0,-11.72086 -9.24031,-19.59276 -17.87044,-19.59276 -2.93743,0 -5.36245,0.93512 -7.29078,2.16343 -2.57035,1.85702 -4.25035,4.67036 -4.41675,7.94862 -0.22722,4.58573 2.31131,8.5825 6.18397,8.955 8.18099,0.78451 4.06804,-7.66069 5.54737,-8.77013 1.2019,-0.89809 8.03309,5.7217 3.86986,13.5725 -2.18193,4.13943 -6.8655,6.02287 -11.72075,4.89225 -4.69147,-1.0883 -9.60744,-4.98466 -9.69735,-13.11027 -0.14259,-13.04157 9.40682,-16.2141 14.09029,-16.98541 1.06462,-0.2378 2.21105,-0.38041 3.43414,-0.38041 9.45693,0 19.58477,8.56401 19.58477,21.30718 0,11.96635 -10.43694,24.87852 -27.31147,24.87852 -15.85488,0 -26.52953,-9.28521 -28.28096,-23.97511 h -4.10766 l -0.005,5.94887 c 2.91635,23.90381 23.07701,24.22342 23.93552,24.22612 l 1.73293,0.0026 -1.04871,1.37361 c -0.13211,0.1691 -3.25975,4.14996 -11.31397,4.14996 -2.52273,0 -4.83944,-0.60491 -6.87077,-1.55594 1.24152,5.48668 -0.73971,8.31581 -1.86761,9.91663 -0.91404,1.29964 -1.74874,2.29555 -2.48316,3.17784 -1.38951,1.64574 -2.21893,2.63623 -2.21893,4.04686 0,1.47142 -0.0872,2.78424 -1.14381,2.78424 -1.06461,0 -1.14652,-1.31282 -1.14652,-2.78424 0,-1.41063 -0.8347,-2.40112 -2.21892,-4.04686 -0.7317,-0.88229 -1.56912,-1.8782 -2.49103,-3.17784 -1.12002,-1.60082 -3.09594,-4.42995 -1.85961,-9.91663 -2.03144,0.95103 -4.34287,1.55594 -6.87081,1.55594 -8.05431,0 -11.18455,-3.98086 -11.31393,-4.14996 l -1.04082,-1.37361 1.72491,-0.0026 c 0.85853,-0.0027 21.01659,-0.32231 23.93021,-24.12313 v -6.05186 h -3.66644 c -1.75933,14.6899 -12.44725,23.97511 -28.29684,23.97511 -16.86924,0 -27.31147,-12.91217 -27.31147,-24.87852 0,-12.74317 10.13313,-21.30718 19.59534,-21.30718 1.22041,0 2.36165,0.14261 3.42355,0.38041 4.68616,0.774 14.23819,3.94917 14.09027,16.98541 -0.0898,8.12561 -4.99795,12.02197 -9.692,13.11027 -4.86058,1.13062 -9.53883,-0.75282 -11.72877,-4.89225 -4.15255,-7.8508 2.67335,-14.47059 3.88057,-13.5725 1.47661,1.10944 -2.64164,9.55464 5.53945,8.77013 3.87784,-0.3725 6.41109,-4.36927 6.18918,-8.955 -0.16641,-3.27826 -1.84912,-6.08629 -4.41675,-7.94591 -1.93093,-1.22844 -4.35064,-2.16614 -7.2855,-2.16614 -8.63802,0 -17.87831,7.8719 -17.87831,19.59276 0,11.13954 9.78451,23.16409 25.59444,23.16409 15.04656,0 24.8654,-8.43992 26.56121,-22.26068 h -4.77595 c -1.33661,0 -2.76574,-0.86122 -2.76574,-3.27564 0,-1.23893 0,-3.82505 2.66535,-3.82505 h 5.09566 C 219.04861,22.71198 210.9469,3.71883 171.7376,3.71883 c -21.36788,0 -37.479,7.65799 -53.52929,16.75303 v 9.08181 c 0,2.33783 -0.1506,4.64926 -0.42271,6.77838 3.46055,-3.11974 8.86781,-6.78629 17.12813,-10.60863 17.08322,-7.91161 33.73054,-7.8905 33.91813,-7.89841 0.48081,0.0053 0.86112,0.39362 0.8559,0.86641 -0.005,0.47023 -0.3857,0.8506 -0.8559,0.8506 -0.11889,0.02382 -16.4519,-0.01318 -33.19433,7.73732 -9.71581,4.50126 -15.24729,8.71991 -18.31154,11.91095 -0.68681,3.48955 -1.69592,6.12058 -2.83443,6.93419 -0.44641,0.32491 -0.94832,0.4121 -1.41591,0.25882 -0.57852,-0.19282 -0.95102,-0.74223 -0.98533,-1.46603 -0.0634,-1.10163 0.76341,-3.46585 3.65066,-6.5882 0.43849,-2.3827 0.7555,-5.34656 0.7555,-8.7754 v -8.10701 c -2.00492,1.14914 -4.00464,2.30613 -6.01758,3.47894 C 91.40926,36.01245 71.6924,47.47699 43.75745,47.47699 25.35081,47.47699 14.89798,41.15562 9.1869,35.36255 4.22333,30.67378 -0.1221,22.79387 0.00198,15.58759 0.14209,7.44087 5.99846,1.4603 12.29604,1.5739 c 7.86401,0.1453 11.30075,5.29378 11.58336,10.00903 0.28529,4.72316 -1.42902,7.57872 -2.71284,7.57872 -1.29182,0 0.37511,-7.14812 -6.47988,-8.00671 -4.68085,-0.58902 -9.63393,1.52691 -10.11463,9.72372 -0.3672,6.39798 4.44834,11.85283 5.97527,13.41147 5.49448,5.51037 15.51941,11.47505 33.21013,11.47505 27.47265,0 46.9861,-11.34825 65.85505,-22.32679 2.28502,-1.32343 4.57265,-2.65743 6.88398,-3.97297 V 4.70944 c -0.9298,0.51781 -2.39061,1.39482 -3.89635,2.30083 -6.36887,3.81975 -17.01453,10.20713 -28.28356,15.10211 -13.49069,5.86697 -23.7427,7.67119 -30.60027,5.49185 -1.50045,-0.32229 -4.58578,-1.29181 -4.52508,-3.86463 0.09781,-3.81455 5.88286,-4.25565 7.1006,-1.45553 0.9616,2.20833 -0.42002,3.56085 -1.01962,4.02574 6.43488,1.54532 15.95,-0.37509 28.36286,-5.76927 11.15806,-4.84994 21.75878,-11.20564 28.08276,-15.00158 4.01794,-2.40912 5.06137,-3.02735 5.60817,-3.02735 0.1638,0 0.2879,0.06081 0.43323,0.1427 l 0.44909,0.27741 v 15.5722 C 133.78581,9.75763 150.44373,2.0018 171.7376,2.0018 c 41.73464,0 49.06503,21.8355 49.94206,33.84415 h 3.78282 V 20.50887 c -2.68393,-0.45963 -4.73114,-2.77895 -4.73114,-5.58168 0,-2.80805 2.04721,-5.12998 4.73114,-5.58439 V 0.8554 c 0,-0.4676 0.37512,-0.85589 0.85052,-0.85589 0.47292,0 0.86121,0.38829 0.86121,0.85589 v 8.46891 c 2.77104,0.37779 4.91597,2.72884 4.91597,5.60288 0,2.87142 -2.14493,5.21975 -4.91597,5.60015 v 15.31861 h 4.44846 C 232.49438,23.8373 239.83006,2.0018 281.56471,2.0018 c 21.28869,0 37.9518,7.75583 53.5293,16.50212 V 3.43362 l 0.008,-0.5363 0.44112,-0.24301 c 0.1479,-0.08189 0.2668,-0.1427 0.4332,-0.1427 0.54159,0 1.58761,0.61823 5.60815,3.02735 6.3293,3.79594 16.91673,10.15164 28.08548,15.00158 12.41016,5.39156 21.92258,7.31459 28.34958,5.76927 -0.59693,-0.46229 -1.98114,-1.81741 -1.00902,-4.02574 1.22299,-2.80012 7.00548,-2.35902 7.09799,1.45553 0.0634,2.56233 -3.00614,3.53704 -4.51716,3.86195 -6.855,2.18202 -17.10962,0.3778 -30.60559,-5.48917 -11.26906,-4.89498 -21.92,-11.28236 -28.28357,-15.10211 -1.51363,-0.90601 -2.96913,-1.78302 -3.90164,-2.30083 v 14.75598 c 2.31143,1.31554 4.60696,2.64954 6.88139,3.97297 18.87943,10.97854 38.39299,22.32679 65.86034,22.32679 17.65643,0 27.68124,-5.94357 33.18632,-11.44606 1.48991,-1.52152 6.3716,-7.00288 5.99378,-13.44046 -0.47811,-8.19681 -5.43108,-10.31274 -10.10143,-9.72372 -6.86819,0.85859 -5.20137,8.00671 -6.48518,8.00671 -1.28643,0 -3.00875,-2.85556 -2.72344,-7.57872 0.28791,-4.71525 3.72205,-9.86373 11.58606,-10.00903 6.30545,-0.1136 12.15663,5.86697 12.30194,14.01369 0.1268,7.1878 -4.20013,15.03858 -9.14262,19.73805 z m -191.72186,3.57405 c -0.0476,0 -0.10039,0.0026 -0.1559,0.01061 -0.45961,0.08178 -0.774,0.5283 -0.68682,0.9958 0.47551,2.65223 3.40505,9.48073 11.16605,9.48073 0.0555,0 0.11891,0 0.1743,0 7.806,-0.10302 8.57471,-8.70933 8.09921,-8.76752 -0.4702,-0.05809 -1.83062,6.96329 -8.12031,7.04518 -0.0528,0.0026 -0.103,0.0026 -0.1479,0.0026 -6.59078,0 -9.08181,-5.80888 -9.48072,-8.0648 -0.074,-0.41471 -0.4385,-0.70261 -0.84791,-0.70261 z M 221.98875,86.0179 c 0.877,1.2468 1.68532,2.20833 2.40383,3.06422 0.85321,1.01703 1.57972,1.87815 2.04462,2.80004 0.47021,-0.92189 1.18612,-1.78301 2.04193,-2.80004 0.7185,-0.85589 1.52682,-1.81742 2.39863,-3.06422 1.13582,-1.61144 3.00874,-4.29267 1.17284,-10.08833 -2.53595,-1.63512 -4.47487,-3.76426 -5.6134,-5.72957 -1.1412,1.96531 -3.08013,4.09445 -5.62136,5.72957 -1.83063,5.79566 0.037,8.47689 1.17291,10.08833 z M 203.28091,74.65634 c 0.2748,0.18233 0.59972,0.38301 0.95101,0.57062 4.19224,0.93512 14.11409,1.69852 22.00978,-9.01051 l 0.1955,-0.53621 0.19021,0.5415 c 7.9142,10.72484 17.85454,9.93771 22.03359,8.9973 0.34869,-0.18759 0.67361,-0.38037 0.94041,-0.5627 -5.37038,-0.7159 -19.62975,-4.37715 -23.15891,-22.84448 -3.48953,18.45943 -17.77532,22.12858 -23.16159,22.84448 z M 190.38733,47.66449 c -6.28966,-0.08189 -7.64478,-7.09799 -8.1256,-7.04518 -0.4702,0.05819 0.29322,8.6645 8.1044,8.76752 0.0581,0 0.11892,0 0.17701,0 7.76371,0 10.69584,-6.8285 11.16865,-9.48073 0.0793,-0.4675 -0.22981,-0.91402 -0.70001,-0.9958 -0.0528,-0.008 -0.0977,-0.01061 -0.1505,-0.01061 -0.40951,0 -0.76872,0.2879 -0.84012,0.70261 -0.4094,2.27181 -2.93214,8.1784 -9.63383,8.06219 z M 12.44133,6.14915 c 6.9025,0 7.99611,3.67447 8.04361,3.83297 0.14,0.52301 0.68162,0.8479 1.21522,0.7079 0.53362,-0.1453 0.85322,-0.67621 0.72371,-1.20722 -0.0581,-0.2166 -1.43431,-5.33337 -9.98254,-5.33337 -7.79008,0 -10.55321,9.79243 -10.03012,9.95883 0.5256,0.16641 3.70877,-7.95911 10.03012,-7.95911 z m 210.00702,8.77804 c 0,1.85701 1.28381,3.40504 3.01413,3.83033 v -7.6633 c -1.73032,0.42792 -3.01413,1.98123 -3.01413,3.83297 z m 7.92479,0 c 0,-1.92313 -1.37621,-3.52915 -3.19893,-3.88576 v 7.7689 c 1.82272,-0.35659 3.19893,-1.96002 3.19893,-3.88314 z m -16.4439,24.66991 c 0,1.5004 0.7291,1.5004 1.04342,1.5004 h 23.36229 c 0.30912,0 1.04083,0 1.04083,-1.5004 0,-1.94953 -0.30911,-2.03672 -0.95363,-2.03672 h -23.54988 c -0.63132,0 -0.94303,0.08719 -0.94303,2.03672 z M 440.86096,4.14943 c -8.5561,0 -9.93233,5.11677 -9.97992,5.33337 -0.1347,0.5336 0.18761,1.0804 0.72911,1.21253 0.5336,0.13469 1.07772,-0.1902 1.2072,-0.72643 0.0396,-0.14528 1.13854,-3.81975 8.04361,-3.81975 6.33989,0 9.50182,8.12822 10.02494,7.96181 0.5309,-0.1691 -2.23482,-9.96153 -10.02494,-9.96153 z"
               style="fill:#000000;fill-opacity:1;fill-rule:nonzero;stroke:#000000;stroke-width:0.3985;stroke-linecap:butt;stroke-linejoin:miter;stroke-miterlimit:10;stroke-dasharray:none;stroke-opacity:1"
               id="path20" /></g></g></g></g></g></svg>
