<?xml version="1.0" encoding="UTF-8" standalone="no"?>
<svg
   xmlns:dc="http://purl.org/dc/elements/1.1/"
   xmlns:cc="http://creativecommons.org/ns#"
   xmlns:rdf="http://www.w3.org/1999/02/22-rdf-syntax-ns#"
   xmlns:svg="http://www.w3.org/2000/svg"
   xmlns="http://www.w3.org/2000/svg"
   xmlns:sodipodi="http://sodipodi.sourceforge.net/DTD/sodipodi-0.dtd"
   xmlns:inkscape="http://www.inkscape.org/namespaces/inkscape"
   version="1.1"
   id="svg2"
   xml:space="preserve"
   width="173.30896"
   height="87.732536"
   viewBox="0 0 173.30896 87.732536"
   sodipodi:docname="vectorian003.pdf"><metadata
     id="metadata8"><rdf:RDF><cc:Work
         rdf:about=""><dc:format>image/svg+xml</dc:format><dc:type
           rdf:resource="http://purl.org/dc/dcmitype/StillImage" /></cc:Work></rdf:RDF></metadata><defs
     id="defs6"><clipPath
       clipPathUnits="userSpaceOnUse"
       id="clipPath24"><path
         d="M -0.29999,-0.24998 H 129.95167 V 65.60087 H -0.29999 Z"
         id="path22" /></clipPath></defs><sodipodi:namedview
     pagecolor="#ffffff"
     bordercolor="#666666"
     borderopacity="1"
     objecttolerance="10"
     gridtolerance="10"
     guidetolerance="10"
     inkscape:pageopacity="0"
     inkscape:pageshadow="2"
     inkscape:window-width="640"
     inkscape:window-height="480"
     id="namedview4" /><g
     id="g10"
     inkscape:groupmode="layer"
     inkscape:label="vectorian003"
     transform="matrix(1.3333333,0,0,-1.3333333,-0.13276609,87.801158)"><g
       id="g12"
       transform="translate(72,-6.15)"><g
         id="g14"
         transform="translate(-71.7,6.4)"><g
           id="g16"><g
             id="g18"><g
               id="g20"
               clip-path="url(#clipPath24)"><path
                 d="M 85.7887,29.41806 C 84.07407,10.55443 54.05998,-1.4506 31.7644,3.97903 9.4689,9.4113 1.4646,28.84915 2.89352,42.85463 c 1.42882,14.00558 14.577,21.15248 14.577,21.15248 0,0 0.57159,1.71722 -1.14302,1.43152 C 14.61278,65.15282 12.61235,64.00711 10.0404,61.71838 7.46848,59.43475 -3.11034,48.00119 0.8931,31.42108 5.18744,13.63036 18.04211,4.55313 32.62181,1.4071 47.19879,-1.7364 59.59627,0.35228 73.49783,7.98248 c 14.57711,8.0042 14.29128,20.00937 14.29128,21.72399 0,1.71461 -2.00041,-0.28841 -2.00041,-0.28841 z"
                 style="fill:#000000;fill-opacity:1;fill-rule:nonzero;stroke:#000000;stroke-width:0.3985;stroke-linecap:butt;stroke-linejoin:miter;stroke-miterlimit:10;stroke-dasharray:none;stroke-opacity:1"
                 id="path26" /><path
                 d="M 128.66255,37.99648 C 124.37859,51.42784 108.08427,50.57314 98.93686,46.85808 89.78955,43.14044 86.646,37.99648 76.06976,37.70818 65.49614,37.42236 53.20267,50.00165 46.9131,52.00206 40.6286,54.00249 36.90836,51.14476 36.90836,51.14476 37.76567,60.00366 53.49107,63.4356 65.49614,60.29207 77.8624,57.05502 83.78827,46.28658 84.64558,43.14044 85.50288,39.9995 87.50331,42.28313 87.50331,42.28313 84.07407,58.00583 68.06555,64.29291 56.63461,64.5787 45.19836,64.86441 35.76785,58.00583 34.61952,52.57095 33.47911,47.1413 31.7644,38.27968 43.19543,30.84958 c 11.43355,-7.43271 26.29895,-1.14311 32.58863,1.71724 6.28959,2.85512 6.28959,0.85209 6.28959,0.85209 C 73.49783,26.27722 54.05998,20.27335 41.48071,26.27722 28.90666,32.28099 28.62096,48.57011 28.62096,48.57011 c 0,0 0.85731,4.28927 -3.43195,3.14615 C 17.94083,49.78343 13.47235,47.4271 14.32967,35.42194 15.18698,23.41687 30.33559,9.98293 52.05954,13.98367 73.78105,17.9871 86.93181,32.85 89.50633,35.13875 c 2.57202,2.28361 16.29172,14.8629 27.43956,10.86203 11.15035,-4.00345 10.29303,-13.43396 7.4327,-18.00893 -2.86036,-4.57498 -8.57581,-4.57498 -11.43354,-0.57161 -2.86035,4.00084 1.71462,6.85858 1.71462,6.85858 -2.57193,4.00086 -10.86464,2.28884 -12.00505,-5.42967 -1.14572,-7.71849 5.42965,-11.71936 12.00505,-11.71936 6.57539,0 18.29472,7.43271 14.00288,20.86669 z"
                 style="fill:#000000;fill-opacity:1;fill-rule:nonzero;stroke:#000000;stroke-width:0.3985;stroke-linecap:butt;stroke-linejoin:miter;stroke-miterlimit:10;stroke-dasharray:none;stroke-opacity:1"
                 id="path28" /></g></g></g></g></g></g></svg>
