<?xml version="1.0" encoding="UTF-8" standalone="no"?>
<svg
   xmlns:dc="http://purl.org/dc/elements/1.1/"
   xmlns:cc="http://creativecommons.org/ns#"
   xmlns:rdf="http://www.w3.org/1999/02/22-rdf-syntax-ns#"
   xmlns:svg="http://www.w3.org/2000/svg"
   xmlns="http://www.w3.org/2000/svg"
   xmlns:sodipodi="http://sodipodi.sourceforge.net/DTD/sodipodi-0.dtd"
   xmlns:inkscape="http://www.inkscape.org/namespaces/inkscape"
   version="1.1"
   id="svg2"
   xml:space="preserve"
   width="44.560001"
   height="59.799999"
   viewBox="0 0 44.560001 59.799999"
   sodipodi:docname="vectorian176.pdf"><metadata
     id="metadata8"><rdf:RDF><cc:Work
         rdf:about=""><dc:format>image/svg+xml</dc:format><dc:type
           rdf:resource="http://purl.org/dc/dcmitype/StillImage" /></cc:Work></rdf:RDF></metadata><defs
     id="defs6" /><sodipodi:namedview
     pagecolor="#ffffff"
     bordercolor="#666666"
     borderopacity="1"
     objecttolerance="10"
     gridtolerance="10"
     guidetolerance="10"
     inkscape:pageopacity="0"
     inkscape:pageshadow="2"
     inkscape:window-width="640"
     inkscape:window-height="480"
     id="namedview4" /><g
     id="g10"
     inkscape:groupmode="layer"
     inkscape:label="vectorian176"
     transform="matrix(1.3333333,0,0,-1.3333333,0,59.8)"><g
       id="g12"
       transform="translate(72,-27.153)"><g
         id="g14"
         transform="translate(-71.693,27.365)"><g
           id="g16"><g
             id="g18"><path
               d="m 25.069,29.78247 c 0,0 3.04285,0.3203 3.36314,1.44112 0.32042,1.12091 -1.1611,1.24041 -3.36314,-1.44112 m -1.72191,4.28314 c 0,0 2.16243,1.04102 2.60303,2.44255 0.4398,1.40091 -0.64072,1.84142 -1.68161,0.4002 -1.04163,-1.44112 -0.92142,-2.84275 -0.92142,-2.84275 m -3.64325,2.64196 c 0,0 1.84142,1.64201 1.96163,3.04292 0.12019,1.40153 -1.00063,1.56132 -1.64133,0.36061 -0.64061,-1.20071 -0.3203,-3.40353 -0.3203,-3.40353 m -5.12468,1.72122 c 0,0 1.20073,1.88311 1.12014,3.44314 -0.07921,1.56212 -2.92194,0.80121 -1.12014,-3.44314 m -4.00393,-0.68024 c 0,0 -0.0403,2.60165 -1.08123,4.12338 -1.0409,1.52182 -2.68222,-0.32031 1.08123,-4.12338 M 6.33096,35.50684 c 0,0 -0.6004,2.64125 -2.16172,3.68216 -1.56142,1.0416 -1.64063,-1.96022 2.16172,-3.68216 M 3.64943,29.90196 c 0,0 -1.80253,2.68294 -2.68293,2.40154 -0.88111,-0.28011 -0.64,-2.12152 2.68293,-2.40154 m -0.6407,7.44629 c -1.32093,2.44254 0,3.40418 1.68162,2.00264 1.68091,-1.40152 2.32163,-4.08446 2.32163,-4.08446 2.08182,-0.2807 3.40344,1.04091 3.40344,1.04091 -5.24498,5.28528 -2.20202,8.00711 -0.6004,6.12599 1.6017,-1.88232 1.20082,-5.00586 1.20082,-5.00586 1.64131,-1.08052 2.92332,0.08201 2.92332,0.08201 -2.28273,5.24285 1.84073,7.12599 2.24094,4.80366 0.401,-2.32153 -1.28062,-4.24426 -1.28062,-4.24426 0.9617,-2.96225 3.92393,-1.84072 3.92393,-1.84072 -1.08049,6.32477 3.24304,6.04465 3.36256,3.96285 0.1209,-2.08254 -2.36193,-4.12276 -2.36193,-4.12276 0.88041,-2.32222 2.72323,-2.12143 2.72323,-2.12143 0.48023,6.08437 4.44307,5.12337 4.08315,3.00124 -0.36071,-2.12154 -3.08322,-3.36396 -3.08322,-3.36396 0.0403,-1.9609 1.0013,-3.00182 1.0013,-3.00182 2.40223,3.04353 5.24497,2.52233 4.44447,0.72122 C 28.19176,29.50177 24.90921,29.34116 24.90921,29.34116 20.30496,23.73698 19.90395,17.4108 20.22435,12.00674 20.54465,6.60068 23.0275,1.075 23.0275,1.075 23.10738,0.43428 22.66608,0.5949 22.66608,0.5949 c -1.92131,4.32485 -3.84267,11.25134 -2.84204,18.49822 1.00131,7.24622 4.36387,10.76925 4.36387,10.76925 -1.04024,1.72192 -1.10583,2.62693 -1.10583,2.62693 C 19.63554,27.86044 18.55223,24.1181 18.25722,16.4396 17.96143,8.75829 20.71884,0.7813 20.71884,0.7813 20.32474,0.3879 20.03035,0.48628 20.03035,0.48628 c -4.92326,16.05031 -0.96172,26.18296 -0.96172,26.18296 1.12362,3.52374 3.62545,6.56108 3.62545,6.56108 -2.14463,0.25549 -2.83385,1.37561 -2.83385,1.37561 -3.24093,-6.28998 -4.13025,-11.24665 -4.00314,-19.12465 0.12701,-7.87929 2.03332,-15.1207 2.03332,-15.1207 -0.25479,-0.44597 -0.63589,-0.1906 -0.63589,-0.1906 0,0 -2.60503,8.76732 -1.96913,19.50507 0.63519,10.73642 4.12956,15.43909 4.12956,15.43909 l -0.19062,0.5081 c -3.93894,-0.95412 -4.89247,1.46101 -4.89247,1.46101 -1.3339,-1.0805 -3.36663,-0.95349 -3.36663,-0.95349 2.41384,-4.19307 3.24034,-16.77232 2.54084,-23.82523 C 12.80736,5.25235 11.34644,0.16928 11.34644,0.16928 c -0.50892,-0.38108 -0.69942,0 -0.69942,0 2.54143,9.53093 2.60504,15.756 2.09682,24.14281 -0.5082,8.38681 -2.35091,11.31015 -2.35091,11.31015 -1.39754,-1.39812 -3.30315,-1.39812 -3.30315,-1.39812 0,0 4.25666,-7.87871 4.63776,-12.70827 0.3804,-4.82765 -0.51022,-9.90181 -0.51022,-9.90181 C 10.13332,5.21277 8.6075,0.14198 8.6075,0.14198 8.0658,-0.10458 8.0167,0.24109 8.0167,0.24109 9.78911,5.16426 11.26642,14.86317 11.01994,20.47556 10.77402,26.08792 7.00508,32.74402 7.00508,32.74402 6.55086,30.30838 4.64795,29.23605 4.64795,29.23605 9.29941,22.83337 9.79112,16.65 8.86159,10.57652 7.93057,4.50244 6.45387,0.12488 6.45387,0.12488 6.12537,-0.03899 5.87466,0.26558 5.87466,0.26558 7.72157,5.43474 8.75499,12.08125 8.4599,17.7687 8.16418,23.4542 4.21834,28.93686 4.21834,28.93686 c -1.02863,0 -2.64534,0.2937 -3.58516,1.46982 -0.94046,1.17482 -0.91116,2.70413 0.61682,2.26222 1.52791,-0.4399 2.90965,-2.61603 2.90965,-2.61603 2.58591,0.32451 2.2041,4.23276 2.2041,4.23276 0,0 -2.03401,0.62021 -3.35502,3.06262"
               style="fill:#000000;fill-opacity:1;fill-rule:nonzero;stroke:#000000;stroke-width:0.3985;stroke-linecap:butt;stroke-linejoin:miter;stroke-miterlimit:10;stroke-dasharray:none;stroke-opacity:1"
               id="path20" /><path
               d="m 7.50098,20.74335 c 0,0 -1.65432,-1.62361 -0.99311,-4.12135 0.66251,-2.49714 4.60355,-4.24294 8.87651,-3.94105 4.27234,0.3005 6.9798,2.01491 7.58161,4.21145 0.60168,2.19732 -0.42142,3.97244 -1.89543,4.18215 0,0 1.47401,-1.02311 1.05322,-2.94793 -0.42142,-1.92542 -3.85086,-5.02497 -9.47765,-4.03046 -5.62666,0.99172 -6.58976,4.36105 -5.14515,6.64719 m 0.69261,0.12149 C 6.32758,18.45721 7.92238,16.98329 7.92238,16.98329 c 3.46026,-3.36934 11.64415,-1.86461 13.35858,0.21101 1.71571,2.07573 -0.84221,3.82085 -0.84221,3.82085 l 0.1503,0.60111 c 1.80592,-0.06011 3.70125,-1.65363 3.00945,-4.60226 -0.69262,-2.94923 -4.30307,-5.26678 -8.90603,-5.26678 -4.60354,0 -8.66551,2.58864 -8.75631,5.68759 -0.0895,3.09885 2.01632,4.24285 2.01632,4.24285 z"
               style="fill:#000000;fill-opacity:1;fill-rule:nonzero;stroke:#000000;stroke-width:0.3985;stroke-linecap:butt;stroke-linejoin:miter;stroke-miterlimit:10;stroke-dasharray:none;stroke-opacity:1"
               id="path22" /></g></g></g></g></g></svg>
