<?xml version="1.0" encoding="UTF-8" standalone="no"?>
<svg
   xmlns:dc="http://purl.org/dc/elements/1.1/"
   xmlns:cc="http://creativecommons.org/ns#"
   xmlns:rdf="http://www.w3.org/1999/02/22-rdf-syntax-ns#"
   xmlns:svg="http://www.w3.org/2000/svg"
   xmlns="http://www.w3.org/2000/svg"
   xmlns:sodipodi="http://sodipodi.sourceforge.net/DTD/sodipodi-0.dtd"
   xmlns:inkscape="http://www.inkscape.org/namespaces/inkscape"
   version="1.1"
   id="svg2"
   xml:space="preserve"
   width="185.84"
   height="197.08"
   viewBox="0 0 185.84 197.08"
   sodipodi:docname="vectorian006.pdf"><metadata
     id="metadata8"><rdf:RDF><cc:Work
         rdf:about=""><dc:format>image/svg+xml</dc:format><dc:type
           rdf:resource="http://purl.org/dc/dcmitype/StillImage" /></cc:Work></rdf:RDF></metadata><defs
     id="defs6"><clipPath
       clipPathUnits="userSpaceOnUse"
       id="clipPath24"><path
         d="M -0.8524,0 H 135.21233 V 147.8162 H -0.8524 Z"
         id="path22" /></clipPath></defs><sodipodi:namedview
     pagecolor="#ffffff"
     bordercolor="#666666"
     borderopacity="1"
     objecttolerance="10"
     gridtolerance="10"
     guidetolerance="10"
     inkscape:pageopacity="0"
     inkscape:pageshadow="2"
     inkscape:window-width="640"
     inkscape:window-height="480"
     id="namedview4" /><g
     id="g10"
     inkscape:groupmode="layer"
     inkscape:label="vectorian006"
     transform="matrix(1.3333333,0,0,-1.3333333,0,197.08)"><g
       id="g12"
       transform="translate(72,75.814)"><g
         id="g14"
         transform="translate(-71.148,-75.814)"><g
           id="g16"><g
             id="g18"><g
               id="g20"
               clip-path="url(#clipPath24)"><path
                 d="m 120.99524,54.20149 c 7.7684,8.5275 14.21709,15.5367 13.26747,24.8234 -0.9469,9.28663 -6.63098,19.33246 -20.65486,19.33246 -13.33818,0 -35.02435,-15.11228 -37.78067,-43.96816 h -6.5276 c 0.31561,5.03926 0.91702,11.34103 2.04892,16.48911 2.90054,14.90548 14.14628,25.14172 14.14628,39.03498 0,13.90151 -4.92496,18.95427 -10.73964,25.65064 -5.80926,6.6936 -7.7711,12.25247 -7.7711,12.25247 0,0 -1.95361,-5.55887 -7.76288,-12.25247 -5.81479,-6.69637 -10.73975,-11.74913 -10.73975,-25.65064 0,-13.89326 11.24303,-24.1295 14.14909,-39.03498 1.1292,-5.14808 1.73052,-11.44985 2.0461,-16.48911 H 58.52724 C 55.7737,83.24507 34.08482,98.35735 20.74936,98.35735 6.72546,98.35735 1.0387,88.31152 0.09178,79.02489 -0.8524,69.73819 5.58817,62.72899 13.35645,54.20149 21.12756,45.67128 19.04335,39.6117 9.0002,38.65927 c 11.18045,-6.63098 20.27397,1.70606 20.27397,11.37097 0,9.6649 -8.33711,15.16399 -9.09352,20.46716 -0.75913,5.30855 2.84073,12.12736 10.42132,11.18044 14.99251,-1.77133 20.67388,-17.46863 22.24659,-27.28865 h -3.67324 c -3.14004,0 -5.68406,-2.07603 -5.68406,-4.64197 0,-2.56582 2.54402,-4.64195 5.68406,-4.64195 h 4.17125 C 52.91118,33.63913 49.06102,26.49113 43.86665,26.15372 37.99487,25.77553 37.04527,31.4596 40.83551,32.02829 37.23566,39.04028 28.32726,36.00635 27.00212,30.13177 25.64442,24.1103 30.98288,17.62352 37.99487,17.43301 44.62856,17.2562 57.00902,18.95673 58.65784,45.10527 h 6.40788 c 0.13881,-1.70602 0.47891,-9.07173 -2.94133,-19.32974 -3.91815,-11.74916 -2.46243,-15.66731 4.85965,-25.77571 7.33299,10.1084 8.78604,14.02655 4.87056,25.77571 -3.42023,10.25801 -3.08563,17.62372 -2.94682,19.32974 h 6.79148 C 77.34277,18.95673 89.73134,17.2562 96.36232,17.43301 c 7.01199,0.19051 12.35045,6.67729 10.99005,12.69876 -1.32782,5.87458 -10.23364,8.90851 -13.83348,1.89652 3.79034,-0.56869 2.84343,-6.25276 -3.03383,-5.87457 -5.19157,0.33741 -9.04452,7.48541 -9.47713,18.95155 h 4.92767 c 3.14272,0 5.68955,2.07613 5.68955,4.64195 0,2.56594 -2.54683,4.64197 -5.68955,4.64197 h -4.43247 c 1.57812,9.82002 7.2596,25.51732 22.24939,27.28865 7.58059,0.94692 11.18045,-5.87189 10.42402,-11.18044 -0.7592,-5.30317 -9.0989,-10.80226 -9.0989,-20.46716 0,-9.66491 9.0989,-18.00195 20.27936,-11.37097 -10.04313,0.95243 -12.13006,7.01201 -4.36176,15.54222 z"
                 style="fill:#000000;fill-opacity:1;fill-rule:nonzero;stroke:#000000;stroke-width:0.3985;stroke-linecap:butt;stroke-linejoin:miter;stroke-miterlimit:10;stroke-dasharray:none;stroke-opacity:1"
                 id="path26" /></g></g></g></g></g></g></svg>
