<?xml version="1.0" encoding="UTF-8" standalone="no"?>
<svg
   xmlns:dc="http://purl.org/dc/elements/1.1/"
   xmlns:cc="http://creativecommons.org/ns#"
   xmlns:rdf="http://www.w3.org/1999/02/22-rdf-syntax-ns#"
   xmlns:svg="http://www.w3.org/2000/svg"
   xmlns="http://www.w3.org/2000/svg"
   xmlns:sodipodi="http://sodipodi.sourceforge.net/DTD/sodipodi-0.dtd"
   xmlns:inkscape="http://www.inkscape.org/namespaces/inkscape"
   version="1.1"
   id="svg2"
   xml:space="preserve"
   width="64.346664"
   height="39.466667"
   viewBox="0 0 64.346664 39.466667"
   sodipodi:docname="vectorian091.pdf"><metadata
     id="metadata8"><rdf:RDF><cc:Work
         rdf:about=""><dc:format>image/svg+xml</dc:format><dc:type
           rdf:resource="http://purl.org/dc/dcmitype/StillImage" /></cc:Work></rdf:RDF></metadata><defs
     id="defs6" /><sodipodi:namedview
     pagecolor="#ffffff"
     bordercolor="#666666"
     borderopacity="1"
     objecttolerance="10"
     gridtolerance="10"
     guidetolerance="10"
     inkscape:pageopacity="0"
     inkscape:pageshadow="2"
     inkscape:window-width="640"
     inkscape:window-height="480"
     id="namedview4" /><g
     id="g10"
     inkscape:groupmode="layer"
     inkscape:label="vectorian091"
     transform="matrix(1.3333333,0,0,-1.3333333,0,39.466667)"><g
       id="g12"
       transform="translate(72,-42.399)"><g
         id="g14"
         transform="translate(-71.451,42.495)"><g
           id="g16"><g
             id="g18"><path
               d="m 6.37495,25.8789 c 0,0 -2.16851,1.91865 -1.26631,3.62627 0,0 -1.0935,-0.38461 -1.72732,-2.07234 -0.63251,-1.68843 0.57582,-2.82022 0.86332,-2.85843 0.2889,-0.0376 0.403,0.23021 0.0779,0.53612 -0.32649,0.30739 -0.84491,0.72951 -0.72949,1.86259 0.11477,1.13112 1.01698,1.93644 1.01698,1.93644 0,0 -0.11539,-2.07161 1.76492,-3.03065"
               style="fill:#000000;fill-opacity:1;fill-rule:nonzero;stroke:#000000;stroke-width:0.3985;stroke-linecap:butt;stroke-linejoin:miter;stroke-miterlimit:10;stroke-dasharray:none;stroke-opacity:1"
               id="path20" /><path
               d="m 17.82181,11.50813 c 0,0 0.84141,2.17273 1.18841,5.70879 0.34832,3.53593 -0.31761,4.92796 -0.8975,4.75375 -0.57992,-0.17412 -1.33252,-2.05862 -1.10242,-4.78317 0.23231,-2.72462 0.81151,-5.67937 0.81151,-5.67937 M 33.97862,7.5781 c 0,0 -0.1338,1.32301 -0.6522,1.0354 -0.51711,-0.2882 0.0198,-0.95963 0.6522,-1.0354 M 31.7732,7.13617 c 0,0 0.4221,0.6714 0.2875,1.05522 -0.1338,0.38319 -0.6331,-0.13521 -0.2875,-1.05522 m -1.07513,1.61122 c 0,0 0.53821,0.48012 0.57723,0.86331 0.0369,0.38393 -0.82512,0.0383 -0.57723,-0.86331 m -0.8811,3.56815 c -0.211,0.44191 -0.5177,0.26841 -0.55733,-0.36411 -0.03817,-0.63309 0.36403,-0.90161 0.36403,-0.90161 0,0 0.40369,0.82512 0.1933,1.26572 m -9.07463,-0.2493 c -0.03818,0.70891 -0.6516,0.92071 -0.84491,0.1147 -0.19121,-0.80531 0.55742,-1.74582 0.55742,-1.74582 0,0 0.3271,0.9214 0.28749,1.63112 M 9.32771,18.91483 c -0.3251,-0.30732 0.2117,-0.978 0.2117,-0.978 0.42211,0.69049 0.11549,1.284 -0.2117,0.978 M 0.40878,27.26004 C 0.27429,25.57162 1.0795,25.0914 2.13411,24.66931 3.18942,24.24791 3.53563,23.0396 3.01723,22.17555 2.49883,21.31226 2.76733,21.39015 3.09373,20.66064 3.42023,19.93184 3.03703,19.29872 2.30692,17.82062 1.57951,16.34329 1.6744,16.4205 2.34581,16.191 3.01723,15.9608 3.49603,15.57758 3.66882,15.9799 3.84233,16.3829 3.42023,16.1138 3.13272,16.24768 2.84444,16.3829 3.09373,16.7271 3.26593,16.5161 3.43933,16.305 3.80344,16.4785 3.95714,16.2292 4.11075,15.9799 3.53563,15.44238 3.53563,15.44238 c 0,0 0.86342,-0.614 1.07371,0.2493 0.21181,0.86261 0.80672,1.36262 1.95691,1.34352 1.15093,-0.0198 1.91795,-0.05879 2.47525,0.53612 0.556,0.5956 -0.2308,0.8251 0.11411,1.34351 0.34559,0.5178 1.2485,0.21041 0.93982,-0.49862 -0.30672,-0.71099 -0.36472,-0.6345 -0.36472,-0.6345 0,0 2.49433,-1.22742 3.52985,-2.87685 1.0368,-1.6495 1.09491,-2.91582 1.90012,-5.42865 0.80531,-2.51283 2.22463,-0.53761 2.39812,0.57572 0.17211,1.1127 -0.65301,3.37693 -0.864,6.35005 -0.2118,2.97255 0.32652,5.46629 1.34211,5.71689 1.01772,0.24931 1.70824,-1.68842 1.19122,-5.42997 -0.5177,-3.74025 -1.32441,-5.94567 -1.42071,-6.44567 C 17.7125,9.7453 18.38321,7.61627 18.40302,5.52415 18.42213,3.43411 17.34772,2.30171 16.9454,1.5149 16.5425,0.7287 17.2521,0.8441 17.63531,0.7861 c 0.38381,-0.0567 0.88312,0.4221 0.95891,1.07442 0.07651,0.65219 0.345,0.17209 0.86341,0.3073 0.51841,0.13389 0.17212,0.556 -0.2493,1.68771 -0.42211,1.13182 0.61331,4.22046 0.93982,5.08307 0.32719,0.86403 -0.2684,1.40092 -0.46041,2.57164 -0.19189,1.16931 0.5369,1.93631 1.09421,1.16931 0.55532,-0.76701 -0.1154,-2.30113 -0.1154,-2.30113 0.2309,-1.49713 3.79825,-2.66652 6.17729,-1.84213 2.37891,0.82441 2.64673,2.24513 2.64673,2.24513 0,0 -0.55601,0.34422 -0.42212,1.38113 0.13521,1.0361 1.20891,0.95891 1.15082,-0.17221 -0.0573,-1.13312 -0.55591,-2.24504 -0.55591,-2.24504 0.17281,-0.5574 0.69121,-0.82509 0.69121,-0.82509 0.36331,1.0361 0.57443,1.26561 0.92073,1.17 C 31.6209,9.99463 31.6393,9.3997 31.02599,8.8048 30.41127,8.21118 30.31499,7.4428 30.62158,6.67578 30.929,5.90877 31.6393,6.06177 31.6393,6.06177 30.89207,8.3253 31.7732,8.95839 32.1386,8.4988 32.502,8.03769 32.11949,7.36697 31.9467,6.71408 31.7732,6.06177 32.9248,5.10277 33.53813,5.29475 34.15141,5.48666 34.36324,6.48456 34.36324,6.48456 33.46161,6.75298 32.6748,7.80757 33.0019,8.65181 33.32642,9.4953 34.01762,8.4988 34.09543,7.7891 34.1719,7.07808 34.51753,6.96338 35.16914,7.23178 35.82144,7.50087 36.24356,8.4209 36.24356,8.4209 35.95604,6.54185 34.55515,6.42648 34.55515,6.42648 c 0,0 -0.36402,-1.45752 -1.36195,-1.59283 -0.9979,-0.13381 -1.2855,0.93982 -1.2855,0.93982 0,0 -0.8237,-0.3647 -1.47733,0.57579 -0.65161,0.93991 -0.13321,2.34073 -0.13321,2.34073 -0.4037,0.15301 -0.84489,0.78622 -0.84489,0.78622 0,0 -1.17001,-2.12903 -4.12477,-2.32094 -2.95273,-0.1913 -4.68074,2.07224 -4.68074,2.07224 0,0 -0.67072,-1.20892 -1.01701,-2.87825 C 19.28552,4.67995 19.47743,4.10483 19.66933,3.64383 19.86063,3.18413 20.32095,2.80101 19.82164,2.16782 19.32373,1.53471 18.61414,1.3994 18.36342,0.6522 18.1148,-0.09639 17.75072,-0.05809 17.46321,0.07639 17.17632,0.2117 16.96461,0.28749 16.4653,0.26768 15.96599,0.24988 15.79388,0.8633 16.1962,1.2082 c 0.4023,0.34632 1.1905,1.22741 1.76494,2.89663 0.57647,1.66864 -0.30602,5.50587 -0.30602,5.50587 0,0 -0.49932,-2.09071 -1.82364,-1.87962 -1.32301,0.21031 -1.97601,4.23946 -2.83873,6.58018 C 12.12944,16.65129 9.5196,17.59111 9.5196,17.59111 9.00261,16.93962 7.79369,16.34468 6.54718,16.5373 5.30064,16.7285 5.08885,15.5968 4.74324,14.86797 4.39975,14.13918 4.03423,14.40686 3.28633,14.92397 2.53781,15.44238 2.25021,15.30849 1.61641,15.71219 0.98459,16.1152 1.38762,16.8439 2.11632,18.16692 c 0.72951,1.32301 0.7664,1.93772 0.42149,2.80114 -0.3456,0.86261 0.11542,0.93981 0.40361,1.61051 0.28761,0.6714 -0.34631,1.24792 -1.91992,2.28334 -1.571,1.03551 -0.86202,3.30044 -0.86202,3.30044 0.1735,-1.24722 1.97533,-1.26701 1.97533,-1.26701 -1.13111,-0.1524 -1.72603,0.3647 -1.72603,0.3647"
               style="fill:#000000;fill-opacity:1;fill-rule:nonzero;stroke:#000000;stroke-width:0.3985;stroke-linecap:butt;stroke-linejoin:miter;stroke-miterlimit:10;stroke-dasharray:none;stroke-opacity:1"
               id="path22" /><path
               d="m 5.22476,19.63065 c 0,0 -0.54431,0.33059 0.05811,0.74519 0,0 -0.25893,0.40163 -0.86133,0.18851 -0.6031,-0.21241 -0.5553,-1.0163 -0.21309,-1.25263 0.3429,-0.237 0.76842,-0.02328 1.01631,0.31893"
               style="fill:#000000;fill-opacity:1;fill-rule:nonzero;stroke:#000000;stroke-width:0.3985;stroke-linecap:butt;stroke-linejoin:miter;stroke-miterlimit:10;stroke-dasharray:none;stroke-opacity:1"
               id="path24" /><path
               d="m 5.94196,23.5622 c 0,-0.37021 0.51641,-0.222 0.76222,0 0.2466,0.22059 0.8128,0.09759 0.8128,0.09759 C 7.04918,24.3988 5.94196,23.931 5.94196,23.5622 m 26.90693,-8.32201 c -1.35512,0.3463 -1.89601,-0.58942 -1.1584,-2.14124 0.73911,-1.55052 4.25935,-3.22525 4.25935,-3.22525 -0.31959,2.19185 -1.74781,5.02297 -3.10095,5.36649 M 6.90367,22.51508 c 0,0 -0.55672,-0.92283 -0.2363,-2.10442 C 6.98627,19.22903 8.31,19.14642 8.74779,20.46944 9.1849,21.79376 7.6953,24.028 6.82098,23.4139 c 0,0 -0.2602,-0.18923 -0.37901,-0.27181 -0.11819,-0.08259 -0.81421,0 -0.61471,0.68511 0.2014,0.68571 1.28881,0.5792 1.74983,0.28341 0,0 2.13922,1.20549 5.37886,0.81549 3.23883,-0.3893 6.81999,-1.3155 10.53694,-1.2902 3.71774,0.02389 6.6964,0.8852 8.71611,1.25541 2.01692,0.36951 5.90677,0.2213 8.12382,-2.68364 2.21502,-2.90414 1.54909,-6.27697 1.4016,-7.755 -0.1476,-1.47672 -0.5663,-2.21572 0.96161,-4.30785 1.52452,-2.09202 1.69662,-4.43005 0,-6.25169 0,0 0.46651,1.91932 -1.10921,4.38156 -1.57501,2.46094 -1.37832,4.11044 -1.10782,6.84389 0.2711,2.73213 -0.1721,5.12066 -2.24032,6.47367 0,0 0.6168,-1.2806 0.5184,-4.08644 -0.09968,-2.80655 0.0984,-5.68617 0.83603,-6.96688 0.73971,-1.27923 1.55112,-1.37832 1.52721,-2.70883 -0.0266,-1.32854 0.24591,-3.19855 0.59021,-4.13438 0.3442,-0.93569 0.51699,-1.13241 -0.88593,-3.05304 0,0 -0.3197,-0.2698 -0.7397,-0.2698 h -1.18092 c 0,0 -0.61481,0.12221 -0.5656,0.78752 0.04849,0.66391 0.3688,0.98422 1.15572,1.59963 0.7882,0.6161 1.1085,0.7882 0.8128,1.84692 -0.2944,1.05801 -1.25542,2.33792 -3.27304,3.44585 -2.01973,1.10781 -4.11116,1.7232 -5.36726,4.13563 -1.25533,2.41176 -0.5177,3.47115 0.93512,3.34816 1.4521,-0.12289 3.02853,-2.31334 3.59404,-5.76059 0,0 2.83042,-1.57571 3.59542,-3.19992 C 40.5534,4.95114 41.19272,3.59673 40.3567,2.83382 39.5193,2.0702 38.5351,1.2587 39.1007,1.1358 c 0.5655,-0.12301 1.3537,-0.3702 1.89532,0.1967 0.54229,0.5662 0.8135,1.15632 0.5177,2.23893 -0.2957,1.08401 -0.63989,1.94592 -0.6153,3.22595 0.02388,1.28061 0.1482,1.64882 -0.91194,2.75662 -1.05801,1.10793 -1.7225,3.61936 -1.6481,5.88428 0.07309,2.26423 0.31902,5.26747 -0.59151,6.49829 0,0 -1.42683,0.2957 -1.40292,0.91182 0,0 0.03621,0.6127 0.90771,-0.13251 0.86951,-0.74722 1.40772,-0.65362 2.50603,-2.00053 1.09692,-1.3456 1.51154,-3.15835 1.12843,-5.57079 0,0 -0.48092,-2.5135 -0.11142,-4.40893 0.36953,-1.89534 2.01903,-3.15075 2.21575,-5.34119 0,0 0.91119,1.99443 -0.17282,3.69177 -1.08321,1.69931 -1.7471,2.26551 -1.40291,5.07135 0.34489,2.80594 0.56691,5.85968 -1.89542,8.56652 -2.46153,2.70814 -6.64648,2.11732 -9.70024,1.08331 -3.05173,-1.03342 -7.8268,-1.37842 -12.67756,-0.1476 -4.84874,1.23152 -6.9163,1.42752 -9.32943,0.32041 0,0 1.42683,-1.40302 1.42683,-2.97874 0,-1.57571 -1.52453,-2.93013 -2.55863,-1.35441 -1.03401,1.57571 0.2234,2.86803 0.2234,2.86803"
               style="fill:#000000;fill-opacity:1;fill-rule:nonzero;stroke:#000000;stroke-width:0.3985;stroke-linecap:butt;stroke-linejoin:miter;stroke-miterlimit:10;stroke-dasharray:none;stroke-opacity:1"
               id="path26" /><path
               d="m 23.33168,21.89357 c 0,0 -0.21991,-0.03151 -0.2684,-0.30132 -0.0464,-0.26908 -0.586,-0.2534 -0.586,-0.2534 0,0 -0.25272,0.76023 0.8544,0.55472"
               style="fill:#000000;fill-opacity:1;fill-rule:nonzero;stroke:#000000;stroke-width:0.3985;stroke-linecap:butt;stroke-linejoin:miter;stroke-miterlimit:10;stroke-dasharray:none;stroke-opacity:1"
               id="path28" /><path
               d="m 23.80919,21.95708 c 0,0 -0.27049,0.31619 -0.444,0.34898 -0.17349,0.03142 0.71311,0.37972 0.444,-0.34898"
               style="fill:#000000;fill-opacity:1;fill-rule:nonzero;stroke:#000000;stroke-width:0.3985;stroke-linecap:butt;stroke-linejoin:miter;stroke-miterlimit:10;stroke-dasharray:none;stroke-opacity:1"
               id="path30" /><path
               d="m 24.6165,21.60866 c 0,0 -0.2712,-0.09488 -0.2377,-0.19051 0.0321,-0.09498 0.5225,0.1427 0.2377,0.19051"
               style="fill:#000000;fill-opacity:1;fill-rule:nonzero;stroke:#000000;stroke-width:0.3985;stroke-linecap:butt;stroke-linejoin:miter;stroke-miterlimit:10;stroke-dasharray:none;stroke-opacity:1"
               id="path32" /></g></g></g></g></g></svg>
