<?xml version="1.0" encoding="UTF-8" standalone="no"?>
<svg
   xmlns:dc="http://purl.org/dc/elements/1.1/"
   xmlns:cc="http://creativecommons.org/ns#"
   xmlns:rdf="http://www.w3.org/1999/02/22-rdf-syntax-ns#"
   xmlns:svg="http://www.w3.org/2000/svg"
   xmlns="http://www.w3.org/2000/svg"
   xmlns:sodipodi="http://sodipodi.sourceforge.net/DTD/sodipodi-0.dtd"
   xmlns:inkscape="http://www.inkscape.org/namespaces/inkscape"
   version="1.1"
   id="svg2"
   xml:space="preserve"
   width="40.801991"
   height="40.609024"
   viewBox="0 0 40.80199 40.609024"
   sodipodi:docname="vectorian090.pdf"><metadata
     id="metadata8"><rdf:RDF><cc:Work
         rdf:about=""><dc:format>image/svg+xml</dc:format><dc:type
           rdf:resource="http://purl.org/dc/dcmitype/StillImage" /></cc:Work></rdf:RDF></metadata><defs
     id="defs6" /><sodipodi:namedview
     pagecolor="#ffffff"
     bordercolor="#666666"
     borderopacity="1"
     objecttolerance="10"
     gridtolerance="10"
     guidetolerance="10"
     inkscape:pageopacity="0"
     inkscape:pageshadow="2"
     inkscape:window-width="640"
     inkscape:window-height="480"
     id="namedview4" /><g
     id="g10"
     inkscape:groupmode="layer"
     inkscape:label="vectorian090"
     transform="matrix(1.3333333,0,0,-1.3333333,-0.54246987,39.884092)"><g
       id="g12"
       transform="translate(72,-41.554)"><g
         id="g14"
         transform="translate(-71.393,41.603)"><g
           id="g16"><g
             id="g18"><path
               d="m 4.14853,25.93842 c 0,0 1.83594,-0.7213 1.39813,-1.39814 -0.43712,-0.6783 -1.96773,-1.2254 -1.70413,-2.66652 0,0 0.06421,0.85172 1.37701,1.70414 1.31002,0.85238 1.63924,1.1584 -0.1537,2.27372 0,0 0.93982,-0.02182 1.70482,-0.2404 0,0 -0.3716,1.39752 -2.07503,2.11942 0,0 0.85173,0.56831 1.61605,0.17489 0,0 0.2848,-0.3053 0.6994,-0.3053 0,0 0.0437,0.21721 -0.5683,0.50202 0,0 -0.37151,0.56821 0.0882,0.98352 0.45829,0.4153 0.7875,0.0874 0.80799,-0.2397 0.02181,-0.32861 0,-0.65642 0.37293,-0.67831 0,0 0,0.65509 -0.22061,1.15769 0,0 0.56889,0.28551 1.37831,0.02332 0,0 -0.6338,0.4357 -1.74852,0.2841 -1.11542,-0.1537 -1.24582,-1.35652 -1.24582,-1.35652 0,0 -1.22331,0.0875 -1.85713,-0.655 0,0 1.59553,-0.59083 2.12072,-1.57432 0,0 -1.83731,0.24179 -1.99032,-0.10861"
               style="fill:#000000;fill-opacity:1;fill-rule:nonzero;stroke:#000000;stroke-width:0.3985;stroke-linecap:butt;stroke-linejoin:miter;stroke-miterlimit:10;stroke-dasharray:none;stroke-opacity:1"
               id="path20" /><path
               d="m 7.99399,26.76892 c 0,0 -0.2616,0.63452 -0.67621,0.39342 -0.416,-0.2397 0.041,-0.81342 0.37772,-0.90901 0.33808,-0.095 0.42617,0.14129 0.29849,0.51559"
               style="fill:#000000;fill-opacity:1;fill-rule:nonzero;stroke:#000000;stroke-width:0.3985;stroke-linecap:butt;stroke-linejoin:miter;stroke-miterlimit:10;stroke-dasharray:none;stroke-opacity:1"
               id="path22" /><path
               d="m 16.90129,7.5651 c 0.02591,-0.39892 0.82503,-0.38721 0.82503,-0.38721 -0.3743,0.6714 -0.8517,0.78751 -0.82503,0.38721 m 5.07958,4.48954 c 0.17079,-0.1066 0.6605,0.35242 0.6605,0.35242 -0.38319,0 -0.8305,-0.24593 -0.6605,-0.35242 m -2.41034,0.77931 c 0.25541,-0.1605 1.18364,0.71441 1.18364,0.71441 -0.36263,0.23431 -1.44043,-0.5553 -1.18364,-0.71441 M 16.4341,11.55264 c -0.83191,0.12839 -1.16323,-0.39352 -0.2336,-0.70222 0.92682,-0.31079 2.19592,-0.0963 2.19592,-0.0963 0,0 -1.12971,0.6714 -1.96232,0.79852 M 9.03629,28.87067 c 0.56551,0.7875 1.89604,0.37019 2.06744,-0.61544 0.17221,-0.98359 -0.61601,-1.3777 -0.61601,-1.3777 1.35511,-1.35441 0.59282,-3.22525 -0.22069,-5.73668 -0.81273,-2.51081 0.88661,-5.02295 4.21014,-5.53796 3.32224,-0.5177 5.29207,2.04222 6.277,5.14455 0.98489,3.10156 2.0921,6.7933 5.41505,8.22082 3.32355,1.42963 3.54555,-0.09759 3.54555,-0.09759 -3.17603,0.12289 -5.21897,-3.59417 -6.45047,-6.94229 -1.22873,-3.34745 -2.53534,-5.34188 -2.53534,-5.34188 3.12753,3.15074 2.73271,5.02286 4.72644,8.0507 1.99443,3.02784 4.28467,2.82984 4.28467,2.82984 -2.19182,-1.23082 -2.95415,-3.61804 -4.16034,-7.13759 -1.20694,-3.52105 -2.90555,-5.39248 -2.90555,-5.39248 1.77171,1.18093 2.14192,2.46223 3.59474,4.43145 1.45212,1.96985 3.10153,2.48613 3.10153,2.48613 0,0 -1.10711,-1.2792 -2.09341,-4.33233 -0.98352,-3.05243 -2.08112,-3.59955 -2.08112,-3.59955 3.53932,0.9084 3.13303,-0.4494 0.8653,-2.02724 C 23.7936,10.31772 20.91196,10.18652 20.91196,10.18652 21.72266,8.81639 21.99586,9.0903 22.56558,9.16821 23.13588,9.244 23.66109,8.9373 23.35449,8.4442 23.0485,7.95099 21.65648,8.78358 21.65648,8.78358 21.27255,8.5651 20.60524,8.53159 20.60524,8.53159 c 0,0 0.48222,-0.81079 1.17142,-0.89749 0.69122,-0.08813 0.79982,-0.39553 0.558,-0.58123 -0.2397,-0.18579 -0.558,-0.23089 -1.1932,0.2417 -0.63592,0.47002 -1.60992,0.4153 -1.60992,0.4153 0,0 0.0656,-0.1427 0.26091,-0.70079 0.19809,-0.5593 0.49519,-0.54842 0.9324,-0.62492 0.43851,-0.0772 0.76842,-0.43779 0.41661,-0.6243 -0.3511,-0.18711 -0.81071,-0.099 -1.18302,0.4604 -0.37151,0.558 -1.4357,0.4603 -1.4357,0.4603 0.37298,-2.13712 1.0744,-2.66243 1.5115,-2.68563 0.43851,-0.0218 0.69061,0 1.07442,-0.2944 0.38461,-0.2957 0.79982,-0.44942 0.79982,-0.44942 C 21.63396,2.59341 20.91196,2.61522 20.91196,2.61522 21.37166,2.04492 22.05057,2.1118 22.71988,1.6624 23.3879,1.213 23.51907,0.54498 23.51907,0.54498 22.87228,0.2158 21.78755,0.9391 21.42625,0.89468 c -0.362,-0.04298 0.11,-0.80999 0.11,-0.80999 -0.57029,-0.03281 -1.1072,0.32849 -1.84071,0.78881 -0.73291,0.4604 -1.13931,-0.81071 -1.13931,-0.81071 0,0 -0.29642,0.93091 -0.83261,1.02931 -0.53682,0.099 -1.85164,-1.00741 -1.85164,-1.00741 0,0 0.10852,1.00741 0.82092,1.63171 0.71312,0.62491 1.3155,0.3504 1.63382,0.96442 C 18.64503,3.29413 18.08421,3.97313 16.3869,5.66086 14.68826,7.34857 12.09143,7.6341 10.36063,6.91008 8.6299,6.18607 7.77467,4.68614 7.77467,4.68614 6.98647,2.94383 8.00558,1.4097 8.00558,1.4097 c 0,0 -0.61401,0.54912 -0.78961,0.50471 C 7.04048,1.8701 7.05138,1.2239 7.05138,1.2239 6.15326,2.34131 6.18596,3.20743 6.18596,3.20743 6.63547,2.69171 7.12718,3.00931 7.12718,3.00931 6.67987,4.08304 7.27127,5.45316 9.0021,6.80008 10.73352,8.14839 13.03395,7.6881 13.03395,7.6881 15.26878,7.45718 16.90129,5.70526 18.02002,4.39043 19.13542,3.07562 18.84033,2.55031 18.06313,2.1118 17.28581,1.67331 16.85822,1.2349 16.85822,1.2349 c 0,0 0.2411,0.1311 0.7561,0.2076 0.515,0.0772 0.90842,0.36202 0.90842,0.36202 -0.05463,-0.39482 0.12229,-0.71242 0.12229,-0.71242 0.1735,0.4276 0.8319,0.778 0.8319,0.778 0.30531,-0.6462 1.19392,-1.00752 1.19392,-1.00752 -0.23021,0.71172 0.0642,0.89752 0.0642,0.89752 0.4727,-0.3941 1.23903,-0.4153 1.23903,-0.4153 0,0 -0.07651,0.3497 -0.83262,0.73291 -0.75611,0.38381 -0.75611,0.7786 -0.75611,0.7786 0.41731,0.01161 0.87701,0.26301 0.87701,0.26301 -0.43852,0.48221 -0.668,0.44941 -1.35852,0.53621 -0.68991,0.08812 -1.08531,0.80112 -1.56622,1.92954 -0.4829,1.12829 -0.63521,1.2922 -0.63521,1.2922 -1.05251,0.07721 -1.32711,0.81083 -0.83391,1.12842 0.4945,0.3176 1.02931,-0.44951 1.38101,-0.86612 0.3497,-0.4153 1.34763,-0.25131 1.34763,-0.25131 l -0.45011,0.69122 c -1.21511,0.15232 -0.88722,0.87562 -0.5368,0.9084 0.3524,0.03282 0.4173,-0.31761 0.6918,-0.50408 0.2739,-0.18581 1.37902,-0.08672 1.37902,-0.08672 0,0 -0.27379,0.45902 -0.5033,0.61261 -0.23021,0.153 -0.59082,0.2083 -0.735,0.58061 -0.14072,0.37221 0.14828,0.4378 0.14828,0.4378 0.40572,0.1106 0.51702,-0.4255 0.51702,-0.4255 0.44259,-0.5157 1.45891,-0.09149 1.45891,-0.09149 -0.629,0.4057 -1.0703,1.16311 -1.0703,1.16311 -2.73345,-0.25882 -5.26198,0.29508 -5.18958,1.08942 0.07381,0.7944 1.27452,0.6462 2.52924,0.07379 1.25612,-0.57242 1.36742,-0.66461 3.26894,-0.3873 1.90081,0.27599 5.86987,1.71712 6.03727,2.52863 0.1646,0.81271 -2.23352,0.1113 -2.23352,0.1113 0,0 -1.27522,-0.97951 -2.27174,-1.56893 -0.99719,-0.5915 -1.51361,-0.27801 -1.18161,0.1277 0.33189,0.40781 1.58803,0.55532 1.58803,0.55532 2.06822,1.34692 2.97253,3.00874 3.74775,5.07696 0.77449,2.06684 1.60642,3.12064 1.60642,3.12064 0,0 -1.18163,-0.42549 -2.19794,-2.12412 -1.01361,-1.69803 -2.54702,-3.78465 -3.59885,-4.43077 -1.05391,-0.64619 -1.01701,-0.6277 -1.77313,-1.2001 -0.75749,-0.5724 -1.5142,-0.90503 -1.5142,-0.44261 0,0.461 0.53541,1.05191 1.0149,1.12492 0.48153,0.07448 0.92412,0.29579 0.92412,0.29579 2.25192,1.58803 3.54494,5.41017 4.59744,8.45652 1.05254,3.04552 2.76966,4.33854 2.76966,4.33854 -2.27242,-0.48019 -3.60155,-3.80304 -5.00377,-6.83087 -1.40302,-3.02855 -3.93355,-4.76416 -4.81946,-5.44717 -0.88523,-0.68372 -1.31071,-0.55391 -1.31071,-0.55391 0,0.51701 0.4795,0.3504 2.14132,1.75403 1.66242,1.40362 2.45542,5.33647 4.32007,9.0104 1.86601,3.67325 4.98604,4.26407 4.98604,4.26407 -0.3873,0.24049 -1.95822,0.6837 -4.41434,-1.60573 -2.45344,-2.28883 -2.56544,-4.76347 -3.80176,-7.8473 -1.2369,-3.08244 -2.84274,-4.28255 -4.91087,-4.44916 -2.06891,-0.1667 -5.00386,0.99792 -5.89107,3.39734 -0.88451,2.40013 0.04641,4.30375 0.04641,4.30375 0.5178,0.84762 1.01161,2.17133 0.73431,3.16575 -0.27661,0.99311 -0.61342,0.46582 -1.01093,0.5697 -0.39819,0.10382 -0.56282,0.38112 -0.56282,0.38112 0,0 0.29442,0.1981 0.70833,0.12088 0.41602,-0.07859 0.66661,-0.10318 0.89131,0.53611 0.22541,0.64002 -0.2602,1.35724 -0.95959,1.25342 -0.70154,-0.10379 -0.83052,-1.27041 -0.83052,-1.27041 -0.39961,0.54771 0.10448,1.19873 0.10448,1.19873"
               style="fill:#000000;fill-opacity:1;fill-rule:nonzero;stroke:#000000;stroke-width:0.3985;stroke-linecap:butt;stroke-linejoin:miter;stroke-miterlimit:10;stroke-dasharray:none;stroke-opacity:1"
               id="path24" /><path
               d="m 19.06853,9.703 c 0,0 -1.81002,-2.11882 -5.78868,-0.7391 -3.97855,1.38182 -6.81307,3.52783 -7.24279,6.02908 -0.42891,2.50124 1.61951,2.95334 3.35845,2.09552 1.74031,-0.85722 2.09762,-2.09552 1.35782,-2.64403 -0.73761,-0.5477 -2.28673,0.07109 -2.61936,0.73841 0,0 -0.32438,0.49932 0.07383,0.70961 0.3968,0.2111 0.94729,0 0.7957,0.32861 -0.15229,0.3264 -1.17142,0.2691 -1.27662,-0.5389 -0.10449,-0.80871 0.66802,-1.81483 1.97805,-1.96713 1.3121,-0.1523 2.48283,1.0183 1.20619,2.52923 -1.27582,1.51011 -3.69855,2.34133 -5.03386,0.72471 0,0 -1.00131,-1.17073 0.1066,-3.55795 1.10711,-2.38782 3.10223,-4.08646 6.15397,-4.89855 3.05315,-0.81282 6.2312,-0.52322 6.9307,1.19049"
               style="fill:#000000;fill-opacity:1;fill-rule:nonzero;stroke:#000000;stroke-width:0.3985;stroke-linecap:butt;stroke-linejoin:miter;stroke-miterlimit:10;stroke-dasharray:none;stroke-opacity:1"
               id="path26" /><path
               d="m 8.68451,8.02618 c 0,0 0.6434,0.11881 0.67619,0.30462 C 9.39551,8.51721 8.888,8.4995 8.68451,8.02618 M 4.30083,21.66956 c 0,0 0.98153,-0.37301 1.38722,0.0505 0.4071,0.42279 -0.2363,0.69391 -1.38722,-0.0505 M 0.6105,13.84886 C 1.0326,11.09023 3.65742,8.90659 5.72226,8.3308 7.78767,7.75569 8.17769,8.05959 8.6674,8.44958 9.1585,8.83891 9.92082,8.6019 9.42831,8.1272 8.9386,7.65318 7.7201,7.53578 7.7201,7.53578 c 0,0 -0.96584,-1.62562 -2.38715,-3.41995 C 3.91223,2.32082 3.23401,2.52512 2.03181,2.16922 0.8304,1.8147 0.5593,1.2055 0.5593,1.2055 c 0,0 0.1017,0.1844 0.8134,0.1844 0.7104,0 0.89622,0.39002 0.89622,0.39002 L 2.55573,1.0183 c 0,0 0.20489,-0.2028 0.7964,0.6762 0.59291,0.88182 0.8128,0.72881 0.8128,0.72881 -0.4221,-0.9986 0.38861,-1.33801 0.38861,-1.33801 0.38941,0.1024 0.72882,1.30381 0.72882,1.30381 0,0 0.558,-0.47331 1.16732,-1.08251 C 7.05818,0.6973 7.16138,1.103 7.38129,0.9166 7.60057,0.7308 7.1942,0.01909 7.1942,0.01909 c 0,0 -0.10042,-0.06757 -0.72742,0.55941 C 5.84036,1.2055 5.38275,1.3571 5.38275,1.3571 4.72365,0.13928 4.09663,0.07028 4.09663,0.07028 c 0,0 0.40709,0.5929 0.05121,0.7793 C 3.79274,1.0354 3.69023,1.3735 3.69023,1.3735 c 0,0 -0.21989,-0.2527 -0.6775,-0.4904 -0.457,-0.23771 -0.32041,-0.89749 -0.32041,-0.89749 -0.4234,0.22058 -0.5758,1.15159 -0.5758,1.15159 0,0 -0.49042,-0.28762 -1.11672,-0.27122 C 0.37349,0.8831 0.08658,0.45958 0.08658,0.45958 -0.15108,1.577 0.6959,2.0504 2.30232,2.54152 3.91084,3.03323 4.23123,3.33783 5.26524,4.64105 6.29736,5.94356 7.41548,7.5692 7.41548,7.5692 c -3.01423,0 -5.45128,1.5238 -6.73739,4.06193 -1.28539,2.53943 -0.65981,6.66968 1.16732,8.44692 1.82842,1.7765 2.99573,2.50534 4.07895,2.35303 C 7.00838,22.27878 6.66885,21.58485 5.56995,21.29655 4.46884,21.00906 4.01123,21.56706 4.01123,21.56706 1.0326,19.65465 0.18698,16.60829 0.6105,13.84886 Z"
               style="fill:#000000;fill-opacity:1;fill-rule:nonzero;stroke:#000000;stroke-width:0.3985;stroke-linecap:butt;stroke-linejoin:miter;stroke-miterlimit:10;stroke-dasharray:none;stroke-opacity:1"
               id="path28" /></g></g></g></g></g></svg>
