<?xml version="1.0" encoding="UTF-8" standalone="no"?>
<svg
   xmlns:dc="http://purl.org/dc/elements/1.1/"
   xmlns:cc="http://creativecommons.org/ns#"
   xmlns:rdf="http://www.w3.org/1999/02/22-rdf-syntax-ns#"
   xmlns:svg="http://www.w3.org/2000/svg"
   xmlns="http://www.w3.org/2000/svg"
   xmlns:sodipodi="http://sodipodi.sourceforge.net/DTD/sodipodi-0.dtd"
   xmlns:inkscape="http://www.inkscape.org/namespaces/inkscape"
   version="1.1"
   id="svg2"
   xml:space="preserve"
   width="199.65443"
   height="99.139236"
   viewBox="0 0 199.65443 99.139236"
   sodipodi:docname="vectorian137.pdf"><metadata
     id="metadata8"><rdf:RDF><cc:Work
         rdf:about=""><dc:format>image/svg+xml</dc:format><dc:type
           rdf:resource="http://purl.org/dc/dcmitype/StillImage" /></cc:Work></rdf:RDF></metadata><defs
     id="defs6"><clipPath
       clipPathUnits="userSpaceOnUse"
       id="clipPath30"><path
         d="M 0,0 H 149.43233 V 74.15605 H 0 Z"
         id="path28" /></clipPath></defs><sodipodi:namedview
     pagecolor="#ffffff"
     bordercolor="#666666"
     borderopacity="1"
     objecttolerance="10"
     gridtolerance="10"
     guidetolerance="10"
     inkscape:pageopacity="0"
     inkscape:pageshadow="2"
     inkscape:window-width="640"
     inkscape:window-height="480"
     id="namedview4" /><g
     id="g10"
     inkscape:groupmode="layer"
     inkscape:label="vectorian137"
     transform="matrix(1.3333333,0,0,-1.3333333,0.20565828,99.139234)"><g
       id="g12"
       transform="translate(72,2.824)"><g
         id="g14"
         transform="translate(-72,-2.824)"><g
           id="g16"><g
             id="g18"><path
               d="m 53.12546,39.5815 c 0.93501,-1.44803 3.86188,-0.18439 3.86188,-0.18439 -3.33327,3.39462 -4.79699,1.62561 -3.86188,0.18439 m 0.26431,-10.47074 c 0,0 1.19942,2.03542 1.23972,3.27166 0.041,1.2431 -0.67072,2.17881 -1.28072,0.6694 -0.60851,-1.50262 0.041,-3.94106 0.041,-3.94106 m -7.9469,4.75386 c 0,0 3.15006,0.83323 4.00385,1.83042 0.85441,0.99722 -0.42692,1.99443 -1.66662,1.07922 -1.23962,-0.91522 -2.33723,-2.90964 -2.33723,-2.90964 m -6.21968,4.37136 c 0,0 3.69925,0.38931 5.26477,1.50262 1.56482,1.12012 0.3661,2.21982 -1.48422,1.55042 -1.84964,-0.67621 -3.51555,-2.26073 -3.78055,-3.05304 m -6.80827,4.53526 c 0,0 3.78044,0.87421 4.36993,1.94662 0.5894,1.07911 -1.36201,1.42753 -2.70343,0.5942 -1.34072,-0.83332 -1.6665,-2.54082 -1.6665,-2.54082 m -10.71126,3.37415 c 0,0 4.41096,0.48489 5.60968,1.5231 1.19873,1.03824 -3.02854,2.19244 -5.60968,-1.5231 m -0.36539,0.0204 c 0.75949,1.55732 2.0381,2.15841 2.0381,2.15841 2.63726,1.47533 5.9144,0.67623 4.55577,-0.683 -1.35922,-1.35922 -6.35408,-1.87832 -6.35408,-1.87832 1.27921,-4.59678 10.42974,-3.11464 10.42974,-3.11464 1.15841,4.71286 5.43408,3.83864 5.31457,2.35643 -0.12021,-1.47533 -4.87537,-2.91643 -4.87537,-2.91643 1.55863,-3.71565 6.2339,-3.79765 6.2339,-3.79765 0,0 0.4392,1.5983 3.59544,3.12143 3.15692,1.51631 4.35635,-0.724 2.1576,-2.11743 -2.19722,-1.40012 -5.51396,-1.63921 -5.51396,-1.63921 -0.8388,-4.87677 6.03379,-3.92056 6.03379,-3.92056 2.55723,4.95877 5.87397,4.27575 5.03456,2.24034 -0.83872,-2.03545 -5.23397,-3.11464 -5.23397,-3.11464 -1.79773,-3.55855 0.39951,-6.47501 3.11664,-6.55699 2.71704,-0.08199 5.35417,2.63644 5.35417,2.63644 -0.67961,1.40021 -0.47952,3.03952 -0.47952,3.03952 0.23982,2.63645 1.87835,2.95743 2.19803,1.16112 0.31962,-1.80321 -1.35851,-4.39867 -1.35851,-4.39867 1.75802,-1.6802 4.87537,0.19803 5.15476,3.75655 0.27931,3.55856 -1.6386,6.7142 -1.6386,6.7142 -3.47656,-2.47943 -5.87399,1.55721 -4.07626,2.35643 1.79843,0.79912 4.43626,-1.96031 4.43626,-1.96031 2.19722,1.80321 1.55791,5.23875 1.55791,5.23875 -0.99921,4.51476 -5.63428,7.02828 -5.63428,7.02828 C 46.51178,55.5164 38.12088,53.99329 25.65363,51.35675 13.18645,48.7203 1.838,53.83617 1.838,53.83617 6.11307,47.8461 21.33827,46.16579 21.33827,46.16579 M 0,55.1544 c 10.14972,-5.71687 21.73787,-3.35365 26.29292,-2.19932 4.55506,1.1611 7.15259,1.6802 7.15259,1.6802 11.98775,1.76224 21.97699,-1.47531 24.85452,-7.19218 2.87694,-5.71007 -0.71991,-8.11432 -0.71991,-8.11432 0,0 3.79696,-5.27295 0.99933,-9.22761 -2.79705,-3.95475 -5.11448,-1.63932 -5.11448,-1.63932 -2.39743,-2.71843 -5.59467,-3.87275 -8.27141,-1.79631 -2.67752,2.0764 -0.9187,6.07207 -0.9187,6.07207 -6.7134,-0.84012 -5.71418,4.83575 -5.71418,4.83575 -5.43476,-0.19799 -6.49206,4.33037 -6.49206,4.33037 C 22.24738,39.39711 21.28636,45.74918 21.28636,45.74918 8.5289,44.72467 0,55.1544 0,55.1544"
               style="fill:#000000;fill-opacity:1;fill-rule:nonzero;stroke:#000000;stroke-width:0.3985;stroke-linecap:butt;stroke-linejoin:miter;stroke-miterlimit:10;stroke-dasharray:none;stroke-opacity:1"
               id="path20" /><path
               d="m 96.30882,39.5815 c -0.93571,-1.44803 -3.86244,-0.18439 -3.86244,-0.18439 3.33385,3.39462 4.79617,1.62561 3.86244,0.18439 m -0.2657,-10.47074 c 0,0 -1.19931,2.03542 -1.23892,3.27166 -0.041,1.2431 0.6714,2.17881 1.28062,0.6694 0.60862,-1.50262 -0.0417,-3.94106 -0.0417,-3.94106 m 7.94771,4.75386 c 0,0 -3.14945,0.83323 -4.00385,1.83042 -0.85313,0.99722 0.4262,1.99443 1.66652,1.07922 1.2404,-0.91522 2.33733,-2.90964 2.33733,-2.90964 m 6.21957,4.37136 c 0,0 -3.69925,0.38931 -5.26405,1.50262 -1.56545,1.12012 -0.3661,2.21982 1.48351,1.55042 1.84964,-0.67621 3.51624,-2.26073 3.78054,-3.05304 m 6.8091,4.53526 c 0,0 -3.78125,0.87421 -4.36996,1.94662 -0.58881,1.07911 1.3612,1.42753 2.70332,0.5942 1.34014,-0.83332 1.66664,-2.54082 1.66664,-2.54082 m 10.71114,3.37415 c 0,0 -4.41097,0.48489 -5.61039,1.5231 -1.19929,1.03824 3.02855,2.19244 5.61039,-1.5231 m 0.36401,0.0204 c -0.75813,1.55732 -2.03743,2.15841 -2.03743,2.15841 -2.63855,1.47533 -5.91357,0.67623 -4.55508,-0.683 1.35783,-1.35922 6.3535,-1.87832 6.3535,-1.87832 -1.27863,-4.59678 -10.42905,-3.11464 -10.42905,-3.11464 -1.15842,4.71286 -5.43417,3.83864 -5.31465,2.35643 0.12019,-1.47533 4.87476,-2.91643 4.87476,-2.91643 -1.55802,-3.71565 -6.23398,-3.79765 -6.23398,-3.79765 0,0 -0.43912,1.5983 -3.59546,3.12143 -3.15753,1.51631 -4.35555,-0.724 -2.15761,-2.11743 2.19592,-1.40012 5.51266,-1.63921 5.51266,-1.63921 0.84011,-4.87677 -6.03178,-3.92056 -6.03178,-3.92056 -2.55794,4.95877 -5.87466,4.27575 -5.03586,2.24034 0.8401,-2.03545 5.23535,-3.11464 5.23535,-3.11464 1.79834,-3.55855 -0.39959,-6.47501 -3.11802,-6.55699 -2.71573,-0.08199 -5.35286,2.63644 -5.35286,2.63644 0.67888,1.40021 0.4781,3.03952 0.4781,3.03952 -0.23901,2.63645 -1.87762,2.95743 -2.19794,1.16112 -0.31971,-1.80321 1.35923,-4.39867 1.35923,-4.39867 -1.75812,-1.6802 -4.87607,0.19803 -5.15409,3.75655 -0.2807,3.55856 1.63854,6.7142 1.63854,6.7142 3.47525,-2.47943 5.87336,1.55721 4.07565,2.35643 -1.79912,0.79912 -4.43626,-1.96031 -4.43626,-1.96031 -2.19733,1.80321 -1.55863,5.23875 -1.55863,5.23875 0.99993,4.51476 5.63487,7.02828 5.63487,7.02828 6.87399,3.64056 15.26491,2.11745 27.73206,-0.51909 12.46657,-2.63645 23.81432,2.47942 23.81432,2.47942 -4.27434,-5.99007 -19.50034,-7.67038 -19.50034,-7.67038 m 21.33768,8.98861 c -10.14907,-5.71687 -21.7365,-3.35365 -26.29166,-2.19932 -4.55437,1.1611 -7.15259,1.6802 -7.15259,1.6802 -11.98708,1.76224 -21.9769,-1.47531 -24.85382,-7.19218 -2.87684,-5.71007 0.71919,-8.11432 0.71919,-8.11432 0,0 -3.79614,-5.27295 -0.99848,-9.22761 2.79621,-3.95475 5.11445,-1.63932 5.11445,-1.63932 2.39743,-2.71843 5.59397,-3.87275 8.27141,-1.79631 2.67673,2.0764 0.91861,6.07207 0.91861,6.07207 6.71348,-0.84012 5.71416,4.83575 5.71416,4.83575 5.43419,-0.19799 6.4901,4.33037 6.4901,4.33037 9.82252,-2.50662 10.78224,3.84545 10.78224,3.84545 12.75886,-1.02451 21.28639,9.40522 21.28639,9.40522"
               style="fill:#000000;fill-opacity:1;fill-rule:nonzero;stroke:#000000;stroke-width:0.3985;stroke-linecap:butt;stroke-linejoin:miter;stroke-miterlimit:10;stroke-dasharray:none;stroke-opacity:1"
               id="path22" /><path
               d="m 70.6559,59.25935 c 0,0 3.20132,-12.29437 -9.15042,-14.75331 0,0 6.17589,3.19656 7.20518,9.49404 1.02933,6.28378 0.80123,11.20845 3.48816,14.8079 2.68913,3.60643 6.06326,2.86194 6.29137,1.42751 0.22881,-1.42751 -1.88652,-2.51341 -1.88652,-3.25794 0,-0.74452 1.94322,-1.48901 2.68774,0.79911 0.74311,2.28813 0.40019,4.17326 3.26004,5.54617 2.85984,1.37282 5.03116,-0.79919 5.37537,-2.00133 0,0 -1.77313,2.11743 -4.69037,0.5738 0,0 -1.57841,-0.765 -2.65002,-3.29223 -1.07102,-2.52034 -1.79773,-3.59265 -2.93775,-4.41916 0,0 1.86673,0.10249 3.52506,2.34964 1.65982,2.24712 2.31613,3.03943 3.90623,3.21024 0,0 -3.59473,-1.93303 -5.21965,-7.32199 -1.62421,-5.39588 -1.45143,-14.2752 7.43199,-17.77225 0,0 -5.25447,0 -8.0529,3.83856 -2.80104,3.83855 -2.10913,8.60611 -2.10913,8.60611 0,0 -1.38242,-5.04756 1.14061,-8.84521 2.52313,-3.80435 8.19081,-4.42597 11.19813,-3.70197 0,0 -6.29127,0.90164 -8.57188,7.29471 -2.28065,6.39308 -0.86333,14.07028 5.35765,18.55775 0,0 -2.31482,0.2458 -3.94034,-1.72813 -1.62353,-1.96701 -1.45213,-2.48613 -3.14534,-3.52435 0,0 0.6577,0.90161 2.03952,3.42195 1.38172,2.52713 4.59737,5.18416 7.2919,1.65973 0,0 0.07037,2.73213 -2.69453,3.66783 -2.76485,0.92891 -5.46138,-0.73082 -6.35959,-3.42195 -0.89952,-2.69792 -1.10652,-3.77022 -1.93573,-3.49703 -0.8305,0.28 0.31081,0.65571 1.00132,2.11052 0.6926,1.45484 0.03489,3.25115 -2.93694,2.52713 -2.97324,-0.7308 -4.97717,-3.14872 -6.35968,-8.5036 -1.38371,-5.36166 -1.83252,-15.27919 -8.88332,-18.94705 0,0 4.07826,-0.5874 8.2263,2.76625 4.14797,3.35362 3.64046,9.23451 2.09754,12.32855"
               style="fill:#000000;fill-opacity:1;fill-rule:nonzero;stroke:#000000;stroke-width:0.3985;stroke-linecap:butt;stroke-linejoin:miter;stroke-miterlimit:10;stroke-dasharray:none;stroke-opacity:1"
               id="path24" /><g
               id="g26"
               clip-path="url(#clipPath30)"><path
                 d="m 74.90225,14.58966 h 1.26631 c 1.32982,-1.3318 3.69315,0.2937 5.46418,-1.9261 1.25541,-1.56413 0.59222,-3.39456 0.59222,-3.39456 -0.73972,4.57617 -5.7606,4.28247 -5.7606,4.28247 8.27072,-3.68827 3.83996,-7.97081 3.83996,-7.97081 1.47603,1.61871 0.77591,3.73614 -0.44261,4.72647 -2.36333,1.91931 -4.13705,3.39464 -4.13705,3.39464 0.59152,-3.10096 3.10224,-3.25115 3.98886,-5.75787 1.1208,-3.18285 -1.92073,-6.5024 -1.92073,-6.5024 2.21572,3.69514 1.47741,5.90817 0.14821,7.5338 -1.32982,1.62551 -2.36324,3.98886 -2.36324,3.98886 0.1469,-2.36335 0.8866,-2.80724 1.62422,-6.9464 0.73902,-4.13225 -2.06683,-6.05154 -2.06683,-6.05154 0,0 1.18103,1.03138 1.18103,4.57623 0,3.54485 -1.26644,5.46417 -1.41393,7.38348 -0.14821,-1.91931 -1.41452,-3.83863 -1.41452,-7.38348 0,-3.54485 1.18231,-4.57623 1.18231,-4.57623 0,0 -2.80654,1.91929 -2.0689,6.05154 0.7397,4.13916 1.47741,4.58305 1.62559,6.9464 0,0 -1.03271,-2.36335 -2.36323,-3.98886 -1.3292,-1.62563 -2.06751,-3.83866 0.14822,-7.5338 0,0 -3.04215,3.31955 -1.92003,6.5024 0.88591,2.50672 3.39604,2.65691 3.98686,5.75787 0,0 -1.77174,-1.47533 -4.13566,-3.39464 -1.21791,-0.99033 -1.92002,-3.10776 -0.4426,-4.72647 0,0 -4.43077,4.28254 3.84055,7.97081 0,0 -5.02228,0.2937 -5.76128,-4.28247 0,0 -0.66321,1.83043 0.59151,3.39456 1.77182,2.2198 4.13574,0.5943 5.46486,1.9261 z"
                 style="fill:#000000;fill-opacity:1;fill-rule:nonzero;stroke:#000000;stroke-width:0.3985;stroke-linecap:butt;stroke-linejoin:miter;stroke-miterlimit:10;stroke-dasharray:none;stroke-opacity:1"
                 id="path32" /><path
                 d="m 84.13608,20.77104 v 10.03365 c 0.30191,-1.05193 0.6953,-2.30184 1.16931,-3.90695 0.64819,-2.19933 0.28821,-4.42597 -1.16931,-6.1267 m -3.45815,-2.24711 c -0.0294,-0.0068 -0.05739,-0.0205 -0.0868,-0.02732 v 16.18083 h 1.25541 V 19.02933 c -0.34831,-0.1912 -0.74312,-0.3552 -1.16861,-0.5054 m -1.66322,16.15351 h 1.06081 V 18.31223 C 79.69641,18.1755 79.3433,18.03893 79.01471,17.90231 Z M 75.06485,15.08148 c 0,0 -0.68991,1.37972 -2.26492,2.16524 -0.09841,0.04779 -0.20491,0.09558 -0.31902,0.1366 h 0.13391 v 17.29412 h 1.10721 V 24.04959 h 0.51842 v 10.62785 h 1.05801 V 24.04959 h 0.5177 v 10.62785 h 1.01021 l 0.0587,-17.87474 c -0.79431,-0.51912 -1.36061,-1.0792 -1.82022,-1.72122 m -5.60077,3.13502 v 16.46094 h 0.76361 V 18.05943 h 0.517 v 16.61801 h 1.35312 V 17.513 c -0.71931,0.22542 -1.64951,0.40982 -2.63373,0.7035 m -4.34476,2.67066 c -2.26422,2.85503 -0.6311,7.88211 0,9.94483 0.40982,1.3455 0.7903,2.61593 0.99521,3.84545 h 0.07511 v -14.8558 c -0.38181,0.30051 -0.74312,0.6557 -1.07032,1.06552 m 2.96575,-2.15153 v 15.94181 h 0.86192 V 18.38052 c -0.30801,0.10241 -0.61812,0.22531 -0.92752,0.35511 z M 67.56865,34.67744 V 18.94743 c -0.293,0.14341 -0.58121,0.31411 -0.86261,0.49861 v 15.2314 z m 10.93043,0 V 17.67691 C 78.07079,17.47891 77.687,17.28079 77.342,17.08272 v 17.59472 z m -13.47876,5.80568 c 0,0 0.78751,0.7923 5.02227,-0.29372 4.23475,-1.086 7.9756,-4.23475 14.08117,-1.086 0,0 -0.5908,-1.96714 -0.6885,-4.03667 H 66.17323 c 0.2527,1.87143 0.04781,3.64735 -1.15291,5.41639 M 83.61967,32.36191 V 20.23146 c -0.36741,-0.34152 -0.78552,-0.65573 -1.25541,-0.93571 v 15.38169 h 1.0608 c 0.0013,-0.74452 0.19461,-2.31553 0.19461,-2.31553 m 2.47321,-6.84389 c -0.17828,2.76633 -2.16582,5.61447 -2.26421,9.15942 v 0.38929 c 0.0369,2.10373 0.78751,4.63086 0.78751,4.63086 -6.89371,-3.54485 -11.62096,0.39622 -14.7717,1.07923 -3.15074,0.68979 -5.51477,0.10239 -5.51477,0.10239 4.03876,-6.01057 -1.70681,-10.24533 -0.88511,-16.93892 0.68981,-5.60766 5.71138,-6.10628 8.07461,-6.59799 2.36334,-0.49179 3.38304,-2.75264 3.38304,-2.75264 1.21651,1.38654 2.50875,2.11054 4.06876,2.79366 0.79299,0.34829 1.60101,0.66248 2.49443,1.04499 3.93764,1.67333 4.82486,4.03667 4.62744,7.08971"
                 style="fill:#000000;fill-opacity:1;fill-rule:nonzero;stroke:#000000;stroke-width:0.3985;stroke-linecap:butt;stroke-linejoin:miter;stroke-miterlimit:10;stroke-dasharray:none;stroke-opacity:1"
                 id="path34" /><path
                 d="m 69.57469,43.90504 c -5.09668,0.66251 -9.37922,-1.2568 -9.37922,-1.2568 3.63095,1.16801 7.12658,0.6284 10.47273,-0.2117 l 0.6776,0.80591 c 0.59211,0.36889 0.51841,-0.22531 0.51841,-0.22531 l -0.472,-0.76502 c 0.73491,-0.1913 1.463,-0.39621 2.18163,-0.59421 l 0.65359,0.77182 c 0.59084,0.36882 0.51642,-0.2254 0.51642,-0.2254 l -0.457,-0.73772 c 2.35503,-0.63521 4.62616,-1.16111 6.80907,-1.03131 3.99156,0.23223 7.68062,3.69515 7.68062,3.69515 -8.12392,-5.17046 -14.1065,-0.888 -19.20185,-0.22541"
                 style="fill:#000000;fill-opacity:1;fill-rule:nonzero;stroke:#000000;stroke-width:0.3985;stroke-linecap:butt;stroke-linejoin:miter;stroke-miterlimit:10;stroke-dasharray:none;stroke-opacity:1"
                 id="path36" /><path
                 d="m 73.78343,21.97318 c -0.0614,2.07641 2.06824,2.51352 2.06824,-0.1503 0,0 -0.14751,-1.47533 -0.88651,-2.65694 0,0 -1.12024,0.7308 -1.18173,2.80724 m 15.36191,6.89167 c -0.22681,2.67743 -1.57573,3.74295 -2.26622,8.07331 -0.68782,4.33726 1.89742,7.19229 1.89742,7.19229 0,0 -2.98004,-2.75943 -2.98004,-7.19229 0,-4.42596 2.46293,-7.6771 2.36321,-12.50606 -0.09829,-4.82216 -1.67411,-7.18538 -4.92326,-8.46272 -3.04692,-1.20209 -6.70108,0.62843 -7.7926,2.32235 -0.073,0.10919 -0.24111,0.22539 -0.18228,0.3346 2.58522,4.55575 0.222,5.78527 -0.4433,5.78527 -0.66533,0 -1.80326,-0.35519 -1.69934,-2.43842 0.07509,-1.47533 1.35441,-3.34685 1.35441,-3.34685 -1.87152,-3.94095 -8.66551,-5.02017 -12.21104,1.07921 -3.54425,6.10618 0.7882,9.15931 1.37901,15.1631 0.59079,6.01057 -2.56003,7.3903 -2.56003,7.3903 0,0 2.43703,-1.89884 1.18102,-7.0693 -1.25472,-5.17047 -3.98757,-7.97091 -1.10722,-14.62348 2.88034,-6.6458 11.39755,-7.06251 13.71238,-2.23353 0,0 1.1317,-2.11733 4.38084,-2.93015 3.25056,-0.81282 5.51548,0.61472 6.4997,1.47531 3.66715,3.21025 3.69243,8.49002 3.39734,11.98706"
                 style="fill:#000000;fill-opacity:1;fill-rule:nonzero;stroke:#000000;stroke-width:0.3985;stroke-linecap:butt;stroke-linejoin:miter;stroke-miterlimit:10;stroke-dasharray:none;stroke-opacity:1"
                 id="path38" /><path
                 d="m 68.66287,38.3794 0.3019,-0.92895 h 0.97401 l -0.78819,-0.56689 0.30049,-0.92891 -0.78821,0.5737 -0.78621,-0.5737 0.30121,0.92891 -0.78752,0.56689 h 0.97263 z"
                 style="fill:#000000;fill-opacity:1;fill-rule:nonzero;stroke:#000000;stroke-width:0.3985;stroke-linecap:butt;stroke-linejoin:miter;stroke-miterlimit:10;stroke-dasharray:none;stroke-opacity:1"
                 id="path40" /><path
                 d="m 71.62372,38.3794 0.29989,-0.92895 h 0.97472 l -0.78821,-0.56689 0.30049,-0.92891 -0.78689,0.5737 -0.78612,-0.5737 0.2998,0.92891 -0.78752,0.56689 h 0.97262 z"
                 style="fill:#000000;fill-opacity:1;fill-rule:nonzero;stroke:#000000;stroke-width:0.3985;stroke-linecap:butt;stroke-linejoin:miter;stroke-miterlimit:10;stroke-dasharray:none;stroke-opacity:1"
                 id="path42" /><path
                 d="m 74.28204,38.3794 0.2999,-0.92895 h 0.97462 l -0.7875,-0.56689 0.30121,-0.92891 -0.78823,0.5737 -0.78682,-0.5737 0.30051,0.92891 -0.7868,0.56689 h 0.97329 z"
                 style="fill:#000000;fill-opacity:1;fill-rule:nonzero;stroke:#000000;stroke-width:0.3985;stroke-linecap:butt;stroke-linejoin:miter;stroke-miterlimit:10;stroke-dasharray:none;stroke-opacity:1"
                 id="path44" /><path
                 d="m 81.76054,38.3794 0.29909,-0.92895 h 0.97472 l -0.78751,-0.56689 0.29981,-0.92891 -0.78611,0.5737 -0.78692,-0.5737 0.29992,0.92891 -0.78762,0.56689 h 0.97271 z"
                 style="fill:#000000;fill-opacity:1;fill-rule:nonzero;stroke:#000000;stroke-width:0.3985;stroke-linecap:butt;stroke-linejoin:miter;stroke-miterlimit:10;stroke-dasharray:none;stroke-opacity:1"
                 id="path46" /><path
                 d="m 79.19981,38.3794 0.2999,-0.92895 h 0.97331 l -0.78691,-0.56689 0.30121,-0.92891 -0.78751,0.5737 -0.78751,-0.5737 0.2999,0.92891 -0.7862,0.56689 h 0.97401 z"
                 style="fill:#000000;fill-opacity:1;fill-rule:nonzero;stroke:#000000;stroke-width:0.3985;stroke-linecap:butt;stroke-linejoin:miter;stroke-miterlimit:10;stroke-dasharray:none;stroke-opacity:1"
                 id="path48" /><path
                 d="m 76.92877,38.3794 0.30191,-0.92895 h 0.97262 l -0.78753,-0.56689 0.29982,-0.92891 -0.78682,0.5737 -0.78612,-0.5737 0.29982,0.92891 -0.7875,0.56689 h 0.9747 z"
                 style="fill:#000000;fill-opacity:1;fill-rule:nonzero;stroke:#000000;stroke-width:0.3985;stroke-linecap:butt;stroke-linejoin:miter;stroke-miterlimit:10;stroke-dasharray:none;stroke-opacity:1"
                 id="path50" /></g></g></g></g></g></g></svg>
