<?xml version="1.0" encoding="UTF-8" standalone="no"?>
<svg
   xmlns:dc="http://purl.org/dc/elements/1.1/"
   xmlns:cc="http://creativecommons.org/ns#"
   xmlns:rdf="http://www.w3.org/1999/02/22-rdf-syntax-ns#"
   xmlns:svg="http://www.w3.org/2000/svg"
   xmlns="http://www.w3.org/2000/svg"
   xmlns:sodipodi="http://sodipodi.sourceforge.net/DTD/sodipodi-0.dtd"
   xmlns:inkscape="http://www.inkscape.org/namespaces/inkscape"
   version="1.1"
   id="svg2"
   xml:space="preserve"
   width="82.453331"
   height="41.706669"
   viewBox="0 0 82.453331 41.706669"
   sodipodi:docname="vectorian169.pdf"><metadata
     id="metadata8"><rdf:RDF><cc:Work
         rdf:about=""><dc:format>image/svg+xml</dc:format><dc:type
           rdf:resource="http://purl.org/dc/dcmitype/StillImage" /></cc:Work></rdf:RDF></metadata><defs
     id="defs6" /><sodipodi:namedview
     pagecolor="#ffffff"
     bordercolor="#666666"
     borderopacity="1"
     objecttolerance="10"
     gridtolerance="10"
     guidetolerance="10"
     inkscape:pageopacity="0"
     inkscape:pageshadow="2"
     inkscape:window-width="640"
     inkscape:window-height="480"
     id="namedview4" /><g
     id="g10"
     inkscape:groupmode="layer"
     inkscape:label="vectorian169"
     transform="matrix(1.3333333,0,0,-1.3333333,0,41.706667)"><g
       id="g12"
       transform="translate(72,-40.724)"><g
         id="g14"
         transform="translate(-71.587,41.282)"><g
           id="g16"><g
             id="g18"><path
               d="m 28.81885,23.48569 c 0,0 -11.12644,-5.13837 -23.09979,3.78254 0,0 6.9463,-5.92996 13.21577,-6.26809 6.26949,-0.3387 9.88402,2.48555 9.88402,2.48555"
               style="fill:#000000;fill-opacity:1;fill-rule:nonzero;stroke:#000000;stroke-width:0.3985;stroke-linecap:butt;stroke-linejoin:miter;stroke-miterlimit:10;stroke-dasharray:none;stroke-opacity:1"
               id="path20" /><path
               d="m 4.89395,22.34296 c 0,0 -0.959,-0.69118 -0.86951,-1.78331 0.0888,-1.09281 2.05114,-2.05182 3.36733,-0.69191 C 8.7079,21.22766 7.07828,24.48361 4.42604,24.6626 1.7732,24.83951 0.36758,22.14218 0.6797,19.80014 0.9918,17.4601 2.32991,16.1664 4.82765,14.51627 7.3248,12.86674 10.0897,10.72552 10.75832,7.26868 11.42703,3.81264 8.95311,0 5.02844,0 1.1032,0 0.01028,3.70193 0.7692,5.70865 1.5273,7.7154 4.04764,8.85258 6.05367,7.64778 8.06038,6.44356 8.10547,3.45473 6.21017,2.60843 4.31474,1.7615 3.22261,3.56743 3.26633,4.23744 c 0,0 1.60571,-1.22803 2.83174,0.28821 C 7.3248,6.04268 5.56267,8.0945 3.33324,7.5365 1.1032,6.97908 0.4563,4.07964 1.6837,2.25122 2.90901,0.4235 6.58847,-0.55728 8.72911,2.11801 10.87042,4.79414 9.645,8.9414 6.74556,11.41672 c -2.89941,2.47525 -6.13217,4.50517 -6.64578,7.6047 -0.51287,3.09896 0.98152,5.41849 3.56884,5.90888 2.58524,0.49042 4.70467,-1.57501 4.78527,-3.45883 0.0724,-1.74303 -1.53002,-3.56334 -3.96085,-2.80725 -2.43094,0.75822 -1.89543,3.83515 0.40091,3.67874"
               style="fill:#000000;fill-opacity:1;fill-rule:nonzero;stroke:#000000;stroke-width:0.3985;stroke-linecap:butt;stroke-linejoin:miter;stroke-miterlimit:10;stroke-dasharray:none;stroke-opacity:1"
               id="path22" /><path
               d="m 28.87625,23.48569 c 0,0 11.12575,-5.13837 23.09841,3.78254 0,0 -6.94628,-5.92996 -13.21508,-6.26809 -6.26878,-0.3387 -9.88333,2.48555 -9.88333,2.48555"
               style="fill:#000000;fill-opacity:1;fill-rule:nonzero;stroke:#000000;stroke-width:0.3985;stroke-linecap:butt;stroke-linejoin:miter;stroke-miterlimit:10;stroke-dasharray:none;stroke-opacity:1"
               id="path24" /><path
               d="m 52.79976,22.34296 c 0,0 0.95833,-0.69118 0.86951,-1.78331 -0.0888,-1.09281 -2.05043,-2.05182 -3.36733,-0.69191 -1.31484,1.35992 0.31279,4.61587 2.96632,4.79486 2.65296,0.17691 4.05787,-2.52042 3.74576,-4.86246 C 56.70181,17.4601 55.36308,16.1664 52.86737,14.51627 50.36884,12.86674 47.6047,10.72552 46.93527,7.26868 46.26727,3.81264 48.74191,0 52.66656,0 c 3.92396,0 5.01616,3.70193 4.25795,5.70865 -0.7581,2.00675 -3.27854,3.14393 -5.28457,1.93913 -2.00672,-1.20422 -2.05112,-4.19305 -0.15709,-5.03935 1.89612,-0.84693 2.98894,0.959 2.94524,1.62901 0,0 -1.60651,-1.22803 -2.83315,0.28821 -1.2261,1.51703 0.53612,3.56885 2.76485,3.01085 2.23073,-0.55742 2.87753,-3.45686 1.65081,-5.28528 -1.22601,-1.82772 -4.90545,-2.8085 -7.04599,-0.13321 -2.14062,2.67613 -0.91462,6.82339 1.98484,9.29871 2.89804,2.47525 6.13148,4.50517 6.64508,7.6047 0.5123,3.09896 -0.98213,5.41849 -3.56804,5.90888 -2.58666,0.49042 -4.70676,-1.57501 -4.78739,-3.45883 -0.07237,-1.74303 1.53144,-3.56334 3.96087,-2.80725 2.43163,0.75822 1.89543,3.83515 -0.40021,3.67874"
               style="fill:#000000;fill-opacity:1;fill-rule:nonzero;stroke:#000000;stroke-width:0.3985;stroke-linecap:butt;stroke-linejoin:miter;stroke-miterlimit:10;stroke-dasharray:none;stroke-opacity:1"
               id="path26" /><path
               d="m 29.80167,28.27306 c -0.5136,0.8961 -2.23682,0.61401 -2.30384,-0.6803 -0.06549,-1.29305 1.39202,-2.05524 1.39202,-2.05524 0.87912,0.6304 1.42683,1.84001 0.91182,2.73554 m -0.63451,0.9719 c 0,0 1.44601,-0.09219 1.62633,-1.44461 0.18031,-1.35643 -1.08402,-2.34823 -1.56554,-2.55923 0,0 2.94995,-2.52925 8.24822,0.3305 5.29818,2.85914 11.95015,5.14727 19.98936,-1.02383 0,0 -4.60706,3.19176 -9.48384,2.94934 C 43.10495,27.25734 40.5764,25.4508 36.57315,24.18721 32.57,22.9222 30.22108,23.97609 29.10777,24.63799 l -0.21792,0.17071 -0.3039,-0.17071 C 27.47264,23.97609 25.1244,22.9222 21.12115,24.18721 17.1173,25.4508 14.58878,27.25734 9.712,27.49713 4.83455,27.73955 0.22888,24.54779 0.22888,24.54779 c 8.03782,6.1711 14.69051,3.88297 19.98866,1.02383 5.29747,-2.85975 8.24881,-0.3305 8.24881,-0.3305 -0.4808,0.211 -1.74572,1.2028 -1.56613,2.55923 0.18102,1.35242 1.62563,1.44461 1.62563,1.44461 z"
               style="fill:#000000;fill-opacity:1;fill-rule:nonzero;stroke:#000000;stroke-width:0.3985;stroke-linecap:butt;stroke-linejoin:miter;stroke-miterlimit:10;stroke-dasharray:none;stroke-opacity:1"
               id="path28" /><path
               d="M 29.58447,15.7034 C 42.66443,15.6863 49.28421,11.52873 49.28421,11.52873 43.32965,15.9711 33.1663,16.7456 29.63986,16.88292 H 28.25735 C 24.7439,16.74841 14.56207,15.97728 8.59729,11.52873 c 0,0 6.63759,4.16776 19.75166,4.17467 z"
               style="fill:#000000;fill-opacity:1;fill-rule:nonzero;stroke:#000000;stroke-width:0.3985;stroke-linecap:butt;stroke-linejoin:miter;stroke-miterlimit:10;stroke-dasharray:none;stroke-opacity:1"
               id="path30" /><path
               d="M 29.93556,10.75484 C 39.9412,10.49323 47.19969,7.88138 47.19969,7.88138 c -5.60287,2.60364 -13.58948,3.71295 -17.07762,3.96496 -1.0116,0.07239 -2.10171,0.0034 -2.10171,0.0034 -3.46767,-0.33739 -11.48836,-1.3578 -17.10692,-3.96835 0,0 7.23588,2.60304 17.21492,2.87144 l 1.8072,0.002 z"
               style="fill:#000000;fill-opacity:1;fill-rule:nonzero;stroke:#000000;stroke-width:0.3985;stroke-linecap:butt;stroke-linejoin:miter;stroke-miterlimit:10;stroke-dasharray:none;stroke-opacity:1"
               id="path32" /><path
               d="M 29.78737,8.68669 C 39.7144,8.4251 46.91959,5.81386 46.91959,5.81386 41.35771,8.4162 33.43471,9.52611 29.97388,9.77812 28.96976,9.85051 27.88725,9.78151 27.88725,9.78151 24.44821,9.44551 16.48889,8.4244 10.91344,5.81386 c 0,0 7.17918,2.60234 17.08099,2.87005 z"
               style="fill:#000000;fill-opacity:1;fill-rule:nonzero;stroke:#000000;stroke-width:0.3985;stroke-linecap:butt;stroke-linejoin:miter;stroke-miterlimit:10;stroke-dasharray:none;stroke-opacity:1"
               id="path34" /></g></g></g></g></g></svg>
