<?xml version="1.0" encoding="UTF-8" standalone="no"?>
<svg
   xmlns:dc="http://purl.org/dc/elements/1.1/"
   xmlns:cc="http://creativecommons.org/ns#"
   xmlns:rdf="http://www.w3.org/1999/02/22-rdf-syntax-ns#"
   xmlns:svg="http://www.w3.org/2000/svg"
   xmlns="http://www.w3.org/2000/svg"
   xmlns:sodipodi="http://sodipodi.sourceforge.net/DTD/sodipodi-0.dtd"
   xmlns:inkscape="http://www.inkscape.org/namespaces/inkscape"
   version="1.1"
   id="svg2"
   xml:space="preserve"
   width="95.893333"
   height="76.080002"
   viewBox="0 0 95.893333 76.080002"
   sodipodi:docname="vectorian023.pdf"><metadata
     id="metadata8"><rdf:RDF><cc:Work
         rdf:about=""><dc:format>image/svg+xml</dc:format><dc:type
           rdf:resource="http://purl.org/dc/dcmitype/StillImage" /></cc:Work></rdf:RDF></metadata><defs
     id="defs6"><clipPath
       clipPathUnits="userSpaceOnUse"
       id="clipPath24"><path
         d="M -0.37999,-0.8 H 68.22089 V 56.26073 H -0.37999 Z"
         id="path22" /></clipPath></defs><sodipodi:namedview
     pagecolor="#ffffff"
     bordercolor="#666666"
     borderopacity="1"
     objecttolerance="10"
     gridtolerance="10"
     guidetolerance="10"
     inkscape:pageopacity="0"
     inkscape:pageshadow="2"
     inkscape:window-width="640"
     inkscape:window-height="480"
     id="namedview4" /><g
     id="g10"
     inkscape:groupmode="layer"
     inkscape:label="vectorian023"
     transform="matrix(1.3333333,0,0,-1.3333333,0,76.08)"><g
       id="g12"
       transform="translate(72,-14.94)"><g
         id="g14"
         transform="translate(-71.62,15.74)"><g
           id="g16"><g
             id="g18"><g
               id="g20"
               clip-path="url(#clipPath24)"><path
                 d="m 22.24506,21.40186 c -4.94724,3.11524 -8.65931,4.81765 -11.36654,5.74728 h 15.51862 c 3.60162,-5.50407 9.73131,-3.52965 9.73131,-3.52965 13.34578,3.07045 31.90921,4.37445 31.90921,4.37445 -16.7218,1.60643 -27.46116,3.90726 -33.06123,5.21446 -4.55045,1.05762 -7.6305,-3.20004 -8.62571,-4.83204 H 11.10094 c 2.68643,0.94401 6.33767,2.64161 11.14412,5.67207 12.65619,7.97771 19.63707,18.64023 20.48028,21.40025 0,0 -7.97772,-8.89768 -22.09309,-12.88655 0,0 -11.35054,-2.14883 -4.90727,-9.89613 0,0 -2.76163,-3.39043 -8.73771,-4.43684 -0.30879,1.54081 -1.624,2.70242 -3.22883,2.80644 v 2.55522 c 0,0 5.83047,1.60802 4.52486,6.51688 -1.30402,4.91046 -4.14248,6.6721 -4.83207,14.03857 0,0 -2.99043,-4.37285 -3.37445,-11.27693 -0.38397,-6.90248 2.99205,-8.97454 2.99205,-8.97454 v -2.88 C 1.33922,30.78598 0,29.32515 0,27.53314 0,25.74272 1.33922,24.27869 3.06883,24.05148 v -2.49601 c 0,0 -3.37602,-2.07203 -2.99205,-8.97612 C 0.4608,5.67686 3.45123,1.304 3.45123,1.304 4.14082,8.6657 6.97928,10.43213 8.2833,15.34259 9.58891,20.25145 3.75844,21.86105 3.75844,21.86105 v 2.16964 c 1.73121,0.11201 3.11204,1.46561 3.26724,3.18405 5.94887,-1.05762 8.6993,-4.43206 8.6993,-4.43206 -6.44327,-7.7505 4.90727,-9.89453 4.90727,-9.89453 C 34.74762,8.90091 42.72534,0 42.72534,0 41.88213,2.76323 34.90125,13.42416 22.24506,21.40186 Z"
                 style="fill:#000000;fill-opacity:1;fill-rule:nonzero;stroke:#000000;stroke-width:0.3985;stroke-linecap:butt;stroke-linejoin:miter;stroke-miterlimit:10;stroke-dasharray:none;stroke-opacity:1"
                 id="path26" /></g></g></g></g></g></g></svg>
