<?xml version="1.0" encoding="UTF-8" standalone="no"?>
<svg
   xmlns:dc="http://purl.org/dc/elements/1.1/"
   xmlns:cc="http://creativecommons.org/ns#"
   xmlns:rdf="http://www.w3.org/1999/02/22-rdf-syntax-ns#"
   xmlns:svg="http://www.w3.org/2000/svg"
   xmlns="http://www.w3.org/2000/svg"
   xmlns:sodipodi="http://sodipodi.sourceforge.net/DTD/sodipodi-0.dtd"
   xmlns:inkscape="http://www.inkscape.org/namespaces/inkscape"
   version="1.1"
   id="svg2"
   xml:space="preserve"
   width="64.946671"
   height="42.746666"
   viewBox="0 0 64.946671 42.746666"
   sodipodi:docname="vectorian181.pdf"><metadata
     id="metadata8"><rdf:RDF><cc:Work
         rdf:about=""><dc:format>image/svg+xml</dc:format><dc:type
           rdf:resource="http://purl.org/dc/dcmitype/StillImage" /></cc:Work></rdf:RDF></metadata><defs
     id="defs6" /><sodipodi:namedview
     pagecolor="#ffffff"
     bordercolor="#666666"
     borderopacity="1"
     objecttolerance="10"
     gridtolerance="10"
     guidetolerance="10"
     inkscape:pageopacity="0"
     inkscape:pageshadow="2"
     inkscape:window-width="640"
     inkscape:window-height="480"
     id="namedview4" /><g
     id="g10"
     inkscape:groupmode="layer"
     inkscape:label="vectorian181"
     transform="matrix(1.3333333,0,0,-1.3333333,0,42.746667)"><g
       id="g12"
       transform="translate(72,-39.94)"><g
         id="g14"
         transform="translate(-70.934,40.608)"><g
           id="g16"><g
             id="g18"><path
               d="m 21.85866,19.48242 c 2.30932,0 7.4497,0.18852 13.04507,1.61743 5.59457,1.42823 7.95172,3.73746 7.95172,4.97448 0,1.23831 -2.99986,2.47522 -6.18889,1.92881 -3.19033,-0.5478 -4.00047,-1.64262 -4.00047,-2.28602 0,-0.64211 0.90434,-1.18993 1.59554,-0.69062 0.68989,0.50141 -0.02462,1.64274 -0.02462,1.64274 0,0 1.00072,-0.52392 0.52462,-1.52254 -0.47611,-1.0006 -2.26283,-0.90502 -2.47524,0.38121 -0.21519,1.28403 1.42684,2.04692 1.42684,2.04692 0,0 -1.57103,1.47604 -4.49778,1.21312 -2.93013,-0.2623 -4.50044,-1.142 -4.71355,-2.02313 -0.21441,-0.88041 0.81011,-1.1652 1.1899,-0.5949 0.38112,0.5717 -0.14418,1.07031 -0.14418,1.07031 0.263,-0.0233 0.8347,-0.28549 0.6202,-1.07031 -0.21441,-0.78482 -1.66592,-0.97601 -1.97591,0.07172 -0.30942,1.0484 1.00189,1.85991 1.00189,1.85991 -1.24371,0.88382 -3.37062,0.92341 -3.37062,0.92341 h -0.38463 c 0,0 -2.1262,-0.03959 -3.37004,-0.92341 0,0 1.31142,-0.81151 1.00131,-1.85991 -0.3087,-1.04773 -1.76012,-0.85654 -1.97662,-0.07172 -0.2124,0.78482 0.35931,1.04701 0.62091,1.07031 0,0 -0.5246,-0.49861 -0.14279,-1.07031 0.37979,-0.5703 1.40431,-0.28551 1.1898,0.5949 -0.21442,0.88113 -1.78613,1.76083 -4.71415,2.02313 -2.92745,0.26292 -4.49917,-1.21312 -4.49917,-1.21312 0,0 1.64344,-0.76289 1.42892,-2.04692 C 10.76294,24.24168 8.9768,24.1461 8.50009,25.1467 c -0.47612,0.99862 0.5246,1.52254 0.5246,1.52254 0,0 -0.71379,-1.14133 -0.02329,-1.64274 0.68921,-0.49931 1.59423,0.04851 1.59423,0.69062 0,0.6434 -0.80941,1.73822 -3.99977,2.28602 -3.19045,0.54641 -6.18816,-0.6905 -6.18816,-1.92881 0,-1.23702 2.35643,-3.54625 7.9503,-4.97448 5.59465,-1.42891 10.73512,-1.61743 13.04576,-1.61743 z m -0.541,-1.08801 c -5.65536,0 -12.87627,1.16183 -17.57073,3.72996 -4.69373,2.56813 -4.81253,5.13567 -1.28341,6.33847 3.52984,1.20342 6.77969,-0.68101 6.77969,-0.68101 3.97174,3.61046 8.6252,0.48022 8.6252,0.48022 1.60441,1.44591 3.69105,1.44591 3.69105,1.44591 h 0.1435 c 0,0 2.08594,0 3.69105,-1.44591 0,0 4.65207,3.13024 8.62522,-0.48022 0,0 3.24913,1.88443 6.77957,0.68101 3.52925,-1.2028 3.40974,-3.77034 -1.284,-6.33847 -4.69377,-2.56813 -11.91467,-3.72996 -17.57074,-3.72996 z"
               style="fill:#000000;fill-opacity:1;fill-rule:nonzero;stroke:#000000;stroke-width:0.3985;stroke-linecap:butt;stroke-linejoin:miter;stroke-miterlimit:10;stroke-dasharray:none;stroke-opacity:1"
               id="path20" /><path
               d="m 9.8914,24.27179 c 0,0 3.99637,-3.16924 12.19808,-3.16924 8.20111,0 11.04313,3.13913 11.04313,3.13913 0,0 -3.34474,-3.87884 -11.13255,-3.87884 -7.78789,0 -12.10866,3.90895 -12.10866,3.90895"
               style="fill:#000000;fill-opacity:1;fill-rule:nonzero;stroke:#000000;stroke-width:0.3985;stroke-linecap:butt;stroke-linejoin:miter;stroke-miterlimit:10;stroke-dasharray:none;stroke-opacity:1"
               id="path22" /><path
               d="m 17.26399,24.24168 c 0,0 1.89394,-1.39061 4.52977,-1.39061 2.63374,0 4.91368,1.71643 4.91368,1.71643 0,0 -1.51013,-2.60572 -5.00389,-2.60572 0,0 -2.27922,-0.17752 -4.43956,2.2799"
               style="fill:#000000;fill-opacity:1;fill-rule:nonzero;stroke:#000000;stroke-width:0.3985;stroke-linecap:butt;stroke-linejoin:miter;stroke-miterlimit:10;stroke-dasharray:none;stroke-opacity:1"
               id="path24" /><path
               d="m 28.60147,3.68964 c 0,0 2.76961,-2.47394 6.60887,-2.84415 3.84134,-0.36951 3.21164,1.77243 0.70151,2.77034 -2.50945,0.99722 -7.31038,0.07381 -7.31038,0.07381 M 7.45578,3.61583 C 4.94365,2.61792 4.31795,0.47598 8.1572,0.84549 c 3.83934,0.37021 6.61029,2.84415 6.61029,2.84415 0,0 -4.80028,0.92341 -7.31171,-0.07381 M 21.70567,0.09758 21.41336,0.29088 C 19.01312,1.9158 16.6499,3.13432 16.6499,3.13432 14.17537,0.18088 7.60397,-0.6681 5.83156,0.5142 c -1.77382,1.181 -0.0745,2.58323 -0.0745,2.58323 3.06545,2.51143 9.33011,0.93641 9.33011,0.93641 0,0 1.82163,1.0587 2.90553,3.76613 1.08263,2.70685 1.10723,7.31111 -0.66589,9.18332 -1.77173,1.86943 -4.82417,1.42684 -5.46487,0.39342 -0.6393,-1.03481 -0.36951,-2.56062 0.95959,-2.70894 1.32994,-0.14751 1.87226,1.25613 1.87226,1.25613 0.04849,-0.81282 -1.03414,-2.04364 -2.43773,-1.42823 -1.40294,0.61541 -1.13243,1.99373 -1.13243,1.99373 0.29501,2.36332 3.24563,2.16523 3.24563,2.16523 4.86386,-0.16942 6.3631,-6.31459 5.25179,-10.01654 C 18.50774,4.93675 16.8617,3.36383 16.8617,3.36383 18.86974,2.51682 21.58066,0.7267 21.58066,0.7267 l 0.12501,-0.06831 0.08199,0.06831 c 0,0 2.70884,1.79012 4.71828,2.63713 0,0 -1.64614,1.57292 -2.75666,5.27426 -1.11471,3.70195 0.38662,9.84712 5.24897,10.01654 0,0 2.95005,0.19809 3.24577,-2.16523 0,0 0.27048,-1.37832 -1.13173,-1.99373 -1.40363,-0.61541 -2.48764,0.61541 -2.43774,1.42823 0,0 0.5409,-1.40364 1.87083,-1.25613 1.32842,0.14832 1.60092,1.67413 0.9603,2.70894 -0.64071,1.03342 -3.69173,1.47601 -5.46556,-0.39342 -1.77172,-1.87221 -1.74781,-6.47647 -0.6646,-9.18332 1.0833,-2.70743 2.90564,-3.76613 2.90564,-3.76613 0,0 6.26529,1.57502 9.32931,-0.93641 0,0 1.69872,-1.40223 -0.07441,-2.58323 -1.7724,-1.1823 -8.3445,-0.33332 -10.81842,2.62012 0,0 -2.36324,-1.21852 -4.76337,-2.84344 z"
               style="fill:#000000;fill-opacity:1;fill-rule:nonzero;stroke:#000000;stroke-width:0.3985;stroke-linecap:butt;stroke-linejoin:miter;stroke-miterlimit:10;stroke-dasharray:none;stroke-opacity:1"
               id="path26" /></g></g></g></g></g></svg>
