<?xml version="1.0" encoding="UTF-8" standalone="no"?>
<svg
   xmlns:dc="http://purl.org/dc/elements/1.1/"
   xmlns:cc="http://creativecommons.org/ns#"
   xmlns:rdf="http://www.w3.org/1999/02/22-rdf-syntax-ns#"
   xmlns:svg="http://www.w3.org/2000/svg"
   xmlns="http://www.w3.org/2000/svg"
   xmlns:sodipodi="http://sodipodi.sourceforge.net/DTD/sodipodi-0.dtd"
   xmlns:inkscape="http://www.inkscape.org/namespaces/inkscape"
   version="1.1"
   id="svg2"
   xml:space="preserve"
   width="96.952522"
   height="38.546101"
   viewBox="0 0 96.952523 38.546101"
   sodipodi:docname="vectorian109.pdf"><metadata
     id="metadata8"><rdf:RDF><cc:Work
         rdf:about=""><dc:format>image/svg+xml</dc:format><dc:type
           rdf:resource="http://purl.org/dc/dcmitype/StillImage" /></cc:Work></rdf:RDF></metadata><defs
     id="defs6" /><sodipodi:namedview
     pagecolor="#ffffff"
     bordercolor="#666666"
     borderopacity="1"
     objecttolerance="10"
     gridtolerance="10"
     guidetolerance="10"
     inkscape:pageopacity="0"
     inkscape:pageshadow="2"
     inkscape:window-width="640"
     inkscape:window-height="480"
     id="namedview4" /><g
     id="g10"
     inkscape:groupmode="layer"
     inkscape:label="vectorian109"
     transform="matrix(1.3333333,0,0,-1.3333333,-1.9449239,39.337046)"><g
       id="g12"
       transform="translate(72,-41.499)"><g
         id="g14"
         transform="translate(-70.342,42.292)"><g
           id="g16"><g
             id="g18"><path
               d="m 8.8664,9.3986 c 0.62771,0 0.7752,-0.70082 -0.77521,-0.73771 0,0 0.14751,0.73771 0.77521,0.73771 M 19.02094,7.20877 c -1.27933,0.83672 -3.69246,0.59021 -4.23346,0.59021 -0.54232,0 -0.09902,-0.24658 2.41182,-0.44261 2.51144,-0.19669 3.05305,-1.82303 3.05305,-1.82303 -2.01905,1.62634 -3.24975,0.83742 -3.24975,0.83742 1.2307,-0.6386 1.27993,-1.96852 1.27993,-1.96852 -0.19671,0.24591 -1.18164,0.88522 -1.18164,0.88522 -1.37831,0.9364 -1.9691,0.73901 -1.9691,0.73901 0,0 1.13241,-0.7882 1.13241,-1.32983 0,-0.5403 -0.4924,-0.24521 -0.4924,-0.24521 C 14.44257,6.86317 12.66945,6.81398 11.34103,6.91306 10.01112,7.01138 9.51941,7.15968 8.73119,7.60219 7.943,8.04549 8.1404,8.48949 8.1404,8.48949 L 8.31248,8.43889 C 9.56851,8.36519 10.30621,9.3986 9.199,9.6206 8.09119,9.84181 7.64857,8.7347 7.64857,8.7347 5.28534,8.51271 3.65973,11.02414 3.65973,11.02414 4.62004,8.36519 7.64857,8.36519 7.64857,8.36519 c 0,-2.51152 2.28885,-2.06752 4.79958,-2.43703 2.51083,-0.36951 3.96365,-2.60913 3.96365,-2.60913 0.1967,0.78752 0.0983,1.77101 0.0983,1.77101 0.59079,0 2.06821,-1.27931 2.06821,-1.27931 0.14752,1.42754 -0.64,2.21574 -0.64,2.21574 0.98492,0.0492 1.96983,-0.5409 2.26424,-0.73901 0.29499,-0.19742 0.6406,-0.14751 0.6406,-0.14751 0,0.34562 -0.54161,1.23081 -1.82221,2.06882"
               style="fill:#000000;fill-opacity:1;fill-rule:nonzero;stroke:#000000;stroke-width:0.3985;stroke-linecap:butt;stroke-linejoin:miter;stroke-miterlimit:10;stroke-dasharray:none;stroke-opacity:1"
               id="path20" /><path
               d="m 14.55327,8.51271 c 0,0 0.6277,0.849 2.88025,0.29569 2.2519,-0.55462 5.24358,-1.14402 9.6743,-1.3291 4.43146,-0.18513 15.39812,0.8114 19.34868,1.47599 0,0 2.1789,0.37021 2.8066,-0.33129 0.62832,-0.70141 1.14544,-1.07091 1.84614,-1.10781 0.70222,-0.03689 0.92352,-0.70221 0.92352,-0.70221 0,0 -0.2213,0.1476 -0.81212,0.1476 -0.5908,0 -0.92352,0.11059 -1.88312,1.03412 C 48.37721,8.9191 47.5282,8.5865 46.12527,8.43889 44.72096,8.2907 39.9958,6.66647 32.68341,6.44588 25.37231,6.22316 23.45169,6.71498 18.46693,8.2907 c 0,0 -2.10433,0.88731 -3.91366,0.22201"
               style="fill:#000000;fill-opacity:1;fill-rule:nonzero;stroke:#000000;stroke-width:0.3985;stroke-linecap:butt;stroke-linejoin:miter;stroke-miterlimit:10;stroke-dasharray:none;stroke-opacity:1"
               id="path22" /><path
               d="m 52.30388,5.92816 -0.34422,0.68982 c 0,0 0.9849,0.3443 0.34422,1.0833 L 51.66383,8.2907 c 0,0 -0.04977,0.39408 0.19742,0.24661 0.2446,-0.14752 0.68851,-0.44261 1.62363,-0.64003 0.9364,-0.196 1.18231,-0.4433 1.37902,-0.7376 0,0 -0.04992,1.62421 -1.77313,1.57502 0,0 1.77313,0.29501 2.56133,0 0.78752,-0.29581 1.08192,-0.24521 1.08192,-0.24521 0,0 -0.59022,1.08192 -1.37842,1.23011 -0.78681,0.14681 -2.06742,-0.2964 -4.18485,0.83672 0,0 0.73901,-0.24591 1.57641,-0.3941 0.83602,-0.1482 1.47672,-0.09769 2.11674,-0.09769 0.6406,0 3.00323,-0.73834 2.06742,-2.95546 0,0 -0.44321,1.32982 -2.11734,1.13312 0,0 1.13243,-1.03342 -0.09698,-2.11663 0,0 -0.19741,0.2452 -0.24721,0.58942 -0.04851,0.3449 -0.68921,0.6899 -1.62494,0.5929 0,0 0.04982,-1.08402 -0.54097,-1.37972"
               style="fill:#000000;fill-opacity:1;fill-rule:nonzero;stroke:#000000;stroke-width:0.3985;stroke-linecap:butt;stroke-linejoin:miter;stroke-miterlimit:10;stroke-dasharray:none;stroke-opacity:1"
               id="path24" /><path
               d="m 52.40227,14.44476 c 0.39338,1.87074 2.60913,2.56136 4.43144,2.46164 1.82092,-0.0984 2.95406,-0.9351 2.75664,-2.26364 -0.1967,-1.3298 -2.11661,-1.6262 -3.05243,-1.3298 -0.93502,0.2944 -1.77243,0.88591 -1.27992,1.3298 0.49241,0.44263 1.47662,0 1.13172,-0.73901 0,0 0.5915,0.88733 -0.29442,1.23083 -0.88722,0.3449 -1.241,-0.23559 -1.2806,-0.59012 -0.04921,-0.44329 0.1475,-0.88719 0.93571,-1.37971 l -1.92062,-1.18161 c 0,0 -1.82163,0.59082 -1.42752,2.46162 m 4.77565,-3.29832 c -2.26424,0 -3.05243,0.739 -3.05243,0.739 0.59151,0.0977 1.96981,1.13112 1.96981,1.13112 0,0 2.65763,-0.63862 3.54424,1.03411 0.76293,1.44181 0.09831,3.15075 -2.85502,3.29893 -2.95403,0.14822 -4.87476,-1.62421 -4.87476,-3.24843 0,-1.62624 1.32991,-2.36393 1.32991,-2.36393 0,0 -2.36333,-1.23082 -4.87476,-0.68982 -2.51085,0.54162 -1.72332,1.08323 -0.68922,1.03403 1.03412,-0.0491 1.96924,-0.88582 1.96924,-0.88582 h 0.64061 c 0,0 -1.52652,1.47733 -3.24985,1.18231 -1.72322,-0.29649 -0.68912,-1.47811 1.82164,-1.67481 2.51152,-0.19671 4.52985,0.8367 4.52985,0.8367 5.41566,-3.69243 13.88377,1.82232 13.88377,1.82232 -3.69246,-0.88722 -7.82811,-2.21571 -10.09303,-2.21571"
               style="fill:#000000;fill-opacity:1;fill-rule:nonzero;stroke:#000000;stroke-width:0.3985;stroke-linecap:butt;stroke-linejoin:miter;stroke-miterlimit:10;stroke-dasharray:none;stroke-opacity:1"
               id="path26" /><path
               d="m 69.68338,14.39557 c 0,0 -0.39409,0.04919 -0.34419,0.34489 0.04909,0.29583 0.4917,0.49253 0.6884,0.14821 0.19681,-0.34421 -0.34421,-0.4931 -0.34421,-0.4931 m 2.60913,1.23082 -0.1967,-0.29511 c -0.09831,0.2459 -0.34419,0.1482 -0.34419,0.1482 0,0 0.4924,-0.44319 -0.24662,-0.83672 -0.7383,-0.394 -1.3291,0 -1.3291,0 0.4917,0.44333 -0.64003,0.93442 -1.03341,0.39353 -0.39412,-0.54102 0.34351,-0.73913 0.34351,-0.73913 -0.98423,-0.34349 -4.67667,-0.29499 -4.67667,-0.29499 -0.88582,-1.23082 -2.60985,-1.47672 -2.60985,-1.47672 0.88661,-0.14751 1.75672,0.36681 2.01973,0.5423 0.44189,0.2944 0.68782,0.2944 0.68782,0.2944 3.05313,-0.4931 5.12056,0.93501 5.12056,0.93501 0.4433,-0.29499 1.18171,-0.29499 1.82162,0.1476 0.64,0.44391 0.4433,1.18163 0.4433,1.18163"
               style="fill:#000000;fill-opacity:1;fill-rule:nonzero;stroke:#000000;stroke-width:0.3985;stroke-linecap:butt;stroke-linejoin:miter;stroke-miterlimit:10;stroke-dasharray:none;stroke-opacity:1"
               id="path28" /><path
               d="m 71.2591,16.1188 c 0,0 -1.82232,0.1496 -3.44654,1.08262 -1.62492,0.9364 -2.60982,3.05455 -3.34816,3.35023 -0.7383,0.29511 -1.0833,0.19469 -1.0833,0.19469 0,0 0.49251,-0.83609 -0.29501,-1.0826 -0.78819,-0.2445 -0.88661,0.24651 -0.88661,0.24651 0,0 0.59082,-0.3934 0.73901,0.0984 0.1476,0.49181 -0.34559,0.6892 -0.5908,0.19739 0,0 -0.19731,0.64072 0.64,0.88592 0.83671,0.2472 1.52662,0 2.06753,-0.5915 0.5416,-0.59021 1.77243,-2.60785 3.84065,-3.44516 1.97663,-0.80051 2.36323,-0.9365 2.36323,-0.9365"
               style="fill:#000000;fill-opacity:1;fill-rule:nonzero;stroke:#000000;stroke-width:0.3985;stroke-linecap:butt;stroke-linejoin:miter;stroke-miterlimit:10;stroke-dasharray:none;stroke-opacity:1"
               id="path30" /><path
               d="m 63.7752,16.1188 c 0,0 -0.09829,0.78821 -1.62482,0.24659 l 1.23142,1.23081 c 0,0 -0.8373,-0.04919 -1.52651,-0.4918 l -0.39411,-0.14749 c 0,0 0.4433,0.88591 1.28061,1.18091 0.83612,0.2958 2.56003,-0.14751 2.51015,-1.13102 0,0 -0.98491,-0.3941 -1.47674,-0.888"
               style="fill:#000000;fill-opacity:1;fill-rule:nonzero;stroke:#000000;stroke-width:0.3985;stroke-linecap:butt;stroke-linejoin:miter;stroke-miterlimit:10;stroke-dasharray:none;stroke-opacity:1"
               id="path32" /><path
               d="m 57.17722,22.27356 c 0,-0.19739 -0.04911,-1.32851 -1.13172,-0.9344 -0.655,0.237 -1.0341,1.52524 -0.5908,3.29695 0.27932,1.11951 0.5908,1.82233 0.54092,2.95473 l 1.0833,-1.87142 c 0,0 -0.6892,0.59151 -0.93582,-0.44331 -0.2452,-1.03342 -0.5409,-3.00255 0.19742,-3.39594 0.7384,-0.3948 0.8367,0.39339 0.8367,0.39339"
               style="fill:#000000;fill-opacity:1;fill-rule:nonzero;stroke:#000000;stroke-width:0.3985;stroke-linecap:butt;stroke-linejoin:miter;stroke-miterlimit:10;stroke-dasharray:none;stroke-opacity:1"
               id="path34" /><path
               d="m 59.29466,25.6217 c 0.44258,0 1.08321,-1.2308 1.08321,-1.2308 0,0 0.04849,0.2951 -0.14821,0.739 -0.1967,0.44331 -0.78751,0.73771 -0.98491,1.42752 -0.196,0.68852 -0.3934,0.93582 -0.3934,0.93582 l 0.04919,-0.88663 c 0.04921,-1.4275 -1.05731,-3.31121 -0.4433,-4.77563 0.64071,-1.52664 1.82232,-0.73902 1.82232,-0.73902 -1.16521,0.2417 -1.18302,1.23761 -1.20351,2.02244 l 0.6127,-0.39753 c -0.03351,0.30051 -0.40639,0.69123 -0.64271,0.91183 -0.0888,0.7875 0.24862,1.993 0.24862,1.993"
               style="fill:#000000;fill-opacity:1;fill-rule:nonzero;stroke:#000000;stroke-width:0.3985;stroke-linecap:butt;stroke-linejoin:miter;stroke-miterlimit:10;stroke-dasharray:none;stroke-opacity:1"
               id="path36" /><path
               d="m 40.58531,15.67618 c 0,0 -0.93511,0.24591 -1.03411,1.42822 -0.09771,1.18102 1.77313,1.42752 1.03411,-1.42822 m 0.29639,-0.3449 c 0.44263,0.9849 0.54092,1.92072 0.0485,2.56064 -0.4925,0.64 -2.06751,0.3935 -1.82162,-0.8858 0.24591,-1.28073 1.42754,-1.67484 1.42754,-1.67484 -1.77243,-3.15074 -5.36588,-2.11663 -5.36588,-2.11663 3.39603,-1.72262 5.56258,1.77243 5.56258,1.77243 0.14888,-0.09841 1.33052,-0.39479 1.33052,-0.39479 l 0.0977,0.19738 c -0.73842,0.19741 -1.27934,0.54161 -1.27934,0.54161"
               style="fill:#000000;fill-opacity:1;fill-rule:nonzero;stroke:#000000;stroke-width:0.3985;stroke-linecap:butt;stroke-linejoin:miter;stroke-miterlimit:10;stroke-dasharray:none;stroke-opacity:1"
               id="path38" /><path
               d="m 44.49966,20.69844 c 0,0 -2.09214,6.74489 -8.59172,2.56003 l -0.34428,0.19671 c 0,0 1.6748,1.52652 4.08654,1.52652 2.41314,0 4.33315,-1.08322 5.31736,-3.88974 z"
               style="fill:#000000;fill-opacity:1;fill-rule:nonzero;stroke:#000000;stroke-width:0.3985;stroke-linecap:butt;stroke-linejoin:miter;stroke-miterlimit:10;stroke-dasharray:none;stroke-opacity:1"
               id="path40" /><path
               d="m 15.72258,20.00934 -0.3941,-0.09972 c 0,0 -0.541,1.97055 -2.41173,2.11806 C 11.04523,22.17586 9.2728,20.30434 9.2728,20.30434 H 8.8295 c 0,0 1.08333,1.37841 2.56004,1.77183 1.47731,0.39481 3.29892,0.4446 4.33304,-2.06683"
               style="fill:#000000;fill-opacity:1;fill-rule:nonzero;stroke:#000000;stroke-width:0.3985;stroke-linecap:butt;stroke-linejoin:miter;stroke-miterlimit:10;stroke-dasharray:none;stroke-opacity:1"
               id="path42" /><path
               d="m 10.60193,18.43362 -0.39412,-0.04991 c 0,0 -0.4917,1.23152 -2.60843,0.83742 -2.11732,-0.3934 -2.85643,-1.72331 -3.74225,-3.84065 0,0 -0.04919,2.36253 2.70745,3.79075 2.75672,1.42821 3.98825,-0.5409 4.03735,-0.73761"
               style="fill:#000000;fill-opacity:1;fill-rule:nonzero;stroke:#000000;stroke-width:0.3985;stroke-linecap:butt;stroke-linejoin:miter;stroke-miterlimit:10;stroke-dasharray:none;stroke-opacity:1"
               id="path44" /><path
               d="M 8.58359,13.51036 8.8295,13.65727 9.96262,12.67296 9.71611,12.52545 Z"
               style="fill:#000000;fill-opacity:1;fill-rule:nonzero;stroke:#000000;stroke-width:0.3985;stroke-linecap:butt;stroke-linejoin:miter;stroke-miterlimit:10;stroke-dasharray:none;stroke-opacity:1"
               id="path46" /><path
               d="m 22.36838,14.05067 c -1.18163,2.11803 -0.0983,4.57966 -0.0983,4.57966 0,0 -0.88592,-0.73841 -0.73842,-2.56003 0.1476,-1.82154 0.83672,-2.01963 0.83672,-2.01963 M 40.0682,1.4229 C 25.59361,-0.79279 8.9033,0.8314 4.02925,3.78613 -0.5668,6.57158 -0.6959,12.24263 3.51224,14.49187 l -0.04991,-2.06613 0.24659,0.04919 0.09351,2.16313 c 0.16811,0.08122 0.34091,0.15712 0.52251,0.2247 0,0 2.95344,0.88722 3.98754,1.47873 1.03411,0.59082 1.84624,0.73901 1.62494,0 0,0 -0.60042,-0.70621 -1.75332,-1.5088 L 7.64787,15.67618 C 7.74348,15.29099 7.81927,14.86407 7.86028,14.61417 7.41498,14.32387 6.90067,14.02946 6.31805,13.75557 3.95544,12.64835 1.8873,11.31853 2.25682,8.29 2.62631,5.26355 7.05708,2.45561 16.28809,1.57112 25.5198,0.6853 39.10858,2.013 44.72096,2.75212 c 5.61307,0.739 11.37374,1.62492 19.20184,0.36879 0,0 -9.37931,0.51703 -23.8546,-1.69801 M 13.01236,17.48491 c -0.06561,-1.30601 0.25,-2.42752 0.71239,-3.35024 -0.26439,-0.2548 -0.5635,-0.51233 -0.90709,-0.77252 -2.37213,-1.79701 -6.9422,-1.72322 -7.53301,-0.8367 0,0 3.88916,0.8367 5.46488,4.38156 z m 0.291,0.0744 2.27103,0.57782 c 0,0 0.36471,-1.72253 -1.62352,-3.77775 -0.61342,1.40631 -0.65641,2.72452 -0.64751,3.19993 m 11.28074,2.05592 c 0,0 0.78821,-4.13575 -3.74154,-7.1403 -4.52988,-3.00263 -8.66553,-1.22881 -9.05962,-0.7876 0,0 1.40361,0.09571 2.63913,1.31142 0.91732,-1.24242 1.94053,-1.90151 1.94053,-1.90151 l 0.44259,0.09839 c -0.98359,0.5553 -1.6905,1.2554 -2.20141,1.99033 0.8729,0.9528 1.61941,2.51013 1.65971,5.05095 0,0 7.0898,1.37832 8.32061,1.37832 m 25.45425,-1.18161 c 1.67401,-1.13252 1.03408,-3.64395 -6.3508,-4.13646 0,0 1.52652,2.70896 1.42752,5.31807 0,0 3.24914,-0.04989 4.92328,-1.18161 M 43.68755,2.90031 C 37.63118,2.23502 24.6333,0.9796 14.22057,2.16132 3.80724,3.34293 2.55183,7.70059 3.14333,9.6206 c 0.59021,1.91923 1.91934,2.28873 1.91934,2.28873 2.95403,-1.54973 6.27765,-0.5908 6.27765,-0.5908 1.25543,-0.8114 5.83438,-2.43563 10.11764,0.2213 0.4487,0.27871 0.84011,0.5888 1.18701,0.91531 C 24.078,10.61432 25.4707,9.96552 25.4707,9.96552 h 0.34423 c -1.30394,0.7991 -2.60713,2.27992 -2.95883,2.69514 2.72732,2.79903 2.2205,6.85559 2.2205,6.85559 10.85594,1.1816 19.49687,0.29639 19.49687,0.29639 C 42.80164,11.31853 35.63744,9.54613 32.60962,9.1035 29.58177,8.6602 27.95685,9.1773 27.95685,9.1773 c 10.26512,2.73203 8.419,10.63534 8.419,10.63534 -0.36961,-5.98259 -5.83436,-9.15862 -10.33892,-10.04453 -4.50527,-0.88521 -7.3855,0.29572 -7.3855,0.29572 3.32284,-1.69864 8.93661,-1.03473 8.93661,-1.03473 11.29854,-1.92003 15.95131,5.02157 15.95131,5.02157 4.43146,-1.40232 7.8288,1.03542 7.68059,3.25043 -0.14751,2.21515 -6.72099,3.39675 -6.72099,3.39675 -9.54041,1.74642 -18.60823,0.5962 -21.19896,0.19599 1.07781,1.61873 4.10025,4.62267 7.58639,4.43218 3.59404,-0.19612 5.02156,-3.39806 5.02156,-3.39806 l 0.44391,0.09972 c -3.34814,5.51405 -7.92711,3.44655 -9.99533,2.26421 -0.86329,-0.49379 -1.66583,-1.18851 -2.30862,-1.83051 -3.13776,3.07902 -7.1615,1.61742 -8.86693,-0.03961 -1.724,-1.67482 -1.724,-3.29904 -1.724,-3.29904 l 0.34499,0.0984 c 0.3442,2.26424 2.56064,4.48127 5.46476,4.77635 2.70894,0.27463 4.15825,-1.25261 4.55986,-1.7615 -0.77108,-0.79912 -1.2608,-1.46443 -1.2608,-1.46443 C 15.797,19.66714 10.97084,18.09962 7.78787,16.7718 7.7941,18.61253 8.5338,19.61523 8.5338,19.61523 L 8.1397,19.41855 C 7.64108,18.52713 7.5291,17.27719 7.50517,16.653 4.28813,15.28418 2.84761,14.19887 2.84761,14.19887 0.7057,16.711 3.88103,20.03395 3.88103,20.03395 8.38618,24.3909 16.9534,26.01582 16.9534,26.01582 22.19698,25.49883 27.07101,28.01024 38.29578,27.41873 49.52122,26.82794 54.32219,24.7604 54.32219,24.7604 50.55534,26.67972 39.40369,29.70828 25.15102,28.01024 10.89703,26.31093 4.62004,21.88017 2.62631,19.14803 0.6319,16.4146 2.47813,14.05067 2.47813,14.05067 -1.65761,11.02354 0.6319,6.88846 0.6319,6.88846 3.88103,0.1669 16.14058,-0.27638 28.47395,0.09239 40.8072,0.46259 53.80447,2.75212 60.59917,2.82582 66.45404,2.88943 70.8794,1.1449 71.99272,0.6607 59.92706,6.10916 49.69742,3.56013 43.68755,2.90031 M 71.99272,0.6607 c 0.0922,-0.041 0.183,-0.0813 0.27519,-0.12362 0,0 -0.09629,0.04572 -0.27519,0.12362"
               style="fill:#000000;fill-opacity:1;fill-rule:nonzero;stroke:#000000;stroke-width:0.3985;stroke-linecap:butt;stroke-linejoin:miter;stroke-miterlimit:10;stroke-dasharray:none;stroke-opacity:1"
               id="path48" /><path
               d="m 33.15121,18.53192 c 0,0 -0.88581,-1.87012 0.34501,-3.98746 0,0 -0.88592,0.44332 -1.03412,2.11734 -0.14751,1.67344 0.68911,1.87012 0.68911,1.87012"
               style="fill:#000000;fill-opacity:1;fill-rule:nonzero;stroke:#000000;stroke-width:0.3985;stroke-linecap:butt;stroke-linejoin:miter;stroke-miterlimit:10;stroke-dasharray:none;stroke-opacity:1"
               id="path50" /></g></g></g></g></g></svg>
