<?xml version="1.0" encoding="UTF-8" standalone="no"?>
<svg
   xmlns:dc="http://purl.org/dc/elements/1.1/"
   xmlns:cc="http://creativecommons.org/ns#"
   xmlns:rdf="http://www.w3.org/1999/02/22-rdf-syntax-ns#"
   xmlns:svg="http://www.w3.org/2000/svg"
   xmlns="http://www.w3.org/2000/svg"
   xmlns:sodipodi="http://sodipodi.sourceforge.net/DTD/sodipodi-0.dtd"
   xmlns:inkscape="http://www.inkscape.org/namespaces/inkscape"
   version="1.1"
   id="svg2"
   xml:space="preserve"
   width="60.288769"
   height="59.391556"
   viewBox="0 0 60.288769 59.391556"
   sodipodi:docname="vectorian131.pdf"><metadata
     id="metadata8"><rdf:RDF><cc:Work
         rdf:about=""><dc:format>image/svg+xml</dc:format><dc:type
           rdf:resource="http://purl.org/dc/dcmitype/StillImage" /></cc:Work></rdf:RDF></metadata><defs
     id="defs6" /><sodipodi:namedview
     pagecolor="#ffffff"
     bordercolor="#666666"
     borderopacity="1"
     objecttolerance="10"
     gridtolerance="10"
     guidetolerance="10"
     inkscape:pageopacity="0"
     inkscape:pageshadow="2"
     inkscape:window-width="640"
     inkscape:window-height="480"
     id="namedview4" /><g
     id="g10"
     inkscape:groupmode="layer"
     inkscape:label="vectorian131"
     transform="matrix(1.3333333,0,0,-1.3333333,-0.61769364,59.148436)"><g
       id="g12"
       transform="translate(72,-27.467)"><g
         id="g14"
         transform="translate(-71.337,27.468)"><g
           id="g16"><g
             id="g18"><path
               d="m 4.06235,0 c 0,0 1.1085,2.36322 0.07379,6.27696 -1.0334,3.91376 -3.20004,8.83832 -3.76625,13.07306 -0.70207,5.24559 2.06822,8.19621 4.20946,9.15253 2.14201,0.96301 3.82904,-0.2254 4.43145,-1.55051 0.7384,-1.61874 0.14759,-3.10095 -1.10782,-3.54484 -1.25541,-0.43721 -2.36322,0.30049 -2.51081,1.3319 -0.13593,0.95621 0.36879,1.59823 0.86129,1.59823 0,0 -1.30461,0.61471 -2.70753,-1.00403 -1.40361,-1.62561 -0.51689,-6.20865 0.2951,-7.684 0.81212,-1.47532 5.39106,-8.9339 1.99372,-16.5428 0,0 0.73912,2.21293 0.73912,5.02016 0,2.80724 -1.84633,7.0898 -2.80664,9.15932 -0.95961,2.06962 -1.79702,4.15965 -1.60031,6.9191 0.19749,2.75932 2.01901,5.41636 4.82486,4.08444 0,0 -1.05791,0.0751 -1.32912,-0.7377 C 5.39217,24.7391 5.86006,23.53009 7.18918,23.63258 8.51839,23.7282 8.9125,24.7391 8.96161,25.84552 9.0108,26.95204 7.73088,28.60495 6.15517,28.55716 4.57935,28.50255 2.75772,27.66924 1.5761,24.7117 0.39449,21.76106 1.2312,18.75583 1.8227,16.6931 2.41351,14.62347 4.62865,9.05688 5.02264,5.66226 5.60326,0.6557 4.06235,0 4.06235,0"
               style="fill:#000000;fill-opacity:1;fill-rule:nonzero;stroke:#000000;stroke-width:0.3985;stroke-linecap:butt;stroke-linejoin:miter;stroke-miterlimit:10;stroke-dasharray:none;stroke-opacity:1"
               id="path20" /><path
               d="m 5.07195,24.17209 c 0,0 -0.5909,-1.62552 0.24589,-3.88634 0.83733,-2.26762 2.51144,-3.20334 3.49637,-6.30429 0.98491,-3.10094 -0.49312,-6.00377 -0.49312,-6.00377 0,0 0.54161,2.06271 -0.19679,5.02016 -0.7384,2.95075 -2.65695,4.91777 -3.39665,7.13759 -0.49242,1.47532 -0.2466,2.95755 0.3443,4.03665"
               style="fill:#000000;fill-opacity:1;fill-rule:nonzero;stroke:#000000;stroke-width:0.3985;stroke-linecap:butt;stroke-linejoin:miter;stroke-miterlimit:10;stroke-dasharray:none;stroke-opacity:1"
               id="path22" /><path
               d="m 12.16223,19.05634 c 0,0 0.64002,-0.68993 0.29442,-1.53004 -0.34431,-0.8332 -1.91924,-1.47532 -3.64255,-0.15019 -1.72333,1.33182 -2.31473,4.09125 -1.92003,5.41637 0,0 -0.0991,-2.36334 1.67333,-4.42607 1.77243,-2.06951 4.33316,-1.67331 3.59483,0.68993"
               style="fill:#000000;fill-opacity:1;fill-rule:nonzero;stroke:#000000;stroke-width:0.3985;stroke-linecap:butt;stroke-linejoin:miter;stroke-miterlimit:10;stroke-dasharray:none;stroke-opacity:1"
               id="path24" /><path
               d="m 12.99866,22.79248 c 0,0 1.37901,-0.04781 1.62431,-0.83333 0.3906,-1.24989 -0.6886,-2.90281 -2.95413,-2.51352 -2.26424,0.39612 -3.15085,3.10094 -2.75673,4.43287 0,0 -0.14752,-1.82372 1.4275,-2.95754 1.57573,-1.12701 3.15154,-1.07921 3.74236,-0.2459 0.59081,0.84009 0.34419,1.62561 -1.08331,2.11742"
               style="fill:#000000;fill-opacity:1;fill-rule:nonzero;stroke:#000000;stroke-width:0.3985;stroke-linecap:butt;stroke-linejoin:miter;stroke-miterlimit:10;stroke-dasharray:none;stroke-opacity:1"
               id="path26" /><path
               d="m 9.208,25.40161 c 0,0 0.68851,-1.27733 2.90424,-1.37291 2.21573,-0.1024 2.85634,1.87152 2.01903,3.29213 -0.8374,1.43442 -3.29903,1.48222 -3.84067,0.34841 -0.54159,-1.13381 1.08324,-2.36322 2.85575,-2.11742 0,0 -1.03411,-0.64202 -2.51082,0.2937 -1.47733,0.93581 -0.78751,2.36333 0.14751,2.75943 0.93579,0.39621 3.65213,0.5737 4.18554,-2.41103 C 15.46039,23.4345 11.02962,21.46736 9.208,25.40161"
               style="fill:#000000;fill-opacity:1;fill-rule:nonzero;stroke:#000000;stroke-width:0.3985;stroke-linecap:butt;stroke-linejoin:miter;stroke-miterlimit:10;stroke-dasharray:none;stroke-opacity:1"
               id="path28" /><path
               d="m 44.83386,40.5305 c 0,0 -2.46715,-1.14741 -6.59729,-0.17758 -4.13084,0.9767 -9.34031,3.05992 -13.79977,3.55853 -5.52837,0.62162 -8.58422,-2.19932 -9.56021,-4.35084 -0.97602,-2.15836 0.29849,-3.82486 1.70001,-4.40547 1.71913,-0.71721 3.26285,-0.10239 3.70885,1.1611 0.446,1.26364 -0.34771,2.35644 -1.43712,2.49306 -1.00402,0.11608 -1.67682,-0.3961 -1.66791,-0.88793 0,0 -0.66802,1.29093 1.01761,2.71843 1.68582,1.43433 6.51338,0.62152 8.07889,-0.1707 1.56543,-0.78549 9.47824,-5.24565 17.41974,-1.72813 0,0 -2.31684,-0.7786 -5.26686,-0.8196 -2.94985,-0.0478 -7.48173,1.73493 -9.67016,2.65694 -2.1884,0.92891 -4.40134,1.73491 -7.29667,1.48903 -2.89534,-0.23912 -5.66098,-2.10373 -4.21977,-4.88356 0,0 -0.09418,1.0518 0.75611,1.33871 0.84902,0.28681 2.12424,-0.16402 2.04154,-1.49583 -0.08263,-1.33191 -1.13722,-1.74172 -2.30034,-1.80321 -1.16391,-0.06831 -2.91794,1.18159 -2.89063,2.75943 0.02671,1.57773 0.87772,3.40823 3.96425,4.63765 3.08664,1.22952 6.25658,0.43721 8.44011,-0.11609 2.18292,-0.56001 8.0659,-2.68424 11.64345,-3.02574 5.26817,-0.49861 5.93617,1.0518 5.93617,1.0518"
               style="fill:#000000;fill-opacity:1;fill-rule:nonzero;stroke:#000000;stroke-width:0.3985;stroke-linecap:butt;stroke-linejoin:miter;stroke-miterlimit:10;stroke-dasharray:none;stroke-opacity:1"
               id="path30" /><path
               d="m 19.43875,39.13719 c 0,0 1.69872,0.61471 4.09264,-0.1844 2.39393,-0.79921 3.40355,-2.45894 6.67929,-3.39465 3.27513,-0.93572 6.30568,0.58741 6.30568,0.58741 0,0 -2.16522,-0.57379 -5.28116,0.11611 -3.11736,0.68982 -5.21217,2.57494 -7.5576,3.28532 -1.56073,0.46442 -3.10985,0.19811 -4.23885,-0.40979"
               style="fill:#000000;fill-opacity:1;fill-rule:nonzero;stroke:#000000;stroke-width:0.3985;stroke-linecap:butt;stroke-linejoin:miter;stroke-miterlimit:10;stroke-dasharray:none;stroke-opacity:1"
               id="path32" /><path
               d="m 24.9322,32.12941 c 0,0 0.7349,-0.62842 1.60923,-0.27321 0.8742,0.35512 1.52241,1.94653 0.09829,3.64725 -1.42471,1.70073 -4.33224,2.24722 -5.72366,1.83052 0,0 2.48214,0.1366 4.68416,-1.59822 2.20201,-1.74172 1.82771,-4.30985 -0.66802,-3.60634"
               style="fill:#000000;fill-opacity:1;fill-rule:nonzero;stroke:#000000;stroke-width:0.3985;stroke-linecap:butt;stroke-linejoin:miter;stroke-miterlimit:10;stroke-dasharray:none;stroke-opacity:1"
               id="path34" /><path
               d="m 21.01254,31.2346 c 0,0 0.07231,-1.37971 0.90514,-1.61193 1.31871,-0.37571 3.04283,0.73082 2.59331,2.99165 -0.45009,2.2608 -3.31054,3.10092 -4.70125,2.6842 0,0 1.91174,0.17762 3.12753,-1.37961 1.21512,-1.55729 1.18854,-3.13513 0.31761,-3.73614 -0.8708,-0.6011 -1.70273,-0.3689 -2.24234,1.05183"
               style="fill:#000000;fill-opacity:1;fill-rule:nonzero;stroke:#000000;stroke-width:0.3985;stroke-linecap:butt;stroke-linejoin:miter;stroke-miterlimit:10;stroke-dasharray:none;stroke-opacity:1"
               id="path36" /><path
               d="m 18.20934,34.97752 c 0,0 1.35719,-0.66249 1.4952,-2.88232 0.1379,-2.21303 -1.92143,-2.88234 -3.43624,-2.06952 -1.51362,0.81281 -1.60383,3.27843 -0.4222,3.83172 1.1817,0.56695 2.50122,-1.045 2.26973,-2.82092 0,0 0.657,1.04502 -0.34972,2.50673 -1.00601,1.46161 -2.49643,0.75132 -2.89602,-0.19121 -0.39893,-0.9426 -0.54512,-3.66104 2.60231,-4.14593 2.90567,-0.44402 4.90617,4.01614 0.73694,5.77145"
               style="fill:#000000;fill-opacity:1;fill-rule:nonzero;stroke:#000000;stroke-width:0.3985;stroke-linecap:butt;stroke-linejoin:miter;stroke-miterlimit:10;stroke-dasharray:none;stroke-opacity:1"
               id="path38" /><path
               d="m 11.00462,40.2505 c 0,0 1.84623,0.29372 3.32296,-4.13916 0,0 1.1085,-3.68823 -0.07311,-5.68266 -1.18162,-1.99443 -4.43144,-1.55051 -6.49899,-1.18172 0,0 -0.44328,0.3689 0.14691,0.5123 0,0 1.62552,-0.444 3.47174,-0.07509 0,0 2.36263,0.51909 2.95345,2.43833 0,0 0.36949,1.91932 -0.51711,4.65136 -0.88582,2.73212 -2.43634,3.10784 -3.47044,3.40154 -1.03403,0.2937 -1.47733,0 -1.55113,0.66252 0,0 -0.7383,0.2937 -0.81211,-0.66252 -0.0744,-0.9631 -0.81282,-2.28813 -2.36333,-2.88243 0,0 -0.1474,-0.14342 -0.51701,0.15028 0,0 0.07379,-0.7377 -0.517,-1.70071 -0.59012,-0.95621 -0.96032,-1.55043 -0.96032,-2.21301 0,-0.66932 -0.44249,-2.14463 3.91435,-3.61997 0,0 0.1476,-0.3689 -0.36951,-0.2937 -0.51631,0.06831 -0.95961,0.44392 -1.32913,0.06831 -0.36878,-0.36891 -2.88031,-0.36891 -4.35703,1.40702 -1.47732,1.76902 -2.14121,4.87677 -0.59083,8.12111 1.55124,3.25123 4.20947,3.54484 4.20947,3.54484 0,0 0.29581,-0.3688 -0.517,-0.6625 C 3.76733,41.80092 1.5516,40.76271 0.81328,37.81207 0.07489,34.85463 1.47781,30.35349 5.09645,30.50378 c 0,0 -1.99371,0.8059 -1.91981,3.16925 0.07368,2.36322 1.40281,2.80723 1.4766,4.13904 0,0 -0.14759,0.81283 -0.44261,0.5123 -0.29579,-0.2937 0.0737,-0.66249 0.0737,-0.66249 0,0 -0.8127,0.66249 -0.14819,1.10642 0.66461,0.444 1.10791,-0.51223 1.10791,-1.03133 0,0 0.96031,0.0751 1.77243,1.18163 0.8128,1.1065 0.44332,3.32632 -0.29501,4.13224 0,0 1.10781,-2.06273 3.10156,-1.98752 1.99371,0.0683 3.17532,-0.07521 3.84062,-1.33192 0,0 -0.14819,1.18161 -0.8866,1.84412 0,0 1.69861,-0.7376 1.32921,-3.54485 0,0 -0.44261,0.5191 -0.96031,1.10652 -0.5171,0.59421 -0.59021,1.11331 -2.14133,1.11331"
               style="fill:#000000;fill-opacity:1;fill-rule:nonzero;stroke:#000000;stroke-width:0.3985;stroke-linecap:butt;stroke-linejoin:miter;stroke-miterlimit:10;stroke-dasharray:none;stroke-opacity:1"
               id="path40" /><path
               d="m 7.75517,43.20114 -1.47722,-0.2937 c 0,0 -0.66459,0.2186 -0.14759,0.36881 0.5171,0.15029 1.55111,0.66259 1.62481,-0.07511"
               style="fill:#000000;fill-opacity:1;fill-rule:nonzero;stroke:#000000;stroke-width:0.3985;stroke-linecap:butt;stroke-linejoin:miter;stroke-miterlimit:10;stroke-dasharray:none;stroke-opacity:1"
               id="path42" /><path
               d="m 10.85693,42.61374 c 0,0 -1.99373,0 -2.21574,0.8811 0,0 2.21574,-0.444 2.21574,-0.8811"
               style="fill:#000000;fill-opacity:1;fill-rule:nonzero;stroke:#000000;stroke-width:0.3985;stroke-linecap:butt;stroke-linejoin:miter;stroke-miterlimit:10;stroke-dasharray:none;stroke-opacity:1"
               id="path44" /><path
               d="m 12.55545,41.94443 c 0,0 -0.59082,-0.14351 -1.25542,0.37561 0,0 0.07451,0.2937 0.517,0.0683 0.44261,-0.21851 0.73842,-0.44391 0.73842,-0.44391"
               style="fill:#000000;fill-opacity:1;fill-rule:nonzero;stroke:#000000;stroke-width:0.3985;stroke-linecap:butt;stroke-linejoin:miter;stroke-miterlimit:10;stroke-dasharray:none;stroke-opacity:1"
               id="path46" /><path
               d="m 7.53348,34.90924 c 0,0 -1.27992,-0.1024 -1.92002,-1.18162 -0.63992,-1.08602 -0.0491,-1.82363 -0.0491,-1.82363 0,0 -0.49241,-0.1981 -0.68919,0.4917 -0.19672,0.68993 0.24588,2.60913 2.65831,2.51355"
               style="fill:#000000;fill-opacity:1;fill-rule:nonzero;stroke:#000000;stroke-width:0.3985;stroke-linecap:butt;stroke-linejoin:miter;stroke-miterlimit:10;stroke-dasharray:none;stroke-opacity:1"
               id="path48" /><path
               d="M 6.84448,32.88751 C 6.49957,32.59381 6.15536,32.6416 6.15536,32.6416 l 0.24581,0.24591 c 0,0 0.49251,0.04781 0.39409,0.5396 l 0.14761,0.24592 c 0,0 0.24591,-0.49182 -0.09839,-0.78552 m 1.42751,1.42752 c 0,0 -0.49179,0.15032 -1.52593,-0.1981 -1.0348,-0.34153 -1.1324,-1.52312 -1.18159,-2.21294 -0.04981,-0.68989 0.49249,-0.444 0.49249,-0.444 -0.24661,0.1503 -0.0983,0.88791 -0.0983,0.88791 0,0 0.24511,-0.0478 0.8366,0.1981 0.59024,0.2459 0.44331,1.12703 0.44331,1.12703 0,0 0.19672,0.198 0.44261,0.3005 0.24592,0.09559 0.59081,0.3415 0.59081,0.3415"
               style="fill:#000000;fill-opacity:1;fill-rule:nonzero;stroke:#000000;stroke-width:0.3985;stroke-linecap:butt;stroke-linejoin:miter;stroke-miterlimit:10;stroke-dasharray:none;stroke-opacity:1"
               id="path50" /><path
               d="m 8.91191,35.94064 c 0,0 -0.59082,1.27722 0.44319,2.36324 1.03482,1.07921 2.21642,0.68979 2.21642,0.68979 0,0 0.19671,-0.15018 -0.24658,-0.24577 C 10.88173,38.64539 9.1092,38.30388 8.91191,35.94064"
               style="fill:#000000;fill-opacity:1;fill-rule:nonzero;stroke:#000000;stroke-width:0.3985;stroke-linecap:butt;stroke-linejoin:miter;stroke-miterlimit:10;stroke-dasharray:none;stroke-opacity:1"
               id="path52" /><path
               d="m 11.66893,34.31503 c 0,0 -0.295,0.0956 -0.295,-0.1503 0,-0.24582 0.2466,-1.03133 -0.1974,-1.32503 -0.44261,-0.2937 -1.08321,-0.39619 -1.42752,-0.4918 -0.3443,-0.1024 -0.44322,-0.3005 -0.44322,-0.3005 0,0 -0.24589,0.1503 -0.34429,0.444 -0.11,0.33462 0.1967,0.54641 0.541,0.4986 0.34493,-0.05468 0.83733,0.1434 1.13312,0.63521 0.24931,0.41661 -0.14819,0.98352 0.34421,1.08591 0.49251,0.09572 0.6891,-0.39609 0.6891,-0.39609"
               style="fill:#000000;fill-opacity:1;fill-rule:nonzero;stroke:#000000;stroke-width:0.3985;stroke-linecap:butt;stroke-linejoin:miter;stroke-miterlimit:10;stroke-dasharray:none;stroke-opacity:1"
               id="path54" /><path
               d="m 12.60513,32.2455 c 0,0 0.04851,-0.93582 -1.1815,-1.22952 0,0 1.42673,-0.1502 1.1815,1.22952"
               style="fill:#000000;fill-opacity:1;fill-rule:nonzero;stroke:#000000;stroke-width:0.3985;stroke-linecap:butt;stroke-linejoin:miter;stroke-miterlimit:10;stroke-dasharray:none;stroke-opacity:1"
               id="path56" /><path
               d="m 10.04442,30.42868 c 0,0 0.04919,0.78542 -0.2452,0.98351 0,0 0,0.14341 0.39339,0.14341 0.39351,0 0.98502,0.2459 1.13252,0.6899 0,0 0.04921,0.34831 0.59011,0.5464 0.54161,0.19121 0.59082,0.73763 0.59082,0.73763 0,0 0.4433,0 0.78831,0.09568 0,0 0.24588,-0.24588 0.04911,-0.39619 -0.19742,-0.1434 -0.78833,-0.24591 -0.78833,-0.24591 0,0 -0.49172,-1.32501 -1.72252,-1.61871 0,0 -0.19741,-0.24592 -0.39411,-0.54642 -0.1967,-0.2937 -0.3941,-0.3893 -0.3941,-0.3893"
               style="fill:#000000;fill-opacity:1;fill-rule:nonzero;stroke:#000000;stroke-width:0.3985;stroke-linecap:butt;stroke-linejoin:miter;stroke-miterlimit:10;stroke-dasharray:none;stroke-opacity:1"
               id="path58" /><path
               d="m 10.34003,36.67825 c 0,0 0.099,0.39623 0.49241,0.19811 0,0 -0.09832,-0.3483 -0.49241,-0.19811 m 1.42811,1.47533 c -0.59082,0.1981 -1.57573,0.10249 -2.06804,-1.03131 -0.49179,-1.13382 0.0491,-1.87152 0.0491,-1.87152 0.24651,0.19809 0.14753,0.444 0.24651,0.84009 0.09839,0.38942 0.88591,0.49182 0.88591,0.49182 0.98422,0.2937 0.44332,1.32512 0.44332,1.32512 0.3442,0 0.4432,0.2458 0.4432,0.2458"
               style="fill:#000000;fill-opacity:1;fill-rule:nonzero;stroke:#000000;stroke-width:0.3985;stroke-linecap:butt;stroke-linejoin:miter;stroke-miterlimit:10;stroke-dasharray:none;stroke-opacity:1"
               id="path60" /></g></g></g></g></g></svg>
