<?xml version="1.0" encoding="UTF-8" standalone="no"?>
<svg
   xmlns:dc="http://purl.org/dc/elements/1.1/"
   xmlns:cc="http://creativecommons.org/ns#"
   xmlns:rdf="http://www.w3.org/1999/02/22-rdf-syntax-ns#"
   xmlns:svg="http://www.w3.org/2000/svg"
   xmlns="http://www.w3.org/2000/svg"
   xmlns:sodipodi="http://sodipodi.sourceforge.net/DTD/sodipodi-0.dtd"
   xmlns:inkscape="http://www.inkscape.org/namespaces/inkscape"
   version="1.1"
   id="svg2"
   xml:space="preserve"
   width="87.654388"
   height="86.98243"
   viewBox="0 0 87.654388 86.982429"
   sodipodi:docname="vectorian029.pdf"><metadata
     id="metadata8"><rdf:RDF><cc:Work
         rdf:about=""><dc:format>image/svg+xml</dc:format><dc:type
           rdf:resource="http://purl.org/dc/dcmitype/StillImage" /></cc:Work></rdf:RDF></metadata><defs
     id="defs6" /><sodipodi:namedview
     pagecolor="#ffffff"
     bordercolor="#666666"
     borderopacity="1"
     objecttolerance="10"
     gridtolerance="10"
     guidetolerance="10"
     inkscape:pageopacity="0"
     inkscape:pageshadow="2"
     inkscape:window-width="640"
     inkscape:window-height="480"
     id="namedview4" /><g
     id="g10"
     inkscape:groupmode="layer"
     inkscape:label="vectorian029"
     transform="matrix(1.3333333,0,0,-1.3333333,0.26566666,86.607038)"><g
       id="g12"
       transform="translate(72,-7.245)"><g
         id="g14"
         transform="translate(-72,7.245)"><g
           id="g16"><g
             id="g18"><path
               d="m 31.20999,32.68199 0.22719,-0.24159 c -2.72803,-0.47841 -7.83688,-2.49121 -16.41461,-9.50893 -1.11681,1.06562 -2.62563,1.72484 -4.29125,1.72484 -3.43205,0 -6.21287,-2.78245 -6.21287,-6.21131 0,-3.43043 2.78082,-6.21285 6.21287,-6.21285 3.42725,0 6.21289,2.78242 6.21289,6.21285 0,1.15205 -0.32161,2.22564 -0.86883,3.15206 10.42094,8.52811 15.365,9.29292 16.84663,9.27373 l 4.51526,-4.77767 c -1.76163,0.37282 -3.85924,0.392 -5.7681,-0.75201 -2.0848,-1.25282 -4.79365,-4.20006 -7.66249,-7.3217 -2.5664,-2.79202 -5.21925,-5.67685 -7.4945,-7.43048 0,0 -5.93766,-4.69927 -7.80327,-6.1745 C 7.59688,3.86082 7.22888,3.25922 7.13127,2.95203 L 8.09288,1.50241 c 0,0 1.48802,1.0112 1.71364,1.18721 1.01601,0.44962 3.24324,1.00801 8.03689,0.80801 2.45603,-0.1024 23.16671,-0.67042 33.05964,8.4321 L 63.8856,0 65.26004,1.496 52.31906,13.39055 c 0.07521,0.09122 0.16,0.17282 0.2352,0.26562 8.5249,10.32012 8.85931,23.54108 9.03691,30.64357 0.04323,1.78405 0.0784,3.19526 0.22243,4.11206 0.66559,4.32007 1.6144,5.47847 1.624,5.49129 l -1.4,1.46881 c -0.09603,-0.08162 -2.39684,-2.01922 -4.71207,-5.48967 -1.42882,-2.14244 -4.45605,-4.39847 -7.12489,-6.38568 l -3.61926,-2.82405 -0.8848,-0.7504 c -2.61765,-2.18722 -6.6561,-5.55687 -6.6561,-11.52975 0,-0.5296 0.056,-1.0928 0.1344,-1.67041 l -4.62726,4.89285 -0.0064,0.07839 c -0.5824,7.0001 6.68169,14.44178 9.30891,16.88983 1.01282,-0.71681 2.24964,-1.1456 3.59046,-1.1456 3.42885,0 6.21287,2.78082 6.21287,6.21286 0,3.42885 -2.78402,6.21129 -6.21287,6.21129 -3.43045,0 -6.2129,-2.78244 -6.2129,-6.21129 0,-1.47841 0.52001,-2.83522 1.37923,-3.90085 -2.25603,-2.10083 -7.35368,-7.33449 -9.13772,-13.24496 l 0.28161,15.98262 c 2.76804,0.62559 4.84005,3.09762 4.84005,6.05607 0,3.43364 -2.78083,6.21288 -6.21287,6.21288 -3.42726,0 -6.21288,-2.77924 -6.21288,-6.21288 0,-3.31846 2.60963,-6.02409 5.88488,-6.1953 -0.088,-5.04965 -0.27521,-15.78259 -0.30879,-17.76182 l -8.40972,8.89291 c 0.71521,1.01282 1.14082,2.24483 1.14082,3.58086 0,3.43043 -2.78085,6.21127 -6.21287,6.21127 -3.43045,0 -6.21289,-2.78084 -6.21289,-6.21127 0,-3.43045 2.78244,-6.21129 6.21289,-6.21129 1.48482,0 2.84642,0.52001 3.91524,1.38883 l 7.4033,-7.83211 c -4.49605,0.0816 -14.39059,0.2576 -17.27543,0.31039 C 11.74094,37.56526 9.22731,39.7189 6.21286,39.7189 2.78082,39.7189 0,36.93646 0,33.50601 c 0,-3.43043 2.78082,-6.21287 6.21286,-6.21287 3.26564,0 5.9377,2.52165 6.18729,5.72486 z m 9.10892,-9.83369 2.33122,-1.42404 -0.83041,2.60164 c -0.52001,1.62562 -0.74401,3.07363 -0.74401,4.37286 0,5.01605 3.34406,7.80649 5.92487,9.96332 l 0.92163,0.77762 3.49124,2.72482 c 2.80324,2.08803 5.98088,4.45286 7.60649,6.89131 0.35202,0.5312 0.696,0.9648 1.04003,1.42081 -0.088,-0.45441 -0.17441,-0.92641 -0.256,-1.45762 C 59.64076,47.67741 59.60396,46.21017 59.56075,44.34937 59.37196,37.01166 59.06314,24.7283 50.98784,14.94897 44.17816,6.71048 27.00354,5.15045 17.92502,5.53127 c -1.83684,0.07359 -3.34406,0.03837 -4.61287,-0.0656 2.21924,1.7552 4.43846,3.51363 4.43846,3.51363 2.41443,1.85763 5.12807,4.80966 7.75211,7.6657 2.76643,3.00965 5.37927,5.85128 7.21288,6.95209 3.18084,1.90883 7.56011,-0.72 7.60331,-0.74879 z"
               style="fill:#000000;fill-opacity:1;fill-rule:nonzero;stroke:#000000;stroke-width:0.3985;stroke-linecap:butt;stroke-linejoin:miter;stroke-miterlimit:10;stroke-dasharray:none;stroke-opacity:1"
               id="path20" /><path
               d="M 55.5351,40.2821 C 52.14786,4.88965 23.90909,10.53772 23.90909,10.53772 49.13503,12.04495 55.5351,40.2821 55.5351,40.2821 Z"
               style="fill:#000000;fill-opacity:1;fill-rule:nonzero;stroke:#000000;stroke-width:0.3985;stroke-linecap:butt;stroke-linejoin:miter;stroke-miterlimit:10;stroke-dasharray:none;stroke-opacity:1"
               id="path22" /></g></g></g></g></g></svg>
