<?xml version="1.0" encoding="UTF-8" standalone="no"?>
<svg
   xmlns:dc="http://purl.org/dc/elements/1.1/"
   xmlns:cc="http://creativecommons.org/ns#"
   xmlns:rdf="http://www.w3.org/1999/02/22-rdf-syntax-ns#"
   xmlns:svg="http://www.w3.org/2000/svg"
   xmlns="http://www.w3.org/2000/svg"
   xmlns:sodipodi="http://sodipodi.sourceforge.net/DTD/sodipodi-0.dtd"
   xmlns:inkscape="http://www.inkscape.org/namespaces/inkscape"
   version="1.1"
   id="svg2"
   xml:space="preserve"
   width="149.33524"
   height="149.33524"
   viewBox="0 0 149.33523 149.33524"
   sodipodi:docname="vectorian040.pdf"><metadata
     id="metadata8"><rdf:RDF><cc:Work
         rdf:about=""><dc:format>image/svg+xml</dc:format><dc:type
           rdf:resource="http://purl.org/dc/dcmitype/StillImage" /></cc:Work></rdf:RDF></metadata><defs
     id="defs6"><clipPath
       clipPathUnits="userSpaceOnUse"
       id="clipPath24"><path
         d="M 0,0 H 112.00143 V 112.00143 H 0 Z"
         id="path22" /></clipPath></defs><sodipodi:namedview
     pagecolor="#ffffff"
     bordercolor="#666666"
     borderopacity="1"
     objecttolerance="10"
     gridtolerance="10"
     guidetolerance="10"
     inkscape:pageopacity="0"
     inkscape:pageshadow="2"
     inkscape:window-width="640"
     inkscape:window-height="480"
     id="namedview4" /><g
     id="g10"
     inkscape:groupmode="layer"
     inkscape:label="vectorian040"
     transform="matrix(1.3333333,0,0,-1.3333333,0,149.33524)"><g
       id="g12"
       transform="translate(72,40)"><g
         id="g14"
         transform="translate(-72,-40)"><g
           id="g16"><g
             id="g18"><g
               id="g20"
               clip-path="url(#clipPath24)"><path
                 d="m 0.01518,89.06444 c 0.4272,-12.66417 8.44811,-19.17786 17.69623,-19.17786 9.24971,0 14.92499,6.8449 13.92497,14.61301 -0.8432,6.58407 -5.64328,9.59851 -10.56492,10.26571 4.21765,1.86242 8.90573,1.61762 13.99379,-0.1056 4.91525,-1.6672 10.34253,-4.91846 15.64019,-8.3345 4.09776,-2.64165 7.83539,-4.70726 11.34905,-6.3361 0.32799,-4.80645 0.84801,-9.5697 1.57121,-14.03068 -4.07365,0.75043 -7.40169,1.59204 -9.49452,2.32814 -0.1008,0.03522 -0.19681,0.07201 -0.29599,0.11041 -1.14244,4.38884 -2.82735,7.93131 -4.57617,10.20333 -4.27526,5.55526 -11.24655,2.07362 -8.14411,-4.26246 1.51522,-3.08964 5.65609,-5.58247 11.33626,-7.51539 0.4032,-1.95682 0.70081,-4.19365 0.8416,-6.79689 0.09601,-1.72643 0.11681,-3.34725 0.056,-4.88486 C 52.62715,55.0879 51.89755,55.01749 51.15994,54.93109 36.77406,53.21907 30.72278,42.56613 36.20285,36.20445 c 6.39368,-5.13127 17.01631,0.57122 18.72675,14.95699 0.08639,0.72961 0.15521,1.45122 0.208,2.16963 1.53281,0.0704 3.15523,0.056 4.88967,-0.03839 2.60002,-0.14081 4.83845,-0.43521 6.79687,-0.84003 1.92963,-5.67528 4.42246,-9.82252 7.5121,-11.33453 6.33448,-3.10245 9.81772,3.86885 4.26406,8.1441 -2.27364,1.75041 -5.81607,3.43366 -10.20493,4.57607 -0.03522,0.09919 -0.07359,0.19038 -0.1104,0.2944 -0.73602,2.09123 -1.57924,5.41927 -2.32965,9.49451 4.46408,-0.72641 9.22733,-1.2464 14.0354,-1.56961 1.62561,-3.51206 3.69445,-7.2529 6.33128,-11.34897 3.41604,-5.29926 6.66889,-10.72653 8.3377,-15.64179 1.72484,-5.08647 1.96643,-9.77452 0.104,-13.99379 -0.6656,4.92328 -3.68164,9.72174 -10.26573,10.56975 -7.76649,0.9984 -14.61299,-4.68167 -14.61299,-13.92978 0,-9.24972 6.5137,-17.26901 19.18104,-17.69783 13.46898,-0.45598 23.24671,9.24972 23.28832,26.71555 0.032,13.09457 -8.51692,23.51552 -15.3378,35.54605 9.87053,1.12483 14.76979,3.72645 14.76979,3.72645 -2.85284,5.36498 -8.2193,15.75551 -8.2193,15.75551 -3.91687,-2.60324 -8.2113,-4.06245 -12.61616,-4.68966 -0.73763,3.60965 -0.93763,7.2465 -0.64643,10.74575 7.0465,0.7952 12.98899,3.73763 16.80022,7.30089 5.52008,5.16326 6.73289,11.82094 3.90565,15.8978 -4.07685,2.82564 -10.73452,1.61442 -15.893,-3.90564 -3.56805,-3.81287 -6.50728,-9.75533 -7.30089,-16.80183 -3.50084,-0.29281 -7.13769,-0.09281 -10.74895,0.64482 0.63041,4.40324 2.08963,8.69929 4.68967,12.61616 0,0 -10.39053,5.36646 -15.75702,8.22089 0,0 -2.6,-4.90085 -3.72804,-14.77138 -12.02905,6.82567 -22.4484,15.3714 -35.54295,15.34099 C 9.2633,112.31593 -0.4408,102.53821 0.01518,89.06444 Z m 69.1274,-37.1718 c 3.11523,-0.8672 5.40967,-2.01442 7.3233,-3.16643 3.42563,-2.05281 3.31683,-5.15365 1.14402,-5.78087 -2.61126,-0.75842 -5.77769,2.38884 -8.46732,8.9473 z M 53.22397,53.19347 C 52.77435,48.20781 51.28954,44.21896 48.19339,40.8477 43.13094,35.33244 38.4813,38.4813 38.4813,38.4813 c 0,0 -3.64648,4.61604 2.36482,9.7137 3.49125,2.95844 7.4337,4.50245 12.37785,4.99847 z m -1.32961,15.95231 c -6.56179,2.68643 -9.70903,5.85446 -8.95222,8.46572 0.62721,2.16961 3.72964,2.28001 5.78567,-1.14244 1.14882,-1.91521 2.29602,-4.21285 3.16655,-7.32328 z m 23.08028,22.2867 c -2.26883,0.5952 -4.51205,1.40001 -6.68488,2.42722 -1.3776,0.65121 -2.71844,1.35362 -4.04324,2.06883 0.47519,4.56483 1.35523,8.89131 2.78403,12.62416 L 78.52191,102.463 c 0,0 -2.52165,-4.32967 -3.54727,-11.03052 z m -10.90573,2.3504 c 3.35365,-1.8128 6.83209,-3.38084 10.64653,-4.49444 -0.13599,-1.44002 -0.20319,-2.95844 -0.15039,-4.56006 0.07519,-2.30083 0.26561,-4.57126 0.60159,-6.8673 -4.01284,0.86882 -7.83688,2.14724 -11.24814,3.58884 -0.1904,4.09766 -0.1584,8.28012 0.15041,12.33296 z m 26.58433,-3.12802 c 0.76644,4.60004 2.41926,8.8593 4.91848,12.34096 6.39368,8.90411 12.88815,5.46405 12.88815,5.46405 0,0 3.44165,-6.49286 -5.46247,-12.88657 -3.48483,-2.50242 -7.74407,-4.15204 -12.34416,-4.91844 z M 87.57962,86.3268 c 0.02719,-3.45285 0.45601,-6.5777 1.1472,-9.50252 -3.78084,-0.304 -7.60489,-0.048 -11.31054,0.5936 -0.64162,3.70405 -0.89921,7.53129 -0.592,11.31054 2.92323,-0.6912 6.04808,-1.12001 9.50252,-1.14722 0.44479,-0.0032 0.87042,0.04002 1.30722,0.05122 -0.0128,-0.43682 -0.05921,-0.85921 -0.0544,-1.30562 z m 8.3441,-22.08037 c -0.71362,1.328 -1.41762,2.66881 -2.06561,4.04173 -1.02724,2.17443 -1.82884,4.41765 -2.42725,6.6897 6.70247,1.0224 11.02895,3.54564 11.02895,3.54564 l 6.08966,-11.49466 c -3.73282,-1.43041 -8.05928,-2.30562 -12.62575,-2.78241 z M 93.20528,18.34824 c -0.70081,-0.99363 -1.53122,-1.96004 -2.51682,-2.89286 -0.10402,0.43522 -0.224,0.8528 -0.36801,1.22882 -2.09442,5.50087 -7.97131,5.04168 -9.70253,2.05603 -2.05602,-3.53924 0.91202,-8.5617 6.50729,-7.53611 0.7072,0.13121 1.42401,0.34562 2.12961,0.63522 0.14241,-2.43523 -0.12958,-5.47847 -0.92959,-9.05132 -5.05608,0.3248 -9.83533,2.30883 -12.50417,5.44806 -4.56806,5.36809 -4.33766,14.72661 1.02882,18.95226 4.43045,3.48964 12.44336,2.62562 14.95537,-2.28324 1.23682,-2.42083 1.47524,-4.78245 1.40003,-6.55686 z m -8.48011,0.5056 c 1.97124,0.30719 3.61927,-1.39844 4.27047,-4.83048 -5.76809,-4.10886 -7.79531,4.28165 -4.27047,4.83048 z m -2.38562,43.06135 c 0.1104,-0.008 0.224,-0.01442 0.3344,-0.02081 4.63525,-0.2448 8.69611,-0.1344 12.21776,0.16479 4.10405,-7.19527 9.0401,-14.11217 12.32496,-23.2243 5.11207,-14.16817 1.0272,-29.22597 -8.33132,-34.02123 -2.56962,-1.31681 -5.45766,-1.96322 -8.3425,-2.06082 0.2512,1.67043 0.83203,6.15688 0.53601,10.03533 4.06564,2.54083 7.3809,7.78251 7.12008,15.085 -0.3424,9.5905 -6.05128,17.35541 -12.55856,27.85955 -1.09761,1.76641 -2.22882,3.85765 -3.30083,6.18249 z M 77.8579,75.16986 c 2.2976,-0.33762 4.56965,-0.52962 6.87048,-0.60161 1.60162,-0.05281 3.12004,0.01439 4.56164,0.14719 C 90.40045,70.901 91.96846,67.42406 93.77971,64.0688 89.72844,63.76161 85.54758,63.7296 81.44992,63.91681 80.00673,67.32805 78.7283,71.1554 77.8579,75.16986 Z M 65.60492,65.60802 c -0.67839,4.03697 -1.248,8.67062 -1.5616,13.49949 4.06564,-1.72323 7.8385,-2.85284 11.50894,-3.55366 0.70081,-3.67203 1.82721,-7.44489 3.55365,-11.50585 -4.82887,0.31041 -9.46252,0.88002 -13.50099,1.56002 z M 63.9633,63.96481 c 0.62242,-3.45764 1.37122,-6.70729 2.25124,-9.61932 -3.30884,0.67361 -7.01129,1.03361 -10.97454,0.8992 0.13761,3.96005 -0.2224,7.66411 -0.89761,10.97295 2.91364,-0.88161 6.16167,-1.62882 9.62091,-2.25283 z M 12.78336,91.08046 c -3.87846,0.296 -8.36011,-0.28641 -10.03374,-0.53601 0.09921,2.88164 0.74721,5.77128 2.06082,8.33932 4.79367,9.36332 19.85466,13.44336 34.02284,8.33449 9.11211,-3.28645 16.03072,-8.2225 23.226,-12.32495 -0.30238,-3.51843 -0.40961,-7.5809 -0.1664,-12.21616 0.0048,-0.11201 0.0112,-0.2256 0.0192,-0.33601 -2.32163,1.07361 -4.41445,2.20483 -6.18248,3.29924 C 45.22379,92.14766 37.46207,97.85815 27.87154,98.19894 20.56905,98.45976 15.32738,95.1461 12.78336,91.08046 Z m 1.23681,-2.08162 c 3.43685,-0.6544 5.14246,-2.30084 4.83206,-4.27206 -0.552,-3.52486 -8.93613,-1.49602 -4.83206,4.27206 z M 2.78482,88.32843 c 3.57445,0.79681 6.61769,1.07042 9.05132,0.92801 -0.288,-0.70563 -0.50402,-1.42081 -0.63361,-2.13123 -1.02881,-5.59527 3.99686,-8.56492 7.5345,-6.50888 2.98563,1.73281 3.44644,7.60808 -2.05283,9.70731 -0.3792,0.14082 -0.79202,0.26402 -1.22721,0.36482 0.9328,0.9904 1.89762,1.81763 2.88963,2.52004 1.77603,0.07359 4.13925,-0.16321 6.55848,-1.40325 4.90886,-2.51201 5.76967,-10.52331 2.28003,-14.95698 C 22.96269,71.4834 13.60255,71.2562 8.2345,75.82266 5.09845,78.49149 3.11124,83.27077 2.78482,88.32843 Z"
                 style="fill:#000000;fill-opacity:1;fill-rule:nonzero;stroke:#000000;stroke-width:0.3985;stroke-linecap:butt;stroke-linejoin:miter;stroke-miterlimit:10;stroke-dasharray:none;stroke-opacity:1"
                 id="path26" /></g></g></g></g></g></g></svg>
