<?xml version="1.0" encoding="UTF-8" standalone="no"?>
<svg
   xmlns:dc="http://purl.org/dc/elements/1.1/"
   xmlns:cc="http://creativecommons.org/ns#"
   xmlns:rdf="http://www.w3.org/1999/02/22-rdf-syntax-ns#"
   xmlns:svg="http://www.w3.org/2000/svg"
   xmlns="http://www.w3.org/2000/svg"
   xmlns:sodipodi="http://sodipodi.sourceforge.net/DTD/sodipodi-0.dtd"
   xmlns:inkscape="http://www.inkscape.org/namespaces/inkscape"
   version="1.1"
   id="svg2"
   xml:space="preserve"
   width="178.66895"
   height="178.66895"
   viewBox="0 0 178.66894 178.66894"
   sodipodi:docname="vectorian008.pdf"><metadata
     id="metadata8"><rdf:RDF><cc:Work
         rdf:about=""><dc:format>image/svg+xml</dc:format><dc:type
           rdf:resource="http://purl.org/dc/dcmitype/StillImage" /></cc:Work></rdf:RDF></metadata><defs
     id="defs6"><clipPath
       clipPathUnits="userSpaceOnUse"
       id="clipPath24"><path
         d="M 0,0 H 134.00171 V 134.00171 H 0 Z"
         id="path22" /></clipPath></defs><sodipodi:namedview
     pagecolor="#ffffff"
     bordercolor="#666666"
     borderopacity="1"
     objecttolerance="10"
     gridtolerance="10"
     guidetolerance="10"
     inkscape:pageopacity="0"
     inkscape:pageshadow="2"
     inkscape:window-width="640"
     inkscape:window-height="480"
     id="namedview4" /><g
     id="g10"
     inkscape:groupmode="layer"
     inkscape:label="vectorian008"
     transform="matrix(1.3333333,0,0,-1.3333333,0,178.66894)"><g
       id="g12"
       transform="translate(72,62)"><g
         id="g14"
         transform="translate(-72,-62)"><g
           id="g16"><g
             id="g18"><g
               id="g20"
               clip-path="url(#clipPath24)"><path
                 d="m 62.2251,106.22536 c 0.23909,1.36972 -0.54363,3.37013 -1.18204,4.32875 -0.2076,0.3103 -0.6306,0.39531 -0.9409,0.18779 -0.31029,-0.2076 -0.39331,-0.6305 -0.18779,-0.94089 0.45859,-0.68982 1.56941,-1.82832 2.31073,-3.57565 z"
                 style="fill:#000000;fill-opacity:1;fill-rule:nonzero;stroke:#000000;stroke-width:0.3985;stroke-linecap:butt;stroke-linejoin:miter;stroke-miterlimit:10;stroke-dasharray:none;stroke-opacity:1"
                 id="path26" /><path
                 d="m 57.19452,102.95401 c 0.22142,0.42102 -1.37572,5.47129 -2.57942,4.58977 -0.1384,-0.10482 -0.25112,-0.25112 -0.28861,-0.4171 -0.13439,-0.59302 0.55341,-1.17413 0.87961,-1.58722 0.6681,-0.85593 1.32231,-1.72363 1.98842,-2.58545 z"
                 style="fill:#000000;fill-opacity:1;fill-rule:nonzero;stroke:#000000;stroke-width:0.3985;stroke-linecap:butt;stroke-linejoin:miter;stroke-miterlimit:10;stroke-dasharray:none;stroke-opacity:1"
                 id="path28" /><path
                 d="m 48.74051,99.77957 c 0.33012,0.17589 -1.22351,3.78123 -1.22351,3.78123 -0.172,0.33213 -0.58512,0.45862 -0.9171,0.28463 -0.32813,-0.1759 -0.45662,-0.58503 -0.28272,-0.91712 0,0 0.77682,-1.96083 2.42333,-3.14874 z"
                 style="fill:#000000;fill-opacity:1;fill-rule:nonzero;stroke:#000000;stroke-width:0.3985;stroke-linecap:butt;stroke-linejoin:miter;stroke-miterlimit:10;stroke-dasharray:none;stroke-opacity:1"
                 id="path30" /><path
                 d="m 46.92798,98.38016 c 0.37552,-0.02181 -2.22762,3.36813 -2.22762,3.36813 -0.25502,0.27671 -0.68791,0.28661 -0.95671,0.0316 -0.27481,-0.253 -0.2886,-0.68389 -0.0336,-0.95671 0,0 1.57732,-2.34033 3.21793,-2.44302 z"
                 style="fill:#000000;fill-opacity:1;fill-rule:nonzero;stroke:#000000;stroke-width:0.3985;stroke-linecap:butt;stroke-linejoin:miter;stroke-miterlimit:10;stroke-dasharray:none;stroke-opacity:1"
                 id="path32" /><path
                 d="m 64.95482,108.04189 c 0.2984,1.66232 -0.98441,4.19834 -0.98441,4.19834 -0.1423,0.34591 -0.53759,0.51392 -0.88551,0.37351 -0.3459,-0.1443 -0.5119,-0.53963 -0.36961,-0.88753 0,0 2.17624,-4.05203 2.23953,-3.68432 z"
                 style="fill:#000000;fill-opacity:1;fill-rule:nonzero;stroke:#000000;stroke-width:0.3985;stroke-linecap:butt;stroke-linejoin:miter;stroke-miterlimit:10;stroke-dasharray:none;stroke-opacity:1"
                 id="path34" /><path
                 d="m 26.50941,53.03438 c 0.11472,0.04548 4.31107,1.67221 5.50298,3.03212 -1.79283,-0.0019 -5.94177,-1.74921 -5.97337,-1.75911 -0.3498,-0.13252 -0.5297,-0.51991 -0.40122,-0.86972 0.13242,-0.35379 0.51982,-0.53169 0.87161,-0.40329 z"
                 style="fill:#000000;fill-opacity:1;fill-rule:nonzero;stroke:#000000;stroke-width:0.3985;stroke-linecap:butt;stroke-linejoin:miter;stroke-miterlimit:10;stroke-dasharray:none;stroke-opacity:1"
                 id="path36" /><path
                 d="m 87.089,20.26006 c 0.45461,-1.73552 3.17644,-5.3191 3.19425,-5.34287 0.2115,-0.3083 0.63641,-0.38542 0.94281,-0.1739 0.30841,0.21348 0.38542,0.63649 0.17392,0.94479 -0.07112,0.1028 -2.69415,3.75957 -4.31098,4.57198 z"
                 style="fill:#000000;fill-opacity:1;fill-rule:nonzero;stroke:#000000;stroke-width:0.3985;stroke-linecap:butt;stroke-linejoin:miter;stroke-miterlimit:10;stroke-dasharray:none;stroke-opacity:1"
                 id="path38" /><path
                 d="m 32.4413,52.79727 c -3.49075,-1.36983 -4.33667,-1.64851 -8.2247,-2.22172 -0.3716,-0.05741 -0.6286,-0.40133 -0.57132,-0.77092 0.0534,-0.3716 0.39932,-0.62662 0.7689,-0.57131 1.30864,0.1938 2.55385,0.5199 3.64698,0.87961 2.36403,0.77681 4.72606,2.82265 4.38014,2.68434 z"
                 style="fill:#000000;fill-opacity:1;fill-rule:nonzero;stroke:#000000;stroke-width:0.3985;stroke-linecap:butt;stroke-linejoin:miter;stroke-miterlimit:10;stroke-dasharray:none;stroke-opacity:1"
                 id="path40" /><path
                 d="m 42.31853,53.55627 c -0.3499,-0.1246 -0.53771,-0.514 -0.40921,-0.86781 0.12451,-0.35179 0.51391,-0.5356 0.86381,-0.4111 0,0 2.05962,1.24132 2.52416,1.61882 0.28859,0.23921 -2.97876,-0.33991 -2.97876,-0.33991 z"
                 style="fill:#000000;fill-opacity:1;fill-rule:nonzero;stroke:#000000;stroke-width:0.3985;stroke-linecap:butt;stroke-linejoin:miter;stroke-miterlimit:10;stroke-dasharray:none;stroke-opacity:1"
                 id="path42" /><path
                 d="m 46.926,52.10936 c -1.18792,-0.51003 -3.54806,-1.18993 -3.54806,-1.18993 -0.31231,-0.20759 -0.39529,-0.6266 -0.18971,-0.93888 0.20952,-0.31232 0.63053,-0.39733 0.94083,-0.18982 0,0 2.51231,0.79071 2.79694,2.31863 z"
                 style="fill:#000000;fill-opacity:1;fill-rule:nonzero;stroke:#000000;stroke-width:0.3985;stroke-linecap:butt;stroke-linejoin:miter;stroke-miterlimit:10;stroke-dasharray:none;stroke-opacity:1"
                 id="path44" /><path
                 d="m 50.95235,9.65941 c -0.02571,-0.3716 0.257,-0.69381 0.62861,-0.72341 0.3736,-0.0257 0.6977,0.2569 0.72539,0.62851 0,0 -0.57721,2.38973 -0.7234,3.67064 -1.18601,-1.00021 -0.6306,-3.57574 -0.6306,-3.57574 z"
                 style="fill:#000000;fill-opacity:1;fill-rule:nonzero;stroke:#000000;stroke-width:0.3985;stroke-linecap:butt;stroke-linejoin:miter;stroke-miterlimit:10;stroke-dasharray:none;stroke-opacity:1"
                 id="path46" /><path
                 d="m 45.02846,49.27492 c -0.31031,-0.2096 -0.38741,-0.63451 -0.17789,-0.94091 0.2135,-0.3103 0.63451,-0.3874 0.94481,-0.1759 0,0 2.08931,1.06931 2.58542,2.60123 0.1146,0.35769 -3.35234,-1.48442 -3.35234,-1.48442 z"
                 style="fill:#000000;fill-opacity:1;fill-rule:nonzero;stroke:#000000;stroke-width:0.3985;stroke-linecap:butt;stroke-linejoin:miter;stroke-miterlimit:10;stroke-dasharray:none;stroke-opacity:1"
                 id="path48" /><path
                 d="m 55.13098,39.8503 c -0.02178,-0.3716 0.26091,-0.6937 0.63452,-0.71752 0.3735,-0.02569 0.6957,0.26092 0.72142,0.63652 0,0 -0.18181,2.56363 -0.4843,3.12503 -0.37352,0.0237 -0.87164,-3.04403 -0.87164,-3.04403 z"
                 style="fill:#000000;fill-opacity:1;fill-rule:nonzero;stroke:#000000;stroke-width:0.3985;stroke-linecap:butt;stroke-linejoin:miter;stroke-miterlimit:10;stroke-dasharray:none;stroke-opacity:1"
                 id="path50" /><path
                 d="m 58.75415,40.01439 c 0.0533,-0.37159 0.39529,-0.6286 0.76689,-0.57519 0.36762,0.0514 0.62853,0.3973 0.57323,0.7669 -0.25502,1.79681 0.27869,3.48285 0.46849,4.07776 -0.3064,0.20961 -2.14473,-1.92322 -1.80861,-4.26947 z"
                 style="fill:#000000;fill-opacity:1;fill-rule:nonzero;stroke:#000000;stroke-width:0.3985;stroke-linecap:butt;stroke-linejoin:miter;stroke-miterlimit:10;stroke-dasharray:none;stroke-opacity:1"
                 id="path52" /><path
                 d="m 86.4802,46.72308 c -0.24311,-0.2886 1.89363,-2.46482 1.89363,-2.46482 0.2866,-0.23922 0.7135,-0.2017 0.95471,0.08691 0.23909,0.28859 0.1996,0.71359 -0.08701,0.9547 0,0 -2.52213,1.7098 -2.76133,1.42321 z"
                 style="fill:#000000;fill-opacity:1;fill-rule:nonzero;stroke:#000000;stroke-width:0.3985;stroke-linecap:butt;stroke-linejoin:miter;stroke-miterlimit:10;stroke-dasharray:none;stroke-opacity:1"
                 id="path54" /><path
                 d="m 84.66367,18.88632 c -0.3004,-0.22738 1.28682,-2.82664 1.28682,-2.82664 0.22531,-0.2984 0.65031,-0.3597 0.95071,-0.13239 0.29849,0.22531 0.35582,0.6503 0.13242,0.95071 0,0 -2.07343,2.23363 -2.36995,2.00832 z"
                 style="fill:#000000;fill-opacity:1;fill-rule:nonzero;stroke:#000000;stroke-width:0.3985;stroke-linecap:butt;stroke-linejoin:miter;stroke-miterlimit:10;stroke-dasharray:none;stroke-opacity:1"
                 id="path56" /><path
                 d="M 56.70831,10.21883 C 56.4454,10.17332 56.60951,8.0129 56.60951,8.0129 56.65692,7.752 56.90993,7.57608 57.16882,7.62149 c 0.26291,0.0455 0.43691,0.29648 0.39139,0.55941 0,0 -0.58897,2.0853 -0.8519,2.03793 z"
                 style="fill:#000000;fill-opacity:1;fill-rule:nonzero;stroke:#000000;stroke-width:0.3985;stroke-linecap:butt;stroke-linejoin:miter;stroke-miterlimit:10;stroke-dasharray:none;stroke-opacity:1"
                 id="path58" /><path
                 d="m 78.79709,17.78922 c -0.24318,-0.10271 0.40911,-2.17034 0.40911,-2.17034 0.1048,-0.2431 0.38552,-0.3577 0.63052,-0.25299 0.2451,0.10481 0.35978,0.38739 0.255,0.63061 0,0 -1.04761,1.89751 -1.29463,1.79272 z"
                 style="fill:#000000;fill-opacity:1;fill-rule:nonzero;stroke:#000000;stroke-width:0.3985;stroke-linecap:butt;stroke-linejoin:miter;stroke-miterlimit:10;stroke-dasharray:none;stroke-opacity:1"
                 id="path60" /><path
                 d="m 90.11325,21.49738 c -0.2214,-0.14821 0.7946,-2.06165 0.7946,-2.06165 0.1443,-0.22128 0.44272,-0.28259 0.66611,-0.1344 0.22142,0.1424 0.2807,0.44281 0.13641,0.66621 0,0 -1.37382,1.67412 -1.59712,1.52984 z"
                 style="fill:#000000;fill-opacity:1;fill-rule:nonzero;stroke:#000000;stroke-width:0.3985;stroke-linecap:butt;stroke-linejoin:miter;stroke-miterlimit:10;stroke-dasharray:none;stroke-opacity:1"
                 id="path62" /><path
                 d="m 90.55594,46.01538 c 0.3183,-0.2016 0.73732,-0.10271 0.93693,0.2135 0.1957,0.31832 0.1028,0.73732 -0.2194,0.93491 0,0 -3.14277,1.60902 -3.34245,1.29081 -0.19961,-0.3163 2.62492,-2.43922 2.62492,-2.43922 z"
                 style="fill:#000000;fill-opacity:1;fill-rule:nonzero;stroke:#000000;stroke-width:0.3985;stroke-linecap:butt;stroke-linejoin:miter;stroke-miterlimit:10;stroke-dasharray:none;stroke-opacity:1"
                 id="path64" /><path
                 d="m 82.07825,18.22801 c -0.40911,-0.24699 1.55952,-4.28724 1.55952,-4.28724 0.2432,-0.40912 0.77291,-0.54162 1.18212,-0.2965 0.4091,0.24309 0.5415,0.76891 0.2964,1.18001 0,0 -2.63083,3.64694 -3.03804,3.40373 z"
                 style="fill:#000000;fill-opacity:1;fill-rule:nonzero;stroke:#000000;stroke-width:0.3985;stroke-linecap:butt;stroke-linejoin:miter;stroke-miterlimit:10;stroke-dasharray:none;stroke-opacity:1"
                 id="path66" /><path
                 d="m 49.51143,14.20567 c -0.33211,0.166 -1.86793,-2.19214 -1.22151,-4.47316 0.10269,-0.36172 0.4783,-0.56923 0.83799,-0.4684 0.36182,0.10279 0.56931,0.47629 0.46651,0.83809 -0.49609,1.74733 -0.18779,3.48676 -0.08299,4.10347 z"
                 style="fill:#000000;fill-opacity:1;fill-rule:nonzero;stroke:#000000;stroke-width:0.3985;stroke-linecap:butt;stroke-linejoin:miter;stroke-miterlimit:10;stroke-dasharray:none;stroke-opacity:1"
                 id="path68" /><path
                 d="m 45.28737,9.39061 c 0.04939,-0.45461 0.4606,-0.78471 0.9172,-0.72941 0.45263,0.0514 0.77872,0.4606 0.72731,0.9172 -0.25098,2.20393 0.46452,4.24178 0.71952,4.96129 -0.3696,0.2688 -2.68823,-2.27114 -2.36403,-5.14908 z"
                 style="fill:#000000;fill-opacity:1;fill-rule:nonzero;stroke:#000000;stroke-width:0.3985;stroke-linecap:butt;stroke-linejoin:miter;stroke-miterlimit:10;stroke-dasharray:none;stroke-opacity:1"
                 id="path70" /><path
                 d="m 85.41878,84.43309 c 1.83233,0.25888 2.60913,1.26301 2.60913,1.26301 0.29451,0.2352 0.33601,0.66219 0.0988,0.95081 -0.2372,0.29049 -0.66409,0.334 -0.9547,0.09679 0,0 -2.12292,-2.36003 -1.75323,-2.31061 z"
                 style="fill:#000000;fill-opacity:1;fill-rule:nonzero;stroke:#000000;stroke-width:0.3985;stroke-linecap:butt;stroke-linejoin:miter;stroke-miterlimit:10;stroke-dasharray:none;stroke-opacity:1"
                 id="path72" /><path
                 d="m 41.79472,98.72604 c 0.4981,0 0.90131,0.40523 0.90131,0.90525 0,0.4962 -0.40321,0.90329 -0.90131,0.90329 -0.50212,0 -0.9033,-0.40709 -0.9033,-0.90329 0,-0.50002 0.40118,-0.90525 0.9033,-0.90525 z"
                 style="fill:#000000;fill-opacity:1;fill-rule:nonzero;stroke:#000000;stroke-width:0.3985;stroke-linecap:butt;stroke-linejoin:miter;stroke-miterlimit:10;stroke-dasharray:none;stroke-opacity:1"
                 id="path74" /><path
                 d="m 49.02522,102.5686 c 0.5,0 0.9052,0.40522 0.9052,0.90331 0,0.49812 -0.4052,0.90332 -0.9052,0.90332 -0.49811,0 -0.9033,-0.4052 -0.9033,-0.90332 0,-0.49809 0.40519,-0.90331 0.9033,-0.90331 z"
                 style="fill:#000000;fill-opacity:1;fill-rule:nonzero;stroke:#000000;stroke-width:0.3985;stroke-linecap:butt;stroke-linejoin:miter;stroke-miterlimit:10;stroke-dasharray:none;stroke-opacity:1"
                 id="path76" /><path
                 d="m 51.85175,105.28055 c 0.31231,0 0.5653,0.25101 0.5653,0.56531 0,0.3103 -0.25299,0.5633 -0.5653,0.5633 -0.31031,0 -0.56531,-0.253 -0.56531,-0.5633 0,-0.3143 0.255,-0.56531 0.56531,-0.56531 z"
                 style="fill:#000000;fill-opacity:1;fill-rule:nonzero;stroke:#000000;stroke-width:0.3985;stroke-linecap:butt;stroke-linejoin:miter;stroke-miterlimit:10;stroke-dasharray:none;stroke-opacity:1"
                 id="path78" /><path
                 d="m 58.06624,106.63446 c 0.50209,0 0.9053,0.40721 0.9053,0.90732 0,0.49809 -0.40321,0.9033 -0.9053,0.9033 -0.49812,0 -0.90331,-0.40521 -0.90331,-0.9033 0,-0.50011 0.40519,-0.90732 0.90331,-0.90732 z"
                 style="fill:#000000;fill-opacity:1;fill-rule:nonzero;stroke:#000000;stroke-width:0.3985;stroke-linecap:butt;stroke-linejoin:miter;stroke-miterlimit:10;stroke-dasharray:none;stroke-opacity:1"
                 id="path80" /><path
                 d="m 74.62834,111.48112 c 0.49811,0 0.90531,0.40722 0.90531,0.90731 0,0.50012 -0.4072,0.9013 -0.90531,0.9013 -0.502,0 -0.9053,-0.40118 -0.9053,-0.9013 0,-0.50009 0.4033,-0.90731 0.9053,-0.90731 z"
                 style="fill:#000000;fill-opacity:1;fill-rule:nonzero;stroke:#000000;stroke-width:0.3985;stroke-linecap:butt;stroke-linejoin:miter;stroke-miterlimit:10;stroke-dasharray:none;stroke-opacity:1"
                 id="path82" /><path
                 d="m 78.6666,107.17406 c 0.5001,0 0.9033,0.40521 0.9033,0.90533 0,0.50009 -0.4032,0.90329 -0.9033,0.90329 -0.49811,0 -0.90531,-0.4032 -0.90531,-0.90329 0,-0.50012 0.4072,-0.90533 0.90531,-0.90533 z"
                 style="fill:#000000;fill-opacity:1;fill-rule:nonzero;stroke:#000000;stroke-width:0.3985;stroke-linecap:butt;stroke-linejoin:miter;stroke-miterlimit:10;stroke-dasharray:none;stroke-opacity:1"
                 id="path84" /><path
                 d="m 28.11845,89.91225 c 0.5001,0 0.90331,0.4013 0.90331,0.90332 0,0.49809 -0.40321,0.90329 -0.90331,0.90329 -0.49812,0 -0.90332,-0.4052 -0.90332,-0.90329 0,-0.50202 0.4052,-0.90332 0.90332,-0.90332 z"
                 style="fill:#000000;fill-opacity:1;fill-rule:nonzero;stroke:#000000;stroke-width:0.3985;stroke-linecap:butt;stroke-linejoin:miter;stroke-miterlimit:10;stroke-dasharray:none;stroke-opacity:1"
                 id="path86" /><path
                 d="m 28.23116,83.21146 c 0.33001,0 0.59689,0.26489 0.59689,0.59501 0,0.3321 -0.26688,0.5969 -0.59689,0.5969 -0.32821,0 -0.59502,-0.2648 -0.59502,-0.5969 0,-0.33012 0.26681,-0.59501 0.59502,-0.59501 z"
                 style="fill:#000000;fill-opacity:1;fill-rule:nonzero;stroke:#000000;stroke-width:0.3985;stroke-linecap:butt;stroke-linejoin:miter;stroke-miterlimit:10;stroke-dasharray:none;stroke-opacity:1"
                 id="path88" /><path
                 d="m 30.94498,82.11253 c 0.5001,0 0.90532,0.40522 0.90532,0.90522 0,0.4981 -0.40522,0.90332 -0.90532,0.90332 -0.50009,0 -0.90331,-0.40522 -0.90331,-0.90332 0,-0.5 0.40322,-0.90522 0.90331,-0.90522 z"
                 style="fill:#000000;fill-opacity:1;fill-rule:nonzero;stroke:#000000;stroke-width:0.3985;stroke-linecap:butt;stroke-linejoin:miter;stroke-miterlimit:10;stroke-dasharray:none;stroke-opacity:1"
                 id="path90" /><path
                 d="m 27.10443,76.91397 c 0.49811,0 0.90132,0.40321 0.90132,0.90332 0,0.50012 -0.40321,0.90531 -0.90132,0.90531 -0.5021,0 -0.9073,-0.40519 -0.9073,-0.90531 0,-0.50011 0.4052,-0.90332 0.9073,-0.90332 z"
                 style="fill:#000000;fill-opacity:1;fill-rule:nonzero;stroke:#000000;stroke-width:0.3985;stroke-linecap:butt;stroke-linejoin:miter;stroke-miterlimit:10;stroke-dasharray:none;stroke-opacity:1"
                 id="path92" /><path
                 d="m 30.26698,77.13928 c 0.3104,0 0.5654,0.25299 0.5654,0.56729 0,0.31232 -0.255,0.56342 -0.5654,0.56342 -0.31231,0 -0.56532,-0.2511 -0.56532,-0.56342 0,-0.3143 0.25301,-0.56729 0.56532,-0.56729 z"
                 style="fill:#000000;fill-opacity:1;fill-rule:nonzero;stroke:#000000;stroke-width:0.3985;stroke-linecap:butt;stroke-linejoin:miter;stroke-miterlimit:10;stroke-dasharray:none;stroke-opacity:1"
                 id="path94" /><path
                 d="m 31.28499,58.04124 c 0.50011,0 0.90331,0.40519 0.90331,0.90331 0,0.502 -0.4032,0.90521 -0.90331,0.90521 -0.50011,0 -0.9073,-0.40321 -0.9073,-0.90521 0,-0.49812 0.40719,-0.90331 0.9073,-0.90331 z"
                 style="fill:#000000;fill-opacity:1;fill-rule:nonzero;stroke:#000000;stroke-width:0.3985;stroke-linecap:butt;stroke-linejoin:miter;stroke-miterlimit:10;stroke-dasharray:none;stroke-opacity:1"
                 id="path96" /><path
                 d="m 24.27791,55.6673 c 0.49809,0 0.90329,0.4071 0.90329,0.90532 0,0.4981 -0.4052,0.9013 -0.90329,0.9013 -0.50012,0 -0.90332,-0.4032 -0.90332,-0.9013 0,-0.49822 0.4032,-0.90532 0.90332,-0.90532 z"
                 style="fill:#000000;fill-opacity:1;fill-rule:nonzero;stroke:#000000;stroke-width:0.3985;stroke-linecap:butt;stroke-linejoin:miter;stroke-miterlimit:10;stroke-dasharray:none;stroke-opacity:1"
                 id="path98" /><path
                 d="m 17.4961,48.66212 c 0,0.5001 -0.40519,0.90331 -0.9033,0.90331 -0.50012,0 -0.90342,-0.40321 -0.90342,-0.90331 0,-0.50201 0.4033,-0.90533 0.90342,-0.90533 0.49811,0 0.9033,0.40332 0.9033,0.90533 z"
                 style="fill:#000000;fill-opacity:1;fill-rule:nonzero;stroke:#000000;stroke-width:0.3985;stroke-linecap:butt;stroke-linejoin:miter;stroke-miterlimit:10;stroke-dasharray:none;stroke-opacity:1"
                 id="path100" /><path
                 d="m 17.83601,45.38287 c -0.5,0 -0.90531,-0.40321 -0.90531,-0.9033 0,-0.50002 0.40531,-0.90332 0.90531,-0.90332 0.49809,0 0.90532,0.4033 0.90532,0.90332 0,0.50009 -0.40723,0.9033 -0.90532,0.9033 z"
                 style="fill:#000000;fill-opacity:1;fill-rule:nonzero;stroke:#000000;stroke-width:0.3985;stroke-linecap:butt;stroke-linejoin:miter;stroke-miterlimit:10;stroke-dasharray:none;stroke-opacity:1"
                 id="path102" /><path
                 d="m 29.92706,48.32211 c -0.49809,0 -0.9053,-0.4032 -0.9053,-0.90132 0,-0.50199 0.40721,-0.9073 0.9053,-0.9073 0.50013,0 0.90532,0.40531 0.90532,0.9073 0,0.49812 -0.40519,0.90132 -0.90532,0.90132 z"
                 style="fill:#000000;fill-opacity:1;fill-rule:nonzero;stroke:#000000;stroke-width:0.3985;stroke-linecap:butt;stroke-linejoin:miter;stroke-miterlimit:10;stroke-dasharray:none;stroke-opacity:1"
                 id="path104" /><path
                 d="m 24.0525,34.08453 c -0.50012,0 -0.90533,-0.40523 -0.90533,-0.90731 0,-0.49811 0.40521,-0.90131 0.90533,-0.90131 0.4981,0 0.90333,0.4032 0.90333,0.90131 0,0.50208 -0.40523,0.90731 -0.90333,0.90731 z"
                 style="fill:#000000;fill-opacity:1;fill-rule:nonzero;stroke:#000000;stroke-width:0.3985;stroke-linecap:butt;stroke-linejoin:miter;stroke-miterlimit:10;stroke-dasharray:none;stroke-opacity:1"
                 id="path106" /><path
                 d="m 27.32785,35.38124 c -0.32822,0 -0.59302,-0.26489 -0.59302,-0.59102 0,-0.3282 0.2648,-0.595 0.59302,-0.595 0.32808,0 0.59688,0.2668 0.59688,0.595 0,0.32613 -0.2688,0.59102 -0.59688,0.59102 z"
                 style="fill:#000000;fill-opacity:1;fill-rule:nonzero;stroke:#000000;stroke-width:0.3985;stroke-linecap:butt;stroke-linejoin:miter;stroke-miterlimit:10;stroke-dasharray:none;stroke-opacity:1"
                 id="path108" /><path
                 d="m 25.6338,31.03258 c -0.502,0 -0.9053,-0.40521 -0.9053,-0.90331 0,-0.502 0.4033,-0.90721 0.9053,-0.90721 0.49813,0 0.90332,0.40521 0.90332,0.90721 0,0.4981 -0.40519,0.90331 -0.90332,0.90331 z"
                 style="fill:#000000;fill-opacity:1;fill-rule:nonzero;stroke:#000000;stroke-width:0.3985;stroke-linecap:butt;stroke-linejoin:miter;stroke-miterlimit:10;stroke-dasharray:none;stroke-opacity:1"
                 id="path110" /><path
                 d="m 42.58333,56.11792 c 0.3914,0 0.70762,0.3163 0.70762,0.7077 0,0.3913 -0.31622,0.70761 -0.70762,0.70761 -0.38741,0 -0.70561,-0.31631 -0.70561,-0.70761 0,-0.3914 0.3182,-0.7077 0.70561,-0.7077 z"
                 style="fill:#000000;fill-opacity:1;fill-rule:nonzero;stroke:#000000;stroke-width:0.3985;stroke-linecap:butt;stroke-linejoin:miter;stroke-miterlimit:10;stroke-dasharray:none;stroke-opacity:1"
                 id="path112" /><path
                 d="m 62.81409,43.00894 c -0.49809,0 -0.90329,-0.40121 -0.90329,-0.90332 0,-0.49811 0.4052,-0.9033 0.90329,-0.9033 0.49812,0 0.9033,0.40519 0.9033,0.9033 0,0.50211 -0.40518,0.90332 -0.9033,0.90332 z"
                 style="fill:#000000;fill-opacity:1;fill-rule:nonzero;stroke:#000000;stroke-width:0.3985;stroke-linecap:butt;stroke-linejoin:miter;stroke-miterlimit:10;stroke-dasharray:none;stroke-opacity:1"
                 id="path114" /><path
                 d="m 68.06796,41.59772 c -0.49811,0 -0.9033,-0.40531 -0.9033,-0.90342 0,-0.5 0.40519,-0.90331 0.9033,-0.90331 0.50011,0 0.90531,0.40331 0.90531,0.90331 0,0.49811 -0.4052,0.90342 -0.90531,0.90342 z"
                 style="fill:#000000;fill-opacity:1;fill-rule:nonzero;stroke:#000000;stroke-width:0.3985;stroke-linecap:butt;stroke-linejoin:miter;stroke-miterlimit:10;stroke-dasharray:none;stroke-opacity:1"
                 id="path116" /><path
                 d="m 81.46353,42.62944 c -0.37359,0 -0.67401,-0.3004 -0.67401,-0.67201 0,-0.37361 0.30042,-0.67211 0.67401,-0.67211 0.3676,0 0.67011,0.2985 0.67011,0.67211 0,0.37161 -0.30251,0.67201 -0.67011,0.67201 z"
                 style="fill:#000000;fill-opacity:1;fill-rule:nonzero;stroke:#000000;stroke-width:0.3985;stroke-linecap:butt;stroke-linejoin:miter;stroke-miterlimit:10;stroke-dasharray:none;stroke-opacity:1"
                 id="path118" /><path
                 d="m 83.38286,44.59027 c -0.50009,0 -0.90531,-0.40321 -0.90531,-0.90132 0,-0.50012 0.40522,-0.90332 0.90531,-0.90332 0.49811,0 0.9013,0.4032 0.9013,0.90332 0,0.49811 -0.40319,0.90132 -0.9013,0.90132 z"
                 style="fill:#000000;fill-opacity:1;fill-rule:nonzero;stroke:#000000;stroke-width:0.3985;stroke-linecap:butt;stroke-linejoin:miter;stroke-miterlimit:10;stroke-dasharray:none;stroke-opacity:1"
                 id="path120" /><path
                 d="m 84.73488,46.28818 c -0.49811,0 -0.90141,-0.4032 -0.90141,-0.90531 0,-0.50001 0.4033,-0.9033 0.90141,-0.9033 0.504,0 0.90921,0.40329 0.90921,0.9033 0,0.50211 -0.40521,0.90531 -0.90921,0.90531 z"
                 style="fill:#000000;fill-opacity:1;fill-rule:nonzero;stroke:#000000;stroke-width:0.3985;stroke-linecap:butt;stroke-linejoin:miter;stroke-miterlimit:10;stroke-dasharray:none;stroke-opacity:1"
                 id="path122" /><path
                 d="m 92.65117,51.95715 c -0.35179,0 -0.6364,-0.2827 -0.6364,-0.6325 0,-0.3499 0.28461,-0.63253 0.6364,-0.63253 0.34791,0 0.63252,0.28263 0.63252,0.63253 0,0.3498 -0.28461,0.6325 -0.63252,0.6325 z"
                 style="fill:#000000;fill-opacity:1;fill-rule:nonzero;stroke:#000000;stroke-width:0.3985;stroke-linecap:butt;stroke-linejoin:miter;stroke-miterlimit:10;stroke-dasharray:none;stroke-opacity:1"
                 id="path124" /><path
                 d="m 92.87457,56.0053 c 0.502,0 0.90333,0.4071 0.90333,0.90522 0,0.50011 -0.40133,0.90341 -0.90333,0.90341 -0.50009,0 -0.9033,-0.4033 -0.9033,-0.90341 0,-0.49812 0.40321,-0.90522 0.9033,-0.90522 z"
                 style="fill:#000000;fill-opacity:1;fill-rule:nonzero;stroke:#000000;stroke-width:0.3985;stroke-linecap:butt;stroke-linejoin:miter;stroke-miterlimit:10;stroke-dasharray:none;stroke-opacity:1"
                 id="path126" /><path
                 d="m 90.16464,75.10535 c 0,-0.49811 0.4032,-0.90331 0.90332,-0.90331 0.4981,0 0.90331,0.4052 0.90331,0.90331 0,0.50012 -0.40521,0.90332 -0.90331,0.90332 -0.50012,0 -0.90332,-0.4032 -0.90332,-0.90332 z"
                 style="fill:#000000;fill-opacity:1;fill-rule:nonzero;stroke:#000000;stroke-width:0.3985;stroke-linecap:butt;stroke-linejoin:miter;stroke-miterlimit:10;stroke-dasharray:none;stroke-opacity:1"
                 id="path128" /><path
                 d="m 90.93156,77.56038 c -0.10479,0.4882 -0.58711,0.79451 -1.07331,0.68982 -0.49022,-0.1087 -0.79851,-0.591 -0.68982,-1.07732 0.1047,-0.4882 0.58702,-0.79651 1.07521,-0.68782 0.48832,0.1028 0.79461,0.58702 0.68792,1.07532 z"
                 style="fill:#000000;fill-opacity:1;fill-rule:nonzero;stroke:#000000;stroke-width:0.3985;stroke-linecap:butt;stroke-linejoin:miter;stroke-miterlimit:10;stroke-dasharray:none;stroke-opacity:1"
                 id="path130" /><path
                 d="m 89.50642,79.88681 c 0.10273,-0.49221 0.58902,-0.79851 1.07723,-0.68981 0.48631,0.10471 0.79462,0.58701 0.68791,1.07522 -0.1068,0.48831 -0.5871,0.79661 -1.07532,0.68791 -0.49022,-0.10481 -0.79661,-0.58701 -0.68982,-1.07332 z"
                 style="fill:#000000;fill-opacity:1;fill-rule:nonzero;stroke:#000000;stroke-width:0.3985;stroke-linecap:butt;stroke-linejoin:miter;stroke-miterlimit:10;stroke-dasharray:none;stroke-opacity:1"
                 id="path132" /><path
                 d="m 87.92311,82.59676 c 0.1048,-0.48621 0.58902,-0.79462 1.07732,-0.68782 0.48822,0.1047 0.79451,0.587 0.6898,1.07521 -0.10679,0.49022 -0.58899,0.79661 -1.0753,0.68992 -0.4902,-0.10481 -0.79851,-0.58709 -0.69182,-1.07731 z"
                 style="fill:#000000;fill-opacity:1;fill-rule:nonzero;stroke:#000000;stroke-width:0.3985;stroke-linecap:butt;stroke-linejoin:miter;stroke-miterlimit:10;stroke-dasharray:none;stroke-opacity:1"
                 id="path134" /><path
                 d="m 85.7232,87.1074 c 0.4882,0.10682 0.7945,0.58514 0.6878,1.07732 -0.1028,0.48419 -0.5851,0.79651 -1.07532,0.68782 -0.48821,-0.10672 -0.7965,-0.58704 -0.68781,-1.07722 0.10282,-0.48632 0.58701,-0.7946 1.07533,-0.68792 z"
                 style="fill:#000000;fill-opacity:1;fill-rule:nonzero;stroke:#000000;stroke-width:0.3985;stroke-linecap:butt;stroke-linejoin:miter;stroke-miterlimit:10;stroke-dasharray:none;stroke-opacity:1"
                 id="path136" /><path
                 d="m 96.86534,31.35088 c -0.49022,-0.10869 -0.79851,-0.5891 -0.69182,-1.0792 0.1068,-0.48631 0.58712,-0.79461 1.07733,-0.68791 0.4862,0.1048 0.79461,0.58901 0.68779,1.07721 -0.10469,0.4863 -0.587,0.79462 -1.0733,0.6899 z"
                 style="fill:#000000;fill-opacity:1;fill-rule:nonzero;stroke:#000000;stroke-width:0.3985;stroke-linecap:butt;stroke-linejoin:miter;stroke-miterlimit:10;stroke-dasharray:none;stroke-opacity:1"
                 id="path138" /><path
                 d="m 96.41072,25.35973 c -0.4882,-0.10483 -0.79662,-0.58903 -0.6898,-1.07724 0.1067,-0.4883 0.589,-0.7966 1.07721,-0.6879 0.48631,0.1028 0.79661,0.58902 0.68791,1.07731 -0.10478,0.48621 -0.5871,0.7945 -1.07532,0.68783 z"
                 style="fill:#000000;fill-opacity:1;fill-rule:nonzero;stroke:#000000;stroke-width:0.3985;stroke-linecap:butt;stroke-linejoin:miter;stroke-miterlimit:10;stroke-dasharray:none;stroke-opacity:1"
                 id="path140" /><path
                 d="m 82.17116,12.13815 c -0.48622,-0.10681 -0.79662,-0.58711 -0.68782,-1.07731 0.1047,-0.48622 0.585,-0.79464 1.07319,-0.68982 0.48832,0.10668 0.79863,0.58702 0.69193,1.07722 -0.1048,0.4863 -0.58711,0.79662 -1.0773,0.68991 z"
                 style="fill:#000000;fill-opacity:1;fill-rule:nonzero;stroke:#000000;stroke-width:0.3985;stroke-linecap:butt;stroke-linejoin:miter;stroke-miterlimit:10;stroke-dasharray:none;stroke-opacity:1"
                 id="path142" /><path
                 d="m 77.84239,14.53177 c -0.48631,-0.1048 -0.79661,-0.58901 -0.68991,-1.07721 0.10682,-0.48631 0.59099,-0.7946 1.07933,-0.68791 0.48619,0.1067 0.79649,0.58711 0.68779,1.0753 -0.1048,0.48822 -0.589,0.79652 -1.07721,0.68982 z"
                 style="fill:#000000;fill-opacity:1;fill-rule:nonzero;stroke:#000000;stroke-width:0.3985;stroke-linecap:butt;stroke-linejoin:miter;stroke-miterlimit:10;stroke-dasharray:none;stroke-opacity:1"
                 id="path144" /><path
                 d="m 76.03766,17.2437 c -0.49211,-0.10478 -0.79849,-0.587 -0.69182,-1.0753 0.10683,-0.48822 0.58902,-0.79651 1.07733,-0.68782 0.48621,0.10281 0.7946,0.587 0.68781,1.07332 -0.10471,0.48821 -0.58701,0.79852 -1.07332,0.6898 z"
                 style="fill:#000000;fill-opacity:1;fill-rule:nonzero;stroke:#000000;stroke-width:0.3985;stroke-linecap:butt;stroke-linejoin:miter;stroke-miterlimit:10;stroke-dasharray:none;stroke-opacity:1"
                 id="path146" /><path
                 d="m 73.21114,15.54979 c -0.48821,-0.10881 -0.79853,-0.58711 -0.68982,-1.0753 0.02169,-0.10282 0.06721,-0.18982 0.1186,-0.26882 -0.20961,0.2609 -0.54951,0.40322 -0.89741,0.3261 -0.49021,-0.1048 -0.79861,-0.58901 -0.69181,-1.07721 0.1067,-0.48631 0.589,-0.7946 1.07721,-0.68791 0.48821,0.1067 0.7966,0.58711 0.68992,1.0753 -0.02179,0.10081 -0.06731,0.18582 -0.1186,0.26881 0.20751,-0.26289 0.5495,-0.40321 0.8973,-0.32809 0.48829,0.1067 0.79661,0.589 0.68992,1.07719 -0.10681,0.48822 -0.58912,0.79464 -1.07531,0.68993 z"
                 style="fill:#000000;fill-opacity:1;fill-rule:nonzero;stroke:#000000;stroke-width:0.3985;stroke-linecap:butt;stroke-linejoin:miter;stroke-miterlimit:10;stroke-dasharray:none;stroke-opacity:1"
                 id="path148" /><path
                 d="m 63.66602,11.58064 c -0.10871,0.48831 -0.59302,0.7966 -1.07723,0.69191 -0.4902,-0.10681 -0.79861,-0.59102 -0.68989,-1.07933 0.10478,-0.4862 0.58908,-0.7926 1.0733,-0.6878 0.4902,0.1067 0.79661,0.589 0.69382,1.07522 z"
                 style="fill:#000000;fill-opacity:1;fill-rule:nonzero;stroke:#000000;stroke-width:0.3985;stroke-linecap:butt;stroke-linejoin:miter;stroke-miterlimit:10;stroke-dasharray:none;stroke-opacity:1"
                 id="path150" /><path
                 d="m 41.58322,19.10173 c -0.1799,0.46449 -0.62862,0.79662 -1.15631,0.79662 -0.68791,0 -1.24131,-0.5535 -1.24131,-1.24132 0,-0.6879 0.5534,-1.24532 1.24131,-1.24532 0.27469,0 0.51781,0.10871 0.72339,0.25701 0.44871,0.1344 0.73132,0.58698 0.62862,1.05151 -0.0317,0.15019 -0.1048,0.2708 -0.1957,0.3815 z"
                 style="fill:#000000;fill-opacity:1;fill-rule:nonzero;stroke:#000000;stroke-width:0.3985;stroke-linecap:butt;stroke-linejoin:miter;stroke-miterlimit:10;stroke-dasharray:none;stroke-opacity:1"
                 id="path152" /><path
                 d="M 63.9447,8.54259 C 63.45451,8.4359 63.1462,7.9536 63.2529,7.46538 c 0.1067,-0.48821 0.589,-0.79662 1.07721,-0.6899 0.49022,0.1068 0.79661,0.5891 0.68791,1.07932 -0.10669,0.48419 -0.58699,0.7926 -1.07332,0.68779 z"
                 style="fill:#000000;fill-opacity:1;fill-rule:nonzero;stroke:#000000;stroke-width:0.3985;stroke-linecap:butt;stroke-linejoin:miter;stroke-miterlimit:10;stroke-dasharray:none;stroke-opacity:1"
                 id="path154" /><path
                 d="m 109.40698,34.85342 c -0.48818,-0.10667 -0.79649,-0.58899 -0.68778,-1.07721 0.10279,-0.48829 0.5851,-0.7946 1.07331,-0.68789 0.49019,0.1048 0.80049,0.5871 0.68979,1.07528 -0.10478,0.49022 -0.58899,0.79653 -1.07532,0.68982 z"
                 style="fill:#000000;fill-opacity:1;fill-rule:nonzero;stroke:#000000;stroke-width:0.3985;stroke-linecap:butt;stroke-linejoin:miter;stroke-miterlimit:10;stroke-dasharray:none;stroke-opacity:1"
                 id="path156" /><path
                 d="m 112.45894,37.56535 c -0.48821,-0.10478 -0.79662,-0.58709 -0.68981,-1.0773 0.1047,-0.48819 0.58701,-0.79651 1.07522,-0.68779 0.48831,0.10478 0.79859,0.58699 0.68991,1.0753 -0.10482,0.48821 -0.58912,0.79461 -1.07532,0.68979 z"
                 style="fill:#000000;fill-opacity:1;fill-rule:nonzero;stroke:#000000;stroke-width:0.3985;stroke-linecap:butt;stroke-linejoin:miter;stroke-miterlimit:10;stroke-dasharray:none;stroke-opacity:1"
                 id="path158" /><path
                 d="m 116.86678,42.76195 c -0.49019,-0.10481 -0.7985,-0.58713 -0.68979,-1.07534 0.10471,-0.48818 0.587,-0.7966 1.07722,-0.68978 0.48629,0.10467 0.7946,0.58699 0.6879,1.07719 -0.10672,0.48631 -0.58711,0.79662 -1.07533,0.68793 z"
                 style="fill:#000000;fill-opacity:1;fill-rule:nonzero;stroke:#000000;stroke-width:0.3985;stroke-linecap:butt;stroke-linejoin:miter;stroke-miterlimit:10;stroke-dasharray:none;stroke-opacity:1"
                 id="path160" /><path
                 d="m 117.77211,45.47577 c -0.49022,-0.10671 -0.79851,-0.58901 -0.69182,-1.07523 0.10671,-0.49019 0.58902,-0.79661 1.07532,-0.68989 0.49022,0.10479 0.79652,0.58709 0.6918,1.0773 -0.10678,0.48822 -0.5871,0.79463 -1.0753,0.68782 z"
                 style="fill:#000000;fill-opacity:1;fill-rule:nonzero;stroke:#000000;stroke-width:0.3985;stroke-linecap:butt;stroke-linejoin:miter;stroke-miterlimit:10;stroke-dasharray:none;stroke-opacity:1"
                 id="path162" /><path
                 d="m 117.42819,50.76132 c -0.78871,-0.16998 -1.28479,-0.9449 -1.1129,-1.7335 0.17,-0.78472 0.94681,-1.2809 1.73352,-1.10891 0.7867,0.17 1.28281,0.9448 1.11092,1.73351 -0.17,0.78471 -0.94683,1.27882 -1.73154,1.1089 z"
                 style="fill:#000000;fill-opacity:1;fill-rule:nonzero;stroke:#000000;stroke-width:0.3985;stroke-linecap:butt;stroke-linejoin:miter;stroke-miterlimit:10;stroke-dasharray:none;stroke-opacity:1"
                 id="path164" /><path
                 d="m 80.55432,41.19643 c -0.4369,0 -0.78871,-0.34992 -0.78871,-0.78673 0,-0.4368 0.35181,-0.78859 0.78871,-0.78859 0.4348,0 0.78862,0.35179 0.78862,0.78859 0,0.43681 -0.35382,0.78673 -0.78862,0.78673 z"
                 style="fill:#000000;fill-opacity:1;fill-rule:nonzero;stroke:#000000;stroke-width:0.3985;stroke-linecap:butt;stroke-linejoin:miter;stroke-miterlimit:10;stroke-dasharray:none;stroke-opacity:1"
                 id="path166" /><path
                 d="m 65.83632,39.44908 c -0.35779,0 -0.6503,-0.29058 -0.6503,-0.6483 0,-0.3578 0.29251,-0.64839 0.6503,-0.64839 0.35982,0 0.65031,0.29059 0.65031,0.64839 0,0.35772 -0.29049,0.6483 -0.65031,0.6483 z"
                 style="fill:#000000;fill-opacity:1;fill-rule:nonzero;stroke:#000000;stroke-width:0.3985;stroke-linecap:butt;stroke-linejoin:miter;stroke-miterlimit:10;stroke-dasharray:none;stroke-opacity:1"
                 id="path168" /><path
                 d="m 24.4478,37.92508 c 0,0.6563 -0.53171,1.186 -1.18791,1.186 -0.65422,0 -1.18593,-0.5297 -1.18593,-1.186 0,-0.6562 0.53171,-1.18593 1.18593,-1.18593 0.6562,0 1.18791,0.52973 1.18791,1.18593 z"
                 style="fill:#000000;fill-opacity:1;fill-rule:nonzero;stroke:#000000;stroke-width:0.3985;stroke-linecap:butt;stroke-linejoin:miter;stroke-miterlimit:10;stroke-dasharray:none;stroke-opacity:1"
                 id="path170" /><path
                 d="m 108.49779,41.63322 c -1.20772,-0.75109 1.95881,-1.65642 2.86014,-1.65642 0.9053,0 2.94522,2.05373 2.11102,3.16263 -0.45059,0.60291 -3.76545,-0.74909 -4.97116,-1.50621 z"
                 style="fill:#000000;fill-opacity:1;fill-rule:nonzero;stroke:#000000;stroke-width:0.3985;stroke-linecap:butt;stroke-linejoin:miter;stroke-miterlimit:10;stroke-dasharray:none;stroke-opacity:1"
                 id="path172" /><path
                 d="m 131.06097,53.68869 c 0,0 1.35593,2.37593 1.01792,5.42777 -1.58321,6.10186 -7.57241,7.23048 -7.57241,7.23048 0,0 -0.33799,0.79071 -0.2234,2.48663 0.1127,1.69593 6.10378,6.43978 5.64919,10.84964 4.29525,3.04795 4.40785,9.04112 1.01799,11.18775 1.69394,7.34509 -2.26322,10.62234 -8.70308,11.52563 -3.38985,9.37914 -9.98197,4.97316 -9.98197,4.97316 0,0 0.0376,1.01604 -1.9608,2.03394 0.75511,3.31685 -1.84414,7.00718 -5.12137,7.23251 0,2.93723 -2.11113,5.57605 -4.59965,6.25407 0,4.06984 -1.05153,7.53289 -4.32687,9.68143 -4.40976,2.1466 -8.85322,0.6009 -11.79053,-2.89966 -2.14853,1.80664 -7.61391,3.35236 -10.09854,-2.41353 -3.61725,1.20583 -5.9141,-1.80661 -5.9141,-1.80661 0,0 -2.59721,3.50264 -7.00708,2.59934 -0.9013,3.27524 -7.3451,4.85846 -9.71713,2.03192 -1.69591,2.94124 -6.55638,4.97516 -10.51163,3.39383 -3.95524,-1.58321 -6.32719,-4.74785 -5.76388,-12.54565 -9.83173,-3.27714 -5.08385,-11.30224 -5.08385,-11.30224 0,0 -1.69594,-0.678 -3.16455,-2.82264 -5.08588,0.78862 -6.66908,-0.56529 -8.58841,-4.63515 -4.74785,1.05549 -8.28799,-0.0732 -8.5133,-4.89807 -1.92133,0.11459 -8.66552,-0.2254 -9.86933,-6.32718 -1.38359,-6.99139 3.80504,-9.45622 3.80504,-9.45622 0,0 -1.43301,-2.49053 -1.01801,-5.53647 0.67803,-4.97317 7.4578,-5.76389 7.4578,-5.76389 0,0 0.22731,0.22541 0.9014,-2.82652 C 2.11601,64.08571 3.69925,57.98383 5.16786,55.15929 -1.7246,47.3971 6.63646,42.84093 6.63646,42.84093 c 0,0 -2.48653,-3.25542 -2.33432,-7.34709 0.15221,-4.06784 4.52046,-9.04102 12.39337,-8.1377 2.06952,-6.6257 9.30602,-6.177 9.30602,-6.177 0,0 0.75109,-0.71549 1.88173,-2.97681 3.16453,-11.18765 9.37901,-9.15172 9.37901,-9.15172 0,0 1.92333,-8.81373 8.1378,-9.04303 6.21649,-0.22537 9.22882,4.59566 9.22882,4.59566 0,0 2.35222,-3.36224 6.32918,-3.16263 6.02667,0.30049 8.17329,5.23606 8.17329,5.23606 0,0 1.92324,-2.22174 4.40987,0 2.93724,-5.83697 9.03912,-4.63515 12.88168,0.11271 8.3611,-4.97128 13.67427,-0.45271 15.48289,7.45778 5.53648,2.59926 7.11979,6.4418 6.4418,11.75496 6.21646,-1.46861 8.2484,1.13062 10.05702,3.95526 4.63325,0.45058 7.7978,3.72785 8.02508,8.81571 2.59725,0.67599 7.45981,3.50254 7.45981,7.79579 0,4.29326 -2.82854,7.11981 -2.82854,7.11981 z m -61.13499,68.03337 c 0.4507,5.53645 5.79938,3.57764 5.79938,3.57764 0,0 1.65643,4.10547 4.48297,4.10547 2.82263,0 4.86055,-2.70995 4.86055,-2.70995 0,0 2.54592,4.68855 7.8334,3.72794 3.31475,-0.60091 5.38626,-3.72794 5.72628,-8.7011 4.63316,-0.79072 4.63316,-2.82464 4.97117,-6.66719 2.59923,-0.33801 3.50453,-1.92122 3.76543,-3.54204 -3.72983,0.11258 -8.51129,-0.3005 -10.88323,-6.17697 -2.37394,-5.87649 -0.54161,-13.10698 0.56331,-13.6743 0.69971,-0.3578 -0.01381,2.09123 -0.12651,5.93378 0.68001,9.15382 6.11568,12.37367 9.95822,11.47035 3.84256,-0.9052 4.86048,-4.74976 4.86048,-4.74976 0,0 1.46872,1.92524 3.61725,1.92524 4.40785,-0.11471 3.50265,-6.10389 3.50265,-6.10389 0,0 3.61713,0.338 5.98906,-0.79062 3.05194,-1.5832 4.29526,-2.93722 2.71002,-8.70112 3.95717,-3.84644 3.61917,-7.79968 -0.78868,-10.28432 1.11681,-5.01666 -1.39353,-6.84309 -4.89807,-10.57294 -5.19656,6.32908 -13.18207,3.56585 -18.15723,0.51392 -1.58333,2.82463 -4.06796,4.29515 -4.06796,4.29515 0,0 2.70995,2.93733 2.37393,6.43988 -0.33801,3.50453 -2.03393,5.19847 -7.00508,7.5724 -1.35803,9.15383 -10.39905,7.12178 -10.39905,7.12178 -0.79071,3.83867 -4.97127,8.13582 -9.03911,5.53258 -0.45262,6.55849 -4.97317,6.21648 -4.97317,6.21648 0,0 0.56531,4.29526 -1.69591,4.52444 -1.92134,3.27727 -2.03204,6.4399 1.0199,9.71715 z M 32.62909,108.61107 c 0.56532,1.24733 -2.82463,3.05195 -0.79069,6.89451 3.50465,5.99117 6.10188,1.58521 7.45779,2.60123 -1.01592,4.63124 -2.48453,9.83173 2.14664,12.31635 4.63325,2.48654 7.34518,0.79261 10.39703,-3.50264 2.26131,4.74786 7.34709,2.59935 9.2684,-1.80852 1.57933,2.25923 5.19847,1.69781 6.66719,-2.25934 -1.80672,-3.27923 -3.27724,-7.23248 -1.46872,-11.07693 1.80673,-3.83866 0.45272,-5.19657 0.45272,-5.19657 -3.84255,0.676 -5.08786,-4.97126 -7.00721,-5.08586 -1.92323,-0.1146 -2.25921,-0.67801 -3.16454,-0.90532 -0.9053,-0.22531 -2.7119,3.84255 -3.50253,3.05194 -0.79072,-0.79262 1.58132,-3.27725 1.46862,-4.63325 -0.11071,-1.35393 -1.58333,-0.90521 -1.35591,-2.59723 0.22531,-1.69594 1.13061,-7.1218 3.38982,-10.17374 2.25935,-3.04985 2.37395,-3.95515 1.35603,-4.40587 -1.01601,-0.45259 -2.82663,2.48464 -3.72994,2.14464 -0.90532,-0.338 0,-1.12861 0.56529,-1.69392 0.56732,-0.56531 0,-0.67801 -1.35589,-1.69403 -1.35793,-1.01792 -1.46863,-0.45259 -1.24333,-3.05184 -2.59923,0.1146 -0.78872,-1.80662 -2.48664,-1.58131 -1.69592,0.2233 -2.82254,-0.34001 -0.7886,-1.2453 2.03193,-0.90332 2.25732,-1.92125 0.22329,-1.58124 -2.03391,0.33791 -3.72784,1.81052 -4.29516,0.7906 -0.5633,-1.016 2.26125,-1.80662 3.05194,-1.91932 0.79261,-0.11269 0.11261,-3.16454 -1.12871,-3.05194 -1.2433,0.11471 -9.49371,0.67802 -9.94432,4.40796 -0.4527,3.72784 1.91922,6.32908 1.91922,6.32908 0,0 -3.61525,4.40596 -1.1286,8.13582 2.48662,3.72795 7.00519,2.71191 7.00519,2.71191 0,0 0.11659,2.59925 3.50255,2.93924 3.39183,0.33803 4.06984,-0.22729 4.06984,1.24332 0,1.47063 -2.14663,1.35593 -4.52056,1.01791 -2.37193,-0.3419 -3.38985,2.14664 -4.52057,2.03205 -1.13061,-0.11072 0.34001,-1.13072 0.90341,-2.82265 0.56533,-1.69792 -3.16262,2.14263 -3.84263,1.69193 -0.67991,-0.44861 2.26132,-2.25925 1.24332,-3.16256 -1.01592,-0.9053 -3.04995,4.29328 -4.63117,4.29328 -1.58331,0 1.69392,-3.16466 0.56529,-3.16466 -1.92332,0 -7.68708,5.08588 -7.79779,8.81773 -0.1127,3.72593 2.48464,3.95322 3.04993,5.19454 z m 29.1572,-34.46633 c -1.55962,0 -2.82464,1.26502 -2.82464,2.82264 0,1.56352 1.26502,2.82652 2.82464,2.82652 1.55951,0 2.82453,-1.263 2.82453,-2.82652 0,-1.55762 -1.26502,-2.82264 -2.82453,-2.82264 z m 3.50453,-1.13063 c 0.93692,0 1.69392,-0.9369 1.69392,-2.09131 0,-1.15432 -0.757,-2.08923 -1.69392,-2.08923 -0.93891,0 -1.69791,0.93491 -1.69791,2.08923 0,1.15441 0.759,2.09131 1.69791,2.09131 z m -3.84455,-3.89982 c 0,-2.02805 -1.26503,-3.67267 -2.82464,-3.67267 -1.56351,0 -2.82453,1.64462 -2.82453,3.67267 0,2.02791 1.26102,3.67253 2.82453,3.67253 1.55961,0 2.82464,-1.64462 2.82464,-3.67253 z M 55.45709,65.10362 C 56.0224,63.74771 55.3464,61.60107 53.8758,62.9571 c -1.47065,1.3559 -3.61716,5.64916 -0.67792,9.26441 2.25921,2.03784 2.37193,2.48656 2.59922,4.06987 0.2253,1.58321 -0.34001,2.82452 0.67792,2.82452 1.69402,0 2.59931,-4.63316 0.4527,-5.42578 -2.14864,-0.78869 -4.06986,-4.62924 -1.47063,-8.5865 z M 6.18387,81.37724 C 1.6633,84.69197 1.2127,88.49503 3.24661,92.22687 c 2.03195,3.72795 6.66519,3.05195 8.58843,2.93725 -0.338,4.40596 3.01434,6.09987 7.57238,5.31116 2.26136,3.39195 3.38798,5.08786 7.45781,4.40987 0,0 1.13062,-7.12169 5.42586,-10.28635 0.338,-0.56529 -0.11269,-1.35591 -0.79262,-1.35591 -0.67799,0 -1.46859,-1.35402 0.45263,-1.58133 1.92132,-0.22729 1.8086,0.22731 1.92132,1.13063 0.11461,0.90331 1.24321,0.67799 2.14652,0.338 0.90342,-0.338 1.46872,-1.35591 -0.2253,-1.46863 -1.69591,-0.11458 -1.24332,-0.90532 -0.11459,-0.90532 1.13261,0 0.7906,-1.5813 -0.336,-1.5813 -1.13262,0 -4.40798,1.69602 -4.97327,1.69602 -0.56532,0 -0.79062,-0.90532 0.67801,-1.58332 1.46863,-0.67801 3.72984,-1.24333 3.84253,-2.25924 0.1107,-1.01801 -0.67989,-1.01801 -1.92322,-0.7927 -1.24132,0.2293 -2.70993,0.682 -4.40593,1.80861 -1.69594,1.13063 -2.37195,-0.338 -1.13254,-1.01591 1.24521,-0.678 6.44379,-2.03592 7.349,-3.50454 0.90142,-1.46873 1.47063,-3.16264 0.56542,-3.16264 -0.90532,0 -2.26134,0.7906 -3.72995,0.7906 -1.46861,0 -1.69594,-1.2432 0.11268,-1.46861 1.80663,-0.22931 3.16454,-0.56731 2.59925,-1.58131 -0.56533,-1.01993 0.7906,-2.93926 -1.01792,-2.93926 -1.80864,0 -3.72795,0.56542 -3.95524,-0.45457 -0.2253,-1.01795 1.01791,-1.12662 2.26123,-1.12662 1.24331,0 3.05194,0.56329 3.05194,-0.68002 0,-1.24332 -1.58333,-0.67992 -3.39195,-0.67992 -1.80663,0 -1.80663,-1.46861 -0.56331,-1.46861 1.24132,0 4.85657,0.7926 4.96927,-0.11072 0.11459,-0.9053 -1.58132,-0.79069 -1.24132,-1.80861 0.3399,-1.018 -0.2273,-1.35602 -2.03393,-1.35602 -1.80863,0 -4.29526,-1.2452 -6.55448,-2.59922 -2.26132,-1.35591 -7.07039,-2.76525 -10.84775,0.22529 -1.81062,1.43112 -2.71393,4.29526 -3.39183,6.10188 -4.51857,1.35792 -8.36313,3.61725 -5.42587,10.17174 z M 24.606,23.96819 c -3.38995,0.33801 -5.65117,1.35592 -7.12181,5.64918 -7.11976,-0.56331 -9.82969,1.9212 -10.73302,5.76387 -0.90531,3.84255 2.59723,8.47571 2.59723,8.47571 0,0 -4.06984,2.48663 -4.18054,5.65318 -0.11261,3.16054 2.25931,4.63115 3.16263,5.53647 -3.16263,3.38794 -1.69403,8.3611 3.39185,11.30034 2.82464,-6.44177 10.73504,-5.31117 10.73504,-5.31117 0,0 0.11269,-1.58322 2.59923,-1.58322 2.48662,0 7.7998,4.18246 7.7998,4.18246 1.46862,-1.35791 2.70994,-5.42578 2.70994,-5.42578 -1.69393,-5.08586 -0.56533,-8.36308 1.69592,-10.16973 2.25733,-1.80862 3.84253,-3.16653 2.48663,-10.05903 -1.35602,-6.89247 -2.86214,-9.19331 -7.27,-9.41661 -0.676,-2.59935 -4.48305,-4.93567 -7.8729,-4.59567 z m 80.01163,-4.40986 c -1.13062,-4.29325 -5.53847,-4.10545 -5.53847,-4.10545 0,0 0.3024,-7.23248 -6.32908,-8.0982 -3.72795,-0.2253 -7.2325,2.22372 -7.2325,2.22372 0,0 -2.03201,-4.59566 -5.76386,-4.59566 -3.72786,0 -4.17856,1.43103 -5.23407,3.38985 -0.75511,-0.60481 -2.56173,-1.95882 -4.82498,0.30051 0.30441,3.76745 -1.69189,6.13938 -1.69189,6.13938 0,0 0.85579,-6.12359 -1.77114,-8.70112 -6.14138,-6.02867 -12.05345,1.50812 -12.05345,1.50812 0,0 -2.22363,-5.57796 -7.08419,-4.89806 -4.85657,0.67801 -8.58842,5.87658 -6.66709,6.89248 0.35771,0.18981 0.64241,0.36773 0.8914,0.53771 0.07711,-0.004 0.15621,-0.01581 0.23923,0.0019 0.44267,0.09891 0.71549,0.5021 0.69379,0.937 0.1976,0.38542 0.1996,0.77482 0.0968,1.23732 -0.2273,1.01602 -1.69593,1.80863 -1.81063,0.22531 -0.11059,-1.58123 -1.12661,-3.04995 -1.46661,-1.80863 -0.34001,1.24141 -1.24331,0.90732 -2.93724,1.24141 -1.69592,0.34191 -3.05194,0.56722 -4.74785,6.6711 -2.06953,0.7155 -3.57966,2.67433 -3.57966,2.67433 0,0 3.91964,1.05351 5.72627,5.34677 2.86415,0.52971 9.71703,1.0179 10.17174,12.66027 3.16653,0.33601 4.86045,-0.56531 7.7977,0.7887 0.7926,-3.38995 0.45271,-5.64927 6.10388,-5.42387 3.95325,-4.51855 5.08186,-3.95524 6.78178,-3.84054 3.50055,-2.60125 5.19458,-5.08588 4.74385,-8.36312 -0.45259,-3.27722 -3.16263,-4.06984 -3.16263,-5.42587 0,-1.35591 2.71004,-0.338 4.97126,3.95526 2.25924,4.29515 0.90331,7.34509 -1.9193,10.39704 -0.56734,1.3559 2.25733,2.71192 1.69201,4.06784 -0.56341,1.35603 -2.48463,0.9033 -3.95325,-0.79061 -1.46863,-1.69401 -5.20047,-1.2433 -7.7978,2.82654 -3.16455,-0.79262 -6.6672,2.03201 -5.76377,5.64917 0.90329,3.61523 3.50254,5.87848 2.03392,7.1198 -1.46863,1.2433 -2.03392,-2.70995 -2.93735,-2.70995 -0.90331,0 -1.46661,2.37393 -2.71382,1.57933 -1.24132,-0.7906 -5.31118,-2.71194 -4.74788,-3.50256 0.56732,-0.79259 3.50656,0.67802 2.94316,-0.79259 -0.56921,-1.46864 -0.56921,-0.90332 2.25732,1.01991 2.82463,1.91732 3.05194,0.1127 1.80663,-0.79461 -1.24323,-0.90331 -2.59725,-2.59725 -5.31117,-2.37194 -2.70993,0.22731 -3.95525,1.69594 -3.84256,3.95527 0.1147,2.26321 -3.95525,4.06983 -4.85855,5.76376 -0.90522,1.69592 -0.45063,3.50456 0.45269,5.08787 0.90533,1.58323 -1.81062,3.61525 -2.26133,4.97115 -0.45259,1.35603 1.24333,5.76388 4.29527,5.76388 3.05194,0 8.9284,-2.59924 7.79581,-0.1147 -1.12862,2.48862 1.8106,0.68001 1.92321,-1.01591 0.11071,-1.69603 1.12871,-5.19858 3.38996,-5.19858 2.25921,0 1.46861,-1.58131 1.46861,-1.58131 0,0 2.26122,-4.86246 4.97514,-5.42577 2.70995,-0.56532 3.27327,-0.67801 4.96927,1.01793 1.69593,1.69589 3.27725,-1.35392 4.29515,-0.67792 1.01793,0.67792 0,3.27524 -2.14662,3.16254 -2.14853,-0.1127 -3.05184,-1.46863 -4.74586,-1.46863 -1.69391,0 -4.40987,1.81063 -3.05193,2.71195 1.35802,0.9053 2.93735,-2.37192 5.20056,-0.79073 2.25723,1.58334 3.50055,1.13072 4.18056,1.13072 0.67601,0 0.56329,0.56531 -0.56529,1.35593 -1.12874,0.79462 -2.48664,2.48663 1.01791,3.84454 0.90529,2.59725 1.35599,7.45581 2.59731,7.68311 1.24522,0.2254 0.2253,2.37192 -0.9053,1.58131 -1.13061,-0.79262 -1.58134,-0.67799 -3.05193,1.35793 -1.46863,2.03392 -0.11072,4.97127 2.15051,5.19656 2.26134,0.22731 2.93533,2.26123 1.46674,2.48663 -1.46674,0.22529 -0.22342,2.03393 0.56528,2.94114 0.79261,0.9014 0.11462,3.27334 -1.016,1.01402 -1.13263,-2.25923 -3.05185,-2.59723 -3.05185,-1.12862 0,1.46863 -0.79071,1.91931 -2.14662,1.016 -1.35602,-0.9014 -1.24132,-1.24132 -0.33801,-2.48461 0.90132,-1.24532 -1.01801,-2.71394 -2.60323,-1.80864 -1.57933,0.90132 0.22931,1.69394 0.67992,2.59923 0.45469,0.90332 0.33999,2.26124 -0.67992,2.37193 -1.016,0.1147 -1.12861,-1.46861 -1.12861,-1.46861 -1.80674,-0.56531 -1.80674,1.80662 -2.82464,1.80662 -1.016,0 -4.63317,4.97516 -3.16453,8.36512 1.47063,3.38984 4.74785,1.13061 6.21648,3.16253 1.46862,2.03592 2.03591,5.19857 6.21649,4.97518 4.18054,-0.22731 5.64915,-5.99109 6.55447,-6.10378 0.90131,-0.11271 2.25923,2.03392 4.85846,-0.11271 2.60124,-2.14852 2.48665,-4.40987 1.46861,-6.10378 -1.0159,-1.69392 -2.48652,-4.40587 -2.59921,-6.32918 -0.11262,-1.92123 1.80861,-2.71184 2.03389,-0.56332 0.22932,2.14665 1.81064,7.6851 5.5386,7.6851 3.72983,0 4.85846,-6.67108 7.6851,-7.34709 2.82452,-0.67799 4.29514,-1.80862 4.63316,-5.53847 0.33799,-3.72996 -2.26123,-5.87457 -1.80864,-7.23249 0.45271,-1.35401 3.84454,-2.03393 3.72996,-5.98917 -0.11271,-3.95326 -3.95526,-6.10178 -5.87458,-5.98918 -1.92322,0.1127 -3.61915,1.12871 -4.74785,2.03592 -1.13263,0.90143 -2.14853,-1.0199 -1.01793,-1.92322 1.13061,-0.90331 3.05194,-2.03594 6.5565,-1.69592 3.50053,0.33999 4.85655,-3.61324 0.2233,-7.9085 2.14863,-4.29515 -0.2233,-8.59042 -2.93724,-9.49373 -2.71195,-0.90332 -5.87647,0.338 -5.87647,0.338 0,0 1.0159,-2.82452 -2.14865,-4.29315 -3.16452,-1.47061 -5.98915,-0.1147 -7.00708,3.72986 -1.01802,3.84254 -2.14464,7.34317 -4.06795,6.55247 -1.92121,-0.79261 2.14661,-4.63316 2.59935,-8.02108 0.45058,-3.39197 -1.80664,-4.97519 -3.05197,-5.8785 -1.24131,-0.9053 -0.33999,-3.38993 2.48856,-2.14863 2.82463,1.24333 2.48462,4.18255 3.84253,3.84254 1.35602,-0.33598 2.09132,-2.63283 6.43988,-1.46861 2.11104,0.56531 3.92166,3.58167 3.92166,4.03236 3.91565,-2.26134 9.03902,0.45059 9.03902,0.45059 0,0 5.57406,-3.57763 5.91208,-7.19488 0.34199,-3.61525 -1.69393,-4.40587 -1.69393,-4.40587 0,0 3.05193,-3.95525 1.92122,-8.2524 z m 19.21286,20.9087 c -0.34201,-5.5385 -3.05196,-7.79581 -7.68709,-7.45781 -2.59735,-5.08779 -5.6492,-5.53847 -9.60444,-4.29517 2.59922,5.76378 -1.28081,9.94445 -6.21448,14.01228 1.01592,4.74788 -0.79262,7.53492 -0.79262,7.53492 0,0 2.86215,1.35789 2.86215,4.06984 0,2.71192 -2.59735,4.29515 -2.71194,5.42387 0,0 4.48495,1.95683 4.82295,8.3986 5.53848,4.06795 14.8049,5.20057 16.95152,-4.06785 5.53847,-0.78871 9.83173,-5.53847 6.77979,-10.96234 4.06987,-4.40586 4.29326,-10.50974 -4.40584,-12.65634 z"
                 style="fill:#000000;fill-opacity:1;fill-rule:nonzero;stroke:#000000;stroke-width:0.3985;stroke-linecap:butt;stroke-linejoin:miter;stroke-miterlimit:10;stroke-dasharray:none;stroke-opacity:1"
                 id="path174" /><path
                 d="m 77.15648,58.20923 c 2.37193,2.82654 5.30917,7.11981 7.00709,7.11981 1.69403,0 2.70993,0.6799 1.35401,1.92122 -1.35401,1.24531 -2.59923,0.68001 -2.59923,3.72994 0,3.04995 -0.1127,5.08586 -2.25932,7.34509 -2.14853,2.26123 -3.84255,5.64918 -5.31319,5.53848 -2.07541,-0.16011 -1.5813,-1.13261 -0.56329,-3.27725 1.01603,-2.14853 1.81062,-3.27722 -0.2253,-4.18054 -2.03403,-0.90534 -1.81064,-2.26124 -0.22731,-2.26124 1.58522,0 2.26323,-0.56329 2.14853,-3.27924 -0.11461,-2.71194 0.33801,-3.72785 -1.69592,-4.17856 -2.03594,-0.45459 -3.84256,-2.14863 -3.27725,-3.27924 0.56732,-1.1306 0.45262,-1.46863 -0.4507,-2.48462 -0.90531,-1.01791 -0.11461,-1.69794 1.58131,-0.79262 1.69403,0.90531 2.59926,0.34001 2.14664,-0.90532 -0.45261,-1.24131 -1.80863,-1.46661 -2.93925,-1.46661 -1.1306,0 -1.69401,-2.14862 0.22932,-2.26323 1.91932,-0.1127 2.70993,-0.1127 5.08386,2.71393 z m -0.8895,5.97927 c 1.05159,0.96653 1.75719,1.49435 2.37192,1.31843 1.1741,-0.33611 -1.14241,-3.42745 -2.55183,-3.25354 -1.40532,0.1759 -0.87761,0.96651 0.17991,1.93511 z"
                 style="fill:#000000;fill-opacity:1;fill-rule:nonzero;stroke:#000000;stroke-width:0.3985;stroke-linecap:butt;stroke-linejoin:miter;stroke-miterlimit:10;stroke-dasharray:none;stroke-opacity:1"
                 id="path176" /></g></g></g></g></g></g></svg>
