<?xml version="1.0" encoding="UTF-8" standalone="no"?>
<svg
   xmlns:dc="http://purl.org/dc/elements/1.1/"
   xmlns:cc="http://creativecommons.org/ns#"
   xmlns:rdf="http://www.w3.org/1999/02/22-rdf-syntax-ns#"
   xmlns:svg="http://www.w3.org/2000/svg"
   xmlns="http://www.w3.org/2000/svg"
   xmlns:sodipodi="http://sodipodi.sourceforge.net/DTD/sodipodi-0.dtd"
   xmlns:inkscape="http://www.inkscape.org/namespaces/inkscape"
   version="1.1"
   id="svg2"
   xml:space="preserve"
   width="22.154802"
   height="20.498335"
   viewBox="0 0 22.154803 20.498335"
   sodipodi:docname="vectorian146.pdf"><metadata
     id="metadata8"><rdf:RDF><cc:Work
         rdf:about=""><dc:format>image/svg+xml</dc:format><dc:type
           rdf:resource="http://purl.org/dc/dcmitype/StillImage" /></cc:Work></rdf:RDF></metadata><defs
     id="defs6" /><sodipodi:namedview
     pagecolor="#ffffff"
     bordercolor="#666666"
     borderopacity="1"
     objecttolerance="10"
     gridtolerance="10"
     guidetolerance="10"
     inkscape:pageopacity="0"
     inkscape:pageshadow="2"
     inkscape:window-width="640"
     inkscape:window-height="480"
     id="namedview4" /><g
     id="g10"
     inkscape:groupmode="layer"
     inkscape:label="vectorian146"
     transform="matrix(1.3333333,0,0,-1.3333333,0.51583388,20.232668)"><g
       id="g12"
       transform="translate(72,-56.181)"><g
         id="g14"
         transform="translate(-71.405,56.181)"><g
           id="g16"><g
             id="g18"><path
               d="M 2.38832,9.5691 C 3.32402,9.76721 4.37665,9.2686 4.17783,8.2304 3.97913,7.18538 1.6923,6.93268 0.6979,8.12799 c 0,0 -0.54652,-0.39619 -0.34841,-1.24312 C 0.54898,6.04475 1.79141,5.59395 2.68613,5.94226 3.58153,6.29066 2.46281,7.62938 1.1452,6.26328 L 0.9957,6.33846 c 0,0 0.4726,0.54641 1.09411,0.66932 0.6216,0.123 1.21852,-0.1707 1.14342,-0.79233 -0.0751,-0.6215 -1.14342,-1.2431 -2.38643,-0.5191 0,0 -0.24872,-1.1201 0.69661,-1.4958 0.94461,-0.3756 1.61472,0 1.63992,0.24589 0.0253,0.2527 -0.7458,0.45081 -1.21781,-0.12289 l -0.1489,0.0273 c 0,0 0.1489,0.3961 0.696,0.47129 C 3.05902,4.89725 3.43204,4.71965 3.35753,4.32355 3.28311,3.92735 2.71141,3.48343 1.6425,3.77713 c 0,0 -0.0499,-0.17081 0.0498,-0.5191 C 1.79141,2.90964 2.31392,2.13782 1.96552,1.2909 1.6172,0.45079 0.25049,0.02728 -0.04729,0.02728 c 0,0 1.62079,0.724 1.73959,1.29092 0.248,1.19532 -0.3483,1.12022 -0.2985,2.48623 0,0 -1.09412,0.69671 -0.64612,1.98764 0,0 -1.34278,0.9425 -0.09898,2.63643 0,0 -0.39821,0.54638 0,1.33871 0.3975,0.7991 1.83932,1.19533 3.57905,0.15032 0,0 0.8947,0.99719 2.73412,0.04779 0,0 -1.83872,0.40291 -2.38582,-0.24592 C 4.15323,9.22081 4.77484,8.82458 5.42026,8.729 c 0,0 -1.49103,-0.34831 -1.29222,1.03821 0,0 -0.79583,0.72402 -2.03823,0.6693 C 0.8468,10.38872 0.1262,9.12521 1.1206,8.32599 2.11441,7.53368 3.55634,7.90259 3.78035,8.2782 3.96474,8.58559 3.82954,9.37099 2.83571,9.4189 1.84122,9.47351 1.2695,8.74951 1.2695,8.74951 L 1.1452,8.79729 c 0,0 0.2985,0.5737 1.24312,0.77181"
               style="fill:#000000;fill-opacity:1;fill-rule:nonzero;stroke:#000000;stroke-width:0.3985;stroke-linecap:butt;stroke-linejoin:miter;stroke-miterlimit:10;stroke-dasharray:none;stroke-opacity:1"
               id="path20" /><path
               d="m 0.75998,13.69456 c 0,0 -0.29849,-1.67343 1.67755,-2.27442 1.97601,-0.59421 3.39322,0.1161 4.54894,-1.11333 0,0 -0.33609,0.36882 -1.56621,0.44392 -1.23082,0.0752 -4.92118,-0.44392 -4.66028,2.94383"
               style="fill:#000000;fill-opacity:1;fill-rule:nonzero;stroke:#000000;stroke-width:0.3985;stroke-linecap:butt;stroke-linejoin:miter;stroke-miterlimit:10;stroke-dasharray:none;stroke-opacity:1"
               id="path22" /><path
               d="m 7.13597,10.78493 c 0,0 -0.18642,0.75131 -1.60441,0.82641 -1.41581,0.0683 -2.87075,0 -3.54145,0.9699 -0.6714,0.96312 0,2.00813 0.7459,2.12423 0.74582,0.1093 1.00673,-0.5259 1.00673,-0.5259 0,0 -0.37291,0.56001 -1.08193,0.37561 -0.70759,-0.1912 -1.08051,-1.27042 -0.37219,-1.90564 0.70831,-0.62841 2.64745,-0.5942 3.01962,-0.5942 0.37361,0 1.64131,-0.25961 1.82773,-1.27041"
               style="fill:#000000;fill-opacity:1;fill-rule:nonzero;stroke:#000000;stroke-width:0.3985;stroke-linecap:butt;stroke-linejoin:miter;stroke-miterlimit:10;stroke-dasharray:none;stroke-opacity:1"
               id="path24" /><path
               d="m 9.22331,13.10036 c -0.19871,-0.27321 -0.698,-0.1776 -0.49652,0.2937 0.19812,0.4781 0.64612,0.49861 0.64612,0.49861 0,0 0.04989,-0.51912 -0.1496,-0.79231 m 1.67751,1.04501 c -0.5587,0.40981 -1.41662,-0.041 -1.41662,-0.041 -1.45411,1.71442 -3.13163,0.3757 -3.13163,0.3757 0,0 0.72401,0.56011 1.64063,0.3347 0.90711,-0.2254 1.3299,-0.79231 1.3299,-0.79231 -0.14959,0 -0.59631,-0.14351 -0.7459,-0.6284 -0.1673,-0.53961 0.44871,-0.87432 0.8695,-0.2937 0.29912,0.4098 0.0758,0.89471 0.0758,0.89471 0.89411,0.485 1.56483,-0.04091 1.22942,-0.63521 -0.33531,-0.5942 -1.08122,-0.6352 -1.82701,-0.92892 -0.74592,-0.30049 -1.08064,-1.08591 -1.08064,-1.08591 0.74523,0.93572 1.63993,1.08591 2.53543,1.30451 0.89403,0.22541 1.08054,1.08601 0.52112,1.49583 m -4.73056,-0.1161 c 0,0 0.3107,-0.15032 0.3995,-0.5806 0.08951,-0.42342 -0.69259,-0.58052 -0.6215,0.041 0.0444,0.38928 0.222,0.5396 0.222,0.5396 M 5.68117,12.46515 c -0.85723,0.22539 -1.19252,0.48491 -1.19252,1.00401 0,0.52591 0.81959,1.01091 1.60302,0.63521 0,0 -0.4105,-0.30051 -0.4105,-0.77861 0,-0.63522 1.07709,-0.75131 1.1188,-0.041 0.03691,0.63519 -0.59631,0.93571 -0.59631,0.93571 -0.224,0.18451 -1.49173,0.444 -1.97591,-0.37561 -0.45762,-0.7718 0.1796,-1.46171 1.0436,-1.56411 1.23011,-0.1503 1.63992,-0.78551 1.63992,-0.78551 0,0 -0.37219,0.74451 -1.2301,0.96991"
               style="fill:#000000;fill-opacity:1;fill-rule:nonzero;stroke:#000000;stroke-width:0.3985;stroke-linecap:butt;stroke-linejoin:miter;stroke-miterlimit:10;stroke-dasharray:none;stroke-opacity:1"
               id="path26" /><path
               d="m 11.05042,14.36398 c 0,0 0.85722,0.45079 1.52864,-0.21861 0.6714,-0.66931 -0.11202,-2.19933 -1.34282,-2.24033 -1.23012,-0.0341 -2.27384,0.1913 -3.61597,-1.12011 0,0 0.67072,1.08601 1.67753,1.34552 1.00672,0.25958 2.56884,-0.33472 3.16924,0.81961 0.52181,1.0041 -0.40979,1.6802 -1.41662,1.41392"
               style="fill:#000000;fill-opacity:1;fill-rule:nonzero;stroke:#000000;stroke-width:0.3985;stroke-linecap:butt;stroke-linejoin:miter;stroke-miterlimit:10;stroke-dasharray:none;stroke-opacity:1"
               id="path28" /><path
               d="m 13.54825,13.25066 c 0,0 0.55942,-0.526 -0.29779,-1.53002 C 12.39253,10.70984 10.71503,11.05132 9.4467,11.01031 8.4666,10.98303 8.1046,10.67563 7.9188,10.4161 c 0,0 0.03689,0.36883 0.74511,0.63522 0.709,0.2595 3.10162,0.09561 4.10155,0.66932 1.0437,0.59419 0.78279,1.53002 0.78279,1.53002"
               style="fill:#000000;fill-opacity:1;fill-rule:nonzero;stroke:#000000;stroke-width:0.3985;stroke-linecap:butt;stroke-linejoin:miter;stroke-miterlimit:10;stroke-dasharray:none;stroke-opacity:1"
               id="path30" /><path
               d="m 7.93109,9.6716 c 0,0 0.54711,0.7445 1.69041,0.89471 1.14342,0.15032 1.81414,-0.27319 1.76433,-0.96991 C 11.33664,8.89981 10.29222,8.729 9.96922,8.729 c 0,0 0.9193,0.1434 1.16861,0.6147 0.248,0.47811 -0.96992,1.42072 -3.20674,0.3279"
               style="fill:#000000;fill-opacity:1;fill-rule:nonzero;stroke:#000000;stroke-width:0.3985;stroke-linecap:butt;stroke-linejoin:miter;stroke-miterlimit:10;stroke-dasharray:none;stroke-opacity:1"
               id="path32" /><path
               d="m 10.96371,10.31363 c 0,0 0.39812,0.30049 1.31684,0.42349 0.92001,0.1229 2.21301,-0.1503 2.31204,-1.26361 C 14.69157,8.3534 13.69717,7.58159 12.85295,7.4108 12.00734,7.23317 10.78952,7.97769 11.36183,8.852 c 0.571,0.8674 1.98833,0.47121 2.78334,-0.05471 0,0 -1.04362,0.42352 -1.78953,0.40301 -0.74581,-0.0273 -1.06891,-0.5737 -0.696,-0.9699 0.3723,-0.40302 1.51632,-0.42352 2.26153,0.1981 0.50879,0.4235 0.7957,1.39331 -0.12431,1.93292 -0.91931,0.5533 -2.33592,0.1503 -2.75874,-0.1707 z"
               style="fill:#000000;fill-opacity:1;fill-rule:nonzero;stroke:#000000;stroke-width:0.3985;stroke-linecap:butt;stroke-linejoin:miter;stroke-miterlimit:10;stroke-dasharray:none;stroke-opacity:1"
               id="path34" /><path
               d="m 12.97655,6.18816 c -0.597,-0.0205 -0.89479,0.64892 -0.29851,0.69671 0.59701,0.04781 1.19392,-0.49861 1.19392,-0.49861 0,0 -0.2985,-0.17081 -0.89541,-0.1981 m 1.49171,1.98764 c 0.49721,-1.31823 -0.27389,-1.63932 -0.27389,-1.63932 -0.99381,0.5943 -1.46372,0.5806 -1.81482,0.32109 -0.37221,-0.27319 -0.27251,-0.94261 0.5471,-1.0382 0.6216,-0.07521 1.19331,0.36879 1.19331,0.36879 0.64611,-0.91521 0.07441,-1.59142 -0.39759,-1.76221 -0.47191,-0.1776 -1.41652,-0.0751 -1.34282,0.3689 0.07519,0.45071 0.64691,0.19801 0.64691,0.19801 -0.12441,0.20489 -0.9447,0.28009 -0.79512,-0.47131 0.17079,-0.85372 1.81413,-0.84012 2.28613,0.17759 0.44461,0.9563 -0.17351,1.63932 -0.17351,1.63932 1.01842,0.72401 0.1243,1.83734 0.1243,1.83734"
               style="fill:#000000;fill-opacity:1;fill-rule:nonzero;stroke:#000000;stroke-width:0.3985;stroke-linecap:butt;stroke-linejoin:miter;stroke-miterlimit:10;stroke-dasharray:none;stroke-opacity:1"
               id="path36" /><path
               d="m 13.67326,4.07765 c 0,0 0.4467,-0.47133 0.12429,-1.24313 -0.3962,-0.94262 -1.293,-1.91242 0.91932,-2.53403 0,0 -0.6215,-0.1024 -1.36671,0.51911 -0.74591,0.62161 -0.14891,1.54362 0.02389,1.89201 0.1742,0.34833 0.49791,0.74441 0.29921,1.36604"
               style="fill:#000000;fill-opacity:1;fill-rule:nonzero;stroke:#000000;stroke-width:0.3985;stroke-linecap:butt;stroke-linejoin:miter;stroke-miterlimit:10;stroke-dasharray:none;stroke-opacity:1"
               id="path38" /><path
               d="M 12.40553,4.15273 C 10.71503,0.19809 8.20428,0 7.7815,0 H 7.25969 C 4.47563,0.17079 2.81041,3.72932 2.81041,3.72932 l 0.07512,0.15021 c 0,0 1.0437,-1.63922 1.71442,-2.31543 0.6714,-0.66942 1.59353,-1.41382 3.00802,-1.3114 1.44123,0.09558 3.35574,0.9904 4.64726,4.09815 h 0.17421 z"
               style="fill:#000000;fill-opacity:1;fill-rule:nonzero;stroke:#000000;stroke-width:0.3985;stroke-linecap:butt;stroke-linejoin:miter;stroke-miterlimit:10;stroke-dasharray:none;stroke-opacity:1"
               id="path40" /><path
               d="m 6.76236,1.3182 c 0,0 0.26091,0.48502 0.67142,0.51911 C 7.84427,1.8783 8.25479,1.3182 8.25479,1.3182 c 0,0 -0.7834,0.66941 -1.49243,0"
               style="fill:#000000;fill-opacity:1;fill-rule:nonzero;stroke:#000000;stroke-width:0.3985;stroke-linecap:butt;stroke-linejoin:miter;stroke-miterlimit:10;stroke-dasharray:none;stroke-opacity:1"
               id="path42" /><path
               d="m 8.4782,2.17201 c 0,0 -0.23641,-0.0751 -0.42281,-0.25961 C 7.86888,1.728 7.47139,1.65291 7.06088,1.83731 c -0.4105,0.1913 -0.4105,0.30051 -0.67071,0.30051 0,0 0.03689,0.2254 0.22401,0.1503 0,0 0.4249,-0.27321 0.8196,-0.321 0.59631,-0.07522 0.6714,0.4713 1.04442,0.20489"
               style="fill:#000000;fill-opacity:1;fill-rule:nonzero;stroke:#000000;stroke-width:0.3985;stroke-linecap:butt;stroke-linejoin:miter;stroke-miterlimit:10;stroke-dasharray:none;stroke-opacity:1"
               id="path44" /><path
               d="m 7.20978,6.94627 c 0,0 -0.29851,-0.22531 -1.00682,0.22541 0,0 -0.03679,-0.25951 -0.2609,-0.18441 0,0 -0.4842,0.485 -1.86392,0.14351 l -0.03761,0.1912 c 0,0 -0.3729,-0.11611 -0.59619,-0.4849 0,0 -0.41053,0.25949 0.6338,0.7103 1.04431,0.444 2.23692,-0.07511 3.13164,-0.60111"
               style="fill:#000000;fill-opacity:1;fill-rule:nonzero;stroke:#000000;stroke-width:0.3985;stroke-linecap:butt;stroke-linejoin:miter;stroke-miterlimit:10;stroke-dasharray:none;stroke-opacity:1"
               id="path46" /><path
               d="m 3.48183,6.12666 c 0,0 0.2234,0.45081 0.89482,0.66942 0,0 -0.0369,-0.1093 0.1864,-0.1093 0.2234,0 1.37971,-0.25952 1.9015,-0.59422 0,0 0.11213,-0.40981 -0.26089,-0.485 0,0 -0.1864,0.18451 0.1114,0.2937 0,0 -0.1114,0.1913 -0.2978,0.1161 -0.18651,-0.0751 -0.29849,-0.2595 -0.29849,-0.2595 0,0 -0.18721,0.1844 0.14889,0.4098 l -0.6339,0.0683 c 0,0 -0.18641,-0.2937 -0.40982,0 0,0 -0.11201,-0.2186 0.0376,-0.2937 0.3203,-0.16389 0.4467,0.1093 0.4467,0.1093 l 0.22332,-0.0342 c 0,0 -0.09221,-0.2595 -0.4282,-0.30052 -0.37161,-0.041 -0.54031,0.22542 -0.54031,0.51912 0,0 -0.2984,0.07511 -0.67072,-0.3347 l -0.1871,0.1161 c 0,0 0.07512,0.2596 0.3353,0.33472 0,0 -0.40979,-0.04101 -0.5587,-0.22542"
               style="fill:#000000;fill-opacity:1;fill-rule:nonzero;stroke:#000000;stroke-width:0.3985;stroke-linecap:butt;stroke-linejoin:miter;stroke-miterlimit:10;stroke-dasharray:none;stroke-opacity:1"
               id="path48" /><path
               d="M 9.5717,5.83986 C 9.43301,5.88077 9.40501,6.03107 9.39891,6.09256 9.62561,6.11307 9.8674,6.11307 10.0908,6.11307 10.05933,5.79207 9.737,5.79207 9.5717,5.83986 m 1.56613,0.27321 C 9.94391,6.80968 9.2732,6.44086 9.2732,6.44086 c 0,0 -0.4221,-0.17758 -0.7459,-0.22541 -0.32302,-0.04779 -0.17339,-0.321 -0.17339,-0.321 0.12429,-0.07508 0,-0.20489 0,-0.20489 C 8.4782,5.44365 8.6271,5.64175 8.6271,5.64175 c 0.37288,0 0.2486,0.34832 0.2486,0.34832 0.10521,0.03419 0.2274,0.06149 0.35861,0.082 0.0286,-0.12981 0.13449,-0.39623 0.51151,-0.38251 0.36819,0.02051 0.44951,0.2869 0.46719,0.42351 0.39411,-0.0137 0.70082,-0.04781 0.70082,-0.04781 z"
               style="fill:#000000;fill-opacity:1;fill-rule:nonzero;stroke:#000000;stroke-width:0.3985;stroke-linecap:butt;stroke-linejoin:miter;stroke-miterlimit:10;stroke-dasharray:none;stroke-opacity:1"
               id="path50" /><path
               d="m 10.01973,6.71408 c 0,0 -0.44803,0.14349 -1.16933,-0.22542 0,0 0.12429,-0.0273 0.4228,0.04782 0.2985,0.07518 0.74653,0.1776 0.74653,0.1776"
               style="fill:#000000;fill-opacity:1;fill-rule:nonzero;stroke:#000000;stroke-width:0.3985;stroke-linecap:butt;stroke-linejoin:miter;stroke-miterlimit:10;stroke-dasharray:none;stroke-opacity:1"
               id="path52" /><path
               d="m 11.31133,6.65947 c 0,0 -0.96921,1.07233 -2.73413,0.05461 0,0 0.2684,0.3962 1.26771,0.59421 0.87012,0.17081 1.46642,-0.64882 1.46642,-0.64882"
               style="fill:#000000;fill-opacity:1;fill-rule:nonzero;stroke:#000000;stroke-width:0.3985;stroke-linecap:butt;stroke-linejoin:miter;stroke-miterlimit:10;stroke-dasharray:none;stroke-opacity:1"
               id="path54" /><path
               d="m 11.41104,6.83708 c 0,0 -0.47192,0.59419 -1.46643,0.59419 -0.99451,0 -1.74033,-0.59419 -1.74033,-0.59419 0,0 -0.04989,0.1707 0.34832,0.39609 0.3975,0.22542 1.19322,0.64893 2.06273,0.34842 0.8702,-0.30061 0.79571,-0.74451 0.79571,-0.74451"
               style="fill:#000000;fill-opacity:1;fill-rule:nonzero;stroke:#000000;stroke-width:0.3985;stroke-linecap:butt;stroke-linejoin:miter;stroke-miterlimit:10;stroke-dasharray:none;stroke-opacity:1"
               id="path56" /><path
               d="m 8.03009,4.93144 c 0,0 0.59701,-0.07519 0.55941,-0.6694 0,0 -0.1113,-0.25951 -0.41051,-0.36881 -0.29781,-0.1161 -0.63311,-0.4098 -0.96921,-0.2254 -0.3347,0.1844 -0.52181,0.51911 -0.78272,0.51911 0,0 -0.18651,0.19119 0.14962,0.66931 0,0 0.2984,0.1503 0.2984,0.3415 0,0 0.26089,0.10932 0.1858,-0.0751 C 6.98647,4.93144 6.72556,4.63774 6.72556,4.63774 c 0,0 0.14952,-0.1913 0.29771,-0.3757 0.14961,-0.18439 0.44812,-0.25951 0.85791,-0.0751 0.40981,0.19119 0.59702,0.4508 0.11202,0.60101 0,0 -0.14893,0.1844 0.03689,0.14349"
               style="fill:#000000;fill-opacity:1;fill-rule:nonzero;stroke:#000000;stroke-width:0.3985;stroke-linecap:butt;stroke-linejoin:miter;stroke-miterlimit:10;stroke-dasharray:none;stroke-opacity:1"
               id="path58" /><path
               d="m 12.72865,6.11307 -0.18649,0.11609 c 0.06619,-0.37571 -0.054,-0.88109 -0.14552,-1.20902 0.06219,-0.0204 0.17012,0.06841 0.23221,0.0479 0.1305,0.65571 0.0998,1.04503 0.0998,1.04503"
               style="fill:#000000;fill-opacity:1;fill-rule:nonzero;stroke:#000000;stroke-width:0.3985;stroke-linecap:butt;stroke-linejoin:miter;stroke-miterlimit:10;stroke-dasharray:none;stroke-opacity:1"
               id="path60" /><path
               d="M 7.85658,2.88232 H 7.5575 c 0,0 -0.04921,0.1503 0.1741,0.1503 l 0.34839,0.02732 c 0,0 -0.07449,-0.1503 -0.22341,-0.17762 m -0.7581,0.02732 c -0.08951,0 -0.1626,0.03419 -0.1626,0.07518 0,0.04089 0.07309,0.07512 0.1626,0.07512 0.08879,0 0.1619,-0.03423 0.1619,-0.07512 0,-0.04099 -0.07311,-0.07518 -0.1619,-0.07518 M 9.49722,2.78671 C 9.34761,2.88232 9.1987,2.88232 9.09901,3.05994 8.9993,3.23071 8.72609,3.35364 8.651,3.33313 8.57649,3.30583 8.72609,3.03262 8.52669,3.03262 c -0.19879,0 -0.571,0.27321 -0.571,0.27321 0,0 -0.29851,-0.24589 -0.47272,-0.24589 L 7.15988,3.23071 c -0.224,-0.2254 -0.94462,-0.123 -0.94462,-0.123 l 0.02529,0.123 c 0,0.12293 -0.19938,0.19802 -0.19938,0.19802 0,0 -0.0233,-0.51909 -0.52052,-0.89472 0,0 -0.12571,-0.19809 0.0232,-0.27319 0,0 0.32311,0.27319 0.47402,0.3483 0.1483,0.0751 1.06831,-0.04781 1.53963,-0.321 0,0 0.125,0.19812 0.52249,0.2254 0.39751,0.02049 0.77041,0.0683 0.9938,0.2186 0,0 0.39812,-0.123 0.49791,-0.19811 0,0 0.0737,0.15021 -0.07448,0.2527"
               style="fill:#000000;fill-opacity:1;fill-rule:nonzero;stroke:#000000;stroke-width:0.3985;stroke-linecap:butt;stroke-linejoin:miter;stroke-miterlimit:10;stroke-dasharray:none;stroke-opacity:1"
               id="path62" /></g></g></g></g></g></svg>
