<?xml version="1.0" encoding="UTF-8" standalone="no"?>
<svg
   xmlns:dc="http://purl.org/dc/elements/1.1/"
   xmlns:cc="http://creativecommons.org/ns#"
   xmlns:rdf="http://www.w3.org/1999/02/22-rdf-syntax-ns#"
   xmlns:svg="http://www.w3.org/2000/svg"
   xmlns="http://www.w3.org/2000/svg"
   xmlns:sodipodi="http://sodipodi.sourceforge.net/DTD/sodipodi-0.dtd"
   xmlns:inkscape="http://www.inkscape.org/namespaces/inkscape"
   version="1.1"
   id="svg2"
   xml:space="preserve"
   width="104.12"
   height="79.866669"
   viewBox="0 0 104.12 79.866669"
   sodipodi:docname="vectorian018.pdf"><metadata
     id="metadata8"><rdf:RDF><cc:Work
         rdf:about=""><dc:format>image/svg+xml</dc:format><dc:type
           rdf:resource="http://purl.org/dc/dcmitype/StillImage" /></cc:Work></rdf:RDF></metadata><defs
     id="defs6"><clipPath
       clipPathUnits="userSpaceOnUse"
       id="clipPath24"><path
         d="M -0.62068,-0.3181 H 74.15594 V 59.58215 H -0.62068 Z"
         id="path22" /></clipPath></defs><sodipodi:namedview
     pagecolor="#ffffff"
     bordercolor="#666666"
     borderopacity="1"
     objecttolerance="10"
     gridtolerance="10"
     guidetolerance="10"
     inkscape:pageopacity="0"
     inkscape:pageshadow="2"
     inkscape:window-width="640"
     inkscape:window-height="480"
     id="namedview4" /><g
     id="g10"
     inkscape:groupmode="layer"
     inkscape:label="vectorian018"
     transform="matrix(1.3333333,0,0,-1.3333333,0,79.866667)"><g
       id="g12"
       transform="translate(72,-12.101)"><g
         id="g14"
         transform="translate(-71.379,12.419)"><g
           id="g16"><g
             id="g18"><g
               id="g20"
               clip-path="url(#clipPath24)"><path
                 d="m 8.4408,28.88155 c 1.1968,0 2.23042,-0.21599 3.13122,-0.59362 6.10889,-1.62082 6.06569,-8.9217 2.35204,-10.70732 -4.15845,-2.00001 -7.8465,1.95684 -6.61768,5.13446 1.22722,3.18404 4.86887,2.63526 4.86887,2.63526 0.08639,0.15357 0.10879,0.31999 0.09919,0.48959 -0.0496,0.0544 -0.08639,0.112 -0.1408,0.1664 -0.83042,0.82562 -2.07523,1.24322 -3.69284,1.24322 -1.82564,0 -3.35364,-0.71202 -4.53765,-2.12483 C 1.80872,22.62708 1.1399,18.28783 2.15271,13.80457 3.78152,6.60928 11.21844,1.94522 21.56577,1.6396 31.9915,1.3276 39.23479,6.85887 47.6221,14.12775 l 2.18083,1.89604 c 7.17288,6.24008 13.36658,11.62735 18.65145,13.45618 0,0 0.33439,0.10079 0.45919,0.13439 -0.1344,0.04801 -0.4752,0.17441 -0.4752,0.17441 -5.26886,1.82242 -11.46256,7.20969 -18.63544,13.45136 L 47.6221,45.13617 C 39.23479,52.40187 31.9915,57.93793 21.56577,57.62753 11.21844,57.31714 3.78152,52.65787 2.15271,45.46257 1.1399,40.97612 1.80872,36.64006 3.90315,34.14243 5.08716,32.72961 6.61516,32.0144 8.4408,32.0144 c 1.61761,0 2.86242,0.4192 3.69284,1.24482 0.04161,0.04159 0.0688,0.0832 0.104,0.1248 -0.0128,0.09599 -0.0096,0.19679 -0.06239,0.28639 0,0 -3.64165,-0.54559 -4.86887,2.63525 -1.22882,3.18084 2.45923,7.13448 6.61768,5.13605 4.16327,-2.00001 3.73765,-10.95053 -4.82085,-11.04333 l 0.06239,0.04159 c -0.24159,-0.01919 -0.46879,-0.0544 -0.7248,-0.0544 -2.33124,0 -4.35688,0.94561 -5.85608,2.73123 -2.40644,2.87365 -3.20641,7.7361 -2.08802,12.69298 1.80321,7.9601 9.85292,13.11217 21.01625,13.44497 11.03696,0.328 18.86905,-5.64968 27.24357,-12.90737 l 2.18722,-1.89921 c 7.0385,-6.1233 13.11537,-11.41135 18.08504,-13.13298 l 5.12807,-1.87682 -5.17128,-1.50243 C 64.05911,26.22871 57.98224,20.94066 50.94374,14.81738 L 48.75652,12.91655 C 40.382,5.66206 32.54991,-0.31879 21.51295,0.01239 10.34962,0.342 2.29991,5.49567 0.4967,13.45737 c -1.11839,4.95526 -0.31842,9.81772 2.08802,12.68815 1.4992,1.78722 3.52484,2.73603 5.85608,2.73603 z"
                 style="fill:#000000;fill-opacity:1;fill-rule:nonzero;stroke:#000000;stroke-width:0.3985;stroke-linecap:butt;stroke-linejoin:miter;stroke-miterlimit:10;stroke-dasharray:none;stroke-opacity:1"
                 id="path26" /><path
                 d="M 40.0124,14.74857 31.1163,8.9757 c 0,0 -1.85763,12.32816 -13.34738,20.16665 0,0 10.67853,5.92007 11.64015,22.30751 l 9.85932,-4.70407 C 31.55948,34.70403 20.06494,29.78397 20.06494,29.78397 h 5.56328 c 15.42259,0 24.98752,7.05609 24.98752,7.05609 0,0 3.11203,-4.06244 8.60011,-6.76808 0,0 -5.19046,-2.63685 -8.60011,-7.12648 0,0 -8.89612,5.98405 -24.98752,5.98405 h -5.70888 c 0,0 13.56818,-6.91209 20.09306,-14.18098 z"
                 style="fill:#000000;fill-opacity:1;fill-rule:nonzero;stroke:#000000;stroke-width:0.3985;stroke-linecap:butt;stroke-linejoin:miter;stroke-miterlimit:10;stroke-dasharray:none;stroke-opacity:1"
                 id="path28" /></g></g></g></g></g></g></svg>
