<?xml version="1.0" encoding="UTF-8" standalone="no"?>
<svg
   xmlns:dc="http://purl.org/dc/elements/1.1/"
   xmlns:cc="http://creativecommons.org/ns#"
   xmlns:rdf="http://www.w3.org/1999/02/22-rdf-syntax-ns#"
   xmlns:svg="http://www.w3.org/2000/svg"
   xmlns="http://www.w3.org/2000/svg"
   xmlns:sodipodi="http://sodipodi.sourceforge.net/DTD/sodipodi-0.dtd"
   xmlns:inkscape="http://www.inkscape.org/namespaces/inkscape"
   version="1.1"
   id="svg2"
   xml:space="preserve"
   width="39.419811"
   height="19.912739"
   viewBox="0 0 39.419811 19.912739"
   sodipodi:docname="vectorian110.pdf"><metadata
     id="metadata8"><rdf:RDF><cc:Work
         rdf:about=""><dc:format>image/svg+xml</dc:format><dc:type
           rdf:resource="http://purl.org/dc/dcmitype/StillImage" /></cc:Work></rdf:RDF></metadata><defs
     id="defs6" /><sodipodi:namedview
     pagecolor="#ffffff"
     bordercolor="#666666"
     borderopacity="1"
     objecttolerance="10"
     gridtolerance="10"
     guidetolerance="10"
     inkscape:pageopacity="0"
     inkscape:pageshadow="2"
     inkscape:window-width="640"
     inkscape:window-height="480"
     id="namedview4" /><g
     id="g10"
     inkscape:groupmode="layer"
     inkscape:label="vectorian110"
     transform="matrix(1.3333333,0,0,-1.3333333,-0.20745431,19.953863)"><g
       id="g12"
       transform="translate(72,-56.146)"><g
         id="g14"
         transform="translate(-71.645,56.376)"><g
           id="g16"><g
             id="g18"><path
               d="m 28.34856,11.93214 c 0,0 0.541,0.04909 0.39338,-0.64071 -0.14679,-0.68781 -0.8865,-1.22942 -1.6734,-1.22942 0,0 0.64,-1.82092 -2.01892,-1.2807 0,0 -0.44261,-1.37834 -1.87083,-1.18233 -1.42821,0.19741 -1.28073,0.88732 -0.68921,0.88732 0.5908,0 0.5908,-0.49321 0.5908,-0.49321 0,0 1.2807,-0.04849 1.52663,0.78822 0,0 -0.73912,0.04848 -0.64071,0.44258 0.099,0.39342 0.6892,0.04991 0.9849,-0.19599 0.2957,-0.24659 2.16583,-0.1482 1.87082,0.98353 0,0 -0.88591,-0.04853 -0.68989,0.39479 0.19809,0.4426 0.83738,0.196 0.83738,0.196 0,0 1.08335,-0.2943 1.52654,0.78822 0,0 -0.8373,-0.0491 -0.59011,0.49249 0.24451,0.5423 1.13183,1.97054 0.54032,2.01833 -0.59082,0.04921 -1.03342,-2.80583 -5.36588,-4.13576 -4.33235,-1.32911 -7.9264,-0.78749 -9.74873,0.1974 l -3.49504,2.65766 c 0,0 -0.5416,0.09908 -0.68991,0.0506 0,0 0.49322,0.49179 0.1974,0.78679 -0.29501,0.29582 -0.93501,-0.196 -0.93501,-0.4426 H 8.114 c 0,0 -0.14821,0.73842 -0.49382,0.5417 l 0.54161,0.83731 c 0,0 0.29581,-0.24719 0.1974,-0.54089 0,0 0.29511,-0.29642 0.6899,-0.05121 0.39341,0.24721 0.39341,0.5921 0.63931,0.54163 L 9.63992,13.60616 c 0,0 -0.09912,-0.34421 0.24658,-0.59081 0.34353,-0.24649 1.96843,-1.37833 2.60914,-1.87073 0.63992,-0.49319 1.18162,-1.08261 3.24914,-1.52731 2.06813,-0.4426 5.7114,-0.2943 7.58152,0.4447 1.8708,0.73763 3.64321,2.11533 4.52914,3.83925 0.8865,1.72322 2.16723,-0.44331 0.49312,-1.96912"
               style="fill:#000000;fill-opacity:1;fill-rule:nonzero;stroke:#000000;stroke-width:0.3985;stroke-linecap:butt;stroke-linejoin:miter;stroke-miterlimit:10;stroke-dasharray:none;stroke-opacity:1"
               id="path20" /><path
               d="m 7.47267,13.06456 c 0,0 -1.96911,-1.03342 -2.11671,-1.28064 -0.14821,-0.24528 0.34428,-0.54028 1.4268,0.14822 0,0 0.64142,-0.541 0.04991,-0.78822 -0.5908,-0.24589 -0.88521,-0.5417 -0.5908,-0.68849 0.29638,-0.14751 1.28061,0.0983 1.87141,0.0983 0,0 0.29581,0.29509 0.68922,0.29509 0.39411,0 0.5416,-1.23151 -0.3449,-0.93502 0,0 -0.04851,-0.78761 0.4918,-1.3299 0,0 0.2957,-0.14751 0.88652,-0.0976 0.59151,0.04849 0.6892,-0.4447 0.29579,-0.5417 -0.3948,-0.099 -0.98501,-0.05051 -1.13252,0.14817 0,0 -0.7875,-0.34559 -0.88591,-1.18229 C 8.0143,6.07317 9.29431,5.87717 9.29431,5.87717 c 0,0 0.0997,-0.73912 -0.58951,-0.54171 C 8.0143,5.53217 7.91599,5.97476 7.76767,6.27057 7.62018,6.56488 6.24187,7.64818 5.11005,7.69868 3.97693,7.74718 2.25371,8.24039 0.9737,7.64818 c 0,0 0.5416,0.49312 1.03481,0.64072 0.4917,0.14749 0.93432,-0.19613 1.32912,-0.2473 0.39279,-0.04851 1.42752,0.0997 2.01833,0 0.5915,-0.097 1.72262,-0.49112 2.26422,-0.98282 0,0 0.04989,0.73761 1.32922,1.23012 0,0 -1.0819,0.34559 -0.83612,1.72253 0,0 -1.7724,0.2473 -2.41304,0.14758 0,0 -0.5417,0.1974 -0.29578,0.54231 l 0.29578,0.1475 c 0,0 -0.73839,0.04921 -0.73839,0.59011 0,0.5423 0.34432,0.83812 1.13181,1.23223 0.78892,0.3934 1.37901,0.3934 1.37901,0.3934"
               style="fill:#000000;fill-opacity:1;fill-rule:nonzero;stroke:#000000;stroke-width:0.3985;stroke-linecap:butt;stroke-linejoin:miter;stroke-miterlimit:10;stroke-dasharray:none;stroke-opacity:1"
               id="path22" /><path
               d="m 7.74379,12.32555 c 0,-0.12302 -0.09831,-0.22062 -0.22191,-0.22062 -0.1223,0 -0.2207,0.0976 -0.2207,0.22062 0,0.12291 0.0984,0.22198 0.2207,0.22198 0.1236,0 0.22191,-0.09907 0.22191,-0.22198"
               style="fill:#000000;fill-opacity:1;fill-rule:nonzero;stroke:#000000;stroke-width:0.3985;stroke-linecap:butt;stroke-linejoin:miter;stroke-miterlimit:10;stroke-dasharray:none;stroke-opacity:1"
               id="path24" /><path
               d="m 26.87804,2.57262 c 0.01428,-0.0143 0.0287,-0.028 0.043,-0.04441 0,0 -0.0143,0.01781 -0.043,0.04441 M 10.67262,4.98985 c 0,0 -0.2944,0.49379 0.0499,0.6899 0.34421,0.19742 0.295,-0.49251 -0.0499,-0.6899 M 23.62209,3.36563 c -0.93581,-0.04991 -1.18172,0.2459 -1.18172,0.2459 -1.03401,1.13311 -1.92063,2.06822 -3.64385,2.26564 -1.72332,0.196 -3.29834,-0.73912 -4.18495,-1.03553 -0.8851,-0.2944 -1.57571,-0.73829 -2.46153,-0.59011 -0.8859,0.14822 -1.23082,0.64003 -1.23082,0.64003 0.59082,0.29568 0.49242,1.52652 -0.29579,1.2308 C 9.83592,5.82726 10.52582,4.74464 10.52582,4.74464 10.18082,4.25153 9.2451,4.05482 8.31009,4.49745 7.37428,4.94135 6.78348,5.58066 5.50356,6.76297 4.22424,7.9446 2.84523,7.55048 2.15532,7.25407 1.4662,6.96037 0.77698,6.41808 0.48189,6.66466 c -0.2964,0.24652 0,0.83732 0,0.83732 C 0.03868,7.25407 -0.35538,6.22136 0.53108,6.12236 1.417,6.02396 2.64781,7.05878 3.82945,7.00818 5.01105,6.96037 6.43925,4.69484 8.16248,3.95645 c 1.72332,-0.73901 2.46095,0.49179 2.46095,0.49179 0,0 0.68991,-0.83671 2.56064,-0.83671 1.8708,0 3.98825,1.77243 5.66226,1.82164 1.67341,0.05047 1.96924,-0.98493 2.90425,-1.82164 0.9357,-0.83672 1.42821,-0.83672 3.10222,-0.6892 1.37903,0.12088 1.88792,-0.22331 2.02524,-0.34971 -1.07442,1.12841 -2.33324,0.84082 -3.25595,0.79301"
               style="fill:#000000;fill-opacity:1;fill-rule:nonzero;stroke:#000000;stroke-width:0.3985;stroke-linecap:butt;stroke-linejoin:miter;stroke-miterlimit:10;stroke-dasharray:none;stroke-opacity:1"
               id="path26" /><path
               d="m 26.92104,4.89084 c 0.3934,-0.196 0.1475,-0.29509 -0.3449,-0.3443 0,0 -0.04921,0.5424 0.3449,0.3443 m 0.88589,-2.0668 c -1.18159,0.9357 -1.03342,1.42678 -1.03342,1.42678 0.83672,0 0.93503,0.64002 0.29503,0.98563 C 26.42863,5.58066 26.18272,4.69484 26.18272,4.69484 23.9663,4.35054 23.17879,7.35309 23.17879,7.35309 23.03119,4.44824 26.18272,4.20233 26.18272,4.20233 26.47774,3.51382 27.31444,2.72562 27.65933,2.52762 28.00365,2.3315 28.93936,0.8057 28.39845,0.6083 27.85614,0.41089 26.57614,0.41089 26.57614,0.41089 c 0.0492,0.14681 0.14749,0.29511 0.5416,0.4433 0.39412,0.14821 0.0991,0.59083 0.0991,0.59083 C 27.16763,1.1499 26.92104,1.1001 26.52693,0.65749 26.13283,0.21419 26.33022,0.06668 26.33022,0.06668 c 2.11674,-0.29646 2.80584,0.49102 2.80584,0.49102 0,0 -0.14749,1.33062 -1.32913,2.26634"
               style="fill:#000000;fill-opacity:1;fill-rule:nonzero;stroke:#000000;stroke-width:0.3985;stroke-linecap:butt;stroke-linejoin:miter;stroke-miterlimit:10;stroke-dasharray:none;stroke-opacity:1"
               id="path28" /></g></g></g></g></g></svg>
