<?xml version="1.0" encoding="UTF-8" standalone="no"?>
<svg
   xmlns:dc="http://purl.org/dc/elements/1.1/"
   xmlns:cc="http://creativecommons.org/ns#"
   xmlns:rdf="http://www.w3.org/1999/02/22-rdf-syntax-ns#"
   xmlns:svg="http://www.w3.org/2000/svg"
   xmlns="http://www.w3.org/2000/svg"
   xmlns:sodipodi="http://sodipodi.sourceforge.net/DTD/sodipodi-0.dtd"
   xmlns:inkscape="http://www.inkscape.org/namespaces/inkscape"
   version="1.1"
   id="svg2"
   xml:space="preserve"
   width="58.951653"
   height="38.617046"
   viewBox="0 0 58.951653 38.617046"
   sodipodi:docname="vectorian167.pdf"><metadata
     id="metadata8"><rdf:RDF><cc:Work
         rdf:about=""><dc:format>image/svg+xml</dc:format><dc:type
           rdf:resource="http://purl.org/dc/dcmitype/StillImage" /></cc:Work></rdf:RDF></metadata><defs
     id="defs6" /><sodipodi:namedview
     pagecolor="#ffffff"
     bordercolor="#666666"
     borderopacity="1"
     objecttolerance="10"
     gridtolerance="10"
     guidetolerance="10"
     inkscape:pageopacity="0"
     inkscape:pageshadow="2"
     inkscape:window-width="640"
     inkscape:window-height="480"
     id="namedview4" /><g
     id="g10"
     inkscape:groupmode="layer"
     inkscape:label="vectorian167"
     transform="matrix(1.3333333,0,0,-1.3333333,-2.1312983,39.434397)"><g
       id="g12"
       transform="translate(72,-41.782)"><g
         id="g14"
         transform="translate(-70.203,42.595)"><g
           id="g16"><g
             id="g18"><path
               d="m 43.78415,23.58159 c 0,0 0.2288,3.85155 -12.47337,4.35554 C 18.60863,28.44125 10.17131,27.57043 4.57664,25.96532 -1.018,24.36018 -1.6135,21.14996 6.18108,19.82085 c 7.79669,-1.33124 33.20102,-2.33864 36.36476,3.34813 0,0 0,-4.08175 -15.454,-5.64107 -15.4534,-1.55863 -26.41316,2.10922 -27.00876,4.54007 -0.59628,2.43022 1.69594,4.95256 16.46222,6.14517 14.76548,1.19182 28.01825,-0.7343 27.23885,-4.63156"
               style="fill:#000000;fill-opacity:1;fill-rule:nonzero;stroke:#000000;stroke-width:0.3985;stroke-linecap:butt;stroke-linejoin:miter;stroke-miterlimit:10;stroke-dasharray:none;stroke-opacity:1"
               id="path20" /><path
               d="m 41.49132,24.36018 c 0,0 -2.56822,2.61466 -18.61783,2.29296 C 6.82306,26.33342 -1.7973,22.29677 12.00523,21.19716 c 0,0 10.04244,-0.87091 17.56324,0.0464 7.52069,0.91521 11.64755,2.56754 1.60513,3.80586 -10.04254,1.2376 -20.03926,-0.78001 -18.57216,-1.74383 1.46783,-0.96231 10.68454,-1.28342 18.89244,0.4597 0,0 -2.65903,-1.51361 -10.27132,-1.97122 -7.6123,-0.4597 -11.83055,1.64952 -7.15329,2.88783 4.67736,1.23763 14.21508,1.23763 19.35145,0.41321 5.13498,-0.8257 6.23598,-2.61394 -1.10102,-4.12746 -7.3371,-1.51362 -22.05688,-1.00821 -26.36744,0.91733 -4.31056,1.92612 1.97124,4.08163 12.28895,4.90675 10.31773,0.82582 23.29511,-0.45831 23.25011,-2.43155"
               style="fill:#000000;fill-opacity:1;fill-rule:nonzero;stroke:#000000;stroke-width:0.3985;stroke-linecap:butt;stroke-linejoin:miter;stroke-miterlimit:10;stroke-dasharray:none;stroke-opacity:1"
               id="path22" /><path
               d="m 20.48836,16.7493 c 0,0 1.51291,-10.82254 -7.79601,-13.43508 0,0 5.09127,0.09081 7.10819,4.17185 2.01762,4.08176 0.68782,9.26323 0.68782,9.26323"
               style="fill:#000000;fill-opacity:1;fill-rule:nonzero;stroke:#000000;stroke-width:0.3985;stroke-linecap:butt;stroke-linejoin:miter;stroke-miterlimit:10;stroke-dasharray:none;stroke-opacity:1"
               id="path24" /><path
               d="m 23.92809,17.48221 c 0,0 -0.96311,-3.94315 1.19251,-8.62051 2.15424,-4.67795 6.14379,-4.67795 9.49193,-4.67795 0,0 -6.32818,0.04708 -8.52951,4.63225 -2.20072,4.58575 -2.15493,8.66621 -2.15493,8.66621"
               style="fill:#000000;fill-opacity:1;fill-rule:nonzero;stroke:#000000;stroke-width:0.3985;stroke-linecap:butt;stroke-linejoin:miter;stroke-miterlimit:10;stroke-dasharray:none;stroke-opacity:1"
               id="path26" /><path
               d="m 19.25075,7.44038 c 0,0 -9.63065,-1.2834 -10.08895,-3.66783 C 8.70349,1.38812 17.96591,0.7003 25.1199,1.3417 c 7.1533,0.64202 10.91336,1.60573 10.91336,3.53054 0,1.92673 -5.77768,2.79836 -9.39973,2.70613 l -0.32101,0.2745 c 0,0 6.23599,0.13871 8.98782,-1.4671 C 38.05087,4.78134 36.58376,1.93791 27.87115,0.563 19.15852,-0.81328 9.2998,0.4244 8.795,3.26843 8.2909,6.11116 16.8198,7.30377 19.38803,7.7614 Z"
               style="fill:#000000;fill-opacity:1;fill-rule:nonzero;stroke:#000000;stroke-width:0.3985;stroke-linecap:butt;stroke-linejoin:miter;stroke-miterlimit:10;stroke-dasharray:none;stroke-opacity:1"
               id="path28" /></g></g></g></g></g></svg>
