<?xml version="1.0" encoding="UTF-8" standalone="no"?>
<svg
   xmlns:dc="http://purl.org/dc/elements/1.1/"
   xmlns:cc="http://creativecommons.org/ns#"
   xmlns:rdf="http://www.w3.org/1999/02/22-rdf-syntax-ns#"
   xmlns:svg="http://www.w3.org/2000/svg"
   xmlns="http://www.w3.org/2000/svg"
   xmlns:sodipodi="http://sodipodi.sourceforge.net/DTD/sodipodi-0.dtd"
   xmlns:inkscape="http://www.inkscape.org/namespaces/inkscape"
   version="1.1"
   id="svg2"
   xml:space="preserve"
   width="43.813332"
   height="58.293331"
   viewBox="0 0 43.813332 58.293331"
   sodipodi:docname="vectorian150.pdf"><metadata
     id="metadata8"><rdf:RDF><cc:Work
         rdf:about=""><dc:format>image/svg+xml</dc:format><dc:type
           rdf:resource="http://purl.org/dc/dcmitype/StillImage" /></cc:Work></rdf:RDF></metadata><defs
     id="defs6" /><sodipodi:namedview
     pagecolor="#ffffff"
     bordercolor="#666666"
     borderopacity="1"
     objecttolerance="10"
     gridtolerance="10"
     guidetolerance="10"
     inkscape:pageopacity="0"
     inkscape:pageshadow="2"
     inkscape:window-width="640"
     inkscape:window-height="480"
     id="namedview4" /><g
     id="g10"
     inkscape:groupmode="layer"
     inkscape:label="vectorian150"
     transform="matrix(1.3333333,0,0,-1.3333333,0,58.293333)"><g
       id="g12"
       transform="translate(72,-28.28)"><g
         id="g14"
         transform="translate(-72,28.28)"><g
           id="g16"><g
             id="g18"><path
               d="m 14.96638,1.1816 c 0,0 -2.60842,18.33914 -13.34216,27.59416 0,0 4.38294,-2.48624 12.94875,-1.99443 8.56711,0.49171 13.68779,2.36323 13.68779,2.36323 0,0 -9.35472,-8.56512 -13.29438,-27.96296 M 0,29.73877 C 8.5671,22.64897 15.06609,0 15.06609,0 18.90604,16.14659 29.54066,29.83438 29.54066,29.83438 10.14223,25.30602 0,29.73877 0,29.73877"
               style="fill:#000000;fill-opacity:1;fill-rule:nonzero;stroke:#000000;stroke-width:0.3985;stroke-linecap:butt;stroke-linejoin:miter;stroke-miterlimit:10;stroke-dasharray:none;stroke-opacity:1"
               id="path20" /><path
               d="m 14.98888,9.5896 c 0,0 -1.41652,10.17024 -7.23801,15.29971 0,0 2.37693,-1.37973 7.02422,-1.10652 4.64665,0.27319 7.42588,1.31143 7.42588,1.31143 0,0 -5.07557,-4.74698 -7.21209,-15.50462 M 6.86845,25.4221 c 4.64728,-3.93425 8.17373,-16.4882 8.17373,-16.4882 2.08322,8.95442 7.8527,16.54282 7.8527,16.54282 C 12.37155,22.9632 6.86845,25.4221 6.86845,25.4221"
               style="fill:#000000;fill-opacity:1;fill-rule:nonzero;stroke:#000000;stroke-width:0.3985;stroke-linecap:butt;stroke-linejoin:miter;stroke-miterlimit:10;stroke-dasharray:none;stroke-opacity:1"
               id="path22" /><path
               d="m 17.07422,38.18098 -0.01442,0.30051 -0.2431,0.1639 -1.67072,1.12701 -0.33191,0.2254 -0.3306,-0.2254 -1.66862,-1.12701 -0.24449,-0.1639 -0.01442,-0.30051 C 12.55055,38.08527 12.06496,28.61176 10.05882,19.97154 9.03639,15.57289 6.58978,10.2863 4.51474,6.31107 c 2.64404,7.8616 6.5816,21.39917 6.56519,32.32751 2.17002,1.37282 3.21914,2.13104 3.73756,2.54764 0.92409,-0.75812 2.77232,-1.93972 3.73332,-2.54764 C 18.53313,27.71704 22.46938,14.17267 25.114,6.31796 23.03827,10.2863 20.59175,15.57289 19.56995,19.97154 17.56462,28.61176 17.0796,38.08527 17.07422,38.18098 m -2.37695,5.09527 c 0.77381,0 1.40292,-0.6283 1.40292,-1.40703 0,-0.2732 -0.082,-0.5327 -0.2193,-0.74449 -0.56621,0.39621 -0.99782,0.73091 -1.06682,0.86749 -0.07381,-0.1435 -0.5813,-0.53281 -1.2233,-0.9836 -0.18512,0.23908 -0.2971,0.5396 -0.2971,0.8606 0,0.77873 0.6284,1.40703 1.4036,1.40703 m 4.44577,-4.30987 c 0,0 -1.63652,1.03142 -2.89874,1.89882 0.1885,0.29372 0.2985,0.63523 0.2985,1.00402 0,1.02461 -0.82652,1.85103 -1.84553,1.85103 -1.02111,0 -1.84691,-0.82642 -1.84691,-1.85103 0,-0.4166 0.14,-0.79911 0.375,-1.1133 -1.23563,-0.84694 -2.73824,-1.78954 -2.73824,-1.78954 0.1462,-16.4676 -8.8629,-38.91859 -8.8629,-38.91859 0.29639,0.36879 7.09118,11.52255 9.0091,19.79396 2.04283,8.7905 2.51213,18.31183 2.51213,18.31183 l 1.66862,1.13382 1.66993,-1.13382 c 0,0 0.4693,-9.52133 2.51083,-18.31183 1.92001,-8.27141 8.71541,-19.42517 9.01042,-19.79396 0,0 -9.01042,22.45099 -8.86221,38.91859"
               style="fill:#000000;fill-opacity:1;fill-rule:nonzero;stroke:#000000;stroke-width:0.3985;stroke-linecap:butt;stroke-linejoin:miter;stroke-miterlimit:10;stroke-dasharray:none;stroke-opacity:1"
               id="path24" /></g></g></g></g></g></svg>
