<?xml version="1.0" encoding="UTF-8" standalone="no"?>
<svg
   xmlns:dc="http://purl.org/dc/elements/1.1/"
   xmlns:cc="http://creativecommons.org/ns#"
   xmlns:rdf="http://www.w3.org/1999/02/22-rdf-syntax-ns#"
   xmlns:svg="http://www.w3.org/2000/svg"
   xmlns="http://www.w3.org/2000/svg"
   xmlns:sodipodi="http://sodipodi.sourceforge.net/DTD/sodipodi-0.dtd"
   xmlns:inkscape="http://www.inkscape.org/namespaces/inkscape"
   version="1.1"
   id="svg2"
   xml:space="preserve"
   width="598.63422"
   height="27.02232"
   viewBox="0 0 598.63422 27.02232"
   sodipodi:docname="vectorian083.pdf"><metadata
     id="metadata8"><rdf:RDF><cc:Work
         rdf:about=""><dc:format>image/svg+xml</dc:format><dc:type
           rdf:resource="http://purl.org/dc/dcmitype/StillImage" /></cc:Work></rdf:RDF></metadata><defs
     id="defs6" /><sodipodi:namedview
     pagecolor="#ffffff"
     bordercolor="#666666"
     borderopacity="1"
     objecttolerance="10"
     gridtolerance="10"
     guidetolerance="10"
     inkscape:pageopacity="0"
     inkscape:pageshadow="2"
     inkscape:window-width="640"
     inkscape:window-height="480"
     id="namedview4" /><g
     id="g10"
     inkscape:groupmode="layer"
     inkscape:label="vectorian083"
     transform="matrix(1.3333333,0,0,-1.3333333,-3.0514283,26.756653)"><g
       id="g12"
       transform="translate(72,-52.132)"><g
         id="g14"
         transform="translate(-69.515,52.132)"><g
           id="g16"><g
             id="g18"><path
               d="m 202.95949,15.46698 c -2.60343,0.5813 -5.23796,-1.39101 -5.89197,-4.38066 -0.384,-1.74393 0.0125,-3.46704 0.93433,-4.69196 0.008,0.45671 0.0228,0.93424 0.0643,1.41173 0.30728,4.11075 2.54323,5.27336 4.18544,4.92037 1.64222,-0.35292 2.71965,-1.66083 1.75842,-6.20748 -0.1059,-0.49832 -0.24698,-0.97581 -0.4131,-1.41182 1.39302,0.7267 2.50583,2.13841 2.89822,3.94464 0.64983,2.98954 -0.93219,5.85459 -3.53564,6.41518 z"
               style="fill:#000000;fill-opacity:1;fill-rule:nonzero;stroke:#000000;stroke-width:0.3985;stroke-linecap:butt;stroke-linejoin:miter;stroke-miterlimit:10;stroke-dasharray:none;stroke-opacity:1"
               id="path20" /><path
               d="m 225.8901,14.84409 c -2.48924,0.5191 -5.01176,-1.28714 -5.63668,-4.02767 -0.3633,-1.61931 0.0166,-3.19714 0.89271,-4.31827 0.008,0.41523 0.027,0.85125 0.0644,1.30794 0.29689,3.77855 2.42903,4.83736 4.00066,4.52594 1.5695,-0.33218 2.60344,-1.53631 1.6837,-5.73006 -0.1017,-0.45671 -0.2367,-0.87191 -0.39449,-1.2871 1.33081,0.66429 2.39374,1.97221 2.76953,3.63314 0.62281,2.74042 -0.88852,5.37706 -3.37984,5.89608 z"
               style="fill:#000000;fill-opacity:1;fill-rule:nonzero;stroke:#000000;stroke-width:0.3985;stroke-linecap:butt;stroke-linejoin:miter;stroke-miterlimit:10;stroke-dasharray:none;stroke-opacity:1"
               id="path22" /><path
               d="m 248.23308,14.84409 c -2.49134,0.5191 -5.01175,-1.28714 -5.63246,-4.02767 -0.36952,-1.61931 0.0124,-3.19714 0.89061,-4.31827 0.004,0.41523 0.027,0.85125 0.0623,1.30794 0.29692,3.77855 2.43115,4.83736 4.00276,4.52594 1.56954,-0.33218 2.60343,-1.53631 1.68161,-5.73006 -0.1017,-0.45671 -0.23669,-0.87191 -0.39239,-1.2871 1.32661,0.66429 2.39372,1.97221 2.76955,3.63314 0.6208,2.74042 -0.89272,5.37706 -3.38196,5.89608 z"
               style="fill:#000000;fill-opacity:1;fill-rule:nonzero;stroke:#000000;stroke-width:0.3985;stroke-linecap:butt;stroke-linejoin:miter;stroke-miterlimit:10;stroke-dasharray:none;stroke-opacity:1"
               id="path24" /><path
               d="m 448.51457,10.21442 c 0,0 -72.05943,-0.29072 -83.12509,0.85121 -11.06554,1.14183 -66.95425,5.66777 -76.88217,5.66777 -9.42752,0 -23.43291,0.4982 -27.98576,-6.22838 h -3.82215 c -0.2823,5.21106 -4.31827,9.36322 -9.30923,9.36322 -4.98887,0 -9.0269,-4.15216 -9.30712,-9.36322 h -3.72874 c -0.2802,5.21106 -4.31827,9.36322 -9.30713,9.36322 -4.98676,0 -9.0269,-4.15216 -9.3092,-9.36322 h -5.21518 c -0.2824,5.21106 -4.31835,9.36322 -9.30931,9.36322 -4.98887,0 -9.02681,-4.15216 -9.30713,-9.36322 h -3.84286 c -4.55915,6.72658 -18.56454,6.22838 -27.98795,6.22838 -9.92792,0 -65.81855,-4.52594 -76.88219,-5.66777 C 72.12782,9.9237 0.06839,10.21442 0.06839,10.21442 -2.48521,9.3632 66.17354,7.95149 83.19545,7.10028 100.21748,6.24905 134.25932,1.70241 160.36005,1.4117 181.25803,1.2041 186.8739,6.41516 188.28561,8.512 h 3.70176 C 192.64125,3.69543 196.50082,0 201.21349,0 c 4.71485,0 8.57429,3.69543 9.22831,8.512 h 5.37706 C 216.47498,3.69543 220.33652,0 225.04718,0 c 4.71477,0 8.57432,3.69543 9.22622,8.512 h 3.89056 C 238.81796,3.69543 242.67741,0 247.39017,0 c 4.71487,0 8.57641,3.69543 9.22823,8.512 h 3.68095 c 1.40971,-2.09684 7.02557,-7.3079 27.91945,-7.1003 26.10282,0.29071 60.14668,4.83735 77.17068,5.68858 17.02203,0.85121 85.67453,2.26292 83.12509,3.11414 z M 166.31842,3.96533 c -19.57764,-0.2699 -62.1315,1.14183 -62.1315,4.83737 h 80.28705 c 0,0 1.42001,-4.54667 -18.15555,-4.83737 z M 201.21349,1.993 c -4.07116,0 -7.37011,3.48785 -7.37011,7.80622 0,4.31824 3.29895,7.82689 7.37011,7.82689 4.07333,0 7.37228,-3.50865 7.37228,-7.82689 0,-4.31837 -3.29895,-7.80622 -7.37228,-7.80622 z m 23.83369,0 c -4.07124,0 -7.37228,3.48785 -7.37228,7.80622 0,4.31824 3.30104,7.82689 7.37228,7.82689 4.07324,0 7.37012,-3.50865 7.37012,-7.82689 0,-4.31837 -3.29688,-7.80622 -7.37012,-7.80622 z m 22.34299,0 c -4.07335,0 -7.36809,3.48785 -7.36809,7.80622 0,4.31824 3.29474,7.82689 7.36809,7.82689 4.07335,0 7.37021,-3.50865 7.37021,-7.82689 0,-4.31837 -3.29686,-7.80622 -7.37021,-7.80622 z m 34.87436,1.97233 C 262.69107,4.25603 264.1069,8.8027 264.1069,8.8027 h 80.28913 c 0,-3.69554 -42.55596,-5.10727 -62.1315,-4.83737 z"
               style="fill:#000000;fill-opacity:1;fill-rule:nonzero;stroke:#000000;stroke-width:0.3985;stroke-linecap:butt;stroke-linejoin:miter;stroke-miterlimit:10;stroke-dasharray:none;stroke-opacity:1"
               id="path26" /></g></g></g></g></g></svg>
