<?xml version="1.0" encoding="UTF-8" standalone="no"?>
<svg
   xmlns:dc="http://purl.org/dc/elements/1.1/"
   xmlns:cc="http://creativecommons.org/ns#"
   xmlns:rdf="http://www.w3.org/1999/02/22-rdf-syntax-ns#"
   xmlns:svg="http://www.w3.org/2000/svg"
   xmlns="http://www.w3.org/2000/svg"
   xmlns:sodipodi="http://sodipodi.sourceforge.net/DTD/sodipodi-0.dtd"
   xmlns:inkscape="http://www.inkscape.org/namespaces/inkscape"
   version="1.1"
   id="svg2"
   xml:space="preserve"
   width="62.223351"
   height="38.373932"
   viewBox="0 0 62.223351 38.373932"
   sodipodi:docname="vectorian127.pdf"><metadata
     id="metadata8"><rdf:RDF><cc:Work
         rdf:about=""><dc:format>image/svg+xml</dc:format><dc:type
           rdf:resource="http://purl.org/dc/dcmitype/StillImage" /></cc:Work></rdf:RDF></metadata><defs
     id="defs6" /><sodipodi:namedview
     pagecolor="#ffffff"
     bordercolor="#666666"
     borderopacity="1"
     objecttolerance="10"
     gridtolerance="10"
     guidetolerance="10"
     inkscape:pageopacity="0"
     inkscape:pageshadow="2"
     inkscape:window-width="640"
     inkscape:window-height="480"
     id="namedview4" /><g
     id="g10"
     inkscape:groupmode="layer"
     inkscape:label="vectorian127"
     transform="matrix(1.3333333,0,0,-1.3333333,2.541169,39.690816)"><g
       id="g12"
       transform="translate(72,-41.476)"><g
         id="g14"
         transform="translate(-72,42.662)"><g
           id="g16"><g
             id="g18"><path
               d="m 20.57944,8.0203 c -0.64,0 0.39412,-1.47672 0.39412,-1.47672 l 0.04921,0.1974 C 20.72694,7.23338 20.57944,8.0203 20.57944,8.0203 M 5.61237,4.18034 c 0,0 8.22218,-0.49321 12.80056,0.14751 4.57964,0.64072 11.32444,2.21573 15.01688,3.64394 L 32.1007,6.00198 c 0,0 -4.52987,-0.44333 -9.55213,-1.82164 C 17.52701,2.80191 13.73555,1.817 8.6648,2.06361 c 0,0 -3.00324,1.0327 -3.05243,2.11673 M 4.87335,5.46025 c 0,0 2.60983,-0.73831 9.69962,-0.295 7.0898,0.44321 16.19781,2.70883 20.48176,4.33305 l -1.2315,-1.13311 c 0,0 -6.1048,-1.82161 -12.16046,-2.75673 C 15.60709,4.67345 12.65295,4.22945 5.46486,4.52594 Z M 9.2823,7.09747 9.2099,13.12105 c 0.1932,0.07922 0.38861,0.15301 0.58731,0.21792 l 2.16594,-6.15539 z m 3.32146,-1.58661 c 0,0 -1.47052,-0.09291 -3.30165,-0.00961 L 9.2877,6.67877 12.25883,6.74098 Z M 30.32819,8.71078 26.68503,7.77507 c 0,0 1.27992,1.82164 3.00253,2.06683 z m -0.24652,1.42754 c 0,0 2.90554,1.03272 4.62817,-0.34561 L 31.01738,8.90678 Z m -4.82485,3.10164 c 0,0 1.87071,2.06743 4.08644,2.16652 2.21572,0.09761 4.87407,-0.04991 5.46488,-4.77635 0,0 -1.62491,1.23141 -3.93895,0.5921 -2.31343,-0.64131 -4.72586,-3.44716 -4.72586,-3.44716 0,0 1.08261,2.26485 -0.88651,5.46489 M 1.3285,6.83926 c 0,0 2.11733,0.88662 2.95473,3.74236 0.83673,2.85565 -1.18161,6.00648 -1.18161,6.00648 l 3.54485,-1.18162 c 0,0 -0.34491,-3.25054 -1.87152,-4.77635 0,0 0.0984,-0.04851 0.98501,0.49308 0.6932,0.42283 1.74784,1.20765 2.97524,1.78745 L 9.16821,7.09407 Z m 5.85958,14.96712 0.2951,-1.08324 0.49241,-0.0984 -2.11733,-0.8367 c 0,0 0.83742,1.62422 1.32982,2.01834 M 9.649,21.21486 8.2215,20.72314 7.5822,22.10275 c 0,0 1.92001,-0.54229 2.0668,-0.88789 m 2.16664,-9.59923 c -0.68921,0.04921 -0.2958,0.49181 0.19672,0.58951 0.49239,0.0983 0.68909,-0.0977 0.68909,-0.0977 0,0 -0.196,-0.5416 -0.88581,-0.49181 m -1.03412,6.2518 c -0.44261,0.29639 0.68982,0.49379 1.13242,0.09899 0,0 -0.68922,-0.39481 -1.13242,-0.09899 m 7.77961,7.48448 -2.51143,-0.4924 -0.34432,1.23081 z m 7.82809,-5.61236 c 0,0 3.49574,0.8367 8.1239,-1.03342 4.62816,-1.87212 7.23729,-5.07208 7.43399,-5.51468 0,0 -3.69244,0.5894 -5.21895,-1.72401 0,0 -0.68922,6.45047 -10.33894,8.27211 m 10.63464,-9.05893 c 0,0 0.14762,1.57432 2.06752,2.06613 1.92063,0.49321 3.49645,-0.24519 3.49645,-0.24519 z M 14.32707,1.57181 c 6.25237,0.04919 10.19133,2.56073 16.0995,3.64253 5.90749,1.08333 11.12716,0.39412 11.12716,0.39412 -2.21575,0.93512 -8.76392,0.5909 -8.76392,0.5909 1.82161,2.31404 2.85573,3.29894 4.48067,4.13564 1.6242,0.83604 6.44906,2.11735 6.44906,2.11735 l -0.7875,0.0984 c -4.33307,6.8432 -11.66875,7.3848 -11.66875,7.3848 0.34489,4.87405 -4.18486,5.46487 -4.18486,5.46487 L 25.94662,25.203 c -1.23153,1.28072 -1.92063,1.03412 -1.92063,1.03412 l -0.93572,1.67413 -0.49179,-0.0984 0.88591,-1.57573 -0.19742,-0.1468 c -0.19609,-0.1489 -0.2944,-0.6899 -0.2944,-0.6899 0.2944,0.541 0.93503,0.59081 0.93503,0.59081 0.63931,0 1.8209,-0.93433 1.8209,-0.93433 l -2.46153,-0.739 0.68982,-0.0991 3.24915,0.7889 c 3.88984,-1.2322 3.44653,-4.82485 3.44653,-4.82485 -4.33243,0.54161 -6.59727,-0.83741 -6.59727,-0.83741 0.1974,3.05173 -2.06752,3.74224 -2.06752,3.74224 2.26492,-1.42952 1.62422,-4.43206 1.62422,-4.43206 0.49238,0.39341 1.82162,0.78753 1.82162,0.78753 0,0 1.62491,0.19738 5.80977,-1.77243 4.18555,-1.96854 5.31735,-6.695 5.31735,-6.695 -0.29509,-0.9358 -1.4767,-0.59221 -1.4767,-0.59221 0.4426,2.06884 -0.78821,4.87536 -3.84065,5.41709 -3.05244,0.5416 -5.26817,-1.42754 -5.26817,-1.42754 0.14821,3.10095 -2.26421,3.54485 -2.26421,3.54485 1.91929,-1.47731 1.57511,-3.88974 1.57511,-3.88974 l -0.39352,-0.4932 c -0.8373,0.83809 -2.01832,1.37902 -2.01832,1.37902 l 0.49181,0.6407 c 1.28001,3.93825 -2.65834,6.35069 -5.41569,6.15399 -2.75672,-0.19801 -3.88983,-1.87143 -3.88983,-1.87143 0.29509,2.80724 -2.06811,3.69304 -2.06811,3.69304 l 8.12448,1.82162 0.29511,0.29581 -1.47672,-0.2473 -3.44655,0.93581 -0.4924,1.77241 H 14.52377 L 15.50868,24.712 10.58482,23.5781 c 3.69304,-1.13172 2.51143,-4.13495 2.51143,-4.13495 -0.93571,1.18159 -2.31473,1.47731 -2.31473,1.47731 1.13312,-0.54161 2.01902,-1.96914 2.01902,-1.96914 l -0.49181,-0.54229 c -0.44328,0.1974 -2.31471,0.44259 -2.01903,-0.5416 0.29512,-0.98363 2.06754,0 2.06754,0 0.19672,-0.14761 1.42821,-0.68853 1.57573,-2.46095 0.1475,-1.77243 -0.88591,-2.95413 -0.88591,-2.95413 0,0 -0.4433,0 -1.18161,0.04921 -0.73833,0.04989 -1.28063,-0.98493 -0.24661,-1.23154 1.03411,-0.24648 1.57511,0.59152 1.57511,0.59152 1.18161,-0.1967 1.67402,-1.62622 1.52652,-3.24914 -0.1475,-1.62622 -0.73831,-2.46224 -0.73831,-2.46224 0,0 1.91994,1.37833 1.57503,3.69306 -0.34361,2.31482 -2.26424,2.46022 -2.26424,2.46022 0,0 1.42752,1.87153 1.13243,3.54636 -0.29571,1.67332 -1.67402,2.36321 -1.67402,2.36321 l 0.98419,1.03414 c 3.69246,3.49495 7.58221,1.87069 8.71472,-0.29583 1.13172,-2.16652 0.2957,-3.88974 0.2957,-3.88974 0,0 -2.60913,0.93641 -5.16905,0.29499 -2.56064,-0.64 -3.20136,-2.60982 -3.20136,-2.60982 0,0 1.82232,2.26564 4.82557,2.41313 3.00323,0.14751 4.72647,-0.93501 5.85827,-3.15014 1.13312,-2.21703 0.49242,-4.53044 0.49242,-4.53044 0,0 -2.01832,2.1672 -5.36647,1.575 C 16.8372,8.46349 14.96709,6.15016 14.96709,6.15016 21.12106,10.1882 25.1092,7.33177 25.1092,7.33177 20.97356,6.10027 13.04706,5.60846 13.04706,5.60846 l -2.90483,7.82881 c 0.24789,0.11888 0.49989,0.2282 0.74859,0.32449 l 0.48221,-0.5218 0.34491,-0.19681 -0.4904,0.84561 c 1.13991,0.40981 2.11461,0.58191 2.11461,0.58191 -3.59404,0.1968 -7.38548,-2.46093 -7.38548,-2.46093 0,0 1.67402,2.01843 1.18161,4.28254 -0.49181,2.26496 -1.92003,2.75675 -1.92003,2.75675 2.11743,1.08392 6.7449,2.65965 6.7449,2.65965 -0.39342,0.04848 -1.91933,-0.24582 -1.91933,-0.24582 C 9.0097,22.24896 7.5324,22.39717 7.5324,22.39717 L 7.13828,23.4798 6.64647,23.53029 7.18808,22.25038 C 6.54747,21.70868 5.51407,19.64053 5.51407,19.64053 L 4.08655,18.80383 C 6.49898,18.75462 6.59727,15.70148 6.59727,15.70148 L 1.9691,17.3251 C 3.49503,15.30739 4.08655,13.83076 3.69173,11.12321 3.29832,8.4144 0.44258,6.49577 0.44258,6.49577 l 8.757,0.1823 L 9.287,5.50125 C 9.2276,5.50464 9.16821,5.50746 9.10811,5.51086 7.18808,5.60846 4.47993,5.85506 4.47993,5.85506 5.21825,2.55612 7.18808,2.40782 7.7291,2.31021 8.27069,2.21112 8.36969,1.817 8.36969,1.817 L 0,2.80191 C 3.54483,1.621 8.07399,1.52202 14.32707,1.57181 M 30.22989,1.2269 C 27.32434,0.34169 24.12428,0.43869 24.12428,0.43869 c 3.24985,-0.83667 7.87732,0.59151 11.57047,1.67412 3.69244,1.08322 7.28648,0.6891 7.28648,0.6891 C 38.10648,4.57504 33.13411,2.11281 30.22989,1.2269 m 13.52106,2.71364 c 0.011,-0.00341 0.0185,-0.00539 0.0185,-0.00539 -0.0062,0.00198 -0.01229,0.00269 -0.0185,0.00539 M 30.03247,4.42683 C 24.71509,3.29373 23.8778,1.621 17.3303,0.88199 10.78152,0.14369 5.75996,0.5869 5.75996,0.5869 19.84114,-1.1855 23.04108,1.4236 31.2141,3.49184 39.09819,5.48627 43.45384,4.04504 43.75095,3.94054 40.4028,5.16655 35.34024,5.55795 30.03247,4.42683 M 13.93297,8.12 c 0.24589,-0.14821 0.49241,-0.0499 0.49241,-0.0499 l -1.52583,2.56003 c -0.2466,-0.09771 -0.19671,-0.39481 -0.19671,-0.39481 0,0 0.98422,-1.96783 1.23013,-2.11532 m 6.8931,13.24305 0.49169,-0.19601 c 0.59081,2.51086 -1.23082,3.29906 -1.23082,3.29906 1.52662,-1.57572 0.73913,-3.10305 0.73913,-3.10305 M 8.46811,27.61613 c 1.3811,-0.05729 1.57571,-0.9849 1.47742,-1.72251 C 9.8464,25.15451 8.9606,24.95781 8.8622,25.64772 8.7638,26.33623 9.50221,26.68114 9.50221,26.68114 8.5665,26.77943 7.87727,25.203 9.2064,24.95781 c 1.32992,-0.24581 1.23083,1.62421 1.23083,1.62421 1.28071,-0.04911 2.31413,0.93582 2.31413,0.93582 -1.32923,-0.78751 -2.41245,-0.5423 -2.41245,-0.5423 -1.52662,2.36322 -4.48065,0.1973 -6.25236,-0.73842 -1.77313,-0.93429 -3.29905,-0.1468 -3.29905,-0.1468 2.41173,-2.06892 5.31736,1.62494 7.68061,1.52581"
               style="fill:#000000;fill-opacity:1;fill-rule:nonzero;stroke:#000000;stroke-width:0.3985;stroke-linecap:butt;stroke-linejoin:miter;stroke-miterlimit:10;stroke-dasharray:none;stroke-opacity:1"
               id="path20" /></g></g></g></g></g></svg>
