<?xml version="1.0" encoding="UTF-8" standalone="no"?>
<svg
   xmlns:dc="http://purl.org/dc/elements/1.1/"
   xmlns:cc="http://creativecommons.org/ns#"
   xmlns:rdf="http://www.w3.org/1999/02/22-rdf-syntax-ns#"
   xmlns:svg="http://www.w3.org/2000/svg"
   xmlns="http://www.w3.org/2000/svg"
   xmlns:sodipodi="http://sodipodi.sourceforge.net/DTD/sodipodi-0.dtd"
   xmlns:inkscape="http://www.inkscape.org/namespaces/inkscape"
   version="1.1"
   id="svg2"
   xml:space="preserve"
   width="181.96536"
   height="181.96529"
   viewBox="0 0 181.96537 181.96529"
   sodipodi:docname="vectorian012.pdf"><metadata
     id="metadata8"><rdf:RDF><cc:Work
         rdf:about=""><dc:format>image/svg+xml</dc:format><dc:type
           rdf:resource="http://purl.org/dc/dcmitype/StillImage" /></cc:Work></rdf:RDF></metadata><defs
     id="defs6" /><sodipodi:namedview
     pagecolor="#ffffff"
     bordercolor="#666666"
     borderopacity="1"
     objecttolerance="10"
     gridtolerance="10"
     guidetolerance="10"
     inkscape:pageopacity="0"
     inkscape:pageshadow="2"
     inkscape:window-width="640"
     inkscape:window-height="480"
     id="namedview4" /><g
     id="g10"
     inkscape:groupmode="layer"
     inkscape:label="vectorian012"
     transform="matrix(1.3333333,0,0,-1.3333333,0.27298348,181.69254)"><g
       id="g12"
       transform="translate(72,64.063)"><g
         id="g14"
         transform="translate(-71.991,-64.054)"><g
           id="g16"><g
             id="g18"><path
               d="m 68.02327,72.97462 c -2.73463,0 -4.95497,-2.21302 -4.95497,-4.95495 0,-2.73454 2.22034,-4.95488 4.95497,-4.95488 2.73823,0 4.95854,2.22034 4.95854,4.95488 0,2.74193 -2.22031,4.95495 -4.95854,4.95495 z"
               style="fill:#000000;fill-opacity:1;fill-rule:nonzero;stroke:#000000;stroke-width:0.3985;stroke-linecap:butt;stroke-linejoin:miter;stroke-miterlimit:10;stroke-dasharray:none;stroke-opacity:1"
               id="path20" /><path
               d="m 86.4485,92.77979 c -2.26013,-7.23311 -8.4683,-13.21666 -9.77223,-16.10341 2.88313,1.30391 8.86671,7.51199 16.09991,9.76852 5.41848,1.69513 10.51104,-0.1159 10.51104,-0.1159 -1.80732,9.94973 1.81102,16.28102 3.95886,18.42883 l 8.13869,8.13872 c 1.69513,1.69871 0.74252,3.23085 0.74252,3.23085 0,0 -1.53212,0.9562 -3.22725,-0.74253 l -8.13861,-8.1423 c -2.15152,-2.14423 -8.47919,-5.76627 -18.42883,-3.95526 0,0 1.80731,-5.09256 0.1159,-10.50752 z"
               style="fill:#000000;fill-opacity:1;fill-rule:nonzero;stroke:#000000;stroke-width:0.3985;stroke-linecap:butt;stroke-linejoin:miter;stroke-miterlimit:10;stroke-dasharray:none;stroke-opacity:1"
               id="path22" /><path
               d="m 63.5501,98.54967 c 3.51336,-6.71521 3.35395,-15.32469 4.47317,-18.29114 1.11922,2.96645 0.95981,11.57593 4.47685,18.29114 2.63312,5.02734 7.512,7.35998 7.512,7.35998 -8.3089,5.75537 -10.22854,12.78577 -10.22854,15.821 v 11.51075 c 0,2.40144 -1.76031,2.81434 -1.76031,2.81434 0,0 -1.75673,-0.4129 -1.75673,-2.81434 v -11.51075 c 0,-3.03523 -1.91963,-10.06563 -10.23213,-15.821 0,0 4.87886,-2.33264 7.51569,-7.35998 z"
               style="fill:#000000;fill-opacity:1;fill-rule:nonzero;stroke:#000000;stroke-width:0.3985;stroke-linecap:butt;stroke-linejoin:miter;stroke-miterlimit:10;stroke-dasharray:none;stroke-opacity:1"
               id="path24" /><path
               d="m 28.80045,104.75783 c 2.14424,-2.14781 5.7626,-8.4791 3.95524,-18.42883 0,0 5.09618,1.81103 10.51106,0.1159 7.23679,-2.26372 13.21317,-8.46461 16.1035,-9.76852 -1.30752,2.88675 -7.5121,8.863 -9.77223,16.10341 -1.6914,5.41496 0.11231,10.50752 0.11231,10.50752 -9.94603,-1.81101 -16.27732,1.81103 -18.42525,3.95526 -2.14421,2.15143 -6.43988,6.44357 -8.1386,8.1423 -1.69513,1.69873 -3.22723,0.73522 -3.22723,0.73522 0,0 -0.95622,-1.52483 0.74249,-3.22354 1.69513,-1.69153 5.9908,-5.9909 8.13871,-8.13872 z"
               style="fill:#000000;fill-opacity:1;fill-rule:nonzero;stroke:#000000;stroke-width:0.3985;stroke-linecap:butt;stroke-linejoin:miter;stroke-miterlimit:10;stroke-dasharray:none;stroke-opacity:1"
               id="path26" /><path
               d="m 107.24608,31.27798 c -2.14424,2.15143 -5.76618,8.48272 -3.95526,18.42875 0,0 -5.09616,-1.80011 -10.51464,-0.1122 -7.22959,2.26373 -13.21316,8.4682 -16.09991,9.77582 1.30393,-2.89043 7.5121,-8.87032 9.77223,-16.10711 1.69141,-5.41497 -0.1123,-10.51474 -0.1123,-10.51474 9.94604,1.81102 16.2773,-1.80012 18.42523,-3.95164 l 8.13861,-8.1423 c 1.69513,-1.69153 3.22725,-0.74251 3.22725,-0.74251 0,0 0.95261,1.5393 -0.74252,3.23443 z"
               style="fill:#000000;fill-opacity:1;fill-rule:nonzero;stroke:#000000;stroke-width:0.3985;stroke-linecap:butt;stroke-linejoin:miter;stroke-miterlimit:10;stroke-dasharray:none;stroke-opacity:1"
               id="path28" /><path
               d="m 30.13698,56.03441 c 0,0 2.32532,4.87886 7.35269,7.51209 6.71518,3.51696 15.332,3.35766 18.29483,4.47317 -2.96283,1.12291 -11.57965,0.95991 -18.29483,4.47685 C 32.4623,75.13335 30.13698,80.0086 30.13698,80.0086 24.38159,71.70331 17.34761,69.77998 14.31236,69.77998 H 2.80151 c -2.39771,0 -2.81059,-1.76031 -2.81059,-1.76031 0,0 0.41288,-1.76022 2.81059,-1.76022 h 11.51085 c 3.03525,0 10.06923,-1.91615 15.82462,-10.22504 z"
               style="fill:#000000;fill-opacity:1;fill-rule:nonzero;stroke:#000000;stroke-width:0.3985;stroke-linecap:butt;stroke-linejoin:miter;stroke-miterlimit:10;stroke-dasharray:none;stroke-opacity:1"
               id="path30" /><path
               d="m 133.24489,69.77998 h -11.51073 c -3.03523,0 -10.07284,1.92333 -15.8246,10.22862 0,0 -2.32535,-4.87525 -7.35269,-7.51208 -6.71521,-3.51694 -15.332,-3.35394 -18.29845,-4.47685 2.96645,-1.11551 11.58324,-0.95621 18.29845,-4.47317 5.02734,-2.63323 7.35269,-7.51209 7.35269,-7.51209 5.75176,8.30889 12.78937,10.22504 15.8246,10.22504 h 11.51073 c 2.39786,0 2.81074,1.76022 2.81074,1.76022 0,0 -0.41288,1.76031 -2.81074,1.76031 z"
               style="fill:#000000;fill-opacity:1;fill-rule:nonzero;stroke:#000000;stroke-width:0.3985;stroke-linecap:butt;stroke-linejoin:miter;stroke-miterlimit:10;stroke-dasharray:none;stroke-opacity:1"
               id="path32" /><path
               d="M 72.50012,37.48247 C 68.98308,44.20496 69.14249,52.81807 68.02327,55.7845 66.90405,52.81807 67.06346,44.20496 63.5501,37.48247 60.91327,32.4623 56.03441,30.13336 56.03441,30.13336 64.34691,24.38159 66.26654,17.34401 66.26654,14.30876 V 2.79802 c 0,-2.39783 1.75673,-2.80701 1.75673,-2.80701 0,0 1.76031,0.40918 1.76031,2.80701 v 11.51074 c 0,3.03525 1.91964,10.07283 10.22854,15.8246 0,0 -4.87888,2.32894 -7.512,7.34911 z"
               style="fill:#000000;fill-opacity:1;fill-rule:nonzero;stroke:#000000;stroke-width:0.3985;stroke-linecap:butt;stroke-linejoin:miter;stroke-miterlimit:10;stroke-dasharray:none;stroke-opacity:1"
               id="path34" /><path
               d="m 49.59802,43.27403 c 2.26013,7.226 8.46471,13.20589 9.77223,16.09632 -2.89033,-1.30762 -8.86671,-7.51209 -16.1035,-9.77582 -5.41488,-1.68791 -10.51106,0.1122 -10.51106,0.1122 1.80736,-9.94603 -1.811,-16.27732 -3.95524,-18.41793 -2.15151,-2.15146 -6.44358,-6.44722 -8.14231,-8.14232 -1.69511,-1.69513 -0.73889,-3.23443 -0.73889,-3.23443 0,0 1.5321,-0.94902 3.22723,0.7498 1.69502,1.68782 5.99077,5.99078 8.1386,8.13501 2.14793,2.15152 8.47922,5.76266 18.42525,3.95164 0,0 -1.80742,5.10337 -0.11231,10.52553 z"
               style="fill:#000000;fill-opacity:1;fill-rule:nonzero;stroke:#000000;stroke-width:0.3985;stroke-linecap:butt;stroke-linejoin:miter;stroke-miterlimit:10;stroke-dasharray:none;stroke-opacity:1"
               id="path36" /></g></g></g></g></g></svg>
