<?xml version="1.0" encoding="UTF-8" standalone="no"?>
<svg
   xmlns:dc="http://purl.org/dc/elements/1.1/"
   xmlns:cc="http://creativecommons.org/ns#"
   xmlns:rdf="http://www.w3.org/1999/02/22-rdf-syntax-ns#"
   xmlns:svg="http://www.w3.org/2000/svg"
   xmlns="http://www.w3.org/2000/svg"
   xmlns:sodipodi="http://sodipodi.sourceforge.net/DTD/sodipodi-0.dtd"
   xmlns:inkscape="http://www.inkscape.org/namespaces/inkscape"
   version="1.1"
   id="svg2"
   xml:space="preserve"
   width="43.560001"
   height="60.026669"
   viewBox="0 0 43.560001 60.026669"
   sodipodi:docname="vectorian178.pdf"><metadata
     id="metadata8"><rdf:RDF><cc:Work
         rdf:about=""><dc:format>image/svg+xml</dc:format><dc:type
           rdf:resource="http://purl.org/dc/dcmitype/StillImage" /></cc:Work></rdf:RDF></metadata><defs
     id="defs6" /><sodipodi:namedview
     pagecolor="#ffffff"
     bordercolor="#666666"
     borderopacity="1"
     objecttolerance="10"
     gridtolerance="10"
     guidetolerance="10"
     inkscape:pageopacity="0"
     inkscape:pageshadow="2"
     inkscape:window-width="640"
     inkscape:window-height="480"
     id="namedview4" /><g
     id="g10"
     inkscape:groupmode="layer"
     inkscape:label="vectorian178"
     transform="matrix(1.3333333,0,0,-1.3333333,0,60.026667)"><g
       id="g12"
       transform="translate(72,-26.982)"><g
         id="g14"
         transform="translate(-71.292,27.454)"><g
           id="g16"><g
             id="g18"><path
               d="m 14.65877,7.53877 c -0.4979,1.30942 -1.70212,0.70632 -1.70212,-1.03811 0,-1.74442 1.01772,-2.95003 1.01772,-2.95003 0,0 1.18301,2.68024 0.6844,3.98814 m 2.26074,31.34263 c 0.83329,1.11329 -0.34761,3.16514 -0.34761,3.16514 -2.43564,-2.85165 -0.48772,-4.27786 0.34761,-3.16514 M 20.96446,16.496 c 0.2322,1.79021 -1.02731,2.91785 -2.42064,0.8292 -1.39271,-2.08872 -0.92761,-5.47236 -0.92761,-5.47236 1.88863,0.73081 3.11595,2.85222 3.34825,4.64316 m -2.75195,1.16042 c 1.39201,1.88991 3.41516,1.88991 3.05106,-1.42543 -0.36612,-3.31543 -3.44925,-4.84125 -3.44925,-4.84125 0.86259,-2.58595 2.91784,-2.58595 4.17733,-1.06212 1.26024,1.52522 2.58666,5.96958 1.19395,9.41753 -1.39204,3.44783 -5.07348,3.94585 -7.0624,0.364 -1.98973,-3.58035 -1.42552,-8.95162 -1.42552,-8.95162 1.12701,0.099 2.48694,0.43089 2.48694,0.43089 -0.2002,1.45963 -0.36553,4.17736 1.02789,6.068 m -6.85068,24.39012 c 0,0 -1.18371,-2.05185 -0.3484,-3.16514 0.83471,-1.11272 2.78193,0.31349 0.3484,3.16514 M 14.03177,8.65419 C 15.00708,8.6194 15.5972,7.33328 15.35408,5.87296 15.10959,4.41124 14.41487,3.33414 14.41487,3.33414 c 0,0 2.88652,-2.78334 6.15607,-2.47044 3.26836,0.3135 4.13986,2.01763 4.13986,2.01763 -4.76616,-2.12213 -6.22649,1.98282 -6.22649,1.98282 -3.51202,1.91173 -4.15614,5.74898 -4.15614,5.74898 h -0.62091 c 0,0 -0.7458,-3.83725 -4.25865,-5.74898 0,0 -1.46164,-4.10495 -6.22568,-1.98282 0,0 0.86881,-1.70413 4.13904,-2.01763 3.26895,-0.3129 6.1561,2.47044 6.1561,2.47044 0,0 -0.69591,1.0771 -0.93982,2.53882 -0.24251,1.46032 0.3484,2.74644 1.32232,2.78123 z m -3.71434,3.19865 c 0,0 0.46309,3.38364 -0.92952,5.47236 -1.39131,2.08865 -2.65224,0.96101 -2.42003,-0.8292 0.2329,-1.79094 1.45902,-3.91235 3.34955,-4.64316 m 0.4303,-0.26442 c 0,0 1.36061,-0.33189 2.48762,-0.43089 0,0 0.56352,5.37127 -1.42552,8.95162 -1.99031,3.58185 -5.67107,3.08383 -7.06378,-0.364 -1.39272,-3.44795 -0.0649,-7.89231 1.19461,-9.41753 1.26012,-1.52383 3.31535,-1.52383 4.17805,1.06212 0,0 -3.08383,1.52582 -3.44864,4.84125 -0.36541,3.31534 1.65772,3.31534 3.05115,1.42543 1.39261,-1.89064 1.22531,-4.60837 1.02651,-6.068 m 3.30793,31.91703 c -0.8791,0 -2.31343,-1.17963 -2.31343,-1.17963 0,0 1.39342,-1.55792 1.16112,-3.11664 -0.23149,-1.55731 -2.61862,-1.4582 -2.75185,0.53142 0,0 -0.16528,1.1611 0.76224,2.75324 0,0 -1.29294,1.39201 -3.28197,1.39201 -1.99031,0 -2.95062,-1.95613 -2.95062,-1.95613 0,0 3.54694,0.19801 4.83986,-3.08454 C 10.81403,35.56255 9.1235,31.05258 7.10107,27.83624 5.07794,24.6199 2.62463,21.76756 1.1663,16.8272 -0.29399,11.88693 2.25981,6.15027 6.04036,5.38734 c 3.77916,-0.7637 6.33298,1.45824 7.12869,5.30498 0,0 -0.8954,0.06632 -2.55383,0.53142 0,0 -1.12691,-3.41576 -3.94515,-2.08936 -2.81814,1.32575 -4.44366,6.49891 -2.48754,10.80947 1.95623,4.31195 5.60359,3.41583 7.22911,1.39342 1.62422,-2.02314 2.74232,-6.11309 2.27723,-10.22555 h 0.53409 c -0.46379,4.11246 0.67281,8.20241 2.29844,10.22555 1.62421,2.02241 5.27216,2.91853 7.22839,-1.39342 1.95613,-4.31056 0.33122,-9.48372 -2.48622,-10.80947 -2.81885,-1.3264 -3.94587,2.08936 -3.94587,2.08936 -1.65832,-0.4651 -2.55372,-0.53142 -2.55372,-0.53142 0.79501,-3.84674 3.34814,-6.06868 7.12939,-5.30498 3.77976,0.76293 6.33228,6.49959 4.87337,11.43986 -1.45763,4.94036 -3.91307,7.7927 -5.93488,11.00904 -2.02372,3.21634 -3.71426,7.72631 -2.42054,11.00894 1.29431,3.28255 4.84057,3.08454 4.84057,3.08454 0,0 -0.96173,1.95613 -2.95004,1.95613 -1.98962,0 -3.28325,-1.39201 -3.28325,-1.39201 0.92752,-1.59214 0.7622,-2.75324 0.7622,-2.75324 -0.13248,-1.98962 -2.51962,-2.08873 -2.75251,-0.53142 -0.23093,1.55872 1.1611,3.11664 1.1611,3.11664 0,0 -1.25471,1.17963 -2.13373,1.17963 m 2.61803,-0.63521 c 0,0 1.84411,1.67613 4.45947,1.6078 2.61454,-0.06758 3.92114,-3.98953 3.92114,-3.98953 0,0 -1.74302,1.71033 -4.32415,0.43649 -2.58112,-1.2732 -2.94935,-5.99966 -0.5703,-10.18931 2.38092,-4.19176 6.67107,-8.17922 7.5761,-13.70967 0.90561,-5.5318 -1.20693,-12.67078 -8.78173,-12.40297 0,0 2.64814,-4.15627 6.805,-0.33542 0,0 -0.77111,-3.68695 -5.09536,-4.22385 -4.32417,-0.53608 -6.3685,2.48084 -6.3685,2.48084 l -0.3675,0.40701 -0.28951,-0.40701 c 0,0 -2.04573,-3.01692 -6.36987,-2.48084 C 2.94492,0.60068 2.17381,4.28763 2.17381,4.28763 6.33066,0.46678 8.97871,4.62305 8.97871,4.62305 1.4033,4.35524 -0.7085,11.49422 0.1958,17.02602 1.1008,22.55647 5.39287,26.54393 7.77177,30.73569 10.1515,34.92534 9.78331,39.6518 7.20288,40.925 4.62105,42.19884 2.87804,40.48851 2.87804,40.48851 c 0,0 1.30661,3.92195 3.92254,3.98953 2.61322,0.06833 4.45734,-1.6078 4.45734,-1.6078 0,0 1.51913,1.5675 2.78474,1.5675 1.26491,0 2.63103,-1.5675 2.63103,-1.5675"
               style="fill:#000000;fill-opacity:1;fill-rule:nonzero;stroke:#000000;stroke-width:0.3985;stroke-linecap:butt;stroke-linejoin:miter;stroke-miterlimit:10;stroke-dasharray:none;stroke-opacity:1"
               id="path20" /></g></g></g></g></g></svg>
