<?xml version="1.0" encoding="UTF-8" standalone="no"?>
<svg
   xmlns:dc="http://purl.org/dc/elements/1.1/"
   xmlns:cc="http://creativecommons.org/ns#"
   xmlns:rdf="http://www.w3.org/1999/02/22-rdf-syntax-ns#"
   xmlns:svg="http://www.w3.org/2000/svg"
   xmlns="http://www.w3.org/2000/svg"
   xmlns:sodipodi="http://sodipodi.sourceforge.net/DTD/sodipodi-0.dtd"
   xmlns:inkscape="http://www.inkscape.org/namespaces/inkscape"
   version="1.1"
   id="svg2"
   xml:space="preserve"
   width="83.986664"
   height="159.8"
   viewBox="0 0 83.986664 159.8"
   sodipodi:docname="vectorian026.pdf"><metadata
     id="metadata8"><rdf:RDF><cc:Work
         rdf:about=""><dc:format>image/svg+xml</dc:format><dc:type
           rdf:resource="http://purl.org/dc/dcmitype/StillImage" /></cc:Work></rdf:RDF></metadata><defs
     id="defs6"><clipPath
       clipPathUnits="userSpaceOnUse"
       id="clipPath24"><path
         d="M -0.44148,0 H 59.23195 V 119.85493 H -0.44148 Z"
         id="path22" /></clipPath><clipPath
       clipPathUnits="userSpaceOnUse"
       id="clipPath32"><path
         d="M -0.44148,0 H 59.23195 V 119.85493 H -0.44148 Z"
         id="path30" /></clipPath></defs><sodipodi:namedview
     pagecolor="#ffffff"
     bordercolor="#666666"
     borderopacity="1"
     objecttolerance="10"
     gridtolerance="10"
     guidetolerance="10"
     inkscape:pageopacity="0"
     inkscape:pageshadow="2"
     inkscape:window-width="640"
     inkscape:window-height="480"
     id="namedview4" /><g
     id="g10"
     inkscape:groupmode="layer"
     inkscape:label="vectorian026"
     transform="matrix(1.3333333,0,0,-1.3333333,0,159.8)"><g
       id="g12"
       transform="translate(72,47.853)"><g
         id="g14"
         transform="translate(-71.559,-47.853)"><g
           id="g16"><g
             id="g18"><g
               id="g20"
               clip-path="url(#clipPath24)"><path
                 d="m 17.81342,34.14873 c 7.09928,-3.38245 11.35534,-6.93129 11.52655,-22.65471 0.168,15.72342 4.42726,19.27226 11.52655,22.65471 -6.6881,1.36162 -9.76172,7.25769 -10.92815,10.31534 0.02721,1.94722 0.04959,4.74565 0.04959,8.7873 0,4.12806 0.0448,9.42573 0.1024,15.06259 h 5.24648 v 4.68328 h -5.19686 c 0.0896,8.47211 0.18558,17.18901 0.18558,23.52989 0,11.83376 2.87524,23.32829 -0.8448,23.32829 -3.71845,0 -0.84639,-11.49453 -0.84639,-23.32829 0,-6.34088 0.09598,-15.05778 0.18878,-23.52989 h -5.43048 v -4.68328 h 5.48009 c 0.05441,-5.63686 0.10081,-10.93453 0.10081,-15.06259 0,-3.53445 0.01599,-6.13127 0.03838,-8.02891 -0.90721,-2.70403 -3.90244,-9.58892 -11.19853,-11.07373 z m 11.52655,3.62884 c 2.43683,0 4.41123,-1.97603 4.41123,-4.41124 0,-2.43525 -1.9744,-4.41128 -4.41123,-4.41128 -2.43683,0 -4.41285,1.97603 -4.41285,4.41128 0,2.43521 1.97602,4.41124 4.41285,4.41124 z"
                 style="fill:#000000;fill-opacity:1;fill-rule:nonzero;stroke:#000000;stroke-width:0.3985;stroke-linecap:butt;stroke-linejoin:miter;stroke-miterlimit:10;stroke-dasharray:none;stroke-opacity:1"
                 id="path26" /><g
                 id="g28"
                 clip-path="url(#clipPath32)"><path
                   d="M 29.05995,8.79001 C 26.60712,7.43797 24.6647,6.82356 24.6647,4.39635 c 0,-2.42725 1.96804,-4.39684 4.39525,-4.39684 2.42725,0 4.39527,1.96959 4.39527,4.39684 0,2.42721 -2.19845,3.29605 -4.39527,4.39366 z"
                   style="fill:#000000;fill-opacity:1;fill-rule:nonzero;stroke:#000000;stroke-width:0.3985;stroke-linecap:butt;stroke-linejoin:miter;stroke-miterlimit:10;stroke-dasharray:none;stroke-opacity:1"
                   id="path34" /><path
                   d="m 55.4299,24.9342 c -1.3536,2.28324 -1.01442,4.39525 -0.84642,6.25447 -3.37924,-4.56323 -6.16808,-2.95681 -12.67856,-7.01608 -8.45131,-5.49286 -9.3809,-12.16975 -9.3809,-12.16975 -0.16802,-0.84642 -0.08481,-1.35362 0.59039,-0.3376 2.78883,6.08328 6.25607,8.7041 12.67856,10.22572 5.28807,1.25281 10.90414,-1.52162 12.93298,-3.46403 0.5056,2.44963 -1.94403,4.22566 -3.29605,6.50727 z"
                   style="fill:#000000;fill-opacity:1;fill-rule:nonzero;stroke:#000000;stroke-width:0.3985;stroke-linecap:butt;stroke-linejoin:miter;stroke-miterlimit:10;stroke-dasharray:none;stroke-opacity:1"
                   id="path36" /><path
                   d="m 26.26952,12.00284 c 0,0 -0.92962,6.67689 -9.38251,12.16975 -6.50888,4.05927 -9.29771,2.45285 -12.67856,7.01608 0.168,-1.85922 0.50879,-3.97123 -0.84482,-6.25447 -1.35202,-2.28161 -3.80481,-4.05764 -3.29605,-6.50727 2.02884,1.94241 7.64331,4.71684 12.93137,3.46403 6.4241,-1.52162 9.88974,-4.14244 12.67857,-10.22572 0.6768,-1.01602 0.7616,-0.50882 0.592,0.3376 z"
                   style="fill:#000000;fill-opacity:1;fill-rule:nonzero;stroke:#000000;stroke-width:0.3985;stroke-linecap:butt;stroke-linejoin:miter;stroke-miterlimit:10;stroke-dasharray:none;stroke-opacity:1"
                   id="path38" /></g></g></g></g></g></g></g></svg>
