<?xml version="1.0" encoding="UTF-8" standalone="no"?>
<svg
   xmlns:dc="http://purl.org/dc/elements/1.1/"
   xmlns:cc="http://creativecommons.org/ns#"
   xmlns:rdf="http://www.w3.org/1999/02/22-rdf-syntax-ns#"
   xmlns:svg="http://www.w3.org/2000/svg"
   xmlns="http://www.w3.org/2000/svg"
   xmlns:sodipodi="http://sodipodi.sourceforge.net/DTD/sodipodi-0.dtd"
   xmlns:inkscape="http://www.inkscape.org/namespaces/inkscape"
   version="1.1"
   id="svg2"
   xml:space="preserve"
   width="62.210522"
   height="22.540052"
   viewBox="0 0 62.210521 22.540052"
   sodipodi:docname="vectorian099.pdf"><metadata
     id="metadata8"><rdf:RDF><cc:Work
         rdf:about=""><dc:format>image/svg+xml</dc:format><dc:type
           rdf:resource="http://purl.org/dc/dcmitype/StillImage" /></cc:Work></rdf:RDF></metadata><defs
     id="defs6" /><sodipodi:namedview
     pagecolor="#ffffff"
     bordercolor="#666666"
     borderopacity="1"
     objecttolerance="10"
     gridtolerance="10"
     guidetolerance="10"
     inkscape:pageopacity="0"
     inkscape:pageshadow="2"
     inkscape:window-width="640"
     inkscape:window-height="480"
     id="namedview4" /><g
     id="g10"
     inkscape:groupmode="layer"
     inkscape:label="vectorian099"
     transform="matrix(1.3333333,0,0,-1.3333333,-0.90368404,20.687735)"><g
       id="g12"
       transform="translate(72,-54.678)"><g
         id="g14"
         transform="translate(-71.128,54.955)"><g
           id="g16"><g
             id="g18"><path
               d="m 11.02292,7.83218 c 0,0 1.32373,-1.01901 2.18985,-0.3818 0.86598,0.63661 -0.53353,2.13853 -2.18985,0.3818 M 39.5883,7.52687 c 0,0 1.60442,-1.52791 2.31682,-0.7383 0.71242,0.78891 -1.0184,1.85783 -2.31682,0.7383 M 24.69499,3.17403 C 26.52821,2.33252 27.97964,1.72261 29.60867,1.9001 31.23769,2.0784 31.8989,3.35094 31.8989,3.35094 28.86964,4.24364 26.04402,5.89716 26.04402,5.89716 25.40813,3.98885 24.69499,3.17403 24.69499,3.17403 M 22.58177,9.2078 C 23.09058,7.7817 25.71342,6.78857 25.71342,6.78857 25.0502,11.90573 22.07288,10.63263 22.58177,9.2078 M 13.54395,7.24617 c -1.0429,-0.91591 -2.72452,0.23021 -2.72452,0.23021 -0.48361,-1.90971 1.9609,-5.21967 6.92648,-5.85556 4.96286,-0.63592 6.41428,1.52859 6.41428,1.52859 -3.58992,2.26484 -6.38968,5.01409 -9.52132,6.79541 -3.13165,1.782 -7.3575,0.9173 -7.3575,0.9173 1.55253,-1.68091 3.30855,-2.77513 3.30855,-2.77513 2.31824,1.93501 3.99776,0.07651 2.95403,-0.84082 m 3.84407,3.59065 c 0,0.63521 -1.14544,0.94121 -1.14544,0.94121 0.12711,-1.24721 1.14544,-1.57851 1.14544,-0.94121 M 6.26228,12.03275 6.97537,11.16812 c 0,0 3.81945,0.99172 7.3835,-0.8156 3.56395,-1.80653 6.59459,-4.98945 10.00493,-7.00158 0,0 1.1201,1.32501 1.27312,3.13092 0,0 -3.07975,1.29984 -3.48685,3.05584 -0.4084,1.75672 1.93433,2.08873 3.10504,-0.04919 0,0 0.73761,-1.12152 0.8394,-3.23476 0,0 2.92746,-1.7062 5.90679,-2.5955 0,0 0.7138,1.3988 -0.71242,2.90213 -1.42612,1.50061 -3.84404,1.11951 -3.84404,1.11951 0,0 -0.153,3.33584 -2.85094,5.29547 -2.69864,1.95962 -7.51118,1.96032 -8.2755,-0.91663 0,0 1.24862,-0.38179 1.2984,-1.29979 0.05201,-0.91594 -1.0948,-1.17003 -1.73,1.2486 0,0 -1.01842,0.76361 -3.43834,0.99171 -2.41794,0.2302 -6.18618,-0.9665 -6.18618,-0.9665 M 0.8152,13.25406 c 0.7124,-0.66052 3.94515,-0.2281 3.94515,-0.2281 -3.18154,1.8332 -4.65827,0.8906 -3.94515,0.2281 M 2.49474,4.49765 c 0,0 0.81489,-1.04433 1.90971,-0.8148 1.09421,0.2281 0.53419,2.03541 -1.90971,0.8148 M 1.85,5.01135 c -0.7479,5.05095 4.76887,6.10549 4.76887,6.10549 l -0.78281,0.8401 c 0,0 -2.56474,-0.23831 -4.10356,0.2746 -1.53821,0.51361 -2.6043,1.73623 -0.75,2.13173 1.85582,0.3941 4.18284,-1.34212 4.18284,-1.34212 0,0 2.01224,0.47331 5.01139,0.67142 2.99843,0.196 5.75985,-1.42144 5.75985,-1.42144 0.82922,2.13034 3.63096,3.78875 7.69561,1.93364 4.06337,-1.85573 4.02444,-6.15608 4.02444,-6.15608 0,0 3.07765,0.98701 4.53798,-0.98561 1.46101,-1.97324 0.472,-3.70944 0.472,-3.70944 C 39.76999,1.0648 43.83534,1.6174 43.83534,1.6174 40.8362,2.01222 38.62529,3.15623 38.62529,3.15623 c -3.39255,1.89472 -3.94516,4.81327 -5.40546,7.73459 -1.46034,2.91854 -4.53727,3.54966 -4.53727,3.54966 10.92962,2.60504 15.9403,-3.90625 16.13841,-7.5754 0.1967,-3.66925 -3.11736,-3.74776 -4.57697,-2.44594 -1.4589,1.30181 -0.9876,2.95885 -0.9876,2.95885 0,0 -1.22262,2.68361 -2.80044,4.73535 -1.57773,2.05113 -3.19655,1.97263 -3.19655,1.97263 2.32843,0.2377 4.10366,-1.45961 4.77437,-3.39325 0.6714,-1.93433 1.3817,-2.80113 1.3817,-2.80113 3.07706,1.26361 4.34067,-0.98693 3.15625,-1.69663 -1.18361,-0.71101 -3.11723,1.02521 -3.11723,1.02521 -0.31561,-2.16922 1.89332,-3.74904 3.94504,-2.83992 2.05183,0.9077 0.98773,5.48466 -3.55094,8.3649 -4.53737,2.88035 -10.25833,1.57852 -10.25833,1.57852 3.03734,-0.82921 3.78804,-3.03745 5.28796,-5.91908 C 36.37746,5.52356 37.32405,4.65685 37.32405,4.65685 39.73111,2.2498 45.21506,1.6174 45.21506,1.6174 39.53299,0.43369 32.5887,3.07773 32.5887,3.07773 29.90576,-0.27658 24.4997,2.95883 24.4997,2.95883 23.35558,1.5395 18.62022,-0.15639 14.00436,1.93431 9.38708,4.02574 10.41373,7.81238 10.41373,7.81238 8.7164,8.8779 6.82306,10.78563 6.82306,10.78563 1.35,9.6654 2.20651,5.36644 2.20651,5.36644 4.84915,6.82608 6.59906,4.60085 5.20496,3.58994 3.53912,2.38512 2.06172,4.42114 2.06172,4.42114 0.48389,3.19722 0.19429,0 0.19429,0 -0.27419,3.11453 1.85,5.01135 1.85,5.01135"
               style="fill:#000000;fill-opacity:1;fill-rule:nonzero;stroke:#000000;stroke-width:0.3985;stroke-linecap:butt;stroke-linejoin:miter;stroke-miterlimit:10;stroke-dasharray:none;stroke-opacity:1"
               id="path20" /></g></g></g></g></g></svg>
