<?xml version="1.0" encoding="UTF-8" standalone="no"?>
<svg
   xmlns:dc="http://purl.org/dc/elements/1.1/"
   xmlns:cc="http://creativecommons.org/ns#"
   xmlns:rdf="http://www.w3.org/1999/02/22-rdf-syntax-ns#"
   xmlns:svg="http://www.w3.org/2000/svg"
   xmlns="http://www.w3.org/2000/svg"
   xmlns:sodipodi="http://sodipodi.sourceforge.net/DTD/sodipodi-0.dtd"
   xmlns:inkscape="http://www.inkscape.org/namespaces/inkscape"
   version="1.1"
   id="svg2"
   xml:space="preserve"
   width="46.309856"
   height="22.820639"
   viewBox="0 0 46.309856 22.820639"
   sodipodi:docname="vectorian155.pdf"><metadata
     id="metadata8"><rdf:RDF><cc:Work
         rdf:about=""><dc:format>image/svg+xml</dc:format><dc:type
           rdf:resource="http://purl.org/dc/dcmitype/StillImage" /></cc:Work></rdf:RDF></metadata><defs
     id="defs6" /><sodipodi:namedview
     pagecolor="#ffffff"
     bordercolor="#666666"
     borderopacity="1"
     objecttolerance="10"
     gridtolerance="10"
     guidetolerance="10"
     inkscape:pageopacity="0"
     inkscape:pageshadow="2"
     inkscape:window-width="640"
     inkscape:window-height="480"
     id="namedview4" /><g
     id="g10"
     inkscape:groupmode="layer"
     inkscape:label="vectorian155"
     transform="matrix(1.3333333,0,0,-1.3333333,-0.01554234,22.769146)"><g
       id="g12"
       transform="translate(72,-54.938)"><g
         id="g14"
         transform="translate(-71.79,55.098)"><g
           id="g16"><g
             id="g18"><path
               d="m 16.93642,12.08014 c 0,0 -1.10312,0.0478 -1.06003,0.485 0.0437,0.44391 1.01701,0.04779 1.06003,-0.485 m 2.34411,-9.50082 c 0,0 -2.43153,-0.2186 -3.05033,0.26641 -0.61881,0.4849 0.22129,1.59142 3.05033,-0.26641 m 1.54573,3.00534 c 0,0 -1.94464,-0.21862 -2.82774,0.3551 -0.88522,0.57381 -0.487,1.0587 0.26361,1.01771 0.75272,-0.04779 2.07782,-0.62149 2.56413,-1.37281 m 1.67882,3.53804 c 0,0 -3.00523,-0.1366 -3.27034,0.5259 -0.26431,0.66932 2.07782,0.88793 3.27034,-0.5259 m 11.44673,1.98753 C 33.81932,10.3999 31.43288,8.6377 22.9914,9.0749 c 0,0 -2.25394,2.12414 -3.88917,0.9289 0,0 -0.52931,-0.6626 0.88451,-1.0177 1.41461,-0.3484 3.22525,-0.6147 3.22525,-0.6147 0,0 0.709,-1.01772 -0.0874,-1.81003 -0.83942,-0.8401 -2.12143,-0.8401 -2.12143,-0.8401 0,0 -0.7513,1.0108 -2.25473,1.36601 -1.50191,0.35521 -1.98894,-0.61472 -1.10442,-1.36601 0.88382,-0.75142 2.07842,-0.97672 3.40355,-0.71042 0,0 0.35379,-1.68022 -1.59154,-2.34273 0,0 -1.19389,0.7991 -2.12141,1.10651 -1.20963,0.403 -2.20483,-0.6899 -1.05942,-1.28411 1.19123,-0.61472 2.12012,-0.48492 3.09204,-0.34831 0,0 0.44261,-1.76903 -2.43081,-1.94661 -2.87215,-0.17761 -6.80501,3.00524 -11.49045,3.79755 0,0 0.66389,1.19531 -0.26502,2.21303 0,0 0.88451,0.35519 0.97261,1.8988 0.08881,1.54362 -1.28141,2.29492 -1.28141,2.29492 0,0 0.48629,0.66942 -0.1332,1.99443 0,0 1.68091,0.17081 5.03937,1.32512 3.35843,1.14742 7.42378,2.25394 9.72153,2.29494 2.29832,0.04781 5.65745,0 5.96685,-1.54363 0.30872,-1.5505 -3.66853,-1.6802 -4.55305,-0.57379 0,0 0.3094,0.34839 -0.13179,0.75139 -0.44191,0.39612 -0.97202,0 -0.26572,-0.75139 0,0 -1.14891,-1.76903 -3.35774,-1.68023 0,0 -0.22198,0.75129 -1.06142,0.75129 -0.9112,0 -0.7957,-1.1064 1.06142,-1.28399 0,0 -0.1762,-2.38373 -3.09413,-2.95755 C 11.14713,8.14598 8.8931,8.2826 8.40749,10.09262 c -0.48561,1.80992 2.56404,3.00523 2.56404,3.00523 0,0 -0.3107,0 -0.97261,-0.2664 C 9.335,12.56514 7.5244,11.37662 8.2313,9.7852 8.93819,8.19379 10.83902,7.53117 14.02057,8.01619 c 3.15762,0.48491 3.26823,3.36043 3.31404,3.57213 -0.0034,-0.0204 0.0123,-0.1229 0.39821,-0.1229 0.44189,0 5.65535,0.21862 8.2639,0.43712 2.60773,0.2254 5.48056,0.40302 6.40738,0.3552 0.92961,-0.041 1.68022,-0.43711 1.54771,-1.14751 m -13.25807,2.82774 c 0,0 -0.44188,0.62162 -0.1776,0.66251 0.26572,0.04788 0.35453,-0.44391 0.1776,-0.66251 M 2.70633,2.27191 C 1.2481,1.9646 0.09988,2.31291 0.8075,3.50822 c 0.70692,1.19533 3.71154,0.35521 4.10836,0.30741 0,0 -0.75062,-1.23631 -2.20953,-1.54372 M 2.66331,6.11736 c -0.6195,0 -1.19461,0.21862 -1.0184,1.01771 0.17759,0.79233 2.29972,0.17763 2.96092,-0.5327 0,0 -1.3251,-0.48501 -1.94252,-0.48501 M 2.44061,9.21149 C 1.2918,9.0339 0.6286,10.31792 1.8669,10.80292 c 0.79641,0.30731 2.38644,-0.3142 2.38644,-0.3142 0,0 -0.7185,-1.11331 -1.81273,-1.27723 m -2.16513,4.63768 c 0.0443,0.88112 3.05036,0.485 4.02156,-1.23624 0,0 -4.06464,0.3551 -4.02156,1.23624 m 34.03015,-2.56133 c -0.48631,1.54361 -3.26954,1.2773 -7.0269,0.9699 -3.75733,-0.30741 -8.1765,-0.6147 -9.0603,-0.6147 -0.88382,0 -0.61812,0.1298 -0.61812,0.1298 2.60643,0.2663 3.13715,1.89871 3.13715,1.89871 1.1051,-0.6625 2.34132,-0.9698 3.80165,-0.4849 1.45761,0.4849 1.50271,1.85783 -0.2213,2.78674 -1.72324,0.92891 -3.22655,0.84011 -6.4525,0.52591 -3.22725,-0.3073 -4.46356,-1.36601 -8.4859,-2.69113 -4.02097,-1.32503 -4.68416,-1.15424 -4.68416,-1.15424 0,0 -0.39821,0.92883 -1.76832,1.55043 -1.60713,0.72402 -2.60715,0.35523 -2.87215,-0.1366 -0.26497,-0.485 0.44192,-1.32511 1.85652,-1.67343 1.41454,-0.35519 2.47525,-0.04777 2.47525,-0.04777 0.52931,-0.75133 0,-1.68024 0,-1.68024 -2.74164,1.01772 -3.44726,-0.1776 -3.44726,-0.66252 0,-0.48499 0.30881,-1.27731 1.90022,-1.1065 1.59004,0.1776 1.98823,1.32502 1.98823,1.32502 0,0 1.10582,-0.52591 1.06011,-1.76221 C 5.84476,7.22388 4.78404,6.73207 4.78404,6.73207 1.99872,8.5899 0.9831,7.17607 1.3369,6.42476 1.6907,5.67346 2.75002,5.67346 3.45763,5.76216 4.16524,5.85097 4.96097,6.15836 4.96097,6.15836 5.79906,5.09966 5.18095,3.99315 5.18095,3.99315 2.75002,4.52594 0.93929,4.39615 0.40858,3.41943 -0.12338,2.44951 0.4967,1.34302 2.44061,1.69821 4.35445,2.0466 5.21095,3.68584 5.21095,3.68584 5.82906,3.59703 8.8494,2.0056 11.05832,1.1245 c 2.21095,-0.8879 3.84544,-1.28409 6.4081,-1.06551 2.56413,0.22539 2.12283,2.21292 2.12283,2.21292 2.43022,1.05872 1.5908,2.77994 1.5908,2.77994 0,0 1.89873,0.444 2.34135,1.28413 0.59359,1.12691 -0.13323,2.12413 -0.13323,2.12413 5.96759,-0.66252 11.40378,1.27732 10.91746,2.82773"
               style="fill:#000000;fill-opacity:1;fill-rule:nonzero;stroke:#000000;stroke-width:0.3985;stroke-linecap:butt;stroke-linejoin:miter;stroke-miterlimit:10;stroke-dasharray:none;stroke-opacity:1"
               id="path20" /></g></g></g></g></g></svg>
