<?xml version="1.0" encoding="UTF-8" standalone="no"?>
<svg
   xmlns:dc="http://purl.org/dc/elements/1.1/"
   xmlns:cc="http://creativecommons.org/ns#"
   xmlns:rdf="http://www.w3.org/1999/02/22-rdf-syntax-ns#"
   xmlns:svg="http://www.w3.org/2000/svg"
   xmlns="http://www.w3.org/2000/svg"
   xmlns:sodipodi="http://sodipodi.sourceforge.net/DTD/sodipodi-0.dtd"
   xmlns:inkscape="http://www.inkscape.org/namespaces/inkscape"
   version="1.1"
   id="svg2"
   xml:space="preserve"
   width="185.84"
   height="180.62666"
   viewBox="0 0 185.84 180.62666"
   sodipodi:docname="vectorian007.pdf"><metadata
     id="metadata8"><rdf:RDF><cc:Work
         rdf:about=""><dc:format>image/svg+xml</dc:format><dc:type
           rdf:resource="http://purl.org/dc/dcmitype/StillImage" /></cc:Work></rdf:RDF></metadata><defs
     id="defs6" /><sodipodi:namedview
     pagecolor="#ffffff"
     bordercolor="#666666"
     borderopacity="1"
     objecttolerance="10"
     gridtolerance="10"
     guidetolerance="10"
     inkscape:pageopacity="0"
     inkscape:pageshadow="2"
     inkscape:window-width="640"
     inkscape:window-height="480"
     id="namedview4" /><g
     id="g10"
     inkscape:groupmode="layer"
     inkscape:label="vectorian007"
     transform="matrix(1.3333333,0,0,-1.3333333,0,180.62667)"><g
       id="g12"
       transform="translate(72,63.473)"><g
         id="g14"
         transform="translate(-72,-63.473)"><g
           id="g16"><g
             id="g18"><path
               d="M 119.32422,118.56781 H 15.9072 V 16.9067 H 119.32422 Z M 116.39519,19.77122 H 18.83372 v 95.93204 h 97.56147 z"
               style="fill:#000000;fill-opacity:1;fill-rule:nonzero;stroke:#000000;stroke-width:0.3985;stroke-linecap:butt;stroke-linejoin:miter;stroke-miterlimit:10;stroke-dasharray:none;stroke-opacity:1"
               id="path20" /><path
               d="M 110.629,110.02881 H 24.5999 V 25.4431 H 110.629 Z M 46.31308,99.68196 c 0.62992,3.13976 2.23703,5.60748 4.51866,6.9492 1.69643,0.99451 4.33515,1.59462 6.06627,1.73101 4.09715,0.31752 6.6243,-1.15572 8.01811,-2.44782 0.63742,-0.59021 1.0714,-1.17053 1.36652,-1.67653 -3.01324,-0.66461 -5.26767,-3.34062 -5.26767,-6.55238 0,-3.71013 3.01083,-6.72098 6.72099,-6.72098 3.71276,0 6.72109,3.01085 6.72109,6.72098 0,3.24895 -2.30403,5.95717 -5.36696,6.5847 0.29518,0.49849 0.7242,1.06641 1.34671,1.64421 1.39631,1.2921 3.92355,2.76534 8.0181,2.44782 1.73612,-0.13639 4.37236,-0.7365 6.06878,-1.73101 2.28163,-1.34172 3.88873,-3.80944 4.51875,-6.9492 C 89.83604,95.73112 88.96793,91.46547 86.7805,88.54883 85.05688,86.2523 74.43225,75.64006 72.31921,73.97345 72.02652,73.74274 71.7364,73.52454 71.44872,73.30873 c -0.93502,0.62752 -2.02623,1.04662 -3.21177,1.16812 v 6.49538 h -1.4136 v -6.49538 c -1.11601,-0.1116 -2.14533,-0.5034 -3.04804,-1.07382 -0.24301,0.1884 -0.49111,0.37691 -0.73911,0.57042 -2.11054,1.66661 -12.73517,12.27885 -14.4613,14.57538 -2.1874,2.91664 -3.05302,7.18229 -2.26182,11.13313 z M 97.71526,60.98767 c 3.18692,0 5.84307,2.22713 6.53497,5.20326 0.5432,-0.29019 1.20531,-0.76141 1.87001,-1.4781 1.28963,-1.39632 2.76524,-3.92107 2.44286,-8.01811 -0.13392,-1.73362 -0.73163,-4.36995 -1.72614,-6.06877 -1.33922,-2.28425 -3.80934,-3.88877 -6.95169,-4.51627 -3.95075,-0.79361 -8.21901,0.0694 -11.13054,2.25932 -2.29903,1.72373 -12.90637,12.34836 -14.57549,14.4639 -0.24061,0.30249 -0.4737,0.60759 -0.70181,0.9102 0.5629,0.89771 0.94492,1.91214 1.05652,3.02074 h 6.49779 v 1.41611 h -6.49779 c -0.1116,1.10853 -0.49362,2.12545 -1.05652,3.02076 0.22811,0.30251 0.4612,0.60761 0.70181,0.9101 1.66912,2.11304 12.27646,12.74026 14.57549,14.46388 2.91405,2.18744 7.17979,3.05545 11.13054,2.26435 3.14235,-0.63492 5.61247,-2.23954 6.95169,-4.52366 0.99451,-1.69392 1.59222,-4.33276 1.72614,-6.06379 0.32238,-4.09716 -1.15323,-6.62439 -2.44286,-8.0206 -0.6349,-0.68451 -1.26239,-1.14331 -1.79561,-1.43352 -0.52331,3.18935 -3.27125,5.62978 -6.60937,5.62978 -3.71266,0 -6.721,-3.00835 -6.721,-6.721 0,-3.71025 3.00834,-6.71858 6.721,-6.71858 z M 37.75928,74.42725 c -3.35805,0 -6.1184,-2.47263 -6.6169,-5.69178 -0.55551,0.2902 -1.22522,0.7639 -1.90471,1.49552 -1.29462,1.39621 -2.76773,3.92344 -2.44784,8.01809 0.13641,1.73354 0.72911,4.37238 1.72612,6.06879 1.34422,2.28163 3.81434,3.88625 6.95169,4.52117 3.95074,0.7911 8.21901,-0.07441 11.13304,-2.26435 2.29913,-1.72362 12.91137,-12.35084 14.5755,-14.46388 0.1835,-0.2256 0.3621,-0.45881 0.53572,-0.68939 -0.63994,-0.94243 -1.06642,-2.04604 -1.18794,-3.24147 h -6.49288 v -1.41611 h 6.49288 c 0.12152,-1.19542 0.548,-2.29903 1.18794,-3.23903 C 61.53578,63.29419 61.35968,63.06099 61.17618,62.8329 59.51205,60.71736 48.89981,50.09273 46.60068,48.369 c -2.91654,-2.18742 -7.1823,-3.05293 -11.13304,-2.25932 -3.13735,0.6275 -5.60747,2.23202 -6.95169,4.51866 -0.99701,1.69643 -1.58971,4.33276 -1.72612,6.06638 -0.02729,0.3844 -0.0422,0.75641 -0.0422,1.11101 0,3.44984 1.31702,5.64216 2.49004,6.9071 0.70682,0.76379 1.40619,1.24249 1.97171,1.52771 0.67202,-3.00345 3.34314,-5.25287 6.5499,-5.25287 3.71014,0 6.72099,3.00833 6.72099,6.71858 0,3.71265 -3.01085,6.721 -6.72099,6.721 z m 23.8757,-6.95659 c 0,3.25884 2.64132,5.89757 5.89519,5.89757 3.25633,0 5.89766,-2.63873 5.89766,-5.89757 0,-3.25634 -2.64133,-5.89517 -5.89766,-5.89517 -3.25387,0 -5.89519,2.63883 -5.89519,5.89517 z m -16.16522,35.42546 c -0.3794,-0.89281 -0.68689,-1.84514 -0.89031,-2.86696 -0.7688,-3.83424 -0.12651,-7.94118 1.66663,-11.12563 -3.18193,1.79303 -7.2914,2.43544 -11.12564,1.66663 -1.35163,-0.2728 -2.60164,-0.70691 -3.71764,-1.28221 -2.89175,4.46654 -6.3118,11.55463 -6.3416,20.19035 8.6257,-0.34231 15.312,-3.25885 20.40856,-6.58218 z M 25.0612,26.05573 c 0.0298,8.3554 3.23654,15.2724 6.06137,19.75885 1.19045,-0.65232 2.52965,-1.14582 3.99787,-1.44092 3.83424,-0.76891 7.94371,-0.12902 11.12564,1.66662 -1.79561,-3.18194 -2.43543,-7.29399 -1.66663,-11.12565 0.16872,-0.8433 0.40671,-1.64432 0.69942,-2.40323 C 40.2021,29.24016 33.5778,26.39052 25.0612,26.05573 Z m 63.98123,9.20851 C 88.41241,32.122 86.80531,29.65437 84.52368,28.31265 82.82726,27.32054 80.19102,26.71794 78.4549,26.58403 c -4.09455,-0.31749 -6.62179,1.1532 -8.0181,2.44534 -0.81842,0.7589 -1.30953,1.50791 -1.58473,2.0932 3.17695,0.53322 5.60498,3.27616 5.60498,6.60691 0,3.71264 -3.00833,6.72099 -6.72109,6.72099 -3.71016,0 -6.72099,-3.00835 -6.72099,-6.72099 0,-3.29355 2.36842,-6.01668 5.49586,-6.59951 -0.27279,-0.58279 -0.77131,-1.3392 -1.59471,-2.1006 -1.39381,-1.29214 -3.92096,-2.76283 -8.01811,-2.44534 -1.73112,0.13391 -4.36984,0.73651 -6.06627,1.72862 -2.28163,1.34172 -3.88874,3.80935 -4.51866,6.95159 -0.7912,3.95085 0.0768,8.2165 2.26182,11.13064 1.72613,2.29903 12.35076,12.90886 14.4613,14.57549 0.2456,0.1934 0.4961,0.38191 0.73911,0.5704 0.90271,-0.5704 1.92702,-0.95979 3.04804,-1.07141 v -6.49779 h 1.4136 v 6.49779 c 1.18554,0.11661 2.27423,0.5406 3.21177,1.16812 0.28768,-0.21831 0.5778,-0.43902 0.87049,-0.66711 2.11304,-1.66663 12.73767,-12.27646 14.46129,-14.57549 2.18743,-2.91414 3.05554,-7.17979 2.26193,-11.13064 z m 0.98952,-2.87685 c 0.3125,0.79363 0.5679,1.63684 0.74399,2.52724 0.76881,3.83166 0.12651,7.94371 -1.6666,11.12805 3.18194,-1.79552 7.29387,-2.43793 11.12565,-1.66902 1.39379,0.28019 2.67852,0.73901 3.82183,1.33922 2.81484,-4.48896 5.97449,-11.36126 5.99928,-19.65715 -8.4025,0.3323 -14.97718,3.11502 -20.02415,6.33166 z m 13.73967,56.98236 c -1.07141,0.53319 -2.25694,0.9424 -3.53663,1.20041 -3.83178,0.76881 -7.94371,0.1264 -11.12316,-1.66423 1.79062,3.18205 2.43292,7.2915 1.66411,11.12323 -0.21329,1.06892 -0.54059,2.06094 -0.94989,2.98355 5.07677,3.27615 11.71095,6.12829 20.23005,6.46559 -0.0273,-8.57861 -3.40264,-15.6345 -6.28448,-20.10855 z"
               style="fill:#000000;fill-opacity:1;fill-rule:nonzero;stroke:#000000;stroke-width:0.3985;stroke-linecap:butt;stroke-linejoin:miter;stroke-miterlimit:10;stroke-dasharray:none;stroke-opacity:1"
               id="path22" /><path
               d="M 134.98093,135.47452 H 0 V 0 H 136.06474 V 135.47452 Z M 133.89961,2.15022 c -2.11791,0 -129.61656,0 -131.73199,0 0,2.09813 0,129.07585 0,131.17409 2.11543,0 129.61408,0 131.73199,0 0,-2.09824 0,-129.07596 0,-131.17409 z"
               style="fill:#000000;fill-opacity:1;fill-rule:nonzero;stroke:#000000;stroke-width:0.3985;stroke-linecap:butt;stroke-linejoin:miter;stroke-miterlimit:10;stroke-dasharray:none;stroke-opacity:1"
               id="path24" /></g></g></g></g></g></svg>
