<?xml version="1.0" encoding="UTF-8" standalone="no"?>
<svg
   xmlns:dc="http://purl.org/dc/elements/1.1/"
   xmlns:cc="http://creativecommons.org/ns#"
   xmlns:rdf="http://www.w3.org/1999/02/22-rdf-syntax-ns#"
   xmlns:svg="http://www.w3.org/2000/svg"
   xmlns="http://www.w3.org/2000/svg"
   xmlns:sodipodi="http://sodipodi.sourceforge.net/DTD/sodipodi-0.dtd"
   xmlns:inkscape="http://www.inkscape.org/namespaces/inkscape"
   version="1.1"
   id="svg2"
   xml:space="preserve"
   width="221.25333"
   height="81.239998"
   viewBox="0 0 221.25333 81.239998"
   sodipodi:docname="vectorian049.pdf"><metadata
     id="metadata8"><rdf:RDF><cc:Work
         rdf:about=""><dc:format>image/svg+xml</dc:format><dc:type
           rdf:resource="http://purl.org/dc/dcmitype/StillImage" /></cc:Work></rdf:RDF></metadata><defs
     id="defs6"><clipPath
       clipPathUnits="userSpaceOnUse"
       id="clipPath24"><path
         d="M 0,0 H 162.62909 V 60.93437 H 0 Z"
         id="path22" /></clipPath></defs><sodipodi:namedview
     pagecolor="#ffffff"
     bordercolor="#666666"
     borderopacity="1"
     objecttolerance="10"
     gridtolerance="10"
     guidetolerance="10"
     inkscape:pageopacity="0"
     inkscape:pageshadow="2"
     inkscape:window-width="640"
     inkscape:window-height="480"
     id="namedview4" /><g
     id="g10"
     inkscape:groupmode="layer"
     inkscape:label="vectorian049"
     transform="matrix(1.3333333,0,0,-1.3333333,0,81.24)"><g
       id="g12"
       transform="translate(72,-11.066)"><g
         id="g14"
         transform="translate(-72,11.066)"><g
           id="g16"><g
             id="g18"><g
               id="g20"
               clip-path="url(#clipPath24)"><path
                 d="m 159.44034,53.41147 c -1.31682,0 -2.44484,-0.66081 -2.93285,-1.60001 -7.04646,0.45439 -30.95238,1.1584 -41.25172,-9.02092 -7.71051,4.76006 -16.70102,3.63684 -23.7395,0.66881 -2.68004,2.04643 -5.67847,4.15045 -8.86892,6.44009 0,0 3.51205,2.76003 3.51205,5.51847 0,2.75682 -2.15043,5.51687 -4.65766,5.51687 -2.50884,0 -4.66086,-2.76005 -4.66086,-5.51687 0,-2.75844 3.51204,-5.51847 3.51204,-5.51847 C 77.10648,47.57141 74.06483,45.43697 71.3544,43.35695 64.27913,46.40338 55.16699,47.605 47.37329,42.79054 37.07397,52.96986 13.16805,52.26585 6.11998,51.81146 c -0.48642,0.9392 -1.61604,1.60001 -2.93285,1.60001 -1.76003,0 -3.18722,-1.1808 -3.18722,-2.63362 0,-1.45284 1.42719,-2.63043 3.18722,-2.63043 1.38721,0 2.55204,0.73278 2.99045,1.75202 h 15.74419 c 5.19845,0 16.79382,-2.30564 23.72349,-8.28971 -12.36013,-9.24494 -8.8641,-21.32029 -2.15522,-23.30751 6.44809,-1.90882 16.07061,8.4721 6.3441,21.59868 0.53599,0.352 1.09601,0.68002 1.6784,0.9712 5.27208,2.63686 11.40975,3.53926 18.05464,1.07683 -4.55845,-3.68324 -7.93771,-7.2945 -9.27691,-11.60816 -1.97602,-6.36327 0,-16.30101 9.77933,-17.05302 0.19358,-0.0128 0.36158,-0.008 0.5504,-0.0192 0.0688,-9.76011 4.39204,-13.26893 11.36174,-13.26893 5.40968,0 9.99214,4.85603 9.99052,13.25613 0.32002,0.0096 0.62242,0.0064 0.95682,0.032 9.78092,0.75201 11.75696,10.68975 9.78092,17.05302 -1.36321,4.39367 -4.84326,8.05611 -9.5313,11.81136 6.60006,2.36322 12.68174,1.34721 17.93461,-1.28003 0.5856,-0.29118 1.14403,-0.6192 1.68164,-0.9712 -9.72655,-13.12658 -0.1056,-23.5075 6.34407,-21.59868 6.70569,1.98722 10.20494,14.06257 -2.15843,23.30751 6.92969,5.98407 18.52663,8.28971 23.72511,8.28971 h 15.7426 c 0.44002,-1.01924 1.60643,-1.75202 2.99204,-1.75202 1.76163,0 3.18886,1.17759 3.18886,2.63043 0,1.45282 -1.42723,2.63362 -3.18886,2.63362 z M 51.01173,32.5968 c 2.00644,-12.78735 -5.76806,-13.54097 -8.5249,-10.78253 -2.72322,2.72323 -0.5424,11.75374 5.83208,16.96982 1.36482,-1.80324 2.32643,-3.85445 2.69282,-6.18729 z m 28.33478,25.32833 c 1.00641,2.25602 4.94567,1.50881 4.76645,-1.50403 -0.24959,-4.26244 -3.00803,-5.26885 -3.00803,-5.26885 0,0 -3.16964,3.58885 -1.75842,6.77288 z m 2.15523,-8.77611 c 0,0 3.59204,-2.47202 7.86891,-6.68009 -3.48485,-1.75361 -6.3345,-3.90403 -8.05771,-5.85927 -1.68004,1.91201 -4.43527,4.00644 -7.8081,5.73768 4.33285,4.28324 7.9969,6.80168 7.9969,6.80168 z M 80.85373,26.57751 c -1.24641,0 -2.25765,-1.00959 -2.25765,-2.25601 0,-1.19043 0.92642,-2.15683 2.09604,-2.24003 -0.42559,-2.17923 -1.97762,-6.55048 -7.56009,-7.39528 -0.04002,1.24481 0.0192,2.63521 0.2,4.20324 1.00322,8.69132 7.85611,15.7154 7.85611,15.7154 0,0 5.85127,-5.85288 7.52168,-16.55222 0.18561,-1.17282 0.26241,-2.22883 0.2816,-3.20645 -5.27204,1.23684 -6.48646,5.8465 -6.76168,7.69771 0.53122,0.41123 0.88002,1.05283 0.88002,1.77763 0,1.24642 -1.0112,2.25601 -2.25603,2.25601 z m -13.28978,9.02894 c 1.46242,1.93122 3.00005,3.68963 4.49927,5.26565 2.69763,-1.3248 5.46566,-3.20642 8.2897,-5.76646 -3.76166,-2.75844 -9.19532,-8.86092 -9.69772,-19.89305 -0.008,-0.224 -0.0048,-0.4256 -0.01282,-0.64481 -8.17288,0.64639 -9.1265,13.05615 -3.07843,21.03867 z m 14.1266,-30.594 c -3.41765,0 -7.74891,1.31841 -8.46731,8.2993 6.98889,0.69123 8.2785,5.74408 8.2785,5.74408 0,0 1.19681,-4.63844 7.45448,-5.62887 C 88.51624,6.66528 84.06337,5.01245 81.69055,5.01245 Z m 13.74578,30.594 c 6.14567,-8.11371 5.05924,-20.79548 -3.49286,-21.05466 -0.064,1.15199 -0.1968,2.35681 -0.4336,3.62564 -2.13122,11.40974 -9.15213,17.17781 -9.15213,17.17781 2.84964,2.58563 5.63689,4.46246 8.34891,5.76166 1.57123,-1.63521 3.19363,-3.48003 4.72968,-5.51045 z m 24.7059,-13.79218 c -2.75844,-2.75844 -10.53134,-2.00482 -8.52651,10.78253 0.36479,2.33284 1.32802,4.38405 2.69284,6.18729 6.37128,-5.21608 8.55692,-14.24659 5.83367,-16.96982 z"
                 style="fill:#000000;fill-opacity:1;fill-rule:nonzero;stroke:#000000;stroke-width:0.3985;stroke-linecap:butt;stroke-linejoin:miter;stroke-miterlimit:10;stroke-dasharray:none;stroke-opacity:1"
                 id="path26" /></g></g></g></g></g></g></svg>
