<?xml version="1.0" encoding="UTF-8" standalone="no"?>
<svg
   xmlns:dc="http://purl.org/dc/elements/1.1/"
   xmlns:cc="http://creativecommons.org/ns#"
   xmlns:rdf="http://www.w3.org/1999/02/22-rdf-syntax-ns#"
   xmlns:svg="http://www.w3.org/2000/svg"
   xmlns="http://www.w3.org/2000/svg"
   xmlns:sodipodi="http://sodipodi.sourceforge.net/DTD/sodipodi-0.dtd"
   xmlns:inkscape="http://www.inkscape.org/namespaces/inkscape"
   version="1.1"
   id="svg2"
   xml:space="preserve"
   width="59.440613"
   height="18.846489"
   viewBox="0 0 59.440613 18.846489"
   sodipodi:docname="vectorian193.pdf"><metadata
     id="metadata8"><rdf:RDF><cc:Work
         rdf:about=""><dc:format>image/svg+xml</dc:format><dc:type
           rdf:resource="http://purl.org/dc/dcmitype/StillImage" /></cc:Work></rdf:RDF></metadata><defs
     id="defs6" /><sodipodi:namedview
     pagecolor="#ffffff"
     bordercolor="#666666"
     borderopacity="1"
     objecttolerance="10"
     gridtolerance="10"
     guidetolerance="10"
     inkscape:pageopacity="0"
     inkscape:pageshadow="2"
     inkscape:window-width="640"
     inkscape:window-height="480"
     id="namedview4" /><g
     id="g10"
     inkscape:groupmode="layer"
     inkscape:label="vectorian193"
     transform="matrix(1.3333333,0,0,-1.3333333,-0.62052645,18.650749)"><g
       id="g12"
       transform="translate(72,-57.325)"><g
         id="g14"
         transform="translate(-71.335,57.378)"><g
           id="g16"><g
             id="g18"><path
               d="M 16.3761,10.23141 C 12.22264,10.81262 8.44969,10.47731 4.13914,9.18231 -0.17079,7.8873 0.31958,6.92627 0.8565,6.70358 1.3927,6.47958 5.52286,6.65918 8.5378,6.63525 11.55334,6.61418 12.26704,5.96596 10.68172,5.20775 9.09651,4.44754 6.61778,4.58215 4.89865,4.73854 3.18013,4.89494 2.64331,4.98445 2.55452,4.71605 2.46501,4.44754 5.05574,3.39774 10.14561,3.24272 15.23749,3.08563 18.36372,4.33624 24.6817,5.07324 31.00168,5.81017 37.25476,5.38605 37.25476,5.38605 l 0.69191,1.02722 C 36.58464,7.26158 36.60796,8.48969 36.60796,8.48969 31.8288,7.37369 20.53024,9.6501 16.3761,10.23141 m 23.2453,-8.2393 c 1.49652,-0.08881 1.7649,0.76021 1.2513,1.42822 -0.5136,0.67072 -3.19452,1.29702 -3.19452,1.29702 0.08879,-0.93782 0.4474,-2.63643 1.94322,-2.72524 m 3.55034,3.75255 C 44.15466,6.32388 44.19836,7.35037 41.60832,7.14958 39.0183,6.94946 37.90227,5.25215 37.90227,5.25215 39.5996,4.98445 42.18964,5.16264 43.17174,5.74466 m -2.27712,4.15276 c 0.6024,0.57989 1.0716,1.56202 -0.75961,1.2718 C 38.30388,10.87962 37.36678,8.78 37.36678,8.78 38.72867,8.71368 40.2921,9.3155 40.89462,9.89742 M 36.59496,8.73221 c 0,0 0.47399,2.17332 2.60644,2.88373 2.13512,0.7117 3.39934,-0.67081 2.05582,-1.77724 -1.34413,-1.10649 -3.87265,-1.4221 -3.87265,-1.4221 0,0 -0.39481,-1.14742 0.90971,-1.70002 0,0 1.54091,1.54091 4.06946,1.38311 2.52852,-0.15781 3.55513,-3.79354 -4.62407,-3.12145 0,0 3.87274,-0.82912 3.87274,-2.2922 0,-1.46164 -4.58304,-2.17264 -4.38635,2.41041 0,0 -5.96549,0 -11.61545,-1.06622 C 19.95995,2.96274 14.74298,1.73802 8.1068,2.72571 1.46921,3.71404 1.42891,4.89975 2.45612,5.01854 c 1.0279,0.11821 3.16104,-0.3169 5.53176,-0.0799 2.37084,0.23772 4.07016,0.90841 1.38252,0.90841 -2.68574,0 -5.64867,-0.5136 -7.78309,0.07991 C -0.5457,6.51918 -0.6653,7.7842 2.06131,8.81139 4.78795,9.8387 9.608,11.37953 16.9574,10.43152 24.3053,9.4821 31.37799,7.90298 36.59496,8.73221"
               style="fill:#000000;fill-opacity:1;fill-rule:nonzero;stroke:#000000;stroke-width:0.3985;stroke-linecap:butt;stroke-linejoin:miter;stroke-miterlimit:10;stroke-dasharray:none;stroke-opacity:1"
               id="path20" /><path
               d="m 5.54207,8.5512 c -0.39963,0 -0.72402,-0.26981 -0.72402,-0.6059 0,-0.33531 0.32439,-0.60652 0.72402,-0.60652 0.39949,0 0.724,0.27121 0.724,0.60652 0,0.33609 -0.32451,0.6059 -0.724,0.6059 M 6.65738,7.9276 c 0,-0.50272 -0.49522,-0.90982 -1.10512,-0.90982 -0.612,0 -1.10782,0.4071 -1.10782,0.90982 0,0.5027 0.49582,0.91041 1.10782,0.91041 0.6099,0 1.10512,-0.40771 1.10512,-0.91041"
               style="fill:#000000;fill-opacity:1;fill-rule:nonzero;stroke:#000000;stroke-width:0.3985;stroke-linecap:butt;stroke-linejoin:miter;stroke-miterlimit:10;stroke-dasharray:none;stroke-opacity:1"
               id="path22" /><path
               d="m 23.7268,10.60573 c 0,0 -1.98214,1.05321 -3.26826,0.23219 -1.2848,-0.82172 -1.08801,-1.87552 0.67893,-2.23213 1.76701,-0.35719 4.16095,0.33952 4.39186,1.91043 0.23219,1.57162 -2.82025,2.92673 -6.6417,2.07094 -3.82086,-0.85723 -5.21356,-2.91106 -5.74908,-5.26749 0,0 -0.7677,-2.71364 0.85652,-4.51686 1.62561,-1.80243 5.44646,-2.26692 8.3206,-1.51761 2.87554,0.75061 3.87474,3.96355 1.01772,4.44576 -2.85645,0.48292 -3.87344,-1.12493 -3.90967,-1.71372 -0.03619,-0.58871 0.42763,-2.12483 3.69585,-1.21443 0,0 -1.4288,-1.07021 -3.17873,-0.28549 -1.74992,0.78619 -1.07101,2.78474 1.44663,3.37485 2.51833,0.5901 4.17803,-0.46381 4.08925,-2.08934 -0.0888,-1.62421 -2.82085,-3.85561 -6.19568,-3.80245 -3.37484,0.0533 -6.66019,2.19524 -6.53449,5.78528 0.1243,3.58784 1.65972,5.62326 5.07075,7.2298 3.40966,1.60711 7.12391,0.25059 7.85541,-1.39272 0.73223,-1.64203 -0.87561,-3.33935 -3.39253,-3.33935 -2.51834,0 -3.64184,1.14341 -2.64194,2.48355 0.9999,1.33799 3.08796,1.14129 4.08856,-0.16121"
               style="fill:#000000;fill-opacity:1;fill-rule:nonzero;stroke:#000000;stroke-width:0.3985;stroke-linecap:butt;stroke-linejoin:miter;stroke-miterlimit:10;stroke-dasharray:none;stroke-opacity:1"
               id="path24" /></g></g></g></g></g></svg>
