<?xml version="1.0" encoding="UTF-8" standalone="no"?>
<svg
   xmlns:dc="http://purl.org/dc/elements/1.1/"
   xmlns:cc="http://creativecommons.org/ns#"
   xmlns:rdf="http://www.w3.org/1999/02/22-rdf-syntax-ns#"
   xmlns:svg="http://www.w3.org/2000/svg"
   xmlns="http://www.w3.org/2000/svg"
   xmlns:sodipodi="http://sodipodi.sourceforge.net/DTD/sodipodi-0.dtd"
   xmlns:inkscape="http://www.inkscape.org/namespaces/inkscape"
   version="1.1"
   id="svg2"
   xml:space="preserve"
   width="39.475025"
   height="39.779076"
   viewBox="0 0 39.475026 39.779076"
   sodipodi:docname="vectorian116.pdf"><metadata
     id="metadata8"><rdf:RDF><cc:Work
         rdf:about=""><dc:format>image/svg+xml</dc:format><dc:type
           rdf:resource="http://purl.org/dc/dcmitype/StillImage" /></cc:Work></rdf:RDF></metadata><defs
     id="defs6" /><sodipodi:namedview
     pagecolor="#ffffff"
     bordercolor="#666666"
     borderopacity="1"
     objecttolerance="10"
     gridtolerance="10"
     guidetolerance="10"
     inkscape:pageopacity="0"
     inkscape:pageshadow="2"
     inkscape:window-width="640"
     inkscape:window-height="480"
     id="namedview4" /><g
     id="g10"
     inkscape:groupmode="layer"
     inkscape:label="vectorian116"
     transform="matrix(1.3333333,0,0,-1.3333333,-0.84339379,40.103423)"><g
       id="g12"
       transform="translate(72,-41.376)"><g
         id="g14"
         transform="translate(-71.168,41.819)"><g
           id="g16"><g
             id="g18"><path
               d="m 10.53983,12.60544 c 0,0 0.7377,0.83742 1.5758,0.64003 0.83601,-0.19742 0.98422,-1.28073 -0.05058,-1.28073 -1.03342,0 -1.52522,0.6407 -1.52522,0.6407 M 17.9739,9.0114 c 0,0 -1.0833,0.0977 -1.8216,1.27933 -0.73772,1.18161 0.83731,1.3298 1.32982,0.88649 C 17.9739,10.73402 18.0729,9.5045 17.9739,9.0114 M 1.4803,14.86969 c 0,0 2.06743,1.87151 3.93895,1.28071 1.87213,-0.59092 1.42752,-2.26563 0.6898,-2.70825 C 5.37074,12.99886 3.00682,12.94975 1.4803,14.86969 M 7.97989,6.79567 c 0.8367,1.23152 2.21434,0.88591 2.41171,0.0984 0.19672,-0.7882 -0.4917,-2.36332 -2.95402,-2.26422 0,0 -0.29511,0.93502 0.54231,2.16582 M 26.93513,7.63168 C 24.8683,3.59503 20.73055,3.20093 20.73055,3.20093 21.81447,8.22249 17.61801,7.53748 17.82631,5.61475 18.02371,3.79315 19.94374,3.20093 19.94374,3.20093 18.86043,1.42851 14.23227,0.5426 11.27753,1.2318 8.3241,1.9196 7.43758,4.18584 7.43758,4.18584 c 0,0 2.06823,0.19671 2.95402,1.28003 0.88593,1.0832 0.09772,3.05243 -1.7724,2.2642 C 6.74907,6.94318 7.14247,4.77594 7.14247,4.77594 c -7.28706,2.26494 -5.61165,9.45242 -5.61165,9.45242 4.43004,-3.44723 6.89167,0.198 4.82415,1.87282 -2.06684,1.67343 -4.72715,-0.78819 -4.72715,-0.78819 1.5764,3.93826 4.92386,4.18555 4.92386,4.18555 0,0 -0.44263,-1.32981 0.541,-2.46234 0.98562,-1.13242 3.00324,-0.5416 2.70813,1.23083 -0.295,1.77182 -2.60843,1.62561 -2.60843,1.62561 1.47603,2.16583 2.90354,2.46023 2.90354,2.46023 -0.04779,-0.49249 0.849,-2.79425 2.65904,-2.26423 1.42811,0.418 1.08389,2.60983 1.08389,2.60983 3.24915,-0.5423 4.03668,-2.80583 4.03668,-2.80583 -0.54234,-0.0997 -1.52523,-0.54231 -1.52523,-1.67481 0,-1.13103 1.38182,-1.12563 1.87082,-0.14892 0.29512,0.59222 0,1.62634 0,1.62634 1.5252,0.49179 3.00254,-0.64003 3.00254,-0.64003 0,0 -0.88652,-0.78819 -0.44322,-1.7731 C 21.22366,16.2979 22.60208,16.4454 22.60208,16.4454 23.9811,12.90186 21.76466,10.43892 20.63225,9.74973 19.50044,9.0599 18.31882,9.20808 18.31882,9.20808 c 0,0 0.23771,0.63663 -0.1967,1.72394 -0.49181,1.23084 -2.70754,1.13112 -2.36324,-0.3941 0.34491,-1.52791 2.16654,-1.77382 2.16654,-1.77382 0,0 -0.4433,-1.37763 -2.85573,-1.62482 -2.41243,-0.24521 -4.72658,1.57642 -4.97377,2.85702 -0.24592,1.28004 0.3934,2.26426 0.3934,2.26426 0,0 1.18162,-1.03413 2.11734,-0.49252 0.93581,0.54029 0.444,1.72261 -0.44263,1.82161 -0.8865,0.09912 -1.7225,-0.68779 -1.7225,-0.68779 -0.98493,2.26353 1.13171,4.97175 3.84064,4.67535 2.70744,-0.29509 2.90284,-2.16592 2.85573,-3.05244 -0.0499,-0.8852 -0.78892,-2.51014 -2.36333,-2.16523 -1.57572,0.34432 -1.52723,2.01833 -0.44318,2.26422 1.08319,0.24593 1.27919,-0.93499 1.27919,-0.93499 0.7384,1.18092 -0.4426,2.65832 -1.77173,1.91922 -1.3298,-0.7383 -1.18159,-3.29966 1.08263,-3.54485 2.26353,-0.24521 3.34744,2.60843 2.06813,4.72656 -1.28063,2.11803 -4.82558,3.24915 -6.69561,0.3449 -1.87151,-2.90563 0.04911,-4.62815 0.04911,-4.62815 -1.96982,-2.26423 0.19672,-6.05567 3.49574,-6.49899 3.29905,-0.44259 4.38227,2.75664 4.38227,2.75664 0,0 3.10163,-0.44321 4.97175,2.41252 1.87073,2.85635 0.29501,5.6124 0.29501,5.6124 1.38042,0.78748 1.96924,2.46223 1.96924,2.46223 3.84125,-1.57575 3.54554,-7.58153 1.47801,-11.61957 M 20.23874,3.44753 c 0,0 -1.03342,0.2465 -1.62421,1.18232 -0.59082,0.93502 -0.39341,1.91922 0.3934,1.96912 0.7876,0.04919 1.82163,-0.73902 1.23081,-3.15144 M 9.3582,18.21783 c 0.3941,-1.57643 -2.75732,-2.60984 -2.51143,1.3292 0,0 2.11733,0.24591 2.51143,-1.3292 m -7.8288,4.87206 c 1.67482,3.84065 7.38489,5.12054 9.35472,3.34953 0,0 -0.59012,-1.03342 -0.7882,-2.75802 0,0 -2.46092,-0.68923 -3.34685,-3.74236 0,0 -3.74295,-0.0983 -5.51467,-3.84064 0,0 -1.37899,3.15152 0.295,6.99149 m 9.74813,3.20193 c 0,0 1.2465,-0.5621 1.83183,-2.15564 -1.22942,0.10252 -2.09544,-0.09759 -2.57423,-0.26499 0.09489,0.82511 0.3538,1.66664 0.7424,2.42063 m -0.34359,-5.07136 c -0.19941,0.38519 -0.32371,0.81412 -0.38862,1.26631 1.25271,0.3353 2.28673,0.32102 2.84543,0.2711 0.0021,-0.02049 0.0041,-0.03958 0.0041,-0.0594 0.1414,-2.59413 -1.72391,-2.90553 -2.46091,-1.47801 m 6.44977,-3.59204 c -1.03473,-0.2964 -1.13243,1.6235 0.64,2.01762 0,0 0.39342,-1.72322 -0.64,-2.01762 m 5.17118,-0.68172 c -0.88793,-0.14068 -1.65224,0.17291 -1.57843,0.87702 0.0348,0.3197 0.1714,0.66119 0.4542,0.95971 0.29921,-0.40512 0.84972,-1.18641 1.12423,-1.83673 m -0.49314,2.29163 c 0.63112,0.31001 1.57843,0.46922 2.95276,0.3087 0,0 -0.39411,-1.72331 -1.57571,-2.31412 -0.01851,-0.0088 -0.03762,-0.01771 -0.0574,-0.0273 -0.14551,0.40711 -0.49523,1.101 -1.31965,2.03272 m -4.77705,9.07052 c 3.64326,-0.4925 8.95991,-3.54425 7.8759,-8.36981 0,0 -2.16512,0.09911 -3.44515,-0.3941 0,0 -1.96913,1.18161 -3.64255,0.68991 0,0 -1.47671,3.05245 -4.43214,3.83993 0,0 -0.8858,1.67403 -2.06752,2.55994 0,0 2.06752,2.16655 5.71146,1.67413 m 11.91606,-15.3598 c -0.1981,5.31656 -3.54494,6.69627 -3.54494,6.69627 0.78681,3.24846 -1.28062,8.76323 -6.50099,9.64844 -5.21826,0.88722 -7.97501,-2.65762 -7.97501,-2.65762 -3.84065,2.55992 -9.453,0.59079 -10.73294,-3.93967 -1.27928,-4.52846 0.59142,-7.08909 0.59142,-7.08909 0,0 -1.6747,-5.51476 0.58952,-8.3705 C 3.89403,4.38184 6.94576,3.98775 6.94576,3.98775 7.43758,3.19952 9.30911,0.5419 13.54247,0.04878 c 4.23473,-0.49176 6.79467,2.85643 6.79467,2.85643 5.02158,-0.24519 9.05893,4.72647 8.86362,10.04384"
               style="fill:#000000;fill-opacity:1;fill-rule:nonzero;stroke:#000000;stroke-width:0.3985;stroke-linecap:butt;stroke-linejoin:miter;stroke-miterlimit:10;stroke-dasharray:none;stroke-opacity:1"
               id="path20" /></g></g></g></g></g></svg>
