<?xml version="1.0" encoding="UTF-8" standalone="no"?>
<svg
   xmlns:dc="http://purl.org/dc/elements/1.1/"
   xmlns:cc="http://creativecommons.org/ns#"
   xmlns:rdf="http://www.w3.org/1999/02/22-rdf-syntax-ns#"
   xmlns:svg="http://www.w3.org/2000/svg"
   xmlns="http://www.w3.org/2000/svg"
   xmlns:sodipodi="http://sodipodi.sourceforge.net/DTD/sodipodi-0.dtd"
   xmlns:inkscape="http://www.inkscape.org/namespaces/inkscape"
   version="1.1"
   id="svg2"
   xml:space="preserve"
   width="273.33682"
   height="273.33682"
   viewBox="0 0 273.33682 273.33682"
   sodipodi:docname="vectorian062.pdf"><metadata
     id="metadata8"><rdf:RDF><cc:Work
         rdf:about=""><dc:format>image/svg+xml</dc:format><dc:type
           rdf:resource="http://purl.org/dc/dcmitype/StillImage" /></cc:Work></rdf:RDF></metadata><defs
     id="defs6"><clipPath
       clipPathUnits="userSpaceOnUse"
       id="clipPath24"><path
         d="M 0,0 H 205.00262 V 205.00262 H 0 Z"
         id="path22" /></clipPath></defs><sodipodi:namedview
     pagecolor="#ffffff"
     bordercolor="#666666"
     borderopacity="1"
     objecttolerance="10"
     gridtolerance="10"
     guidetolerance="10"
     inkscape:pageopacity="0"
     inkscape:pageshadow="2"
     inkscape:window-width="640"
     inkscape:window-height="480"
     id="namedview4" /><g
     id="g10"
     inkscape:groupmode="layer"
     inkscape:label="vectorian062"
     transform="matrix(1.3333333,0,0,-1.3333333,0,273.33682)"><g
       id="g12"
       transform="translate(72,133)"><g
         id="g14"
         transform="translate(-72,-133)"><g
           id="g16"><g
             id="g18"><g
               id="g20"
               clip-path="url(#clipPath24)"><path
                 d="m 181.96643,9.017 c -5.02565,9.12013 2.44003,23.0083 6.30568,31.3284 3.86885,8.32011 29.75078,41.76056 5.40646,74.81697 -0.0528,0.064 -0.11198,0.128 -0.168,0.20801 0.34083,1.216 0.58723,2.48004 0.72643,3.77284 1.08481,10.12173 -3.77126,20.19386 -15.0546,25.82432 -0.006,0.003 -0.016,0.01 -0.0256,0.0112 4.37447,-0.32479 11.56815,-0.0336 17.42581,4.21126 8.18572,5.93128 5.59369,17.97145 0.55521,26.34596 -4.38726,7.2913 -5.40006,14.32338 -5.40006,14.32338 15.7634,1.57122 11.93454,11.60334 11.93454,11.60334 -2.14082,4.28965 -8.4369,4.96168 -11.63693,0.3088 -3.36966,-4.90084 -2.14403,-9.49772 -2.14403,-9.49772 0,0 -7.04329,0.92163 -14.3938,5.20807 -8.44169,4.92326 -20.51866,7.35049 -26.33633,-0.91681 -4.16005,-5.91368 -4.35686,-13.10736 -3.96967,-17.47544 -0.003,0.003 -0.01,0.01 -0.0112,0.016 -6.12328,11.02414 -15.92502,15.92819 -26.03075,14.70099 -1.2928,-0.1536 -2.54722,-0.42081 -3.75685,-0.776 -0.0768,0.0544 -0.15039,0.10879 -0.22558,0.16481 -33.37964,23.8851 -66.45527,-2.45125 -74.72416,-6.43049 -8.2689,-3.98086 -22.04831,-11.63696 -31.23562,-6.7377 -10.7169,5.71528 -5.51528,22.96671 -5.51528,22.96671 -7.04005,-5.81927 -3.97762,-24.49792 8.88333,-26.94916 13.41457,-2.55522 29.09157,5.51369 43.48696,13.7826 14.39539,8.26568 27.86755,15.31218 49.30304,6.12486 2.66722,-1.14401 5.13285,-2.44643 7.40648,-3.87845 -3.95683,-1.70242 -7.28649,-4.43046 -9.59691,-7.7489 -6.47528,3.10886 -13.52179,3.70566 -19.55226,3.05284 -14.0866,-1.53122 -20.51865,-7.9633 -30.31879,-19.90747 -9.80012,-11.94255 -28.78438,-10.41132 -28.78438,-10.41132 4.33127,-2.92324 6.89771,-6.65449 8.40971,-10.25453 -3.51844,-0.88162 -7.20329,-0.81441 -10.24172,1.31363 -6.4769,4.54724 -11.39054,-0.55363 -8.15689,-4.24806 0,0 -2.82566,-5.68489 1.78241,-6.6769 3.65444,-0.78559 7.09928,4.69606 13.85777,6.79367 0.95843,0.29923 2.13123,0.58402 3.45125,0.97124 1.93283,-5.8369 1.3088,-10.86574 1.3088,-10.86574 -5.51045,-3.06564 -6.73927,-8.57612 -1.53119,-9.49614 5.72967,-1.01121 3.67203,9.18892 3.67203,9.18892 2.75203,2.35366 6.09607,3.79206 9.37451,4.66887 0.41282,-1.85441 0.90082,-3.41125 1.19202,-4.66887 1.60963,-6.89288 -1.37601,-12.63375 1.14882,-15.39059 3.18565,-3.47205 6.66089,1.83523 6.66089,1.83523 4.82406,-0.91842 6.73927,5.89928 -0.4576,9.18891 -3.79207,1.73602 -5.74887,5.49287 -6.64969,9.48172 6.21448,1.28323 11.70255,0.70242 11.70255,0.70242 0,0 -9.00972,9.01131 -3.67684,25.72513 4.59525,14.39378 25.72512,26.33473 45.32538,17.45622 0.1328,-0.0608 0.2576,-0.13441 0.38881,-0.19679 -1.13283,-2.04163 -1.90884,-4.24806 -2.22404,-6.5425 -1.22722,-8.88011 4.28805,-16.84181 13.16816,-16.84181 2.32004,0 4.19047,0.5056 5.66088,1.33122 2.03843,-6.80329 2.57284,-13.04496 2.71205,-15.7234 -1.68323,-1.26244 -3.35846,-2.67845 -5.00328,-4.28966 -6.59368,-6.46249 -10.44974,-13.57458 -12.71375,-19.64186 -7.3569,-0.34399 -15.0914,1.93123 -20.05787,8.3105 -8.57451,11.02574 -1.53122,26.33794 6.43048,27.25636 7.96492,0.91842 9.80174,-3.06243 9.80174,-3.06243 -4.59207,1.53122 -7.65611,-1.22563 -7.65611,-4.59366 0,-3.37125 3.98085,-6.73769 8.26892,-4.28647 5.47685,3.12645 3.97923,14.3922 -8.26892,13.77939 -12.24657,-0.60962 -20.51386,-19.52027 -9.18732,-31.85001 5.14888,-5.60647 12.39856,-8.1345 19.85306,-7.89452 -2.30882,-7.13609 -2.39682,-12.32015 -2.39682,-12.32015 -3.55365,0 -6.4321,-2.88002 -6.4321,-6.43207 0,-3.55205 2.87845,-6.43208 6.4321,-6.43208 3.37604,0 6.13768,2.60803 6.40488,5.92007 0.0448,-0.01601 5.22726,0.144 12.32974,2.56003 -0.13761,-7.4721 2.48805,-14.6722 8.16333,-19.74425 12.48175,-11.16815 31.27559,-2.64005 31.7204,9.61612 0.44479,12.25616 -10.84015,13.60017 -13.89298,8.08011 -2.39203,-4.32005 1.02881,-8.2561 4.39847,-8.20812 3.36803,0.04799 6.08485,3.15204 4.49124,7.7121 0,0 4.00485,-1.77603 3.19684,-9.74411 -0.81119,-7.98411 -16.02579,-15.23221 -27.16835,-6.8161 -6.44808,4.88007 -8.8241,12.57617 -8.58411,19.93625 6.03688,2.35203 13.09458,6.30409 19.46587,12.99217 1.4512,1.52002 2.73602,3.07043 3.88482,4.64325 1.38083,0.006 8.26572,-0.0784 16.04181,-2.17922 -0.77121,-1.456 -1.23201,-3.31204 -1.20161,-5.58405 0.12001,-8.88013 8.16011,-14.27221 17.02263,-12.92818 2.28803,0.35202 4.48485,1.15201 6.50886,2.32003 0.0672,-0.144 0.13762,-0.256 0.20322,-0.4 9.14731,-19.47225 -2.50563,-40.76854 -16.83382,-45.5526 -16.637,-5.56805 -25.77313,3.31204 -25.77313,3.31204 0,0 0.65602,-5.47206 -0.5424,-11.69615 -4.00006,0.84802 -7.7841,2.75203 -9.56974,6.51209 -3.38884,7.1521 -10.17611,5.13609 -9.1921,0.33601 0,0 -5.26249,-3.55205 -1.74724,-6.68809 2.79364,-2.48003 8.49133,0.57601 15.40341,-0.92801 1.26401,-0.28801 2.82724,-0.752 4.68647,-1.13601 -0.82883,-3.29605 -2.22405,-6.65609 -4.54087,-9.44012 0,0 -10.22573,1.92001 -9.13773,-3.79207 0.99363,-5.20006 6.48809,-3.90404 9.47374,1.64804 0,0 5.02406,0.704 10.88333,-1.15202 -0.36479,-1.32802 -0.63681,-2.49603 -0.92161,-3.47205 -2.00803,-6.78409 -7.44011,-10.30414 -6.60487,-13.93617 1.05279,-4.59207 6.69769,-1.69601 6.69769,-1.69601 3.74405,-3.18404 8.7729,1.792 4.13925,8.20808 -2.17123,3.00804 -2.28804,6.7041 -1.45443,10.22414 3.62084,-1.45601 7.3841,-3.96805 10.37133,-8.27211 0,0 -1.79521,18.97624 10.01294,28.92837 11.80974,9.96814 18.15062,16.49622 19.49144,30.59241 0.55839,5.93606 -0.2816,12.92816 -3.52805,19.36023 3.38405,2.35205 6.14408,5.79208 7.82412,9.85615 1.45921,-2.25604 2.80003,-4.70407 3.97924,-7.3601 9.48012,-21.31228 2.62082,-34.88045 -5.45127,-49.37665 -8.0673,-14.51218 -15.9218,-30.30438 -13.18418,-43.68056 2.62883,-12.81613 21.35068,-15.63217 27.07236,-8.49611 0,0 -17.17781,-5.44003 -23.0403,5.18407 z M 16.34508,140.32109 c -1.81439,2.48483 3.76167,3.27045 3.76167,3.27045 -2.73123,-0.18241 -4.80966,2.14721 -2.85125,3.65284 1.95683,1.50402 8.16493,-3.02723 8.16493,-3.02723 -2.11365,-1.23682 -7.2641,-6.38408 -9.07535,-3.89606 z m 33.89804,-10.51854 c 0,0 7.04489,-3.06084 6.7393,-5.51367 -0.31041,-2.44962 -3.36804,-1.8336 -4.59366,0.61441 0,0 2.14243,-5.20647 -0.9216,-4.90086 -3.06245,0.30561 -1.22404,7.3489 -1.22404,9.80012 z m -16.53621,-3.06404 c -2.15041,-0.26239 -3.06242,3.67526 2.14403,6.12648 0,0 0.99522,-5.74088 -2.14403,-6.12648 z m 12.38577,13.52017 c -2.75683,-0.87998 -5.93448,-2.31363 -9.32332,-4.63524 0,0 0.53281,4.21924 -1.43202,9.86892 3.40966,1.15202 7.52489,3.11204 11.53456,7.3345 -1.48164,-5.02406 -1.34562,-9.20812 -0.77922,-12.56818 z m -1.21123,13.14897 c -1.65921,-1.67842 -5.69447,-4.56165 -10.24491,-6.10246 -1.02723,2.41283 -2.51685,5.01125 -4.68326,7.6097 0,0 12.52176,-0.2576 22.6483,9.56332 -0.08002,-0.15041 -0.16002,-0.30401 -0.24642,-0.4608 -1.15522,-1.70404 -2.13443,-3.34885 -2.94244,-4.92487 -1.31841,-1.97124 -2.84325,-3.97445 -4.53127,-5.68489 z M 56.06241,141.4395 c 0,0 -3.17923,0.55522 -8.07211,-0.6496 -0.62241,4.22725 -0.2064,8.40491 0.33921,10.44974 0.6368,2.37762 1.62561,4.76486 2.69284,6.94408 0.9664,1.50883 1.90563,3.19365 2.80642,5.07847 0.11201,0.18402 0.216,0.35041 0.32641,0.52321 l -0.5424,-2.44003 c 0,0 -2.75684,-9.49294 2.44963,-19.90587 z m 41.34132,4.28805 c -1.8592,0 -3.36964,1.50884 -3.36964,3.36806 0,1.86241 1.51044,3.36803 3.36964,3.36803 1.86083,0 3.37127,-1.50562 3.37127,-3.36803 0,-1.85922 -1.51044,-3.36806 -3.37127,-3.36806 z m 52.4695,-52.30946 c -1.85763,-0.03199 -3.38565,1.45601 -3.41446,3.32805 -0.024,1.85603 1.46082,3.39203 3.32324,3.40803 1.86083,0.032 3.38884,-1.45602 3.41764,-3.31204 0.0224,-1.87202 -1.46561,-3.39204 -3.32642,-3.42404 z M 121.36566,50.45753 c -0.34881,3.05604 4.89125,0.99202 4.89125,0.99202 -2.46884,1.18403 -3.12324,4.24005 -0.67841,4.57605 2.44483,0.33602 5.60328,-6.6561 5.60328,-6.6561 -2.44803,-0.04797 -9.46414,-1.96801 -9.81612,1.08803 z m 6.98248,-17.66423 c 0.33761,3.13604 6.09287,2.22403 6.09287,2.22403 -2.37921,-5.24804 -6.32646,-4.38404 -6.09287,-2.22403 z m 14.39058,22.5443 c 10.48334,-5.05606 19.93625,-2.17602 19.93625,-2.17602 l 2.43044,0.576 c -0.168,-0.11202 -0.3344,-0.20801 -0.5152,-0.33601 -1.87044,-0.91201 -3.54565,-1.88804 -5.04167,-2.86405 -2.16162,-1.10399 -4.53606,-2.12802 -6.90569,-2.80003 -2.03361,-0.56 -6.20807,-1.03999 -10.44491,-0.48 1.1392,4.91208 0.54078,8.08011 0.54078,8.08011 z m 6.33289,-38.7205 c -1.47362,-1.96802 -3.83527,0.06399 -3.68965,2.80003 0,0 -0.7056,-5.58406 -3.21605,-3.80803 -2.51203,1.79201 2.56163,7.00807 3.77127,9.13611 0,0 4.61604,-6.14407 3.13443,-8.12811 z m -1.99204,18.06424 c -5.68007,1.88801 -9.89611,1.296 -9.89611,1.296 2.28003,3.42406 3.66884,6.60809 4.50566,9.37613 3.37283,-0.51201 7.55688,-0.59201 12.56335,0.96001 -4.16485,-4.06404 -6.07368,-8.2081 -7.1729,-11.63214 z m 9.48973,-5.24807 c -2.63043,2.12803 -5.24487,3.56804 -7.67051,4.56006 1.47523,4.57604 4.30406,8.6561 5.9601,10.33614 1.68643,1.712 3.66723,3.26402 5.62567,4.60805 1.56001,0.83201 3.18722,1.824 4.87846,3.00802 0.1568,0.08002 0.30879,0.17601 0.4592,0.25601 C 156.1389,41.94543 156.5693,29.43327 156.5693,29.43327 Z m 36.38767,170.49819 c 2.14403,2.45123 5.31206,2.47203 7.0401,0 2.14722,-3.06082 -0.91843,-7.6577 -8.88011,-7.9601 0,0 -0.30722,5.51047 1.84001,7.9601 z m -41.65173,-4.59206 c 5.14406,6.38248 12.20015,4.95688 18.61783,2.16643 4.14566,-5.06246 2.40005,-9.77931 1.59363,-11.65935 -2.21444,-5.16966 -8.57612,-3.37125 -8.57612,-3.37125 4.59366,0.61442 6.4305,6.73769 4.59366,9.49613 -1.83682,2.75682 -9.18571,3.36644 -10.10573,-3.06564 -0.91841,-6.43049 3.06244,-7.9617 5.20647,-8.5761 2.14402,-0.60802 7.9617,-1.22403 10.71854,4.90085 2.19682,4.88487 0.4992,9.00653 -0.66561,10.98414 2.10562,-1.04001 4.10245,-2.13122 5.87207,-3.01922 6.12488,-3.06566 11.33136,-3.06566 11.33136,-3.06566 0,0 -0.22882,-5.50566 2.91843,-11.59215 0.91041,-1.7568 2.02723,-3.73604 3.10084,-5.82887 -1.99362,1.1376 -6.13928,2.78084 -10.99055,0.51519 -6.08807,-2.84002 -5.39525,-8.6497 -4.75365,-10.78413 0.64,-2.13441 2.22722,-6.09607 8.64652,-5.08805 6.41607,1.00799 5.70405,8.3441 2.92483,10.14894 -2.78084,1.79521 -8.88171,-0.1232 -9.43533,-4.72649 0,0 -1.88321,6.3345 3.25444,8.62093 1.87203,0.8352 6.56648,2.64163 11.67854,-1.43201 2.88166,-6.3793 4.40167,-13.41619 -1.91041,-18.64826 -5.81127,-4.81926 -16.2722,-4.29124 -22.48828,-3.43203 -11.74897,4.95366 -19.99865,5.96006 -19.99865,5.96006 0,0 -1.00163,9.28971 -4.61288,18.66904 -0.96642,6.16489 -1.73441,16.85623 3.08005,22.8275 z m 10.18893,-10.81294 c -1.69122,0.57602 -2.52322,2.61923 -1.85762,4.56645 0.66399,1.94725 2.56963,3.05286 4.26083,2.48004 1.69283,-0.57919 2.52486,-2.62243 1.85924,-4.56805 -0.6624,-1.94722 -2.57124,-3.05605 -4.26245,-2.47844 z m 22.8819,-23.1731 c -0.6048,1.68644 0.47999,3.61125 2.42082,4.29926 1.93443,0.69282 3.99205,-0.1136 4.59207,-1.79683 0.59999,-1.68001 -0.48321,-3.60323 -2.42246,-4.29445 -1.93441,-0.69279 -3.99043,0.112 -4.59043,1.79202 z m -43.48377,19.89786 c 8.26891,-11.63695 9.49453,-26.94916 9.49453,-26.94916 0,0 -5.97768,0.4928 -14.00979,-1.91841 1.41123,11.74893 -2.30882,25.44673 -17.24023,37.7573 6.4225,1.0288 15.44022,0 21.75549,-8.88973 z m -37.66768,-10.71854 c -1.04002,4.30407 -0.1856,7.80811 1.51201,10.58574 3.37604,-2.14084 6.06409,-4.97288 8.21292,-8.13132 -0.93441,-0.7776 -1.68164,-1.8944 -2.06885,-3.37283 -1.5312,-5.82086 5.20647,-7.04647 5.20647,-7.04647 -3.06244,-2.14246 -10.72012,-0.91684 -12.86255,7.96488 z m 13.16976,-5.81927 c -2.03043,0 -3.67684,1.64642 -3.67684,3.67686 0,2.02721 1.64641,3.67523 3.67684,3.67523 2.02724,0 3.67364,-1.64802 3.67364,-3.67523 0,-2.03044 -1.6464,-3.67686 -3.67364,-3.67686 z m 4.28805,-2.61444 c 2.38404,2.55683 2.69284,6.29288 1.22243,9.04653 -1.40321,2.62882 -4.30566,3.64645 -6.8241,2.95043 -2.65283,3.81125 -5.77767,6.65128 -9.13932,8.72171 2.08323,2.55202 4.83046,4.35045 7.08329,5.47687 0.86402,0.43201 2.02083,0.87682 3.37764,1.25282 13.35379,-10.16813 18.74105,-25.05473 17.75223,-36.16366 -0.056,-0.61281 -0.12959,-1.20322 -0.20477,-1.79683 -3.38085,-1.21602 -7.03211,-2.96323 -10.70096,-5.45287 -0.3184,6.13767 -1.2176,11.42734 -2.56644,15.965 z m -4.59526,-26.78275 c 5.13288,6.05768 11.37456,9.87055 17.19382,12.27857 -2.24321,-10.46573 -7.79369,-17.43062 -15.35698,-22.38749 -3.02405,-1.97762 -6.96809,-3.42405 -11.19375,-4.03845 1.98404,4.16005 4.94247,8.93612 9.35691,14.14737 z m -15.61938,-39.5141 c -2.20004,0 -3.97926,1.79203 -3.97926,3.98406 0,2.20802 1.77922,3.98405 3.97926,3.98405 1.63362,0 3.03682,-0.99202 3.64964,-2.40003 0.0112,-0.032 0.024,-0.064 0.0352,-0.08 0.0304,-0.08 0.0448,-0.15998 0.0688,-0.23999 0.11041,-0.36802 0.1936,-0.78402 0.2256,-1.26401 0,-2.19203 -1.78082,-3.98406 -3.97923,-3.98406 z m 18.91704,8.83211 c -6.03369,-2.59204 -10.51694,-3.02403 -12.75055,-3.02403 -0.56162,1.90402 -1.98084,3.44003 -3.81287,4.16005 -0.0448,2.16002 0.2592,6.73608 2.83685,12.99377 6.70887,0.8304 13.39694,3.86565 18.69784,8.8945 4.55204,4.31847 9.38091,11.85295 11.36814,20.87068 8.78571,3.13924 16.0418,3.16965 16.0418,3.16965 0,0 0.04,-7.54411 -3.07045,-16.61622 -8.97451,-2.11524 -16.42419,-7.03688 -20.67226,-11.64334 -4.95526,-5.36487 -7.89609,-12.10097 -8.6385,-18.80506 z m 16.40822,10.64014 c -5.15047,-4.48006 -9.88334,-7.50409 -14.01619,-9.53613 0.55682,4.22406 1.94884,8.19212 3.88644,11.23216 4.84007,7.62408 11.72015,13.26417 22.12349,15.65619 -2.34563,-5.89125 -6.06728,-12.18094 -11.99374,-17.35222 z m 35.38925,-12.36815 c -8.91053,2.01602 -10.24173,9.64813 -8.13771,12.75215 0,0 1.31841,-6.72007 7.11528,-5.12007 1.47523,0.416 2.58404,1.18402 3.35046,2.12804 3.17764,-2.08002 6.04005,-4.73607 8.23689,-8.11211 -2.75363,-1.72801 -6.24487,-2.64001 -10.56492,-1.64801 z m -5.99848,13.08816 c -0.0272,2.01601 1.59522,3.68804 3.62244,3.71845 2.03044,0.0272 3.69606,-1.59043 3.72485,-3.62243 0.032,-2.03205 -1.59361,-3.69607 -3.62086,-3.72806 -2.02881,-0.032 -3.69763,1.60003 -3.72643,3.63204 z m 23.6259,-3.05603 c -1.128,-2.32003 -2.95364,-5.18408 -5.59367,-7.32811 -2.11363,3.32806 -4.95686,6.43209 -8.6817,9.05613 0.74399,2.56003 -0.29442,5.52806 -2.99686,6.92169 -2.74402,1.41762 -6.43208,1.07359 -8.95532,-1.28162 -4.58405,1.3584 -9.90572,2.21443 -16.0594,2.41602 2.29284,3.60165 3.88646,7.2129 4.98567,10.60174 0.69121,0.0992 1.38402,0.192 2.10403,0.26561 11.09293,1.13921 26.04993,-4.04165 36.40366,-17.25943 -0.36,-1.36001 -0.7872,-2.51204 -1.20641,-3.39203 z m 1.76003,6.14246 c -12.63858,14.9106 -26.53797,18.36185 -38.3445,16.67383 2.31201,8.6401 1.52802,15.253 1.52802,15.253 0,0 15.87861,-2.19044 27.62915,-10.29614 8.97772,-6.1937 10.13134,-15.1954 9.18733,-21.63069 z"
                 style="fill:#000000;fill-opacity:1;fill-rule:nonzero;stroke:#000000;stroke-width:0.3985;stroke-linecap:butt;stroke-linejoin:miter;stroke-miterlimit:10;stroke-dasharray:none;stroke-opacity:1"
                 id="path26" /></g></g></g></g></g></g></svg>
