<?xml version="1.0" encoding="UTF-8" standalone="no"?>
<svg
   xmlns:dc="http://purl.org/dc/elements/1.1/"
   xmlns:cc="http://creativecommons.org/ns#"
   xmlns:rdf="http://www.w3.org/1999/02/22-rdf-syntax-ns#"
   xmlns:svg="http://www.w3.org/2000/svg"
   xmlns="http://www.w3.org/2000/svg"
   xmlns:sodipodi="http://sodipodi.sourceforge.net/DTD/sodipodi-0.dtd"
   xmlns:inkscape="http://www.inkscape.org/namespaces/inkscape"
   version="1.1"
   id="svg2"
   xml:space="preserve"
   width="19.727825"
   height="78.280602"
   viewBox="0 0 19.727825 78.280602"
   sodipodi:docname="vectorian112.pdf"><metadata
     id="metadata8"><rdf:RDF><cc:Work
         rdf:about=""><dc:format>image/svg+xml</dc:format><dc:type
           rdf:resource="http://purl.org/dc/dcmitype/StillImage" /></cc:Work></rdf:RDF></metadata><defs
     id="defs6"><clipPath
       clipPathUnits="userSpaceOnUse"
       id="clipPath32"><path
         d="M 0,0 H 14.59608 V 58.71045 H 0 Z"
         id="path30" /></clipPath></defs><sodipodi:namedview
     pagecolor="#ffffff"
     bordercolor="#666666"
     borderopacity="1"
     objecttolerance="10"
     gridtolerance="10"
     guidetolerance="10"
     inkscape:pageopacity="0"
     inkscape:pageshadow="2"
     inkscape:window-width="640"
     inkscape:window-height="480"
     id="namedview4" /><g
     id="g10"
     inkscape:groupmode="layer"
     inkscape:label="vectorian112"
     transform="matrix(1.3333333,0,0,-1.3333333,-0.94428023,78.280598)"><g
       id="g12"
       transform="translate(72,-13.29)"><g
         id="g14"
         transform="translate(-71.092,13.29)"><g
           id="g16"><g
             id="g18"><path
               d="m 5.14734,29.46626 c 0,0 0.29581,1.77172 0.73912,1.91994 0.4426,0.14758 1.04431,0.1585 1.10782,-0.66452 0.07379,-0.95972 -0.88591,-1.69803 -1.84694,-1.25542 m 0.88801,2.51073 c -1.0328,-0.41249 -1.3305,-2.14122 -1.3305,-2.14122 -2.06752,1.47673 -4.72653,8.1976 -3.39745,15.87752 1.32993,7.68059 5.16986,9.0842 5.16986,9.0842 -0.5171,0 -0.36889,0.14689 -0.36889,0.14689 0,0 -1.74103,-0.15368 -3.84055,-3.91374 C -0.9076,45.34447 -0.16989,39.14061 1.0117,35.07863 c 1.18161,-4.06125 3.76755,-5.83508 3.76755,-5.83508 0,0 -0.444,-0.51569 -0.37021,-3.39663 0.07381,-2.88034 -0.59012,-7.82811 -0.59012,-7.82811 0.96033,1.40363 1.25544,11.07795 1.25544,11.07795 0,0 1.69792,-0.4016 2.28872,1.0341 0.51711,1.25534 -0.5908,2.14195 -1.32773,1.84613"
               style="fill:#000000;fill-opacity:1;fill-rule:nonzero;stroke:#000000;stroke-width:0.3985;stroke-linecap:butt;stroke-linejoin:miter;stroke-miterlimit:10;stroke-dasharray:none;stroke-opacity:1"
               id="path20" /><path
               d="m 4.70485,13.80936 c -0.29581,-0.73841 -1.18172,0.22191 -0.51711,1.55113 0,0 0.81421,-0.81281 0.51711,-1.55113 M 0.8642,15.43358 c -0.33202,0.79912 1.99441,0.59082 1.99441,0.59082 0,0 -1.62421,-1.47672 -1.99441,-0.59082 m 6.49957,1.18162 c -1.5511,1.32982 -3.24913,-0.5164 -3.24913,-0.5164 0,0 -0.81281,0.7384 -2.28944,0.7384 -1.47672,0 -1.84688,-1.77182 -0.5908,-1.92001 1.25532,-0.14752 2.06743,1.10721 2.06743,1.10721 0.444,-0.0724 0.51709,-0.22131 0.51709,-0.22131 -1.1809,-2.21434 0.73763,-3.17473 1.25472,-2.14193 0.51631,1.0347 -0.73839,1.99442 -0.73839,1.99442 1.62491,1.62422 2.80652,0.66521 2.80652,0.29642 0,-0.37021 -0.81271,-0.22202 -0.81271,-0.22202 2.06954,-0.59149 1.03471,0.88522 1.03471,0.88522"
               style="fill:#000000;fill-opacity:1;fill-rule:nonzero;stroke:#000000;stroke-width:0.3985;stroke-linecap:butt;stroke-linejoin:miter;stroke-miterlimit:10;stroke-dasharray:none;stroke-opacity:1"
               id="path22" /><path
               d="m 7.21558,16.32079 c 0,0 1.03412,-0.1482 0.66461,1.10792 -0.36951,1.25533 -1.55113,4.43005 -1.10791,6.86839 0.4433,2.43631 1.40291,1.54982 1.77182,0.5902 0.36949,-0.9597 0.73901,-2.73213 0.0751,-3.10092 -0.6659,-0.36953 -1.0341,1.2547 -1.0341,1.2547 0,0 -0.07442,-1.62423 0.81279,-1.84693 C 9.28311,20.97426 9.57951,22.59778 9.4306,23.9276 9.28311,25.25752 8.5441,26.73341 7.51068,26.43842 6.47726,26.14333 5.07364,23.6312 7.28938,17.723 c 0,0 0.51632,-1.4766 -0.0738,-1.40221"
               style="fill:#000000;fill-opacity:1;fill-rule:nonzero;stroke:#000000;stroke-width:0.3985;stroke-linecap:butt;stroke-linejoin:miter;stroke-miterlimit:10;stroke-dasharray:none;stroke-opacity:1"
               id="path24" /><path
               d="m 8.98729,15.28539 c -0.8114,0 -0.29499,1.0354 0.44331,1.0354 h 0.73842 c 0,0 -0.36891,-1.0354 -1.18173,-1.0354 m 3.76767,1.70002 c -0.44333,0.29439 -0.73772,1.40221 -0.73772,1.40221 0.4412,2.06824 0.2199,2.58594 0.2199,2.58594 -0.2199,-0.22272 -0.5894,-0.0745 -0.5894,-0.0745 l -0.07511,-1.10711 c -0.73771,2.28883 -0.2951,3.91304 -0.2951,3.91304 -0.36951,-0.07379 -0.5157,0.51699 -0.5157,0.51699 -0.37023,-4.43003 1.69661,-7.45858 1.69661,-7.45858 L 11.57263,16.32079 10.61362,16.7634 C 11.27753,26.21642 8.3986,28.28394 7.9533,28.35776 7.58989,28.41914 6.03535,28.87477 5.36867,24.37021 4.62695,19.33842 5.66516,16.91162 5.66516,16.91162 c -0.88591,9.1566 1.25542,11.07793 1.91994,11.07793 0.6646,0 1.8455,-0.66521 2.5101,-4.87535 0.66663,-4.20957 0.14822,-6.20258 0.14822,-6.20258 -2.21502,0.14749 -2.29012,-1.99443 -1.25613,-1.99443 1.03412,0 1.55193,1.32851 1.55193,1.32851 0.3688,-0.07311 1.84552,-1.32851 1.25471,-1.84622 -0.59149,-0.51642 -1.25471,0.1482 -1.25471,0.1482 0.2957,-0.88652 1.62423,-0.88652 1.69792,0.07448 0.07449,0.95963 -0.5163,1.25534 -0.5163,1.25534 l 0.6639,0.44329 c 0.29501,-0.44329 0.74031,-0.5177 0.74031,-0.5177 -0.37009,0.29501 -0.37009,0.5177 -0.37009,0.5177 0.8107,0.36821 1.25531,-0.07509 1.18089,-0.44329 -0.07379,-0.36952 -0.88589,-0.51771 -0.88589,-0.51771 0.96031,-0.51702 1.32921,0.4433 1.32921,0.4433 -0.1469,1.47671 -1.62421,1.18232 -1.62421,1.18232"
               style="fill:#000000;fill-opacity:1;fill-rule:nonzero;stroke:#000000;stroke-width:0.3985;stroke-linecap:butt;stroke-linejoin:miter;stroke-miterlimit:10;stroke-dasharray:none;stroke-opacity:1"
               id="path26" /><g
               id="g28"
               clip-path="url(#clipPath32)"><path
                 d="m 8.2497,52.65488 c -0.81212,0 -1.03412,1.10778 0.9596,0.59219 0,0 -0.1482,-0.59219 -0.9596,-0.59219 m -1.03412,3.25053 c 0,0 -1.47731,1.77242 -0.295,2.28873 1.18089,0.51709 0.81142,-2.28873 0.295,-2.28873 M 9.654,53.32018 c 0.4412,0.73831 -0.2234,1.4029 -0.81281,1.69792 -0.59149,0.29579 -1.03479,0.739 -1.03479,0.739 1.10789,1.92073 -0.36882,2.95413 -0.88582,2.95413 -0.51712,0 -1.33063,-0.59149 -0.88523,-1.91931 0.44191,-1.33052 1.77105,-1.91991 2.50943,-2.21643 0.73903,-0.295 0.66452,-1.03411 0.66452,-1.03411 -2.43702,0.51711 -2.14123,-0.8865 -1.256,-1.18092 0.88789,-0.2957 1.03399,0.5901 1.62621,0.5164 0.59011,-0.07449 0.81209,-1.2554 0.81209,-1.2554 -1.55041,1.2554 -3.10153,0.22198 -3.84064,-1.91933 -0.73829,-2.14334 0.51711,-4.50654 0.51711,-4.50654 l 0.51703,0.07377 c -1.69864,2.73203 -0.66452,5.90879 0.6646,6.27759 1.32981,0.3696 2.43702,-0.81142 2.43702,-0.81142 0.36881,2.21503 -1.03272,2.58465 -1.03272,2.58465"
                 style="fill:#000000;fill-opacity:1;fill-rule:nonzero;stroke:#000000;stroke-width:0.3985;stroke-linecap:butt;stroke-linejoin:miter;stroke-miterlimit:10;stroke-dasharray:none;stroke-opacity:1"
                 id="path34" /><path
                 d="m 11.94275,25.47742 c -0.59212,-0.95902 -0.37012,1.84692 -0.37012,2.29013 0,0 0.95961,-1.32913 0.37012,-2.29013 m -1.55115,4.21014 c 0,0 -1.0627,-0.2999 -0.961,0.81212 0.07521,0.81282 1.25612,0.222 1.25612,0.222 z m -0.4433,2.58525 c 0,0 -2.88092,-1.03483 -4.21003,4.20874 -1.32923,5.24358 1.4042,8.04939 1.4042,8.04939 l 1.25613,-1.9186 c 0,0 -1.47872,-0.59081 -1.18302,-3.76755 C 7.622,34.47693 9.4306,34.34033 9.4306,34.34033 7.65889,36.03894 7.21558,39.8052 7.732,40.98611 c 0.5177,1.18232 1.0347,1.10781 1.0347,1.10781 0,0 2.21502,-5.09526 2.43574,-7.31098 C 11.42502,32.5679 9.9483,32.27281 9.9483,32.27281 m 1.55053,6.49828 c 0.44392,-2.65834 0.0738,-4.43076 0.0738,-4.43076 0,0 -0.66531,5.09597 -2.21512,7.53299 0,0 1.69802,-0.44321 2.14132,-3.10223 m 2.21504,-16.61592 c -1.69731,1.47603 -1.25543,2.58452 -1.25543,4.35637 0,1.7724 -1.03342,1.9206 -1.03342,1.9206 -0.22258,-0.5177 -0.66319,-0.36949 -0.66319,-0.36949 0,1.40361 0.44061,2.88033 0.66319,3.54425 0.22201,0.66591 0,1.10921 0,1.10921 0.59154,1.18092 1.40294,3.83994 0.22201,7.08909 -1.18231,3.24975 -2.80584,2.95473 -2.80584,2.95473 L 7.5851,44.67987 c 1.1072,0.2213 4.79893,-0.51703 5.61235,-4.87467 0.81282,-4.35706 0.29582,-7.3118 0.0731,-11.07734 -0.22059,-3.76686 0.51781,-5.76128 0.51781,-5.76128 0,0 -0.07449,2.80584 0.22191,5.53937 0.29579,2.73203 1.40291,8.86223 -0.517,12.62837 -1.92064,3.76685 -4.21016,4.21015 -5.98259,3.84134 -1.77241,-0.37019 -3.24983,-3.47113 -2.50941,-7.3125 0.737,-3.83993 2.21431,-5.31724 3.69103,-5.90806 1.47672,-0.59082 2.28942,0.66452 2.28942,0.66452 0.4433,0 -0.0744,-1.40294 -0.0744,-1.40294 -0.7383,0.36891 -1.84622,0.44331 -1.84622,-0.7383 0,-1.18162 1.47812,-0.96103 1.47812,-0.96103 -0.2958,-1.03341 -0.0745,-2.28882 -0.0745,-2.28882 l 0.66532,0.6646 c -0.59082,-2.65833 1.18159,-5.02156 1.18159,-5.02156 l -0.29507,-0.59079 h 0.5901 c 1.10721,-1.47673 1.92003,-1.69872 1.92003,-1.69872 0,0.7383 -0.66463,2.21572 -0.66463,2.21572 z"
                 style="fill:#000000;fill-opacity:1;fill-rule:nonzero;stroke:#000000;stroke-width:0.3985;stroke-linecap:butt;stroke-linejoin:miter;stroke-miterlimit:10;stroke-dasharray:none;stroke-opacity:1"
                 id="path36" /><path
                 d="m 11.49883,0.5901 c -0.81141,0 -1.77242,5.76065 -1.10723,11.07793 0,0 0.81084,-1.33051 1.62564,-5.68687 C 12.82796,1.62422 12.31163,0.5901 11.49883,0.5901 M 9.06181,4.50314 C 9.1356,0.44258 7.88019,-0.07439 6.92058,3.47043 c -0.95972,3.54484 0.4425,8.7877 1.10782,9.74742 0,0 0.95889,-4.65135 1.03341,-8.71471 m 3.54485,2.43842 c -0.66391,3.32286 -1.99304,5.6124 -1.99304,5.6124 l 0.0738,1.1072 -0.29582,0.44321 -0.07439,-1.18092 C 9.50581,14.03127 8.4717,13.80936 8.4717,13.80936 L 7.88019,15.28598 7.8064,14.91788 8.10147,13.80936 C 5.36867,11.00343 5.66516,1.8462 7.732,0.5901 8.4683,0.14339 9.50581,-0.37018 9.4313,4.57825 9.35751,9.52611 8.3241,13.36674 8.3241,13.36674 9.28381,13.80936 10.16962,12.55396 10.16962,12.55396 9.4313,5.83366 10.16962,0 11.64774,0 c 1.47731,0 1.62352,3.61794 0.95892,6.94156"
                 style="fill:#000000;fill-opacity:1;fill-rule:nonzero;stroke:#000000;stroke-width:0.3985;stroke-linecap:butt;stroke-linejoin:miter;stroke-miterlimit:10;stroke-dasharray:none;stroke-opacity:1"
                 id="path38" /></g></g></g></g></g></g></svg>
