<?xml version="1.0" encoding="UTF-8" standalone="no"?>
<svg
   xmlns:dc="http://purl.org/dc/elements/1.1/"
   xmlns:cc="http://creativecommons.org/ns#"
   xmlns:rdf="http://www.w3.org/1999/02/22-rdf-syntax-ns#"
   xmlns:svg="http://www.w3.org/2000/svg"
   xmlns="http://www.w3.org/2000/svg"
   xmlns:sodipodi="http://sodipodi.sourceforge.net/DTD/sodipodi-0.dtd"
   xmlns:inkscape="http://www.inkscape.org/namespaces/inkscape"
   version="1.1"
   id="svg2"
   xml:space="preserve"
   width="107.61607"
   height="107.89207"
   viewBox="0 0 107.61608 107.89207"
   sodipodi:docname="vectorian019.pdf"><metadata
     id="metadata8"><rdf:RDF><cc:Work
         rdf:about=""><dc:format>image/svg+xml</dc:format><dc:type
           rdf:resource="http://purl.org/dc/dcmitype/StillImage" /></cc:Work></rdf:RDF></metadata><defs
     id="defs6"><clipPath
       clipPathUnits="userSpaceOnUse"
       id="clipPath24"><path
         d="M 0,0 H 81.00102 V 81.00102 H 0 Z"
         id="path22" /></clipPath></defs><sodipodi:namedview
     pagecolor="#ffffff"
     bordercolor="#666666"
     borderopacity="1"
     objecttolerance="10"
     gridtolerance="10"
     guidetolerance="10"
     inkscape:pageopacity="0"
     inkscape:pageshadow="2"
     inkscape:window-width="640"
     inkscape:window-height="480"
     id="namedview4" /><g
     id="g10"
     inkscape:groupmode="layer"
     inkscape:label="vectorian019"
     transform="matrix(1.3333333,0,0,-1.3333333,0,107.89207)"><g
       id="g12"
       transform="translate(72,9)"><g
         id="g14"
         transform="translate(-72,-9)"><g
           id="g16"><g
             id="g18"><g
               id="g20"
               clip-path="url(#clipPath24)"><path
                 d="m 80.39943,43.51033 c 0.76959,2.25446 -2.60805,4.43527 -2.60805,4.43527 0,0 3.17125,4.89925 -0.86241,6.48169 -4.03206,1.57921 -5.38887,-3.63365 -5.38887,-3.63365 0,0 -2.15681,2.18404 -4.70564,-0.0064 -2.55043,-2.18244 0.0096,-5.31688 0.0096,-5.31688 0,0 -3.71047,-1.62563 -2.62246,-4.61925 0.95362,-2.61604 4.00966,-2.94084 4.76007,-2.98085 -2.29762,-4.05925 -2.40004,-8.87853 -2.30723,-11.07214 -1.89124,1.80642 -4.01445,3.62245 -6.36807,5.43207 -1.62244,1.50242 -2.89124,3.71844 -3.96006,6.28008 -2.42724,8.68491 4.24166,13.60817 4.24166,13.60817 l -0.6048,1.08962 c -4.14566,-3.18884 -5.7713,-6.56328 -6.1089,-7.3409 -0.5584,4.42566 -0.0736,10.06255 2.47525,14.24179 2.36641,3.88324 5.31686,5.31848 6.49608,5.75847 0.4608,-2.75363 2.79202,-4.54085 5.54727,-4.19046 2.84485,0.36002 3.02563,3.90087 3.02563,3.90087 0,0 3.81926,-1.45763 5.77448,0.4496 1.95683,1.90563 -0.3472,5.90408 -0.3472,5.90408 0,0 5.77927,3.35362 2.49284,7.08009 -3.28166,3.72644 -7.37611,-0.90081 -7.37611,-0.90081 0,0 -1.06081,3.36324 -4.79366,2.45602 -3.73286,-0.90239 -2.76004,-5.44646 -2.76004,-5.44646 0,0 -4.62085,0.27838 -5.06726,-3.35365 -0.30081,-2.44963 1.37441,-4.15206 2.49762,-5.00806 -7.8273,-3.36644 -9.89932,-10.02574 -10.41453,-12.54896 -0.1312,0.40161 -0.2672,0.79519 -0.4032,1.17601 -2.13764,5.94728 -5.83368,9.38733 -7.4401,10.67215 2.02564,1.3168 2.83684,3.75363 1.88324,6.06886 -1.09283,2.65123 -4.55848,1.90082 -4.55848,1.90082 0,0 0.40962,4.06566 -1.94402,5.45608 -2.34884,1.39041 -5.60648,-1.87841 -5.60648,-1.87841 0,0 -4.74725,4.69924 -7.48808,0.55679 -2.73605,-4.14405 2.79843,-6.88489 2.79843,-6.88489 0,0 -2.96644,-1.90404 -1.12002,-5.26888 1.85124,-3.36802 5.98088,-1.24162 5.98088,-1.24162 0,0 0.93922,-4.53123 4.56326,-4.01442 2.53284,0.3616 3.73764,2.56802 4.23526,3.86403 6.88968,-6.13927 7.5409,-12.22736 9.78412,-20.85306 1.08162,-4.15525 2.19043,-6.51848 3.06244,-7.85611 -4.53445,3.03044 -8.43849,5.09928 -11.99853,6.79529 l -0.02401,0.06241 c -6.4465,3.08644 -6.9937,8.1729 -4.99366,10.17133 1.99681,1.99683 4.99366,1.81602 4.99366,1.81602 l -0.0896,0.90881 c 0,0 -4.63208,0.63521 -6.81129,-2.72483 -1.76964,-2.72484 -1.26723,-5.44647 -0.88802,-6.6753 -2.96005,1.36643 -5.82408,2.80965 -8.81132,4.80007 -7.0017,4.66886 -9.88332,9.19052 -10.86574,11.09294 2.51204,0.63681 4.09447,2.91684 3.76007,5.58409 -0.36162,2.90723 -3.90407,3.08963 -3.90407,3.08963 0,0 1.45444,3.90564 -0.45601,5.90408 -1.90562,1.99843 -5.90086,-0.3632 -5.90086,-0.3632 0,0 -3.36165,5.90407 -7.0849,2.54242 -3.72481,-3.35843 0.90723,-7.5377 0.90723,-7.5377 0,0 -3.36004,-1.0912 -2.45285,-4.90566 0.91041,-3.81444 5.44967,-2.81603 5.44967,-2.81603 0,0 -0.2704,-4.72166 3.36325,-5.17447 2.71523,-0.3408 4.51844,1.80802 5.25286,2.91204 C 18.49623,53.03368 26.80034,48.3088 35.17964,44.19516 34.63562,44.11995 32.78601,43.75195 31.25319,42.21753 29.43555,40.4031 29.61797,38.4047 29.61797,38.4047 l 1.17921,-0.18243 c 0,0 0.81761,3.17925 4.90566,3.36005 3.01605,0.13442 5.03688,-0.27681 5.89448,-0.49921 2.53923,-1.25121 4.97606,-2.51843 7.1713,-3.89444 2.69764,-1.68643 5.20645,-3.40324 7.5409,-5.14407 -0.0704,0.0288 -0.13282,0.0624 -0.20162,0.0912 -6.29767,2.66404 -16.71221,0.96961 -26.52033,-0.1184 -6.9953,-0.77921 -10.83534,0.2864 -12.47215,0.96481 2.12481,1.17122 3.03363,3.58404 2.11841,5.89927 -1.00321,2.53444 -4.29445,1.86882 -4.29445,1.86882 0,0 0.43521,3.86567 -1.77603,5.21927 -2.20963,1.35683 -5.32965,-1.70881 -5.32965,-1.70881 0,0 -4.44327,4.53766 -7.0865,0.63521 -2.64161,-3.90406 2.56963,-6.58889 2.56963,-6.58889 0,0 -2.83203,-1.76962 -1.12003,-4.99847 1.71203,-3.22882 5.6497,-1.26401 5.6497,-1.26401 0,0 0.83679,-4.32165 4.27363,-3.88327 2.48485,0.32002 3.64807,2.53606 4.10245,3.73927 4.32007,-2.88165 9.12652,-2.67044 9.12652,-2.67044 C 20.12665,25.83492 16.04338,21.39166 14.15215,19.15002 12.96976,20.64766 11.02734,21.28766 9.0561,20.67645 6.45287,19.87004 6.86728,16.5388 6.86728,16.5388 c 0,0 -3.82086,0.72159 -5.33768,-1.37764 -1.52162,-2.10081 1.30242,-5.44804 1.30242,-5.44804 0,0 -4.85924,-4.08485 -1.1664,-7.0161 3.69124,-2.92641 6.76168,2.06723 6.76168,2.06723 0,0 1.55201,-2.95845 4.90086,-1.49441 3.34884,1.4624 1.68322,5.53766 1.68322,5.53766 0,0 4.37606,0.5088 4.19365,3.96965 -0.13279,2.56483 -2.35523,3.89285 -3.49925,4.41127 10.08655,11.31373 20.21947,13.65615 27.96037,13.67216 -5.42886,-4.45445 -6.68168,-9.45291 -6.96969,-11.42094 -1.92162,1.86721 -4.74726,1.89921 -6.65767,0.03679 -1.95523,-1.89922 -0.07361,-4.68166 -0.07361,-4.68166 0,0 -3.73126,-1.088 -4.13286,-3.65125 -0.40161,-2.55842 3.63365,-4.26245 3.63365,-4.26245 0,0 -2.47844,-5.84647 2.14083,-6.78088 4.61766,-0.93439 5.08966,4.90887 5.08966,4.90887 0,0 2.72485,-1.92964 5.04326,0.8928 2.32003,2.82083 -1.00962,5.69607 -1.00962,5.69607 0,0 3.67044,2.44002 1.93764,5.44167 -1.02402,1.77923 -2.88004,2.24484 -4.22725,2.33444 1.14401,6.79208 7.84808,10.14892 10.39212,11.18735 0.68161,-0.07682 1.33441,-0.1568 1.94563,-0.24161 0.71041,-0.0976 1.40482,-0.22722 2.08803,-0.37282 -6.02568,-2.84163 -5.11688,-9.67691 -5.11688,-9.67691 h 1.45282 c -0.19359,7.32808 5.68009,8.3457 7.95692,8.4689 2.92963,-1.02562 5.32166,-2.25442 6.76648,-3.07843 1.11841,-1.05923 2.17122,-2.12803 3.15683,-3.20324 -1.712,-0.056 -5.86726,-0.67841 -7.9601,-5.10408 -0.04959,-0.0048 -0.08479,-0.0112 -0.08479,-0.0112 -1.66884,1.72802 -4.19045,1.78724 -5.88328,0.13922 -1.69443,-1.64484 -0.064,-4.05446 -0.064,-4.05446 0,0 -3.23364,-0.9456 -3.58084,-3.16645 -0.34721,-2.21603 3.14723,-3.69123 3.14723,-3.69123 0,0 -2.14721,-5.06408 1.85922,-5.87688 3.99846,-0.81119 4.40647,4.25285 4.40647,4.25285 0,0 2.36162,-1.67202 4.37286,0.77121 2.00801,2.44803 -0.87841,4.93766 -0.87841,4.93766 0,0 3.18084,2.11523 1.6816,4.71527 -0.82399,1.4304 -2.26881,1.88162 -3.40644,2.00163 1.37602,1.5424 5.03526,4.71045 9.58414,1.20161 0.94881,-1.16322 1.79841,-2.37924 2.55842,-3.60646 C 77.6218,7.23308 75.66016,1.585 75.66016,1.0954 c 0,-0.49442 4.17126,0.368 4.41764,0.7344 0.24482,0.3712 0.60004,2.89444 -2.57922,10.31374 -0.73602,1.71683 -1.69282,3.49446 -2.88643,5.31688 -0.07521,0.856 -0.27841,4.09444 0.87041,6.07848 1.33122,2.30242 3.15044,1.93762 3.15044,1.93762 l 0.24159,1.33439 c -4.79366,-0.09277 -6.14087,-4.16642 -6.51847,-6.22566 -0.65122,0.83521 -1.34722,1.67201 -2.09603,2.51525 l 0.01601,0.07359 c -2.21923,4.89926 -1.12324,11.20494 -0.47842,13.91537 1.48642,-1.44162 3.68325,-1.67042 5.46888,-0.4512 2.07362,1.40961 0.81282,4.22725 0.81282,4.22725 0,0 3.55203,0.39201 4.32005,2.64482 z"
                 style="fill:#000000;fill-opacity:1;fill-rule:nonzero;stroke:#000000;stroke-width:0.3985;stroke-linecap:butt;stroke-linejoin:miter;stroke-miterlimit:10;stroke-dasharray:none;stroke-opacity:1"
                 id="path26" /></g></g></g></g></g></g></svg>
