<?xml version="1.0" encoding="UTF-8" standalone="no"?>
<svg
   xmlns:dc="http://purl.org/dc/elements/1.1/"
   xmlns:cc="http://creativecommons.org/ns#"
   xmlns:rdf="http://www.w3.org/1999/02/22-rdf-syntax-ns#"
   xmlns:svg="http://www.w3.org/2000/svg"
   xmlns="http://www.w3.org/2000/svg"
   xmlns:sodipodi="http://sodipodi.sourceforge.net/DTD/sodipodi-0.dtd"
   xmlns:inkscape="http://www.inkscape.org/namespaces/inkscape"
   version="1.1"
   id="svg2"
   xml:space="preserve"
   width="39.722069"
   height="39.204357"
   viewBox="0 0 39.722069 39.204357"
   sodipodi:docname="vectorian117.pdf"><metadata
     id="metadata8"><rdf:RDF><cc:Work
         rdf:about=""><dc:format>image/svg+xml</dc:format><dc:type
           rdf:resource="http://purl.org/dc/dcmitype/StillImage" /></cc:Work></rdf:RDF></metadata><defs
     id="defs6" /><sodipodi:namedview
     pagecolor="#ffffff"
     bordercolor="#666666"
     borderopacity="1"
     objecttolerance="10"
     gridtolerance="10"
     guidetolerance="10"
     inkscape:pageopacity="0"
     inkscape:pageshadow="2"
     inkscape:window-width="640"
     inkscape:window-height="480"
     id="namedview4" /><g
     id="g10"
     inkscape:groupmode="layer"
     inkscape:label="vectorian117"
     transform="matrix(1.3333333,0,0,-1.3333333,-0.38955711,39.06223)"><g
       id="g12"
       transform="translate(72,-42.559)"><g
         id="g14"
         transform="translate(-71.508,42.652)"><g
           id="g16"><g
             id="g18"><path
               d="m 25.30663,14.33257 c 0,0 -2.06813,-0.69051 -3.49566,-0.59081 -1.42753,0.0984 -2.36332,1.03342 -1.13111,1.32782 1.22871,0.2971 3.59204,0.3941 4.62677,-0.73701 m -1.42813,4.23344 c 0,0 -1.87014,-1.37842 -2.80526,-1.72191 -0.9357,-0.3456 -1.92061,0.34349 -0.4931,1.13112 1.42822,0.78812 2.85636,0.59079 3.29836,0.59079 m -1.42753,3.79207 c 0,0 -0.88591,-1.87143 -1.67411,-2.65964 -0.78751,-0.78751 -2.46022,-1.27933 -2.31414,-0.24591 0.14829,1.03412 3.59415,2.75674 3.98825,2.90555 M 7.3855,22.60399 c 0,0 1.4781,-0.88652 2.7082,-2.21575 1.23012,-1.32911 0.98493,-2.31402 0.099,-1.87141 -0.88649,0.4426 -2.1679,1.23082 -2.8072,4.08716 M 4.53044,19.15683 c 0,0 2.36334,-0.1974 3.98755,-1.03342 1.62492,-0.8367 1.23141,-2.11811 -0.345,-1.57571 -1.57572,0.5416 -3.15074,1.9206 -3.64255,2.60913 m -1.4275,-4.43074 c 0,0 1.91931,0.68909 3.64253,0.68909 1.72333,0 2.56074,-0.19669 2.46163,-0.88591 -0.09829,-0.68911 -3.44654,-0.739 -6.10416,0.19682 m 1.4275,-3.49646 c 0,0 1.72263,1.5265 3.05176,1.87212 1.32991,0.34431 1.92001,-0.0013 1.8701,-0.49241 -0.04709,-0.4918 -1.67273,-1.4275 -4.92186,-1.37971 M 6.64786,6.99628 c 0,0 0.24592,1.32982 1.52513,2.85504 1.27931,1.52722 2.95413,1.62562 2.46164,0.05049 C 10.14291,8.3261 6.64786,6.99628 6.64786,6.99628 M 19.05423,4.23953 c 0,0 -1.42823,0.93512 -2.36323,3.19936 -0.93572,2.26551 0.4433,2.26551 1.03341,1.1823 0.59223,-1.08262 1.18163,-2.90493 1.32982,-4.38166 m 3.24915,2.70685 c 0,0 -2.80585,1.23151 -3.54485,2.70822 -0.73842,1.47733 0.8374,1.32982 2.01833,0 1.18229,-1.3285 1.52652,-2.70822 1.52652,-2.70822 m 2.26562,3.54494 c 0,0 -1.67412,-0.09839 -3.84206,0.73831 -2.16513,0.8381 -0.7588,1.89812 0.39483,1.42963 2.90492,-1.18232 3.44723,-2.16794 3.44723,-2.16794 m 1.37833,0.14891 c 0,0 -1.28133,1.3291 -3.44585,2.31332 -2.16792,0.98491 -3.20206,0 -3.15146,-0.5908 0.04852,-0.59081 1.23012,-2.21505 5.56319,-2.16585 0,0 1.87013,-0.98491 1.87013,-2.56062 0,-1.57572 -1.57573,-1.72332 -3.00255,-1.2793 0,0 -1.13182,2.80652 -2.56003,3.93895 -1.42752,1.1311 -2.65895,1.37631 -2.95474,0.44261 -0.29572,-0.93571 1.0334,-3.19997 4.33316,-4.13568 0,0 1.27932,-1.57512 0.54162,-3.20134 -0.73902,-1.62492 -3.15145,0.04991 -3.15145,0.04991 0,0 0.4426,2.80654 -1.32924,5.21897 -1.61601,2.19932 -2.88781,0.91311 -2.60981,-0.19741 0.19738,-0.78752 0.7889,-3.29834 2.90493,-4.47926 0,0 0.5423,-1.77382 -0.4433,-2.85573 -0.98352,-1.08331 -3.00395,0.88591 -3.15075,1.08191 0,0 0.83731,1.77382 0.5921,3.93895 -0.2479,2.16724 -0.5921,3.29835 -1.52721,3.15084 -0.9357,-0.1462 -1.42822,-3.34684 0.19609,-5.90818 0,0 -0.68849,-2.65834 -1.82103,-2.90422 -1.1317,-0.24521 -1.8714,1.82161 -1.96841,2.75673 0,0 1.67343,1.13312 2.26423,3.69235 0.59011,2.56132 -0.15159,3.10232 -0.83741,3.10232 -0.59011,0 -2.51014,-1.67341 -1.82161,-5.66155 0,0 -1.32912,-1.62493 -3.05243,-1.82163 -1.72394,-0.1981 -1.57575,2.06752 -1.27994,2.75662 0,0 3.39665,0.88591 4.43076,3.39806 1.03402,2.50943 0.2452,2.95204 -1.08402,2.41042 -1.3278,-0.5403 -2.95203,-2.75673 -3.15004,-4.28185 0,0 -1.67412,-0.93581 -3.54425,-0.3456 -1.87011,0.59081 0.196,3.34815 0.196,3.34815 0,0 2.51225,-0.39411 4.67737,0.64 2.16723,1.0354 2.65974,2.51213 1.77383,2.85634 C 9.08899,13.46997 8.64088,13.54237 8.07329,13.46655 7.70789,13.32716 7.30287,13.21036 6.87387,13.13326 6.02286,12.78145 5.00655,12.13734 3.83994,11.03362 c 0,0 -3.05106,-0.4433 -3.39666,0.98422 -0.34359,1.42822 1.52654,2.11732 1.52654,2.11732 0,0 1.13312,-0.8865 3.29832,-1.0825 0.53893,-0.04921 1.08803,-0.013 1.60573,0.0806 0.44611,0.1844 0.84631,0.28681 1.19942,0.33329 0.96652,0.3722 1.63041,0.90631 1.57711,1.30863 -0.09217,0.69061 -3.05313,1.77252 -6.84388,0.14821 0,0 -1.82092,0.54029 -2.36324,1.92071 -0.54167,1.37691 1.62624,2.21503 2.41313,2.21503 0,0 0.98353,-1.28072 2.95334,-2.41313 1.96982,-1.13172 4.03665,-0.7882 4.18488,0.04989 0.14828,0.83672 -1.13103,2.60845 -5.95659,2.75664 0,0 -2.09764,1.52043 -1.62563,3.34687 0.39411,1.52789 3.39734,0.59278 3.39734,0.59278 0,0 0.73842,-3.05374 2.85575,-4.57825 2.11602,-1.52722 2.80653,-0.34563 2.56134,0.39341 -0.24732,0.7377 -1.52724,2.60844 -4.08786,3.88774 0,0 -1.37842,1.72462 -0.73842,3.64395 0.64142,1.92062 3.54497,-0.1967 3.54497,-0.1967 0,0 -0.63932,-1.37973 0.0491,-3.79076 0.68989,-2.41313 1.52591,-3.64393 2.60913,-3.34892 1.0833,0.29579 0.68991,4.13574 -1.87004,6.89377 0,0 0.0478,1.92003 1.08192,2.26494 1.03542,0.34419 2.16783,-1.47814 2.16783,-1.47814 0,0 -0.73902,-2.0661 -0.78681,-3.79072 -0.0519,-1.72193 0.29371,-3.74157 1.13111,-3.93827 0.83672,-0.1974 2.21433,2.51074 0.4917,6.89229 0,0 0.64072,2.21573 1.47743,2.31484 0.8374,0.09829 1.62562,-0.39411 2.21503,-2.41243 0,0 -1.37763,-1.42893 -2.16513,-2.80724 -0.78761,-1.37773 -1.23222,-3.59404 0.0491,-4.03735 1.27932,-0.44191 2.85505,2.36393 2.70752,5.56457 0,0 1.08333,2.1658 2.60985,2.36322 1.52523,0.19611 2.06752,-1.23141 1.476,-2.95473 0,0 -1.72191,-0.5416 -3.74162,-2.41243 -2.01764,-1.87013 -1.57503,-2.80584 -0.88584,-3.19995 0.68914,-0.3934 2.51143,-0.04921 4.28327,3.83995 0,0 2.31332,1.82232 3.59474,1.13242 1.27924,-0.68982 -0.83812,-3.54414 -0.83812,-3.54414 0,0 -2.11671,0 -4.33304,-0.93642 -2.21443,-0.93582 -1.87012,-2.16453 -1.77113,-2.41241 0.0984,-0.24592 1.77113,-1.08263 4.82487,1.82159 0,0 1.67342,0.44392 3.39666,-0.345 1.72401,-0.78819 0.9358,-2.31262 -0.59084,-2.95333 0,0 -2.06812,0.935 -4.52904,0.7875 -2.46164,-0.14679 -2.80594,-0.7383 -2.85574,-1.52591 -0.04991,-0.78751 2.65834,-1.82152 6.10489,-0.1482 0,0 2.1665,-0.34561 2.75662,-1.37762 0.59152,-1.03412 -0.64,-2.51213 -2.65762,-2.36322 M 14.91928,3.79562 c 0,0 -0.83812,0.93503 -0.98561,3.20066 -0.14822,2.26492 0.8858,2.36393 1.18091,1.13171 0.2964,-1.23012 0,-3.54274 -0.1953,-4.33237 m -3.69244,4.82557 c 0.836,1.62493 1.87011,1.13313 1.52452,-0.39339 -0.34361,-1.52735 -2.01764,-3.39736 -2.01764,-3.39736 0,0 -0.34562,2.16584 0.49312,3.79075 m -0.69052,17.13433 c 0,0 1.47732,-1.18172 2.21504,-3.89055 0.73901,-2.70814 -0.77323,-2.42063 -1.27933,-1.1809 -0.44331,1.08191 -1.0341,2.36322 -0.93571,5.07145 m 4.08584,-0.34502 c 0,0 0.54233,-1.18229 0.68982,-2.95402 0.14821,-1.77241 -0.43919,-2.65974 -0.78682,-2.65974 -0.59149,0 -1.13319,2.41253 0.097,5.61376 m 4.13637,-0.8367 c 0,0 -0.19672,-2.85633 -0.68991,-3.88973 -0.4924,-1.03412 -2.13642,-1.83194 -2.06683,0.04777 0.04851,1.33052 2.75674,3.84196 2.75674,3.84196 M 29.39247,12.56013 c 0,1.72263 -2.01764,2.50945 -2.01764,2.50945 0,0 2.55934,1.28131 1.77243,3.00464 -0.78821,1.72252 -3.24914,1.87082 -3.24914,1.87082 1.57512,2.01832 1.67271,3.64384 0.5908,4.28317 -1.08252,0.6407 -2.85634,0.19737 -2.85634,0.19737 0,0 0.73903,2.31345 -0.98361,3.19997 -2.08183,1.07031 -3.93895,-1.18224 -3.93895,-1.18224 -0.9351,2.70885 -2.01902,2.70885 -2.90492,2.46224 -0.88582,-0.2459 -1.72394,-1.52521 -1.72394,-1.52521 -0.4911,0.9351 -1.7232,1.96782 -2.80653,1.42621 -1.08193,-0.541 -1.47602,-1.82161 -1.47602,-1.82161 0,0 -2.21641,1.72391 -3.54554,0.4924 -1.53412,-1.41933 -0.6407,-3.69176 -0.6407,-3.69176 0,0 -3.05176,0.98433 -3.64255,-1.08389 -0.59082,-2.06683 0.88659,-3.34746 0.88659,-3.34746 0,0 -2.90489,-0.4433 -2.85641,-2.31483 0.04918,-1.87013 1.8216,-2.65833 1.8216,-2.65833 0,0 -2.31339,-1.13241 -1.67411,-2.90413 C 0.78888,9.7044 2.56061,9.90181 2.56061,9.90181 1.62491,8.3261 1.2315,6.70045 2.41241,5.86446 3.63503,4.99915 5.80975,5.27295 5.80975,5.27295 c 0,0 -0.88589,-2.90553 0.73842,-3.44715 1.92263,-0.6393 3.98815,1.28063 3.98815,1.28063 0.1974,-1.72323 1.18162,-3.19992 2.46153,-3.10225 1.28073,0.0997 2.31413,1.96983 2.31413,1.96983 0.2957,-0.39341 1.62424,-1.67343 3.05383,-1.37762 1.42743,0.2943 1.67273,2.36253 1.67273,2.36253 0.88652,-0.73901 2.51143,-1.08261 3.39796,0.09902 0.8859,1.18159 0.442,2.95411 0.442,2.95411 0,0 3.20124,-0.8374 3.44714,1.47605 0.1523,1.4343 -0.7383,2.85632 -0.7383,2.85632 0,0 2.80513,0.49182 2.80513,2.21571"
               style="fill:#000000;fill-opacity:1;fill-rule:nonzero;stroke:#000000;stroke-width:0.3985;stroke-linecap:butt;stroke-linejoin:miter;stroke-miterlimit:10;stroke-dasharray:none;stroke-opacity:1"
               id="path20" /></g></g></g></g></g></svg>
