<?xml version="1.0" encoding="UTF-8" standalone="no"?>
<svg
   xmlns:dc="http://purl.org/dc/elements/1.1/"
   xmlns:cc="http://creativecommons.org/ns#"
   xmlns:rdf="http://www.w3.org/1999/02/22-rdf-syntax-ns#"
   xmlns:svg="http://www.w3.org/2000/svg"
   xmlns="http://www.w3.org/2000/svg"
   xmlns:sodipodi="http://sodipodi.sourceforge.net/DTD/sodipodi-0.dtd"
   xmlns:inkscape="http://www.inkscape.org/namespaces/inkscape"
   version="1.1"
   id="svg2"
   xml:space="preserve"
   width="65.826668"
   height="36.893333"
   viewBox="0 0 65.826668 36.893333"
   sodipodi:docname="vectorian183.pdf"><metadata
     id="metadata8"><rdf:RDF><cc:Work
         rdf:about=""><dc:format>image/svg+xml</dc:format><dc:type
           rdf:resource="http://purl.org/dc/dcmitype/StillImage" /></cc:Work></rdf:RDF></metadata><defs
     id="defs6" /><sodipodi:namedview
     pagecolor="#ffffff"
     bordercolor="#666666"
     borderopacity="1"
     objecttolerance="10"
     gridtolerance="10"
     guidetolerance="10"
     inkscape:pageopacity="0"
     inkscape:pageshadow="2"
     inkscape:window-width="640"
     inkscape:window-height="480"
     id="namedview4" /><g
     id="g10"
     inkscape:groupmode="layer"
     inkscape:label="vectorian183"
     transform="matrix(1.3333333,0,0,-1.3333333,0,36.893333)"><g
       id="g12"
       transform="translate(72,-44.332)"><g
         id="g14"
         transform="translate(-71.47,44.75)"><g
           id="g16"><g
             id="g18"><path
               d="m 3.40913,17.85042 c 0,0 0.7602,-1.88104 2.64194,-3.08185 1.8824,-1.2014 3.80444,-0.8018 2.72253,1.03961 -1.0812,1.84273 -3.36186,2.20273 -5.36447,2.04224 m 6.68617,6.64578 c 0,0 -0.43989,-2.20073 0.16053,-4.24295 0.60029,-2.04292 2.72252,-1.84213 3.32284,-0.92212 0.60109,0.92212 -0.20011,3.76415 -3.48337,5.16507 m 10.17014,-0.1994 c 0,0 -0.40091,-3.00264 0.96042,-4.24365 1.36052,-1.24172 2.52162,0.04029 2.04082,1.04161 -0.47949,1.00061 -2.00063,2.44041 -3.00124,3.20204 M 38.72139,14.00706 c 2.16183,-0.48019 2.28343,-3.20274 -0.55931,-3.72254 -2.84413,-0.52181 -5.20467,0.8798 -5.28458,2.84213 -0.082,1.96092 1.84075,3.16305 1.84075,3.16305 -1.64133,0.76021 -3.12278,2.04021 -4.80439,3.92325 -1.6802,1.88242 -3.12283,4.72446 -5.88556,5.28456 -2.76225,0.56082 -3.64326,-0.88181 -3.64326,-0.88181 0,0 1.80243,-1.12011 3.00255,-2.92194 1.2014,-1.80112 -0.92072,-3.40213 -2.48213,-1.92131 -1.56144,1.48071 -0.88112,4.76405 -0.88112,4.76405 -1.24031,1.00133 -3.76274,2.36253 -6.20517,2.16243 -2.44255,-0.20009 -3.60236,-1.88243 -3.60236,-1.88243 7.2858,-3.76415 3.04224,-7.8458 0.71991,-6.28577 C 8.6145,20.09344 9.7353,24.5775 9.7353,24.5775 8.25389,25.018 4.93094,25.21683 3.48973,22.89517 2.04791,20.57294 3.25003,18.17072 3.25003,18.17072 4.64955,18.37152 6.69388,18.25063 8.05309,17.04991 9.4157,15.84778 10.53653,13.40735 7.5736,13.72627 4.61125,14.04666 3.04922,17.81012 3.04922,17.81012 -0.23338,16.5287 -0.11378,13.08635 2.32861,10.1233 4.77115,7.16107 11.81714,2.43591 19.86453,1.35541 27.91196,0.27489 36.88066,2.59712 40.9624,6.04027 c 4.08516,3.44174 3.48546,8.046 0.64342,9.80751 -2.84415,1.76153 -6.88757,1.00132 -8.12859,-1.56072 -1.24113,-2.56202 1.64121,-3.60293 3.92463,-3.32223 2.28054,0.2787 3.24224,1.63991 1.71983,2.32094 -1.52042,0.68029 -3.56334,-0.28072 -3.56334,-0.28072 0,0 1.00131,1.48282 3.16304,1.00201 m -3.54414,2.51073 c 0,0 4.14593,1.84764 7.24748,-0.9405 3.10095,-2.78743 2.40423,-7.1068 -1.35921,-10.41605 0,0 -5.9498,-5.57892 -18.60275,-5.13635 0,0 -11.66875,0.3941 -19.20184,7.43329 0,0 -3.79073,3.84133 -3.19924,7.5829 0,0 0.29439,2.11604 2.85433,3.00334 0,0 -1.52582,3.19993 0.73832,5.66158 2.26631,2.46223 6.25307,1.1338 6.25307,1.1338 0,0 0.88661,1.62352 3.29904,2.01834 2.41313,0.3927 5.31728,-0.68991 6.9921,-2.11744 0,0 0.9357,1.57502 3.49434,1.23083 2.56063,-0.34493 4.38295,-2.36394 6.05708,-4.52977 1.67333,-2.16661 3.56805,-4.13504 5.42728,-4.92397"
               style="fill:#000000;fill-opacity:1;fill-rule:nonzero;stroke:#000000;stroke-width:0.3985;stroke-linecap:butt;stroke-linejoin:miter;stroke-miterlimit:10;stroke-dasharray:none;stroke-opacity:1"
               id="path20" /><path
               d="m 4.68845,14.57457 c 0,0 7.31248,-7.75501 15.8782,-9.23242 0,0 11.74257,-3.47105 19.86645,4.20956 0,0 0.4323,0.15979 0.1714,-0.39961 C 40.34291,8.592 36.38544,4.89555 28.06145,4.07523 c 0,0 -14.59548,-1.78751 -23.373,10.49934"
               style="fill:#000000;fill-opacity:1;fill-rule:nonzero;stroke:#000000;stroke-width:0.3985;stroke-linecap:butt;stroke-linejoin:miter;stroke-miterlimit:10;stroke-dasharray:none;stroke-opacity:1"
               id="path22" /><path
               d="m 9.66501,15.32118 c 0,0 5.24487,-6.52698 12.99376,-8.21611 0,0 9.73243,-2.56404 16.84262,2.85573 0,0 0.29101,-0.05879 0.0567,-0.3497 -0.23221,-0.29169 -6.64168,-5.18616 -17.07211,-2.85573 0,0 -7.51869,1.34082 -12.82097,8.56581"
               style="fill:#000000;fill-opacity:1;fill-rule:nonzero;stroke:#000000;stroke-width:0.3985;stroke-linecap:butt;stroke-linejoin:miter;stroke-miterlimit:10;stroke-dasharray:none;stroke-opacity:1"
               id="path24" /><path
               d="m 10.24622,19.86734 c 0,0 0.4672,-3.14664 5.82757,-6.81789 5.36238,-3.67056 13.92819,-6.23538 21.09517,-2.68093 l 0.69872,0.17561 c 0,0 -4.36995,-3.20476 -12.41126,-2.15634 -8.04192,1.04911 -14.56819,7.22499 -15.2102,11.47955"
               style="fill:#000000;fill-opacity:1;fill-rule:nonzero;stroke:#000000;stroke-width:0.3985;stroke-linecap:butt;stroke-linejoin:miter;stroke-miterlimit:10;stroke-dasharray:none;stroke-opacity:1"
               id="path26" /><path
               d="m 15.20088,22.48947 c 0,0 1.16451,-4.83716 5.01067,-8.1 3.84535,-3.26275 9.20712,-4.42867 14.10238,-3.26275 l 0.64132,-0.23429 c 0,0 -5.59468,-1.92272 -12.12157,1.16661 -6.52628,3.08795 -7.6328,10.43043 -7.6328,10.43043"
               style="fill:#000000;fill-opacity:1;fill-rule:nonzero;stroke:#000000;stroke-width:0.3985;stroke-linecap:butt;stroke-linejoin:miter;stroke-miterlimit:10;stroke-dasharray:none;stroke-opacity:1"
               id="path28" /><path
               d="m 20.56197,20.62415 c 0,0 3.26273,-8.15801 12.35444,-7.75029 0,0 -8.27551,-2.85434 -12.35444,7.75029"
               style="fill:#000000;fill-opacity:1;fill-rule:nonzero;stroke:#000000;stroke-width:0.3985;stroke-linecap:butt;stroke-linejoin:miter;stroke-miterlimit:10;stroke-dasharray:none;stroke-opacity:1"
               id="path30" /><path
               d="m 23.9408,21.90616 c 0,0 2.97323,-6.75917 9.32331,-7.6915 l -0.1161,-0.29169 c 0,0 -6.40887,0.4665 -9.20721,7.98319"
               style="fill:#000000;fill-opacity:1;fill-rule:nonzero;stroke:#000000;stroke-width:0.3985;stroke-linecap:butt;stroke-linejoin:miter;stroke-miterlimit:10;stroke-dasharray:none;stroke-opacity:1"
               id="path32" /></g></g></g></g></g></svg>
