<?xml version="1.0" encoding="UTF-8" standalone="no"?>
<svg
   xmlns:dc="http://purl.org/dc/elements/1.1/"
   xmlns:cc="http://creativecommons.org/ns#"
   xmlns:rdf="http://www.w3.org/1999/02/22-rdf-syntax-ns#"
   xmlns:svg="http://www.w3.org/2000/svg"
   xmlns="http://www.w3.org/2000/svg"
   xmlns:sodipodi="http://sodipodi.sourceforge.net/DTD/sodipodi-0.dtd"
   xmlns:inkscape="http://www.inkscape.org/namespaces/inkscape"
   version="1.1"
   id="svg2"
   xml:space="preserve"
   width="129.33498"
   height="129.33498"
   viewBox="0 0 129.33497 129.33498"
   sodipodi:docname="vectorian035.pdf"><metadata
     id="metadata8"><rdf:RDF><cc:Work
         rdf:about=""><dc:format>image/svg+xml</dc:format><dc:type
           rdf:resource="http://purl.org/dc/dcmitype/StillImage" /></cc:Work></rdf:RDF></metadata><defs
     id="defs6"><clipPath
       clipPathUnits="userSpaceOnUse"
       id="clipPath24"><path
         d="M 0,0 H 97.00124 V 97.00124 H 0 Z"
         id="path22" /></clipPath></defs><sodipodi:namedview
     pagecolor="#ffffff"
     bordercolor="#666666"
     borderopacity="1"
     objecttolerance="10"
     gridtolerance="10"
     guidetolerance="10"
     inkscape:pageopacity="0"
     inkscape:pageshadow="2"
     inkscape:window-width="640"
     inkscape:window-height="480"
     id="namedview4" /><g
     id="g10"
     inkscape:groupmode="layer"
     inkscape:label="vectorian035"
     transform="matrix(1.3333333,0,0,-1.3333333,0,129.33498)"><g
       id="g12"
       transform="translate(72,25)"><g
         id="g14"
         transform="translate(-72,-25)"><g
           id="g16"><g
             id="g18"><g
               id="g20"
               clip-path="url(#clipPath24)"><path
                 d="M 84.28836,91.54688 C 67.33615,97.67496 51.15994,85.56758 41.51183,81.50354 37.84778,79.9595 33.99493,78.9067 30.24287,78.34029 c -0.05758,0.44481 -0.11039,0.89761 -0.11839,1.38241 -0.17282,9.38733 10.55534,13.02419 15.2018,13.6802 2.99043,0.4224 5.12326,-0.34241 7.13928,0 1.3392,0.2304 1.95842,1.6624 1.32321,2.73763 -0.9104,1.54081 -5.20166,1.14081 -9.04973,0.39359 -7.51046,-1.46401 -16.00657,-7.76969 -16.35379,-15.597 -0.04159,-0.97281 0.0096,-1.91203 0.1344,-2.81763 -2.34721,-0.26242 -4.62725,-0.3168 -6.78248,-0.16319 -0.85923,4.83365 -2.66724,9.0913 -5.52167,12.28494 -5.47208,6.1185 -11.80176,2.54245 -11.80176,2.54245 0,0 -3.57924,-6.32969 2.54083,-11.80177 3.19364,-2.85283 7.4529,-4.66406 12.28498,-5.52167 0.15198,-2.15362 0.09918,-4.43525 -0.15842,-6.78249 -0.91041,0.12481 -1.84802,0.17762 -2.82243,0.13442 C 8.433,68.46336 2.1273,59.96727 0.6633,52.45676 c -0.75198,-3.85125 -1.14719,-8.1409 0.3888,-9.0513 1.07682,-0.63362 2.51203,-0.01601 2.74084,1.32159 0.34399,2.01924 -0.42403,4.15365 0,7.1425 0.65761,4.64485 4.29445,15.37781 13.68336,15.2018 0.48484,-0.008 0.93601,-0.0592 1.37923,-0.11839 C 18.29231,63.20409 17.2363,59.34966 15.6907,55.6808 11.62823,46.03429 -0.47908,29.86127 5.65056,12.90906 11.78024,-4.04474 32.7757,-3.52313 38.9054,9.90903 c 5.65927,12.40335 -0.49442,25.67071 -8.63532,28.24994 0.8768,3.21125 1.3504,6.80969 1.20162,10.83055 -0.39042,10.54893 -3.90247,16.62903 -9.25773,18.85783 0.16159,2.47845 0.14081,4.89926 -0.08479,7.2209 2.32002,-0.2272 4.74245,-0.24959 7.21928,-0.08319 2.22722,-5.35527 8.31049,-8.87211 18.85946,-9.26254 4.02084,-0.1472 7.61929,0.32802 10.82893,1.20323 2.57922,-8.14091 15.84979,-14.293 28.24997,-8.63531 13.43056,6.13128 13.95218,27.12515 -2.99846,33.25644 z M 37.99178,19.29953 C 37.78857,9.2626 31.37569,4.27213 24.4716,3.60812 c -0.45761,2.18084 -0.648,4.31687 -0.52002,6.2033 1.15042,-0.10241 2.32804,0.08318 3.47686,0.6208 5.86889,2.73604 4.82565,11.73616 -1.56482,9.25771 -2.54404,-0.98882 -3.66884,-3.57443 -4.07526,-6.44648 -2.48323,1.45443 -3.88003,4.05446 -4.46246,6.97129 0.52801,0.34401 1.06881,0.71042 1.62883,1.12481 3.95847,2.94403 8.2769,7.81612 10.67215,14.73461 4.47204,-1.27841 8.5825,-6.02889 8.3649,-16.77463 z M 24.36281,12.29785 c 0.5424,2.10402 1.58241,3.65445 3.19682,4.13125 3.52165,1.04162 1.95683,-4.69447 -2.47843,-4.30407 -0.25599,0.03842 -0.4736,0.11841 -0.71839,0.17282 z m -4.10567,21.47708 c 1.45604,1.54082 3.83365,2.57761 6.3761,2.66243 -1.93764,-5.33928 -5.32169,-10.24014 -9.58414,-13.95378 -0.2624,4.40004 1.05602,9.01612 3.20804,11.29135 z m 8.17131,11.73775 c -0.0688,-2.32164 -0.4528,-4.63527 -1.08801,-6.8913 -8.49931,0.17441 -12.20656,-7.9553 -12.30095,-15.01939 -0.0112,-0.91202 0.05598,-1.78082 0.15359,-2.62402 -1.74082,-1.30402 -3.59844,-2.41126 -5.54086,-3.28806 -0.97124,-0.83041 1.6592,-0.88161 5.85446,1.42401 0.95041,-4.24646 3.29285,-7.34248 6.08809,-8.6449 -0.0272,-2.85442 0.4128,-5.55368 0.67841,-6.92329 -5.52488,0.19679 -10.98094,3.07843 -13.49457,8.31851 -5.9969,12.52014 3.78243,24.2563 9.52171,38.86449 1.96482,5.00168 3.22403,10.19855 3.74405,15.22101 5.35527,-2.88965 6.66408,-11.03694 6.38408,-20.43706 z M 9.17061,83.19955 c -2.73924,3.38885 -2.15044,6.97609 -2.15044,6.97609 0,0 3.58565,0.58881 6.97609,-2.15044 2.59364,-2.0944 4.20325,-5.56484 4.91367,-9.74091 -4.17287,0.71362 -7.64649,2.32324 -9.73932,4.91526 z M 31.2477,75.15306 c 5.02246,0.52001 10.21614,1.77922 15.22258,3.74564 14.6034,5.73607 26.34114,15.51701 38.85971,9.51692 5.24165,-2.51362 8.12491,-7.9697 8.31849,-13.49617 -1.36641,0.2672 -4.06564,0.71042 -6.91848,0.68321 -1.304,2.79044 -4.40325,5.13446 -8.65131,6.08807 2.31044,4.19365 2.26082,6.8241 1.42723,5.85288 -0.87522,-1.94083 -1.98404,-3.80005 -3.28487,-5.54088 -0.84799,0.1008 -1.71681,0.16641 -2.62722,0.15361 -7.06249,-0.0928 -15.19699,-3.80325 -15.01938,-12.29936 -2.25605,-0.63521 -4.56805,-1.02242 -6.88971,-1.0896 -9.3985,-0.2832 -17.54901,1.02881 -20.43704,6.38568 z m 32.17482,1.78561 c 2.27362,2.15204 6.88966,3.47045 11.29133,3.20806 -3.71845,-4.26567 -8.61291,-7.64652 -13.95698,-9.58255 0.08801,2.54085 1.12481,4.91687 2.66565,6.37449 z M 77.89629,59.20245 c -10.74573,-0.21762 -15.49939,3.89605 -16.77623,8.3665 6.9185,2.39524 11.79216,6.7121 14.7346,10.67374 0.41602,0.5584 0.78241,1.09761 1.12482,1.62563 2.91844,-0.58082 5.51848,-1.97763 6.97448,-4.46245 -2.87043,-0.40801 -5.46086,-1.53122 -6.44809,-4.07367 -2.47842,-6.38887 6.5217,-7.43208 9.25773,-1.56482 0.5376,1.14722 0.72482,2.32802 0.61761,3.47845 1.88643,0.12481 4.02725,-0.0608 6.20488,-0.52002 C 92.9253,65.81854 87.93161,59.40565 77.89629,59.20245 Z m 7.17128,12.90897 c 0.39523,-4.43045 -5.34406,-5.99689 -4.30085,-2.47365 0.47681,1.61123 2.02564,2.65285 4.13446,3.19527 0.0528,-0.24162 0.1312,-0.46082 0.16639,-0.72162 z"
                 style="fill:#000000;fill-opacity:1;fill-rule:nonzero;stroke:#000000;stroke-width:0.3985;stroke-linecap:butt;stroke-linejoin:miter;stroke-miterlimit:10;stroke-dasharray:none;stroke-opacity:1"
                 id="path26" /><path
                 d="m 53.64157,62.4617 -7.04489,-5.60648 -9.77773,3.65125 3.65125,-9.77774 -5.60808,-7.04488 9.39054,0.52159 5.86727,-10.17131 1.89283,11.28014 11.28014,1.89122 -10.17294,5.86888 z M 54.9584,48.78151 c -2.25444,-0.3792 -5.49447,-0.92322 -5.49447,-0.92322 0,0 -0.54242,-3.23683 -0.92,-5.48965 -1.16484,2.01921 -2.78407,4.82246 -2.78407,4.82246 0,0 -2.91042,-0.1584 -4.88164,-0.2688 1.0928,1.37279 2.65602,3.33443 2.65602,3.33443 0,0 -1.2832,3.44163 -2.10562,5.64328 2.20003,-0.82242 5.63848,-2.11043 5.63848,-2.11043 0,0 1.9648,1.56642 3.33923,2.65602 -0.1104,-1.97122 -0.27039,-4.87846 -0.27039,-4.87846 0,0 2.80483,-1.62082 4.82246,-2.78563 z"
                 style="fill:#000000;fill-opacity:1;fill-rule:nonzero;stroke:#000000;stroke-width:0.3985;stroke-linecap:butt;stroke-linejoin:miter;stroke-miterlimit:10;stroke-dasharray:none;stroke-opacity:1"
                 id="path28" /></g></g></g></g></g></g></svg>
