<?xml version="1.0" encoding="UTF-8" standalone="no"?>
<svg
   xmlns:dc="http://purl.org/dc/elements/1.1/"
   xmlns:cc="http://creativecommons.org/ns#"
   xmlns:rdf="http://www.w3.org/1999/02/22-rdf-syntax-ns#"
   xmlns:svg="http://www.w3.org/2000/svg"
   xmlns="http://www.w3.org/2000/svg"
   xmlns:sodipodi="http://sodipodi.sourceforge.net/DTD/sodipodi-0.dtd"
   xmlns:inkscape="http://www.inkscape.org/namespaces/inkscape"
   version="1.1"
   id="svg2"
   xml:space="preserve"
   width="68.426666"
   height="64"
   viewBox="0 0 68.426666 64"
   sodipodi:docname="vectorian031.pdf"><metadata
     id="metadata8"><rdf:RDF><cc:Work
         rdf:about=""><dc:format>image/svg+xml</dc:format><dc:type
           rdf:resource="http://purl.org/dc/dcmitype/StillImage" /></cc:Work></rdf:RDF></metadata><defs
     id="defs6"><clipPath
       clipPathUnits="userSpaceOnUse"
       id="clipPath24"><path
         d="M 0,0 H 48.00061 V 48.00061 H 0 Z"
         id="path22" /></clipPath><clipPath
       clipPathUnits="userSpaceOnUse"
       id="clipPath30"><path
         d="M -3.82803,-0.04718 H 48.42542 V 51.49866 H -3.82803 Z"
         id="path28" /></clipPath></defs><sodipodi:namedview
     pagecolor="#ffffff"
     bordercolor="#666666"
     borderopacity="1"
     objecttolerance="10"
     gridtolerance="10"
     guidetolerance="10"
     inkscape:pageopacity="0"
     inkscape:pageshadow="2"
     inkscape:window-width="640"
     inkscape:window-height="480"
     id="namedview4" /><g
     id="g10"
     inkscape:groupmode="layer"
     inkscape:label="vectorian031"
     transform="matrix(1.3333333,0,0,-1.3333333,0,64)"><g
       id="g12"
       transform="translate(72,-24)"><g
         id="g14"
         transform="translate(-72,24)"><g
           id="g16"><g
             id="g18"><g
               id="g20"
               clip-path="url(#clipPath24)"><g
                 id="g26"
                 clip-path="url(#clipPath30)"><path
                   d="m 48.4256,46.03477 c 0,0 -11.36275,5.46409 -15.50969,-9.4065 0,0 7.96191,-1.91042 10.21582,-10.30735 1.65013,-6.14567 -1.92832,-10.95533 -6.88747,-12.36656 0.4335,6.28328 -1.43763,10.88974 -7.72841,14.86099 -4.38135,2.76645 -8.4844,3.42887 -10.75964,3.56327 0.08771,4.37124 1.32832,9.55529 4.27225,15.61458 L 0.4118,48.0236 0,26.38171 c 6.35927,2.92485 11.77824,4.08646 16.3095,4.08487 0.175,-3.98565 1.25012,-8.21772 4.20625,-11.73616 C 26.04703,12.14474 32.3346,11.79753 34.23163,11.85513 32.73161,6.86786 27.97215,3.19263 21.21194,4.81825 12.75955,6.85187 11.12514,15.25359 11.12514,15.25359 -3.82823,11.42793 1.3906,-0.04738 1.3906,-0.04738 c 0,0 -1.0445,9.73768 5.56547,11.12811 0,0 3.53764,-8.23051 10.77855,-9.39051 8.3719,-1.33764 16.8314,2.03041 18.27432,10.33772 8.1759,1.16641 11.47596,9.37771 10.32586,17.70422 -1.00303,7.26412 -9.15624,10.97936 -9.15624,10.97936 1.53124,6.57768 11.24704,5.32325 11.24704,5.32325 z M 16.2938,32.401 c -0.2435,-0.008 -0.38432,-0.0208 -0.38432,-0.0208 0,0 -5.82196,-0.43681 -10.52192,-2.00163 l 0.3499,13.21458 12.51895,-0.1696 C 17.79701,41.85712 16.4149,37.47145 16.2938,32.401 Z M 34.61293,13.60555 c -1.35312,-0.16959 -2.76584,-0.09598 -4.18434,0.25602 -5.15967,1.2912 -12.02197,6.55368 -12.62837,16.5618 10.11883,-0.5984 15.45008,-7.20808 16.62822,-12.38895 0.33441,-1.48642 0.3867,-2.99044 0.18449,-4.42887 z"
                   style="fill:#000000;fill-opacity:1;fill-rule:nonzero;stroke:#000000;stroke-width:0.3985;stroke-linecap:butt;stroke-linejoin:miter;stroke-miterlimit:10;stroke-dasharray:none;stroke-opacity:1"
                   id="path32" /></g></g></g></g></g></g></g></svg>
