<?xml version="1.0" encoding="UTF-8" standalone="no"?>
<svg
   xmlns:dc="http://purl.org/dc/elements/1.1/"
   xmlns:cc="http://creativecommons.org/ns#"
   xmlns:rdf="http://www.w3.org/1999/02/22-rdf-syntax-ns#"
   xmlns:svg="http://www.w3.org/2000/svg"
   xmlns="http://www.w3.org/2000/svg"
   xmlns:sodipodi="http://sodipodi.sourceforge.net/DTD/sodipodi-0.dtd"
   xmlns:inkscape="http://www.inkscape.org/namespaces/inkscape"
   version="1.1"
   id="svg2"
   xml:space="preserve"
   width="83.440002"
   height="40.799999"
   viewBox="0 0 83.440002 40.799999"
   sodipodi:docname="vectorian123.pdf"><metadata
     id="metadata8"><rdf:RDF><cc:Work
         rdf:about=""><dc:format>image/svg+xml</dc:format><dc:type
           rdf:resource="http://purl.org/dc/dcmitype/StillImage" /></cc:Work></rdf:RDF></metadata><defs
     id="defs6" /><sodipodi:namedview
     pagecolor="#ffffff"
     bordercolor="#666666"
     borderopacity="1"
     objecttolerance="10"
     gridtolerance="10"
     guidetolerance="10"
     inkscape:pageopacity="0"
     inkscape:pageshadow="2"
     inkscape:window-width="640"
     inkscape:window-height="480"
     id="namedview4" /><g
     id="g10"
     inkscape:groupmode="layer"
     inkscape:label="vectorian123"
     transform="matrix(1.3333333,0,0,-1.3333333,0,40.8)"><g
       id="g12"
       transform="translate(72,-41.402)"><g
         id="g14"
         transform="translate(-71.964,41.572)"><g
           id="g16"><g
             id="g18"><path
               d="m 31.9545,11.74434 c 0,0 -0.54231,0.83812 0.099,1.23151 0.63871,0.3941 0.9822,-0.98491 -0.099,-1.23151 m 1.72192,-0.34422 c -1.32852,-0.24518 -1.37832,0.29502 -1.37832,0.29502 0.63992,0.2958 0.7376,0.7882 0.68982,1.13251 -0.0499,0.3456 -0.62842,0.93572 -1.26842,0.3947 -0.6393,-0.5423 -0.073,-2.43762 1.46441,-2.51213 1.87153,-0.08949 2.21573,1.32982 2.21573,1.32982 0,0 -0.39412,-0.3941 -1.72322,-0.63992"
               style="fill:#000000;fill-opacity:1;fill-rule:nonzero;stroke:#000000;stroke-width:0.3985;stroke-linecap:butt;stroke-linejoin:miter;stroke-miterlimit:10;stroke-dasharray:none;stroke-opacity:1"
               id="path20" /><path
               d="m 28.99905,11.34953 c 0,0 -0.64,0.5423 -0.34359,1.03551 0.2521,0.42281 0.88589,-0.5908 0.34359,-1.03551 m 0.29712,0 c 0.78681,1.084 -0.39541,1.97052 -0.88792,1.23293 -0.49249,-0.73912 0.53142,-2.27113 1.76013,-2.35173 1.10791,-0.07442 1.68642,0.77589 1.68642,0.77589 -1.92003,-0.64059 -2.55863,0.34291 -2.55863,0.34291"
               style="fill:#000000;fill-opacity:1;fill-rule:nonzero;stroke:#000000;stroke-width:0.3985;stroke-linecap:butt;stroke-linejoin:miter;stroke-miterlimit:10;stroke-dasharray:none;stroke-opacity:1"
               id="path22" /><path
               d="m 34.67433,10.56203 0.2206,0.14819 c 0,0 0.5915,-0.1106 0.73971,-0.77521 l -0.222,-0.1844 c 0,0 -0.1475,0.44261 -0.73831,0.81142"
               style="fill:#000000;fill-opacity:1;fill-rule:nonzero;stroke:#000000;stroke-width:0.3985;stroke-linecap:butt;stroke-linejoin:miter;stroke-miterlimit:10;stroke-dasharray:none;stroke-opacity:1"
               id="path24" /><path
               d="m 27.25194,24.33589 c -0.18381,0 -0.33202,0.14952 -0.33202,0.33191 0,0.1844 0.14821,0.334 0.33202,0.334 0.1837,0 0.33189,-0.1496 0.33189,-0.334 0,-0.18239 -0.14819,-0.33191 -0.33189,-0.33191 m 0,0.95961 c -0.347,0 -0.6277,-0.2807 -0.6277,-0.6277 0,-0.3456 0.2807,-0.627 0.6277,-0.627 0.34619,0 0.62701,0.2814 0.62701,0.627 0,0.347 -0.28082,0.6277 -0.62701,0.6277"
               style="fill:#000000;fill-opacity:1;fill-rule:nonzero;stroke:#000000;stroke-width:0.3985;stroke-linecap:butt;stroke-linejoin:miter;stroke-miterlimit:10;stroke-dasharray:none;stroke-opacity:1"
               id="path26" /><path
               d="m 32.01599,24.4841 c -0.14409,0 -0.25959,0.1161 -0.25959,0.2581 0,0.14351 0.1155,0.2596 0.25959,0.2596 0.14071,0 0.25751,-0.11609 0.25751,-0.2596 0,-0.142 -0.1168,-0.2581 -0.25751,-0.2581 m 0,0.92342 c -0.36889,0 -0.66659,-0.29781 -0.66659,-0.66532 0,-0.3667 0.2977,-0.66382 0.66659,-0.66382 0.36682,0 0.66322,0.29712 0.66322,0.66382 0,0.36751 -0.2964,0.66532 -0.66322,0.66532"
               style="fill:#000000;fill-opacity:1;fill-rule:nonzero;stroke:#000000;stroke-width:0.3985;stroke-linecap:butt;stroke-linejoin:miter;stroke-miterlimit:10;stroke-dasharray:none;stroke-opacity:1"
               id="path28" /><path
               d="m 32.01599,23.5606 c -0.61272,0 -1.10861,0.4959 -1.10861,1.1072 0,0.6127 0.49589,1.10782 1.10861,1.10782 0.61201,0 1.10712,-0.49512 1.10712,-1.10782 0,-0.6113 -0.49511,-1.1072 -1.10712,-1.1072 m -5.90886,0.9966 c 0,0.5723 0.51979,1.03472 1.16251,1.03472 0.6427,0 1.16391,-0.46242 1.16391,-1.03472 0,-0.57041 -0.52121,-1.03413 -1.16391,-1.03413 -0.64272,0 -1.16251,0.46372 -1.16251,1.03413 m 5.90886,1.62552 c -0.88861,0 -1.60651,-0.71992 -1.60651,-1.60642 0,-0.38322 0.1332,-0.73292 0.3559,-1.00822 -0.528,-0.40841 -1.55731,-2.11181 -1.55731,-2.11181 -0.22131,0.66521 -0.92272,1.8462 -0.92272,1.8462 l -0.0718,-0.0048 c 0.40031,0.27251 0.66259,0.70962 0.66259,1.20482 0,0.82581 -0.72538,1.49512 -1.6195,1.49512 -0.89472,0 -1.62082,-0.66931 -1.62082,-1.49512 0,-0.82712 0.3976,-1.49652 1.62082,-1.49652 0.2063,0 0.40172,0.0369 0.58259,0.10251 0.62842,-0.78001 1.29502,-2.90834 1.29502,-2.90834 0.59562,1.47401 1.56413,2.78813 1.84355,3.15074 0.27998,-0.237 0.64198,-0.38112 1.03819,-0.38112 0.88652,0 1.60641,0.71923 1.60641,1.60653 0,0.8865 -0.71989,1.60642 -1.60641,1.60642"
               style="fill:#000000;fill-opacity:1;fill-rule:nonzero;stroke:#000000;stroke-width:0.3985;stroke-linecap:butt;stroke-linejoin:miter;stroke-miterlimit:10;stroke-dasharray:none;stroke-opacity:1"
               id="path30" /><path
               d="M 23.09088,1.79881 C 22.84567,3.37463 23.7815,4.40805 23.7815,4.40805 21.51585,3.32474 22.15517,0.51959 23.09088,0.17459 24.02739,-0.17029 24.56828,0.8631 24.56828,0.8631 24.37161,0.8146 23.3375,0.22308 23.09088,1.79881 m 20.48187,20.77686 c 0,0 -0.0977,0.59082 1.1823,0.49323 1.27924,-0.09913 2.55925,-0.49323 2.55925,-0.49323 0,0 -2.65834,0.345 -3.74155,0 M 35.81834,0.9621 c -0.95961,-0.36951 -1.69862,0.88661 -1.69862,0.88661 0,0 -0.07379,0.36879 -0.2951,1.84552 -0.22129,1.47742 -1.40363,1.47742 -1.32851,0.07382 0.07239,-1.40364 0.88521,-2.14135 0.88521,-2.14135 0,0 0,-1.03411 -1.03342,-1.03411 -1.03412,0 -1.55112,1.25612 -1.55112,1.25612 0.1646,0.5491 0.28751,2.03541 0.12911,3.09546 0.16049,-0.23433 0.3893,-0.37972 0.68301,-0.36333 1.25542,0.0744 0.88721,1.62422 0.88721,1.62422 0.44258,0.14821 0.5908,-0.88589 0.5908,-0.88589 0.3682,-0.81212 1.10721,-0.88593 1.10721,-0.88593 0.95963,-0.2213 2.58524,-3.10223 1.62422,-3.47114 m -2.33792,1.67483 c 0,0 -0.9351,1.13112 -0.5915,1.57501 0.34559,0.4433 0.64,-1.23141 0.5915,-1.57501 m -2.90493,0.14618 c 0,0 -0.4426,0.68982 -0.59083,1.82224 -0.14749,1.1325 0.29372,1.37841 0.54162,0.78889 0.2452,-0.59279 0.2452,-1.92131 0.04921,-2.61113 m -2.70755,0.2964 c 0,0 -0.0983,0.93442 0.04782,1.87014 0.14828,0.93641 0.6407,0.6898 0.5417,-0.39341 -0.0977,-1.08331 -0.58952,-1.47673 -0.58952,-1.47673 m -2.51144,-0.64 c 0,0 -0.14749,0.64 -0.04987,1.28072 0.09977,0.63861 0.444,0.54091 0.444,-0.09979 0,-0.63991 -0.14823,-0.98351 -0.39413,-1.18093 m 3.49505,6.05498 c 0,0 -0.4433,0.73971 0,0.88591 0.44462,0.14751 0.44462,-0.68849 0,-0.88591 m 3.38505,6.97919 c 0,0 -0.96031,0.62832 -0.44331,0.99652 0.5177,0.36949 0.44331,-0.99652 0.44331,-0.99652 m 2.17954,2.36323 c 0.47879,0.37019 0.66391,-1.29161 0.66391,-1.29161 0,0 -1.14542,0.9228 -0.66391,1.29161 m -9.63744,-0.1114 c 0.4794,-0.03611 0.40572,-0.44249 0.10991,-0.77379 -0.29571,-0.33332 -0.6277,-0.37022 -0.6277,-0.37022 0,0 0.0376,1.1816 0.51779,1.14401 m 2.99094,-1.18021 c 0,0.55391 0.70141,0.5901 0.66391,-0.0376 -0.0362,-0.62702 -0.29579,-1.10781 -0.29579,-1.10781 0,0 -0.36812,0.5901 -0.36812,1.14541 m -4.28395,-2.58455 c 0.4071,0 0.444,-0.29638 0.11,-0.5915 -0.3326,-0.29579 -0.77461,-0.3702 -0.77461,-0.3702 0,0 0.25819,0.9617 0.66461,0.9617 m 2.17824,-1.18159 c 0.18499,0.33189 0.77519,0.1837 0.51699,-0.36952 -0.25821,-0.55471 -0.70152,-0.73911 -0.70152,-0.73911 0,0 0,0.7753 0.18453,1.10863 m 18.72091,14.69658 c -5.76065,-2.29024 -6.79407,-7.23799 -6.79407,-7.23799 -0.88581,0.88521 -2.14053,1.47661 -2.14053,1.47661 1.40222,2.80724 -0.14819,4.35707 -0.14819,4.35707 0.8107,1.0341 4.43005,0.95961 4.43005,0.95961 -2.28885,2.65973 -5.61238,0.88731 -5.61238,0.88731 -4.43016,2.51001 -9.00909,0.14681 -9.00909,0.14681 -3.32355,1.47741 -5.76198,-0.66391 -5.76198,-0.66391 4.28393,-0.88651 4.21085,-1.92063 4.21085,-1.92063 l 0.03619,-0.36821 0.2971,-0.03751 0.40572,0.95962 c -0.0376,0.9228 -3.17607,1.62423 -3.17607,1.62423 1.18164,1.07302 4.32017,-0.10931 4.32017,-0.10931 0,0 1.51352,1.10721 4.39456,0.99661 2.87953,-0.1107 4.39455,-1.07031 4.39455,-1.07031 2.39944,1.4022 3.54416,0.18301 3.54416,0.18301 -1.07092,0.2596 -2.54834,-0.47952 -2.91715,-0.73832 -0.36879,-0.2582 -0.40568,-0.4795 -0.40568,-0.4795 1.2191,-1.03413 1.5497,-2.99165 0.44188,-4.68898 -1.1079,-1.69931 -4.06055,-2.0682 -5.27976,-2.0682 -1.21782,0 -3.76625,-0.03681 -5.35426,1.62431 -1.58734,1.66171 -0.59012,3.35974 -0.59012,3.35974 l -0.2595,0.25891 c -1.10721,-1.77252 0.37021,-4.02447 0.37021,-4.02447 -0.55532,-0.25878 -1.40432,-0.8127 -1.40432,-0.8127 -0.5164,0.0368 -1.55111,1.44043 -2.47394,2.88023 -0.92271,1.44054 -1.51352,2.54845 -3.72996,3.65625 -2.21501,1.10782 -5.16776,1.32913 -9.8212,0.92342 C 1.7,27.14174 -0.03618,25.88701 0,25.0749 c 0.03688,-0.81211 2.03201,-1.55111 4.76335,-1.21852 2.73352,0.33122 6.09397,1.47672 7.5345,1.69864 1.4391,0.2206 1.66042,-0.29501 1.66042,-0.29501 -1.07102,-0.77591 -4.87406,-0.444 -7.7175,-1.36671 -2.84346,-0.92353 -3.76616,-3.58185 -3.76616,-3.58185 0.77522,0.36949 1.99443,0.1476 3.24914,0.25891 1.25461,0.11058 2.62206,0.70151 5.20669,1.58731 2.58453,0.88593 3.87744,0.55391 3.87744,0.55391 -5.61378,-0.48081 -8.8629,-3.35976 -8.38131,-3.98885 0.47881,-0.627 3.43355,0.11139 6.71888,1.14551 3.28735,1.034 3.50865,0.55463 3.50865,0.55463 -2.80725,-0.25963 -4.54076,-1.14543 -5.79678,-1.99515 -1.25611,-0.84972 -0.73902,-1.2178 1.36602,-1.2178 2.10443,0 5.20537,1.36601 5.83437,1.54971 0.627,0.1858 0.55263,-0.40572 0.55263,-0.40572 0,0 -1.59282,-0.16251 -3.94925,-0.99652 -2.40084,-0.84969 -2.99306,-2.14191 -2.99306,-2.14191 1.62564,-0.99652 5.46557,0.77451 5.46557,0.77451 -3.28675,-1.62422 -3.50665,-3.02713 -3.50665,-3.02713 1.25473,-1.07103 4.20876,1.10779 4.83647,1.2561 0.62841,0.14681 0.62841,-0.25821 0.62841,-0.25821 -3.87825,-1.10789 -4.76406,-3.80444 -4.76406,-3.80444 1.66242,-0.36881 4.02506,1.51422 4.57827,1.62492 0.55459,0.1106 0.222,-0.29512 0.222,-0.29512 C 16.6541,10.48961 16.3584,8.56898 16.3584,8.56898 18.61034,8.16328 19.16623,9.3804 19.82944,9.60312 20.49475,9.82431 20.31035,9.4924 20.31035,9.4924 18.83293,8.31009 18.57411,7.09088 18.57411,7.09088 c 0.40642,-0.0724 2.21575,0.2227 2.21575,0.2227 -0.47951,-1.47671 0.33258,-1.99441 0.33258,-1.99441 0.70143,1.366 1.92064,1.58801 1.92064,1.58801 -0.4432,-1.40362 -0.1482,-2.36255 0.62771,-2.28953 0.77391,0.07449 0.55331,1.32852 0.55331,1.32852 0.07441,-0.36881 -0.2582,-1.21782 -0.59152,-0.92212 -0.332,0.29512 0.22262,2.43702 0.22262,2.43702 -1.25532,-0.0737 -2.43705,-1.2922 -2.43705,-1.2922 -0.59208,1.40361 1.40293,2.10433 1.40293,2.10433 1.29232,-0.222 1.80871,0.03689 1.80871,0.03689 -3.43353,0.7021 -3.76694,3.24983 -3.80372,3.43425 -0.03621,0.1844 0,0.36951 0,0.36951 l -0.36753,0.40568 c 0,-2.58452 1.99303,-3.91303 1.99303,-3.91303 -1.1078,0.0362 -1.69861,-1.07162 -1.69861,-1.07162 -0.51642,-0.1844 -1.21854,-0.03691 -1.21854,-0.03691 -0.07379,0.33193 0.77593,1.25613 0.96033,1.47672 0.18511,0.22201 0.81281,0.81281 0.3681,1.07162 -0.4412,0.25821 -0.8858,0 -1.88232,-0.7014 C 17.9833,8.6427 16.8399,8.86469 16.8399,8.86469 c 0.0731,0.33201 0.55192,1.18162 1.91791,1.77113 1.36743,0.59212 1.58873,1.10852 1.14543,1.51494 -0.44261,0.40568 -1.36671,-0.14823 -2.17743,-0.70154 -0.81281,-0.5539 -2.99163,-1.47661 -2.88102,-0.8496 0.1113,0.62832 1.47671,1.36602 2.40013,1.73691 0.9241,0.36812 2.32641,1.14402 2.14201,1.88243 -0.1838,0.73832 -1.29161,0.2213 -1.99511,-0.11139 -0.70011,-0.3319 -1.14484,-0.88522 -2.06684,-0.96031 -0.92351,-0.0738 -0.99721,0.1482 -0.99721,0.1482 0.29639,0.77519 3.06405,2.17822 3.76755,2.62213 0.70072,0.44261 0.3681,0.84901 0.3681,0.84901 0,0 -0.48012,-0.2964 -0.8128,-0.4064 -0.33191,-0.1106 -0.55322,0.0731 -0.55322,0.0731 -2.76963,-1.51364 -4.57895,-0.99652 -4.57895,-0.99652 0.6652,1.21922 5.83438,2.40013 5.83438,2.40013 1.29291,0.3333 0.8503,1.69933 -0.40572,1.18161 -1.2554,-0.51638 -3.06543,-1.14471 -4.21016,-1.2185 -1.14412,-0.07451 -2.80651,-0.44263 -2.65763,0.03689 0.1461,0.48011 3.94917,1.95823 4.91087,1.99373 0.95971,0.0376 1.58673,0.18511 1.69803,0.73972 0.11059,0.5526 -1.91992,0.22128 -1.91992,0.22128 -1.95693,-0.25818 -5.50177,-1.5142 -6.9061,-1.73552 -1.40222,-0.222 -1.80863,-0.07449 -1.80863,-0.07449 1.66183,2.21503 6.79328,2.91723 7.90252,3.10234 1.10719,0.1844 1.21719,0.3688 1.25469,0.81271 0.0362,0.4426 -2.76893,0.11 -2.76893,0.11 C 9.675,22.41588 9.08421,21.64136 7.45998,21.23425 5.83366,20.82854 3.17671,20.90224 3.17671,20.90224 4.91167,22.9336 8.8267,24.1876 12.03824,24.299 c 3.21223,0.11131 3.06404,1.43982 1.51361,1.58801 -1.54981,0.14751 -2.65762,-0.2582 -4.35775,-0.73771 -1.69723,-0.4815 -3.24912,-0.77592 -3.24912,-0.77592 -4.54067,-0.517 -5.75989,0.22063 -5.6493,0.88663 0.11142,0.66321 2.99105,2.10503 8.60472,1.84552 5.61246,-0.25749 5.86997,-1.40291 5.86997,-1.40291 1.32982,-0.1476 3.69305,-1.73491 5.13287,-3.65555 1.44053,-1.92073 2.21502,-2.21643 2.21502,-2.21643 -1.1447,-0.73771 -0.88581,-2.28883 -0.88581,-2.28883 0,0 -1.77182,-1.18161 -1.18101,-3.32285 0.59021,-2.14203 2.36334,-1.84692 2.36334,-1.84692 0,0 0.1851,-0.92282 1.25601,-1.36601 1.06961,-0.444 1.69733,0.2575 1.69733,0.2575 1.2923,-2.25134 3.36044,-0.84831 3.36044,-0.84831 0,0 -2.47253,-0.18449 -2.99093,1.1447 0,0 0.48089,0.18442 0.73899,0.66522 0.25821,0.47951 0.1838,1.10791 -0.36949,1.10791 -0.55463,0 -1.07033,-0.6284 -0.84903,-1.81002 0,0 -0.7397,-0.40569 -1.6986,0.1475 -0.95962,0.55461 -0.73842,1.03412 -0.73842,1.03412 0,0 0.62642,-0.18512 1.18171,0.59081 0.5539,0.77519 -0.6284,1.36613 -1.18171,0.44261 -0.3326,-0.55323 -0.3326,-0.99652 -0.3326,-0.99652 0,0 -1.03412,-0.0369 -1.69862,0.66461 -0.66462,0.70141 -0.73842,2.58383 0.3695,3.69305 0,0 0.92202,-2.40013 2.84343,-1.18162 0,0 0.37971,-1.32233 1.62352,-1.62563 1.51493,-0.36879 2.40082,0.51712 2.40082,0.51712 0,0 0.33263,-0.88591 1.66243,-0.95971 1.32924,-0.0737 2.06754,0.4051 2.51013,0.81222 0,0 -3.17604,-0.62842 -3.80234,0.51769 0,0 0.36811,0.5908 0.36811,1.32842 0,0.73841 -0.6277,0.9604 -1.03411,0.70222 -0.40501,-0.2582 -0.62701,-1.25614 0.2213,-2.17885 0,0 -0.84831,-0.59081 -2.06683,-0.11141 -1.21912,0.48023 -1.51421,1.32994 -1.51421,1.32994 0,0 0.99651,0.2581 1.071,1.25602 0.073,0.99652 -1.54982,1.1072 -1.51292,-1.14542 0,0 -0.88661,-0.2951 -1.66321,0.4064 -0.77452,0.7015 -1.10712,2.84274 1.62631,3.80376 0,0 1.62282,-1.84763 4.65135,-2.03133 3.02715,-0.18512 5.50179,0.73841 6.721,2.84343 0,0 1.32982,-0.739 2.17811,-1.51422 0.84972,-0.77531 1.07103,-2.10514 0.22202,-2.95344 -0.84902,-0.8497 -2.29022,-0.6652 -2.29022,-0.6652 0.18579,0.77591 -0.10991,1.62421 -0.48012,1.9575 -0.36879,0.33193 -1.1079,0.22062 -0.849,-0.7759 0.25889,-0.9979 1.10782,-1.44121 1.10782,-1.44121 0,0 0,-0.44261 -0.95963,-0.81071 -1.11191,-0.4283 -1.62562,0.1468 -1.62562,0.1468 0.18441,0.81212 -0.3319,1.88384 -1.03402,1.51361 -0.7001,-0.36949 0.07442,-1.95691 1.77443,-2.2512 1.69661,-0.29653 2.02993,1.25529 2.02993,1.25529 2.43704,-0.55519 3.21225,1.80873 3.21225,1.80873 0.2951,-0.09911 0.78689,-1.32851 0.49251,-2.65904 -0.29442,-1.3291 -1.08263,-2.11672 -2.46235,-2.36324 -1.42543,-0.25409 -2.16511,0.98565 -1.47661,1.13314 0.68911,0.1475 0.6399,-0.7383 0.6399,-0.7383 0.44331,0.6393 -0.24579,1.6235 -0.836,1.1324 -0.59151,-0.4931 -0.29712,-1.67413 1.1311,-2.06894 1.42822,-0.3941 2.31545,0.69063 2.31545,0.69063 0,0 0.0977,-0.88733 -0.64061,-2.06894 -0.73972,-1.18231 -2.48694,-1.40291 -2.85575,-0.98489 -0.36879,0.4194 -0.5417,0.24728 -0.5417,0.24728 -0.099,-0.29651 0.5417,-0.59221 0.5417,-0.59221 l -0.0991,-0.24591 c -0.5416,-0.64 -1.77171,-0.54159 -2.06742,-0.34358 -0.29581,0.1954 -0.54171,0.737 -0.0977,0.88519 0.44188,0.14821 0.24589,-0.5908 0.24589,-0.5908 0,0 0.4426,0.1974 0.29441,0.5908 -0.14689,0.3941 -0.8866,0.4433 -0.98431,-0.14819 -0.0976,-0.59081 0.2459,-0.836 0.2459,-0.836 C 31.70729,8.00337 30.57549,8.0512 30.57549,8.0512 c -1.23153,0.04987 -1.47742,0.44329 -1.47742,0.44329 0,0 0.39349,0.24661 0.39349,0.68991 0,0.44322 -0.54101,0.63991 -0.9351,0.24651 -0.3934,-0.39412 0.1475,-1.13241 0.1475,-1.13241 0,0 -0.44191,-0.39481 -1.87072,-0.09971 -1.42684,0.2957 -1.82094,1.62552 -1.32854,1.67471 0.49182,0.04921 0.49182,-0.54159 0.49182,-0.54159 0.2964,0.78749 -0.73842,1.23012 -0.98422,0.4924 -0.2473,-0.73901 0.44191,-1.92062 2.01832,-2.16653 1.57505,-0.24651 1.96843,0.29582 1.96843,0.29582 2.21575,-1.08263 3.59546,0.59009 3.59546,0.59009 1.08261,-0.64 2.06684,0.09901 2.06684,0.09901 0.4924,-0.0491 1.5764,-0.8851 1.87141,-1.77173 0.2937,-0.88721 -0.04982,-1.18231 -0.24651,-1.13312 -0.1967,0.04921 -0.1967,0.54232 -0.1967,0.54232 0,0.8852 -1.18101,1.37761 -1.72332,1.3285 -0.54161,-0.04919 -0.2957,-0.49249 -0.2957,-0.49249 0.4938,-0.24521 0.6891,-1.72194 0.04919,-1.72194 -0.6393,0 -0.88521,1.62424 -1.27932,1.72194 C 32.4463,7.21518 32.2981,6.87097 32.24821,6.18047 32.19969,5.49126 32.0529,5.24606 32.0529,5.24606 31.0188,5.17165 31.6089,7.68309 31.6089,7.68309 30.89989,7.5246 30.58978,6.62846 30.64719,5.83955 30.13086,6.64697 29.61517,6.20366 29.54135,4.72835 29.46767,3.25163 30.13289,2.1438 30.13289,2.1438 c 0,0 -0.51772,-0.81279 -1.18234,-0.81279 -0.6652,0 -0.7383,0.5177 -0.7383,0.5177 0.6645,1.18161 0.5901,4.13505 0.14751,4.20875 -0.444,0.0745 -0.81282,-0.29499 -0.81282,-0.29499 0,2.14122 -0.88652,1.55111 -0.88652,1.55111 0.66592,-0.2227 0.59152,-1.69873 0.59152,-1.69873 l 0.295,-0.14819 c -0.81211,-2.65762 0.0745,-3.91306 0.0745,-3.91306 0,0 -0.0745,-0.8858 -1.10792,-0.8127 -1.03412,0.0737 -1.03412,1.4029 -1.03412,1.4029 1.03412,0.22061 0.44331,2.06814 0.44331,2.06814 0,0 0.37021,0.2213 0.222,1.69802 -0.14819,1.47741 -1.2561,0.88592 -1.2561,0.88592 1.2561,-0.36822 0.7377,-2.06753 0.7377,-2.06753 -0.7377,-0.4426 -0.95961,-1.25542 -0.95961,-2.21573 0,-0.95902 0.7397,-2.21502 1.77242,-2.28954 1.03543,-0.0737 1.40294,0.88732 1.40294,0.88732 0,0 0.37019,-0.8128 1.4029,-0.8128 1.03342,0 1.33053,1.1809 1.33053,1.1809 0,0 0.2957,-1.54979 1.6242,-1.47601 1.32923,0.0731 1.47673,1.18161 1.47673,1.18161 0,0 0.59151,-0.8128 1.69863,-0.96102 1.10789,-0.14749 1.32991,0.96102 0.88591,2.36333 -0.44262,1.40422 -1.77102,2.14194 -1.77102,2.14194 0.66381,0.51771 0.29429,1.77311 0.29429,1.77311 0.96031,-0.0738 1.03411,-1.77311 1.03411,-1.77311 3.17604,1.9199 -0.81282,4.20875 -0.81282,4.20875 l 0.22202,0.37021 C 36.11275,8.9371 36.55806,9.3804 36.55806,9.3804 37.88727,7.23909 41.2846,7.53488 41.2846,7.53488 c 0.07311,0.44332 0,1.84552 0,1.84552 1.54974,-0.88591 2.87965,-0.36821 2.87965,-0.36821 0.0724,1.47742 -1.32991,2.51084 -1.32991,2.51084 0.44329,0.0745 2.58392,-0.44259 2.58392,-0.44259 -0.2206,1.91861 -1.91861,2.65763 -1.91861,2.65763 0,0 1.54971,0.07449 2.14123,0.07449 0.59079,0 0.3702,0.22061 0.3702,0.22061 0,0.8134 -1.92063,2.06883 -1.92063,2.06883 h 3.17605 c -0.1482,0.5908 -1.40362,1.62351 -1.40362,1.62351 0,0 3.10024,-1.18021 3.32222,-0.44249 0.22272,0.73901 -2.215,2.73273 -3.91304,3.10292 -1.69931,0.36812 -3.47114,-0.2964 -3.47114,-0.2964 -0.96102,0.2964 0.14689,0.51633 0.14689,0.51633 1.99373,0.59079 5.09669,-0.44263 5.83439,-0.66394 0.73971,-0.22199 4.94845,-1.10781 4.94845,-0.22199 0,0.88593 -4.06193,2.51083 -4.06193,2.51083 3.32364,-0.51641 5.02095,-0.1468 5.02095,-0.1468 -1.62361,-0.14832 -4.13434,0.295 -5.38976,0.6645 -1.25541,0.36953 -3.39665,0.95972 -4.50456,0.51711 -1.10852,-0.4433 -0.7404,-1.32993 0.2951,-1.40363 1.03411,-0.07379 2.21503,-0.22059 2.21503,-0.22059 3.54555,-0.5184 5.09538,-1.69943 5.09538,-1.69943 -2.28885,-0.4432 -5.09538,0.81213 -7.01602,1.03413 -1.92001,0.2206 -3.69244,-0.07382 -3.83934,-0.73831 -0.1488,-0.6653 1.03342,-0.51781 1.03342,-0.51781 5.46558,0.3696 6.86848,-2.36255 6.86848,-2.36255 -0.8865,-0.14747 -2.58452,0.81282 -3.91363,1.10722 -1.33122,0.29502 -3.17606,0.36951 -3.69387,-0.14759 -0.51629,-0.517 0.22272,-0.66451 0.22272,-0.66451 3.54415,0.36952 4.65204,-1.25611 4.65204,-1.25611 -0.37019,0 -1.55041,-0.1468 -2.73212,0.0738 -1.18162,0.2226 -2.21634,-0.1462 -2.21634,-0.1462 2.80655,-0.44332 4.65206,-2.14263 4.65206,-2.14263 -1.03342,-0.22062 -2.2888,0.222 -3.54494,0.3695 -1.25401,0.14821 -1.03342,-0.1475 -1.03342,-0.1475 3.61864,-1.55051 3.69387,-2.73284 3.69387,-2.73284 -0.51782,0 -2.21575,0.51712 -3.24917,0.666 -1.0341,0.14681 -1.5525,-0.22268 -1.5525,-0.22268 3.91574,-1.40363 3.69306,-2.80654 3.69306,-2.80654 -0.88523,-0.14751 -1.62424,0.2206 -2.51076,0.59079 -0.8859,0.36882 -1.40431,0.29512 -1.40431,0.29512 1.62632,-1.84624 0.66661,-2.28953 0.66661,-2.28953 -2.51143,0.36951 -3.25045,1.62422 -3.25045,1.62422 2.43703,1.25612 1.69794,3.54555 1.69794,3.54555 2.43843,3.25054 0,5.09675 0,5.09675 0.14819,1.18161 -0.66322,1.84554 -0.66322,1.84554 0,0.4433 2.65834,4.57826 6.49757,6.42518 3.84137,1.84623 9.74954,1.03481 12.25958,-0.29512 2.51082,-1.3298 1.77251,-2.06743 0.0745,-2.06743 -1.69933,0 -4.65346,1.32842 -4.65346,1.32842 0.59149,-0.59079 6.05568,-3.02783 6.57339,-0.8852 0.51639,2.14063 -8.56712,5.24287 -14.32771,2.95414"
               style="fill:#000000;fill-opacity:1;fill-rule:nonzero;stroke:#000000;stroke-width:0.3985;stroke-linecap:butt;stroke-linejoin:miter;stroke-miterlimit:10;stroke-dasharray:none;stroke-opacity:1"
               id="path32" /><path
               d="m 54.8972,21.98558 c 0,0 -2.21574,2.3141 -6.2531,2.70822 0,0 -1.3305,0.0983 -2.70742,0 -1.37972,-0.09979 -1.87152,0.3934 -0.83811,1.034 1.03411,0.64003 3.69315,0.29512 3.69315,0.29512 0,0 -1.37903,0 -1.37903,-0.3449 0,0 2.90555,0.39341 5.11989,-0.98422 2.21712,-1.37971 3.10302,-2.75743 2.36462,-2.70822"
               style="fill:#000000;fill-opacity:1;fill-rule:nonzero;stroke:#000000;stroke-width:0.3985;stroke-linecap:butt;stroke-linejoin:miter;stroke-miterlimit:10;stroke-dasharray:none;stroke-opacity:1"
               id="path34" /></g></g></g></g></g></svg>
