<?xml version="1.0" encoding="UTF-8" standalone="no"?>
<svg
   xmlns:dc="http://purl.org/dc/elements/1.1/"
   xmlns:cc="http://creativecommons.org/ns#"
   xmlns:rdf="http://www.w3.org/1999/02/22-rdf-syntax-ns#"
   xmlns:svg="http://www.w3.org/2000/svg"
   xmlns="http://www.w3.org/2000/svg"
   xmlns:sodipodi="http://sodipodi.sourceforge.net/DTD/sodipodi-0.dtd"
   xmlns:inkscape="http://www.inkscape.org/namespaces/inkscape"
   version="1.1"
   id="svg2"
   xml:space="preserve"
   width="65.013336"
   height="39.653332"
   viewBox="0 0 65.013336 39.653332"
   sodipodi:docname="vectorian106.pdf"><metadata
     id="metadata8"><rdf:RDF><cc:Work
         rdf:about=""><dc:format>image/svg+xml</dc:format><dc:type
           rdf:resource="http://purl.org/dc/dcmitype/StillImage" /></cc:Work></rdf:RDF></metadata><defs
     id="defs6" /><sodipodi:namedview
     pagecolor="#ffffff"
     bordercolor="#666666"
     borderopacity="1"
     objecttolerance="10"
     gridtolerance="10"
     guidetolerance="10"
     inkscape:pageopacity="0"
     inkscape:pageshadow="2"
     inkscape:window-width="640"
     inkscape:window-height="480"
     id="namedview4" /><g
     id="g10"
     inkscape:groupmode="layer"
     inkscape:label="vectorian106"
     transform="matrix(1.3333333,0,0,-1.3333333,0,39.653333)"><g
       id="g12"
       transform="translate(72,-42.262)"><g
         id="g14"
         transform="translate(-71.18,42.308)"><g
           id="g16"><g
             id="g18"><path
               d="m 12.71904,15.01918 -0.19739,-0.49179 c 0,0 -2.95345,-1.18164 -4.87405,-3.10156 L 7.00827,11.37662 c 0,0 1.57434,1.92064 5.71077,3.64256"
               style="fill:#000000;fill-opacity:1;fill-rule:nonzero;stroke:#000000;stroke-width:0.3985;stroke-linecap:butt;stroke-linejoin:miter;stroke-miterlimit:10;stroke-dasharray:none;stroke-opacity:1"
               id="path20" /><path
               d="m 4.59514,4.53273 c 0,-0.43509 -0.35379,-0.78751 -0.78751,-0.78751 -0.4358,0 -0.78891,0.35242 -0.78891,0.78751 0,0.43584 0.35311,0.78754 0.78891,0.78754 0.43372,0 0.78751,-0.3517 0.78751,-0.78754"
               style="fill:#000000;fill-opacity:1;fill-rule:nonzero;stroke:#000000;stroke-width:0.3985;stroke-linecap:butt;stroke-linejoin:miter;stroke-miterlimit:10;stroke-dasharray:none;stroke-opacity:1"
               id="path22" /><path
               d="m 22.71298,17.87563 c 0,0 -3.15144,1.13101 -4.52907,5.12054 0,0 -0.3443,0.78753 0.04911,0.93443 0.39478,0.1482 0.34501,-0.4918 0.54101,-1.03341 0.19741,-0.54232 0.49312,-2.56005 3.93895,-5.02156"
               style="fill:#000000;fill-opacity:1;fill-rule:nonzero;stroke:#000000;stroke-width:0.3985;stroke-linecap:butt;stroke-linejoin:miter;stroke-miterlimit:10;stroke-dasharray:none;stroke-opacity:1"
               id="path24" /><path
               d="m 24.23889,17.4815 c 0,0 -2.26353,1.13174 -3.59344,3.74087 -1.3291,2.61053 -0.44391,2.75744 -0.1967,2.51152 0.24589,-0.2459 0.0984,-3.59415 3.79014,-6.25239"
               style="fill:#000000;fill-opacity:1;fill-rule:nonzero;stroke:#000000;stroke-width:0.3985;stroke-linecap:butt;stroke-linejoin:miter;stroke-miterlimit:10;stroke-dasharray:none;stroke-opacity:1"
               id="path26" /><path
               d="m 26.35692,16.93982 c 0,0 -3.79285,1.82161 -4.23406,4.77574 0,0 -0.29509,1.62421 0,1.82092 0.29511,0.19741 0.54091,0.099 0.54091,-0.68849 0,-0.78752 -0.0997,-3.24846 3.69315,-5.90817"
               style="fill:#000000;fill-opacity:1;fill-rule:nonzero;stroke:#000000;stroke-width:0.3985;stroke-linecap:butt;stroke-linejoin:miter;stroke-miterlimit:10;stroke-dasharray:none;stroke-opacity:1"
               id="path28" /><path
               d="m 27.53853,16.4972 c 0,0 -2.80582,1.37902 -3.59474,5.16917 0,0 -0.295,1.28003 0,1.28003 0.2951,0 0.3443,-0.19611 0.68991,-1.57514 0.3442,-1.37762 0.64131,-2.80723 2.90483,-4.87406"
               style="fill:#000000;fill-opacity:1;fill-rule:nonzero;stroke:#000000;stroke-width:0.3985;stroke-linecap:butt;stroke-linejoin:miter;stroke-miterlimit:10;stroke-dasharray:none;stroke-opacity:1"
               id="path30" /><path
               d="m 30.88669,18.46643 c 0,0 0.44261,1.27989 -0.14821,2.06743 -0.69659,0.9303 -2.95473,0.3941 -2.95473,0.3941 0,0 1.77242,0.73841 3.15084,1.82233 0,0 1.96983,0.24588 2.46291,-0.73901 0.49183,-0.98423 -0.8381,-2.85575 -2.51081,-3.54485 m 6.30159,3.88844 c -1.18164,-0.59021 -1.77313,0 -0.54163,0.88721 1.23012,0.88591 2.16583,1.18162 3.49506,1.18162 0,0 -1.77184,-1.4773 -2.95343,-2.06883 m -1.27994,1.32983 c -1.52731,-0.78751 -0.9856,1.82162 2.41173,3.19993 0,0 -0.88591,-2.41173 -2.41173,-3.19993 m 7.77751,-0.49253 c -0.04851,0.88663 -2.26423,1.52594 -2.26423,1.52594 2.36332,3.25055 1.72403,4.43214 0.19741,4.03805 -1.52653,-0.3935 -2.51144,-1.08332 -2.51144,-1.08332 -0.3934,1.67413 -1.96983,2.01973 -1.96983,2.01973 l -0.2452,-0.44472 c 1.32914,0.05061 1.72251,-1.77242 1.72251,-1.77242 -0.6386,-0.24519 -2.26412,-0.9842 -3.29822,-2.31403 -1.03342,-1.3285 -1.23012,-2.75742 0.93501,-1.7226 2.16721,1.0341 2.95473,3.93893 2.95473,3.93893 1.47673,0.88522 3.88986,1.96924 3.15085,0.0977 C 41.61903,25.6053 40.68332,24.867 40.68332,24.867 c 0,0 -2.21504,-0.0499 -3.83997,-1.13311 -2.08183,-1.38721 -1.37831,-2.26422 0.14751,-1.82161 1.52733,0.44259 3.84064,2.36322 3.84064,2.36322 1.03271,0.1482 2.65905,-0.5908 2.36335,-1.18161 -0.29652,-0.59012 -0.54171,-0.59012 -3.93907,-1.08261 -3.39734,-0.49242 -6.00576,-2.21643 -6.00576,-2.21643 2.31332,3.79144 -1.82164,3.29904 -1.82164,3.29904 2.11604,1.42752 4.77366,4.43144 4.77366,4.43144 l -0.68849,0.04921 c -3.10234,-4.48065 -9.94484,-7.6315 -9.94484,-7.6315 l 0.19672,-0.14819 c 1.82161,0.8381 4.13633,1.47741 4.62745,0.34489 0.49381,-1.13242 -0.78682,-2.90344 -0.78682,-2.90344 l 0.44191,-0.05059 c -0.4918,-0.39411 -0.78752,-0.78753 -0.78752,-0.78753 l 0.34491,-0.29508 c 3.49643,3.74163 8.71471,4.77576 11.07796,5.21836 2.36322,0.4432 3.05313,0.98491 3.00253,1.87071"
               style="fill:#000000;fill-opacity:1;fill-rule:nonzero;stroke:#000000;stroke-width:0.3985;stroke-linecap:butt;stroke-linejoin:miter;stroke-miterlimit:10;stroke-dasharray:none;stroke-opacity:1"
               id="path32" /><path
               d="m 34.33192,3.20354 c 0,0 -2.31413,0.9351 -6.44847,-0.98552 0,0 -0.93641,-0.19541 -0.73901,0.54229 0.1967,0.73832 4.33106,1.57503 7.18748,0.44323"
               style="fill:#000000;fill-opacity:1;fill-rule:nonzero;stroke:#000000;stroke-width:0.3985;stroke-linecap:butt;stroke-linejoin:miter;stroke-miterlimit:10;stroke-dasharray:none;stroke-opacity:1"
               id="path34" /><path
               d="m 32.0185,4.13864 c 0,0 -3.74155,0.1967 -5.07076,-0.34491 -1.32984,-0.541 -2.36325,-0.64 -1.77242,0.1482 0.59011,0.78752 4.18485,1.08393 6.84318,0.19671"
               style="fill:#000000;fill-opacity:1;fill-rule:nonzero;stroke:#000000;stroke-width:0.3985;stroke-linecap:butt;stroke-linejoin:miter;stroke-miterlimit:10;stroke-dasharray:none;stroke-opacity:1"
               id="path36" /><path
               d="m 29.36017,5.32027 c 0,0 -2.90425,0.6898 -5.80979,-0.98493 0,0 -0.6905,-0.2944 -0.8367,0.2964 -0.14891,0.59081 3.84064,1.91932 6.64649,0.68853"
               style="fill:#000000;fill-opacity:1;fill-rule:nonzero;stroke:#000000;stroke-width:0.3985;stroke-linecap:butt;stroke-linejoin:miter;stroke-miterlimit:10;stroke-dasharray:none;stroke-opacity:1"
               id="path38" /><path
               d="m 27.19293,6.69928 c 0,0 -3.39662,0.29579 -5.51336,-0.93571 0,0 -0.83741,-0.04851 -0.49241,0.54159 0.34349,0.59082 3.00322,1.67484 6.00577,0.39412"
               style="fill:#000000;fill-opacity:1;fill-rule:nonzero;stroke:#000000;stroke-width:0.3985;stroke-linecap:butt;stroke-linejoin:miter;stroke-miterlimit:10;stroke-dasharray:none;stroke-opacity:1"
               id="path40" /><path
               d="m 10.30661,2.0711 c 0,0 5.31598,0.64004 5.61238,-0.1475 0.295,-0.7882 -0.68991,-0.6892 -1.4774,-0.4932 -0.78893,0.19811 -3.19927,0.6407 -4.13498,0.6407"
               style="fill:#000000;fill-opacity:1;fill-rule:nonzero;stroke:#000000;stroke-width:0.3985;stroke-linecap:butt;stroke-linejoin:miter;stroke-miterlimit:10;stroke-dasharray:none;stroke-opacity:1"
               id="path42" /><path
               d="m 11.63574,3.05603 c 0,0 3.15145,0.68919 4.77506,0.7377 1.62552,0.05049 1.4773,-0.98361 0.64059,-0.98361 -0.83671,0 -2.2642,0.49181 -5.41565,0.24591"
               style="fill:#000000;fill-opacity:1;fill-rule:nonzero;stroke:#000000;stroke-width:0.3985;stroke-linecap:butt;stroke-linejoin:miter;stroke-miterlimit:10;stroke-dasharray:none;stroke-opacity:1"
               id="path44" /><path
               d="m 13.75246,4.43503 c 0,0 3.83994,1.28003 5.07206,1.42753 1.23012,0.1482 1.47672,-0.54229 0.98362,-0.98492 C 19.31635,4.43503 17.1983,5.07506 13.75246,4.43503"
               style="fill:#000000;fill-opacity:1;fill-rule:nonzero;stroke:#000000;stroke-width:0.3985;stroke-linecap:butt;stroke-linejoin:miter;stroke-miterlimit:10;stroke-dasharray:none;stroke-opacity:1"
               id="path46" /><path
               d="m 41.59651,3.78214 c -0.1113,-0.20221 -0.4337,-0.24051 -0.71991,-0.08411 -0.28549,0.15651 -0.42819,0.4474 -0.3176,0.651 0.11202,0.20212 0.43302,0.2404 0.71992,0.08401 0.2862,-0.15712 0.42691,-0.44741 0.31759,-0.6509"
               style="fill:#000000;fill-opacity:1;fill-rule:nonzero;stroke:#000000;stroke-width:0.3985;stroke-linecap:butt;stroke-linejoin:miter;stroke-miterlimit:10;stroke-dasharray:none;stroke-opacity:1"
               id="path48" /><path
               d="M 42.01251,2.51442 C 40.7332,2.95702 38.76338,4.82915 38.2217,5.07506 37.68007,5.32027 37.43416,4.58194 37.92667,4.13864 38.41907,3.69603 39.6991,2.90851 40.8315,1.67772 c 0,0 -2.90483,0.88591 -5.02294,3.00322 -2.11593,2.11734 -0.44192,5.02156 4.33315,2.75664 0,0 1.5272,-1.23012 2.90483,-3.49565 1.3784,-2.26421 0.24591,-1.87012 -1.03403,-1.42751 m -7.23797,2.16652 c 0,0 -2.21514,1.08263 -2.75675,3.74165 -0.54159,2.65825 5.21968,3.39734 7.92851,-0.44259 0,0 -2.31543,0.9842 -4.23605,0.44259 C 33.79163,7.88087 34.03682,5.56757 34.77454,4.68094 M 28.71947,9.8999 c -0.59084,2.60985 2.47123,3.96295 5.12066,2.95345 2.06751,-0.78762 3.15013,-2.26422 3.15013,-2.26422 0,0 -2.95344,1.2799 -4.87336,-0.4433 -1.92073,-1.72324 0.1973,-4.57826 0.1973,-4.57826 0,0 -3.00384,1.7225 -3.59473,4.33233 m -3.39797,0.64002 c -1.8216,2.75734 -0.54101,4.23405 0.93643,4.47996 0.7287,0.1216 3.29824,0.68981 6.84386,-1.57573 0,0 -3.34822,0.54161 -4.57834,-1.08261 -1.2321,-1.62562 -0.49241,-3.49644 0.93512,-5.21826 0,0 -2.31483,0.6393 -4.13707,3.39664 m -3.98614,2.11673 c -0.9856,2.16652 0.097,5.61306 7.58149,2.80585 0,0 -3.00323,0.64129 -4.43075,-1.03342 -1.42882,-1.67345 -0.7404,-3.49504 1.37701,-6.00649 0,0 -3.54493,2.06741 -4.52775,4.23406 M 10.89603,4.23764 C 9.5184,3.15443 7.20427,1.2351 4.74205,1.0869 c 0,0 0.3941,0.73761 1.5265,1.72322 C 7.40097,3.79443 8.78,4.82915 8.82849,5.07506 8.87839,5.32027 7.89348,5.32027 7.5492,5.12357 7.20427,4.92685 2.08371,0.7911 1.1971,0.93939 c 0,0 -0.78821,-0.24659 -0.3941,1.27922 0.3941,1.52661 1.47741,3.15084 4.08654,4.82556 2.60985,1.67412 5.46556,2.70824 7.23799,2.01833 1.77314,-0.68842 0.14821,-3.74223 -1.2315,-4.82486 M 43.78494,3.49931 c -0.83671,2.26426 -7.53308,10.09305 -16.24641,12.99789 0,0 -10.14221,2.95414 -14.18018,5.12066 -4.03665,2.16654 -7.08909,5.90747 -7.82881,7.03989 0,0 -0.68849,0.59082 -0.88519,-0.29509 -0.19742,-0.88652 0.64,-2.90554 0.64,-2.90554 0,0 -0.5423,0.19739 -1.37842,0.24658 0,0 1.32854,-0.34428 2.11673,-1.3298 0.78752,-0.98361 2.06824,-2.16524 2.55995,-2.26422 0.49179,-0.0984 1.084,0.295 0.68919,0.59079 0,0 -0.44331,-0.04919 -0.78681,-0.04919 0,0 -1.52662,1.18231 -1.77451,1.57571 0,0 0.3463,-0.24718 1.183,-0.1967 0,0 -1.52661,0.34361 -2.16593,1.42683 -0.6399,1.084 -0.8865,2.85573 -0.54229,2.85573 0.34428,0 0.69059,-1.08261 3.00323,-3.24915 2.31341,-2.16651 5.56397,-4.62884 11.96456,-6.54817 0,0 4.38085,-1.42753 5.02227,-1.57501 0,0 -2.80655,0.59079 -4.28466,-0.68982 -1.47591,-1.28001 -0.68842,-3.00325 -0.39409,-3.49507 0,0 -3.44585,2.16655 -4.13427,4.18489 -0.68922,2.01831 3.24913,1.32919 3.24913,1.32919 0,0 -0.78761,0.54232 -1.96992,0.54232 -1.18091,0 -3.64255,-0.64142 -1.08321,-3.44725 0,0 -1.47671,0.68982 -2.75735,1.96912 -1.28,1.28002 -0.7876,2.65974 0.39342,2.46163 0,0 -0.68781,0.49251 -1.32921,-0.24658 -0.63933,-0.73692 0.14819,-2.46095 0.29649,-2.60843 0.14819,-0.14822 -6.05638,4.57834 -12.50615,3.05312 0,0 0.7397,2.65764 3.44655,2.26423 0,0 1.57571,-1.23082 2.75733,-1.67483 1.18161,-0.4426 3.34814,-0.0976 1.62561,1.08401 0,0 0.49171,-0.345 0,-0.73909 -0.4932,-0.3941 -2.31482,0.98432 -2.90563,1.32991 0,0 0.5423,-0.04921 1.28002,-0.04921 0,0 -3.19996,0.58942 -5.31597,3.59406 0,0 0.58881,0.04851 1.0334,0.04851 0,0 -0.78821,0.34561 -1.77381,0.34561 0,0 1.42892,-2.70814 2.80723,-3.44655 0,0 -2.90553,0.09841 -3.64322,-3.44655 0,0 2.95401,0.7876 7.87726,-0.59082 4.92328,-1.37902 9.05894,-5.85957 11.96316,-7.13888 0,0 -1.2301,-3.64255 -4.33175,-4.97306 0,0 1.57504,1.67402 1.52652,4.08574 -0.04979,2.41243 -6.25298,2.11812 -12.11266,-1.96843 0,0 4.38226,2.51015 7.2872,3.05245 2.90485,0.54089 6.15398,-0.34491 2.16652,-5.75998 0,0 -0.78819,-0.83672 -1.52521,-1.08391 0,0 -0.34629,0 0.04711,0.64072 0.39409,0.63989 1.6748,3.24913 -0.29431,3.93754 -1.96993,0.6906 -7.08908,-0.739 -10.48714,-4.08586 0,0 1.82222,3.05245 3.15076,4.18495 0,0 -2.21575,-1.18161 -4.13567,-5.41565 C -0.8205,-0.04549 0.607,0.20029 1.5905,0.39699 2.57681,0.59378 3.01872,0.9878 3.70793,1.4311 c 0.69051,0.4433 1.72322,1.28072 2.06813,1.37902 0,0 -0.836,-1.1324 -2.46153,-2.41313 0,0 -0.0984,-0.44248 0.68982,-0.3934 0.78749,0.04989 1.0833,0.2951 1.8715,0.83741 0,0 0.68912,0.2459 0.98353,-0.099 0,0 3.88984,1.67472 8.1239,4.57827 4.23405,2.90551 6.49827,4.57963 6.49827,4.57963 0,0 11.76847,-7.04059 20.48247,-9.45302 0,0 0.09831,0.54092 -0.6414,1.28003 -0.7376,0.73902 -1.62352,1.37831 -3.10092,2.46164 0,0 -0.09763,0.5416 0.09837,0.39339 0.19812,-0.14691 3.20067,-2.26422 4.23477,-2.75743 1.03401,-0.49171 2.06743,-0.58941 1.2301,1.6748"
               style="fill:#000000;fill-opacity:1;fill-rule:nonzero;stroke:#000000;stroke-width:0.3985;stroke-linecap:butt;stroke-linejoin:miter;stroke-miterlimit:10;stroke-dasharray:none;stroke-opacity:1"
               id="path50" /></g></g></g></g></g></svg>
