<?xml version="1.0" encoding="UTF-8" standalone="no"?>
<svg
   xmlns:dc="http://purl.org/dc/elements/1.1/"
   xmlns:cc="http://creativecommons.org/ns#"
   xmlns:rdf="http://www.w3.org/1999/02/22-rdf-syntax-ns#"
   xmlns:svg="http://www.w3.org/2000/svg"
   xmlns="http://www.w3.org/2000/svg"
   xmlns:sodipodi="http://sodipodi.sourceforge.net/DTD/sodipodi-0.dtd"
   xmlns:inkscape="http://www.inkscape.org/namespaces/inkscape"
   version="1.1"
   id="svg2"
   xml:space="preserve"
   width="109.42667"
   height="100.2"
   viewBox="0 0 109.42667 100.2"
   sodipodi:docname="vectorian024.pdf"><metadata
     id="metadata8"><rdf:RDF><cc:Work
         rdf:about=""><dc:format>image/svg+xml</dc:format><dc:type
           rdf:resource="http://purl.org/dc/dcmitype/StillImage" /></cc:Work></rdf:RDF></metadata><defs
     id="defs6"><clipPath
       clipPathUnits="userSpaceOnUse"
       id="clipPath24"><path
         d="M -0.2,-0.24998 H 78.55099 V 74.90096 H -0.2 Z"
         id="path22" /></clipPath></defs><sodipodi:namedview
     pagecolor="#ffffff"
     bordercolor="#666666"
     borderopacity="1"
     objecttolerance="10"
     gridtolerance="10"
     guidetolerance="10"
     inkscape:pageopacity="0"
     inkscape:pageshadow="2"
     inkscape:window-width="640"
     inkscape:window-height="480"
     id="namedview4" /><g
     id="g10"
     inkscape:groupmode="layer"
     inkscape:label="vectorian024"
     transform="matrix(1.3333333,0,0,-1.3333333,0,100.2)"><g
       id="g12"
       transform="translate(72,3.15)"><g
         id="g14"
         transform="translate(-71.8,-2.9)"><g
           id="g16"><g
             id="g18"><g
               id="g20"
               clip-path="url(#clipPath24)"><path
                 d="m 30.58539,60.86177 c 4.32005,-0.48001 5.03845,-2.64004 3.84004,-4.07846 -1.20001,-1.44161 -1.92001,-3.36163 -1.92001,-3.36163 -1.67844,-3.84006 0.72,-7.6801 5.99846,-8.40012 5.28007,-0.72 9.84173,4.32007 7.92331,11.51856 -1.92162,7.20008 -9.36171,9.12332 -12.24177,9.60012 -2.88005,0.4816 -2.88005,1.44323 -2.88005,1.44323 -0.24157,2.39842 8.87853,2.87843 18.72185,-1.44323 9.83855,-4.31844 10.79856,-14.63859 10.55855,-17.52023 -0.24001,-2.87843 -1.68002,-2.63843 -4.32166,-3.11842 -2.64004,-0.48003 -5.52008,-3.12166 -5.03845,-9.36013 0.48,-6.23687 8.40169,-7.20011 8.40169,-7.20011 13.43698,0 14.877,13.20019 13.20016,21.12028 -1.68161,7.92171 -6.00328,12.24016 -6.00328,12.24016 0,1.20003 3.60007,0.48001 3.60007,0.48001 2.88162,0 6.00327,1.44 6.00327,6.48007 0,5.04328 -6.00327,4.80008 -6.00327,4.80008 0,-3.36005 -2.16003,-5.99847 -6.48009,-5.99847 -4.32005,0 -7.1985,1.6784 -7.1985,1.6784 C 46.18398,76.22197 28.18535,78.142 13.06676,63.98021 -2.05342,49.82164 0.10658,36.86305 0.10658,36.86305 7.7851,63.98021 26.26372,61.34018 30.58539,60.86177 Z"
                 style="fill:#000000;fill-opacity:1;fill-rule:nonzero;stroke:#000000;stroke-width:0.3985;stroke-linecap:butt;stroke-linejoin:miter;stroke-miterlimit:10;stroke-dasharray:none;stroke-opacity:1"
                 id="path26" /><path
                 d="M 78.23878,38.34627 C 70.5587,10.94272 52.07686,13.60837 47.75839,14.09477 c -4.32004,0.4832 -5.04165,2.66883 -3.84004,4.12326 1.19841,1.45601 1.91843,3.39524 1.91843,3.39524 1.68002,3.88163 -0.72002,7.7601 -5.99689,8.48971 C 34.55823,30.82938 30.10536,26.37813 32.027,19.10123 33.94543,11.82753 42.34554,9.5075 45.22398,9.0211 48.1072,8.5347 49.30562,7.58267 49.30562,7.58267 49.54562,5.15544 38.15828,4.39545 28.31653,8.7587 c -9.8385,4.36645 -10.79851,14.7954 -10.55852,17.70582 0.24002,2.90885 1.68163,2.66883 4.32005,3.15204 2.63844,0.48642 5.62728,2.37764 5.14887,8.68811 -0.48161,6.30249 -8.8817,7.67691 -8.8817,7.67691 -13.43858,0 -14.5058,-12.96977 -12.82896,-20.97148 1.68161,-8.0033 6.59047,-12.38896 6.59047,-12.38896 0,-1.2112 -4.18886,-0.46721 -4.18886,-0.46721 -2.87844,0 -5.65126,-0.2 -5.65126,-5.29286 0,-5.09127 5.99687,-5.28007 5.99687,-5.28007 0,3.39684 4.37926,7.3697 8.16331,5.28007 18.23703,-10.0817 33.90123,-9.19528 49.19904,3.60325 13.19855,11.03696 12.61294,27.88195 12.61294,27.88195 z"
                 style="fill:#000000;fill-opacity:1;fill-rule:nonzero;stroke:#000000;stroke-width:0.3985;stroke-linecap:butt;stroke-linejoin:miter;stroke-miterlimit:10;stroke-dasharray:none;stroke-opacity:1"
                 id="path28" /></g></g></g></g></g></g></svg>
