<?xml version="1.0" encoding="UTF-8" standalone="no"?>
<svg
   xmlns:dc="http://purl.org/dc/elements/1.1/"
   xmlns:cc="http://creativecommons.org/ns#"
   xmlns:rdf="http://www.w3.org/1999/02/22-rdf-syntax-ns#"
   xmlns:svg="http://www.w3.org/2000/svg"
   xmlns="http://www.w3.org/2000/svg"
   xmlns:sodipodi="http://sodipodi.sourceforge.net/DTD/sodipodi-0.dtd"
   xmlns:inkscape="http://www.inkscape.org/namespaces/inkscape"
   version="1.1"
   id="svg2"
   xml:space="preserve"
   width="604.75757"
   height="41.236626"
   viewBox="0 0 604.75757 41.236626"
   sodipodi:docname="vectorian080.pdf"><metadata
     id="metadata8"><rdf:RDF><cc:Work
         rdf:about=""><dc:format>image/svg+xml</dc:format><dc:type
           rdf:resource="http://purl.org/dc/dcmitype/StillImage" /></cc:Work></rdf:RDF></metadata><defs
     id="defs6"><clipPath
       clipPathUnits="userSpaceOnUse"
       id="clipPath28"><path
         d="M 0,0 H 453.54922 V 30.92747 H 0 Z"
         id="path26" /></clipPath></defs><sodipodi:namedview
     pagecolor="#ffffff"
     bordercolor="#666666"
     borderopacity="1"
     objecttolerance="10"
     gridtolerance="10"
     guidetolerance="10"
     inkscape:pageopacity="0"
     inkscape:pageshadow="2"
     inkscape:window-width="640"
     inkscape:window-height="480"
     id="namedview4" /><g
     id="g10"
     inkscape:groupmode="layer"
     inkscape:label="vectorian080"
     transform="matrix(1.3333333,0,0,-1.3333333,0.01263773,41.236626)"><g
       id="g12"
       transform="translate(72,-41.073)"><g
         id="g14"
         transform="translate(-72,41.073)"><g
           id="g16"><g
             id="g18"><path
               d="M 163.68799,28.48515 C 138.03258,28.48515 108.72398,16.2683 89.17113,16.2683 69.63008,16.2683 0,15.07639 0,15.07639 c 0,0 51.30484,-2.44333 89.17113,-2.44333 37.87219,0 42.76497,-12.21686 70.85171,-12.21686 28.09877,0 36.65058,13.40867 36.65058,13.40867 0,0 -7.3241,14.66028 -32.98543,14.66028 z"
               style="fill:#000000;fill-opacity:1;fill-rule:nonzero;stroke:#000000;stroke-width:0.3985;stroke-linecap:butt;stroke-linejoin:miter;stroke-miterlimit:10;stroke-dasharray:none;stroke-opacity:1"
               id="path20" /><path
               d="m 364.37808,16.2683 c -19.55295,0 -48.86743,12.21685 -74.51686,12.21685 -25.65544,0 -32.98552,-14.66028 -32.98552,-14.66028 0,0 8.5518,-13.40867 36.65058,-13.40867 28.08685,0 32.97952,12.21686 70.8518,12.21686 37.86029,0 89.17114,2.44333 89.17114,2.44333 0,0 -69.63009,1.19191 -89.17114,1.19191 z"
               style="fill:#000000;fill-opacity:1;fill-rule:nonzero;stroke:#000000;stroke-width:0.3985;stroke-linecap:butt;stroke-linejoin:miter;stroke-miterlimit:10;stroke-dasharray:none;stroke-opacity:1"
               id="path22" /><g
               id="g24"
               clip-path="url(#clipPath28)"><path
                 d="m 225.58868,30.92848 c -18.73054,0 -21.99037,-17.10361 -21.99037,-17.10361 4.88677,-8.16441 12.22286,-13.82586 22.8008,-13.82586 10.59595,0 19.54703,10.54822 19.54703,10.54822 0,0 -1.627,20.38125 -20.35746,20.38125 z"
                 style="fill:#000000;fill-opacity:1;fill-rule:nonzero;stroke:#000000;stroke-width:0.3985;stroke-linecap:butt;stroke-linejoin:miter;stroke-miterlimit:10;stroke-dasharray:none;stroke-opacity:1"
                 id="path30" /></g></g></g></g></g></g></svg>
