<?xml version="1.0" encoding="UTF-8" standalone="no"?>
<svg
   xmlns:dc="http://purl.org/dc/elements/1.1/"
   xmlns:cc="http://creativecommons.org/ns#"
   xmlns:rdf="http://www.w3.org/1999/02/22-rdf-syntax-ns#"
   xmlns:svg="http://www.w3.org/2000/svg"
   xmlns="http://www.w3.org/2000/svg"
   xmlns:sodipodi="http://sodipodi.sourceforge.net/DTD/sodipodi-0.dtd"
   xmlns:inkscape="http://www.inkscape.org/namespaces/inkscape"
   version="1.1"
   id="svg2"
   xml:space="preserve"
   width="604.99713"
   height="20.00024"
   viewBox="0 0 604.99713 20.00024"
   sodipodi:docname="vectorian088.pdf"><metadata
     id="metadata8"><rdf:RDF><cc:Work
         rdf:about=""><dc:format>image/svg+xml</dc:format><dc:type
           rdf:resource="http://purl.org/dc/dcmitype/StillImage" /></cc:Work></rdf:RDF></metadata><defs
     id="defs6"><clipPath
       clipPathUnits="userSpaceOnUse"
       id="clipPath24"><path
         d="M 0,0 H 454.00584 V 15.00018 H 0 Z"
         id="path22" /></clipPath></defs><sodipodi:namedview
     pagecolor="#ffffff"
     bordercolor="#666666"
     borderopacity="1"
     objecttolerance="10"
     gridtolerance="10"
     guidetolerance="10"
     inkscape:pageopacity="0"
     inkscape:pageshadow="2"
     inkscape:window-width="640"
     inkscape:window-height="480"
     id="namedview4" /><g
     id="g10"
     inkscape:groupmode="layer"
     inkscape:label="vectorian088"
     transform="matrix(1.3333333,0,0,-1.3333333,0,20.000239)"><g
       id="g12"
       transform="translate(72,-57)"><g
         id="g14"
         transform="translate(-72,57)"><g
           id="g16"><g
             id="g18"><g
               id="g20"
               clip-path="url(#clipPath24)"><path
                 d="m 181.62222,11.92793 c -3.05363,0 -5.52907,-2.08583 -5.59256,-4.67996 h -2.14523 c -3.46124,0 -10.18043,4.67996 -10.18043,4.67996 C 156.85461,8.3068 127.47684,7.06798 126.86491,7.04688 H 0.91528 c -0.50388,0 -0.91577,-0.413 -0.91577,-0.92122 0,-0.5082 0.41189,-0.91062 0.91577,-0.91062 h 125.73253 c 24.83963,-0.4129 38.27809,-3.26112 38.27809,-3.26112 2.66504,3.37764 8.427,4.11883 11.20645,4.24585 0.51241,-2.19173 2.77514,-3.84346 5.48987,-3.84346 3.09275,0 5.59897,2.14934 5.59897,4.78576 0,2.64704 -2.50622,4.78586 -5.59897,4.78586 z m -18.12153,-8.7563 c 0,0 -12.62416,2.84813 -23.21221,3.05994 0,0 16.28872,0.81531 22.60021,3.86465 0,0 4.48095,-2.84825 6.31367,-3.46234 0,0 -4.48085,-2.03293 -5.70167,-3.46225 z m 17.80925,0.61411 c -1.68253,0 -3.04724,1.4082 -3.04724,3.15524 0,1.74702 1.36471,3.15524 3.04724,3.15524 1.68451,0 3.04933,-1.40822 3.04933,-3.15524 0,-1.74704 -1.36482,-3.15524 -3.04933,-3.15524 z"
                 style="fill:#000000;fill-opacity:1;fill-rule:nonzero;stroke:#000000;stroke-width:0.3985;stroke-linecap:butt;stroke-linejoin:miter;stroke-miterlimit:10;stroke-dasharray:none;stroke-opacity:1"
                 id="path26" /><path
                 d="M 452.63493,7.04688 H 326.6801 c -0.60992,0.0211 -29.98758,1.25992 -36.83917,4.88105 0,0 -6.7181,-4.67996 -10.18044,-4.67996 h -2.14192 c -0.0667,2.59413 -2.54434,4.67996 -5.59477,4.67996 -3.09273,0 -5.60008,-2.13882 -5.60008,-4.78586 0,-2.63642 2.50735,-4.78576 5.60008,-4.78576 2.71582,0 4.97856,1.65173 5.49095,3.84346 2.77725,-0.12702 8.54043,-0.86821 11.20436,-4.24585 0,0 13.43736,2.84822 38.28018,3.25055 l 125.73564,0.01057 c 0.5051,0 0.9137,0.40242 0.9137,0.91062 0,0.50822 -0.4086,0.92122 -0.9137,0.92122 z M 272.234,3.78574 c -1.68244,0 -3.04824,1.4082 -3.04824,3.15524 0,1.74702 1.3658,3.15524 3.04824,3.15524 1.68353,0 3.04833,-1.40822 3.04833,-3.15524 0,-1.74704 -1.3648,-3.15524 -3.04833,-3.15524 z m 17.81233,-0.61411 c -1.22292,1.42932 -5.70377,3.46225 -5.70377,3.46225 1.83171,0.61409 6.31366,3.46234 6.31366,3.46234 6.3116,-3.04934 22.6003,-3.86465 22.6003,-3.86465 C 302.6706,6.01976 290.04633,3.17163 290.04633,3.17163 Z"
                 style="fill:#000000;fill-opacity:1;fill-rule:nonzero;stroke:#000000;stroke-width:0.3985;stroke-linecap:butt;stroke-linejoin:miter;stroke-miterlimit:10;stroke-dasharray:none;stroke-opacity:1"
                 id="path28" /><path
                 d="m 205.07382,8.0421 c 4.08277,-3.01755 12.19957,-0.99522 18.69646,1.8529 6.51478,2.84826 12.62306,4.88118 12.62306,4.88118 C 232.72668,16.0044 224.29118,11.22913 215.62486,8.6668 208.06807,6.43275 205.39464,7.84088 205.07382,8.0421 Z"
                 style="fill:#000000;fill-opacity:1;fill-rule:nonzero;stroke:#000000;stroke-width:0.3985;stroke-linecap:butt;stroke-linejoin:miter;stroke-miterlimit:10;stroke-dasharray:none;stroke-opacity:1"
                 id="path30" /><path
                 d="M 249.2198,6.58098 C 248.14929,7.65039 244.67964,8.7833 237.61415,6.43275 232.11678,4.60095 224.17577,1.3928 224.17577,1.3928 c 5.95579,-0.6141 7.4826,1.97991 15.2722,4.42585 7.0316,2.21283 9.77183,0.76233 9.77183,0.76233 z"
                 style="fill:#000000;fill-opacity:1;fill-rule:nonzero;stroke:#000000;stroke-width:0.3985;stroke-linecap:butt;stroke-linejoin:miter;stroke-miterlimit:10;stroke-dasharray:none;stroke-opacity:1"
                 id="path32" /><path
                 d="m 253.10455,14.82909 c -8.048,0.58229 -14.86888,-2.31884 -21.46318,-5.12469 L 228.78795,8.49739 C 221.92366,5.57506 212.52043,1.5728 203.89531,1.84811 c -7.87959,0.25411 -12.39757,2.31873 -12.39757,5.65397 0,2.92233 2.79735,4.61647 8.31482,5.03997 5.54396,0.43409 10.35514,-2.85875 10.40284,-2.89055 0.415,-0.2859 0.98571,-0.1906 1.27262,0.23291 0.29019,0.41301 0.18848,0.98473 -0.22652,1.27062 -0.216,0.14819 -5.37876,3.69524 -11.58876,3.21873 -8.2724,-0.6353 -10.00781,-4.08694 -10.00781,-6.87168 0,-2.62583 1.84131,-7.08339 14.17218,-7.48569 9.02841,-0.28588 18.20514,3.21875 25.22502,6.21518 l 2.85144,1.20703 c 6.3962,2.72111 13.45108,6.10936 21.05648,5.55874 8.99252,-0.6459 10.14662,-3.52583 10.14662,-5.95046 0,-0.70942 -0.269,-1.31302 -0.82269,-1.84241 -1.47713,-1.43993 -4.83779,-2.25525 -8.76912,-2.12815 -4.77516,0.13759 -8.34021,1.51403 -8.38572,1.53522 -0.4553,0.2224 -1.00381,0.0318 -1.22511,-0.42349 -0.2191,-0.45532 -0.0285,-1.00581 0.42671,-1.22823 0.20231,-0.0953 3.95255,-1.55642 9.12801,-1.71522 4.47777,-0.1377 8.2545,0.84701 10.10105,2.64693 0.9159,0.87881 1.3786,1.94824 1.3786,3.15535 0,4.72225 -3.76194,7.19989 -11.84385,7.78221 z"
                 style="fill:#000000;fill-opacity:1;fill-rule:nonzero;stroke:#000000;stroke-width:0.3985;stroke-linecap:butt;stroke-linejoin:miter;stroke-miterlimit:10;stroke-dasharray:none;stroke-opacity:1"
                 id="path34" /></g></g></g></g></g></g></svg>
