<?xml version="1.0" encoding="UTF-8" standalone="no"?>
<svg
   xmlns:dc="http://purl.org/dc/elements/1.1/"
   xmlns:cc="http://creativecommons.org/ns#"
   xmlns:rdf="http://www.w3.org/1999/02/22-rdf-syntax-ns#"
   xmlns:svg="http://www.w3.org/2000/svg"
   xmlns="http://www.w3.org/2000/svg"
   xmlns:sodipodi="http://sodipodi.sourceforge.net/DTD/sodipodi-0.dtd"
   xmlns:inkscape="http://www.inkscape.org/namespaces/inkscape"
   version="1.1"
   id="svg2"
   xml:space="preserve"
   width="96.89257"
   height="49.206078"
   viewBox="0 0 96.892571 49.206078"
   sodipodi:docname="vectorian139.pdf"><metadata
     id="metadata8"><rdf:RDF><cc:Work
         rdf:about=""><dc:format>image/svg+xml</dc:format><dc:type
           rdf:resource="http://purl.org/dc/dcmitype/StillImage" /></cc:Work></rdf:RDF></metadata><defs
     id="defs6"><clipPath
       clipPathUnits="userSpaceOnUse"
       id="clipPath24"><path
         d="M 0,0 H 72.66943 V 36.90456 H 0 Z"
         id="path22" /></clipPath></defs><sodipodi:namedview
     pagecolor="#ffffff"
     bordercolor="#666666"
     borderopacity="1"
     objecttolerance="10"
     gridtolerance="10"
     guidetolerance="10"
     inkscape:pageopacity="0"
     inkscape:pageshadow="2"
     inkscape:window-width="640"
     inkscape:window-height="480"
     id="namedview4" /><g
     id="g10"
     inkscape:groupmode="layer"
     inkscape:label="vectorian139"
     transform="matrix(1.3333333,0,0,-1.3333333,0,49.206079)"><g
       id="g12"
       transform="translate(72,-35.096)"><g
         id="g14"
         transform="translate(-72,35.096)"><g
           id="g16"><g
             id="g18"><g
               id="g20"
               clip-path="url(#clipPath24)"><path
                 d="m 36.19745,14.58946 h 1.26561 c 1.32922,-1.32501 3.69246,0.30062 5.46487,-1.91922 1.25403,-1.57101 0.59082,-3.39464 0.59082,-3.39464 -0.73762,4.57627 -5.76057,4.28257 -5.76057,4.28257 8.272,-3.69517 3.84125,-7.97771 3.84125,-7.97771 1.47602,1.62561 0.77461,3.73614 -0.44391,4.72644 -2.36324,1.91934 -4.13504,3.40146 -4.13504,3.40146 0.5901,-3.10083 3.10162,-3.25115 3.98683,-5.76466 1.12152,-3.17606 -1.91933,-6.4956 -1.91933,-6.4956 2.21575,3.68836 1.47673,5.90818 0.14821,7.5338 -1.32982,1.62563 -2.36394,3.98885 -2.36394,3.98885 0.14823,-2.36322 0.88593,-2.80724 1.62493,-6.94638 0.73901,-4.13225 -2.06822,-6.05835 -2.06822,-6.05835 0,0 1.18162,1.03818 1.18162,4.58301 0,3.54497 -1.26492,5.46418 -1.41313,7.38351 -0.14819,-1.91933 -1.41391,-3.83854 -1.41391,-7.38351 0,-3.54483 1.1817,-4.58301 1.1817,-4.58301 0,0 -2.80654,1.9261 -2.06821,6.05835 0.73902,4.13914 1.47672,4.58316 1.62491,6.94638 0,0 -1.03412,-2.36322 -2.36324,-3.98885 -1.3292,-1.62562 -2.06822,-3.84544 0.14751,-7.5338 0,0 -3.04013,3.31954 -1.91932,6.4956 0.88592,2.51351 3.39665,2.66383 3.98686,5.76466 0,0 -1.77184,-1.48212 -4.13505,-3.40146 -1.21853,-0.9903 -1.91993,-3.10083 -0.44332,-4.72644 0,0 -4.43076,4.28254 3.84067,7.97771 0,0 -5.02298,0.2937 -5.76058,-4.28257 0,0 -0.66322,1.82363 0.59149,3.39464 1.77174,2.21984 4.13495,0.59421 5.46416,1.91922 z"
                 style="fill:#000000;fill-opacity:1;fill-rule:nonzero;stroke:#000000;stroke-width:0.3985;stroke-linecap:butt;stroke-linejoin:miter;stroke-miterlimit:10;stroke-dasharray:none;stroke-opacity:1"
                 id="path26" /><path
                 d="m 0,17.84071 c 0,0 1.6966,-0.88789 5.53867,-0.14349 3.83924,0.7377 8.27139,2.87552 11.81553,3.68834 3.54557,0.81282 7.23531,0.80601 9.74942,-1.99443 2.58324,-2.87553 1.25543,-5.23876 0.59021,-5.90817 -0.666,-0.66251 -2.3639,-1.32502 -3.69314,-0.14341 -1.32912,1.18161 -0.6639,2.58184 -0.2226,2.95064 0.4446,0.36891 1.84892,0.96312 2.51285,-0.6625 0,0 0.07368,2.87554 -2.65904,3.46974 -2.73213,0.5874 -5.02156,-0.4439 -9.45374,-2.51353 -4.43076,-2.06274 -8.5665,-1.69382 -11.81564,-0.8811 0,0 3.76755,-0.81272 7.97571,0.66259 4.21014,1.47532 6.68269,2.80723 8.1232,3.25114 1.70001,0.51232 6.11437,0.84693 7.60609,-1.70071 1.25542,-2.14473 0.07449,-3.02574 0.07449,-3.02574 0,0 0.01291,1.79632 -1.7711,1.32501 -1.40433,-0.36879 -0.88652,-2.95064 0.8107,-3.17604 1.69801,-0.2186 3.32294,0.66931 3.10304,3.17604 -0.222,2.51353 -3.17604,5.02707 -6.27697,5.02707 -3.10305,0 -6.0571,-1.33191 -10.19274,-2.58863 C 7.67989,17.39671 3.76613,15.77109 0,17.84071"
                 style="fill:#000000;fill-opacity:1;fill-rule:nonzero;stroke:#000000;stroke-width:0.3985;stroke-linecap:butt;stroke-linejoin:miter;stroke-miterlimit:10;stroke-dasharray:none;stroke-opacity:1"
                 id="path28" /><path
                 d="m 24.00069,16.88449 c 0,0 -1.47731,0.88104 -3.98815,-0.30059 -2.51013,-1.18162 -5.98259,-5.02018 -11.81695,-3.17603 0,0 2.06951,-0.27321 4.80166,0.444 3.91365,1.03821 7.75429,5.02705 11.00344,3.03262"
                 style="fill:#000000;fill-opacity:1;fill-rule:nonzero;stroke:#000000;stroke-width:0.3985;stroke-linecap:butt;stroke-linejoin:miter;stroke-miterlimit:10;stroke-dasharray:none;stroke-opacity:1"
                 id="path30" /><path
                 d="m 22.96658,15.18378 c 0,0 -2.88023,0.07509 -5.31657,-2.14473 -2.43843,-2.21303 0,-3.98885 1.40222,-3.24433 0,0 -1.10791,-0.74452 -2.21643,0 -1.10652,0.7376 -0.9979,3.26484 2.43843,4.72644 2.95404,1.24993 3.69235,0.66262 3.69235,0.66262"
                 style="fill:#000000;fill-opacity:1;fill-rule:nonzero;stroke:#000000;stroke-width:0.3985;stroke-linecap:butt;stroke-linejoin:miter;stroke-miterlimit:10;stroke-dasharray:none;stroke-opacity:1"
                 id="path32" /><path
                 d="m 24.6653,13.03905 c 0,0 -2.95404,0.3005 -4.35706,-1.76903 -1.40361,-2.06952 -0.2213,-3.86594 1.25472,-3.42194 1.47812,0.44391 1.25612,2.09005 1.25612,2.09005 0,0 0.66531,-2.58864 -1.77242,-2.50675 -2.19043,0.06832 -2.30043,2.80724 -0.81282,4.35776 1.23152,1.27721 2.73345,1.61873 4.43146,1.24991"
                 style="fill:#000000;fill-opacity:1;fill-rule:nonzero;stroke:#000000;stroke-width:0.3985;stroke-linecap:butt;stroke-linejoin:miter;stroke-miterlimit:10;stroke-dasharray:none;stroke-opacity:1"
                 id="path34" /><path
                 d="m 25.18231,9.5693 c 0,0 -0.222,1.62563 1.4774,2.28814 1.69864,0.66931 2.65906,-1.62561 1.47673,-3.54496 -1.18101,-1.9192 -4.50524,-1.9192 -4.94787,0.96312 -0.4433,2.88234 2.29023,3.62005 2.29023,3.62005 0,0 -2.37083,-0.806 -1.77381,-3.62005 0.5177,-2.43843 3.61865,-2.14473 4.21077,-0.2937 0.498,1.55732 0.14689,2.58182 -0.73902,2.58182 -0.8858,0 -1.91992,-0.66249 -1.99443,-1.99442"
                 style="fill:#000000;fill-opacity:1;fill-rule:nonzero;stroke:#000000;stroke-width:0.3985;stroke-linecap:butt;stroke-linejoin:miter;stroke-miterlimit:10;stroke-dasharray:none;stroke-opacity:1"
                 id="path36" /><path
                 d="m 72.66943,17.84071 c 0,0 -1.69863,-0.88789 -5.53927,-0.14349 -3.83996,0.7377 -8.27281,2.87552 -11.81627,3.68834 -3.54624,0.81282 -7.23598,0.80601 -9.74883,-1.99443 -2.58383,-2.87553 -1.25471,-5.23876 -0.5908,-5.90817 0.66533,-0.66251 2.36324,-1.32502 3.69314,-0.14341 1.32912,1.18161 0.66452,2.58184 0.22191,2.95064 -0.44391,0.36891 -1.84753,0.96312 -2.51143,-0.6625 0,0 -0.0744,2.87554 2.65905,3.46974 2.73072,0.5874 5.02086,-0.4439 9.45231,-2.51353 4.43285,-2.06274 8.56652,-1.69382 11.81626,-0.8811 0,0 -3.76546,-0.81272 -7.97632,0.66259 -4.20874,1.47532 -6.68198,2.80723 -8.12318,3.25114 -1.69803,0.51232 -6.11368,0.84693 -7.60541,-1.70071 -1.25612,-2.14473 -0.07449,-3.02574 -0.07449,-3.02574 0,0 -0.01362,1.79632 1.77111,1.32501 1.40422,-0.36879 0.88652,-2.95064 -0.81151,-3.17604 -1.69792,-0.2186 -3.32286,0.66931 -3.10154,3.17604 0.22131,2.51353 3.17535,5.02707 6.27629,5.02707 3.10221,0 6.05706,-1.33191 10.19201,-2.58863 4.13576,-1.25682 8.05081,-2.88244 11.81697,-0.81282"
                 style="fill:#000000;fill-opacity:1;fill-rule:nonzero;stroke:#000000;stroke-width:0.3985;stroke-linecap:butt;stroke-linejoin:miter;stroke-miterlimit:10;stroke-dasharray:none;stroke-opacity:1"
                 id="path38" /><path
                 d="m 48.6674,16.88449 c 0,0 1.47733,0.88104 3.98818,-0.30059 2.51012,-1.18162 5.98186,-5.02018 11.81624,-3.17603 0,0 -2.06822,-0.27321 -4.80165,0.444 -3.91307,1.03821 -7.75431,5.02705 -11.00277,3.03262"
                 style="fill:#000000;fill-opacity:1;fill-rule:nonzero;stroke:#000000;stroke-width:0.3985;stroke-linecap:butt;stroke-linejoin:miter;stroke-miterlimit:10;stroke-dasharray:none;stroke-opacity:1"
                 id="path40" /><path
                 d="m 49.70143,15.18378 c 0,0 2.87964,0.07509 5.31737,-2.14473 2.43703,-2.21303 0,-3.98885 -1.40361,-3.24433 0,0 1.10851,-0.74452 2.21643,0 1.1078,0.7376 0.99919,3.26484 -2.43774,4.72644 -2.95475,1.24993 -3.69245,0.66262 -3.69245,0.66262"
                 style="fill:#000000;fill-opacity:1;fill-rule:nonzero;stroke:#000000;stroke-width:0.3985;stroke-linecap:butt;stroke-linejoin:miter;stroke-miterlimit:10;stroke-dasharray:none;stroke-opacity:1"
                 id="path42" /><path
                 d="m 48.0028,13.03905 c 0,0 2.95405,0.3005 4.35766,-1.76903 1.40291,-2.06952 0.22061,-3.86594 -1.25601,-3.42194 -1.47742,0.44391 -1.25472,2.09005 -1.25472,2.09005 0,0 -0.66463,-2.58864 1.77243,-2.50675 2.19042,0.06832 2.29972,2.80724 0.81211,4.35776 -1.23153,1.27721 -2.73284,1.61873 -4.43147,1.24991"
                 style="fill:#000000;fill-opacity:1;fill-rule:nonzero;stroke:#000000;stroke-width:0.3985;stroke-linecap:butt;stroke-linejoin:miter;stroke-miterlimit:10;stroke-dasharray:none;stroke-opacity:1"
                 id="path44" /><path
                 d="m 47.4857,9.5693 c 0,0 0.222,1.62563 -1.47802,2.28814 -1.69663,0.66931 -2.65833,-1.62561 -1.47603,-3.54496 1.18094,-1.9192 4.50528,-1.9192 4.94785,0.96312 0.44323,2.88234 -2.2902,3.62005 -2.2902,3.62005 0,0 2.37082,-0.806 1.77452,-3.62005 -0.51842,-2.43843 -3.61935,-2.14473 -4.21086,-0.2937 -0.49719,1.55732 -0.14749,2.58182 0.739,2.58182 0.88592,0 1.92004,-0.66249 1.99374,-1.99442"
                 style="fill:#000000;fill-opacity:1;fill-rule:nonzero;stroke:#000000;stroke-width:0.3985;stroke-linecap:butt;stroke-linejoin:miter;stroke-miterlimit:10;stroke-dasharray:none;stroke-opacity:1"
                 id="path46" /><path
                 d="m 39.9807,17.94312 c 0,0 -1.02321,0.56011 -0.98421,1.0792 0.05941,0.83332 1.36531,-0.5874 0.98421,-1.0792 m -6.71138,1.0792 c 0.03689,-0.51909 -0.98563,-1.0792 -0.98563,-1.0792 -0.3804,0.4918 0.92482,1.91252 0.98563,1.0792 m 9.72621,1.77584 c -1.37831,1.37292 -2.75733,0.98361 -2.75733,0.98361 0,0 2.71843,-0.36891 2.95333,-2.36333 0.19742,-1.67332 -1.64881,-2.02173 -2.82973,-1.42752 0,0 -0.0246,1.0314 -0.81282,1.52321 -0.78751,0.49171 -1.57501,-0.78551 0.1967,-1.87152 0,0 -0.6604,-2.36322 -3.61244,-2.16522 -2.95613,-0.198 -3.61525,2.16522 -3.61525,2.16522 1.77454,1.08601 0.98633,2.36323 0.19742,1.87152 -0.78821,-0.49181 -0.81212,-1.52321 -0.81212,-1.52321 -1.18301,-0.59421 -3.02782,-0.2458 -2.83115,1.42752 0.23433,1.99442 2.95406,2.36333 2.95406,2.36333 0,0 -1.37833,0.38931 -2.75734,-0.98361 -1.37761,-1.37972 -0.4911,-4.52846 2.85574,-3.64736 0,0 0.89272,-2.56134 4.00864,-2.56134 3.11525,0 4.00596,2.56134 4.00596,2.56134 3.34955,-0.8811 4.23467,2.26764 2.85633,3.64736"
                 style="fill:#000000;fill-opacity:1;fill-rule:nonzero;stroke:#000000;stroke-width:0.3985;stroke-linecap:butt;stroke-linejoin:miter;stroke-miterlimit:10;stroke-dasharray:none;stroke-opacity:1"
                 id="path48" /><path
                 d="m 36.70285,23.8991 c 0,0 -1.2301,-0.444 -1.67273,0.0478 z"
                 style="fill:#000000;fill-opacity:1;fill-rule:nonzero;stroke:#000000;stroke-width:0.3985;stroke-linecap:butt;stroke-linejoin:miter;stroke-miterlimit:10;stroke-dasharray:none;stroke-opacity:1"
                 id="path50" /><path
                 d="m 34.63533,25.27881 c 0,0 0.24521,-0.39621 0.98491,-0.444 0.73842,-0.04781 1.32852,0.1981 1.32852,0.1981 0,0 0.54161,-0.15031 0.54161,-0.79231 0,0 -0.49171,0.19809 -0.78821,0.19809 -0.29431,0 -0.8858,-0.19809 -1.62423,0 0,0 -0.14681,0.15019 -0.5409,-0.15029 -0.3934,-0.29371 -0.83741,-0.1912 -0.5417,0.1025 0,0 0.5417,0.0956 0.64,0.88791"
                 style="fill:#000000;fill-opacity:1;fill-rule:nonzero;stroke:#000000;stroke-width:0.3985;stroke-linecap:butt;stroke-linejoin:miter;stroke-miterlimit:10;stroke-dasharray:none;stroke-opacity:1"
                 id="path52" /><path
                 d="m 35.03012,26.75414 c 0,0 -0.099,-0.24592 0,-0.59421 0,0 1.18094,-0.44402 1.47742,0.24589 0,0 0.04712,0.30051 0.34352,0.30051 0.29581,0 0.64889,-0.42349 0.0984,-0.79231 -0.7384,-0.49181 -0.68921,-0.53962 -1.08262,-0.53962 -0.39409,0 -0.49309,0.24592 -0.83672,0.24592 -0.3456,0 -0.64069,0.3961 -0.64069,0.6898 0,0.53961 0.64069,0.44402 0.64069,0.44402"
                 style="fill:#000000;fill-opacity:1;fill-rule:nonzero;stroke:#000000;stroke-width:0.3985;stroke-linecap:butt;stroke-linejoin:miter;stroke-miterlimit:10;stroke-dasharray:none;stroke-opacity:1"
                 id="path54" /><path
                 d="m 41.42941,27.24594 c -0.88591,-0.15031 -0.83671,1.42751 1.03412,0.88791 0,0 -0.1476,-0.73772 -1.03412,-0.88791 m 1.38033,-4.52847 c -0.68981,0.53963 -1.33052,0.88793 -0.68981,1.72122 0.6393,0.84012 1.47742,2.26764 0.6393,3.64735 0,0 0.7383,0.98352 0.59082,3.24434 -0.14622,2.26762 -2.01832,5.76468 -7.2858,5.56668 -1.72532,-0.06831 -6.00718,-0.3484 -7.09109,-3.98884 -1.08191,-3.64736 0.5928,-5.02028 0.5928,-5.02028 0,0 -0.98631,-0.30051 -1.0839,-1.33191 -0.11821,-1.22942 1.27922,-2.26763 1.27922,-3.20334 0,-0.92892 -0.83661,-0.88112 -0.83661,-0.88112 0,0 -0.35182,-0.0137 -0.49321,-0.34831 -0.14681,-0.34149 0.3463,-0.34149 0.3463,-0.34149 2.90423,1.1338 1.1318,3.44246 0.4911,4.18684 -0.63931,0.73772 -0.39339,1.47533 0.54231,1.76903 0.93572,0.2937 2.65833,-1.18161 1.62423,-1.18161 -1.03412,0 -1.62423,0.7377 -1.62423,0.7377 0,0 -0.04989,-0.24589 0.68851,-0.93571 0,0 -0.29512,-0.1435 -0.1469,-0.49179 0.1469,-0.34153 1.03411,-3.59278 5.31597,-3.88646 4.28395,-0.30051 5.90887,4.23475 6.05706,4.57626 0,0 -0.09838,0.34151 -0.49179,-0.19801 -0.39412,-0.5396 -1.67472,-3.29904 -4.82617,-3.59275 h -1.5751 c -0.29503,0 -3.24986,0.88791 -4.13567,3.29905 h 0.73832 c 0.541,0 0.88592,0.2937 0.4918,0.98352 -0.39272,0.6898 -1.72264,1.18161 -1.72264,1.18161 0,0 -0.98561,2.75943 0.49252,4.67877 1.76561,2.29492 4.67736,2.26073 5.61238,2.21292 0.93502,-0.04779 5.71207,-0.38931 6.20386,-5.41637 0,0 0.29642,0.2459 -0.19739,2.06963 -0.4931,1.8236 -2.56263,3.55165 -5.85827,3.69514 -3.49504,0.14341 -5.71688,-0.84701 -6.49829,-3.10095 -0.8387,-2.41792 0.04721,-4.13914 0.04721,-4.13914 0,0 -0.2453,-0.2459 -0.63872,0.24592 -0.3947,0.49178 -1.23142,4.08443 1.18101,6.30428 2.41375,2.21303 5.46547,1.8168 6.00579,1.8168 0.54159,0 4.18626,-0.49171 5.41707,-2.45882 1.2321,-1.96711 1.37832,-3.94105 0.6898,-5.55989 0,0 -1.38031,0.38941 -1.82163,-0.4917 -0.44459,-0.8879 0.44132,-1.1885 0.98293,-0.9358 0.5423,0.24589 0.69049,0.6353 0.69049,0.6353 0,0 0.64003,-0.5396 0,-1.47542 -0.64,-0.93572 -1.57572,-1.87143 -1.18159,-2.85502 0.39408,-0.98353 1.8721,-1.52993 1.8721,-1.52993 0,0 0.2937,0.24591 -0.39409,0.7923"
                 style="fill:#000000;fill-opacity:1;fill-rule:nonzero;stroke:#000000;stroke-width:0.3985;stroke-linecap:butt;stroke-linejoin:miter;stroke-miterlimit:10;stroke-dasharray:none;stroke-opacity:1"
                 id="path56" /><path
                 d="m 37.98418,27.53966 c -0.24721,0.04777 -0.5423,0.93571 -1.28133,0.79229 0,0 0,0.3415 0.34491,0.24579 0.3456,-0.10237 0.44261,-0.24579 0.68921,-0.44389 0.24721,-0.1981 0.44331,-0.30051 0.74042,-0.30051 0,0 -0.2479,-0.3415 -0.49321,-0.29368 m -0.14881,1.22941 c 0.93572,0.05458 2.11733,-0.2937 2.11733,-0.2937 -0.78751,0.68979 -2.60913,0.78549 -2.60913,0.78549 0.83671,0.84011 2.80653,-0.53961 2.80653,-0.53961 -0.49249,1.42754 -2.21503,1.37972 -2.60843,1.08602 -0.39551,-0.2937 -0.64071,-0.444 -0.64071,-0.444 -1.084,-0.98352 -0.64071,-1.47533 -0.64071,-1.47533 0.78751,0.63521 0.93583,-0.19811 1.52663,-0.5464 0.59079,-0.34151 0.7376,0.1024 0.7376,0.1024 0.29641,0.14349 0.73971,-0.15021 0.73971,-0.15021 l 0.73771,0.3961 c -0.2452,0.83332 -2.16653,1.07924 -2.16653,1.07924"
                 style="fill:#000000;fill-opacity:1;fill-rule:nonzero;stroke:#000000;stroke-width:0.3985;stroke-linecap:butt;stroke-linejoin:miter;stroke-miterlimit:10;stroke-dasharray:none;stroke-opacity:1"
                 id="path58" /><path
                 d="m 34.73303,27.58743 c 0,0 -0.14821,0.64202 -0.3934,0.64202 -0.2459,0 -0.49251,-0.39611 -0.83601,-0.68979 -0.34562,-0.29372 -0.69051,0 -0.69051,0 0,0 0.49242,0.15017 1.08322,0.68979 0,0 -0.54092,0.0478 -0.73833,0 0,0 0,-0.2459 -0.196,-0.2459 -0.1988,0 -0.24659,0.19809 -0.24659,0.19809 0,0 -0.49249,0.09561 -0.73901,-0.24589 -0.24592,-0.34832 -0.98432,0.0478 -0.88592,0.5874 0.0983,0.54641 0.69051,1.37971 1.82163,1.48213 1.13242,0.09569 2.21501,-0.74442 2.31403,-1.37962 0,0 -0.59081,1.1338 -2.11593,1.03131 -1.52732,-0.0956 -1.57643,-1.13382 -1.57643,-1.13382 0,0 0.0983,-0.2937 0.39542,0.10251 0.29372,0.38929 1.16121,0.99722 2.36262,0.29371 0.8353,-0.49182 0.44121,-1.33194 0.44121,-1.33194"
                 style="fill:#000000;fill-opacity:1;fill-rule:nonzero;stroke:#000000;stroke-width:0.3985;stroke-linecap:butt;stroke-linejoin:miter;stroke-miterlimit:10;stroke-dasharray:none;stroke-opacity:1"
                 id="path60" /><path
                 d="m 35.89145,34.45863 c 0.29571,-1.47534 1.69733,-1.84411 3.91305,-2.65693 2.21703,-0.81282 2.06882,-2.73214 2.06882,-2.73214 0,0 0.51642,1.55053 -1.1823,2.80044 -1.69863,1.25671 -3.76617,1.1816 -4.87406,2.95744"
                 style="fill:#000000;fill-opacity:1;fill-rule:nonzero;stroke:#000000;stroke-width:0.3985;stroke-linecap:butt;stroke-linejoin:miter;stroke-miterlimit:10;stroke-dasharray:none;stroke-opacity:1"
                 id="path62" /><path
                 d="m 35.68034,34.45863 c -0.2738,-1.47534 -1.57571,-1.84411 -3.63094,-2.65693 -2.05512,-0.81282 -1.91792,-2.73214 -1.91792,-2.73214 0,0 -0.47882,1.55053 1.09562,2.80044 1.57571,1.25671 3.49504,1.1816 4.52365,2.95744"
                 style="fill:#000000;fill-opacity:1;fill-rule:nonzero;stroke:#000000;stroke-width:0.3985;stroke-linecap:butt;stroke-linejoin:miter;stroke-miterlimit:10;stroke-dasharray:none;stroke-opacity:1"
                 id="path64" /></g></g></g></g></g></g></svg>
