<?xml version="1.0" encoding="UTF-8" standalone="no"?>
<svg
   xmlns:dc="http://purl.org/dc/elements/1.1/"
   xmlns:cc="http://creativecommons.org/ns#"
   xmlns:rdf="http://www.w3.org/1999/02/22-rdf-syntax-ns#"
   xmlns:svg="http://www.w3.org/2000/svg"
   xmlns="http://www.w3.org/2000/svg"
   xmlns:sodipodi="http://sodipodi.sourceforge.net/DTD/sodipodi-0.dtd"
   xmlns:inkscape="http://www.inkscape.org/namespaces/inkscape"
   version="1.1"
   id="svg2"
   xml:space="preserve"
   width="42.466667"
   height="56.080002"
   viewBox="0 0 42.466667 56.080002"
   sodipodi:docname="vectorian175.pdf"><metadata
     id="metadata8"><rdf:RDF><cc:Work
         rdf:about=""><dc:format>image/svg+xml</dc:format><dc:type
           rdf:resource="http://purl.org/dc/dcmitype/StillImage" /></cc:Work></rdf:RDF></metadata><defs
     id="defs6"><clipPath
       clipPathUnits="userSpaceOnUse"
       id="clipPath24"><path
         d="M 0,0 H 28.53004 V 42.06181 H 0 Z"
         id="path22" /></clipPath></defs><sodipodi:namedview
     pagecolor="#ffffff"
     bordercolor="#666666"
     borderopacity="1"
     objecttolerance="10"
     gridtolerance="10"
     guidetolerance="10"
     inkscape:pageopacity="0"
     inkscape:pageshadow="2"
     inkscape:window-width="640"
     inkscape:window-height="480"
     id="namedview4" /><g
     id="g10"
     inkscape:groupmode="layer"
     inkscape:label="vectorian175"
     transform="matrix(1.3333333,0,0,-1.3333333,0,56.08)"><g
       id="g12"
       transform="translate(72,-29.939)"><g
         id="g14"
         transform="translate(-72,29.939)"><g
           id="g16"><g
             id="g18"><g
               id="g20"
               clip-path="url(#clipPath24)"><path
                 d="m 19.31883,34.19003 c 0.0396,-1.06341 2.91315,-3.62205 2.91315,-3.62205 -0.74863,4.29075 -2.95204,4.68554 -2.91315,3.62205 m -1.84962,-3.81805 c 0,0 0.11751,3.38505 -0.62971,4.48675 -0.7486,1.10302 -2.20414,-0.3142 0.62971,-4.48675 m -6.02288,0.74721 c 0,0 1.2206,2.67672 0.94462,3.81805 -0.27521,1.1427 -1.92882,-0.07851 -0.94462,-3.81805 m -5.58917,-0.433 c 0,0 2.00673,2.24431 2.32161,3.54344 0.31482,1.29842 -1.84961,1.49512 -2.32161,-3.54344 m 0.3149,3.58304 c 1.02312,1.65293 2.71565,1.65293 2.40083,-0.0396 C 8.258,32.53711 5.97466,29.82077 5.97466,29.82077 c -0.0786,-1.77112 0.70832,-4.21295 0.70832,-4.21295 2.51962,2.24371 4.33034,4.56674 4.33034,4.56674 0,0 -0.82649,2.71635 -0.31489,4.29007 0.51159,1.57501 1.8496,2.08803 2.20413,0.31619 0.3545,-1.77171 -1.22054,-4.40884 -1.22054,-4.40884 0.59084,-1.49584 2.51966,-4.33106 2.51966,-4.33106 l 2.91242,3.34674 c -3.77854,6.06118 -1.0232,7.51882 0.19741,5.66848 1.22052,-1.84963 0.66931,-5.15616 0.66931,-5.15616 1.49512,-2.24375 4.25116,-4.52776 4.25116,-4.52776 l 0.2363,3.93694 c -4.88156,3.62076 -4.13295,7.2435 -2.04703,5.78587 2.08533,-1.45693 2.32292,-4.76205 2.32292,-4.76205 2.44043,-2.12622 5.23479,-2.83524 5.23479,-2.83524 0,0 -1.33812,5.27436 -4.99977,7.9525 -3.66036,2.67673 -9.24951,4.32896 -15.1938,1.41652 C 1.84102,33.95303 1.4879,27.10434 1.4879,27.10434 c 1.73143,1.06351 3.34544,2.59822 3.34544,2.59822 0,0 0.31423,2.91314 1.33872,4.56667 m 8.4633,4.80166 c 13.7766,-1.96841 13.89468,-13.54088 13.89468,-13.54088 -2.44043,0.905 -5.23536,3.26685 -5.23536,3.26685 l -0.8264,-4.36925 c -2.83454,1.77111 -4.88156,4.56664 -4.88156,4.56664 -1.65294,-2.28401 -3.62066,-3.97585 -3.62066,-3.97585 -1.41803,1.81073 -2.75604,4.60427 -2.75604,4.60427 C 8.80849,26.47394 6.17206,24.5854 6.17206,24.5854 c -0.6694,1.29912 -1.37831,4.25115 -1.37831,4.25115 -2.16452,-1.77181 -4.80234,-3.46364 -4.80234,-3.46364 0,0 0.70828,6.37599 4.92046,10.11554 4.21223,3.73953 8.6997,3.46434 8.6997,3.46434 l 0.4719,3.10902 z"
                 style="fill:#000000;fill-opacity:1;fill-rule:nonzero;stroke:#000000;stroke-width:0.3985;stroke-linecap:butt;stroke-linejoin:miter;stroke-miterlimit:10;stroke-dasharray:none;stroke-opacity:1"
                 id="path26" /><path
                 d="m 14.12247,25.6468 0.1571,-19.16903 c 0,0 -0.55061,-6.92856 4.01546,-6.45589 0,0 1.61401,0.39412 1.57501,2.63783 C 19.83044,4.90346 17.1141,5.41565 16.3272,4.11653 15.53969,2.81741 16.681,1.2021 17.70491,1.2021 c 1.02312,0 1.49582,1.02382 0.90562,1.96984 0,0 0.07789,-1.65363 -1.02453,-1.26014 -1.1017,0.39411 -0.2356,2.79424 1.26092,2.00675 1.49512,-0.78691 0.78682,-3.73895 -1.41801,-3.46367 -2.20413,0.27522 -2.79424,3.22865 -2.67673,6.0612 0.11879,2.83513 -0.0785,19.40734 -0.0785,19.40734 z"
                 style="fill:#000000;fill-opacity:1;fill-rule:nonzero;stroke:#000000;stroke-width:0.3985;stroke-linecap:butt;stroke-linejoin:miter;stroke-miterlimit:10;stroke-dasharray:none;stroke-opacity:1"
                 id="path28" /></g></g></g></g></g></g></svg>
