<?xml version="1.0" encoding="UTF-8" standalone="no"?>
<svg
   xmlns:dc="http://purl.org/dc/elements/1.1/"
   xmlns:cc="http://creativecommons.org/ns#"
   xmlns:rdf="http://www.w3.org/1999/02/22-rdf-syntax-ns#"
   xmlns:svg="http://www.w3.org/2000/svg"
   xmlns="http://www.w3.org/2000/svg"
   xmlns:sodipodi="http://sodipodi.sourceforge.net/DTD/sodipodi-0.dtd"
   xmlns:inkscape="http://www.inkscape.org/namespaces/inkscape"
   version="1.1"
   id="svg2"
   xml:space="preserve"
   width="65.533333"
   height="39.973331"
   viewBox="0 0 65.533333 39.973331"
   sodipodi:docname="vectorian156.pdf"><metadata
     id="metadata8"><rdf:RDF><cc:Work
         rdf:about=""><dc:format>image/svg+xml</dc:format><dc:type
           rdf:resource="http://purl.org/dc/dcmitype/StillImage" /></cc:Work></rdf:RDF></metadata><defs
     id="defs6" /><sodipodi:namedview
     pagecolor="#ffffff"
     bordercolor="#666666"
     borderopacity="1"
     objecttolerance="10"
     gridtolerance="10"
     guidetolerance="10"
     inkscape:pageopacity="0"
     inkscape:pageshadow="2"
     inkscape:window-width="640"
     inkscape:window-height="480"
     id="namedview4" /><g
     id="g10"
     inkscape:groupmode="layer"
     inkscape:label="vectorian156"
     transform="matrix(1.3333333,0,0,-1.3333333,0,39.973333)"><g
       id="g12"
       transform="translate(72,-42.016)"><g
         id="g14"
         transform="translate(-71.319,42.226)"><g
           id="g16"><g
             id="g18"><path
               d="m 35.89995,9.7601 c -0.3934,0.44263 0.73901,0.5417 1.27933,0.04921 0,0 -0.88593,-0.49181 -1.27933,-0.04921 m -0.4931,1.87154 c -0.35732,0.86952 1.1331,0.54089 1.57641,0.1974 0,0 -1.23082,-1.03482 -1.57641,-0.1974 m -0.44193,2.60983 c -0.59149,0.14749 -0.39407,1.08261 1.32843,0.3934 0,0 -0.73831,-0.54161 -1.32843,-0.3934 M 6.35857,25.26952 H 7.63919 C 7.44319,24.6787 7.7369,24.6787 7.7369,24.6787 c 0,0 1.18159,0.8859 2.36391,-0.09899 0.75681,-0.62982 0.68921,-2.16594 -0.5915,-2.26423 -2.06954,-0.15983 -2.46024,1.28001 -2.46024,1.28001 0.29441,-4.85016 6.49829,-2.38854 6.05498,1.00951 -0.4521,3.46356 -4.13495,2.65763 -4.13495,2.65763 4.79955,-0.0731 3.61865,-5.02096 1.69792,-5.68547 C 8.74709,20.91187 7.935,22.09348 7.935,22.09348 c 2.88022,-0.95961 4.28384,1.9206 2.73202,3.17604 -1.55112,1.2547 -2.65893,0.36948 -2.65893,0.36948 -0.59021,0.44262 0.2957,1.10723 0.2957,1.10723 l -0.59149,0.4433 c 6.35206,2.58453 12.74514,-4.22386 15.80448,-5.24356 2.43764,-0.8121 4.87467,0.44261 8.27202,-0.51711 3.39675,-0.95962 4.43146,-2.14122 5.24295,-2.43704 0.81342,-0.29501 1.47803,-0.44319 3.25045,1.10793 1.77243,1.55111 2.95346,0.81212 3.17474,0.5177 0.22191,-0.29639 0.96103,-1.55182 -0.3689,-2.73343 -1.32911,-1.18162 -4.13635,-0.73772 -5.09527,-0.517 -0.96102,0.22189 -1.03481,0 -1.03481,0 -0.7377,1.18161 -1.92003,1.18161 -1.92003,1.18161 2.21575,-0.95972 1.40363,-3.54495 1.40363,-3.54495 -0.44322,0.222 -1.47664,0.36891 -1.84683,-0.07442 -0.3689,-0.44258 -0.1469,-0.88519 0.51771,-0.959 0.6646,-0.0737 1.55042,0.59081 1.55042,0.59081 0,0 0.95971,-0.2219 0.95971,-1.25602 0,-1.03341 -0.73912,-1.03341 -0.73912,-1.03341 0,0 -2.28872,0.517 -1.91853,-0.6646 0.36882,-1.18162 2.21436,0 2.21436,0 1.10782,-1.03412 0.0744,-1.55041 0.0744,-1.55041 -0.51633,0.51629 -2.06813,0.44259 -1.69864,-0.37023 0.36951,-0.8121 2.21573,-0.14819 2.21573,-0.14819 l 3.76545,-1.55052 1.69944,-3.91375 c 0.29428,-0.59082 0.517,-0.73901 0.81271,-0.81271 0.29507,-0.07381 -0.29571,-0.81212 -0.29571,-0.81212 l 0.59078,-0.1476 c 0,0 0.66463,1.03342 0.29583,1.18161 -0.37023,0.14762 -0.6646,0.44262 -0.6646,0.44262 -0.51773,1.32991 -1.84694,3.91376 -1.69943,4.35835 0.14828,0.44259 0.96042,-0.22189 0.96042,0.44259 0,0.66462 -0.88733,0.22202 -1.10793,-0.07438 C 41.90642,8.35649 41.68442,8.43098 41.68442,8.43098 l -3.76615,1.47735 c 0.98491,1.1817 -0.51641,2.21511 -0.51641,2.21511 0,0 0.81211,0.37021 0.81211,1.25603 0,1.2554 -1.52652,1.54979 -1.52652,1.54979 0.88591,1.18234 0.29581,2.06884 0.29581,2.06884 1.67403,0.1967 1.77243,-0.9849 3.83994,-0.7882 2.84884,0.2712 3.83996,2.36392 3.44584,3.74234 -0.39279,1.37833 -1.9685,1.77242 -3.24914,0.98492 -1.2793,-0.78752 -2.75742,-1.77253 -2.75742,-1.77253 -1.0088,-0.0252 -2.46094,0.98501 -2.46094,0.98501 -3.93964,2.60915 -9.25563,1.77243 -10.92964,1.77243 -1.67483,0 -3.15155,1.37831 -6.00717,3.15073 -2.85643,1.77243 -5.51478,3.05243 -8.07471,3.05243 -2.56002,0 -3.64254,-0.98489 -3.64254,-0.98489 L 7.7369,26.64722 C 6.55597,26.74623 6.35857,25.26952 6.35857,25.26952 M 6.26016,22.46298 C 4.38875,21.82236 5.12776,20.44395 5.12776,20.44395 l 0.4931,0.59081 c 0.2459,-0.2458 0.73771,-0.1967 0.73771,-0.1967 -0.54171,0.5908 0.04979,1.32989 0.04979,1.32989 z m 22.64839,-6.49829 c 0.1475,1.91933 1.32914,1.84493 1.69861,0.44261 0.36891,-1.40362 0.14691,-2.87965 -0.88647,-4.35766 0,0 -0.96033,1.99443 -0.81214,3.91505 m -5.09536,-4.13565 c 0,0 -0.81349,2.21503 -0.59221,4.57826 0.22202,2.36333 1.03412,3.24913 1.77383,3.24913 0.73902,0 1.87352,-1.43091 0.95961,-4.57824 -0.6645,-2.28955 -2.14123,-3.24915 -2.14123,-3.24915 m -5.98328,6.42519 c -0.07309,3.24843 1.31342,3.69174 1.99513,3.69174 0.7376,0 2.80583,-3.32295 -0.73901,-9.00981 0,0 -1.16802,1.47741 -1.25612,5.31807 M 9.1658,19.21382 c 0,0 -0.54172,0.73842 -0.1967,1.08333 0.34421,0.34349 0.73831,-0.39481 0.1967,-1.08333 m -4.48065,6.1541 c -0.4433,-0.0984 -0.34491,0.6898 0.29572,0.8367 0,0 0.14689,-0.7391 -0.29572,-0.8367 m 7.8773,-5.85829 c 0.7875,-0.4932 -0.39341,-1.32991 -1.67413,-0.88661 0,0 0.88661,1.37832 1.67413,0.88661 m 1.57502,-2.85643 c 0.83741,0.1482 0.3948,-1.23012 -1.27933,-1.23012 0,0 0.44261,1.08192 1.27933,1.23012 m 0.444,-3.15073 c -0.14818,-0.68852 -1.0833,0.04849 -1.37902,0.59079 0,0 1.52652,0.099 1.37902,-0.59079 M 44.86057,2.07951 C 44.26904,1.9327 44.34344,1.56322 44.34344,1.56322 43.75266,0.38159 42.42352,0.8979 42.42352,0.8979 l 0.36881,2.43703 c -0.6646,3.02853 -2.58452,3.54495 -2.58452,3.54495 -9.08351,1.99442 -10.11835,4.57895 -10.11835,4.57895 3.02785,3.39736 0.73902,6.42519 -0.517,6.42519 -1.25412,0 -1.47602,-1.25542 -1.18101,-3.24915 0.29582,-1.99441 1.03342,-3.02783 1.03342,-3.02783 -3.10154,-2.21574 -4.94707,-0.44261 -4.94707,-0.44261 0.95892,0.95901 2.88023,3.39664 2.51004,6.05496 -0.36882,2.65906 -1.84554,3.10167 -2.58454,2.80585 -0.68501,-0.27451 -1.77243,-0.88581 -1.91993,-3.91364 -0.14832,-3.02855 0.88652,-4.43077 0.88652,-4.43077 -0.14891,-0.5164 -0.96031,-0.73909 -0.96031,-0.73909 -2.06823,0.07448 -3.10164,1.47811 -3.10164,1.47811 2.06682,2.06683 3.24844,6.35078 1.99373,8.8608 -1.25533,2.51155 -4.80027,0.81283 -4.35695,-3.39663 0.44259,-4.21015 1.69801,-5.39037 1.69801,-5.39037 -0.88591,-1.18173 -2.87893,-1.55191 -5.24286,-0.88661 -2.36394,0.6646 -5.39178,2.06683 -7.53311,1.47601 C 3.72552,12.49365 2.69073,10.57292 2.69073,10.57292 2.07602,10.3509 2.0261,9.16931 2.0261,9.16931 L 0.9183,9.0211 c 0,0.96172 0.4433,2.58594 0.8865,2.88034 0.44262,0.2957 3.54495,1.99512 3.54495,1.99512 0.22131,0.51701 0.5915,0.59012 0.96031,0.66451 0.36882,0.0738 1.18092,-0.517 2.06825,-0.517 0.8851,0 2.65762,0.1468 3.32353,0.1468 0.6632,0 1.10651,-0.1468 1.10651,-0.1468 1.1078,-1.62422 2.14264,-1.55042 2.14264,-0.59081 0,0.96031 -1.32982,0.8114 -1.62564,0.88591 -0.29439,0.0744 -0.36879,0.66451 -0.36879,0.66451 2.29011,0.29579 2.65903,2.36334 1.18091,1.92073 -1.47672,-0.44331 -1.62352,-1.55182 -1.62352,-1.55182 -1.99443,0.66521 -1.69873,2.80713 -1.69873,2.80713 2.65904,-0.3701 2.87283,1.49522 1.54982,1.69873 -0.959,0.14679 -1.69802,-1.10782 -1.69802,-1.10782 -0.5908,-0.14761 -1.25543,0.22119 -1.25543,0.22119 0.51784,0.59091 0.36891,2.06824 -0.517,1.62563 -0.8865,-0.44391 0.07451,-1.70002 0.07451,-1.70002 0,0 -0.44331,0 -0.66531,-0.88592 C 8.08249,17.1463 7.86118,16.5542 7.63919,16.4073 7.41788,16.25978 6.97467,16.25978 6.82637,16.7762 c -0.14749,0.517 -0.5908,0.59082 -1.18091,0.73901 -0.5915,0.14751 -0.29571,0.95961 -0.29571,0.95961 -0.1476,0.961 -1.74723,5.12067 -1.74723,5.12067 C 4.78354,26.79472 1.9763,26.99214 1.2871,26.05772 0.5986,25.12201 0.9429,24.4315 0.9429,24.4315 c -0.83742,0.78821 -0.58952,2.90554 1.37901,2.90554 1.96982,0 2.36324,-1.0833 2.36324,-1.0833 -0.98492,-0.39412 -0.49181,-1.23073 0.09839,-1.13173 0.87971,0.14679 0.39401,1.52521 0.39401,1.52521 0.68921,0.59082 1.6741,0.88652 1.6741,0.88652 -1.18229,0 -2.1665,-0.4924 -2.1665,-0.4924 -0.19742,0.2957 -3.63235,1.80381 -4.52977,-0.88591 -0.83668,-2.51084 1.96913,-3.44583 1.96913,-3.44583 0.4931,0 0.39481,1.0826 0.39481,1.0826 -1.87082,0.09829 -1.18232,2.56061 0.2957,2.06742 1.47671,-0.4917 0.29442,-2.26413 0.29442,-2.26413 0.98491,-2.06754 1.96981,-5.51477 1.96981,-5.51477 -0.0997,-2.36324 1.27932,-1.96912 1.27932,-1.96912 1.67403,-1.18234 1.96981,0.6898 2.16722,1.37831 0.196,0.68981 0.68852,1.08391 0.68852,1.08391 l 1.27991,-0.3941 c -0.295,-2.95404 2.11813,-3.29894 2.11813,-3.29894 l 0.14681,-0.54161 -5.51409,0.099 c -1.27931,1.08261 -2.16582,-0.2957 -2.16582,-0.2957 0,0 -2.06823,-1.08263 -3.34755,-1.96994 C 0.45108,11.28673 0.45108,7.54509 0.45108,7.54509 l 2.26564,1.2793 c -0.39481,0.29582 0,1.08394 0,1.08394 0.68771,0.0977 0.5901,0.88589 0.5901,0.88589 1.77243,2.16653 3.05175,1.96913 4.52976,1.67413 1.47673,-0.29582 1.37773,-0.59082 5.31598,-1.57501 3.93964,-0.98501 5.71217,1.1816 5.71217,1.1816 3.10155,-2.63444 5.24286,-1.20691 5.24286,-1.20691 0,0 1.40363,-1.10793 2.73274,-0.88521 1.54572,0.2561 2.80724,1.18161 2.80724,1.18161 3.61795,-4.43216 7.53171,-3.39736 10.04313,-4.50516 1.0915,-0.4823 2.06823,-1.62561 2.36393,-2.88104 0.2937,-1.2554 0.14761,-1.91933 -0.14821,-2.95334 -0.29569,-1.03477 0.5171,-0.88658 1.32924,-0.66461 0.81271,0.22131 1.9199,1.55043 1.9199,1.55043 z"
               style="fill:#000000;fill-opacity:1;fill-rule:nonzero;stroke:#000000;stroke-width:0.3985;stroke-linecap:butt;stroke-linejoin:miter;stroke-miterlimit:10;stroke-dasharray:none;stroke-opacity:1"
               id="path20" /></g></g></g></g></g></svg>
