<?xml version="1.0" encoding="UTF-8" standalone="no"?>
<svg
   xmlns:dc="http://purl.org/dc/elements/1.1/"
   xmlns:cc="http://creativecommons.org/ns#"
   xmlns:rdf="http://www.w3.org/1999/02/22-rdf-syntax-ns#"
   xmlns:svg="http://www.w3.org/2000/svg"
   xmlns="http://www.w3.org/2000/svg"
   xmlns:sodipodi="http://sodipodi.sourceforge.net/DTD/sodipodi-0.dtd"
   xmlns:inkscape="http://www.inkscape.org/namespaces/inkscape"
   version="1.1"
   id="svg2"
   xml:space="preserve"
   width="287.09332"
   height="282.66666"
   viewBox="0 0 287.09332 282.66666"
   sodipodi:docname="vectorian064.pdf"><metadata
     id="metadata8"><rdf:RDF><cc:Work
         rdf:about=""><dc:format>image/svg+xml</dc:format><dc:type
           rdf:resource="http://purl.org/dc/dcmitype/StillImage" /></cc:Work></rdf:RDF></metadata><defs
     id="defs6"><clipPath
       clipPathUnits="userSpaceOnUse"
       id="clipPath24"><path
         d="M 0,0 H 212.00273 V 212.00273 H 0 Z"
         id="path22" /></clipPath><clipPath
       clipPathUnits="userSpaceOnUse"
       id="clipPath40"><path
         d="m 0,-3.8e-4 h 211.91632 v 211.8755 L 0,211.87512 Z"
         id="path38" /></clipPath></defs><sodipodi:namedview
     pagecolor="#ffffff"
     bordercolor="#666666"
     borderopacity="1"
     objecttolerance="10"
     gridtolerance="10"
     guidetolerance="10"
     inkscape:pageopacity="0"
     inkscape:pageshadow="2"
     inkscape:window-width="640"
     inkscape:window-height="480"
     id="namedview4" /><g
     id="g10"
     inkscape:groupmode="layer"
     inkscape:label="vectorian064"
     transform="matrix(1.3333333,0,0,-1.3333333,0,282.66667)"><g
       id="g12"
       transform="translate(72,140)"><g
         id="g14"
         transform="translate(-72,-140)"><g
           id="g16"><g
             id="g18"><g
               id="g20"
               clip-path="url(#clipPath24)"><path
                 d="m 156.5692,180.65833 c 0.3216,-1.31205 0.6672,-3.50408 0.78882,-7.04012 0.16639,-4.84804 -2.06562,-10.04813 -2.79044,-11.60013 -0.4512,-0.048 -0.91681,-0.128 -1.41443,-0.25601 -0.34399,-0.096 -0.62399,-0.256 -0.93442,-0.384 -2.28961,-0.064 -10.68011,0.25599 -11.90253,7.8721 0,0 -1.13123,-7.20009 8.52331,-11.00814 -1.26402,-2.49604 -1.25601,-5.80807 -0.3472,-8.7201 -0.74241,-0.73603 -2.08324,-1.88803 -3.28325,-1.92003 -1.76804,-0.016 -3.68326,2.08002 -3.68326,2.08002 0,0 1.16641,-5.23208 -5.69287,-13.90418 8.57771,6.97607 13.83058,5.87207 13.83058,5.87207 0,0 -2.12481,1.88802 -2.12481,3.66403 0,1.20003 1.13441,2.56005 1.8704,3.31205 2.91846,-0.87999 6.23528,-0.83199 8.71372,0.46401 3.94246,-9.60011 11.11854,-8.3841 11.11854,-8.3841 -7.63211,1.12002 -8.0641,9.52012 -8.03849,11.80815 0.1248,0.30401 0.2832,0.59201 0.3712,0.94401 0.1248,0.496 0.19201,0.96002 0.23999,1.40802 1.54243,0.75202 6.70889,3.04004 11.55536,2.94403 3.54884,-0.064 5.74408,-0.384 7.06408,-0.68801 -0.96159,-5.74406 7.0465,-9.63212 10.15373,-8.62409 3.65767,1.18401 3.06885,6.25606 -1.0608,8.72011 -3.22244,1.93602 -6.86249,1.21602 -8.31371,0.80002 -1.28961,0.43199 -3.74244,1.02398 -7.6065,1.08801 -5.15686,0.11198 -10.38252,-1.12003 -11.92014,-1.52004 -0.15681,0.76802 -0.392,1.39202 -0.61282,1.85602 l 21.19548,22.24028 c 0.86401,-0.672 1.94081,-1.10399 3.13124,-1.10399 2.80163,0 5.07046,2.27202 5.07046,5.07206 0,2.80003 -2.26883,5.07206 -5.07046,5.07206 -2.80324,0 -5.07047,-2.27203 -5.07047,-5.07206 0,-1.02402 0.30719,-1.96802 0.82721,-2.76804 l -22.00187,-21.55228 c -0.46723,0.22402 -1.10242,0.44802 -1.86724,0.59201 0.37441,1.55202 1.53122,6.78408 1.36483,11.93616 -0.12641,3.87204 -0.74883,6.32008 -1.19362,7.60008 0.39199,1.45604 1.0624,5.10407 -0.91042,8.30411 -2.53444,4.09607 -7.6113,4.60806 -8.7409,0.94402 -0.96163,-3.12004 3.02403,-11.08814 8.7617,-10.04811 z m 27.76837,-24.73635 c 0,0 2.71202,1.77603 4.95366,-0.35199 2.24162,-2.11203 1.88643,-5.29606 -0.82563,-5.29606 -2.71201,0 -6.36967,3.40803 -4.12803,5.64805 z m 1.06241,32.56042 c 1.56322,0 2.82722,-1.264 2.82722,-2.83202 0,-1.56801 -1.264,-2.83205 -2.82722,-2.83205 -1.56642,0 -2.83205,1.26404 -2.83205,2.83205 0,1.56802 1.26563,2.83202 2.83205,2.83202 z m -25.83074,-35.96845 c -1.72642,-3.32804 -7.22248,-3.34405 -8.65612,-1.44001 -1.91042,1.40801 -1.97602,6.89609 1.32483,8.67211 3.16163,1.69601 6.62088,-0.62401 6.62088,-0.62401 0,0 2.36164,-3.42406 0.71041,-6.60809 z m -4.67045,36.99247 c 2.15523,-2.22402 0.42239,-4.96005 0.42239,-4.96005 -2.21283,-2.27203 -5.67848,1.34401 -5.71686,4.06406 -0.0368,2.70401 3.14083,3.10403 5.29447,0.89599 z"
                 style="fill:#000000;fill-opacity:1;fill-rule:nonzero;stroke:#000000;stroke-width:0.3985;stroke-linecap:butt;stroke-linejoin:miter;stroke-miterlimit:10;stroke-dasharray:none;stroke-opacity:1"
                 id="path26" /><path
                 d="m 154.53877,158.22603 c -0.16321,-0.016 -0.3264,-0.032 -0.4832,-0.064 -0.0432,0 -0.0816,-0.016 -0.1248,-0.032 -0.1696,-0.048 -0.3344,-0.096 -0.4944,-0.16001 -0.024,-0.016 -0.0464,-0.032 -0.072,-0.048 -0.16639,-0.064 -0.33439,-0.16001 -0.48481,-0.27202 -0.0112,0 -0.0208,-0.016 -0.0336,-0.016 -0.16159,-0.12801 -0.3104,-0.24001 -0.44802,-0.384 -0.003,0 -0.006,-0.016 -0.01,-0.016 -0.2896,-0.30401 -0.52002,-0.65599 -0.68161,-1.04001 -0.002,0 -0.002,0 -0.002,0 -0.0768,-0.208 -0.13921,-0.4 -0.1808,-0.62401 -0.002,-0.016 0,-0.016 -0.003,-0.032 -0.0336,-0.192 -0.0592,-0.384 -0.0592,-0.592 0,0 0.006,-0.016 0.006,-0.032 0,-0.032 0.006,-0.048 0.006,-0.08 0.006,-0.192 0.024,-0.384 0.0672,-0.57601 0.008,-0.048 0.0272,-0.08 0.0368,-0.128 0.0432,-0.16 0.0912,-0.33599 0.16,-0.48001 0.0256,-0.064 0.0656,-0.12799 0.096,-0.17599 0.064,-0.12802 0.12482,-0.256 0.20642,-0.38402 0.056,-0.08 0.12479,-0.144 0.18558,-0.224 0.0704,-0.08 0.13602,-0.17599 0.216,-0.256 0.0912,-0.08 0.19362,-0.16 0.29602,-0.24002 0.0624,-0.048 0.12001,-0.096 0.1872,-0.14398 0.13121,-0.096 0.2736,-0.16 0.416,-0.22401 0.048,-0.032 0.0896,-0.064 0.13922,-0.08 0.1712,-0.064 0.35201,-0.12799 0.5392,-0.16001 0.024,-0.016 0.048,-0.016 0.0704,-0.032 0.20639,-0.032 0.41761,-0.064 0.63681,-0.064 0.008,0 0.016,0 0.0208,0 0.0176,0 0.0336,0 0.0496,0 1.34081,0.016 2.47682,0.83202 2.97284,2.00003 0.002,0 0.005,0 0.01,0.016 0.072,0.17601 0.1264,0.35201 0.168,0.54402 0.008,0.032 0.0176,0.048 0.0224,0.064 0.0368,0.17603 0.0464,0.36803 0.056,0.54402 0,0.048 0.01,0.08 0.01,0.112 0,0.016 0,0.016 0,0.016 0,0.016 0.003,0.016 0.003,0.032 -0.003,0.15999 -0.0272,0.304 -0.0528,0.46399 -0.008,0.048 -0.006,0.11201 -0.0208,0.17602 -0.0272,0.144 -0.08,0.27199 -0.12802,0.416 -0.0224,0.064 -0.0384,0.128 -0.0656,0.208 -0.0512,0.112 -0.1216,0.224 -0.1856,0.33601 -0.0448,0.064 -0.0736,0.14399 -0.12001,0.20801 -0.0688,0.096 -0.15039,0.192 -0.22881,0.28798 -0.0576,0.064 -0.11039,0.12802 -0.1792,0.20802 -0.0768,0.064 -0.1648,0.12799 -0.24798,0.192 -0.08,0.08 -0.15362,0.144 -0.24322,0.20799 -0.08,0.048 -0.1696,0.08 -0.256,0.12801 -0.0976,0.064 -0.1984,0.12801 -0.30402,0.16 -0.08,0.032 -0.16798,0.048 -0.25279,0.08 -0.12161,0.048 -0.24161,0.08 -0.36801,0.11201 -0.0752,0.016 -0.15198,0.016 -0.23039,0.032 -0.1344,0.016 -0.2688,0.032 -0.40801,0.032 -0.008,0 -0.0176,0 -0.0272,0 -0.006,0 -0.01,0 -0.0144,0 -0.056,0 -0.10881,-0.016 -0.16802,-0.016 z m 0.74242,-1.96803 c 0.10719,-0.048 0.19359,-0.128 0.2832,-0.192 0.056,-0.048 0.12001,-0.064 0.17121,-0.112 0.0512,-0.064 0.0784,-0.128 0.12478,-0.192 0.0624,-0.08 0.13442,-0.16 0.17601,-0.25602 0.0208,-0.048 0.0176,-0.096 0.0304,-0.14398 0.0416,-0.12802 0.0832,-0.25601 0.0832,-0.40002 0,-0.032 -0.0112,-0.048 -0.0112,-0.064 -0.0272,-0.56001 -0.3616,-1.02402 -0.84322,-1.23201 -0.0144,0 -0.0304,0 -0.0464,-0.016 -0.1536,-0.048 -0.32,-0.096 -0.49599,-0.096 -0.048,0 -0.0912,0.032 -0.13762,0.032 -0.13921,0.016 -0.2784,0.032 -0.4032,0.08 -0.0608,0.016 -0.10721,0.08 -0.16159,0.096 -0.0992,0.064 -0.20161,0.12801 -0.28322,0.192 -0.0672,0.064 -0.10719,0.16001 -0.15999,0.24002 -0.048,0.064 -0.10722,0.128 -0.13922,0.208 -0.048,0.11198 -0.0608,0.24 -0.0784,0.35199 -0.01,0.064 -0.0368,0.12802 -0.0368,0.19201 -0.002,0.16001 0.0368,0.32001 0.0912,0.48002 0.006,0.016 0.005,0.048 0.01,0.064 0.20801,0.49601 0.69922,0.84801 1.28162,0.86403 0.16321,0 0.31841,-0.032 0.4688,-0.08 0.024,-0.016 0.0544,-0.016 0.0768,-0.016 z"
                 style="fill:#000000;fill-opacity:1;fill-rule:nonzero;stroke:#000000;stroke-width:0.3985;stroke-linecap:butt;stroke-linejoin:miter;stroke-miterlimit:10;stroke-dasharray:none;stroke-opacity:1"
                 id="path28" /><path
                 d="m 107.55898,113.42545 c -3.47526,0 -6.28969,-2.81603 -6.28969,-6.28809 0,-0.256 0.0208,-0.51201 0.0528,-0.76802 0.25439,2.19205 2.16003,3.92006 4.50726,3.92006 2.52002,0 4.56164,-1.96802 4.56164,-4.40004 0,-2.43204 -2.04162,-4.41608 -4.56164,-4.41608 -0.52162,0 -1.01443,0.11202 -1.47844,0.27202 0.93923,-0.56001 2.03205,-0.89601 3.20806,-0.89601 3.47525,0 6.29127,2.81604 6.29127,6.28807 0,3.47206 -2.81602,6.28809 -6.29127,6.28809 z"
                 style="fill:#000000;fill-opacity:1;fill-rule:nonzero;stroke:#000000;stroke-width:0.3985;stroke-linecap:butt;stroke-linejoin:miter;stroke-miterlimit:10;stroke-dasharray:none;stroke-opacity:1"
                 id="path30" /><path
                 d="m 8.80571,198.97855 c -2.43204,0 -4.40327,-1.96804 -4.40327,-4.40006 0,-2.43202 1.97123,-4.41606 4.40327,-4.41606 2.43201,0 4.40164,1.98404 4.40164,4.41606 0,2.43202 -1.96963,4.40006 -4.40164,4.40006 z m 0,-6.92809 c -1.39043,0 -2.51843,1.13602 -2.51843,2.52803 0,1.39203 1.128,2.51204 2.51843,2.51204 1.38881,0 2.51682,-1.12001 2.51682,-2.51204 0,-1.39201 -1.12801,-2.52803 -2.51682,-2.52803 z"
                 style="fill:#000000;fill-opacity:1;fill-rule:nonzero;stroke:#000000;stroke-width:0.3985;stroke-linecap:butt;stroke-linejoin:miter;stroke-miterlimit:10;stroke-dasharray:none;stroke-opacity:1"
                 id="path32" /><path
                 d="m 194.6209,13.21616 c -2.43042,0 -4.40326,-1.96802 -4.40326,-4.40007 0,-2.43203 1.97284,-4.40004 4.40326,-4.40004 2.43203,0 4.40325,1.96801 4.40325,4.40004 0,2.43205 -1.97122,4.40007 -4.40325,4.40007 z m 0,-6.91208 c -1.38881,0 -2.51844,1.11999 -2.51844,2.51201 0,1.39201 1.12963,2.51204 2.51844,2.51204 1.39202,0 2.51524,-1.12003 2.51524,-2.51204 0,-1.39202 -1.12322,-2.51201 -2.51524,-2.51201 z"
                 style="fill:#000000;fill-opacity:1;fill-rule:nonzero;stroke:#000000;stroke-width:0.3985;stroke-linecap:butt;stroke-linejoin:miter;stroke-miterlimit:10;stroke-dasharray:none;stroke-opacity:1"
                 id="path34" /><g
                 id="g36"
                 clip-path="url(#clipPath40)"><path
                   d="m 194.6209,17.61621 c -2.03843,0 -3.91047,-0.68801 -5.40328,-1.85601 l -6.94249,6.41605 9.20012,6.8481 c 0,0 4.48007,-3.77605 9.67053,-7.08809 0,0 2.59523,1.90403 10.77133,12.35216 0,0 -4.40005,3.45604 -9.82891,7.47209 0,0 8.02089,12.03217 6.84007,33.02443 -1.17279,20.89627 -10.52812,37.5685 -25.50432,47.50461 1.82721,4.17607 2.72005,9.36012 3.09763,12.17616 1.76004,-1.60002 2.53444,-3.18403 2.53444,-3.18403 4.12805,1.76001 3.06565,6.96008 3.06565,6.96008 3.77285,-0.72 6.60648,2.35202 10.37772,1.05603 1.74724,-0.59203 3.30405,-0.59203 3.30405,-0.59203 0.35202,1.88802 -1.17922,2.94405 -1.17922,4.24006 0,1.31202 -0.4736,5.79208 -0.4736,8.27211 0,2.46403 -3.65443,4.48005 -3.65443,4.48005 0,0 1.2944,0.59202 2.59361,2.11203 1.29922,1.53603 2.12323,3.07205 2.12323,3.07205 -0.9408,0.83202 -3.53763,1.64802 -5.19046,3.07203 -2.28642,1.95204 -2.71045,4.24006 -6.48488,4.72006 -4.47206,0.54402 -8.0193,-2.48001 -9.79053,-1.88802 -1.76643,0.57602 -1.06082,4.00005 2.59522,4.00005 3.65765,0 5.07367,-0.70401 7.3137,-0.70401 2.23844,0 5.54407,3.07203 7.7825,4.83208 2.24162,1.77601 2.95044,2.00001 4.60006,2.48002 1.64961,0.48 2.47685,2.00003 2.47685,2.00003 0,1.66402 -2.24005,2.12804 -3.06725,2.36803 -0.82402,0.224 -0.82402,1.296 -1.76804,2.35203 -0.94401,1.07201 -3.42082,0.94402 -3.42082,0.94402 0,0 2.00481,1.29601 3.65602,3.18404 1.65124,1.88801 1.76644,5.90406 1.41602,10.14412 -0.35519,4.24005 0.94402,5.42407 1.65123,7.07208 0.7056,1.64804 0.30402,2.75204 0.30402,2.75204 0,0 -1.10404,0.38401 -2.74564,-0.336 -1.64323,-0.736 -2.80323,-2.04802 -7.0529,-1.744 -4.25125,0.28798 -8.25771,0.11199 -10.12333,-1.56804 -1.86242,-1.66403 -3.13284,-3.69604 -3.13284,-3.69604 0,0 0.0848,2.48002 -0.98881,3.40803 -1.07681,0.92801 -2.13924,0.91204 -2.38565,1.74404 -0.2448,0.81601 -0.7488,3.05604 -2.40001,3.02401 0,0 -1.52004,-0.84799 -1.96803,-2.496 -0.45281,-1.66403 -0.67681,-2.36804 -2.41443,-4.64007 -1.73761,-2.25603 -4.76006,-5.60007 -4.72806,-7.84011 0.0288,-2.24002 0.7552,-3.64804 0.80479,-7.31208 0.0512,-3.64805 -3.35843,-4.40006 -3.97442,-2.64004 -0.61283,1.76001 2.37283,5.34406 1.75522,9.80813 -0.52323,3.77604 -2.81446,4.16006 -4.80648,6.41607 -1.43843,1.63204 -2.30084,4.22406 -3.13763,5.15207 0,0 -1.52162,-0.84801 -3.03844,-2.16003 -1.51362,-1.312 -2.08642,-2.62403 -2.08642,-2.62403 0,0 -2.05443,3.63205 -4.53127,3.58403 -2.47682,-0.032 -6.96329,0.38402 -8.26089,0.36803 -1.29763,-0.016 -2.37925,1.50401 -4.26087,1.12001 0,0 0.01,-1.55202 0.63361,-3.29605 1.35042,-3.76004 -1.68003,-6.62409 -0.91841,-10.38414 0,0 -5.20487,0.99202 -6.91689,-3.16805 0,0 1.63363,-0.752 3.26564,-2.52803 -2.90243,-0.43199 -7.68971,-1.31199 -11.59695,-3.02401 -9.92653,14.97618 -26.60834,24.33632 -47.50621,25.50433 -20.99387,1.18401 -33.02283,-6.8481 -33.02283,-6.8481 -4.00964,5.44007 -7.47209,9.84012 -7.47209,9.84012 -10.45612,-8.1761 -12.34097,-10.78413 -12.34097,-10.78413 3.30084,-5.18406 7.07371,-9.66413 7.07371,-9.66413 l -6.83691,-9.20012 -6.42247,6.94408 c 1.16321,1.48804 1.86242,3.36006 1.86242,5.40808 0,4.86408 -3.94244,8.80013 -8.8065,8.80013 -4.86566,0 -8.80649,-3.93605 -8.80649,-8.80013 0,-4.86406 3.94083,-8.81612 8.80649,-8.81612 1.936,0 3.72324,0.64 5.17766,1.69603 l 6.93127,-7.3601 c -6.29127,-10.52812 -1.40802,-20.08025 4.87367,-20.43225 5.58089,-0.32001 7.70571,10.06413 7.70571,10.06413 0,0 8.3345,-8.49613 15.25138,-5.98408 6.9217,2.52804 5.03208,10.06413 2.20164,12.27216 -2.82883,2.20803 -9.11852,6.60807 -9.11852,6.60807 2.83045,4.08006 7.70409,7.39212 7.70409,7.39212 0,0 5.81769,-4.56008 13.05298,-6.14411 11.77935,-2.56002 16.98422,6.92812 5.34727,10.38414 -8.11851,2.41605 -17.45624,-1.568 -17.45624,-1.568 -1.41281,0.62399 -7.39048,7.85609 -7.39048,7.85609 10.69134,6.92809 32.70762,7.8721 48.11901,0.94402 16.89303,-7.58409 26.10435,-20.75228 26.10435,-20.75228 -6.9185,-4.09604 -11.95055,-10.70413 -11.95055,-10.70413 0,0 -12.19057,11.23215 -25.78914,3.77605 -15.64819,-8.56011 -12.89616,-23.2643 -12.89616,-23.2643 -10.06574,-9.12012 -7.23371,-17.29622 -7.23371,-17.29622 3.05286,4.57605 6.70729,4.76805 10.23694,3.40804 3.71045,-6.38408 9.43372,-10.43215 11.90576,-11.98417 1.55361,-5.48805 6.79207,-9.04011 6.79207,-9.04011 -2.20001,3.15205 -1.25761,6.60809 -1.25761,6.60809 3.56485,-0.656 6.99371,-0.76802 10.24815,-0.432 1.4144,-3.15204 2.77762,-5.77606 3.42723,-7.00809 -2.18883,-1.84001 -3.61125,-4.57607 -3.61125,-7.66411 0,-2.12804 0.66882,-4.11205 1.80484,-5.74406 l -2.79205,-2.78405 c -0.73441,0.41602 -1.56962,0.67202 -2.47364,0.67202 -2.77601,0 -5.03045,-2.25603 -5.03045,-5.04006 0,-2.76803 2.25444,-5.02408 5.03045,-5.02408 2.77925,0 5.03368,2.25605 5.03368,5.02408 0,1.07199 -0.33919,2.06401 -0.90721,2.88002 l 2.60963,2.60805 c 1.79202,-1.64803 4.17125,-2.65604 6.7889,-2.65604 3.11363,0 5.86407,1.45603 7.71049,3.68004 1.26241,-0.67201 3.83365,-2.00001 6.90729,-3.37602 -0.34882,-3.26407 -0.2384,-6.6881 0.4192,-10.25615 0,0 -3.45926,-0.94401 -6.60168,1.26402 0,0 3.55365,-5.24808 9.04651,-6.80009 1.53763,-2.46404 5.59367,-8.19211 11.97777,-11.90416 1.35841,-3.52004 1.1632,-7.18408 -3.41285,-10.22414 0,0 8.17771,-2.83204 17.29781,7.23212 0,0 14.70259,-2.75205 23.27231,12.89614 7.44809,13.60018 -3.77445,25.77634 -3.77445,25.77634 0,0 6.60488,5.04006 10.69454,11.95215 0,0 13.17297,-9.20012 20.75548,-26.09633 6.92007,-15.4082 5.97926,-37.42448 -0.94243,-48.12861 0,0 -7.23529,5.98407 -7.86409,7.39207 0,0 3.98564,9.34415 1.57442,17.45624 -3.45765,11.64814 -12.94098,6.43208 -10.37934,-5.34407 1.57282,-7.23209 6.13127,-13.05619 6.13127,-13.05619 0,0 -3.30084,-4.86404 -7.3905,-7.69608 0,0 -4.40004,6.28808 -6.60329,9.12013 -2.20161,2.83203 -9.7489,4.72005 -12.26733,-2.20804 -2.51524,-6.91209 5.97926,-15.2482 5.97926,-15.2482 0,0 -10.37935,-2.12802 -10.06573,-7.71208 0.35522,-6.27208 9.90733,-11.15216 20.44186,-4.86408 l 7.35689,-6.92808 c -1.06081,-1.45603 -1.69441,-3.24805 -1.69441,-5.18408 0,-4.86405 3.94085,-8.81609 8.80652,-8.81609 4.86247,0 8.80651,3.95204 8.80651,8.81609 0,4.86406 -3.94404,8.80012 -8.80651,8.80012 z M 8.80571,187.97041 c -3.64964,0 -6.6033,2.96003 -6.6033,6.60808 0,3.64804 2.95366,6.60809 6.6033,6.60809 3.64803,0 6.60327,-2.96005 6.60327,-6.60809 0,-3.64805 -2.95524,-6.60808 -6.60327,-6.60808 z m 61.24878,1.34401 c 0.23521,-6.60808 -15.09781,-0.72002 -17.68984,1.87204 0,0 17.44505,5.02405 17.68984,-1.87204 z m -44.81819,11.55216 8.96652,7.31209 5.42248,-7.31209 c 0,0 -5.18727,-4.01606 -8.72651,-7.7921 z m 0.23681,-37.50449 c -3.77446,0 -7.07689,6.83209 -2.83044,14.8642 l 8.72653,-7.7921 c -1.70083,-5.34407 -3.51205,-7.0721 -5.89609,-7.0721 z m 6.36809,9.90415 c -3.69446,2.91201 -7.00009,6.17606 -8.00009,7.07208 2.47041,4.20805 5.10725,7.44008 6.77446,9.29611 l 7.75212,-7.0081 c -2.12164,-3.07203 -3.69444,-4.88005 -6.52649,-9.36009 z m 17.69141,-0.94402 c 0.94401,-4.48007 -4.48165,-9.66412 -15.56658,-0.46402 0,0 4.71526,7.5361 6.36968,8.72012 0,0 8.49929,-4.94406 9.1969,-8.2561 z m -1.88802,19.56824 c 0,0 -3.72644,-2.62403 -8.01929,-7.53609 0,0 -4.40325,3.77605 -7.31208,7.07208 4.33923,4.51207 7.58088,6.80008 8.96328,7.79212 2.11365,-2.65605 4.34728,-5.21608 6.36809,-7.32811 z M 93.72038,91.72917 c -1.3872,0 -2.51683,1.12003 -2.51683,2.51204 0,1.39201 1.12963,2.52803 2.51683,2.52803 1.39044,0 2.51844,-1.13602 2.51844,-2.52803 0,-1.39201 -1.128,-2.51204 -2.51844,-2.51204 z m 44.08379,97.29726 c 1.90723,-1.61603 3.11363,-3.37605 4.28804,-3.12004 1.17602,0.23999 0.91843,2.01602 -0.76479,4.11206 -1.68004,2.11201 -0.76482,4.24003 -0.69284,7.53608 0.0736,3.31205 -0.0752,5.55207 -0.0752,5.55207 2.97284,-1.61601 6.48967,-0.16 9.68492,-0.92801 3.19524,-0.784 2.89605,-4.68805 3.85445,-5.85606 0.95842,-1.15203 2.48003,-0.19201 3.03203,2.40002 0.5568,2.60803 2.54085,4.17604 2.54085,4.17604 0.64,-3.88805 5.85608,-5.71207 6.49289,-9.23212 0.63838,-3.53604 -3.21607,-6.06407 -2.55365,-11.47213 0.66241,-5.42408 5.9633,-4.99207 7.80011,-1.20002 1.83522,3.80805 0.72639,7.3281 0.0816,11.20015 -0.64322,3.88805 1.92961,5.45606 3.90564,7.72809 1.97444,2.27204 2.88965,4.28806 2.88965,4.28806 0,0 3.56163,-1.60002 3.83044,-3.95206 0.26563,-2.36803 -1.94563,-4.40006 0.41602,-4.60806 2.36162,-0.192 2.32481,2.51204 4.28964,5.37608 1.96801,2.84802 4.08965,2.76804 8.33609,2.70402 4.25127,-0.064 4.71849,0.17602 6.2449,0.80002 1.52321,0.60802 2.31523,0.064 2.31523,0.064 0,0 0.55202,-0.78401 -0.04,-2.32002 -0.5904,-1.53604 -0.8256,-2.00003 -0.70881,-6.2401 0.11841,-4.25604 0.2368,-6.38408 -2.59523,-8.3841 -2.82883,-2.00002 -5.54086,-2.00002 -5.30568,-4.35204 0.23682,-2.36805 2.24164,-0.12801 4.60008,-0.36802 2.35683,-0.224 4.00964,-3.76004 4.00964,-3.76004 0,0 -2.0048,-0.94401 -4.24485,-2.96005 -2.24164,-2.00003 -3.77605,-4.59205 -7.6673,-4.00006 -3.89284,0.57602 -7.43048,1.64804 -11.20334,-0.23999 -3.77446,-1.88803 -4.12805,-7.20009 1.29602,-7.79211 5.42566,-0.57599 7.9025,3.31205 11.44016,2.72004 3.53763,-0.59201 5.42726,-5.77607 9.31691,-6.36807 0,0 -1.53122,-2.00003 -4.12645,-2.59203 -2.59683,-0.59202 -3.53926,-2.12803 -2.36003,-3.07205 1.1808,-0.94401 5.07206,-0.59201 5.89607,-3.77604 0.82721,-3.18404 -0.58881,-6.7201 1.06241,-9.66413 0,0 -2.24323,0.11199 -5.54247,0 -3.30243,-0.12801 -5.42566,-1.05603 -7.5473,0.59201 -2.12482,1.64801 -3.89125,1.87201 -4.12645,0.704 -0.2384,-1.18402 1.53124,-2.35204 3.18244,-4.24005 1.65122,-1.88804 -0.23839,-3.55205 -0.23839,-3.55205 0,0 0,1.66401 -2.35683,2.48004 -2.36003,0.832 -4.48007,1.53601 -6.13129,5.66408 -1.65283,4.12803 -3.65605,7.66408 -8.02252,9.0721 -5.32005,1.74403 -7.54567,-3.76004 -5.30405,-6.12807 2.23842,-2.35204 7.66408,-1.64803 7.42888,-6.12808 0,0 -1.1792,0.35201 -3.42244,-1.18403 -2.24002,-1.53601 -5.77768,-2.11203 -8.25448,-0.22399 -2.47684,1.88801 -5.6609,6.00007 -8.13771,5.77607 -2.47844,-0.23999 2.12161,-2.72004 1.65123,-7.08809 0,0 -2.71526,1.31202 -7.07532,1.07201 -4.36644,-0.24001 -11.64815,-2.86401 -18.91544,-8.0961 5.13607,7.32811 7.65769,14.6562 7.8337,19.02424 0.17601,4.36806 -1.15521,7.0561 -1.15521,7.0561 4.35527,0.52801 6.8945,-4.03206 7.09608,-1.55202 0.20482,2.48002 -3.96805,5.61607 -5.88966,8.04811 -1.92003,2.46402 -1.38082,6.00006 0.1232,8.2721 1.50243,2.25602 1.13281,3.42404 1.13281,3.42404 4.47687,0.30401 3.84485,-5.13606 6.2337,-7.34409 2.38721,-2.20804 7.85929,0.096 6.05927,5.39206 -1.47522,4.35207 -5.03847,6.30411 -9.18894,7.90412 -4.15043,1.58401 -4.88806,3.69603 -5.74406,6.04806 -0.85761,2.35204 -2.51042,2.32002 -2.51042,2.32002 0,0 1.62401,1.92005 3.53604,0.28803 z M 102.1333,153.21797 c -1.36961,-0.17601 -2.64003,-0.12802 -3.78725,0.20799 2.23523,6.72008 4.78406,10.84815 6.58568,13.16817 4.02567,-4.99206 0.84484,-12.92816 -2.79843,-13.37616 z m -23.35069,16.51221 c 9.40969,6.46406 19.71704,2.83203 24.82432,-1.74403 -3.92166,-5.05607 -6.32649,-11.45615 -7.09771,-13.71218 -1.1792,0.81601 -2.15522,2.06403 -2.86724,3.88806 0,0 -1.17921,2.60804 -3.06723,2.36803 -1.88482,-0.24001 -12.26415,-3.53604 -13.91379,3.53604 0,0 -3.30563,-4.48006 -1.1808,-11.32815 0,0 -3.77606,0 -5.89767,-1.16802 0,0 -2.12323,10.36815 9.20012,18.16025 z m 2.37123,-42.44855 c -3.45607,2.35204 -6.1953,5.45606 -7.75852,7.4401 0.27842,-0.176 0.55362,-0.35201 0.82723,-0.528 4.71684,-3.15206 7.54729,-2.83205 7.54729,-2.83205 -0.49121,-1.42401 -0.66721,-2.78404 -0.616,-4.08005 z m 3.44644,-3.15203 c 0,0 -4.40166,3.45603 1.88802,10.36811 0,0 0.63202,2.83205 -1.57282,1.58403 -2.20163,-1.26402 -7.8625,-2.52803 -11.00654,0.62401 -3.14564,3.15205 -7.55048,4.08005 -11.00974,1.88802 0,0 -0.62723,8.17611 7.2353,10.68815 7.86089,2.51203 11.63534,-1.26402 11.63534,-1.26402 0,0 4.09124,-0.62401 1.88961,1.58401 -2.20321,2.19204 -7.55047,2.19204 -5.97926,9.12014 0,0 1.88962,-2.20806 6.29288,-1.56805 4.40164,0.62403 6.60489,-0.016 8.1761,-2.20802 1.57121,-2.20803 4.40326,-5.34407 10.69455,-3.45604 0,0 -0.31362,-2.20802 -4.71849,-2.52803 -4.40485,-0.30401 -13.84017,5.98407 -13.84017,5.98407 0,0 11.32335,-13.52017 19.49946,-5.98407 0,0 0.63041,0.64 2.83204,0 0,0 -3.45924,-4.70407 -11.63696,-5.34407 0,0 -1.10082,-0.30401 -5.34728,0.40001 -4.24644,0.704 -9.4337,1.88802 -13.44496,1.18401 -4.00964,-0.72002 -4.24484,-2.36803 -4.24484,-2.36803 3.30084,2.12804 12.26415,0.48 19.57623,-0.94401 7.31212,-1.40802 14.15541,3.31204 14.15541,3.31204 l 1.88482,0.464 c -4.71846,-5.42406 -14.389,-5.42406 -15.805,-7.07209 -1.41444,-1.64801 1.1808,-2.12803 1.1808,-2.12803 2.35843,2.12803 6.44968,2.12803 6.44968,2.12803 0,0 -1.576,-1.26401 -1.576,-2.51203 0,-1.26402 0.9456,-1.26402 -2.20005,-3.15205 -3.14404,-1.88802 -8.80491,-2.20803 -11.00813,-8.80009 z m 2.83043,0.944 c 2.40323,2.56004 4.20166,3.79205 6.78889,4.81606 0.58721,-1.87202 1.32802,-3.82405 2.10883,-5.68008 -5.83527,-0.608 -8.89772,0.86402 -8.89772,0.86402 z m 9.13292,5.68006 c 1.09601,0.36801 1.98242,0.65602 2.50561,0.91202 1.88645,0.94402 2.20166,1.88803 3.14406,4.09605 0.94242,2.19204 8.2161,2.65604 10.06412,16.03222 1.25763,9.12011 -5.03204,17.29621 -5.03204,17.29621 5.66085,7.2481 11.32173,10.38414 11.32173,10.38414 11.63855,-20.12826 3.14404,-41.82455 -8.17611,-50.00064 -3.92004,-2.83204 -8.0289,-4.27206 -11.72495,-4.92806 -1.02401,2.56004 -1.72641,4.86407 -2.10242,6.20806 z m 3.12964,-8.60809 c 14.22099,2.56003 24.65633,14.30417 27.36674,29.34437 2.83686,15.72821 -2.0928,26.94436 -3.96484,30.49639 2.54243,1.00802 6.36967,2.14404 11.89775,2.97604 0.17441,-0.25601 0.35521,-0.51202 0.5184,-0.8 1.93283,-3.39205 2.54405,-4.92807 6.80809,-6.16008 4.26087,-1.23203 6.90089,-4.49606 6.45929,-6.75211 -0.4416,-2.24002 -2.57602,-1.328 -4.14566,1.24803 -1.5664,2.57604 -3.71524,4.43204 -7.48329,3.79204 0,0 0.74402,-2.48002 -0.76161,-4.49605 -1.50722,-2.03202 -2.52802,-4.88006 -1.66242,-7.80812 0.86562,-2.94403 6.31048,-4.40004 6.94089,-7.34408 0,0 -4.04645,2.43204 -7.20489,0.73602 0,0 2.65924,-4.80006 0.99842,-12.49617 -1.83844,-8.46411 -10.54734,-19.84027 -21.82748,-30.01639 -1.74245,1.44002 -3.94886,2.33603 -6.38728,2.33603 -1.49283,0 -2.89446,-0.33599 -4.16806,-0.92799 -1.31682,1.77601 -2.44645,3.84003 -3.38405,5.87207 z m 7.55211,-22.5443 c -4.16806,0 -7.54889,3.37604 -7.54889,7.53609 0,4.17607 3.38083,7.55211 7.54889,7.55211 4.16804,0 7.54568,-3.37604 7.54568,-7.55211 0,-4.16005 -3.37764,-7.53609 -7.54568,-7.53609 z m 20.08825,-18.43225 c 1.28641,-0.06398 2.64801,0.11202 4.07045,0.60802 0,0 -0.31521,-2.83204 2.83203,-7.53609 0.17922,-0.28801 0.36001,-0.56003 0.53602,-0.83201 -1.98883,1.55203 -5.08646,4.30406 -7.4385,7.76008 z m 20.74106,0.60802 c 0,0 3.77126,-3.77605 1.25603,-11.63216 -2.51685,-7.8721 -10.69135,-7.23208 -10.69135,-7.23208 2.19683,3.45604 1.25602,7.85609 -1.89123,11.00813 -3.14403,3.13605 -1.88642,8.80012 -0.6272,11.00813 1.26082,2.19205 -1.57281,1.56804 -1.57281,1.56804 -6.91851,-6.2881 -10.37933,-1.88801 -10.37933,-1.88801 6.60647,2.20801 6.92007,7.85609 8.8065,11.00813 1.88642,3.15205 1.88642,2.20804 3.14564,2.20804 1.26082,0 2.51843,1.568 2.51843,1.568 0,0 0,-4.09605 -2.12483,-6.44808 0,0 0.47202,-2.59203 2.12483,-1.18403 1.64962,1.42403 1.64962,11.08815 7.07529,15.8082 l -0.47362,-1.88801 c 0,0 -4.71524,-6.84809 -3.30082,-14.16018 1.41441,-7.3121 3.06883,-16.27221 0.944,-19.56826 0,0 1.65443,0.24002 2.35682,4.24006 0.70722,4.01604 -0.47039,9.20012 -1.17601,13.44017 -0.7104,4.25606 -0.3952,5.3601 -0.3952,5.3601 0.6272,8.17608 5.34567,11.63212 5.34567,11.63212 0.6304,-2.20802 0,-2.83203 0,-2.83203 -7.54889,-8.1761 5.03366,-21.69629 5.03366,-21.69629 0,0 -5.91846,11.52017 -5.03366,16.03221 0.84801,4.33608 2.51523,4.72006 2.51523,4.72006 -1.88483,-6.28807 1.25922,-9.12011 3.46085,-10.68812 2.20002,-1.56804 2.82884,-3.77605 2.20162,-8.17612 -0.62881,-4.40006 1.57123,-6.28807 1.57123,-6.28807 -6.91848,-1.58401 -6.91848,3.77605 -9.11853,5.96808 -2.20161,2.20801 -1.57121,-1.88803 -1.57121,-1.88803 z m -23.8211,14.56018 c 1.86402,-0.78402 3.81445,-1.52002 5.68487,-2.11202 -1.02402,-2.57603 -2.56323,-5.64807 -5.13768,-8.0481 0,0 -1.15521,4.32006 -0.54719,10.16012 z m 29.00996,5.80808 c 0.45282,3.63204 8.37451,6.81611 13.38098,2.80004 -2.31682,-1.80803 -6.45608,-4.35206 -13.17135,-6.59208 -0.32961,1.152 -0.38241,2.41603 -0.20963,3.79204 z m 16.51222,-23.36031 c -7.7841,-11.31214 -18.16183,-9.18411 -18.16183,-9.18411 1.17761,2.11202 1.17761,5.88807 1.17761,5.88807 6.84009,-2.12802 11.32016,1.18401 11.32016,1.18401 -7.07532,1.64804 -3.77127,12.03216 -3.53764,13.90419 0.23518,1.88803 -2.36003,3.07204 -2.36003,3.07204 -1.82884,0.72 -3.08326,1.69601 -3.89127,2.86402 2.24643,0.76802 8.64812,3.18406 13.71219,7.1041 4.58244,-5.10407 8.2097,-15.40821 1.74081,-24.83232 z m -0.6304,28.46438 c 0,0 -8.17931,6.28808 -17.29942,5.04004 -13.38098,-1.856 -13.83699,-9.1201 -16.04021,-10.06411 -2.20163,-0.944 -3.14244,-1.26401 -4.08646,-3.15204 -0.2608,-0.512 -0.5504,-1.40802 -0.92482,-2.49602 -1.34242,0.36798 -3.64802,1.07199 -6.20966,2.09601 0.6672,3.69605 2.10082,7.8081 4.93125,11.72815 8.17931,11.31215 29.88037,19.80826 50.00545,8.17611 0,0 -3.14244,-5.66406 -10.37613,-11.32814 z m -17.61464,19.82427 c -15.02898,-2.72005 -26.77632,-13.15219 -29.34277,-27.37637 -2.00322,0.928 -4.02085,2.04803 -5.77606,3.32804 0.5664,1.26401 0.8976,2.64003 0.8976,4.11205 0,2.32002 -0.81121,4.41608 -2.12003,6.11208 10.03373,11.44016 21.29787,20.32026 29.75879,22.2723 7.66409,1.77602 12.49936,-0.81604 12.49936,-0.81604 1.64962,3.18407 -0.82562,7.18412 -0.82562,7.18412 2.94724,-0.59202 4.48326,-6.0161 7.4305,-6.8321 2.95044,-0.83201 5.77929,0.24001 7.78411,1.76001 2.00322,1.53605 4.48164,0.83202 4.48164,0.83202 0.58882,3.77606 -1.2976,5.88808 -3.89444,7.4241 -2.59202,1.53603 -3.53604,3.66405 -1.29441,4.12805 2.24002,0.48002 5.54406,-2.12802 6.83848,-6.36807 1.29922,-4.24006 2.83203,-4.83208 6.25128,-6.72009 0.3136,-0.176 0.59041,-0.368 0.87042,-0.54401 -0.83844,-5.84009 -2.00804,-9.84013 -3.06245,-12.46415 -3.53925,1.87202 -14.76979,6.80009 -30.4964,3.96806 z m 49.37825,-87.44115 7.31049,-5.42409 -7.31049,-8.9601 -7.7825,5.66408 c 3.77286,3.53605 7.7825,8.72011 7.7825,8.72011 z m -11.56015,30.43239 c 6.90408,-0.256 1.88962,-17.69623 1.88962,-17.69623 -2.59203,2.59205 -8.48972,17.93624 -1.88962,17.69623 z m 2.59842,-22.41629 c 2.10564,-2.01601 4.66246,-4.25604 7.31212,-6.36809 -0.98882,-1.376 -3.27205,-4.62404 -7.78412,-8.9601 -3.30245,2.91204 -7.07689,7.31209 -7.07689,7.31209 4.92006,4.28806 7.54889,8.0161 7.54889,8.0161 z m -19.57944,1.88801 c 3.30883,-0.68798 8.2545,-9.2001 8.2545,-9.2001 -1.17762,-1.64802 -8.72651,-6.36809 -8.72651,-6.36809 -9.20012,11.08815 -4.00965,16.51221 0.47201,15.56819 z M 163.4045,25.48831 c 0,2.38402 1.72802,4.19205 7.07849,5.88808 l 7.7841,-8.72011 c -8.0209,-4.25608 -14.86259,-0.94401 -14.86259,2.83203 z m 9.90731,6.36807 c 4.48326,2.83205 6.28969,4.40007 9.35532,6.52811 l 7.0145,-7.76012 c -1.86402,-1.664 -5.09447,-4.30404 -9.28973,-6.76807 -0.90562,0.99201 -4.16485,4.30405 -7.08009,8.00008 z M 194.6209,2.20801 c -3.64806,0 -6.6065,2.96005 -6.6065,6.60808 0,3.64807 2.95844,6.60809 6.6065,6.60809 3.64804,0 6.60488,-2.96002 6.60488,-6.60809 0,-3.64803 -2.95684,-6.60808 -6.60488,-6.60808 z"
                   style="fill:#000000;fill-opacity:1;fill-rule:nonzero;stroke:#000000;stroke-width:0.3985;stroke-linecap:butt;stroke-linejoin:miter;stroke-miterlimit:10;stroke-dasharray:none;stroke-opacity:1"
                   id="path42" /></g></g></g></g></g></g></g></svg>
