<?xml version="1.0" encoding="UTF-8" standalone="no"?>
<svg
   xmlns:dc="http://purl.org/dc/elements/1.1/"
   xmlns:cc="http://creativecommons.org/ns#"
   xmlns:rdf="http://www.w3.org/1999/02/22-rdf-syntax-ns#"
   xmlns:svg="http://www.w3.org/2000/svg"
   xmlns="http://www.w3.org/2000/svg"
   xmlns:sodipodi="http://sodipodi.sourceforge.net/DTD/sodipodi-0.dtd"
   xmlns:inkscape="http://www.inkscape.org/namespaces/inkscape"
   version="1.1"
   id="svg2"
   xml:space="preserve"
   width="179.28069"
   height="179.3356"
   viewBox="0 0 179.28068 179.3356"
   sodipodi:docname="vectorian054.pdf"><metadata
     id="metadata8"><rdf:RDF><cc:Work
         rdf:about=""><dc:format>image/svg+xml</dc:format><dc:type
           rdf:resource="http://purl.org/dc/dcmitype/StillImage" /></cc:Work></rdf:RDF></metadata><defs
     id="defs6"><clipPath
       clipPathUnits="userSpaceOnUse"
       id="clipPath24"><path
         d="M 0,0 H 134.50171 V 134.50171 H 0 Z"
         id="path22" /></clipPath></defs><sodipodi:namedview
     pagecolor="#ffffff"
     bordercolor="#666666"
     borderopacity="1"
     objecttolerance="10"
     gridtolerance="10"
     guidetolerance="10"
     inkscape:pageopacity="0"
     inkscape:pageshadow="2"
     inkscape:window-width="640"
     inkscape:window-height="480"
     id="namedview4" /><g
     id="g10"
     inkscape:groupmode="layer"
     inkscape:label="vectorian054"
     transform="matrix(1.3333333,0,0,-1.3333333,0,179.33561)"><g
       id="g12"
       transform="translate(72,62.5)"><g
         id="g14"
         transform="translate(-72,-62.5)"><g
           id="g16"><g
             id="g18"><g
               id="g20"
               clip-path="url(#clipPath24)"><path
                 d="m 10.1223,13.20795 c 2.08464,0 3.77437,-1.68752 3.77437,-3.77215 0,-2.08462 -1.68973,-3.77433 -3.77437,-3.77433 -2.0912,0 -3.76993,1.68971 -3.76993,3.77433 0,2.08463 1.67873,3.77215 3.76993,3.77215 z"
                 style="fill:#000000;fill-opacity:1;fill-rule:nonzero;stroke:#000000;stroke-width:0.3985;stroke-linecap:butt;stroke-linejoin:miter;stroke-miterlimit:10;stroke-dasharray:none;stroke-opacity:1"
                 id="path26" /><path
                 d="m 3.11124,5.93137 c 1.6414,0 2.96902,-1.32752 2.96902,-2.96676 C 6.08026,1.3298 4.75264,0 3.11124,0 1.4742,0 0.14888,1.3298 0.14888,2.96461 c 0,1.63924 1.32532,2.96676 2.96236,2.96676 z"
                 style="fill:#000000;fill-opacity:1;fill-rule:nonzero;stroke:#000000;stroke-width:0.3985;stroke-linecap:butt;stroke-linejoin:miter;stroke-miterlimit:10;stroke-dasharray:none;stroke-opacity:1"
                 id="path28" /><path
                 d="m 55.84221,20.01494 c 8.09069,0.41031 12.11294,-2.64864 17.68233,-6.87938 2.88342,-2.19223 6.14868,-4.67847 10.64933,-7.1691 3.89504,-2.15701 8.35621,-3.32225 12.90517,-3.52635 -1.82132,0.34453 -3.60976,0.89752 -5.33676,1.67433 -3.25865,1.46582 -6.254,3.92795 -8.62393,6.93868 -2.76275,1.86953 -7.26558,5.73388 -9.03862,11.99665 -2.62453,9.30193 1.00941,16.37663 -0.6057,20.62058 -1.61943,4.25055 -7.4828,3.03262 -7.4828,3.03262 0.40812,9.29985 8.89822,9.50163 11.32527,5.05368 2.42251,-4.44586 -0.61012,-6.26716 -2.02326,-19.40495 -0.9458,-8.76651 2.60033,-14.2788 5.06678,-16.98662 -0.4213,0.84482 -0.8097,1.70503 -1.13232,2.58932 -1.50973,4.14738 -2.56083,10.64056 0.99412,17.98075 2.89433,5.96878 8.40881,9.53902 15.11929,9.80011 6.8947,0.26111 13.57878,-3.08313 16.63773,-8.32768 2.79783,-4.80348 3.06994,-10.32234 0.7176,-14.7704 -2.05174,-3.87526 -5.81079,-6.36589 -10.05682,-6.6621 -1.85642,-0.12948 -3.47156,0.23042 -4.81008,1.06644 -3.12704,1.36711 -6.02798,4.34714 -6.16188,9.2428 -0.1997,7.4828 7.28101,8.29031 9.70574,5.45738 2.69913,-3.14894 -0.19971,-9.50162 -5.66149,-7.07689 -0.14039,-0.73293 -0.09649,-1.42192 0.06362,-2.06934 0.10978,-0.3511 0.23259,-0.70431 0.37749,-1.04672 0.63632,-1.34071 1.76643,-2.45543 2.91633,-3.32222 0.98084,-0.50032 2.12854,-0.73071 3.46055,-0.63861 3.68215,0.25679 6.9496,2.42702 8.73362,5.80637 2.08684,3.94986 1.83452,8.88281 -0.6825,13.19697 -2.76484,4.74204 -8.86312,7.76808 -15.17412,7.52458 C 89.30653,43.88326 84.30779,40.6443 81.68103,35.23074 78.36539,28.39745 79.34401,22.36287 80.74843,18.50743 82.80896,12.84143 87.27452,7.89539 92.40277,5.59126 100.54619,1.93762 110.1136,3.48903 117.941,9.5565 c 1.76643,1.57993 3.31574,3.39035 4.63456,5.39597 0.6517,2.01883 1.50752,4.08595 2.45544,6.0741 0.812,1.7138 1.3781,3.24762 1.76871,4.65205 0.35552,2.27344 0.42792,4.61035 0.22161,6.96058 -0.83602,2.65963 -3.01503,-0.327 -4.01345,-3.32443 -2.35904,2.90093 -3.64274,5.05796 -4.52044,15.16307 -0.87993,10.20174 -2.95806,7.88442 -2.95806,7.88442 -0.8119,-5.45296 -3.64705,-5.45296 -3.64705,-5.45296 0,0 -0.9392,5.38936 -11.31865,11.72235 C 94.83641,62.12729 88.4002,62.8844 84.12776,62.9348 64.84572,60.41127 50.32774,47.66849 50.15665,47.5127 l -0.17342,-0.1536 -1.44832,-0.23921 -0.01531,0.0681 C 37.47525,36.14365 29.58426,28.26144 29.58426,28.26144 c -0.47179,-0.4784 -1.2442,-0.48059 -1.71602,-0.0088 -0.47621,0.47399 -0.47841,1.242 -0.0066,1.71603 l 18.76195,18.87822 0.20849,1.25522 0.15801,0.17329 c 0.1602,0.1799 14.10328,16.05853 15.703,36.66808 -0.17561,4.16056 -1.20251,9.36563 -4.58406,13.74348 -6.87499,8.89383 -11.72676,11.32074 -11.72676,11.32074 0,0 -0.1405,2.83075 5.45518,3.63835 0,0 2.22731,1.81693 -7.88441,3.43636 -10.10953,1.62161 -13.34616,1.55362 -15.16318,4.04425 2.99973,1.00061 5.98406,3.18184 3.32013,4.01353 -2.88344,0.25452 -5.75366,0.0878 -8.50761,-0.50909 -0.98091,-0.37312 -2.01664,-0.84922 -3.10065,-1.48343 -1.46152,-0.85141 -3.62514,-1.75552 -6.00168,-2.40063 -2.03191,-1.3342 -3.87303,-2.89443 -5.46835,-4.68505 C 2.95981,110.23689 1.41059,100.66716 5.06423,92.52386 7.36617,87.3934 12.31882,82.92784 17.9782,80.8717 c 3.85985,-1.40221 9.89442,-2.38092 16.72992,0.93042 5.40697,2.62443 8.64372,7.62759 8.88072,13.72578 0.2435,6.31328 -2.77815,12.40705 -7.5246,15.172 -4.31195,2.52132 -9.24932,2.77802 -13.19258,0.68681 -3.38154,-1.78843 -5.55175,-5.05368 -5.81077,-8.73363 -0.09209,-1.33201 0.1383,-2.48184 0.64082,-3.46934 0.8602,-1.141 1.97713,-2.26672 3.31564,-2.90532 0.3555,-0.15362 0.7154,-0.27652 1.07532,-0.39062 0.64069,-0.1514 1.32541,-0.1931 2.0473,-0.0548 -2.42691,5.45958 3.92795,8.36051 7.07471,5.65928 2.83072,-2.42484 2.02542,-9.90323 -5.45747,-9.70133 -4.89347,0.12941 -7.87339,3.03474 -9.24492,6.15958 -0.83162,1.34512 -1.19592,2.95143 -1.06862,4.81227 0.2984,4.24833 2.79342,8.00068 6.6687,10.05461 4.44806,2.35243 9.96692,2.08253 14.77037,-0.7175 5.24239,-3.05894 8.58881,-9.74523 8.32332,-16.63121 -0.25461,-6.717 -3.82925,-12.22926 -9.79793,-15.12149 -7.34021,-3.56145 -13.82896,-2.50593 -17.98292,-0.99622 -0.88213,0.3203 -1.74013,0.71311 -2.58286,1.13881 2.71016,-2.47743 8.21804,-6.01918 16.98454,-5.07556 13.13776,1.41542 14.95908,4.44804 19.40715,2.02321 4.44575,-2.42923 4.24175,-10.92143 -5.05587,-11.32523 0,0 1.21571,5.86347 -3.03263,7.48069 -4.24397,1.61502 -11.31865,-2.01883 -20.62277,0.6056 -6.26059,1.77095 -10.12494,6.27819 -11.99455,9.04532 -3.00844,2.37204 -5.47498,5.35867 -6.9386,8.61952 -0.77679,1.72692 -1.32762,3.51534 -1.67873,5.33889 0.2085,-4.54897 1.36933,-9.01673 3.53077,-12.90738 2.4884,-4.49625 4.97463,-7.7659 7.16468,-10.65145 4.23295,-5.56276 7.2963,-9.58733 6.8816,-17.68233 -0.20632,-4.05964 -2.49503,-6.98258 -6.27158,-8.02268 -4.38658,-1.20912 -9.56744,0.44549 -11.78375,3.77432 -1.5493,2.32384 -1.8631,5.05368 -0.83832,7.3029 0.869,1.92455 2.56302,3.18186 4.64114,3.45174 0.69123,0.08999 1.30564,0.08999 1.85204,0.01762 0.68242,-0.01323 1.47902,-0.24582 2.36113,-0.88432 2.96463,-2.15714 2.42703,-6.20138 1.34741,-6.33519 -1.07971,-0.13609 -1.88721,0.13381 -1.88721,2.96014 0,1.49663 -1.24201,2.27783 -2.41383,2.67725 -0.33131,0.0197 -0.68022,0.01088 -1.04892,-0.0417 C 3.93195,60.66588 2.70091,59.75076 2.0667,58.35294 1.2724,56.61281 1.5401,54.4645 2.77771,52.61028 c 1.81914,-2.73426 6.3132,-4.13207 10.00854,-3.11165 1.80382,0.4915 4.85616,2.00561 5.08657,6.54807 0.38409,7.50031 -2.37644,11.12545 -6.5502,16.62023 -2.22513,2.92723 -4.75084,6.24518 -7.30069,10.84464 -4.15172,7.50259 -4.94613,17.00201 -2.11542,25.40211 1.27931,3.81825 3.27623,7.2305 5.84367,10.13585 0.57711,0.74609 1.18491,1.48561 1.84332,2.19872 l 0.16453,-0.14701 c 0.33578,0.30942 0.68247,0.61441 1.03799,0.91072 -4.48096,-0.55301 -8.87632,0.26549 -10.31142,4.35146 -1.615,5.86118 3.63825,8.6963 7.6847,7.8844 4.04423,-0.80753 4.24394,-3.64046 2.62672,-5.65936 2.02531,-1.61944 4.44797,-0.20183 14.75718,0.60569 1.83883,0.1426 5.5518,0.0219 9.96685,-0.89531 0.0571,-0.0132 0.11409,-0.0241 0.1756,-0.0329 0.22819,-0.0505 0.46519,-0.10532 0.70001,-0.16022 0.599,-0.12949 1.19811,-0.2787 1.79283,-0.44332 10.21481,-2.74951 22.73587,-9.90319 25.2551,-27.19053 0.31591,-1.41973 0.56172,-2.86804 0.72194,-4.34706 0.20187,-1.80812 0.29399,-3.59224 0.29399,-5.35205 0,-15.8237 -7.5464,-29.38059 -12.34776,-36.40257 l 8.73802,8.79061 c 1.2837,2.39633 4.80136,9.22301 7.36659,16.49961 1.47682,4.19345 2.37213,8.05549 2.72323,11.81675 0.4257,4.46555 -0.0351,9.65303 -0.83831,14.05937 -0.7724,4.25926 -2.57613,9.24053 -2.15482,13.61608 0.48709,5.02296 4.61475,8.29701 9.57403,8.65692 4.00474,0.29179 8.58439,-2.32614 9.0211,-6.6907 0.226,-2.25142 -0.4169,-4.27684 -1.72481,-5.64838 0.0374,0.0176 0.07249,0.0263 0.1098,0.0417 -0.06151,-0.0461 -0.12071,-0.0834 -0.18221,-0.12729 -0.03952,-0.0417 -0.06579,-0.0899 -0.10092,-0.12941 -0.84478,-0.79219 -1.90251,-1.24861 -3.06332,-1.41099 -2.72104,-0.68033 -5.06249,0.31598 -6.22328,1.66769 -1.61502,1.88713 -1.34731,5.39378 0.1382,5.52768 1.47902,0.136 2.02104,-0.67372 2.02104,-2.96683 0,-1.33851 0.9173,-2.07153 1.6831,-2.45773 0.21071,-0.0636 0.41252,-0.14041 0.66932,-0.1799 1.45701,-0.23041 2.72984,0.1163 3.66023,0.9962 1.08182,1.01823 1.58873,2.66624 1.40654,4.52486 -0.3423,3.37715 -4.11446,5.46838 -7.2963,5.24238 -4.21316,-0.3094 -7.1997,-3.27185 -7.61449,-7.55312 -0.26112,-2.72102 0.48719,-5.45956 1.2069,-8.10818 l 0.13611,-0.52222 c 1.56672,-5.79538 2.07362,-11.76416 1.5009,-17.74823 C 72.49971,88.37422 71.5781,84.38268 70.05519,80.06412 68.34355,75.21895 66.13823,70.3189 64.4288,66.76186 l 13.01268,13.09164 -3.83574,3.45175 3.95864,4.38216 4.04426,-3.64484 7.08348,7.12738 c 0.23481,2.07804 0.18431,5.37839 -2.01013,7.23039 -3.37053,2.41825 -5.12385,-0.8141 -4.31404,-3.37492 -2.82865,-0.40372 -6.47127,5.79317 -1.88722,9.56751 4.58406,3.77876 11.45903,-0.67373 11.18693,-8.75991 1.92234,5.09096 5.29068,7.41258 9.82203,8.66991 8.58441,9.30643 14.26129,15.8149 16.42062,14.30959 2.47963,-1.72263 -1.13011,-4.60155 -14.57948,-17.20833 -1.30564,-4.12104 -3.64707,-7.19979 -8.42643,-9.00351 8.0885,0.26989 12.53426,-6.60728 8.75771,-11.18914 -3.77205,-4.58186 -9.97122,-0.94361 -9.56521,1.88491 2.55644,-0.80532 5.79746,0.94362 3.37055,4.31416 -1.65463,1.97272 -4.47656,2.21193 -6.54368,2.07593 -2.38526,-2.40284 -4.85837,-4.88037 -7.3687,-7.40169 L 87.2855,78.9231 83.32906,74.53654 79.3813,78.09799 C 74.92017,73.61703 70.37779,69.06587 65.94073,64.6201 c 3.59665,1.74236 8.83461,4.13857 14.00237,5.9643 4.31857,1.52072 8.31012,2.44232 12.19858,2.81103 5.99067,0.5705 11.95935,0.0658 17.75253,-1.49872 l 0.52011,-0.1427 c 2.65293,-0.71971 5.38936,-1.46142 8.1126,-1.20031 4.27905,0.4126 7.23928,3.39915 7.54868,7.61229 0.23042,3.17965 -1.86301,6.95399 -5.24026,7.29409 -1.85861,0.18001 -3.50874,-0.3269 -4.52474,-1.40431 -0.88433,-0.93042 -1.23104,-2.19884 -0.99844,-3.66025 0.46082,-2.91855 3.03044,-2.61352 3.31786,-2.56744 l 0.26329,-1.59532 c -0.0746,-0.01758 -1.91121,-0.3028 -3.41663,0.77902 -0.95231,0.6868 -1.54261,1.73793 -1.76203,3.12913 -0.30941,1.94643 0.19531,3.73266 1.42192,5.02738 1.36271,1.44173 3.50004,2.13513 5.85897,1.90031 4.36466,-0.4345 6.98481,-5.01857 6.69729,-9.02331 -0.36649,-4.95926 -3.64045,-9.08911 -8.66341,-9.57402 -4.37557,-0.4191 -9.35462,1.38461 -13.60957,2.15921 -4.40627,0.79884 -9.59823,1.26184 -14.06598,0.84052 -3.76116,-0.3555 -7.62329,-1.2508 -11.81457,-2.72983 -8.2991,-2.92733 -16.0058,-7.0879 -17.22582,-7.75719 -3.09194,-3.09184 -6.10256,-6.09819 -8.96411,-8.96622 6.7236,4.73546 20.77427,12.96877 37.30007,12.96877 1.75994,0 3.55057,-0.09211 5.35437,-0.29621 1.47683,-0.1624 2.92505,-0.40811 4.34705,-0.72191 17.43874,-2.53894 24.56822,-15.2642 27.26737,-25.52943 0.1338,-0.4938 0.24801,-0.98531 0.35551,-1.47462 0.0614,-0.2612 0.12071,-0.51571 0.17549,-0.77031 0.004,-0.04161 0.0154,-0.08551 0.0242,-0.13379 0.91942,-4.41948 1.04013,-8.14121 0.89961,-9.97783 -0.8097,-10.31145 -2.22723,-12.73618 -0.61001,-14.7594 2.02763,1.61502 4.85399,1.41533 5.6615,-2.62673 0.8098,-4.04646 -2.02103,-9.3041 -7.88222,-7.6847 -4.39966,1.54701 -5.36087,5.40698 -4.63666,9.96252 -0.2019,-0.237 -0.41701,-0.46089 -0.62759,-0.6891 l 0.14918,-0.16449 C 120.41183,9.46211 119.67233,8.85431 118.9219,8.275 116.01648,5.70976 112.61084,3.71503 108.79259,2.42911 100.38818,-0.3994 90.88866,0.395 83.39046,4.55115 c -4.60375,2.54762 -7.9151,5.07115 -10.84464,7.29408 -5.49248,4.18037 -9.11763,6.9343 -16.62021,6.55458 -4.54895,-0.23259 -6.05648,-3.28493 -6.548,-5.08656 -1.0226,-3.69744 0.37521,-8.1872 3.11377,-10.01071 1.8477,-1.23763 3.99603,-1.50313 5.73395,-0.70882 1.40222,0.63422 2.31723,1.86302 2.51693,3.37714 0.01322,0.0988 0.0022,0.1909 0.0088,0.2853 -0.3358,1.29693 -1.10161,2.97334 -2.84613,2.97334 -2.82854,0 -3.10065,0.812 -2.96245,1.88502 0.07681,0.64512 1.54492,1.07522 3.17094,0.71542 0.84261,-0.1076 1.73574,-0.41481 2.50374,-1.02702 0.98751,-0.7834 2.08472,-2.29312 1.72481,-5.04486 C 62.07208,3.68433 60.81688,1.99031 58.89465,1.1191 56.64542,0.09439 53.91559,0.40599 51.59396,1.95522 48.2628,4.17374 46.60608,9.3524 47.8152,13.74115 c 1.0379,3.78096 3.96526,6.06749 8.02701,6.27379 z"
                 style="fill:#000000;fill-opacity:1;fill-rule:nonzero;stroke:#000000;stroke-width:0.3985;stroke-linecap:butt;stroke-linejoin:miter;stroke-miterlimit:10;stroke-dasharray:none;stroke-opacity:1"
                 id="path30" /><path
                 d="m 13.03645,12.86125 c -0.3731,0.2085 -0.78561,0.55522 -1.22882,1.08841 -2.57623,4.67188 -1.39572,8.76212 1.38463,12.21176 0.25449,1.56452 0.11629,3.44075 -1.98814,3.55704 -3.64262,0.2041 -3.84014,4.85617 0.19752,6.0697 3.13794,0.937 5.16556,-2.37654 4.51604,-6.82892 4.31636,3.77648 10.12044,6.56121 13.47789,8.24211 6.87718,3.43638 8.89601,10.31135 6.06967,12.53647 -2.83513,2.22293 -6.4735,-1.41542 -6.4735,-1.41542 -5.05805,11.72686 10.31365,12.93589 13.14219,5.65938 C 45.97626,42.66093 30.20528,34.97623 26.36292,31.5398 25.3535,26.28432 24.74779,25.073 17.26721,23.25388 c -7.4785,-1.82363 -4.87807,-7.687 -2.62884,-8.0907 0.80531,-2.02323 6.67309,-4.85176 8.49,2.63104 1.82133,7.47848 3.03485,8.0863 8.29043,9.09572 3.44073,3.84234 11.12333,19.61114 22.44408,15.77099 7.27878,-2.83073 6.06527,-18.19804 -5.66148,-13.14436 0,0 3.63606,3.64275 1.41533,6.47128 -2.22284,2.82854 -9.10002,0.80971 -12.53426,-6.06529 -1.67872,-3.35522 -4.46997,-9.16591 -8.24652,-13.48227 4.45467,0.65171 7.76811,-1.38031 6.83109,-4.51384 -1.21781,-4.03985 -5.86557,-3.83796 -6.06957,-0.19973 -0.1119,2.10885 -1.99252,2.24485 -3.55935,1.99253 -3.44954,-2.78242 -7.53989,-3.96083 -12.20516,-1.38459 -0.34231,0.19308 -0.6078,0.36857 -0.79651,0.52659 z"
                 style="fill:#000000;fill-opacity:1;fill-rule:nonzero;stroke:#000000;stroke-width:0.3985;stroke-linecap:butt;stroke-linejoin:miter;stroke-miterlimit:10;stroke-dasharray:none;stroke-opacity:1"
                 id="path32" /></g></g></g></g></g></g></svg>
