<?xml version="1.0" encoding="UTF-8" standalone="no"?>
<svg
   xmlns:dc="http://purl.org/dc/elements/1.1/"
   xmlns:cc="http://creativecommons.org/ns#"
   xmlns:rdf="http://www.w3.org/1999/02/22-rdf-syntax-ns#"
   xmlns:svg="http://www.w3.org/2000/svg"
   xmlns="http://www.w3.org/2000/svg"
   xmlns:sodipodi="http://sodipodi.sourceforge.net/DTD/sodipodi-0.dtd"
   xmlns:inkscape="http://www.inkscape.org/namespaces/inkscape"
   version="1.1"
   id="svg2"
   xml:space="preserve"
   width="143.09332"
   height="138.66667"
   viewBox="0 0 143.09332 138.66667"
   sodipodi:docname="vectorian037.pdf"><metadata
     id="metadata8"><rdf:RDF><cc:Work
         rdf:about=""><dc:format>image/svg+xml</dc:format><dc:type
           rdf:resource="http://purl.org/dc/dcmitype/StillImage" /></cc:Work></rdf:RDF></metadata><defs
     id="defs6"><clipPath
       clipPathUnits="userSpaceOnUse"
       id="clipPath24"><path
         d="M 0,0 H 104.00133 V 104.00133 H 0 Z"
         id="path22" /></clipPath><clipPath
       clipPathUnits="userSpaceOnUse"
       id="clipPath30"><path
         d="m -4.13115,-0.2523 h 109.5367 V 105.03914 H -4.13115 Z"
         id="path28" /></clipPath></defs><sodipodi:namedview
     pagecolor="#ffffff"
     bordercolor="#666666"
     borderopacity="1"
     objecttolerance="10"
     gridtolerance="10"
     guidetolerance="10"
     inkscape:pageopacity="0"
     inkscape:pageshadow="2"
     inkscape:window-width="640"
     inkscape:window-height="480"
     id="namedview4" /><g
     id="g10"
     inkscape:groupmode="layer"
     inkscape:label="vectorian037"
     transform="matrix(1.3333333,0,0,-1.3333333,0,138.66667)"><g
       id="g12"
       transform="translate(72,32)"><g
         id="g14"
         transform="translate(-72,-32)"><g
           id="g16"><g
             id="g18"><g
               id="g20"
               clip-path="url(#clipPath24)"><g
                 id="g26"
                 clip-path="url(#clipPath30)"><path
                   d="m 99.79617,103.90852 c -3.56324,0.0896 -9.95373,-1.45442 -12.99857,-3.80323 0.06081,0.0208 0.104,0.0304 0.1616,0.0528 -1.01761,-0.63362 -1.87361,-1.32001 -2.58403,-2.02724 -6.5553,4.88169 -18.24823,6.90729 -28.96196,5.01928 C 46.5875,101.6317 39.221,98.78845 33.18571,95.3052 26.67044,101.15648 15.20146,102.0509 7.3086,94.878 -4.13155,84.48907 -1.4723,66.37685 12.03343,67.07764 c -0.0992,-3.47204 0.76003,-6.17446 1.74243,-8.02249 0.032,-0.06881 0.0624,-0.12641 0.09919,-0.1984 0.52642,-1.20161 1.17764,-2.22723 1.90243,-3.09285 C 12.71983,53.10307 9.53581,50.05663 6.38216,46.29178 -0.73949,37.79567 -0.9459,25.82272 4.12134,19.65784 2.04132,16.9122 0.6525,13.14575 0.20609,8.6449 -0.57309,0.7328 1.0765,0.1264 1.5117,0.03998 c 1.46242,-0.29117 2.43363,0.9568 2.26085,4.78247 -0.14561,3.21762 -1.46083,9.68013 1.2928,13.86578 1.56963,-1.51521 3.51044,-2.56805 5.83527,-2.91044 11.21616,-1.65442 10.20975,8.41929 3.30405,8.77931 -3.59525,0.1856 -6.71687,-1.192 -9.11371,-3.74886 -1.23043,1.70084 -2.10404,4.13766 -2.27524,7.57451 -0.59842,11.94577 8.0321,19.33304 15.3282,25.14594 3.04004,-2.60485 7.73129,-4.84489 14.75377,-4.12966 8.26573,0.8432 15.94102,6.95687 20.21947,13.63538 5.20489,7.35208 4.74408,16.50579 -0.05118,20.72825 -3.77126,3.32644 -9.79695,3.35044 -14.8994,1.30402 -0.02238,0.2912 -0.01761,0.5744 -0.05119,0.86882 -0.26882,2.39841 -1.10242,4.54404 -2.33123,6.40488 0.2352,0.12799 0.47039,0.2608 0.7072,0.38879 0.1872,0.09761 0.3696,0.19202 0.55841,0.28961 2.62084,1.35041 5.29447,2.54724 7.96169,3.60326 6.62408,2.55843 13.04018,3.98724 18.57624,4.35524 8.56971,0.56642 14.93139,-1.74081 17.79064,-3.05283 0.6496,-0.39521 1.24481,-0.79362 1.77121,-1.19523 -1.57281,-2.08162 -2.10081,-4.06885 -2.25442,-4.87204 -0.10241,-0.55521 -0.15361,-1.08963 -0.15361,-1.59363 0,-1.90242 0.68641,-3.44005 1.65443,-4.44806 -0.0448,0.01279 -0.07359,0.02241 -0.11681,0.03521 0.0896,-0.07522 0.1792,-0.12482 0.26882,-0.19042 0.41119,-0.392 0.86081,-0.69919 1.33601,-0.89119 0.46881,-0.18881 0.93761,-0.23842 1.39841,-0.21922 2.84645,-0.1216 4.60806,3.24644 4.21446,5.81927 -0.38721,2.74724 -1.95042,5.12326 -4.28966,7.0945 1.88642,1.81283 4.60485,3.27684 8.3217,4.04965 1.69922,0.28481 4.14406,0.50081 6.92009,0.11519 3.83686,-0.53279 4.95687,-0.21918 4.95687,0.91203 0,1.13121 -2.04483,1.28642 -5.60967,1.36801 z M 7.07338,20.77466 c 4.30566,2.99843 11.47693,1.43521 9.74092,-1.78082 -0.8224,-1.52002 -6.97928,-3.10244 -10.85774,0.80801 0.33441,0.3472 0.6992,0.67841 1.11682,0.97281 z m 6.82729,47.95741 c 0.01918,0.11682 0.01918,0.2256 0.0368,0.34239 0.47679,3.08005 1.90402,6.1809 4.18884,9.23374 0.10881,0.14401 0.2128,0.28479 0.32321,0.42561 0.54241,0.6976 1.11522,1.38721 1.74402,2.07681 0.032,0.032 0.064,0.06722 0.09281,0.09922 1.36322,1.48161 2.94084,2.94242 4.70886,4.37605 C 26.92964,80.1114 24.07999,70.20569 13.90067,68.73207 Z M 33.13611,79.9642 c 1.15362,0.92803 2.32323,1.71364 3.48965,2.37766 -0.08801,-1.21764 -0.2496,-2.47045 -0.59842,-3.79526 -1.42881,-5.44006 -4.47524,-9.25291 -8.42891,-12.88177 -0.06237,0.14399 -0.13439,0.27841 -0.18878,0.4288 -1.21281,3.30723 -0.44322,8.92172 5.72646,13.87057 z M 28.43526,62.56879 c 1.75842,-1.44481 4.48005,-1.96643 8.3089,-0.19359 7.04329,3.26082 9.45613,10.63054 6.84809,10.36813 -2.60965,-0.2608 -3.03685,-6.84329 -8.15211,-9.25932 -2.05122,-0.96802 -3.62724,-1.02241 -4.77925,-0.79841 -0.50243,0.16639 -0.97122,0.4288 -1.39522,0.76481 4.81445,5.28487 8.89452,11.92496 8.97612,19.71864 3.15363,1.46083 6.26886,1.95684 9.0849,1.36643 1.33922,-0.28002 2.55043,-0.82881 3.62724,-1.54082 1.50403,-1.13602 2.96004,-3.09125 3.19846,-6.47049 C 54.57639,70.5833 49.84993,64.1992 44.56987,59.24234 40.3298,55.2663 32.2097,49.46301 22.14716,52.56226 c -0.9328,0.35841 -1.82882,0.80001 -2.66883,1.33442 -0.16321,0.10239 -0.29599,0.22721 -0.45118,0.3376 0.888,0.70242 1.75521,1.39202 2.56642,2.05764 2.17602,1.77761 4.56805,3.88482 6.84169,6.27687 z M 13.07506,94.9788 c 6.90729,3.89287 14.08018,3.24325 18.69144,-0.4848 -2.84005,-1.74403 -5.33608,-3.63524 -7.5377,-5.59047 -0.82241,0.62561 -1.78402,1.02881 -2.89443,1.12001 C 12.81265,90.71796 8.9006,81.67624 8.8158,78.9802 c -0.088,-2.69602 2.52163,-2.34562 3.47685,0 0.9584,2.34884 3.21763,10.43374 9.47372,9.39213 0.4816,-0.08 0.90243,-0.27841 1.29921,-0.52962 C 17.87192,82.93385 14.59506,77.70499 13.16145,73.33054 12.60785,71.63771 12.29584,70.07289 12.13905,68.61526 0.39328,68.66327 0.7005,88.00111 13.07506,94.9788 Z M 33.15851,82.11304 c -2.53925,-2.13762 -4.02245,-4.23525 -4.91207,-5.88968 -1.89921,-2.86563 -2.50721,-5.70407 -2.32643,-8.04651 0,-1.06241 0.2592,-2.2496 0.77922,-3.33603 C 23.704,62.19438 20.23994,59.57835 16.5775,56.4455 c -2.24323,2.71044 -3.19363,6.38092 -2.82884,10.82255 0.296,0.0448 0.58561,0.08641 0.8912,0.15041 11.53935,2.42082 14.31221,13.05136 11.62577,18.83384 2.66244,1.98563 5.39207,3.76165 8.1441,5.32965 1.31683,-1.99043 2.13122,-4.40484 2.25763,-7.18087 -1.27202,-0.63842 -2.46083,-1.40642 -3.50885,-2.28804 z m 48.76542,9.55372 c 0.28483,1.52323 0.97762,3.03044 2.03043,4.42566 2.12484,-1.82721 3.08486,-3.54884 3.42724,-4.35844 0.37441,-0.88162 0.5616,-1.75203 0.5616,-2.55524 0,-0.84802 -0.20799,-1.62242 -0.62399,-2.26242 -0.78881,-1.21124 -1.89923,-1.63844 -3.04805,-1.17764 -1.33921,0.53602 -2.48323,2.19684 -2.48323,4.51207 0,0.44961 0.04161,0.92001 0.136,1.41601 z"
                   style="fill:#000000;fill-opacity:1;fill-rule:nonzero;stroke:#000000;stroke-width:0.3985;stroke-linecap:butt;stroke-linejoin:miter;stroke-miterlimit:10;stroke-dasharray:none;stroke-opacity:1"
                   id="path32" /></g></g></g></g></g></g></g></svg>
