<?xml version="1.0" encoding="UTF-8" standalone="no"?>
<svg
   xmlns:dc="http://purl.org/dc/elements/1.1/"
   xmlns:cc="http://creativecommons.org/ns#"
   xmlns:rdf="http://www.w3.org/1999/02/22-rdf-syntax-ns#"
   xmlns:svg="http://www.w3.org/2000/svg"
   xmlns="http://www.w3.org/2000/svg"
   xmlns:sodipodi="http://sodipodi.sourceforge.net/DTD/sodipodi-0.dtd"
   xmlns:inkscape="http://www.inkscape.org/namespaces/inkscape"
   version="1.1"
   id="svg2"
   xml:space="preserve"
   width="276.65149"
   height="137.25"
   viewBox="0 0 276.65149 137.25"
   sodipodi:docname="vectorian057.pdf"><metadata
     id="metadata8"><rdf:RDF><cc:Work
         rdf:about=""><dc:format>image/svg+xml</dc:format><dc:type
           rdf:resource="http://purl.org/dc/dcmitype/StillImage" /></cc:Work></rdf:RDF></metadata><defs
     id="defs6"><clipPath
       clipPathUnits="userSpaceOnUse"
       id="clipPath66"><path
         d="m -1.2031,-0.01529 h 208.49195 v 102.9375 H -1.2031 Z"
         id="path64" /></clipPath></defs><sodipodi:namedview
     pagecolor="#ffffff"
     bordercolor="#666666"
     borderopacity="1"
     objecttolerance="10"
     gridtolerance="10"
     guidetolerance="10"
     inkscape:pageopacity="0"
     inkscape:pageshadow="2"
     inkscape:window-width="640"
     inkscape:window-height="480"
     id="namedview4" /><g
     id="g10"
     inkscape:groupmode="layer"
     inkscape:label="vectorian057"
     transform="matrix(1.3333333,0,0,-1.3333333,-1.3389594,137.24961)"><g
       id="g12"
       transform="translate(72,30.936)"><g
         id="g14"
         transform="translate(-70.796,-30.921)"><g
           id="g16"><g
             id="g18"><path
               d="M 18.19942,60.19516 C 34.13081,55.0687 49.78543,57.90874 49.78543,57.90874 36.63806,56.79832 21.48746,61.58557 19.36905,62.144 17.25381,62.69759 16.47299,60.97437 18.19942,60.19516 Z"
               style="fill:#000000;fill-opacity:1;fill-rule:nonzero;stroke:#000000;stroke-width:0.3985;stroke-linecap:butt;stroke-linejoin:miter;stroke-miterlimit:10;stroke-dasharray:none;stroke-opacity:1"
               id="path20" /><path
               d="M 51.12144,70.6113 C 64.048,59.35997 79.19861,56.57272 79.19861,56.57272 62.48798,62.47679 55.4319,70.05128 53.09106,72.06091 c -2.34082,2.00484 -4.08485,0.2224 -1.96962,-1.44961 z"
               style="fill:#000000;fill-opacity:1;fill-rule:nonzero;stroke:#000000;stroke-width:0.3985;stroke-linecap:butt;stroke-linejoin:miter;stroke-miterlimit:10;stroke-dasharray:none;stroke-opacity:1"
               id="path22" /><path
               d="m 25.97871,72.09772 c 3.88646,-2.79364 10.82895,-6.5633 18.23543,-9.34253 16.48982,-6.18247 28.78279,-6.66409 28.78279,-6.66409 -9.50732,2.22724 -15.57942,3.60327 -26.71875,8.44812 -7.75691,3.37283 -13.72816,7.9953 -17.47543,10.56652 -3.34883,2.30085 -5.15846,3.89287 -6.38568,2.52324 -1.16481,-1.29762 0.40161,-3.26726 3.56164,-5.53126 z"
               style="fill:#000000;fill-opacity:1;fill-rule:nonzero;stroke:#000000;stroke-width:0.3985;stroke-linecap:butt;stroke-linejoin:miter;stroke-miterlimit:10;stroke-dasharray:none;stroke-opacity:1"
               id="path24" /><path
               d="M 17.3658,37.22366 C 15.80418,35.88606 17.513,34.32922 19.88902,35.81404 31.9212,45.09897 47.74379,47.8446 47.74379,47.8446 30.80919,46.65417 18.92422,38.56128 17.3658,37.22366 Z"
               style="fill:#000000;fill-opacity:1;fill-rule:nonzero;stroke:#000000;stroke-width:0.3985;stroke-linecap:butt;stroke-linejoin:miter;stroke-miterlimit:10;stroke-dasharray:none;stroke-opacity:1"
               id="path26" /><path
               d="m 80.27542,48.81262 c 0,0 -17.89943,1.41121 -36.17168,-6.3889 C 25.83153,34.62523 27.09552,31.20758 28.05875,30.76118 c 0.96641,-0.4448 2.36003,0.0544 4.88805,2.05922 2.52485,2.00805 11.75216,7.81931 24.22912,11.68175 12.47856,3.86245 23.0995,4.31047 23.0995,4.31047 z"
               style="fill:#000000;fill-opacity:1;fill-rule:nonzero;stroke:#000000;stroke-width:0.3985;stroke-linecap:butt;stroke-linejoin:miter;stroke-miterlimit:10;stroke-dasharray:none;stroke-opacity:1"
               id="path28" /><path
               d="m 63.63841,42.05093 c -8.54092,-3.86085 -10.10414,-6.08969 -9.65454,-6.68328 0.44481,-0.59522 1.63364,-0.89122 4.30727,1.11201 14.8546,10.47691 29.33798,11.06894 29.33798,11.06894 -6.31209,0.52 -15.4498,-1.63364 -23.99071,-5.49767 z"
               style="fill:#000000;fill-opacity:1;fill-rule:nonzero;stroke:#000000;stroke-width:0.3985;stroke-linecap:butt;stroke-linejoin:miter;stroke-miterlimit:10;stroke-dasharray:none;stroke-opacity:1"
               id="path30" /><path
               d="m 86.5155,33.58362 c 15.3762,11.88496 30.2324,10.77293 30.2324,10.77293 -16.04342,2.52324 -31.64364,-8.76811 -32.68363,-9.95372 -1.03842,-1.19201 -0.96481,-3.04805 2.45123,-0.81921 z"
               style="fill:#000000;fill-opacity:1;fill-rule:nonzero;stroke:#000000;stroke-width:0.3985;stroke-linecap:butt;stroke-linejoin:miter;stroke-miterlimit:10;stroke-dasharray:none;stroke-opacity:1"
               id="path32" /><path
               d="M 82.50424,43.23975 C 64.00961,36.11006 62.07997,31.57878 64.5296,31.28119 c 2.45285,-0.29761 7.35532,5.05125 19.38747,9.95373 12.03215,4.90406 22.13467,4.90406 22.13467,4.90406 -1.78561,0.81759 -13.66737,0.81759 -23.5475,-2.89923 z"
               style="fill:#000000;fill-opacity:1;fill-rule:nonzero;stroke:#000000;stroke-width:0.3985;stroke-linecap:butt;stroke-linejoin:miter;stroke-miterlimit:10;stroke-dasharray:none;stroke-opacity:1"
               id="path34" /><path
               d="M 134.57373,43.68774 C 133.5321,44.72617 94.16681,55.7167 61.48477,55.7167 28.80275,55.7167 5.62796,45.02217 2.21191,43.38855 -1.2041,41.75491 -0.31448,38.3357 2.50952,39.37569 c 9.06102,4.31205 36.09816,12.92657 66.40416,12.77777 30.30278,-0.14881 65.66005,-8.46572 65.66005,-8.46572 z"
               style="fill:#000000;fill-opacity:1;fill-rule:nonzero;stroke:#000000;stroke-width:0.3985;stroke-linecap:butt;stroke-linejoin:miter;stroke-miterlimit:10;stroke-dasharray:none;stroke-opacity:1"
               id="path36" /><path
               d="m 107.83417,53.00787 c 0,0 -14.9298,4.45606 -25.17954,17.26903 -1.67199,1.22562 -2.0048,-1.11523 0.44483,-3.56647 2.45123,-2.44963 10.91853,-9.91211 24.73471,-13.70256 z"
               style="fill:#000000;fill-opacity:1;fill-rule:nonzero;stroke:#000000;stroke-width:0.3985;stroke-linecap:butt;stroke-linejoin:miter;stroke-miterlimit:10;stroke-dasharray:none;stroke-opacity:1"
               id="path38" /><path
               d="m 103.26291,52.78387 c 0,0 -20.16345,3.12003 -38.99249,23.51069 -1.78244,1.44801 -3.00965,-0.448 -1.11361,-2.78724 1.89441,-2.3392 17.49302,-18.38262 40.1061,-20.72345 z"
               style="fill:#000000;fill-opacity:1;fill-rule:nonzero;stroke:#000000;stroke-width:0.3985;stroke-linecap:butt;stroke-linejoin:miter;stroke-miterlimit:10;stroke-dasharray:none;stroke-opacity:1"
               id="path40" /><path
               d="m 123.65518,49.10861 c 0,0 -15.5986,4.56806 -28.07876,20.49947 -2.22882,3.23044 -4.23365,1.44802 -3.45444,-0.112 0.78239,-1.56003 11.58892,-17.37782 31.5332,-20.38747 z"
               style="fill:#000000;fill-opacity:1;fill-rule:nonzero;stroke:#000000;stroke-width:0.3985;stroke-linecap:butt;stroke-linejoin:miter;stroke-miterlimit:10;stroke-dasharray:none;stroke-opacity:1"
               id="path42" /><path
               d="m 143.41064,48.811 c 0,0 -7.05609,3.49126 -10.24974,9.20974 -1.0384,1.18881 -1.85601,-0.37281 -0.8912,-2.00644 0.9664,-1.63361 3.34242,-5.04965 11.14094,-7.2033 z"
               style="fill:#000000;fill-opacity:1;fill-rule:nonzero;stroke:#000000;stroke-width:0.3985;stroke-linecap:butt;stroke-linejoin:miter;stroke-miterlimit:10;stroke-dasharray:none;stroke-opacity:1"
               id="path44" /><path
               d="m 119.94153,62.4032 c -1.41281,1.2624 -2.52643,-0.22402 -1.33762,-2.37604 1.18721,-2.15683 12.10736,-14.11697 24.65952,-13.96338 0,0 -10.17453,1.85602 -23.3219,16.33942 z"
               style="fill:#000000;fill-opacity:1;fill-rule:nonzero;stroke:#000000;stroke-width:0.3985;stroke-linecap:butt;stroke-linejoin:miter;stroke-miterlimit:10;stroke-dasharray:none;stroke-opacity:1"
               id="path46" /><path
               d="m 109.31898,63.6656 c -0.96481,1.1136 -1.85922,-0.4448 -0.1488,-2.52642 1.70883,-2.07843 7.64972,-10.17774 22.65469,-13.07058 0,0 -13.14575,3.26406 -22.50589,15.597 z"
               style="fill:#000000;fill-opacity:1;fill-rule:nonzero;stroke:#000000;stroke-width:0.3985;stroke-linecap:butt;stroke-linejoin:miter;stroke-miterlimit:10;stroke-dasharray:none;stroke-opacity:1"
               id="path48" /><path
               d="m 103.37651,34.17883 c 9.13452,7.35048 22.61629,7.6865 22.61629,7.6865 0,0 -9.5809,2.45123 -18.71704,-1.89603 -8.37451,-3.98085 -6.46248,-7.3505 -3.89925,-5.79047 z"
               style="fill:#000000;fill-opacity:1;fill-rule:nonzero;stroke:#000000;stroke-width:0.3985;stroke-linecap:butt;stroke-linejoin:miter;stroke-miterlimit:10;stroke-dasharray:none;stroke-opacity:1"
               id="path50" /><path
               d="m 169.89578,38.35487 c 1.87522,9.96493 6.60327,13.33939 5.76006,13.01459 -3.10402,-1.18562 -5.80005,-5.07048 -6.47527,-7.0097 -2.02884,-5.84807 -0.2288,-7.5905 0.71521,-6.00489 z"
               style="fill:#000000;fill-opacity:1;fill-rule:nonzero;stroke:#000000;stroke-width:0.3985;stroke-linecap:butt;stroke-linejoin:miter;stroke-miterlimit:10;stroke-dasharray:none;stroke-opacity:1"
               id="path52" /><path
               d="m 163.9453,41.66373 c -1.10562,-4.59845 0.39361,-5.78888 0.99522,-4.51368 0.67999,7.71851 4.02405,10.63855 3.40485,10.33135 -2.27205,-1.13602 -4.03046,-4.29124 -4.40007,-5.81767 z"
               style="fill:#000000;fill-opacity:1;fill-rule:nonzero;stroke:#000000;stroke-width:0.3985;stroke-linecap:butt;stroke-linejoin:miter;stroke-miterlimit:10;stroke-dasharray:none;stroke-opacity:1"
               id="path54" /><path
               d="m 159.12604,36.76765 c 0.9376,5.84328 3.64164,7.88332 3.15364,7.68171 -1.79042,-0.74241 -3.29926,-3.04804 -3.66405,-4.18886 -1.09122,-3.44164 -0.0144,-4.43045 0.51041,-3.49285 z"
               style="fill:#000000;fill-opacity:1;fill-rule:nonzero;stroke:#000000;stroke-width:0.3985;stroke-linecap:butt;stroke-linejoin:miter;stroke-miterlimit:10;stroke-dasharray:none;stroke-opacity:1"
               id="path56" /><path
               d="m 191.19205,53.66388 c -4.37125,0.5856 -6.20168,-3.91686 -4.30725,-3.91686 1.89283,0 5.17765,3.80005 4.30725,3.91686 z"
               style="fill:#000000;fill-opacity:1;fill-rule:nonzero;stroke:#000000;stroke-width:0.3985;stroke-linecap:butt;stroke-linejoin:miter;stroke-miterlimit:10;stroke-dasharray:none;stroke-opacity:1"
               id="path58" /><path
               d="m 153.84917,35.62845 c -2.66725,-0.4944 -4.60647,-1.42722 -6.03688,-2.55364 -0.2208,0.1904 -0.43521,0.37441 -0.6496,0.54882 -2.28642,1.85281 -11.80977,8.13128 -19.27705,3.56323 -2.53124,-1.55042 -4.10087,-3.36165 -4.93447,-5.22886 -4.04004,0.96 -9.41292,1.34881 -16.45462,0.6608 -16.117,-1.57762 -20.05465,-9.80331 -20.05465,-9.80331 0,0 8.5777,6.34888 22.94909,7.57449 5.46887,0.5264 9.72014,0.3776 12.98897,-0.16641 -0.63521,-3.08323 0.58722,-6.14888 2.83365,-8.30092 3.49124,-3.34242 9.24652,-2.00482 8.69131,1.78245 -0.33762,2.29922 -2.81605,5.82404 -9.28813,7.79688 1.50241,2.77765 4.67206,5.01288 9.51051,4.68006 4.58088,-0.312 8.95214,-2.42881 11.97298,-4.83525 -1.94723,-2.56963 -2.09285,-5.53926 -1.83523,-7.0833 0.44639,-2.67363 3.62083,-3.89925 5.57127,-2.56163 4.77125,2.90884 2.02081,7.45289 -1.10561,10.51854 6.55687,4.90086 12.95215,-1.27042 13.47217,-4.39205 0.5584,-3.34086 -0.89122,-5.9057 -0.89122,-5.9057 2.00484,0.22243 3.59364,3.00966 3.67845,3.90087 0.55519,5.79368 -5.69449,10.81614 -11.14094,9.80493 z M 131.78648,22.70348 c -1.2256,-2.78565 -6.57287,-1.33922 -7.91049,3.00644 -0.39199,1.27999 -0.36001,2.75683 0.0752,4.19847 7.10089,-1.63204 8.66253,-5.32969 7.83531,-7.20491 z m 18.38424,3.22885 c 0.44642,-3.45125 -2.87525,-3.68486 -4.12166,-2.67205 -1.67522,1.36002 -1.08962,5.41767 0.87683,7.3841 1.87202,-1.66243 3.07522,-3.39044 3.24483,-4.71205 z"
               style="fill:#000000;fill-opacity:1;fill-rule:nonzero;stroke:#000000;stroke-width:0.3985;stroke-linecap:butt;stroke-linejoin:miter;stroke-miterlimit:10;stroke-dasharray:none;stroke-opacity:1"
               id="path60" /><g
               id="g62"
               clip-path="url(#clipPath66)"><path
                 d="m 207.28986,26.22992 c -2.68644,1.32002 -3.74726,5.08806 -4.14726,7.35211 -0.0688,8.42891 -2.58082,14.69939 -3.28963,16.3042 1.22241,1.20322 2.60002,2.18402 4.12965,3.01123 -1.89284,1.44803 -5.23688,1.00164 -5.23688,1.00164 0,0 2.00804,1.67199 5.45926,2.56481 -1.94081,0.81601 -3.59042,1.1696 -4.99045,1.2224 -0.5568,5.33289 0.76322,7.73131 3.20804,10.58575 2.67684,3.11686 3.45445,3.67684 2.89763,4.90087 -0.55678,1.2256 -2.67363,0.89282 -4.12164,-0.33441 -4.17444,-4.47686 -4.62406,-11.43055 -4.48966,-15.41459 -0.352,-0.0944 -0.67842,-0.208 -0.9824,-0.34082 -0.59522,0.88642 -2.64965,3.22405 -7.37769,2.49764 -1.77125,-0.272 -3.49766,-0.99361 -5.09288,-2.12323 -3.31365,16.04021 -22.81311,20.42425 -48.68222,25.96835 -26.51715,5.67847 -30.86283,14.59218 -35.09807,19.49625 -0.86241,-0.48002 0.26241,-10.24974 12.45935,-20.62268 0.36643,-2.27843 2.19846,-9.18411 11.27536,-16.36659 6.7201,-5.32169 14.27858,-8.13451 20.56986,-9.24013 -1.19681,-5.09448 3.35525,-9.76012 9.50892,-10.81613 7.80011,-1.33603 15.48822,5.01284 16.15702,7.46248 -12.70258,-10.24653 -25.51554,-3.89765 -24.2883,3.01124 0.008,0.0448 0.0192,0.08319 0.0288,0.12319 3.13605,-0.43839 5.89928,-0.448 7.99371,-0.12319 5.39685,0.83682 6.46087,5.68167 2.78403,7.1313 -3.19365,1.25922 -7.1281,0 -9.91534,-2.67524 -0.7648,-0.8512 -1.3328,-1.71523 -1.73122,-2.57763 -0.5168,0.11841 -1.02081,0.2448 -1.50081,0.38721 -19.51866,6.27048 -26.48515,17.08981 -28.70277,21.91387 1.44322,-1.11842 3.02403,-2.23681 4.74887,-3.34723 18.71863,-12.02896 39.1077,-10.91855 39.1077,-10.91855 0,0 -15.93462,1.56323 -30.1476,8.66571 -12.68495,6.09769 -20.58747,14.33618 -22.99869,18.74583 18.71704,-15.59858 35.20846,-14.70739 56.15272,-20.94586 16.99062,-5.06247 20.34586,-13.34737 21.00507,-16.29622 -3.02405,-2.70723 -5.41127,-7.03207 -6.40808,-12.74576 0.44479,-3.12323 2.96963,7.8705 8.91211,11.43536 5.25928,3.15684 8.1953,1.70402 9.35693,0.7504 -1.12321,-1.0176 -1.56003,-2.08642 -1.56003,-2.08642 0,0 2.14403,1.60162 4.52486,1.96324 0.048,-0.55522 0.0976,-0.96802 0.12642,-1.19524 -1.21123,-1.22241 -2.27205,-2.70402 -3.09125,-4.66566 1.89603,1.55684 4.45926,2.89445 6.46567,2.33763 -8.9153,-6.79689 -6.01767,-10.36172 -15.933,-23.3987 -5.61126,-7.37289 -11.27855,-9.89453 -14.06097,-10.73454 5.51205,5.63529 4.97766,11.99378 3.69764,15.1938 0.224,-9.13611 -4.23526,-13.36978 -9.35693,-16.04341 C 146.38188,8.99771 129.44885,14.56897 109.61499,17.46661 89.78435,20.36424 79.757,17.0202 67.05446,9.22171 c 12.25615,12.70094 26.07072,14.03857 41.00212,12.25615 14.92979,-1.78241 32.5332,-4.68004 32.5332,-4.68004 -0.44479,0.89279 -26.07074,6.90728 -42.11574,6.90728 -16.04341,0 -28.29794,-6.90728 -34.09321,-13.59218 -5.7921,-6.68329 -5.12488,-9.35694 -2.22725,-8.02091 8.46732,8.46732 20.94588,13.81459 31.64041,13.81459 10.69774,0 40.11093,-8.91214 52.14147,-7.57611 10.84176,1.51521 17.78903,4.42726 22.15869,7.80011 16.97302,2.48962 24.92032,18.16183 26.64193,24.3987 0.93764,3.40005 2.24643,5.99048 3.91047,8.02891 0.65281,-1.82564 2.39683,-7.14569 2.92643,-13.32336 -0.4304,-1.90082 -1.62402,-5.79048 -4.68167,-9.22573 1.42084,-0.46081 3.72005,1.23841 4.79846,4.07525 -0.0672,-1.42083 -0.22239,-2.85604 -0.49119,-4.26085 -0.11681,-0.60962 -0.2432,-1.20322 -0.3776,-1.78403 -1.10403,-1.39682 -4.46246,-5.45126 -7.27371,-6.79529 1.58884,-1.34242 4.27048,-0.2176 6.00809,2.40483 -0.73122,-2.08001 -1.60483,-3.94404 -2.63524,-5.64808 -0.56801,-0.56639 -3.25284,-3.03363 -9.31212,-5.44486 1.30243,-1.16962 3.39684,-0.78882 5.28487,0.28481 -1.13761,-1.1568 -2.38083,-2.25922 -3.74564,-3.31684 -1.03203,-0.56642 -2.56164,-1.31363 -4.66087,-2.09443 -4.38246,-1.63361 -3.78725,-3.26885 -2.74724,-3.41765 0.18721,-0.02716 0.46082,-0.0096 0.80322,0.06241 3.85766,0.53601 9.70731,5.54886 13.72498,10.61132 -0.68482,-2.86244 -0.30562,-5.78245 1.44002,-6.21926 -0.43041,4.04965 0.86239,9.10572 1.32481,10.74414 0.67841,1.38081 1.24323,2.69764 1.72324,3.95843 -0.0944,-3.64644 1.70561,-6.10406 3.93443,-5.41446 -1.88482,1.82723 -2.53763,6.88968 -2.73924,9.13933 0.49281,1.87841 0.79202,3.66084 0.96963,5.38886 0.79199,-2.36643 2.52323,-3.15044 4.36965,-2.05283 z M 156.1852,60.24796 c -0.0896,-2.77923 -5.65288,-3.14084 -10.53614,-2.28643 2.34403,5.32326 10.64014,5.34726 10.53614,2.28643 z"
                 style="fill:#000000;fill-opacity:1;fill-rule:nonzero;stroke:#000000;stroke-width:0.3985;stroke-linecap:butt;stroke-linejoin:miter;stroke-miterlimit:10;stroke-dasharray:none;stroke-opacity:1"
                 id="path68" /></g></g></g></g></g></g></svg>
