<?xml version="1.0" encoding="UTF-8" standalone="no"?>
<svg
   xmlns:dc="http://purl.org/dc/elements/1.1/"
   xmlns:cc="http://creativecommons.org/ns#"
   xmlns:rdf="http://www.w3.org/1999/02/22-rdf-syntax-ns#"
   xmlns:svg="http://www.w3.org/2000/svg"
   xmlns="http://www.w3.org/2000/svg"
   xmlns:sodipodi="http://sodipodi.sourceforge.net/DTD/sodipodi-0.dtd"
   xmlns:inkscape="http://www.inkscape.org/namespaces/inkscape"
   version="1.1"
   id="svg2"
   xml:space="preserve"
   width="601.34106"
   height="251.91011"
   viewBox="0 0 601.34106 251.91011"
   sodipodi:docname="vectorian060.pdf"><metadata
     id="metadata8"><rdf:RDF><cc:Work
         rdf:about=""><dc:format>image/svg+xml</dc:format><dc:type
           rdf:resource="http://purl.org/dc/dcmitype/StillImage" /></cc:Work></rdf:RDF></metadata><defs
     id="defs6"><clipPath
       clipPathUnits="userSpaceOnUse"
       id="clipPath24"><path
         d="M 0,0 H 451.0058 V 189.00243 H 0 Z"
         id="path22" /></clipPath></defs><sodipodi:namedview
     pagecolor="#ffffff"
     bordercolor="#666666"
     borderopacity="1"
     objecttolerance="10"
     gridtolerance="10"
     guidetolerance="10"
     inkscape:pageopacity="0"
     inkscape:pageshadow="2"
     inkscape:window-width="640"
     inkscape:window-height="480"
     id="namedview4" /><g
     id="g10"
     inkscape:groupmode="layer"
     inkscape:label="vectorian060"
     transform="matrix(1.3333333,0,0,-1.3333333,0,251.91011)"><g
       id="g12"
       transform="translate(72,117)"><g
         id="g14"
         transform="translate(-72,-117)"><g
           id="g16"><g
             id="g18"><g
               id="g20"
               clip-path="url(#clipPath24)"><path
                 d="m 228.58473,24.4087 c -1.0337,1.46221 -2.18512,3.02593 -2.77923,3.83823 V 93.9427 l 1.98312,2.51934 -1.98312,2.82281 v 23.99033 h 3.63624 v 2.38932 h -3.63624 v 13.01467 c 1.16072,0.19189 2.05023,1.19821 2.05023,2.41165 0,1.35449 -1.10071,2.45522 -2.45333,2.45522 -1.35353,0 -2.45524,-1.10073 -2.45524,-2.45522 0,-1.21344 0.8905,-2.21976 2.05012,-2.41165 V 125.6645 h -3.63624 v -2.38932 h 3.63624 V 99.25436 l -1.9831,-2.97714 1.9831,-2.36492 V 28.22664 l -2.65632,-3.69614 2.65632,-2.99544 V 0.4041 c 0,-0.22331 0.18171,-0.40608 0.40512,-0.40608 0.22239,0 0.4031,0.18277 0.4031,0.40608 v 21.09036 z"
                 style="fill:#000000;fill-opacity:1;fill-rule:nonzero;stroke:#000000;stroke-width:0.3985;stroke-linecap:butt;stroke-linejoin:miter;stroke-miterlimit:10;stroke-dasharray:none;stroke-opacity:1"
                 id="path26" /><path
                 d="m 256.4429,53.85588 c 0,0 0.6397,3.20876 -1.46933,3.84845 -1.80752,0.5585 -3.85554,-1.27943 -3.48904,-5.13797 0.36661,-3.85864 3.85653,-8.26559 10.28422,-10.65184 0,0 -5.26596,3.36104 -7.34558,6.7932 -0.75552,1.24902 -0.97992,2.10193 -0.95141,3.00563 0.0507,1.50282 1.0753,2.55895 2.97114,2.14253 z"
                 style="fill:#000000;fill-opacity:1;fill-rule:nonzero;stroke:#000000;stroke-width:0.3985;stroke-linecap:butt;stroke-linejoin:miter;stroke-miterlimit:10;stroke-dasharray:none;stroke-opacity:1"
                 id="path28" /><path
                 d="m 380.04808,106.92896 c 0,0 -0.18379,2.16484 -3.85754,2.20553 -5.41529,0.0589 -11.57285,-4.35727 -11.97995,-4.65265 0,0 2.18721,2.70812 1.14431,5.75436 0,0 -2.93754,0.73311 -6.79519,-3.48904 -3.85657,-4.22416 -10.16632,-10.03332 -19.52956,-15.24548 0,0 4.21806,1.91611 13.37506,6.70376 10.00905,5.23558 18.29186,7.7121 20.66388,7.99042 3.12035,0.3665 5.14308,-0.3676 5.14308,-3.30624 0,-2.93765 -2.93965,-2.75485 -2.93965,-2.75485 0,0 8.08179,-4.59275 7.16281,2.20344 0,0 1.46932,0.73421 0.55139,2.38834 -0.9179,1.65101 -2.93864,2.20241 -2.93864,2.20241 z"
                 style="fill:#000000;fill-opacity:1;fill-rule:nonzero;stroke:#000000;stroke-width:0.3985;stroke-linecap:butt;stroke-linejoin:miter;stroke-miterlimit:10;stroke-dasharray:none;stroke-opacity:1"
                 id="path30" /><path
                 d="m 246.01955,104.18423 c -0.003,0.2793 -0.0122,0.44481 -0.0142,0.458 -0.001,0.0437 -0.0163,0.0843 -0.0315,0.12181 -0.12491,1.50691 -0.3524,2.99653 -0.70881,4.46585 -0.86811,3.56415 -2.61164,6.09259 -5.18067,7.51311 -0.57469,0.31779 -1.16061,0.54829 -1.74652,0.72909 0.80731,-0.0396 1.48962,-0.0731 1.92732,-0.0731 1.46932,0 4.63535,-0.7301 4.77547,1.65413 0.18379,3.12134 -3.48895,2.75273 -3.48895,2.75273 0,0 1.21641,-1.25302 0.73411,-2.38623 -0.17059,-0.4021 -0.54731,-0.6062 -1.16871,-0.76861 -1.53832,-0.40311 -4.16227,-0.3696 -5.76758,-0.5159 -2.32533,-0.21422 -3.17525,-0.6326 -3.17525,-0.6326 0.18993,0.0214 0.397,0.0396 0.60923,0.0528 -0.0924,-0.0264 -0.19392,-0.0487 -0.28333,-0.0792 -1.1088,-0.36852 -2.12723,-1.06921 -2.98633,-2.00443 1.33633,2.42893 3.44435,4.64257 6.27838,6.5526 1.77492,1.19411 3.74587,2.58212 4.91768,3.82095 2.52132,2.66752 2.62593,4.95426 2.68173,6.18187 0.0691,1.50083 -0.50671,3.79676 -1.93233,5.29348 -1.06521,1.11902 -2.45024,1.68962 -4.11854,1.69572 -0.009,0 -0.0163,0 -0.0244,0 -1.84704,0 -3.33865,-0.69762 -4.31246,-2.01863 -1.29361,-1.75163 -1.37694,-4.12564 -0.88551,-5.69858 0.60931,-1.94862 2.21873,-2.81173 3.52054,-2.96914 1.36064,-0.1634 2.58723,0.3778 3.21275,1.41043 0.60521,1.00431 0.69051,2.38522 0.21429,3.43924 -0.3331,0.73521 -0.89869,1.20742 -1.59222,1.3312 -1.72112,0.30672 -2.46544,-0.87019 -2.49692,-0.9209 -0.11572,-0.18688 -0.0579,-0.43359 0.12801,-0.55139 0.18979,-0.12081 0.43759,-0.063 0.55739,0.12488 0.0213,0.0305 0.51481,0.75241 1.66941,0.55142 0.54322,-0.0975 0.84272,-0.52501 0.99814,-0.86822 0.3666,-0.8103 0.2965,-1.91411 -0.17061,-2.68683 -0.45791,-0.7585 -1.39312,-1.14841 -2.42283,-1.0276 -1.05191,0.12689 -2.35062,0.82661 -2.84514,2.40762 -0.41841,1.33422 -0.3564,3.46155 0.76361,4.97757 0.8275,1.12201 2.05824,1.68962 3.66054,1.68962 0.008,0 0.0152,0 0.0223,0 1.4389,-0.004 2.62893,-0.48939 3.53575,-1.44391 1.45302,-1.52513 1.7546,-3.73974 1.7089,-4.69636 -0.0538,-1.20423 -0.14518,-3.21685 -2.45931,-5.666 -1.11692,-1.182 -3.04325,-2.53751 -4.78157,-3.70833 -5.19796,-3.50014 -8.0716,-8.0076 -8.31232,-13.03397 0,-0.0254 0.008,-0.0497 0.0122,-0.0751 -0.11578,-1.61448 0.13811,-3.25952 0.789,-4.78566 1.37994,-3.23312 4.4526,-4.94613 7.83292,-4.37346 3.19554,0.54633 5.46198,3.36406 5.38888,6.69872 -0.0416,1.91 -0.63972,3.40983 -1.77593,4.45976 -1.00942,0.93521 -2.22183,1.22359 -3.11844,1.29259 l -0.16042,0.1503 c 0,0 -1.30281,0.11581 -2.37611,-0.42439 -1.07321,-0.53922 -2.02373,-1.67553 -2.11304,-3.60375 -0.12799,-2.80153 1.58814,-4.09625 3.21384,-4.15614 1.83682,-0.066 3.07776,1.2256 3.16805,3.03004 0.0437,0.8732 -0.3442,1.69471 -1.07732,1.67751 -0.3828,-0.0112 -1.44801,-0.1838 -1.72322,0.71072 -0.24669,0.80319 0.4488,2.06641 2.39944,1.3647 l -0.2254,0.21132 c 0.49548,-0.16151 1.0083,-0.42352 1.4632,-0.84393 0.96974,-0.89861 1.48053,-2.20543 1.51814,-3.88596 0.0639,-2.93252 -1.91922,-5.40715 -4.71767,-5.88235 -2.99855,-0.51282 -5.72598,1.0154 -6.9536,3.89114 -1.03469,2.42684 -1.01651,5.17656 0.0487,7.5466 0.88641,1.96782 2.43294,3.48284 4.13277,4.04946 1.7252,0.5747 4.45364,0.6986 6.93838,-0.67421 2.36282,-1.30683 3.97334,-3.66065 4.78665,-6.99829 0.39101,-1.61043 0.63062,-3.24836 0.73322,-4.90857 0.0243,-1.87241 -0.18181,-9.05253 -4.45677,-13.71119 l -0.0771,0.08632 c -0.82562,-0.93011 -2.09992,-1.83693 -2.75594,-2.21573 -1.63783,-0.95042 -2.78525,0.1828 -3.11024,1.37801 -0.33611,1.2438 0.14219,2.75484 0.14219,2.75484 0,0 -1.51802,0.5513 -3.10313,-0.32293 -1.21651,-0.61839 -1.85823,-2.27661 -1.67341,-3.90234 0,0 0.2742,-3.34672 3.58245,-3.39754 3.16703,-0.04669 5.88637,2.75484 7.63189,4.89028 l -0.1056,0.11877 c 1.35862,1.46424 2.33143,3.16106 3.02492,4.87709 -1.2632,-5.11056 -3.75804,-10.38983 -7.48668,-15.8101 -1.78514,-2.59444 -3.31744,-5.15029 -4.60907,-7.66341 -0.18269,0.05081 -0.37059,0.0883 -0.5706,0.0883 -1.1495,0 -2.08162,-0.9331 -2.08162,-2.08152 0,-0.71593 0.3625,-1.34653 0.91281,-1.72122 -2.33543,-5.52786 -3.44125,-10.83854 -3.27365,-15.86492 0.23961,-7.20947 2.26233,-11.55554 6.17779,-13.27154 1.0418,-0.45693 2.01462,-0.64992 2.90104,-0.64992 2.06441,0 3.66875,1.04591 4.62425,2.30502 0.86011,1.12712 1.39423,2.86353 1.43073,4.64046 0.0609,2.99553 -1.44393,6.25508 -4.89327,6.35658 -1.27232,0.0305 -2.40054,-0.38591 -3.27175,-1.23881 -1.21041,-1.16771 -1.64191,-2.83303 -1.64191,-4.00075 0,-1.72623 0.92711,-3.23924 2.25424,-3.68595 0.69249,-0.23361 1.3992,-0.13201 2.0166,0.2538 l 0.067,-0.132 c 2.10192,1.48251 1.92932,3.64536 0.9078,4.36637 -0.87021,0.6194 -2.55583,0.23348 -2.54663,-0.89364 0.005,-0.6499 0.8235,-0.74119 1.29561,-1.0865 0.4427,-0.3249 0.459,-0.99512 -0.16139,-1.41142 l 0.068,-0.12181 c -0.42949,-0.2945 -0.90572,-0.36559 -1.39011,-0.2031 -0.82042,0.27413 -1.70393,1.29973 -1.70393,2.91425 0,0.9545 0.36661,2.42683 1.39934,3.42195 0.71989,0.70059 1.6145,1.03569 2.68072,1.00531 2.90105,-0.0813 4.16425,-2.92444 4.11035,-5.52397 -0.0233,-1.23873 -0.36961,-2.99545 -1.26522,-4.17337 -1.18091,-1.5536 -3.52344,-2.73143 -6.55759,-1.40122 -3.60164,1.57384 -5.46497,5.68628 -5.69446,12.56078 -0.1624,4.90446 0.92002,10.10342 3.21074,15.51759 0.1371,-0.0274 0.27928,-0.0446 0.4245,-0.0446 1.14941,0 2.08163,0.93211 2.08163,2.08263 0,0.66 -0.31379,1.24081 -0.79312,1.62162 1.27643,2.48473 2.78945,5.01107 4.55628,7.5781 2.15672,3.13153 3.89414,6.21939 5.24055,9.25862 -0.48131,-1.43282 -1.00631,-2.88794 -1.57902,-4.30035 -3.12233,-7.71311 -3.90525,-9.36623 -4.22415,-11.38796 -0.6478,-4.10126 1.44703,-6.06917 3.48394,-5.93718 1.85522,0.12181 3.66166,1.98313 3.31235,5.56859 0,0 -2.49905,-1.75774 -3.67384,0.36859 -1.23374,2.23393 1.04281,6.7607 2.70613,11.75456 3.12134,9.36722 3.30614,16.30051 3.30614,16.30051 0,0 -0.0416,-0.20921 -0.1218,-0.58491 0.14819,1.59422 0.1767,3.17015 0.0782,4.72576 z"
                 style="fill:#000000;fill-opacity:1;fill-rule:nonzero;stroke:#000000;stroke-width:0.3985;stroke-linecap:butt;stroke-linejoin:miter;stroke-miterlimit:10;stroke-dasharray:none;stroke-opacity:1"
                 id="path32" /><path
                 d="m 449.61668,167.88976 c -2.43193,9.0484 -9.96034,19.21794 -23.79751,20.62226 -13.67058,1.38601 -24.11011,-3.68495 -32.87721,-15.96352 -0.93523,-1.30682 -1.77195,-2.62682 -2.54165,-3.96723 0.0264,0.1351 0.0528,0.27119 0.0741,0.4082 0.24778,1.66022 0.0589,3.58342 -1.28853,4.88626 -1.89072,1.82773 -5.45387,0.7341 -5.50966,-2.02073 -0.0254,-1.21752 0.4518,-2.12633 1.14531,-2.61573 0.58801,-0.4163 1.36781,-0.44272 1.97702,-0.5057 1.25713,-0.12893 1.71911,-1.07932 1.69682,-2.22673 -0.0224,-1.08152 -0.53821,-2.23603 -0.99612,-3.28395 -0.36249,-0.8306 -0.6265,-1.45511 -0.6265,-1.45511 l 0.36251,0.47421 c -0.91291,-2.05823 -1.77903,-4.19267 -2.69294,-6.4418 -0.50161,-1.2347 -1.01541,-2.49793 -1.55261,-3.79265 -2.37405,-0.36861 -4.84656,-0.9047 -7.42371,-1.64491 2.00644,7.21049 2.79035,13.07756 2.86655,16.2487 0.1797,7.64721 -2.61885,12.14957 -7.6756,12.35165 -2.35074,0.0893 -4.40695,-0.68849 -5.76557,-2.20352 -1.28243,-1.43172 -1.81554,-3.35593 -1.50483,-5.42337 0.527,-3.50415 3.14475,-5.08417 5.34618,-4.81007 1.41551,0.18281 2.71112,1.30484 3.15294,2.73054 0.39601,1.27332 0.34929,2.37814 -0.13611,3.28085 -0.66612,1.24181 -1.92014,1.61853 -1.97304,1.63483 -0.21419,0.0589 -0.4366,-0.0599 -0.4995,-0.27321 -0.063,-0.21321 0.0578,-0.4376 0.27111,-0.5036 0.0101,-0.001 0.99312,-0.30672 1.49573,-1.24902 0.3726,-0.70361 0.397,-1.59523 0.069,-2.65125 -0.34931,-1.13221 -1.37082,-2.02371 -2.48163,-2.16691 -1.82372,-0.2356 -3.99466,1.12921 -4.44556,4.12775 -0.2742,1.82461 0.1899,3.51634 1.30891,4.76435 1.19512,1.33222 3.01683,2.02575 5.12987,1.93334 4.55216,-0.1808 7.06839,-4.38057 6.90079,-11.52306 -0.0761,-3.20663 -0.88641,-9.19562 -2.96803,-16.54521 -2.72945,-0.82761 -5.57059,-1.87953 -8.52343,-3.18544 0.0182,3.33774 -0.196,5.58078 -0.196,5.58078 -0.263,3.33774 -0.7382,7.06229 -1.50082,11.20112 l -1.8623,-0.74531 c -0.43053,1.10683 -0.87833,2.14966 -1.32914,3.13565 0.70061,0.43051 1.17182,1.19711 1.17182,2.07854 0,1.35251 -1.09671,2.45022 -2.44924,2.45022 -0.3249,0 -0.63461,-0.068 -0.9179,-0.18179 -0.75962,1.3627 -1.42673,2.44513 -1.89684,3.17114 l 1.22254,0.7433 c -11.11477,11.93935 -23.46232,11.27124 -24.83115,11.20415 -5.10756,-0.2487 -9.1651,-1.37381 -12.39723,-2.96702 -1.52614,-0.64374 -4.83138,-2.48163 -7.95282,-0.70673 -1.37281,0.78191 -4.03226,1.36671 -3.85655,-0.73311 0.14321,-1.71004 2.64724,-2.32733 5.81327,-1.95984 0.73622,0.0853 1.49472,0.26402 2.24514,0.49352 -9.24541,-7.51511 -10.42633,-18.44204 -8.08071,-26.92595 3.15384,-11.40213 12.35767,-16.31981 20.55005,-16.31981 0.45493,0 0.90782,0.0152 1.35463,0.0467 4.47087,0.2995 8.43912,2.19233 11.17566,5.32485 2.89192,3.31534 4.23944,7.71923 3.89313,12.73649 -0.2995,4.36525 -2.17092,8.10611 -5.27207,10.52992 -2.53952,1.98512 -5.71677,2.95685 -8.9042,2.77614 0.18381,0.0396 0.35951,0.0853 0.5473,0.11981 0,0 -3.94695,0.36549 -8.69002,-2.98536 -3.10203,-2.19231 -4.28604,-3.06042 -5.63246,-2.57003 -1.34651,0.48943 -1.46931,2.32634 -0.3676,3.05945 0,0 -3.24025,0.98401 -4.89838,-1.34542 -2.12222,-2.98432 0.85802,-7.4705 5.02128,-6.12298 1.66521,0.53921 3.05233,1.65002 4.12155,2.78422 -0.43763,-0.9676 -0.77271,-1.99931 -0.9697,-3.07971 -0.73822,-4.09216 -0.0437,-8.02691 1.86231,-10.52183 1.31692,-1.72513 3.12843,-2.70095 5.38578,-2.90006 2.60042,-0.23051 4.70134,0.8266 5.60816,2.82694 0.71481,1.57701 0.59911,3.84036 -0.25899,5.04767 -1.00832,1.4165 -2.69594,1.62272 -3.92256,1.19721 -1.38092,-0.47721 -2.22983,-1.68962 -2.16283,-3.08683 0.0406,-0.80321 0.30771,-1.42675 0.79611,-1.85114 0.7453,-0.64281 1.72013,-0.55749 1.76174,-0.5534 0.22139,0.0233 0.3828,0.21831 0.36148,0.4396 -0.0183,0.22342 -0.2366,0.3839 -0.4366,0.36562 -0.008,-0.001 -0.6844,-0.0528 -1.16272,0.36549 -0.31169,0.27222 -0.48432,0.69972 -0.51169,1.27132 -0.0599,1.25102 0.7961,2.00044 1.61951,2.28573 0.94131,0.3239 2.23292,0.17362 2.99855,-0.90371 0.62251,-0.87332 0.8439,-2.78533 0.18278,-4.24247 -0.76049,-1.67541 -2.55684,-2.55583 -4.80186,-2.35781 -2.02171,0.17981 -3.64235,1.04902 -4.81416,2.58433 -1.74352,2.28563 -2.39841,6.07417 -1.70891,9.89012 0.76051,4.20897 3.66366,7.69692 7.28158,8.94893 -2.75692,-2.03084 -3.51544,-6.1869 -1.11499,-8.28071 2.00751,-1.74863 5.53105,0.11668 4.92484,3.37724 0,0 -1.94151,-0.64581 -2.51212,1.57092 -0.35341,1.37082 0.66301,3.89104 3.85445,3.63724 l -0.009,0.14111 c 2.18722,-0.28331 4.28505,-1.1423 6.05498,-2.52434 2.91623,-2.28062 4.67804,-5.81327 4.96236,-9.94912 0.32899,-4.79686 -0.9474,-8.99762 -3.69514,-12.14847 -2.59434,-2.97113 -6.36667,-4.76535 -10.62024,-5.05176 -8.18232,-0.54732 -17.86533,4.08606 -21.07207,15.68222 -0.8631,3.11733 -4.19066,18.44413 10.16034,27.79206 1.23271,0.54219 2.2928,1.0794 2.97824,1.36569 7.77399,3.24437 14.81087,1.86642 16.92599,1.38614 10.13394,-2.30504 13.9915,-11.73325 13.9915,-11.73325 l 2.05931,1.25411 c 0.47213,-0.72612 1.15862,-1.83792 1.93643,-3.24334 -0.3859,-0.43251 -0.6276,-0.99711 -0.6276,-1.62362 0,-1.35152 1.09671,-2.44814 2.44822,-2.44814 0.0772,0 0.1493,0.0162 0.2244,0.0233 0.46001,-1.00221 0.92104,-2.06741 1.35962,-3.19655 l -1.70691,-0.68339 c 0,0 3.53064,-5.71778 4.29526,-15.85681 -0.2437,-0.1147 -0.48943,-0.23351 -0.73513,-0.35131 -2.44412,16.38381 -12.89584,28.08757 -22.49568,32.37163 -7.00238,3.12543 -10.73504,1.53232 -12.33635,0.30769 -1.61044,-1.23272 -2.46745,-3.18234 -2.18524,-4.96448 0.23461,-1.4936 1.10481,-2.62992 2.45224,-3.20261 1.49681,-0.63762 3.39154,-0.4863 4.60596,0.36459 1.00221,0.70162 1.38401,2.10392 0.9281,3.40675 -0.38079,1.09052 -1.42261,2.20952 -3.20464,2.10393 -0.22439,-0.0152 -0.393,-0.20821 -0.3788,-0.42952 0.0132,-0.2224 0.20209,-0.4001 0.4285,-0.37778 1.13222,0.0681 2.02485,-0.51481 2.39245,-1.56274 0.33709,-0.96561 0.0781,-1.98312 -0.62963,-2.47963 -0.98392,-0.68741 -2.59441,-0.80421 -3.82614,-0.28229 -0.7656,0.32599 -1.72621,1.0368 -1.97092,2.5863 -0.23661,1.49264 0.5016,3.14066 1.87851,4.19567 1.45824,1.11902 4.89436,2.55284 11.51596,-0.4021 9.44643,-4.21807 19.73676,-15.7888 22.0651,-32.00201 -0.80523,-0.39801 -1.61754,-0.8154 -2.43905,-1.25103 -1.4277,-0.7615 -2.78933,-1.516 -4.11955,-2.26841 l -7.0775,-0.84382 -2.84422,-5.21516 c -8.81693,-5.82758 -15.14702,-11.26304 -20.56738,-15.91881 -3.08074,-2.64823 -5.86298,-5.03447 -8.72451,-7.21049 -1.08241,1.5729 -2.57603,3.04423 -4.65367,4.03024 1.83893,0.54222 5.63558,1.74443 9.34093,3.40366 1.36983,0.51381 2.77715,1.17181 4.13376,1.97091 l -0.0274,0.12691 c 1.14332,0.68039 2.18824,1.40331 3.04215,2.16592 3.28795,2.93663 3.22604,5.53199 2.89604,6.81859 -0.40622,1.58602 -1.67043,2.91936 -3.07474,3.24324 -1.37582,0.31581 -2.74064,0.0365 -3.74894,-0.76361 -0.42542,-0.34019 -0.75754,-0.75041 -0.98392,-1.20942 l -0.13613,0.007 c 0,0 -0.85699,-1.58102 -0.25888,-3.28085 0.7128,-2.03192 3.30823,-1.93441 3.88706,-0.3057 0.5504,1.55061 -0.39802,2.66242 -1.19312,2.44923 -0.71592,-0.1919 -0.88853,-0.64281 -1.36271,-0.73412 -0.47423,-0.0924 -0.39803,1.13112 0.13607,1.80544 l -0.14828,0.008 c 0.1544,0.22739 0.33411,0.4457 0.56461,0.62749 0.80009,0.63772 1.94653,0.87022 3.06253,0.60821 0.9179,-0.2122 2.08262,-1.1332 2.47453,-2.65632 0.4895,-1.91303 -0.45281,-4.05046 -2.65325,-6.01428 -0.75448,-0.67531 -1.6724,-1.32311 -2.68582,-1.93543 l -0.0305,0.14011 c -2.96702,-1.65813 -5.69847,0.11879 -8.33861,0.75851 -4.04236,0.97891 -5.12275,-1.43074 -4.74806,-3.12245 0.2558,-1.15451 1.67941,-2.01862 3.90834,-1.93134 -3.01582,-1.0743 -5.33505,-1.70381 -5.38785,-1.7201 l -1.24891,-0.33402 1.21841,-0.43561 c 2.47873,-0.88551 4.19275,-2.47662 5.37776,-4.20384 -0.94951,-0.70781 -1.91002,-1.39523 -2.89606,-2.05933 -0.2538,-0.1696 -0.5047,-0.3351 -0.75648,-0.5057 l -0.8905,1.69372 c -0.53712,0.8611 -1.67244,1.12212 -2.53144,0.58591 -0.85903,-0.53812 -1.12103,-1.67233 -0.58284,-2.53345 l 0.93415,-1.777 c -4.43837,-2.89905 -8.89302,-5.58988 -13.68079,-7.92742 -0.198,-0.0457 -0.4031,-0.10249 -0.6153,-0.17769 -2.54565,-0.9199 -4.30137,0.0335 -6.0184,0.69359 0,0 -0.6824,-3.42702 -3.96624,-4.73794 -0.2224,-0.08842 -0.44269,-0.196 -0.6631,-0.30872 -3.96625,-1.25711 -8.23101,-2.2745 -12.93848,-2.98233 -18.53343,-2.77612 -23.50601,9.18552 -23.8685,10.13495 -0.0386,0.14517 -0.0579,0.22948 -0.0599,0.24069 -0.0457,0.2193 -0.26399,0.3625 -0.47729,0.31578 -0.21831,-0.0457 -0.3604,-0.25897 -0.31571,-0.47827 0.003,-0.0102 0.0264,-0.11172 0.071,-0.27823 0.002,-0.009 0,-0.0183 0.004,-0.0285 0.002,-0.003 0.007,-0.0172 0.0122,-0.0345 0.30971,-1.11491 1.55362,-4.88107 5.12077,-8.90831 -0.26001,0.23771 -0.53621,0.4681 -0.83062,0.6834 0,0 1.46931,-1.53932 1.85113,-3.25943 0.3929,-1.77193 -0.1716,-3.82924 -2.96715,-3.64235 0,0 -0.3696,-1.49773 0.13921,-2.67264 0.30762,-0.7128 1.0702,-1.32712 2.04703,-1.36061 1.88063,-0.06601 2.82084,1.91913 2.70912,4.22414 -0.0822,1.67543 -0.7605,3.47885 -2.01052,5.01918 4.48516,-4.58666 12.09066,-9.23523 24.84034,-10.44965 3.42092,-0.325 6.71187,-0.4752 9.88202,-0.4752 14.70639,0 26.69134,3.23104 35.77737,7.0957 l 2.37613,-4.50437 3.30513,1.71502 -2.33342,4.29826 c 1.6338,0.78192 3.15182,1.57292 4.56024,2.35783 0.41733,-0.85601 1.28653,-1.45202 2.30403,-1.45202 1.42053,0 2.57205,1.1504 2.57205,2.57104 0,0.25591 -0.0487,0.4975 -0.11882,0.7311 3.49715,2.06233 21.40708,13.22686 34.25016,32.65693 4.86285,7.35779 8.1112,13.56906 10.63863,19.09604 7.3526,-0.1513 11.24674,-2.13743 11.24674,-6.38397 0,0 0.0183,-0.79602 -0.34009,-1.32414 -0.40821,-0.59799 -1.26931,-0.88231 -2.59855,0.21942 0,0 -1.45812,-3.42507 1.60441,-5.18777 3.35186,-1.92733 9.04644,2.68064 4.20997,9.47581 -2.33753,3.28496 -7.4278,4.82439 -13.38128,4.84666 0.60822,1.36983 1.1759,2.70005 1.71404,3.99366 7.48468,1.09762 13.92755,0.4488 19.33873,-1.07941 1.56373,-8.4391 7.06941,-18.57204 18.58824,-20.52675 1.78923,-0.30362 3.51546,-0.45181 5.18079,-0.46202 1.53122,-3.98045 2.32733,-8.2086 2.19531,-12.34955 -0.35639,-11.27525 -6.47128,-18.07345 -12.07335,-20.67598 -6.08449,-2.83003 -17.37494,-2.39132 -21.88138,5.79698 -2.19833,3.99776 -2.69693,8.68901 -1.36671,12.86946 1.12199,3.52456 3.37112,6.25708 6.33317,7.69291 5.97168,2.89903 10.86504,0.4965 12.88167,-2.96105 1.07831,-1.85002 1.79111,-5.11256 0.80721,-7.9091 -0.6438,-1.82872 -1.89682,-3.11325 -3.72554,-3.81694 -2.13643,-0.82051 -4.21196,-0.56963 -5.55748,0.6681 -1.03672,0.95551 -1.44793,2.34163 -1.07222,3.61693 0.2183,0.74634 0.5727,1.24594 1.05192,1.48863 0.0721,0.0366 0.14418,0.064 0.2143,0.0873 l 0.1493,-0.10051 c 1.27022,0.27522 1.73021,-0.87432 1.10172,-1.53022 -0.6275,-0.65901 -1.61962,-0.0152 -1.61962,-0.0152 0.44579,-0.81241 1.5282,-1.42261 2.70713,-0.8266 1.17792,0.59612 1.56473,2.70004 -0.10869,3.42804 -1.74044,0.76061 -3.12845,-0.35132 -3.12845,-0.35132 l 0.13699,-0.0934 c -0.5859,-0.36857 -1.0225,-0.9839 -1.27941,-1.8592 -0.463,-1.57192 0.0345,-3.27175 1.29973,-4.43747 1.5749,-1.45201 3.96525,-1.76171 6.39417,-0.82851 2.03182,0.77882 3.48285,2.26845 4.19875,4.30435 1.06822,3.03606 0.29651,6.57689 -0.8712,8.58132 -2.19642,3.76924 -7.4928,6.40627 -13.93369,3.28285 -3.16303,-1.53534 -5.55937,-4.43736 -6.74949,-8.1751 -0.18889,-0.59301 -0.3391,-1.19923 -0.46001,-1.81053 -0.0345,0.97879 -0.0406,1.90793 -0.0446,2.79444 -0.003,2.11912 -0.009,3.94993 -0.44069,5.81736 -0.74942,3.24625 -2.23192,4.60697 -3.34284,5.17458 -1.14643,0.5869 -2.45425,0.62651 -3.68284,0.11069 -1.42973,-0.59911 -2.38225,-2.00751 -2.48584,-3.67286 -0.0903,-1.42759 0.47519,-2.67152 1.47641,-3.24832 0.6834,-0.39392 1.34952,-0.50061 1.97603,-0.31372 0.6438,0.18993 1.21452,0.70062 1.56981,1.39824 0.34932,0.6895 0.2783,1.56072 0.2742,1.59621 -0.0203,0.22241 -0.21417,0.3838 -0.4366,0.36661 -0.2224,-0.0183 -0.38689,-0.21431 -0.36861,-0.43561 10e-4,-0.006 0.0528,-0.68242 -0.18889,-1.15961 -0.12082,-0.23862 -0.46711,-0.80933 -1.0794,-0.99312 -0.40711,-0.1178 -0.85903,-0.0396 -1.34444,0.24069 -0.7321,0.42243 -1.14331,1.37793 -1.0722,2.49686 0.066,1.0642 0.6244,2.40662 1.99221,2.98033 1.00531,0.42029 2.07143,0.3909 3.00154,-0.0853 1.37493,-0.70371 2.38634,-2.30702 2.92345,-4.63846 0.41231,-1.77702 0.4173,-3.56615 0.4234,-5.63656 0.007,-2.94075 0.0163,-6.27229 1.16982,-10.69144 0.0132,-0.0457 0.0335,-0.0893 0.0609,-0.12691 0.36251,-1.26111 0.86312,-2.49385 1.50893,-3.66874 4.73895,-8.61182 16.56561,-9.09713 22.9292,-6.14028 5.81937,2.70513 12.17085,9.74402 12.54045,21.38277 0.13201,4.15205 -0.6519,8.38539 -2.15573,12.38617 6.37788,0.15228 11.76366,2.48264 15.78271,6.90378 7.5273,8.27371 8.87581,22.24179 6.31598,31.76442 z m -75.22247,-18.73145 c -0.26201,-0.89153 -0.54931,-1.80544 -0.8479,-2.73253 -2.52733,-0.51382 -5.05778,-1.24892 -7.47451,-2.20343 0.0254,0.62041 0.0437,1.21752 0.0538,1.79122 2.86254,1.27842 5.61938,2.32023 8.26861,3.14474 z m -10.58273,-14.25348 c 0.1148,1.58301 0.1584,3.21483 0.10971,4.91267 -0.0254,0.9484 -0.0853,1.8785 -0.16452,2.79842 0.1716,0.0691 0.3462,0.13712 0.52492,0.20621 0.0325,-2.43303 -0.10251,-5.07718 -0.47011,-7.9173 z m 1.99732,5.54117 c 0.10259,1.0388 0.1747,2.04603 0.2254,3.01073 2.09384,0.7098 4.49127,1.34442 7.10899,1.73022 -2.97823,-8.826 -7.71311,-18.99445 -14.97749,-28.52006 1.06321,1.80541 2.00552,3.70625 2.80564,5.71168 l -0.2102,-0.81531 c 2.88992,6.32708 4.46484,12.99837 5.04766,18.88274 z m -1.60743,4.67705 c 0.0305,-0.54331 0.0528,-1.09972 0.067,-1.66632 -0.1868,-0.0843 -0.37461,-0.16961 -0.55942,-0.25589 -0.0528,0.53819 -0.11681,1.06921 -0.1848,1.59723 0.2274,0.10969 0.4518,0.2153 0.6772,0.32498 z M 249.8995,97.48755 c -0.0193,-0.0071 -0.0376,-0.0172 -0.0549,-0.02541 -0.0497,0.08429 -0.0934,0.16352 -0.14112,0.2468 0.065,-0.07518 0.12891,-0.14829 0.196,-0.22139 z m 76.6166,-7.0988 -1.93442,3.56216 -3.30414,-1.46733 1.89781,-3.59863 c -10.93304,-4.64359 -26.10554,-8.35083 -45.20559,-6.5302 -14.23717,1.35462 -21.90766,7.04799 -25.96332,12.02565 3.27985,-2.95795 10.27711,-7.6015 22.58398,-8.6077 1.93744,-0.15742 3.80886,-0.23051 5.60718,-0.23051 14.73378,0 24.66152,4.94608 27.27525,8.95392 1.45612,2.23393 1.69371,4.44046 0.63361,5.90066 -0.77072,1.06823 -2.09982,1.50484 -3.46353,1.13822 -1.76893,-0.47211 -2.57113,-1.99222 -2.44923,-3.25234 0.11878,-1.20831 1.0377,-2.04501 2.34251,-2.13243 0.20412,-0.02638 0.41529,0.15341 0.42961,0.37682 0.0152,0.22227 -0.15341,0.4153 -0.37682,0.4285 -0.9159,0.06289 -1.50991,0.5879 -1.5891,1.40632 -0.0903,0.91889 0.5169,2.03693 1.85113,2.39234 1.03569,0.27519 2.03082,-0.0406 2.60251,-0.82962 0.85402,-1.18093 0.60823,-3.04525 -0.65799,-4.98678 -2.82285,-4.33074 -14.6586,-9.78451 -32.13913,-8.3609 -12.31395,1.00621 -19.26753,5.83559 -22.35347,8.6696 3.00972,-2.35272 7.52228,-4.41905 14.10217,-4.41905 1.64801,0 3.42705,0.13102 5.34216,0.41831 4.20687,0.63061 8.05842,1.50993 11.66317,2.58023 3.45854,0.84881 9.52162,2.64415 14.60067,5.75738 0,0 -0.0792,0.0203 -0.2193,0.0447 4.19266,2.14863 8.1518,4.56335 12.09777,7.13739 l 0.95749,-1.82161 c 0.53823,-0.86013 1.67244,-1.12213 2.53045,-0.58492 0.86112,0.53922 1.12201,1.67142 0.5849,2.53043 l -1.00322,1.90793 c 0.27721,0.18491 0.55233,0.36761 0.82752,0.55341 0.98392,0.66111 1.94053,1.34441 2.88585,2.04913 1.93332,-3.22196 2.17702,-6.64179 2.18012,-6.69768 l 0.0853,-1.40235 0.6732,1.23172 c 0.45191,0.83062 1.21752,1.98514 2.16991,3.31025 -0.32998,-0.89251 -0.52697,-1.76172 -0.50357,-2.56493 0.10858,-4.03935 5.41526,-3.39654 5.41526,2.47974 0,2.67253 -0.71293,5.33806 0.93821,7.2846 l -0.0853,0.10859 c 2.66651,3.14375 5.31166,5.96467 6.82358,7.06639 2.04913,1.48753 3.42104,1.65811 4.84567,1.45613 2.32632,-0.32901 4.30233,-2.26244 4.80694,-4.70148 0.50983,-2.46342 0.0741,-4.78566 -1.16362,-6.21538 -0.854,-0.98489 -2.02981,-1.45711 -3.37532,-1.3809 -2.04803,0.12379 -3.29605,1.4053 -3.78247,2.56282 -0.43959,1.05201 -0.33098,2.10904 0.29552,2.82904 0.99722,1.15041 2.46342,0.31981 2.52434,0.28331 0.193,-0.1127 0.43771,-0.0457 0.55241,0.1472 0.11168,0.19191 0.0488,0.43869 -0.1432,0.5514 -0.72194,0.4234 -2.39025,0.87531 -3.54375,-0.4529 -0.83273,-0.95752 -0.99513,-2.32833 -0.43062,-3.67075 0.58092,-1.38202 2.06134,-2.91124 4.47907,-3.05645 1.6155,-0.0975 3.01073,0.4762 4.03524,1.65824 1.40132,1.61853 1.90293,4.20175 1.34441,6.90788 -0.57161,2.76703 -2.82792,4.96236 -5.48425,5.33707 -1.92324,0.2731 -3.49605,-0.1929 -5.43447,-1.60234 -1.55772,-1.13419 -4.19987,-3.93272 -6.8633,-7.06126 l -0.0548,0.0681 c -0.4793,-0.60523 -1.0804,-1.35264 -1.71003,-2.18725 -2.33952,-2.86864 -4.51355,-5.76657 -5.76556,-7.7548 -0.23761,1.36473 -0.81943,3.70526 -2.18513,5.95138 2.89393,2.19945 5.69957,4.60497 8.80772,7.27451 5.60718,4.81816 11.72305,10.06892 20.23225,15.7065 l 5.59096,0.16349 4.03627,5.74528 c 1.47142,0.8357 3.00264,1.68052 4.60295,2.53143 0.72901,0.38791 1.45203,0.7585 2.16892,1.11702 0.065,-0.5291 0.12391,-1.0622 0.17361,-1.60132 -1.97091,-0.97992 -3.82306,-2.10803 -5.47106,-3.38344 0,0 2.06942,1.39211 5.51577,2.85533 0.064,-0.82652 0.11679,-1.65513 0.14108,-2.49893 0.40723,-14.54289 -5.53396,-24.64532 -13.52835,-32.78181 -0.37982,-0.36762 -0.75252,-0.73922 -1.14242,-1.10282 -0.0365,-0.0345 -0.0629,-0.0761 -0.0832,-0.1177 -2.49295,-2.41676 -5.15438,-4.66387 -7.86652,-6.81049 -1.3322,-1.05402 -3.09094,-2.34154 -5.24567,-3.73265 -0.42039,0.2975 -0.92909,0.4772 -1.48352,0.4772 -1.41961,0 -2.57214,-1.15042 -2.57214,-2.57103 0,-0.11271 0.0204,-0.2173 0.0336,-0.32492 -1.449,-0.81341 -3.01783,-1.63479 -4.71055,-2.44212 z m 43.27727,36.60087 c -12.6847,-19.19145 -30.34591,-30.25448 -33.91915,-32.36651 -0.0112,0.01419 -0.0264,0.02839 -0.0376,0.04159 2.11512,1.37082 3.84134,2.64214 5.15836,3.68296 3.21385,2.54263 6.35547,5.22837 9.23622,8.165 12.49275,12.12917 19.77234,26.73094 23.7924,38.79419 0.64882,0.0812 1.31093,0.14621 1.98414,0.19391 1.50891,0.10359 2.90612,0.14929 4.21295,0.1472 -2.49283,-5.41627 -5.68839,-11.49043 -10.42732,-18.65834 z m 11.16752,20.29017 c -2.10492,-0.0437 -4.30125,-0.27111 -6.51489,-0.67521 0.3056,0.9636 0.59302,1.90792 0.86003,2.83194 2.53862,0.75141 4.97667,1.3048 7.31817,1.68972 -0.52288,-1.24802 -1.07629,-2.52844 -1.66331,-3.84645 z m 40.66263,-16.80932 c -10.92394,1.85213 -16.23962,11.37474 -17.85012,19.46973 3.64944,-1.11699 6.81448,-2.61983 9.49111,-4.23434 5.77878,-3.48995 10.39694,-9.22101 13.07356,-15.68721 -1.518,0.0274 -3.09094,0.17671 -4.71455,0.45182 z m 21.08118,6.19819 c -3.92365,-4.31146 -9.21604,-6.5566 -15.4964,-6.64191 -2.72333,6.74649 -7.5161,12.74148 -13.52739,16.36961 -1.83182,1.10582 -3.89525,2.16185 -6.17586,3.08187 0.74539,0.0507 1.58002,0.27508 2.48071,0.7971 3.48897,2.02061 0.85501,6.39807 -1.4683,4.77545 -1.03882,-0.725 -0.96973,-1.87953 -0.67731,-2.60153 0.24579,-0.60921 0.67731,-0.88841 0.67731,-0.88841 0,0 -0.9393,-1.57701 -3.49206,-1.17081 -0.464,0.1543 -0.93621,0.30159 -1.41651,0.44469 -0.2376,1.41763 -0.36451,2.78235 -0.3828,4.03735 -0.0345,2.36494 0.27921,6.94959 2.75684,11.11386 3.05851,5.13497 8.8758,7.94769 15.54609,7.51709 8.83011,-0.56561 14.97649,-7.4451 15.2943,-17.11792 0.132,-4.07895 -1.20022,-7.88881 -3.65755,-10.45885 -1.80133,-1.88162 -4.09924,-2.93362 -6.4733,-2.96102 -4.52475,-0.0731 -6.50065,2.36694 -7.33639,4.40284 -0.5443,1.32623 -0.74939,2.79856 -0.69861,4.20388 l 0.14212,-0.50161 c 0,0 -0.20712,2.59642 1.13222,4.50034 1.37791,1.95874 3.06053,0.39802 3.06053,0.39802 0,0 -0.97893,-2.05113 0.21521,-3.94795 0.69659,-1.10882 1.99942,-1.39313 3.06053,-1.1027 0.76052,0.20606 1.34131,0.7199 1.74542,1.37789 1.07032,1.74353 0.6743,5.08017 -1.77491,6.54949 -2.45024,1.46933 -7.1628,0.27521 -8.23513,-4.95827 l 0.0955,-0.3412 c -0.4112,-2.04613 -0.3331,-4.43236 0.5097,-6.48547 1.29984,-3.16614 4.11858,-4.90458 7.94773,-4.90458 0.0478,0 0.0965,0 0.14518,0.002 2.59145,0.0284 5.09647,1.16872 7.04808,3.21074 2.60656,2.72544 4.02108,6.75049 3.88097,11.04173 -0.32602,9.95314 -6.92718,17.31494 -16.0508,17.89774 -6.98811,0.44169 -13.07559,-2.50903 -16.29043,-7.90911 -2.58113,-4.33375 -2.90613,-9.089 -2.87053,-11.53823 0.0172,-1.18192 0.12891,-2.45734 0.33302,-3.78244 -5.31679,1.45111 -11.58897,2.06642 -18.82995,1.0693 0.47111,1.13821 0.925,2.25621 1.36982,3.34984 1.77291,4.36735 3.38334,8.30921 5.47007,12.06016 -0.0417,-0.1482 -0.0874,-0.29551 -0.12491,-0.4488 0,0 0.93211,1.88762 2.63293,3.33973 0.79102,0.67222 1.82782,1.33321 2.81583,1.59112 2.19732,0.57171 3.42807,-0.9189 2.45424,-2.59542 0,0 4.22517,-0.23862 4.64857,2.94783 0.29958,2.27854 -2.57203,5.15627 -6.79619,2.92133 -0.19603,-0.1026 -0.4011,-0.22949 -0.6092,-0.36861 8.18019,10.06384 17.5454,14.01788 29.95387,12.76288 13.42798,-1.36273 20.73596,-11.23975 23.0988,-20.02716 2.50302,-9.31043 1.19923,-22.95261 -6.13107,-31.01199 z"
                 style="fill:#000000;fill-opacity:1;fill-rule:nonzero;stroke:#000000;stroke-width:0.3985;stroke-linecap:butt;stroke-linejoin:miter;stroke-miterlimit:10;stroke-dasharray:none;stroke-opacity:1"
                 id="path34" /><path
                 d="m 280.03209,76.05406 c 1.05203,-0.40211 2.07143,-0.76359 2.67464,-0.8976 1.65312,-0.3666 4.39775,-0.1828 4.59275,2.20441 0.18891,2.33655 -2.00042,3.77237 -4.22615,2.75483 0,0 1.46212,-3.00053 -1.65313,-2.57203 -5.32584,0.73412 -9.55002,4.04237 -15.2425,3.30725 0,0 6.74341,-0.4001 7.34551,-3.12243 0.3676,-1.66222 -0.78079,-2.51624 -2.20442,-2.01973 0,0 0.0944,-2.61264 2.49794,-2.86342 2.55272,-0.26813 3.83523,2.57612 2.73753,4.36633 2.06232,-1.3394 6.75969,-5.12585 7.21869,-12.00334 0.1878,-2.81273 -0.45802,-5.21929 -1.72933,-6.43778 -0.6833,-0.66 -1.49872,-0.94432 -2.41563,-0.84282 -1.77502,0.193 -2.51424,1.57392 -2.44824,2.78223 0.0488,0.91391 0.5737,1.82784 1.63794,1.82784 0.52389,0 0.92599,-0.1523 1.22761,-0.45693 0.63062,-0.64989 0.60622,-1.77701 0.6052,-1.78721 -0.007,-0.22339 0.16852,-0.40612 0.3909,-0.41629 0.2031,0.02029 0.40822,0.16249 0.41632,0.38589 0.002,0.0609 0.0396,1.47232 -0.82952,2.37604 -0.456,0.4671 -1.06521,0.7108 -1.81051,0.7108 -1.35863,0 -2.36394,-1.07631 -2.44513,-2.59944 -0.0873,-1.62471 0.9738,-3.39153 3.16913,-3.62503 0.14419,-0.02039 0.2904,-0.03051 0.43151,-0.03051 0.98392,0 1.88662,0.37569 2.62893,1.08651 1.46422,1.41142 2.18423,3.99057 1.97703,7.0876 -0.22142,3.30725 -1.37991,5.93517 -2.78023,7.9508 6.60428,-7.36178 6.50377,-17.00831 3.66874,-22.67441 -1.51912,-3.04623 -4.50447,-6.23468 -8.86771,-8.17408 0.69861,0.35539 1.4409,0.79199 2.24103,1.32 0,0 -3.67476,-1.93942 -5.68428,0.4265 0,0 -0.24582,0.27411 -0.3006,0.69052 -0.0792,0.5889 0.14009,1.40122 1.21851,1.51293 0,0 -1.76993,2.62994 -4.03934,1.28961 -1.80843,-1.0764 -1.54245,-4.40697 1.11391,-5.71687 1.05711,-0.51781 2.13851,-0.60921 3.32653,-0.32491 -2.73863,-0.87331 -5.91787,-1.2693 -9.54391,-0.90372 -10.95134,1.09662 -17.42874,8.3163 -16.90073,18.85634 0.47422,9.50543 6.9577,12.30388 11.46814,13.0949 0.3047,-0.01723 0.67932,-0.01522 0.89052,-0.002 2.67873,0.35341 2.48073,-2.23492 2.48073,-2.23492 0.84891,2.01051 3.56924,2.14862 5.37158,1.06921 0,0 -0.52402,0.36559 -1.39313,0.77272 3.94796,-1.47843 6.10568,-5.09228 6.83069,-8.53662 0.72101,-3.42195 -0.064,-7.14859 -2.00032,-9.48402 -1.43793,-1.73644 -3.44746,-2.65024 -5.80217,-2.57923 -4.01807,0.0813 -5.66499,2.47764 -6.34639,4.51864 l 0.14621,0.0406 c 0,0 -0.72291,2.36595 -0.29751,4.13276 0.42449,1.75674 1.53131,1.69584 1.78001,1.66532 0,0 -0.64978,-1.62462 0.0498,-2.99544 0.70063,-1.37082 2.51215,-1.63492 3.62306,-0.589 1.04682,0.99511 1.38091,3.51333 -0.37782,4.85376 -1.76071,1.3505 -4.28914,0.9748 -5.48835,-0.6093 -1.01432,-1.34032 -1.39013,-3.98047 -0.34522,-6.7525 l 0.15429,0.0406 c 0.76063,-2.28472 2.60366,-5.01616 7.08471,-5.11775 2.63493,-0.05082 4.84047,0.94429 6.4418,2.87364 2.08872,2.51821 2.93863,6.50888 2.16791,10.17451 -1.28252,6.08239 -5.72697,9.86585 -11.59915,9.86585 -2.41263,0 -8.6098,-0.48532 -12.45105,-5.07608 0.3878,0.90069 0.78491,1.78003 1.15951,2.60763 0.68851,1.52513 1.2845,2.84214 1.57602,3.78134 0.47921,1.53534 0.30049,2.91735 -0.5057,3.89116 -0.65502,0.79403 -1.66121,1.20122 -2.68075,1.08442 -1.00732,-0.11271 -1.8958,-0.61022 -2.43803,-1.36263 -0.3452,-0.48129 -0.52389,-1.06419 -0.5686,-1.70691 l -0.1635,-0.0254 c -0.18379,-2.51113 1.30072,-3.64335 2.49493,-3.35195 1.19411,0.2914 1.45502,1.65314 1.45502,1.65314 -0.62649,-0.70473 -1.88352,-0.79613 -2.43493,0 -0.55642,0.80319 -0.41229,1.86531 -0.41229,1.86531 l -0.13403,-0.0183 c 0.0548,0.4204 0.19093,0.79412 0.41943,1.11191 0.40919,0.56862 1.09051,0.94432 1.8714,1.03061 0.75242,0.0914 1.48754,-0.2101 1.96883,-0.79301 0.62552,-0.7585 0.75252,-1.87142 0.35752,-3.13764 -0.27831,-0.89151 -0.86412,-2.18924 -1.54244,-3.68904 -1.51002,-3.34276 -3.39053,-7.50701 -3.50523,-10.68523 -0.0488,-0.42652 -0.0904,-0.87332 -0.11272,-1.34043 -0.55141,-11.00715 6.20419,-18.56183 17.62664,-19.70925 0.9515,-0.09141 1.87142,-0.13202 2.76405,-0.13202 7.07538,0 12.30995,2.85335 15.62018,6.3261 -0.463,-0.7413 -0.80719,-1.64502 -0.71181,-2.66043 0.1513,-1.59423 1.42563,-2.43705 2.62994,-2.47765 1.46732,-0.0609 2.91634,1.30994 2.51424,4.12256 0,0 -1.12212,-0.32489 -2.00142,-0.04059 -0.92001,0.2945 -1.69884,1.49271 -0.64282,2.98533 0,0 -0.18779,-0.132 -0.45891,-0.37571 0.64882,0.85301 1.19711,1.72624 1.62672,2.57926 3.25846,6.51896 3.06044,18.07341 -6.15858,25.87391 z"
                 style="fill:#000000;fill-opacity:1;fill-rule:nonzero;stroke:#000000;stroke-width:0.3985;stroke-linecap:butt;stroke-linejoin:miter;stroke-miterlimit:10;stroke-dasharray:none;stroke-opacity:1"
                 id="path36" /><path
                 d="m 237.37836,17.0164 c -2.27353,0.21332 -3.44745,-1.19822 -3.78656,-2.58934 -0.36351,-1.5028 0.15838,-2.95482 1.2124,-3.38134 0.20512,-0.0812 0.44371,0.0203 0.52602,0.23361 0.0822,0.20299 -0.0193,0.43661 -0.22539,0.5178 -0.66213,0.26403 -0.98903,1.36072 -0.72713,2.43703 0.12491,0.51793 0.70982,2.19334 2.92444,1.98012 2.19842,-0.21329 2.66754,-2.45732 2.75993,-3.14783 0.13912,-1.0256 -0.11371,-2.13241 -0.65701,-2.87364 -0.86409,-1.16772 -2.27551,-1.94961 -3.77734,-2.08162 -1.22262,-0.1015 -3.07674,0.14211 -4.98676,1.94961 -3.28993,3.11735 -2.27862,9.31142 -2.26843,9.38244 0.0376,0.21328 -0.1097,0.42651 -0.33,0.457 -0.21321,0.05081 -0.42852,-0.1117 -0.46512,-0.32491 -0.0467,-0.2742 -1.09761,-6.68147 2.50815,-10.09332 1.85922,-1.76681 3.69414,-2.20343 5.05274,-2.20343 0.19802,0 0.38582,0.0101 0.56151,0.0304 1.72824,0.15229 3.35796,1.05601 4.35416,2.40652 0.67421,0.91393 0.97681,2.21364 0.80821,3.46265 -0.22839,1.71603 -1.26521,3.62504 -3.48382,3.83825 z"
                 style="fill:#000000;fill-opacity:1;fill-rule:nonzero;stroke:#000000;stroke-width:0.3985;stroke-linecap:butt;stroke-linejoin:miter;stroke-miterlimit:10;stroke-dasharray:none;stroke-opacity:1"
                 id="path38" /><path
                 d="m 256.8216,115.62398 c 7.5791,-1.01232 10.49941,4.62736 10.98385,7.7467 0.3645,2.34962 -0.23262,4.85575 -1.55873,6.54028 -1.07431,1.36582 -2.57812,2.16182 -4.34905,2.31113 -2.39535,0.198 -3.78247,-0.5767 -4.57037,-1.38811 l -0.10971,0.1148 c 0,0 -1.25709,-1.15561 -1.40941,-3.44335 -0.1391,-2.09583 1.29973,-2.98024 2.55682,-2.93863 1.42362,0.0457 2.09995,1.182 2.20354,2.37203 0.10761,1.22462 -0.55142,2.18931 -1.49981,2.08162 -0.57783,-0.066 -0.94841,-0.4742 -1.46831,-0.56661 -0.52802,-0.0914 -0.36862,0.9494 0.36659,1.71402 l -0.0843,0.0863 c 0.64782,0.6712 1.82773,1.33331 3.94796,1.16272 1.56372,-0.13001 2.83713,-0.80423 3.78044,-2.00544 1.19212,-1.51501 1.72723,-3.78245 1.39413,-5.91688 -0.4407,-2.84932 -3.11834,-7.98731 -10.07903,-7.06937 -7.43389,0.986 -8.86771,7.56789 -9.13883,10.35222 -0.463,4.73186 1.57593,13.13748 12.14447,14.62108 7.5354,1.06111 16.39091,-2.08061 19.20874,-11.47124 1.70283,-5.67418 0.48331,-13.10296 -2.45932,-18.73353 0.14009,1.94551 -0.54431,3.68093 -2.05124,4.15814 -2.71623,0.85703 -3.42294,-3.90634 -0.14619,-3.47785 0,0 -0.0599,-7.3009 -7.49889,-8.75291 0,0 1.47539,0.1371 3.29504,0.7859 -0.0101,-0.0243 -0.0162,-0.0497 -0.0203,-0.0771 -1.57492,-0.51988 -3.44834,-0.9007 -5.76759,-1.0896 -11.03152,-0.88741 -16.16141,4.05965 -16.21219,4.10947 -0.15742,0.15738 -0.41331,0.15738 -0.57171,-0.002 -0.15641,-0.15741 -0.15641,-0.4133 0.001,-0.5697 0.19699,-0.19701 4.57146,-4.45566 14.10927,-4.45566 0.86823,0 1.78313,0.0355 2.73765,0.1147 7.79229,0.6255 10.89245,3.48705 13.89098,6.25199 0.6772,0.62449 1.33832,1.2317 2.04192,1.80951 l 0.2184,0.009 c 0.1299,0.10871 4.72267,3.90024 7.3252,2.24912 1.25402,-0.796 1.31193,-2.15572 1.13021,-2.96901 -0.21631,-0.98802 -0.94639,-1.43884 -0.94639,-1.43884 0,0 5.89346,-1.69583 6.79518,2.93754 0.36148,1.85723 -0.63973,3.92466 -2.61875,4.86795 -2.03692,0.97281 -5.10356,0.76362 -8.39761,-1.48661 -1.96381,-1.34331 -4.18756,-3.48185 -5.02116,-4.23017 l 0.20809,0.008 c -0.43858,-0.38691 -0.86309,-0.77581 -1.2824,-1.1617 -0.77482,-0.71582 -1.53942,-1.41951 -2.37204,-2.08052 5.52587,5.16847 7.09071,12.39724 8.48481,18.88073 0.70572,3.27575 1.37282,6.3718 2.49394,8.82093 4.41494,9.64651 13.09078,6.87037 14.06759,6.52307 4.36123,-1.55661 6.43876,-6.61849 4.83245,-11.77486 -0.92001,-2.95382 -2.75892,-4.19054 -4.13894,-4.70845 -1.78813,-0.67021 -3.84436,-0.50371 -5.36648,0.4336 -1.55561,0.95852 -2.61974,2.50404 -2.91735,4.24546 -0.2558,1.49262 0.0742,2.94063 0.90883,3.97235 0.8824,1.0885 2.21872,1.63582 3.56015,1.45812 0.98901,-0.131 1.77081,-0.64281 2.09173,-1.36783 0.7687,-1.7353 -0.41633,-2.43593 -0.55342,-2.51002 -0.197,-0.1046 -0.27209,-0.34731 -0.17059,-0.54531 0.10458,-0.196 0.34929,-0.27211 0.54629,-0.17059 0.69962,0.36549 1.79323,1.57593 0.91793,3.55292 -0.43762,0.98501 -1.45612,1.67344 -2.72635,1.84204 -1.62572,0.21521 -3.23613,-0.44071 -4.29425,-1.75162 -0.97992,-1.21241 -1.37181,-2.89505 -1.07741,-4.61716 0.3382,-1.96893 1.53742,-3.71644 3.29004,-4.79786 1.72922,-1.06212 4.05754,-1.25612 6.07417,-0.49962 2.19034,0.82054 3.83225,2.67564 4.62737,5.22438 1.73633,5.57666 -0.55551,11.06914 -5.33408,12.77395 -1.0428,0.37472 -10.35621,3.35807 -15.0719,-6.94548 -1.15962,-2.53033 -1.83381,-5.66697 -2.54872,-8.98741 -1.29973,-6.04277 -2.75174,-12.74456 -7.4816,-17.69784 0.0528,0.0955 0.1005,0.1909 0.1503,0.2884 4.07186,5.97777 6.03968,15.09021 4.02205,21.8153 -2.93764,9.79582 -12.47845,13.10196 -20.09416,12.03885 -11.17572,-1.56884 -13.32736,-10.48224 -12.83795,-15.5004 0.6143,-6.28948 4.20074,-10.32683 9.83942,-11.07524 z"
                 style="fill:#000000;fill-opacity:1;fill-rule:nonzero;stroke:#000000;stroke-width:0.3985;stroke-linecap:butt;stroke-linejoin:miter;stroke-miterlimit:10;stroke-dasharray:none;stroke-opacity:1"
                 id="path40" /><path
                 d="m 92.24408,106.74716 c -3.85754,4.22215 -6.7962,3.48904 -6.7962,3.48904 -1.04279,-3.04624 1.14541,-5.75436 1.14541,-5.75436 -0.40819,0.29538 -6.56778,4.71156 -11.98094,4.65265 -3.67285,-0.0407 -3.85765,-2.20553 -3.85765,-2.20553 0,0 -2.01962,-0.5514 -2.93863,-2.20241 -0.91794,-1.65413 0.55138,-2.38834 0.55138,-2.38834 -0.9179,-6.79619 7.16281,-2.20344 7.16281,-2.20344 0,0 -2.93865,-0.1828 -2.93865,2.75485 0,2.93864 2.02274,3.67274 5.14316,3.30624 2.37096,-0.27832 10.65376,-2.75484 20.66278,-7.99042 9.15712,-4.78765 13.37517,-6.70376 13.37517,-6.70376 -9.36322,5.21216 -15.6721,11.02132 -19.52864,15.24548 z"
                 style="fill:#000000;fill-opacity:1;fill-rule:nonzero;stroke:#000000;stroke-width:0.3985;stroke-linecap:butt;stroke-linejoin:miter;stroke-miterlimit:10;stroke-dasharray:none;stroke-opacity:1"
                 id="path42" /><path
                 d="m 214.52014,37.71068 c 0.88753,0 1.86022,0.19299 2.90103,0.64992 3.91758,1.716 5.93821,6.06207 6.17791,13.27154 0.16749,5.02638 -0.93622,10.33706 -3.27376,15.86492 0.55031,0.37469 0.91282,1.00529 0.91282,1.72122 0,1.14842 -0.93112,2.08152 -2.08154,2.08152 -0.198,0 -0.38791,-0.03749 -0.56969,-0.0883 -1.29261,2.51312 -2.82284,5.06897 -4.60797,7.66341 -3.73065,5.42027 -6.22558,10.69954 -7.48671,15.8101 0.69153,-1.71603 1.66423,-3.41285 3.02295,-4.87709 l -0.10359,-0.11877 c 1.74341,-2.13544 4.46475,-4.93697 7.63188,-4.89028 3.30625,0.05082 3.58036,3.39754 3.58036,3.39754 0.18481,1.62573 -0.45691,3.28395 -1.67342,3.90234 -1.58401,0.87423 -3.10104,0.32293 -3.10104,0.32293 0,0 0.47621,-1.51104 0.14009,-2.75484 -0.3239,-1.19521 -1.47031,-2.32843 -3.11223,-1.37801 -0.65291,0.3788 -1.92733,1.28562 -2.75383,2.21573 l -0.0752,-0.08529 c -4.27385,4.65875 -4.48105,11.84994 -4.45764,13.71525 0.1026,1.65613 0.34118,3.29405 0.73309,4.90348 0.81232,3.33764 2.42284,5.69146 4.78566,6.99829 2.48474,1.37381 5.21327,1.25001 6.9384,0.67421 1.7019,-0.56662 3.24734,-2.08164 4.13275,-4.04946 1.06622,-2.37004 1.08351,-5.11976 0.0488,-7.5466 -1.22663,-2.87574 -3.95305,-4.40396 -6.95259,-3.89114 -2.79753,0.4752 -4.78166,2.94983 -4.71666,5.88235 0.0366,1.68053 0.54631,2.98735 1.51701,3.88596 0.45291,0.41841 0.96262,0.67831 1.45712,0.8408 l -0.2203,-0.20819 c 1.95263,0.70171 2.64723,-0.56151 2.40045,-1.3647 -0.27622,-0.89452 -1.34134,-0.72194 -1.72313,-0.71072 -0.73422,0.0172 -1.12212,-0.80431 -1.07842,-1.67751 0.0914,-1.80444 1.33121,-3.09605 3.16913,-3.03004 1.62574,0.0599 3.34175,1.35461 3.21286,4.15614 -0.0874,1.92822 -1.03883,3.06453 -2.11213,3.60375 -1.07231,0.5402 -2.37503,0.42439 -2.37503,0.42439 l -0.16251,-0.1503 c -0.89661,-0.069 -2.10802,-0.35738 -3.11734,-1.29259 -1.13733,-1.04993 -1.73532,-2.54976 -1.77702,-4.45976 -0.0721,-3.33466 2.19433,-6.15239 5.38987,-6.69872 3.37934,-0.57267 6.45408,1.14034 7.832,4.37346 0.65079,1.52614 0.90471,3.17118 0.78991,4.78566 0.003,0.0254 0.0132,0.0497 0.0112,0.0751 -0.2406,5.02637 -3.11223,9.53383 -8.31121,13.03397 -1.73741,1.17082 -3.66464,2.52633 -4.78166,3.70833 -2.31413,2.44915 -2.40652,4.46177 -2.46033,5.666 -0.0447,0.95662 0.25589,3.17123 1.70891,4.69636 0.90682,0.95452 2.09694,1.43991 3.53575,1.44391 0.008,0 0.0142,0 0.0233,0 1.6013,0 2.83302,-0.56761 3.66164,-1.68962 1.11901,-1.51602 1.18092,-3.64335 0.76161,-4.97757 -0.49251,-1.58101 -1.79322,-2.28073 -2.84523,-2.40762 -1.03472,-0.12081 -1.96384,0.2691 -2.42185,1.0276 -0.46811,0.77272 -0.53711,1.87653 -0.1705,2.68683 0.15531,0.34321 0.45381,0.77072 0.99713,0.86822 1.1454,0.2 1.64492,-0.51381 1.67031,-0.55142 0.1168,-0.18789 0.3646,-0.24569 0.5534,-0.12898 0.18991,0.11779 0.24782,0.36559 0.131,0.55549 -0.0304,0.0507 -0.7778,1.22353 -2.49692,0.9209 -0.69351,-0.12378 -1.25912,-0.59599 -1.59012,-1.3312 -0.47832,-1.05402 -0.39202,-2.43493 0.2132,-3.43924 0.62552,-1.03263 1.85322,-1.57383 3.20975,-1.41043 1.3038,0.15741 2.91322,1.02052 3.52253,2.96914 0.49141,1.57294 0.41022,3.94695 -0.8854,5.69858 -0.97382,1.32101 -2.46344,2.01863 -4.31157,2.01863 -0.009,0 -0.0162,0 -0.0243,0 -1.66943,-0.006 -3.05345,-0.5767 -4.11966,-1.69572 -1.42462,-1.49672 -1.99933,-3.79265 -1.93133,-5.29348 0.0559,-1.22761 0.15951,-3.51435 2.68174,-6.18187 1.1708,-1.23883 3.14373,-2.62684 4.91666,-3.82095 2.83514,-1.91003 4.94417,-4.12367 6.27937,-6.5526 -0.85901,0.93522 -1.87853,1.63591 -2.98634,2.00443 -0.0893,0.0305 -0.18989,0.0528 -0.2843,0.0792 0.21421,-0.0132 0.4194,-0.0314 0.61032,-0.0528 0,0 -0.84991,0.41838 -3.17624,0.6326 -1.60342,0.1463 -4.22826,0.11279 -5.76558,0.5159 -0.6225,0.16241 -0.99922,0.36651 -1.16982,0.76861 -0.48229,1.13321 0.7331,2.38623 0.7331,2.38623 0,0 -3.67172,0.36861 -3.48793,-2.75273 0.1391,-2.38423 3.30523,-1.65413 4.77456,-1.65413 0.43561,0 1.12102,0.0335 1.92623,0.0731 -0.58692,-0.1808 -1.17182,-0.4113 -1.74453,-0.72909 -2.57003,-1.42052 -4.31346,-3.94896 -5.18066,-7.51311 -0.35742,-1.46732 -0.5838,-2.95583 -0.70772,-4.46076 -0.0183,-0.0396 -0.0325,-0.0802 -0.0346,-0.1269 -9.9e-4,-0.0132 -0.009,-0.1787 -0.0132,-0.458 -0.0984,-1.55561 -0.07,-3.13154 0.0782,-4.72576 -0.0802,0.3757 -0.12181,0.58491 -0.12181,0.58491 0,0 0.18282,-6.93329 3.30625,-16.30051 1.66322,-4.99386 3.94084,-9.52063 2.70603,-11.75456 -1.17582,-2.12633 -3.67175,-0.36859 -3.67175,-0.36859 -0.3513,-3.58546 1.45612,-5.44678 3.31023,-5.56859 2.03804,-0.13199 4.13277,1.83592 3.48396,5.93718 -0.31991,2.02173 -1.10171,3.67485 -4.22415,11.38796 -0.5717,1.41241 -1.0977,2.86753 -1.57904,4.30035 1.34653,-3.03923 3.08385,-6.12709 5.24068,-9.25862 1.76582,-2.56703 3.28075,-5.09337 4.55716,-7.5781 -0.47929,-0.38081 -0.79401,-0.96162 -0.79401,-1.62162 0,-1.15052 0.93212,-2.08263 2.08162,-2.08263 0.1472,0 0.28832,0.0172 0.4254,0.0446 2.29083,-5.41417 3.37325,-10.61313 3.20975,-15.51759 -0.2284,-6.8745 -2.09172,-10.98694 -5.69345,-12.56078 -3.03717,-1.33021 -5.37769,-0.15238 -6.5586,1.40122 -0.89462,1.17792 -1.24081,2.93464 -1.26521,4.17337 -0.0538,2.59953 1.2094,5.44267 4.10944,5.52397 1.05801,0.03038 1.96383,-0.30472 2.68173,-1.00531 1.03361,-0.99512 1.39923,-2.46745 1.39923,-3.42195 0,-1.61452 -0.88242,-2.64012 -1.70293,-2.91425 -0.4853,-0.16249 -0.96151,-0.0914 -1.3911,0.2031 l 0.0691,0.12181 c -0.62142,0.4163 -0.60422,1.08652 -0.16152,1.41142 0.47222,0.34531 1.28963,0.4366 1.29572,1.0865 0.008,1.12712 -1.67751,1.51304 -2.54672,0.89364 -1.02152,-0.72101 -1.19413,-2.88386 0.9078,-4.36637 l 0.067,0.132 c 0.61643,-0.38581 1.32212,-0.48741 2.01563,-0.2538 1.32823,0.44671 2.25523,1.95972 2.25523,3.68595 0,1.16772 -0.43251,2.83304 -1.64293,4.00075 -0.8712,0.8529 -2.00343,1.26931 -3.27163,1.23881 -3.44734,-0.1015 -4.95427,-3.36105 -4.89237,-6.34637 0.0356,-1.78714 0.57071,-3.52355 1.43071,-4.65067 0.95552,-1.25911 2.55895,-2.30502 4.62326,-2.30502 z"
                 style="fill:#000000;fill-opacity:1;fill-rule:nonzero;stroke:#000000;stroke-width:0.3985;stroke-linecap:butt;stroke-linejoin:miter;stroke-miterlimit:10;stroke-dasharray:none;stroke-opacity:1"
                 id="path44" /><path
                 d="m 163.02708,81.07433 c 3.16915,0 6.46419,0.1502 9.88213,0.4752 12.74956,1.21442 20.35518,5.86299 24.84122,10.44965 -1.25101,-1.53832 -1.92922,-3.34375 -2.01053,-5.01918 -0.1117,-2.30501 0.82762,-4.29015 2.70915,-4.22414 0.97479,0.03349 1.73941,0.64781 2.04613,1.36061 0.5097,1.17491 0.1401,2.67264 0.1401,2.67264 -2.79545,-0.18689 -3.36006,1.87042 -2.96804,3.64235 0.38179,1.72011 1.85313,3.25943 1.85313,3.25943 -0.29451,-0.2153 -0.57172,-0.44569 -0.83263,-0.6834 3.56716,4.02724 4.81206,7.7934 5.12076,8.90831 0.005,0.0173 0.0121,0.0315 0.0132,0.0345 0.003,0.0102 9.9e-4,0.0193 0.003,0.0285 0.0457,0.16651 0.068,0.26801 0.0711,0.27823 0.0447,0.2193 -0.0975,0.4346 -0.3168,0.47827 -0.2153,0.0457 -0.43161,-0.0965 -0.47521,-0.31578 -0.002,-0.0112 -0.0203,-0.0924 -0.0569,-0.23151 -0.2975,-0.7494 -5.45487,-12.90806 -23.87051,-10.14413 -4.70955,0.70783 -8.9743,1.72522 -12.94057,2.98233 -0.21929,0.1107 -0.43969,0.2203 -0.66301,0.30872 -3.28294,1.31092 -3.96524,4.73794 -3.96524,4.73794 -1.71713,-0.66009 -3.47374,-1.61349 -6.01948,-0.69359 -0.21019,0.0752 -0.41631,0.13199 -0.6143,0.17769 -4.78766,2.33754 -9.24132,5.02837 -13.68179,7.92742 l 0.93522,1.777 c 0.53821,0.86112 0.27621,1.99533 -0.58392,2.53345 -0.86,0.53621 -1.99422,0.27519 -2.53142,-0.58591 l -0.89052,-1.69372 c -0.2518,0.1706 -0.50259,0.3361 -0.75441,0.5057 -0.98801,0.6641 -1.94962,1.35152 -2.90004,2.06131 1.18492,1.72524 2.90004,3.31536 5.38069,4.20186 l 1.2195,0.43561 -1.25002,0.33402 c -0.0528,0.0163 -2.37202,0.6458 -5.39087,1.7201 2.23095,-0.0893 3.65455,0.77683 3.91146,1.93134 0.3737,1.69171 -0.7067,4.10136 -4.74816,3.12245 -2.64003,-0.63972 -5.37056,-2.41664 -8.33861,-0.75851 l -0.0305,-0.14011 c -1.01231,0.61232 -1.93232,1.26012 -2.68882,1.93543 -2.19834,1.96382 -3.14066,4.10125 -2.65024,6.01428 0.392,1.52312 1.55562,2.44412 2.47464,2.65632 1.11391,0.26201 2.26032,0.0295 3.06244,-0.60821 0.22949,-0.18179 0.40928,-0.4001 0.5636,-0.62749 l -0.14931,-0.008 c 0.53621,-0.67432 0.6123,-1.89783 0.13809,-1.80544 -0.4752,0.0913 -0.6478,0.54222 -1.36471,0.73412 -0.79399,0.21319 -1.74141,-0.89862 -1.19211,-2.44923 0.57881,-1.62871 3.17424,-1.72622 3.88905,0.3057 0.59711,1.69983 -0.26089,3.28085 -0.26089,3.28085 l -0.13613,-0.007 c -0.22639,0.45901 -0.55739,0.86923 -0.98391,1.20942 -1.00931,0.80011 -2.37203,1.07942 -3.74894,0.76361 -1.40332,-0.32388 -2.66754,-1.65722 -3.07475,-3.24324 -0.32788,-1.2866 -0.39191,-3.88196 2.89604,-6.81859 0.85503,-0.76261 1.89884,-1.48553 3.04325,-2.16592 l -0.0285,-0.12691 c 1.35662,-0.7991 2.76504,-1.4571 4.13384,-1.97091 3.70525,-1.65923 7.50191,-2.86144 9.34284,-3.40366 -2.07753,-0.98601 -3.57326,-2.45734 -4.65665,-4.03024 -2.85945,2.17602 -5.64269,4.56226 -8.72353,7.21049 -5.41928,4.65577 -11.74945,10.09123 -20.56738,15.91881 l -2.84422,5.21516 -7.0775,0.84382 c -1.33011,0.75241 -2.69084,1.50691 -4.11955,2.26841 -0.82041,0.43563 -1.63382,0.85302 -2.43901,1.25103 2.32841,16.21321 12.61964,27.78394 22.06616,32.00201 6.6205,2.95494 10.05673,1.51912 11.51486,0.4021 1.37791,-1.05501 2.11513,-2.70303 1.87953,-4.19567 -0.24472,-1.5495 -1.20633,-2.26031 -1.97093,-2.5863 -1.23372,-0.52192 -2.84415,-0.40512 -3.82715,0.28229 -0.70771,0.49651 -0.96661,1.51402 -0.62851,2.47963 0.3666,1.04793 1.255,1.62472 2.39232,1.56274 0.2193,-0.0213 0.41431,0.15538 0.42851,0.37778 0.0142,0.22131 -0.15541,0.41432 -0.37871,0.42952 -1.77292,0.10358 -2.82493,-1.01341 -3.20472,-2.10393 -0.45693,-1.30283 -0.0751,-2.70513 0.9281,-3.40675 1.2134,-0.85089 3.10924,-1.00221 4.60596,-0.36459 1.34542,0.57269 2.21662,1.70901 2.45224,3.20261 0.28329,1.78214 -0.57572,3.73176 -2.18512,4.96448 -1.60244,1.22663 -5.33309,2.81984 -12.33637,-0.30769 -9.60084,-4.28406 -20.05057,-15.98782 -22.4957,-32.37163 -0.24569,0.1178 -0.49251,0.23661 -0.7352,0.35131 0.76461,10.13903 4.29426,15.85681 4.29426,15.85681 l -1.70694,0.68339 c 0.44072,1.12914 0.89973,2.19434 1.35963,3.19655 0.0752,-0.007 0.1483,-0.0233 0.2244,-0.0233 1.3536,0 2.44923,1.09662 2.44923,2.44814 0,0.62651 -0.24171,1.19111 -0.62752,1.62362 0.77782,1.40542 1.46321,2.51722 1.93544,3.24334 l 2.05922,-1.25411 c 0,0 3.85864,9.42821 13.99249,11.73325 2.11411,0.48028 9.15101,1.85823 16.92611,-1.38614 0.68441,-0.28629 1.74441,-0.8235 2.97825,-1.36569 14.35086,-9.34793 11.02333,-24.67473 10.16132,-27.79206 -3.20874,-11.59715 -12.90907,-16.22954 -21.07308,-15.68222 -4.25465,0.28641 -8.0269,2.08063 -10.61934,5.05176 -2.74974,3.15085 -4.02716,7.35161 -3.69714,12.14847 0.28542,4.13585 2.04714,7.6685 4.96346,9.94912 1.76884,1.38204 3.86776,2.24103 6.05388,2.52434 l -0.008,-0.14111 c 3.19145,0.2538 4.20796,-2.26642 3.85355,-3.63724 -0.5707,-2.21673 -2.51212,-1.57092 -2.51212,-1.57092 -0.6052,-3.26056 2.91935,-5.12587 4.92478,-3.37724 2.40141,2.09381 1.64291,6.24987 -1.11394,8.28071 3.61795,-1.25201 6.521,-4.73996 7.2816,-8.94893 0.6884,-3.81595 0.0345,-7.60449 -1.71001,-9.89012 -1.17181,-1.53531 -2.79234,-2.40452 -4.81407,-2.58433 -2.24614,-0.19692 -4.04245,0.68341 -4.80197,2.35781 -0.65999,1.45714 -0.43859,3.36915 0.18382,4.24247 0.76461,1.07431 2.05521,1.22972 2.99851,0.90371 0.82254,-0.28529 1.67953,-1.03471 1.61864,-2.28573 -0.0275,-0.5716 -0.1991,-0.9991 -0.51081,-1.27132 -0.47619,-0.4153 -1.14842,-0.3665 -1.16261,-0.36549 -0.2122,0.0101 -0.41631,-0.1422 -0.43872,-0.3635 -0.0213,-0.22242 0.14122,-0.41842 0.36252,-0.44172 0.0416,-0.002 1.0175,-0.0874 1.76172,0.5534 0.48849,0.42439 0.75752,1.04793 0.79712,1.85114 0.066,1.39721 -0.78281,2.60962 -2.16282,3.08683 -1.22563,0.42551 -2.91426,0.21929 -3.92256,-1.19721 -0.85902,-1.20731 -0.97482,-3.47066 -0.2599,-5.04767 0.90771,-2.00034 3.00053,-3.05634 5.60916,-2.82694 2.25624,0.19911 4.06876,1.17493 5.38577,2.90006 1.90493,2.49492 2.59943,6.42967 1.86122,10.52183 -0.1949,1.0804 -0.53001,2.11211 -0.96971,3.07971 1.06932,-1.1362 2.45633,-2.24501 4.12165,-2.78422 4.16316,-1.34752 7.14349,3.13866 5.02128,6.12298 -1.65722,2.32943 -4.89848,1.34542 -4.89848,1.34542 1.10182,-0.73311 0.97992,-2.57002 -0.3665,-3.05945 -1.34751,-0.49039 -2.53142,0.37772 -5.63257,2.57003 -4.74306,3.35085 -8.69101,2.98536 -8.69101,2.98536 0.1909,-0.0345 0.3676,-0.0802 0.55241,-0.11981 -3.18943,0.18071 -6.36869,-0.79102 -8.90932,-2.77614 -3.09904,-2.42381 -4.97147,-6.16467 -5.27207,-10.52992 -0.3452,-5.01726 1.00122,-9.42115 3.89415,-12.73649 2.73553,-3.13252 6.70378,-5.02535 11.17474,-5.32485 0.44782,-0.0315 0.89961,-0.0467 1.35552,-0.0467 8.1914,0 17.39523,4.91768 20.55016,16.31981 2.34565,8.48391 1.16471,19.41084 -8.0818,26.92595 0.75042,-0.2295 1.50893,-0.4082 2.24514,-0.49352 3.16613,-0.36749 5.67116,0.2498 5.81326,1.95984 0.17772,2.09982 -2.48373,1.51502 -3.85555,0.73311 -3.12243,-1.7749 -6.42659,0.063 -7.95381,0.70673 -3.23202,1.59321 -7.28868,2.71832 -12.39724,2.96702 -1.36882,0.0671 -13.71627,0.7352 -24.83112,-11.20415 l 1.22262,-0.7433 c -0.46922,-0.72601 -1.13732,-1.80844 -1.89483,-3.17114 -0.28432,0.1138 -0.59401,0.18179 -0.92001,0.18179 -1.35152,0 -2.44812,-1.09771 -2.44812,-2.45022 0,-0.88143 0.47219,-1.64803 1.1708,-2.07854 -0.4489,-0.98599 -0.89972,-2.02882 -1.32922,-3.13565 l -1.86132,0.74531 c -0.76351,-4.13883 -1.23881,-7.86338 -1.50172,-11.20112 0,0 -0.21332,-2.24304 -0.196,-5.58078 -2.95184,1.30591 -5.79398,2.35783 -8.52142,3.18544 -2.08263,7.34959 -2.89293,13.33858 -2.96913,16.54521 -0.16751,7.14249 2.34764,11.34226 6.89978,11.52306 2.12224,0.0914 3.93686,-0.60112 5.13197,-1.93334 1.11692,-1.24801 1.58202,-2.93974 1.30682,-4.76435 -0.44981,-2.99653 -2.62792,-4.35924 -4.44345,-4.12775 -1.11193,0.1432 -2.13345,1.0347 -2.48375,2.16691 -0.328,1.05602 -0.3036,1.94764 0.0701,2.65125 0.4996,0.93831 1.47643,1.24492 1.49573,1.24902 0.21221,0.064 0.3351,0.28837 0.27211,0.5016 -0.0619,0.21531 -0.28332,0.33609 -0.5016,0.27521 -0.0528,-0.0163 -1.30582,-0.39302 -1.97194,-1.63483 -0.48639,-0.90271 -0.5321,-2.00753 -0.13712,-3.28085 0.44173,-1.4257 1.73734,-2.54773 3.15285,-2.73054 2.19644,-0.28318 4.82127,1.30592 5.34726,4.81007 0.31073,2.06744 -0.22439,3.99165 -1.5059,5.42337 -1.35761,1.51401 -3.38234,2.29594 -5.76456,2.20352 -5.05777,-0.20208 -7.85532,-4.70444 -7.67452,-12.35165 0.07412,-3.17114 0.85901,-9.03821 2.86454,-16.2487 -2.57723,0.74021 -5.04976,1.27742 -7.42478,1.64602 -0.53622,1.29361 -1.05104,2.55684 -1.55163,3.79154 -0.91182,2.24913 -1.78003,4.38357 -2.69283,6.4418 l 0.3625,-0.47421 c 0,0 -0.263,0.62451 -0.62651,1.45511 -0.458,1.04792 -0.9728,2.20243 -0.9961,3.28395 -0.02141,1.14741 0.4396,2.0978 1.6977,2.22673 0.60932,0.063 1.38913,0.0894 1.97603,0.5057 0.69351,0.4894 1.17082,1.39821 1.14643,2.61573 -0.05581,2.75483 -3.61896,3.84846 -5.50966,2.02073 -1.34644,-1.30284 -1.53734,-3.22604 -1.28864,-4.88626 0.02031,-0.13701 0.04671,-0.2731 0.07311,-0.4082 -0.76961,1.34041 -1.60633,2.66041 -2.54055,3.96723 -8.7671,12.27648 -19.20675,17.34653 -32.87831,15.96352 -13.83727,-1.40466 -21.36558,-11.5742 -23.79651,-20.6226 -2.5599,-9.52263 -1.21239,-23.49071 6.31588,-31.76442 4.01805,-4.41906 9.40483,-6.7515 15.78171,-6.90378 -1.50282,-4.00078 -2.28773,-8.23412 -2.15474,-12.38617 0.36861,-11.63875 6.72009,-18.67764 12.54047,-21.38277 6.36268,-2.95685 18.18823,-2.47154 22.9282,6.14028 0.64679,1.17489 1.14742,2.40763 1.51101,3.66874 0.02641,0.0376 0.0467,0.0812 0.05889,0.12691 1.15352,4.41915 1.16362,7.75069 1.17074,10.69144 0.0061,2.07041 0.01118,3.85954 0.42239,5.63656 0.53821,2.33144 1.55061,3.93475 2.92444,4.63846 0.92911,0.47621 1.99432,0.5056 3.00165,0.0853 1.36671,-0.57371 1.92622,-1.91613 1.99221,-2.98033 0.07111,-1.11893 -0.34121,-2.07443 -1.0733,-2.49686 -0.48541,-0.28028 -0.93623,-0.35849 -1.34442,-0.24069 -0.61231,0.18379 -0.9586,0.7545 -1.07842,0.99312 -0.2427,0.47719 -0.1909,1.15349 -0.18881,1.15961 0.0182,0.2213 -0.14729,0.4173 -0.3696,0.43561 -0.2112,0.0162 -0.4174,-0.1442 -0.43669,-0.36661 -0.002,-0.0355 -0.07511,-0.90671 0.27518,-1.59621 0.35441,-0.69762 0.92503,-1.20831 1.56984,-1.39824 0.6255,-0.18889 1.29161,-0.0833 1.97603,0.31372 1.0002,0.5768 1.56581,1.82073 1.47639,3.24832 -0.10458,1.66535 -1.056,3.07375 -2.48672,3.67286 -1.2276,0.51582 -2.53453,0.47621 -3.68296,-0.11069 -1.1109,-0.56761 -2.59233,-1.92833 -3.34272,-5.17458 -0.4316,-1.86743 -0.43671,-3.69824 -0.44171,-5.81736 -0.0031,-0.88651 -0.0082,-1.81565 -0.04371,-2.79444 -0.12078,0.6113 -0.27009,1.21752 -0.459,1.81053 -1.19001,3.73774 -3.58643,6.63976 -6.74949,8.1751 -6.44177,3.12342 -11.73624,0.48741 -13.93459,-3.28285 -1.16771,-2.00443 -1.93841,-5.54526 -0.87019,-8.58132 0.7148,-2.0359 2.16682,-3.52553 4.19774,-4.30435 2.42785,-0.9332 4.81816,-0.6245 6.3941,0.82851 1.2652,1.16572 1.76273,2.86555 1.3017,4.43747 -0.25789,0.8753 -0.69449,1.49063 -1.2814,1.8592 l 0.13807,0.0934 c 0,0 -1.3881,1.11193 -3.12951,0.35132 -1.67342,-0.728 -1.28652,-2.83192 -0.10862,-3.42804 1.17994,-0.59601 2.26134,0.0142 2.70705,0.8266 0,0 -0.99103,-0.6438 -1.61952,0.0152 -0.62761,0.6559 -0.16863,1.80544 1.1027,1.53022 l 0.14621,0.0985 c 0.0711,-0.0213 0.1391,-0.0467 0.2082,-0.0812 0.48332,-0.2417 0.83972,-0.7433 1.06112,-1.49274 0.37471,-1.2753 -0.0366,-2.66142 -1.0713,-3.61693 -1.34642,-1.23773 -3.42397,-1.48861 -5.55838,-0.6681 -1.82984,0.70369 -3.08185,1.98822 -3.72565,3.81694 -0.98392,2.79654 -0.27112,6.05908 0.8073,7.9091 2.01462,3.45755 6.90689,5.86008 12.88057,2.96105 2.96304,-1.43583 5.21217,-4.16835 6.33427,-7.69291 1.32912,-4.18045 0.83263,-8.8717 -1.36781,-12.86946 -4.50745,-8.1883 -15.8,-8.6249 -21.88127,-5.79698 -5.60208,2.60253 -11.71596,9.40073 -12.07335,20.67598 -0.13202,4.14095 0.6651,8.3691 2.19633,12.34854 1.66422,0.0112 3.39252,0.15941 5.18065,0.46303 11.51794,1.95371 17.02352,12.08765 18.58734,20.52675 5.41118,1.52522 11.85605,2.17604 19.33965,1.07841 0.5392,-1.29373 1.10683,-2.62283 1.71304,-3.99266 -5.9534,-0.0223 -11.04266,-1.5617 -13.38119,-4.84666 -4.83648,-6.79517 0.85801,-11.40314 4.21096,-9.47581 3.06144,1.7627 1.60332,5.18777 1.60332,5.18777 -1.33021,-1.10173 -2.19023,-0.81741 -2.59643,-0.21942 -0.36052,0.52812 -0.3422,1.32414 -0.3422,1.32414 0,4.24654 3.89515,6.23267 11.24784,6.38397 2.52732,-5.52698 5.77467,-11.73825 10.63851,-19.09604 12.84208,-19.43007 30.75312,-30.5946 34.25016,-32.65693 -0.07,-0.2336 -0.1198,-0.47519 -0.1198,-0.7311 0,-1.42064 1.1525,-2.57104 2.57314,-2.57104 1.0164,0 1.88661,0.59601 2.30493,1.45202 1.40642,-0.78491 2.92543,-1.57792 4.55824,-2.35783 l -2.33342,-4.29826 3.30524,-1.71502 2.37703,4.50437 c 9.08403,-3.86566 21.06798,-7.0957 35.77636,-7.0957 z m 37.93821,16.38482 c -0.0203,0.01018 -0.0416,0.02129 -0.0619,0.0284 0.0751,0.08328 0.1472,0.1676 0.22029,0.24979 -0.0528,-0.0934 -0.10148,-0.18479 -0.15838,-0.27819 z M 87.27971,144.79807 c -0.06909,-0.52802 -0.13301,-1.05904 -0.18379,-1.59723 -0.18682,0.0863 -0.37372,0.1716 -0.56152,0.25589 0.0142,0.5666 0.03649,1.12301 0.06802,1.66632 0.22439,-0.10968 0.45088,-0.21529 0.67729,-0.32498 z M 84.99397,140.446 c 0.58293,-5.88437 2.15885,-12.55566 5.04767,-18.88274 l -0.21019,0.81531 c 0.8022,-2.00543 1.74451,-3.90627 2.80663,-5.71168 -7.2643,9.52561 -11.99826,19.69406 -14.9765,28.52006 2.61575,-0.3858 5.01316,-1.02042 7.10701,-1.73022 0.0518,-0.9647 0.12289,-1.97193 0.22538,-3.01073 z m 1.99733,-5.54117 c -0.3665,2.84012 -0.5026,5.48427 -0.4701,7.9173 0.17872,-0.0691 0.35441,-0.13712 0.52502,-0.20621 -0.07721,-0.91992 -0.13922,-1.85002 -0.16661,-2.79842 -0.0457,-1.69784 -0.003,-3.32966 0.11169,-4.91267 z m -2.31212,11.10874 c 0.0082,-0.5737 0.0275,-1.17081 0.05181,-1.79122 -2.41565,0.95451 -4.94709,1.68961 -7.47351,2.20343 -0.2995,0.92709 -0.58492,1.841 -0.8479,2.73253 2.64922,-0.82451 5.40516,-1.86833 8.2696,-3.14474 z m -55.49981,-15.5431 c -1.62271,-0.27511 -3.19554,-0.4244 -4.71367,-0.4508 2.67464,6.46617 7.29379,12.19624 13.07358,15.68619 2.67562,1.61451 5.84065,3.11735 9.49009,4.23434 -1.61039,-8.09499 -6.92616,-17.6176 -17.85,-19.46973 z m 18.87254,20.60798 c 0.20509,1.3272 0.31579,2.60052 0.33211,3.78244 0.0365,2.44923 -0.28942,7.20448 -2.87064,11.53823 -3.21484,5.40008 -9.30023,8.35192 -16.29043,7.90911 -9.1225,-0.5828 -15.7238,-7.9446 -16.0497,-17.89774 -0.14119,-4.29124 1.27234,-8.31629 3.87985,-11.04173 1.95273,-2.04202 4.45676,-3.18234 7.0491,-3.21074 3.88195,-0.0356 6.77588,1.69572 8.09291,4.90247 0.8418,2.05311 0.92101,4.43934 0.5087,6.48547 l 0.09649,0.3412 c -1.0723,5.23348 -5.78686,6.4276 -8.2351,4.95827 -2.44913,-1.46932 -2.84624,-4.80596 -1.77493,-6.54949 0.4031,-0.65799 0.98392,-1.17183 1.74453,-1.37789 1.0631,-0.29043 2.36594,-0.006 3.06144,1.1027 1.19313,1.89682 0.21429,3.94795 0.21429,3.94795 0,0 1.68353,1.56072 3.06147,-0.39802 1.3383,-1.90392 1.1332,-4.50034 1.1332,-4.50034 l 0.1412,0.50161 c 0.04969,-1.40532 -0.15441,-2.87765 -0.6986,-4.20388 -0.83772,-2.03691 -2.76296,-4.47085 -7.33641,-4.40284 -2.37412,0.0274 -4.67305,1.0794 -6.47438,2.96102 -2.45732,2.57004 -3.78954,6.3799 -3.65555,10.45885 0.31581,9.67282 6.4622,16.55231 15.29331,17.11792 6.67027,0.43161 12.48864,-2.38212 15.5451,-7.51709 2.47863,-4.16427 2.79132,-8.74892 2.75682,-11.11386 -0.01829,-1.255 -0.14419,-2.61772 -0.38279,-4.03625 -0.48131,-0.1422 -0.95553,-0.29149 -1.42052,-0.4468 -2.54874,-0.4031 -3.48705,1.17182 -3.48705,1.17182 0,0 0.43161,0.2792 0.6763,0.88841 0.29242,0.722 0.36252,1.87653 -0.6763,2.60153 -2.32323,1.62262 -4.95827,-2.75484 -1.46821,-4.77545 0.9006,-0.52202 1.73431,-0.74643 2.47863,-0.7971 -2.28065,-0.92002 -4.34297,-1.97605 -6.17479,-3.08187 -6.01127,-3.62813 -10.80204,-9.62312 -13.52647,-16.36961 -6.28038,0.0863 -11.57175,2.33045 -15.49629,6.64191 -7.33141,8.05938 -8.63408,21.70156 -6.13219,31.01199 2.36293,8.78741 9.67192,18.66443 23.09882,20.02716 12.40844,1.25302 21.77575,-2.69904 29.95495,-12.76288 -0.2092,0.13912 -0.41429,0.26601 -0.61029,0.36861 -4.22316,2.23494 -7.0957,-0.64279 -6.79417,-2.92133 0.42238,-3.18645 4.64764,-2.94783 4.64764,-2.94783 -0.97482,1.67652 0.25582,3.16713 2.45325,2.59542 0.98899,-0.25791 2.02569,-0.9189 2.81572,-1.59112 1.70181,-1.45211 2.63304,-3.33973 2.63304,-3.33973 -0.03763,0.15329 -0.08331,0.3006 -0.12491,0.4488 2.08762,-3.75095 3.69815,-7.69281 5.47109,-12.06016 0.44369,-1.09363 0.89759,-2.21163 1.3677,-3.34984 -7.23889,0.99712 -13.51217,0.3828 -18.82794,-1.0693 z m 27.44685,-1.64394 c 0.265,-0.92201 0.5514,-1.86633 0.85802,-2.82993 -2.21155,0.4041 -4.40788,0.63152 -6.51489,0.67521 -0.58692,1.31801 -1.13931,2.59843 -1.66223,3.84645 2.34053,-0.38492 4.77856,-0.94031 7.3191,-1.69173 z m 39.43192,-54.8114 c -3.57536,2.11203 -21.23248,13.16896 -33.92125,32.36651 -4.73785,7.16791 -7.93341,13.24207 -10.42633,18.65834 1.30691,0.002 2.70413,-0.0436 4.21194,-0.1472 0.67331,-0.0477 1.33632,-0.1127 1.98424,-0.19391 4.02004,-12.06325 11.30055,-26.66502 23.79331,-38.79419 2.88073,-2.93663 6.02247,-5.62237 9.23631,-8.165 1.31901,-1.04082 3.04213,-2.31214 5.15727,-3.68296 -0.0122,-0.0132 -0.0264,-0.0274 -0.0355,-0.04159 z m 4.64654,-1.79224 c 0.0132,0.10762 0.0325,0.21221 0.0325,0.32492 0,1.42061 -1.15252,2.57103 -2.57103,2.57103 -0.55442,0 -1.06421,-0.1797 -1.48352,-0.4772 -2.15583,1.39111 -3.91346,2.67863 -5.24567,3.73265 -2.71324,2.14662 -5.37268,4.39373 -7.8665,6.81049 -0.0213,0.0416 -0.0477,0.0832 -0.0833,0.1177 -0.3899,0.3636 -0.7625,0.7352 -1.14332,1.10282 -7.99441,8.13649 -13.93568,18.23892 -13.52746,32.78181 0.02339,0.8438 0.0762,1.67241 0.14221,2.49893 3.44524,-1.46322 5.51467,-2.85533 5.51467,-2.85533 -1.64902,1.27541 -3.50016,2.40352 -5.47109,3.38344 0.04982,0.53912 0.10561,1.07222 0.17262,1.60132 0.71691,-0.35852 1.43991,-0.72911 2.17002,-1.11702 1.59922,-0.85091 3.13052,-1.69573 4.60185,-2.53143 l 4.03636,-5.74528 5.59187,-0.16349 c 8.5092,-5.63758 14.62508,-10.88834 20.23125,-15.7065 3.10825,-2.66954 5.91588,-5.07506 8.80783,-7.27451 -1.36484,-2.24612 -1.94664,-4.58665 -2.18423,-5.95138 -1.25301,1.98823 -3.42505,4.88616 -5.76658,7.7548 -0.62852,0.83461 -1.2307,1.58202 -1.70892,2.18725 l -0.0549,-0.0681 c -2.66341,3.12854 -5.30447,5.92707 -6.86419,7.06126 -1.93742,1.40944 -3.51232,1.87544 -5.43356,1.60234 -2.65733,-0.37471 -4.91156,-2.57004 -5.48526,-5.33707 -0.55852,-2.70613 -0.0569,-5.28935 1.34439,-6.90788 1.02452,-1.18204 2.41466,-1.75873 4.03527,-1.65824 2.41773,0.14521 3.89924,1.67443 4.47906,3.05645 0.56351,1.34242 0.40212,2.71323 -0.43051,3.67075 -1.15462,1.32821 -2.82083,0.8763 -3.54285,0.4529 -0.19191,-0.11271 -0.2559,-0.35949 -0.14419,-0.5514 0.1137,-0.1929 0.3605,-0.2599 0.55241,-0.1472 0.0619,0.0365 1.52721,0.86511 2.52333,-0.28331 0.6275,-0.72 0.73819,-1.77703 0.29651,-2.82904 -0.48642,-1.15752 -1.73534,-2.43903 -3.78146,-2.56282 -1.34542,-0.0782 -2.52333,0.39601 -3.37622,1.3809 -1.23784,1.42972 -1.67244,3.75196 -1.16373,6.21538 0.5047,2.43904 2.48071,4.37247 4.80705,4.70148 1.42763,0.20198 2.79944,0.0314 4.84558,-1.45613 1.51189,-1.10172 4.15814,-3.92264 6.82457,-7.06639 l -0.0842,-0.10859 c 1.65003,-1.94654 0.93721,-4.61207 0.93721,-7.2846 0,-5.87628 5.30658,-6.51909 5.41628,-2.47974 0.0213,0.80321 -0.17569,1.67242 -0.50671,2.56493 0.95352,-1.32511 1.71913,-2.47963 2.17303,-3.31025 l 0.6722,-1.2337 0.0842,1.40433 c 0.004,0.0569 0.24273,3.47682 2.17813,6.69977 0.94742,-0.70472 1.90394,-1.38912 2.88785,-2.05122 0.27521,-0.1858 0.5504,-0.3685 0.82762,-0.55341 l -1.00222,-1.90793 c -0.53821,-0.85901 -0.27721,-1.99121 0.5838,-2.53043 0.86012,-0.53721 1.99434,-0.27521 2.53045,0.58492 l 0.9576,1.82161 c 3.94687,-2.57404 7.90501,-4.98876 12.09666,-7.13739 -0.1391,-0.0244 -0.2183,-0.0447 -0.2183,-0.0447 5.07916,-3.11323 11.14222,-4.90857 14.60179,-5.75738 3.60473,-1.0703 7.4552,-1.94962 11.66206,-2.58023 1.91611,-0.28839 3.69313,-0.41831 5.34213,-0.41831 6.60532,0 11.12908,2.08463 14.13881,4.44648 -3.06454,-2.82996 -10.01613,-7.68471 -22.3891,-8.69703 -17.48042,-1.42361 -29.31515,4.03016 -32.14012,8.3609 -1.2662,1.94153 -1.5119,3.80585 -0.6559,4.98678 0.56961,0.78902 1.56772,1.10481 2.60044,0.82962 1.33531,-0.35541 1.94252,-1.47345 1.85312,-2.39234 -0.0802,-0.81842 -0.67519,-1.34343 -1.59111,-1.40632 -0.22341,-0.0132 -0.39202,-0.20623 -0.37671,-0.4285 0.0152,-0.22341 0.2355,-0.4032 0.4295,-0.37682 1.30483,0.08742 2.22373,0.92412 2.34252,2.13243 0.12291,1.26012 -0.6783,2.78023 -2.44913,3.25234 -1.36472,0.36662 -2.69393,-0.07 -3.46364,-1.13822 -1.0601,-1.4602 -0.8215,-3.66673 0.63461,-5.90066 2.61475,-4.00784 12.53845,-8.95392 27.27425,-8.95392 1.79933,0 3.67074,0.07309 5.60718,0.23051 12.35466,1.0103 19.36004,5.68526 22.62359,8.6402 -4.04345,-4.98378 -11.71395,-10.69754 -26.00194,-12.05815 -19.10414,-1.82063 -34.27343,1.88661 -45.20547,6.5302 l 1.89882,3.59863 -3.30626,1.46733 -1.93332,-3.56216 c -1.6947,0.80733 -3.26353,1.62871 -4.71056,2.44212 z"
                 style="fill:#000000;fill-opacity:1;fill-rule:nonzero;stroke:#000000;stroke-width:0.3985;stroke-linecap:butt;stroke-linejoin:miter;stroke-miterlimit:10;stroke-dasharray:none;stroke-opacity:1"
                 id="path46" /><path
                 d="m 222.76025,19.90024 c -0.2193,-0.03049 -0.3675,-0.24372 -0.33,-0.457 0.0102,-0.07102 1.02252,-6.26509 -2.26742,-9.38244 -1.91003,-1.8075 -3.76926,-2.05111 -4.98777,-1.94961 -1.50183,0.13201 -2.91325,0.9139 -3.77526,2.08162 -0.5453,0.74123 -0.7961,1.84804 -0.658,2.87364 0.0914,0.69051 0.5605,2.93454 2.76093,3.14783 2.20853,0.20302 2.79744,-1.46219 2.92233,-1.98012 0.26001,-1.07631 -0.064,-2.173 -0.72599,-2.43703 -0.2072,-0.08119 -0.30771,-0.31481 -0.22541,-0.5178 0.0832,-0.21331 0.32192,-0.31481 0.52492,-0.23361 1.05609,0.42652 1.57592,1.87854 1.21242,3.38134 -0.33812,1.39112 -1.51193,2.79244 -3.78546,2.58934 -2.21973,-0.21321 -3.25644,-2.12222 -3.48494,-3.83825 -0.1675,-1.24901 0.13508,-2.54872 0.8083,-3.46265 0.99712,-1.35051 2.62583,-2.25423 4.35516,-2.40652 0.1756,-0.0203 0.36251,-0.0304 0.5615,-0.0304 1.35762,0 3.19345,0.43662 5.05278,2.20343 3.60574,3.41185 2.55472,9.81912 2.50902,10.09332 -0.0386,0.22332 -0.24979,0.36551 -0.46711,0.32491 z"
                 style="fill:#000000;fill-opacity:1;fill-rule:nonzero;stroke:#000000;stroke-width:0.3985;stroke-linecap:butt;stroke-linejoin:miter;stroke-miterlimit:10;stroke-dasharray:none;stroke-opacity:1"
                 id="path48" /><path
                 d="m 149.2519,123.68947 c 2.01763,-0.75749 4.34496,-0.5625 6.07429,0.49962 1.75262,1.08142 2.95283,2.82893 3.28996,4.79786 0.29448,1.72211 -0.0975,3.40475 -1.07533,4.61716 -1.06011,1.31091 -2.66855,1.96683 -4.29627,1.75162 -1.26932,-0.1686 -2.28882,-0.85703 -2.72542,-1.84204 -0.87633,-1.97699 0.21729,-3.18743 0.91791,-3.55292 0.19701,-0.10152 0.43772,-0.0254 0.5423,0.16959 0.10352,0.19802 0.0284,0.44171 -0.16649,0.54631 -0.13809,0.0741 -1.32313,0.77472 -0.55452,2.51002 0.32091,0.72502 1.10282,1.23683 2.09384,1.36783 1.3454,0.1777 2.67763,-0.36962 3.55803,-1.45812 0.83472,-1.03172 1.16573,-2.47973 0.90982,-3.97235 -0.29851,-1.74142 -1.36172,-3.28694 -2.91734,-4.24546 -1.52211,-0.93731 -3.58034,-1.10381 -5.36647,-0.4336 -1.381,0.51791 -3.21785,1.75463 -4.13985,4.70845 -1.60544,5.15637 0.47211,10.21825 4.83334,11.77486 0.97582,0.3473 9.65264,3.12245 14.06771,-6.52307 1.12001,-2.44913 1.78511,-5.54518 2.49283,-8.82093 1.39522,-6.48349 2.96103,-13.71226 8.4859,-18.88073 -0.83261,0.66101 -1.59723,1.3647 -2.37104,2.08052 -0.42039,0.38589 -0.8458,0.77479 -1.28451,1.1617 l 0.20822,-0.008 c -0.83271,0.74832 -3.05746,2.88686 -5.02127,4.23017 -3.29405,2.25023 -6.36059,2.45942 -8.39751,1.48661 -1.97813,-0.94329 -2.98034,-3.01072 -2.61885,-4.86795 0.90073,-4.63337 6.7952,-2.93754 6.7952,-2.93754 0,0 -0.729,0.45082 -0.9463,1.43884 -0.18082,0.81329 -0.1249,2.17301 1.13009,2.96901 2.60256,1.65112 7.19531,-2.14041 7.32532,-2.24912 l 0.21829,-0.009 c 0.70371,-0.57781 1.36472,-1.18502 2.04204,-1.80951 2.99953,-2.76494 6.09956,-5.62649 13.89096,-6.25199 0.95552,-0.0792 1.86833,-0.1147 2.73854,-0.1147 9.53581,0 13.91128,4.25865 14.11029,4.45566 0.1564,0.1564 0.1564,0.41332 0,0.5697 -0.15942,0.1594 -0.41322,0.1594 -0.57272,0 -0.0497,-0.0488 -5.12985,-4.99186 -16.21219,-4.10745 -2.31923,0.1889 -4.19266,0.56972 -5.7676,1.0896 -0.004,0.0274 -0.009,0.0528 -0.0203,0.0771 1.81964,-0.6488 3.29705,-0.7859 3.29705,-0.7859 -7.44099,1.45201 -7.5009,8.75291 -7.5009,8.75291 3.27674,-0.42849 2.57103,4.33488 -0.14619,3.47785 -1.50592,-0.47721 -2.19133,-2.21263 -2.05113,-4.15814 -2.94273,5.63057 -4.16126,13.05935 -2.45933,18.73353 2.81675,9.39162 11.67835,12.52416 19.20976,11.47124 10.56744,-1.4836 12.60635,-9.88922 12.14433,-14.62108 -0.27209,-2.78433 -1.70581,-9.36622 -9.1398,-10.35222 -6.9556,-0.92914 -9.63733,4.22005 -10.07904,7.06937 -0.332,2.13443 0.20312,4.40187 1.39424,5.91688 0.94431,1.20121 2.21461,1.87543 3.78242,2.00544 2.12523,0.17059 3.30315,-0.48841 3.94997,-1.15963 l -0.0883,-0.0894 c 0.7351,-0.76462 0.89549,-1.80543 0.3685,-1.71402 -0.52091,0.0924 -0.89151,0.50061 -1.47033,0.56661 -0.94841,0.10769 -1.6063,-0.857 -1.49871,-2.08162 0.1025,-1.19003 0.77981,-2.32634 2.20343,-2.37203 1.2561,-0.0416 2.69593,0.8428 2.55583,2.93863 -0.15231,2.28774 -1.40943,3.44335 -1.40943,3.44335 l -0.1096,-0.1148 c -0.787,0.81242 -2.17403,1.58611 -4.57047,1.38811 -1.7709,-0.14931 -3.27473,-0.94531 -4.34803,-2.31113 -1.32712,-1.68453 -1.92423,-4.19066 -1.55963,-6.54028 0.48431,-3.11934 3.40065,-8.75802 10.98476,-7.7467 5.63866,0.74841 9.2251,4.78576 9.83952,11.07524 0.4884,5.01816 -1.66332,13.93156 -12.83808,15.5004 -7.61459,1.06921 -17.15753,-2.24303 -20.09414,-12.03885 -2.01864,-6.72509 -0.0507,-15.83753 4.02214,-21.8153 0.0487,-0.0975 0.0974,-0.19288 0.1502,-0.2884 -4.73075,4.95328 -6.18187,11.65507 -7.4826,17.69784 -0.71381,3.32044 -1.3891,6.45708 -2.54872,8.98741 -4.71256,10.30355 -14.02698,7.3212 -15.0719,6.94548 -4.77756,-1.70481 -7.06938,-7.19729 -5.33298,-12.77395 0.79402,-2.54874 2.43704,-4.40384 4.62626,-5.22438 z"
                 style="fill:#000000;fill-opacity:1;fill-rule:nonzero;stroke:#000000;stroke-width:0.3985;stroke-linecap:butt;stroke-linejoin:miter;stroke-miterlimit:10;stroke-dasharray:none;stroke-opacity:1"
                 id="path50" /><path
                 d="m 189.03412,41.91452 c 6.4276,2.38625 9.91864,6.7932 10.28514,10.65184 0.3676,3.85854 -1.68253,5.69647 -3.48896,5.13797 -2.11001,-0.63969 -1.47031,-3.84845 -1.47031,-3.84845 1.89683,0.41642 2.92234,-0.63971 2.97114,-2.14253 0.0294,-0.9037 -0.19499,-1.75661 -0.95051,-3.00563 -2.07953,-3.43216 -7.3465,-6.7932 -7.3465,-6.7932 z"
                 style="fill:#000000;fill-opacity:1;fill-rule:nonzero;stroke:#000000;stroke-width:0.3985;stroke-linecap:butt;stroke-linejoin:miter;stroke-miterlimit:10;stroke-dasharray:none;stroke-opacity:1"
                 id="path52" /><path
                 d="m 200.05548,75.21837 c 0,0 0.25998,-1.36174 1.4541,-1.65314 1.19411,-0.2914 2.67862,0.84082 2.49483,3.35195 l -0.16141,0.0254 c -0.0467,0.64272 -0.2244,1.22562 -0.57069,1.70691 -0.54222,0.75241 -1.43073,1.24992 -2.43595,1.36263 -1.02659,0.11781 -2.02781,-0.29039 -2.68382,-1.08442 -0.80421,-0.97381 -0.98292,-2.35582 -0.50671,-3.89116 0.29452,-0.9392 0.88952,-2.25621 1.58003,-3.78134 0.37369,-0.82861 0.77071,-1.70694 1.15761,-2.60763 -3.84035,4.59076 -10.03743,5.07608 -12.45116,5.07608 -5.87108,0 -10.31663,-3.78346 -11.59915,-9.86585 -0.7727,-3.66563 0.0803,-7.6563 2.16791,-10.17451 1.60234,-1.92935 3.84646,-2.91425 6.44191,-2.87364 4.48105,0.10159 6.32397,2.83303 7.08459,5.11775 l 0.1543,-0.0406 c 1.04491,2.77203 0.6692,5.41218 -0.34522,6.7525 -1.19722,1.5841 -3.72663,1.9598 -5.48637,0.6093 -1.75972,-1.34043 -1.4266,-3.85865 -0.37768,-4.85376 1.11091,-1.04592 2.9213,-0.78182 3.62204,0.589 0.69859,1.37082 0.0487,2.99544 0.0487,2.99544 0.2488,0.03052 1.3566,0.09142 1.78101,-1.66532 0.42451,-1.76681 -0.2985,-4.13276 -0.2985,-4.13276 l 0.1513,-0.0406 c -0.6783,-2.041 -2.32433,-4.43734 -6.35149,-4.51864 -2.3253,-0.07101 -4.36324,0.84279 -5.80206,2.57923 -1.93543,2.33543 -2.72135,6.06207 -1.99942,9.48402 0.72499,3.44434 2.88282,7.05819 6.82977,8.53662 -0.8692,-0.40713 -1.39221,-0.77272 -1.39221,-0.77272 1.80342,1.07941 4.52376,0.9413 5.37057,-1.06921 0,0 -0.1969,2.58833 2.48073,2.23492 0.2112,-0.0132 0.58592,-0.01521 0.89052,0.002 4.51155,-0.79102 10.99494,-3.58947 11.46913,-13.0949 0.52702,-10.54004 -5.94926,-17.75972 -16.9006,-18.85634 -3.63216,-0.36558 -6.81549,0.03041 -9.55413,0.90372 1.19312,-0.2843 2.27553,-0.1929 3.33565,0.32491 2.65732,1.3099 2.92343,4.64047 1.11601,5.71687 -2.27054,1.34033 -4.04144,-1.28961 -4.04144,-1.28961 1.07842,-0.11171 1.29772,-0.92403 1.2195,-1.51293 -0.0558,-0.41641 -0.30049,-0.69052 -0.30049,-0.69052 -2.00953,-2.36592 -5.68438,-0.4265 -5.68438,-0.4265 0.8093,-0.53819 1.56072,-0.9748 2.26644,-1.33021 -4.37848,1.93944 -7.37091,5.13806 -8.89414,8.18429 -2.83503,5.6661 -2.93452,15.31263 3.66976,22.67441 -1.39922,-2.01563 -2.55983,-4.64355 -2.78125,-7.9508 -0.20709,-3.09703 0.51281,-5.67618 1.97603,-7.0876 0.74432,-0.71082 1.64701,-1.08651 2.62992,-1.08651 0.14321,0 0.28743,0.01012 0.43261,0.03051 2.19535,0.2335 3.25544,2.00032 3.16914,3.62503 -0.0823,1.52313 -1.0865,2.59944 -2.44513,2.59944 -0.7464,0 -1.35561,-0.2437 -1.81151,-0.7108 -0.86821,-0.90372 -0.83061,-2.31514 -0.82962,-2.37604 0.007,-0.2234 0.20711,-0.3656 0.41831,-0.38589 0.22342,0.01017 0.39711,0.1929 0.39001,0.41629 -0.002,0.0102 -0.0203,1.13732 0.60112,1.77704 0.30357,0.3148 0.70569,0.4671 1.23169,0.4671 1.06314,0 1.59013,-0.91393 1.63783,-1.82784 0.065,-1.20831 -0.67421,-2.58923 -2.44912,-2.78223 -0.91492,-0.1015 -1.73133,0.18282 -2.41475,0.84282 -1.2723,1.21849 -1.91712,3.62505 -1.73021,6.43778 0.45791,6.86429 5.15526,10.65683 7.21759,12.00024 -1.09361,-1.7902 0.1868,-4.63136 2.73854,-4.36323 2.40353,0.25078 2.49794,2.86342 2.49794,2.86342 -1.42363,-0.49651 -2.57105,0.35751 -2.20444,2.01973 0.60311,2.72233 7.34659,3.12243 7.34659,3.12243 -5.69346,0.73512 -9.91763,-2.57313 -15.2435,-3.30725 -3.11433,-0.4285 -1.65311,2.57203 -1.65311,2.57203 -2.22485,1.01754 -4.41406,-0.41828 -4.22315,-2.75483 0.19189,-2.38721 2.93664,-2.57101 4.58965,-2.20441 0.60422,0.13401 1.62272,0.49549 2.67464,0.8976 -9.21803,-7.8005 -9.41704,-19.35495 -6.15848,-25.87391 0.42951,-0.85302 0.97881,-1.72625 1.62673,-2.57926 -0.27121,0.24371 -0.45902,0.37571 -0.45902,0.37571 1.05602,-1.49262 0.27719,-2.69083 -0.64282,-2.98533 -0.8783,-0.2843 -1.99931,0.04059 -1.99931,0.04059 -0.40309,-2.81262 1.04591,-4.18346 2.51213,-4.12256 1.20631,0.0406 2.47963,0.88342 2.63095,2.47765 0.0935,1.0052 -0.24971,1.91913 -0.71182,2.66043 3.31135,-3.48294 8.54379,-6.3261 15.6193,-6.3261 0.8915,0 1.81452,0.04061 2.76395,0.13202 11.42343,1.14742 18.17803,8.7021 17.62671,19.70925 -0.0224,0.46711 -0.062,0.91391 -0.1127,1.34043 -0.1138,3.17822 -1.99333,7.34247 -3.50424,10.68523 -0.6783,1.4998 -1.26422,2.79753 -1.54244,3.68904 -0.395,1.26622 -0.26808,2.37914 0.35642,3.13764 0.4813,0.58291 1.21852,0.88441 1.96893,0.79301 0.7818,-0.08629 1.46321,-0.46199 1.87142,-1.03061 0.2294,-0.31779 0.3655,-0.69151 0.4193,-1.11191 l -0.133,0.0183 c 0,0 0.1432,-1.06212 -0.4133,-1.86531 -0.55132,-0.79613 -1.80744,-0.70473 -2.43392,0 z"
                 style="fill:#000000;fill-opacity:1;fill-rule:nonzero;stroke:#000000;stroke-width:0.3985;stroke-linecap:butt;stroke-linejoin:miter;stroke-miterlimit:10;stroke-dasharray:none;stroke-opacity:1"
                 id="path54" /></g></g></g></g></g></g></svg>
