<?xml version="1.0" encoding="UTF-8" standalone="no"?>
<svg
   xmlns:dc="http://purl.org/dc/elements/1.1/"
   xmlns:cc="http://creativecommons.org/ns#"
   xmlns:rdf="http://www.w3.org/1999/02/22-rdf-syntax-ns#"
   xmlns:svg="http://www.w3.org/2000/svg"
   xmlns="http://www.w3.org/2000/svg"
   xmlns:sodipodi="http://sodipodi.sourceforge.net/DTD/sodipodi-0.dtd"
   xmlns:inkscape="http://www.inkscape.org/namespaces/inkscape"
   version="1.1"
   id="svg2"
   xml:space="preserve"
   width="77.774185"
   height="78.402733"
   viewBox="0 0 77.774185 78.402733"
   sodipodi:docname="vectorian124.pdf"><metadata
     id="metadata8"><rdf:RDF><cc:Work
         rdf:about=""><dc:format>image/svg+xml</dc:format><dc:type
           rdf:resource="http://purl.org/dc/dcmitype/StillImage" /></cc:Work></rdf:RDF></metadata><defs
     id="defs6"><clipPath
       clipPathUnits="userSpaceOnUse"
       id="clipPath32"><path
         d="M 0,0 H 58.33064 V 58.80205 H 0 Z"
         id="path30" /></clipPath></defs><sodipodi:namedview
     pagecolor="#ffffff"
     bordercolor="#666666"
     borderopacity="1"
     objecttolerance="10"
     gridtolerance="10"
     guidetolerance="10"
     inkscape:pageopacity="0"
     inkscape:pageshadow="2"
     inkscape:window-width="640"
     inkscape:window-height="480"
     id="namedview4" /><g
     id="g10"
     inkscape:groupmode="layer"
     inkscape:label="vectorian124"
     transform="matrix(1.3333333,0,0,-1.3333333,0,78.402731)"><g
       id="g12"
       transform="translate(72,-13.199)"><g
         id="g14"
         transform="translate(-72,13.199)"><g
           id="g16"><g
             id="g18"><path
               d="m 31.8056,41.70532 c -0.2445,0 -0.44262,0.19811 -0.44262,0.44261 0,0.2459 0.19812,0.4433 0.44262,0.4433 0.2445,0 0.4433,-0.1974 0.4433,-0.4433 0,-0.2445 -0.1988,-0.44261 -0.4433,-0.44261 m 0,1.27931 c -0.46241,0 -0.83741,-0.37359 -0.83741,-0.8367 0,-0.46171 0.375,-0.83601 0.83741,-0.83601 0.4617,0 0.83672,0.3743 0.83672,0.83601 0,0.46311 -0.37502,0.8367 -0.83672,0.8367"
               style="fill:#000000;fill-opacity:1;fill-rule:nonzero;stroke:#000000;stroke-width:0.3985;stroke-linecap:butt;stroke-linejoin:miter;stroke-miterlimit:10;stroke-dasharray:none;stroke-opacity:1"
               id="path20" /><path
               d="m 33.62723,16.4485 c 0,0 0.34417,-1.67341 1.62491,-1.96913 1.28001,-0.2951 1.32911,0.39342 1.32911,0.39342 0,0 0.09841,-0.93572 -0.8865,-0.93572 -0.98422,0 -2.16583,0.88649 -2.06752,2.51143"
               style="fill:#000000;fill-opacity:1;fill-rule:nonzero;stroke:#000000;stroke-width:0.3985;stroke-linecap:butt;stroke-linejoin:miter;stroke-miterlimit:10;stroke-dasharray:none;stroke-opacity:1"
               id="path22" /><path
               d="m 36.63116,16.1521 c 0,0 -0.83741,0.9357 -1.23152,1.1816 -0.39412,0.24731 -0.93501,0.39411 -0.68911,-0.3435 0.2458,-0.73912 3.34814,-1.96981 3.79074,-0.09909 0,0 0,-1.42822 -1.03341,-1.57432 -1.03411,-0.14821 -3.10234,0.49171 -3.15144,1.62421 -0.04849,1.13171 0.93572,1.08262 1.52652,0.49182 0.59081,-0.5902 0.78822,-1.28072 0.78822,-1.28072"
               style="fill:#000000;fill-opacity:1;fill-rule:nonzero;stroke:#000000;stroke-width:0.3985;stroke-linecap:butt;stroke-linejoin:miter;stroke-miterlimit:10;stroke-dasharray:none;stroke-opacity:1"
               id="path24" /><path
               d="m 38.50127,17.97441 c 0,0 -1.4767,1.62492 -2.11673,1.77313 -0.6406,0.1482 -0.4924,-0.34489 0.24662,-1.03413 0.73769,-0.68979 4.03595,-2.21501 4.82416,-0.29639 0,0 0.4433,-1.77182 -1.91992,-1.67343 -2.36333,0.09903 -3.98816,2.11675 -4.03735,2.80724 -0.04853,0.68782 1.62422,1.13243 3.00322,-1.57642"
               style="fill:#000000;fill-opacity:1;fill-rule:nonzero;stroke:#000000;stroke-width:0.3985;stroke-linecap:butt;stroke-linejoin:miter;stroke-miterlimit:10;stroke-dasharray:none;stroke-opacity:1"
               id="path26" /><g
               id="g28"
               clip-path="url(#clipPath32)"><path
                 d="m 56.72632,54.89789 c 0.0096,-0.0034 0.0198,-0.0055 0.0287,-0.01019 0,0 -0.0095,0.0047 -0.0287,0.01019 m -7.9353,-26.82976 c -1.18163,-0.98491 -3.29834,-1.57581 -4.18485,-1.52661 -0.88592,0.04991 -0.88592,0.83671 -0.04851,0.88661 0.8367,0.04921 2.46094,-0.0499 2.46094,-0.0499 -0.75952,0.36001 -2.23495,0.5259 -2.94594,0.25751 0.20629,0.85993 -0.16801,1.70003 -0.16801,1.70003 0,0 1.07031,0.1387 1.95143,1.29091 -0.1189,-0.45281 0.48702,-0.69942 1.21231,-0.73691 0.93512,-0.04991 2.70753,0.59012 2.70753,0.59012 0.88653,-0.64003 0.19672,-1.42754 -0.9849,-2.41176 M 45.19696,23.6865 h -0.1967 c 0,0 -1.37901,0.14819 -2.36333,0.6393 -0.98491,0.4925 -0.2957,0.98491 0.73911,0.59081 1.03341,-0.39411 1.82092,-1.23011 1.82092,-1.23011 m 2.80655,0.88589 c -0.88591,-0.4433 -2.46162,-0.5423 -2.46162,-0.5423 0,0 -0.34493,0.34491 -2.01905,1.08391 -1.67412,0.73903 -2.11673,-0.5915 -0.73761,-1.27931 1.37831,-0.69051 2.70745,-0.5416 2.70745,-0.5416 -0.09832,-1.62624 -1.87143,-1.47801 -1.87143,-1.47801 -1.18642,1.26082 -2.17684,1.57161 -2.59415,1.64942 0.89813,0.85311 0.36682,2.28883 0.36682,2.28883 0,0 0.71919,-0.20691 1.99371,0.81349 0.09702,0.07721 0.18172,0.15982 0.25681,0.24452 0.13802,-0.33401 0.66052,-0.58263 1.70073,-0.61401 1.57573,-0.04991 2.60915,0.44189 2.60915,0.44189 0.8367,-0.5894 0.93571,-1.62282 0.04919,-2.06683 m -27.32506,0.88652 c 0,0 0.14762,0.51642 0.44332,0.81152 0.29579,0.29639 0.59008,-0.11 0.25819,-0.44331 -0.332,-0.3326 -0.70151,-0.36821 -0.70151,-0.36821 m 2.06752,-1.58931 c 0,0 0.29581,0.8134 0.59082,1.2192 0.29579,0.40572 1.03412,0.22191 0.444,-0.4426 -0.59152,-0.6653 -1.03482,-0.7766 -1.03482,-0.7766 m 1.99443,-1.14412 c 0,0 0.2951,0.99791 0.70151,1.14412 0.40642,0.1489 0.44261,-0.5164 -0.70151,-1.14412 m -2.28943,-1.73552 c 0.44253,0.4071 0.92342,-0.0369 0.517,-0.55391 -0.4064,-0.5164 -0.84971,-0.59021 -0.84971,-0.59021 0,0 -0.11058,0.7384 0.33271,1.14412 m 1.88373,-2.14063 c 0,0 0.03621,1.10721 0.55321,1.40291 0.5171,0.29511 0.9228,-0.55461 -0.55321,-1.40291 m 3.76613,-0.59211 c 0,0 0.03621,0.7028 0.29512,0.7028 0.25819,0 -0.29512,-0.7028 -0.29512,-0.7028 m 3.91377,0.18571 c 0.1482,0 0.3326,-0.18571 -0.11,-0.55393 0,0 -0.0375,0.55393 0.11,0.55393 m -4.94777,4.68964 c 0.25811,0.40571 0.84893,0.11001 0.44321,-0.4426 -0.40642,-0.55531 -0.66521,-0.66659 -0.66521,-0.66659 0,0 -0.03689,0.7021 0.222,1.10919 m 1.69794,-1.95752 c 0,0 0.14818,0.92341 0.51709,1.36673 0.36952,0.4426 0.77591,0.07379 0.36952,-0.44332 -0.40571,-0.5177 -0.88661,-0.92341 -0.88661,-0.92341 m 1.99442,-0.55391 c 0,0 -0.03692,0.44322 0.222,0.95962 0.25821,0.5177 0.8121,0.25951 0.51638,-0.22129 -0.29507,-0.48081 -0.73838,-0.73833 -0.73838,-0.73833 m 2.40013,0 c 0,0 -0.073,0.36882 0.1483,0.99652 0.2213,0.6277 0.7752,0.18512 0.40571,-0.3313 -0.36893,-0.517 -0.55401,-0.66522 -0.55401,-0.66522 m -9.08412,8.57942 c 0,0 -1.27932,-1.32913 -2.11672,-2.26492 0,0 1.1816,-0.739 4.77565,0.5417 0,0 -0.68912,-1.82162 -0.83671,-2.51154 0,0 1.03341,0.64 2.21511,1.08402 1.18163,0.4425 1.62554,0.83661 1.62554,0.83661 0,0 -0.44391,-1.82293 -0.09899,-3.19993 0,0 1.47732,0.88589 2.46232,2.21502 0,0 -0.2958,-3.20125 0.04841,-4.28386 0,0 0.5424,0.78821 1.1817,1.42752 0.63989,0.64132 1.08322,1.03472 1.37902,2.06882 0,0 0.1967,-1.27931 1.13241,-2.2655 0,0 -0.2957,-2.41245 -1.28061,-3.10096 -0.98501,-0.68991 -1.47601,0 -1.37842,0.49181 0,0 0.59021,0.14819 0.88662,1.08391 0.29499,0.9344 -0.64002,1.52524 -1.03414,0.196 -0.39407,-1.3284 -0.24658,-1.62491 -0.24658,-1.62491 0,0 -0.73831,-0.54091 -1.42752,-0.4917 -0.6891,0.0491 -0.59081,0.98489 -0.59081,0.98489 0,0 0.54172,0.0976 0.88592,0.78751 0.33059,0.66052 0,1.03412 -0.19672,1.08261 -0.40779,0.10242 -0.8367,-0.44258 -1.03342,-1.87012 0,0 -0.9364,-0.68991 -1.37831,-0.64 -0.444,0.04851 -0.444,0.8367 -0.14819,1.18232 0.29501,0.3435 0.7875,0.4911 1.18161,1.27931 0.39341,0.7875 -0.2466,1.47733 -0.93511,0.63933 -0.6898,-0.83603 -0.73901,-2.06754 -0.73901,-2.06754 0,0 -0.83672,-0.29582 -1.18161,-0.29582 -0.3443,0 -0.78822,0.83812 -0.29581,1.23153 0,0 0.68921,0.4925 1.08331,1.03413 0.39411,0.54229 0.14821,1.18159 -0.44261,0.98489 -0.5908,-0.19741 -1.23149,-0.64131 -1.08331,-2.65973 0,0 -0.14818,-1.23012 1.82162,-0.78751 0,0 0.09841,-0.8858 0.68921,-0.8858 0.59081,0 1.28003,0.4917 1.28003,0.4917 0,0 0.24649,-0.83672 1.03412,-0.78612 0.7882,0.0471 1.5258,0.54089 1.5258,0.54089 0,0 0.6407,-1.03401 1.87153,-0.19737 0,0 -1.0833,-2.46155 -2.36333,-2.85505 l -0.55391,0.5902 c 0,0 0.70151,0.7021 0.73841,1.29223 0.0362,0.5915 -0.7015,0.48089 -0.8866,0.0738 -0.18442,-0.40642 -0.13462,-1.46443 -0.13462,-1.46443 0,0 -0.83729,-0.7383 -1.1331,-0.64 -0.61401,0.2043 -0.39412,0.8367 -0.39412,0.8367 0.83742,0.68921 0.88663,2.06824 0.04991,1.62493 -0.8374,-0.4433 -0.6407,-1.87084 -0.6407,-1.87084 0,0 -0.44263,-0.73901 -0.93501,-0.63929 -0.68242,0.1353 -0.49182,0.98431 -0.49182,0.98431 0.44261,0.2458 1.28003,2.01834 0.59082,2.01834 -0.68981,0 -0.93642,-1.82164 -0.93642,-1.82164 -0.98492,-1.13251 -1.42682,-0.29581 -1.37831,0.44321 0.04921,0.73912 0.34489,1.52661 0.739,1.52661 0.3941,0 -0.2466,-1.32982 -0.2466,-1.32982 1.23151,0.93432 0.7384,2.36323 -0.09901,1.57504 -0.836,-0.78752 -0.7377,-2.11675 -0.7377,-2.11675 0,0 -0.19671,-0.04919 -0.83732,0.09841 -0.64,0.14821 -0.49249,0.68912 -0.49249,0.68912 1.9698,1.47741 1.18231,2.70822 0.2466,2.06822 C 23.8785,19.89574 23.9775,18.46683 23.9775,18.46683 l -0.88723,0.04851 c -0.88519,0.05128 -1.08259,0.78819 -1.08259,0.78819 1.1324,0.34559 2.16652,2.16653 0.93569,2.21573 -1.23152,0.04989 -1.1324,-1.67342 -1.1324,-1.67342 -1.77243,-0.54231 -1.52661,1.32921 -1.52661,1.32921 1.50949,0.29373 1.69731,1.24922 1.6966,1.71303 -0.01158,0.08059 -0.01978,0.16391 -0.02248,0.2561 0,0 0.02188,-0.09968 0.02248,-0.2561 0.23159,-1.63042 2.24244,-0.82711 2.24244,-0.82711 0.29569,-1.52592 1.57572,-0.73771 1.57572,-0.73771 -1.57572,-0.2473 -1.18162,0.93571 -1.18162,0.93571 0,0 0.59081,0.19611 1.27992,0.98361 0.5984,0.683 0,1.72322 -0.88651,0.64062 -0.70561,-0.86263 -0.59081,-1.42812 -0.59081,-1.42812 0,0 -0.73841,-0.44261 -1.57502,-0.24591 -0.8374,0.1967 -0.4426,0.93501 -0.4426,0.93501 2.70672,1.42821 2.46092,2.75734 1.37831,2.46162 -1.08401,-0.29509 -1.72392,-1.9193 -1.72392,-1.9193 0,0 -0.78761,-0.54232 -1.32922,0.0977 -0.5416,0.64001 -0.19741,1.2308 -0.19741,1.2308 0.83742,0.14822 2.11743,1.13242 1.32984,1.57571 -0.78752,0.44263 -1.18163,-0.59149 -1.47664,-1.13308 -0.29579,-0.54102 -0.54169,-0.68853 -0.93579,-0.54102 -0.39342,0.14689 -1.42754,1.13321 0.64,2.95482 2.06752,1.82153 3.98755,1.32913 3.98755,1.32913 m 11.12774,-0.39342 c 0.14751,0.44263 0.88591,0 0,-1.13249 0,0 -0.14821,0.68781 0,1.13249 M 33.57732,14.23347 c -0.0484,-1.52653 -1.32842,-2.60913 -3.69165,-3.15145 -2.36403,-0.5416 -6.49968,-1.87151 -7.68059,-5.76058 0,0 -0.54231,1.62483 0.8367,3.69307 1.37832,2.06751 2.01832,1.67342 1.82162,2.36263 0,0 1.96913,0.1967 2.46154,2.26551 0,0 0.39412,0.44262 0.78759,0.09771 0.39412,-0.3449 1.87073,-1.03342 3.69307,2.06884 0,0 1.82163,-0.05052 1.77172,-1.57573 m -6.05568,-6.3029 c 1.03482,-0.04989 2.16662,-0.44258 2.70894,-1.6242 0.5409,-1.18163 0,-1.57512 0,-1.57512 0,0 -0.49251,3.05243 -4.23476,2.46092 0,0 2.16653,-0.78821 1.96982,-2.95403 0,0 -0.2964,1.42752 -1.28061,1.82161 -0.98432,0.39341 -1.96923,0.83812 -1.96923,0.83812 0,0 0.64002,-1.23221 0.78751,-1.82162 C 25.62492,4.58995 25.2144,4.07143 25.0648,3.90344 L 24.99861,3.87683 C 24.9064,4.11653 24.3067,5.69437 24.12498,6.60138 23.9276,7.58629 24.6667,7.93057 25.84833,8.423 c 0,0 0.63989,-0.4426 1.67331,-0.49243 M 25.8872,4.22104 c 0.01302,0.2124 -0.02187,0.4194 -0.03887,0.5587 -0.04921,0.3941 0.09829,0.68993 0.09829,0.68993 0.433,0 0.70762,-0.38523 0.88181,-0.88323 z m -2.13651,0.0888 -1.37761,-0.05599 c 0.20079,1.72531 1.11191,1.95341 1.11191,1.95341 -0.05192,-0.4883 0.01851,-1.27382 0.2657,-1.89742 M 19.79874,1.8619 c 0.37291,0.59632 0.66191,1.30593 0.87222,1.95203 l 3.25664,0.13321 c 0.08609,-0.1448 0.18719,-0.27041 0.3026,-0.36811 z M 18.70863,1.97392 C 18.26602,1.0382 17.3303,0.44739 16.93622,0.6441 16.5428,0.8408 16.2969,1.3824 16.9861,2.46501 c 0.68912,1.08392 1.47662,2.31473 1.57571,3.00466 0,0 0.73761,-0.29583 1.47673,-0.29583 0,0 -0.88661,-2.26553 -1.32991,-3.19992 M 13.88377,0.54498 c 0,0 -0.83671,-0.44318 -0.98422,0.19812 -0.14751,0.6393 -7.2e-4,1.52521 0.39412,2.11672 0.39339,0.59082 1.91991,1.96913 2.31342,3.59334 l 1.52651,-0.4918 c 0,0 -1.0833,-4.38154 -3.24983,-5.41638 M 10.58542,1.53061 C 9.35469,0.7431 7.67989,0.5949 8.5671,3.00732 c 0,0 1.96983,1.03342 3.88915,4.03736 0,0 1.03412,-0.98493 0.88661,-1.77313 C 13.19466,4.48334 11.81624,2.31882 10.58542,1.53061 M 5.07076,2.31882 C 3.74153,2.26831 4.28323,4.18895 5.80975,5.66566 7.33568,7.14368 9.8464,8.47289 9.8464,8.47289 c 0,0 0.19811,-0.29579 0.14823,-0.68921 0,0 0.04988,-0.14888 0.59079,0.39342 0.5417,0.5417 1.08331,1.084 1.42752,0.83741 0.34502,-0.24661 -0.2458,-0.83741 -0.4924,-0.83741 0,0 0.59149,-0.1967 0.34491,-0.78823 -0.24661,-0.59079 -1.13173,-0.836 -1.13173,-0.836 l 0.491,1.28072 c 0,0 -1.0416,-1.47331 -1.72251,-2.46305 C 8.9606,4.58304 6.40056,2.36801 5.07076,2.31882 M 2.51083,8.91621 c 0,0 0.34488,0.491 1.08319,0.7383 0.739,0.24591 0.78751,-0.39341 0.14751,-0.64 C 3.10162,8.7679 2.51083,8.91621 2.51083,8.91621 M 4.57825,6.65128 c 0,0 1.57582,1.3776 1.18171,2.46162 -0.39352,1.08252 -2.60853,-1.62491 -2.31343,-2.16663 0,0 -1.28001,-0.73901 -2.26493,-0.59082 0,0 -0.4433,0.19742 -0.1475,0.54242 0.295,0.34351 0.54161,0.836 0.54161,0.836 0,0 1.23081,0.04981 2.21572,0.68913 0.98422,0.64 1.32853,1.47742 0.6885,1.52662 C 3.84064,9.99872 2.70752,9.90042 1.6741,8.7188 c 0,0 -0.7391,0.59079 0.1475,1.3298 0.88592,0.73762 3.29905,2.01834 6.5973,0.24521 0,0 -1.62424,-3.69243 -3.84065,-3.64253 m -0.78682,0.5901 c 0,0 0.4918,0.98561 0.83671,1.32921 0.34493,0.34562 0.88593,0.2957 0.49251,-0.3436 C 4.72655,7.58629 3.79143,7.24138 3.79143,7.24138 m 5.02156,3.00255 c 0,0 0.88592,-0.44121 1.03341,-0.68842 0.14823,-0.24592 0.09913,-0.6393 0.09913,-0.6393 0,0 -0.88593,-0.49321 -1.87084,-1.13253 0,0 0.59081,0.68921 0.7383,2.46025 m 0.09841,5.12065 c 0.19671,1.67471 0.78751,2.11804 1.23083,1.67471 0.44319,-0.44259 0.8858,-3.15143 -1.18163,-5.51465 0,0 -0.24591,2.16651 -0.0492,3.83994 m 5.85827,-8.66351 c 0,0 -0.04851,-0.937 -0.836,-1.57633 0,0 -0.0499,1.03403 0.836,1.57633 m -0.34429,0.78692 c 0,0 -0.19671,-0.44331 0.04989,-0.54172 l -0.49311,-0.6399 c 0,0 -0.44261,0.5402 -0.09839,0.93501 0,0 0.19739,0.0499 0.19739,-0.1967 0,0 0.19742,0.14749 0.14751,0.59012 l -0.49172,0.19879 c 0,0 -0.0991,1.57432 0.98421,1.42751 1.08334,-0.1482 0.34422,-1.92072 0.34422,-1.92072 0,0 -0.44261,0 -0.64,0.14761 m -3.10156,3.15003 c 0.93501,0.49321 1.91994,1.18162 2.41313,1.62562 0.49172,0.4433 0.83602,0.49249 0.83602,0.49249 l 0.099,-0.78888 c 0.34491,0 0.24661,0.4446 0.24661,0.4446 0.3435,0.1469 0.54161,-0.29642 0.54161,-0.29642 0.1469,-2.01831 0.54101,-1.27929 1.0334,-2.70752 C 16.9861,7.9804 16.34538,7.29128 16.0012,6.99478 15.65688,6.70107 15.46019,6.94627 15.46019,6.94627 c 0,0 0.1469,0.7876 0.1469,1.77253 0,0.9849 -1.13182,1.47662 -1.13182,1.47662 C 12.99785,9.55551 13.24376,7.6348 13.24376,7.6348 c -0.83733,0.04988 -0.73831,1.37971 -0.73831,1.37971 1.28,0.541 1.2315,2.01831 1.2315,2.01831 0,0 -0.34558,-0.64061 -1.18159,-0.73901 -0.83742,-0.097 -1.82164,-0.78681 -1.82164,-0.78681 0,0 -0.345,0.63932 0.5901,1.13102 m 3.29895,8.54332 c 0.1845,0.55319 0.88591,0.55319 0.59081,-0.29581 -0.295,-0.84961 -0.59081,-1.44053 -0.59081,-1.44053 0,0 -0.1844,1.18172 0,1.73634 m -0.5908,-2.32575 c -0.0737,-1.18161 -0.2213,-3.17674 -1.91994,-3.54483 0,0 0.6277,0.62631 0.73833,2.17812 0.11,1.55041 -0.81282,3.87754 0.36949,5.87059 0,0 0.95972,1.5511 3.65486,0.88589 0,0 2.47464,-0.9221 2.73282,-3.35983 0.25882,-2.43703 -0.92282,-3.61867 -1.21851,-4.24635 -0.2951,-0.62771 -0.62772,-2.17882 -0.25821,-3.17605 0,0 -1.2561,0.88662 -1.18161,2.80726 0.07311,1.91929 1.21851,3.72993 0.77521,4.94714 0,0 -0.18511,0.37019 -0.62771,0.2957 -0.4433,-0.07379 -0.99651,-0.5901 -0.5539,-3.76614 0,0 -0.7383,-1.32923 -1.47742,-1.92074 0,0 -0.51701,1.07174 -0.29571,2.99166 0,0 1.62563,3.13853 0.29571,3.36055 -1.32843,0.22059 -0.96031,-2.14264 -1.03341,-3.32297 m -0.4439,6.4375 c -2.80584,0.2937 -2.41175,2.11533 -2.31344,2.31271 0,0 2.16653,-1.18159 3.64395,-0.24588 0,0 -0.0499,-1.13241 1.87012,-1.87142 0,0 -0.3934,-0.49183 -3.20063,-0.19541 m 0.14888,2.36263 c -0.93641,-0.14762 -1.72401,0.3941 -1.72401,0.3941 0,0 0.39349,0.3941 1.28073,0.4425 0.8859,0.0492 1.3783,-0.6898 0.44328,-0.8366 m -3.98814,4.08575 c 0,0 2.60915,-1.67404 4.03664,-0.68912 0,0 -0.19738,-1.42752 1.77243,-1.77241 0,0 -0.4426,-0.5417 -0.59079,-1.18102 l -0.29512,0.0485 c 0,0 -0.39411,1.18162 -3.10163,0.3941 0,0 -3.15144,1.87154 -1.82153,3.19995 m 9.08342,-6.75709 c 0,0 0.1476,0.92271 0.55331,1.10782 0.40641,0.1851 0.92342,-0.48011 -0.55331,-1.10782 m -1.51422,-4.09885 c 0.4064,-0.0362 -0.07381,-1.47731 -0.33191,-2.10431 0,0 -0.0738,0.40568 -0.11139,1.29149 -0.02931,0.70492 0.03759,0.85042 0.4433,0.81282 M 19.05423,8.2755 17.9703,7.9804 c 0,0 0.09902,-0.04983 0.34493,-0.19672 0.24658,-0.14888 -0.54161,-2.16652 -1.13243,-2.80652 0,0 0.1475,1.1325 0.68982,2.26422 l -0.2957,0.0499 -0.44332,-0.88732 -0.98492,0.3456 c 0,0 1.08322,0.34361 1.18162,1.57513 0.09841,1.23082 -0.6892,1.72391 -1.0334,2.46153 -0.3456,0.73842 -0.54232,1.82233 -0.93572,1.92072 l -0.2213,0.1598 1.14471,1.29233 c 0,0 -0.1844,-3.65555 2.91724,-4.17265 0,0 -0.81281,0.77591 -0.81281,1.88382 0,0 0.22132,0.0369 0.48011,-0.1113 0.25891,-0.1483 0.88591,-0.55462 1.80932,-0.55462 0,0 0.24661,-3.27375 -0.39409,-5.44025 0,0 -0.63994,-0.29511 -1.67402,0.19729 0,0 0.68908,0.88521 0.44389,2.31414 m 3.02715,8.1355 c 0,0 0.1483,0.48011 0.25819,0.739 0.1114,0.25822 0.66461,0.33262 0.4064,-0.22199 C 22.48848,16.3748 22.08138,16.411 22.08138,16.411 m 2.14202,-0.77392 c 0,0 0.1113,0.4426 0.33258,0.6632 0.22132,0.22202 0.73835,0.33332 0.36882,-0.183 -0.36882,-0.51709 -0.7014,-0.4802 -0.7014,-0.4802 m -2.73285,-1.81073 c 0,0 0.07451,0.51781 0.33202,0.59151 0.25881,0.07451 0.1113,-0.37019 -0.33202,-0.59151 M 22.14838,4.24364 20.78706,4.18825 c 0.2282,0.7725 0.33471,1.38589 0.33471,1.47741 0,0.19741 0.39338,0.2957 0.39338,0.2957 0.06491,-0.90841 0.40781,-1.45071 0.63323,-1.71772 m -0.87912,7.03579 c 0,0 1.10722,0.12221 1.77252,0.836 0,0 0.44321,-1.08261 1.23012,-0.73829 0,0 -0.0485,-0.34432 -0.68782,-0.59092 -0.64071,-0.2458 -1.52721,-1.13171 -2.01902,-3.00254 0,0 0.0492,2.80584 -0.2958,3.49575 m 5.09536,3.95054 c 0,0 0.0369,0.51712 0.33332,0.66462 0.2944,0.1482 0.40568,-0.48021 -0.33332,-0.66462 m 3.54494,3.13926 c 0.14821,0.2943 0.48012,0.14611 0.25882,-0.25891 -0.22201,-0.4064 -0.33261,-0.48021 -0.33261,-0.48021 0,0 -0.07381,0.4426 0.07379,0.73912 m 0.29642,-2.17955 c 0.2944,-0.03758 0.73761,-0.03758 1.29159,0.70143 0,0 0.14753,-0.1468 0.36953,-0.36881 0,0 -0.6646,-1.29233 -1.43984,-1.92004 -0.77588,-0.62829 -1.4405,-0.9972 -2.06821,-0.7021 0,0 -0.18512,0.40711 0.2213,0.5177 0.40641,0.1107 0.96031,0.66393 0.96031,1.21922 0,0 -0.11059,0.33132 -0.36949,0.1462 -0.25822,-0.18309 0.0369,-0.6639 -0.66452,-0.95972 0,0 -0.25821,0.25823 -0.36961,0 -0.11061,-0.25879 0.03689,-0.59009 -0.59081,-0.4794 0,0 -0.44261,-0.66531 -1.07022,-0.40709 -0.62768,0.2589 -0.40638,0.739 0,0.88649 0.40633,0.14693 0.66451,0.51712 0.81273,0.81352 0.1476,0.29442 0.1476,0.84902 -0.4808,0.70011 -0.62772,-0.14751 -0.81212,-0.84831 -0.99723,-1.55042 0,0 -0.1844,-0.332 -0.55389,-0.25821 0,0 0.77589,-1.14469 1.69861,-1.10859 0,0 -0.70072,-1.21843 -2.32633,-1.80933 0,0 -0.1844,0.2596 -0.62701,0.07379 -0.444,-0.1844 -0.70219,0.48151 -0.29581,1.1447 0,0 -0.14819,0.22202 0.07451,0.51853 0.2213,0.29499 0.405,0.1092 0.33119,-0.11069 0,0 0.444,0 0.444,0.58938 0,0 -0.33258,0.36962 -0.8497,-0.03619 -0.51701,-0.40629 -0.36949,-0.6645 -0.6645,-0.99782 -0.29581,-0.33198 -1.40293,-0.33198 -1.55123,0.33332 0,0 -0.07299,0.29431 0.1483,0.44259 0.22123,0.1482 0.77523,0 0.99723,1.18233 0,0 0.295,-0.22202 0.9965,0.03619 0,0 0.22132,-0.92352 1.21912,-0.5908 0,0 -1.18161,0.33259 -0.7765,1.18161 0,0 0.3326,-0.1844 0.9603,0.36951 0.62771,0.55319 0.33192,1.07092 0.0737,1.1085 -0.2575,0.03552 -1.43911,-0.14819 -1.43911,-1.73621 0,0 -0.81282,-0.11129 -1.25601,0.2213 -0.44261,0.3333 -0.44261,0.66521 -0.44261,0.66521 0,0 1.2178,0.36891 1.1071,1.21852 -0.1106,0.8483 -1.21849,0.36889 -1.256,-0.70211 0,0 -0.55331,-0.29572 -1.07031,-0.0738 0,0 0.25819,-0.517 0.99722,-0.517 0,0 -0.11063,-0.62771 0.4802,-0.92341 0,0 -0.96042,-0.07381 -1.18172,-1.40303 0,0 -0.44321,-0.44251 -0.84961,-0.1106 -0.4064,0.33189 -0.29511,0.6277 -0.29511,0.6277 0,0 0.99653,0.37021 1.10721,1.21852 0.11132,0.849 -0.66459,0.51702 -0.66459,0.51702 0,0 0.5177,-0.18372 0.22128,-0.73832 -0.29509,-0.55461 -0.8483,-0.70152 -0.4057,0.3695 0,0 -0.4064,-0.18509 -0.59081,-0.92411 -0.18509,-0.73842 -0.22128,-1.80864 1.18163,-1.69803 0,0 0.33259,-0.14819 0.4057,-0.22198 0.07449,-0.0737 0.48089,-0.51562 1.14542,-0.36882 0,0 0,-0.29511 -0.62772,-0.4433 -0.6277,-0.14821 -1.40361,-0.33261 -2.14194,-0.0737 -0.73901,0.25879 -2.0675,1.14472 0.48023,4.91156 0,0 0.92271,-0.1482 1.73553,1.88243 l 0.2582,0.222 c 0,0 0.66459,-1.03341 2.0306,-0.66461 0,0 0.18512,-1.18231 1.84624,-0.66532 0,0 0.1113,-1.25532 1.51422,-0.47941 0,0 0.14749,-0.6284 0.8497,-0.73901 0.7014,-0.1093 1.14403,0.37012 1.14403,0.37012 0,0 0.40849,-0.3558 0.81351,-0.40702 m -9.71193,5.31798 c 0,0 0,0.84901 0.5164,1.21782 0.51702,0.37019 1.14472,-0.295 -0.5164,-1.21782 m -0.4433,-0.07381 c 0,0 -0.22191,-0.18499 -0.84892,-0.14749 0,0 0.25752,-0.2964 0.77452,-0.2964 0,0 -0.03621,-1.80862 1.88373,-1.55052 0,0 -0.29502,-0.51631 -0.55393,-0.66451 -0.25819,-0.14821 -0.99719,0 -0.73901,-0.73901 0,0 0.25893,0.51701 0.70212,0.29642 0,0 -0.4057,-0.77593 -1.07091,-1.18234 0,0 0.36879,3.58245 -2.91654,5.35418 0,0 0.8859,0.36892 1.47672,-0.73831 0,0 0.1844,0.18509 0,0.6277 0,0 1.03342,0.40642 1.40291,1.51352 0,0 0.2711,-0.63989 1.03341,-0.70142 0,0 -0.95901,-0.22129 -1.1441,-1.77182 m -2.91715,2.40084 c 0,0 1.25542,-0.1113 1.92063,0.84831 0,0 0.22131,-0.18509 0.77461,-0.18509 0,0 -0.88591,0 -1.51361,-1.69792 0,0 -0.48023,-0.18442 -0.95963,0.25879 -0.48089,0.44261 -0.222,0.77591 -0.222,0.77591 m 1.40363,1.32853 c 0.47949,-0.14682 0.47949,-0.88592 -1.21922,-0.88592 0,0 0.73831,1.03341 1.21922,0.88592 m 14.59758,3.88913 c 0.14819,0.44332 0.24581,0.49242 0.44251,0.49242 0.1968,0 0.49321,-0.54231 -0.63991,-1.91994 0,0 0.0498,0.98422 0.1974,1.42752 M 17.3303,45.10266 c 1.96912,-1.2308 1.97323,-3.14255 -0.39408,-2.06811 -1.08263,0.4931 -4.03739,3.25042 -4.03739,3.25042 0,0 2.06826,0.29442 4.43147,-1.18231 m 1.32981,-5.75987 c 0.88524,-0.29581 1.28003,-0.78821 0.88524,-1.03482 -0.39342,-0.24588 -2.60913,0.59152 -3.59405,1.47743 0,0 1.82232,-0.1476 2.70881,-0.44261 m -1.1331,-4.08725 c 0.83671,-0.44261 0.54231,-0.98421 0.0984,-0.93501 -0.44261,0.0491 -1.82162,0.39341 -2.51013,1.57501 0,0 1.57572,-0.1967 2.41173,-0.64 m 0.34561,-4.18414 c 0.73772,-0.19742 1.62151,-0.94812 0.1967,-0.68921 -1.08322,0.19668 -1.37832,0.5403 -1.37832,0.5403 0,0 0.4426,0.34561 1.18162,0.14891 m 23.7057,-1.32993 c -0.332,0.2589 0.739,0.62772 1.10781,-0.10991 0,0 -0.77521,-0.14819 -1.10781,0.10991 m 1.66172,4.24704 c -0.66451,-0.14818 -0.77521,0.47952 0,0.70152 0.77533,0.2206 1.25543,0.0737 1.25543,0.0737 0,0 -0.59082,-0.627 -1.25543,-0.77522 m -0.1475,4.57839 c -0.59152,-0.29513 -1.0341,-0.22202 -0.5539,0.48008 0.48011,0.70152 1.58801,0.62772 2.06753,0.51712 0,0 -0.92352,-0.7015 -1.51363,-0.9972 m 0.33199,5.24415 c -1.69801,-1.07161 -1.73561,0.07311 -0.9597,0.92282 0.77521,0.84902 2.69523,1.91991 3.69244,1.73552 0,0 -1.0341,-1.58873 -2.73274,-2.65834 m 4.72649,-9.88403 c -0.44263,-0.24649 -1.37835,-0.04911 -0.63933,0.54101 0.73831,0.59079 2.26423,0.4426 2.26423,0.4426 0,0 -1.18161,-0.7377 -1.6249,-0.98361 m 1.13308,5.21837 c -1.13308,-0.541 -0.9849,0.39411 -0.24647,0.93641 0.73829,0.5416 1.7232,0.88521 2.46153,0.83672 0,0 -1.08322,-1.23082 -2.21506,-1.77313 m 1.57575,5.80908 c -1.08393,-0.63931 -1.33052,0.2964 -0.09902,1.13382 1.23082,0.836 2.65836,1.4268 2.65836,1.4268 0,0 -1.47673,-1.9192 -2.55934,-2.56062 m 6.20257,9.74883 c 0.4924,-0.39352 0.5423,-1.57513 -0.7377,-3.34754 C 55.0441,49.58403 53.51747,47.86 53.51747,47.86 c -1.23071,-0.34491 -4.52974,-2.16652 -3.88904,-3.10223 0.6399,-0.93572 1.72251,-0.2459 3.19992,0.93571 1.47731,1.1816 1.96914,1.52721 1.96914,1.52721 0.68991,-0.04979 0.44329,-1.1324 -0.4426,-2.65962 -0.88652,-1.52523 -2.41243,-3.29834 -2.41243,-3.29834 0,0 -1.23082,0.29579 -2.60985,-0.54163 -1.37829,-0.836 -1.62422,-2.46092 0,-2.21501 1.62492,0.24589 3.34825,2.16513 3.34825,2.16513 0.88651,-0.54091 0.78751,-1.52583 0.04909,-2.60913 -0.7383,-1.08263 -2.60913,-2.75734 -2.60913,-2.75734 -0.78821,0.34489 -1.7731,0.099 -2.60913,-0.39412 -0.8374,-0.4911 -1.03409,-1.42752 0.39341,-1.42752 1.42751,0 2.95475,1.08394 2.95475,1.08394 1.18101,-2.16655 -1.77312,-3.44716 -1.77312,-3.44716 0,0 -0.56622,0.17281 -1.15703,0.17281 -0.5908,0 -0.76361,-0.37021 -0.76361,-0.37021 0.68981,0.34561 1.42822,0.14891 1.42822,0.14891 0,0 0.1482,-0.39412 -1.27932,-0.78821 -1.42823,-0.39342 -1.15772,0.78821 -1.15772,0.78821 1.40363,2.40011 -0.4057,3.58104 -0.4057,3.58104 0.84833,0.44331 2.02993,2.06822 2.10433,3.17674 0.0738,1.10791 -0.77521,0.73772 -0.77521,0.73772 0.14691,1.1078 -0.8858,1.32978 -0.8858,1.32978 1.14401,0.55394 2.54762,2.65836 2.87954,4.80028 0.33269,2.14133 -1.32983,2.47394 -1.32983,2.47394 0,0 3.13855,3.36044 5.57617,5.76057 2.20073,2.16793 3.22734,2.01491 3.40555,1.96642 -0.81482,0.30871 -2.11324,-0.23151 -2.11324,-0.23151 0.29572,0.66592 2.36324,1.84754 3.21295,2.77036 0.849,0.92201 0.4426,1.40291 0.11001,1.36671 -0.33132,-0.0376 -0.3689,-0.55601 -0.3689,-0.55601 -1.14403,-0.737 -4.43077,-2.95273 -5.7237,-4.76207 -1.29161,-1.80933 -5.02156,-6.27698 -5.02156,-6.27698 -2.32641,-0.44391 -4.76344,-1.95752 -5.05915,-3.32423 -0.29511,-1.36533 0.44331,-1.36533 2.21574,0 1.7731,1.36671 3.21292,2.91722 3.21292,2.91722 1.66171,-0.3695 1.47662,-2.02993 0.55321,-3.73003 -0.92272,-1.69733 -2.54764,-2.91585 -2.54764,-2.91585 0,0 -0.77521,0 -2.17821,-0.407 -1.40364,-0.40571 -1.73553,-1.69873 -0.40641,-1.69873 1.3292,0 3.28674,1.55113 3.28674,1.55113 0.59082,-0.18441 1.21852,-0.81211 0.77521,-2.10504 -0.44321,-1.29231 -1.81003,-2.47393 -1.81003,-2.47393 -2.58452,0.55392 -3.02715,-1.10781 -2.03063,-1.32981 0.99791,-0.22061 2.47463,0.81351 2.47463,0.81351 0.62771,-0.07451 1.25543,-0.96042 0.40571,-2.40083 -0.84971,-1.43982 -2.47393,-2.28954 -2.47393,-2.28954 -0.73902,0.66463 -1.84612,0.88722 -1.99372,-0.07379 -0.14821,-0.95892 2.43633,-0.59082 2.43633,-0.59082 0.4071,-0.59149 0.25889,-1.40221 -1.10712,-2.21501 -1.36612,-0.8121 -3.13855,-0.33261 -3.06473,0.1107 0.0737,0.4426 1.2554,0.03688 1.2554,0.03688 -1.51431,0.88584 -2.21571,0.03681 -1.36671,-0.70151 0.84961,-0.73901 1.77313,-0.66531 1.77313,-0.66531 0,-1.9192 -2.10513,-2.87953 -3.24984,-1.66101 -1.14483,1.21843 -0.6646,4.68957 -0.6646,4.68957 0,0 2.43702,1.62423 3.47113,3.58173 1.03342,1.95764 0,3.80245 -0.55391,4.98477 -0.554,1.18091 -1.84622,3.61936 -0.84972,5.68617 0.99722,2.06814 3.58245,6.94289 8.38271,10.48774 4.80028,3.54425 7.93881,5.13226 7.93881,5.13226 C 47.302,55.3685 41.87402,48.83202 39.6214,44.91824 37.36885,41.00452 37.92278,38.49237 38.95688,36.94266 39.9909,35.39145 40.9506,33.2864 39.73279,31.5884 c -1.21921,-1.69863 -2.54842,-2.17884 -2.54842,-2.17884 0.4057,2.54834 1.03342,7.6061 -0.4432,10.59775 -1.47672,2.99032 -2.95414,4.28323 -4.87407,4.98476 -1.92073,0.70141 -3.13924,-0.07383 -3.13924,-0.07383 -4.28316,0.84972 -4.46756,-2.39941 -4.46756,-2.39941 1.36601,0.3688 2.42473,0.32031 2.67053,0.1721 0.2466,-0.14819 -0.0983,-0.34559 -0.0983,-0.34559 -1.32922,-0.1967 -1.82162,-1.03342 -1.82162,-1.03342 h 1.67412 c 2.01893,-0.29582 3.24974,-3.05315 2.70744,-5.16916 -0.54092,-2.11804 -2.06753,-4.03796 -4.62677,-4.62878 -2.56062,-0.59149 -3.15144,0.39412 -3.20064,1.32983 -0.04921,0.9357 0.64002,1.2793 1.67344,1.77243 1.0334,0.49181 1.5272,1.2301 1.6249,2.65764 0.0983,1.42751 -1.3292,4.72725 -3.74163,8.17371 -2.41314,3.44653 -9.45304,8.61571 -11.61956,9.7973 -2.16653,1.18162 -3.39665,1.52653 -3.39665,1.52653 0,0 3.98746,-1.52653 10.48644,-7.18879 6.49827,-5.66086 7.5822,-10.58486 7.5822,-11.81556 0,-1.23082 -1.18163,-1.77253 -1.18163,-1.77253 -2.85573,-1.47731 -2.06751,-3.10222 -1.8708,-3.49564 0.1967,-0.3941 0.24589,-0.5908 0.24589,-0.5908 -0.49251,0.0498 -1.52591,0.6393 -1.52591,0.6393 0.1476,-2.95273 2.31342,-3.24854 2.31342,-3.24854 -4.03736,-1.23143 -3.74153,-3.84123 -3.74153,-3.84123 -1.47742,-0.24593 -1.62494,-1.72194 -1.62494,-1.72194 -2.36332,1.08261 -0.8374,3.31065 -0.8374,3.31065 1.1085,0 3.21293,0.61601 2.95474,1.31612 -0.25823,0.70291 -1.10781,0.2343 -1.10781,0.2343 0.739,0 0.739,-0.51702 0.07439,-0.66462 C 17.2074,27.78535 16.691,27.82085 16.691,27.82085 c 0.11,0.33329 0.73771,0.7028 0.73771,0.7028 -0.66389,-0.1844 -1.07101,-0.66589 -1.07101,-0.66589 -0.2213,-0.07241 -2.36324,0.29638 -2.17813,1.36671 0.1851,1.07031 1.14471,1.7731 1.14471,1.7731 0.81212,-0.59149 2.17883,-1.07161 3.28606,-1.0341 1.1085,0.0369 0.6652,1.10793 -0.47953,1.36543 -1.14471,0.2595 -1.88383,-0.11 -1.88383,-0.11 -2.91713,1.43909 -2.80582,3.39734 -2.80582,3.39734 l -0.25821,0.18439 C 12.66594,32.1423 15.13988,31.1458 15.13988,31.1458 14.47527,30.66498 13.81067,29.44647 13.81067,29.44647 10.3027,29.07625 7.64368,33.2864 7.79118,34.28433 c 0.14821,0.99651 0.99721,0.88512 0.99721,0.88512 3.21295,-2.62205 4.06197,-1.44042 4.06197,-1.10712 0,0.3319 -0.295,0.47949 -0.295,0.47949 -0.03761,-0.2944 0,-0.66391 -0.66533,-0.40509 -0.66531,0.2575 -1.51361,1.03272 -1.51361,1.03272 1.25542,0.222 1.69871,-0.36882 1.69871,-0.36882 h 0.36882 c -0.81211,0.99721 -2.51072,0.84901 -2.51072,0.84901 -2.62215,2.28954 -3.43425,4.24704 -3.36055,4.80098 0.07379,0.5539 0.7384,0.2206 0.7384,0.2206 0,0 1.44051,-0.92272 2.51073,-1.47603 1.07173,-0.55459 2.95415,-0.85031 3.13855,-0.1844 0.18509,0.66391 -0.405,0.70082 -0.405,0.70082 0,0 0.295,-0.22201 0,-0.40571 -0.29653,-0.18511 -0.84972,-0.0376 -0.84972,-0.0376 -2.62143,1.0341 -3.61865,2.21572 -3.61865,2.21572 2.99094,-0.22129 4.13565,-1.29162 4.13565,-1.29162 l 0.33272,-0.0369 C 10.81973,41.88972 7.27487,41.88972 7.27487,41.88972 2.69592,45.06577 1.3291,47.9461 1.92,48.75891 c 0.59083,0.81142 1.44041,0.47949 1.44041,0.47949 3.28606,-4.61523 5.98198,-4.72653 6.4252,-4.50453 0.4426,0.2206 0,0.7014 0,0.7014 C 9.97002,44.91824 9.231,45.10266 9.231,45.10266 c -2.76892,1.14472 -4.02435,3.54555 -4.02435,3.54555 0.84901,0.07381 1.88313,-0.66519 2.25333,-0.77591 0.3681,-0.1113 0.6632,-0.1851 0.6632,-0.1851 -0.4057,0.44401 -4.31945,1.99383 -4.31945,1.99383 -1.10781,1.33051 -2.69593,4.17327 -2.32631,4.65335 0.36878,0.47951 1.6242,0.07381 2.62143,-0.55391 0.99719,-0.6277 4.09874,-3.32294 4.09874,-3.32294 1.95694,-1.99443 3.24984,-4.06184 3.24984,-4.06184 -0.5915,-0.14831 -1.21922,-1.29303 -0.5915,-2.88034 0.62841,-1.58803 2.84343,-3.10234 3.17604,-3.28745 0.3327,-0.183 0.2213,-0.5532 0.2213,-0.5532 -0.70142,-0.14821 -1.10782,-0.84902 -1.07032,-1.73552 0.0369,-0.88591 0.33202,-1.95754 2.28884,-3.13855 1.95692,-1.18091 3.10164,-0.7014 3.10164,-0.7014 0.2957,0.44259 -0.11071,1.07022 -1.29162,1.69861 -1.18162,0.6277 -2.51214,0.2944 -2.51214,0.2944 -1.03272,0.85042 -1.14412,2.10573 -0.959,2.88165 0.18379,0.77461 1.07031,0.62701 1.07031,0.62701 1.51432,-1.29153 5.72377,-2.40012 5.20667,-0.9603 -0.51702,1.4412 -4.68956,1.5873 -4.68956,1.5873 -0.554,0.1483 -3.50806,2.80665 -3.95066,4.21087 -0.444,1.40289 0.36881,1.73561 0.36881,1.73561 3.21295,-3.06613 5.13296,-3.84066 6.27768,-3.84066 1.1441,0 2.21504,1.32982 -0.88652,3.10155 -3.10233,1.77312 -4.87404,1.43981 -4.87404,1.43981 -0.70152,0.81212 -2.40013,3.91375 -5.05849,6.61029 -2.65903,2.69523 -6.20387,4.13575 -6.46277,4.35707 -0.2582,0.222 0.1482,0.405 0.1482,0.405 L 0.88658,58.65453 C 0.40639,58.46945 0,57.87933 0,57.87933 4.39453,55.81181 7.31108,51.52786 7.31108,51.52786 6.64647,52.19316 4.17323,54.48259 2.58453,54.8515 0.9972,55.221 0.7015,54.48259 1.2923,52.74706 1.8831,51.01154 3.13843,49.53482 3.13843,49.53482 0.6284,49.90364 0.5908,47.5035 2.21501,45.43527 3.84064,43.36783 6.42517,40.93082 6.42517,40.93082 5.79745,40.41301 6.05566,39.04698 6.79466,37.86607 7.5331,36.68446 8.34518,35.57585 8.34518,35.57585 c 0,0 -1.51362,-0.59082 -0.92278,-2.47315 0.5908,-1.8838 2.10441,-3.25053 2.10441,-3.25053 0,0 -0.85312,-0.1271 -0.6277,-1.62422 0.209,-1.39061 1.98141,-2.37623 1.98141,-2.37623 0,0 -1.0211,-0.98421 0.19741,-2.23963 1.2185,-1.25542 2.80584,-1.29231 2.80584,-1.29231 -1.73553,-0.70212 -2.36323,-3.02855 -2.25193,-4.28386 0.1107,-1.2547 0.48019,-3.13783 -0.03751,-4.06195 -0.5164,-0.92282 -0.66389,-1.43912 -0.66389,-1.43912 2.17811,-0.48021 3.28593,2.17812 3.28593,2.17812 0.1483,-1.10791 0.5171,-1.69872 0.332,-1.69872 -0.1837,0 -0.4057,0.18511 -0.4057,0.18511 -0.51712,-1.25602 -3.06474,-2.11734 -3.06474,-2.11734 -0.541,-0.19669 -0.78823,-0.9357 -0.78823,-0.9357 l -1.18159,0.5908 c 0,0 0.73829,1.03412 1.47731,2.95403 0.7384,1.92003 0.34502,3.79147 -0.63989,4.03666 C 8.9606,17.97441 8.07469,16.9403 7.92648,15.02039 7.77887,13.10036 8.7638,10.98303 8.7638,10.98303 c -0.88723,1.1324 -2.80654,4.18555 -2.80654,4.18555 2.16592,2.16583 3.15085,4.77566 3.05244,6.10478 -0.0799,1.08061 -1.08322,1.47744 -1.96913,1.28072 -0.8865,-0.19741 -1.96981,-1.52722 -1.96981,-2.85645 0,-1.3284 1.47741,-1.4275 1.82232,-0.29498 0.34419,1.1324 0,2.06741 0,2.06741 0.04979,-1.13312 -0.49252,-2.60972 -0.83742,-2.51004 -0.3442,0.09761 -0.3442,0.44263 -0.24591,1.08252 0.09841,0.6393 0.98491,2.26361 1.96912,2.01843 C 8.7638,21.81508 8.5671,20.53505 8.17299,19.30353 7.77887,18.07271 5.75996,15.51279 5.75996,15.51279 0.935,17.72781 1.8708,21.02686 2.36322,21.32326 c 0.49249,0.2944 0.83672,-0.2473 0.83672,-0.2473 -0.34423,-1.23012 0.68919,-2.50934 1.3298,-2.41243 0.63463,0.09839 0.24591,0.64 0.24591,0.64 -0.44263,-0.64 -1.47733,0.68991 -1.13242,0.98492 0.34491,0.29579 1.08332,-0.68912 1.08332,-0.68912 -0.09841,0.64002 -1.23082,1.72393 -1.23082,1.72393 -0.54172,2.85502 -0.29579,6.05497 1.27992,5.56317 1.57571,-0.4931 2.01901,-4.13563 2.01901,-4.13563 0.1469,4.18484 -2.60982,5.95727 -3.84065,4.18484 C 1.72261,25.16322 2.85571,21.96257 2.85571,21.96257 1.2308,22.55408 0.34418,20.87866 1.28,18.36923 2.21571,15.8577 5.41565,14.82356 5.41565,14.82356 6.49898,12.21373 8.2222,10.98303 8.2222,10.98303 L 8.2714,10.73712 C 3.98814,12.70694 1.0341,10.44202 0.64,9.1129 0.24658,7.78368 1.28,7.88068 1.28,7.88068 c 0,0 -1.32988,-1.62282 -0.39342,-2.26352 1.25464,-0.85921 3.05237,0.4925 3.05237,0.4925 0.49249,-0.59089 1.72261,-0.04991 1.72261,-0.04991 0,0 -2.80585,-2.90492 -1.32854,-4.03733 C 5.92316,0.8032 8.17299,2.85982 8.17299,2.85982 7.82808,0.7916 8.5173,0.4966 9.8464,0.6441 c 1.32992,0.1475 2.80655,1.52721 2.80655,1.52721 0,0 -0.39412,-1.96982 0.59081,-2.11803 1.61333,-0.24108 2.90492,1.47733 2.90492,1.47733 0.14412,-1.96019 2.09624,-1.5531 3.24645,-0.22191 l 5.29267,2.05103 c 0.0717,-0.0109 0.1462,-0.0143 0.2247,-0.00751 0.46651,0.03831 0.71583,0.20772 0.84702,0.42351 l 1.1727,0.45352 c 0.02661,-0.10932 0.04991,-0.21991 0.0697,-0.3306 L 21.75555,0.30458 21.96455,0 27.06273,3.49294 c 0.07301,-0.61062 0.06549,-1.12493 0.06549,-1.12493 2.65834,1.67273 0.64003,3.83925 0.64003,3.83925 2.01831,-0.295 1.77241,-3.05243 1.77241,-3.05243 0.6147,0.192 0.95902,0.5799 1.13112,1.03001 l 10.86003,-0.4105 0.02192,-0.0771 C 41.15341,3.26624 39.6337,1.2349 39.6337,1.2349 c 2.21502,1.42751 7.3849,2.70814 7.3849,2.70814 -4.33247,0.8367 -7.13899,2.11671 -7.13899,2.11671 0.08199,-0.57029 1.1065,-1.5778 1.45761,-1.90901 L 30.77219,4.55025 c 0.03419,0.1844 0.04509,0.373 0.041,0.5581 L 44.13756,9.5336 C 44.05975,9.31851 43.80835,8.6402 43.52284,8.02888 c -0.34419,-0.7376 -0.29509,-1.4275 -0.29509,-1.4275 0.64,1.13249 6.45047,4.82556 6.45047,4.82556 -3.59474,-0.34492 -8.17369,-0.39412 -8.17369,-0.39412 0.9917,-0.62021 1.78742,-1.02519 2.24233,-1.23972 L 30.77968,5.48605 c -0.0416,0.29302 -0.11879,0.5614 -0.2056,0.77181 l 0.1155,-0.14548 7.8636,6.30156 -0.29781,-2.80933 3.79076,5.76137 -6.39989,-2.80594 2.35164,-0.1174 -7.50299,-6.01336 c -0.40711,0.7944 -1.38924,1.65631 -2.62824,1.74782 -1.32924,0.0977 -1.72332,0.44259 -1.72332,0.44259 0,0 1.77243,0.6899 3.83993,1.42891 2.06824,0.73762 3.84067,1.91865 3.89055,3.93896 0.04852,2.01833 -1.67481,2.26352 -1.67481,2.26352 2.51153,0.73912 2.80652,3.66857 2.80652,3.66857 1.10794,0.8128 1.10794,2.51083 1.10794,2.51083 0.96032,-0.95901 2.14191,-1.29233 2.14191,-1.29233 0,-0.739 0.44261,-1.14471 0.70151,-1.2561 0.25751,-0.11063 0.70143,0.2227 0.70143,0.2227 0,0 -0.59082,0 -0.77522,0.405 -0.18511,0.4064 -0.07379,0.70291 0.73831,0.4064 0.8121,-0.29501 1.47671,-1.07031 1.47671,-1.07031 -0.8121,1.88313 -2.14123,1.58801 -2.14123,1.58801 -0.07379,0.99663 -0.9604,1.40302 -0.9604,1.40302 0.62771,-0.59151 0.59082,-1.25611 0.59082,-1.25611 -3.87677,1.84693 -3.36046,5.39177 -3.36046,5.39177 0.84971,1.32982 0.5915,2.84273 -0.1106,2.47394 -0.70151,-0.37022 -0.07381,-2.36325 -0.51712,-3.80377 -0.4426,-1.4391 -1.88301,-2.69522 -1.88301,-2.69522 -0.07379,0.48021 0.14751,3.95126 0.14751,3.95126 0,0 0.6277,0.8497 1.0341,1.66042 0.4064,0.81351 0.2213,1.51501 -0.5901,1.33061 -0.81282,-0.1851 -0.51781,-1.95763 -1.10862,-3.06543 -0.5901,-1.10794 -2.17814,-2.32643 -2.17814,-2.32643 -0.18509,0.70221 0.11062,2.69592 0.11062,2.69592 2.17822,1.21923 2.32642,3.10095 1.80932,3.28606 -0.51702,0.18509 -0.81272,-0.44191 -0.81272,-0.44191 0.2957,0.10991 0.92342,0 0.48082,-0.96173 -0.44401,-0.95961 -1.14541,-1.18089 -1.14541,-1.18089 0,0.3701 0.222,1.18089 0.4064,1.5142 0.18439,0.33191 -0.07381,0.25891 -0.07381,0.25891 -0.55389,-0.2958 -0.4801,-1.29233 -0.96031,-1.99382 -0.47951,-0.70212 -3.21225,-1.40422 -3.21225,-1.40422 l 0.44331,1.58733 c 0,0 2.03063,0.7014 2.99094,1.7738 0.47131,0.5238 0.4801,1.10782 0.22131,1.18163 -0.25822,0.07309 -0.33271,-0.14821 -0.33271,-0.14821 0.03689,-1.10791 -1.40291,-1.62493 -1.62423,-1.55113 -0.22131,0.07371 0.40572,0.84962 0.40572,0.84962 -1.14403,-0.81282 -0.77521,-1.03412 -0.77521,-1.03412 -3.95056,-2.06811 -4.72647,-1.18091 -4.72647,-1.18091 l 1.3298,1.40221 c 3.43357,0.66461 5.16909,1.88383 4.98468,2.47464 -0.1844,0.59081 -1.07022,0 -1.07022,0 0,0 0.4057,0.03621 0.55321,-0.03689 0.14752,-0.07442 -0.07381,-0.3695 -0.07381,-0.3695 -1.5511,-0.92412 -2.1788,-0.92412 -2.1788,-0.92412 -0.11062,0.5553 0.92342,1.1823 0.92342,1.1823 -1.73554,-0.8121 -1.36605,-1.4391 -1.36605,-1.4391 0,0 -1.69931,-0.48091 -3.69233,0.03619 -1.99513,0.517 -2.06894,1.73553 -2.06894,1.73553 0.44331,-0.40643 2.54904,-1.29234 5.31738,-0.29572 2.76962,0.99722 4.54274,2.99165 4.83775,5.50168 0.29511,2.51083 -1.99441,4.09956 -2.54834,4.54286 -0.55389,0.44261 -0.84899,0.51631 -0.84899,0.51631 0.25889,0.1113 0.59082,0.25889 1.36673,-0.22202 0.77529,-0.47879 1.29159,-0.59008 1.29159,-0.59008 0.14822,0.40638 0.07451,0.7752 -0.33188,0.88591 -0.40571,0.11129 -1.32924,0.37019 -1.51434,0.5908 -0.18439,0.22202 -0.33189,0.40572 -0.95961,0.517 -0.62772,0.11139 -2.14193,0.14819 -2.14193,0.14819 0.517,0.84902 1.62492,1.18103 2.69585,1.21854 1.07032,0.03689 0.73909,-0.29642 1.1816,-0.81212 0.44331,-0.51701 1.40303,-0.40642 1.40303,-0.40642 -0.25821,0.07382 -0.25821,0.29512 -0.25821,0.29512 l 0.14821,0.14749 -0.11131,0.11071 c -0.11141,0.11129 -0.18511,-0.29441 -0.3696,-0.2582 -0.18441,0.0362 -0.66452,0.40641 -0.66452,0.40641 0.14752,0.33261 0.51701,0.07308 0.51701,0.07308 0.332,-0.07308 0.222,0.07441 0.222,0.07441 -0.59149,0.29582 -0.59149,0.48022 -0.59149,0.48022 0.36949,0.29509 1.25542,0.2582 1.25542,0.2582 2.25262,-0.29511 3.76684,-1.73563 5.42865,-4.24704 1.66111,-2.51015 1.43981,-6.20321 1.25543,-8.27143 -0.18511,-2.06752 -0.25891,-4.94717 -0.18511,-6.68268 0.0737,-1.73553 0.77591,-3.36044 3.02844,-2.84344 0.3272,0.07509 0.58681,0.18849 0.79641,0.32649 1.31352,-0.43579 2.24315,-1.4091 2.24315,-1.4091 -1.47673,-0.29572 -3.03956,1.08261 -3.03956,1.08261 L 39.78131,22.7508 c 1.72322,-2.11736 4.13564,-1.82094 4.13564,-1.82094 0.24659,-0.64072 0.24659,-1.03412 -1.03412,-1.37903 -1.27931,-0.3449 -2.90485,0.44261 -2.90485,0.44261 -0.09837,-0.2459 -0.541,-0.39411 -0.541,-0.39411 1.77243,-1.37832 3.29836,-1.52662 4.23407,-0.5908 0.93512,0.93571 0.39342,2.11801 0.39342,2.11801 2.56003,0.49112 1.77249,2.16655 1.77249,2.16655 0,0 2.16655,0.097 2.90555,1.08191 0.95831,1.27931 -0.39479,2.46234 -0.39479,2.46234 0,0 0.73901,0.34419 1.8715,1.57572 1.13172,1.23013 -0.0984,2.31272 -0.0984,2.31272 2.46164,2.75733 0.93512,4.13634 0.93512,4.13634 0.739,0.39342 2.11734,2.60913 2.55994,4.03737 0.44331,1.42821 -0.59081,2.11661 -0.59081,2.11661 0,0 1.18161,1.13254 2.41313,3.79214 0.87012,1.87834 -0.24661,3.24848 -0.24661,3.24848 0.83741,0.78819 2.41313,3.89053 2.65904,5.26815 0.2459,1.37843 -0.78821,1.37843 -0.78821,1.37843"
                 style="fill:#000000;fill-opacity:1;fill-rule:nonzero;stroke:#000000;stroke-width:0.3985;stroke-linecap:butt;stroke-linejoin:miter;stroke-miterlimit:10;stroke-dasharray:none;stroke-opacity:1"
                 id="path34" /></g></g></g></g></g></g></svg>
