<?xml version="1.0" encoding="UTF-8" standalone="no"?>
<svg
   xmlns:dc="http://purl.org/dc/elements/1.1/"
   xmlns:cc="http://creativecommons.org/ns#"
   xmlns:rdf="http://www.w3.org/1999/02/22-rdf-syntax-ns#"
   xmlns:svg="http://www.w3.org/2000/svg"
   xmlns="http://www.w3.org/2000/svg"
   xmlns:sodipodi="http://sodipodi.sourceforge.net/DTD/sodipodi-0.dtd"
   xmlns:inkscape="http://www.inkscape.org/namespaces/inkscape"
   version="1.1"
   id="svg2"
   xml:space="preserve"
   width="137.40318"
   height="69.26265"
   viewBox="0 0 137.40318 69.26265"
   sodipodi:docname="vectorian016.pdf"><metadata
     id="metadata8"><rdf:RDF><cc:Work
         rdf:about=""><dc:format>image/svg+xml</dc:format><dc:type
           rdf:resource="http://purl.org/dc/dcmitype/StillImage" /></cc:Work></rdf:RDF></metadata><defs
     id="defs6" /><sodipodi:namedview
     pagecolor="#ffffff"
     bordercolor="#666666"
     borderopacity="1"
     objecttolerance="10"
     gridtolerance="10"
     guidetolerance="10"
     inkscape:pageopacity="0"
     inkscape:pageshadow="2"
     inkscape:window-width="640"
     inkscape:window-height="480"
     id="namedview4" /><g
     id="g10"
     inkscape:groupmode="layer"
     inkscape:label="vectorian016"
     transform="matrix(1.3333333,0,0,-1.3333333,0.26578666,69.479872)"><g
       id="g12"
       transform="translate(72,-19.878)"><g
         id="g14"
         transform="translate(-72,20.243)"><g
           id="g16"><g
             id="g18"><path
               d="m 98.63957,15.4912 c -0.21922,6.23048 -4.75366,11.08973 -10.70577,11.08813 0,0.02239 -4.15842,0.4288 -7.50727,-2.66563 -3.34885,-3.09604 -5.17449,-4.05925 -7.00169,-3.60166 -1.82564,0.45442 -4.10888,4.00647 1.7248,6.44168 -4.10884,-0.10078 -7.65928,-2.94402 -5.78245,-6.39206 1.85441,-3.40806 6.94888,-2.23205 9.7393,1.2672 0.09921,0.1264 0.20001,0.24641 0.29602,0.36641 -1.34402,-2.24643 -1.91522,-4.93286 -1.34402,-7.35368 0.62242,-2.63364 2.19684,-4.62409 4.43527,-5.6129 2.12161,-0.93441 4.45604,-0.81279 6.40646,0.27201 2.84166,1.58884 3.86727,5.01767 3.20006,7.4593 -0.44,1.6272 -1.48482,2.76484 -2.84804,3.20004 -0.26721,0.1024 -0.61122,0.20001 -1.06561,0.25122 -2.68645,0 -4.60487,-2.43204 -3.65124,-4.72006 0.76159,-1.82723 4.10882,-1.57283 4.51364,0.45758 0.3632,1.81443 -1.01601,1.90724 -0.7584,2.63685 0.23681,0.6752 1.1184,0.29759 1.49602,0.1008 0.776,-0.64801 1.1648,-1.60483 1.2928,-2.07843 0.54561,-1.99684 -0.27679,-4.97928 -2.57922,-6.26568 -1.62244,-0.90722 -3.73604,-0.98241 -5.51528,-0.19842 -1.88002,0.82882 -3.20805,2.52485 -3.74084,4.77769 -0.58881,2.48643 0.02719,5.13606 1.68962,7.27688 1.664,2.14084 4.08965,3.39365 6.65608,3.44003 5.37288,0.09443 9.73455,-4.23845 9.93132,-9.86412 C 97.64595,12.31836 96.55792,9.02551 94.3115,6.63187 91.91946,4.08145 88.54984,2.72461 84.29857,2.60463 73.86165,2.307 67.54636,10.68633 61.54948,23.66249 58.43744,30.39537 55.903,34.28192 54.2582,36.41794 c 6.03207,-2.89772 14.70417,-4.62575 22.95867,2.35203 0,0 1.60164,2.01925 1.60324,2.01925 -2.00804,-2.53122 -6.97129,-3.17444 -9.90734,-3.10245 -6.13767,0.1488 -10.70734,3.67364 -15.7842,6.60328 -5.26567,3.03844 -10.90095,5.46567 -16.893,6.6177 -3.70727,0.7136 -7.51531,0.8496 -11.25777,0.30079 C 12.98085,49.44212 3.04793,40.4228 0.6079,29.95056 0.09589,28.09135 -9e-5,26.69453 -9e-5,25.99213 c 0,-0.2912 0.01437,-0.46561 0.02078,-0.51203 l 1.21281,0.0352 c 0.0448,1.27364 0.2208,2.52645 0.4864,3.76006 0.86082,3.34084 3.22245,8.56981 9.65133,14.06268 5.26886,4.18726 15.20979,7.18248 22.6931,4.91848 4.94086,-1.49125 8.3969,-5.63369 9.88812,-10.45934 1.45124,0.01599 3.34725,1.63842 3.34725,3.12964 0.43042,-0.37282 1.01921,-0.84802 1.73283,-1.36963 1.2224,-1.24321 2.84323,-3.02083 4.58884,-5.29926 0.0144,-0.09761 4.81607,-7.76181 0.71042,-19.68516 C 51.66454,8.29749 45.15567,1.58382 34.92674,1.691 28.96826,1.75502 22.72337,4.54063 19.02412,8.7887 c -3.11363,3.57446 -4.42404,8.07371 -3.79365,13.01777 0.53122,4.51525 2.96326,8.55532 6.50569,10.81295 1.39684,0.89118 3.16964,1.8641 5.49127,2.11691 1.54723,-0.3664 6.24489,-1.82572 6.5793,-5.90097 0.13759,-1.69283 -0.08801,-3.22086 -1.01762,-4.26247 -0.85281,-0.9568 -2.16164,-1.6304 -3.55045,-1.6752 -1.0144,-0.03201 -2.32644,0.39999 -2.85284,1.256 -0.0432,0.16001 -0.1424,0.77921 0.87202,0.82562 1.16802,0.04961 2.63845,0.86241 2.03203,2.79042 -0.60962,1.92645 -3.80647,2.12964 -4.66887,0 -0.75999,-1.87842 -0.0576,-3.79364 1.57604,-4.98726 0.19838,-0.16 0.43679,-0.3056 0.70559,-0.44 0,0 0,0 0.0032,0 0.57759,-0.28961 1.31201,-0.48801 2.24963,-0.45921 1.35681,0.04162 2.59522,0.48641 3.58884,1.25923 0.1392,-0.25279 0.37919,-0.57921 0.7104,-0.94243 -2.62883,-4.97286 -8.6801,-3.80005 -8.6801,-3.80005 0,0 -1.21922,-1.48799 -1.89444,-3.98885 6.8353,-2.03842 10.52974,5.37448 11.28496,7.08809 0.38719,-0.35199 0.83679,-0.70401 1.33762,-1.03361 -0.46563,-6.89928 -5.31687,-8.35529 -5.31687,-8.35529 0,0 -0.20161,-2.70564 0.7424,-5.88489 7.09929,1.44483 5.96167,11.43695 5.62088,13.63536 0.57761,-0.28797 1.19519,-0.52639 1.84324,-0.67518 1.1264,-2.47524 0.77279,-6.33611 0.51997,-10.39214 1.75845,-2.84004 4.19366,-3.64964 4.19366,-3.64964 0,0 1.41762,1.62241 1.35202,6.15367 -3.33763,3.71045 -4.35685,7.20009 -4.63685,8.47691 0.5536,0.47362 1.01602,1.01442 1.40962,1.59842 3.95845,-9.89293 10.46573,-7.7745 10.46573,-7.7745 0,0 -0.60961,2.09604 -2.09763,4.39685 -5.12007,0.36482 -7.16488,3.06085 -7.8369,4.27687 0.35361,0.69121 0.62241,1.42562 0.81121,2.19522 1.03521,-1.19362 4.33287,-3.82245 7.63369,-3.36005 3.38245,0.472 3.99047,3.78725 3.99047,3.78725 0,0 -2.29764,1.35362 -3.38085,1.68964 -3.44325,-4.16806 -7.26089,-1.70084 -8.03851,-1.12642 0.09601,0.63679 0.14081,1.28642 0.1456,1.93762 0.448,-0.16 0.90082,-0.2816 1.36642,-0.33281 2.26242,-0.25281 3.95845,0.17761 5.03368,1.27522 2.28801,2.32483 0.92479,7.09299 -2.63363,6.9058 -0.53762,-0.02881 -1.09122,-0.16483 -1.57444,-0.46723 -0.2032,-0.08638 -0.43519,-0.26399 -0.69121,-0.5824 -0.58081,-0.71532 -0.77281,-1.61772 -0.6752,-2.32812 0,-0.008 -0.0032,-0.0144 -0.0032,-0.024 0.112,-0.6848 0.4864,-1.18082 1.04962,-1.13121 0.70561,0.06239 0.6752,0.6784 0.47362,1.82722 -0.09122,0.52318 0.09918,0.92799 0.33117,1.21932 0.29282,0.3184 0.67522,0.5072 1.14564,0.52 3.32643,0.0864 3.51524,-3.83376 1.76962,-5.32338 -2.77285,-2.36961 -7.2817,0.32161 -9.60173,2.15683 -1.69924,1.34401 -3.94886,3.25295 -6.02409,4.06575 -4.66564,1.82562 -8.2385,0.74402 -11.80816,-1.52973 -0.3712,-0.2368 -0.72639,-0.49598 -1.07359,-0.76481 1.71042,2.22255 2.48483,4.54417 2.15683,6.56979 -0.2352,1.45604 -1.03201,2.69124 -2.24483,3.47205 -1.23682,0.79681 -2.57445,0.98242 -3.66887,0.50561 -0.06718,-0.0256 -0.11839,-0.0688 -0.18078,-0.10079 -1.12163,-0.43682 -2.33765,-1.65123 -2.25603,-3.18085 0.104,-1.92641 2.63843,-2.13123 3.35045,-1.11681 0.72799,1.04321 -0.10402,1.92801 -0.35682,2.53763 -0.2704,0.78401 0.0848,1.13281 0.4192,1.29123 0.70562,0.08319 1.49282,-0.12802 2.25444,-0.61762 1.016,-0.65762 1.68641,-1.69281 1.88322,-2.92324 0.3008,-1.87041 -0.47522,-4.06887 -2.18083,-6.18899 -1.39522,-1.72482 -2.33283,-3.40164 -2.82883,-4.37444 -0.25922,-0.42881 -0.50081,-0.87362 -0.7216,-1.32642 0.52318,2.61282 1.01759,6.87859 -1.00643,8.05141 -1.2192,-0.40642 -2.63844,-2.43534 -2.63844,-2.43534 0,0 2.15364,-1.38561 2.61284,-8.27371 -0.27039,-0.9136 -0.46561,-1.85443 -0.57761,-2.81763 -0.03839,-0.29759 -0.0688,-0.5904 -0.09439,-0.8832 -0.09602,1.5568 -0.70561,6.96807 -4.51047,9.09931 -2.84162,-0.74401 -3.17924,-3.45124 -3.17924,-3.45124 0,0 5.34405,0.272 7.6433,-8.58893 0.0064,0.01922 0.0096,0.0464 0.01599,0.06561 0.02722,-0.41442 0.07042,-0.82562 0.12481,-1.23202 -1.2752,2.12484 -4.23206,6.3777 -7.71689,6.7809 -1.21763,-0.33922 -2.90884,-2.02884 -2.70564,-4.39687 2.08483,0.4032 7.9841,-0.4032 11.11214,-5.40486 0.09759,-0.30722 0.2064,-0.61121 0.3248,-0.91042 C 13.52325,14.11836 9.3856,16.832 5.49594,17.048 2.18391,15.55998 3.12953,12.65115 4.00793,11.63513 c 1.71523,1.71523 6.07209,2.77603 11.81136,-0.31039 0.62081,-1.17601 1.38083,-2.29605 2.28804,-3.33925 0.144,-0.16481 0.30078,-0.3264 0.4576,-0.49121 -3.51366,2.29605 -6.4977,3.99365 -11.10256,3.42885 C 3.91353,10.48633 2.62712,8.3855 2.17752,7.17268 1.4623,5.24304 1.8383,2.93103 3.09111,1.5534 4.33752,0.18219 6.62396,-0.36499 8.5232,0.25099 c 1.52003,0.4928 2.48484,1.62563 2.65124,3.11205 0.0576,0.50239 0.0032,0.9472 -0.12001,1.3408 l 0.0208,0.0656 c 0,0 -0.67522,2.36964 -3.00805,2.47044 C 5.73274,7.34227 5.73274,5.85266 6.03676,5.58224 6.34236,5.31026 6.74878,5.24464 7.66078,5.64946 8.55519,6.04787 9.92963,5.30386 10.17763,3.93904 10.184,3.79343 10.184,3.64143 10.16643,3.47343 10.0016,2.00781 8.87039,1.4302 8.21118,1.2158 6.69598,0.7262 4.81755,1.163 3.84312,2.23662 2.84792,3.32782 2.54872,5.25746 3.12953,6.81906 3.76793,8.5423 5.35034,9.64151 7.58559,9.9151 12.19205,10.4815 14.98888,8.63829 18.86093,6.08788 L 21.46095,4.40785 C 26.89304,1.0254 30.49307,0.8846 30.64348,0.8814 l 0.0048,0.0688 C 32.0611,0.6606 33.4947,0.49098 34.91394,0.47499 45.74287,0.35979 52.63097,7.45747 55.4678,14.13918 c 1.29761,3.76164 1.75522,7.10247 1.75841,9.94891 0.65601,-0.87521 1.57923,-2.53761 1.63844,-5.05606 0.0848,-3.49285 0.0272,-8.03371 0.0064,-9.34412 -1.58401,-0.1024 -2.84643,-1.41282 -2.84643,-3.02563 0,-1.67844 1.36482,-3.04164 3.04324,-3.04164 1.67842,0 3.04326,1.3632 3.04326,3.04164 0,1.47041 -1.04324,2.69763 -2.42725,2.98243 0.01921,1.27842 0.08159,5.87368 -0.0064,9.40972 -0.0928,3.84326 -2.00325,5.85287 -2.47524,6.29447 -0.08641,1.86404 -0.3648,3.47845 -0.7104,4.82888 1.35201,-2.09923 2.68802,-4.46086 3.89444,-7.07689 4.99846,-10.81296 11.41776,-22.2675 23.7603,-21.91549 4.52487,0.1296 8.28171,1.65441 10.86734,4.40806 0.32481,0.3488 0.62721,0.71362 0.91042,1.08801 0.47682,0.2784 1.26081,0.54241 2.49444,0.4048 1.38881,-0.1584 2.56324,-1.02241 2.99204,-2.20483 0.216,-0.58719 0.19679,-1.04321 -0.0224,-1.49121 -0.1712,-0.10559 -0.36479,-0.17439 -0.584,-0.1456 -0.75041,0.09441 -0.18719,1.12161 -1.82564,1.2144 -1.26239,0.07521 -2.248,-1.11999 -2.0608,-2.43363 0.18719,-1.3088 1.7344,-1.96322 3.41604,-1.59042 2.27683,0.50722 2.62084,3.50887 2.10883,4.68166 -0.002,-0.00157 -0.002,-0.00319 -0.002,-0.0064 -0.0144,0.03681 -0.0208,0.07522 -0.0336,0.11202 -0.53121,1.46562 -1.96803,2.53923 -3.66565,2.73123 -0.81761,0.09121 -1.48642,0.01279 -2.04483,-0.13119 1.35522,2.24801 2.03842,4.88165 1.94244,7.6689 z m -51.31907,27.42283 -1.02881,1.02081 -0.008,-1.45121 c 0,-0.10082 -0.04641,-2.23043 -1.59363,-3.12964 -1.8384,5.10087 -5.36327,8.58731 -10.27213,10.06894 -0.3472,0.10557 -0.71679,0.1472 -1.072,0.23039 10.51854,-1.20961 19.93466,-6.80008 25.00351,-9.82573 4.46567,-2.66563 9.26254,-3.67363 13.49777,-3.01604 -12.29456,-5.71057 -23.9763,5.55527 -24.5267,6.10248 z M 32.4851,34.09312 c 1.87043,-0.73932 4.07525,-2.38252 5.7041,-3.67054 1.19358,-0.94402 2.34722,-1.84642 3.53123,-2.48802 0.10078,-2.99524 -0.48001,-6.4737 -3.10565,-7.62731 -2.78403,0.328 -4.53287,2.48642 -5.09127,3.55845 1.14402,1.29441 1.66243,3.04804 1.49604,5.06886 -0.23842,2.89444 -2.15045,4.58566 -4.00327,5.55697 0.47522,-0.104 0.96002,-0.2288 1.46882,-0.39841 z M 61.30148,6.66228 c 0,-1.23044 -1.00161,-2.23044 -2.23364,-2.23044 -1.2288,0 -2.23042,1 -2.23042,2.23044 0,1.23201 1.00162,2.23362 2.23042,2.23362 1.23203,0 2.23364,-1.00161 2.23364,-2.23362 z"
               style="fill:#000000;fill-opacity:1;fill-rule:nonzero;stroke:#000000;stroke-width:0.3985;stroke-linecap:butt;stroke-linejoin:miter;stroke-miterlimit:10;stroke-dasharray:none;stroke-opacity:1"
               id="path20" /></g></g></g></g></g></svg>
