<?xml version="1.0" encoding="UTF-8" standalone="no"?>
<svg
   xmlns:dc="http://purl.org/dc/elements/1.1/"
   xmlns:cc="http://creativecommons.org/ns#"
   xmlns:rdf="http://www.w3.org/1999/02/22-rdf-syntax-ns#"
   xmlns:svg="http://www.w3.org/2000/svg"
   xmlns="http://www.w3.org/2000/svg"
   xmlns:sodipodi="http://sodipodi.sourceforge.net/DTD/sodipodi-0.dtd"
   xmlns:inkscape="http://www.inkscape.org/namespaces/inkscape"
   version="1.1"
   id="svg2"
   xml:space="preserve"
   width="152.42667"
   height="150.66667"
   viewBox="0 0 152.42667 150.66667"
   sodipodi:docname="vectorian041.pdf"><metadata
     id="metadata8"><rdf:RDF><cc:Work
         rdf:about=""><dc:format>image/svg+xml</dc:format><dc:type
           rdf:resource="http://purl.org/dc/dcmitype/StillImage" /></cc:Work></rdf:RDF></metadata><defs
     id="defs6"><clipPath
       clipPathUnits="userSpaceOnUse"
       id="clipPath24"><path
         d="M 0,0 H 111.00142 V 113.00143 H 0 Z"
         id="path22" /></clipPath></defs><sodipodi:namedview
     pagecolor="#ffffff"
     bordercolor="#666666"
     borderopacity="1"
     objecttolerance="10"
     gridtolerance="10"
     guidetolerance="10"
     inkscape:pageopacity="0"
     inkscape:pageshadow="2"
     inkscape:window-width="640"
     inkscape:window-height="480"
     id="namedview4" /><g
     id="g10"
     inkscape:groupmode="layer"
     inkscape:label="vectorian041"
     transform="matrix(1.3333333,0,0,-1.3333333,0,150.66667)"><g
       id="g12"
       transform="translate(72,41)"><g
         id="g14"
         transform="translate(-72,-41)"><g
           id="g16"><g
             id="g18"><g
               id="g20"
               clip-path="url(#clipPath24)"><path
                 d="m 109.5771,110.00801 c -1.97633,0.33119 -15.19839,1.55521 -20.67277,-4.26247 -2.65073,1.60323 -6.5353,2.48963 -11.69936,1.67524 -0.27339,-0.0448 -0.52879,-0.1104 -0.79449,-0.16321 -2.38134,2.89123 -7.21341,5.39049 -12.84009,3.01924 -7.31259,-3.08484 -6.51335,-11.02574 -2.62892,-12.90898 0.2532,-0.1232 0.49611,-0.18239 0.74301,-0.25919 -1.80702,-1.93602 -3.75395,-4.09446 -5.96888,-6.45288 -2.42033,0.4112 -4.80467,1.14722 -7.11259,2.13762 0.92501,1.27682 1.66481,2.84163 2.09702,4.80006 1.52253,6.93129 -4.34473,15.31221 -12.87265,15.5394 -3.78696,0.1024 -7.34329,-1.21281 -10.10594,-3.51204 -5.74138,4.69286 -11.06334,3.64963 -13.45087,0.76801 -2.93823,-3.54566 -1.65631,-9.82413 -1.65631,-9.82413 0,0 -6.1384,1.54402 -9.50083,-1.60801 C 0.6002,96.59663 -0.596,90.92456 4.57285,85.08449 1.5008,82.07484 -0.2483,77.83319 0.02818,73.32753 0.54848,64.81062 9.12071,59.23775 15.99799,60.99457 c 2.52964,0.64961 4.43287,1.76642 5.79847,3.17764 0.98592,-2.32323 1.70621,-4.72487 2.08914,-7.1633 -2.26425,-2.29601 -4.35847,-4.32645 -6.2424,-6.19049 -0.07321,0.56323 -0.21869,1.15044 -0.5257,1.74884 C 15.15189,56.41052 7.19548,57.04251 4.26665,49.66963 1.98831,43.94637 4.66034,39.1287 7.63147,36.83426 7.38998,35.98145 7.20088,35.09824 7.08598,34.17023 6.44856,28.97815 7.46667,25.1253 9.16191,22.53168 3.53523,16.8596 5.21104,3.69144 5.60776,1.7282 6.06805,-0.54378 8.5207,-0.9934 8.083,2.95702 7.64778,6.84828 5.94066,11.34914 7.4916,17.35721 c 0.52259,2.03042 1.31629,3.43684 2.20391,4.42406 1.05402,-1.35203 2.29692,-2.28644 3.55084,-2.79683 2.54373,-1.03362 5.02587,0.09599 5.40477,2.47204 0.3752,2.37441 -2.13603,4.50084 -6.28077,3.13762 -0.59101,-0.2048 -1.13643,-0.46881 -1.63742,-0.7776 -1.36863,2.71202 -1.95224,6.76169 -0.78582,11.76175 0.07111,-0.0208 0.14531,-0.0512 0.21401,-0.0688 6.03138,-1.53122 17.55182,2.25442 15.49308,18.72503 -0.11468,0.91843 -0.2733,1.80963 -0.44909,2.68804 3.14615,3.37124 5.70007,7.15368 6.34617,12.76014 1.50623,13.07219 -6.77678,19.81308 -16.07589,19.80028 -3.61185,-0.0064 -6.82038,-1.17122 -9.37453,-3.08164 -2.66702,3.74724 -2.75703,7.9041 -1.09862,9.73612 1.89804,2.09763 4.40027,2.86404 9.71685,2.63524 -0.34313,5.31367 0.35069,7.8481 2.40701,9.79213 1.68353,1.59041 5.43208,1.64801 9.02672,-0.46879 -2.54073,-2.81925 -4.08214,-6.62571 -3.93996,-10.95696 0.30391,-9.29453 7.32671,-17.34104 20.33707,-15.38739 6.05308,0.9088 9.89073,3.97124 13.35478,7.60487 1.15541,-0.2336 2.32982,-0.43359 3.55394,-0.56 16.50651,-1.7136 20.04956,9.88335 18.39244,15.88341 -0.024,0.088 -0.0654,0.17761 -0.09541,0.26561 4.12046,0.78081 7.51501,0.2944 9.92213,-0.81441 -0.293,-0.5104 -0.53749,-1.06402 -0.72281,-1.66084 -1.2187,-4.19044 0.99002,-6.62727 3.35095,-6.17125 2.36022,0.456 3.40554,2.97922 2.28594,5.48326 -0.55312,1.23682 -1.53044,2.44803 -2.91876,3.45284 0.95863,0.92482 2.33285,1.76321 4.34556,2.35684 5.95139,1.7552 10.50775,0.20319 14.41491,-0.096 3.96093,-0.30719 3.43043,2.13444 1.1435,2.51205 z M 15.7847,23.87408 c 1.95471,-0.33279 2.52962,-3.61444 0.0163,-3.83044 -1.63204,-0.136 -3.37026,0.93282 -4.63827,2.97604 1.96332,1.20003 3.98365,0.96162 4.62197,0.8544 z m 1.46171,38.5365 C 13.29555,61.01056 9.0681,62.26018 6.12296,65.11623 7.41127,64.5626 8.75099,64.64262 9.67581,65.27625 12.13234,66.96266 11.68622,70.0331 10.087,69.97708 8.4876,69.92268 9.33931,68.46347 6.96037,67.81226 4.38374,67.35466 3.14932,69.81708 2.59862,71.6107 2.35011,72.85071 2.2539,74.16435 2.39091,75.54356 2.70322,78.7164 4.12355,81.40923 6.21266,83.42685 6.62598,83.05246 7.05348,82.67805 7.52118,82.30844 12.92065,78.02039 18.20662,71.97072 21.33707,65.19623 20.43324,64.0666 19.12213,63.07462 17.24641,62.41058 Z m -6.89379,-8.72812 c 5.40147,1.19683 5.48356,-2.79841 5.48356,-2.79841 0,0 -1.84772,1.1024 -3.07423,-0.35201 C 11.77582,49.3688 12.11584,47.3048 13.48705,46.5096 11.43393,44.22955 9.80951,42.04391 8.691,39.6775 3.72983,42.84395 4.29074,51.92886 10.35262,53.68246 Z m 0.54211,-14.92178 c 0.21559,0.5968 0.43521,1.19681 0.69769,1.81122 0.91492,2.13603 2.06163,3.97287 3.32434,5.64648 1.22882,0.14881 2.44765,1.43842 2.72644,3.20644 2.09923,2.22403 4.33448,4.21446 6.4009,6.28808 0.04368,-0.39042 0.09619,-0.77761 0.11801,-1.16961 0.6241,-10.83855 -6.1877,-17.36504 -13.26738,-15.78261 z M 22.68617,85.9197 c 9.16893,-4.01284 10.41504,-18.77145 2.24553,-27.78437 -0.586,2.48965 -1.37752,4.82247 -2.33833,6.9809 1.71092,2.30082 2.25314,5.19685 1.90004,8.13771 -0.53682,4.47683 -5.31738,6.14407 -7.04151,5.24165 -1.71952,-0.89439 -0.98051,-2.46881 0.39132,-2.49922 2.13282,0.07521 3.14852,-0.65122 4.33915,-1.98403 0.7907,-0.88961 1.60164,-4.59365 -0.13751,-7.73609 -4.44525,9.2369 -11.45944,15.29458 -14.42769,18.33462 3.97287,2.88324 9.62603,3.69124 15.069,1.30883 z m 36.9997,18.18903 c 1.59091,5.96167 10.30812,6.81767 13.75506,2.27681 -2.54933,-1 -4.80487,-2.55841 -7.08839,-4.60964 -0.99141,0.7632 -2.53822,0.8064 -3.46883,-0.0112 -1.42663,-1.25762 -0.28512,-3.08483 -0.28512,-3.08483 0,0 -3.99706,0 -2.91272,5.42886 z m -23.99152,6.58728 c 1.37651,0.18401 2.69065,0.13279 3.93915,-0.0752 1.81161,-0.49119 4.31247,-1.63841 3.94305,-4.22885 -0.56981,-2.39842 -2.05633,-1.6 -2.05633,-3.20002 0,-1.59683 3.08514,-1.94245 4.68435,0.57278 0.60393,0.94884 0.63523,2.28644 0.04072,3.55687 2.95474,-2.85126 4.34524,-7.0273 3.08361,-11.02254 -0.40558,-1.27362 -0.96959,-2.28163 -1.62431,-3.10405 -6.55707,3.02564 -12.44626,8.0129 -16.69481,13.14096 -0.518,0.62241 -1.03522,1.17922 -1.55003,1.70244 1.72754,1.3824 3.83056,2.33761 6.2346,2.65762 z M 54.42899,89.29254 c -8.64092,-9.05772 -23.99181,-8.45451 -28.40757,0.7616 -2.92175,6.0945 -1.73024,12.60336 2.04473,16.68022 0.142,-0.12 0.29049,-0.2144 0.43051,-0.34241 2.98344,-2.74084 9.12732,-9.68652 18.42824,-14.04658 -3.23125,-3.02245 -7.9727,-2.24962 -9.02422,-1.37601 -1.37202,1.13922 -2.13303,2.13604 -2.13303,4.26564 -0.0733,1.36963 -1.67262,2.05443 -2.51015,0.30402 -0.83819,-1.75363 0.99062,-6.4737 5.48357,-6.8561 3.45256,-0.29439 6.79232,0.65122 9.14162,3.21604 2.12433,-0.9296 4.41657,-1.70722 6.85559,-2.27681 -0.10379,-0.11202 -0.20239,-0.21762 -0.30929,-0.32961 z m 20.16735,14.70099 c 1.82573,-7.08491 -4.56936,-14.11058 -15.48289,-13.71059 -0.72821,0.02721 -1.45642,0.0896 -2.17891,0.18082 1.91331,2.09921 3.78033,4.31845 5.90007,6.39688 2.50693,-0.21762 4.48694,1.49921 4.44835,3.07684 -0.0054,0.20159 -0.0547,0.3792 -0.1008,0.55999 1.15791,0.80481 2.39871,1.55363 3.77824,2.20164 1.24282,0.58079 2.43363,1.03041 3.59444,1.40802 0.01111,-0.0416 0.03061,-0.0736 0.0415,-0.1136 z m 17.02373,-4.79848 c -0.13141,-2.52162 -3.42746,-2.05601 -3.82756,-0.11519 -0.13111,0.63201 -0.43511,2.64644 0.69551,4.64966 2.08594,-1.19842 3.21715,-2.89762 3.13205,-4.53447 z"
                 style="fill:#000000;fill-opacity:1;fill-rule:nonzero;stroke:#000000;stroke-width:0.3985;stroke-linecap:butt;stroke-linejoin:miter;stroke-miterlimit:10;stroke-dasharray:none;stroke-opacity:1"
                 id="path26" /></g></g></g></g></g></g></svg>
