<?xml version="1.0" encoding="UTF-8" standalone="no"?>
<svg
   xmlns:dc="http://purl.org/dc/elements/1.1/"
   xmlns:cc="http://creativecommons.org/ns#"
   xmlns:rdf="http://www.w3.org/1999/02/22-rdf-syntax-ns#"
   xmlns:svg="http://www.w3.org/2000/svg"
   xmlns="http://www.w3.org/2000/svg"
   xmlns:sodipodi="http://sodipodi.sourceforge.net/DTD/sodipodi-0.dtd"
   xmlns:inkscape="http://www.inkscape.org/namespaces/inkscape"
   version="1.1"
   id="svg2"
   xml:space="preserve"
   width="39.268246"
   height="59.95628"
   viewBox="0 0 39.268246 59.95628"
   sodipodi:docname="vectorian164.pdf"><metadata
     id="metadata8"><rdf:RDF><cc:Work
         rdf:about=""><dc:format>image/svg+xml</dc:format><dc:type
           rdf:resource="http://purl.org/dc/dcmitype/StillImage" /></cc:Work></rdf:RDF></metadata><defs
     id="defs6" /><sodipodi:namedview
     pagecolor="#ffffff"
     bordercolor="#666666"
     borderopacity="1"
     objecttolerance="10"
     gridtolerance="10"
     guidetolerance="10"
     inkscape:pageopacity="0"
     inkscape:pageshadow="2"
     inkscape:window-width="640"
     inkscape:window-height="480"
     id="namedview4" /><g
     id="g10"
     inkscape:groupmode="layer"
     inkscape:label="vectorian164"
     transform="matrix(1.3333333,0,0,-1.3333333,0.0833891,58.507585)"><g
       id="g12"
       transform="translate(72,-27.132)"><g
         id="g14"
         transform="translate(-71.995,27.16)"><g
           id="g16"><g
             id="g18"><path
               d="m 2.40971,25.97173 c 0,0 0.15842,-0.50823 -0.06349,-1.23902 -0.22272,-0.73152 -0.15921,-0.88933 0.3804,-0.95352 0,0 -0.92072,-0.34972 -0.57101,-1.01572 0.3497,-0.66789 0.222,-1.62083 0.09561,-2.35093 -0.12772,-0.73081 0.1906,-1.36672 1.33461,-1.36672 1.14342,0 1.74654,-0.63519 3.04904,-1.2711 1.30253,-0.63521 7.4012,-2.15904 8.98992,5.21005 0,0 -0.92142,-3.20883 -4.60697,-4.44716 -3.68493,-1.239 -4.76475,0.76161 -6.44777,1.01642 -1.68362,0.254 -2.12823,-0.06421 -1.90623,1.33463 0.22261,1.3974 -0.47681,2.09611 0.06351,2.38234 0.5402,0.28619 1.65152,0.03137 1.84272,-0.92212 0,0 0.222,1.04921 -0.79432,1.46312 -1.0163,0.4118 -1.2076,0.18919 -1.08051,0.95208 0.127,0.76294 -0.06291,0.95284 0.60381,1.27044 0.66729,0.31829 0.8578,0.88931 0.79431,1.39881 -0.06349,0.50683 -1.01631,0.79371 -1.36601,0.03141 0,0 0.79361,0.19059 0.8572,-0.4453 0.0642,-0.63521 -1.14341,-0.95282 -1.26982,-0.53961 -0.1277,0.41261 -1.74781,-0.12702 -1.71501,0.5717 0.0314,0.6987 1.2062,3.84405 1.96843,4.82826 0.763,0.98493 0.9214,1.55733 0.6673,2.25533 -0.25402,0.69941 0.2227,4.98817 4.76546,7.78379 4.54216,2.79485 9.84711,1.36535 12.13395,-0.88999 2.28743,-2.25603 2.82766,-5.27366 2.54143,-9.59442 -0.28549,-4.31946 -0.06279,-6.7346 1.90703,-10.06985 0,0 -1.14331,3.30445 -0.7629,7.97362 C 24.20149,34.00813 23.4072,40.393 18.26122,42.61693 13.11536,44.84016 7.87317,43.22003 5.39586,40.2345 2.91853,37.24837 2.31471,34.51633 2.63231,33.62631 2.94992,32.73631 2.69522,32.9282 1.838,31.276 0.98009,29.62447 -0.00479,27.11433 0.15369,26.57343 c 0.1591,-0.53962 0.79429,-0.38111 1.23901,-0.38111 0.4453,0 0.76222,0.09831 1.01701,-0.22059"
               style="fill:#000000;fill-opacity:1;fill-rule:nonzero;stroke:#000000;stroke-width:0.3985;stroke-linecap:butt;stroke-linejoin:miter;stroke-miterlimit:10;stroke-dasharray:none;stroke-opacity:1"
               id="path20" /><path
               d="m 8.7502,16.8806 c 0,0 2.52373,-2.03333 1.60643,-6.48938 C 9.4387,5.93526 6.09598,2.78853 0.16458,1.249 c 0,0 5.17796,0.3927 9.07742,4.71896 3.89936,4.32496 2.39194,9.04463 -0.4918,10.91264"
               style="fill:#000000;fill-opacity:1;fill-rule:nonzero;stroke:#000000;stroke-width:0.3985;stroke-linecap:butt;stroke-linejoin:miter;stroke-miterlimit:10;stroke-dasharray:none;stroke-opacity:1"
               id="path22" /><path
               d="m 21.36766,5.08415 c 0,0 2.09684,0.75272 2.12962,1.67073 0.03281,0.9173 -2.19592,1.27719 -2.12962,-1.67073 M 0,0.7251 c 0,0 5.47307,0.4918 9.96321,4.19446 4.48956,3.70335 7.40601,6.75097 12.81357,6.81657 5.40677,0.06561 6.48869,-3.67123 5.66907,-5.66977 -0.81902,-1.99853 -4.62065,-3.73614 -7.07819,-1.47461 0,0 -2.22873,-1.04912 -5.04756,-0.98292 -2.81743,0.06491 -4.71826,-1.11472 -6.81589,-3.63771 0,0 1.04912,2.65351 4.65346,3.96493 3.60495,1.31072 6.88209,1.1481 6.88209,1.1481 0,0 -0.3599,1.70352 1.01641,2.48964 1.37563,0.78751 3.53875,-1.18022 -0.36132,-2.91655 0,0 1.90152,-1.67132 4.45667,-0.3271 2.55655,1.34352 2.65562,4.42387 0.85242,5.76806 C 25.2015,11.44034 22.48167,11.80174 18.25371,9.5081 14.02657,7.21318 8.7502,1.053 0,0.7251"
               style="fill:#000000;fill-opacity:1;fill-rule:nonzero;stroke:#000000;stroke-width:0.3985;stroke-linecap:butt;stroke-linejoin:miter;stroke-miterlimit:10;stroke-dasharray:none;stroke-opacity:1"
               id="path24" /><path
               d="m 28.00114,21.53136 c -1.1208,0.44799 -2.24162,-1.81621 -2.24162,-1.81621 2.93625,-0.38112 3.36243,1.3681 2.24162,1.81621 M 25.267,18.08002 c 0,0 0.179,-2.55652 1.45624,-4.10225 1.2779,-1.54703 2.46572,0.08949 2.04022,1.27801 -0.42621,1.18772 -2.30864,2.75664 -3.49646,2.82424 m -4.39386,-2.30934 c 1.68164,0.33542 1.68164,2.84625 1.68164,2.84625 -3.38504,-0.33613 -3.36185,-3.18225 -1.68164,-2.84625 m 2.35374,3.18365 c 0.7397,-0.1127 1.47942,-0.1803 1.47942,-0.1803 0.33601,1.54631 1.43503,2.51073 1.43503,2.51073 1.36671,1.43431 3.47384,0.42482 2.73414,-0.96442 -0.73971,-1.3899 -3.27235,-0.82919 -3.27235,-0.82919 -0.24662,-0.44872 -0.29172,-0.89682 -0.29172,-0.89682 1.56894,-0.51572 3.63095,-1.86053 3.85567,-3.71974 0.22409,-1.86124 -1.70413,-2.77985 -3.27304,-1.07643 -1.56893,1.70282 -1.16523,4.46017 -1.16523,4.46017 -0.60511,0.26979 -1.63651,0.24647 -1.63651,0.24647 -0.08879,-1.52378 -0.89681,-2.91302 -2.10643,-3.18212 -1.21033,-0.26979 -2.51014,0.80591 -1.41251,2.24104 1.09831,1.43431 2.91382,1.36672 2.91382,1.36672 -0.29169,4.52835 -4.63985,4.23744 -4.63985,4.23744 5.31256,0.87361 5.37956,-4.21355 5.37956,-4.21355"
               style="fill:#000000;fill-opacity:1;fill-rule:nonzero;stroke:#000000;stroke-width:0.3985;stroke-linecap:butt;stroke-linejoin:miter;stroke-miterlimit:10;stroke-dasharray:none;stroke-opacity:1"
               id="path26" /><path
               d="m 12.46173,41.63683 c 0,0 7.33432,1.10031 8.64233,-8.57471 0,0 0.4822,10.15723 -8.64233,8.57471"
               style="fill:#000000;fill-opacity:1;fill-rule:nonzero;stroke:#000000;stroke-width:0.3985;stroke-linecap:butt;stroke-linejoin:miter;stroke-miterlimit:10;stroke-dasharray:none;stroke-opacity:1"
               id="path28" /><path
               d="m 12.04855,40.7413 c 0,0 3.92594,-0.9644 5.09665,-5.71547 1.17003,-4.75175 2.23822,-6.54268 4.16646,-7.43879 0,0 -2.27383,1.61941 -2.92743,5.64787 -0.65372,4.02844 -2.54835,6.88629 -6.33568,7.50639"
               style="fill:#000000;fill-opacity:1;fill-rule:nonzero;stroke:#000000;stroke-width:0.3985;stroke-linecap:butt;stroke-linejoin:miter;stroke-miterlimit:10;stroke-dasharray:none;stroke-opacity:1"
               id="path30" /><path
               d="m 12.56555,36.57495 c 0,0 1.37761,-1.37842 1.58393,-4.30516 0.20631,-2.92673 1.2738,-9.84781 8.6764,-7.60948 0,0 -4.78587,-1.17071 -6.71478,2.37622 -1.92743,3.54623 -0.51502,7.19629 -3.54555,9.53842"
               style="fill:#000000;fill-opacity:1;fill-rule:nonzero;stroke:#000000;stroke-width:0.3985;stroke-linecap:butt;stroke-linejoin:miter;stroke-miterlimit:10;stroke-dasharray:none;stroke-opacity:1"
               id="path32" /><path
               d="m 15.90549,30.41127 c 0,0 2.23762,-1.79012 1.54913,-4.30365 -0.68912,-2.51424 -3.68425,-1.82572 -3.40895,-0.862 0,0 0.14619,0.47611 0.45349,0.10379 0,0 0.25411,0.29921 -0.0806,0.45351 -0.33529,0.1544 -0.91659,-0.20011 -0.62561,-1.07021 0.29032,-0.87022 2.61935,-1.31352 3.78935,0.045 0,0 2.40082,2.71843 -1.67681,5.63356"
               style="fill:#000000;fill-opacity:1;fill-rule:nonzero;stroke:#000000;stroke-width:0.3985;stroke-linecap:butt;stroke-linejoin:miter;stroke-miterlimit:10;stroke-dasharray:none;stroke-opacity:1"
               id="path34" /><path
               d="m 6.58366,32.07109 c -0.7138,0.27041 -0.7875,-0.54169 -0.7875,-0.54169 0,0 0.1475,0.1728 0.73901,-0.1482 0.5901,-0.32032 1.20552,-0.29442 1.20552,-0.29442 0,0 -0.44331,0.71312 -1.15703,0.98431 M 5.45184,30.12517 c -0.14817,0.8872 -0.8865,0.4432 -1.35441,1.57703 -0.4679,1.13111 0.56622,2.97732 2.63444,2.41113 2.06753,-0.56562 2.95404,-2.85433 3.17534,-3.86457 0.22131,-1.0095 -0.88591,-0.76289 -2.14192,0.0246 -1.25543,0.78752 -1.47742,0.02522 -1.47742,0.02522 -0.95961,0.8115 -1.2055,1.57512 -0.61471,2.09214 0.5908,0.51708 1.82092,0 2.14192,-1.10722 0.31972,-1.10784 0.71382,-1.18163 1.45213,-1.37902 0.73839,-0.19672 0.4187,0.88589 -0.44322,2.14131 -0.86131,1.25612 -3.22462,1.87154 -3.98755,1.05933 -0.76361,-0.81342 -0.29571,-1.82162 0.24593,-2.01834 0.54159,-0.1973 0.61538,-0.1236 0.739,-1.08391 0.12229,-0.9603 1.2062,-1.157 1.2062,-1.157 -1.03471,0.0246 -1.4282,0.39339 -1.57573,1.2793"
               style="fill:#000000;fill-opacity:1;fill-rule:nonzero;stroke:#000000;stroke-width:0.3985;stroke-linecap:butt;stroke-linejoin:miter;stroke-miterlimit:10;stroke-dasharray:none;stroke-opacity:1"
               id="path36" /></g></g></g></g></g></svg>
