<?xml version="1.0" encoding="UTF-8" standalone="no"?>
<svg
   xmlns:dc="http://purl.org/dc/elements/1.1/"
   xmlns:cc="http://creativecommons.org/ns#"
   xmlns:rdf="http://www.w3.org/1999/02/22-rdf-syntax-ns#"
   xmlns:svg="http://www.w3.org/2000/svg"
   xmlns="http://www.w3.org/2000/svg"
   xmlns:sodipodi="http://sodipodi.sourceforge.net/DTD/sodipodi-0.dtd"
   xmlns:inkscape="http://www.inkscape.org/namespaces/inkscape"
   version="1.1"
   id="svg2"
   xml:space="preserve"
   width="20.292568"
   height="22.62961"
   viewBox="0 0 20.292568 22.62961"
   sodipodi:docname="vectorian140.pdf"><metadata
     id="metadata8"><rdf:RDF><cc:Work
         rdf:about=""><dc:format>image/svg+xml</dc:format><dc:type
           rdf:resource="http://purl.org/dc/dcmitype/StillImage" /></cc:Work></rdf:RDF></metadata><defs
     id="defs6" /><sodipodi:namedview
     pagecolor="#ffffff"
     bordercolor="#666666"
     borderopacity="1"
     objecttolerance="10"
     gridtolerance="10"
     guidetolerance="10"
     inkscape:pageopacity="0"
     inkscape:pageshadow="2"
     inkscape:window-width="640"
     inkscape:window-height="480"
     id="namedview4" /><g
     id="g10"
     inkscape:groupmode="layer"
     inkscape:label="vectorian140"
     transform="matrix(1.3333333,0,0,-1.3333333,-0.10647259,21.771634)"><g
       id="g12"
       transform="translate(72,-56.147)"><g
         id="g14"
         transform="translate(-71.721,56.147)"><g
           id="g16"><g
             id="g18"><path
               d="m 5.03874,11.42014 c 0.88652,0 0.19741,-1.07921 -0.7875,-0.98363 0,0 -0.09841,0.98363 0.7875,0.98363 m 7.0898,1.87141 C 9.4702,15.85289 7.00787,15.16309 6.31938,12.70425 5.62956,10.23853 8.19019,9.15929 10.45442,7.97769 12.71866,6.79608 12.91675,3.14871 12.91675,3.14871 13.01436,6.98727 11.34094,8.5651 10.1593,9.05688 8.9777,9.5486 8.19019,10.0404 8.19019,10.0404 c 0,0 0.78751,0.10251 2.26423,0 1.47672,-0.09558 1.87154,-0.5874 1.87154,-0.5874 -0.88732,2.45894 -4.43147,0.68991 -4.92396,1.18163 -0.49242,0.4918 -0.39413,1.27731 -0.39413,1.27731 1.28072,-1.76903 2.65834,-1.1817 3.15143,-0.1981 0.43582,0.87422 -0.9384,2.11053 -1.79771,1.33191 -0.76221,-0.68992 0.222,-1.22951 0.222,-1.22951 v 0.4918 c 0,0.49181 0.59082,0.49181 0.59082,0.49181 0.98489,-0.6899 -0.39342,-2.26762 -1.47664,-0.88791 -1.0833,1.37961 0.49242,3.44924 2.85565,1.87143 2.36333,-1.57773 3.54495,-4.43278 3.44585,-7.2878 C 13.90027,3.64053 12.52266,1.769 12.52266,1.769 11.34094,7.08978 7.24008,7.21957 5.26004,7.8752 3.93085,8.3192 4.25124,9.65111 4.25124,9.65111 6.22037,9.8423 6.41298,11.80943 5.03874,11.91194 3.75873,12.01434 3.51283,10.53223 3.51283,10.53223 0.6572,11.22202 0.01648,14.76698 0.01648,14.76698 -0.27858,10.92833 3.46303,9.7467 3.46303,9.7467 3.34001,6.10616 7.89449,6.98727 10.2577,4.82214 12.62025,2.65692 12.32454,0 12.32454,0 c 4.13706,5.02014 2.46233,10.73024 -0.196,13.29155"
               style="fill:#000000;fill-opacity:1;fill-rule:nonzero;stroke:#000000;stroke-width:0.3985;stroke-linecap:butt;stroke-linejoin:miter;stroke-miterlimit:10;stroke-dasharray:none;stroke-opacity:1"
               id="path20" /></g></g></g></g></g></svg>
