<?xml version="1.0" encoding="UTF-8" standalone="no"?>
<svg
   xmlns:dc="http://purl.org/dc/elements/1.1/"
   xmlns:cc="http://creativecommons.org/ns#"
   xmlns:rdf="http://www.w3.org/1999/02/22-rdf-syntax-ns#"
   xmlns:svg="http://www.w3.org/2000/svg"
   xmlns="http://www.w3.org/2000/svg"
   xmlns:sodipodi="http://sodipodi.sourceforge.net/DTD/sodipodi-0.dtd"
   xmlns:inkscape="http://www.inkscape.org/namespaces/inkscape"
   version="1.1"
   id="svg2"
   xml:space="preserve"
   width="24.253332"
   height="21.346666"
   viewBox="0 0 24.253332 21.346666"
   sodipodi:docname="vectorian135.pdf"><metadata
     id="metadata8"><rdf:RDF><cc:Work
         rdf:about=""><dc:format>image/svg+xml</dc:format><dc:type
           rdf:resource="http://purl.org/dc/dcmitype/StillImage" /></cc:Work></rdf:RDF></metadata><defs
     id="defs6" /><sodipodi:namedview
     pagecolor="#ffffff"
     bordercolor="#666666"
     borderopacity="1"
     objecttolerance="10"
     gridtolerance="10"
     guidetolerance="10"
     inkscape:pageopacity="0"
     inkscape:pageshadow="2"
     inkscape:window-width="640"
     inkscape:window-height="480"
     id="namedview4" /><g
     id="g10"
     inkscape:groupmode="layer"
     inkscape:label="vectorian135"
     transform="matrix(1.3333333,0,0,-1.3333333,0,21.346667)"><g
       id="g12"
       transform="translate(72,-55.99)"><g
         id="g14"
         transform="translate(-71.968,56.859)"><g
           id="g16"><g
             id="g18"><path
               d="m 7.6476,6.07745 c 0,0 1.0833,-6.94625 -7.67989,-5.97636 0,0 2.95482,0.38249 4.62754,3.46974 1.67401,3.08725 -0.19672,6.36577 -2.56003,7.71129 0,0 0.78749,0.48492 3.83995,-2.11731 0,0 -1.08322,2.11731 -2.65834,2.99162 -1.57572,0.86742 -2.36324,0.28682 -2.36324,0.28682 0,0 -0.4918,1.1543 1.47742,1.54361 1.96843,0.38251 2.85504,-0.86741 3.74155,-0.86741 0.88592,0 3.44654,0.67622 5.41568,-2.50673 1.96923,-3.18285 0.6892,-7.81371 3.34753,-10.61411 0,0 -4.62746,0.19808 -4.23335,6.36577 0,0 0.4917,-4.52846 3.24914,-5.59398 0,0 -0.78761,0.0069 -1.57582,4.92467 -0.7875,4.91765 -2.36322,7.8069 -6.20318,7.03508 0,0 -3.74155,2.41104 -5.02156,0.09561 0,0 1.67341,0.77179 2.95405,-0.66933 1.28072,-1.44801 2.36261,-3.27853 3.44585,-4.34405 0,0 -1.47664,0.67622 -3.44585,2.31542 0,0 1.8708,-1.2499 1.77181,-4.33714 C 5.67915,2.70341 3.51263,1.2554 1.8385,0.29228 c 0,0 1.87084,-0.19119 3.54497,1.05873 1.67401,1.2567 2.16582,4.05036 2.26413,4.72644"
               style="fill:#000000;fill-opacity:1;fill-rule:nonzero;stroke:#000000;stroke-width:0.3985;stroke-linecap:butt;stroke-linejoin:miter;stroke-miterlimit:10;stroke-dasharray:none;stroke-opacity:1"
               id="path20" /><path
               d="m 6.66338,11.95834 c 0,0 0.3941,-1.05871 0.3941,-1.63924 0,0 -0.68982,-0.1913 -1.18163,0.96984 -0.4931,1.15431 -0.19738,1.53682 0.39341,0.86749 0,0 -0.78749,0.09563 0,-0.86749 0.78822,-0.96984 0.39412,0.6694 0.39412,0.6694"
               style="fill:#000000;fill-opacity:1;fill-rule:nonzero;stroke:#000000;stroke-width:0.3985;stroke-linecap:butt;stroke-linejoin:miter;stroke-miterlimit:10;stroke-dasharray:none;stroke-opacity:1"
               id="path22" /></g></g></g></g></g></svg>
