<?xml version="1.0" encoding="UTF-8" standalone="no"?>
<svg
   xmlns:dc="http://purl.org/dc/elements/1.1/"
   xmlns:cc="http://creativecommons.org/ns#"
   xmlns:rdf="http://www.w3.org/1999/02/22-rdf-syntax-ns#"
   xmlns:svg="http://www.w3.org/2000/svg"
   xmlns="http://www.w3.org/2000/svg"
   xmlns:sodipodi="http://sodipodi.sourceforge.net/DTD/sodipodi-0.dtd"
   xmlns:inkscape="http://www.inkscape.org/namespaces/inkscape"
   version="1.1"
   id="svg2"
   xml:space="preserve"
   width="273.33682"
   height="273.33682"
   viewBox="0 0 273.33682 273.33682"
   sodipodi:docname="vectorian061.pdf"><metadata
     id="metadata8"><rdf:RDF><cc:Work
         rdf:about=""><dc:format>image/svg+xml</dc:format><dc:type
           rdf:resource="http://purl.org/dc/dcmitype/StillImage" /></cc:Work></rdf:RDF></metadata><defs
     id="defs6"><clipPath
       clipPathUnits="userSpaceOnUse"
       id="clipPath24"><path
         d="M 0,0 H 205.00262 V 205.00262 H 0 Z"
         id="path22" /></clipPath></defs><sodipodi:namedview
     pagecolor="#ffffff"
     bordercolor="#666666"
     borderopacity="1"
     objecttolerance="10"
     gridtolerance="10"
     guidetolerance="10"
     inkscape:pageopacity="0"
     inkscape:pageshadow="2"
     inkscape:window-width="640"
     inkscape:window-height="480"
     id="namedview4" /><g
     id="g10"
     inkscape:groupmode="layer"
     inkscape:label="vectorian061"
     transform="matrix(1.3333333,0,0,-1.3333333,0,273.33682)"><g
       id="g12"
       transform="translate(72,133)"><g
         id="g14"
         transform="translate(-72,-133)"><g
           id="g16"><g
             id="g18"><g
               id="g20"
               clip-path="url(#clipPath24)"><path
                 d="m 0,3.83293 c 5.72276,-7.13606 24.4449,-4.32002 27.07213,8.49611 2.73863,13.37618 -5.11475,29.16838 -13.18207,43.68056 -8.0719,14.4962 -14.93144,28.06437 -5.45016,49.37665 1.17831,2.65603 2.51733,5.10406 3.97834,7.3601 1.68113,-4.06407 4.44057,-7.5041 7.8234,-9.85615 C 16.9948,96.45813 16.15408,89.46603 16.7151,83.52997 18.05411,69.43378 24.39659,62.9057 36.20366,52.93756 48.0137,42.98543 46.21867,24.00919 46.21867,24.00919 c 2.98516,4.30406 6.75,6.8161 10.37035,8.27211 0.83441,-3.52004 0.71712,-7.2161 -1.45552,-10.22414 -4.63207,-6.41608 0.3978,-11.39212 4.13905,-8.20808 0,0 5.64638,-2.89606 6.6995,1.69601 0.83358,3.63203 -4.59707,7.15208 -6.60511,13.93617 -0.28408,0.97602 -0.556,2.14403 -0.9216,3.47205 5.85947,1.85602 10.88454,1.15202 10.88454,1.15202 2.98413,-5.55208 8.47971,-6.8481 9.47112,-1.64804 1.0899,5.71208 -9.13532,3.79207 -9.13532,3.79207 -2.31712,2.78403 -3.71254,6.14407 -4.54056,9.44012 1.85784,0.38401 3.42185,0.848 4.68596,1.13601 6.91098,1.50402 12.60898,-1.55202 15.4026,0.92801 3.51696,3.13604 -1.74563,6.68809 -1.74563,6.68809 0.98244,4.80008 -5.80365,6.81609 -9.1929,-0.33601 -1.78594,-3.76006 -5.57029,-5.66407 -9.57033,-6.51209 -1.19861,6.22409 -0.54221,11.69615 -0.54221,11.69615 0,0 -9.13611,-8.88009 -25.77224,-3.31204 -14.32976,4.78406 -25.98302,26.08035 -16.8362,45.5526 0.06561,0.144 0.1391,0.256 0.2032,0.4 2.02503,-1.16802 4.22185,-1.96801 6.51016,-2.32003 8.86354,-1.34403 16.90264,4.04805 17.02294,12.92818 0.0296,2.27201 -0.42971,4.12805 -1.2016,5.58405 7.77659,2.10082 14.66118,2.18564 16.04249,2.17922 1.1483,-1.57282 2.43284,-3.12323 3.88434,-4.64325 6.37029,-6.68808 13.42828,-10.64014 19.46515,-12.99217 0.24162,-7.36008 -2.13441,-15.05618 -8.58371,-19.93625 -11.14223,-8.41611 -26.35674,-1.16801 -27.16754,6.8161 -0.80771,7.96808 3.19684,9.74411 3.19684,9.74411 -1.59383,-4.56006 1.12192,-7.66411 4.49076,-7.7121 3.36864,-0.04798 6.7908,3.88807 4.39846,8.20812 -3.05315,5.52006 -14.33769,4.17605 -13.8924,-8.08011 0.44373,-12.25617 19.23786,-20.78427 31.71914,-9.61612 5.67526,5.07205 8.30259,12.27215 8.16178,19.74425 7.1041,-2.41603 12.28656,-2.57604 12.28656,-2.57604 0.31041,-3.29603 3.07364,-5.90406 6.44968,-5.90406 3.55365,0 6.4321,2.88003 6.4321,6.43208 0,3.55205 -2.87845,6.43207 -6.4321,6.43207 0,0 -0.088,5.18406 -2.39522,12.32015 7.45449,-0.23998 14.7026,2.28805 19.85306,7.89452 11.32655,12.32974 3.05922,31.24039 -9.18732,31.85001 -12.24975,0.61281 -13.74578,-10.65294 -8.27052,-13.77939 4.28807,-2.45122 8.27052,0.91522 8.27052,4.28647 0,3.36803 -3.06564,6.12488 -7.6577,4.59366 0,0 1.83681,3.98085 9.80173,3.06243 7.9617,-0.91842 15.00499,-16.23062 6.43048,-27.25636 -4.96647,-6.37927 -12.70097,-8.65449 -20.05625,-8.3105 -2.26404,6.06728 -6.1233,13.17937 -12.71537,19.64186 -1.64482,1.61121 -3.32014,3.02722 -5.00177,4.28966 0.1376,2.67844 0.67201,8.92011 2.71214,15.7234 1.47043,-0.82562 3.34082,-1.33122 5.65927,-1.33122 8.88172,0 14.39539,7.9617 13.16817,16.84181 -0.3152,2.29444 -1.08963,4.50087 -2.22243,6.5425 0.1312,0.0624 0.25441,0.13599 0.38719,0.19679 19.60027,8.87851 40.73014,-3.06244 45.32538,-17.45622 5.33289,-16.71382 -3.67681,-25.72513 -3.67681,-25.72513 0,0 5.48805,0.58081 11.70413,-0.70242 -0.90242,-3.98885 -2.85922,-7.7457 -6.6513,-9.48172 -7.19686,-3.28963 -5.28326,-10.10733 -0.45759,-9.18891 0,0 3.47524,-5.30728 6.66089,-1.83523 2.52643,2.75684 -0.4608,8.49771 1.14882,15.39059 0.2928,1.25762 0.7792,2.81446 1.19202,4.66887 3.27844,-0.87681 6.62248,-2.31521 9.3729,-4.66887 0,0 -2.05603,-10.20013 3.67365,-9.18892 5.20807,0.92002 3.98087,6.4305 -1.5296,9.49614 0,0 -0.62563,5.02884 1.30721,10.86574 1.32002,-0.38722 2.49442,-0.67201 3.45124,-0.97124 6.76007,-2.09761 10.20334,-7.57926 13.85779,-6.79367 4.60805,0.99201 1.78401,6.6769 1.78401,6.6769 3.23203,3.69443 -1.68002,8.7953 -8.1569,4.24806 -3.04004,-2.12804 -6.7233,-2.19525 -10.24175,-1.31363 1.51204,3.60004 4.07686,7.33129 8.40813,10.25453 0,0 -18.98426,-1.53123 -28.78438,10.41132 -9.80013,11.94417 -16.23381,18.37625 -30.31879,19.90747 -6.03047,0.65282 -13.07698,0.056 -19.55226,-3.05284 -2.31042,3.31844 -5.64006,6.04648 -9.59691,7.7489 2.27362,1.43202 4.73926,2.73444 7.40648,3.87845 21.43709,9.18732 34.90767,2.14082 49.30304,-6.12486 14.39378,-8.26891 30.07239,-16.33782 43.48695,-13.7826 12.861,2.45124 15.92342,21.12989 8.88334,26.94916 0,0 5.20167,-17.25143 -5.51369,-22.96671 -9.1889,-4.89926 -22.9683,2.75684 -31.23718,6.7377 -8.26892,3.97924 -41.34455,30.31559 -74.72417,6.43049 -0.07521,-0.056 -0.1488,-0.11041 -0.2256,-0.16481 -1.21123,0.35519 -2.46404,0.6224 -3.75527,0.776 -10.10691,1.2272 -19.90844,-3.67685 -26.03202,-14.70099 -0.0016,-0.006 -0.0079,-0.0128 -0.0109,-0.016 0.3851,4.36808 0.19051,11.56176 -3.97046,17.47544 -5.81715,8.2673 -17.89543,5.84007 -26.33603,0.91681 -7.35029,-4.28644 -14.39248,-5.20807 -14.39248,-5.20807 0,0 1.22331,4.59688 -2.14554,9.49772 -3.20005,4.65288 -9.49532,3.98085 -11.63755,-0.3088 0,0 -3.82821,-10.03212 11.93615,-11.60334 0,0 -1.0141,-7.03208 -5.40227,-14.32338 -5.03706,-8.37451 -7.62929,-20.41468 0.55681,-26.34596 5.85798,-4.24484 13.05177,-4.53605 17.42534,-4.21126 -0.0079,-0.002 -0.01732,-0.008 -0.02352,-0.0112 -11.28433,-5.63046 -16.1425,-15.70259 -15.05639,-25.82432 0.139,-1.2928 0.38591,-2.55684 0.72662,-3.77284 -0.05641,-0.08 -0.11412,-0.14402 -0.16881,-0.20801 C -13.01326,82.10596 12.86736,48.66551 16.7346,40.3454 20.60185,32.0253 28.06754,18.13713 23.04329,9.017 17.18071,-1.6071 0,3.83293 0,3.83293 Z m 179.5894,140.38422 c 0,0 6.20809,4.53125 8.16332,3.02723 1.9584,-1.50563 -0.12002,-3.83525 -2.85126,-3.65284 0,0 5.57768,-0.78562 3.76324,-3.27045 -1.8128,-2.48802 -6.96327,2.65924 -9.0753,3.89606 z m -26.04993,-24.21472 c -3.06245,-0.30561 -0.92002,4.90086 -0.92002,4.90086 -1.22561,-2.44801 -4.28484,-3.06403 -4.59366,-0.61441 -0.30559,2.45283 6.7393,5.51367 6.7393,5.51367 0,-2.45122 1.83681,-9.49451 -1.22562,-9.80012 z m 15.6178,12.86256 c 5.20647,-2.45122 4.29443,-6.38887 2.14403,-6.12648 -3.13925,0.3856 -2.14403,6.12648 -2.14403,6.12648 z m -11.02255,19.96187 c 4.01126,-4.22246 8.12811,-6.18248 11.53455,-7.3345 -1.96323,-5.64968 -1.43042,-9.86892 -1.43042,-9.86892 -3.38883,2.32161 -6.56487,3.75526 -9.32332,4.63524 0.5664,3.36006 0.70242,7.54412 -0.78081,12.56818 z m -2.53763,6.26568 c -0.8096,1.57602 -1.78721,3.22083 -2.94404,4.92487 -0.0864,0.15679 -0.1664,0.31039 -0.24799,0.4608 10.12973,-9.82092 22.64987,-9.56332 22.64987,-9.56332 -2.16641,-2.59845 -3.65445,-5.19687 -4.68324,-7.6097 -4.55046,1.54081 -8.58571,4.42404 -10.24335,6.10246 -1.6896,1.71044 -3.21444,3.71365 -4.53125,5.68489 z m -4.20006,2.25283 -0.54399,2.44003 c 0.1104,-0.1728 0.21599,-0.33919 0.3264,-0.52321 0.90079,-1.88482 1.84001,-3.56964 2.80645,-5.07847 1.0672,-2.17922 2.05601,-4.56646 2.69442,-6.94408 0.54399,-2.04483 0.96003,-6.22249 0.3376,-10.44974 -4.89126,1.20482 -8.07211,0.6496 -8.07211,0.6496 5.20647,10.41293 2.45123,19.90587 2.45123,19.90587 z m -47.16378,-12.24976 c 0,1.86241 1.51199,3.36803 3.36962,3.36803 1.86242,0 3.37125,-1.50562 3.37125,-3.36803 0,-1.85922 -1.50883,-3.36806 -3.37125,-3.36806 -1.85763,0 -3.36962,1.50884 -3.36962,3.36806 z m -52.424,-52.25348 c 0.02841,1.85602 1.55623,3.34406 3.41725,3.31204 1.86254,-0.016 3.34683,-1.552 3.32335,-3.40803 -0.02962,-1.87204 -1.55614,-3.36004 -3.41635,-3.32805 -1.85863,0.032 -3.34775,1.55202 -3.32425,3.42404 z M 73.82674,49.3695 c 0,0 3.15794,6.99212 5.60327,6.6561 2.44443,-0.336 1.79002,-3.39202 -0.67812,-4.57605 0,0 5.23938,2.06402 4.89057,-0.99202 -0.35199,-3.05604 -7.36708,-1.136 -9.81572,-1.08803 z M 70.5673,35.01733 c 0,0 5.75637,0.91201 6.09388,-2.22403 0.2328,-2.16001 -3.71414,-3.02401 -6.09388,2.22403 z m -7.75611,12.24016 c -4.23786,-0.55999 -8.4113,-0.08 -10.44571,0.48 -2.36864,0.67201 -4.74379,1.69604 -6.9047,2.80003 -1.49684,0.97601 -3.17034,1.95204 -5.04378,2.86405 -0.1797,0.128 -0.34531,0.22399 -0.5157,0.33601 l 2.43123,-0.576 c 0,0 9.45322,-2.88004 19.93544,2.17602 0,0 -0.5984,-3.16803 0.54322,-8.08011 z M 59.06955,24.74521 c 1.21181,-2.12804 6.28517,-7.3441 3.77265,-9.13611 -2.50944,-1.77603 -3.21566,3.80803 -3.21566,3.80803 0.14542,-2.73604 -2.21541,-4.76805 -3.69144,-2.80003 -1.47891,1.98404 3.13445,8.12811 3.13445,8.12811 z m -8.31342,21.56827 c 5.00638,-1.55202 9.19074,-1.47202 12.56278,-0.96001 0.8374,-2.76804 2.22653,-5.95207 4.50624,-9.37613 0,0 -4.21575,0.59201 -9.89542,-1.296 -1.10022,3.42404 -3.00793,7.5681 -7.1736,11.63214 z M 39.1856,52.20155 c 0.15011,-0.08 0.30318,-0.17599 0.461,-0.25601 1.68912,-1.18402 3.31744,-2.17601 4.87827,-3.00802 1.95781,-1.34403 3.93913,-2.89605 5.62485,-4.60805 1.65414,-1.68004 4.48458,-5.7601 5.95959,-10.33614 -2.42481,-0.99202 -5.04147,-2.43203 -7.6705,-4.56006 0,0 0.429,12.51216 -9.25321,22.76828 z M 13.89165,191.97136 c -7.96099,0.3024 -11.02661,4.89928 -8.88141,7.9601 1.72954,2.47203 4.89848,2.45123 7.0422,0 2.14693,-2.44963 1.83921,-7.9601 1.83921,-7.9601 z M 56.78282,172.5119 c -3.61094,-9.37933 -4.61236,-18.66904 -4.61236,-18.66904 0,0 -8.25042,-1.0064 -19.99886,-5.96006 -6.21718,-0.85921 -16.67682,-1.38723 -22.4894,3.43203 -6.31097,5.23207 -4.79064,12.26896 -1.90951,18.64826 5.11417,4.07364 9.80803,2.26721 11.67984,1.43201 5.13607,-2.28643 3.25174,-8.62093 3.25174,-8.62093 -0.55312,4.60329 -6.65177,6.5217 -9.43292,4.72649 -2.77973,-1.80484 -3.49233,-9.14095 2.92505,-10.14894 6.41717,-1.00802 8.0039,2.95364 8.6453,5.08805 0.6424,2.13443 1.33442,7.94411 -4.75315,10.78413 -4.85137,2.26565 -8.99692,0.62241 -10.99066,-0.51519 1.07203,2.09283 2.19055,4.07207 3.10005,5.82887 3.14685,6.08649 2.92035,11.59215 2.92035,11.59215 0,0 5.20486,0 11.32972,3.06566 1.77042,0.888 3.76567,1.97921 5.87351,3.01922 -1.16724,-1.97761 -2.86405,-6.09927 -0.66562,-10.98414 2.75473,-6.12488 8.57521,-5.50887 10.71724,-4.90085 2.14392,0.6144 6.12527,2.14561 5.20636,8.5761 -0.9187,6.43208 -8.26882,5.82246 -10.10723,3.06564 -1.83663,-2.75844 0,-8.88171 4.59467,-9.49613 0,0 -6.3611,-1.79841 -8.57503,3.37125 -0.80641,1.88004 -2.55392,6.59689 1.59522,11.65935 6.41578,2.79045 13.47207,4.21605 18.61574,-2.16643 4.81448,-5.97127 4.04716,-16.66261 3.07995,-22.8275 z m -17.53143,14.493 c -0.66582,1.94562 0.16561,3.98886 1.85933,4.56805 1.68982,0.57282 3.59685,-0.53279 4.26105,-2.48004 0.66561,-1.94722 -0.16799,-3.99043 -1.85813,-4.56645 -1.69043,-0.57761 -3.60004,0.53122 -4.26225,2.47844 z M 16.0416,159.56134 c -1.93923,0.69122 -3.02034,2.61444 -2.42193,4.29445 0.6016,1.68323 2.65793,2.48965 4.59224,1.79683 1.93923,-0.68801 3.02355,-2.61282 2.42034,-4.29926 -0.60001,-1.68002 -2.65624,-2.48481 -4.59065,-1.79202 z m 69.8282,30.57961 c -14.9315,-12.31057 -18.64946,-26.00837 -17.23833,-37.7573 -8.03151,2.41121 -14.00969,1.91841 -14.00969,1.91841 0,0 1.22502,15.31221 9.49392,26.94916 6.3158,8.88973 15.33312,9.91853 21.7541,8.88973 z m 3.05124,-27.57315 c 0,0 6.73928,1.22561 5.20805,7.04647 -0.39039,1.47843 -1.1344,2.59523 -2.07042,3.37283 2.14722,3.15844 4.83687,5.99048 8.21132,8.13132 1.69921,-2.77763 2.55362,-6.28167 1.51361,-10.58574 -2.14244,-8.88172 -9.80013,-10.10734 -12.86256,-7.96488 z m -3.98096,5.82247 c 0,2.02721 1.64652,3.67523 3.67375,3.67523 2.03043,0 3.67685,-1.64802 3.67685,-3.67523 0,-2.03044 -1.64642,-3.67686 -3.67685,-3.67686 -2.02723,0 -3.67375,1.64642 -3.67375,3.67686 z m -3.18085,-22.2563 c -3.66833,2.48964 -7.3201,4.23685 -10.70123,5.45287 -0.075,0.59361 -0.1485,1.18402 -0.2048,1.79683 -0.98751,11.10893 4.40007,25.99553 17.75103,36.16366 1.35842,-0.376 2.51523,-0.82081 3.37924,-1.25282 2.25284,-1.12642 5.00007,-2.92485 7.08487,-5.47687 -3.36322,-2.07043 -6.48806,-4.91046 -9.13929,-8.72171 -2.52004,0.69602 -5.42257,-0.32161 -6.82578,-2.95043 -1.47043,-2.75365 -1.16002,-6.4897 1.22402,-9.04653 -1.35044,-4.53766 -2.24805,-9.82733 -2.56806,-15.965 z m 16.52033,-24.96512 c -4.22727,0.6144 -8.17131,2.06083 -11.19535,4.03845 -7.56208,4.95687 -13.11367,11.92176 -15.35581,22.38749 5.81867,-2.40802 12.06126,-6.22089 17.19264,-12.27857 4.41606,-5.21125 7.37287,-9.98732 9.35852,-14.14737 z m 2.28163,-21.38267 c 0.0336,0.47999 0.11519,0.89599 0.22561,1.26401 0.024,0.08 0.0384,0.16 0.0704,0.23999 0.0112,0.016 0.0224,0.048 0.0336,0.08 0.61282,1.40801 2.01603,2.40003 3.64964,2.40003 2.19844,0 3.98085,-1.77603 3.98085,-3.98405 0,-2.19203 -1.78241,-3.98406 -3.98085,-3.98406 -2.19682,0 -3.97923,1.79203 -3.97923,3.98406 z m -23.57651,23.65311 c -4.24934,4.60646 -11.69725,9.5281 -20.67226,11.64334 -3.11175,9.07211 -3.07035,16.61622 -3.07035,16.61622 0,0 7.2565,-0.0304 16.04261,-3.16965 1.98503,-9.01773 6.81549,-16.55221 11.36895,-20.87068 5.29937,-5.02885 11.98745,-8.0641 18.69633,-8.8945 2.57924,-6.25769 2.88165,-10.83375 2.83844,-12.99377 -1.83363,-0.72002 -3.25124,-2.25603 -3.81444,-4.16005 -2.23524,0 -6.7153,0.43199 -12.75068,3.02403 -0.74239,6.70409 -3.68325,13.44019 -8.6386,18.80506 z m -19.76286,9.1873 c 10.40333,-2.39202 17.28312,-8.03211 22.12379,-15.65619 1.93681,-3.04004 3.33045,-7.0081 3.88564,-11.23216 -4.13245,2.03204 -8.86551,5.05607 -14.01546,9.53613 -5.92669,5.17128 -9.64862,11.46097 -11.99397,17.35222 z M 23.26048,104.55423 c 2.19695,3.37604 5.06098,6.03209 8.2377,8.11211 0.76563,-0.94402 1.87484,-1.71204 3.35135,-2.12804 5.79558,-1.6 7.11438,5.12007 7.11438,5.12007 2.10384,-3.10402 0.77103,-10.73613 -8.13768,-12.75215 -4.32187,-0.992 -7.8126,-0.08 -10.56575,1.64801 z m 12.83777,7.80811 c -2.02902,0.032 -3.65175,1.69601 -3.62204,3.72806 0.0282,2.032 1.69402,3.64962 3.72424,3.62243 2.02885,-0.0304 3.65095,-1.70244 3.62264,-3.71845 -0.028,-2.03201 -1.69521,-3.66406 -3.72484,-3.63204 z m -21.10509,3.96804 c 10.35175,13.21778 25.30814,18.39864 36.4038,17.25943 0.71859,-0.0736 1.41231,-0.16639 2.10292,-0.26561 1.1,-3.38884 2.69382,-7.00009 4.98598,-10.60174 -6.15319,-0.20159 -11.47507,-1.05762 -16.05953,-2.41602 -2.52362,2.35521 -6.21097,2.69924 -8.95712,1.28162 -2.70082,-1.39363 -3.73984,-4.36166 -2.99703,-6.92169 -3.72415,-2.62404 -6.56788,-5.72807 -8.68042,-9.05613 -2.63923,2.14403 -4.46416,5.00808 -5.59236,7.32811 -0.42032,0.87999 -0.84831,2.03202 -1.20624,3.39203 z m 8.63292,24.38112 c 11.75014,8.1057 27.62848,10.29614 27.62848,10.29614 0,0 -0.78492,-6.6129 1.5282,-15.253 -11.80655,1.68802 -25.70503,-1.76323 -38.34419,-16.67383 -0.94382,6.43529 0.21092,15.43699 9.18751,21.63069 z"
                 style="fill:#000000;fill-opacity:1;fill-rule:nonzero;stroke:#000000;stroke-width:0.3985;stroke-linecap:butt;stroke-linejoin:miter;stroke-miterlimit:10;stroke-dasharray:none;stroke-opacity:1"
                 id="path26" /></g></g></g></g></g></g></svg>
