<?xml version="1.0" encoding="UTF-8" standalone="no"?>
<svg
   xmlns:dc="http://purl.org/dc/elements/1.1/"
   xmlns:cc="http://creativecommons.org/ns#"
   xmlns:rdf="http://www.w3.org/1999/02/22-rdf-syntax-ns#"
   xmlns:svg="http://www.w3.org/2000/svg"
   xmlns="http://www.w3.org/2000/svg"
   xmlns:sodipodi="http://sodipodi.sourceforge.net/DTD/sodipodi-0.dtd"
   xmlns:inkscape="http://www.inkscape.org/namespaces/inkscape"
   version="1.1"
   id="svg2"
   xml:space="preserve"
   width="604.00775"
   height="29.333679"
   viewBox="0 0 604.00775 29.333679"
   sodipodi:docname="vectorian085.pdf"><metadata
     id="metadata8"><rdf:RDF><cc:Work
         rdf:about=""><dc:format>image/svg+xml</dc:format><dc:type
           rdf:resource="http://purl.org/dc/dcmitype/StillImage" /></cc:Work></rdf:RDF></metadata><defs
     id="defs6"><clipPath
       clipPathUnits="userSpaceOnUse"
       id="clipPath24"><path
         d="M 0,0 H 453.00583 V 22.00026 H 0 Z"
         id="path22" /></clipPath></defs><sodipodi:namedview
     pagecolor="#ffffff"
     bordercolor="#666666"
     borderopacity="1"
     objecttolerance="10"
     gridtolerance="10"
     guidetolerance="10"
     inkscape:pageopacity="0"
     inkscape:pageshadow="2"
     inkscape:window-width="640"
     inkscape:window-height="480"
     id="namedview4" /><g
     id="g10"
     inkscape:groupmode="layer"
     inkscape:label="vectorian085"
     transform="matrix(1.3333333,0,0,-1.3333333,0,29.333679)"><g
       id="g12"
       transform="translate(72,-50)"><g
         id="g14"
         transform="translate(-72,50)"><g
           id="g16"><g
             id="g18"><g
               id="g20"
               clip-path="url(#clipPath24)"><path
                 d="m 452.2631,19.68163 c -0.29998,0.11732 -7.56399,3.01684 -23.48989,2.36323 -11.88995,-0.48608 -21.21047,-3.11743 -31.0707,-5.89978 l -10.47703,-2.84923 c -14.09068,-3.51974 -21.65468,-2.06152 -33.28313,2.51403 -5.27626,2.09513 -9.58203,3.38565 -13.30627,3.90527 -1.17322,0.5363 -7.88251,3.23474 -18.97794,1.20669 C 311.02689,18.96092 303.2835,10.12813 294.25969,9.156 c -9.02223,-0.9721 -16.79584,4.44155 -28.19968,9.33562 -15.87401,6.83831 -27.05325,3.50295 -34.77813,0.15081 -1.78844,-0.62011 -3.38236,-1.55873 -4.69967,-2.81574 -1.32412,1.25701 -2.92645,2.19563 -4.72816,2.83254 -7.7267,3.33534 -18.89755,6.65388 -34.75305,-0.16761 C 175.69547,13.59755 167.92525,8.1839 158.89963,9.156 c -9.02552,0.97213 -16.76052,9.82163 -27.39675,11.76584 -10.63633,1.92754 -17.56683,-0.9721 -17.56683,-0.9721 0,0 -0.015,-0.0167 -0.0402,-0.06699 C 109.865,19.49722 105.15524,18.15643 99.22197,15.80988 87.59521,11.23433 80.03113,9.77611 65.94054,13.29585 L 55.4618,16.14508 C 45.59998,18.92743 36.28445,21.55878 24.3945,22.04486 8.4686,22.69847 1.2029,19.79895 0.8995,19.68163 0.16039,19.37993 -0.19328,18.54192 0.10669,17.78772 0.40839,17.05022 1.2532,16.6982 1.9973,16.9999 c 0.06871,0.0168 7.0797,2.76554 22.2782,2.14535 11.54794,-0.46932 20.70427,-3.05035 30.39859,-5.7991 l 10.56253,-2.86612 c 14.86331,-3.70406 22.82622,-2.17883 35.04967,2.64822 12.21005,4.81025 18.70144,5.17899 24.8123,1.40782 l 1.59733,-1.0056 C 134.13263,8.85431 146.57898,1.0439 161.87297,0.1388 c 16.98181,-1.0224 25.66214,3.63703 36.96707,10.86083 9.61893,6.13437 20.00546,7.5087 25.32692,3.63706 -0.68889,-1.27382 -3.26663,-5.63158 -1.94761,-8.53113 0.404,-0.88831 1.30401,-2.02801 3.28674,-2.41353 2.70854,-0.51961 4.90416,0.68721 5.73047,3.11745 0.80792,2.39683 0.1257,5.68185 -2.04142,7.5423 5.24936,4.12304 15.3443,2.89952 25.13082,-3.35215 11.30494,-7.2238 19.98524,-11.88323 36.96709,-10.86083 15.2906,0.9051 27.74034,8.71551 35.17535,13.39167 l 1.5973,1.0056 c 6.1109,3.77117 12.60228,3.40243 24.81234,-1.40782 12.22346,-4.82705 20.18475,-6.35228 35.04636,-2.64822 l 10.56413,2.86612 c 9.69262,2.74875 18.85234,5.32978 30.40197,5.7991 15.19512,0.62019 22.2078,-2.12855 22.27982,-2.14535 0.7392,-0.3017 1.58731,0.05032 1.8856,0.78782 0.30001,0.7542 -0.052,1.59221 -0.79282,1.89391 z M 148.39409,5.78706 c -8.4037,2.83254 -15.35929,7.1903 -20.15456,10.19042 l -1.61401,1.02242 c -2.43533,1.50843 -4.89578,2.43034 -7.61269,2.81583 6.32887,1.97773 15.50859,-1.0727 21.99658,-5.34666 3.03872,-1.99454 8.3635,-5.22927 14.27327,-6.98918 -0.0435,-2.44704 -4.44984,-2.07823 -6.88859,-1.69283 z m 48.88394,7.64289 C 186.45238,6.52458 178.15088,2.0662 162.04727,3.02162 c -1.13632,0.067 -2.25093,0.20111 -3.35544,0.33519 3.31025,0.60344 4.93267,1.34084 5.84778,2.29625 1.35253,0.2514 4.67786,1.59221 5.96167,2.21231 10.47544,4.99468 25.14092,12.88889 33.52114,12.72128 4.96116,-0.08381 7.4266,-0.6871 8.62001,-1.17323 -4.78687,-0.62009 -10.08822,-2.61462 -15.3644,-5.98347 z M 228.48782,7.7481 c -0.3553,-1.05593 -1.15141,-1.44144 -2.43862,-1.20673 -0.81962,0.16758 -1.06432,0.486 -1.18831,0.77092 -0.1207,0.25138 -0.1727,0.58661 -0.1727,0.95539 0,1.19002 0.5531,2.81574 1.18161,4.12307 0,0 2.60792,-1.42461 2.79733,-3.48615 0.0369,-0.40231 -0.062,-0.8045 -0.17931,-1.1565 z m 62.63251,-4.72648 c -16.10681,-0.95542 -24.40671,3.50296 -35.23405,10.40833 -5.27446,3.38555 -10.57753,5.36338 -15.36768,5.98347 1.1916,0.48613 3.65714,1.08942 8.6166,1.17323 8.38021,0.16761 23.04739,-7.7266 33.52273,-12.72128 1.28561,-0.6201 2.61133,-1.0224 3.96394,-1.29051 0.91343,-0.9386 3.39395,-3.00012 7.83722,-3.21805 -1.09952,-0.13408 -2.21074,-0.26819 -3.33876,-0.33519 z M 326.5388,16.9999 324.92809,15.97748 C 320.1329,12.97736 313.18402,8.6196 304.7836,5.78706 c -2.43193,-0.3854 -6.86517,-0.77092 -6.90367,1.69283 5.90478,1.75991 11.23125,4.99464 14.26997,6.98918 5.24939,3.45263 12.71117,5.06166 19.04495,4.67618 -1.59722,-0.50282 -3.13253,-1.20675 -4.65605,-2.14535 z"
                 style="fill:#000000;fill-opacity:1;fill-rule:nonzero;stroke:#000000;stroke-width:0.3985;stroke-linecap:butt;stroke-linejoin:miter;stroke-miterlimit:10;stroke-dasharray:none;stroke-opacity:1"
                 id="path26" /></g></g></g></g></g></g></svg>
