<?xml version="1.0" encoding="UTF-8" standalone="no"?>
<svg
   xmlns:dc="http://purl.org/dc/elements/1.1/"
   xmlns:cc="http://creativecommons.org/ns#"
   xmlns:rdf="http://www.w3.org/1999/02/22-rdf-syntax-ns#"
   xmlns:svg="http://www.w3.org/2000/svg"
   xmlns="http://www.w3.org/2000/svg"
   xmlns:sodipodi="http://sodipodi.sourceforge.net/DTD/sodipodi-0.dtd"
   xmlns:inkscape="http://www.inkscape.org/namespaces/inkscape"
   version="1.1"
   id="svg2"
   xml:space="preserve"
   width="305.76001"
   height="105.33333"
   viewBox="0 0 305.76001 105.33333"
   sodipodi:docname="vectorian170.pdf"><metadata
     id="metadata8"><rdf:RDF><cc:Work
         rdf:about=""><dc:format>image/svg+xml</dc:format><dc:type
           rdf:resource="http://purl.org/dc/dcmitype/StillImage" /></cc:Work></rdf:RDF></metadata><defs
     id="defs6" /><sodipodi:namedview
     pagecolor="#ffffff"
     bordercolor="#666666"
     borderopacity="1"
     objecttolerance="10"
     gridtolerance="10"
     guidetolerance="10"
     inkscape:pageopacity="0"
     inkscape:pageshadow="2"
     inkscape:window-width="640"
     inkscape:window-height="480"
     id="namedview4" /><g
     id="g10"
     inkscape:groupmode="layer"
     inkscape:label="vectorian170"
     transform="matrix(1.3333333,0,0,-1.3333333,0,105.33333)"><g
       id="g12"
       transform="translate(72,7)"><g
         id="g14"
         transform="translate(-72,-7)"><g
           id="g16"><g
             id="g18"><path
               d="m 14.03357,8.04329 c 0,0 8.7563,4.62675 21.71257,2.06401 12.95556,-2.5619 19.36296,-2.49022 22.2085,0.85524 2.84812,3.34543 -3.55785,6.47706 -7.40259,1.84961 0,0 3.06193,2.56404 5.76675,1.70892 2.70545,-0.85382 2.06474,-4.27095 -1.78001,-4.91167 -3.84336,-0.64 -8.68532,0.5703 -15.37689,1.63723 -6.6915,1.0682 -18.15064,0.9965 -25.12833,-3.20334"
               style="fill:#000000;fill-opacity:1;fill-rule:nonzero;stroke:#000000;stroke-width:0.3985;stroke-linecap:butt;stroke-linejoin:miter;stroke-miterlimit:10;stroke-dasharray:none;stroke-opacity:1"
               id="path20" /><path
               d="m 4.99234,29.39937 c 0,0 14.73621,-7.90122 24.84433,-22.9216 0,0 -7.90121,16.15831 -24.84433,22.9216"
               style="fill:#000000;fill-opacity:1;fill-rule:nonzero;stroke:#000000;stroke-width:0.3985;stroke-linecap:butt;stroke-linejoin:miter;stroke-miterlimit:10;stroke-dasharray:none;stroke-opacity:1"
               id="path22" /><path
               d="M 1.6579,19.88414 C 4.03613,19.09933 7.594,19.49205 7.594,19.49205 -0.40279,23.95699 -0.7224,20.66826 1.6579,19.88414 M 47.9183,0.42618 C 32.6124,5.33844 30.33528,0 30.33528,0 19.15823,14.16447 8.4813,19.00572 8.4813,19.00572 c -6.9047,-0.4268 -9.82462,1.49454 -7.9019,3.13236 1.92272,1.63652 9.1122,-2.06545 9.1122,-2.06545 6.406,2.42204 9.18183,5.12677 8.47011,7.47431 -0.7117,2.35102 -4.55435,1.71032 -4.55435,1.71032 2.49024,0.99511 6.47708,-0.0724 5.12467,-3.55925 C 17.37971,22.20847 10.04672,19.64644 10.04672,19.64644 19.44304,14.37897 30.33528,0.9255 30.33528,0.9255 34.96204,5.33844 43.64665,2.56271 43.64665,2.56271 33.68132,7.47427 33.11241,17.22581 33.11241,17.22581 35.95995,6.05016 47.9183,0.42618 47.9183,0.42618"
               style="fill:#000000;fill-opacity:1;fill-rule:nonzero;stroke:#000000;stroke-width:0.3985;stroke-linecap:butt;stroke-linejoin:miter;stroke-miterlimit:10;stroke-dasharray:none;stroke-opacity:1"
               id="path24" /></g></g></g></g></g></svg>
