<?xml version="1.0" encoding="UTF-8" standalone="no"?>
<svg
   xmlns:dc="http://purl.org/dc/elements/1.1/"
   xmlns:cc="http://creativecommons.org/ns#"
   xmlns:rdf="http://www.w3.org/1999/02/22-rdf-syntax-ns#"
   xmlns:svg="http://www.w3.org/2000/svg"
   xmlns="http://www.w3.org/2000/svg"
   xmlns:sodipodi="http://sodipodi.sourceforge.net/DTD/sodipodi-0.dtd"
   xmlns:inkscape="http://www.inkscape.org/namespaces/inkscape"
   version="1.1"
   id="svg2"
   xml:space="preserve"
   width="62.973331"
   height="20.200001"
   viewBox="0 0 62.973331 20.200001"
   sodipodi:docname="vectorian186.pdf"><metadata
     id="metadata8"><rdf:RDF><cc:Work
         rdf:about=""><dc:format>image/svg+xml</dc:format><dc:type
           rdf:resource="http://purl.org/dc/dcmitype/StillImage" /></cc:Work></rdf:RDF></metadata><defs
     id="defs6" /><sodipodi:namedview
     pagecolor="#ffffff"
     bordercolor="#666666"
     borderopacity="1"
     objecttolerance="10"
     gridtolerance="10"
     guidetolerance="10"
     inkscape:pageopacity="0"
     inkscape:pageshadow="2"
     inkscape:window-width="640"
     inkscape:window-height="480"
     id="namedview4" /><g
     id="g10"
     inkscape:groupmode="layer"
     inkscape:label="vectorian186"
     transform="matrix(1.3333333,0,0,-1.3333333,0,20.2)"><g
       id="g12"
       transform="translate(72,-56.855)"><g
         id="g14"
         transform="translate(-71.67,56.855)"><g
           id="g16"><g
             id="g18"><path
               d="m 21.58376,9.5999 c 0,0 -1.37702,-1.32301 -1.48491,-3.21294 -0.1086,-1.88861 1.26901,-2.77923 2.32161,-2.10511 1.05324,0.67619 1.16113,3.02372 -0.8367,5.31805 M 39.15788,8.5548 c 0,0 -1.81201,0.2589 -2.62214,-0.68021 -0.80869,-0.93851 1.63523,-2.05594 2.62214,0.68021 m 0.11481,0.32379 c 0,0 -0.1633,2.05653 -5.41917,2.54704 -5.25448,0.48971 -9.49742,-1.53482 -9.66132,-3.59134 -0.16261,-2.05664 3.29694,-3.36185 7.11569,-3.78676 3.81944,-0.4241 8.91141,1.20831 9.79183,3.75397 0,0 -0.22811,0.29439 -1.72873,0.68638 0,0 -0.52249,-2.0572 -2.38301,-1.8612 -1.86065,0.196 -1.24044,2.44792 2.28471,2.25191 M 6.71498,7.87459 C 5.90565,8.8137 4.09222,8.5548 4.09222,8.5548 5.07985,5.81865 7.52509,6.93608 6.71498,7.87459 M 6.26357,6.62668 C 4.40294,6.43068 3.88113,8.48788 3.88113,8.48788 2.37921,8.09589 2.15042,7.8015 2.15042,7.8015 3.03214,5.25584 8.12408,3.62343 11.94286,4.04753 c 3.81942,0.42491 7.27897,1.73012 7.11576,3.78676 -0.164,2.05652 -4.40625,4.08105 -9.66142,3.59134 C 4.14203,10.93512 3.97884,8.87859 3.97884,8.87859 7.50389,9.0746 8.12408,6.82268 6.26357,6.62668 m 15.67669,3.58993 c 4.47176,4.92867 12.46857,4.56946 16.22251,2.57845 3.75387,-1.99034 3.32905,-4.63437 3.32905,-4.63437 C 43.15634,7.34387 43.22185,5.71275 43.22185,5.71275 43.58115,3.06813 40.70831,0 34.44162,0 c -6.26666,0 -9.95503,1.50192 -9.95503,1.50192 0,0 2.93695,-1.01222 8.38823,-1.24034 5.45045,-0.2281 9.69412,1.79503 9.95501,4.43897 0.26162,2.64393 -1.50131,2.93834 -1.50131,2.93834 C 39.56639,3.55783 33.2989,3.06813 33.2989,3.06813 c -3.78663,-0.293 -9.3348,1.46982 -9.3348,4.60356 0,3.13303 5.09185,4.99227 10.24943,4.33995 5.15746,-0.65162 5.22235,-3.16584 5.22235,-3.16584 1.01152,-0.16251 1.63105,-0.42411 1.63105,-0.42411 0.1967,3.13295 -4.79757,5.28787 -10.54245,4.73267 C 24.7803,12.59975 22.10347,9.9557 22.10347,9.9557 c 0,0 1.43642,-1.85981 1.56693,-4.27575 0.13108,-2.41512 -1.95824,-2.64392 -1.95824,-2.64392 h -0.17281 c 0,0 -2.08941,0.2288 -1.95891,2.64392 0.13041,2.41594 1.56682,4.27575 1.56682,4.27575 0,0 -2.67604,2.64405 -8.4203,3.19866 C 6.98137,13.70956 1.9885,11.55464 2.18382,8.42169 c 0,0 0.61949,0.2616 1.63181,0.42411 0,0 0.0655,2.51422 5.22238,3.16584 5.15675,0.65232 10.24872,-1.20692 10.24872,-4.33995 0,-3.13374 -5.54816,-4.89656 -9.33423,-4.60356 0,0 -6.26807,0.4897 -8.02959,4.57076 0,0 -1.76283,-0.29441 -1.50122,-2.93834 0.2609,-2.64394 4.50386,-4.66707 9.95503,-4.43897 5.45046,0.22812 8.38891,1.24034 8.38891,1.24034 C 18.76563,1.50192 15.07658,0 8.8099,0 2.54242,0 -0.3297,3.06813 0.02959,5.71275 c 0,0 0.06559,1.63112 1.73013,2.44794 0,0 -0.42422,2.64403 3.32903,4.63437 3.75385,1.99101 11.75004,2.35022 16.22181,-2.57845 l 0.2732,-0.319 z"
               style="fill:#000000;fill-opacity:1;fill-rule:nonzero;stroke:#000000;stroke-width:0.3985;stroke-linecap:butt;stroke-linejoin:miter;stroke-miterlimit:10;stroke-dasharray:none;stroke-opacity:1"
               id="path20" /></g></g></g></g></g></svg>
