<?xml version="1.0" encoding="UTF-8" standalone="no"?>
<svg
   xmlns:dc="http://purl.org/dc/elements/1.1/"
   xmlns:cc="http://creativecommons.org/ns#"
   xmlns:rdf="http://www.w3.org/1999/02/22-rdf-syntax-ns#"
   xmlns:svg="http://www.w3.org/2000/svg"
   xmlns="http://www.w3.org/2000/svg"
   xmlns:sodipodi="http://sodipodi.sourceforge.net/DTD/sodipodi-0.dtd"
   xmlns:inkscape="http://www.inkscape.org/namespaces/inkscape"
   version="1.1"
   id="svg2"
   xml:space="preserve"
   width="64.000809"
   height="64.000809"
   viewBox="0 0 64.000808 64.000809"
   sodipodi:docname="vectorian032.pdf"><metadata
     id="metadata8"><rdf:RDF><cc:Work
         rdf:about=""><dc:format>image/svg+xml</dc:format><dc:type
           rdf:resource="http://purl.org/dc/dcmitype/StillImage" /></cc:Work></rdf:RDF></metadata><defs
     id="defs6"><clipPath
       clipPathUnits="userSpaceOnUse"
       id="clipPath24"><path
         d="M 0,0 H 48.00061 V 48.00061 H 0 Z"
         id="path22" /></clipPath></defs><sodipodi:namedview
     pagecolor="#ffffff"
     bordercolor="#666666"
     borderopacity="1"
     objecttolerance="10"
     gridtolerance="10"
     guidetolerance="10"
     inkscape:pageopacity="0"
     inkscape:pageshadow="2"
     inkscape:window-width="640"
     inkscape:window-height="480"
     id="namedview4" /><g
     id="g10"
     inkscape:groupmode="layer"
     inkscape:label="vectorian032"
     transform="matrix(1.3333333,0,0,-1.3333333,0,64.000812)"><g
       id="g12"
       transform="translate(72,-24)"><g
         id="g14"
         transform="translate(-72,24)"><g
           id="g16"><g
             id="g18"><g
               id="g20"
               clip-path="url(#clipPath24)"><path
                 d="m 11.19923,40.70291 c 0,0 -8.15211,-3.71525 -9.15532,-10.97934 C 0.89508,21.39706 4.19275,13.18565 12.36884,12.01924 13.81207,3.71193 22.27138,0.34389 30.64268,1.68152 c 7.24329,1.16002 10.78093,9.39052 10.78093,9.39052 6.6097,-1.39043 5.56487,-11.12813 5.56487,-11.12813 0,0 5.21928,11.47533 -9.7361,15.30107 0,0 -1.63203,-8.40181 -10.08495,-10.43544 -6.76168,-1.62561 -11.52174,2.04964 -13.01937,7.0369 1.89602,-0.05761 8.18251,0.28959 13.71537,6.87539 2.95525,3.51845 4.03046,7.75049 4.20488,11.73615 4.53283,0.0016 9.95211,-1.16001 16.31059,-4.08486 L 47.96771,48.01501 26.34982,47.9846 c 2.94565,-6.05928 4.18404,-11.24334 4.27207,-15.61459 -2.27364,-0.1344 -6.37769,-0.79681 -10.75855,-3.56326 -6.29127,-3.97124 -8.1617,-8.5777 -7.7297,-14.86109 -4.95847,1.41132 -8.53611,6.22098 -6.88649,12.36666 2.25442,8.39692 10.21454,10.30734 10.21454,10.30734 -4.14567,14.87059 -15.50898,9.40652 -15.50898,9.40652 0,0 9.71529,1.25442 11.24652,-5.32327 z m 18.92183,2.71204 12.52018,0.1696 0.34881,-13.21457 C 38.29237,31.9348 32.4683,32.3716 32.4683,32.3716 c 0,0 -0.1408,0.0128 -0.38241,0.0208 -0.12159,5.07046 -1.50561,9.45613 -1.96483,11.02255 z M 13.95126,18.02582 c 1.17762,5.18088 6.50728,11.79054 16.62583,12.38896 -0.60321,-10.00812 -7.4673,-15.2706 -12.62739,-16.56191 -1.4176,-0.35202 -2.83202,-0.42562 -4.18243,-0.25602 -0.20321,1.43854 -0.15201,2.94255 0.18399,4.42897 z"
                 style="fill:#000000;fill-opacity:1;fill-rule:nonzero;stroke:#000000;stroke-width:0.3985;stroke-linecap:butt;stroke-linejoin:miter;stroke-miterlimit:10;stroke-dasharray:none;stroke-opacity:1"
                 id="path26" /></g></g></g></g></g></g></svg>
