<?xml version="1.0" encoding="UTF-8" standalone="no"?>
<svg
   xmlns:dc="http://purl.org/dc/elements/1.1/"
   xmlns:cc="http://creativecommons.org/ns#"
   xmlns:rdf="http://www.w3.org/1999/02/22-rdf-syntax-ns#"
   xmlns:svg="http://www.w3.org/2000/svg"
   xmlns="http://www.w3.org/2000/svg"
   xmlns:sodipodi="http://sodipodi.sourceforge.net/DTD/sodipodi-0.dtd"
   xmlns:inkscape="http://www.inkscape.org/namespaces/inkscape"
   version="1.1"
   id="svg2"
   xml:space="preserve"
   width="40.029911"
   height="39.549774"
   viewBox="0 0 40.029911 39.549774"
   sodipodi:docname="vectorian171.pdf"><metadata
     id="metadata8"><rdf:RDF><cc:Work
         rdf:about=""><dc:format>image/svg+xml</dc:format><dc:type
           rdf:resource="http://purl.org/dc/dcmitype/StillImage" /></cc:Work></rdf:RDF></metadata><defs
     id="defs6" /><sodipodi:namedview
     pagecolor="#ffffff"
     bordercolor="#666666"
     borderopacity="1"
     objecttolerance="10"
     gridtolerance="10"
     guidetolerance="10"
     inkscape:pageopacity="0"
     inkscape:pageshadow="2"
     inkscape:window-width="640"
     inkscape:window-height="480"
     id="namedview4" /><g
     id="g10"
     inkscape:groupmode="layer"
     inkscape:label="vectorian171"
     transform="matrix(1.3333333,0,0,-1.3333333,-2.8258719,40.196262)"><g
       id="g12"
       transform="translate(72,-41.006)"><g
         id="g14"
         transform="translate(-69.685,41.691)"><g
           id="g16"><g
             id="g18"><path
               d="m 6.94418,8.51439 c 0,0 8.4524,-3.16232 17.07902,0.5177 0,0 -7.4177,-5.92316 -17.07902,-0.5177"
               style="fill:#000000;fill-opacity:1;fill-rule:nonzero;stroke:#000000;stroke-width:0.3985;stroke-linecap:butt;stroke-linejoin:miter;stroke-miterlimit:10;stroke-dasharray:none;stroke-opacity:1"
               id="path20" /><path
               d="m 2.86041,25.07631 c 0,0 3.85356,-10.58064 1.55382,-18.40193 0,0 1.78133,2.18493 1.43643,7.47569 -0.34421,5.28996 -2.99025,10.92624 -2.99025,10.92624"
               style="fill:#000000;fill-opacity:1;fill-rule:nonzero;stroke:#000000;stroke-width:0.3985;stroke-linecap:butt;stroke-linejoin:miter;stroke-miterlimit:10;stroke-dasharray:none;stroke-opacity:1"
               id="path22" /><path
               d="M 8.11829,1.8344 C 9.1715,1.2334 10.3265,1.2566 10.3265,1.2566 10.45082,1.73401 10.4774,2.98804 8.36829,3.46623 6.26047,3.94223 4.02634,3.08913 4.37804,2.33511 4.72984,1.58311 7.11357,1.2067 7.36488,1.76 7.6149,2.31052 6.88818,2.66292 6.88818,2.66292 8.5199,2.93823 8.11829,1.8344 8.11829,1.8344 M 3.85072,2.83981 C 4.55293,4.21883 7.64087,3.89243 7.64087,3.89243 11.65634,3.44164 10.70282,1.2067 10.70282,1.2067 17.2025,0.30379 18.50703,1.1822 18.50703,1.1822 c 0,0 -5.06938,1.53061 -7.20169,2.30922 C 9.1715,4.26875 5.75847,5.69966 2.89732,4.69563 0.03749,3.69223 -0.54028,2.0865 2.94713,0.90689 6.43607,-0.2727 9.524,0.8803 9.524,0.8803 8.74461,1.1323 7.71529,1.58311 7.71529,1.58311 6.81168,0.75598 3.14862,1.4581 3.85072,2.83981 m 21.5528,4.63846 c 0,0 -0.11542,-3.50662 -8.51112,-4.54146 0,0 5.97988,-2.81813 9.77542,-1.09349 3.79625,1.72602 2.47393,5.05986 -1.2643,5.63495 M 19.36565,24.3291 c -1.49654,-1.26633 -6.67112,-0.97941 -9.71944,0.28691 -3.04765,1.26421 -0.517,3.67945 6.26879,3.39253 6.78588,-0.2875 10.23582,-3.04834 7.93539,-4.88836 -2.30042,-1.84012 -9.02822,-2.12692 -13.80118,-1.14951 -4.77367,0.9767 -9.77611,3.27713 -4.37135,5.80696 5.40678,2.53133 14.95269,1.43924 18.74823,-0.40159 3.79567,-1.84003 2.70274,-1.89812 1.32241,-7.82131 C 24.36879,13.63156 25.34682,7.82529 25.34682,7.82529 29.08296,7.59439 31.38338,3.91423 27.93416,1.6138 24.48279,-0.6859 18.96333,1.0954 18.96333,1.0954 17.52562,-0.28358 10.27942,0.8646 10.27942,0.8646 9.53221,0.40628 7.51927,-0.34158 4.41423,0.17468 1.3086,0.6931 -2.31482,2.76404 1.94101,4.94905 6.19626,7.13397 13.09685,4.20114 13.09685,4.20114 24.7711,3.28113 24.8291,7.42229 24.8291,7.42229 c -0.97871,10.06221 0.57442,14.60568 1.60993,16.4458 1.0348,1.84001 -1.32302,3.10563 -6.09528,4.36996 -4.77367,1.26491 -13.45758,0.57582 -15.75803,-1.60991 -2.30041,-2.18494 2.07094,-3.39254 9.95024,-4.02507 7.87731,-0.6324 10.75214,1.49454 8.51052,3.22045 -2.24372,1.72401 -9.48863,2.64473 -12.53696,1.32242 -3.04764,-1.32242 -1.78194,-2.47393 3.33663,-2.93226 5.11718,-0.46108 6.72711,0.92003 4.54066,1.60984 -2.18423,0.68991 -5.40536,-0.0573 -5.40536,-0.0573 4.60147,1.60982 7.8793,-0.17419 6.3842,-1.43712"
               style="fill:#000000;fill-opacity:1;fill-rule:nonzero;stroke:#000000;stroke-width:0.3985;stroke-linecap:butt;stroke-linejoin:miter;stroke-miterlimit:10;stroke-dasharray:none;stroke-opacity:1"
               id="path24" /></g></g></g></g></g></svg>
