<?xml version="1.0" encoding="UTF-8" standalone="no"?>
<svg
   xmlns:dc="http://purl.org/dc/elements/1.1/"
   xmlns:cc="http://creativecommons.org/ns#"
   xmlns:rdf="http://www.w3.org/1999/02/22-rdf-syntax-ns#"
   xmlns:svg="http://www.w3.org/2000/svg"
   xmlns="http://www.w3.org/2000/svg"
   xmlns:sodipodi="http://sodipodi.sourceforge.net/DTD/sodipodi-0.dtd"
   xmlns:inkscape="http://www.inkscape.org/namespaces/inkscape"
   version="1.1"
   id="svg2"
   xml:space="preserve"
   width="50.279999"
   height="81.599998"
   viewBox="0 0 50.279999 81.599998"
   sodipodi:docname="vectorian022.pdf"><metadata
     id="metadata8"><rdf:RDF><cc:Work
         rdf:about=""><dc:format>image/svg+xml</dc:format><dc:type
           rdf:resource="http://purl.org/dc/dcmitype/StillImage" /></cc:Work></rdf:RDF></metadata><defs
     id="defs6"><clipPath
       clipPathUnits="userSpaceOnUse"
       id="clipPath24"><path
         d="M 0,0 H 34.39713 V 61.20186 H 0 Z"
         id="path22" /></clipPath></defs><sodipodi:namedview
     pagecolor="#ffffff"
     bordercolor="#666666"
     borderopacity="1"
     objecttolerance="10"
     gridtolerance="10"
     guidetolerance="10"
     inkscape:pageopacity="0"
     inkscape:pageshadow="2"
     inkscape:window-width="640"
     inkscape:window-height="480"
     id="namedview4" /><g
     id="g10"
     inkscape:groupmode="layer"
     inkscape:label="vectorian022"
     transform="matrix(1.3333333,0,0,-1.3333333,0,81.6)"><g
       id="g12"
       transform="translate(72,-10.799)"><g
         id="g14"
         transform="translate(-72,10.799)"><g
           id="g16"><g
             id="g18"><g
               id="g20"
               clip-path="url(#clipPath24)"><path
                 d="m 28.49236,18.60721 c -1.94562,6.53289 -4.93286,6.8065 -7.1569,6.53129 -2.22403,-0.28 -2.01603,1.45763 -2.01603,1.45763 v 0.82562 c 1.49762,0.61119 2.52484,1.79042 2.52484,3.16162 0,1.37122 -1.02722,2.54725 -2.52484,3.16004 v 0.85922 c 0,0 -0.208,1.73923 2.01603,1.46401 2.22404,-0.28 5.21128,-0.0048 7.1569,6.5265 1.94563,6.53126 2.98724,7.99049 5.90567,9.17131 0,0 -8.61611,-0.06721 -14.45299,-12.50575 0,0 -0.4848,-1.04003 -1.73603,-0.4192 v 2.78242 c 0,0 0.48642,1.87362 1.66724,4.65286 1.18079,2.78082 1.18079,5.69768 -0.69603,9.38092 0,0 -1.45761,2.91843 -1.9456,5.35046 l -0.03681,0.19681 -0.0368,-0.19681 c -0.48642,-2.43203 -1.94563,-5.35046 -1.94563,-5.35046 -1.87523,-3.68324 -1.87523,-6.6001 -0.696,-9.38092 1.1808,-2.77924 1.66882,-4.65286 1.66882,-4.65286 V 38.8395 C 14.93697,38.21867 14.45056,39.2587 14.45056,39.2587 8.6137,51.69724 -7.8e-4,51.76445 -7.8e-4,51.76445 c 2.9168,-1.18082 3.96161,-2.64005 5.90404,-9.17131 1.94562,-6.53128 4.93446,-6.8065 7.15851,-6.5265 2.22401,0.27522 2.01442,-1.46401 2.01442,-1.46401 V 33.8778 c -1.67844,-0.56638 -2.84966,-1.82558 -2.84966,-3.29443 0,-1.46881 1.17122,-2.73123 2.84966,-3.29443 v -0.69281 c 0,0 0.20959,-1.73763 -2.01442,-1.45763 -2.22405,0.27521 -5.21289,0.0016 -7.15851,-6.53129 -1.94243,-6.52966 -2.98724,-7.9905 -5.90404,-9.16971 0,0 8.61448,0.0672 14.45134,12.50418 0,0 0.48641,1.04161 1.73764,0.41757 v -2.77922 c 0,0 -0.48802,-1.87521 -1.66882,-4.65284 -1.17923,-2.78245 -1.17923,-5.6993 0.696,-9.38093 0,0 1.45921,-2.92324 1.94563,-5.35368 l 0.0368,-0.19357 0.03681,0.19357 c 0.48799,2.43044 1.9456,5.35368 1.9456,5.35368 1.87682,3.68163 1.87682,6.59848 0.69603,9.38093 -1.18082,2.77763 -1.66724,4.65284 -1.66724,4.65284 v 2.77922 c 1.25123,0.62404 1.73603,-0.41757 1.73603,-0.41757 C 25.78192,9.5047 34.39803,9.4375 34.39803,9.4375 c -2.91843,1.17921 -3.96004,2.64005 -5.90567,9.16971 z"
                 style="fill:#000000;fill-opacity:1;fill-rule:nonzero;stroke:#000000;stroke-width:0.3985;stroke-linecap:butt;stroke-linejoin:miter;stroke-miterlimit:10;stroke-dasharray:none;stroke-opacity:1"
                 id="path26" /></g></g></g></g></g></g></svg>
