<?xml version="1.0" encoding="UTF-8" standalone="no"?>
<svg
   xmlns:dc="http://purl.org/dc/elements/1.1/"
   xmlns:cc="http://creativecommons.org/ns#"
   xmlns:rdf="http://www.w3.org/1999/02/22-rdf-syntax-ns#"
   xmlns:svg="http://www.w3.org/2000/svg"
   xmlns="http://www.w3.org/2000/svg"
   xmlns:sodipodi="http://sodipodi.sourceforge.net/DTD/sodipodi-0.dtd"
   xmlns:inkscape="http://www.inkscape.org/namespaces/inkscape"
   version="1.1"
   id="svg2"
   xml:space="preserve"
   width="82.41333"
   height="38.013332"
   viewBox="0 0 82.41333 38.013332"
   sodipodi:docname="vectorian152.pdf"><metadata
     id="metadata8"><rdf:RDF><cc:Work
         rdf:about=""><dc:format>image/svg+xml</dc:format><dc:type
           rdf:resource="http://purl.org/dc/dcmitype/StillImage" /></cc:Work></rdf:RDF></metadata><defs
     id="defs6" /><sodipodi:namedview
     pagecolor="#ffffff"
     bordercolor="#666666"
     borderopacity="1"
     objecttolerance="10"
     gridtolerance="10"
     guidetolerance="10"
     inkscape:pageopacity="0"
     inkscape:pageshadow="2"
     inkscape:window-width="640"
     inkscape:window-height="480"
     id="namedview4" /><g
     id="g10"
     inkscape:groupmode="layer"
     inkscape:label="vectorian152"
     transform="matrix(1.3333333,0,0,-1.3333333,0,38.013333)"><g
       id="g12"
       transform="translate(72,-43.494)"><g
         id="g14"
         transform="translate(-71.649,43.763)"><g
           id="g16"><g
             id="g18"><path
               d="m 28.30266,20.18805 c 0,0 -1.84624,0.0737 -1.77243,0.81209 0.07371,0.73832 1.69932,0.07441 1.77243,-0.81209 M 32.217,4.30914 c 0,0 -4.06185,-0.36891 -5.09597,0.44391 -1.03341,0.81211 0.36951,2.65833 5.09597,-0.44391 m 2.58462,5.02226 c 0,0 -3.24982,-0.3696 -4.72653,0.5914 -1.47673,0.95972 -0.81212,1.77254 0.4433,1.69874 1.2561,-0.07381 3.47114,-1.03412 4.28323,-2.29014 m 2.80725,5.90879 c 0,0 -5.02297,-0.22202 -5.46557,0.88591 -0.4433,1.10782 3.47044,1.47731 5.46557,-0.88591 m 19.12735,3.32294 c -0.22131,-1.18103 -4.21016,-4.13576 -18.31523,-3.39675 0,0 -3.76627,3.54495 -6.49969,1.55052 0,0 -0.8859,-1.1079 1.47741,-1.69873 2.36324,-0.5908 5.39107,-1.03341 5.39107,-1.03341 0,0 1.18362,-1.69663 -0.14749,-3.02784 C 37.23926,9.5527 35.09734,9.5527 35.09734,9.5527 c 0,0 -1.25612,1.69864 -3.76687,2.29084 -2.51081,0.58941 -3.32363,-1.03482 -1.84622,-2.29084 1.47745,-1.25412 3.47116,-1.62431 5.68689,-1.18171 0,0 0.59081,-2.80583 -2.65832,-3.91364 0,0 -1.99443,1.32981 -3.54557,1.84622 -2.02182,0.67411 -3.68355,-1.14962 -1.77252,-2.14134 1.99384,-1.0348 3.54496,-0.8128 5.16987,-0.5908 0,0 0.7383,-2.95404 -4.06194,-3.24983 C 23.5031,0.02658 16.9296,5.34386 9.10149,6.67236 c 0,0 1.10722,1.99444 -0.4433,3.69306 0,0 1.47741,0.5915 1.62494,3.17543 0.14689,2.58525 -2.14194,3.84125 -2.14194,3.84125 0,0 0.81282,1.10722 -0.2213,3.32226 0,0 2.80654,0.29578 8.41821,2.21571 5.61376,1.92063 12.40786,3.76687 16.2478,3.84066 3.84125,0.07379 9.45304,0 9.97004,-2.58523 0.51709,-2.58395 -6.12879,-2.80584 -7.60681,-0.9596 0,0 0.51771,0.59079 -0.2213,1.25529 -0.7383,0.66531 -1.62493,0 -0.4433,-1.25529 0,0 -1.91993,-2.95415 -5.61238,-2.80596 0,0 -0.36949,1.25542 -1.77243,1.25542 -1.52251,0 -1.32919,-1.84691 1.77243,-2.14262 0,0 -0.2957,-3.98816 -5.16905,-4.94716 -4.87477,-0.96103 -8.64092,-0.73902 -9.45374,2.28952 -0.81209,3.02783 4.28384,5.02086 4.28384,5.02086 0,0 -0.51768,0 -1.6249,-0.4426 -1.10782,-0.44322 -4.13637,-2.43703 -2.95473,-5.09526 1.18161,-2.65973 4.35763,-3.76766 9.67502,-2.95415 5.27775,0.80602 5.46217,5.61109 5.53726,5.97238 7e-4,0.0055 0.0014,0.0096 0.0014,0.0096 0,-0.0021 -7e-4,-0.0076 -0.0014,-0.0096 -0.0041,-0.0437 0.02049,-0.2124 0.66661,-0.2124 0.7377,0 9.45304,0.36881 13.81079,0.739 4.35626,0.36882 9.15651,0.66391 10.70772,0.59083 1.55113,-0.07382 2.80655,-0.73832 2.58525,-1.92063 m -22.1559,4.72714 c 0,0 -0.7391,1.03341 -0.29579,1.10722 0.4433,0.0737 0.59151,-0.7384 0.29579,-1.10722 M 4.52255,3.79274 C 2.08551,3.27573 0.16559,3.86655 1.34721,5.86096 c 1.1816,1.99303 6.20316,0.59149 6.86779,0.517 0,0 -1.25542,-2.06882 -3.69245,-2.58522 m -0.0738,6.42447 c -1.03412,0 -1.99373,0.37021 -1.69863,1.69873 0.29572,1.32982 3.84064,0.29571 4.94776,-0.88522 0,0 -2.21502,-0.81351 -3.24913,-0.81351 m -0.36953,5.17047 c -1.9199,-0.295 -3.03052,1.85373 -0.95961,2.65904 1.32914,0.51641 3.98746,-0.51701 3.98746,-0.51701 0,0 -1.20142,-1.86063 -3.02785,-2.14203 M 0.4613,23.14209 c 0.0731,1.47731 5.09536,0.81282 6.72028,-2.06754 0,0 -6.79478,0.59081 -6.72028,2.06754 m 56.86571,-4.28256 c -0.8121,2.58383 -5.46556,2.14061 -11.74324,1.62423 -6.27697,-0.51702 -13.66247,-1.03483 -15.13921,-1.03483 -1.47731,0 -1.03341,0.22201 -1.03341,0.22201 4.35637,0.4433 5.24357,3.17603 5.24357,3.17603 1.84554,-1.10851 3.91376,-1.6255 6.3508,-0.81279 2.43773,0.81279 2.51073,3.10232 -0.36952,4.65276 -2.88032,1.55052 -5.39047,1.40361 -10.78224,0.88591 C 24.46199,27.05583 22.39517,25.28331 15.67358,23.0676 8.95401,20.85254 7.84679,21.14836 7.84679,21.14836 c 0,0 -0.66521,1.55042 -2.95475,2.58454 -2.68704,1.213 -4.35764,0.59078 -4.80026,-0.2213 -0.44327,-0.81282 0.73832,-2.21575 3.10153,-2.80724 2.36335,-0.59012 4.13507,-0.07381 4.13507,-0.07381 0.88662,-1.25462 0,-2.80585 0,-2.80585 -4.57826,1.69804 -5.75988,-0.29499 -5.75988,-1.1078 0,-0.81282 0.51701,-2.14132 3.17535,-1.84623 2.65903,0.29571 3.32355,2.21503 3.32355,2.21503 0,0 1.84622,-0.8859 1.77252,-2.95273 C 9.76613,12.06413 7.9937,11.25134 7.9937,11.25134 3.34093,14.35367 1.6429,11.99034 2.23302,10.73434 2.82382,9.4803 4.59634,9.4803 5.77794,9.6271 6.95958,9.77463 8.2894,10.29172 8.2894,10.29172 9.6923,8.51929 8.65819,6.67236 8.65819,6.67236 4.59634,7.55957 1.5685,7.33757 0.68259,5.71336 -0.204,4.08842 0.8301,2.24231 4.07922,2.83313 7.27718,3.41362 8.7081,6.15596 8.7081,6.15596 9.74152,6.00916 14.78838,3.34943 18.48082,1.87212 22.17317,0.3954 24.906,-0.2692 29.18857,0.10028 c 4.28456,0.36951 3.54555,3.69246 3.54555,3.69246 4.06124,1.77242 2.65831,4.65276 2.65831,4.65276 0,0 3.17605,0.73829 3.91437,2.14192 0.99041,1.88173 -0.2213,3.54555 -0.2213,3.54555 9.96942,-1.10782 19.05364,2.14132 18.24151,4.72656"
               style="fill:#000000;fill-opacity:1;fill-rule:nonzero;stroke:#000000;stroke-width:0.3985;stroke-linecap:butt;stroke-linejoin:miter;stroke-miterlimit:10;stroke-dasharray:none;stroke-opacity:1"
               id="path20" /></g></g></g></g></g></svg>
