<?xml version="1.0" encoding="UTF-8" standalone="no"?>
<svg
   xmlns:dc="http://purl.org/dc/elements/1.1/"
   xmlns:cc="http://creativecommons.org/ns#"
   xmlns:rdf="http://www.w3.org/1999/02/22-rdf-syntax-ns#"
   xmlns:svg="http://www.w3.org/2000/svg"
   xmlns="http://www.w3.org/2000/svg"
   xmlns:sodipodi="http://sodipodi.sourceforge.net/DTD/sodipodi-0.dtd"
   xmlns:inkscape="http://www.inkscape.org/namespaces/inkscape"
   version="1.1"
   id="svg2"
   xml:space="preserve"
   width="46.666668"
   height="60.373333"
   viewBox="0 0 46.666668 60.373333"
   sodipodi:docname="vectorian177.pdf"><metadata
     id="metadata8"><rdf:RDF><cc:Work
         rdf:about=""><dc:format>image/svg+xml</dc:format><dc:type
           rdf:resource="http://purl.org/dc/dcmitype/StillImage" /></cc:Work></rdf:RDF></metadata><defs
     id="defs6" /><sodipodi:namedview
     pagecolor="#ffffff"
     bordercolor="#666666"
     borderopacity="1"
     objecttolerance="10"
     gridtolerance="10"
     guidetolerance="10"
     inkscape:pageopacity="0"
     inkscape:pageshadow="2"
     inkscape:window-width="640"
     inkscape:window-height="480"
     id="namedview4" /><g
     id="g10"
     inkscape:groupmode="layer"
     inkscape:label="vectorian177"
     transform="matrix(1.3333333,0,0,-1.3333333,0,60.373333)"><g
       id="g12"
       transform="translate(72,-26.716)"><g
         id="g14"
         transform="translate(-71.454,27.501)"><g
           id="g16"><g
             id="g18"><path
               d="m 19.48044,34.45433 c 0,0 -1.94933,-4.53395 -2.74433,-8.4306 -0.79443,-3.89737 -0.39751,-6.95931 0.7547,-4.65348 1.1536,2.30794 2.58524,6.9594 1.98963,13.08408 M 13.04776,21.37025 c 1.15231,-2.30583 1.54912,0.75611 0.75471,4.65348 -0.79502,3.89665 -2.74435,8.4306 -2.74435,8.4306 -0.5956,-6.12468 0.83531,-10.77614 1.98964,-13.08408 m 2.29152,21.54738 -0.73972,-0.2138 c 0,0 -2.27031,-0.65021 -3.33654,-6.39788 0,0 2.96635,-6.30229 3.61456,-11.12162 0.64821,-4.82149 -1.06621,-8.48313 -3.38306,-1.94805 -2.31741,6.53589 -0.83459,12.69947 -0.83459,12.69947 0,0 -3.70815,7.09248 -9.22351,7.50848 0,0 2.59613,-1.85442 4.72784,-8.43471 2.13173,-6.58227 3.19854,-19.28094 8.99202,-19.09584 h 0.226 c 5.79277,-0.1851 6.85969,12.51357 8.99272,19.09584 2.13312,6.58029 4.72717,8.43471 4.72717,8.43471 -5.51538,-0.416 -9.22423,-7.50848 -9.22423,-7.50848 0,0 1.48353,-6.16358 -0.83392,-12.69947 -2.31682,-6.53508 -4.03184,-2.87344 -3.38304,1.94805 0.64822,4.81933 3.61456,11.12162 3.61456,11.12162 -1.0662,5.74767 -3.33726,6.39788 -3.33726,6.39788 z m 0.5526,1.36194 c 0,0 2.54976,-1.11194 3.89326,-7.04541 0,0 3.98606,6.99761 10.75343,6.67378 0,0 -3.29014,-1.62281 -5.74696,-9.82661 C 22.33548,25.87822 21.45377,15.21698 15.29008,14.84677 9.0849,15.21698 8.2038,25.87822 5.74767,34.08133 3.29083,42.28513 0,43.90794 0,43.90794 c 6.76738,0.32383 10.75352,-6.67378 10.75352,-6.67378 1.34282,5.93347 3.89315,7.04541 3.89315,7.04541 0,0 0.3511,0.14067 0.61271,0.2199 z"
               style="fill:#000000;fill-opacity:1;fill-rule:nonzero;stroke:#000000;stroke-width:0.3985;stroke-linecap:butt;stroke-linejoin:miter;stroke-miterlimit:10;stroke-dasharray:none;stroke-opacity:1"
               id="path20" /><path
               d="m 17.41231,6.42026 c 0,0 1.20892,-3.96764 6.06519,-5.58638 4.85764,-1.61876 6.86369,0.70552 6.24757,1.61874 -0.61602,0.91181 -2.96355,1.45892 -4.81116,-0.56962 0,0 -3.07706,3.60154 -7.5016,4.53726 M 5.67937,1.883 C 3.83243,3.91154 1.4835,3.36443 0.8681,2.45262 0.25198,1.5394 2.25871,-0.78488 7.11568,0.83388 11.97203,2.45262 13.17955,6.42026 13.17955,6.42026 8.757,5.48454 5.67937,1.883 5.67937,1.883 m 9.66331,4.95127 c -0.35989,0 -0.93091,-0.11819 -0.93091,-0.11819 C 12.67894,1.5169 7.25227,-0.28279 3.51343,0.03479 -0.22679,0.3551 -0.5457,2.70401 1.6433,3.52364 3.83243,4.34534 5.67937,2.58992 5.67937,2.58992 c 4.24084,4.12616 7.59178,4.26346 7.59178,4.26346 0.52452,0.9787 0.88992,3.51074 0.02391,6.04126 -0.8661,2.53064 -3.96776,4.67398 -3.96776,4.67398 1.34563,-0.70562 3.78465,-2.25673 4.76547,-5.08307 0.98011,-2.82845 0.388,-5.33647 0.388,-5.33647 0,0 0.48221,0.06419 0.84211,0.06419 0.35932,0 0.79031,-0.06419 0.79031,-0.06419 0,0 -0.5936,2.50802 0.38721,5.33647 0.98082,2.82634 3.41995,4.37745 4.76616,5.08307 0,0 -3.10093,-2.14334 -3.96834,-4.67398 -0.86672,-2.53052 -0.50132,-5.06256 0.02248,-6.04126 0,0 3.35166,-0.1373 7.59321,-4.26346 0,0 1.84761,1.75542 4.03664,0.93372 C 31.13828,2.70401 30.81998,0.3551 27.08043,0.03479 23.3402,-0.28279 17.91362,1.5169 16.1808,6.71608 c 0,0 -0.47882,0.11819 -0.83812,0.11819"
               style="fill:#000000;fill-opacity:1;fill-rule:nonzero;stroke:#000000;stroke-width:0.3985;stroke-linecap:butt;stroke-linejoin:miter;stroke-miterlimit:10;stroke-dasharray:none;stroke-opacity:1"
               id="path22" /></g></g></g></g></g></svg>
