<?xml version="1.0" encoding="UTF-8" standalone="no"?>
<svg
   xmlns:dc="http://purl.org/dc/elements/1.1/"
   xmlns:cc="http://creativecommons.org/ns#"
   xmlns:rdf="http://www.w3.org/1999/02/22-rdf-syntax-ns#"
   xmlns:svg="http://www.w3.org/2000/svg"
   xmlns="http://www.w3.org/2000/svg"
   xmlns:sodipodi="http://sodipodi.sourceforge.net/DTD/sodipodi-0.dtd"
   xmlns:inkscape="http://www.inkscape.org/namespaces/inkscape"
   version="1.1"
   id="svg2"
   xml:space="preserve"
   width="78.641151"
   height="39.790051"
   viewBox="0 0 78.641152 39.790051"
   sodipodi:docname="vectorian094.pdf"><metadata
     id="metadata8"><rdf:RDF><cc:Work
         rdf:about=""><dc:format>image/svg+xml</dc:format><dc:type
           rdf:resource="http://purl.org/dc/dcmitype/StillImage" /></cc:Work></rdf:RDF></metadata><defs
     id="defs6" /><sodipodi:namedview
     pagecolor="#ffffff"
     bordercolor="#666666"
     borderopacity="1"
     objecttolerance="10"
     gridtolerance="10"
     guidetolerance="10"
     inkscape:pageopacity="0"
     inkscape:pageshadow="2"
     inkscape:window-width="640"
     inkscape:window-height="480"
     id="namedview4" /><g
     id="g10"
     inkscape:groupmode="layer"
     inkscape:label="vectorian094"
     transform="matrix(1.3333333,0,0,-1.3333333,0.26570645,39.507334)"><g
       id="g12"
       transform="translate(72,-41.905)"><g
         id="g14"
         transform="translate(-71.981,41.944)"><g
           id="g16"><g
             id="g18"><path
               d="m 23.9869,13.24155 c -1.017,0.17561 -1.21653,-0.78949 -0.79032,-1.1276 0.42691,-0.33882 2.30722,-0.01301 2.30722,-0.01301 0,0 -0.5026,0.96512 -1.5169,1.14061 m 5.92999,2.46985 c -1.19124,0.17489 -1.35444,-0.55192 -0.90363,-0.92751 0.4528,-0.37572 3.18624,-0.30063 3.18624,-0.30063 0,0 -1.09212,1.05193 -2.28261,1.22814 m 5.95526,2.659 c -1.06623,-0.25138 -1.17891,-0.89138 0.31349,-1.07919 1.49173,-0.18851 3.58656,0.05059 3.58656,0.05059 -1.25331,0.71371 -2.83455,1.27792 -3.90005,1.0286 m 8.4503,3.28326 c -0.72672,-0.0253 -1.06552,-0.62561 -0.32511,-0.90221 0.73972,-0.276 2.21784,0.0498 2.21784,0.0498 0,0 -1.16461,0.87841 -1.89273,0.85241 m 5.17938,2.43294 c 0.58881,-0.10041 1.78002,0.3887 1.78002,0.3887 -1.93023,0.6522 -2.37014,-0.28829 -1.78002,-0.3887 m -4.36247,0.73971 c 0.49933,0.039 1.06422,1.14201 1.06422,1.14201 -1.16531,-0.3394 -1.56822,-1.17952 -1.06422,-1.14201 m -6.92308,-2.34483 c 0.64072,0.2384 1.31622,1.51701 1.31622,1.51701 -1.69122,-0.67689 -1.95553,-1.75472 -1.31622,-1.51701 M 31.259,20.09984 c 0.5888,0.23831 0.99039,1.55382 0.99039,1.55382 -1.19121,-0.6386 -1.5798,-1.79221 -0.99039,-1.55382 M 23.5969,16.5269 c 0.25129,-0.252 0.6898,0.138 0.6898,0.138 0.67691,0.6516 0.9535,1.85513 0.9535,1.85513 -1.22941,-0.66462 -1.89401,-1.74311 -1.6433,-1.99313 M 1.2012,0.648 3.10623,0.6849 c 0,0 4.07555,4.41985 9.86553,7.16219 5.78997,2.74303 12.15025,1.295 13.02726,3.58035 0,0 -3.08512,-0.30462 -3.27574,1.0676 -0.19061,1.37084 2.28545,1.40973 3.08524,-0.34419 0,0 5.75168,-0.26572 6.32338,1.71503 0,0 -3.84745,0.03758 -3.61934,1.3715 0.22821,1.33322 2.21033,0.9897 3.96295,-0.68579 0,0 6.8562,0.15298 7.27478,2.17273 0,0 -5.06525,-0.11472 -4.95256,1.06549 0.11542,1.18231 3.88705,1.33392 5.33447,-0.45691 0,0 7.50229,1.21852 6.66487,2.89534 0,0 -3.46772,-0.1906 -3.50393,0.87631 -0.0396,1.06623 2.01902,1.1037 3.42744,-0.22879 0,0 6.8569,1.02932 5.67528,3.35225 0,0 -3.04564,-0.72403 -3.42743,-0.15233 -0.38042,0.57102 0.83809,1.40905 2.85773,0.49522 0,0 2.32303,0.49581 4.26484,1.40902 1.94384,0.91461 2.23613,1.23012 2.01284,1.90091 0,0 -4.26207,-0.92549 -10.21872,-2.90563 C 41.93051,22.9952 38.62538,21.82925 31.9987,18.92293 25.37202,16.01808 15.49008,10.60442 10.66722,7.58688 5.84576,4.56995 1.2012,0.648 1.2012,0.648 m 9.48383,7.35137 c 0,0 9.79114,6.0953 19.12254,10.32325 9.33421,4.22856 14.20888,5.75168 19.96065,7.5043 5.75308,1.75201 8.30421,2.17201 8.30421,2.17201 0,0 -0.03759,1.06694 -2.17063,0.83884 -2.13311,-0.22891 -5.02846,-2.09554 -5.02846,-2.09554 1.06762,0.9514 1.06762,1.75193 1.06762,1.75193 -4.38226,-1.14272 -5.29617,-2.24784 -5.94229,-3.19994 -0.64961,-0.95151 -1.1434,-0.79913 -1.1434,-0.79913 -0.49593,0.34211 -0.03892,1.25602 1.17961,1.67543 1.21982,0.41801 1.14402,1.90423 1.14402,1.90423 -1.37221,-1.33252 -3.88576,-2.39944 -5.48539,-2.97115 -1.60031,-0.5723 -1.7908,-0.9521 -1.7908,-0.9521 -1.10454,-2.32362 -2.78136,-2.40014 -2.17204,-1.25811 0.60991,1.14399 1.94383,1.3735 1.94383,1.3735 0.60931,0.60861 0.83742,2.09355 0.83742,2.09355 0,0 -1.02792,-1.52383 -3.77097,-2.47665 -2.74232,-0.95151 -4.03663,-1.71301 -4.03663,-1.71301 -0.42082,-1.71444 -1.21993,-2.47734 -1.75333,-2.28614 -0.5341,0.1899 0.03889,1.29572 0.9521,1.82843 0.91463,0.5342 0.877,2.20963 0.877,2.20963 0,0 -1.8674,-2.20963 -4.22794,-3.42746 -2.36253,-1.21979 -3.00933,-1.94382 -3.00933,-1.94382 -0.83811,-2.81814 -2.59145,-2.66653 -2.17273,-1.52312 0.4194,1.14202 1.90492,1.78943 1.90492,1.78943 0.60861,0.95221 0.457,2.17133 0.457,2.17133 -0.763,-1.37141 -2.74234,-2.97113 -5.33167,-4.68616 -2.59072,-1.71303 -4.15286,-3.84675 -4.15286,-3.84675 l -0.1147,1.90562 c -1.94252,-3.35295 -5.44775,-6.3624 -5.44775,-6.3624 m 5.86786,8.41892 0.41801,-2.43774 c 0,0 1.67613,1.98083 4.83775,4.03738 3.16036,2.05801 4.03878,3.84753 4.03878,3.84753 0,0 0.38038,-0.6093 0.07579,-2.39953 0,0 2.74164,1.63862 4.34067,2.70485 1.60161,1.0668 3.01072,2.97183 3.01072,2.97183 l -0.34289,-2.43843 c 0,0 2.20962,1.3332 4.76135,2.24783 2.55243,0.91449 3.42813,3.08524 3.42813,3.08524 l -0.53279,-2.85714 c 0,0 5.02777,2.05733 6.93338,3.69584 l -0.26781,-1.71442 c 0,0 2.40015,1.29571 5.37139,2.13383 l -0.45771,-1.29571 c 0,0 4.68486,2.05722 6.13358,0.49451 1.44731,-1.56144 -3.46706,-3.69515 -5.75379,-4.26546 0,0 0.91523,-0.49661 -0.45629,-1.90492 -1.37084,-1.40914 -5.06667,-1.82854 -5.06667,-1.82854 0,0 0.95422,-1.44731 -1.78882,-2.62892 -2.74304,-1.18092 -5.33296,-1.06622 -5.33296,-1.06622 0,0 0.22949,-1.94382 -2.58934,-2.62963 -2.82024,-0.685 -4.99087,-0.34221 -4.99087,-0.34221 0,0 0.07582,-1.33322 -1.75332,-2.01832 -1.82841,-0.68642 -4.38025,-0.4569 -4.38025,-0.4569 0,0 -0.18991,-1.71443 -4.60907,-2.17204 C 17.1621,8.7241 15.18068,8.1128 10.64812,5.71396 6.11426,3.31383 2.91423,0.15219 2.91423,0.15219 l -2.93282,-0.19058 c 0,0 7.1e-4,0.34359 4.26754,3.54282 4.26474,3.19995 10.74112,7.46749 12.30394,12.91386"
               style="fill:#000000;fill-opacity:1;fill-rule:nonzero;stroke:#000000;stroke-width:0.3985;stroke-linecap:butt;stroke-linejoin:miter;stroke-miterlimit:10;stroke-dasharray:none;stroke-opacity:1"
               id="path20" /></g></g></g></g></g></svg>
