<?xml version="1.0" encoding="UTF-8" standalone="no"?>
<svg
   xmlns:dc="http://purl.org/dc/elements/1.1/"
   xmlns:cc="http://creativecommons.org/ns#"
   xmlns:rdf="http://www.w3.org/1999/02/22-rdf-syntax-ns#"
   xmlns:svg="http://www.w3.org/2000/svg"
   xmlns="http://www.w3.org/2000/svg"
   xmlns:sodipodi="http://sodipodi.sourceforge.net/DTD/sodipodi-0.dtd"
   xmlns:inkscape="http://www.inkscape.org/namespaces/inkscape"
   version="1.1"
   id="svg2"
   xml:space="preserve"
   width="25.973333"
   height="10.106667"
   viewBox="0 0 25.973333 10.106667"
   sodipodi:docname="vectorian138.pdf"><metadata
     id="metadata8"><rdf:RDF><cc:Work
         rdf:about=""><dc:format>image/svg+xml</dc:format><dc:type
           rdf:resource="http://purl.org/dc/dcmitype/StillImage" /></cc:Work></rdf:RDF></metadata><defs
     id="defs6" /><sodipodi:namedview
     pagecolor="#ffffff"
     bordercolor="#666666"
     borderopacity="1"
     objecttolerance="10"
     gridtolerance="10"
     guidetolerance="10"
     inkscape:pageopacity="0"
     inkscape:pageshadow="2"
     inkscape:window-width="640"
     inkscape:window-height="480"
     id="namedview4" /><g
     id="g10"
     inkscape:groupmode="layer"
     inkscape:label="vectorian138"
     transform="matrix(1.3333333,0,0,-1.3333333,0,10.106667)"><g
       id="g12"
       transform="translate(72,-64.419)"><g
         id="g14"
         transform="translate(-71.26,64.419)"><g
           id="g16"><g
             id="g18"><path
               d="m 11.11162,3.35364 c 0,0 -1.002,0.56009 -0.96512,1.07921 0.0581,0.8401 1.33874,-0.58741 0.96512,-1.07921 M 4.53273,4.43285 C 4.56894,3.91373 3.56763,3.35364 3.56763,3.35364 3.19402,3.84544 4.47334,5.27295 4.53273,4.43285 m 9.53503,1.77581 c -1.35171,1.37293 -2.70344,0.98351 -2.70344,0.98351 0,0 2.66585,-0.36881 2.89535,-2.36322 0.1933,-1.67342 -1.61602,-2.02173 -2.77443,-1.42754 0,0 -0.02461,1.03144 -0.79641,1.52314 -0.77251,0.49182 -1.54493,-0.78541 0.1933,-1.87142 0,0 -0.64751,-2.36333 -3.54285,-2.16523 C 4.44394,0.6898 3.79715,3.05313 3.79715,3.05313 5.53406,4.13914 4.76294,5.41637 3.99043,4.92455 3.21791,4.43285 3.19402,3.40141 3.19402,3.40141 2.03561,2.80722 0.22559,3.15553 0.41829,4.82895 0.6491,6.82336 3.31422,7.19217 3.31422,7.19217 c 0,0 -1.35171,0.38942 -2.70272,-0.98351 C -0.74008,4.82895 0.12868,1.67342 3.41122,2.56131 3.41122,2.56131 4.28485,0 7.33928,0 c 3.05455,0 3.92805,2.56131 3.92805,2.56131 3.28264,-0.88789 4.15145,2.26764 2.80043,3.64735"
               style="fill:#000000;fill-opacity:1;fill-rule:nonzero;stroke:#000000;stroke-width:0.3985;stroke-linecap:butt;stroke-linejoin:miter;stroke-miterlimit:10;stroke-dasharray:none;stroke-opacity:1"
               id="path20" /></g></g></g></g></g></svg>
