<?xml version="1.0" encoding="UTF-8" standalone="no"?>
<svg
   xmlns:dc="http://purl.org/dc/elements/1.1/"
   xmlns:cc="http://creativecommons.org/ns#"
   xmlns:rdf="http://www.w3.org/1999/02/22-rdf-syntax-ns#"
   xmlns:svg="http://www.w3.org/2000/svg"
   xmlns="http://www.w3.org/2000/svg"
   xmlns:sodipodi="http://sodipodi.sourceforge.net/DTD/sodipodi-0.dtd"
   xmlns:inkscape="http://www.inkscape.org/namespaces/inkscape"
   version="1.1"
   id="svg2"
   xml:space="preserve"
   width="43.306667"
   height="38.599998"
   viewBox="0 0 43.306667 38.599998"
   sodipodi:docname="vectorian149.pdf"><metadata
     id="metadata8"><rdf:RDF><cc:Work
         rdf:about=""><dc:format>image/svg+xml</dc:format><dc:type
           rdf:resource="http://purl.org/dc/dcmitype/StillImage" /></cc:Work></rdf:RDF></metadata><defs
     id="defs6" /><sodipodi:namedview
     pagecolor="#ffffff"
     bordercolor="#666666"
     borderopacity="1"
     objecttolerance="10"
     gridtolerance="10"
     guidetolerance="10"
     inkscape:pageopacity="0"
     inkscape:pageshadow="2"
     inkscape:window-width="640"
     inkscape:window-height="480"
     id="namedview4" /><g
     id="g10"
     inkscape:groupmode="layer"
     inkscape:label="vectorian149"
     transform="matrix(1.3333333,0,0,-1.3333333,0,38.6)"><g
       id="g12"
       transform="translate(72,-43.054)"><g
         id="g14"
         transform="translate(-71.486,43.869)"><g
           id="g16"><g
             id="g18"><path
               d="m 11.12904,24.81221 c 0,0 1.67481,-8.76321 -6.7933,-17.62883 0,0 5.90738,6.50238 6.7933,17.62883"
               style="fill:#000000;fill-opacity:1;fill-rule:nonzero;stroke:#000000;stroke-width:0.3985;stroke-linecap:butt;stroke-linejoin:miter;stroke-miterlimit:10;stroke-dasharray:none;stroke-opacity:1"
               id="path20" /><path
               d="m 18.56033,24.81221 c 0,0 -1.67271,-8.76321 6.79399,-17.62883 0,0 -5.90808,6.50238 -6.79399,17.62883"
               style="fill:#000000;fill-opacity:1;fill-rule:nonzero;stroke:#000000;stroke-width:0.3985;stroke-linecap:butt;stroke-linejoin:miter;stroke-miterlimit:10;stroke-dasharray:none;stroke-opacity:1"
               id="path22" /><path
               d="m 20.58206,1.86952 c 0,0 -8.86152,8.8588 -18.31384,12.40364 0,0 10.73233,-2.36322 18.31384,-12.40364"
               style="fill:#000000;fill-opacity:1;fill-rule:nonzero;stroke:#000000;stroke-width:0.3985;stroke-linecap:butt;stroke-linejoin:miter;stroke-miterlimit:10;stroke-dasharray:none;stroke-opacity:1"
               id="path24" /><path
               d="m 8.6838,1.86952 c 0,0 8.86361,8.8588 18.31594,12.40364 0,0 -10.73304,-2.36322 -18.31594,-12.40364"
               style="fill:#000000;fill-opacity:1;fill-rule:nonzero;stroke:#000000;stroke-width:0.3985;stroke-linecap:butt;stroke-linejoin:miter;stroke-miterlimit:10;stroke-dasharray:none;stroke-opacity:1"
               id="path26" /><path
               d="m 3.74355,21.16486 c 0,0 9.7481,-3.64056 21.66407,-0.29371 0,0 -11.02945,-5.12265 -21.66407,0.29371"
               style="fill:#000000;fill-opacity:1;fill-rule:nonzero;stroke:#000000;stroke-width:0.3985;stroke-linecap:butt;stroke-linejoin:miter;stroke-miterlimit:10;stroke-dasharray:none;stroke-opacity:1"
               id="path28" /><path
               d="m 14.77296,12.55194 1.18163,0.66251 0.96103,-1.84412 z m -0.44259,0.21861 -1.08391,0.5669 0.32579,1.18164 H 15.609 l 0.27119,-0.78552 z m -1.84693,-1.18161 0.51711,1.33181 0.88522,-0.41661 z m -1.69792,3.03255 2.28873,-0.15022 -0.36879,-0.81282 z m 3.69237,3.16922 0.7397,-2.14461 -1.34352,-0.03422 z m -0.74042,7.83431 c 0.1483,2.13781 1.55251,1.84411 2.06961,1.18161 0.51702,-0.66941 0.44192,-2.58864 -1.32919,-7.39029 0,0 -0.88582,4.06395 -0.74042,6.20868 M 26.80981,2.06071 c 0.73912,-2.73199 -3.10083,-1.10651 -8.04869,7.16489 0,0 7.3111,-4.43275 8.04869,-7.16489 m -18.24,3.40145 C 6.94418,3.09894 4.65535,0.73569 2.95602,0.44199 1.258,0.14139 3.03041,3.76143 11.00684,9.9633 c 0,0 -0.81212,-2.1379 -2.43703,-4.50114 M 1.9233,17.12822 c -2.14269,0.96301 -1.55121,2.0695 0,1.70071 1.54974,-0.36882 3.98676,-1.40701 5.83369,-3.25114 0,0 -3.69174,0.59421 -5.83369,1.55043 m 23.77941,1.4753 c 2.14122,0.5942 2.65964,0.22541 2.14122,-0.58741 -0.5157,-0.81281 -3.69233,-1.62561 -7.75358,-1.99441 0,0 3.47033,1.99441 5.61236,2.58182 M 15.8624,15.687 c -0.68712,1.7895 -1.08944,3.14193 -1.08944,3.14193 0,0 1.25544,3.54485 1.69804,5.53927 0.44462,1.99443 -0.07311,3.31953 -1.25611,3.54493 -1.18022,0.21852 -2.50943,-0.51909 -2.36324,-2.88233 0.1489,-2.36332 1.25602,-6.42728 1.25602,-6.42728 -0.295,-1.84412 -0.95891,-3.10094 -0.95891,-3.10094 L 8.3478,15.728 C 5.54195,18.38493 1.70131,20.30424 0.59268,19.49144 -0.5144,18.67863 -0.2931,17.35359 3.17802,16.172 6.64908,14.99037 9.7514,14.76497 9.7514,14.76497 l 2.95406,-1.70072 -0.66461,-1.69392 -1.47803,-1.14751 C 4.72914,6.82817 1.70131,2.43642 1.77501,0.8108 c 0.07381,-1.6256 3.02783,-0.88789 6.05637,2.95063 3.02784,3.83865 3.76556,6.50239 3.76556,6.50239 l 3.02855,1.99442 2.36322,-1.40701 C 18.68672,6.64377 22.60178,1.47331 25.40762,0.5103 28.21416,-0.44589 27.99216,2.65492 25.0381,5.31197 22.08337,7.96889 18.68672,9.895 18.68672,9.895 c -0.7527,1.14064 -1.43161,2.49985 -2.00742,3.80445 l 1.33251,0.92204 c 5.82558,0.45079 10.63744,2.72533 10.57254,3.83862 -0.0744,1.25673 -1.84753,0.95623 -3.47174,0.36882 C 23.48769,18.23473 19.94203,16.2403 19.94203,16.2403 18.62933,15.91238 16.7489,15.7485 15.8624,15.687 m 0.45489,-1.14063 c 0.34831,0 0.69263,0.01372 1.03541,0.03421 l -0.8162,-0.55331 c -0.0751,0.1708 -0.1482,0.34829 -0.21921,0.5191"
               style="fill:#000000;fill-opacity:1;fill-rule:nonzero;stroke:#000000;stroke-width:0.3985;stroke-linecap:butt;stroke-linejoin:miter;stroke-miterlimit:10;stroke-dasharray:none;stroke-opacity:1"
               id="path30" /></g></g></g></g></g></svg>
