<?xml version="1.0" encoding="UTF-8" standalone="no"?>
<svg
   xmlns:dc="http://purl.org/dc/elements/1.1/"
   xmlns:cc="http://creativecommons.org/ns#"
   xmlns:rdf="http://www.w3.org/1999/02/22-rdf-syntax-ns#"
   xmlns:svg="http://www.w3.org/2000/svg"
   xmlns="http://www.w3.org/2000/svg"
   xmlns:sodipodi="http://sodipodi.sourceforge.net/DTD/sodipodi-0.dtd"
   xmlns:inkscape="http://www.inkscape.org/namespaces/inkscape"
   version="1.1"
   id="svg2"
   xml:space="preserve"
   width="106.36753"
   height="140.92593"
   viewBox="0 0 106.36753 140.92593"
   sodipodi:docname="vectorian009.pdf"><metadata
     id="metadata8"><rdf:RDF><cc:Work
         rdf:about=""><dc:format>image/svg+xml</dc:format><dc:type
           rdf:resource="http://purl.org/dc/dcmitype/StillImage" /></cc:Work></rdf:RDF></metadata><defs
     id="defs6" /><sodipodi:namedview
     pagecolor="#ffffff"
     bordercolor="#666666"
     borderopacity="1"
     objecttolerance="10"
     gridtolerance="10"
     guidetolerance="10"
     inkscape:pageopacity="0"
     inkscape:pageshadow="2"
     inkscape:window-width="640"
     inkscape:window-height="480"
     id="namedview4" /><g
     id="g10"
     inkscape:groupmode="layer"
     inkscape:label="vectorian009"
     transform="matrix(1.3333333,0,0,-1.3333333,0.08322152,140.66)"><g
       id="g12"
       transform="translate(72,33.294)"><g
         id="g14"
         transform="translate(-71.863,-33.294)"><g
           id="g16"><g
             id="g18"><path
               d="m 38.10329,73.72253 c 0,0 0.9696,5.56168 2.64163,10.56974 1.66881,5.00807 2.36323,7.37129 1.11362,12.10096 -1.25283,4.72965 -2.64484,8.90252 -3.75525,8.90252 -1.11364,0 -2.50565,-4.17287 -3.75846,-8.90252 -1.24962,-4.72967 -0.5536,-7.09289 1.11361,-12.10096 1.66883,-5.00806 2.64485,-10.56974 2.64485,-10.56974 z"
               style="fill:#000000;fill-opacity:1;fill-rule:nonzero;stroke:#000000;stroke-width:0.3985;stroke-linecap:butt;stroke-linejoin:miter;stroke-miterlimit:10;stroke-dasharray:none;stroke-opacity:1"
               id="path20" /><path
               d="m 36.92085,73.37213 c 0,0 -2.60803,8.76491 -5.94726,12.83217 -3.33765,4.06886 -9.38733,7.7185 -10.22255,7.0945 -0.83361,-0.62561 2.50406,-8.24011 5.73768,-12.31056 3.23525,-4.06887 10.43213,-7.61611 10.43213,-7.61611 z"
               style="fill:#000000;fill-opacity:1;fill-rule:nonzero;stroke:#000000;stroke-width:0.3985;stroke-linecap:butt;stroke-linejoin:miter;stroke-miterlimit:10;stroke-dasharray:none;stroke-opacity:1"
               id="path22" /><path
               d="m 28.36555,69.40887 c -3.02405,-3.33604 -4.06724,-7.40489 -4.06724,-7.40489 0,0 3.96324,0.10242 8.3441,3.12804 4.38246,3.02565 4.06885,7.5105 4.06885,7.5105 -1.04482,0.3152 -5.32166,0.1056 -8.34571,-3.23365 z"
               style="fill:#000000;fill-opacity:1;fill-rule:nonzero;stroke:#000000;stroke-width:0.3985;stroke-linecap:butt;stroke-linejoin:miter;stroke-miterlimit:10;stroke-dasharray:none;stroke-opacity:1"
               id="path24" /><path
               d="m 49.75142,80.98824 c 3.23205,4.07045 6.57289,11.68495 5.73768,12.31056 -0.83361,0.624 -6.88488,-3.02564 -10.22253,-7.0945 -3.33925,-4.06726 -5.94568,-12.83217 -5.94568,-12.83217 0,0 7.1969,3.54724 10.43053,7.61611 z"
               style="fill:#000000;fill-opacity:1;fill-rule:nonzero;stroke:#000000;stroke-width:0.3985;stroke-linecap:butt;stroke-linejoin:miter;stroke-miterlimit:10;stroke-dasharray:none;stroke-opacity:1"
               id="path26" /><path
               d="m 51.93866,62.00398 c 0,0 -1.04002,4.06885 -4.06564,7.40489 -3.02407,3.33925 -7.30251,3.54885 -8.34414,3.23365 0,0 -0.31518,-4.48485 4.06727,-7.5105 4.38406,-3.02562 8.34251,-3.12804 8.34251,-3.12804 z"
               style="fill:#000000;fill-opacity:1;fill-rule:nonzero;stroke:#000000;stroke-width:0.3985;stroke-linecap:butt;stroke-linejoin:miter;stroke-miterlimit:10;stroke-dasharray:none;stroke-opacity:1"
               id="path28" /><path
               d="m 66.01083,46.37338 c 4.26085,1.24962 6.2273,1.90244 8.90732,5.06566 2.67842,3.16484 4.90567,6.15848 4.37445,6.9377 -0.52481,0.78241 -4.07524,-0.25601 -7.9473,-1.66562 -3.86564,-1.40802 -5.17448,-3.03685 -7.84649,-6.62729 -2.67525,-3.59205 -6.06248,-6.9649 -6.06248,-6.9649 0,0 4.31207,2.00804 8.5745,3.25445 z"
               style="fill:#000000;fill-opacity:1;fill-rule:nonzero;stroke:#000000;stroke-width:0.3985;stroke-linecap:butt;stroke-linejoin:miter;stroke-miterlimit:10;stroke-dasharray:none;stroke-opacity:1"
               id="path30" /><path
               d="M 68.64447,41.29651 C 64.36761,42.14133 56.95152,40.6197 56.95152,40.6197 c 0,0 5.40328,-3.86724 9.63852,-4.63526 4.23686,-0.77121 11.09934,-0.2304 11.22736,0.62562 0.1312,0.8528 -4.89926,3.84164 -9.17293,4.68645 z"
               style="fill:#000000;fill-opacity:1;fill-rule:nonzero;stroke:#000000;stroke-width:0.3985;stroke-linecap:butt;stroke-linejoin:miter;stroke-miterlimit:10;stroke-dasharray:none;stroke-opacity:1"
               id="path32" /><path
               d="m 52.49226,34.81483 c -0.80641,-3.55203 0.2336,-6.12648 0.2336,-6.12648 0,0 2.43684,1.66242 3.82886,4.42085 1.39201,2.76006 0.336,5.56008 -0.1648,6.1553 0,0 -3.09445,-0.89122 -3.89766,-4.44967 z"
               style="fill:#000000;fill-opacity:1;fill-rule:nonzero;stroke:#000000;stroke-width:0.3985;stroke-linecap:butt;stroke-linejoin:miter;stroke-miterlimit:10;stroke-dasharray:none;stroke-opacity:1"
               id="path34" /><path
               d="m 54.93068,43.59895 c 0,0 4.17126,6.91529 4.72807,11.40815 0.55519,4.49127 -0.9248,10.36172 -1.88162,10.48175 -0.96001,0.12159 -3.89127,-6.53611 -4.51205,-10.96497 -0.62563,-4.42726 1.6656,-10.92493 1.6656,-10.92493 z"
               style="fill:#000000;fill-opacity:1;fill-rule:nonzero;stroke:#000000;stroke-width:0.3985;stroke-linecap:butt;stroke-linejoin:miter;stroke-miterlimit:10;stroke-dasharray:none;stroke-opacity:1"
               id="path36" /><path
               d="m 54.30829,43.16534 c -0.45281,0.71682 -3.06885,2.77924 -6.55049,2.36322 -3.47846,-0.41279 -6.16808,-2.26881 -6.16808,-2.26881 0,0 2.38085,-1.96324 6.4961,-2.42404 4.11683,-0.46239 6.22247,2.32963 6.22247,2.32963 z"
               style="fill:#000000;fill-opacity:1;fill-rule:nonzero;stroke:#000000;stroke-width:0.3985;stroke-linecap:butt;stroke-linejoin:miter;stroke-miterlimit:10;stroke-dasharray:none;stroke-opacity:1"
               id="path38" /><path
               d="m 64.8764,20.52025 c -0.83358,0 -0.4144,-1.32323 -1.112,-2.99043 -0.69279,-1.67202 -2.64323,-2.29444 -6.40008,-0.48801 -3.75363,1.80962 -8.48169,2.36484 -12.86577,-1.80643 -2.85283,-2.71843 -3.69444,-6.80969 -3.94084,-9.34251 -1.07521,7.27048 -0.5056,21.49147 15.07699,35.93484 0.25441,0.23203 0.2688,0.63042 0.0336,0.88483 -0.2352,0.25119 -0.62559,0.26399 -0.8848,0.032 C 40.5273,30.00357 38.10329,17.46901 38.45049,9.45451 35.11765,26.81953 37.03287,39.5541 38.7145,49.65822 l 0.4992,3.06085 c 0.52798,3.34885 0.71999,6.69447 0.6288,10.08013 -0.05919,2.13282 -0.30402,3.50564 -0.52161,5.61927 -0.0608,0.5712 -0.44961,3.32004 -1.25441,2.84325 -0.57123,-0.33922 -0.20801,-1.27684 0.09762,-3.46407 0.2816,-1.99843 0.39999,-4.01285 0.39999,-6.03367 0,-2.36322 -0.17121,-5.14086 -0.58562,-8.8481 l -0.50079,-3.05286 c -0.93764,-4.75366 -2.17284,-11.01134 -2.53765,-18.28024 -0.824,0.66562 -2.42883,2.41284 -3.23523,6.39049 -1.11201,5.49606 -1.04162,10.71214 -8.34732,16.55223 -4.24005,2.92323 -5.98086,2.92323 -6.32488,2.08801 -0.3504,-0.83681 1.03843,-0.83681 2.43044,-1.60002 1.26082,-0.69279 3.33924,-2.36163 4.31525,-8.06729 0.94241,-5.52648 4.50726,-12.60817 11.11855,-16.33621 -0.04162,-1.02562 -0.064,-2.07204 -0.064,-3.13765 0,-6.12809 0.8768,-13.01777 2.62242,-19.81147 -2.74403,6.26889 -5.91046,12.27697 -15.17938,19.83707 -1.04163,0.84641 -1.70561,-0.2464 -0.65601,-1.06721 C 34.81363,16.1138 37.98007,0.63359 38.03447,0.44958 38.10808,0.19838 38.33047,0.01918 38.5913,0 l 2.66721,0.07199 c 0.2576,-0.0144 0.50243,0.12639 0.61283,0.36481 0.10559,0.2352 0.05917,0.51518 -0.12641,0.7008 -0.32962,1.81282 -0.56482,5.28167 1.43361,8.87851 2.08803,3.75684 4.38088,3.89286 8.83371,2.99204 4.44965,-0.90561 7.99532,-1.25121 11.12655,1.67044 3.13123,2.91843 2.57444,5.84166 1.7376,5.84166 z M 39.73851,1.70241 C 39.78648,1.62881 39.83128,1.56322 39.87608,1.49762 39.8857,1.4704 39.8937,1.4512 39.9017,1.4256 c -0.02562,0 -0.04962,0.0016 -0.0752,0.0064 -0.02239,0.072 -0.0592,0.1792 -0.08799,0.27041 z"
               style="fill:#000000;fill-opacity:1;fill-rule:nonzero;stroke:#000000;stroke-width:0.3985;stroke-linecap:butt;stroke-linejoin:miter;stroke-miterlimit:10;stroke-dasharray:none;stroke-opacity:1"
               id="path40" /><path
               d="m 22.03587,30.67236 c 0.27838,0.83524 -0.20642,5.49129 -3.40807,5.77289 -3.19842,0.27841 -6.18887,-2.36642 -7.09126,-6.26086 -0.90562,-3.89287 0.90239,-6.46569 3.33605,-6.46569 2.43523,0 4.10403,1.0416 4.17284,2.08483 0.072,1.04481 -0.69442,1.45923 0,2.92161 0.7904,1.65924 2.71205,1.11203 2.99044,1.94722 z"
               style="fill:#000000;fill-opacity:1;fill-rule:nonzero;stroke:#000000;stroke-width:0.3985;stroke-linecap:butt;stroke-linejoin:miter;stroke-miterlimit:10;stroke-dasharray:none;stroke-opacity:1"
               id="path42" /><path
               d="m 14.56056,40.72052 c 0.55683,-1.18243 0.59043,-2.29285 1.35524,-1.91203 0.86562,0.4368 -1.59843,8.06731 -2.98884,9.0433 -0.90722,0.27841 -1.98565,-0.6288 -1.49764,-1.32159 0.48961,-0.69922 2.29765,-3.65445 3.13124,-5.80968 z"
               style="fill:#000000;fill-opacity:1;fill-rule:nonzero;stroke:#000000;stroke-width:0.3985;stroke-linecap:butt;stroke-linejoin:miter;stroke-miterlimit:10;stroke-dasharray:none;stroke-opacity:1"
               id="path44" /><path
               d="m 8.3701,43.74615 c 0.90561,-0.80162 2.29602,-2.64323 3.30564,-4.41605 1.0064,-1.77442 1.28482,-3.02564 1.80642,-2.50403 0.52161,0.5216 -0.384,3.40483 -1.98082,6.29286 C 9.90132,46.00697 9.0485,46.21977 8.1621,45.55418 7.46608,45.03096 7.74449,44.30136 8.3701,43.74615 Z"
               style="fill:#000000;fill-opacity:1;fill-rule:nonzero;stroke:#000000;stroke-width:0.3985;stroke-linecap:butt;stroke-linejoin:miter;stroke-miterlimit:10;stroke-dasharray:none;stroke-opacity:1"
               id="path46" /><path
               d="m 11.74294,36.34126 c 0,0 -3.35364,3.91045 -5.11048,5.00646 -1.23042,0.76802 -1.80961,0.4512 -2.19041,-0.07199 -0.38401,-0.51841 -0.23522,-1.18403 0.6624,-1.70403 2.18722,-1.26723 4.37765,-2.91844 6.01289,-4.20486 0.368,-0.2896 1.11522,0.38079 0.6256,0.97442 z"
               style="fill:#000000;fill-opacity:1;fill-rule:nonzero;stroke:#000000;stroke-width:0.3985;stroke-linecap:butt;stroke-linejoin:miter;stroke-miterlimit:10;stroke-dasharray:none;stroke-opacity:1"
               id="path48" /><path
               d="M 7.24847,25.4387 C 5.17647,25.13472 2.042,25.2355 1.2788,25.30592 0.514,25.3827 0.28198,24.12671 0.906,23.54109 c 1.38721,-0.66081 8.4977,0.808 8.4513,1.68481 -0.03839,0.77282 -0.93121,0.30402 -2.10883,0.2128 z"
               style="fill:#000000;fill-opacity:1;fill-rule:nonzero;stroke:#000000;stroke-width:0.3985;stroke-linecap:butt;stroke-linejoin:miter;stroke-miterlimit:10;stroke-dasharray:none;stroke-opacity:1"
               id="path50" /><path
               d="m 6.70607,29.29477 c -1.90883,0.0368 -4.03685,0.37439 -5.09287,0.7872 -0.73121,0.28479 -1.45921,0.1792 -1.58721,-0.68161 -0.16318,-1.09602 0.37919,-1.74083 3.46563,-1.76483 3.08486,-0.02559 5.86568,0.56161 6.07208,1.26724 0.2032,0.7072 -0.95361,0.35199 -2.85763,0.392 z"
               style="fill:#000000;fill-opacity:1;fill-rule:nonzero;stroke:#000000;stroke-width:0.3985;stroke-linecap:butt;stroke-linejoin:miter;stroke-miterlimit:10;stroke-dasharray:none;stroke-opacity:1"
               id="path52" /><path
               d="M 9.3605,31.5284 C 7.37329,32.13802 4.76364,32.99559 2.47241,34.07243 1.538,34.50923 0.9076,34.25482 0.698,33.64522 0.4852,33.0308 0.5588,32.3796 1.88841,31.80519 c 1.90404,-0.81919 7.0289,-1.34561 7.0289,-1.34561 0.7616,-0.06239 0.888,0.9328 0.44319,1.06882 z"
               style="fill:#000000;fill-opacity:1;fill-rule:nonzero;stroke:#000000;stroke-width:0.3985;stroke-linecap:butt;stroke-linejoin:miter;stroke-miterlimit:10;stroke-dasharray:none;stroke-opacity:1"
               id="path54" /><path
               d="m 6.35086,36.75887 c -3.07523,1.9616 -3.99684,1.84001 -4.51845,0.848 C 1.314,36.61324 1.8132,35.91406 5.20685,34.56685 8.2325,33.36682 9.5509,32.8084 10.01973,33.32202 c 0.15678,0.67839 -0.64003,1.5072 -3.66887,3.43685 z"
               style="fill:#000000;fill-opacity:1;fill-rule:nonzero;stroke:#000000;stroke-width:0.3985;stroke-linecap:butt;stroke-linejoin:miter;stroke-miterlimit:10;stroke-dasharray:none;stroke-opacity:1"
               id="path56" /></g></g></g></g></g></svg>
