<?xml version="1.0" encoding="UTF-8" standalone="no"?>
<svg
   xmlns:dc="http://purl.org/dc/elements/1.1/"
   xmlns:cc="http://creativecommons.org/ns#"
   xmlns:rdf="http://www.w3.org/1999/02/22-rdf-syntax-ns#"
   xmlns:svg="http://www.w3.org/2000/svg"
   xmlns="http://www.w3.org/2000/svg"
   xmlns:sodipodi="http://sodipodi.sourceforge.net/DTD/sodipodi-0.dtd"
   xmlns:inkscape="http://www.inkscape.org/namespaces/inkscape"
   version="1.1"
   id="svg2"
   xml:space="preserve"
   width="153.50227"
   height="42.608543"
   viewBox="0 0 153.50227 42.608543"
   sodipodi:docname="vectorian047.pdf"><metadata
     id="metadata8"><rdf:RDF><cc:Work
         rdf:about=""><dc:format>image/svg+xml</dc:format><dc:type
           rdf:resource="http://purl.org/dc/dcmitype/StillImage" /></cc:Work></rdf:RDF></metadata><defs
     id="defs6" /><sodipodi:namedview
     pagecolor="#ffffff"
     bordercolor="#666666"
     borderopacity="1"
     objecttolerance="10"
     gridtolerance="10"
     guidetolerance="10"
     inkscape:pageopacity="0"
     inkscape:pageshadow="2"
     inkscape:window-width="640"
     inkscape:window-height="480"
     id="namedview4" /><g
     id="g10"
     inkscape:groupmode="layer"
     inkscape:label="vectorian047"
     transform="matrix(1.3333333,0,0,-1.3333333,1.2359185,44.677092)"><g
       id="g12"
       transform="translate(72,-37.714)"><g
         id="g14"
         transform="translate(-72,39.466)"><g
           id="g16"><g
             id="g18"><path
               d="m 114.18436,31.1985 c -17.22052,1.336 -23.5723,-7.0209 -23.5723,-7.0209 0,0 -7.8587,8.0225 -18.89226,7.0209 C 60.68587,30.19527 55.378,24.3888 55.378,24.3888 c 0,0 -6.7704,7.6465 -18.76664,7.1441 C 23.73228,30.9905 16.88449,22.75677 16.88449,22.75677 6.01897,32.0353 0,30.86568 0,30.86568 10.19772,28.35686 16.00739,21.87836 16.00739,21.87836 10.82352,15.86069 8.76349,7.62857 12.03613,2.60931 14.54388,-1.2355 22.53688,-1.7523 23.73929,7.46057 c 1.00241,7.68651 -4.84847,13.53937 -4.84847,13.53937 9.69693,9.36333 19.72756,8.36012 26.07994,7.18892 6.35259,-1.16962 9.02831,-5.34729 9.02831,-5.34729 C 47.22879,14.85748 51.18654,7.7166 53.83109,6.79018 c 3.34384,-1.17124 6.64627,0.96321 6.81338,6.31047 0,0 0.1259,3.55685 -3.25946,9.28172 0,0 7.64862,6.80807 16.67613,6.6433 9.02741,-0.16802 15.54709,-6.3937 15.54709,-6.3937 0,0 -2.86483,-3.47842 -1.83911,-6.81289 1.3383,-4.34725 6.35318,-3.34723 6.35318,1.00323 0,3.52643 -2.00623,6.01607 -2.00623,6.01607 5.18277,8.02411 22.06829,8.36012 22.06829,8.36012 z M 21.90027,9.13101 c -0.50079,-6.51848 -3.31494,-7.48649 -5.01578,-7.3553 -2.1734,0.1664 -5.26645,2.64642 -3.84373,9.02411 1.46182,6.56648 4.84697,9.07213 4.84697,9.07213 0,0 4.51495,-4.22087 4.01254,-10.74094 z m 36.82387,4.72966 c 0.764,-6.00648 -5.47896,-7.56331 -6.27336,-1.94723 -0.64632,4.54406 3.29762,9.21132 3.29762,9.21132 0,0 2.42113,-2.91364 2.97574,-7.26409 z m 33.89354,2.29123 c -0.50161,-3.51047 -5.68456,-0.83522 -1.50402,5.18247 0,0 2.00562,-1.67043 1.50402,-5.18247 z"
               style="fill:#000000;fill-opacity:1;fill-rule:nonzero;stroke:#000000;stroke-width:0.3985;stroke-linecap:butt;stroke-linejoin:miter;stroke-miterlimit:10;stroke-dasharray:none;stroke-opacity:1"
               id="path20" /></g></g></g></g></g></svg>
